<?xml version="1.0" encoding="UTF-8" standalone="no"?>
<!DOCTYPE svg PUBLIC "-//W3C//DTD SVG 1.1//EN"
 "http://www.w3.org/Graphics/SVG/1.1/DTD/svg11.dtd">
<!-- Generated by graphviz version 2.38.0 (20140413.2041)
 -->
<!-- Title: /home/travis/build/STORM&#45;IRIT/Radium&#45;Engine/src/Core/Containers/AdjacencyList.inl Pages: 1 -->
<svg width="607pt" height="408pt"
 viewBox="0.00 0.00 607.00 408.00" xmlns="http://www.w3.org/2000/svg" xmlns:xlink="http://www.w3.org/1999/xlink">
<g id="graph0" class="graph" transform="scale(1 1) rotate(0) translate(4 404)">
<title>/home/travis/build/STORM&#45;IRIT/Radium&#45;Engine/src/Core/Containers/AdjacencyList.inl</title>
<polygon fill="white" stroke="none" points="-4,4 -4,-404 603,-404 603,4 -4,4"/>
<!-- Node1 -->
<g id="node1" class="node"><title>Node1</title>
<polygon fill="#bfbfbf" stroke="black" points="83,-358.5 83,-399.5 279,-399.5 279,-358.5 83,-358.5"/>
<text text-anchor="start" x="91" y="-387.5" font-family="Helvetica,sans-Serif" font-size="10.00">/home/travis/build</text>
<text text-anchor="start" x="91" y="-376.5" font-family="Helvetica,sans-Serif" font-size="10.00">/STORM&#45;IRIT/Radium&#45;Engine</text>
<text text-anchor="middle" x="181" y="-365.5" font-family="Helvetica,sans-Serif" font-size="10.00">/src/Core/Containers/AdjacencyList.inl</text>
</g>
<!-- Node2 -->
<g id="node2" class="node"><title>Node2</title>
<g id="a_node2"><a xlink:href="AdjacencyList_8hpp.html" target="_top" xlink:title="Core/Containers/Adjacency\lList.hpp">
<polygon fill="white" stroke="black" points="108,-291.5 108,-321.5 254,-321.5 254,-291.5 108,-291.5"/>
<text text-anchor="start" x="116" y="-309.5" font-family="Helvetica,sans-Serif" font-size="10.00">Core/Containers/Adjacency</text>
<text text-anchor="middle" x="181" y="-298.5" font-family="Helvetica,sans-Serif" font-size="10.00">List.hpp</text>
</a>
</g>
</g>
<!-- Node1&#45;&gt;Node2 -->
<g id="edge1" class="edge"><title>Node1&#45;&gt;Node2</title>
<path fill="none" stroke="midnightblue" d="M174.877,-358.362C174.179,-350.226 174.064,-340.7 174.531,-332.105"/>
<polygon fill="midnightblue" stroke="midnightblue" points="178.04,-332.161 175.435,-321.892 171.067,-331.544 178.04,-332.161"/>
</g>
<!-- Node2&#45;&gt;Node1 -->
<g id="edge23" class="edge"><title>Node2&#45;&gt;Node1</title>
<path fill="none" stroke="midnightblue" d="M186.565,-321.892C187.556,-329.532 187.926,-339.214 187.673,-348.376"/>
<polygon fill="midnightblue" stroke="midnightblue" points="184.178,-348.185 187.123,-358.362 191.168,-348.569 184.178,-348.185"/>
</g>
<!-- Node3 -->
<g id="node3" class="node"><title>Node3</title>
<polygon fill="white" stroke="#bfbfbf" points="10.5,-0.5 10.5,-19.5 69.5,-19.5 69.5,-0.5 10.5,-0.5"/>
<text text-anchor="middle" x="40" y="-7.5" font-family="Helvetica,sans-Serif" font-size="10.00">iostream</text>
</g>
<!-- Node2&#45;&gt;Node3 -->
<g id="edge2" class="edge"><title>Node2&#45;&gt;Node3</title>
<path fill="none" stroke="midnightblue" d="M119.469,-291.45C66.9969,-275.396 0,-243.371 0,-184.5 0,-184.5 0,-184.5 0,-121 0,-86.6168 17.4742,-49.6307 29.3234,-28.503"/>
<polygon fill="midnightblue" stroke="midnightblue" points="32.4244,-30.1332 34.4382,-19.7315 26.3773,-26.6071 32.4244,-30.1332"/>
</g>
<!-- Node4 -->
<g id="node4" class="node"><title>Node4</title>
<polygon fill="white" stroke="#bfbfbf" points="531,-112.5 531,-131.5 599,-131.5 599,-112.5 531,-112.5"/>
<text text-anchor="middle" x="565" y="-119.5" font-family="Helvetica,sans-Serif" font-size="10.00">Eigen/Core</text>
</g>
<!-- Node2&#45;&gt;Node4 -->
<g id="edge3" class="edge"><title>Node2&#45;&gt;Node4</title>
<path fill="none" stroke="midnightblue" d="M231.916,-291.489C262.145,-282.487 300.909,-269.737 334,-255 414.64,-219.087 503.619,-163.229 543.544,-137.22"/>
<polygon fill="midnightblue" stroke="midnightblue" points="545.508,-140.118 551.954,-131.709 541.671,-134.263 545.508,-140.118"/>
</g>
<!-- Node5 -->
<g id="node5" class="node"><title>Node5</title>
<g id="a_node5"><a xlink:href="AlignedStdVector_8hpp.html" target="_top" xlink:title="Core/Containers/AlignedStd\lVector.hpp">
<polygon fill="white" stroke="black" points="49.5,-168.5 49.5,-198.5 198.5,-198.5 198.5,-168.5 49.5,-168.5"/>
<text text-anchor="start" x="57.5" y="-186.5" font-family="Helvetica,sans-Serif" font-size="10.00">Core/Containers/AlignedStd</text>
<text text-anchor="middle" x="124" y="-175.5" font-family="Helvetica,sans-Serif" font-size="10.00">Vector.hpp</text>
</a>
</g>
</g>
<!-- Node2&#45;&gt;Node5 -->
<g id="edge4" class="edge"><title>Node2&#45;&gt;Node5</title>
<path fill="none" stroke="midnightblue" d="M168.094,-291.453C159.862,-281.824 149.547,-268.41 143,-255 135.821,-240.295 131.051,-222.493 128.085,-208.457"/>
<polygon fill="midnightblue" stroke="midnightblue" points="131.507,-207.717 126.16,-198.571 124.636,-209.056 131.507,-207.717"/>
</g>
<!-- Node14 -->
<g id="node14" class="node"><title>Node14</title>
<g id="a_node14"><a xlink:href="VectorArray_8hpp.html" target="_top" xlink:title="Core/Containers/VectorArray.hpp">
<polygon fill="white" stroke="black" points="152.5,-235.5 152.5,-254.5 325.5,-254.5 325.5,-235.5 152.5,-235.5"/>
<text text-anchor="middle" x="239" y="-242.5" font-family="Helvetica,sans-Serif" font-size="10.00">Core/Containers/VectorArray.hpp</text>
</a>
</g>
</g>
<!-- Node2&#45;&gt;Node14 -->
<g id="edge14" class="edge"><title>Node2&#45;&gt;Node14</title>
<path fill="none" stroke="midnightblue" d="M194.745,-291.399C203.347,-282.575 214.452,-271.183 223.386,-262.018"/>
<polygon fill="midnightblue" stroke="midnightblue" points="226.086,-264.262 230.56,-254.658 221.074,-259.375 226.086,-264.262"/>
</g>
<!-- Node6 -->
<g id="node6" class="node"><title>Node6</title>
<g id="a_node6"><a xlink:href="RaCore_8hpp.html" target="_top" xlink:title="Core/RaCore.hpp">
<polygon fill="white" stroke="black" points="205,-112.5 205,-131.5 303,-131.5 303,-112.5 205,-112.5"/>
<text text-anchor="middle" x="254" y="-119.5" font-family="Helvetica,sans-Serif" font-size="10.00">Core/RaCore.hpp</text>
</a>
</g>
</g>
<!-- Node5&#45;&gt;Node6 -->
<g id="edge5" class="edge"><title>Node5&#45;&gt;Node6</title>
<path fill="none" stroke="midnightblue" d="M154.808,-168.399C176.328,-158.55 204.837,-145.501 225.768,-135.922"/>
<polygon fill="midnightblue" stroke="midnightblue" points="227.448,-139.002 235.084,-131.658 224.534,-132.637 227.448,-139.002"/>
</g>
<!-- Node12 -->
<g id="node12" class="node"><title>Node12</title>
<polygon fill="white" stroke="#bfbfbf" points="28.5,-112.5 28.5,-131.5 121.5,-131.5 121.5,-112.5 28.5,-112.5"/>
<text text-anchor="middle" x="75" y="-119.5" font-family="Helvetica,sans-Serif" font-size="10.00">Eigen/StdVector</text>
</g>
<!-- Node5&#45;&gt;Node12 -->
<g id="edge12" class="edge"><title>Node5&#45;&gt;Node12</title>
<path fill="none" stroke="midnightblue" d="M112.388,-168.399C105.267,-159.753 96.1169,-148.642 88.6508,-139.576"/>
<polygon fill="midnightblue" stroke="midnightblue" points="91.1888,-137.152 82.1299,-131.658 85.7853,-141.602 91.1888,-137.152"/>
</g>
<!-- Node13 -->
<g id="node13" class="node"><title>Node13</title>
<polygon fill="white" stroke="#bfbfbf" points="139.5,-112.5 139.5,-131.5 186.5,-131.5 186.5,-112.5 139.5,-112.5"/>
<text text-anchor="middle" x="163" y="-119.5" font-family="Helvetica,sans-Serif" font-size="10.00">vector</text>
</g>
<!-- Node5&#45;&gt;Node13 -->
<g id="edge13" class="edge"><title>Node5&#45;&gt;Node13</title>
<path fill="none" stroke="midnightblue" d="M133.242,-168.399C138.793,-159.932 145.893,-149.099 151.766,-140.139"/>
<polygon fill="midnightblue" stroke="midnightblue" points="154.77,-141.94 157.325,-131.658 148.916,-138.103 154.77,-141.94"/>
</g>
<!-- Node7 -->
<g id="node7" class="node"><title>Node7</title>
<g id="a_node7"><a xlink:href="CoreMacros_8hpp.html" target="_top" xlink:title="Core/CoreMacros.hpp">
<polygon fill="white" stroke="black" points="173,-56.5 173,-75.5 293,-75.5 293,-56.5 173,-56.5"/>
<text text-anchor="middle" x="233" y="-63.5" font-family="Helvetica,sans-Serif" font-size="10.00">Core/CoreMacros.hpp</text>
</a>
</g>
</g>
<!-- Node6&#45;&gt;Node7 -->
<g id="edge6" class="edge"><title>Node6&#45;&gt;Node7</title>
<path fill="none" stroke="midnightblue" d="M250.532,-112.083C247.688,-104.77 243.571,-94.1814 240.04,-85.1034"/>
<polygon fill="midnightblue" stroke="midnightblue" points="243.29,-83.8025 236.403,-75.7511 236.766,-86.3397 243.29,-83.8025"/>
</g>
<!-- Node7&#45;&gt;Node3 -->
<g id="edge9" class="edge"><title>Node7&#45;&gt;Node3</title>
<path fill="none" stroke="midnightblue" d="M202.419,-56.4435C169.191,-47.1467 115.991,-32.2617 79.5938,-22.0781"/>
<polygon fill="midnightblue" stroke="midnightblue" points="80.3774,-18.663 69.8042,-19.339 78.4913,-25.4041 80.3774,-18.663"/>
</g>
<!-- Node8 -->
<g id="node8" class="node"><title>Node8</title>
<polygon fill="white" stroke="#bfbfbf" points="174,-0.5 174,-19.5 226,-19.5 226,-0.5 174,-0.5"/>
<text text-anchor="middle" x="200" y="-7.5" font-family="Helvetica,sans-Serif" font-size="10.00">cassert</text>
</g>
<!-- Node7&#45;&gt;Node8 -->
<g id="edge7" class="edge"><title>Node7&#45;&gt;Node8</title>
<path fill="none" stroke="midnightblue" d="M227.551,-56.083C222.986,-48.6127 216.332,-37.7244 210.707,-28.5199"/>
<polygon fill="midnightblue" stroke="midnightblue" points="213.549,-26.4588 205.348,-19.7511 207.576,-30.109 213.549,-26.4588"/>
</g>
<!-- Node9 -->
<g id="node9" class="node"><title>Node9</title>
<polygon fill="white" stroke="#bfbfbf" points="244.5,-0.5 244.5,-19.5 289.5,-19.5 289.5,-0.5 244.5,-0.5"/>
<text text-anchor="middle" x="267" y="-7.5" font-family="Helvetica,sans-Serif" font-size="10.00">cstdio</text>
</g>
<!-- Node7&#45;&gt;Node9 -->
<g id="edge8" class="edge"><title>Node7&#45;&gt;Node9</title>
<path fill="none" stroke="midnightblue" d="M238.614,-56.083C243.367,-48.5341 250.318,-37.4948 256.152,-28.2298"/>
<polygon fill="midnightblue" stroke="midnightblue" points="259.124,-30.0783 261.49,-19.7511 253.2,-26.3486 259.124,-30.0783"/>
</g>
<!-- Node10 -->
<g id="node10" class="node"><title>Node10</title>
<polygon fill="white" stroke="#bfbfbf" points="308,-0.5 308,-19.5 364,-19.5 364,-0.5 308,-0.5"/>
<text text-anchor="middle" x="336" y="-7.5" font-family="Helvetica,sans-Serif" font-size="10.00">sstream</text>
</g>
<!-- Node7&#45;&gt;Node10 -->
<g id="edge10" class="edge"><title>Node7&#45;&gt;Node10</title>
<path fill="none" stroke="midnightblue" d="M249.549,-56.324C265.992,-47.7034 291.435,-34.3643 310.468,-24.3855"/>
<polygon fill="midnightblue" stroke="midnightblue" points="312.261,-27.3977 319.492,-19.6545 309.011,-21.198 312.261,-27.3977"/>
</g>
<!-- Node11 -->
<g id="node11" class="node"><title>Node11</title>
<polygon fill="white" stroke="#bfbfbf" points="108,-0.5 108,-19.5 156,-19.5 156,-0.5 108,-0.5"/>
<text text-anchor="middle" x="132" y="-7.5" font-family="Helvetica,sans-Serif" font-size="10.00">thread</text>
</g>
<!-- Node7&#45;&gt;Node11 -->
<g id="edge11" class="edge"><title>Node7&#45;&gt;Node11</title>
<path fill="none" stroke="midnightblue" d="M216.773,-56.324C200.649,-47.7034 175.7,-34.3643 157.036,-24.3855"/>
<polygon fill="midnightblue" stroke="midnightblue" points="158.656,-21.283 148.187,-19.6545 155.356,-27.456 158.656,-21.283"/>
</g>
<!-- Node14&#45;&gt;Node5 -->
<g id="edge15" class="edge"><title>Node14&#45;&gt;Node5</title>
<path fill="none" stroke="midnightblue" d="M222.523,-235.475C206.293,-227.078 180.964,-213.973 160.053,-203.153"/>
<polygon fill="midnightblue" stroke="midnightblue" points="161.593,-200.01 151.103,-198.523 158.377,-206.227 161.593,-200.01"/>
</g>
<!-- Node14&#45;&gt;Node6 -->
<g id="edge21" class="edge"><title>Node14&#45;&gt;Node6</title>
<path fill="none" stroke="midnightblue" d="M240.079,-235.298C242.49,-215.85 248.361,-168.49 251.657,-141.904"/>
<polygon fill="midnightblue" stroke="midnightblue" points="255.174,-141.978 252.931,-131.623 248.227,-141.117 255.174,-141.978"/>
</g>
<!-- Node14&#45;&gt;Node13 -->
<g id="edge22" class="edge"><title>Node14&#45;&gt;Node13</title>
<path fill="none" stroke="midnightblue" d="M236.436,-235.036C231.95,-220.25 221.734,-190.181 207,-168 199.779,-157.129 189.718,-146.607 181.04,-138.474"/>
<polygon fill="midnightblue" stroke="midnightblue" points="183.346,-135.841 173.579,-131.736 178.654,-141.036 183.346,-135.841"/>
</g>
<!-- Node15 -->
<g id="node15" class="node"><title>Node15</title>
<g id="a_node15"><a xlink:href="Types_8hpp.html" target="_top" xlink:title="Core/Math/Types.hpp">
<polygon fill="white" stroke="black" points="303,-174 303,-193 419,-193 419,-174 303,-174"/>
<text text-anchor="middle" x="361" y="-181" font-family="Helvetica,sans-Serif" font-size="10.00">Core/Math/Types.hpp</text>
</a>
</g>
</g>
<!-- Node14&#45;&gt;Node15 -->
<g id="edge16" class="edge"><title>Node14&#45;&gt;Node15</title>
<path fill="none" stroke="midnightblue" d="M256.48,-235.475C276.863,-225.534 310.775,-208.995 334.425,-197.461"/>
<polygon fill="midnightblue" stroke="midnightblue" points="336.099,-200.538 343.553,-193.009 333.031,-194.247 336.099,-200.538"/>
</g>
<!-- Node15&#45;&gt;Node4 -->
<g id="edge18" class="edge"><title>Node15&#45;&gt;Node4</title>
<path fill="none" stroke="midnightblue" d="M390.228,-173.975C425.903,-163.57 486.36,-145.937 525.982,-134.38"/>
<polygon fill="midnightblue" stroke="midnightblue" points="527.206,-137.669 535.826,-131.509 525.246,-130.949 527.206,-137.669"/>
</g>
<!-- Node15&#45;&gt;Node6 -->
<g id="edge17" class="edge"><title>Node15&#45;&gt;Node6</title>
<path fill="none" stroke="midnightblue" d="M345.67,-173.975C328.03,-164.166 298.84,-147.935 278.142,-136.425"/>
<polygon fill="midnightblue" stroke="midnightblue" points="279.743,-133.31 269.302,-131.509 276.341,-139.428 279.743,-133.31"/>
</g>
<!-- Node16 -->
<g id="node16" class="node"><title>Node16</title>
<polygon fill="white" stroke="#bfbfbf" points="419,-112.5 419,-131.5 513,-131.5 513,-112.5 419,-112.5"/>
<text text-anchor="middle" x="466" y="-119.5" font-family="Helvetica,sans-Serif" font-size="10.00">Eigen/Geometry</text>
</g>
<!-- Node15&#45;&gt;Node16 -->
<g id="edge19" class="edge"><title>Node15&#45;&gt;Node16</title>
<path fill="none" stroke="midnightblue" d="M376.044,-173.975C393.275,-164.211 421.74,-148.081 442.034,-136.581"/>
<polygon fill="midnightblue" stroke="midnightblue" points="444.009,-139.484 450.984,-131.509 440.558,-133.394 444.009,-139.484"/>
</g>
<!-- Node17 -->
<g id="node17" class="node"><title>Node17</title>
<polygon fill="white" stroke="#bfbfbf" points="321,-112.5 321,-131.5 401,-131.5 401,-112.5 321,-112.5"/>
<text text-anchor="middle" x="361" y="-119.5" font-family="Helvetica,sans-Serif" font-size="10.00">Eigen/Sparse</text>
</g>
<!-- Node15&#45;&gt;Node17 -->
<g id="edge20" class="edge"><title>Node15&#45;&gt;Node17</title>
<path fill="none" stroke="midnightblue" d="M361,-173.975C361,-165.58 361,-152.481 361,-141.663"/>
<polygon fill="midnightblue" stroke="midnightblue" points="364.5,-141.509 361,-131.509 357.5,-141.509 364.5,-141.509"/>
</g>
</g>
</svg>
