<?xml version="1.0" encoding="UTF-8" standalone="no"?>
<!DOCTYPE svg PUBLIC "-//W3C//DTD SVG 1.1//EN"
 "http://www.w3.org/Graphics/SVG/1.1/DTD/svg11.dtd">
<!-- Generated by graphviz version 2.38.0 (20140413.2041)
 -->
<!-- Title: /home/travis/build/STORM&#45;IRIT/Radium&#45;Engine/src/Core/Containers/AdjacencyList.inl Pages: 1 -->
<svg width="1309pt" height="551pt"
 viewBox="0.00 0.00 1309.00 551.00" xmlns="http://www.w3.org/2000/svg" xmlns:xlink="http://www.w3.org/1999/xlink">
<g id="graph0" class="graph" transform="scale(1 1) rotate(0) translate(4 547)">
<title>/home/travis/build/STORM&#45;IRIT/Radium&#45;Engine/src/Core/Containers/AdjacencyList.inl</title>
<polygon fill="white" stroke="none" points="-4,4 -4,-547 1305,-547 1305,4 -4,4"/>
<!-- Node1 -->
<g id="node1" class="node"><title>Node1</title>
<polygon fill="#bfbfbf" stroke="black" points="391.5,-501.5 391.5,-542.5 587.5,-542.5 587.5,-501.5 391.5,-501.5"/>
<text text-anchor="start" x="399.5" y="-530.5" font-family="Helvetica,sans-Serif" font-size="10.00">/home/travis/build</text>
<text text-anchor="start" x="399.5" y="-519.5" font-family="Helvetica,sans-Serif" font-size="10.00">/STORM&#45;IRIT/Radium&#45;Engine</text>
<text text-anchor="middle" x="489.5" y="-508.5" font-family="Helvetica,sans-Serif" font-size="10.00">/src/Core/Containers/AdjacencyList.inl</text>
</g>
<!-- Node2 -->
<g id="node2" class="node"><title>Node2</title>
<g id="a_node2"><a xlink:href="AdjacencyList_8hpp.html" target="_top" xlink:title="/home/travis/build\l/STORM&#45;IRIT/Radium&#45;Engine\l/src/Core/Containers/AdjacencyList.hpp">
<polygon fill="white" stroke="black" points="388,-423.5 388,-464.5 591,-464.5 591,-423.5 388,-423.5"/>
<text text-anchor="start" x="396" y="-452.5" font-family="Helvetica,sans-Serif" font-size="10.00">/home/travis/build</text>
<text text-anchor="start" x="396" y="-441.5" font-family="Helvetica,sans-Serif" font-size="10.00">/STORM&#45;IRIT/Radium&#45;Engine</text>
<text text-anchor="middle" x="489.5" y="-430.5" font-family="Helvetica,sans-Serif" font-size="10.00">/src/Core/Containers/AdjacencyList.hpp</text>
</a>
</g>
</g>
<!-- Node1&#45;&gt;Node2 -->
<g id="edge1" class="edge"><title>Node1&#45;&gt;Node2</title>
<path fill="none" stroke="midnightblue" d="M482.895,-491.297C482.576,-482.301 482.783,-472.653 483.518,-464.506"/>
<polygon fill="midnightblue" stroke="midnightblue" points="479.411,-491.659 483.512,-501.428 486.398,-491.234 479.411,-491.659"/>
</g>
<!-- Node2&#45;&gt;Node1 -->
<g id="edge26" class="edge"><title>Node2&#45;&gt;Node1</title>
<path fill="none" stroke="midnightblue" d="M496.102,-474.63C496.424,-483.622 496.22,-493.272 495.488,-501.428"/>
<polygon fill="midnightblue" stroke="midnightblue" points="499.587,-474.273 495.482,-464.506 492.6,-474.701 499.587,-474.273"/>
</g>
<!-- Node3 -->
<g id="node3" class="node"><title>Node3</title>
<g id="a_node3"><a xlink:href="BulgeCorrection_8hpp.html" target="_top" xlink:title="/home/travis/build\l/STORM&#45;IRIT/Radium&#45;Engine\l/src/Core/Animation/BulgeCorrection.hpp">
<polygon fill="white" stroke="black" points="114.5,-345.5 114.5,-386.5 326.5,-386.5 326.5,-345.5 114.5,-345.5"/>
<text text-anchor="start" x="122.5" y="-374.5" font-family="Helvetica,sans-Serif" font-size="10.00">/home/travis/build</text>
<text text-anchor="start" x="122.5" y="-363.5" font-family="Helvetica,sans-Serif" font-size="10.00">/STORM&#45;IRIT/Radium&#45;Engine</text>
<text text-anchor="middle" x="220.5" y="-352.5" font-family="Helvetica,sans-Serif" font-size="10.00">/src/Core/Animation/BulgeCorrection.hpp</text>
</a>
</g>
</g>
<!-- Node2&#45;&gt;Node3 -->
<g id="edge2" class="edge"><title>Node2&#45;&gt;Node3</title>
<path fill="none" stroke="midnightblue" d="M410.147,-420.58C371.863,-409.764 326.371,-396.911 289.539,-386.506"/>
<polygon fill="midnightblue" stroke="midnightblue" points="409.651,-424.077 420.226,-423.428 411.554,-417.341 409.651,-424.077"/>
</g>
<!-- Node5 -->
<g id="node5" class="node"><title>Node5</title>
<g id="a_node5"><a xlink:href="Skeleton_8hpp.html" target="_top" xlink:title="/home/travis/build\l/STORM&#45;IRIT/Radium&#45;Engine\l/src/Core/Animation/Skeleton.hpp">
<polygon fill="white" stroke="black" points="401,-345.5 401,-386.5 578,-386.5 578,-345.5 401,-345.5"/>
<text text-anchor="start" x="409" y="-374.5" font-family="Helvetica,sans-Serif" font-size="10.00">/home/travis/build</text>
<text text-anchor="start" x="409" y="-363.5" font-family="Helvetica,sans-Serif" font-size="10.00">/STORM&#45;IRIT/Radium&#45;Engine</text>
<text text-anchor="middle" x="489.5" y="-352.5" font-family="Helvetica,sans-Serif" font-size="10.00">/src/Core/Animation/Skeleton.hpp</text>
</a>
</g>
</g>
<!-- Node2&#45;&gt;Node5 -->
<g id="edge4" class="edge"><title>Node2&#45;&gt;Node5</title>
<path fill="none" stroke="midnightblue" d="M489.5,-413.297C489.5,-404.301 489.5,-394.653 489.5,-386.506"/>
<polygon fill="midnightblue" stroke="midnightblue" points="486,-413.428 489.5,-423.428 493,-413.428 486,-413.428"/>
</g>
<!-- Node21 -->
<g id="node21" class="node"><title>Node21</title>
<g id="a_node21"><a xlink:href="AdjacencyList_8cpp.html" target="_top" xlink:title="/home/travis/build\l/STORM&#45;IRIT/Radium&#45;Engine\l/src/Core/Containers/AdjacencyList.cpp">
<polygon fill="white" stroke="black" points="596,-345.5 596,-386.5 799,-386.5 799,-345.5 596,-345.5"/>
<text text-anchor="start" x="604" y="-374.5" font-family="Helvetica,sans-Serif" font-size="10.00">/home/travis/build</text>
<text text-anchor="start" x="604" y="-363.5" font-family="Helvetica,sans-Serif" font-size="10.00">/STORM&#45;IRIT/Radium&#45;Engine</text>
<text text-anchor="middle" x="697.5" y="-352.5" font-family="Helvetica,sans-Serif" font-size="10.00">/src/Core/Containers/AdjacencyList.cpp</text>
</a>
</g>
</g>
<!-- Node2&#45;&gt;Node21 -->
<g id="edge25" class="edge"><title>Node2&#45;&gt;Node21</title>
<path fill="none" stroke="midnightblue" d="M552.756,-419.887C581.955,-409.219 616.243,-396.69 644.116,-386.506"/>
<polygon fill="midnightblue" stroke="midnightblue" points="551.257,-416.709 543.065,-423.428 553.659,-423.284 551.257,-416.709"/>
</g>
<!-- Node4 -->
<g id="node4" class="node"><title>Node4</title>
<g id="a_node4"><a xlink:href="BulgeCorrection_8cpp.html" target="_top" xlink:title="/home/travis/build\l/STORM&#45;IRIT/Radium&#45;Engine\l/src/Core/Animation/BulgeCorrection.cpp">
<polygon fill="white" stroke="black" points="0,-262 0,-303 211,-303 211,-262 0,-262"/>
<text text-anchor="start" x="8" y="-291" font-family="Helvetica,sans-Serif" font-size="10.00">/home/travis/build</text>
<text text-anchor="start" x="8" y="-280" font-family="Helvetica,sans-Serif" font-size="10.00">/STORM&#45;IRIT/Radium&#45;Engine</text>
<text text-anchor="middle" x="105.5" y="-269" font-family="Helvetica,sans-Serif" font-size="10.00">/src/Core/Animation/BulgeCorrection.cpp</text>
</a>
</g>
</g>
<!-- Node3&#45;&gt;Node4 -->
<g id="edge3" class="edge"><title>Node3&#45;&gt;Node4</title>
<path fill="none" stroke="midnightblue" d="M184.58,-339.543C168.008,-327.799 148.64,-314.073 133.219,-303.144"/>
<polygon fill="midnightblue" stroke="midnightblue" points="182.772,-342.552 192.955,-345.479 186.82,-336.841 182.772,-342.552"/>
</g>
<!-- Node6 -->
<g id="node6" class="node"><title>Node6</title>
<g id="a_node6"><a xlink:href="Skeleton_8cpp.html" target="_top" xlink:title="/home/travis/build\l/STORM&#45;IRIT/Radium&#45;Engine\l/src/Core/Animation/Skeleton.cpp">
<polygon fill="white" stroke="black" points="459.5,-262 459.5,-303 635.5,-303 635.5,-262 459.5,-262"/>
<text text-anchor="start" x="467.5" y="-291" font-family="Helvetica,sans-Serif" font-size="10.00">/home/travis/build</text>
<text text-anchor="start" x="467.5" y="-280" font-family="Helvetica,sans-Serif" font-size="10.00">/STORM&#45;IRIT/Radium&#45;Engine</text>
<text text-anchor="middle" x="547.5" y="-269" font-family="Helvetica,sans-Serif" font-size="10.00">/src/Core/Animation/Skeleton.cpp</text>
</a>
</g>
</g>
<!-- Node5&#45;&gt;Node6 -->
<g id="edge5" class="edge"><title>Node5&#45;&gt;Node6</title>
<path fill="none" stroke="midnightblue" d="M509.388,-337.054C517.355,-325.859 526.343,-313.229 533.589,-303.047"/>
<polygon fill="midnightblue" stroke="midnightblue" points="506.487,-335.094 503.54,-345.271 512.19,-339.153 506.487,-335.094"/>
</g>
<!-- Node7 -->
<g id="node7" class="node"><title>Node7</title>
<g id="a_node7"><a xlink:href="SkinningData_8hpp.html" target="_top" xlink:title="/home/travis/build\l/STORM&#45;IRIT/Radium&#45;Engine\l/src/Core/Animation/SkinningData.hpp">
<polygon fill="white" stroke="black" points="654,-262 654,-303 853,-303 853,-262 654,-262"/>
<text text-anchor="start" x="662" y="-291" font-family="Helvetica,sans-Serif" font-size="10.00">/home/travis/build</text>
<text text-anchor="start" x="662" y="-280" font-family="Helvetica,sans-Serif" font-size="10.00">/STORM&#45;IRIT/Radium&#45;Engine</text>
<text text-anchor="middle" x="753.5" y="-269" font-family="Helvetica,sans-Serif" font-size="10.00">/src/Core/Animation/SkinningData.hpp</text>
</a>
</g>
</g>
<!-- Node5&#45;&gt;Node7 -->
<g id="edge6" class="edge"><title>Node5&#45;&gt;Node7</title>
<path fill="none" stroke="midnightblue" d="M562.46,-342.476C602.58,-330.091 651.863,-314.876 690.324,-303.003"/>
<polygon fill="midnightblue" stroke="midnightblue" points="561.257,-339.185 552.735,-345.479 563.322,-345.873 561.257,-339.185"/>
</g>
<!-- Node15 -->
<g id="node15" class="node"><title>Node15</title>
<g id="a_node15"><a xlink:href="HandleToSkeleton_8cpp.html" target="_top" xlink:title="/home/travis/build\l/STORM&#45;IRIT/Radium&#45;Engine\l/src/Core/Asset/HandleToSkeleton.cpp">
<polygon fill="white" stroke="black" points="871.5,-262 871.5,-303 1069.5,-303 1069.5,-262 871.5,-262"/>
<text text-anchor="start" x="879.5" y="-291" font-family="Helvetica,sans-Serif" font-size="10.00">/home/travis/build</text>
<text text-anchor="start" x="879.5" y="-280" font-family="Helvetica,sans-Serif" font-size="10.00">/STORM&#45;IRIT/Radium&#45;Engine</text>
<text text-anchor="middle" x="970.5" y="-269" font-family="Helvetica,sans-Serif" font-size="10.00">/src/Core/Asset/HandleToSkeleton.cpp</text>
</a>
</g>
</g>
<!-- Node5&#45;&gt;Node15 -->
<g id="edge16" class="edge"><title>Node5&#45;&gt;Node15</title>
<path fill="none" stroke="midnightblue" d="M588.277,-344.941C710.834,-324.987 744.446,-330.606 862.5,-309 872.07,-307.248 882.067,-305.196 891.95,-303.029"/>
<polygon fill="midnightblue" stroke="midnightblue" points="587.417,-341.536 578.121,-346.62 588.558,-348.442 587.417,-341.536"/>
</g>
<!-- Node16 -->
<g id="node16" class="node"><title>Node16</title>
<g id="a_node16"><a xlink:href="AnimationComponent_8hpp.html" target="_top" xlink:title="/home/travis/build\l/STORM&#45;IRIT/Radium&#45;Engine\l/Plugins/Animation/src/Animation\lComponent.hpp">
<polygon fill="white" stroke="black" points="229.5,-256.5 229.5,-308.5 403.5,-308.5 403.5,-256.5 229.5,-256.5"/>
<text text-anchor="start" x="237.5" y="-296.5" font-family="Helvetica,sans-Serif" font-size="10.00">/home/travis/build</text>
<text text-anchor="start" x="237.5" y="-285.5" font-family="Helvetica,sans-Serif" font-size="10.00">/STORM&#45;IRIT/Radium&#45;Engine</text>
<text text-anchor="start" x="237.5" y="-274.5" font-family="Helvetica,sans-Serif" font-size="10.00">/Plugins/Animation/src/Animation</text>
<text text-anchor="middle" x="316.5" y="-263.5" font-family="Helvetica,sans-Serif" font-size="10.00">Component.hpp</text>
</a>
</g>
</g>
<!-- Node5&#45;&gt;Node16 -->
<g id="edge17" class="edge"><title>Node5&#45;&gt;Node16</title>
<path fill="none" stroke="midnightblue" d="M438.985,-341.203C417.23,-330.954 391.779,-318.964 369.73,-308.576"/>
<polygon fill="midnightblue" stroke="midnightblue" points="437.524,-344.383 448.062,-345.479 440.507,-338.051 437.524,-344.383"/>
</g>
<!-- Node19 -->
<g id="node19" class="node"><title>Node19</title>
<g id="a_node19"><a xlink:href="SkeletonBoneDrawable_8hpp.html" target="_top" xlink:title="/home/travis/build\l/STORM&#45;IRIT/Radium&#45;Engine\l/Plugins/Animation/src/Drawing\l/SkeletonBoneDrawable.hpp">
<polygon fill="white" stroke="black" points="344.5,-167.5 344.5,-219.5 508.5,-219.5 508.5,-167.5 344.5,-167.5"/>
<text text-anchor="start" x="352.5" y="-207.5" font-family="Helvetica,sans-Serif" font-size="10.00">/home/travis/build</text>
<text text-anchor="start" x="352.5" y="-196.5" font-family="Helvetica,sans-Serif" font-size="10.00">/STORM&#45;IRIT/Radium&#45;Engine</text>
<text text-anchor="start" x="352.5" y="-185.5" font-family="Helvetica,sans-Serif" font-size="10.00">/Plugins/Animation/src/Drawing</text>
<text text-anchor="middle" x="426.5" y="-174.5" font-family="Helvetica,sans-Serif" font-size="10.00">/SkeletonBoneDrawable.hpp</text>
</a>
</g>
</g>
<!-- Node5&#45;&gt;Node19 -->
<g id="edge24" class="edge"><title>Node5&#45;&gt;Node19</title>
<path fill="none" stroke="midnightblue" d="M466.902,-337.247C460.8,-328.618 454.726,-318.79 450.5,-309 437.944,-279.91 431.778,-243.755 428.878,-219.948"/>
<polygon fill="midnightblue" stroke="midnightblue" points="464.189,-339.465 472.945,-345.43 469.82,-335.307 464.189,-339.465"/>
</g>
<!-- Node8 -->
<g id="node8" class="node"><title>Node8</title>
<g id="a_node8"><a xlink:href="RotationCenterSkinning_8hpp.html" target="_top" xlink:title="/home/travis/build\l/STORM&#45;IRIT/Radium&#45;Engine\l/src/Core/Animation/RotationCenter\lSkinning.hpp">
<polygon fill="white" stroke="black" points="635,-167.5 635,-219.5 820,-219.5 820,-167.5 635,-167.5"/>
<text text-anchor="start" x="643" y="-207.5" font-family="Helvetica,sans-Serif" font-size="10.00">/home/travis/build</text>
<text text-anchor="start" x="643" y="-196.5" font-family="Helvetica,sans-Serif" font-size="10.00">/STORM&#45;IRIT/Radium&#45;Engine</text>
<text text-anchor="start" x="643" y="-185.5" font-family="Helvetica,sans-Serif" font-size="10.00">/src/Core/Animation/RotationCenter</text>
<text text-anchor="middle" x="727.5" y="-174.5" font-family="Helvetica,sans-Serif" font-size="10.00">Skinning.hpp</text>
</a>
</g>
</g>
<!-- Node7&#45;&gt;Node8 -->
<g id="edge7" class="edge"><title>Node7&#45;&gt;Node8</title>
<path fill="none" stroke="midnightblue" d="M744.732,-252.16C741.593,-241.658 738.085,-229.919 735.057,-219.788"/>
<polygon fill="midnightblue" stroke="midnightblue" points="741.383,-253.179 747.6,-261.758 748.09,-251.175 741.383,-253.179"/>
</g>
<!-- Node11 -->
<g id="node11" class="node"><title>Node11</title>
<g id="a_node11"><a xlink:href="SkinningDisplayComponent_8hpp.html" target="_top" xlink:title="/home/travis/build\l/STORM&#45;IRIT/Radium&#45;Engine\l/Plugins/Skinning/src/Display\l/SkinningDisplayComponent.hpp">
<polygon fill="white" stroke="black" points="1101.5,-167.5 1101.5,-219.5 1273.5,-219.5 1273.5,-167.5 1101.5,-167.5"/>
<text text-anchor="start" x="1109.5" y="-207.5" font-family="Helvetica,sans-Serif" font-size="10.00">/home/travis/build</text>
<text text-anchor="start" x="1109.5" y="-196.5" font-family="Helvetica,sans-Serif" font-size="10.00">/STORM&#45;IRIT/Radium&#45;Engine</text>
<text text-anchor="start" x="1109.5" y="-185.5" font-family="Helvetica,sans-Serif" font-size="10.00">/Plugins/Skinning/src/Display</text>
<text text-anchor="middle" x="1187.5" y="-174.5" font-family="Helvetica,sans-Serif" font-size="10.00">/SkinningDisplayComponent.hpp</text>
</a>
</g>
</g>
<!-- Node7&#45;&gt;Node11 -->
<g id="edge10" class="edge"><title>Node7&#45;&gt;Node11</title>
<path fill="none" stroke="midnightblue" d="M844.102,-259.814C850.318,-258.477 856.495,-257.192 862.5,-256 959.681,-236.704 985.401,-239.705 1082.5,-220 1088.66,-218.75 1095,-217.391 1101.38,-215.972"/>
<polygon fill="midnightblue" stroke="midnightblue" points="843.342,-256.397 834.32,-261.951 844.836,-263.236 843.342,-256.397"/>
</g>
<!-- Node14 -->
<g id="node14" class="node"><title>Node14</title>
<g id="a_node14"><a xlink:href="SkinningComponent_8hpp.html" target="_top" xlink:title="/home/travis/build\l/STORM&#45;IRIT/Radium&#45;Engine\l/Plugins/Skinning/src/SkinningComponent.hpp">
<polygon fill="white" stroke="black" points="838,-173 838,-214 1073,-214 1073,-173 838,-173"/>
<text text-anchor="start" x="846" y="-202" font-family="Helvetica,sans-Serif" font-size="10.00">/home/travis/build</text>
<text text-anchor="start" x="846" y="-191" font-family="Helvetica,sans-Serif" font-size="10.00">/STORM&#45;IRIT/Radium&#45;Engine</text>
<text text-anchor="middle" x="955.5" y="-180" font-family="Helvetica,sans-Serif" font-size="10.00">/Plugins/Skinning/src/SkinningComponent.hpp</text>
</a>
</g>
</g>
<!-- Node7&#45;&gt;Node14 -->
<g id="edge13" class="edge"><title>Node7&#45;&gt;Node14</title>
<path fill="none" stroke="midnightblue" d="M808.033,-258.013C839.938,-244.272 879.755,-227.123 909.97,-214.11"/>
<polygon fill="midnightblue" stroke="midnightblue" points="806.633,-254.805 798.833,-261.976 809.402,-261.234 806.633,-254.805"/>
</g>
<!-- Node9 -->
<g id="node9" class="node"><title>Node9</title>
<g id="a_node9"><a xlink:href="RotationCenterSkinning_8cpp.html" target="_top" xlink:title="/home/travis/build\l/STORM&#45;IRIT/Radium&#45;Engine\l/src/Core/Animation/RotationCenter\lSkinning.cpp">
<polygon fill="white" stroke="black" points="630,-78.5 630,-130.5 815,-130.5 815,-78.5 630,-78.5"/>
<text text-anchor="start" x="638" y="-118.5" font-family="Helvetica,sans-Serif" font-size="10.00">/home/travis/build</text>
<text text-anchor="start" x="638" y="-107.5" font-family="Helvetica,sans-Serif" font-size="10.00">/STORM&#45;IRIT/Radium&#45;Engine</text>
<text text-anchor="start" x="638" y="-96.5" font-family="Helvetica,sans-Serif" font-size="10.00">/src/Core/Animation/RotationCenter</text>
<text text-anchor="middle" x="722.5" y="-85.5" font-family="Helvetica,sans-Serif" font-size="10.00">Skinning.cpp</text>
</a>
</g>
</g>
<!-- Node8&#45;&gt;Node9 -->
<g id="edge8" class="edge"><title>Node8&#45;&gt;Node9</title>
<path fill="none" stroke="midnightblue" d="M725.471,-157.191C724.959,-148.282 724.419,-138.899 723.943,-130.607"/>
<polygon fill="midnightblue" stroke="midnightblue" points="721.986,-157.553 726.054,-167.336 728.974,-157.152 721.986,-157.553"/>
</g>
<!-- Node10 -->
<g id="node10" class="node"><title>Node10</title>
<g id="a_node10"><a xlink:href="SkinningComponent_8cpp.html" target="_top" xlink:title="/home/travis/build\l/STORM&#45;IRIT/Radium&#45;Engine\l/Plugins/Skinning/src/SkinningComponent.cpp">
<polygon fill="white" stroke="black" points="833.5,-84 833.5,-125 1067.5,-125 1067.5,-84 833.5,-84"/>
<text text-anchor="start" x="841.5" y="-113" font-family="Helvetica,sans-Serif" font-size="10.00">/home/travis/build</text>
<text text-anchor="start" x="841.5" y="-102" font-family="Helvetica,sans-Serif" font-size="10.00">/STORM&#45;IRIT/Radium&#45;Engine</text>
<text text-anchor="middle" x="950.5" y="-91" font-family="Helvetica,sans-Serif" font-size="10.00">/Plugins/Skinning/src/SkinningComponent.cpp</text>
</a>
</g>
</g>
<!-- Node8&#45;&gt;Node10 -->
<g id="edge9" class="edge"><title>Node8&#45;&gt;Node10</title>
<path fill="none" stroke="midnightblue" d="M801.163,-163.762C833.633,-151.094 870.961,-136.531 900.174,-125.134"/>
<polygon fill="midnightblue" stroke="midnightblue" points="799.746,-160.557 791.702,-167.453 802.29,-167.079 799.746,-160.557"/>
</g>
<!-- Node12 -->
<g id="node12" class="node"><title>Node12</title>
<g id="a_node12"><a xlink:href="SkinningSystem_8hpp.html" target="_top" xlink:title="/home/travis/build\l/STORM&#45;IRIT/Radium&#45;Engine\l/Plugins/Skinning/src/SkinningSystem.hpp">
<polygon fill="white" stroke="black" points="1086,-84 1086,-125 1301,-125 1301,-84 1086,-84"/>
<text text-anchor="start" x="1094" y="-113" font-family="Helvetica,sans-Serif" font-size="10.00">/home/travis/build</text>
<text text-anchor="start" x="1094" y="-102" font-family="Helvetica,sans-Serif" font-size="10.00">/STORM&#45;IRIT/Radium&#45;Engine</text>
<text text-anchor="middle" x="1193.5" y="-91" font-family="Helvetica,sans-Serif" font-size="10.00">/Plugins/Skinning/src/SkinningSystem.hpp</text>
</a>
</g>
</g>
<!-- Node11&#45;&gt;Node12 -->
<g id="edge11" class="edge"><title>Node11&#45;&gt;Node12</title>
<path fill="none" stroke="midnightblue" d="M1189.94,-157.155C1190.69,-146.21 1191.5,-134.549 1192.15,-125.082"/>
<polygon fill="midnightblue" stroke="midnightblue" points="1186.43,-157.119 1189.24,-167.336 1193.42,-157.601 1186.43,-157.119"/>
</g>
<!-- Node13 -->
<g id="node13" class="node"><title>Node13</title>
<g id="a_node13"><a xlink:href="SkinningPlugin_8cpp.html" target="_top" xlink:title="/home/travis/build\l/STORM&#45;IRIT/Radium&#45;Engine\l/Plugins/Skinning/src/SkinningPlugin.cpp">
<polygon fill="white" stroke="black" points="1090.5,-0.5 1090.5,-41.5 1296.5,-41.5 1296.5,-0.5 1090.5,-0.5"/>
<text text-anchor="start" x="1098.5" y="-29.5" font-family="Helvetica,sans-Serif" font-size="10.00">/home/travis/build</text>
<text text-anchor="start" x="1098.5" y="-18.5" font-family="Helvetica,sans-Serif" font-size="10.00">/STORM&#45;IRIT/Radium&#45;Engine</text>
<text text-anchor="middle" x="1193.5" y="-7.5" font-family="Helvetica,sans-Serif" font-size="10.00">/Plugins/Skinning/src/SkinningPlugin.cpp</text>
</a>
</g>
</g>
<!-- Node12&#45;&gt;Node13 -->
<g id="edge12" class="edge"><title>Node12&#45;&gt;Node13</title>
<path fill="none" stroke="midnightblue" d="M1193.5,-73.5646C1193.5,-62.8819 1193.5,-51.1303 1193.5,-41.5472"/>
<polygon fill="midnightblue" stroke="midnightblue" points="1190,-73.7711 1193.5,-83.7711 1197,-73.7712 1190,-73.7711"/>
</g>
<!-- Node14&#45;&gt;Node10 -->
<g id="edge14" class="edge"><title>Node14&#45;&gt;Node10</title>
<path fill="none" stroke="midnightblue" d="M953.772,-162.441C953.063,-150.101 952.262,-136.162 951.63,-125.164"/>
<polygon fill="midnightblue" stroke="midnightblue" points="950.297,-162.976 954.365,-172.758 957.286,-162.574 950.297,-162.976"/>
</g>
<!-- Node14&#45;&gt;Node12 -->
<g id="edge15" class="edge"><title>Node14&#45;&gt;Node12</title>
<path fill="none" stroke="midnightblue" d="M1018.3,-169.542C1056.13,-155.714 1103.8,-138.291 1139.86,-125.11"/>
<polygon fill="midnightblue" stroke="midnightblue" points="1017.1,-166.255 1008.91,-172.976 1019.51,-172.829 1017.1,-166.255"/>
</g>
<!-- Node17 -->
<g id="node17" class="node"><title>Node17</title>
<g id="a_node17"><a xlink:href="AnimationComponent_8cpp.html" target="_top" xlink:title="/home/travis/build\l/STORM&#45;IRIT/Radium&#45;Engine\l/Plugins/Animation/src/Animation\lComponent.cpp">
<polygon fill="white" stroke="black" points="255.5,-78.5 255.5,-130.5 429.5,-130.5 429.5,-78.5 255.5,-78.5"/>
<text text-anchor="start" x="263.5" y="-118.5" font-family="Helvetica,sans-Serif" font-size="10.00">/home/travis/build</text>
<text text-anchor="start" x="263.5" y="-107.5" font-family="Helvetica,sans-Serif" font-size="10.00">/STORM&#45;IRIT/Radium&#45;Engine</text>
<text text-anchor="start" x="263.5" y="-96.5" font-family="Helvetica,sans-Serif" font-size="10.00">/Plugins/Animation/src/Animation</text>
<text text-anchor="middle" x="342.5" y="-85.5" font-family="Helvetica,sans-Serif" font-size="10.00">Component.cpp</text>
</a>
</g>
</g>
<!-- Node16&#45;&gt;Node17 -->
<g id="edge18" class="edge"><title>Node16&#45;&gt;Node17</title>
<path fill="none" stroke="midnightblue" d="M321.708,-246.249C326.761,-212.038 334.306,-160.969 338.782,-130.67"/>
<polygon fill="midnightblue" stroke="midnightblue" points="318.224,-245.879 320.225,-256.283 325.149,-246.902 318.224,-245.879"/>
</g>
<!-- Node18 -->
<g id="node18" class="node"><title>Node18</title>
<g id="a_node18"><a xlink:href="AnimationSystem_8cpp.html" target="_top" xlink:title="/home/travis/build\l/STORM&#45;IRIT/Radium&#45;Engine\l/Plugins/Animation/src/Animation\lSystem.cpp">
<polygon fill="white" stroke="black" points="63.5,-78.5 63.5,-130.5 237.5,-130.5 237.5,-78.5 63.5,-78.5"/>
<text text-anchor="start" x="71.5" y="-118.5" font-family="Helvetica,sans-Serif" font-size="10.00">/home/travis/build</text>
<text text-anchor="start" x="71.5" y="-107.5" font-family="Helvetica,sans-Serif" font-size="10.00">/STORM&#45;IRIT/Radium&#45;Engine</text>
<text text-anchor="start" x="71.5" y="-96.5" font-family="Helvetica,sans-Serif" font-size="10.00">/Plugins/Animation/src/Animation</text>
<text text-anchor="middle" x="150.5" y="-85.5" font-family="Helvetica,sans-Serif" font-size="10.00">System.cpp</text>
</a>
</g>
</g>
<!-- Node16&#45;&gt;Node18 -->
<g id="edge19" class="edge"><title>Node16&#45;&gt;Node18</title>
<path fill="none" stroke="midnightblue" d="M285.723,-248.869C253.489,-214.693 203.557,-161.753 174.24,-130.67"/>
<polygon fill="midnightblue" stroke="midnightblue" points="283.309,-251.41 292.716,-256.283 288.401,-246.607 283.309,-251.41"/>
</g>
<!-- Node16&#45;&gt;Node19 -->
<g id="edge20" class="edge"><title>Node16&#45;&gt;Node19</title>
<path fill="none" stroke="midnightblue" d="M356.411,-249.934C369.027,-239.956 382.791,-229.07 394.755,-219.607"/>
<polygon fill="midnightblue" stroke="midnightblue" points="353.989,-247.387 348.317,-256.336 358.331,-252.878 353.989,-247.387"/>
</g>
<!-- Node19&#45;&gt;Node17 -->
<g id="edge21" class="edge"><title>Node19&#45;&gt;Node17</title>
<path fill="none" stroke="midnightblue" d="M395.195,-160.077C385.789,-150.335 375.617,-139.8 366.742,-130.607"/>
<polygon fill="midnightblue" stroke="midnightblue" points="392.74,-162.573 402.204,-167.336 397.776,-157.711 392.74,-162.573"/>
</g>
<!-- Node19&#45;&gt;Node18 -->
<g id="edge22" class="edge"><title>Node19&#45;&gt;Node18</title>
<path fill="none" stroke="midnightblue" d="M337.413,-164.418C302.81,-153.511 263.493,-141.117 229.877,-130.521"/>
<polygon fill="midnightblue" stroke="midnightblue" points="336.45,-167.784 347.04,-167.453 338.555,-161.108 336.45,-167.784"/>
</g>
<!-- Node20 -->
<g id="node20" class="node"><title>Node20</title>
<g id="a_node20"><a xlink:href="SkeletonBoneDrawable_8cpp.html" target="_top" xlink:title="/home/travis/build\l/STORM&#45;IRIT/Radium&#45;Engine\l/Plugins/Animation/src/Drawing\l/SkeletonBoneDrawable.cpp">
<polygon fill="white" stroke="black" points="447.5,-78.5 447.5,-130.5 611.5,-130.5 611.5,-78.5 447.5,-78.5"/>
<text text-anchor="start" x="455.5" y="-118.5" font-family="Helvetica,sans-Serif" font-size="10.00">/home/travis/build</text>
<text text-anchor="start" x="455.5" y="-107.5" font-family="Helvetica,sans-Serif" font-size="10.00">/STORM&#45;IRIT/Radium&#45;Engine</text>
<text text-anchor="start" x="455.5" y="-96.5" font-family="Helvetica,sans-Serif" font-size="10.00">/Plugins/Animation/src/Drawing</text>
<text text-anchor="middle" x="529.5" y="-85.5" font-family="Helvetica,sans-Serif" font-size="10.00">/SkeletonBoneDrawable.cpp</text>
</a>
</g>
</g>
<!-- Node19&#45;&gt;Node20 -->
<g id="edge23" class="edge"><title>Node19&#45;&gt;Node20</title>
<path fill="none" stroke="midnightblue" d="M464.209,-160.649C475.929,-150.749 488.679,-139.98 499.775,-130.607"/>
<polygon fill="midnightblue" stroke="midnightblue" points="461.673,-158.209 456.292,-167.336 466.19,-163.557 461.673,-158.209"/>
</g>
</g>
</svg>
