<?xml version="1.0" encoding="UTF-8" standalone="no"?>
<!DOCTYPE svg PUBLIC "-//W3C//DTD SVG 1.1//EN"
 "http://www.w3.org/Graphics/SVG/1.1/DTD/svg11.dtd">
<!-- Generated by graphviz version 2.38.0 (20140413.2041)
 -->
<!-- Title: /home/travis/build/STORM&#45;IRIT/Radium&#45;Engine/src/Core/Containers/AdjacencyList.hpp Pages: 1 -->
<svg width="629pt" height="352pt"
 viewBox="0.00 0.00 629.00 352.00" xmlns="http://www.w3.org/2000/svg" xmlns:xlink="http://www.w3.org/1999/xlink">
<g id="graph0" class="graph" transform="scale(1 1) rotate(0) translate(4 348)">
<title>/home/travis/build/STORM&#45;IRIT/Radium&#45;Engine/src/Core/Containers/AdjacencyList.hpp</title>
<polygon fill="white" stroke="none" points="-4,4 -4,-348 625,-348 625,4 -4,4"/>
<!-- Node1 -->
<g id="node1" class="node"><title>Node1</title>
<polygon fill="#bfbfbf" stroke="black" points="259.5,-302.5 259.5,-343.5 462.5,-343.5 462.5,-302.5 259.5,-302.5"/>
<text text-anchor="start" x="267.5" y="-331.5" font-family="Helvetica,sans-Serif" font-size="10.00">/home/travis/build</text>
<text text-anchor="start" x="267.5" y="-320.5" font-family="Helvetica,sans-Serif" font-size="10.00">/STORM&#45;IRIT/Radium&#45;Engine</text>
<text text-anchor="middle" x="361" y="-309.5" font-family="Helvetica,sans-Serif" font-size="10.00">/src/Core/Containers/AdjacencyList.hpp</text>
</g>
<!-- Node2 -->
<g id="node2" class="node"><title>Node2</title>
<polygon fill="white" stroke="#bfbfbf" points="10.5,-0.5 10.5,-19.5 69.5,-19.5 69.5,-0.5 10.5,-0.5"/>
<text text-anchor="middle" x="40" y="-7.5" font-family="Helvetica,sans-Serif" font-size="10.00">iostream</text>
</g>
<!-- Node1&#45;&gt;Node2 -->
<g id="edge1" class="edge"><title>Node1&#45;&gt;Node2</title>
<path fill="none" stroke="midnightblue" d="M259.481,-303.805C152.706,-281.703 0,-240.332 0,-184.5 0,-184.5 0,-184.5 0,-121 0,-86.6168 17.4742,-49.6307 29.3234,-28.503"/>
<polygon fill="midnightblue" stroke="midnightblue" points="32.4244,-30.1332 34.4382,-19.7315 26.3773,-26.6071 32.4244,-30.1332"/>
</g>
<!-- Node3 -->
<g id="node3" class="node"><title>Node3</title>
<polygon fill="white" stroke="#bfbfbf" points="531,-112.5 531,-131.5 599,-131.5 599,-112.5 531,-112.5"/>
<text text-anchor="middle" x="565" y="-119.5" font-family="Helvetica,sans-Serif" font-size="10.00">Eigen/Core</text>
</g>
<!-- Node1&#45;&gt;Node3 -->
<g id="edge2" class="edge"><title>Node1&#45;&gt;Node3</title>
<path fill="none" stroke="midnightblue" d="M381.306,-302.192C421.782,-262.708 511.788,-174.908 548.713,-138.888"/>
<polygon fill="midnightblue" stroke="midnightblue" points="551.422,-141.135 556.136,-131.647 546.534,-136.124 551.422,-141.135"/>
</g>
<!-- Node4 -->
<g id="node4" class="node"><title>Node4</title>
<g id="a_node4"><a xlink:href="AlignedStdVector_8hpp.html" target="_top" xlink:title="Core/Containers/AlignedStd\lVector.hpp">
<polygon fill="white" stroke="black" points="60.5,-168.5 60.5,-198.5 209.5,-198.5 209.5,-168.5 60.5,-168.5"/>
<text text-anchor="start" x="68.5" y="-186.5" font-family="Helvetica,sans-Serif" font-size="10.00">Core/Containers/AlignedStd</text>
<text text-anchor="middle" x="135" y="-175.5" font-family="Helvetica,sans-Serif" font-size="10.00">Vector.hpp</text>
</a>
</g>
</g>
<!-- Node1&#45;&gt;Node4 -->
<g id="edge3" class="edge"><title>Node1&#45;&gt;Node4</title>
<path fill="none" stroke="midnightblue" d="M259.209,-305.565C230.999,-297.258 201.874,-284.768 179,-266 160.835,-251.095 149.071,-226.65 142.319,-208.413"/>
<polygon fill="midnightblue" stroke="midnightblue" points="145.562,-207.08 138.994,-198.766 138.944,-209.361 145.562,-207.08"/>
</g>
<!-- Node13 -->
<g id="node13" class="node"><title>Node13</title>
<g id="a_node13"><a xlink:href="VectorArray_8hpp.html" target="_top" xlink:title="Core/Containers/VectorArray.hpp">
<polygon fill="white" stroke="black" points="188.5,-241 188.5,-260 361.5,-260 361.5,-241 188.5,-241"/>
<text text-anchor="middle" x="275" y="-248" font-family="Helvetica,sans-Serif" font-size="10.00">Core/Containers/VectorArray.hpp</text>
</a>
</g>
</g>
<!-- Node1&#45;&gt;Node13 -->
<g id="edge13" class="edge"><title>Node1&#45;&gt;Node13</title>
<path fill="none" stroke="midnightblue" d="M337.044,-302.362C323.314,-291.107 306.338,-277.19 293.616,-266.761"/>
<polygon fill="midnightblue" stroke="midnightblue" points="295.533,-263.806 285.58,-260.173 291.095,-269.22 295.533,-263.806"/>
</g>
<!-- Node17 -->
<g id="node17" class="node"><title>Node17</title>
<g id="a_node17"><a xlink:href="AdjacencyList_8inl.html" target="_top" xlink:title="Core/Containers/Adjacency\lList.inl">
<polygon fill="white" stroke="black" points="475,-235.5 475,-265.5 621,-265.5 621,-235.5 475,-235.5"/>
<text text-anchor="start" x="483" y="-253.5" font-family="Helvetica,sans-Serif" font-size="10.00">Core/Containers/Adjacency</text>
<text text-anchor="middle" x="548" y="-242.5" font-family="Helvetica,sans-Serif" font-size="10.00">List.inl</text>
</a>
</g>
</g>
<!-- Node1&#45;&gt;Node17 -->
<g id="edge22" class="edge"><title>Node1&#45;&gt;Node17</title>
<path fill="none" stroke="midnightblue" d="M406.967,-302.362C433.814,-291.902 467.722,-279.144 495.598,-269.022"/>
<polygon fill="midnightblue" stroke="midnightblue" points="496.969,-272.248 505.186,-265.56 494.591,-265.664 496.969,-272.248"/>
</g>
<!-- Node5 -->
<g id="node5" class="node"><title>Node5</title>
<g id="a_node5"><a xlink:href="RaCore_8hpp.html" target="_top" xlink:title="Core/RaCore.hpp">
<polygon fill="white" stroke="black" points="205,-112.5 205,-131.5 303,-131.5 303,-112.5 205,-112.5"/>
<text text-anchor="middle" x="254" y="-119.5" font-family="Helvetica,sans-Serif" font-size="10.00">Core/RaCore.hpp</text>
</a>
</g>
</g>
<!-- Node4&#45;&gt;Node5 -->
<g id="edge4" class="edge"><title>Node4&#45;&gt;Node5</title>
<path fill="none" stroke="midnightblue" d="M163.201,-168.399C182.722,-158.639 208.525,-145.737 227.635,-136.183"/>
<polygon fill="midnightblue" stroke="midnightblue" points="229.305,-139.26 236.684,-131.658 226.175,-132.999 229.305,-139.26"/>
</g>
<!-- Node11 -->
<g id="node11" class="node"><title>Node11</title>
<polygon fill="white" stroke="#bfbfbf" points="28.5,-112.5 28.5,-131.5 121.5,-131.5 121.5,-112.5 28.5,-112.5"/>
<text text-anchor="middle" x="75" y="-119.5" font-family="Helvetica,sans-Serif" font-size="10.00">Eigen/StdVector</text>
</g>
<!-- Node4&#45;&gt;Node11 -->
<g id="edge11" class="edge"><title>Node4&#45;&gt;Node11</title>
<path fill="none" stroke="midnightblue" d="M120.781,-168.399C111.792,-159.486 100.162,-147.952 90.8731,-138.741"/>
<polygon fill="midnightblue" stroke="midnightblue" points="93.2957,-136.214 83.7305,-131.658 88.3666,-141.184 93.2957,-136.214"/>
</g>
<!-- Node12 -->
<g id="node12" class="node"><title>Node12</title>
<polygon fill="white" stroke="#bfbfbf" points="139.5,-112.5 139.5,-131.5 186.5,-131.5 186.5,-112.5 139.5,-112.5"/>
<text text-anchor="middle" x="163" y="-119.5" font-family="Helvetica,sans-Serif" font-size="10.00">vector</text>
</g>
<!-- Node4&#45;&gt;Node12 -->
<g id="edge12" class="edge"><title>Node4&#45;&gt;Node12</title>
<path fill="none" stroke="midnightblue" d="M141.636,-168.399C145.537,-160.11 150.504,-149.554 154.667,-140.708"/>
<polygon fill="midnightblue" stroke="midnightblue" points="157.835,-142.196 158.926,-131.658 151.501,-139.216 157.835,-142.196"/>
</g>
<!-- Node6 -->
<g id="node6" class="node"><title>Node6</title>
<g id="a_node6"><a xlink:href="CoreMacros_8hpp.html" target="_top" xlink:title="Core/CoreMacros.hpp">
<polygon fill="white" stroke="black" points="173,-56.5 173,-75.5 293,-75.5 293,-56.5 173,-56.5"/>
<text text-anchor="middle" x="233" y="-63.5" font-family="Helvetica,sans-Serif" font-size="10.00">Core/CoreMacros.hpp</text>
</a>
</g>
</g>
<!-- Node5&#45;&gt;Node6 -->
<g id="edge5" class="edge"><title>Node5&#45;&gt;Node6</title>
<path fill="none" stroke="midnightblue" d="M250.532,-112.083C247.688,-104.77 243.571,-94.1814 240.04,-85.1034"/>
<polygon fill="midnightblue" stroke="midnightblue" points="243.29,-83.8025 236.403,-75.7511 236.766,-86.3397 243.29,-83.8025"/>
</g>
<!-- Node6&#45;&gt;Node2 -->
<g id="edge8" class="edge"><title>Node6&#45;&gt;Node2</title>
<path fill="none" stroke="midnightblue" d="M202.419,-56.4435C169.191,-47.1467 115.991,-32.2617 79.5938,-22.0781"/>
<polygon fill="midnightblue" stroke="midnightblue" points="80.3774,-18.663 69.8042,-19.339 78.4913,-25.4041 80.3774,-18.663"/>
</g>
<!-- Node7 -->
<g id="node7" class="node"><title>Node7</title>
<polygon fill="white" stroke="#bfbfbf" points="174,-0.5 174,-19.5 226,-19.5 226,-0.5 174,-0.5"/>
<text text-anchor="middle" x="200" y="-7.5" font-family="Helvetica,sans-Serif" font-size="10.00">cassert</text>
</g>
<!-- Node6&#45;&gt;Node7 -->
<g id="edge6" class="edge"><title>Node6&#45;&gt;Node7</title>
<path fill="none" stroke="midnightblue" d="M227.551,-56.083C222.986,-48.6127 216.332,-37.7244 210.707,-28.5199"/>
<polygon fill="midnightblue" stroke="midnightblue" points="213.549,-26.4588 205.348,-19.7511 207.576,-30.109 213.549,-26.4588"/>
</g>
<!-- Node8 -->
<g id="node8" class="node"><title>Node8</title>
<polygon fill="white" stroke="#bfbfbf" points="244.5,-0.5 244.5,-19.5 289.5,-19.5 289.5,-0.5 244.5,-0.5"/>
<text text-anchor="middle" x="267" y="-7.5" font-family="Helvetica,sans-Serif" font-size="10.00">cstdio</text>
</g>
<!-- Node6&#45;&gt;Node8 -->
<g id="edge7" class="edge"><title>Node6&#45;&gt;Node8</title>
<path fill="none" stroke="midnightblue" d="M238.614,-56.083C243.367,-48.5341 250.318,-37.4948 256.152,-28.2298"/>
<polygon fill="midnightblue" stroke="midnightblue" points="259.124,-30.0783 261.49,-19.7511 253.2,-26.3486 259.124,-30.0783"/>
</g>
<!-- Node9 -->
<g id="node9" class="node"><title>Node9</title>
<polygon fill="white" stroke="#bfbfbf" points="308,-0.5 308,-19.5 364,-19.5 364,-0.5 308,-0.5"/>
<text text-anchor="middle" x="336" y="-7.5" font-family="Helvetica,sans-Serif" font-size="10.00">sstream</text>
</g>
<!-- Node6&#45;&gt;Node9 -->
<g id="edge9" class="edge"><title>Node6&#45;&gt;Node9</title>
<path fill="none" stroke="midnightblue" d="M249.549,-56.324C265.992,-47.7034 291.435,-34.3643 310.468,-24.3855"/>
<polygon fill="midnightblue" stroke="midnightblue" points="312.261,-27.3977 319.492,-19.6545 309.011,-21.198 312.261,-27.3977"/>
</g>
<!-- Node10 -->
<g id="node10" class="node"><title>Node10</title>
<polygon fill="white" stroke="#bfbfbf" points="108,-0.5 108,-19.5 156,-19.5 156,-0.5 108,-0.5"/>
<text text-anchor="middle" x="132" y="-7.5" font-family="Helvetica,sans-Serif" font-size="10.00">thread</text>
</g>
<!-- Node6&#45;&gt;Node10 -->
<g id="edge10" class="edge"><title>Node6&#45;&gt;Node10</title>
<path fill="none" stroke="midnightblue" d="M216.773,-56.324C200.649,-47.7034 175.7,-34.3643 157.036,-24.3855"/>
<polygon fill="midnightblue" stroke="midnightblue" points="158.656,-21.283 148.187,-19.6545 155.356,-27.456 158.656,-21.283"/>
</g>
<!-- Node13&#45;&gt;Node4 -->
<g id="edge14" class="edge"><title>Node13&#45;&gt;Node4</title>
<path fill="none" stroke="midnightblue" d="M256.409,-240.869C235.583,-231.199 201.228,-215.249 174.368,-202.778"/>
<polygon fill="midnightblue" stroke="midnightblue" points="175.758,-199.565 165.214,-198.528 172.81,-205.914 175.758,-199.565"/>
</g>
<!-- Node13&#45;&gt;Node5 -->
<g id="edge20" class="edge"><title>Node13&#45;&gt;Node5</title>
<path fill="none" stroke="midnightblue" d="M273.557,-240.805C270.185,-220.494 261.728,-169.553 257.117,-141.777"/>
<polygon fill="midnightblue" stroke="midnightblue" points="260.544,-141.047 255.454,-131.756 253.639,-142.194 260.544,-141.047"/>
</g>
<!-- Node13&#45;&gt;Node12 -->
<g id="edge21" class="edge"><title>Node13&#45;&gt;Node12</title>
<path fill="none" stroke="midnightblue" d="M270.036,-240.839C260.9,-225.297 240.307,-192.056 218,-168 207.674,-156.864 194.562,-146.033 183.731,-137.789"/>
<polygon fill="midnightblue" stroke="midnightblue" points="185.746,-134.925 175.63,-131.775 181.573,-140.546 185.746,-134.925"/>
</g>
<!-- Node14 -->
<g id="node14" class="node"><title>Node14</title>
<g id="a_node14"><a xlink:href="Types_8hpp.html" target="_top" xlink:title="Core/Math/Types.hpp">
<polygon fill="white" stroke="black" points="303,-174 303,-193 419,-193 419,-174 303,-174"/>
<text text-anchor="middle" x="361" y="-181" font-family="Helvetica,sans-Serif" font-size="10.00">Core/Math/Types.hpp</text>
</a>
</g>
</g>
<!-- Node13&#45;&gt;Node14 -->
<g id="edge15" class="edge"><title>Node13&#45;&gt;Node14</title>
<path fill="none" stroke="midnightblue" d="M286.598,-240.734C300.654,-230.111 324.551,-212.049 341.466,-199.264"/>
<polygon fill="midnightblue" stroke="midnightblue" points="343.718,-201.949 349.585,-193.127 339.497,-196.365 343.718,-201.949"/>
</g>
<!-- Node14&#45;&gt;Node3 -->
<g id="edge17" class="edge"><title>Node14&#45;&gt;Node3</title>
<path fill="none" stroke="midnightblue" d="M390.228,-173.975C425.903,-163.57 486.36,-145.937 525.982,-134.38"/>
<polygon fill="midnightblue" stroke="midnightblue" points="527.206,-137.669 535.826,-131.509 525.246,-130.949 527.206,-137.669"/>
</g>
<!-- Node14&#45;&gt;Node5 -->
<g id="edge16" class="edge"><title>Node14&#45;&gt;Node5</title>
<path fill="none" stroke="midnightblue" d="M345.67,-173.975C328.03,-164.166 298.84,-147.935 278.142,-136.425"/>
<polygon fill="midnightblue" stroke="midnightblue" points="279.743,-133.31 269.302,-131.509 276.341,-139.428 279.743,-133.31"/>
</g>
<!-- Node15 -->
<g id="node15" class="node"><title>Node15</title>
<polygon fill="white" stroke="#bfbfbf" points="419,-112.5 419,-131.5 513,-131.5 513,-112.5 419,-112.5"/>
<text text-anchor="middle" x="466" y="-119.5" font-family="Helvetica,sans-Serif" font-size="10.00">Eigen/Geometry</text>
</g>
<!-- Node14&#45;&gt;Node15 -->
<g id="edge18" class="edge"><title>Node14&#45;&gt;Node15</title>
<path fill="none" stroke="midnightblue" d="M376.044,-173.975C393.275,-164.211 421.74,-148.081 442.034,-136.581"/>
<polygon fill="midnightblue" stroke="midnightblue" points="444.009,-139.484 450.984,-131.509 440.558,-133.394 444.009,-139.484"/>
</g>
<!-- Node16 -->
<g id="node16" class="node"><title>Node16</title>
<polygon fill="white" stroke="#bfbfbf" points="321,-112.5 321,-131.5 401,-131.5 401,-112.5 321,-112.5"/>
<text text-anchor="middle" x="361" y="-119.5" font-family="Helvetica,sans-Serif" font-size="10.00">Eigen/Sparse</text>
</g>
<!-- Node14&#45;&gt;Node16 -->
<g id="edge19" class="edge"><title>Node14&#45;&gt;Node16</title>
<path fill="none" stroke="midnightblue" d="M361,-173.975C361,-165.58 361,-152.481 361,-141.663"/>
<polygon fill="midnightblue" stroke="midnightblue" points="364.5,-141.509 361,-131.509 357.5,-141.509 364.5,-141.509"/>
</g>
<!-- Node17&#45;&gt;Node1 -->
<g id="edge23" class="edge"><title>Node17&#45;&gt;Node1</title>
<path fill="none" stroke="midnightblue" d="M516.135,-265.597C492.105,-275.133 458.398,-287.948 428.51,-298.953"/>
<polygon fill="midnightblue" stroke="midnightblue" points="427.141,-295.727 418.957,-302.455 429.551,-302.299 427.141,-295.727"/>
</g>
</g>
</svg>
