<?xml version="1.0" encoding="UTF-8" standalone="no"?>
<!DOCTYPE svg PUBLIC "-//W3C//DTD SVG 1.1//EN"
 "http://www.w3.org/Graphics/SVG/1.1/DTD/svg11.dtd">
<!-- Generated by graphviz version 2.38.0 (20140413.2041)
 -->
<!-- Title: /home/travis/build/STORM&#45;IRIT/Radium&#45;Engine/src/Core/Geometry/Adjacency.hpp Pages: 1 -->
<svg width="579pt" height="341pt"
 viewBox="0.00 0.00 578.50 341.00" xmlns="http://www.w3.org/2000/svg" xmlns:xlink="http://www.w3.org/1999/xlink">
<g id="graph0" class="graph" transform="scale(1 1) rotate(0) translate(4 337)">
<title>/home/travis/build/STORM&#45;IRIT/Radium&#45;Engine/src/Core/Geometry/Adjacency.hpp</title>
<polygon fill="white" stroke="none" points="-4,4 -4,-337 574.5,-337 574.5,4 -4,4"/>
<!-- Node1 -->
<g id="node1" class="node"><title>Node1</title>
<polygon fill="#bfbfbf" stroke="black" points="120.5,-291.5 120.5,-332.5 302.5,-332.5 302.5,-291.5 120.5,-291.5"/>
<text text-anchor="start" x="128.5" y="-320.5" font-family="Helvetica,sans-Serif" font-size="10.00">/home/travis/build</text>
<text text-anchor="start" x="128.5" y="-309.5" font-family="Helvetica,sans-Serif" font-size="10.00">/STORM&#45;IRIT/Radium&#45;Engine</text>
<text text-anchor="middle" x="211.5" y="-298.5" font-family="Helvetica,sans-Serif" font-size="10.00">/src/Core/Geometry/Adjacency.hpp</text>
</g>
<!-- Node2 -->
<g id="node2" class="node"><title>Node2</title>
<g id="a_node2"><a xlink:href="AlignedStdVector_8hpp.html" target="_top" xlink:title="Core/Containers/AlignedStd\lVector.hpp">
<polygon fill="white" stroke="black" points="22,-168.5 22,-198.5 171,-198.5 171,-168.5 22,-168.5"/>
<text text-anchor="start" x="30" y="-186.5" font-family="Helvetica,sans-Serif" font-size="10.00">Core/Containers/AlignedStd</text>
<text text-anchor="middle" x="96.5" y="-175.5" font-family="Helvetica,sans-Serif" font-size="10.00">Vector.hpp</text>
</a>
</g>
</g>
<!-- Node1&#45;&gt;Node2 -->
<g id="edge1" class="edge"><title>Node1&#45;&gt;Node2</title>
<path fill="none" stroke="midnightblue" d="M161.559,-291.295C144.781,-282.461 127.34,-270.479 115.5,-255 105.374,-241.762 100.637,-223.524 98.4252,-208.915"/>
<polygon fill="midnightblue" stroke="midnightblue" points="101.853,-208.102 97.1784,-198.594 94.903,-208.942 101.853,-208.102"/>
</g>
<!-- Node12 -->
<g id="node12" class="node"><title>Node12</title>
<g id="a_node12"><a xlink:href="VectorArray_8hpp.html" target="_top" xlink:title="Core/Containers/VectorArray.hpp">
<polygon fill="white" stroke="black" points="125,-235.5 125,-254.5 298,-254.5 298,-235.5 125,-235.5"/>
<text text-anchor="middle" x="211.5" y="-242.5" font-family="Helvetica,sans-Serif" font-size="10.00">Core/Containers/VectorArray.hpp</text>
</a>
</g>
</g>
<!-- Node1&#45;&gt;Node12 -->
<g id="edge11" class="edge"><title>Node1&#45;&gt;Node12</title>
<path fill="none" stroke="midnightblue" d="M211.5,-291.498C211.5,-283.065 211.5,-273.235 211.5,-264.874"/>
<polygon fill="midnightblue" stroke="midnightblue" points="215,-264.652 211.5,-254.652 208,-264.653 215,-264.652"/>
</g>
<!-- Node13 -->
<g id="node13" class="node"><title>Node13</title>
<g id="a_node13"><a xlink:href="Types_8hpp.html" target="_top" xlink:title="Core/Math/Types.hpp">
<polygon fill="white" stroke="black" points="268.5,-174 268.5,-193 384.5,-193 384.5,-174 268.5,-174"/>
<text text-anchor="middle" x="326.5" y="-181" font-family="Helvetica,sans-Serif" font-size="10.00">Core/Math/Types.hpp</text>
</a>
</g>
</g>
<!-- Node1&#45;&gt;Node13 -->
<g id="edge20" class="edge"><title>Node1&#45;&gt;Node13</title>
<path fill="none" stroke="midnightblue" d="M260.321,-291.369C277.064,-282.49 294.569,-270.46 306.5,-255 318.021,-240.072 322.906,-218.797 324.976,-203.529"/>
<polygon fill="midnightblue" stroke="midnightblue" points="328.495,-203.544 326.075,-193.229 321.534,-202.801 328.495,-203.544"/>
</g>
<!-- Node3 -->
<g id="node3" class="node"><title>Node3</title>
<g id="a_node3"><a xlink:href="RaCore_8hpp.html" target="_top" xlink:title="Core/RaCore.hpp">
<polygon fill="white" stroke="black" points="176.5,-112.5 176.5,-131.5 274.5,-131.5 274.5,-112.5 176.5,-112.5"/>
<text text-anchor="middle" x="225.5" y="-119.5" font-family="Helvetica,sans-Serif" font-size="10.00">Core/RaCore.hpp</text>
</a>
</g>
</g>
<!-- Node2&#45;&gt;Node3 -->
<g id="edge2" class="edge"><title>Node2&#45;&gt;Node3</title>
<path fill="none" stroke="midnightblue" d="M127.071,-168.399C148.425,-158.55 176.715,-145.501 197.485,-135.922"/>
<polygon fill="midnightblue" stroke="midnightblue" points="199.115,-139.024 206.729,-131.658 196.183,-132.668 199.115,-139.024"/>
</g>
<!-- Node10 -->
<g id="node10" class="node"><title>Node10</title>
<polygon fill="white" stroke="#bfbfbf" points="0,-112.5 0,-131.5 93,-131.5 93,-112.5 0,-112.5"/>
<text text-anchor="middle" x="46.5" y="-119.5" font-family="Helvetica,sans-Serif" font-size="10.00">Eigen/StdVector</text>
</g>
<!-- Node2&#45;&gt;Node10 -->
<g id="edge9" class="edge"><title>Node2&#45;&gt;Node10</title>
<path fill="none" stroke="midnightblue" d="M84.6507,-168.399C77.3851,-159.753 68.0479,-148.642 60.4294,-139.576"/>
<polygon fill="midnightblue" stroke="midnightblue" points="62.8884,-137.062 53.7754,-131.658 57.5294,-141.565 62.8884,-137.062"/>
</g>
<!-- Node11 -->
<g id="node11" class="node"><title>Node11</title>
<polygon fill="white" stroke="#bfbfbf" points="111,-112.5 111,-131.5 158,-131.5 158,-112.5 111,-112.5"/>
<text text-anchor="middle" x="134.5" y="-119.5" font-family="Helvetica,sans-Serif" font-size="10.00">vector</text>
</g>
<!-- Node2&#45;&gt;Node11 -->
<g id="edge10" class="edge"><title>Node2&#45;&gt;Node11</title>
<path fill="none" stroke="midnightblue" d="M105.505,-168.399C110.913,-159.932 117.832,-149.099 123.554,-140.139"/>
<polygon fill="midnightblue" stroke="midnightblue" points="126.538,-141.97 128.971,-131.658 120.638,-138.202 126.538,-141.97"/>
</g>
<!-- Node4 -->
<g id="node4" class="node"><title>Node4</title>
<g id="a_node4"><a xlink:href="CoreMacros_8hpp.html" target="_top" xlink:title="Core/CoreMacros.hpp">
<polygon fill="white" stroke="black" points="165.5,-56.5 165.5,-75.5 285.5,-75.5 285.5,-56.5 165.5,-56.5"/>
<text text-anchor="middle" x="225.5" y="-63.5" font-family="Helvetica,sans-Serif" font-size="10.00">Core/CoreMacros.hpp</text>
</a>
</g>
</g>
<!-- Node3&#45;&gt;Node4 -->
<g id="edge3" class="edge"><title>Node3&#45;&gt;Node4</title>
<path fill="none" stroke="midnightblue" d="M225.5,-112.083C225.5,-105.006 225.5,-94.8611 225.5,-85.9865"/>
<polygon fill="midnightblue" stroke="midnightblue" points="229,-85.751 225.5,-75.7511 222,-85.7511 229,-85.751"/>
</g>
<!-- Node5 -->
<g id="node5" class="node"><title>Node5</title>
<polygon fill="white" stroke="#bfbfbf" points="62.5,-0.5 62.5,-19.5 114.5,-19.5 114.5,-0.5 62.5,-0.5"/>
<text text-anchor="middle" x="88.5" y="-7.5" font-family="Helvetica,sans-Serif" font-size="10.00">cassert</text>
</g>
<!-- Node4&#45;&gt;Node5 -->
<g id="edge4" class="edge"><title>Node4&#45;&gt;Node5</title>
<path fill="none" stroke="midnightblue" d="M203.792,-56.4435C181.145,-47.5171 145.428,-33.4387 119.748,-23.3168"/>
<polygon fill="midnightblue" stroke="midnightblue" points="120.693,-19.9273 110.106,-19.5164 118.126,-26.4397 120.693,-19.9273"/>
</g>
<!-- Node6 -->
<g id="node6" class="node"><title>Node6</title>
<polygon fill="white" stroke="#bfbfbf" points="133,-0.5 133,-19.5 178,-19.5 178,-0.5 133,-0.5"/>
<text text-anchor="middle" x="155.5" y="-7.5" font-family="Helvetica,sans-Serif" font-size="10.00">cstdio</text>
</g>
<!-- Node4&#45;&gt;Node6 -->
<g id="edge5" class="edge"><title>Node4&#45;&gt;Node6</title>
<path fill="none" stroke="midnightblue" d="M214.253,-56.324C203.703,-48.1849 187.699,-35.8395 175.058,-26.0874"/>
<polygon fill="midnightblue" stroke="midnightblue" points="177.007,-23.1707 166.951,-19.8339 172.731,-28.7132 177.007,-23.1707"/>
</g>
<!-- Node7 -->
<g id="node7" class="node"><title>Node7</title>
<polygon fill="white" stroke="#bfbfbf" points="196,-0.5 196,-19.5 255,-19.5 255,-0.5 196,-0.5"/>
<text text-anchor="middle" x="225.5" y="-7.5" font-family="Helvetica,sans-Serif" font-size="10.00">iostream</text>
</g>
<!-- Node4&#45;&gt;Node7 -->
<g id="edge6" class="edge"><title>Node4&#45;&gt;Node7</title>
<path fill="none" stroke="midnightblue" d="M225.5,-56.083C225.5,-49.0059 225.5,-38.8611 225.5,-29.9865"/>
<polygon fill="midnightblue" stroke="midnightblue" points="229,-29.751 225.5,-19.7511 222,-29.7511 229,-29.751"/>
</g>
<!-- Node8 -->
<g id="node8" class="node"><title>Node8</title>
<polygon fill="white" stroke="#bfbfbf" points="273.5,-0.5 273.5,-19.5 329.5,-19.5 329.5,-0.5 273.5,-0.5"/>
<text text-anchor="middle" x="301.5" y="-7.5" font-family="Helvetica,sans-Serif" font-size="10.00">sstream</text>
</g>
<!-- Node4&#45;&gt;Node8 -->
<g id="edge7" class="edge"><title>Node4&#45;&gt;Node8</title>
<path fill="none" stroke="midnightblue" d="M237.711,-56.324C249.276,-48.1066 266.875,-35.6017 280.661,-25.8069"/>
<polygon fill="midnightblue" stroke="midnightblue" points="282.943,-28.4791 289.067,-19.8339 278.888,-22.7729 282.943,-28.4791"/>
</g>
<!-- Node9 -->
<g id="node9" class="node"><title>Node9</title>
<polygon fill="white" stroke="#bfbfbf" points="347.5,-0.5 347.5,-19.5 395.5,-19.5 395.5,-0.5 347.5,-0.5"/>
<text text-anchor="middle" x="371.5" y="-7.5" font-family="Helvetica,sans-Serif" font-size="10.00">thread</text>
</g>
<!-- Node4&#45;&gt;Node9 -->
<g id="edge8" class="edge"><title>Node4&#45;&gt;Node9</title>
<path fill="none" stroke="midnightblue" d="M248.634,-56.4435C272.982,-47.4381 311.507,-33.1891 338.923,-23.049"/>
<polygon fill="midnightblue" stroke="midnightblue" points="340.309,-26.2681 348.474,-19.5164 337.881,-19.7028 340.309,-26.2681"/>
</g>
<!-- Node12&#45;&gt;Node2 -->
<g id="edge12" class="edge"><title>Node12&#45;&gt;Node2</title>
<path fill="none" stroke="midnightblue" d="M195.023,-235.475C178.793,-227.078 153.464,-213.973 132.553,-203.153"/>
<polygon fill="midnightblue" stroke="midnightblue" points="134.093,-200.01 123.603,-198.523 130.877,-206.227 134.093,-200.01"/>
</g>
<!-- Node12&#45;&gt;Node3 -->
<g id="edge18" class="edge"><title>Node12&#45;&gt;Node3</title>
<path fill="none" stroke="midnightblue" d="M212.507,-235.298C214.757,-215.85 220.237,-168.49 223.313,-141.904"/>
<polygon fill="midnightblue" stroke="midnightblue" points="226.83,-141.959 224.502,-131.623 219.876,-141.155 226.83,-141.959"/>
</g>
<!-- Node12&#45;&gt;Node11 -->
<g id="edge19" class="edge"><title>Node12&#45;&gt;Node11</title>
<path fill="none" stroke="midnightblue" d="M209.105,-235.489C204.736,-220.853 194.518,-190.335 179.5,-168 172.137,-157.049 161.849,-146.521 152.968,-138.406"/>
<polygon fill="midnightblue" stroke="midnightblue" points="155.152,-135.665 145.332,-131.688 150.528,-140.921 155.152,-135.665"/>
</g>
<!-- Node12&#45;&gt;Node13 -->
<g id="edge13" class="edge"><title>Node12&#45;&gt;Node13</title>
<path fill="none" stroke="midnightblue" d="M227.977,-235.475C247.105,-225.578 278.873,-209.142 301.152,-197.615"/>
<polygon fill="midnightblue" stroke="midnightblue" points="302.781,-200.713 310.054,-193.009 299.564,-194.496 302.781,-200.713"/>
</g>
<!-- Node13&#45;&gt;Node3 -->
<g id="edge14" class="edge"><title>Node13&#45;&gt;Node3</title>
<path fill="none" stroke="midnightblue" d="M312.029,-173.975C295.529,-164.255 268.322,-148.227 248.819,-136.737"/>
<polygon fill="midnightblue" stroke="midnightblue" points="250.337,-133.569 239.944,-131.509 246.784,-139.601 250.337,-133.569"/>
</g>
<!-- Node14 -->
<g id="node14" class="node"><title>Node14</title>
<polygon fill="white" stroke="#bfbfbf" points="292.5,-112.5 292.5,-131.5 360.5,-131.5 360.5,-112.5 292.5,-112.5"/>
<text text-anchor="middle" x="326.5" y="-119.5" font-family="Helvetica,sans-Serif" font-size="10.00">Eigen/Core</text>
</g>
<!-- Node13&#45;&gt;Node14 -->
<g id="edge15" class="edge"><title>Node13&#45;&gt;Node14</title>
<path fill="none" stroke="midnightblue" d="M326.5,-173.975C326.5,-165.58 326.5,-152.481 326.5,-141.663"/>
<polygon fill="midnightblue" stroke="midnightblue" points="330,-141.509 326.5,-131.509 323,-141.509 330,-141.509"/>
</g>
<!-- Node15 -->
<g id="node15" class="node"><title>Node15</title>
<polygon fill="white" stroke="#bfbfbf" points="378.5,-112.5 378.5,-131.5 472.5,-131.5 472.5,-112.5 378.5,-112.5"/>
<text text-anchor="middle" x="425.5" y="-119.5" font-family="Helvetica,sans-Serif" font-size="10.00">Eigen/Geometry</text>
</g>
<!-- Node13&#45;&gt;Node15 -->
<g id="edge16" class="edge"><title>Node13&#45;&gt;Node15</title>
<path fill="none" stroke="midnightblue" d="M340.684,-173.975C356.858,-164.255 383.526,-148.227 402.643,-136.737"/>
<polygon fill="midnightblue" stroke="midnightblue" points="404.574,-139.66 411.342,-131.509 400.968,-133.661 404.574,-139.66"/>
</g>
<!-- Node16 -->
<g id="node16" class="node"><title>Node16</title>
<polygon fill="white" stroke="#bfbfbf" points="490.5,-112.5 490.5,-131.5 570.5,-131.5 570.5,-112.5 490.5,-112.5"/>
<text text-anchor="middle" x="530.5" y="-119.5" font-family="Helvetica,sans-Serif" font-size="10.00">Eigen/Sparse</text>
</g>
<!-- Node13&#45;&gt;Node16 -->
<g id="edge17" class="edge"><title>Node13&#45;&gt;Node16</title>
<path fill="none" stroke="midnightblue" d="M355.728,-173.975C391.403,-163.57 451.86,-145.937 491.482,-134.38"/>
<polygon fill="midnightblue" stroke="midnightblue" points="492.706,-137.669 501.326,-131.509 490.746,-130.949 492.706,-137.669"/>
</g>
</g>
</svg>
