<?xml version="1.0" encoding="UTF-8" standalone="no"?>
<!DOCTYPE svg PUBLIC "-//W3C//DTD SVG 1.1//EN"
 "http://www.w3.org/Graphics/SVG/1.1/DTD/svg11.dtd">
<!-- Generated by graphviz version 2.38.0 (20140413.2041)
 -->
<!-- Title: /home/travis/build/STORM&#45;IRIT/Radium&#45;Engine/src/Core/Geometry/Adjacency.cpp Pages: 1 -->
<svg width="1061pt" height="397pt"
 viewBox="0.00 0.00 1061.00 397.00" xmlns="http://www.w3.org/2000/svg" xmlns:xlink="http://www.w3.org/1999/xlink">
<g id="graph0" class="graph" transform="scale(1 1) rotate(0) translate(4 393)">
<title>/home/travis/build/STORM&#45;IRIT/Radium&#45;Engine/src/Core/Geometry/Adjacency.cpp</title>
<polygon fill="white" stroke="none" points="-4,4 -4,-393 1057,-393 1057,4 -4,4"/>
<!-- Node1 -->
<g id="node1" class="node"><title>Node1</title>
<polygon fill="#bfbfbf" stroke="black" points="280,-347.5 280,-388.5 461,-388.5 461,-347.5 280,-347.5"/>
<text text-anchor="start" x="288" y="-376.5" font-family="Helvetica,sans-Serif" font-size="10.00">/home/travis/build</text>
<text text-anchor="start" x="288" y="-365.5" font-family="Helvetica,sans-Serif" font-size="10.00">/STORM&#45;IRIT/Radium&#45;Engine</text>
<text text-anchor="middle" x="370.5" y="-354.5" font-family="Helvetica,sans-Serif" font-size="10.00">/src/Core/Geometry/Adjacency.cpp</text>
</g>
<!-- Node2 -->
<g id="node2" class="node"><title>Node2</title>
<g id="a_node2"><a xlink:href="Adjacency_8hpp.html" target="_top" xlink:title="Core/Geometry/Adjacency.hpp">
<polygon fill="white" stroke="black" points="185,-291.5 185,-310.5 346,-310.5 346,-291.5 185,-291.5"/>
<text text-anchor="middle" x="265.5" y="-298.5" font-family="Helvetica,sans-Serif" font-size="10.00">Core/Geometry/Adjacency.hpp</text>
</a>
</g>
</g>
<!-- Node1&#45;&gt;Node2 -->
<g id="edge1" class="edge"><title>Node1&#45;&gt;Node2</title>
<path fill="none" stroke="midnightblue" d="M338.997,-347.498C322.588,-337.34 302.904,-325.155 288.038,-315.952"/>
<polygon fill="midnightblue" stroke="midnightblue" points="289.822,-312.94 279.477,-310.652 286.138,-318.892 289.822,-312.94"/>
</g>
<!-- Node18 -->
<g id="node18" class="node"><title>Node18</title>
<g id="a_node18"><a xlink:href="LinearAlgebra_8hpp.html" target="_top" xlink:title="Core/Math/LinearAlgebra.hpp">
<polygon fill="white" stroke="black" points="448.5,-235.5 448.5,-254.5 604.5,-254.5 604.5,-235.5 448.5,-235.5"/>
<text text-anchor="middle" x="526.5" y="-242.5" font-family="Helvetica,sans-Serif" font-size="10.00">Core/Math/LinearAlgebra.hpp</text>
</a>
</g>
</g>
<!-- Node1&#45;&gt;Node18 -->
<g id="edge22" class="edge"><title>Node1&#45;&gt;Node18</title>
<path fill="none" stroke="midnightblue" d="M395.911,-347.29C427.073,-323.119 479.197,-282.69 507.243,-260.937"/>
<polygon fill="midnightblue" stroke="midnightblue" points="509.688,-263.469 515.445,-254.575 505.398,-257.938 509.688,-263.469"/>
</g>
<!-- Node3 -->
<g id="node3" class="node"><title>Node3</title>
<g id="a_node3"><a xlink:href="AlignedStdVector_8hpp.html" target="_top" xlink:title="Core/Containers/AlignedStd\lVector.hpp">
<polygon fill="white" stroke="black" points="0,-168.5 0,-198.5 149,-198.5 149,-168.5 0,-168.5"/>
<text text-anchor="start" x="8" y="-186.5" font-family="Helvetica,sans-Serif" font-size="10.00">Core/Containers/AlignedStd</text>
<text text-anchor="middle" x="74.5" y="-175.5" font-family="Helvetica,sans-Serif" font-size="10.00">Vector.hpp</text>
</a>
</g>
</g>
<!-- Node2&#45;&gt;Node3 -->
<g id="edge2" class="edge"><title>Node2&#45;&gt;Node3</title>
<path fill="none" stroke="midnightblue" d="M204.453,-291.43C176.099,-285.055 143.266,-274.021 118.5,-255 102.731,-242.889 91.1887,-223.386 83.8922,-207.96"/>
<polygon fill="midnightblue" stroke="midnightblue" points="86.9634,-206.252 79.7087,-198.531 80.5648,-209.091 86.9634,-206.252"/>
</g>
<!-- Node13 -->
<g id="node13" class="node"><title>Node13</title>
<g id="a_node13"><a xlink:href="VectorArray_8hpp.html" target="_top" xlink:title="Core/Containers/VectorArray.hpp">
<polygon fill="white" stroke="black" points="128,-235.5 128,-254.5 301,-254.5 301,-235.5 128,-235.5"/>
<text text-anchor="middle" x="214.5" y="-242.5" font-family="Helvetica,sans-Serif" font-size="10.00">Core/Containers/VectorArray.hpp</text>
</a>
</g>
</g>
<!-- Node2&#45;&gt;Node13 -->
<g id="edge12" class="edge"><title>Node2&#45;&gt;Node13</title>
<path fill="none" stroke="midnightblue" d="M257.078,-291.083C249.652,-283.22 238.648,-271.569 229.688,-262.081"/>
<polygon fill="midnightblue" stroke="midnightblue" points="232.176,-259.618 222.765,-254.751 227.087,-264.424 232.176,-259.618"/>
</g>
<!-- Node14 -->
<g id="node14" class="node"><title>Node14</title>
<g id="a_node14"><a xlink:href="Types_8hpp.html" target="_top" xlink:title="Core/Math/Types.hpp">
<polygon fill="white" stroke="black" points="280.5,-174 280.5,-193 396.5,-193 396.5,-174 280.5,-174"/>
<text text-anchor="middle" x="338.5" y="-181" font-family="Helvetica,sans-Serif" font-size="10.00">Core/Math/Types.hpp</text>
</a>
</g>
</g>
<!-- Node2&#45;&gt;Node14 -->
<g id="edge21" class="edge"><title>Node2&#45;&gt;Node14</title>
<path fill="none" stroke="midnightblue" d="M276.106,-291.282C285.839,-282.833 300.127,-269.237 309.5,-255 320.17,-238.792 328.131,-218.023 332.986,-203.235"/>
<polygon fill="midnightblue" stroke="midnightblue" points="336.458,-203.855 336.086,-193.266 329.774,-201.776 336.458,-203.855"/>
</g>
<!-- Node4 -->
<g id="node4" class="node"><title>Node4</title>
<g id="a_node4"><a xlink:href="RaCore_8hpp.html" target="_top" xlink:title="Core/RaCore.hpp">
<polygon fill="white" stroke="black" points="204.5,-112.5 204.5,-131.5 302.5,-131.5 302.5,-112.5 204.5,-112.5"/>
<text text-anchor="middle" x="253.5" y="-119.5" font-family="Helvetica,sans-Serif" font-size="10.00">Core/RaCore.hpp</text>
</a>
</g>
</g>
<!-- Node3&#45;&gt;Node4 -->
<g id="edge3" class="edge"><title>Node3&#45;&gt;Node4</title>
<path fill="none" stroke="midnightblue" d="M116.921,-168.399C147.716,-158.163 188.909,-144.47 217.976,-134.808"/>
<polygon fill="midnightblue" stroke="midnightblue" points="219.33,-138.047 227.715,-131.571 217.122,-131.404 219.33,-138.047"/>
</g>
<!-- Node11 -->
<g id="node11" class="node"><title>Node11</title>
<polygon fill="white" stroke="#bfbfbf" points="28,-112.5 28,-131.5 121,-131.5 121,-112.5 28,-112.5"/>
<text text-anchor="middle" x="74.5" y="-119.5" font-family="Helvetica,sans-Serif" font-size="10.00">Eigen/StdVector</text>
</g>
<!-- Node3&#45;&gt;Node11 -->
<g id="edge10" class="edge"><title>Node3&#45;&gt;Node11</title>
<path fill="none" stroke="midnightblue" d="M74.5,-168.399C74.5,-160.466 74.5,-150.458 74.5,-141.858"/>
<polygon fill="midnightblue" stroke="midnightblue" points="78.0001,-141.658 74.5,-131.658 71.0001,-141.658 78.0001,-141.658"/>
</g>
<!-- Node12 -->
<g id="node12" class="node"><title>Node12</title>
<polygon fill="white" stroke="#bfbfbf" points="139,-112.5 139,-131.5 186,-131.5 186,-112.5 139,-112.5"/>
<text text-anchor="middle" x="162.5" y="-119.5" font-family="Helvetica,sans-Serif" font-size="10.00">vector</text>
</g>
<!-- Node3&#45;&gt;Node12 -->
<g id="edge11" class="edge"><title>Node3&#45;&gt;Node12</title>
<path fill="none" stroke="midnightblue" d="M95.3548,-168.399C109.197,-159.04 127.311,-146.792 141.236,-137.377"/>
<polygon fill="midnightblue" stroke="midnightblue" points="143.372,-140.158 149.695,-131.658 139.451,-134.36 143.372,-140.158"/>
</g>
<!-- Node5 -->
<g id="node5" class="node"><title>Node5</title>
<g id="a_node5"><a xlink:href="CoreMacros_8hpp.html" target="_top" xlink:title="Core/CoreMacros.hpp">
<polygon fill="white" stroke="black" points="193.5,-56.5 193.5,-75.5 313.5,-75.5 313.5,-56.5 193.5,-56.5"/>
<text text-anchor="middle" x="253.5" y="-63.5" font-family="Helvetica,sans-Serif" font-size="10.00">Core/CoreMacros.hpp</text>
</a>
</g>
</g>
<!-- Node4&#45;&gt;Node5 -->
<g id="edge4" class="edge"><title>Node4&#45;&gt;Node5</title>
<path fill="none" stroke="midnightblue" d="M253.5,-112.083C253.5,-105.006 253.5,-94.8611 253.5,-85.9865"/>
<polygon fill="midnightblue" stroke="midnightblue" points="257,-85.751 253.5,-75.7511 250,-85.7511 257,-85.751"/>
</g>
<!-- Node6 -->
<g id="node6" class="node"><title>Node6</title>
<polygon fill="white" stroke="#bfbfbf" points="90.5,-0.5 90.5,-19.5 142.5,-19.5 142.5,-0.5 90.5,-0.5"/>
<text text-anchor="middle" x="116.5" y="-7.5" font-family="Helvetica,sans-Serif" font-size="10.00">cassert</text>
</g>
<!-- Node5&#45;&gt;Node6 -->
<g id="edge5" class="edge"><title>Node5&#45;&gt;Node6</title>
<path fill="none" stroke="midnightblue" d="M231.792,-56.4435C209.145,-47.5171 173.428,-33.4387 147.748,-23.3168"/>
<polygon fill="midnightblue" stroke="midnightblue" points="148.693,-19.9273 138.106,-19.5164 146.126,-26.4397 148.693,-19.9273"/>
</g>
<!-- Node7 -->
<g id="node7" class="node"><title>Node7</title>
<polygon fill="white" stroke="#bfbfbf" points="161,-0.5 161,-19.5 206,-19.5 206,-0.5 161,-0.5"/>
<text text-anchor="middle" x="183.5" y="-7.5" font-family="Helvetica,sans-Serif" font-size="10.00">cstdio</text>
</g>
<!-- Node5&#45;&gt;Node7 -->
<g id="edge6" class="edge"><title>Node5&#45;&gt;Node7</title>
<path fill="none" stroke="midnightblue" d="M242.253,-56.324C231.703,-48.1849 215.699,-35.8395 203.058,-26.0874"/>
<polygon fill="midnightblue" stroke="midnightblue" points="205.007,-23.1707 194.951,-19.8339 200.731,-28.7132 205.007,-23.1707"/>
</g>
<!-- Node8 -->
<g id="node8" class="node"><title>Node8</title>
<polygon fill="white" stroke="#bfbfbf" points="224,-0.5 224,-19.5 283,-19.5 283,-0.5 224,-0.5"/>
<text text-anchor="middle" x="253.5" y="-7.5" font-family="Helvetica,sans-Serif" font-size="10.00">iostream</text>
</g>
<!-- Node5&#45;&gt;Node8 -->
<g id="edge7" class="edge"><title>Node5&#45;&gt;Node8</title>
<path fill="none" stroke="midnightblue" d="M253.5,-56.083C253.5,-49.0059 253.5,-38.8611 253.5,-29.9865"/>
<polygon fill="midnightblue" stroke="midnightblue" points="257,-29.751 253.5,-19.7511 250,-29.7511 257,-29.751"/>
</g>
<!-- Node9 -->
<g id="node9" class="node"><title>Node9</title>
<polygon fill="white" stroke="#bfbfbf" points="301.5,-0.5 301.5,-19.5 357.5,-19.5 357.5,-0.5 301.5,-0.5"/>
<text text-anchor="middle" x="329.5" y="-7.5" font-family="Helvetica,sans-Serif" font-size="10.00">sstream</text>
</g>
<!-- Node5&#45;&gt;Node9 -->
<g id="edge8" class="edge"><title>Node5&#45;&gt;Node9</title>
<path fill="none" stroke="midnightblue" d="M265.711,-56.324C277.276,-48.1066 294.875,-35.6017 308.661,-25.8069"/>
<polygon fill="midnightblue" stroke="midnightblue" points="310.943,-28.4791 317.067,-19.8339 306.888,-22.7729 310.943,-28.4791"/>
</g>
<!-- Node10 -->
<g id="node10" class="node"><title>Node10</title>
<polygon fill="white" stroke="#bfbfbf" points="375.5,-0.5 375.5,-19.5 423.5,-19.5 423.5,-0.5 375.5,-0.5"/>
<text text-anchor="middle" x="399.5" y="-7.5" font-family="Helvetica,sans-Serif" font-size="10.00">thread</text>
</g>
<!-- Node5&#45;&gt;Node10 -->
<g id="edge9" class="edge"><title>Node5&#45;&gt;Node10</title>
<path fill="none" stroke="midnightblue" d="M276.634,-56.4435C300.982,-47.4381 339.507,-33.1891 366.923,-23.049"/>
<polygon fill="midnightblue" stroke="midnightblue" points="368.309,-26.2681 376.474,-19.5164 365.881,-19.7028 368.309,-26.2681"/>
</g>
<!-- Node13&#45;&gt;Node3 -->
<g id="edge13" class="edge"><title>Node13&#45;&gt;Node3</title>
<path fill="none" stroke="midnightblue" d="M194.441,-235.475C174.329,-226.927 142.738,-213.501 117.026,-202.573"/>
<polygon fill="midnightblue" stroke="midnightblue" points="118.068,-199.213 107.495,-198.523 115.33,-205.656 118.068,-199.213"/>
</g>
<!-- Node13&#45;&gt;Node4 -->
<g id="edge19" class="edge"><title>Node13&#45;&gt;Node4</title>
<path fill="none" stroke="midnightblue" d="M217.262,-235.093C221.681,-220.883 230.641,-192.216 238.5,-168 241.363,-159.177 244.611,-149.406 247.35,-141.23"/>
<polygon fill="midnightblue" stroke="midnightblue" points="250.714,-142.207 250.584,-131.613 244.079,-139.977 250.714,-142.207"/>
</g>
<!-- Node13&#45;&gt;Node12 -->
<g id="edge20" class="edge"><title>Node13&#45;&gt;Node12</title>
<path fill="none" stroke="midnightblue" d="M210.76,-235.298C202.29,-215.589 181.5,-167.211 170.168,-140.842"/>
<polygon fill="midnightblue" stroke="midnightblue" points="173.37,-139.429 166.206,-131.623 166.939,-142.193 173.37,-139.429"/>
</g>
<!-- Node13&#45;&gt;Node14 -->
<g id="edge14" class="edge"><title>Node13&#45;&gt;Node14</title>
<path fill="none" stroke="midnightblue" d="M232.266,-235.475C252.984,-225.534 287.452,-208.995 311.489,-197.461"/>
<polygon fill="midnightblue" stroke="midnightblue" points="313.265,-200.491 320.767,-193.009 310.237,-194.18 313.265,-200.491"/>
</g>
<!-- Node14&#45;&gt;Node4 -->
<g id="edge15" class="edge"><title>Node14&#45;&gt;Node4</title>
<path fill="none" stroke="midnightblue" d="M326.322,-173.975C312.688,-164.431 290.368,-148.807 274.026,-137.368"/>
<polygon fill="midnightblue" stroke="midnightblue" points="275.855,-134.376 265.656,-131.509 271.841,-140.111 275.855,-134.376"/>
</g>
<!-- Node15 -->
<g id="node15" class="node"><title>Node15</title>
<polygon fill="white" stroke="#bfbfbf" points="335.5,-112.5 335.5,-131.5 403.5,-131.5 403.5,-112.5 335.5,-112.5"/>
<text text-anchor="middle" x="369.5" y="-119.5" font-family="Helvetica,sans-Serif" font-size="10.00">Eigen/Core</text>
</g>
<!-- Node14&#45;&gt;Node15 -->
<g id="edge16" class="edge"><title>Node14&#45;&gt;Node15</title>
<path fill="none" stroke="midnightblue" d="M342.942,-173.975C347.453,-165.315 354.574,-151.649 360.307,-140.645"/>
<polygon fill="midnightblue" stroke="midnightblue" points="363.55,-141.995 365.067,-131.509 357.342,-138.76 363.55,-141.995"/>
</g>
<!-- Node16 -->
<g id="node16" class="node"><title>Node16</title>
<polygon fill="white" stroke="#bfbfbf" points="429.5,-112.5 429.5,-131.5 523.5,-131.5 523.5,-112.5 429.5,-112.5"/>
<text text-anchor="middle" x="476.5" y="-119.5" font-family="Helvetica,sans-Serif" font-size="10.00">Eigen/Geometry</text>
</g>
<!-- Node14&#45;&gt;Node16 -->
<g id="edge17" class="edge"><title>Node14&#45;&gt;Node16</title>
<path fill="none" stroke="midnightblue" d="M358.272,-173.975C381.636,-163.901 420.714,-147.053 447.503,-135.502"/>
<polygon fill="midnightblue" stroke="midnightblue" points="448.968,-138.682 456.765,-131.509 446.196,-132.254 448.968,-138.682"/>
</g>
<!-- Node17 -->
<g id="node17" class="node"><title>Node17</title>
<polygon fill="white" stroke="#bfbfbf" points="545.5,-112.5 545.5,-131.5 625.5,-131.5 625.5,-112.5 545.5,-112.5"/>
<text text-anchor="middle" x="585.5" y="-119.5" font-family="Helvetica,sans-Serif" font-size="10.00">Eigen/Sparse</text>
</g>
<!-- Node14&#45;&gt;Node17 -->
<g id="edge18" class="edge"><title>Node14&#45;&gt;Node17</title>
<path fill="none" stroke="midnightblue" d="M373.889,-173.975C417.726,-163.415 492.466,-145.411 540.38,-133.869"/>
<polygon fill="midnightblue" stroke="midnightblue" points="541.274,-137.254 550.177,-131.509 539.635,-130.448 541.274,-137.254"/>
</g>
<!-- Node18&#45;&gt;Node4 -->
<g id="edge23" class="edge"><title>Node18&#45;&gt;Node4</title>
<path fill="none" stroke="midnightblue" d="M448.345,-239.497C382.992,-234.105 296.552,-222.642 271.5,-199 255.968,-184.342 252.735,-158.953 252.546,-141.586"/>
<polygon fill="midnightblue" stroke="midnightblue" points="256.046,-141.598 252.762,-131.525 249.048,-141.447 256.046,-141.598"/>
</g>
<!-- Node18&#45;&gt;Node14 -->
<g id="edge35" class="edge"><title>Node18&#45;&gt;Node14</title>
<path fill="none" stroke="midnightblue" d="M499.564,-235.475C466.897,-225.136 411.681,-207.661 375.157,-196.102"/>
<polygon fill="midnightblue" stroke="midnightblue" points="375.976,-192.69 365.386,-193.009 373.864,-199.363 375.976,-192.69"/>
</g>
<!-- Node18&#45;&gt;Node15 -->
<g id="edge24" class="edge"><title>Node18&#45;&gt;Node15</title>
<path fill="none" stroke="midnightblue" d="M506.444,-235.434C488.736,-227.379 462.671,-214.292 442.5,-199 419.374,-181.468 396.879,-156.483 383.113,-140.013"/>
<polygon fill="midnightblue" stroke="midnightblue" points="385.46,-137.355 376.414,-131.84 380.046,-141.793 385.46,-137.355"/>
</g>
<!-- Node18&#45;&gt;Node16 -->
<g id="edge25" class="edge"><title>Node18&#45;&gt;Node16</title>
<path fill="none" stroke="midnightblue" d="M558.685,-235.488C577.039,-228.801 598.516,-217.45 609.5,-199 616.548,-187.161 617.531,-179.195 609.5,-168 599.617,-154.223 561.203,-142.131 528.183,-133.961"/>
<polygon fill="midnightblue" stroke="midnightblue" points="528.687,-130.483 518.146,-131.554 527.054,-137.29 528.687,-130.483"/>
</g>
<!-- Node18&#45;&gt;Node17 -->
<g id="edge26" class="edge"><title>Node18&#45;&gt;Node17</title>
<path fill="none" stroke="midnightblue" d="M571.196,-235.476C591.726,-229.086 614.199,-218.025 626.5,-199 639.512,-178.876 620.29,-154.253 604.015,-138.595"/>
<polygon fill="midnightblue" stroke="midnightblue" points="606.17,-135.824 596.416,-131.687 601.461,-141.004 606.17,-135.824"/>
</g>
<!-- Node19 -->
<g id="node19" class="node"><title>Node19</title>
<polygon fill="white" stroke="#bfbfbf" points="827,-174 827,-193 890,-193 890,-174 827,-174"/>
<text text-anchor="middle" x="858.5" y="-181" font-family="Helvetica,sans-Serif" font-size="10.00">functional</text>
</g>
<!-- Node18&#45;&gt;Node19 -->
<g id="edge27" class="edge"><title>Node18&#45;&gt;Node19</title>
<path fill="none" stroke="midnightblue" d="M604.795,-235.908C663.829,-228.842 746.485,-216.882 817.5,-199 820.55,-198.232 823.693,-197.33 826.818,-196.358"/>
<polygon fill="midnightblue" stroke="midnightblue" points="828.224,-199.578 836.602,-193.093 826.008,-192.938 828.224,-199.578"/>
</g>
<!-- Node20 -->
<g id="node20" class="node"><title>Node20</title>
<polygon fill="white" stroke="#bfbfbf" points="908,-168.5 908,-198.5 1053,-198.5 1053,-168.5 908,-168.5"/>
<text text-anchor="start" x="916" y="-186.5" font-family="Helvetica,sans-Serif" font-size="10.00">unsupported/Eigen/Aligned</text>
<text text-anchor="middle" x="980.5" y="-175.5" font-family="Helvetica,sans-Serif" font-size="10.00">Vector3</text>
</g>
<!-- Node18&#45;&gt;Node20 -->
<g id="edge28" class="edge"><title>Node18&#45;&gt;Node20</title>
<path fill="none" stroke="midnightblue" d="M604.544,-235.896C677.842,-227.984 790.808,-215.024 897.684,-199.227"/>
<polygon fill="midnightblue" stroke="midnightblue" points="898.299,-202.674 907.675,-197.739 897.268,-195.75 898.299,-202.674"/>
</g>
<!-- Node21 -->
<g id="node21" class="node"><title>Node21</title>
<g id="a_node21"><a xlink:href="Math_8hpp.html" target="_top" xlink:title="Core/Math/Math.hpp">
<polygon fill="white" stroke="black" points="694.5,-174 694.5,-193 808.5,-193 808.5,-174 694.5,-174"/>
<text text-anchor="middle" x="751.5" y="-181" font-family="Helvetica,sans-Serif" font-size="10.00">Core/Math/Math.hpp</text>
</a>
</g>
</g>
<!-- Node18&#45;&gt;Node21 -->
<g id="edge29" class="edge"><title>Node18&#45;&gt;Node21</title>
<path fill="none" stroke="midnightblue" d="M558.737,-235.475C598.419,-224.982 665.899,-207.137 709.574,-195.587"/>
<polygon fill="midnightblue" stroke="midnightblue" points="710.55,-198.949 719.323,-193.009 708.76,-192.182 710.55,-198.949"/>
</g>
<!-- Node25 -->
<g id="node25" class="node"><title>Node25</title>
<g id="a_node25"><a xlink:href="LinearAlgebra_8inl.html" target="_top" xlink:title="Core/Math/LinearAlgebra.inl">
<polygon fill="white" stroke="black" points="452,-174 452,-193 601,-193 601,-174 452,-174"/>
<text text-anchor="middle" x="526.5" y="-181" font-family="Helvetica,sans-Serif" font-size="10.00">Core/Math/LinearAlgebra.inl</text>
</a>
</g>
</g>
<!-- Node18&#45;&gt;Node25 -->
<g id="edge36" class="edge"><title>Node18&#45;&gt;Node25</title>
<path fill="none" stroke="midnightblue" d="M521.599,-235.475C519.768,-227.08 519.297,-213.981 520.185,-203.163"/>
<polygon fill="midnightblue" stroke="midnightblue" points="523.686,-203.397 521.603,-193.009 516.754,-202.429 523.686,-203.397"/>
</g>
<!-- Node21&#45;&gt;Node4 -->
<g id="edge30" class="edge"><title>Node21&#45;&gt;Node4</title>
<path fill="none" stroke="midnightblue" d="M694.434,-175.8C612.849,-166.203 458.171,-147.939 326.5,-132 322.029,-131.459 317.405,-130.896 312.754,-130.328"/>
<polygon fill="midnightblue" stroke="midnightblue" points="312.932,-126.823 302.58,-129.081 312.081,-133.771 312.932,-126.823"/>
</g>
<!-- Node22 -->
<g id="node22" class="node"><title>Node22</title>
<polygon fill="white" stroke="#bfbfbf" points="645.5,-112.5 645.5,-131.5 707.5,-131.5 707.5,-112.5 645.5,-112.5"/>
<text text-anchor="middle" x="676.5" y="-119.5" font-family="Helvetica,sans-Serif" font-size="10.00">algorithm</text>
</g>
<!-- Node21&#45;&gt;Node22 -->
<g id="edge31" class="edge"><title>Node21&#45;&gt;Node22</title>
<path fill="none" stroke="midnightblue" d="M740.754,-173.975C728.947,-164.608 709.757,-149.384 695.418,-138.008"/>
<polygon fill="midnightblue" stroke="midnightblue" points="697.235,-134.982 687.226,-131.509 692.885,-140.466 697.235,-134.982"/>
</g>
<!-- Node23 -->
<g id="node23" class="node"><title>Node23</title>
<polygon fill="white" stroke="#bfbfbf" points="726,-112.5 726,-131.5 773,-131.5 773,-112.5 726,-112.5"/>
<text text-anchor="middle" x="749.5" y="-119.5" font-family="Helvetica,sans-Serif" font-size="10.00">cmath</text>
</g>
<!-- Node21&#45;&gt;Node23 -->
<g id="edge32" class="edge"><title>Node21&#45;&gt;Node23</title>
<path fill="none" stroke="midnightblue" d="M751.213,-173.975C750.931,-165.58 750.491,-152.481 750.127,-141.663"/>
<polygon fill="midnightblue" stroke="midnightblue" points="753.62,-141.386 749.786,-131.509 746.624,-141.621 753.62,-141.386"/>
</g>
<!-- Node24 -->
<g id="node24" class="node"><title>Node24</title>
<g id="a_node24"><a xlink:href="Math_8inl.html" target="_top" xlink:title="Core/Math/Math.inl">
<polygon fill="white" stroke="black" points="791,-112.5 791,-131.5 898,-131.5 898,-112.5 791,-112.5"/>
<text text-anchor="middle" x="844.5" y="-119.5" font-family="Helvetica,sans-Serif" font-size="10.00">Core/Math/Math.inl</text>
</a>
</g>
</g>
<!-- Node21&#45;&gt;Node24 -->
<g id="edge33" class="edge"><title>Node21&#45;&gt;Node24</title>
<path fill="none" stroke="midnightblue" d="M759.924,-173.975C773.057,-164.211 797.978,-148.081 817.501,-136.581"/>
<polygon fill="midnightblue" stroke="midnightblue" points="819.386,-139.534 826.303,-131.509 815.891,-133.469 819.386,-139.534"/>
</g>
<!-- Node24&#45;&gt;Node21 -->
<g id="edge34" class="edge"><title>Node24&#45;&gt;Node21</title>
<path fill="none" stroke="midnightblue" d="M836.097,-131.509C822.978,-141.267 798.06,-157.396 778.53,-168.901"/>
<polygon fill="midnightblue" stroke="midnightblue" points="776.642,-165.949 769.725,-173.975 780.137,-172.014 776.642,-165.949"/>
</g>
<!-- Node25&#45;&gt;Node18 -->
<g id="edge37" class="edge"><title>Node25&#45;&gt;Node18</title>
<path fill="none" stroke="midnightblue" d="M531.397,-193.009C533.23,-201.398 533.703,-214.496 532.817,-225.317"/>
<polygon fill="midnightblue" stroke="midnightblue" points="529.315,-225.088 531.401,-235.475 536.248,-226.054 529.315,-225.088"/>
</g>
</g>
</svg>
