<?xml version="1.0" encoding="UTF-8" standalone="no"?>
<!DOCTYPE svg PUBLIC "-//W3C//DTD SVG 1.1//EN"
 "http://www.w3.org/Graphics/SVG/1.1/DTD/svg11.dtd">
<!-- Generated by graphviz version 2.38.0 (20140413.2041)
 -->
<!-- Title: /home/travis/build/STORM&#45;IRIT/Radium&#45;Engine/src/Core/Containers/AlignedStdVector.hpp Pages: 1 -->
<svg width="396pt" height="229pt"
 viewBox="0.00 0.00 395.50 229.00" xmlns="http://www.w3.org/2000/svg" xmlns:xlink="http://www.w3.org/1999/xlink">
<g id="graph0" class="graph" transform="scale(1 1) rotate(0) translate(4 225)">
<title>/home/travis/build/STORM&#45;IRIT/Radium&#45;Engine/src/Core/Containers/AlignedStdVector.hpp</title>
<polygon fill="white" stroke="none" points="-4,4 -4,-225 391.5,-225 391.5,4 -4,4"/>
<!-- Node1 -->
<g id="node1" class="node"><title>Node1</title>
<polygon fill="#bfbfbf" stroke="black" points="191.5,-168.5 191.5,-220.5 360.5,-220.5 360.5,-168.5 191.5,-168.5"/>
<text text-anchor="start" x="199.5" y="-208.5" font-family="Helvetica,sans-Serif" font-size="10.00">/home/travis/build</text>
<text text-anchor="start" x="199.5" y="-197.5" font-family="Helvetica,sans-Serif" font-size="10.00">/STORM&#45;IRIT/Radium&#45;Engine</text>
<text text-anchor="start" x="199.5" y="-186.5" font-family="Helvetica,sans-Serif" font-size="10.00">/src/Core/Containers/AlignedStd</text>
<text text-anchor="middle" x="276" y="-175.5" font-family="Helvetica,sans-Serif" font-size="10.00">Vector.hpp</text>
</g>
<!-- Node2 -->
<g id="node2" class="node"><title>Node2</title>
<g id="a_node2"><a xlink:href="RaCore_8hpp.html" target="_top" xlink:title="Core/RaCore.hpp">
<polygon fill="white" stroke="black" points="114,-112.5 114,-131.5 212,-131.5 212,-112.5 114,-112.5"/>
<text text-anchor="middle" x="163" y="-119.5" font-family="Helvetica,sans-Serif" font-size="10.00">Core/RaCore.hpp</text>
</a>
</g>
</g>
<!-- Node1&#45;&gt;Node2 -->
<g id="edge1" class="edge"><title>Node1&#45;&gt;Node2</title>
<path fill="none" stroke="midnightblue" d="M235.842,-168.446C218.878,-157.862 199.763,-145.936 185.372,-136.958"/>
<polygon fill="midnightblue" stroke="midnightblue" points="187.004,-133.851 176.667,-131.527 183.299,-139.79 187.004,-133.851"/>
</g>
<!-- Node9 -->
<g id="node9" class="node"><title>Node9</title>
<polygon fill="white" stroke="#bfbfbf" points="229.5,-112.5 229.5,-131.5 322.5,-131.5 322.5,-112.5 229.5,-112.5"/>
<text text-anchor="middle" x="276" y="-119.5" font-family="Helvetica,sans-Serif" font-size="10.00">Eigen/StdVector</text>
</g>
<!-- Node1&#45;&gt;Node9 -->
<g id="edge8" class="edge"><title>Node1&#45;&gt;Node9</title>
<path fill="none" stroke="midnightblue" d="M276,-168.446C276,-159.73 276,-150.104 276,-141.964"/>
<polygon fill="midnightblue" stroke="midnightblue" points="279.5,-141.695 276,-131.695 272.5,-141.696 279.5,-141.695"/>
</g>
<!-- Node10 -->
<g id="node10" class="node"><title>Node10</title>
<polygon fill="white" stroke="#bfbfbf" points="340.5,-112.5 340.5,-131.5 387.5,-131.5 387.5,-112.5 340.5,-112.5"/>
<text text-anchor="middle" x="364" y="-119.5" font-family="Helvetica,sans-Serif" font-size="10.00">vector</text>
</g>
<!-- Node1&#45;&gt;Node10 -->
<g id="edge9" class="edge"><title>Node1&#45;&gt;Node10</title>
<path fill="none" stroke="midnightblue" d="M307.273,-168.446C319.903,-158.328 334.064,-146.983 345.077,-138.16"/>
<polygon fill="midnightblue" stroke="midnightblue" points="347.53,-140.679 353.146,-131.695 343.153,-135.216 347.53,-140.679"/>
</g>
<!-- Node3 -->
<g id="node3" class="node"><title>Node3</title>
<g id="a_node3"><a xlink:href="CoreMacros_8hpp.html" target="_top" xlink:title="Core/CoreMacros.hpp">
<polygon fill="white" stroke="black" points="103,-56.5 103,-75.5 223,-75.5 223,-56.5 103,-56.5"/>
<text text-anchor="middle" x="163" y="-63.5" font-family="Helvetica,sans-Serif" font-size="10.00">Core/CoreMacros.hpp</text>
</a>
</g>
</g>
<!-- Node2&#45;&gt;Node3 -->
<g id="edge2" class="edge"><title>Node2&#45;&gt;Node3</title>
<path fill="none" stroke="midnightblue" d="M163,-112.083C163,-105.006 163,-94.8611 163,-85.9865"/>
<polygon fill="midnightblue" stroke="midnightblue" points="166.5,-85.751 163,-75.7511 159.5,-85.7511 166.5,-85.751"/>
</g>
<!-- Node4 -->
<g id="node4" class="node"><title>Node4</title>
<polygon fill="white" stroke="#bfbfbf" points="0,-0.5 0,-19.5 52,-19.5 52,-0.5 0,-0.5"/>
<text text-anchor="middle" x="26" y="-7.5" font-family="Helvetica,sans-Serif" font-size="10.00">cassert</text>
</g>
<!-- Node3&#45;&gt;Node4 -->
<g id="edge3" class="edge"><title>Node3&#45;&gt;Node4</title>
<path fill="none" stroke="midnightblue" d="M141.292,-56.4435C118.645,-47.5171 82.9279,-33.4387 57.2482,-23.3168"/>
<polygon fill="midnightblue" stroke="midnightblue" points="58.1934,-19.9273 47.6065,-19.5164 55.6264,-26.4397 58.1934,-19.9273"/>
</g>
<!-- Node5 -->
<g id="node5" class="node"><title>Node5</title>
<polygon fill="white" stroke="#bfbfbf" points="70.5,-0.5 70.5,-19.5 115.5,-19.5 115.5,-0.5 70.5,-0.5"/>
<text text-anchor="middle" x="93" y="-7.5" font-family="Helvetica,sans-Serif" font-size="10.00">cstdio</text>
</g>
<!-- Node3&#45;&gt;Node5 -->
<g id="edge4" class="edge"><title>Node3&#45;&gt;Node5</title>
<path fill="none" stroke="midnightblue" d="M151.753,-56.324C141.203,-48.1849 125.199,-35.8395 112.558,-26.0874"/>
<polygon fill="midnightblue" stroke="midnightblue" points="114.507,-23.1707 104.451,-19.8339 110.231,-28.7132 114.507,-23.1707"/>
</g>
<!-- Node6 -->
<g id="node6" class="node"><title>Node6</title>
<polygon fill="white" stroke="#bfbfbf" points="133.5,-0.5 133.5,-19.5 192.5,-19.5 192.5,-0.5 133.5,-0.5"/>
<text text-anchor="middle" x="163" y="-7.5" font-family="Helvetica,sans-Serif" font-size="10.00">iostream</text>
</g>
<!-- Node3&#45;&gt;Node6 -->
<g id="edge5" class="edge"><title>Node3&#45;&gt;Node6</title>
<path fill="none" stroke="midnightblue" d="M163,-56.083C163,-49.0059 163,-38.8611 163,-29.9865"/>
<polygon fill="midnightblue" stroke="midnightblue" points="166.5,-29.751 163,-19.7511 159.5,-29.7511 166.5,-29.751"/>
</g>
<!-- Node7 -->
<g id="node7" class="node"><title>Node7</title>
<polygon fill="white" stroke="#bfbfbf" points="211,-0.5 211,-19.5 267,-19.5 267,-0.5 211,-0.5"/>
<text text-anchor="middle" x="239" y="-7.5" font-family="Helvetica,sans-Serif" font-size="10.00">sstream</text>
</g>
<!-- Node3&#45;&gt;Node7 -->
<g id="edge6" class="edge"><title>Node3&#45;&gt;Node7</title>
<path fill="none" stroke="midnightblue" d="M175.211,-56.324C186.776,-48.1066 204.375,-35.6017 218.161,-25.8069"/>
<polygon fill="midnightblue" stroke="midnightblue" points="220.443,-28.4791 226.567,-19.8339 216.388,-22.7729 220.443,-28.4791"/>
</g>
<!-- Node8 -->
<g id="node8" class="node"><title>Node8</title>
<polygon fill="white" stroke="#bfbfbf" points="285,-0.5 285,-19.5 333,-19.5 333,-0.5 285,-0.5"/>
<text text-anchor="middle" x="309" y="-7.5" font-family="Helvetica,sans-Serif" font-size="10.00">thread</text>
</g>
<!-- Node3&#45;&gt;Node8 -->
<g id="edge7" class="edge"><title>Node3&#45;&gt;Node8</title>
<path fill="none" stroke="midnightblue" d="M186.134,-56.4435C210.482,-47.4381 249.007,-33.1891 276.423,-23.049"/>
<polygon fill="midnightblue" stroke="midnightblue" points="277.809,-26.2681 285.974,-19.5164 275.381,-19.7028 277.809,-26.2681"/>
</g>
</g>
</svg>
