<?xml version="1.0" encoding="UTF-8" standalone="no"?>
<!DOCTYPE svg PUBLIC "-//W3C//DTD SVG 1.1//EN"
 "http://www.w3.org/Graphics/SVG/1.1/DTD/svg11.dtd">
<!-- Generated by graphviz version 2.38.0 (20140413.2041)
 -->
<!-- Title: /home/travis/build/STORM&#45;IRIT/Radium&#45;Engine/src/Core/Asset/AnimationData.inl Pages: 1 -->
<svg width="1116pt" height="453pt"
 viewBox="0.00 0.00 1115.55 453.00" xmlns="http://www.w3.org/2000/svg" xmlns:xlink="http://www.w3.org/1999/xlink">
<g id="graph0" class="graph" transform="scale(1 1) rotate(0) translate(4 449)">
<title>/home/travis/build/STORM&#45;IRIT/Radium&#45;Engine/src/Core/Asset/AnimationData.inl</title>
<polygon fill="white" stroke="none" points="-4,4 -4,-449 1111.55,-449 1111.55,4 -4,4"/>
<!-- Node1 -->
<g id="node1" class="node"><title>Node1</title>
<polygon fill="#bfbfbf" stroke="black" points="700.545,-403.5 700.545,-444.5 878.545,-444.5 878.545,-403.5 700.545,-403.5"/>
<text text-anchor="start" x="708.545" y="-432.5" font-family="Helvetica,sans-Serif" font-size="10.00">/home/travis/build</text>
<text text-anchor="start" x="708.545" y="-421.5" font-family="Helvetica,sans-Serif" font-size="10.00">/STORM&#45;IRIT/Radium&#45;Engine</text>
<text text-anchor="middle" x="789.545" y="-410.5" font-family="Helvetica,sans-Serif" font-size="10.00">/src/Core/Asset/AnimationData.inl</text>
</g>
<!-- Node2 -->
<g id="node2" class="node"><title>Node2</title>
<g id="a_node2"><a xlink:href="AnimationData_8hpp.html" target="_top" xlink:title="Core/Asset/AnimationData.hpp">
<polygon fill="white" stroke="black" points="707.045,-347.5 707.045,-366.5 872.045,-366.5 872.045,-347.5 707.045,-347.5"/>
<text text-anchor="middle" x="789.545" y="-354.5" font-family="Helvetica,sans-Serif" font-size="10.00">Core/Asset/AnimationData.hpp</text>
</a>
</g>
</g>
<!-- Node1&#45;&gt;Node2 -->
<g id="edge1" class="edge"><title>Node1&#45;&gt;Node2</title>
<path fill="none" stroke="midnightblue" d="M783.3,-403.498C782.602,-394.969 782.628,-385.011 783.378,-376.59"/>
<polygon fill="midnightblue" stroke="midnightblue" points="786.848,-377.044 784.781,-366.652 779.917,-376.065 786.848,-377.044"/>
</g>
<!-- Node30 -->
<g id="node30" class="node"><title>Node30</title>
<g id="a_node30"><a xlink:href="Log_8hpp.html" target="_top" xlink:title="Core/Utils/Log.hpp">
<polygon fill="white" stroke="black" points="983.545,-291.5 983.545,-310.5 1087.55,-310.5 1087.55,-291.5 983.545,-291.5"/>
<text text-anchor="middle" x="1035.55" y="-298.5" font-family="Helvetica,sans-Serif" font-size="10.00">Core/Utils/Log.hpp</text>
</a>
</g>
</g>
<!-- Node1&#45;&gt;Node30 -->
<g id="edge37" class="edge"><title>Node1&#45;&gt;Node30</title>
<path fill="none" stroke="midnightblue" d="M829.343,-403.425C879.912,-378.552 965.802,-336.305 1009.03,-315.043"/>
<polygon fill="midnightblue" stroke="midnightblue" points="1010.64,-318.15 1018.07,-310.596 1007.55,-311.869 1010.64,-318.15"/>
</g>
<!-- Node2&#45;&gt;Node1 -->
<g id="edge36" class="edge"><title>Node2&#45;&gt;Node1</title>
<path fill="none" stroke="midnightblue" d="M794.31,-366.652C795.772,-373.524 796.427,-383.559 796.274,-393.263"/>
<polygon fill="midnightblue" stroke="midnightblue" points="792.766,-393.344 795.791,-403.498 799.758,-393.674 792.766,-393.344"/>
</g>
<!-- Node3 -->
<g id="node3" class="node"><title>Node3</title>
<polygon fill="white" stroke="#bfbfbf" points="857.545,-235.5 857.545,-254.5 901.545,-254.5 901.545,-235.5 857.545,-235.5"/>
<text text-anchor="middle" x="879.545" y="-242.5" font-family="Helvetica,sans-Serif" font-size="10.00">string</text>
</g>
<!-- Node2&#45;&gt;Node3 -->
<g id="edge2" class="edge"><title>Node2&#45;&gt;Node3</title>
<path fill="none" stroke="midnightblue" d="M817.669,-347.352C835.402,-340.405 857.21,-328.819 869.545,-311 878.786,-297.652 880.846,-279.08 880.852,-265.204"/>
<polygon fill="midnightblue" stroke="midnightblue" points="884.338,-264.741 880.487,-254.871 877.343,-264.989 884.338,-264.741"/>
</g>
<!-- Node4 -->
<g id="node4" class="node"><title>Node4</title>
<polygon fill="white" stroke="#bfbfbf" points="918.045,-291.5 918.045,-310.5 965.045,-310.5 965.045,-291.5 918.045,-291.5"/>
<text text-anchor="middle" x="941.545" y="-298.5" font-family="Helvetica,sans-Serif" font-size="10.00">vector</text>
</g>
<!-- Node2&#45;&gt;Node4 -->
<g id="edge3" class="edge"><title>Node2&#45;&gt;Node4</title>
<path fill="none" stroke="midnightblue" d="M813.63,-347.444C839.09,-338.399 879.439,-324.064 908.004,-313.916"/>
<polygon fill="midnightblue" stroke="midnightblue" points="909.322,-317.162 917.573,-310.516 906.978,-310.566 909.322,-317.162"/>
</g>
<!-- Node5 -->
<g id="node5" class="node"><title>Node5</title>
<g id="a_node5"><a xlink:href="AnimationTime_8hpp.html" target="_top" xlink:title="Core/Animation/Animation\lTime.hpp">
<polygon fill="white" stroke="black" points="31.0453,-168.5 31.0453,-198.5 174.045,-198.5 174.045,-168.5 31.0453,-168.5"/>
<text text-anchor="start" x="39.0453" y="-186.5" font-family="Helvetica,sans-Serif" font-size="10.00">Core/Animation/Animation</text>
<text text-anchor="middle" x="102.545" y="-175.5" font-family="Helvetica,sans-Serif" font-size="10.00">Time.hpp</text>
</a>
</g>
</g>
<!-- Node2&#45;&gt;Node5 -->
<g id="edge4" class="edge"><title>Node2&#45;&gt;Node5</title>
<path fill="none" stroke="midnightblue" d="M706.85,-354.298C591.768,-349.134 379.048,-329.319 215.545,-255 184.696,-240.978 152.137,-219.907 129.934,-204.452"/>
<polygon fill="midnightblue" stroke="midnightblue" points="131.857,-201.526 121.667,-198.625 127.824,-207.247 131.857,-201.526"/>
</g>
<!-- Node14 -->
<g id="node14" class="node"><title>Node14</title>
<g id="a_node14"><a xlink:href="KeyTransform_8hpp.html" target="_top" xlink:title="Core/Animation/KeyTransform.hpp">
<polygon fill="white" stroke="black" points="409.045,-291.5 409.045,-310.5 588.045,-310.5 588.045,-291.5 409.045,-291.5"/>
<text text-anchor="middle" x="498.545" y="-298.5" font-family="Helvetica,sans-Serif" font-size="10.00">Core/Animation/KeyTransform.hpp</text>
</a>
</g>
</g>
<!-- Node2&#45;&gt;Node14 -->
<g id="edge13" class="edge"><title>Node2&#45;&gt;Node14</title>
<path fill="none" stroke="midnightblue" d="M743.435,-347.444C692.139,-337.925 609.272,-322.547 554.354,-312.356"/>
<polygon fill="midnightblue" stroke="midnightblue" points="554.91,-308.9 544.439,-310.516 553.633,-315.782 554.91,-308.9"/>
</g>
<!-- Node17 -->
<g id="node17" class="node"><title>Node17</title>
<g id="a_node17"><a xlink:href="RaCore_8hpp.html" target="_top" xlink:title="Core/RaCore.hpp">
<polygon fill="white" stroke="black" points="740.545,-112.5 740.545,-131.5 838.545,-131.5 838.545,-112.5 740.545,-112.5"/>
<text text-anchor="middle" x="789.545" y="-119.5" font-family="Helvetica,sans-Serif" font-size="10.00">Core/RaCore.hpp</text>
</a>
</g>
</g>
<!-- Node2&#45;&gt;Node17 -->
<g id="edge35" class="edge"><title>Node2&#45;&gt;Node17</title>
<path fill="none" stroke="midnightblue" d="M758.523,-347.436C740.513,-340.694 719.314,-329.302 708.545,-311 704.037,-303.339 706.565,-299.666 708.545,-291 722.024,-232.011 758.987,-169.621 777.965,-140.229"/>
<polygon fill="midnightblue" stroke="midnightblue" points="781.083,-141.858 783.652,-131.579 775.234,-138.012 781.083,-141.858"/>
</g>
<!-- Node29 -->
<g id="node29" class="node"><title>Node29</title>
<g id="a_node29"><a xlink:href="AssetData_8hpp.html" target="_top" xlink:title="Core/Asset/AssetData.hpp">
<polygon fill="white" stroke="black" points="718.045,-291.5 718.045,-310.5 861.045,-310.5 861.045,-291.5 718.045,-291.5"/>
<text text-anchor="middle" x="789.545" y="-298.5" font-family="Helvetica,sans-Serif" font-size="10.00">Core/Asset/AssetData.hpp</text>
</a>
</g>
</g>
<!-- Node2&#45;&gt;Node29 -->
<g id="edge32" class="edge"><title>Node2&#45;&gt;Node29</title>
<path fill="none" stroke="midnightblue" d="M789.545,-347.083C789.545,-340.006 789.545,-329.861 789.545,-320.986"/>
<polygon fill="midnightblue" stroke="midnightblue" points="793.045,-320.751 789.545,-310.751 786.045,-320.751 793.045,-320.751"/>
</g>
<!-- Node6 -->
<g id="node6" class="node"><title>Node6</title>
<g id="a_node6"><a xlink:href="CoreMacros_8hpp.html" target="_top" xlink:title="Core/CoreMacros.hpp">
<polygon fill="white" stroke="black" points="729.545,-56.5 729.545,-75.5 849.545,-75.5 849.545,-56.5 729.545,-56.5"/>
<text text-anchor="middle" x="789.545" y="-63.5" font-family="Helvetica,sans-Serif" font-size="10.00">Core/CoreMacros.hpp</text>
</a>
</g>
</g>
<!-- Node5&#45;&gt;Node6 -->
<g id="edge5" class="edge"><title>Node5&#45;&gt;Node6</title>
<path fill="none" stroke="midnightblue" d="M57.5423,-168.491C23.1069,-155.558 -15.1036,-134.929 6.54527,-112 30.8264,-86.2834 531.606,-72.666 719.313,-68.45"/>
<polygon fill="midnightblue" stroke="midnightblue" points="719.431,-71.9483 729.351,-68.2268 719.275,-64.9501 719.431,-71.9483"/>
</g>
<!-- Node12 -->
<g id="node12" class="node"><title>Node12</title>
<polygon fill="white" stroke="#bfbfbf" points="16.0453,-112.5 16.0453,-131.5 63.0453,-131.5 63.0453,-112.5 16.0453,-112.5"/>
<text text-anchor="middle" x="39.5453" y="-119.5" font-family="Helvetica,sans-Serif" font-size="10.00">cmath</text>
</g>
<!-- Node5&#45;&gt;Node12 -->
<g id="edge11" class="edge"><title>Node5&#45;&gt;Node12</title>
<path fill="none" stroke="midnightblue" d="M87.6151,-168.399C78.1774,-159.486 65.9654,-147.952 56.212,-138.741"/>
<polygon fill="midnightblue" stroke="midnightblue" points="58.3857,-135.979 48.7123,-131.658 53.5793,-141.069 58.3857,-135.979"/>
</g>
<!-- Node13 -->
<g id="node13" class="node"><title>Node13</title>
<polygon fill="white" stroke="#bfbfbf" points="81.5453,-112.5 81.5453,-131.5 123.545,-131.5 123.545,-112.5 81.5453,-112.5"/>
<text text-anchor="middle" x="102.545" y="-119.5" font-family="Helvetica,sans-Serif" font-size="10.00">limits</text>
</g>
<!-- Node5&#45;&gt;Node13 -->
<g id="edge12" class="edge"><title>Node5&#45;&gt;Node13</title>
<path fill="none" stroke="midnightblue" d="M102.545,-168.399C102.545,-160.466 102.545,-150.458 102.545,-141.858"/>
<polygon fill="midnightblue" stroke="midnightblue" points="106.045,-141.658 102.545,-131.658 99.0454,-141.658 106.045,-141.658"/>
</g>
<!-- Node7 -->
<g id="node7" class="node"><title>Node7</title>
<polygon fill="white" stroke="#bfbfbf" points="797.545,-0.5 797.545,-19.5 849.545,-19.5 849.545,-0.5 797.545,-0.5"/>
<text text-anchor="middle" x="823.545" y="-7.5" font-family="Helvetica,sans-Serif" font-size="10.00">cassert</text>
</g>
<!-- Node6&#45;&gt;Node7 -->
<g id="edge6" class="edge"><title>Node6&#45;&gt;Node7</title>
<path fill="none" stroke="midnightblue" d="M795.16,-56.083C799.913,-48.5341 806.863,-37.4948 812.697,-28.2298"/>
<polygon fill="midnightblue" stroke="midnightblue" points="815.669,-30.0783 818.035,-19.7511 809.745,-26.3486 815.669,-30.0783"/>
</g>
<!-- Node8 -->
<g id="node8" class="node"><title>Node8</title>
<polygon fill="white" stroke="#bfbfbf" points="868.045,-0.5 868.045,-19.5 913.045,-19.5 913.045,-0.5 868.045,-0.5"/>
<text text-anchor="middle" x="890.545" y="-7.5" font-family="Helvetica,sans-Serif" font-size="10.00">cstdio</text>
</g>
<!-- Node6&#45;&gt;Node8 -->
<g id="edge7" class="edge"><title>Node6&#45;&gt;Node8</title>
<path fill="none" stroke="midnightblue" d="M805.773,-56.324C821.896,-47.7034 846.845,-34.3643 865.509,-24.3855"/>
<polygon fill="midnightblue" stroke="midnightblue" points="867.19,-27.456 874.358,-19.6545 863.889,-21.283 867.19,-27.456"/>
</g>
<!-- Node9 -->
<g id="node9" class="node"><title>Node9</title>
<polygon fill="white" stroke="#bfbfbf" points="654.045,-0.5 654.045,-19.5 713.045,-19.5 713.045,-0.5 654.045,-0.5"/>
<text text-anchor="middle" x="683.545" y="-7.5" font-family="Helvetica,sans-Serif" font-size="10.00">iostream</text>
</g>
<!-- Node6&#45;&gt;Node9 -->
<g id="edge8" class="edge"><title>Node6&#45;&gt;Node9</title>
<path fill="none" stroke="midnightblue" d="M772.515,-56.324C755.515,-47.6641 729.169,-34.2424 709.553,-24.249"/>
<polygon fill="midnightblue" stroke="midnightblue" points="711.033,-21.0752 700.534,-19.6545 707.855,-27.3125 711.033,-21.0752"/>
</g>
<!-- Node10 -->
<g id="node10" class="node"><title>Node10</title>
<polygon fill="white" stroke="#bfbfbf" points="952.545,-0.5 952.545,-19.5 1008.55,-19.5 1008.55,-0.5 952.545,-0.5"/>
<text text-anchor="middle" x="980.545" y="-7.5" font-family="Helvetica,sans-Serif" font-size="10.00">sstream</text>
</g>
<!-- Node6&#45;&gt;Node10 -->
<g id="edge9" class="edge"><title>Node6&#45;&gt;Node10</title>
<path fill="none" stroke="midnightblue" d="M819.81,-56.4435C853.077,-47.038 906.576,-31.9127 942.619,-21.7227"/>
<polygon fill="midnightblue" stroke="midnightblue" points="943.62,-25.077 952.29,-18.9883 941.715,-18.341 943.62,-25.077"/>
</g>
<!-- Node11 -->
<g id="node11" class="node"><title>Node11</title>
<polygon fill="white" stroke="#bfbfbf" points="731.545,-0.5 731.545,-19.5 779.545,-19.5 779.545,-0.5 731.545,-0.5"/>
<text text-anchor="middle" x="755.545" y="-7.5" font-family="Helvetica,sans-Serif" font-size="10.00">thread</text>
</g>
<!-- Node6&#45;&gt;Node11 -->
<g id="edge10" class="edge"><title>Node6&#45;&gt;Node11</title>
<path fill="none" stroke="midnightblue" d="M783.931,-56.083C779.178,-48.5341 772.227,-37.4948 766.394,-28.2298"/>
<polygon fill="midnightblue" stroke="midnightblue" points="769.345,-26.3486 761.055,-19.7511 763.422,-30.0783 769.345,-26.3486"/>
</g>
<!-- Node15 -->
<g id="node15" class="node"><title>Node15</title>
<g id="a_node15"><a xlink:href="Interpolation_8hpp.html" target="_top" xlink:title="Core/Animation/Interpolation.hpp">
<polygon fill="white" stroke="black" points="225.045,-235.5 225.045,-254.5 400.045,-254.5 400.045,-235.5 225.045,-235.5"/>
<text text-anchor="middle" x="312.545" y="-242.5" font-family="Helvetica,sans-Serif" font-size="10.00">Core/Animation/Interpolation.hpp</text>
</a>
</g>
</g>
<!-- Node14&#45;&gt;Node15 -->
<g id="edge14" class="edge"><title>Node14&#45;&gt;Node15</title>
<path fill="none" stroke="midnightblue" d="M469.073,-291.444C437.374,-282.241 386.813,-267.562 351.77,-257.388"/>
<polygon fill="midnightblue" stroke="midnightblue" points="352.459,-253.943 341.88,-254.516 350.507,-260.666 352.459,-253.943"/>
</g>
<!-- Node21 -->
<g id="node21" class="node"><title>Node21</title>
<g id="a_node21"><a xlink:href="KeyFrame_8hpp.html" target="_top" xlink:title="Core/Animation/KeyFrame.hpp">
<polygon fill="white" stroke="black" points="418.045,-235.5 418.045,-254.5 579.045,-254.5 579.045,-235.5 418.045,-235.5"/>
<text text-anchor="middle" x="498.545" y="-242.5" font-family="Helvetica,sans-Serif" font-size="10.00">Core/Animation/KeyFrame.hpp</text>
</a>
</g>
</g>
<!-- Node14&#45;&gt;Node21 -->
<g id="edge21" class="edge"><title>Node14&#45;&gt;Node21</title>
<path fill="none" stroke="midnightblue" d="M498.545,-291.083C498.545,-284.006 498.545,-273.861 498.545,-264.986"/>
<polygon fill="midnightblue" stroke="midnightblue" points="502.045,-264.751 498.545,-254.751 495.045,-264.751 502.045,-264.751"/>
</g>
<!-- Node16 -->
<g id="node16" class="node"><title>Node16</title>
<g id="a_node16"><a xlink:href="Types_8hpp.html" target="_top" xlink:title="Core/Math/Types.hpp">
<polygon fill="white" stroke="black" points="254.545,-174 254.545,-193 370.545,-193 370.545,-174 254.545,-174"/>
<text text-anchor="middle" x="312.545" y="-181" font-family="Helvetica,sans-Serif" font-size="10.00">Core/Math/Types.hpp</text>
</a>
</g>
</g>
<!-- Node15&#45;&gt;Node16 -->
<g id="edge15" class="edge"><title>Node15&#45;&gt;Node16</title>
<path fill="none" stroke="midnightblue" d="M312.545,-235.475C312.545,-227.08 312.545,-213.981 312.545,-203.163"/>
<polygon fill="midnightblue" stroke="midnightblue" points="316.045,-203.009 312.545,-193.009 309.045,-203.009 316.045,-203.009"/>
</g>
<!-- Node16&#45;&gt;Node17 -->
<g id="edge16" class="edge"><title>Node16&#45;&gt;Node17</title>
<path fill="none" stroke="midnightblue" d="M348.569,-173.934C358.559,-171.769 369.437,-169.606 379.545,-168 531.674,-143.836 573.852,-151.72 730.529,-132.062"/>
<polygon fill="midnightblue" stroke="midnightblue" points="731.045,-135.525 740.523,-130.79 730.161,-128.581 731.045,-135.525"/>
</g>
<!-- Node18 -->
<g id="node18" class="node"><title>Node18</title>
<polygon fill="white" stroke="#bfbfbf" points="141.545,-112.5 141.545,-131.5 209.545,-131.5 209.545,-112.5 141.545,-112.5"/>
<text text-anchor="middle" x="175.545" y="-119.5" font-family="Helvetica,sans-Serif" font-size="10.00">Eigen/Core</text>
</g>
<!-- Node16&#45;&gt;Node18 -->
<g id="edge18" class="edge"><title>Node16&#45;&gt;Node18</title>
<path fill="none" stroke="midnightblue" d="M292.917,-173.975C269.721,-163.901 230.927,-147.053 204.332,-135.502"/>
<polygon fill="midnightblue" stroke="midnightblue" points="205.704,-132.282 195.138,-131.509 202.916,-138.703 205.704,-132.282"/>
</g>
<!-- Node19 -->
<g id="node19" class="node"><title>Node19</title>
<polygon fill="white" stroke="#bfbfbf" points="227.545,-112.5 227.545,-131.5 321.545,-131.5 321.545,-112.5 227.545,-112.5"/>
<text text-anchor="middle" x="274.545" y="-119.5" font-family="Helvetica,sans-Serif" font-size="10.00">Eigen/Geometry</text>
</g>
<!-- Node16&#45;&gt;Node19 -->
<g id="edge19" class="edge"><title>Node16&#45;&gt;Node19</title>
<path fill="none" stroke="midnightblue" d="M307.101,-173.975C301.457,-165.138 292.484,-151.089 285.386,-139.975"/>
<polygon fill="midnightblue" stroke="midnightblue" points="288.312,-138.053 279.98,-131.509 282.412,-141.821 288.312,-138.053"/>
</g>
<!-- Node20 -->
<g id="node20" class="node"><title>Node20</title>
<polygon fill="white" stroke="#bfbfbf" points="339.545,-112.5 339.545,-131.5 419.545,-131.5 419.545,-112.5 339.545,-112.5"/>
<text text-anchor="middle" x="379.545" y="-119.5" font-family="Helvetica,sans-Serif" font-size="10.00">Eigen/Sparse</text>
</g>
<!-- Node16&#45;&gt;Node20 -->
<g id="edge20" class="edge"><title>Node16&#45;&gt;Node20</title>
<path fill="none" stroke="midnightblue" d="M322.145,-173.975C332.593,-164.697 349.513,-149.671 362.282,-138.331"/>
<polygon fill="midnightblue" stroke="midnightblue" points="364.81,-140.766 369.964,-131.509 360.162,-135.532 364.81,-140.766"/>
</g>
<!-- Node17&#45;&gt;Node6 -->
<g id="edge17" class="edge"><title>Node17&#45;&gt;Node6</title>
<path fill="none" stroke="midnightblue" d="M789.545,-112.083C789.545,-105.006 789.545,-94.8611 789.545,-85.9865"/>
<polygon fill="midnightblue" stroke="midnightblue" points="793.045,-85.751 789.545,-75.7511 786.045,-85.7511 793.045,-85.751"/>
</g>
<!-- Node21&#45;&gt;Node5 -->
<g id="edge31" class="edge"><title>Node21&#45;&gt;Node5</title>
<path fill="none" stroke="midnightblue" d="M441.808,-235.475C374.368,-225.342 261.307,-208.354 184.403,-196.799"/>
<polygon fill="midnightblue" stroke="midnightblue" points="184.68,-193.302 174.27,-195.277 183.639,-200.224 184.68,-193.302"/>
</g>
<!-- Node21&#45;&gt;Node16 -->
<g id="edge30" class="edge"><title>Node21&#45;&gt;Node16</title>
<path fill="none" stroke="midnightblue" d="M471.896,-235.475C439.576,-225.136 384.948,-207.661 348.813,-196.102"/>
<polygon fill="midnightblue" stroke="midnightblue" points="349.736,-192.722 339.145,-193.009 347.603,-199.39 349.736,-192.722"/>
</g>
<!-- Node22 -->
<g id="node22" class="node"><title>Node22</title>
<polygon fill="white" stroke="#bfbfbf" points="650.545,-174 650.545,-193 688.545,-193 688.545,-174 650.545,-174"/>
<text text-anchor="middle" x="669.545" y="-181" font-family="Helvetica,sans-Serif" font-size="10.00">map</text>
</g>
<!-- Node21&#45;&gt;Node22 -->
<g id="edge22" class="edge"><title>Node21&#45;&gt;Node22</title>
<path fill="none" stroke="midnightblue" d="M531.201,-235.464C560.559,-227.382 604.615,-214.239 641.545,-199 642.583,-198.572 643.633,-198.119 644.689,-197.649"/>
<polygon fill="midnightblue" stroke="midnightblue" points="646.591,-200.617 654.074,-193.117 643.547,-194.314 646.591,-200.617"/>
</g>
<!-- Node23 -->
<g id="node23" class="node"><title>Node23</title>
<polygon fill="white" stroke="#bfbfbf" points="388.545,-174 388.545,-193 420.545,-193 420.545,-174 388.545,-174"/>
<text text-anchor="middle" x="404.545" y="-181" font-family="Helvetica,sans-Serif" font-size="10.00">set</text>
</g>
<!-- Node21&#45;&gt;Node23 -->
<g id="edge23" class="edge"><title>Node21&#45;&gt;Node23</title>
<path fill="none" stroke="midnightblue" d="M485.077,-235.475C469.86,-225.843 444.859,-210.017 426.745,-198.552"/>
<polygon fill="midnightblue" stroke="midnightblue" points="428.31,-195.4 417.988,-193.009 424.566,-201.315 428.31,-195.4"/>
</g>
<!-- Node24 -->
<g id="node24" class="node"><title>Node24</title>
<g id="a_node24"><a xlink:href="AlignedAllocator_8hpp.html" target="_top" xlink:title="Core/Containers/AlignedAllocator.hpp">
<polygon fill="white" stroke="black" points="438.545,-174 438.545,-193 632.545,-193 632.545,-174 438.545,-174"/>
<text text-anchor="middle" x="535.545" y="-181" font-family="Helvetica,sans-Serif" font-size="10.00">Core/Containers/AlignedAllocator.hpp</text>
</a>
</g>
</g>
<!-- Node21&#45;&gt;Node24 -->
<g id="edge24" class="edge"><title>Node21&#45;&gt;Node24</title>
<path fill="none" stroke="midnightblue" d="M503.846,-235.475C509.287,-226.727 517.904,-212.869 524.781,-201.809"/>
<polygon fill="midnightblue" stroke="midnightblue" points="527.945,-203.349 530.254,-193.009 522.001,-199.653 527.945,-203.349"/>
</g>
<!-- Node24&#45;&gt;Node17 -->
<g id="edge25" class="edge"><title>Node24&#45;&gt;Node17</title>
<path fill="none" stroke="midnightblue" d="M571.937,-173.975C617.111,-163.393 694.196,-145.336 743.456,-133.797"/>
<polygon fill="midnightblue" stroke="midnightblue" points="744.283,-137.198 753.221,-131.509 742.686,-130.382 744.283,-137.198"/>
</g>
<!-- Node25 -->
<g id="node25" class="node"><title>Node25</title>
<polygon fill="white" stroke="#bfbfbf" points="503.545,-112.5 503.545,-131.5 585.545,-131.5 585.545,-112.5 503.545,-112.5"/>
<text text-anchor="middle" x="544.545" y="-119.5" font-family="Helvetica,sans-Serif" font-size="10.00">mm_malloc.h</text>
</g>
<!-- Node24&#45;&gt;Node25 -->
<g id="edge26" class="edge"><title>Node24&#45;&gt;Node25</title>
<path fill="none" stroke="midnightblue" d="M536.835,-173.975C538.105,-165.58 540.086,-152.481 541.722,-141.663"/>
<polygon fill="midnightblue" stroke="midnightblue" points="545.223,-141.92 543.258,-131.509 538.302,-140.873 545.223,-141.92"/>
</g>
<!-- Node26 -->
<g id="node26" class="node"><title>Node26</title>
<polygon fill="white" stroke="#bfbfbf" points="603.545,-112.5 603.545,-131.5 655.545,-131.5 655.545,-112.5 603.545,-112.5"/>
<text text-anchor="middle" x="629.545" y="-119.5" font-family="Helvetica,sans-Serif" font-size="10.00">cstddef</text>
</g>
<!-- Node24&#45;&gt;Node26 -->
<g id="edge27" class="edge"><title>Node24&#45;&gt;Node26</title>
<path fill="none" stroke="midnightblue" d="M549.013,-173.975C564.23,-164.343 589.232,-148.517 607.346,-137.052"/>
<polygon fill="midnightblue" stroke="midnightblue" points="609.525,-139.815 616.102,-131.509 605.781,-133.9 609.525,-139.815"/>
</g>
<!-- Node27 -->
<g id="node27" class="node"><title>Node27</title>
<polygon fill="white" stroke="#bfbfbf" points="674.045,-112.5 674.045,-131.5 723.045,-131.5 723.045,-112.5 674.045,-112.5"/>
<text text-anchor="middle" x="698.545" y="-119.5" font-family="Helvetica,sans-Serif" font-size="10.00">cstdint</text>
</g>
<!-- Node24&#45;&gt;Node27 -->
<g id="edge28" class="edge"><title>Node24&#45;&gt;Node27</title>
<path fill="none" stroke="midnightblue" d="M558.899,-173.975C586.859,-163.769 633.871,-146.608 665.537,-135.049"/>
<polygon fill="midnightblue" stroke="midnightblue" points="667.041,-138.226 675.235,-131.509 664.641,-131.65 667.041,-138.226"/>
</g>
<!-- Node28 -->
<g id="node28" class="node"><title>Node28</title>
<polygon fill="white" stroke="#bfbfbf" points="438.045,-112.5 438.045,-131.5 485.045,-131.5 485.045,-112.5 438.045,-112.5"/>
<text text-anchor="middle" x="461.545" y="-119.5" font-family="Helvetica,sans-Serif" font-size="10.00">cstdlib</text>
</g>
<!-- Node24&#45;&gt;Node28 -->
<g id="edge29" class="edge"><title>Node24&#45;&gt;Node28</title>
<path fill="none" stroke="midnightblue" d="M524.943,-173.975C513.293,-164.608 494.359,-149.384 480.211,-138.008"/>
<polygon fill="midnightblue" stroke="midnightblue" points="482.114,-135.048 472.128,-131.509 477.728,-140.503 482.114,-135.048"/>
</g>
<!-- Node29&#45;&gt;Node3 -->
<g id="edge34" class="edge"><title>Node29&#45;&gt;Node3</title>
<path fill="none" stroke="midnightblue" d="M804.005,-291.324C818.045,-282.9 839.594,-269.971 856.088,-260.074"/>
<polygon fill="midnightblue" stroke="midnightblue" points="858.347,-262.801 865.121,-254.655 854.745,-256.798 858.347,-262.801"/>
</g>
<!-- Node29&#45;&gt;Node17 -->
<g id="edge33" class="edge"><title>Node29&#45;&gt;Node17</title>
<path fill="none" stroke="midnightblue" d="M789.545,-291.463C789.545,-264.428 789.545,-180.239 789.545,-142.109"/>
<polygon fill="midnightblue" stroke="midnightblue" points="793.045,-141.868 789.545,-131.868 786.045,-141.868 793.045,-141.868"/>
</g>
<!-- Node30&#45;&gt;Node3 -->
<g id="edge42" class="edge"><title>Node30&#45;&gt;Node3</title>
<path fill="none" stroke="midnightblue" d="M1010.83,-291.444C983.928,-282.133 940.837,-267.216 911.414,-257.032"/>
<polygon fill="midnightblue" stroke="midnightblue" points="912.221,-253.607 901.626,-253.643 909.931,-260.222 912.221,-253.607"/>
</g>
<!-- Node30&#45;&gt;Node10 -->
<g id="edge40" class="edge"><title>Node30&#45;&gt;Node10</title>
<path fill="none" stroke="midnightblue" d="M1035.55,-291.307C1035.55,-272.062 1035.55,-224.404 1035.55,-184.5 1035.55,-184.5 1035.55,-184.5 1035.55,-121 1035.55,-84.5693 1011.11,-47.836 994.816,-27.387"/>
<polygon fill="midnightblue" stroke="midnightblue" points="997.499,-25.1386 988.425,-19.6684 992.107,-29.603 997.499,-25.1386"/>
</g>
<!-- Node30&#45;&gt;Node17 -->
<g id="edge38" class="edge"><title>Node30&#45;&gt;Node17</title>
<path fill="none" stroke="midnightblue" d="M1016.21,-291.472C998.129,-283.156 970.66,-269.651 948.545,-255 892.741,-218.029 833.82,-164.831 805.969,-138.699"/>
<polygon fill="midnightblue" stroke="midnightblue" points="808.334,-136.118 798.662,-131.793 803.525,-141.205 808.334,-136.118"/>
</g>
<!-- Node31 -->
<g id="node31" class="node"><title>Node31</title>
<polygon fill="white" stroke="#bfbfbf" points="1063.55,-235.5 1063.55,-254.5 1107.55,-254.5 1107.55,-235.5 1063.55,-235.5"/>
<text text-anchor="middle" x="1085.55" y="-242.5" font-family="Helvetica,sans-Serif" font-size="10.00">ctime</text>
</g>
<!-- Node30&#45;&gt;Node31 -->
<g id="edge39" class="edge"><title>Node30&#45;&gt;Node31</title>
<path fill="none" stroke="midnightblue" d="M1043.8,-291.083C1051.01,-283.298 1061.66,-271.801 1070.39,-262.367"/>
<polygon fill="midnightblue" stroke="midnightblue" points="1073.22,-264.467 1077.44,-254.751 1068.08,-259.711 1073.22,-264.467"/>
</g>
<!-- Node32 -->
<g id="node32" class="node"><title>Node32</title>
<polygon fill="white" stroke="#bfbfbf" points="958.045,-235.5 958.045,-254.5 1007.05,-254.5 1007.05,-235.5 958.045,-235.5"/>
<text text-anchor="middle" x="982.545" y="-242.5" font-family="Helvetica,sans-Serif" font-size="10.00">stdio.h</text>
</g>
<!-- Node30&#45;&gt;Node32 -->
<g id="edge41" class="edge"><title>Node30&#45;&gt;Node32</title>
<path fill="none" stroke="midnightblue" d="M1026.79,-291.083C1019.08,-283.22 1007.64,-271.569 998.329,-262.081"/>
<polygon fill="midnightblue" stroke="midnightblue" points="1000.64,-259.436 991.134,-254.751 995.641,-264.34 1000.64,-259.436"/>
</g>
</g>
</svg>
