<?xml version="1.0" encoding="UTF-8" standalone="no"?>
<!DOCTYPE svg PUBLIC "-//W3C//DTD SVG 1.1//EN"
 "http://www.w3.org/Graphics/SVG/1.1/DTD/svg11.dtd">
<!-- Generated by graphviz version 2.38.0 (20140413.2041)
 -->
<!-- Title: /home/travis/build/STORM&#45;IRIT/Radium&#45;Engine/src/Core/Animation/AnimationTime.hpp Pages: 1 -->
<svg width="3512pt" height="640pt"
 viewBox="0.00 0.00 3511.50 640.00" xmlns="http://www.w3.org/2000/svg" xmlns:xlink="http://www.w3.org/1999/xlink">
<g id="graph0" class="graph" transform="scale(1 1) rotate(0) translate(4 636)">
<title>/home/travis/build/STORM&#45;IRIT/Radium&#45;Engine/src/Core/Animation/AnimationTime.hpp</title>
<polygon fill="white" stroke="none" points="-4,4 -4,-636 3507.5,-636 3507.5,4 -4,4"/>
<!-- Node1 -->
<g id="node1" class="node"><title>Node1</title>
<polygon fill="#bfbfbf" stroke="black" points="2621.5,-590.5 2621.5,-631.5 2828.5,-631.5 2828.5,-590.5 2621.5,-590.5"/>
<text text-anchor="start" x="2629.5" y="-619.5" font-family="Helvetica,sans-Serif" font-size="10.00">/home/travis/build</text>
<text text-anchor="start" x="2629.5" y="-608.5" font-family="Helvetica,sans-Serif" font-size="10.00">/STORM&#45;IRIT/Radium&#45;Engine</text>
<text text-anchor="middle" x="2725" y="-597.5" font-family="Helvetica,sans-Serif" font-size="10.00">/src/Core/Animation/AnimationTime.hpp</text>
</g>
<!-- Node2 -->
<g id="node2" class="node"><title>Node2</title>
<g id="a_node2"><a xlink:href="KeyFrame_8hpp.html" target="_top" xlink:title="/home/travis/build\l/STORM&#45;IRIT/Radium&#45;Engine\l/src/Core/Animation/KeyFrame.hpp">
<polygon fill="white" stroke="black" points="2515,-512.5 2515,-553.5 2697,-553.5 2697,-512.5 2515,-512.5"/>
<text text-anchor="start" x="2523" y="-541.5" font-family="Helvetica,sans-Serif" font-size="10.00">/home/travis/build</text>
<text text-anchor="start" x="2523" y="-530.5" font-family="Helvetica,sans-Serif" font-size="10.00">/STORM&#45;IRIT/Radium&#45;Engine</text>
<text text-anchor="middle" x="2606" y="-519.5" font-family="Helvetica,sans-Serif" font-size="10.00">/src/Core/Animation/KeyFrame.hpp</text>
</a>
</g>
</g>
<!-- Node1&#45;&gt;Node2 -->
<g id="edge1" class="edge"><title>Node1&#45;&gt;Node2</title>
<path fill="none" stroke="midnightblue" d="M2685.73,-584.919C2669.73,-574.702 2651.52,-563.07 2636.54,-553.506"/>
<polygon fill="midnightblue" stroke="midnightblue" points="2684.04,-587.995 2694.35,-590.428 2687.81,-582.096 2684.04,-587.995"/>
</g>
<!-- Node9 -->
<g id="node9" class="node"><title>Node9</title>
<g id="a_node9"><a xlink:href="AnimationData_8hpp.html" target="_top" xlink:title="/home/travis/build\l/STORM&#45;IRIT/Radium&#45;Engine\l/src/Core/Asset/AnimationData.hpp">
<polygon fill="white" stroke="black" points="2863.5,-351 2863.5,-392 3048.5,-392 3048.5,-351 2863.5,-351"/>
<text text-anchor="start" x="2871.5" y="-380" font-family="Helvetica,sans-Serif" font-size="10.00">/home/travis/build</text>
<text text-anchor="start" x="2871.5" y="-369" font-family="Helvetica,sans-Serif" font-size="10.00">/STORM&#45;IRIT/Radium&#45;Engine</text>
<text text-anchor="middle" x="2956" y="-358" font-family="Helvetica,sans-Serif" font-size="10.00">/src/Core/Asset/AnimationData.hpp</text>
</a>
</g>
</g>
<!-- Node1&#45;&gt;Node9 -->
<g id="edge41" class="edge"><title>Node1&#45;&gt;Node9</title>
<path fill="none" stroke="midnightblue" d="M2807.28,-587.044C2861.39,-567.195 2928.07,-532.562 2961,-476 2976.02,-450.192 2969.46,-414.335 2962.99,-392.313"/>
<polygon fill="midnightblue" stroke="midnightblue" points="2805.93,-583.81 2797.68,-590.46 2808.28,-590.405 2805.93,-583.81"/>
</g>
<!-- Node33 -->
<g id="node33" class="node"><title>Node33</title>
<g id="a_node33"><a xlink:href="AssimpAnimationDataLoader_8hpp.html" target="_top" xlink:title="/home/travis/build\l/STORM&#45;IRIT/Radium&#45;Engine\l/src/IO/AssimpLoader/AssimpAnimation\lDataLoader.hpp">
<polygon fill="white" stroke="black" points="2611.5,-345.5 2611.5,-397.5 2816.5,-397.5 2816.5,-345.5 2611.5,-345.5"/>
<text text-anchor="start" x="2619.5" y="-385.5" font-family="Helvetica,sans-Serif" font-size="10.00">/home/travis/build</text>
<text text-anchor="start" x="2619.5" y="-374.5" font-family="Helvetica,sans-Serif" font-size="10.00">/STORM&#45;IRIT/Radium&#45;Engine</text>
<text text-anchor="start" x="2619.5" y="-363.5" font-family="Helvetica,sans-Serif" font-size="10.00">/src/IO/AssimpLoader/AssimpAnimation</text>
<text text-anchor="middle" x="2714" y="-352.5" font-family="Helvetica,sans-Serif" font-size="10.00">DataLoader.hpp</text>
</a>
</g>
</g>
<!-- Node1&#45;&gt;Node33 -->
<g id="edge42" class="edge"><title>Node1&#45;&gt;Node33</title>
<path fill="none" stroke="midnightblue" d="M2723.61,-579.951C2721.42,-532.688 2717.21,-441.832 2715.17,-397.739"/>
<polygon fill="midnightblue" stroke="midnightblue" points="2720.12,-580.332 2724.08,-590.159 2727.11,-580.008 2720.12,-580.332"/>
</g>
<!-- Node3 -->
<g id="node3" class="node"><title>Node3</title>
<g id="a_node3"><a xlink:href="KeyPose_8hpp.html" target="_top" xlink:title="/home/travis/build\l/STORM&#45;IRIT/Radium&#45;Engine\l/src/Core/Animation/KeyPose.hpp">
<polygon fill="white" stroke="black" points="3328.5,-351 3328.5,-392 3503.5,-392 3503.5,-351 3328.5,-351"/>
<text text-anchor="start" x="3336.5" y="-380" font-family="Helvetica,sans-Serif" font-size="10.00">/home/travis/build</text>
<text text-anchor="start" x="3336.5" y="-369" font-family="Helvetica,sans-Serif" font-size="10.00">/STORM&#45;IRIT/Radium&#45;Engine</text>
<text text-anchor="middle" x="3416" y="-358" font-family="Helvetica,sans-Serif" font-size="10.00">/src/Core/Animation/KeyPose.hpp</text>
</a>
</g>
</g>
<!-- Node2&#45;&gt;Node3 -->
<g id="edge2" class="edge"><title>Node2&#45;&gt;Node3</title>
<path fill="none" stroke="midnightblue" d="M2707.4,-517.684C2778.56,-507.227 2875.83,-492.111 2961,-476 3118.87,-446.135 3157.6,-434.821 3314,-398 3322.08,-396.097 3330.52,-394.064 3338.92,-392.009"/>
<polygon fill="midnightblue" stroke="midnightblue" points="2706.48,-514.281 2697.1,-519.192 2707.5,-521.207 2706.48,-514.281"/>
</g>
<!-- Node5 -->
<g id="node5" class="node"><title>Node5</title>
<g id="a_node5"><a xlink:href="KeyRotation_8hpp.html" target="_top" xlink:title="/home/travis/build\l/STORM&#45;IRIT/Radium&#45;Engine\l/src/Core/Animation/KeyRotation.hpp">
<polygon fill="white" stroke="black" points="2402.5,-351 2402.5,-392 2593.5,-392 2593.5,-351 2402.5,-351"/>
<text text-anchor="start" x="2410.5" y="-380" font-family="Helvetica,sans-Serif" font-size="10.00">/home/travis/build</text>
<text text-anchor="start" x="2410.5" y="-369" font-family="Helvetica,sans-Serif" font-size="10.00">/STORM&#45;IRIT/Radium&#45;Engine</text>
<text text-anchor="middle" x="2498" y="-358" font-family="Helvetica,sans-Serif" font-size="10.00">/src/Core/Animation/KeyRotation.hpp</text>
</a>
</g>
</g>
<!-- Node2&#45;&gt;Node5 -->
<g id="edge4" class="edge"><title>Node2&#45;&gt;Node5</title>
<path fill="none" stroke="midnightblue" d="M2622.58,-503.533C2632.26,-482.848 2640.21,-454.927 2627,-434 2614.82,-414.697 2594.73,-401.325 2573.99,-392.114"/>
<polygon fill="midnightblue" stroke="midnightblue" points="2619.45,-501.97 2618.09,-512.477 2625.71,-505.115 2619.45,-501.97"/>
</g>
<!-- Node7 -->
<g id="node7" class="node"><title>Node7</title>
<g id="a_node7"><a xlink:href="KeyScaling_8hpp.html" target="_top" xlink:title="/home/travis/build\l/STORM&#45;IRIT/Radium&#45;Engine\l/src/Core/Animation/KeyScaling.hpp">
<polygon fill="white" stroke="black" points="2212,-434.5 2212,-475.5 2398,-475.5 2398,-434.5 2212,-434.5"/>
<text text-anchor="start" x="2220" y="-463.5" font-family="Helvetica,sans-Serif" font-size="10.00">/home/travis/build</text>
<text text-anchor="start" x="2220" y="-452.5" font-family="Helvetica,sans-Serif" font-size="10.00">/STORM&#45;IRIT/Radium&#45;Engine</text>
<text text-anchor="middle" x="2305" y="-441.5" font-family="Helvetica,sans-Serif" font-size="10.00">/src/Core/Animation/KeyScaling.hpp</text>
</a>
</g>
</g>
<!-- Node2&#45;&gt;Node7 -->
<g id="edge6" class="edge"><title>Node2&#45;&gt;Node7</title>
<path fill="none" stroke="midnightblue" d="M2518.57,-509.925C2475.45,-499.038 2423.9,-486.022 2382.25,-475.506"/>
<polygon fill="midnightblue" stroke="midnightblue" points="2517.93,-513.373 2528.49,-512.428 2519.65,-506.586 2517.93,-513.373"/>
</g>
<!-- Node8 -->
<g id="node8" class="node"><title>Node8</title>
<g id="a_node8"><a xlink:href="KeyTransform_8hpp.html" target="_top" xlink:title="/home/travis/build\l/STORM&#45;IRIT/Radium&#45;Engine\l/src/Core/Animation/KeyTransform.hpp">
<polygon fill="white" stroke="black" points="2753.5,-434.5 2753.5,-475.5 2952.5,-475.5 2952.5,-434.5 2753.5,-434.5"/>
<text text-anchor="start" x="2761.5" y="-463.5" font-family="Helvetica,sans-Serif" font-size="10.00">/home/travis/build</text>
<text text-anchor="start" x="2761.5" y="-452.5" font-family="Helvetica,sans-Serif" font-size="10.00">/STORM&#45;IRIT/Radium&#45;Engine</text>
<text text-anchor="middle" x="2853" y="-441.5" font-family="Helvetica,sans-Serif" font-size="10.00">/src/Core/Animation/KeyTransform.hpp</text>
</a>
</g>
</g>
<!-- Node2&#45;&gt;Node8 -->
<g id="edge8" class="edge"><title>Node2&#45;&gt;Node8</title>
<path fill="none" stroke="midnightblue" d="M2679.31,-509.442C2714.37,-498.655 2755.93,-485.867 2789.61,-475.506"/>
<polygon fill="midnightblue" stroke="midnightblue" points="2678.14,-506.142 2669.61,-512.428 2680.2,-512.832 2678.14,-506.142"/>
</g>
<!-- Node32 -->
<g id="node32" class="node"><title>Node32</title>
<g id="a_node32"><a xlink:href="KeyTranslation_8hpp.html" target="_top" xlink:title="/home/travis/build\l/STORM&#45;IRIT/Radium&#45;Engine\l/src/Core/Animation/KeyTranslation.hpp">
<polygon fill="white" stroke="black" points="2415.5,-434.5 2415.5,-475.5 2618.5,-475.5 2618.5,-434.5 2415.5,-434.5"/>
<text text-anchor="start" x="2423.5" y="-463.5" font-family="Helvetica,sans-Serif" font-size="10.00">/home/travis/build</text>
<text text-anchor="start" x="2423.5" y="-452.5" font-family="Helvetica,sans-Serif" font-size="10.00">/STORM&#45;IRIT/Radium&#45;Engine</text>
<text text-anchor="middle" x="2517" y="-441.5" font-family="Helvetica,sans-Serif" font-size="10.00">/src/Core/Animation/KeyTranslation.hpp</text>
</a>
</g>
</g>
<!-- Node2&#45;&gt;Node32 -->
<g id="edge39" class="edge"><title>Node2&#45;&gt;Node32</title>
<path fill="none" stroke="midnightblue" d="M2575.29,-505.779C2563.66,-495.843 2550.63,-484.716 2539.84,-475.506"/>
<polygon fill="midnightblue" stroke="midnightblue" points="2573.2,-508.596 2583.08,-512.428 2577.75,-503.273 2573.2,-508.596"/>
</g>
<!-- Node4 -->
<g id="node4" class="node"><title>Node4</title>
<g id="a_node4"><a xlink:href="AnimationComponent_8cpp.html" target="_top" xlink:title="/home/travis/build\l/STORM&#45;IRIT/Radium&#45;Engine\l/Plugins/Animation/src/Animation\lComponent.cpp">
<polygon fill="white" stroke="black" points="3143,-78.5 3143,-130.5 3317,-130.5 3317,-78.5 3143,-78.5"/>
<text text-anchor="start" x="3151" y="-118.5" font-family="Helvetica,sans-Serif" font-size="10.00">/home/travis/build</text>
<text text-anchor="start" x="3151" y="-107.5" font-family="Helvetica,sans-Serif" font-size="10.00">/STORM&#45;IRIT/Radium&#45;Engine</text>
<text text-anchor="start" x="3151" y="-96.5" font-family="Helvetica,sans-Serif" font-size="10.00">/Plugins/Animation/src/Animation</text>
<text text-anchor="middle" x="3230" y="-85.5" font-family="Helvetica,sans-Serif" font-size="10.00">Component.cpp</text>
</a>
</g>
</g>
<!-- Node3&#45;&gt;Node4 -->
<g id="edge3" class="edge"><title>Node3&#45;&gt;Node4</title>
<path fill="none" stroke="midnightblue" d="M3406.32,-341.163C3391.42,-299.187 3359.72,-221.093 3314,-167 3302.22,-153.058 3286.66,-140.545 3272.13,-130.502"/>
<polygon fill="midnightblue" stroke="midnightblue" points="3403.07,-342.48 3409.66,-350.776 3409.68,-340.181 3403.07,-342.48"/>
</g>
<!-- Node6 -->
<g id="node6" class="node"><title>Node6</title>
<g id="a_node6"><a xlink:href="AssimpAnimationDataLoader_8cpp.html" target="_top" xlink:title="/home/travis/build\l/STORM&#45;IRIT/Radium&#45;Engine\l/src/IO/AssimpLoader/AssimpAnimation\lDataLoader.cpp">
<polygon fill="white" stroke="black" points="2271.5,-256.5 2271.5,-308.5 2476.5,-308.5 2476.5,-256.5 2271.5,-256.5"/>
<text text-anchor="start" x="2279.5" y="-296.5" font-family="Helvetica,sans-Serif" font-size="10.00">/home/travis/build</text>
<text text-anchor="start" x="2279.5" y="-285.5" font-family="Helvetica,sans-Serif" font-size="10.00">/STORM&#45;IRIT/Radium&#45;Engine</text>
<text text-anchor="start" x="2279.5" y="-274.5" font-family="Helvetica,sans-Serif" font-size="10.00">/src/IO/AssimpLoader/AssimpAnimation</text>
<text text-anchor="middle" x="2374" y="-263.5" font-family="Helvetica,sans-Serif" font-size="10.00">DataLoader.cpp</text>
</a>
</g>
</g>
<!-- Node5&#45;&gt;Node6 -->
<g id="edge5" class="edge"><title>Node5&#45;&gt;Node6</title>
<path fill="none" stroke="midnightblue" d="M2461.89,-345.165C2445.48,-333.652 2426.12,-320.068 2409.75,-308.585"/>
<polygon fill="midnightblue" stroke="midnightblue" points="2459.98,-348.097 2470.17,-350.976 2464,-342.367 2459.98,-348.097"/>
</g>
<!-- Node7&#45;&gt;Node6 -->
<g id="edge7" class="edge"><title>Node7&#45;&gt;Node6</title>
<path fill="none" stroke="midnightblue" d="M2316.75,-424.976C2329.98,-392.267 2351.29,-339.625 2363.84,-308.615"/>
<polygon fill="midnightblue" stroke="midnightblue" points="2313.42,-423.859 2312.92,-434.441 2319.91,-426.485 2313.42,-423.859"/>
</g>
<!-- Node8&#45;&gt;Node4 -->
<g id="edge38" class="edge"><title>Node8&#45;&gt;Node4</title>
<path fill="none" stroke="midnightblue" d="M2962.38,-432.501C3076.74,-407.476 3244.58,-362.654 3281,-309 3318.94,-253.097 3275.12,-171.36 3248.11,-130.581"/>
<polygon fill="midnightblue" stroke="midnightblue" points="2961.55,-429.099 2952.52,-434.638 2963.04,-435.94 2961.55,-429.099"/>
</g>
<!-- Node8&#45;&gt;Node9 -->
<g id="edge9" class="edge"><title>Node8&#45;&gt;Node9</title>
<path fill="none" stroke="midnightblue" d="M2885.58,-428.22C2900.33,-416.548 2917.49,-402.973 2931.17,-392.144"/>
<polygon fill="midnightblue" stroke="midnightblue" points="2883.34,-425.529 2877.67,-434.479 2887.68,-431.018 2883.34,-425.529"/>
</g>
<!-- Node9&#45;&gt;Node6 -->
<g id="edge30" class="edge"><title>Node9&#45;&gt;Node6</title>
<path fill="none" stroke="midnightblue" d="M2853.47,-349.799C2843.86,-348.083 2834.26,-346.453 2825,-345 2691.9,-324.114 2657.34,-328.296 2524,-309 2508.71,-306.787 2492.57,-304.254 2476.77,-301.662"/>
<polygon fill="midnightblue" stroke="midnightblue" points="2853.01,-353.271 2863.47,-351.613 2854.26,-346.384 2853.01,-353.271"/>
</g>
<!-- Node10 -->
<g id="node10" class="node"><title>Node10</title>
<g id="a_node10"><a xlink:href="AnimationData_8cpp.html" target="_top" xlink:title="/home/travis/build\l/STORM&#45;IRIT/Radium&#45;Engine\l/src/Core/Asset/AnimationData.cpp">
<polygon fill="white" stroke="black" points="2891.5,-262 2891.5,-303 3076.5,-303 3076.5,-262 2891.5,-262"/>
<text text-anchor="start" x="2899.5" y="-291" font-family="Helvetica,sans-Serif" font-size="10.00">/home/travis/build</text>
<text text-anchor="start" x="2899.5" y="-280" font-family="Helvetica,sans-Serif" font-size="10.00">/STORM&#45;IRIT/Radium&#45;Engine</text>
<text text-anchor="middle" x="2984" y="-269" font-family="Helvetica,sans-Serif" font-size="10.00">/src/Core/Asset/AnimationData.cpp</text>
</a>
</g>
</g>
<!-- Node9&#45;&gt;Node10 -->
<g id="edge10" class="edge"><title>Node9&#45;&gt;Node10</title>
<path fill="none" stroke="midnightblue" d="M2965.43,-341.187C2969.46,-328.666 2974.06,-314.384 2977.67,-303.164"/>
<polygon fill="midnightblue" stroke="midnightblue" points="2962.09,-340.167 2962.35,-350.758 2968.75,-342.311 2962.09,-340.167"/>
</g>
<!-- Node11 -->
<g id="node11" class="node"><title>Node11</title>
<g id="a_node11"><a xlink:href="AnimationData_8inl.html" target="_top" xlink:title="/home/travis/build\l/STORM&#45;IRIT/Radium&#45;Engine\l/src/Core/Asset/AnimationData.inl">
<polygon fill="white" stroke="black" points="3094,-262 3094,-303 3272,-303 3272,-262 3094,-262"/>
<text text-anchor="start" x="3102" y="-291" font-family="Helvetica,sans-Serif" font-size="10.00">/home/travis/build</text>
<text text-anchor="start" x="3102" y="-280" font-family="Helvetica,sans-Serif" font-size="10.00">/STORM&#45;IRIT/Radium&#45;Engine</text>
<text text-anchor="middle" x="3183" y="-269" font-family="Helvetica,sans-Serif" font-size="10.00">/src/Core/Asset/AnimationData.inl</text>
</a>
</g>
</g>
<!-- Node9&#45;&gt;Node11 -->
<g id="edge11" class="edge"><title>Node9&#45;&gt;Node11</title>
<path fill="none" stroke="midnightblue" d="M3010.76,-347.19C3045.68,-333.419 3090.76,-316.179 3126.09,-303.11"/>
<polygon fill="midnightblue" stroke="midnightblue" points="3009.21,-344.04 3001.2,-350.976 3011.79,-350.548 3009.21,-344.04"/>
</g>
<!-- Node12 -->
<g id="node12" class="node"><title>Node12</title>
<g id="a_node12"><a xlink:href="FileData_8inl.html" target="_top" xlink:title="/home/travis/build\l/STORM&#45;IRIT/Radium&#45;Engine\l/src/Core/Asset/FileData.inl">
<polygon fill="white" stroke="black" points="2533,-262 2533,-303 2681,-303 2681,-262 2533,-262"/>
<text text-anchor="start" x="2541" y="-291" font-family="Helvetica,sans-Serif" font-size="10.00">/home/travis/build</text>
<text text-anchor="start" x="2541" y="-280" font-family="Helvetica,sans-Serif" font-size="10.00">/STORM&#45;IRIT/Radium&#45;Engine</text>
<text text-anchor="middle" x="2607" y="-269" font-family="Helvetica,sans-Serif" font-size="10.00">/src/Core/Asset/FileData.inl</text>
</a>
</g>
</g>
<!-- Node9&#45;&gt;Node12 -->
<g id="edge13" class="edge"><title>Node9&#45;&gt;Node12</title>
<path fill="none" stroke="midnightblue" d="M2854.39,-348.782C2804.63,-337.696 2743.96,-323.508 2690,-309 2683.16,-307.16 2676.03,-305.137 2668.95,-303.059"/>
<polygon fill="midnightblue" stroke="midnightblue" points="2853.67,-352.208 2864.19,-350.957 2855.19,-345.374 2853.67,-352.208"/>
</g>
<!-- Node29 -->
<g id="node29" class="node"><title>Node29</title>
<g id="a_node29"><a xlink:href="AnimationComponent_8hpp.html" target="_top" xlink:title="/home/travis/build\l/STORM&#45;IRIT/Radium&#45;Engine\l/Plugins/Animation/src/Animation\lComponent.hpp">
<polygon fill="white" stroke="black" points="2699,-256.5 2699,-308.5 2873,-308.5 2873,-256.5 2699,-256.5"/>
<text text-anchor="start" x="2707" y="-296.5" font-family="Helvetica,sans-Serif" font-size="10.00">/home/travis/build</text>
<text text-anchor="start" x="2707" y="-285.5" font-family="Helvetica,sans-Serif" font-size="10.00">/STORM&#45;IRIT/Radium&#45;Engine</text>
<text text-anchor="start" x="2707" y="-274.5" font-family="Helvetica,sans-Serif" font-size="10.00">/Plugins/Animation/src/Animation</text>
<text text-anchor="middle" x="2786" y="-263.5" font-family="Helvetica,sans-Serif" font-size="10.00">Component.hpp</text>
</a>
</g>
</g>
<!-- Node9&#45;&gt;Node29 -->
<g id="edge31" class="edge"><title>Node9&#45;&gt;Node29</title>
<path fill="none" stroke="midnightblue" d="M2908.65,-346.268C2885.71,-334.526 2858.18,-320.437 2835.02,-308.585"/>
<polygon fill="midnightblue" stroke="midnightblue" points="2907.35,-349.535 2917.85,-350.976 2910.54,-343.304 2907.35,-349.535"/>
</g>
<!-- Node11&#45;&gt;Node9 -->
<g id="edge12" class="edge"><title>Node11&#45;&gt;Node9</title>
<path fill="none" stroke="midnightblue" d="M3128.01,-306.9C3093.05,-320.686 3047.96,-337.924 3012.68,-350.976"/>
<polygon fill="midnightblue" stroke="midnightblue" points="3129.57,-310.045 3137.58,-303.11 3127,-303.536 3129.57,-310.045"/>
</g>
<!-- Node13 -->
<g id="node13" class="node"><title>Node13</title>
<g id="a_node13"><a xlink:href="FileData_8hpp.html" target="_top" xlink:title="/home/travis/build\l/STORM&#45;IRIT/Radium&#45;Engine\l/src/Core/Asset/FileData.hpp">
<polygon fill="white" stroke="black" points="1430,-173 1430,-214 1582,-214 1582,-173 1430,-173"/>
<text text-anchor="start" x="1438" y="-202" font-family="Helvetica,sans-Serif" font-size="10.00">/home/travis/build</text>
<text text-anchor="start" x="1438" y="-191" font-family="Helvetica,sans-Serif" font-size="10.00">/STORM&#45;IRIT/Radium&#45;Engine</text>
<text text-anchor="middle" x="1506" y="-180" font-family="Helvetica,sans-Serif" font-size="10.00">/src/Core/Asset/FileData.hpp</text>
</a>
</g>
</g>
<!-- Node12&#45;&gt;Node13 -->
<g id="edge14" class="edge"><title>Node12&#45;&gt;Node13</title>
<path fill="none" stroke="midnightblue" d="M2522.75,-262.251C2510.14,-259.849 2497.27,-257.659 2485,-256 2150.63,-210.791 1747.43,-198.723 1582.22,-195.577"/>
<polygon fill="midnightblue" stroke="midnightblue" points="2522.29,-265.729 2532.78,-264.217 2523.64,-258.859 2522.29,-265.729"/>
</g>
<!-- Node14 -->
<g id="node14" class="node"><title>Node14</title>
<g id="a_node14"><a xlink:href="FileData_8cpp.html" target="_top" xlink:title="/home/travis/build\l/STORM&#45;IRIT/Radium&#45;Engine\l/src/Core/Asset/FileData.cpp">
<polygon fill="white" stroke="black" points="1844.5,-84 1844.5,-125 1995.5,-125 1995.5,-84 1844.5,-84"/>
<text text-anchor="start" x="1852.5" y="-113" font-family="Helvetica,sans-Serif" font-size="10.00">/home/travis/build</text>
<text text-anchor="start" x="1852.5" y="-102" font-family="Helvetica,sans-Serif" font-size="10.00">/STORM&#45;IRIT/Radium&#45;Engine</text>
<text text-anchor="middle" x="1920" y="-91" font-family="Helvetica,sans-Serif" font-size="10.00">/src/Core/Asset/FileData.cpp</text>
</a>
</g>
</g>
<!-- Node13&#45;&gt;Node14 -->
<g id="edge15" class="edge"><title>Node13&#45;&gt;Node14</title>
<path fill="none" stroke="midnightblue" d="M1592.32,-178.952C1659,-167.866 1753.36,-150.817 1835,-131 1842.34,-129.219 1849.98,-127.186 1857.54,-125.062"/>
<polygon fill="midnightblue" stroke="midnightblue" points="1591.58,-175.529 1582.28,-180.612 1592.72,-182.435 1591.58,-175.529"/>
</g>
<!-- Node15 -->
<g id="node15" class="node"><title>Node15</title>
<g id="a_node15"><a xlink:href="GeometryComponent_8cpp.html" target="_top" xlink:title="/home/travis/build\l/STORM&#45;IRIT/Radium&#45;Engine\l/src/Engine/Component/GeometryComponent.cpp">
<polygon fill="white" stroke="black" points="2014,-84 2014,-125 2270,-125 2270,-84 2014,-84"/>
<text text-anchor="start" x="2022" y="-113" font-family="Helvetica,sans-Serif" font-size="10.00">/home/travis/build</text>
<text text-anchor="start" x="2022" y="-102" font-family="Helvetica,sans-Serif" font-size="10.00">/STORM&#45;IRIT/Radium&#45;Engine</text>
<text text-anchor="middle" x="2142" y="-91" font-family="Helvetica,sans-Serif" font-size="10.00">/src/Engine/Component/GeometryComponent.cpp</text>
</a>
</g>
</g>
<!-- Node13&#45;&gt;Node15 -->
<g id="edge16" class="edge"><title>Node13&#45;&gt;Node15</title>
<path fill="none" stroke="midnightblue" d="M1592.13,-183.447C1691.58,-172.627 1859.99,-153.177 2004,-131 2015.68,-129.201 2027.89,-127.169 2040,-125.056"/>
<polygon fill="midnightblue" stroke="midnightblue" points="1591.69,-179.974 1582.13,-184.531 1592.45,-186.933 1591.69,-179.974"/>
</g>
<!-- Node16 -->
<g id="node16" class="node"><title>Node16</title>
<g id="a_node16"><a xlink:href="CameraManager_8cpp.html" target="_top" xlink:title="/home/travis/build\l/STORM&#45;IRIT/Radium&#45;Engine\l/src/Engine/Managers/CameraManager\l/CameraManager.cpp">
<polygon fill="white" stroke="black" points="2288.5,-78.5 2288.5,-130.5 2491.5,-130.5 2491.5,-78.5 2288.5,-78.5"/>
<text text-anchor="start" x="2296.5" y="-118.5" font-family="Helvetica,sans-Serif" font-size="10.00">/home/travis/build</text>
<text text-anchor="start" x="2296.5" y="-107.5" font-family="Helvetica,sans-Serif" font-size="10.00">/STORM&#45;IRIT/Radium&#45;Engine</text>
<text text-anchor="start" x="2296.5" y="-96.5" font-family="Helvetica,sans-Serif" font-size="10.00">/src/Engine/Managers/CameraManager</text>
<text text-anchor="middle" x="2390" y="-85.5" font-family="Helvetica,sans-Serif" font-size="10.00">/CameraManager.cpp</text>
</a>
</g>
</g>
<!-- Node13&#45;&gt;Node16 -->
<g id="edge17" class="edge"><title>Node13&#45;&gt;Node16</title>
<path fill="none" stroke="midnightblue" d="M1592.19,-189.761C1735.48,-184.287 2031.46,-169.071 2279,-131 2282.13,-130.519 2285.3,-129.999 2288.49,-129.446"/>
<polygon fill="midnightblue" stroke="midnightblue" points="1592,-186.266 1582.13,-190.138 1592.26,-193.261 1592,-186.266"/>
</g>
<!-- Node17 -->
<g id="node17" class="node"><title>Node17</title>
<g id="a_node17"><a xlink:href="LightManager_8cpp.html" target="_top" xlink:title="/home/travis/build\l/STORM&#45;IRIT/Radium&#45;Engine\l/src/Engine/Managers/LightManager\l/LightManager.cpp">
<polygon fill="white" stroke="black" points="0,-78.5 0,-130.5 188,-130.5 188,-78.5 0,-78.5"/>
<text text-anchor="start" x="8" y="-118.5" font-family="Helvetica,sans-Serif" font-size="10.00">/home/travis/build</text>
<text text-anchor="start" x="8" y="-107.5" font-family="Helvetica,sans-Serif" font-size="10.00">/STORM&#45;IRIT/Radium&#45;Engine</text>
<text text-anchor="start" x="8" y="-96.5" font-family="Helvetica,sans-Serif" font-size="10.00">/src/Engine/Managers/LightManager</text>
<text text-anchor="middle" x="94" y="-85.5" font-family="Helvetica,sans-Serif" font-size="10.00">/LightManager.cpp</text>
</a>
</g>
</g>
<!-- Node13&#45;&gt;Node17 -->
<g id="edge18" class="edge"><title>Node13&#45;&gt;Node17</title>
<path fill="none" stroke="midnightblue" d="M1419.39,-190.644C1166.83,-184.88 434.036,-165.57 197,-131 194.083,-130.575 191.129,-130.103 188.153,-129.592"/>
<polygon fill="midnightblue" stroke="midnightblue" points="1419.54,-194.148 1429.62,-190.876 1419.7,-187.15 1419.54,-194.148"/>
</g>
<!-- Node18 -->
<g id="node18" class="node"><title>Node18</title>
<g id="a_node18"><a xlink:href="RadiumEngine_8cpp.html" target="_top" xlink:title="/home/travis/build\l/STORM&#45;IRIT/Radium&#45;Engine\l/src/Engine/RadiumEngine.cpp">
<polygon fill="white" stroke="black" points="206.5,-84 206.5,-125 367.5,-125 367.5,-84 206.5,-84"/>
<text text-anchor="start" x="214.5" y="-113" font-family="Helvetica,sans-Serif" font-size="10.00">/home/travis/build</text>
<text text-anchor="start" x="214.5" y="-102" font-family="Helvetica,sans-Serif" font-size="10.00">/STORM&#45;IRIT/Radium&#45;Engine</text>
<text text-anchor="middle" x="287" y="-91" font-family="Helvetica,sans-Serif" font-size="10.00">/src/Engine/RadiumEngine.cpp</text>
</a>
</g>
</g>
<!-- Node13&#45;&gt;Node18 -->
<g id="edge19" class="edge"><title>Node13&#45;&gt;Node18</title>
<path fill="none" stroke="midnightblue" d="M1419.59,-190.272C1191.55,-183.994 577.346,-164.414 377,-131 367.869,-129.477 358.343,-127.368 349.049,-125.01"/>
<polygon fill="midnightblue" stroke="midnightblue" points="1419.73,-193.777 1429.83,-190.552 1419.93,-186.779 1419.73,-193.777"/>
</g>
<!-- Node19 -->
<g id="node19" class="node"><title>Node19</title>
<g id="a_node19"><a xlink:href="Renderer_8cpp.html" target="_top" xlink:title="/home/travis/build\l/STORM&#45;IRIT/Radium&#45;Engine\l/src/Engine/Renderer/Renderer.cpp">
<polygon fill="white" stroke="black" points="386,-84 386,-125 566,-125 566,-84 386,-84"/>
<text text-anchor="start" x="394" y="-113" font-family="Helvetica,sans-Serif" font-size="10.00">/home/travis/build</text>
<text text-anchor="start" x="394" y="-102" font-family="Helvetica,sans-Serif" font-size="10.00">/STORM&#45;IRIT/Radium&#45;Engine</text>
<text text-anchor="middle" x="476" y="-91" font-family="Helvetica,sans-Serif" font-size="10.00">/src/Engine/Renderer/Renderer.cpp</text>
</a>
</g>
</g>
<!-- Node13&#45;&gt;Node19 -->
<g id="edge20" class="edge"><title>Node13&#45;&gt;Node19</title>
<path fill="none" stroke="midnightblue" d="M1419.64,-192.143C1254.52,-190.281 883.033,-180.403 575,-131 565.274,-129.44 555.112,-127.358 545.16,-125.054"/>
<polygon fill="midnightblue" stroke="midnightblue" points="1419.7,-195.643 1429.74,-192.249 1419.78,-188.644 1419.7,-195.643"/>
</g>
<!-- Node20 -->
<g id="node20" class="node"><title>Node20</title>
<g id="a_node20"><a xlink:href="GeometrySystem_8cpp.html" target="_top" xlink:title="/home/travis/build\l/STORM&#45;IRIT/Radium&#45;Engine\l/src/Engine/System/GeometrySystem.cpp">
<polygon fill="white" stroke="black" points="584.5,-84 584.5,-125 801.5,-125 801.5,-84 584.5,-84"/>
<text text-anchor="start" x="592.5" y="-113" font-family="Helvetica,sans-Serif" font-size="10.00">/home/travis/build</text>
<text text-anchor="start" x="592.5" y="-102" font-family="Helvetica,sans-Serif" font-size="10.00">/STORM&#45;IRIT/Radium&#45;Engine</text>
<text text-anchor="middle" x="693" y="-91" font-family="Helvetica,sans-Serif" font-size="10.00">/src/Engine/System/GeometrySystem.cpp</text>
</a>
</g>
</g>
<!-- Node13&#45;&gt;Node20 -->
<g id="edge21" class="edge"><title>Node13&#45;&gt;Node20</title>
<path fill="none" stroke="midnightblue" d="M1419.88,-188.4C1287.98,-181.331 1028.26,-164.291 810,-131 799.108,-129.339 787.711,-127.272 776.485,-125.04"/>
<polygon fill="midnightblue" stroke="midnightblue" points="1419.76,-191.898 1429.93,-188.933 1420.13,-184.908 1419.76,-191.898"/>
</g>
<!-- Node21 -->
<g id="node21" class="node"><title>Node21</title>
<g id="a_node21"><a xlink:href="Viewer_8cpp.html" target="_top" xlink:title="/home/travis/build\l/STORM&#45;IRIT/Radium&#45;Engine\l/src/GuiBase/Viewer/Viewer.cpp">
<polygon fill="white" stroke="black" points="819.5,-84 819.5,-125 984.5,-125 984.5,-84 819.5,-84"/>
<text text-anchor="start" x="827.5" y="-113" font-family="Helvetica,sans-Serif" font-size="10.00">/home/travis/build</text>
<text text-anchor="start" x="827.5" y="-102" font-family="Helvetica,sans-Serif" font-size="10.00">/STORM&#45;IRIT/Radium&#45;Engine</text>
<text text-anchor="middle" x="902" y="-91" font-family="Helvetica,sans-Serif" font-size="10.00">/src/GuiBase/Viewer/Viewer.cpp</text>
</a>
</g>
</g>
<!-- Node13&#45;&gt;Node21 -->
<g id="edge22" class="edge"><title>Node13&#45;&gt;Node21</title>
<path fill="none" stroke="midnightblue" d="M1419.82,-186.243C1317.37,-177.869 1141.57,-160.54 993,-131 984.632,-129.336 975.909,-127.296 967.32,-125.102"/>
<polygon fill="midnightblue" stroke="midnightblue" points="1419.55,-189.733 1429.8,-187.05 1420.12,-182.756 1419.55,-189.733"/>
</g>
<!-- Node22 -->
<g id="node22" class="node"><title>Node22</title>
<g id="a_node22"><a xlink:href="AssimpFileLoader_8cpp.html" target="_top" xlink:title="/home/travis/build\l/STORM&#45;IRIT/Radium&#45;Engine\l/src/IO/AssimpLoader/AssimpFile\lLoader.cpp">
<polygon fill="white" stroke="black" points="2509.5,-78.5 2509.5,-130.5 2680.5,-130.5 2680.5,-78.5 2509.5,-78.5"/>
<text text-anchor="start" x="2517.5" y="-118.5" font-family="Helvetica,sans-Serif" font-size="10.00">/home/travis/build</text>
<text text-anchor="start" x="2517.5" y="-107.5" font-family="Helvetica,sans-Serif" font-size="10.00">/STORM&#45;IRIT/Radium&#45;Engine</text>
<text text-anchor="start" x="2517.5" y="-96.5" font-family="Helvetica,sans-Serif" font-size="10.00">/src/IO/AssimpLoader/AssimpFile</text>
<text text-anchor="middle" x="2595" y="-85.5" font-family="Helvetica,sans-Serif" font-size="10.00">Loader.cpp</text>
</a>
</g>
</g>
<!-- Node13&#45;&gt;Node22 -->
<g id="edge23" class="edge"><title>Node13&#45;&gt;Node22</title>
<path fill="none" stroke="midnightblue" d="M1592.09,-192.952C1765.24,-192.592 2167.49,-185.349 2500,-131 2503.12,-130.49 2506.28,-129.921 2509.47,-129.304"/>
<polygon fill="midnightblue" stroke="midnightblue" points="1592.01,-189.452 1582.02,-192.965 1592.02,-196.452 1592.01,-189.452"/>
</g>
<!-- Node23 -->
<g id="node23" class="node"><title>Node23</title>
<g id="a_node23"><a xlink:href="CameraLoader_8cpp.html" target="_top" xlink:title="/home/travis/build\l/STORM&#45;IRIT/Radium&#45;Engine\l/src/IO/CameraLoader/CameraLoader.cpp">
<polygon fill="white" stroke="black" points="1002.5,-84 1002.5,-125 1217.5,-125 1217.5,-84 1002.5,-84"/>
<text text-anchor="start" x="1010.5" y="-113" font-family="Helvetica,sans-Serif" font-size="10.00">/home/travis/build</text>
<text text-anchor="start" x="1010.5" y="-102" font-family="Helvetica,sans-Serif" font-size="10.00">/STORM&#45;IRIT/Radium&#45;Engine</text>
<text text-anchor="middle" x="1110" y="-91" font-family="Helvetica,sans-Serif" font-size="10.00">/src/IO/CameraLoader/CameraLoader.cpp</text>
</a>
</g>
</g>
<!-- Node13&#45;&gt;Node23 -->
<g id="edge24" class="edge"><title>Node13&#45;&gt;Node23</title>
<path fill="none" stroke="midnightblue" d="M1420.16,-173.651C1364.75,-161.482 1291.12,-145.308 1226,-131 1217.24,-129.075 1208.11,-127.068 1198.98,-125.062"/>
<polygon fill="midnightblue" stroke="midnightblue" points="1419.42,-177.072 1429.94,-175.798 1420.93,-170.235 1419.42,-177.072"/>
</g>
<!-- Node24 -->
<g id="node24" class="node"><title>Node24</title>
<g id="a_node24"><a xlink:href="TinyPlyFileLoader_8cpp.html" target="_top" xlink:title="/home/travis/build\l/STORM&#45;IRIT/Radium&#45;Engine\l/src/IO/TinyPlyLoader/TinyPlyFile\lLoader.cpp">
<polygon fill="white" stroke="black" points="1235.5,-78.5 1235.5,-130.5 1400.5,-130.5 1400.5,-78.5 1235.5,-78.5"/>
<text text-anchor="start" x="1243.5" y="-118.5" font-family="Helvetica,sans-Serif" font-size="10.00">/home/travis/build</text>
<text text-anchor="start" x="1243.5" y="-107.5" font-family="Helvetica,sans-Serif" font-size="10.00">/STORM&#45;IRIT/Radium&#45;Engine</text>
<text text-anchor="start" x="1243.5" y="-96.5" font-family="Helvetica,sans-Serif" font-size="10.00">/src/IO/TinyPlyLoader/TinyPlyFile</text>
<text text-anchor="middle" x="1318" y="-85.5" font-family="Helvetica,sans-Serif" font-size="10.00">Loader.cpp</text>
</a>
</g>
</g>
<!-- Node13&#45;&gt;Node24 -->
<g id="edge25" class="edge"><title>Node13&#45;&gt;Node24</title>
<path fill="none" stroke="midnightblue" d="M1454.65,-168.736C1429.08,-156.902 1398.16,-142.595 1372.21,-130.585"/>
<polygon fill="midnightblue" stroke="midnightblue" points="1453.26,-171.952 1463.81,-172.976 1456.2,-165.599 1453.26,-171.952"/>
</g>
<!-- Node25 -->
<g id="node25" class="node"><title>Node25</title>
<g id="a_node25"><a xlink:href="AnimationSystem_8cpp.html" target="_top" xlink:title="/home/travis/build\l/STORM&#45;IRIT/Radium&#45;Engine\l/Plugins/Animation/src/Animation\lSystem.cpp">
<polygon fill="white" stroke="black" points="2699,-78.5 2699,-130.5 2873,-130.5 2873,-78.5 2699,-78.5"/>
<text text-anchor="start" x="2707" y="-118.5" font-family="Helvetica,sans-Serif" font-size="10.00">/home/travis/build</text>
<text text-anchor="start" x="2707" y="-107.5" font-family="Helvetica,sans-Serif" font-size="10.00">/STORM&#45;IRIT/Radium&#45;Engine</text>
<text text-anchor="start" x="2707" y="-96.5" font-family="Helvetica,sans-Serif" font-size="10.00">/Plugins/Animation/src/Animation</text>
<text text-anchor="middle" x="2786" y="-85.5" font-family="Helvetica,sans-Serif" font-size="10.00">System.cpp</text>
</a>
</g>
</g>
<!-- Node13&#45;&gt;Node25 -->
<g id="edge26" class="edge"><title>Node13&#45;&gt;Node25</title>
<path fill="none" stroke="midnightblue" d="M1592.36,-190.31C1827.81,-183.973 2477.5,-163.94 2689,-131 2692.27,-130.491 2695.59,-129.917 2698.93,-129.29"/>
<polygon fill="midnightblue" stroke="midnightblue" points="1592.03,-186.817 1582.13,-190.584 1592.22,-193.815 1592.03,-186.817"/>
</g>
<!-- Node26 -->
<g id="node26" class="node"><title>Node26</title>
<g id="a_node26"><a xlink:href="MeshPaintSystem_8cpp.html" target="_top" xlink:title="/home/travis/build\l/STORM&#45;IRIT/Radium&#45;Engine\l/Plugins/MeshPaint/src/MeshPaint\lSystem.cpp">
<polygon fill="white" stroke="black" points="1419,-78.5 1419,-130.5 1593,-130.5 1593,-78.5 1419,-78.5"/>
<text text-anchor="start" x="1427" y="-118.5" font-family="Helvetica,sans-Serif" font-size="10.00">/home/travis/build</text>
<text text-anchor="start" x="1427" y="-107.5" font-family="Helvetica,sans-Serif" font-size="10.00">/STORM&#45;IRIT/Radium&#45;Engine</text>
<text text-anchor="start" x="1427" y="-96.5" font-family="Helvetica,sans-Serif" font-size="10.00">/Plugins/MeshPaint/src/MeshPaint</text>
<text text-anchor="middle" x="1506" y="-85.5" font-family="Helvetica,sans-Serif" font-size="10.00">System.cpp</text>
</a>
</g>
</g>
<!-- Node13&#45;&gt;Node26 -->
<g id="edge27" class="edge"><title>Node13&#45;&gt;Node26</title>
<path fill="none" stroke="midnightblue" d="M1506,-162.509C1506,-152.174 1506,-140.71 1506,-130.788"/>
<polygon fill="midnightblue" stroke="midnightblue" points="1502.5,-162.758 1506,-172.758 1509.5,-162.758 1502.5,-162.758"/>
</g>
<!-- Node27 -->
<g id="node27" class="node"><title>Node27</title>
<g id="a_node27"><a xlink:href="SkinningSystem_8hpp.html" target="_top" xlink:title="/home/travis/build\l/STORM&#45;IRIT/Radium&#45;Engine\l/Plugins/Skinning/src/SkinningSystem.hpp">
<polygon fill="white" stroke="black" points="1611.5,-84 1611.5,-125 1826.5,-125 1826.5,-84 1611.5,-84"/>
<text text-anchor="start" x="1619.5" y="-113" font-family="Helvetica,sans-Serif" font-size="10.00">/home/travis/build</text>
<text text-anchor="start" x="1619.5" y="-102" font-family="Helvetica,sans-Serif" font-size="10.00">/STORM&#45;IRIT/Radium&#45;Engine</text>
<text text-anchor="middle" x="1719" y="-91" font-family="Helvetica,sans-Serif" font-size="10.00">/Plugins/Skinning/src/SkinningSystem.hpp</text>
</a>
</g>
</g>
<!-- Node13&#45;&gt;Node27 -->
<g id="edge28" class="edge"><title>Node13&#45;&gt;Node27</title>
<path fill="none" stroke="midnightblue" d="M1563.07,-169.19C1596.78,-155.419 1638.99,-138.179 1670.99,-125.11"/>
<polygon fill="midnightblue" stroke="midnightblue" points="1561.74,-165.954 1553.8,-172.976 1564.38,-172.434 1561.74,-165.954"/>
</g>
<!-- Node28 -->
<g id="node28" class="node"><title>Node28</title>
<g id="a_node28"><a xlink:href="SkinningPlugin_8cpp.html" target="_top" xlink:title="/home/travis/build\l/STORM&#45;IRIT/Radium&#45;Engine\l/Plugins/Skinning/src/SkinningPlugin.cpp">
<polygon fill="white" stroke="black" points="1616,-0.5 1616,-41.5 1822,-41.5 1822,-0.5 1616,-0.5"/>
<text text-anchor="start" x="1624" y="-29.5" font-family="Helvetica,sans-Serif" font-size="10.00">/home/travis/build</text>
<text text-anchor="start" x="1624" y="-18.5" font-family="Helvetica,sans-Serif" font-size="10.00">/STORM&#45;IRIT/Radium&#45;Engine</text>
<text text-anchor="middle" x="1719" y="-7.5" font-family="Helvetica,sans-Serif" font-size="10.00">/Plugins/Skinning/src/SkinningPlugin.cpp</text>
</a>
</g>
</g>
<!-- Node27&#45;&gt;Node28 -->
<g id="edge29" class="edge"><title>Node27&#45;&gt;Node28</title>
<path fill="none" stroke="midnightblue" d="M1719,-73.5646C1719,-62.8819 1719,-51.1303 1719,-41.5472"/>
<polygon fill="midnightblue" stroke="midnightblue" points="1715.5,-73.7711 1719,-83.7711 1722.5,-73.7712 1715.5,-73.7711"/>
</g>
<!-- Node29&#45;&gt;Node4 -->
<g id="edge32" class="edge"><title>Node29&#45;&gt;Node4</title>
<path fill="none" stroke="midnightblue" d="M2882.94,-255.825C2947.29,-239.955 2966.94,-243.054 3025,-220 3086.38,-195.627 3152.17,-156.25 3192.21,-130.618"/>
<polygon fill="midnightblue" stroke="midnightblue" points="2881.95,-252.465 2873.11,-258.309 2883.66,-259.252 2881.95,-252.465"/>
</g>
<!-- Node29&#45;&gt;Node25 -->
<g id="edge33" class="edge"><title>Node29&#45;&gt;Node25</title>
<path fill="none" stroke="midnightblue" d="M2786,-246.249C2786,-212.038 2786,-160.969 2786,-130.67"/>
<polygon fill="midnightblue" stroke="midnightblue" points="2782.5,-246.283 2786,-256.283 2789.5,-246.284 2782.5,-246.283"/>
</g>
<!-- Node30 -->
<g id="node30" class="node"><title>Node30</title>
<g id="a_node30"><a xlink:href="SkeletonBoneDrawable_8hpp.html" target="_top" xlink:title="/home/travis/build\l/STORM&#45;IRIT/Radium&#45;Engine\l/Plugins/Animation/src/Drawing\l/SkeletonBoneDrawable.hpp">
<polygon fill="white" stroke="black" points="2852,-167.5 2852,-219.5 3016,-219.5 3016,-167.5 2852,-167.5"/>
<text text-anchor="start" x="2860" y="-207.5" font-family="Helvetica,sans-Serif" font-size="10.00">/home/travis/build</text>
<text text-anchor="start" x="2860" y="-196.5" font-family="Helvetica,sans-Serif" font-size="10.00">/STORM&#45;IRIT/Radium&#45;Engine</text>
<text text-anchor="start" x="2860" y="-185.5" font-family="Helvetica,sans-Serif" font-size="10.00">/Plugins/Animation/src/Drawing</text>
<text text-anchor="middle" x="2934" y="-174.5" font-family="Helvetica,sans-Serif" font-size="10.00">/SkeletonBoneDrawable.hpp</text>
</a>
</g>
</g>
<!-- Node29&#45;&gt;Node30 -->
<g id="edge34" class="edge"><title>Node29&#45;&gt;Node30</title>
<path fill="none" stroke="midnightblue" d="M2837.77,-251.07C2855.26,-240.788 2874.58,-229.431 2891.29,-219.607"/>
<polygon fill="midnightblue" stroke="midnightblue" points="2835.65,-248.251 2828.81,-256.336 2839.2,-254.286 2835.65,-248.251"/>
</g>
<!-- Node30&#45;&gt;Node4 -->
<g id="edge35" class="edge"><title>Node30&#45;&gt;Node4</title>
<path fill="none" stroke="midnightblue" d="M3026.07,-165.44C3063.94,-154.308 3107.54,-141.493 3144.68,-130.576"/>
<polygon fill="midnightblue" stroke="midnightblue" points="3024.67,-162.203 3016.06,-168.381 3026.64,-168.919 3024.67,-162.203"/>
</g>
<!-- Node30&#45;&gt;Node25 -->
<g id="edge36" class="edge"><title>Node30&#45;&gt;Node25</title>
<path fill="none" stroke="midnightblue" d="M2882.23,-162.07C2864.74,-151.788 2845.42,-140.431 2828.71,-130.607"/>
<polygon fill="midnightblue" stroke="midnightblue" points="2880.8,-165.286 2891.19,-167.336 2884.35,-159.251 2880.8,-165.286"/>
</g>
<!-- Node31 -->
<g id="node31" class="node"><title>Node31</title>
<g id="a_node31"><a xlink:href="SkeletonBoneDrawable_8cpp.html" target="_top" xlink:title="/home/travis/build\l/STORM&#45;IRIT/Radium&#45;Engine\l/Plugins/Animation/src/Drawing\l/SkeletonBoneDrawable.cpp">
<polygon fill="white" stroke="black" points="2891,-78.5 2891,-130.5 3055,-130.5 3055,-78.5 2891,-78.5"/>
<text text-anchor="start" x="2899" y="-118.5" font-family="Helvetica,sans-Serif" font-size="10.00">/home/travis/build</text>
<text text-anchor="start" x="2899" y="-107.5" font-family="Helvetica,sans-Serif" font-size="10.00">/STORM&#45;IRIT/Radium&#45;Engine</text>
<text text-anchor="start" x="2899" y="-96.5" font-family="Helvetica,sans-Serif" font-size="10.00">/Plugins/Animation/src/Drawing</text>
<text text-anchor="middle" x="2973" y="-85.5" font-family="Helvetica,sans-Serif" font-size="10.00">/SkeletonBoneDrawable.cpp</text>
</a>
</g>
</g>
<!-- Node30&#45;&gt;Node31 -->
<g id="edge37" class="edge"><title>Node30&#45;&gt;Node31</title>
<path fill="none" stroke="midnightblue" d="M2949.44,-158.061C2953.55,-148.896 2957.91,-139.169 2961.74,-130.607"/>
<polygon fill="midnightblue" stroke="midnightblue" points="2946.18,-156.779 2945.28,-167.336 2952.56,-159.643 2946.18,-156.779"/>
</g>
<!-- Node32&#45;&gt;Node6 -->
<g id="edge40" class="edge"><title>Node32&#45;&gt;Node6</title>
<path fill="none" stroke="midnightblue" d="M2433.7,-430.066C2418.17,-422.138 2403.53,-411.697 2393,-398 2373.35,-372.442 2370.84,-334.105 2371.72,-308.946"/>
<polygon fill="midnightblue" stroke="midnightblue" points="2432.4,-433.32 2442.93,-434.449 2435.4,-426.997 2432.4,-433.32"/>
</g>
<!-- Node33&#45;&gt;Node6 -->
<g id="edge43" class="edge"><title>Node33&#45;&gt;Node6</title>
<path fill="none" stroke="midnightblue" d="M2606.16,-342.907C2563.08,-331.882 2513.81,-319.276 2471.78,-308.521"/>
<polygon fill="midnightblue" stroke="midnightblue" points="2605.56,-346.364 2616.11,-345.453 2607.29,-339.583 2605.56,-346.364"/>
</g>
<!-- Node33&#45;&gt;Node22 -->
<g id="edge44" class="edge"><title>Node33&#45;&gt;Node22</title>
<path fill="none" stroke="midnightblue" d="M2610.7,-342.65C2569.3,-330.459 2529.9,-317.112 2524,-309 2483.17,-252.868 2538.79,-171.234 2572.52,-130.529"/>
<polygon fill="midnightblue" stroke="midnightblue" points="2609.82,-346.038 2620.4,-345.475 2611.78,-339.317 2609.82,-346.038"/>
</g>
</g>
</svg>
