<?xml version="1.0" encoding="UTF-8" standalone="no"?>
<!DOCTYPE svg PUBLIC "-//W3C//DTD SVG 1.1//EN"
 "http://www.w3.org/Graphics/SVG/1.1/DTD/svg11.dtd">
<!-- Generated by graphviz version 2.38.0 (20140413.2041)
 -->
<!-- Title: /home/travis/build/STORM&#45;IRIT/Radium&#45;Engine/Plugins/Animation/src/AnimationSystem.hpp Pages: 1 -->
<svg width="816pt" height="397pt"
 viewBox="0.00 0.00 815.50 397.00" xmlns="http://www.w3.org/2000/svg" xmlns:xlink="http://www.w3.org/1999/xlink">
<g id="graph0" class="graph" transform="scale(1 1) rotate(0) translate(4 393)">
<title>/home/travis/build/STORM&#45;IRIT/Radium&#45;Engine/Plugins/Animation/src/AnimationSystem.hpp</title>
<polygon fill="white" stroke="none" points="-4,4 -4,-393 811.5,-393 811.5,4 -4,4"/>
<!-- Node1 -->
<g id="node1" class="node"><title>Node1</title>
<polygon fill="#bfbfbf" stroke="black" points="268.5,-336.5 268.5,-388.5 442.5,-388.5 442.5,-336.5 268.5,-336.5"/>
<text text-anchor="start" x="276.5" y="-376.5" font-family="Helvetica,sans-Serif" font-size="10.00">/home/travis/build</text>
<text text-anchor="start" x="276.5" y="-365.5" font-family="Helvetica,sans-Serif" font-size="10.00">/STORM&#45;IRIT/Radium&#45;Engine</text>
<text text-anchor="start" x="276.5" y="-354.5" font-family="Helvetica,sans-Serif" font-size="10.00">/Plugins/Animation/src/Animation</text>
<text text-anchor="middle" x="355.5" y="-343.5" font-family="Helvetica,sans-Serif" font-size="10.00">System.hpp</text>
</g>
<!-- Node2 -->
<g id="node2" class="node"><title>Node2</title>
<g id="a_node2"><a xlink:href="TimedSystem_8hpp.html" target="_top" xlink:title="Engine/System/TimedSystem.hpp">
<polygon fill="white" stroke="black" points="266,-280.5 266,-299.5 445,-299.5 445,-280.5 266,-280.5"/>
<text text-anchor="middle" x="355.5" y="-287.5" font-family="Helvetica,sans-Serif" font-size="10.00">Engine/System/TimedSystem.hpp</text>
</a>
</g>
</g>
<!-- Node1&#45;&gt;Node2 -->
<g id="edge1" class="edge"><title>Node1&#45;&gt;Node2</title>
<path fill="none" stroke="midnightblue" d="M355.5,-336.446C355.5,-327.73 355.5,-318.104 355.5,-309.964"/>
<polygon fill="midnightblue" stroke="midnightblue" points="359,-309.695 355.5,-299.695 352,-309.696 359,-309.695"/>
</g>
<!-- Node15 -->
<g id="node15" class="node"><title>Node15</title>
<g id="a_node15"><a xlink:href="AnimationPluginMacros_8hpp.html" target="_top" xlink:title="AnimationPluginMacros.hpp">
<polygon fill="white" stroke="black" points="0,-224.5 0,-243.5 149,-243.5 149,-224.5 0,-224.5"/>
<text text-anchor="middle" x="74.5" y="-231.5" font-family="Helvetica,sans-Serif" font-size="10.00">AnimationPluginMacros.hpp</text>
</a>
</g>
</g>
<!-- Node1&#45;&gt;Node15 -->
<g id="edge18" class="edge"><title>Node1&#45;&gt;Node15</title>
<path fill="none" stroke="midnightblue" d="M299.647,-336.356C240.3,-309.64 148.828,-268.461 102.888,-247.779"/>
<polygon fill="midnightblue" stroke="midnightblue" points="104.096,-244.485 93.5409,-243.572 101.223,-250.868 104.096,-244.485"/>
</g>
<!-- Node16 -->
<g id="node16" class="node"><title>Node16</title>
<g id="a_node16"><a xlink:href="ItemEntry_8hpp.html" target="_top" xlink:title="Engine/ItemModel/ItemEntry.hpp">
<polygon fill="white" stroke="black" points="487,-168.5 487,-187.5 658,-187.5 658,-168.5 487,-168.5"/>
<text text-anchor="middle" x="572.5" y="-175.5" font-family="Helvetica,sans-Serif" font-size="10.00">Engine/ItemModel/ItemEntry.hpp</text>
</a>
</g>
</g>
<!-- Node1&#45;&gt;Node16 -->
<g id="edge20" class="edge"><title>Node1&#45;&gt;Node16</title>
<path fill="none" stroke="midnightblue" d="M400.407,-336.343C417.621,-325.934 437.062,-313.214 453.5,-300 495.201,-266.479 537.617,-219.631 558.752,-195.229"/>
<polygon fill="midnightblue" stroke="midnightblue" points="561.449,-197.461 565.305,-187.593 556.137,-192.903 561.449,-197.461"/>
</g>
<!-- Node3 -->
<g id="node3" class="node"><title>Node3</title>
<g id="a_node3"><a xlink:href="RaEngine_8hpp.html" target="_top" xlink:title="Engine/RaEngine.hpp">
<polygon fill="white" stroke="black" points="314,-112.5 314,-131.5 431,-131.5 431,-112.5 314,-112.5"/>
<text text-anchor="middle" x="372.5" y="-119.5" font-family="Helvetica,sans-Serif" font-size="10.00">Engine/RaEngine.hpp</text>
</a>
</g>
</g>
<!-- Node2&#45;&gt;Node3 -->
<g id="edge2" class="edge"><title>Node2&#45;&gt;Node3</title>
<path fill="none" stroke="midnightblue" d="M366.058,-280.364C375.706,-271.973 389.763,-258.416 398.5,-244 412.123,-221.524 413.221,-213.932 417.5,-188 418.947,-179.23 420.902,-176.212 417.5,-168 412.58,-156.121 402.833,-145.743 393.666,-137.956"/>
<polygon fill="midnightblue" stroke="midnightblue" points="395.583,-135.01 385.564,-131.564 391.247,-140.506 395.583,-135.01"/>
</g>
<!-- Node10 -->
<g id="node10" class="node"><title>Node10</title>
<g id="a_node10"><a xlink:href="CouplingSystem_8hpp.html" target="_top" xlink:title="Engine/System/CouplingSystem.hpp">
<polygon fill="white" stroke="black" points="199,-224.5 199,-243.5 390,-243.5 390,-224.5 199,-224.5"/>
<text text-anchor="middle" x="294.5" y="-231.5" font-family="Helvetica,sans-Serif" font-size="10.00">Engine/System/CouplingSystem.hpp</text>
</a>
</g>
</g>
<!-- Node2&#45;&gt;Node10 -->
<g id="edge9" class="edge"><title>Node2&#45;&gt;Node10</title>
<path fill="none" stroke="midnightblue" d="M345.699,-280.324C336.682,-272.341 323.094,-260.313 312.182,-250.653"/>
<polygon fill="midnightblue" stroke="midnightblue" points="314.287,-247.842 304.479,-243.834 309.647,-253.083 314.287,-247.842"/>
</g>
<!-- Node4 -->
<g id="node4" class="node"><title>Node4</title>
<g id="a_node4"><a xlink:href="CoreMacros_8hpp.html" target="_top" xlink:title="Core/CoreMacros.hpp">
<polygon fill="white" stroke="black" points="153.5,-56.5 153.5,-75.5 273.5,-75.5 273.5,-56.5 153.5,-56.5"/>
<text text-anchor="middle" x="213.5" y="-63.5" font-family="Helvetica,sans-Serif" font-size="10.00">Core/CoreMacros.hpp</text>
</a>
</g>
</g>
<!-- Node3&#45;&gt;Node4 -->
<g id="edge3" class="edge"><title>Node3&#45;&gt;Node4</title>
<path fill="none" stroke="midnightblue" d="M347.306,-112.444C320.557,-103.359 278.097,-88.9388 248.195,-78.7831"/>
<polygon fill="midnightblue" stroke="midnightblue" points="249.171,-75.4182 238.576,-75.5164 246.919,-82.0464 249.171,-75.4182"/>
</g>
<!-- Node5 -->
<g id="node5" class="node"><title>Node5</title>
<polygon fill="white" stroke="#bfbfbf" points="50.5,-0.5 50.5,-19.5 102.5,-19.5 102.5,-0.5 50.5,-0.5"/>
<text text-anchor="middle" x="76.5" y="-7.5" font-family="Helvetica,sans-Serif" font-size="10.00">cassert</text>
</g>
<!-- Node4&#45;&gt;Node5 -->
<g id="edge4" class="edge"><title>Node4&#45;&gt;Node5</title>
<path fill="none" stroke="midnightblue" d="M191.792,-56.4435C169.145,-47.5171 133.428,-33.4387 107.748,-23.3168"/>
<polygon fill="midnightblue" stroke="midnightblue" points="108.693,-19.9273 98.1065,-19.5164 106.126,-26.4397 108.693,-19.9273"/>
</g>
<!-- Node6 -->
<g id="node6" class="node"><title>Node6</title>
<polygon fill="white" stroke="#bfbfbf" points="121,-0.5 121,-19.5 166,-19.5 166,-0.5 121,-0.5"/>
<text text-anchor="middle" x="143.5" y="-7.5" font-family="Helvetica,sans-Serif" font-size="10.00">cstdio</text>
</g>
<!-- Node4&#45;&gt;Node6 -->
<g id="edge5" class="edge"><title>Node4&#45;&gt;Node6</title>
<path fill="none" stroke="midnightblue" d="M202.253,-56.324C191.703,-48.1849 175.699,-35.8395 163.058,-26.0874"/>
<polygon fill="midnightblue" stroke="midnightblue" points="165.007,-23.1707 154.951,-19.8339 160.731,-28.7132 165.007,-23.1707"/>
</g>
<!-- Node7 -->
<g id="node7" class="node"><title>Node7</title>
<polygon fill="white" stroke="#bfbfbf" points="184,-0.5 184,-19.5 243,-19.5 243,-0.5 184,-0.5"/>
<text text-anchor="middle" x="213.5" y="-7.5" font-family="Helvetica,sans-Serif" font-size="10.00">iostream</text>
</g>
<!-- Node4&#45;&gt;Node7 -->
<g id="edge6" class="edge"><title>Node4&#45;&gt;Node7</title>
<path fill="none" stroke="midnightblue" d="M213.5,-56.083C213.5,-49.0059 213.5,-38.8611 213.5,-29.9865"/>
<polygon fill="midnightblue" stroke="midnightblue" points="217,-29.751 213.5,-19.7511 210,-29.7511 217,-29.751"/>
</g>
<!-- Node8 -->
<g id="node8" class="node"><title>Node8</title>
<polygon fill="white" stroke="#bfbfbf" points="261.5,-0.5 261.5,-19.5 317.5,-19.5 317.5,-0.5 261.5,-0.5"/>
<text text-anchor="middle" x="289.5" y="-7.5" font-family="Helvetica,sans-Serif" font-size="10.00">sstream</text>
</g>
<!-- Node4&#45;&gt;Node8 -->
<g id="edge7" class="edge"><title>Node4&#45;&gt;Node8</title>
<path fill="none" stroke="midnightblue" d="M225.711,-56.324C237.276,-48.1066 254.875,-35.6017 268.661,-25.8069"/>
<polygon fill="midnightblue" stroke="midnightblue" points="270.943,-28.4791 277.067,-19.8339 266.888,-22.7729 270.943,-28.4791"/>
</g>
<!-- Node9 -->
<g id="node9" class="node"><title>Node9</title>
<polygon fill="white" stroke="#bfbfbf" points="335.5,-0.5 335.5,-19.5 383.5,-19.5 383.5,-0.5 335.5,-0.5"/>
<text text-anchor="middle" x="359.5" y="-7.5" font-family="Helvetica,sans-Serif" font-size="10.00">thread</text>
</g>
<!-- Node4&#45;&gt;Node9 -->
<g id="edge8" class="edge"><title>Node4&#45;&gt;Node9</title>
<path fill="none" stroke="midnightblue" d="M236.634,-56.4435C260.982,-47.4381 299.507,-33.1891 326.923,-23.049"/>
<polygon fill="midnightblue" stroke="midnightblue" points="328.309,-26.2681 336.474,-19.5164 325.881,-19.7028 328.309,-26.2681"/>
</g>
<!-- Node10&#45;&gt;Node3 -->
<g id="edge10" class="edge"><title>Node10&#45;&gt;Node3</title>
<path fill="none" stroke="midnightblue" d="M345.009,-224.487C366.179,-218.153 388.788,-207.136 401.5,-188 411.692,-172.657 400.183,-153.144 388.789,-139.519"/>
<polygon fill="midnightblue" stroke="midnightblue" points="391.201,-136.968 381.904,-131.886 386.003,-141.656 391.201,-136.968"/>
</g>
<!-- Node11 -->
<g id="node11" class="node"><title>Node11</title>
<g id="a_node11"><a xlink:href="System_8hpp.html" target="_top" xlink:title="Engine/System/System.hpp">
<polygon fill="white" stroke="black" points="158,-168.5 158,-187.5 307,-187.5 307,-168.5 158,-168.5"/>
<text text-anchor="middle" x="232.5" y="-175.5" font-family="Helvetica,sans-Serif" font-size="10.00">Engine/System/System.hpp</text>
</a>
</g>
</g>
<!-- Node10&#45;&gt;Node11 -->
<g id="edge11" class="edge"><title>Node10&#45;&gt;Node11</title>
<path fill="none" stroke="midnightblue" d="M284.539,-224.324C275.373,-216.341 261.563,-204.313 250.472,-194.653"/>
<polygon fill="midnightblue" stroke="midnightblue" points="252.482,-191.762 242.643,-187.834 247.885,-197.041 252.482,-191.762"/>
</g>
<!-- Node12 -->
<g id="node12" class="node"><title>Node12</title>
<polygon fill="white" stroke="#bfbfbf" points="109,-112.5 109,-131.5 166,-131.5 166,-112.5 109,-112.5"/>
<text text-anchor="middle" x="137.5" y="-119.5" font-family="Helvetica,sans-Serif" font-size="10.00">memory</text>
</g>
<!-- Node10&#45;&gt;Node12 -->
<g id="edge15" class="edge"><title>Node10&#45;&gt;Node12</title>
<path fill="none" stroke="midnightblue" d="M199.346,-224.383C176.77,-217.693 155.048,-206.502 140.5,-188 130.362,-175.107 130.759,-155.931 133.001,-141.746"/>
<polygon fill="midnightblue" stroke="midnightblue" points="136.49,-142.149 135.03,-131.655 129.628,-140.769 136.49,-142.149"/>
</g>
<!-- Node13 -->
<g id="node13" class="node"><title>Node13</title>
<polygon fill="white" stroke="#bfbfbf" points="209,-112.5 209,-131.5 256,-131.5 256,-112.5 209,-112.5"/>
<text text-anchor="middle" x="232.5" y="-119.5" font-family="Helvetica,sans-Serif" font-size="10.00">vector</text>
</g>
<!-- Node10&#45;&gt;Node13 -->
<g id="edge17" class="edge"><title>Node10&#45;&gt;Node13</title>
<path fill="none" stroke="midnightblue" d="M205.924,-224.445C183.701,-217.837 162.284,-206.672 148.5,-188 130.811,-164.038 168.882,-144.438 199.393,-133.234"/>
<polygon fill="midnightblue" stroke="midnightblue" points="200.665,-136.497 208.953,-129.897 198.358,-129.888 200.665,-136.497"/>
</g>
<!-- Node14 -->
<g id="node14" class="node"><title>Node14</title>
<polygon fill="white" stroke="#bfbfbf" points="324.5,-168.5 324.5,-187.5 392.5,-187.5 392.5,-168.5 324.5,-168.5"/>
<text text-anchor="middle" x="358.5" y="-175.5" font-family="Helvetica,sans-Serif" font-size="10.00">type_traits</text>
</g>
<!-- Node10&#45;&gt;Node14 -->
<g id="edge16" class="edge"><title>Node10&#45;&gt;Node14</title>
<path fill="none" stroke="midnightblue" d="M304.783,-224.324C314.336,-216.263 328.78,-204.077 340.284,-194.369"/>
<polygon fill="midnightblue" stroke="midnightblue" points="342.644,-196.958 348.03,-187.834 338.13,-191.608 342.644,-196.958"/>
</g>
<!-- Node11&#45;&gt;Node3 -->
<g id="edge12" class="edge"><title>Node11&#45;&gt;Node3</title>
<path fill="none" stroke="midnightblue" d="M254.683,-168.444C277.928,-159.478 314.649,-145.314 340.915,-135.183"/>
<polygon fill="midnightblue" stroke="midnightblue" points="342.35,-138.381 350.42,-131.516 339.831,-131.85 342.35,-138.381"/>
</g>
<!-- Node11&#45;&gt;Node12 -->
<g id="edge13" class="edge"><title>Node11&#45;&gt;Node12</title>
<path fill="none" stroke="midnightblue" d="M217.237,-168.324C202.279,-159.822 179.245,-146.729 161.773,-136.797"/>
<polygon fill="midnightblue" stroke="midnightblue" points="163.149,-133.553 152.726,-131.655 159.69,-139.639 163.149,-133.553"/>
</g>
<!-- Node11&#45;&gt;Node13 -->
<g id="edge14" class="edge"><title>Node11&#45;&gt;Node13</title>
<path fill="none" stroke="midnightblue" d="M232.5,-168.083C232.5,-161.006 232.5,-150.861 232.5,-141.986"/>
<polygon fill="midnightblue" stroke="midnightblue" points="236,-141.751 232.5,-131.751 229,-141.751 236,-141.751"/>
</g>
<!-- Node15&#45;&gt;Node4 -->
<g id="edge19" class="edge"><title>Node15&#45;&gt;Node4</title>
<path fill="none" stroke="midnightblue" d="M73.689,-224.196C72.182,-202.441 71.3333,-145.489 99.5,-112 113.271,-95.6271 133.81,-85.1737 153.677,-78.5156"/>
<polygon fill="midnightblue" stroke="midnightblue" points="154.814,-81.8278 163.343,-75.5427 152.756,-75.1371 154.814,-81.8278"/>
</g>
<!-- Node16&#45;&gt;Node3 -->
<g id="edge21" class="edge"><title>Node16&#45;&gt;Node3</title>
<path fill="none" stroke="midnightblue" d="M540.809,-168.444C506.432,-159.162 451.423,-144.309 413.711,-134.127"/>
<polygon fill="midnightblue" stroke="midnightblue" points="414.609,-130.744 404.042,-131.516 412.784,-137.502 414.609,-130.744"/>
</g>
<!-- Node16&#45;&gt;Node13 -->
<g id="edge26" class="edge"><title>Node16&#45;&gt;Node13</title>
<path fill="none" stroke="midnightblue" d="M518.626,-168.444C447.616,-157.165 324.825,-137.663 265.917,-128.307"/>
<polygon fill="midnightblue" stroke="midnightblue" points="266.448,-124.848 256.023,-126.736 265.35,-131.761 266.448,-124.848"/>
</g>
<!-- Node17 -->
<g id="node17" class="node"><title>Node17</title>
<g id="a_node17"><a xlink:href="Index_8hpp.html" target="_top" xlink:title="Core/Utils/Index.hpp">
<polygon fill="white" stroke="black" points="632,-112.5 632,-131.5 745,-131.5 745,-112.5 632,-112.5"/>
<text text-anchor="middle" x="688.5" y="-119.5" font-family="Helvetica,sans-Serif" font-size="10.00">Core/Utils/Index.hpp</text>
</a>
</g>
</g>
<!-- Node16&#45;&gt;Node17 -->
<g id="edge22" class="edge"><title>Node16&#45;&gt;Node17</title>
<path fill="none" stroke="midnightblue" d="M590.881,-168.444C609.716,-159.675 639.231,-145.935 660.879,-135.858"/>
<polygon fill="midnightblue" stroke="midnightblue" points="662.617,-138.91 670.205,-131.516 659.662,-132.564 662.617,-138.91"/>
</g>
<!-- Node20 -->
<g id="node20" class="node"><title>Node20</title>
<polygon fill="white" stroke="#bfbfbf" points="763.5,-112.5 763.5,-131.5 807.5,-131.5 807.5,-112.5 763.5,-112.5"/>
<text text-anchor="middle" x="785.5" y="-119.5" font-family="Helvetica,sans-Serif" font-size="10.00">string</text>
</g>
<!-- Node16&#45;&gt;Node20 -->
<g id="edge25" class="edge"><title>Node16&#45;&gt;Node20</title>
<path fill="none" stroke="midnightblue" d="M608.299,-168.441C644.872,-159.616 703.262,-145.306 753.5,-132 753.601,-131.973 753.702,-131.946 753.804,-131.919"/>
<polygon fill="midnightblue" stroke="midnightblue" points="754.759,-135.287 763.49,-129.285 752.922,-128.532 754.759,-135.287"/>
</g>
<!-- Node21 -->
<g id="node21" class="node"><title>Node21</title>
<g id="a_node21"><a xlink:href="ItemEntry_8inl.html" target="_top" xlink:title="Engine/ItemModel/ItemEntry.inl">
<polygon fill="white" stroke="black" points="449.5,-112.5 449.5,-131.5 613.5,-131.5 613.5,-112.5 449.5,-112.5"/>
<text text-anchor="middle" x="531.5" y="-119.5" font-family="Helvetica,sans-Serif" font-size="10.00">Engine/ItemModel/ItemEntry.inl</text>
</a>
</g>
</g>
<!-- Node16&#45;&gt;Node21 -->
<g id="edge27" class="edge"><title>Node16&#45;&gt;Node21</title>
<path fill="none" stroke="midnightblue" d="M565.73,-168.083C559.938,-160.455 551.442,-149.264 544.362,-139.941"/>
<polygon fill="midnightblue" stroke="midnightblue" points="546.979,-137.599 538.144,-131.751 541.404,-141.832 546.979,-137.599"/>
</g>
<!-- Node18 -->
<g id="node18" class="node"><title>Node18</title>
<polygon fill="white" stroke="#bfbfbf" points="621.5,-56.5 621.5,-75.5 663.5,-75.5 663.5,-56.5 621.5,-56.5"/>
<text text-anchor="middle" x="642.5" y="-63.5" font-family="Helvetica,sans-Serif" font-size="10.00">limits</text>
</g>
<!-- Node17&#45;&gt;Node18 -->
<g id="edge23" class="edge"><title>Node17&#45;&gt;Node18</title>
<path fill="none" stroke="midnightblue" d="M680.904,-112.083C674.273,-104.298 664.479,-92.8015 656.442,-83.3665"/>
<polygon fill="midnightblue" stroke="midnightblue" points="659.104,-81.0939 649.955,-75.7511 653.775,-85.6332 659.104,-81.0939"/>
</g>
<!-- Node19 -->
<g id="node19" class="node"><title>Node19</title>
<g id="a_node19"><a xlink:href="Index_8inl.html" target="_top" xlink:title="Core/Utils/Index.inl">
<polygon fill="white" stroke="black" points="682,-56.5 682,-75.5 787,-75.5 787,-56.5 682,-56.5"/>
<text text-anchor="middle" x="734.5" y="-63.5" font-family="Helvetica,sans-Serif" font-size="10.00">Core/Utils/Index.inl</text>
</a>
</g>
</g>
<!-- Node17&#45;&gt;Node19 -->
<g id="edge24" class="edge"><title>Node17&#45;&gt;Node19</title>
<path fill="none" stroke="midnightblue" d="M696.096,-112.083C702.727,-104.298 712.521,-92.8015 720.558,-83.3665"/>
<polygon fill="midnightblue" stroke="midnightblue" points="723.225,-85.6332 727.045,-75.7511 717.896,-81.0939 723.225,-85.6332"/>
</g>
</g>
</svg>
