<?xml version="1.0" encoding="UTF-8" standalone="no"?>
<!DOCTYPE svg PUBLIC "-//W3C//DTD SVG 1.1//EN"
 "http://www.w3.org/Graphics/SVG/1.1/DTD/svg11.dtd">
<!-- Generated by graphviz version 2.38.0 (20140413.2041)
 -->
<!-- Title: /home/travis/build/STORM&#45;IRIT/Radium&#45;Engine/Plugins/Animation/src/UI/AnimationUI.cpp Pages: 1 -->
<svg width="286pt" height="173pt"
 viewBox="0.00 0.00 285.50 173.00" xmlns="http://www.w3.org/2000/svg" xmlns:xlink="http://www.w3.org/1999/xlink">
<g id="graph0" class="graph" transform="scale(1 1) rotate(0) translate(4 169)">
<title>/home/travis/build/STORM&#45;IRIT/Radium&#45;Engine/Plugins/Animation/src/UI/AnimationUI.cpp</title>
<polygon fill="white" stroke="none" points="-4,4 -4,-169 281.5,-169 281.5,4 -4,4"/>
<!-- Node1 -->
<g id="node1" class="node"><title>Node1</title>
<polygon fill="#bfbfbf" stroke="black" points="77,-112.5 77,-164.5 225,-164.5 225,-112.5 77,-112.5"/>
<text text-anchor="start" x="85" y="-152.5" font-family="Helvetica,sans-Serif" font-size="10.00">/home/travis/build</text>
<text text-anchor="start" x="85" y="-141.5" font-family="Helvetica,sans-Serif" font-size="10.00">/STORM&#45;IRIT/Radium&#45;Engine</text>
<text text-anchor="start" x="85" y="-130.5" font-family="Helvetica,sans-Serif" font-size="10.00">/Plugins/Animation/src/UI</text>
<text text-anchor="middle" x="151" y="-119.5" font-family="Helvetica,sans-Serif" font-size="10.00">/AnimationUI.cpp</text>
</g>
<!-- Node2 -->
<g id="node2" class="node"><title>Node2</title>
<g id="a_node2"><a xlink:href="AnimationUI_8h.html" target="_top" xlink:title="AnimationUI.h">
<polygon fill="white" stroke="black" points="-7.10543e-15,-56.5 -7.10543e-15,-75.5 84,-75.5 84,-56.5 -7.10543e-15,-56.5"/>
<text text-anchor="middle" x="42" y="-63.5" font-family="Helvetica,sans-Serif" font-size="10.00">AnimationUI.h</text>
</a>
</g>
</g>
<!-- Node1&#45;&gt;Node2 -->
<g id="edge1" class="edge"><title>Node1&#45;&gt;Node2</title>
<path fill="none" stroke="midnightblue" d="M112.264,-112.446C96.0558,-101.963 77.8127,-90.1633 63.978,-81.2151"/>
<polygon fill="midnightblue" stroke="midnightblue" points="65.4811,-78.0191 55.1835,-75.527 61.6795,-83.8968 65.4811,-78.0191"/>
</g>
<!-- Node4 -->
<g id="node4" class="node"><title>Node4</title>
<polygon fill="white" stroke="#bfbfbf" points="102,-56.5 102,-75.5 200,-75.5 200,-56.5 102,-56.5"/>
<text text-anchor="middle" x="151" y="-63.5" font-family="Helvetica,sans-Serif" font-size="10.00">ui_AnimationUI.h</text>
</g>
<!-- Node1&#45;&gt;Node4 -->
<g id="edge3" class="edge"><title>Node1&#45;&gt;Node4</title>
<path fill="none" stroke="midnightblue" d="M151,-112.446C151,-103.73 151,-94.1045 151,-85.9641"/>
<polygon fill="midnightblue" stroke="midnightblue" points="154.5,-85.6954 151,-75.6955 147.5,-85.6955 154.5,-85.6954"/>
</g>
<!-- Node5 -->
<g id="node5" class="node"><title>Node5</title>
<polygon fill="white" stroke="#bfbfbf" points="218.5,-56.5 218.5,-75.5 277.5,-75.5 277.5,-56.5 218.5,-56.5"/>
<text text-anchor="middle" x="248" y="-63.5" font-family="Helvetica,sans-Serif" font-size="10.00">iostream</text>
</g>
<!-- Node1&#45;&gt;Node5 -->
<g id="edge4" class="edge"><title>Node1&#45;&gt;Node5</title>
<path fill="none" stroke="midnightblue" d="M185.472,-112.446C199.669,-102.127 215.621,-90.5333 227.859,-81.6384"/>
<polygon fill="midnightblue" stroke="midnightblue" points="230.005,-84.406 236.036,-75.6955 225.889,-78.7435 230.005,-84.406"/>
</g>
<!-- Node3 -->
<g id="node3" class="node"><title>Node3</title>
<polygon fill="white" stroke="#bfbfbf" points="15,-0.5 15,-19.5 69,-19.5 69,-0.5 15,-0.5"/>
<text text-anchor="middle" x="42" y="-7.5" font-family="Helvetica,sans-Serif" font-size="10.00">QFrame</text>
</g>
<!-- Node2&#45;&gt;Node3 -->
<g id="edge2" class="edge"><title>Node2&#45;&gt;Node3</title>
<path fill="none" stroke="midnightblue" d="M42,-56.083C42,-49.0059 42,-38.8611 42,-29.9865"/>
<polygon fill="midnightblue" stroke="midnightblue" points="45.5001,-29.751 42,-19.7511 38.5001,-29.7511 45.5001,-29.751"/>
</g>
</g>
</svg>
