<?xml version="1.0" encoding="UTF-8" standalone="no"?>
<!DOCTYPE svg PUBLIC "-//W3C//DTD SVG 1.1//EN"
 "http://www.w3.org/Graphics/SVG/1.1/DTD/svg11.dtd">
<!-- Generated by graphviz version 2.38.0 (20140413.2041)
 -->
<!-- Title: /home/travis/build/STORM&#45;IRIT/Radium&#45;Engine/src/Core/Animation/Animation.cpp Pages: 1 -->
<svg width="582pt" height="397pt"
 viewBox="0.00 0.00 582.00 397.00" xmlns="http://www.w3.org/2000/svg" xmlns:xlink="http://www.w3.org/1999/xlink">
<g id="graph0" class="graph" transform="scale(1 1) rotate(0) translate(4 393)">
<title>/home/travis/build/STORM&#45;IRIT/Radium&#45;Engine/src/Core/Animation/Animation.cpp</title>
<polygon fill="white" stroke="none" points="-4,4 -4,-393 578,-393 578,4 -4,4"/>
<!-- Node1 -->
<g id="node1" class="node"><title>Node1</title>
<polygon fill="#bfbfbf" stroke="black" points="325.5,-347.5 325.5,-388.5 508.5,-388.5 508.5,-347.5 325.5,-347.5"/>
<text text-anchor="start" x="333.5" y="-376.5" font-family="Helvetica,sans-Serif" font-size="10.00">/home/travis/build</text>
<text text-anchor="start" x="333.5" y="-365.5" font-family="Helvetica,sans-Serif" font-size="10.00">/STORM&#45;IRIT/Radium&#45;Engine</text>
<text text-anchor="middle" x="417" y="-354.5" font-family="Helvetica,sans-Serif" font-size="10.00">/src/Core/Animation/Animation.cpp</text>
</g>
<!-- Node2 -->
<g id="node2" class="node"><title>Node2</title>
<g id="a_node2"><a xlink:href="Animation_8hpp.html" target="_top" xlink:title="Core/Animation/Animation.hpp">
<polygon fill="white" stroke="black" points="0,-291.5 0,-310.5 164,-310.5 164,-291.5 0,-291.5"/>
<text text-anchor="middle" x="82" y="-298.5" font-family="Helvetica,sans-Serif" font-size="10.00">Core/Animation/Animation.hpp</text>
</a>
</g>
</g>
<!-- Node1&#45;&gt;Node2 -->
<g id="edge1" class="edge"><title>Node1&#45;&gt;Node2</title>
<path fill="none" stroke="midnightblue" d="M325.46,-349.238C264.618,-337.433 186.812,-322.337 135.747,-312.428"/>
<polygon fill="midnightblue" stroke="midnightblue" points="136.387,-308.987 125.903,-310.518 135.053,-315.859 136.387,-308.987"/>
</g>
<!-- Node14 -->
<g id="node14" class="node"><title>Node14</title>
<g id="a_node14"><a xlink:href="PoseOperation_8hpp.html" target="_top" xlink:title="Core/Animation/PoseOperation.hpp">
<polygon fill="white" stroke="black" points="182.5,-291.5 182.5,-310.5 367.5,-310.5 367.5,-291.5 182.5,-291.5"/>
<text text-anchor="middle" x="275" y="-298.5" font-family="Helvetica,sans-Serif" font-size="10.00">Core/Animation/PoseOperation.hpp</text>
</a>
</g>
</g>
<!-- Node1&#45;&gt;Node14 -->
<g id="edge14" class="edge"><title>Node1&#45;&gt;Node14</title>
<path fill="none" stroke="midnightblue" d="M374.395,-347.498C351.368,-336.957 323.57,-324.233 303.233,-314.923"/>
<polygon fill="midnightblue" stroke="midnightblue" points="304.452,-311.632 293.902,-310.652 301.538,-317.997 304.452,-311.632"/>
</g>
<!-- Node19 -->
<g id="node19" class="node"><title>Node19</title>
<polygon fill="white" stroke="#bfbfbf" points="386,-291.5 386,-310.5 448,-310.5 448,-291.5 386,-291.5"/>
<text text-anchor="middle" x="417" y="-298.5" font-family="Helvetica,sans-Serif" font-size="10.00">algorithm</text>
</g>
<!-- Node1&#45;&gt;Node19 -->
<g id="edge21" class="edge"><title>Node1&#45;&gt;Node19</title>
<path fill="none" stroke="midnightblue" d="M417,-347.498C417,-339.065 417,-329.235 417,-320.874"/>
<polygon fill="midnightblue" stroke="midnightblue" points="420.5,-320.652 417,-310.652 413.5,-320.653 420.5,-320.652"/>
</g>
<!-- Node20 -->
<g id="node20" class="node"><title>Node20</title>
<polygon fill="white" stroke="#bfbfbf" points="466.5,-291.5 466.5,-310.5 513.5,-310.5 513.5,-291.5 466.5,-291.5"/>
<text text-anchor="middle" x="490" y="-298.5" font-family="Helvetica,sans-Serif" font-size="10.00">cmath</text>
</g>
<!-- Node1&#45;&gt;Node20 -->
<g id="edge22" class="edge"><title>Node1&#45;&gt;Node20</title>
<path fill="none" stroke="midnightblue" d="M438.902,-347.498C449.664,-337.915 462.453,-326.528 472.544,-317.543"/>
<polygon fill="midnightblue" stroke="midnightblue" points="475.142,-319.916 480.283,-310.652 470.487,-314.689 475.142,-319.916"/>
</g>
<!-- Node21 -->
<g id="node21" class="node"><title>Node21</title>
<polygon fill="white" stroke="#bfbfbf" points="532,-291.5 532,-310.5 574,-310.5 574,-291.5 532,-291.5"/>
<text text-anchor="middle" x="553" y="-298.5" font-family="Helvetica,sans-Serif" font-size="10.00">utility</text>
</g>
<!-- Node1&#45;&gt;Node21 -->
<g id="edge23" class="edge"><title>Node1&#45;&gt;Node21</title>
<path fill="none" stroke="midnightblue" d="M457.804,-347.498C479.759,-337.005 506.241,-324.348 525.694,-315.051"/>
<polygon fill="midnightblue" stroke="midnightblue" points="527.383,-318.123 534.896,-310.652 524.365,-311.807 527.383,-318.123"/>
</g>
<!-- Node3 -->
<g id="node3" class="node"><title>Node3</title>
<g id="a_node3"><a xlink:href="Pose_8hpp.html" target="_top" xlink:title="Core/Animation/Pose.hpp">
<polygon fill="white" stroke="black" points="64,-235.5 64,-254.5 202,-254.5 202,-235.5 64,-235.5"/>
<text text-anchor="middle" x="133" y="-242.5" font-family="Helvetica,sans-Serif" font-size="10.00">Core/Animation/Pose.hpp</text>
</a>
</g>
</g>
<!-- Node2&#45;&gt;Node3 -->
<g id="edge2" class="edge"><title>Node2&#45;&gt;Node3</title>
<path fill="none" stroke="midnightblue" d="M90.4216,-291.083C97.8482,-283.22 108.852,-271.569 117.812,-262.081"/>
<polygon fill="midnightblue" stroke="midnightblue" points="120.413,-264.424 124.735,-254.751 115.324,-259.618 120.413,-264.424"/>
</g>
<!-- Node13 -->
<g id="node13" class="node"><title>Node13</title>
<polygon fill="white" stroke="#bfbfbf" points="14.5,-112.5 14.5,-131.5 61.5,-131.5 61.5,-112.5 14.5,-112.5"/>
<text text-anchor="middle" x="38" y="-119.5" font-family="Helvetica,sans-Serif" font-size="10.00">vector</text>
</g>
<!-- Node2&#45;&gt;Node13 -->
<g id="edge13" class="edge"><title>Node2&#45;&gt;Node13</title>
<path fill="none" stroke="midnightblue" d="M75.2354,-291.244C68.9005,-282.553 59.7225,-268.598 55,-255 41.5902,-216.386 38.5957,-168.105 38.0254,-141.957"/>
<polygon fill="midnightblue" stroke="midnightblue" points="41.5213,-141.573 37.9052,-131.615 34.5217,-141.655 41.5213,-141.573"/>
</g>
<!-- Node4 -->
<g id="node4" class="node"><title>Node4</title>
<g id="a_node4"><a xlink:href="AlignedStdVector_8hpp.html" target="_top" xlink:title="Core/Containers/AlignedStd\lVector.hpp">
<polygon fill="white" stroke="black" points="58.5,-168.5 58.5,-198.5 207.5,-198.5 207.5,-168.5 58.5,-168.5"/>
<text text-anchor="start" x="66.5" y="-186.5" font-family="Helvetica,sans-Serif" font-size="10.00">Core/Containers/AlignedStd</text>
<text text-anchor="middle" x="133" y="-175.5" font-family="Helvetica,sans-Serif" font-size="10.00">Vector.hpp</text>
</a>
</g>
</g>
<!-- Node3&#45;&gt;Node4 -->
<g id="edge3" class="edge"><title>Node3&#45;&gt;Node4</title>
<path fill="none" stroke="midnightblue" d="M133,-235.475C133,-228.471 133,-218.192 133,-208.696"/>
<polygon fill="midnightblue" stroke="midnightblue" points="136.5,-208.523 133,-198.523 129.5,-208.523 136.5,-208.523"/>
</g>
<!-- Node5 -->
<g id="node5" class="node"><title>Node5</title>
<g id="a_node5"><a xlink:href="RaCore_8hpp.html" target="_top" xlink:title="Core/RaCore.hpp">
<polygon fill="white" stroke="black" points="297,-112.5 297,-131.5 395,-131.5 395,-112.5 297,-112.5"/>
<text text-anchor="middle" x="346" y="-119.5" font-family="Helvetica,sans-Serif" font-size="10.00">Core/RaCore.hpp</text>
</a>
</g>
</g>
<!-- Node4&#45;&gt;Node5 -->
<g id="edge4" class="edge"><title>Node4&#45;&gt;Node5</title>
<path fill="none" stroke="midnightblue" d="M183.208,-168.475C220.597,-158.03 270.975,-143.958 305.738,-134.247"/>
<polygon fill="midnightblue" stroke="midnightblue" points="306.859,-137.568 315.549,-131.506 304.976,-130.826 306.859,-137.568"/>
</g>
<!-- Node12 -->
<g id="node12" class="node"><title>Node12</title>
<polygon fill="white" stroke="#bfbfbf" points="86.5,-112.5 86.5,-131.5 179.5,-131.5 179.5,-112.5 86.5,-112.5"/>
<text text-anchor="middle" x="133" y="-119.5" font-family="Helvetica,sans-Serif" font-size="10.00">Eigen/StdVector</text>
</g>
<!-- Node4&#45;&gt;Node12 -->
<g id="edge11" class="edge"><title>Node4&#45;&gt;Node12</title>
<path fill="none" stroke="midnightblue" d="M133,-168.399C133,-160.466 133,-150.458 133,-141.858"/>
<polygon fill="midnightblue" stroke="midnightblue" points="136.5,-141.658 133,-131.658 129.5,-141.658 136.5,-141.658"/>
</g>
<!-- Node4&#45;&gt;Node13 -->
<g id="edge12" class="edge"><title>Node4&#45;&gt;Node13</title>
<path fill="none" stroke="midnightblue" d="M110.486,-168.399C95.4009,-158.951 75.615,-146.559 60.5268,-137.109"/>
<polygon fill="midnightblue" stroke="midnightblue" points="62.1561,-134 51.8233,-131.658 58.4405,-139.932 62.1561,-134"/>
</g>
<!-- Node6 -->
<g id="node6" class="node"><title>Node6</title>
<g id="a_node6"><a xlink:href="CoreMacros_8hpp.html" target="_top" xlink:title="Core/CoreMacros.hpp">
<polygon fill="white" stroke="black" points="286,-56.5 286,-75.5 406,-75.5 406,-56.5 286,-56.5"/>
<text text-anchor="middle" x="346" y="-63.5" font-family="Helvetica,sans-Serif" font-size="10.00">Core/CoreMacros.hpp</text>
</a>
</g>
</g>
<!-- Node5&#45;&gt;Node6 -->
<g id="edge5" class="edge"><title>Node5&#45;&gt;Node6</title>
<path fill="none" stroke="midnightblue" d="M346,-112.083C346,-105.006 346,-94.8611 346,-85.9865"/>
<polygon fill="midnightblue" stroke="midnightblue" points="349.5,-85.751 346,-75.7511 342.5,-85.7511 349.5,-85.751"/>
</g>
<!-- Node7 -->
<g id="node7" class="node"><title>Node7</title>
<polygon fill="white" stroke="#bfbfbf" points="183,-0.5 183,-19.5 235,-19.5 235,-0.5 183,-0.5"/>
<text text-anchor="middle" x="209" y="-7.5" font-family="Helvetica,sans-Serif" font-size="10.00">cassert</text>
</g>
<!-- Node6&#45;&gt;Node7 -->
<g id="edge6" class="edge"><title>Node6&#45;&gt;Node7</title>
<path fill="none" stroke="midnightblue" d="M324.292,-56.4435C301.645,-47.5171 265.928,-33.4387 240.248,-23.3168"/>
<polygon fill="midnightblue" stroke="midnightblue" points="241.193,-19.9273 230.606,-19.5164 238.626,-26.4397 241.193,-19.9273"/>
</g>
<!-- Node8 -->
<g id="node8" class="node"><title>Node8</title>
<polygon fill="white" stroke="#bfbfbf" points="253.5,-0.5 253.5,-19.5 298.5,-19.5 298.5,-0.5 253.5,-0.5"/>
<text text-anchor="middle" x="276" y="-7.5" font-family="Helvetica,sans-Serif" font-size="10.00">cstdio</text>
</g>
<!-- Node6&#45;&gt;Node8 -->
<g id="edge7" class="edge"><title>Node6&#45;&gt;Node8</title>
<path fill="none" stroke="midnightblue" d="M334.753,-56.324C324.203,-48.1849 308.199,-35.8395 295.558,-26.0874"/>
<polygon fill="midnightblue" stroke="midnightblue" points="297.507,-23.1707 287.451,-19.8339 293.231,-28.7132 297.507,-23.1707"/>
</g>
<!-- Node9 -->
<g id="node9" class="node"><title>Node9</title>
<polygon fill="white" stroke="#bfbfbf" points="316.5,-0.5 316.5,-19.5 375.5,-19.5 375.5,-0.5 316.5,-0.5"/>
<text text-anchor="middle" x="346" y="-7.5" font-family="Helvetica,sans-Serif" font-size="10.00">iostream</text>
</g>
<!-- Node6&#45;&gt;Node9 -->
<g id="edge8" class="edge"><title>Node6&#45;&gt;Node9</title>
<path fill="none" stroke="midnightblue" d="M346,-56.083C346,-49.0059 346,-38.8611 346,-29.9865"/>
<polygon fill="midnightblue" stroke="midnightblue" points="349.5,-29.751 346,-19.7511 342.5,-29.7511 349.5,-29.751"/>
</g>
<!-- Node10 -->
<g id="node10" class="node"><title>Node10</title>
<polygon fill="white" stroke="#bfbfbf" points="394,-0.5 394,-19.5 450,-19.5 450,-0.5 394,-0.5"/>
<text text-anchor="middle" x="422" y="-7.5" font-family="Helvetica,sans-Serif" font-size="10.00">sstream</text>
</g>
<!-- Node6&#45;&gt;Node10 -->
<g id="edge9" class="edge"><title>Node6&#45;&gt;Node10</title>
<path fill="none" stroke="midnightblue" d="M358.211,-56.324C369.776,-48.1066 387.375,-35.6017 401.161,-25.8069"/>
<polygon fill="midnightblue" stroke="midnightblue" points="403.443,-28.4791 409.567,-19.8339 399.388,-22.7729 403.443,-28.4791"/>
</g>
<!-- Node11 -->
<g id="node11" class="node"><title>Node11</title>
<polygon fill="white" stroke="#bfbfbf" points="468,-0.5 468,-19.5 516,-19.5 516,-0.5 468,-0.5"/>
<text text-anchor="middle" x="492" y="-7.5" font-family="Helvetica,sans-Serif" font-size="10.00">thread</text>
</g>
<!-- Node6&#45;&gt;Node11 -->
<g id="edge10" class="edge"><title>Node6&#45;&gt;Node11</title>
<path fill="none" stroke="midnightblue" d="M369.134,-56.4435C393.482,-47.4381 432.007,-33.1891 459.423,-23.049"/>
<polygon fill="midnightblue" stroke="midnightblue" points="460.809,-26.2681 468.974,-19.5164 458.381,-19.7028 460.809,-26.2681"/>
</g>
<!-- Node14&#45;&gt;Node3 -->
<g id="edge15" class="edge"><title>Node14&#45;&gt;Node3</title>
<path fill="none" stroke="midnightblue" d="M252.5,-291.444C228.923,-282.478 191.678,-268.314 165.036,-258.183"/>
<polygon fill="midnightblue" stroke="midnightblue" points="165.986,-254.8 155.395,-254.516 163.498,-261.342 165.986,-254.8"/>
</g>
<!-- Node15 -->
<g id="node15" class="node"><title>Node15</title>
<g id="a_node15"><a xlink:href="Types_8hpp.html" target="_top" xlink:title="Core/Math/Types.hpp">
<polygon fill="white" stroke="black" points="320,-235.5 320,-254.5 436,-254.5 436,-235.5 320,-235.5"/>
<text text-anchor="middle" x="378" y="-242.5" font-family="Helvetica,sans-Serif" font-size="10.00">Core/Math/Types.hpp</text>
</a>
</g>
</g>
<!-- Node14&#45;&gt;Node15 -->
<g id="edge16" class="edge"><title>Node14&#45;&gt;Node15</title>
<path fill="none" stroke="midnightblue" d="M291.549,-291.324C307.992,-282.703 333.435,-269.364 352.468,-259.386"/>
<polygon fill="midnightblue" stroke="midnightblue" points="354.261,-262.398 361.492,-254.655 351.011,-256.198 354.261,-262.398"/>
</g>
<!-- Node15&#45;&gt;Node5 -->
<g id="edge17" class="edge"><title>Node15&#45;&gt;Node5</title>
<path fill="none" stroke="midnightblue" d="M392.661,-235.402C404.406,-227.585 420.031,-214.862 427,-199 432.542,-186.386 433.987,-179.875 427,-168 418.082,-152.844 402.011,-142.426 386.522,-135.464"/>
<polygon fill="midnightblue" stroke="midnightblue" points="387.603,-132.124 377.023,-131.564 384.944,-138.6 387.603,-132.124"/>
</g>
<!-- Node16 -->
<g id="node16" class="node"><title>Node16</title>
<polygon fill="white" stroke="#bfbfbf" points="474,-174 474,-193 542,-193 542,-174 474,-174"/>
<text text-anchor="middle" x="508" y="-181" font-family="Helvetica,sans-Serif" font-size="10.00">Eigen/Core</text>
</g>
<!-- Node15&#45;&gt;Node16 -->
<g id="edge18" class="edge"><title>Node15&#45;&gt;Node16</title>
<path fill="none" stroke="midnightblue" d="M396.626,-235.475C418.443,-225.49 454.804,-208.848 480.017,-197.307"/>
<polygon fill="midnightblue" stroke="midnightblue" points="481.772,-200.353 489.409,-193.009 478.859,-193.988 481.772,-200.353"/>
</g>
<!-- Node17 -->
<g id="node17" class="node"><title>Node17</title>
<polygon fill="white" stroke="#bfbfbf" points="226,-174 226,-193 320,-193 320,-174 226,-174"/>
<text text-anchor="middle" x="273" y="-181" font-family="Helvetica,sans-Serif" font-size="10.00">Eigen/Geometry</text>
</g>
<!-- Node15&#45;&gt;Node17 -->
<g id="edge19" class="edge"><title>Node15&#45;&gt;Node17</title>
<path fill="none" stroke="midnightblue" d="M362.956,-235.475C345.725,-225.711 317.26,-209.581 296.966,-198.081"/>
<polygon fill="midnightblue" stroke="midnightblue" points="298.442,-194.894 288.016,-193.009 294.991,-200.984 298.442,-194.894"/>
</g>
<!-- Node18 -->
<g id="node18" class="node"><title>Node18</title>
<polygon fill="white" stroke="#bfbfbf" points="338,-174 338,-193 418,-193 418,-174 338,-174"/>
<text text-anchor="middle" x="378" y="-181" font-family="Helvetica,sans-Serif" font-size="10.00">Eigen/Sparse</text>
</g>
<!-- Node15&#45;&gt;Node18 -->
<g id="edge20" class="edge"><title>Node15&#45;&gt;Node18</title>
<path fill="none" stroke="midnightblue" d="M378,-235.475C378,-227.08 378,-213.981 378,-203.163"/>
<polygon fill="midnightblue" stroke="midnightblue" points="381.5,-203.009 378,-193.009 374.5,-203.009 381.5,-203.009"/>
</g>
</g>
</svg>
