<?xml version="1.0" encoding="UTF-8" standalone="no"?>
<!DOCTYPE svg PUBLIC "-//W3C//DTD SVG 1.1//EN"
 "http://www.w3.org/Graphics/SVG/1.1/DTD/svg11.dtd">
<!-- Generated by graphviz version 2.38.0 (20140413.2041)
 -->
<!-- Title: /home/travis/build/STORM&#45;IRIT/Radium&#45;Engine/Plugins/Animation/src/AnimationPluginMacros.hpp Pages: 1 -->
<svg width="689pt" height="328pt"
 viewBox="0.00 0.00 689.00 328.00" xmlns="http://www.w3.org/2000/svg" xmlns:xlink="http://www.w3.org/1999/xlink">
<g id="graph0" class="graph" transform="scale(1 1) rotate(0) translate(4 324)">
<title>/home/travis/build/STORM&#45;IRIT/Radium&#45;Engine/Plugins/Animation/src/AnimationPluginMacros.hpp</title>
<polygon fill="white" stroke="none" points="-4,4 -4,-324 685,-324 685,4 -4,4"/>
<!-- Node1 -->
<g id="node1" class="node"><title>Node1</title>
<polygon fill="#bfbfbf" stroke="black" points="315,-267.5 315,-319.5 489,-319.5 489,-267.5 315,-267.5"/>
<text text-anchor="start" x="323" y="-307.5" font-family="Helvetica,sans-Serif" font-size="10.00">/home/travis/build</text>
<text text-anchor="start" x="323" y="-296.5" font-family="Helvetica,sans-Serif" font-size="10.00">/STORM&#45;IRIT/Radium&#45;Engine</text>
<text text-anchor="start" x="323" y="-285.5" font-family="Helvetica,sans-Serif" font-size="10.00">/Plugins/Animation/src/Animation</text>
<text text-anchor="middle" x="402" y="-274.5" font-family="Helvetica,sans-Serif" font-size="10.00">PluginMacros.hpp</text>
</g>
<!-- Node2 -->
<g id="node2" class="node"><title>Node2</title>
<g id="a_node2"><a xlink:href="AnimationComponent_8hpp.html" target="_top" xlink:title="/home/travis/build\l/STORM&#45;IRIT/Radium&#45;Engine\l/Plugins/Animation/src/Animation\lComponent.hpp">
<polygon fill="white" stroke="black" points="123,-178.5 123,-230.5 297,-230.5 297,-178.5 123,-178.5"/>
<text text-anchor="start" x="131" y="-218.5" font-family="Helvetica,sans-Serif" font-size="10.00">/home/travis/build</text>
<text text-anchor="start" x="131" y="-207.5" font-family="Helvetica,sans-Serif" font-size="10.00">/STORM&#45;IRIT/Radium&#45;Engine</text>
<text text-anchor="start" x="131" y="-196.5" font-family="Helvetica,sans-Serif" font-size="10.00">/Plugins/Animation/src/Animation</text>
<text text-anchor="middle" x="210" y="-185.5" font-family="Helvetica,sans-Serif" font-size="10.00">Component.hpp</text>
</a>
</g>
</g>
<!-- Node1&#45;&gt;Node2 -->
<g id="edge1" class="edge"><title>Node1&#45;&gt;Node2</title>
<path fill="none" stroke="midnightblue" d="M337.547,-263.295C314.089,-252.665 287.804,-240.755 265.219,-230.521"/>
<polygon fill="midnightblue" stroke="midnightblue" points="336.17,-266.513 346.723,-267.453 339.059,-260.137 336.17,-266.513"/>
</g>
<!-- Node7 -->
<g id="node7" class="node"><title>Node7</title>
<g id="a_node7"><a xlink:href="AnimationPlugin_8hpp.html" target="_top" xlink:title="/home/travis/build\l/STORM&#45;IRIT/Radium&#45;Engine\l/Plugins/Animation/src/Animation\lPlugin.hpp">
<polygon fill="white" stroke="black" points="315,-178.5 315,-230.5 489,-230.5 489,-178.5 315,-178.5"/>
<text text-anchor="start" x="323" y="-218.5" font-family="Helvetica,sans-Serif" font-size="10.00">/home/travis/build</text>
<text text-anchor="start" x="323" y="-207.5" font-family="Helvetica,sans-Serif" font-size="10.00">/STORM&#45;IRIT/Radium&#45;Engine</text>
<text text-anchor="start" x="323" y="-196.5" font-family="Helvetica,sans-Serif" font-size="10.00">/Plugins/Animation/src/Animation</text>
<text text-anchor="middle" x="402" y="-185.5" font-family="Helvetica,sans-Serif" font-size="10.00">Plugin.hpp</text>
</a>
</g>
</g>
<!-- Node1&#45;&gt;Node7 -->
<g id="edge8" class="edge"><title>Node1&#45;&gt;Node7</title>
<path fill="none" stroke="midnightblue" d="M402,-257.191C402,-248.282 402,-238.899 402,-230.607"/>
<polygon fill="midnightblue" stroke="midnightblue" points="398.5,-257.336 402,-267.336 405.5,-257.336 398.5,-257.336"/>
</g>
<!-- Node9 -->
<g id="node9" class="node"><title>Node9</title>
<g id="a_node9"><a xlink:href="AnimationSystem_8hpp.html" target="_top" xlink:title="/home/travis/build\l/STORM&#45;IRIT/Radium&#45;Engine\l/Plugins/Animation/src/Animation\lSystem.hpp">
<polygon fill="white" stroke="black" points="507,-178.5 507,-230.5 681,-230.5 681,-178.5 507,-178.5"/>
<text text-anchor="start" x="515" y="-218.5" font-family="Helvetica,sans-Serif" font-size="10.00">/home/travis/build</text>
<text text-anchor="start" x="515" y="-207.5" font-family="Helvetica,sans-Serif" font-size="10.00">/STORM&#45;IRIT/Radium&#45;Engine</text>
<text text-anchor="start" x="515" y="-196.5" font-family="Helvetica,sans-Serif" font-size="10.00">/Plugins/Animation/src/Animation</text>
<text text-anchor="middle" x="594" y="-185.5" font-family="Helvetica,sans-Serif" font-size="10.00">System.hpp</text>
</a>
</g>
</g>
<!-- Node1&#45;&gt;Node9 -->
<g id="edge11" class="edge"><title>Node1&#45;&gt;Node9</title>
<path fill="none" stroke="midnightblue" d="M466.453,-263.295C489.911,-252.665 516.196,-240.755 538.781,-230.521"/>
<polygon fill="midnightblue" stroke="midnightblue" points="464.941,-260.137 457.277,-267.453 467.83,-266.513 464.941,-260.137"/>
</g>
<!-- Node3 -->
<g id="node3" class="node"><title>Node3</title>
<g id="a_node3"><a xlink:href="AnimationComponent_8cpp.html" target="_top" xlink:title="/home/travis/build\l/STORM&#45;IRIT/Radium&#45;Engine\l/Plugins/Animation/src/Animation\lComponent.cpp">
<polygon fill="white" stroke="black" points="0,-0.5 0,-52.5 174,-52.5 174,-0.5 0,-0.5"/>
<text text-anchor="start" x="8" y="-40.5" font-family="Helvetica,sans-Serif" font-size="10.00">/home/travis/build</text>
<text text-anchor="start" x="8" y="-29.5" font-family="Helvetica,sans-Serif" font-size="10.00">/STORM&#45;IRIT/Radium&#45;Engine</text>
<text text-anchor="start" x="8" y="-18.5" font-family="Helvetica,sans-Serif" font-size="10.00">/Plugins/Animation/src/Animation</text>
<text text-anchor="middle" x="87" y="-7.5" font-family="Helvetica,sans-Serif" font-size="10.00">Component.cpp</text>
</a>
</g>
</g>
<!-- Node2&#45;&gt;Node3 -->
<g id="edge2" class="edge"><title>Node2&#45;&gt;Node3</title>
<path fill="none" stroke="midnightblue" d="M183.974,-170.283C177.036,-161.202 169.629,-151.3 163,-142 141.535,-111.886 118.202,-76.2633 103.131,-52.8422"/>
<polygon fill="midnightblue" stroke="midnightblue" points="181.308,-172.557 190.179,-178.35 186.857,-168.29 181.308,-172.557"/>
</g>
<!-- Node4 -->
<g id="node4" class="node"><title>Node4</title>
<g id="a_node4"><a xlink:href="AnimationSystem_8cpp.html" target="_top" xlink:title="/home/travis/build\l/STORM&#45;IRIT/Radium&#45;Engine\l/Plugins/Animation/src/Animation\lSystem.cpp">
<polygon fill="white" stroke="black" points="374,-0.5 374,-52.5 548,-52.5 548,-0.5 374,-0.5"/>
<text text-anchor="start" x="382" y="-40.5" font-family="Helvetica,sans-Serif" font-size="10.00">/home/travis/build</text>
<text text-anchor="start" x="382" y="-29.5" font-family="Helvetica,sans-Serif" font-size="10.00">/STORM&#45;IRIT/Radium&#45;Engine</text>
<text text-anchor="start" x="382" y="-18.5" font-family="Helvetica,sans-Serif" font-size="10.00">/Plugins/Animation/src/Animation</text>
<text text-anchor="middle" x="461" y="-7.5" font-family="Helvetica,sans-Serif" font-size="10.00">System.cpp</text>
</a>
</g>
</g>
<!-- Node2&#45;&gt;Node4 -->
<g id="edge3" class="edge"><title>Node2&#45;&gt;Node4</title>
<path fill="none" stroke="midnightblue" d="M292.338,-174.245C310.757,-165.526 329.428,-154.803 345,-142 367.389,-123.593 362.978,-109.957 383,-89 395.508,-75.9077 410.877,-63.2092 424.657,-52.7839"/>
<polygon fill="midnightblue" stroke="midnightblue" points="290.682,-171.154 283.041,-178.493 293.591,-177.521 290.682,-171.154"/>
</g>
<!-- Node5 -->
<g id="node5" class="node"><title>Node5</title>
<g id="a_node5"><a xlink:href="SkeletonBoneDrawable_8hpp.html" target="_top" xlink:title="/home/travis/build\l/STORM&#45;IRIT/Radium&#45;Engine\l/Plugins/Animation/src/Drawing\l/SkeletonBoneDrawable.hpp">
<polygon fill="white" stroke="black" points="172,-89.5 172,-141.5 336,-141.5 336,-89.5 172,-89.5"/>
<text text-anchor="start" x="180" y="-129.5" font-family="Helvetica,sans-Serif" font-size="10.00">/home/travis/build</text>
<text text-anchor="start" x="180" y="-118.5" font-family="Helvetica,sans-Serif" font-size="10.00">/STORM&#45;IRIT/Radium&#45;Engine</text>
<text text-anchor="start" x="180" y="-107.5" font-family="Helvetica,sans-Serif" font-size="10.00">/Plugins/Animation/src/Drawing</text>
<text text-anchor="middle" x="254" y="-96.5" font-family="Helvetica,sans-Serif" font-size="10.00">/SkeletonBoneDrawable.hpp</text>
</a>
</g>
</g>
<!-- Node2&#45;&gt;Node5 -->
<g id="edge4" class="edge"><title>Node2&#45;&gt;Node5</title>
<path fill="none" stroke="midnightblue" d="M227.271,-169.35C231.949,-160.1 236.926,-150.259 241.302,-141.607"/>
<polygon fill="midnightblue" stroke="midnightblue" points="224.117,-167.833 222.727,-178.336 230.363,-170.992 224.117,-167.833"/>
</g>
<!-- Node5&#45;&gt;Node3 -->
<g id="edge5" class="edge"><title>Node5&#45;&gt;Node3</title>
<path fill="none" stroke="midnightblue" d="M196.674,-84.6354C176.652,-74.2049 154.397,-62.6109 135.195,-52.6075"/>
<polygon fill="midnightblue" stroke="midnightblue" points="195.211,-87.8198 205.697,-89.336 198.445,-81.6117 195.211,-87.8198"/>
</g>
<!-- Node5&#45;&gt;Node4 -->
<g id="edge6" class="edge"><title>Node5&#45;&gt;Node4</title>
<path fill="none" stroke="midnightblue" d="M322.818,-85.5764C348.277,-74.8763 376.902,-62.8457 401.467,-52.5211"/>
<polygon fill="midnightblue" stroke="midnightblue" points="321.458,-82.3515 313.595,-89.4527 324.17,-88.8047 321.458,-82.3515"/>
</g>
<!-- Node6 -->
<g id="node6" class="node"><title>Node6</title>
<g id="a_node6"><a xlink:href="SkeletonBoneDrawable_8cpp.html" target="_top" xlink:title="/home/travis/build\l/STORM&#45;IRIT/Radium&#45;Engine\l/Plugins/Animation/src/Drawing\l/SkeletonBoneDrawable.cpp">
<polygon fill="white" stroke="black" points="192,-0.5 192,-52.5 356,-52.5 356,-0.5 192,-0.5"/>
<text text-anchor="start" x="200" y="-40.5" font-family="Helvetica,sans-Serif" font-size="10.00">/home/travis/build</text>
<text text-anchor="start" x="200" y="-29.5" font-family="Helvetica,sans-Serif" font-size="10.00">/STORM&#45;IRIT/Radium&#45;Engine</text>
<text text-anchor="start" x="200" y="-18.5" font-family="Helvetica,sans-Serif" font-size="10.00">/Plugins/Animation/src/Drawing</text>
<text text-anchor="middle" x="274" y="-7.5" font-family="Helvetica,sans-Serif" font-size="10.00">/SkeletonBoneDrawable.cpp</text>
</a>
</g>
</g>
<!-- Node5&#45;&gt;Node6 -->
<g id="edge7" class="edge"><title>Node5&#45;&gt;Node6</title>
<path fill="none" stroke="midnightblue" d="M262.05,-79.4811C264.118,-70.4865 266.301,-60.9887 268.228,-52.6075"/>
<polygon fill="midnightblue" stroke="midnightblue" points="258.614,-78.806 259.785,-89.336 265.436,-80.3744 258.614,-78.806"/>
</g>
<!-- Node7&#45;&gt;Node5 -->
<g id="edge10" class="edge"><title>Node7&#45;&gt;Node5</title>
<path fill="none" stroke="midnightblue" d="M350.235,-173.07C332.742,-162.788 313.422,-151.431 296.712,-141.607"/>
<polygon fill="midnightblue" stroke="midnightblue" points="348.798,-176.286 359.192,-178.336 352.345,-170.251 348.798,-176.286"/>
</g>
<!-- Node8 -->
<g id="node8" class="node"><title>Node8</title>
<g id="a_node8"><a xlink:href="AnimationPlugin_8cpp.html" target="_top" xlink:title="/home/travis/build\l/STORM&#45;IRIT/Radium&#45;Engine\l/Plugins/Animation/src/Animation\lPlugin.cpp">
<polygon fill="white" stroke="black" points="392,-89.5 392,-141.5 566,-141.5 566,-89.5 392,-89.5"/>
<text text-anchor="start" x="400" y="-129.5" font-family="Helvetica,sans-Serif" font-size="10.00">/home/travis/build</text>
<text text-anchor="start" x="400" y="-118.5" font-family="Helvetica,sans-Serif" font-size="10.00">/STORM&#45;IRIT/Radium&#45;Engine</text>
<text text-anchor="start" x="400" y="-107.5" font-family="Helvetica,sans-Serif" font-size="10.00">/Plugins/Animation/src/Animation</text>
<text text-anchor="middle" x="479" y="-96.5" font-family="Helvetica,sans-Serif" font-size="10.00">Plugin.cpp</text>
</a>
</g>
</g>
<!-- Node7&#45;&gt;Node8 -->
<g id="edge9" class="edge"><title>Node7&#45;&gt;Node8</title>
<path fill="none" stroke="midnightblue" d="M430.95,-170.79C439.501,-161.129 448.722,-150.71 456.778,-141.607"/>
<polygon fill="midnightblue" stroke="midnightblue" points="428.278,-168.528 424.272,-178.336 433.52,-173.167 428.278,-168.528"/>
</g>
<!-- Node9&#45;&gt;Node4 -->
<g id="edge13" class="edge"><title>Node9&#45;&gt;Node4</title>
<path fill="none" stroke="midnightblue" d="M595.927,-168.09C595.505,-143.761 591.324,-111.853 575,-89 563.955,-73.5372 547.781,-61.5818 531.067,-52.5029"/>
<polygon fill="midnightblue" stroke="midnightblue" points="592.426,-168.328 595.894,-178.339 599.426,-168.351 592.426,-168.328"/>
</g>
<!-- Node9&#45;&gt;Node8 -->
<g id="edge12" class="edge"><title>Node9&#45;&gt;Node8</title>
<path fill="none" stroke="midnightblue" d="M552.652,-172.219C539.36,-162.164 524.815,-151.16 512.188,-141.607"/>
<polygon fill="midnightblue" stroke="midnightblue" points="550.651,-175.094 560.737,-178.336 554.874,-169.511 550.651,-175.094"/>
</g>
</g>
</svg>
