<?xml version="1.0" encoding="UTF-8" standalone="no"?>
<!DOCTYPE svg PUBLIC "-//W3C//DTD SVG 1.1//EN"
 "http://www.w3.org/Graphics/SVG/1.1/DTD/svg11.dtd">
<!-- Generated by graphviz version 2.38.0 (20140413.2041)
 -->
<!-- Title: /home/travis/build/STORM&#45;IRIT/Radium&#45;Engine/src/Core/Asset/AnimationData.hpp Pages: 1 -->
<svg width="3255pt" height="395pt"
 viewBox="0.00 0.00 3255.00 395.00" xmlns="http://www.w3.org/2000/svg" xmlns:xlink="http://www.w3.org/1999/xlink">
<g id="graph0" class="graph" transform="scale(1 1) rotate(0) translate(4 391)">
<title>/home/travis/build/STORM&#45;IRIT/Radium&#45;Engine/src/Core/Asset/AnimationData.hpp</title>
<polygon fill="white" stroke="none" points="-4,4 -4,-391 3251,-391 3251,4 -4,4"/>
<!-- Node1 -->
<g id="node1" class="node"><title>Node1</title>
<polygon fill="#bfbfbf" stroke="black" points="1808.5,-345.5 1808.5,-386.5 1993.5,-386.5 1993.5,-345.5 1808.5,-345.5"/>
<text text-anchor="start" x="1816.5" y="-374.5" font-family="Helvetica,sans-Serif" font-size="10.00">/home/travis/build</text>
<text text-anchor="start" x="1816.5" y="-363.5" font-family="Helvetica,sans-Serif" font-size="10.00">/STORM&#45;IRIT/Radium&#45;Engine</text>
<text text-anchor="middle" x="1901" y="-352.5" font-family="Helvetica,sans-Serif" font-size="10.00">/src/Core/Asset/AnimationData.hpp</text>
</g>
<!-- Node2 -->
<g id="node2" class="node"><title>Node2</title>
<g id="a_node2"><a xlink:href="AnimationData_8cpp.html" target="_top" xlink:title="/home/travis/build\l/STORM&#45;IRIT/Radium&#45;Engine\l/src/Core/Asset/AnimationData.cpp">
<polygon fill="white" stroke="black" points="1519.5,-262 1519.5,-303 1704.5,-303 1704.5,-262 1519.5,-262"/>
<text text-anchor="start" x="1527.5" y="-291" font-family="Helvetica,sans-Serif" font-size="10.00">/home/travis/build</text>
<text text-anchor="start" x="1527.5" y="-280" font-family="Helvetica,sans-Serif" font-size="10.00">/STORM&#45;IRIT/Radium&#45;Engine</text>
<text text-anchor="middle" x="1612" y="-269" font-family="Helvetica,sans-Serif" font-size="10.00">/src/Core/Asset/AnimationData.cpp</text>
</a>
</g>
</g>
<!-- Node1&#45;&gt;Node2 -->
<g id="edge1" class="edge"><title>Node1&#45;&gt;Node2</title>
<path fill="none" stroke="midnightblue" d="M1821.97,-342.712C1777.9,-330.284 1723.53,-314.952 1681.16,-303.003"/>
<polygon fill="midnightblue" stroke="midnightblue" points="1821.2,-346.133 1831.78,-345.479 1823.1,-339.396 1821.2,-346.133"/>
</g>
<!-- Node3 -->
<g id="node3" class="node"><title>Node3</title>
<g id="a_node3"><a xlink:href="AnimationData_8inl.html" target="_top" xlink:title="/home/travis/build\l/STORM&#45;IRIT/Radium&#45;Engine\l/src/Core/Asset/AnimationData.inl">
<polygon fill="white" stroke="black" points="1722,-262 1722,-303 1900,-303 1900,-262 1722,-262"/>
<text text-anchor="start" x="1730" y="-291" font-family="Helvetica,sans-Serif" font-size="10.00">/home/travis/build</text>
<text text-anchor="start" x="1730" y="-280" font-family="Helvetica,sans-Serif" font-size="10.00">/STORM&#45;IRIT/Radium&#45;Engine</text>
<text text-anchor="middle" x="1811" y="-269" font-family="Helvetica,sans-Serif" font-size="10.00">/src/Core/Asset/AnimationData.inl</text>
</a>
</g>
</g>
<!-- Node1&#45;&gt;Node3 -->
<g id="edge2" class="edge"><title>Node1&#45;&gt;Node3</title>
<path fill="none" stroke="midnightblue" d="M1865.59,-338.69C1852.14,-327.103 1837.53,-313.728 1826.72,-303.047"/>
<polygon fill="midnightblue" stroke="midnightblue" points="1863.45,-341.465 1873.34,-345.271 1867.98,-336.13 1863.45,-341.465"/>
</g>
<!-- Node4 -->
<g id="node4" class="node"><title>Node4</title>
<g id="a_node4"><a xlink:href="FileData_8inl.html" target="_top" xlink:title="/home/travis/build\l/STORM&#45;IRIT/Radium&#45;Engine\l/src/Core/Asset/FileData.inl">
<polygon fill="white" stroke="black" points="1918,-262 1918,-303 2066,-303 2066,-262 1918,-262"/>
<text text-anchor="start" x="1926" y="-291" font-family="Helvetica,sans-Serif" font-size="10.00">/home/travis/build</text>
<text text-anchor="start" x="1926" y="-280" font-family="Helvetica,sans-Serif" font-size="10.00">/STORM&#45;IRIT/Radium&#45;Engine</text>
<text text-anchor="middle" x="1992" y="-269" font-family="Helvetica,sans-Serif" font-size="10.00">/src/Core/Asset/FileData.inl</text>
</a>
</g>
</g>
<!-- Node1&#45;&gt;Node4 -->
<g id="edge4" class="edge"><title>Node1&#45;&gt;Node4</title>
<path fill="none" stroke="midnightblue" d="M1930.74,-338.365C1943.59,-326.854 1958.36,-313.629 1970.17,-303.047"/>
<polygon fill="midnightblue" stroke="midnightblue" points="1928.14,-335.992 1923.03,-345.271 1932.81,-341.207 1928.14,-335.992"/>
</g>
<!-- Node21 -->
<g id="node21" class="node"><title>Node21</title>
<g id="a_node21"><a xlink:href="AssimpAnimationDataLoader_8cpp.html" target="_top" xlink:title="/home/travis/build\l/STORM&#45;IRIT/Radium&#45;Engine\l/src/IO/AssimpLoader/AssimpAnimation\lDataLoader.cpp">
<polygon fill="white" stroke="black" points="2084.5,-256.5 2084.5,-308.5 2289.5,-308.5 2289.5,-256.5 2084.5,-256.5"/>
<text text-anchor="start" x="2092.5" y="-296.5" font-family="Helvetica,sans-Serif" font-size="10.00">/home/travis/build</text>
<text text-anchor="start" x="2092.5" y="-285.5" font-family="Helvetica,sans-Serif" font-size="10.00">/STORM&#45;IRIT/Radium&#45;Engine</text>
<text text-anchor="start" x="2092.5" y="-274.5" font-family="Helvetica,sans-Serif" font-size="10.00">/src/IO/AssimpLoader/AssimpAnimation</text>
<text text-anchor="middle" x="2187" y="-263.5" font-family="Helvetica,sans-Serif" font-size="10.00">DataLoader.cpp</text>
</a>
</g>
</g>
<!-- Node1&#45;&gt;Node21 -->
<g id="edge21" class="edge"><title>Node1&#45;&gt;Node21</title>
<path fill="none" stroke="midnightblue" d="M1979.28,-342.694C2016.43,-332.106 2060.97,-319.413 2099.27,-308.501"/>
<polygon fill="midnightblue" stroke="midnightblue" points="1978.16,-339.372 1969.5,-345.479 1980.08,-346.104 1978.16,-339.372"/>
</g>
<!-- Node22 -->
<g id="node22" class="node"><title>Node22</title>
<g id="a_node22"><a xlink:href="AnimationComponent_8hpp.html" target="_top" xlink:title="/home/travis/build\l/STORM&#45;IRIT/Radium&#45;Engine\l/Plugins/Animation/src/Animation\lComponent.hpp">
<polygon fill="white" stroke="black" points="2792,-256.5 2792,-308.5 2966,-308.5 2966,-256.5 2792,-256.5"/>
<text text-anchor="start" x="2800" y="-296.5" font-family="Helvetica,sans-Serif" font-size="10.00">/home/travis/build</text>
<text text-anchor="start" x="2800" y="-285.5" font-family="Helvetica,sans-Serif" font-size="10.00">/STORM&#45;IRIT/Radium&#45;Engine</text>
<text text-anchor="start" x="2800" y="-274.5" font-family="Helvetica,sans-Serif" font-size="10.00">/Plugins/Animation/src/Animation</text>
<text text-anchor="middle" x="2879" y="-263.5" font-family="Helvetica,sans-Serif" font-size="10.00">Component.hpp</text>
</a>
</g>
</g>
<!-- Node1&#45;&gt;Node22 -->
<g id="edge22" class="edge"><title>Node1&#45;&gt;Node22</title>
<path fill="none" stroke="midnightblue" d="M2004.05,-356.412C2197.35,-340.304 2611.08,-305.827 2791.67,-290.778"/>
<polygon fill="midnightblue" stroke="midnightblue" points="2003.56,-352.941 1993.89,-357.259 2004.15,-359.917 2003.56,-352.941"/>
</g>
<!-- Node3&#45;&gt;Node1 -->
<g id="edge3" class="edge"><title>Node3&#45;&gt;Node1</title>
<path fill="none" stroke="midnightblue" d="M1846.18,-309.614C1859.62,-321.179 1874.24,-334.56 1885.09,-345.271"/>
<polygon fill="midnightblue" stroke="midnightblue" points="1848.34,-306.85 1838.45,-303.047 1843.81,-312.187 1848.34,-306.85"/>
</g>
<!-- Node5 -->
<g id="node5" class="node"><title>Node5</title>
<g id="a_node5"><a xlink:href="FileData_8hpp.html" target="_top" xlink:title="/home/travis/build\l/STORM&#45;IRIT/Radium&#45;Engine\l/src/Core/Asset/FileData.hpp">
<polygon fill="white" stroke="black" points="1431,-173 1431,-214 1583,-214 1583,-173 1431,-173"/>
<text text-anchor="start" x="1439" y="-202" font-family="Helvetica,sans-Serif" font-size="10.00">/home/travis/build</text>
<text text-anchor="start" x="1439" y="-191" font-family="Helvetica,sans-Serif" font-size="10.00">/STORM&#45;IRIT/Radium&#45;Engine</text>
<text text-anchor="middle" x="1507" y="-180" font-family="Helvetica,sans-Serif" font-size="10.00">/src/Core/Asset/FileData.hpp</text>
</a>
</g>
</g>
<!-- Node4&#45;&gt;Node5 -->
<g id="edge5" class="edge"><title>Node4&#45;&gt;Node5</title>
<path fill="none" stroke="midnightblue" d="M1922.23,-259.265C1917.77,-258.093 1913.33,-256.991 1909,-256 1796.82,-230.331 1664.52,-212.417 1583.2,-202.789"/>
<polygon fill="midnightblue" stroke="midnightblue" points="1921.42,-262.673 1931.99,-261.932 1923.26,-255.92 1921.42,-262.673"/>
</g>
<!-- Node6 -->
<g id="node6" class="node"><title>Node6</title>
<g id="a_node6"><a xlink:href="FileData_8cpp.html" target="_top" xlink:title="/home/travis/build\l/STORM&#45;IRIT/Radium&#45;Engine\l/src/Core/Asset/FileData.cpp">
<polygon fill="white" stroke="black" points="2033.5,-84 2033.5,-125 2184.5,-125 2184.5,-84 2033.5,-84"/>
<text text-anchor="start" x="2041.5" y="-113" font-family="Helvetica,sans-Serif" font-size="10.00">/home/travis/build</text>
<text text-anchor="start" x="2041.5" y="-102" font-family="Helvetica,sans-Serif" font-size="10.00">/STORM&#45;IRIT/Radium&#45;Engine</text>
<text text-anchor="middle" x="2109" y="-91" font-family="Helvetica,sans-Serif" font-size="10.00">/src/Core/Asset/FileData.cpp</text>
</a>
</g>
</g>
<!-- Node5&#45;&gt;Node6 -->
<g id="edge6" class="edge"><title>Node5&#45;&gt;Node6</title>
<path fill="none" stroke="midnightblue" d="M1593.25,-186.939C1696.68,-179.198 1874.88,-162.44 2025,-131 2032.91,-129.344 2041.14,-127.281 2049.22,-125.05"/>
<polygon fill="midnightblue" stroke="midnightblue" points="1592.89,-183.456 1583.17,-187.683 1593.4,-190.437 1592.89,-183.456"/>
</g>
<!-- Node7 -->
<g id="node7" class="node"><title>Node7</title>
<g id="a_node7"><a xlink:href="GeometryComponent_8cpp.html" target="_top" xlink:title="/home/travis/build\l/STORM&#45;IRIT/Radium&#45;Engine\l/src/Engine/Component/GeometryComponent.cpp">
<polygon fill="white" stroke="black" points="2203,-84 2203,-125 2459,-125 2459,-84 2203,-84"/>
<text text-anchor="start" x="2211" y="-113" font-family="Helvetica,sans-Serif" font-size="10.00">/home/travis/build</text>
<text text-anchor="start" x="2211" y="-102" font-family="Helvetica,sans-Serif" font-size="10.00">/STORM&#45;IRIT/Radium&#45;Engine</text>
<text text-anchor="middle" x="2331" y="-91" font-family="Helvetica,sans-Serif" font-size="10.00">/src/Engine/Component/GeometryComponent.cpp</text>
</a>
</g>
</g>
<!-- Node5&#45;&gt;Node7 -->
<g id="edge7" class="edge"><title>Node5&#45;&gt;Node7</title>
<path fill="none" stroke="midnightblue" d="M1593.32,-187.407C1723.81,-179.114 1978.87,-160.582 2194,-131 2206.46,-129.286 2219.52,-127.216 2232.4,-125.006"/>
<polygon fill="midnightblue" stroke="midnightblue" points="1592.76,-183.935 1583,-188.058 1593.2,-190.921 1592.76,-183.935"/>
</g>
<!-- Node8 -->
<g id="node8" class="node"><title>Node8</title>
<g id="a_node8"><a xlink:href="CameraManager_8cpp.html" target="_top" xlink:title="/home/travis/build\l/STORM&#45;IRIT/Radium&#45;Engine\l/src/Engine/Managers/CameraManager\l/CameraManager.cpp">
<polygon fill="white" stroke="black" points="2477.5,-78.5 2477.5,-130.5 2680.5,-130.5 2680.5,-78.5 2477.5,-78.5"/>
<text text-anchor="start" x="2485.5" y="-118.5" font-family="Helvetica,sans-Serif" font-size="10.00">/home/travis/build</text>
<text text-anchor="start" x="2485.5" y="-107.5" font-family="Helvetica,sans-Serif" font-size="10.00">/STORM&#45;IRIT/Radium&#45;Engine</text>
<text text-anchor="start" x="2485.5" y="-96.5" font-family="Helvetica,sans-Serif" font-size="10.00">/src/Engine/Managers/CameraManager</text>
<text text-anchor="middle" x="2579" y="-85.5" font-family="Helvetica,sans-Serif" font-size="10.00">/CameraManager.cpp</text>
</a>
</g>
</g>
<!-- Node5&#45;&gt;Node8 -->
<g id="edge8" class="edge"><title>Node5&#45;&gt;Node8</title>
<path fill="none" stroke="midnightblue" d="M1593.19,-191.65C1761.98,-188.958 2147.61,-177.739 2468,-131 2471.03,-130.558 2474.11,-130.075 2477.2,-129.559"/>
<polygon fill="midnightblue" stroke="midnightblue" points="1593.06,-188.152 1583.12,-191.805 1593.17,-195.151 1593.06,-188.152"/>
</g>
<!-- Node9 -->
<g id="node9" class="node"><title>Node9</title>
<g id="a_node9"><a xlink:href="LightManager_8cpp.html" target="_top" xlink:title="/home/travis/build\l/STORM&#45;IRIT/Radium&#45;Engine\l/src/Engine/Managers/LightManager\l/LightManager.cpp">
<polygon fill="white" stroke="black" points="0,-78.5 0,-130.5 188,-130.5 188,-78.5 0,-78.5"/>
<text text-anchor="start" x="8" y="-118.5" font-family="Helvetica,sans-Serif" font-size="10.00">/home/travis/build</text>
<text text-anchor="start" x="8" y="-107.5" font-family="Helvetica,sans-Serif" font-size="10.00">/STORM&#45;IRIT/Radium&#45;Engine</text>
<text text-anchor="start" x="8" y="-96.5" font-family="Helvetica,sans-Serif" font-size="10.00">/src/Engine/Managers/LightManager</text>
<text text-anchor="middle" x="94" y="-85.5" font-family="Helvetica,sans-Serif" font-size="10.00">/LightManager.cpp</text>
</a>
</g>
</g>
<!-- Node5&#45;&gt;Node9 -->
<g id="edge9" class="edge"><title>Node5&#45;&gt;Node9</title>
<path fill="none" stroke="midnightblue" d="M1420.4,-190.619C1167.85,-184.786 435.075,-165.304 198,-131 194.78,-130.534 191.515,-130.013 188.225,-129.446"/>
<polygon fill="midnightblue" stroke="midnightblue" points="1420.54,-194.123 1430.62,-190.853 1420.7,-187.125 1420.54,-194.123"/>
</g>
<!-- Node10 -->
<g id="node10" class="node"><title>Node10</title>
<g id="a_node10"><a xlink:href="RadiumEngine_8cpp.html" target="_top" xlink:title="/home/travis/build\l/STORM&#45;IRIT/Radium&#45;Engine\l/src/Engine/RadiumEngine.cpp">
<polygon fill="white" stroke="black" points="206.5,-84 206.5,-125 367.5,-125 367.5,-84 206.5,-84"/>
<text text-anchor="start" x="214.5" y="-113" font-family="Helvetica,sans-Serif" font-size="10.00">/home/travis/build</text>
<text text-anchor="start" x="214.5" y="-102" font-family="Helvetica,sans-Serif" font-size="10.00">/STORM&#45;IRIT/Radium&#45;Engine</text>
<text text-anchor="middle" x="287" y="-91" font-family="Helvetica,sans-Serif" font-size="10.00">/src/Engine/RadiumEngine.cpp</text>
</a>
</g>
</g>
<!-- Node5&#45;&gt;Node10 -->
<g id="edge10" class="edge"><title>Node5&#45;&gt;Node10</title>
<path fill="none" stroke="midnightblue" d="M1420.51,-190.274C1192.27,-184.004 577.524,-164.438 377,-131 367.869,-129.477 358.343,-127.369 349.049,-125.01"/>
<polygon fill="midnightblue" stroke="midnightblue" points="1420.67,-193.78 1430.76,-190.554 1420.86,-186.782 1420.67,-193.78"/>
</g>
<!-- Node11 -->
<g id="node11" class="node"><title>Node11</title>
<g id="a_node11"><a xlink:href="Renderer_8cpp.html" target="_top" xlink:title="/home/travis/build\l/STORM&#45;IRIT/Radium&#45;Engine\l/src/Engine/Renderer/Renderer.cpp">
<polygon fill="white" stroke="black" points="386,-84 386,-125 566,-125 566,-84 386,-84"/>
<text text-anchor="start" x="394" y="-113" font-family="Helvetica,sans-Serif" font-size="10.00">/home/travis/build</text>
<text text-anchor="start" x="394" y="-102" font-family="Helvetica,sans-Serif" font-size="10.00">/STORM&#45;IRIT/Radium&#45;Engine</text>
<text text-anchor="middle" x="476" y="-91" font-family="Helvetica,sans-Serif" font-size="10.00">/src/Engine/Renderer/Renderer.cpp</text>
</a>
</g>
</g>
<!-- Node5&#45;&gt;Node11 -->
<g id="edge11" class="edge"><title>Node5&#45;&gt;Node11</title>
<path fill="none" stroke="midnightblue" d="M1420.65,-192.074C1255.55,-190.096 884.093,-180.031 576,-131 566.18,-129.437 555.918,-127.353 545.866,-125.048"/>
<polygon fill="midnightblue" stroke="midnightblue" points="1420.71,-195.575 1430.75,-192.188 1420.79,-188.575 1420.71,-195.575"/>
</g>
<!-- Node12 -->
<g id="node12" class="node"><title>Node12</title>
<g id="a_node12"><a xlink:href="GeometrySystem_8cpp.html" target="_top" xlink:title="/home/travis/build\l/STORM&#45;IRIT/Radium&#45;Engine\l/src/Engine/System/GeometrySystem.cpp">
<polygon fill="white" stroke="black" points="584.5,-84 584.5,-125 801.5,-125 801.5,-84 584.5,-84"/>
<text text-anchor="start" x="592.5" y="-113" font-family="Helvetica,sans-Serif" font-size="10.00">/home/travis/build</text>
<text text-anchor="start" x="592.5" y="-102" font-family="Helvetica,sans-Serif" font-size="10.00">/STORM&#45;IRIT/Radium&#45;Engine</text>
<text text-anchor="middle" x="693" y="-91" font-family="Helvetica,sans-Serif" font-size="10.00">/src/Engine/System/GeometrySystem.cpp</text>
</a>
</g>
</g>
<!-- Node5&#45;&gt;Node12 -->
<g id="edge12" class="edge"><title>Node5&#45;&gt;Node12</title>
<path fill="none" stroke="midnightblue" d="M1420.89,-188.352C1289,-181.22 1029.29,-164.099 811,-131 800.017,-129.335 788.524,-127.266 777.203,-125.032"/>
<polygon fill="midnightblue" stroke="midnightblue" points="1420.76,-191.85 1430.93,-188.889 1421.13,-184.86 1420.76,-191.85"/>
</g>
<!-- Node13 -->
<g id="node13" class="node"><title>Node13</title>
<g id="a_node13"><a xlink:href="Viewer_8cpp.html" target="_top" xlink:title="/home/travis/build\l/STORM&#45;IRIT/Radium&#45;Engine\l/src/GuiBase/Viewer/Viewer.cpp">
<polygon fill="white" stroke="black" points="819.5,-84 819.5,-125 984.5,-125 984.5,-84 819.5,-84"/>
<text text-anchor="start" x="827.5" y="-113" font-family="Helvetica,sans-Serif" font-size="10.00">/home/travis/build</text>
<text text-anchor="start" x="827.5" y="-102" font-family="Helvetica,sans-Serif" font-size="10.00">/STORM&#45;IRIT/Radium&#45;Engine</text>
<text text-anchor="middle" x="902" y="-91" font-family="Helvetica,sans-Serif" font-size="10.00">/src/GuiBase/Viewer/Viewer.cpp</text>
</a>
</g>
</g>
<!-- Node5&#45;&gt;Node13 -->
<g id="edge13" class="edge"><title>Node5&#45;&gt;Node13</title>
<path fill="none" stroke="midnightblue" d="M1420.83,-186.17C1318.4,-177.726 1142.62,-160.33 994,-131 985.463,-129.315 976.558,-127.249 967.796,-125.029"/>
<polygon fill="midnightblue" stroke="midnightblue" points="1420.57,-189.66 1430.82,-186.984 1421.13,-182.683 1420.57,-189.66"/>
</g>
<!-- Node14 -->
<g id="node14" class="node"><title>Node14</title>
<g id="a_node14"><a xlink:href="AssimpFileLoader_8cpp.html" target="_top" xlink:title="/home/travis/build\l/STORM&#45;IRIT/Radium&#45;Engine\l/src/IO/AssimpLoader/AssimpFile\lLoader.cpp">
<polygon fill="white" stroke="black" points="1002.5,-78.5 1002.5,-130.5 1173.5,-130.5 1173.5,-78.5 1002.5,-78.5"/>
<text text-anchor="start" x="1010.5" y="-118.5" font-family="Helvetica,sans-Serif" font-size="10.00">/home/travis/build</text>
<text text-anchor="start" x="1010.5" y="-107.5" font-family="Helvetica,sans-Serif" font-size="10.00">/STORM&#45;IRIT/Radium&#45;Engine</text>
<text text-anchor="start" x="1010.5" y="-96.5" font-family="Helvetica,sans-Serif" font-size="10.00">/src/IO/AssimpLoader/AssimpFile</text>
<text text-anchor="middle" x="1088" y="-85.5" font-family="Helvetica,sans-Serif" font-size="10.00">Loader.cpp</text>
</a>
</g>
</g>
<!-- Node5&#45;&gt;Node14 -->
<g id="edge14" class="edge"><title>Node5&#45;&gt;Node14</title>
<path fill="none" stroke="midnightblue" d="M1420.86,-177.954C1355.36,-166.459 1263.16,-149.34 1183,-131 1179.92,-130.295 1176.79,-129.56 1173.63,-128.8"/>
<polygon fill="midnightblue" stroke="midnightblue" points="1420.27,-181.405 1430.73,-179.68 1421.48,-174.51 1420.27,-181.405"/>
</g>
<!-- Node15 -->
<g id="node15" class="node"><title>Node15</title>
<g id="a_node15"><a xlink:href="CameraLoader_8cpp.html" target="_top" xlink:title="/home/travis/build\l/STORM&#45;IRIT/Radium&#45;Engine\l/src/IO/CameraLoader/CameraLoader.cpp">
<polygon fill="white" stroke="black" points="1191.5,-84 1191.5,-125 1406.5,-125 1406.5,-84 1191.5,-84"/>
<text text-anchor="start" x="1199.5" y="-113" font-family="Helvetica,sans-Serif" font-size="10.00">/home/travis/build</text>
<text text-anchor="start" x="1199.5" y="-102" font-family="Helvetica,sans-Serif" font-size="10.00">/STORM&#45;IRIT/Radium&#45;Engine</text>
<text text-anchor="middle" x="1299" y="-91" font-family="Helvetica,sans-Serif" font-size="10.00">/src/IO/CameraLoader/CameraLoader.cpp</text>
</a>
</g>
</g>
<!-- Node5&#45;&gt;Node15 -->
<g id="edge15" class="edge"><title>Node5&#45;&gt;Node15</title>
<path fill="none" stroke="midnightblue" d="M1450.85,-169.013C1417.99,-155.272 1377,-138.123 1345.88,-125.11"/>
<polygon fill="midnightblue" stroke="midnightblue" points="1449.74,-172.346 1460.32,-172.976 1452.45,-165.888 1449.74,-172.346"/>
</g>
<!-- Node16 -->
<g id="node16" class="node"><title>Node16</title>
<g id="a_node16"><a xlink:href="TinyPlyFileLoader_8cpp.html" target="_top" xlink:title="/home/travis/build\l/STORM&#45;IRIT/Radium&#45;Engine\l/src/IO/TinyPlyLoader/TinyPlyFile\lLoader.cpp">
<polygon fill="white" stroke="black" points="1424.5,-78.5 1424.5,-130.5 1589.5,-130.5 1589.5,-78.5 1424.5,-78.5"/>
<text text-anchor="start" x="1432.5" y="-118.5" font-family="Helvetica,sans-Serif" font-size="10.00">/home/travis/build</text>
<text text-anchor="start" x="1432.5" y="-107.5" font-family="Helvetica,sans-Serif" font-size="10.00">/STORM&#45;IRIT/Radium&#45;Engine</text>
<text text-anchor="start" x="1432.5" y="-96.5" font-family="Helvetica,sans-Serif" font-size="10.00">/src/IO/TinyPlyLoader/TinyPlyFile</text>
<text text-anchor="middle" x="1507" y="-85.5" font-family="Helvetica,sans-Serif" font-size="10.00">Loader.cpp</text>
</a>
</g>
</g>
<!-- Node5&#45;&gt;Node16 -->
<g id="edge16" class="edge"><title>Node5&#45;&gt;Node16</title>
<path fill="none" stroke="midnightblue" d="M1507,-162.509C1507,-152.174 1507,-140.71 1507,-130.788"/>
<polygon fill="midnightblue" stroke="midnightblue" points="1503.5,-162.758 1507,-172.758 1510.5,-162.758 1503.5,-162.758"/>
</g>
<!-- Node17 -->
<g id="node17" class="node"><title>Node17</title>
<g id="a_node17"><a xlink:href="AnimationSystem_8cpp.html" target="_top" xlink:title="/home/travis/build\l/STORM&#45;IRIT/Radium&#45;Engine\l/Plugins/Animation/src/Animation\lSystem.cpp">
<polygon fill="white" stroke="black" points="2699,-78.5 2699,-130.5 2873,-130.5 2873,-78.5 2699,-78.5"/>
<text text-anchor="start" x="2707" y="-118.5" font-family="Helvetica,sans-Serif" font-size="10.00">/home/travis/build</text>
<text text-anchor="start" x="2707" y="-107.5" font-family="Helvetica,sans-Serif" font-size="10.00">/STORM&#45;IRIT/Radium&#45;Engine</text>
<text text-anchor="start" x="2707" y="-96.5" font-family="Helvetica,sans-Serif" font-size="10.00">/Plugins/Animation/src/Animation</text>
<text text-anchor="middle" x="2786" y="-85.5" font-family="Helvetica,sans-Serif" font-size="10.00">System.cpp</text>
</a>
</g>
</g>
<!-- Node5&#45;&gt;Node17 -->
<g id="edge17" class="edge"><title>Node5&#45;&gt;Node17</title>
<path fill="none" stroke="midnightblue" d="M1593.36,-190.339C1828.83,-184.074 2478.55,-164.21 2690,-131 2692.9,-130.545 2695.83,-130.038 2698.79,-129.488"/>
<polygon fill="midnightblue" stroke="midnightblue" points="1593.04,-186.846 1583.14,-190.609 1593.22,-193.843 1593.04,-186.846"/>
</g>
<!-- Node18 -->
<g id="node18" class="node"><title>Node18</title>
<g id="a_node18"><a xlink:href="MeshPaintSystem_8cpp.html" target="_top" xlink:title="/home/travis/build\l/STORM&#45;IRIT/Radium&#45;Engine\l/Plugins/MeshPaint/src/MeshPaint\lSystem.cpp">
<polygon fill="white" stroke="black" points="1608,-78.5 1608,-130.5 1782,-130.5 1782,-78.5 1608,-78.5"/>
<text text-anchor="start" x="1616" y="-118.5" font-family="Helvetica,sans-Serif" font-size="10.00">/home/travis/build</text>
<text text-anchor="start" x="1616" y="-107.5" font-family="Helvetica,sans-Serif" font-size="10.00">/STORM&#45;IRIT/Radium&#45;Engine</text>
<text text-anchor="start" x="1616" y="-96.5" font-family="Helvetica,sans-Serif" font-size="10.00">/Plugins/MeshPaint/src/MeshPaint</text>
<text text-anchor="middle" x="1695" y="-85.5" font-family="Helvetica,sans-Serif" font-size="10.00">System.cpp</text>
</a>
</g>
</g>
<!-- Node5&#45;&gt;Node18 -->
<g id="edge18" class="edge"><title>Node5&#45;&gt;Node18</title>
<path fill="none" stroke="midnightblue" d="M1558.35,-168.736C1583.92,-156.902 1614.84,-142.595 1640.79,-130.585"/>
<polygon fill="midnightblue" stroke="midnightblue" points="1556.8,-165.599 1549.19,-172.976 1559.74,-171.952 1556.8,-165.599"/>
</g>
<!-- Node19 -->
<g id="node19" class="node"><title>Node19</title>
<g id="a_node19"><a xlink:href="SkinningSystem_8hpp.html" target="_top" xlink:title="/home/travis/build\l/STORM&#45;IRIT/Radium&#45;Engine\l/Plugins/Skinning/src/SkinningSystem.hpp">
<polygon fill="white" stroke="black" points="1800.5,-84 1800.5,-125 2015.5,-125 2015.5,-84 1800.5,-84"/>
<text text-anchor="start" x="1808.5" y="-113" font-family="Helvetica,sans-Serif" font-size="10.00">/home/travis/build</text>
<text text-anchor="start" x="1808.5" y="-102" font-family="Helvetica,sans-Serif" font-size="10.00">/STORM&#45;IRIT/Radium&#45;Engine</text>
<text text-anchor="middle" x="1908" y="-91" font-family="Helvetica,sans-Serif" font-size="10.00">/Plugins/Skinning/src/SkinningSystem.hpp</text>
</a>
</g>
</g>
<!-- Node5&#45;&gt;Node19 -->
<g id="edge19" class="edge"><title>Node5&#45;&gt;Node19</title>
<path fill="none" stroke="midnightblue" d="M1593.18,-173.869C1649.48,-161.689 1724.61,-145.423 1791,-131 1799.94,-129.058 1809.26,-127.03 1818.57,-125.004"/>
<polygon fill="midnightblue" stroke="midnightblue" points="1592.28,-170.483 1583.25,-176.018 1593.76,-177.324 1592.28,-170.483"/>
</g>
<!-- Node20 -->
<g id="node20" class="node"><title>Node20</title>
<g id="a_node20"><a xlink:href="SkinningPlugin_8cpp.html" target="_top" xlink:title="/home/travis/build\l/STORM&#45;IRIT/Radium&#45;Engine\l/Plugins/Skinning/src/SkinningPlugin.cpp">
<polygon fill="white" stroke="black" points="1805,-0.5 1805,-41.5 2011,-41.5 2011,-0.5 1805,-0.5"/>
<text text-anchor="start" x="1813" y="-29.5" font-family="Helvetica,sans-Serif" font-size="10.00">/home/travis/build</text>
<text text-anchor="start" x="1813" y="-18.5" font-family="Helvetica,sans-Serif" font-size="10.00">/STORM&#45;IRIT/Radium&#45;Engine</text>
<text text-anchor="middle" x="1908" y="-7.5" font-family="Helvetica,sans-Serif" font-size="10.00">/Plugins/Skinning/src/SkinningPlugin.cpp</text>
</a>
</g>
</g>
<!-- Node19&#45;&gt;Node20 -->
<g id="edge20" class="edge"><title>Node19&#45;&gt;Node20</title>
<path fill="none" stroke="midnightblue" d="M1908,-73.5646C1908,-62.8819 1908,-51.1303 1908,-41.5472"/>
<polygon fill="midnightblue" stroke="midnightblue" points="1904.5,-73.7711 1908,-83.7711 1911.5,-73.7712 1904.5,-73.7711"/>
</g>
<!-- Node22&#45;&gt;Node17 -->
<g id="edge24" class="edge"><title>Node22&#45;&gt;Node17</title>
<path fill="none" stroke="midnightblue" d="M2860.84,-247.13C2842.76,-212.92 2815.45,-161.231 2799.3,-130.67"/>
<polygon fill="midnightblue" stroke="midnightblue" points="2857.91,-249.077 2865.68,-256.283 2864.1,-245.807 2857.91,-249.077"/>
</g>
<!-- Node23 -->
<g id="node23" class="node"><title>Node23</title>
<g id="a_node23"><a xlink:href="AnimationComponent_8cpp.html" target="_top" xlink:title="/home/travis/build\l/STORM&#45;IRIT/Radium&#45;Engine\l/Plugins/Animation/src/Animation\lComponent.cpp">
<polygon fill="white" stroke="black" points="3073,-78.5 3073,-130.5 3247,-130.5 3247,-78.5 3073,-78.5"/>
<text text-anchor="start" x="3081" y="-118.5" font-family="Helvetica,sans-Serif" font-size="10.00">/home/travis/build</text>
<text text-anchor="start" x="3081" y="-107.5" font-family="Helvetica,sans-Serif" font-size="10.00">/STORM&#45;IRIT/Radium&#45;Engine</text>
<text text-anchor="start" x="3081" y="-96.5" font-family="Helvetica,sans-Serif" font-size="10.00">/Plugins/Animation/src/Animation</text>
<text text-anchor="middle" x="3160" y="-85.5" font-family="Helvetica,sans-Serif" font-size="10.00">Component.cpp</text>
</a>
</g>
</g>
<!-- Node22&#45;&gt;Node23 -->
<g id="edge23" class="edge"><title>Node22&#45;&gt;Node23</title>
<path fill="none" stroke="midnightblue" d="M2975.75,-253.198C2999.02,-244.326 3023.16,-233.294 3044,-220 3082.65,-195.346 3118.83,-156.043 3140.2,-130.504"/>
<polygon fill="midnightblue" stroke="midnightblue" points="2974.35,-249.984 2966.19,-256.743 2976.79,-256.547 2974.35,-249.984"/>
</g>
<!-- Node24 -->
<g id="node24" class="node"><title>Node24</title>
<g id="a_node24"><a xlink:href="SkeletonBoneDrawable_8hpp.html" target="_top" xlink:title="/home/travis/build\l/STORM&#45;IRIT/Radium&#45;Engine\l/Plugins/Animation/src/Drawing\l/SkeletonBoneDrawable.hpp">
<polygon fill="white" stroke="black" points="2871,-167.5 2871,-219.5 3035,-219.5 3035,-167.5 2871,-167.5"/>
<text text-anchor="start" x="2879" y="-207.5" font-family="Helvetica,sans-Serif" font-size="10.00">/home/travis/build</text>
<text text-anchor="start" x="2879" y="-196.5" font-family="Helvetica,sans-Serif" font-size="10.00">/STORM&#45;IRIT/Radium&#45;Engine</text>
<text text-anchor="start" x="2879" y="-185.5" font-family="Helvetica,sans-Serif" font-size="10.00">/Plugins/Animation/src/Drawing</text>
<text text-anchor="middle" x="2953" y="-174.5" font-family="Helvetica,sans-Serif" font-size="10.00">/SkeletonBoneDrawable.hpp</text>
</a>
</g>
</g>
<!-- Node22&#45;&gt;Node24 -->
<g id="edge25" class="edge"><title>Node22&#45;&gt;Node24</title>
<path fill="none" stroke="midnightblue" d="M2907.07,-248.503C2915.22,-238.923 2923.98,-228.62 2931.64,-219.607"/>
<polygon fill="midnightblue" stroke="midnightblue" points="2904.22,-246.451 2900.4,-256.336 2909.55,-250.986 2904.22,-246.451"/>
</g>
<!-- Node24&#45;&gt;Node17 -->
<g id="edge27" class="edge"><title>Node24&#45;&gt;Node17</title>
<path fill="none" stroke="midnightblue" d="M2895.67,-162.635C2875.65,-152.205 2853.4,-140.611 2834.19,-130.607"/>
<polygon fill="midnightblue" stroke="midnightblue" points="2894.21,-165.82 2904.7,-167.336 2897.45,-159.612 2894.21,-165.82"/>
</g>
<!-- Node24&#45;&gt;Node23 -->
<g id="edge26" class="edge"><title>Node24&#45;&gt;Node23</title>
<path fill="none" stroke="midnightblue" d="M3021.82,-163.576C3047.28,-152.876 3075.9,-140.846 3100.47,-130.521"/>
<polygon fill="midnightblue" stroke="midnightblue" points="3020.46,-160.351 3012.6,-167.453 3023.17,-166.805 3020.46,-160.351"/>
</g>
<!-- Node25 -->
<g id="node25" class="node"><title>Node25</title>
<g id="a_node25"><a xlink:href="SkeletonBoneDrawable_8cpp.html" target="_top" xlink:title="/home/travis/build\l/STORM&#45;IRIT/Radium&#45;Engine\l/Plugins/Animation/src/Drawing\l/SkeletonBoneDrawable.cpp">
<polygon fill="white" stroke="black" points="2891,-78.5 2891,-130.5 3055,-130.5 3055,-78.5 2891,-78.5"/>
<text text-anchor="start" x="2899" y="-118.5" font-family="Helvetica,sans-Serif" font-size="10.00">/home/travis/build</text>
<text text-anchor="start" x="2899" y="-107.5" font-family="Helvetica,sans-Serif" font-size="10.00">/STORM&#45;IRIT/Radium&#45;Engine</text>
<text text-anchor="start" x="2899" y="-96.5" font-family="Helvetica,sans-Serif" font-size="10.00">/Plugins/Animation/src/Drawing</text>
<text text-anchor="middle" x="2973" y="-85.5" font-family="Helvetica,sans-Serif" font-size="10.00">/SkeletonBoneDrawable.cpp</text>
</a>
</g>
</g>
<!-- Node24&#45;&gt;Node25 -->
<g id="edge28" class="edge"><title>Node24&#45;&gt;Node25</title>
<path fill="none" stroke="midnightblue" d="M2961.05,-157.481C2963.12,-148.487 2965.3,-138.989 2967.23,-130.607"/>
<polygon fill="midnightblue" stroke="midnightblue" points="2957.61,-156.806 2958.78,-167.336 2964.44,-158.374 2957.61,-156.806"/>
</g>
</g>
</svg>
