<?xml version="1.0" encoding="UTF-8" standalone="no"?>
<!DOCTYPE svg PUBLIC "-//W3C//DTD SVG 1.1//EN"
 "http://www.w3.org/Graphics/SVG/1.1/DTD/svg11.dtd">
<!-- Generated by graphviz version 2.38.0 (20140413.2041)
 -->
<!-- Title: /home/travis/build/STORM&#45;IRIT/Radium&#45;Engine/src/IO/AssimpLoader/AssimpGeometryDataLoader.hpp Pages: 1 -->
<svg width="556pt" height="285pt"
 viewBox="0.00 0.00 555.52 285.00" xmlns="http://www.w3.org/2000/svg" xmlns:xlink="http://www.w3.org/1999/xlink">
<g id="graph0" class="graph" transform="scale(1 1) rotate(0) translate(4 281)">
<title>/home/travis/build/STORM&#45;IRIT/Radium&#45;Engine/src/IO/AssimpLoader/AssimpGeometryDataLoader.hpp</title>
<polygon fill="white" stroke="none" points="-4,4 -4,-281 551.517,-281 551.517,4 -4,4"/>
<!-- Node1 -->
<g id="node1" class="node"><title>Node1</title>
<polygon fill="#bfbfbf" stroke="black" points="188.5,-224.5 188.5,-276.5 392.5,-276.5 392.5,-224.5 188.5,-224.5"/>
<text text-anchor="start" x="196.5" y="-264.5" font-family="Helvetica,sans-Serif" font-size="10.00">/home/travis/build</text>
<text text-anchor="start" x="196.5" y="-253.5" font-family="Helvetica,sans-Serif" font-size="10.00">/STORM&#45;IRIT/Radium&#45;Engine</text>
<text text-anchor="start" x="196.5" y="-242.5" font-family="Helvetica,sans-Serif" font-size="10.00">/src/IO/AssimpLoader/AssimpGeometry</text>
<text text-anchor="middle" x="290.5" y="-231.5" font-family="Helvetica,sans-Serif" font-size="10.00">DataLoader.hpp</text>
</g>
<!-- Node2 -->
<g id="node2" class="node"><title>Node2</title>
<g id="a_node2"><a xlink:href="DataLoader_8hpp.html" target="_top" xlink:title="Core/Asset/DataLoader.hpp">
<polygon fill="white" stroke="black" points="56,-168.5 56,-187.5 205,-187.5 205,-168.5 56,-168.5"/>
<text text-anchor="middle" x="130.5" y="-175.5" font-family="Helvetica,sans-Serif" font-size="10.00">Core/Asset/DataLoader.hpp</text>
</a>
</g>
</g>
<!-- Node1&#45;&gt;Node2 -->
<g id="edge1" class="edge"><title>Node1&#45;&gt;Node2</title>
<path fill="none" stroke="midnightblue" d="M233.639,-224.446C208.361,-213.308 179.71,-200.683 159.032,-191.572"/>
<polygon fill="midnightblue" stroke="midnightblue" points="160.414,-188.356 149.852,-187.527 157.592,-194.762 160.414,-188.356"/>
</g>
<!-- Node3 -->
<g id="node3" class="node"><title>Node3</title>
<polygon fill="white" stroke="#bfbfbf" points="0,-112.5 0,-131.5 57,-131.5 57,-112.5 0,-112.5"/>
<text text-anchor="middle" x="28.5" y="-119.5" font-family="Helvetica,sans-Serif" font-size="10.00">memory</text>
</g>
<!-- Node1&#45;&gt;Node3 -->
<g id="edge17" class="edge"><title>Node1&#45;&gt;Node3</title>
<path fill="none" stroke="midnightblue" d="M188.407,-234.314C131.108,-223.811 67.0844,-208.111 46.5,-188 34.2077,-175.99 30.0936,-156.387 28.8208,-141.844"/>
<polygon fill="midnightblue" stroke="midnightblue" points="32.2992,-141.322 28.3072,-131.508 25.3079,-141.669 32.2992,-141.322"/>
</g>
<!-- Node5 -->
<g id="node5" class="node"><title>Node5</title>
<g id="a_node5"><a xlink:href="Types_8hpp.html" target="_top" xlink:title="Core/Math/Types.hpp">
<polygon fill="white" stroke="black" points="232.5,-168.5 232.5,-187.5 348.5,-187.5 348.5,-168.5 232.5,-168.5"/>
<text text-anchor="middle" x="290.5" y="-175.5" font-family="Helvetica,sans-Serif" font-size="10.00">Core/Math/Types.hpp</text>
</a>
</g>
</g>
<!-- Node1&#45;&gt;Node5 -->
<g id="edge4" class="edge"><title>Node1&#45;&gt;Node5</title>
<path fill="none" stroke="midnightblue" d="M290.5,-224.446C290.5,-215.73 290.5,-206.104 290.5,-197.964"/>
<polygon fill="midnightblue" stroke="midnightblue" points="294,-197.695 290.5,-187.695 287,-197.696 294,-197.695"/>
</g>
<!-- Node16 -->
<g id="node16" class="node"><title>Node16</title>
<g id="a_node16"><a xlink:href="RaIO_8hpp.html" target="_top" xlink:title="IO/RaIO.hpp">
<polygon fill="white" stroke="black" points="367,-168.5 367,-187.5 438,-187.5 438,-168.5 367,-168.5"/>
<text text-anchor="middle" x="402.5" y="-175.5" font-family="Helvetica,sans-Serif" font-size="10.00">IO/RaIO.hpp</text>
</a>
</g>
</g>
<!-- Node1&#45;&gt;Node16 -->
<g id="edge15" class="edge"><title>Node1&#45;&gt;Node16</title>
<path fill="none" stroke="midnightblue" d="M330.302,-224.446C347.117,-213.862 366.062,-201.936 380.326,-192.958"/>
<polygon fill="midnightblue" stroke="midnightblue" points="382.355,-195.816 388.954,-187.527 378.626,-189.892 382.355,-195.816"/>
</g>
<!-- Node17 -->
<g id="node17" class="node"><title>Node17</title>
<polygon fill="white" stroke="#bfbfbf" points="456.5,-168.5 456.5,-187.5 488.5,-187.5 488.5,-168.5 456.5,-168.5"/>
<text text-anchor="middle" x="472.5" y="-175.5" font-family="Helvetica,sans-Serif" font-size="10.00">set</text>
</g>
<!-- Node1&#45;&gt;Node17 -->
<g id="edge18" class="edge"><title>Node1&#45;&gt;Node17</title>
<path fill="none" stroke="midnightblue" d="M355.179,-224.446C386.827,-212.187 423.122,-198.127 446.858,-188.933"/>
<polygon fill="midnightblue" stroke="midnightblue" points="448.151,-192.186 456.211,-185.31 445.622,-185.658 448.151,-192.186"/>
</g>
<!-- Node2&#45;&gt;Node3 -->
<g id="edge2" class="edge"><title>Node2&#45;&gt;Node3</title>
<path fill="none" stroke="midnightblue" d="M114.112,-168.324C97.8287,-159.703 72.6325,-146.364 53.7837,-136.386"/>
<polygon fill="midnightblue" stroke="midnightblue" points="55.3229,-133.24 44.8474,-131.655 52.0477,-139.427 55.3229,-133.24"/>
</g>
<!-- Node4 -->
<g id="node4" class="node"><title>Node4</title>
<polygon fill="white" stroke="#bfbfbf" points="75,-112.5 75,-131.5 122,-131.5 122,-112.5 75,-112.5"/>
<text text-anchor="middle" x="98.5" y="-119.5" font-family="Helvetica,sans-Serif" font-size="10.00">vector</text>
</g>
<!-- Node2&#45;&gt;Node4 -->
<g id="edge3" class="edge"><title>Node2&#45;&gt;Node4</title>
<path fill="none" stroke="midnightblue" d="M125.216,-168.083C120.789,-160.613 114.337,-149.724 108.882,-140.52"/>
<polygon fill="midnightblue" stroke="midnightblue" points="111.795,-138.57 103.686,-131.751 105.773,-142.138 111.795,-138.57"/>
</g>
<!-- Node6 -->
<g id="node6" class="node"><title>Node6</title>
<g id="a_node6"><a xlink:href="RaCore_8hpp.html" target="_top" xlink:title="Core/RaCore.hpp">
<polygon fill="white" stroke="black" points="140.5,-112.5 140.5,-131.5 238.5,-131.5 238.5,-112.5 140.5,-112.5"/>
<text text-anchor="middle" x="189.5" y="-119.5" font-family="Helvetica,sans-Serif" font-size="10.00">Core/RaCore.hpp</text>
</a>
</g>
</g>
<!-- Node5&#45;&gt;Node6 -->
<g id="edge5" class="edge"><title>Node5&#45;&gt;Node6</title>
<path fill="none" stroke="midnightblue" d="M274.273,-168.324C258.149,-159.703 233.2,-146.364 214.536,-136.386"/>
<polygon fill="midnightblue" stroke="midnightblue" points="216.156,-133.283 205.687,-131.655 212.856,-139.456 216.156,-133.283"/>
</g>
<!-- Node13 -->
<g id="node13" class="node"><title>Node13</title>
<polygon fill="white" stroke="#bfbfbf" points="256.5,-112.5 256.5,-131.5 324.5,-131.5 324.5,-112.5 256.5,-112.5"/>
<text text-anchor="middle" x="290.5" y="-119.5" font-family="Helvetica,sans-Serif" font-size="10.00">Eigen/Core</text>
</g>
<!-- Node5&#45;&gt;Node13 -->
<g id="edge12" class="edge"><title>Node5&#45;&gt;Node13</title>
<path fill="none" stroke="midnightblue" d="M290.5,-168.083C290.5,-161.006 290.5,-150.861 290.5,-141.986"/>
<polygon fill="midnightblue" stroke="midnightblue" points="294,-141.751 290.5,-131.751 287,-141.751 294,-141.751"/>
</g>
<!-- Node14 -->
<g id="node14" class="node"><title>Node14</title>
<polygon fill="white" stroke="#bfbfbf" points="342.5,-112.5 342.5,-131.5 436.5,-131.5 436.5,-112.5 342.5,-112.5"/>
<text text-anchor="middle" x="389.5" y="-119.5" font-family="Helvetica,sans-Serif" font-size="10.00">Eigen/Geometry</text>
</g>
<!-- Node5&#45;&gt;Node14 -->
<g id="edge13" class="edge"><title>Node5&#45;&gt;Node14</title>
<path fill="none" stroke="midnightblue" d="M306.406,-168.324C322.138,-159.743 346.442,-146.486 364.709,-136.522"/>
<polygon fill="midnightblue" stroke="midnightblue" points="366.53,-139.516 373.633,-131.655 363.178,-133.37 366.53,-139.516"/>
</g>
<!-- Node15 -->
<g id="node15" class="node"><title>Node15</title>
<polygon fill="white" stroke="#bfbfbf" points="454.5,-112.5 454.5,-131.5 534.5,-131.5 534.5,-112.5 454.5,-112.5"/>
<text text-anchor="middle" x="494.5" y="-119.5" font-family="Helvetica,sans-Serif" font-size="10.00">Eigen/Sparse</text>
</g>
<!-- Node5&#45;&gt;Node15 -->
<g id="edge14" class="edge"><title>Node5&#45;&gt;Node15</title>
<path fill="none" stroke="midnightblue" d="M322.824,-168.444C357.889,-159.162 413.998,-144.309 452.465,-134.127"/>
<polygon fill="midnightblue" stroke="midnightblue" points="453.555,-137.459 462.327,-131.516 451.764,-130.692 453.555,-137.459"/>
</g>
<!-- Node7 -->
<g id="node7" class="node"><title>Node7</title>
<g id="a_node7"><a xlink:href="CoreMacros_8hpp.html" target="_top" xlink:title="Core/CoreMacros.hpp">
<polygon fill="white" stroke="black" points="315.5,-56.5 315.5,-75.5 435.5,-75.5 435.5,-56.5 315.5,-56.5"/>
<text text-anchor="middle" x="375.5" y="-63.5" font-family="Helvetica,sans-Serif" font-size="10.00">Core/CoreMacros.hpp</text>
</a>
</g>
</g>
<!-- Node6&#45;&gt;Node7 -->
<g id="edge6" class="edge"><title>Node6&#45;&gt;Node7</title>
<path fill="none" stroke="midnightblue" d="M218.972,-112.444C250.671,-103.241 301.232,-88.5617 336.275,-78.3879"/>
<polygon fill="midnightblue" stroke="midnightblue" points="337.538,-81.6658 346.166,-75.5164 335.586,-74.9434 337.538,-81.6658"/>
</g>
<!-- Node8 -->
<g id="node8" class="node"><title>Node8</title>
<polygon fill="white" stroke="#bfbfbf" points="212.5,-0.5 212.5,-19.5 264.5,-19.5 264.5,-0.5 212.5,-0.5"/>
<text text-anchor="middle" x="238.5" y="-7.5" font-family="Helvetica,sans-Serif" font-size="10.00">cassert</text>
</g>
<!-- Node7&#45;&gt;Node8 -->
<g id="edge7" class="edge"><title>Node7&#45;&gt;Node8</title>
<path fill="none" stroke="midnightblue" d="M353.792,-56.4435C331.145,-47.5171 295.428,-33.4387 269.748,-23.3168"/>
<polygon fill="midnightblue" stroke="midnightblue" points="270.693,-19.9273 260.106,-19.5164 268.126,-26.4397 270.693,-19.9273"/>
</g>
<!-- Node9 -->
<g id="node9" class="node"><title>Node9</title>
<polygon fill="white" stroke="#bfbfbf" points="283,-0.5 283,-19.5 328,-19.5 328,-0.5 283,-0.5"/>
<text text-anchor="middle" x="305.5" y="-7.5" font-family="Helvetica,sans-Serif" font-size="10.00">cstdio</text>
</g>
<!-- Node7&#45;&gt;Node9 -->
<g id="edge8" class="edge"><title>Node7&#45;&gt;Node9</title>
<path fill="none" stroke="midnightblue" d="M364.253,-56.324C353.703,-48.1849 337.699,-35.8395 325.058,-26.0874"/>
<polygon fill="midnightblue" stroke="midnightblue" points="327.007,-23.1707 316.951,-19.8339 322.731,-28.7132 327.007,-23.1707"/>
</g>
<!-- Node10 -->
<g id="node10" class="node"><title>Node10</title>
<polygon fill="white" stroke="#bfbfbf" points="346,-0.5 346,-19.5 405,-19.5 405,-0.5 346,-0.5"/>
<text text-anchor="middle" x="375.5" y="-7.5" font-family="Helvetica,sans-Serif" font-size="10.00">iostream</text>
</g>
<!-- Node7&#45;&gt;Node10 -->
<g id="edge9" class="edge"><title>Node7&#45;&gt;Node10</title>
<path fill="none" stroke="midnightblue" d="M375.5,-56.083C375.5,-49.0059 375.5,-38.8611 375.5,-29.9865"/>
<polygon fill="midnightblue" stroke="midnightblue" points="379,-29.751 375.5,-19.7511 372,-29.7511 379,-29.751"/>
</g>
<!-- Node11 -->
<g id="node11" class="node"><title>Node11</title>
<polygon fill="white" stroke="#bfbfbf" points="423.5,-0.5 423.5,-19.5 479.5,-19.5 479.5,-0.5 423.5,-0.5"/>
<text text-anchor="middle" x="451.5" y="-7.5" font-family="Helvetica,sans-Serif" font-size="10.00">sstream</text>
</g>
<!-- Node7&#45;&gt;Node11 -->
<g id="edge10" class="edge"><title>Node7&#45;&gt;Node11</title>
<path fill="none" stroke="midnightblue" d="M387.711,-56.324C399.276,-48.1066 416.875,-35.6017 430.661,-25.8069"/>
<polygon fill="midnightblue" stroke="midnightblue" points="432.943,-28.4791 439.067,-19.8339 428.888,-22.7729 432.943,-28.4791"/>
</g>
<!-- Node12 -->
<g id="node12" class="node"><title>Node12</title>
<polygon fill="white" stroke="#bfbfbf" points="497.5,-0.5 497.5,-19.5 545.5,-19.5 545.5,-0.5 497.5,-0.5"/>
<text text-anchor="middle" x="521.5" y="-7.5" font-family="Helvetica,sans-Serif" font-size="10.00">thread</text>
</g>
<!-- Node7&#45;&gt;Node12 -->
<g id="edge11" class="edge"><title>Node7&#45;&gt;Node12</title>
<path fill="none" stroke="midnightblue" d="M398.634,-56.4435C422.982,-47.4381 461.507,-33.1891 488.923,-23.049"/>
<polygon fill="midnightblue" stroke="midnightblue" points="490.309,-26.2681 498.474,-19.5164 487.881,-19.7028 490.309,-26.2681"/>
</g>
<!-- Node16&#45;&gt;Node7 -->
<g id="edge16" class="edge"><title>Node16&#45;&gt;Node7</title>
<path fill="none" stroke="midnightblue" d="M436.321,-168.436C475.93,-158.069 537.001,-140.896 543.5,-132 548.744,-124.822 548.912,-119.052 543.5,-112 531.23,-96.0113 486.075,-84.4611 445.667,-77.0681"/>
<polygon fill="midnightblue" stroke="midnightblue" points="446.246,-73.6163 435.789,-75.324 445.028,-80.5096 446.246,-73.6163"/>
</g>
</g>
</svg>
