<?xml version="1.0" encoding="UTF-8" standalone="no"?>
<!DOCTYPE svg PUBLIC "-//W3C//DTD SVG 1.1//EN"
 "http://www.w3.org/Graphics/SVG/1.1/DTD/svg11.dtd">
<!-- Generated by graphviz version 2.38.0 (20140413.2041)
 -->
<!-- Title: /home/travis/build/STORM&#45;IRIT/Radium&#45;Engine/src/IO/AssimpLoader/AssimpFileLoader.hpp Pages: 1 -->
<svg width="527pt" height="285pt"
 viewBox="0.00 0.00 527.00 285.00" xmlns="http://www.w3.org/2000/svg" xmlns:xlink="http://www.w3.org/1999/xlink">
<g id="graph0" class="graph" transform="scale(1 1) rotate(0) translate(4 281)">
<title>/home/travis/build/STORM&#45;IRIT/Radium&#45;Engine/src/IO/AssimpLoader/AssimpFileLoader.hpp</title>
<polygon fill="white" stroke="none" points="-4,4 -4,-281 523,-281 523,4 -4,4"/>
<!-- Node1 -->
<g id="node1" class="node"><title>Node1</title>
<polygon fill="#bfbfbf" stroke="black" points="140.5,-224.5 140.5,-276.5 311.5,-276.5 311.5,-224.5 140.5,-224.5"/>
<text text-anchor="start" x="148.5" y="-264.5" font-family="Helvetica,sans-Serif" font-size="10.00">/home/travis/build</text>
<text text-anchor="start" x="148.5" y="-253.5" font-family="Helvetica,sans-Serif" font-size="10.00">/STORM&#45;IRIT/Radium&#45;Engine</text>
<text text-anchor="start" x="148.5" y="-242.5" font-family="Helvetica,sans-Serif" font-size="10.00">/src/IO/AssimpLoader/AssimpFile</text>
<text text-anchor="middle" x="226" y="-231.5" font-family="Helvetica,sans-Serif" font-size="10.00">Loader.hpp</text>
</g>
<!-- Node2 -->
<g id="node2" class="node"><title>Node2</title>
<polygon fill="white" stroke="#bfbfbf" points="0,-168.5 0,-187.5 116,-187.5 116,-168.5 0,-168.5"/>
<text text-anchor="middle" x="58" y="-175.5" font-family="Helvetica,sans-Serif" font-size="10.00">assimp/Importer.hpp</text>
</g>
<!-- Node1&#45;&gt;Node2 -->
<g id="edge1" class="edge"><title>Node1&#45;&gt;Node2</title>
<path fill="none" stroke="midnightblue" d="M166.296,-224.446C139.634,-213.257 109.398,-200.569 87.664,-191.448"/>
<polygon fill="midnightblue" stroke="midnightblue" points="88.895,-188.169 78.3196,-187.527 86.1862,-194.624 88.895,-188.169"/>
</g>
<!-- Node3 -->
<g id="node3" class="node"><title>Node3</title>
<g id="a_node3"><a xlink:href="FileLoaderInterface_8hpp.html" target="_top" xlink:title="Core/Asset/FileLoaderInterface.hpp">
<polygon fill="white" stroke="black" points="134.5,-168.5 134.5,-187.5 317.5,-187.5 317.5,-168.5 134.5,-168.5"/>
<text text-anchor="middle" x="226" y="-175.5" font-family="Helvetica,sans-Serif" font-size="10.00">Core/Asset/FileLoaderInterface.hpp</text>
</a>
</g>
</g>
<!-- Node1&#45;&gt;Node3 -->
<g id="edge2" class="edge"><title>Node1&#45;&gt;Node3</title>
<path fill="none" stroke="midnightblue" d="M226,-224.446C226,-215.73 226,-206.104 226,-197.964"/>
<polygon fill="midnightblue" stroke="midnightblue" points="229.5,-197.695 226,-187.695 222.5,-197.696 229.5,-197.695"/>
</g>
<!-- Node13 -->
<g id="node13" class="node"><title>Node13</title>
<g id="a_node13"><a xlink:href="RaIO_8hpp.html" target="_top" xlink:title="IO/RaIO.hpp">
<polygon fill="white" stroke="black" points="341.5,-168.5 341.5,-187.5 412.5,-187.5 412.5,-168.5 341.5,-168.5"/>
<text text-anchor="middle" x="377" y="-175.5" font-family="Helvetica,sans-Serif" font-size="10.00">IO/RaIO.hpp</text>
</a>
</g>
</g>
<!-- Node1&#45;&gt;Node13 -->
<g id="edge12" class="edge"><title>Node1&#45;&gt;Node13</title>
<path fill="none" stroke="midnightblue" d="M279.662,-224.446C303.303,-213.408 330.069,-200.912 349.542,-191.82"/>
<polygon fill="midnightblue" stroke="midnightblue" points="351.156,-194.929 358.737,-187.527 348.195,-188.586 351.156,-194.929"/>
</g>
<!-- Node4 -->
<g id="node4" class="node"><title>Node4</title>
<polygon fill="white" stroke="#bfbfbf" points="134,-112.5 134,-131.5 178,-131.5 178,-112.5 134,-112.5"/>
<text text-anchor="middle" x="156" y="-119.5" font-family="Helvetica,sans-Serif" font-size="10.00">string</text>
</g>
<!-- Node3&#45;&gt;Node4 -->
<g id="edge3" class="edge"><title>Node3&#45;&gt;Node4</title>
<path fill="none" stroke="midnightblue" d="M214.753,-168.324C204.203,-160.185 188.199,-147.839 175.558,-138.087"/>
<polygon fill="midnightblue" stroke="midnightblue" points="177.507,-135.171 167.451,-131.834 173.231,-140.713 177.507,-135.171"/>
</g>
<!-- Node5 -->
<g id="node5" class="node"><title>Node5</title>
<polygon fill="white" stroke="#bfbfbf" points="196.5,-112.5 196.5,-131.5 243.5,-131.5 243.5,-112.5 196.5,-112.5"/>
<text text-anchor="middle" x="220" y="-119.5" font-family="Helvetica,sans-Serif" font-size="10.00">vector</text>
</g>
<!-- Node3&#45;&gt;Node5 -->
<g id="edge4" class="edge"><title>Node3&#45;&gt;Node5</title>
<path fill="none" stroke="midnightblue" d="M225.009,-168.083C224.214,-160.927 223.071,-150.635 222.077,-141.691"/>
<polygon fill="midnightblue" stroke="midnightblue" points="225.555,-141.303 220.972,-131.751 218.598,-142.076 225.555,-141.303"/>
</g>
<!-- Node6 -->
<g id="node6" class="node"><title>Node6</title>
<g id="a_node6"><a xlink:href="RaCore_8hpp.html" target="_top" xlink:title="Core/RaCore.hpp">
<polygon fill="white" stroke="black" points="262,-112.5 262,-131.5 360,-131.5 360,-112.5 262,-112.5"/>
<text text-anchor="middle" x="311" y="-119.5" font-family="Helvetica,sans-Serif" font-size="10.00">Core/RaCore.hpp</text>
</a>
</g>
</g>
<!-- Node3&#45;&gt;Node6 -->
<g id="edge5" class="edge"><title>Node3&#45;&gt;Node6</title>
<path fill="none" stroke="midnightblue" d="M239.657,-168.324C252.916,-159.9 273.268,-146.971 288.846,-137.074"/>
<polygon fill="midnightblue" stroke="midnightblue" points="290.813,-139.971 297.377,-131.655 287.06,-134.063 290.813,-139.971"/>
</g>
<!-- Node7 -->
<g id="node7" class="node"><title>Node7</title>
<g id="a_node7"><a xlink:href="CoreMacros_8hpp.html" target="_top" xlink:title="Core/CoreMacros.hpp">
<polygon fill="white" stroke="black" points="289,-56.5 289,-75.5 409,-75.5 409,-56.5 289,-56.5"/>
<text text-anchor="middle" x="349" y="-63.5" font-family="Helvetica,sans-Serif" font-size="10.00">Core/CoreMacros.hpp</text>
</a>
</g>
</g>
<!-- Node6&#45;&gt;Node7 -->
<g id="edge6" class="edge"><title>Node6&#45;&gt;Node7</title>
<path fill="none" stroke="midnightblue" d="M317.275,-112.083C322.642,-104.455 330.518,-93.2645 337.079,-83.9408"/>
<polygon fill="midnightblue" stroke="midnightblue" points="339.949,-85.9434 342.842,-75.7511 334.225,-81.9149 339.949,-85.9434"/>
</g>
<!-- Node8 -->
<g id="node8" class="node"><title>Node8</title>
<polygon fill="white" stroke="#bfbfbf" points="186,-0.5 186,-19.5 238,-19.5 238,-0.5 186,-0.5"/>
<text text-anchor="middle" x="212" y="-7.5" font-family="Helvetica,sans-Serif" font-size="10.00">cassert</text>
</g>
<!-- Node7&#45;&gt;Node8 -->
<g id="edge7" class="edge"><title>Node7&#45;&gt;Node8</title>
<path fill="none" stroke="midnightblue" d="M327.292,-56.4435C304.645,-47.5171 268.928,-33.4387 243.248,-23.3168"/>
<polygon fill="midnightblue" stroke="midnightblue" points="244.193,-19.9273 233.606,-19.5164 241.626,-26.4397 244.193,-19.9273"/>
</g>
<!-- Node9 -->
<g id="node9" class="node"><title>Node9</title>
<polygon fill="white" stroke="#bfbfbf" points="256.5,-0.5 256.5,-19.5 301.5,-19.5 301.5,-0.5 256.5,-0.5"/>
<text text-anchor="middle" x="279" y="-7.5" font-family="Helvetica,sans-Serif" font-size="10.00">cstdio</text>
</g>
<!-- Node7&#45;&gt;Node9 -->
<g id="edge8" class="edge"><title>Node7&#45;&gt;Node9</title>
<path fill="none" stroke="midnightblue" d="M337.753,-56.324C327.203,-48.1849 311.199,-35.8395 298.558,-26.0874"/>
<polygon fill="midnightblue" stroke="midnightblue" points="300.507,-23.1707 290.451,-19.8339 296.231,-28.7132 300.507,-23.1707"/>
</g>
<!-- Node10 -->
<g id="node10" class="node"><title>Node10</title>
<polygon fill="white" stroke="#bfbfbf" points="319.5,-0.5 319.5,-19.5 378.5,-19.5 378.5,-0.5 319.5,-0.5"/>
<text text-anchor="middle" x="349" y="-7.5" font-family="Helvetica,sans-Serif" font-size="10.00">iostream</text>
</g>
<!-- Node7&#45;&gt;Node10 -->
<g id="edge9" class="edge"><title>Node7&#45;&gt;Node10</title>
<path fill="none" stroke="midnightblue" d="M349,-56.083C349,-49.0059 349,-38.8611 349,-29.9865"/>
<polygon fill="midnightblue" stroke="midnightblue" points="352.5,-29.751 349,-19.7511 345.5,-29.7511 352.5,-29.751"/>
</g>
<!-- Node11 -->
<g id="node11" class="node"><title>Node11</title>
<polygon fill="white" stroke="#bfbfbf" points="397,-0.5 397,-19.5 453,-19.5 453,-0.5 397,-0.5"/>
<text text-anchor="middle" x="425" y="-7.5" font-family="Helvetica,sans-Serif" font-size="10.00">sstream</text>
</g>
<!-- Node7&#45;&gt;Node11 -->
<g id="edge10" class="edge"><title>Node7&#45;&gt;Node11</title>
<path fill="none" stroke="midnightblue" d="M361.211,-56.324C372.776,-48.1066 390.375,-35.6017 404.161,-25.8069"/>
<polygon fill="midnightblue" stroke="midnightblue" points="406.443,-28.4791 412.567,-19.8339 402.388,-22.7729 406.443,-28.4791"/>
</g>
<!-- Node12 -->
<g id="node12" class="node"><title>Node12</title>
<polygon fill="white" stroke="#bfbfbf" points="471,-0.5 471,-19.5 519,-19.5 519,-0.5 471,-0.5"/>
<text text-anchor="middle" x="495" y="-7.5" font-family="Helvetica,sans-Serif" font-size="10.00">thread</text>
</g>
<!-- Node7&#45;&gt;Node12 -->
<g id="edge11" class="edge"><title>Node7&#45;&gt;Node12</title>
<path fill="none" stroke="midnightblue" d="M372.134,-56.4435C396.482,-47.4381 435.007,-33.1891 462.423,-23.049"/>
<polygon fill="midnightblue" stroke="midnightblue" points="463.809,-26.2681 471.974,-19.5164 461.381,-19.7028 463.809,-26.2681"/>
</g>
<!-- Node13&#45;&gt;Node7 -->
<g id="edge13" class="edge"><title>Node13&#45;&gt;Node7</title>
<path fill="none" stroke="midnightblue" d="M376.749,-168.43C376.2,-155.845 374.466,-131.722 369,-112 366.431,-102.731 362.258,-92.9186 358.386,-84.8299"/>
<polygon fill="midnightblue" stroke="midnightblue" points="361.404,-83.0409 353.787,-75.6771 355.15,-86.1839 361.404,-83.0409"/>
</g>
</g>
</svg>
