<?xml version="1.0" encoding="UTF-8" standalone="no"?>
<!DOCTYPE svg PUBLIC "-//W3C//DTD SVG 1.1//EN"
 "http://www.w3.org/Graphics/SVG/1.1/DTD/svg11.dtd">
<!-- Generated by graphviz version 2.38.0 (20140413.2041)
 -->
<!-- Title: /home/travis/build/STORM&#45;IRIT/Radium&#45;Engine/src/IO/AssimpLoader/AssimpHandleDataLoader.cpp Pages: 1 -->
<svg width="1725pt" height="419pt"
 viewBox="0.00 0.00 1725.00 419.00" xmlns="http://www.w3.org/2000/svg" xmlns:xlink="http://www.w3.org/1999/xlink">
<g id="graph0" class="graph" transform="scale(1 1) rotate(0) translate(4 415)">
<title>/home/travis/build/STORM&#45;IRIT/Radium&#45;Engine/src/IO/AssimpLoader/AssimpHandleDataLoader.cpp</title>
<polygon fill="white" stroke="none" points="-4,4 -4,-415 1721,-415 1721,4 -4,4"/>
<!-- Node1 -->
<g id="node1" class="node"><title>Node1</title>
<polygon fill="#bfbfbf" stroke="black" points="813.5,-358.5 813.5,-410.5 1003.5,-410.5 1003.5,-358.5 813.5,-358.5"/>
<text text-anchor="start" x="821.5" y="-398.5" font-family="Helvetica,sans-Serif" font-size="10.00">/home/travis/build</text>
<text text-anchor="start" x="821.5" y="-387.5" font-family="Helvetica,sans-Serif" font-size="10.00">/STORM&#45;IRIT/Radium&#45;Engine</text>
<text text-anchor="start" x="821.5" y="-376.5" font-family="Helvetica,sans-Serif" font-size="10.00">/src/IO/AssimpLoader/AssimpHandle</text>
<text text-anchor="middle" x="908.5" y="-365.5" font-family="Helvetica,sans-Serif" font-size="10.00">DataLoader.cpp</text>
</g>
<!-- Node2 -->
<g id="node2" class="node"><title>Node2</title>
<g id="a_node2"><a xlink:href="AssimpHandleDataLoader_8hpp.html" target="_top" xlink:title="IO/AssimpLoader/AssimpHandle\lDataLoader.hpp">
<polygon fill="white" stroke="black" points="763.5,-291.5 763.5,-321.5 933.5,-321.5 933.5,-291.5 763.5,-291.5"/>
<text text-anchor="start" x="771.5" y="-309.5" font-family="Helvetica,sans-Serif" font-size="10.00">IO/AssimpLoader/AssimpHandle</text>
<text text-anchor="middle" x="848.5" y="-298.5" font-family="Helvetica,sans-Serif" font-size="10.00">DataLoader.hpp</text>
</a>
</g>
</g>
<!-- Node1&#45;&gt;Node2 -->
<g id="edge1" class="edge"><title>Node1&#45;&gt;Node2</title>
<path fill="none" stroke="midnightblue" d="M888.521,-358.193C881.287,-349.031 873.176,-338.756 866.156,-329.865"/>
<polygon fill="midnightblue" stroke="midnightblue" points="868.769,-327.525 859.825,-321.845 863.275,-331.863 868.769,-327.525"/>
</g>
<!-- Node4 -->
<g id="node4" class="node"><title>Node4</title>
<polygon fill="white" stroke="#bfbfbf" points="958.5,-230 958.5,-249 990.5,-249 990.5,-230 958.5,-230"/>
<text text-anchor="middle" x="974.5" y="-237" font-family="Helvetica,sans-Serif" font-size="10.00">set</text>
</g>
<!-- Node1&#45;&gt;Node4 -->
<g id="edge22" class="edge"><title>Node1&#45;&gt;Node4</title>
<path fill="none" stroke="midnightblue" d="M923.32,-358.455C929.579,-347.444 936.737,-334.255 942.5,-322 952.476,-300.786 962.046,-275.555 968.078,-258.845"/>
<polygon fill="midnightblue" stroke="midnightblue" points="971.447,-259.817 971.5,-249.222 964.852,-257.471 971.447,-259.817"/>
</g>
<!-- Node20 -->
<g id="node20" class="node"><title>Node20</title>
<polygon fill="white" stroke="#bfbfbf" points="1247.5,-297 1247.5,-316 1337.5,-316 1337.5,-297 1247.5,-297"/>
<text text-anchor="middle" x="1292.5" y="-304" font-family="Helvetica,sans-Serif" font-size="10.00">assimp/mesh.h</text>
</g>
<!-- Node1&#45;&gt;Node20 -->
<g id="edge20" class="edge"><title>Node1&#45;&gt;Node20</title>
<path fill="none" stroke="midnightblue" d="M1003.54,-367.626C1069.45,-356.156 1159.13,-339.632 1237.5,-322 1242.19,-320.945 1247.09,-319.766 1251.94,-318.55"/>
<polygon fill="midnightblue" stroke="midnightblue" points="1252.95,-321.905 1261.76,-316.027 1251.21,-315.125 1252.95,-321.905"/>
</g>
<!-- Node21 -->
<g id="node21" class="node"><title>Node21</title>
<polygon fill="white" stroke="#bfbfbf" points="1355.5,-297 1355.5,-316 1447.5,-316 1447.5,-297 1355.5,-297"/>
<text text-anchor="middle" x="1401.5" y="-304" font-family="Helvetica,sans-Serif" font-size="10.00">assimp/scene.h</text>
</g>
<!-- Node1&#45;&gt;Node21 -->
<g id="edge21" class="edge"><title>Node1&#45;&gt;Node21</title>
<path fill="none" stroke="midnightblue" d="M1003.89,-373.401C1092.99,-363.191 1229.44,-345.562 1346.5,-322 1351.51,-320.991 1356.75,-319.796 1361.92,-318.533"/>
<polygon fill="midnightblue" stroke="midnightblue" points="1362.85,-321.906 1371.68,-316.049 1361.12,-315.123 1362.85,-321.906"/>
</g>
<!-- Node22 -->
<g id="node22" class="node"><title>Node22</title>
<g id="a_node22"><a xlink:href="HandleData_8hpp.html" target="_top" xlink:title="Core/Asset/HandleData.hpp">
<polygon fill="white" stroke="black" points="308.5,-297 308.5,-316 458.5,-316 458.5,-297 308.5,-297"/>
<text text-anchor="middle" x="383.5" y="-304" font-family="Helvetica,sans-Serif" font-size="10.00">Core/Asset/HandleData.hpp</text>
</a>
</g>
</g>
<!-- Node1&#45;&gt;Node22 -->
<g id="edge23" class="edge"><title>Node1&#45;&gt;Node22</title>
<path fill="none" stroke="midnightblue" d="M813.426,-369.737C709.327,-354.667 544.938,-330.87 452.511,-317.49"/>
<polygon fill="midnightblue" stroke="midnightblue" points="452.825,-313.999 442.427,-316.03 451.822,-320.927 452.825,-313.999"/>
</g>
<!-- Node24 -->
<g id="node24" class="node"><title>Node24</title>
<g id="a_node24"><a xlink:href="AlignedStdVector_8hpp.html" target="_top" xlink:title="Core/Containers/AlignedStd\lVector.hpp">
<polygon fill="white" stroke="black" points="360,-224.5 360,-254.5 509,-254.5 509,-224.5 360,-224.5"/>
<text text-anchor="start" x="368" y="-242.5" font-family="Helvetica,sans-Serif" font-size="10.00">Core/Containers/AlignedStd</text>
<text text-anchor="middle" x="434.5" y="-231.5" font-family="Helvetica,sans-Serif" font-size="10.00">Vector.hpp</text>
</a>
</g>
</g>
<!-- Node1&#45;&gt;Node24 -->
<g id="edge44" class="edge"><title>Node1&#45;&gt;Node24</title>
<path fill="none" stroke="midnightblue" d="M825.393,-358.428C729.333,-329.448 573.849,-282.54 490.887,-257.511"/>
<polygon fill="midnightblue" stroke="midnightblue" points="491.723,-254.108 481.138,-254.57 489.701,-260.809 491.723,-254.108"/>
</g>
<!-- Node28 -->
<g id="node28" class="node"><title>Node28</title>
<g id="a_node28"><a xlink:href="Log_8hpp.html" target="_top" xlink:title="Core/Utils/Log.hpp">
<polygon fill="white" stroke="black" points="25.5,-168.5 25.5,-187.5 129.5,-187.5 129.5,-168.5 25.5,-168.5"/>
<text text-anchor="middle" x="77.5" y="-175.5" font-family="Helvetica,sans-Serif" font-size="10.00">Core/Utils/Log.hpp</text>
</a>
</g>
</g>
<!-- Node1&#45;&gt;Node28 -->
<g id="edge45" class="edge"><title>Node1&#45;&gt;Node28</title>
<path fill="none" stroke="midnightblue" d="M813.127,-377.061C593.207,-361.206 65.544,-317.011 16.5,-255 7.95323,-244.194 10.2897,-236.299 16.5,-224 23.3069,-210.52 36.2677,-200.083 48.4979,-192.67"/>
<polygon fill="midnightblue" stroke="midnightblue" points="50.5698,-195.521 57.5939,-187.59 47.1566,-189.41 50.5698,-195.521"/>
</g>
<!-- Node31 -->
<g id="node31" class="node"><title>Node31</title>
<g id="a_node31"><a xlink:href="AssimpWrapper_8hpp.html" target="_top" xlink:title="IO/AssimpLoader/AssimpWrapper.hpp">
<polygon fill="white" stroke="black" points="1034,-297 1034,-316 1229,-316 1229,-297 1034,-297"/>
<text text-anchor="middle" x="1131.5" y="-304" font-family="Helvetica,sans-Serif" font-size="10.00">IO/AssimpLoader/AssimpWrapper.hpp</text>
</a>
</g>
</g>
<!-- Node1&#45;&gt;Node31 -->
<g id="edge46" class="edge"><title>Node1&#45;&gt;Node31</title>
<path fill="none" stroke="midnightblue" d="M982.137,-358.404C1020.66,-345.274 1066.03,-329.812 1096.57,-319.404"/>
<polygon fill="midnightblue" stroke="midnightblue" points="1097.99,-322.617 1106.33,-316.078 1095.74,-315.991 1097.99,-322.617"/>
</g>
<!-- Node3 -->
<g id="node3" class="node"><title>Node3</title>
<polygon fill="white" stroke="#bfbfbf" points="564.5,-230 564.5,-249 602.5,-249 602.5,-230 564.5,-230"/>
<text text-anchor="middle" x="583.5" y="-237" font-family="Helvetica,sans-Serif" font-size="10.00">map</text>
</g>
<!-- Node2&#45;&gt;Node3 -->
<g id="edge2" class="edge"><title>Node2&#45;&gt;Node3</title>
<path fill="none" stroke="midnightblue" d="M763.432,-293.478C717.292,-285.468 659.783,-273.043 610.5,-255 609.292,-254.558 608.07,-254.069 606.85,-253.548"/>
<polygon fill="midnightblue" stroke="midnightblue" points="608.245,-250.335 597.722,-249.109 605.184,-256.63 608.245,-250.335"/>
</g>
<!-- Node2&#45;&gt;Node4 -->
<g id="edge3" class="edge"><title>Node2&#45;&gt;Node4</title>
<path fill="none" stroke="midnightblue" d="M875.84,-291.396C897.682,-280.128 928.052,-264.461 949.308,-253.496"/>
<polygon fill="midnightblue" stroke="midnightblue" points="951.087,-256.516 958.37,-248.821 947.878,-250.295 951.087,-256.516"/>
</g>
<!-- Node5 -->
<g id="node5" class="node"><title>Node5</title>
<g id="a_node5"><a xlink:href="DataLoader_8hpp.html" target="_top" xlink:title="Core/Asset/DataLoader.hpp">
<polygon fill="white" stroke="black" points="620,-230 620,-249 769,-249 769,-230 620,-230"/>
<text text-anchor="middle" x="694.5" y="-237" font-family="Helvetica,sans-Serif" font-size="10.00">Core/Asset/DataLoader.hpp</text>
</a>
</g>
</g>
<!-- Node2&#45;&gt;Node5 -->
<g id="edge4" class="edge"><title>Node2&#45;&gt;Node5</title>
<path fill="none" stroke="midnightblue" d="M815.084,-291.396C787.944,-279.941 750.031,-263.938 724.002,-252.952"/>
<polygon fill="midnightblue" stroke="midnightblue" points="725.229,-249.671 714.655,-249.007 722.507,-256.12 725.229,-249.671"/>
</g>
<!-- Node8 -->
<g id="node8" class="node"><title>Node8</title>
<g id="a_node8"><a xlink:href="Types_8hpp.html" target="_top" xlink:title="Core/Math/Types.hpp">
<polygon fill="white" stroke="black" points="786.5,-230 786.5,-249 902.5,-249 902.5,-230 786.5,-230"/>
<text text-anchor="middle" x="844.5" y="-237" font-family="Helvetica,sans-Serif" font-size="10.00">Core/Math/Types.hpp</text>
</a>
</g>
</g>
<!-- Node2&#45;&gt;Node8 -->
<g id="edge7" class="edge"><title>Node2&#45;&gt;Node8</title>
<path fill="none" stroke="midnightblue" d="M847.632,-291.396C847.052,-281.963 846.281,-269.448 845.65,-259.189"/>
<polygon fill="midnightblue" stroke="midnightblue" points="849.143,-258.961 845.035,-249.195 842.156,-259.391 849.143,-258.961"/>
</g>
<!-- Node19 -->
<g id="node19" class="node"><title>Node19</title>
<g id="a_node19"><a xlink:href="RaIO_8hpp.html" target="_top" xlink:title="IO/RaIO.hpp">
<polygon fill="white" stroke="black" points="972,-112.5 972,-131.5 1043,-131.5 1043,-112.5 972,-112.5"/>
<text text-anchor="middle" x="1007.5" y="-119.5" font-family="Helvetica,sans-Serif" font-size="10.00">IO/RaIO.hpp</text>
</a>
</g>
</g>
<!-- Node2&#45;&gt;Node19 -->
<g id="edge18" class="edge"><title>Node2&#45;&gt;Node19</title>
<path fill="none" stroke="midnightblue" d="M866.184,-291.391C878.829,-281.286 896.24,-267.34 911.5,-255 928.448,-241.295 932.082,-237.102 949.5,-224 971.963,-207.103 987.323,-212.272 1001.5,-188 1009.63,-174.086 1010.58,-155.576 1009.82,-141.868"/>
<polygon fill="midnightblue" stroke="midnightblue" points="1013.28,-141.333 1008.89,-131.689 1006.31,-141.964 1013.28,-141.333"/>
</g>
<!-- Node6 -->
<g id="node6" class="node"><title>Node6</title>
<polygon fill="white" stroke="#bfbfbf" points="601,-168.5 601,-187.5 658,-187.5 658,-168.5 601,-168.5"/>
<text text-anchor="middle" x="629.5" y="-175.5" font-family="Helvetica,sans-Serif" font-size="10.00">memory</text>
</g>
<!-- Node5&#45;&gt;Node6 -->
<g id="edge5" class="edge"><title>Node5&#45;&gt;Node6</title>
<path fill="none" stroke="midnightblue" d="M685.187,-229.975C675.051,-220.697 658.636,-205.671 646.248,-194.331"/>
<polygon fill="midnightblue" stroke="midnightblue" points="648.535,-191.68 638.796,-187.509 643.809,-196.843 648.535,-191.68"/>
</g>
<!-- Node7 -->
<g id="node7" class="node"><title>Node7</title>
<polygon fill="white" stroke="#bfbfbf" points="536,-168.5 536,-187.5 583,-187.5 583,-168.5 536,-168.5"/>
<text text-anchor="middle" x="559.5" y="-175.5" font-family="Helvetica,sans-Serif" font-size="10.00">vector</text>
</g>
<!-- Node5&#45;&gt;Node7 -->
<g id="edge6" class="edge"><title>Node5&#45;&gt;Node7</title>
<path fill="none" stroke="midnightblue" d="M675.158,-229.975C652.401,-219.945 614.408,-203.2 588.212,-191.655"/>
<polygon fill="midnightblue" stroke="midnightblue" points="589.369,-188.339 578.806,-187.509 586.545,-194.745 589.369,-188.339"/>
</g>
<!-- Node9 -->
<g id="node9" class="node"><title>Node9</title>
<g id="a_node9"><a xlink:href="RaCore_8hpp.html" target="_top" xlink:title="Core/RaCore.hpp">
<polygon fill="white" stroke="black" points="383.5,-112.5 383.5,-131.5 481.5,-131.5 481.5,-112.5 383.5,-112.5"/>
<text text-anchor="middle" x="432.5" y="-119.5" font-family="Helvetica,sans-Serif" font-size="10.00">Core/RaCore.hpp</text>
</a>
</g>
</g>
<!-- Node8&#45;&gt;Node9 -->
<g id="edge8" class="edge"><title>Node8&#45;&gt;Node9</title>
<path fill="none" stroke="midnightblue" d="M817.984,-229.971C789.725,-220.626 743.863,-204.727 705.5,-188 687.644,-180.214 684.916,-174.348 666.5,-168 608.808,-148.115 539.91,-136.205 491.875,-129.682"/>
<polygon fill="midnightblue" stroke="midnightblue" points="492.325,-126.211 481.953,-128.371 491.408,-133.151 492.325,-126.211"/>
</g>
<!-- Node16 -->
<g id="node16" class="node"><title>Node16</title>
<polygon fill="white" stroke="#bfbfbf" points="812.5,-168.5 812.5,-187.5 880.5,-187.5 880.5,-168.5 812.5,-168.5"/>
<text text-anchor="middle" x="846.5" y="-175.5" font-family="Helvetica,sans-Serif" font-size="10.00">Eigen/Core</text>
</g>
<!-- Node8&#45;&gt;Node16 -->
<g id="edge15" class="edge"><title>Node8&#45;&gt;Node16</title>
<path fill="none" stroke="midnightblue" d="M844.787,-229.975C845.069,-221.58 845.509,-208.481 845.873,-197.663"/>
<polygon fill="midnightblue" stroke="midnightblue" points="849.376,-197.621 846.214,-187.509 842.38,-197.386 849.376,-197.621"/>
</g>
<!-- Node17 -->
<g id="node17" class="node"><title>Node17</title>
<polygon fill="white" stroke="#bfbfbf" points="898.5,-168.5 898.5,-187.5 992.5,-187.5 992.5,-168.5 898.5,-168.5"/>
<text text-anchor="middle" x="945.5" y="-175.5" font-family="Helvetica,sans-Serif" font-size="10.00">Eigen/Geometry</text>
</g>
<!-- Node8&#45;&gt;Node17 -->
<g id="edge16" class="edge"><title>Node8&#45;&gt;Node17</title>
<path fill="none" stroke="midnightblue" d="M858.971,-229.975C875.471,-220.255 902.678,-204.227 922.181,-192.737"/>
<polygon fill="midnightblue" stroke="midnightblue" points="924.216,-195.601 931.056,-187.509 920.663,-189.569 924.216,-195.601"/>
</g>
<!-- Node18 -->
<g id="node18" class="node"><title>Node18</title>
<polygon fill="white" stroke="#bfbfbf" points="714.5,-168.5 714.5,-187.5 794.5,-187.5 794.5,-168.5 714.5,-168.5"/>
<text text-anchor="middle" x="754.5" y="-175.5" font-family="Helvetica,sans-Serif" font-size="10.00">Eigen/Sparse</text>
</g>
<!-- Node8&#45;&gt;Node18 -->
<g id="edge17" class="edge"><title>Node8&#45;&gt;Node18</title>
<path fill="none" stroke="midnightblue" d="M831.605,-229.975C817.036,-220.343 793.098,-204.517 775.755,-193.052"/>
<polygon fill="midnightblue" stroke="midnightblue" points="777.643,-190.104 767.371,-187.509 773.783,-195.944 777.643,-190.104"/>
</g>
<!-- Node10 -->
<g id="node10" class="node"><title>Node10</title>
<g id="a_node10"><a xlink:href="CoreMacros_8hpp.html" target="_top" xlink:title="Core/CoreMacros.hpp">
<polygon fill="white" stroke="black" points="659.5,-56.5 659.5,-75.5 779.5,-75.5 779.5,-56.5 659.5,-56.5"/>
<text text-anchor="middle" x="719.5" y="-63.5" font-family="Helvetica,sans-Serif" font-size="10.00">Core/CoreMacros.hpp</text>
</a>
</g>
</g>
<!-- Node9&#45;&gt;Node10 -->
<g id="edge9" class="edge"><title>Node9&#45;&gt;Node10</title>
<path fill="none" stroke="midnightblue" d="M477.976,-112.444C528.462,-102.944 609.956,-87.611 664.12,-77.4198"/>
<polygon fill="midnightblue" stroke="midnightblue" points="665.056,-80.8052 674.237,-75.5164 663.762,-73.9259 665.056,-80.8052"/>
</g>
<!-- Node11 -->
<g id="node11" class="node"><title>Node11</title>
<polygon fill="white" stroke="#bfbfbf" points="797.5,-0.5 797.5,-19.5 849.5,-19.5 849.5,-0.5 797.5,-0.5"/>
<text text-anchor="middle" x="823.5" y="-7.5" font-family="Helvetica,sans-Serif" font-size="10.00">cassert</text>
</g>
<!-- Node10&#45;&gt;Node11 -->
<g id="edge10" class="edge"><title>Node10&#45;&gt;Node11</title>
<path fill="none" stroke="midnightblue" d="M736.209,-56.324C752.812,-47.7034 778.502,-34.3643 797.72,-24.3855"/>
<polygon fill="midnightblue" stroke="midnightblue" points="799.57,-27.3689 806.832,-19.6545 796.344,-21.1565 799.57,-27.3689"/>
</g>
<!-- Node12 -->
<g id="node12" class="node"><title>Node12</title>
<polygon fill="white" stroke="#bfbfbf" points="591,-0.5 591,-19.5 636,-19.5 636,-0.5 591,-0.5"/>
<text text-anchor="middle" x="613.5" y="-7.5" font-family="Helvetica,sans-Serif" font-size="10.00">cstdio</text>
</g>
<!-- Node10&#45;&gt;Node12 -->
<g id="edge11" class="edge"><title>Node10&#45;&gt;Node12</title>
<path fill="none" stroke="midnightblue" d="M702.469,-56.324C685.47,-47.6641 659.124,-34.2424 639.507,-24.249"/>
<polygon fill="midnightblue" stroke="midnightblue" points="640.988,-21.0752 630.488,-19.6545 637.81,-27.3125 640.988,-21.0752"/>
</g>
<!-- Node13 -->
<g id="node13" class="node"><title>Node13</title>
<polygon fill="white" stroke="#bfbfbf" points="654,-0.5 654,-19.5 713,-19.5 713,-0.5 654,-0.5"/>
<text text-anchor="middle" x="683.5" y="-7.5" font-family="Helvetica,sans-Serif" font-size="10.00">iostream</text>
</g>
<!-- Node10&#45;&gt;Node13 -->
<g id="edge12" class="edge"><title>Node10&#45;&gt;Node13</title>
<path fill="none" stroke="midnightblue" d="M713.555,-56.083C708.523,-48.5341 701.163,-37.4948 694.987,-28.2298"/>
<polygon fill="midnightblue" stroke="midnightblue" points="697.793,-26.1301 689.334,-19.7511 691.969,-30.0131 697.793,-26.1301"/>
</g>
<!-- Node14 -->
<g id="node14" class="node"><title>Node14</title>
<polygon fill="white" stroke="#bfbfbf" points="283.5,-0.5 283.5,-19.5 339.5,-19.5 339.5,-0.5 283.5,-0.5"/>
<text text-anchor="middle" x="311.5" y="-7.5" font-family="Helvetica,sans-Serif" font-size="10.00">sstream</text>
</g>
<!-- Node10&#45;&gt;Node14 -->
<g id="edge13" class="edge"><title>Node10&#45;&gt;Node14</title>
<path fill="none" stroke="midnightblue" d="M659.298,-57.0321C574.329,-45.7862 421.642,-25.5777 350.262,-16.1302"/>
<polygon fill="midnightblue" stroke="midnightblue" points="350.304,-12.6054 339.932,-14.763 349.386,-19.5449 350.304,-12.6054"/>
</g>
<!-- Node15 -->
<g id="node15" class="node"><title>Node15</title>
<polygon fill="white" stroke="#bfbfbf" points="731.5,-0.5 731.5,-19.5 779.5,-19.5 779.5,-0.5 731.5,-0.5"/>
<text text-anchor="middle" x="755.5" y="-7.5" font-family="Helvetica,sans-Serif" font-size="10.00">thread</text>
</g>
<!-- Node10&#45;&gt;Node15 -->
<g id="edge14" class="edge"><title>Node10&#45;&gt;Node15</title>
<path fill="none" stroke="midnightblue" d="M725.445,-56.083C730.477,-48.5341 737.837,-37.4948 744.013,-28.2298"/>
<polygon fill="midnightblue" stroke="midnightblue" points="747.031,-30.0131 749.666,-19.7511 741.207,-26.1301 747.031,-30.0131"/>
</g>
<!-- Node19&#45;&gt;Node10 -->
<g id="edge19" class="edge"><title>Node19&#45;&gt;Node10</title>
<path fill="none" stroke="midnightblue" d="M971.897,-114.324C922.632,-105.087 833.191,-88.3171 775.084,-77.4221"/>
<polygon fill="midnightblue" stroke="midnightblue" points="775.446,-73.929 764.972,-75.5261 774.156,-80.8091 775.446,-73.929"/>
</g>
<!-- Node22&#45;&gt;Node3 -->
<g id="edge24" class="edge"><title>Node22&#45;&gt;Node3</title>
<path fill="none" stroke="midnightblue" d="M415.895,-296.951C449.822,-287.709 504.47,-272.002 550.5,-255 552.155,-254.389 553.845,-253.736 555.543,-253.059"/>
<polygon fill="midnightblue" stroke="midnightblue" points="557.292,-256.121 565.16,-249.026 554.584,-249.666 557.292,-256.121"/>
</g>
<!-- Node22&#45;&gt;Node7 -->
<g id="edge26" class="edge"><title>Node22&#45;&gt;Node7</title>
<path fill="none" stroke="midnightblue" d="M428.311,-296.955C456.506,-289.705 492.211,-276.876 517.5,-255 535.363,-239.547 547.093,-214.541 553.506,-197.464"/>
<polygon fill="midnightblue" stroke="midnightblue" points="556.97,-198.162 556.964,-187.567 550.361,-195.854 556.97,-198.162"/>
</g>
<!-- Node22&#45;&gt;Node8 -->
<g id="edge31" class="edge"><title>Node22&#45;&gt;Node8</title>
<path fill="none" stroke="midnightblue" d="M458.584,-297.812C538.072,-289.222 667.057,-273.993 777.5,-255 784.12,-253.862 791.077,-252.52 797.901,-251.121"/>
<polygon fill="midnightblue" stroke="midnightblue" points="798.686,-254.533 807.75,-249.047 797.243,-247.683 798.686,-254.533"/>
</g>
<!-- Node22&#45;&gt;Node9 -->
<g id="edge32" class="edge"><title>Node22&#45;&gt;Node9</title>
<path fill="none" stroke="midnightblue" d="M375.677,-297C367.566,-287.557 355.402,-271.462 350.5,-255 346.568,-241.795 347.529,-237.454 350.5,-224 356.417,-197.205 359.583,-189.606 376.5,-168 385.843,-156.067 398.934,-145.323 410.11,-137.329"/>
<polygon fill="midnightblue" stroke="midnightblue" points="412.287,-140.079 418.553,-131.536 408.327,-134.307 412.287,-140.079"/>
</g>
<!-- Node23 -->
<g id="node23" class="node"><title>Node23</title>
<polygon fill="white" stroke="#bfbfbf" points="167.5,-112.5 167.5,-131.5 211.5,-131.5 211.5,-112.5 167.5,-112.5"/>
<text text-anchor="middle" x="189.5" y="-119.5" font-family="Helvetica,sans-Serif" font-size="10.00">string</text>
</g>
<!-- Node22&#45;&gt;Node23 -->
<g id="edge25" class="edge"><title>Node22&#45;&gt;Node23</title>
<path fill="none" stroke="midnightblue" d="M346.419,-296.899C297.242,-283.259 212.477,-251.445 176.5,-188 168.267,-173.481 173.535,-154.551 179.649,-140.868"/>
<polygon fill="midnightblue" stroke="midnightblue" points="182.947,-142.097 184.279,-131.587 176.683,-138.972 182.947,-142.097"/>
</g>
<!-- Node22&#45;&gt;Node24 -->
<g id="edge27" class="edge"><title>Node22&#45;&gt;Node24</title>
<path fill="none" stroke="midnightblue" d="M390.378,-296.734C397.204,-288.034 407.945,-274.345 417.12,-262.651"/>
<polygon fill="midnightblue" stroke="midnightblue" points="420.026,-264.617 423.446,-254.589 414.519,-260.296 420.026,-264.617"/>
</g>
<!-- Node26 -->
<g id="node26" class="node"><title>Node26</title>
<g id="a_node26"><a xlink:href="AssetData_8hpp.html" target="_top" xlink:title="Core/Asset/AssetData.hpp">
<polygon fill="white" stroke="black" points="186,-168.5 186,-187.5 329,-187.5 329,-168.5 186,-168.5"/>
<text text-anchor="middle" x="257.5" y="-175.5" font-family="Helvetica,sans-Serif" font-size="10.00">Core/Asset/AssetData.hpp</text>
</a>
</g>
</g>
<!-- Node22&#45;&gt;Node26 -->
<g id="edge33" class="edge"><title>Node22&#45;&gt;Node26</title>
<path fill="none" stroke="midnightblue" d="M370.821,-296.991C357.181,-287.542 335.202,-271.44 318.5,-255 299.55,-236.348 280.878,-211.955 269.284,-195.899"/>
<polygon fill="midnightblue" stroke="midnightblue" points="271.972,-193.64 263.327,-187.515 266.266,-197.694 271.972,-193.64"/>
</g>
<!-- Node27 -->
<g id="node27" class="node"><title>Node27</title>
<g id="a_node27"><a xlink:href="HandleData_8inl.html" target="_top" xlink:title="Core/Asset/HandleData.inl">
<polygon fill="white" stroke="black" points="26,-230 26,-249 169,-249 169,-230 26,-230"/>
<text text-anchor="middle" x="97.5" y="-237" font-family="Helvetica,sans-Serif" font-size="10.00">Core/Asset/HandleData.inl</text>
</a>
</g>
</g>
<!-- Node22&#45;&gt;Node27 -->
<g id="edge36" class="edge"><title>Node22&#45;&gt;Node27</title>
<path fill="none" stroke="midnightblue" d="M341.071,-296.936C287.119,-285.244 194.723,-264.28 140.504,-251.457"/>
<polygon fill="midnightblue" stroke="midnightblue" points="141.056,-247.99 130.517,-249.083 139.437,-254.801 141.056,-247.99"/>
</g>
<!-- Node24&#45;&gt;Node7 -->
<g id="edge30" class="edge"><title>Node24&#45;&gt;Node7</title>
<path fill="none" stroke="midnightblue" d="M464.123,-224.399C484.722,-214.595 511.98,-201.619 532.08,-192.052"/>
<polygon fill="midnightblue" stroke="midnightblue" points="533.786,-195.116 541.311,-187.658 530.778,-188.796 533.786,-195.116"/>
</g>
<!-- Node24&#45;&gt;Node9 -->
<g id="edge28" class="edge"><title>Node24&#45;&gt;Node9</title>
<path fill="none" stroke="midnightblue" d="M457.486,-224.253C476.09,-210.769 497.664,-189.448 487.5,-168 481.372,-155.068 469.506,-144.617 458.359,-137.053"/>
<polygon fill="midnightblue" stroke="midnightblue" points="460.028,-133.968 449.698,-131.614 456.305,-139.896 460.028,-133.968"/>
</g>
<!-- Node25 -->
<g id="node25" class="node"><title>Node25</title>
<polygon fill="white" stroke="#bfbfbf" points="386,-168.5 386,-187.5 479,-187.5 479,-168.5 386,-168.5"/>
<text text-anchor="middle" x="432.5" y="-175.5" font-family="Helvetica,sans-Serif" font-size="10.00">Eigen/StdVector</text>
</g>
<!-- Node24&#45;&gt;Node25 -->
<g id="edge29" class="edge"><title>Node24&#45;&gt;Node25</title>
<path fill="none" stroke="midnightblue" d="M434.026,-224.399C433.759,-216.466 433.423,-206.458 433.134,-197.858"/>
<polygon fill="midnightblue" stroke="midnightblue" points="436.625,-197.535 432.791,-187.658 429.629,-197.77 436.625,-197.535"/>
</g>
<!-- Node26&#45;&gt;Node9 -->
<g id="edge34" class="edge"><title>Node26&#45;&gt;Node9</title>
<path fill="none" stroke="midnightblue" d="M285.229,-168.444C314.926,-159.28 362.216,-144.688 395.169,-134.519"/>
<polygon fill="midnightblue" stroke="midnightblue" points="396.377,-137.809 404.9,-131.516 394.313,-131.121 396.377,-137.809"/>
</g>
<!-- Node26&#45;&gt;Node23 -->
<g id="edge35" class="edge"><title>Node26&#45;&gt;Node23</title>
<path fill="none" stroke="midnightblue" d="M246.575,-168.324C236.325,-160.185 220.779,-147.839 208.499,-138.087"/>
<polygon fill="midnightblue" stroke="midnightblue" points="210.632,-135.312 200.624,-131.834 206.279,-140.794 210.632,-135.312"/>
</g>
<!-- Node27&#45;&gt;Node22 -->
<g id="edge37" class="edge"><title>Node27&#45;&gt;Node22</title>
<path fill="none" stroke="midnightblue" d="M140.017,-249.083C194.01,-260.785 286.407,-281.75 340.584,-294.564"/>
<polygon fill="midnightblue" stroke="midnightblue" points="340.024,-298.028 350.562,-296.936 341.642,-291.218 340.024,-298.028"/>
</g>
<!-- Node27&#45;&gt;Node28 -->
<g id="edge38" class="edge"><title>Node27&#45;&gt;Node28</title>
<path fill="none" stroke="midnightblue" d="M94.6345,-229.975C91.783,-221.492 87.3166,-208.204 83.6587,-197.322"/>
<polygon fill="midnightblue" stroke="midnightblue" points="86.864,-195.873 80.3602,-187.509 80.2288,-198.103 86.864,-195.873"/>
</g>
<!-- Node28&#45;&gt;Node9 -->
<g id="edge39" class="edge"><title>Node28&#45;&gt;Node9</title>
<path fill="none" stroke="midnightblue" d="M129.5,-169.09C194.347,-159.226 304.948,-142.402 373.077,-132.039"/>
<polygon fill="midnightblue" stroke="midnightblue" points="373.862,-135.46 383.222,-130.496 372.809,-128.54 373.862,-135.46"/>
</g>
<!-- Node28&#45;&gt;Node14 -->
<g id="edge41" class="edge"><title>Node28&#45;&gt;Node14</title>
<path fill="none" stroke="midnightblue" d="M77.8249,-168.367C78.7712,-154.823 82.4318,-128.434 96.5,-112 142.974,-57.7127 225.042,-30.6421 273.224,-18.8163"/>
<polygon fill="midnightblue" stroke="midnightblue" points="274.323,-22.1532 283.255,-16.4546 272.719,-15.3395 274.323,-22.1532"/>
</g>
<!-- Node28&#45;&gt;Node23 -->
<g id="edge43" class="edge"><title>Node28&#45;&gt;Node23</title>
<path fill="none" stroke="midnightblue" d="M95.4947,-168.324C113.538,-159.625 141.547,-146.12 162.303,-136.113"/>
<polygon fill="midnightblue" stroke="midnightblue" points="164.062,-139.15 171.55,-131.655 161.022,-132.845 164.062,-139.15"/>
</g>
<!-- Node29 -->
<g id="node29" class="node"><title>Node29</title>
<polygon fill="white" stroke="#bfbfbf" points="105.5,-112.5 105.5,-131.5 149.5,-131.5 149.5,-112.5 105.5,-112.5"/>
<text text-anchor="middle" x="127.5" y="-119.5" font-family="Helvetica,sans-Serif" font-size="10.00">ctime</text>
</g>
<!-- Node28&#45;&gt;Node29 -->
<g id="edge40" class="edge"><title>Node28&#45;&gt;Node29</title>
<path fill="none" stroke="midnightblue" d="M85.7565,-168.083C92.9647,-160.298 103.61,-148.801 112.346,-139.367"/>
<polygon fill="midnightblue" stroke="midnightblue" points="115.171,-141.467 119.397,-131.751 110.035,-136.711 115.171,-141.467"/>
</g>
<!-- Node30 -->
<g id="node30" class="node"><title>Node30</title>
<polygon fill="white" stroke="#bfbfbf" points="0,-112.5 0,-131.5 49,-131.5 49,-112.5 0,-112.5"/>
<text text-anchor="middle" x="24.5" y="-119.5" font-family="Helvetica,sans-Serif" font-size="10.00">stdio.h</text>
</g>
<!-- Node28&#45;&gt;Node30 -->
<g id="edge42" class="edge"><title>Node28&#45;&gt;Node30</title>
<path fill="none" stroke="midnightblue" d="M68.7481,-168.083C61.0303,-160.22 49.5953,-148.569 40.2835,-139.081"/>
<polygon fill="midnightblue" stroke="midnightblue" points="42.5916,-136.436 33.089,-131.751 37.5958,-141.34 42.5916,-136.436"/>
</g>
<!-- Node31&#45;&gt;Node8 -->
<g id="edge52" class="edge"><title>Node31&#45;&gt;Node8</title>
<path fill="none" stroke="midnightblue" d="M1093.68,-296.936C1041.85,-285.196 948.726,-264.105 892.173,-251.297"/>
<polygon fill="midnightblue" stroke="midnightblue" points="892.925,-247.879 882.399,-249.083 891.379,-254.706 892.925,-247.879"/>
</g>
<!-- Node32 -->
<g id="node32" class="node"><title>Node32</title>
<polygon fill="white" stroke="#bfbfbf" points="1362.5,-230 1362.5,-249 1454.5,-249 1454.5,-230 1362.5,-230"/>
<text text-anchor="middle" x="1408.5" y="-237" font-family="Helvetica,sans-Serif" font-size="10.00">assimp/color4.h</text>
</g>
<!-- Node31&#45;&gt;Node32 -->
<g id="edge47" class="edge"><title>Node31&#45;&gt;Node32</title>
<path fill="none" stroke="midnightblue" d="M1170.3,-296.987C1214.5,-287.209 1288.83,-270.513 1352.5,-255 1356.96,-253.914 1361.61,-252.754 1366.24,-251.581"/>
<polygon fill="midnightblue" stroke="midnightblue" points="1367.44,-254.885 1376.26,-249.016 1365.71,-248.104 1367.44,-254.885"/>
</g>
<!-- Node33 -->
<g id="node33" class="node"><title>Node33</title>
<polygon fill="white" stroke="#bfbfbf" points="1473,-230 1473,-249 1584,-249 1584,-230 1473,-230"/>
<text text-anchor="middle" x="1528.5" y="-237" font-family="Helvetica,sans-Serif" font-size="10.00">assimp/matrix4x4.h</text>
</g>
<!-- Node31&#45;&gt;Node33 -->
<g id="edge48" class="edge"><title>Node31&#45;&gt;Node33</title>
<path fill="none" stroke="midnightblue" d="M1190.98,-296.954C1271.91,-285.238 1412.5,-264.556 1463.5,-255 1469.62,-253.854 1476.03,-252.549 1482.35,-251.203"/>
<polygon fill="midnightblue" stroke="midnightblue" points="1483.12,-254.617 1492.15,-249.07 1481.63,-247.778 1483.12,-254.617"/>
</g>
<!-- Node34 -->
<g id="node34" class="node"><title>Node34</title>
<polygon fill="white" stroke="#bfbfbf" points="1602,-230 1602,-249 1717,-249 1717,-230 1602,-230"/>
<text text-anchor="middle" x="1659.5" y="-237" font-family="Helvetica,sans-Serif" font-size="10.00">assimp/quaternion.h</text>
</g>
<!-- Node31&#45;&gt;Node34 -->
<g id="edge49" class="edge"><title>Node31&#45;&gt;Node34</title>
<path fill="none" stroke="midnightblue" d="M1191.72,-296.981C1206.97,-294.922 1223.33,-292.799 1238.5,-291 1395.54,-272.379 1436.31,-279.764 1592.5,-255 1599.29,-253.923 1606.43,-252.594 1613.41,-251.181"/>
<polygon fill="midnightblue" stroke="midnightblue" points="1614.41,-254.548 1623.48,-249.07 1612.97,-247.698 1614.41,-254.548"/>
</g>
<!-- Node35 -->
<g id="node35" class="node"><title>Node35</title>
<polygon fill="white" stroke="#bfbfbf" points="1009,-230 1009,-249 1098,-249 1098,-230 1009,-230"/>
<text text-anchor="middle" x="1053.5" y="-237" font-family="Helvetica,sans-Serif" font-size="10.00">assimp/types.h</text>
</g>
<!-- Node31&#45;&gt;Node35 -->
<g id="edge50" class="edge"><title>Node31&#45;&gt;Node35</title>
<path fill="none" stroke="midnightblue" d="M1120.98,-296.734C1108.35,-286.208 1086.96,-268.379 1071.64,-255.617"/>
<polygon fill="midnightblue" stroke="midnightblue" points="1073.78,-252.84 1063.85,-249.127 1069.29,-258.218 1073.78,-252.84"/>
</g>
<!-- Node36 -->
<g id="node36" class="node"><title>Node36</title>
<polygon fill="white" stroke="#bfbfbf" points="1116,-230 1116,-249 1215,-249 1215,-230 1116,-230"/>
<text text-anchor="middle" x="1165.5" y="-237" font-family="Helvetica,sans-Serif" font-size="10.00">assimp/vector3.h</text>
</g>
<!-- Node31&#45;&gt;Node36 -->
<g id="edge51" class="edge"><title>Node31&#45;&gt;Node36</title>
<path fill="none" stroke="midnightblue" d="M1136.09,-296.734C1141.23,-286.89 1149.72,-270.66 1156.26,-258.159"/>
<polygon fill="midnightblue" stroke="midnightblue" points="1159.45,-259.611 1160.99,-249.127 1153.25,-256.366 1159.45,-259.611"/>
</g>
<!-- Node37 -->
<g id="node37" class="node"><title>Node37</title>
<g id="a_node37"><a xlink:href="Color_8hpp.html" target="_top" xlink:title="Core/Utils/Color.hpp">
<polygon fill="white" stroke="black" points="1233,-230 1233,-249 1344,-249 1344,-230 1233,-230"/>
<text text-anchor="middle" x="1288.5" y="-237" font-family="Helvetica,sans-Serif" font-size="10.00">Core/Utils/Color.hpp</text>
</a>
</g>
</g>
<!-- Node31&#45;&gt;Node37 -->
<g id="edge53" class="edge"><title>Node31&#45;&gt;Node37</title>
<path fill="none" stroke="midnightblue" d="M1152.35,-296.869C1179.44,-285.65 1226.96,-265.977 1258.08,-253.092"/>
<polygon fill="midnightblue" stroke="midnightblue" points="1259.66,-256.226 1267.57,-249.167 1256.99,-249.759 1259.66,-256.226"/>
</g>
<!-- Node37&#45;&gt;Node10 -->
<g id="edge54" class="edge"><title>Node37&#45;&gt;Node10</title>
<path fill="none" stroke="midnightblue" d="M1276.36,-229.972C1242.57,-206.694 1143.81,-141.825 1051.5,-112 964.107,-83.7643 858.221,-73.2402 789.899,-69.3208"/>
<polygon fill="midnightblue" stroke="midnightblue" points="789.857,-65.8135 779.682,-68.7679 789.478,-72.8032 789.857,-65.8135"/>
</g>
<!-- Node37&#45;&gt;Node16 -->
<g id="edge55" class="edge"><title>Node37&#45;&gt;Node16</title>
<path fill="none" stroke="midnightblue" d="M1253.56,-229.95C1243.87,-227.785 1233.31,-225.618 1223.5,-224 1079.35,-200.23 1038.71,-210.84 890.623,-188.031"/>
<polygon fill="midnightblue" stroke="midnightblue" points="891.132,-184.568 880.711,-186.479 890.05,-191.483 891.132,-184.568"/>
</g>
<!-- Node37&#45;&gt;Node17 -->
<g id="edge56" class="edge"><title>Node37&#45;&gt;Node17</title>
<path fill="none" stroke="midnightblue" d="M1252.14,-229.991C1242.83,-227.921 1232.81,-225.79 1223.5,-224 1147.57,-209.398 1059.35,-195.663 1003.01,-187.297"/>
<polygon fill="midnightblue" stroke="midnightblue" points="1003.28,-183.798 992.871,-185.798 1002.25,-190.723 1003.28,-183.798"/>
</g>
<!-- Node38 -->
<g id="node38" class="node"><title>Node38</title>
<polygon fill="white" stroke="#bfbfbf" points="1261.5,-168.5 1261.5,-187.5 1315.5,-187.5 1315.5,-168.5 1261.5,-168.5"/>
<text text-anchor="middle" x="1288.5" y="-175.5" font-family="Helvetica,sans-Serif" font-size="10.00">random</text>
</g>
<!-- Node37&#45;&gt;Node38 -->
<g id="edge57" class="edge"><title>Node37&#45;&gt;Node38</title>
<path fill="none" stroke="midnightblue" d="M1288.5,-229.975C1288.5,-221.58 1288.5,-208.481 1288.5,-197.663"/>
<polygon fill="midnightblue" stroke="midnightblue" points="1292,-197.509 1288.5,-187.509 1285,-197.509 1292,-197.509"/>
</g>
</g>
</svg>
