<?xml version="1.0" encoding="UTF-8" standalone="no"?>
<!DOCTYPE svg PUBLIC "-//W3C//DTD SVG 1.1//EN"
 "http://www.w3.org/Graphics/SVG/1.1/DTD/svg11.dtd">
<!-- Generated by graphviz version 2.38.0 (20140413.2041)
 -->
<!-- Title: /home/travis/build/STORM&#45;IRIT/Radium&#45;Engine/src/IO/AssimpLoader/AssimpLightDataLoader.cpp Pages: 1 -->
<svg width="1490pt" height="464pt"
 viewBox="0.00 0.00 1490.18 464.00" xmlns="http://www.w3.org/2000/svg" xmlns:xlink="http://www.w3.org/1999/xlink">
<g id="graph0" class="graph" transform="scale(1 1) rotate(0) translate(4 460)">
<title>/home/travis/build/STORM&#45;IRIT/Radium&#45;Engine/src/IO/AssimpLoader/AssimpLightDataLoader.cpp</title>
<polygon fill="white" stroke="none" points="-4,4 -4,-460 1486.18,-460 1486.18,4 -4,4"/>
<!-- Node1 -->
<g id="node1" class="node"><title>Node1</title>
<polygon fill="#bfbfbf" stroke="black" points="282.183,-403.5 282.183,-455.5 461.183,-455.5 461.183,-403.5 282.183,-403.5"/>
<text text-anchor="start" x="290.183" y="-443.5" font-family="Helvetica,sans-Serif" font-size="10.00">/home/travis/build</text>
<text text-anchor="start" x="290.183" y="-432.5" font-family="Helvetica,sans-Serif" font-size="10.00">/STORM&#45;IRIT/Radium&#45;Engine</text>
<text text-anchor="start" x="290.183" y="-421.5" font-family="Helvetica,sans-Serif" font-size="10.00">/src/IO/AssimpLoader/AssimpLight</text>
<text text-anchor="middle" x="371.683" y="-410.5" font-family="Helvetica,sans-Serif" font-size="10.00">DataLoader.cpp</text>
</g>
<!-- Node2 -->
<g id="node2" class="node"><title>Node2</title>
<g id="a_node2"><a xlink:href="AssimpLightDataLoader_8hpp.html" target="_top" xlink:title="IO/AssimpLoader/AssimpLight\lDataLoader.hpp">
<polygon fill="white" stroke="black" points="239.183,-336.5 239.183,-366.5 398.183,-366.5 398.183,-336.5 239.183,-336.5"/>
<text text-anchor="start" x="247.183" y="-354.5" font-family="Helvetica,sans-Serif" font-size="10.00">IO/AssimpLoader/AssimpLight</text>
<text text-anchor="middle" x="318.683" y="-343.5" font-family="Helvetica,sans-Serif" font-size="10.00">DataLoader.hpp</text>
</a>
</g>
</g>
<!-- Node1&#45;&gt;Node2 -->
<g id="edge1" class="edge"><title>Node1&#45;&gt;Node2</title>
<path fill="none" stroke="midnightblue" d="M354.034,-403.193C347.711,-394.125 340.627,-383.968 334.471,-375.14"/>
<polygon fill="midnightblue" stroke="midnightblue" points="337.278,-373.046 328.686,-366.845 331.536,-377.05 337.278,-373.046"/>
</g>
<!-- Node21 -->
<g id="node21" class="node"><title>Node21</title>
<g id="a_node21"><a xlink:href="Log_8hpp.html" target="_top" xlink:title="Core/Utils/Log.hpp">
<polygon fill="white" stroke="black" points="97.6825,-168.5 97.6825,-187.5 201.683,-187.5 201.683,-168.5 97.6825,-168.5"/>
<text text-anchor="middle" x="149.683" y="-175.5" font-family="Helvetica,sans-Serif" font-size="10.00">Core/Utils/Log.hpp</text>
</a>
</g>
</g>
<!-- Node1&#45;&gt;Node21 -->
<g id="edge41" class="edge"><title>Node1&#45;&gt;Node21</title>
<path fill="none" stroke="midnightblue" d="M281.846,-421.391C200.163,-409.834 83.0096,-379.513 19.6825,-300 -1.44985,-273.466 -7.21156,-251.474 12.6825,-224 29.8131,-200.342 59.7851,-188.902 87.3355,-183.456"/>
<polygon fill="midnightblue" stroke="midnightblue" points="88.098,-186.876 97.3478,-181.71 86.895,-179.98 88.098,-186.876"/>
</g>
<!-- Node28 -->
<g id="node28" class="node"><title>Node28</title>
<polygon fill="white" stroke="#bfbfbf" points="453.683,-342 453.683,-361 545.683,-361 545.683,-342 453.683,-342"/>
<text text-anchor="middle" x="499.683" y="-349" font-family="Helvetica,sans-Serif" font-size="10.00">assimp/scene.h</text>
</g>
<!-- Node1&#45;&gt;Node28 -->
<g id="edge40" class="edge"><title>Node1&#45;&gt;Node28</title>
<path fill="none" stroke="midnightblue" d="M413.949,-403.404C434.716,-391.074 458.948,-376.686 476.341,-366.359"/>
<polygon fill="midnightblue" stroke="midnightblue" points="478.424,-369.193 485.236,-361.078 474.85,-363.174 478.424,-369.193"/>
</g>
<!-- Node29 -->
<g id="node29" class="node"><title>Node29</title>
<g id="a_node29"><a xlink:href="AssimpWrapper_8hpp.html" target="_top" xlink:title="IO/AssimpLoader/AssimpWrapper.hpp">
<polygon fill="white" stroke="black" points="937.183,-280.5 937.183,-299.5 1132.18,-299.5 1132.18,-280.5 937.183,-280.5"/>
<text text-anchor="middle" x="1034.68" y="-287.5" font-family="Helvetica,sans-Serif" font-size="10.00">IO/AssimpLoader/AssimpWrapper.hpp</text>
</a>
</g>
</g>
<!-- Node1&#45;&gt;Node29 -->
<g id="edge42" class="edge"><title>Node1&#45;&gt;Node29</title>
<path fill="none" stroke="midnightblue" d="M383.971,-403.202C396.107,-381.276 416.876,-350.81 444.683,-336 455.185,-330.406 759.727,-309.325 927.046,-298.114"/>
<polygon fill="midnightblue" stroke="midnightblue" points="927.381,-301.6 937.125,-297.44 926.914,-294.615 927.381,-301.6"/>
</g>
<!-- Node3 -->
<g id="node3" class="node"><title>Node3</title>
<g id="a_node3"><a xlink:href="DataLoader_8hpp.html" target="_top" xlink:title="Core/Asset/DataLoader.hpp">
<polygon fill="white" stroke="black" points="78.1825,-280.5 78.1825,-299.5 227.183,-299.5 227.183,-280.5 78.1825,-280.5"/>
<text text-anchor="middle" x="152.683" y="-287.5" font-family="Helvetica,sans-Serif" font-size="10.00">Core/Asset/DataLoader.hpp</text>
</a>
</g>
</g>
<!-- Node2&#45;&gt;Node3 -->
<g id="edge2" class="edge"><title>Node2&#45;&gt;Node3</title>
<path fill="none" stroke="midnightblue" d="M279.343,-336.399C251.118,-326.283 213.476,-312.791 186.578,-303.149"/>
<polygon fill="midnightblue" stroke="midnightblue" points="187.432,-299.737 176.837,-299.658 185.07,-306.327 187.432,-299.737"/>
</g>
<!-- Node6 -->
<g id="node6" class="node"><title>Node6</title>
<g id="a_node6"><a xlink:href="LightData_8hpp.html" target="_top" xlink:title="Core/Asset/LightData.hpp">
<polygon fill="white" stroke="black" points="248.683,-280.5 248.683,-299.5 388.683,-299.5 388.683,-280.5 248.683,-280.5"/>
<text text-anchor="middle" x="318.683" y="-287.5" font-family="Helvetica,sans-Serif" font-size="10.00">Core/Asset/LightData.hpp</text>
</a>
</g>
</g>
<!-- Node2&#45;&gt;Node6 -->
<g id="edge5" class="edge"><title>Node2&#45;&gt;Node6</title>
<path fill="none" stroke="midnightblue" d="M318.683,-336.399C318.683,-328.466 318.683,-318.458 318.683,-309.858"/>
<polygon fill="midnightblue" stroke="midnightblue" points="322.183,-309.658 318.683,-299.658 315.183,-309.658 322.183,-309.658"/>
</g>
<!-- Node24 -->
<g id="node24" class="node"><title>Node24</title>
<g id="a_node24"><a xlink:href="Types_8hpp.html" target="_top" xlink:title="Core/Math/Types.hpp">
<polygon fill="white" stroke="black" points="521.683,-224.5 521.683,-243.5 637.683,-243.5 637.683,-224.5 521.683,-224.5"/>
<text text-anchor="middle" x="579.683" y="-231.5" font-family="Helvetica,sans-Serif" font-size="10.00">Core/Math/Types.hpp</text>
</a>
</g>
</g>
<!-- Node2&#45;&gt;Node24 -->
<g id="edge32" class="edge"><title>Node2&#45;&gt;Node24</title>
<path fill="none" stroke="midnightblue" d="M350.425,-336.453C401.646,-313.786 501.746,-269.489 550.964,-247.709"/>
<polygon fill="midnightblue" stroke="midnightblue" points="552.651,-250.79 560.379,-243.542 549.818,-244.388 552.651,-250.79"/>
</g>
<!-- Node26 -->
<g id="node26" class="node"><title>Node26</title>
<g id="a_node26"><a xlink:href="RaIO_8hpp.html" target="_top" xlink:title="IO/RaIO.hpp">
<polygon fill="white" stroke="black" points="902.183,-112.5 902.183,-131.5 973.183,-131.5 973.183,-112.5 902.183,-112.5"/>
<text text-anchor="middle" x="937.683" y="-119.5" font-family="Helvetica,sans-Serif" font-size="10.00">IO/RaIO.hpp</text>
</a>
</g>
</g>
<!-- Node2&#45;&gt;Node26 -->
<g id="edge37" class="edge"><title>Node2&#45;&gt;Node26</title>
<path fill="none" stroke="midnightblue" d="M396.891,-336.458C528.36,-312.472 782.958,-264.24 819.683,-244 867.037,-217.902 907.359,-166.681 926.236,-140.027"/>
<polygon fill="midnightblue" stroke="midnightblue" points="929.182,-141.92 931.995,-131.705 923.426,-137.937 929.182,-141.92"/>
</g>
<!-- Node27 -->
<g id="node27" class="node"><title>Node27</title>
<polygon fill="white" stroke="#bfbfbf" points="28.6825,-280.5 28.6825,-299.5 60.6825,-299.5 60.6825,-280.5 28.6825,-280.5"/>
<text text-anchor="middle" x="44.6825" y="-287.5" font-family="Helvetica,sans-Serif" font-size="10.00">set</text>
</g>
<!-- Node2&#45;&gt;Node27 -->
<g id="edge39" class="edge"><title>Node2&#45;&gt;Node27</title>
<path fill="none" stroke="midnightblue" d="M239.088,-337.765C192.096,-329.466 131.404,-317.401 70.5908,-300.252"/>
<polygon fill="midnightblue" stroke="midnightblue" points="71.409,-296.845 60.8317,-297.455 69.4809,-303.574 71.409,-296.845"/>
</g>
<!-- Node4 -->
<g id="node4" class="node"><title>Node4</title>
<polygon fill="white" stroke="#bfbfbf" points="22.1825,-224.5 22.1825,-243.5 79.1825,-243.5 79.1825,-224.5 22.1825,-224.5"/>
<text text-anchor="middle" x="50.6825" y="-231.5" font-family="Helvetica,sans-Serif" font-size="10.00">memory</text>
</g>
<!-- Node3&#45;&gt;Node4 -->
<g id="edge3" class="edge"><title>Node3&#45;&gt;Node4</title>
<path fill="none" stroke="midnightblue" d="M136.294,-280.324C120.011,-271.703 94.8151,-258.364 75.9663,-248.386"/>
<polygon fill="midnightblue" stroke="midnightblue" points="77.5055,-245.24 67.0299,-243.655 74.2302,-251.427 77.5055,-245.24"/>
</g>
<!-- Node5 -->
<g id="node5" class="node"><title>Node5</title>
<polygon fill="white" stroke="#bfbfbf" points="97.1825,-224.5 97.1825,-243.5 144.183,-243.5 144.183,-224.5 97.1825,-224.5"/>
<text text-anchor="middle" x="120.683" y="-231.5" font-family="Helvetica,sans-Serif" font-size="10.00">vector</text>
</g>
<!-- Node3&#45;&gt;Node5 -->
<g id="edge4" class="edge"><title>Node3&#45;&gt;Node5</title>
<path fill="none" stroke="midnightblue" d="M147.398,-280.083C142.972,-272.613 136.519,-261.724 131.065,-252.52"/>
<polygon fill="midnightblue" stroke="midnightblue" points="133.977,-250.57 125.868,-243.751 127.955,-254.138 133.977,-250.57"/>
</g>
<!-- Node6&#45;&gt;Node4 -->
<g id="edge6" class="edge"><title>Node6&#45;&gt;Node4</title>
<path fill="none" stroke="midnightblue" d="M271.655,-280.497C227.077,-272.29 157.998,-259.192 89.4433,-244.315"/>
<polygon fill="midnightblue" stroke="midnightblue" points="89.852,-240.822 79.3355,-242.108 88.3584,-247.661 89.852,-240.822"/>
</g>
<!-- Node6&#45;&gt;Node5 -->
<g id="edge8" class="edge"><title>Node6&#45;&gt;Node5</title>
<path fill="none" stroke="midnightblue" d="M287.309,-280.444C251.028,-270.549 191.535,-254.323 154.32,-244.174"/>
<polygon fill="midnightblue" stroke="midnightblue" points="155.021,-240.737 144.452,-241.483 153.179,-247.491 155.021,-240.737"/>
</g>
<!-- Node7 -->
<g id="node7" class="node"><title>Node7</title>
<polygon fill="white" stroke="#bfbfbf" points="257.683,-112.5 257.683,-131.5 301.683,-131.5 301.683,-112.5 257.683,-112.5"/>
<text text-anchor="middle" x="279.683" y="-119.5" font-family="Helvetica,sans-Serif" font-size="10.00">string</text>
</g>
<!-- Node6&#45;&gt;Node7 -->
<g id="edge7" class="edge"><title>Node6&#45;&gt;Node7</title>
<path fill="none" stroke="midnightblue" d="M318.67,-280.18C318.235,-266.848 315.74,-241.288 303.683,-224 286.97,-200.037 262.577,-213.7 248.683,-188 239.82,-171.606 251.788,-152.266 263.334,-138.969"/>
<polygon fill="midnightblue" stroke="midnightblue" points="265.999,-141.243 270.278,-131.551 260.889,-136.459 265.999,-141.243"/>
</g>
<!-- Node8 -->
<g id="node8" class="node"><title>Node8</title>
<g id="a_node8"><a xlink:href="AssetData_8hpp.html" target="_top" xlink:title="Core/Asset/AssetData.hpp">
<polygon fill="white" stroke="black" points="258.183,-168.5 258.183,-187.5 401.183,-187.5 401.183,-168.5 258.183,-168.5"/>
<text text-anchor="middle" x="329.683" y="-175.5" font-family="Helvetica,sans-Serif" font-size="10.00">Core/Asset/AssetData.hpp</text>
</a>
</g>
</g>
<!-- Node6&#45;&gt;Node8 -->
<g id="edge9" class="edge"><title>Node6&#45;&gt;Node8</title>
<path fill="none" stroke="midnightblue" d="M323.304,-280.339C327.742,-271.493 334.137,-257.22 336.683,-244 339.637,-228.656 337.39,-211.017 334.681,-197.989"/>
<polygon fill="midnightblue" stroke="midnightblue" points="338.003,-196.829 332.3,-187.901 331.19,-198.437 338.003,-196.829"/>
</g>
<!-- Node9 -->
<g id="node9" class="node"><title>Node9</title>
<g id="a_node9"><a xlink:href="RaCore_8hpp.html" target="_top" xlink:title="Core/RaCore.hpp">
<polygon fill="white" stroke="black" points="380.683,-112.5 380.683,-131.5 478.683,-131.5 478.683,-112.5 380.683,-112.5"/>
<text text-anchor="middle" x="429.683" y="-119.5" font-family="Helvetica,sans-Serif" font-size="10.00">Core/RaCore.hpp</text>
</a>
</g>
</g>
<!-- Node6&#45;&gt;Node9 -->
<g id="edge18" class="edge"><title>Node6&#45;&gt;Node9</title>
<path fill="none" stroke="midnightblue" d="M329.002,-280.356C347.733,-264.135 387.443,-227.212 409.683,-188 417.874,-173.558 423.101,-155.369 426.149,-141.907"/>
<polygon fill="midnightblue" stroke="midnightblue" points="429.621,-142.398 428.213,-131.897 422.765,-140.984 429.621,-142.398"/>
</g>
<!-- Node16 -->
<g id="node16" class="node"><title>Node16</title>
<g id="a_node16"><a xlink:href="Color_8hpp.html" target="_top" xlink:title="Core/Utils/Color.hpp">
<polygon fill="white" stroke="black" points="700.183,-224.5 700.183,-243.5 811.183,-243.5 811.183,-224.5 700.183,-224.5"/>
<text text-anchor="middle" x="755.683" y="-231.5" font-family="Helvetica,sans-Serif" font-size="10.00">Core/Utils/Color.hpp</text>
</a>
</g>
</g>
<!-- Node6&#45;&gt;Node16 -->
<g id="edge19" class="edge"><title>Node6&#45;&gt;Node16</title>
<path fill="none" stroke="midnightblue" d="M387.926,-280.444C470.783,-270.205 608.489,-253.189 689.818,-243.139"/>
<polygon fill="midnightblue" stroke="midnightblue" points="690.44,-246.589 699.936,-241.889 689.582,-239.641 690.44,-246.589"/>
</g>
<!-- Node20 -->
<g id="node20" class="node"><title>Node20</title>
<g id="a_node20"><a xlink:href="LightData_8inl.html" target="_top" xlink:title="Core/Asset/LightData.inl">
<polygon fill="white" stroke="black" points="162.683,-224.5 162.683,-243.5 294.683,-243.5 294.683,-224.5 162.683,-224.5"/>
<text text-anchor="middle" x="228.683" y="-231.5" font-family="Helvetica,sans-Serif" font-size="10.00">Core/Asset/LightData.inl</text>
</a>
</g>
</g>
<!-- Node6&#45;&gt;Node20 -->
<g id="edge24" class="edge"><title>Node6&#45;&gt;Node20</title>
<path fill="none" stroke="midnightblue" d="M299.108,-280.324C283.393,-271.979 261.805,-259.212 246.56,-249.352"/>
<polygon fill="midnightblue" stroke="midnightblue" points="248.261,-246.28 237.997,-243.655 244.383,-252.108 248.261,-246.28"/>
</g>
<!-- Node8&#45;&gt;Node7 -->
<g id="edge17" class="edge"><title>Node8&#45;&gt;Node7</title>
<path fill="none" stroke="midnightblue" d="M321.426,-168.083C314.218,-160.298 303.573,-148.801 294.837,-139.367"/>
<polygon fill="midnightblue" stroke="midnightblue" points="297.148,-136.711 287.785,-131.751 292.011,-141.467 297.148,-136.711"/>
</g>
<!-- Node8&#45;&gt;Node9 -->
<g id="edge10" class="edge"><title>Node8&#45;&gt;Node9</title>
<path fill="none" stroke="midnightblue" d="M345.749,-168.324C361.64,-159.743 386.19,-146.486 404.641,-136.522"/>
<polygon fill="midnightblue" stroke="midnightblue" points="406.52,-139.486 413.656,-131.655 403.194,-133.326 406.52,-139.486"/>
</g>
<!-- Node10 -->
<g id="node10" class="node"><title>Node10</title>
<g id="a_node10"><a xlink:href="CoreMacros_8hpp.html" target="_top" xlink:title="Core/CoreMacros.hpp">
<polygon fill="white" stroke="black" points="591.683,-56.5 591.683,-75.5 711.683,-75.5 711.683,-56.5 591.683,-56.5"/>
<text text-anchor="middle" x="651.683" y="-63.5" font-family="Helvetica,sans-Serif" font-size="10.00">Core/CoreMacros.hpp</text>
</a>
</g>
</g>
<!-- Node9&#45;&gt;Node10 -->
<g id="edge11" class="edge"><title>Node9&#45;&gt;Node10</title>
<path fill="none" stroke="midnightblue" d="M464.859,-112.444C503.262,-103.102 564.858,-88.1194 606.738,-77.9326"/>
<polygon fill="midnightblue" stroke="midnightblue" points="607.781,-81.2809 616.671,-75.5164 606.127,-74.4792 607.781,-81.2809"/>
</g>
<!-- Node11 -->
<g id="node11" class="node"><title>Node11</title>
<polygon fill="white" stroke="#bfbfbf" points="659.683,-0.5 659.683,-19.5 711.683,-19.5 711.683,-0.5 659.683,-0.5"/>
<text text-anchor="middle" x="685.683" y="-7.5" font-family="Helvetica,sans-Serif" font-size="10.00">cassert</text>
</g>
<!-- Node10&#45;&gt;Node11 -->
<g id="edge12" class="edge"><title>Node10&#45;&gt;Node11</title>
<path fill="none" stroke="midnightblue" d="M657.297,-56.083C662.05,-48.5341 669.001,-37.4948 674.834,-28.2298"/>
<polygon fill="midnightblue" stroke="midnightblue" points="677.806,-30.0783 680.173,-19.7511 671.883,-26.3486 677.806,-30.0783"/>
</g>
<!-- Node12 -->
<g id="node12" class="node"><title>Node12</title>
<polygon fill="white" stroke="#bfbfbf" points="730.183,-0.5 730.183,-19.5 775.183,-19.5 775.183,-0.5 730.183,-0.5"/>
<text text-anchor="middle" x="752.683" y="-7.5" font-family="Helvetica,sans-Serif" font-size="10.00">cstdio</text>
</g>
<!-- Node10&#45;&gt;Node12 -->
<g id="edge13" class="edge"><title>Node10&#45;&gt;Node12</title>
<path fill="none" stroke="midnightblue" d="M667.91,-56.324C684.034,-47.7034 708.983,-34.3643 727.647,-24.3855"/>
<polygon fill="midnightblue" stroke="midnightblue" points="729.327,-27.456 736.495,-19.6545 726.026,-21.283 729.327,-27.456"/>
</g>
<!-- Node13 -->
<g id="node13" class="node"><title>Node13</title>
<polygon fill="white" stroke="#bfbfbf" points="516.183,-0.5 516.183,-19.5 575.183,-19.5 575.183,-0.5 516.183,-0.5"/>
<text text-anchor="middle" x="545.683" y="-7.5" font-family="Helvetica,sans-Serif" font-size="10.00">iostream</text>
</g>
<!-- Node10&#45;&gt;Node13 -->
<g id="edge14" class="edge"><title>Node10&#45;&gt;Node13</title>
<path fill="none" stroke="midnightblue" d="M634.652,-56.324C617.653,-47.6641 591.306,-34.2424 571.69,-24.249"/>
<polygon fill="midnightblue" stroke="midnightblue" points="573.17,-21.0752 562.671,-19.6545 569.993,-27.3125 573.17,-21.0752"/>
</g>
<!-- Node14 -->
<g id="node14" class="node"><title>Node14</title>
<polygon fill="white" stroke="#bfbfbf" points="256.683,-0.5 256.683,-19.5 312.683,-19.5 312.683,-0.5 256.683,-0.5"/>
<text text-anchor="middle" x="284.683" y="-7.5" font-family="Helvetica,sans-Serif" font-size="10.00">sstream</text>
</g>
<!-- Node10&#45;&gt;Node14 -->
<g id="edge15" class="edge"><title>Node10&#45;&gt;Node14</title>
<path fill="none" stroke="midnightblue" d="M593.53,-56.4435C517.713,-45.2878 387.208,-26.0855 322.847,-16.6155"/>
<polygon fill="midnightblue" stroke="midnightblue" points="323.137,-13.1205 312.734,-15.1274 322.118,-20.0459 323.137,-13.1205"/>
</g>
<!-- Node15 -->
<g id="node15" class="node"><title>Node15</title>
<polygon fill="white" stroke="#bfbfbf" points="593.683,-0.5 593.683,-19.5 641.683,-19.5 641.683,-0.5 593.683,-0.5"/>
<text text-anchor="middle" x="617.683" y="-7.5" font-family="Helvetica,sans-Serif" font-size="10.00">thread</text>
</g>
<!-- Node10&#45;&gt;Node15 -->
<g id="edge16" class="edge"><title>Node10&#45;&gt;Node15</title>
<path fill="none" stroke="midnightblue" d="M646.068,-56.083C641.315,-48.5341 634.364,-37.4948 628.531,-28.2298"/>
<polygon fill="midnightblue" stroke="midnightblue" points="631.482,-26.3486 623.192,-19.7511 625.559,-30.0783 631.482,-26.3486"/>
</g>
<!-- Node16&#45;&gt;Node10 -->
<g id="edge20" class="edge"><title>Node16&#45;&gt;Node10</title>
<path fill="none" stroke="midnightblue" d="M793.665,-224.416C828.463,-214.596 872.114,-196.142 854.683,-168 823.043,-116.919 756.962,-90.8446 708.761,-78.117"/>
<polygon fill="midnightblue" stroke="midnightblue" points="709.318,-74.648 698.766,-75.5995 707.608,-81.436 709.318,-74.648"/>
</g>
<!-- Node17 -->
<g id="node17" class="node"><title>Node17</title>
<polygon fill="white" stroke="#bfbfbf" points="705.683,-168.5 705.683,-187.5 773.683,-187.5 773.683,-168.5 705.683,-168.5"/>
<text text-anchor="middle" x="739.683" y="-175.5" font-family="Helvetica,sans-Serif" font-size="10.00">Eigen/Core</text>
</g>
<!-- Node16&#45;&gt;Node17 -->
<g id="edge21" class="edge"><title>Node16&#45;&gt;Node17</title>
<path fill="none" stroke="midnightblue" d="M753.04,-224.083C750.897,-216.849 747.804,-206.409 745.133,-197.397"/>
<polygon fill="midnightblue" stroke="midnightblue" points="748.472,-196.345 742.275,-187.751 741.761,-198.333 748.472,-196.345"/>
</g>
<!-- Node18 -->
<g id="node18" class="node"><title>Node18</title>
<polygon fill="white" stroke="#bfbfbf" points="593.683,-168.5 593.683,-187.5 687.683,-187.5 687.683,-168.5 593.683,-168.5"/>
<text text-anchor="middle" x="640.683" y="-175.5" font-family="Helvetica,sans-Serif" font-size="10.00">Eigen/Geometry</text>
</g>
<!-- Node16&#45;&gt;Node18 -->
<g id="edge22" class="edge"><title>Node16&#45;&gt;Node18</title>
<path fill="none" stroke="midnightblue" d="M737.46,-224.444C718.787,-215.675 689.527,-201.935 668.065,-191.858"/>
<polygon fill="midnightblue" stroke="midnightblue" points="669.359,-188.599 658.819,-187.516 666.383,-194.935 669.359,-188.599"/>
</g>
<!-- Node19 -->
<g id="node19" class="node"><title>Node19</title>
<polygon fill="white" stroke="#bfbfbf" points="791.683,-168.5 791.683,-187.5 845.683,-187.5 845.683,-168.5 791.683,-168.5"/>
<text text-anchor="middle" x="818.683" y="-175.5" font-family="Helvetica,sans-Serif" font-size="10.00">random</text>
</g>
<!-- Node16&#45;&gt;Node19 -->
<g id="edge23" class="edge"><title>Node16&#45;&gt;Node19</title>
<path fill="none" stroke="midnightblue" d="M765.805,-224.324C775.209,-216.263 789.427,-204.077 800.752,-194.369"/>
<polygon fill="midnightblue" stroke="midnightblue" points="803.062,-196.999 808.376,-187.834 798.506,-191.684 803.062,-196.999"/>
</g>
<!-- Node20&#45;&gt;Node6 -->
<g id="edge25" class="edge"><title>Node20&#45;&gt;Node6</title>
<path fill="none" stroke="midnightblue" d="M248.217,-243.655C263.922,-251.992 285.51,-264.757 300.766,-274.622"/>
<polygon fill="midnightblue" stroke="midnightblue" points="299.073,-277.7 309.337,-280.324 302.95,-271.871 299.073,-277.7"/>
</g>
<!-- Node20&#45;&gt;Node21 -->
<g id="edge26" class="edge"><title>Node20&#45;&gt;Node21</title>
<path fill="none" stroke="midnightblue" d="M215.99,-224.324C203.781,-215.979 185.104,-203.212 170.68,-193.352"/>
<polygon fill="midnightblue" stroke="midnightblue" points="172.575,-190.408 162.344,-187.655 168.624,-196.187 172.575,-190.408"/>
</g>
<!-- Node21&#45;&gt;Node7 -->
<g id="edge31" class="edge"><title>Node21&#45;&gt;Node7</title>
<path fill="none" stroke="midnightblue" d="M170.281,-168.444C191.676,-159.557 225.364,-145.563 249.707,-135.451"/>
<polygon fill="midnightblue" stroke="midnightblue" points="251.288,-138.585 259.18,-131.516 248.602,-132.12 251.288,-138.585"/>
</g>
<!-- Node21&#45;&gt;Node9 -->
<g id="edge27" class="edge"><title>Node21&#45;&gt;Node9</title>
<path fill="none" stroke="midnightblue" d="M194.049,-168.444C243.304,-158.944 322.811,-143.611 375.654,-133.42"/>
<polygon fill="midnightblue" stroke="midnightblue" points="376.367,-136.847 385.523,-131.516 375.041,-129.974 376.367,-136.847"/>
</g>
<!-- Node21&#45;&gt;Node14 -->
<g id="edge29" class="edge"><title>Node21&#45;&gt;Node14</title>
<path fill="none" stroke="midnightblue" d="M140.193,-168.402C127.461,-155.783 107.655,-131.617 118.683,-112 145.884,-63.6092 206.704,-35.6975 246.684,-21.9315"/>
<polygon fill="midnightblue" stroke="midnightblue" points="247.969,-25.1931 256.366,-18.7326 245.773,-18.5465 247.969,-25.1931"/>
</g>
<!-- Node22 -->
<g id="node22" class="node"><title>Node22</title>
<polygon fill="white" stroke="#bfbfbf" points="127.683,-112.5 127.683,-131.5 171.683,-131.5 171.683,-112.5 127.683,-112.5"/>
<text text-anchor="middle" x="149.683" y="-119.5" font-family="Helvetica,sans-Serif" font-size="10.00">ctime</text>
</g>
<!-- Node21&#45;&gt;Node22 -->
<g id="edge28" class="edge"><title>Node21&#45;&gt;Node22</title>
<path fill="none" stroke="midnightblue" d="M149.683,-168.083C149.683,-161.006 149.683,-150.861 149.683,-141.986"/>
<polygon fill="midnightblue" stroke="midnightblue" points="153.183,-141.751 149.683,-131.751 146.183,-141.751 153.183,-141.751"/>
</g>
<!-- Node23 -->
<g id="node23" class="node"><title>Node23</title>
<polygon fill="white" stroke="#bfbfbf" points="190.183,-112.5 190.183,-131.5 239.183,-131.5 239.183,-112.5 190.183,-112.5"/>
<text text-anchor="middle" x="214.683" y="-119.5" font-family="Helvetica,sans-Serif" font-size="10.00">stdio.h</text>
</g>
<!-- Node21&#45;&gt;Node23 -->
<g id="edge30" class="edge"><title>Node21&#45;&gt;Node23</title>
<path fill="none" stroke="midnightblue" d="M160.126,-168.324C169.829,-160.263 184.498,-148.077 196.182,-138.369"/>
<polygon fill="midnightblue" stroke="midnightblue" points="198.594,-140.916 204.049,-131.834 194.121,-135.532 198.594,-140.916"/>
</g>
<!-- Node24&#45;&gt;Node9 -->
<g id="edge33" class="edge"><title>Node24&#45;&gt;Node9</title>
<path fill="none" stroke="midnightblue" d="M555.667,-224.473C535.962,-216.778 507.946,-204.19 486.683,-188 468.658,-174.276 452.074,-154.14 441.496,-139.923"/>
<polygon fill="midnightblue" stroke="midnightblue" points="444.151,-137.62 435.459,-131.563 438.476,-141.719 444.151,-137.62"/>
</g>
<!-- Node24&#45;&gt;Node17 -->
<g id="edge34" class="edge"><title>Node24&#45;&gt;Node17</title>
<path fill="none" stroke="midnightblue" d="M605.035,-224.444C631.952,-215.359 674.679,-200.939 704.77,-190.783"/>
<polygon fill="midnightblue" stroke="midnightblue" points="706.093,-194.031 714.449,-187.516 703.855,-187.398 706.093,-194.031"/>
</g>
<!-- Node24&#45;&gt;Node18 -->
<g id="edge35" class="edge"><title>Node24&#45;&gt;Node18</title>
<path fill="none" stroke="midnightblue" d="M589.483,-224.324C598.501,-216.341 612.089,-204.313 623.001,-194.653"/>
<polygon fill="midnightblue" stroke="midnightblue" points="625.536,-197.083 630.704,-187.834 620.896,-191.842 625.536,-197.083"/>
</g>
<!-- Node25 -->
<g id="node25" class="node"><title>Node25</title>
<polygon fill="white" stroke="#bfbfbf" points="495.683,-168.5 495.683,-187.5 575.683,-187.5 575.683,-168.5 495.683,-168.5"/>
<text text-anchor="middle" x="535.683" y="-175.5" font-family="Helvetica,sans-Serif" font-size="10.00">Eigen/Sparse</text>
</g>
<!-- Node24&#45;&gt;Node25 -->
<g id="edge36" class="edge"><title>Node24&#45;&gt;Node25</title>
<path fill="none" stroke="midnightblue" d="M572.417,-224.083C566.138,-216.377 556.895,-205.033 549.252,-195.653"/>
<polygon fill="midnightblue" stroke="midnightblue" points="551.843,-193.293 542.813,-187.751 546.416,-197.714 551.843,-193.293"/>
</g>
<!-- Node26&#45;&gt;Node10 -->
<g id="edge38" class="edge"><title>Node26&#45;&gt;Node10</title>
<path fill="none" stroke="midnightblue" d="M902.039,-114.27C853.022,-105.015 764.346,-88.2721 706.759,-77.399"/>
<polygon fill="midnightblue" stroke="midnightblue" points="707.213,-73.9231 696.738,-75.5069 705.915,-80.8015 707.213,-73.9231"/>
</g>
<!-- Node29&#45;&gt;Node16 -->
<g id="edge49" class="edge"><title>Node29&#45;&gt;Node16</title>
<path fill="none" stroke="midnightblue" d="M990.474,-280.444C941.395,-270.944 862.173,-255.611 809.518,-245.42"/>
<polygon fill="midnightblue" stroke="midnightblue" points="810.167,-241.98 799.684,-243.516 808.837,-248.853 810.167,-241.98"/>
</g>
<!-- Node29&#45;&gt;Node24 -->
<g id="edge48" class="edge"><title>Node29&#45;&gt;Node24</title>
<path fill="none" stroke="midnightblue" d="M962.838,-280.473C876.448,-270.22 732.528,-253.14 647.823,-243.087"/>
<polygon fill="midnightblue" stroke="midnightblue" points="648.138,-239.6 637.795,-241.897 647.313,-246.551 648.138,-239.6"/>
</g>
<!-- Node30 -->
<g id="node30" class="node"><title>Node30</title>
<polygon fill="white" stroke="#bfbfbf" points="903.683,-224.5 903.683,-243.5 995.683,-243.5 995.683,-224.5 903.683,-224.5"/>
<text text-anchor="middle" x="949.683" y="-231.5" font-family="Helvetica,sans-Serif" font-size="10.00">assimp/color4.h</text>
</g>
<!-- Node29&#45;&gt;Node30 -->
<g id="edge43" class="edge"><title>Node29&#45;&gt;Node30</title>
<path fill="none" stroke="midnightblue" d="M1021.03,-280.324C1007.77,-271.9 987.415,-258.971 971.836,-249.074"/>
<polygon fill="midnightblue" stroke="midnightblue" points="973.623,-246.063 963.305,-243.655 969.869,-251.971 973.623,-246.063"/>
</g>
<!-- Node31 -->
<g id="node31" class="node"><title>Node31</title>
<polygon fill="white" stroke="#bfbfbf" points="1014.18,-224.5 1014.18,-243.5 1125.18,-243.5 1125.18,-224.5 1014.18,-224.5"/>
<text text-anchor="middle" x="1069.68" y="-231.5" font-family="Helvetica,sans-Serif" font-size="10.00">assimp/matrix4x4.h</text>
</g>
<!-- Node29&#45;&gt;Node31 -->
<g id="edge44" class="edge"><title>Node29&#45;&gt;Node31</title>
<path fill="none" stroke="midnightblue" d="M1040.46,-280.083C1045.35,-272.534 1052.51,-261.495 1058.52,-252.23"/>
<polygon fill="midnightblue" stroke="midnightblue" points="1061.51,-254.046 1064.01,-243.751 1055.63,-250.239 1061.51,-254.046"/>
</g>
<!-- Node32 -->
<g id="node32" class="node"><title>Node32</title>
<polygon fill="white" stroke="#bfbfbf" points="1143.18,-224.5 1143.18,-243.5 1258.18,-243.5 1258.18,-224.5 1143.18,-224.5"/>
<text text-anchor="middle" x="1200.68" y="-231.5" font-family="Helvetica,sans-Serif" font-size="10.00">assimp/quaternion.h</text>
</g>
<!-- Node29&#45;&gt;Node32 -->
<g id="edge45" class="edge"><title>Node29&#45;&gt;Node32</title>
<path fill="none" stroke="midnightblue" d="M1060.99,-280.444C1089.03,-271.32 1133.63,-256.813 1164.87,-246.651"/>
<polygon fill="midnightblue" stroke="midnightblue" points="1166.08,-249.938 1174.5,-243.516 1163.91,-243.282 1166.08,-249.938"/>
</g>
<!-- Node33 -->
<g id="node33" class="node"><title>Node33</title>
<polygon fill="white" stroke="#bfbfbf" points="1276.18,-224.5 1276.18,-243.5 1365.18,-243.5 1365.18,-224.5 1276.18,-224.5"/>
<text text-anchor="middle" x="1320.68" y="-231.5" font-family="Helvetica,sans-Serif" font-size="10.00">assimp/types.h</text>
</g>
<!-- Node29&#45;&gt;Node33 -->
<g id="edge46" class="edge"><title>Node29&#45;&gt;Node33</title>
<path fill="none" stroke="midnightblue" d="M1080,-280.444C1130.46,-270.916 1212,-255.521 1265.97,-245.33"/>
<polygon fill="midnightblue" stroke="midnightblue" points="1266.87,-248.722 1276.05,-243.428 1265.57,-241.844 1266.87,-248.722"/>
</g>
<!-- Node34 -->
<g id="node34" class="node"><title>Node34</title>
<polygon fill="white" stroke="#bfbfbf" points="1383.18,-224.5 1383.18,-243.5 1482.18,-243.5 1482.18,-224.5 1383.18,-224.5"/>
<text text-anchor="middle" x="1432.68" y="-231.5" font-family="Helvetica,sans-Serif" font-size="10.00">assimp/vector3.h</text>
</g>
<!-- Node29&#45;&gt;Node34 -->
<g id="edge47" class="edge"><title>Node29&#45;&gt;Node34</title>
<path fill="none" stroke="midnightblue" d="M1102.48,-280.48C1168.93,-272.026 1273.39,-258.464 1373.08,-244.207"/>
<polygon fill="midnightblue" stroke="midnightblue" points="1373.62,-247.666 1383.02,-242.781 1372.62,-240.737 1373.62,-247.666"/>
</g>
</g>
</svg>
