<?xml version="1.0" encoding="UTF-8" standalone="no"?>
<!DOCTYPE svg PUBLIC "-//W3C//DTD SVG 1.1//EN"
 "http://www.w3.org/Graphics/SVG/1.1/DTD/svg11.dtd">
<!-- Generated by graphviz version 2.38.0 (20140413.2041)
 -->
<!-- Title: /home/travis/build/STORM&#45;IRIT/Radium&#45;Engine/src/Core/Asset/BlinnPhongMaterialData.hpp Pages: 1 -->
<svg width="893pt" height="352pt"
 viewBox="0.00 0.00 892.68 352.00" xmlns="http://www.w3.org/2000/svg" xmlns:xlink="http://www.w3.org/1999/xlink">
<g id="graph0" class="graph" transform="scale(1 1) rotate(0) translate(4 348)">
<title>/home/travis/build/STORM&#45;IRIT/Radium&#45;Engine/src/Core/Asset/BlinnPhongMaterialData.hpp</title>
<polygon fill="white" stroke="none" points="-4,4 -4,-348 888.678,-348 888.678,4 -4,4"/>
<!-- Node1 -->
<g id="node1" class="node"><title>Node1</title>
<polygon fill="#bfbfbf" stroke="black" points="180.678,-291.5 180.678,-343.5 364.678,-343.5 364.678,-291.5 180.678,-291.5"/>
<text text-anchor="start" x="188.678" y="-331.5" font-family="Helvetica,sans-Serif" font-size="10.00">/home/travis/build</text>
<text text-anchor="start" x="188.678" y="-320.5" font-family="Helvetica,sans-Serif" font-size="10.00">/STORM&#45;IRIT/Radium&#45;Engine</text>
<text text-anchor="start" x="188.678" y="-309.5" font-family="Helvetica,sans-Serif" font-size="10.00">/src/Core/Asset/BlinnPhongMaterial</text>
<text text-anchor="middle" x="272.678" y="-298.5" font-family="Helvetica,sans-Serif" font-size="10.00">Data.hpp</text>
</g>
<!-- Node2 -->
<g id="node2" class="node"><title>Node2</title>
<g id="a_node2"><a xlink:href="MaterialData_8hpp.html" target="_top" xlink:title="Core/Asset/MaterialData.hpp">
<polygon fill="white" stroke="black" points="284.178,-230 284.178,-249 439.178,-249 439.178,-230 284.178,-230"/>
<text text-anchor="middle" x="361.678" y="-237" font-family="Helvetica,sans-Serif" font-size="10.00">Core/Asset/MaterialData.hpp</text>
</a>
</g>
</g>
<!-- Node1&#45;&gt;Node2 -->
<g id="edge1" class="edge"><title>Node1&#45;&gt;Node2</title>
<path fill="none" stroke="midnightblue" d="M302.314,-291.193C315.986,-279.518 331.773,-266.037 343.628,-255.913"/>
<polygon fill="midnightblue" stroke="midnightblue" points="346.148,-258.364 351.479,-249.209 341.602,-253.041 346.148,-258.364"/>
</g>
<!-- Node14 -->
<g id="node14" class="node"><title>Node14</title>
<g id="a_node14"><a xlink:href="Color_8hpp.html" target="_top" xlink:title="Core/Utils/Color.hpp">
<polygon fill="white" stroke="black" points="678.178,-230 678.178,-249 789.178,-249 789.178,-230 678.178,-230"/>
<text text-anchor="middle" x="733.678" y="-237" font-family="Helvetica,sans-Serif" font-size="10.00">Core/Utils/Color.hpp</text>
</a>
</g>
</g>
<!-- Node1&#45;&gt;Node14 -->
<g id="edge16" class="edge"><title>Node1&#45;&gt;Node14</title>
<path fill="none" stroke="midnightblue" d="M364.86,-301.303C456.017,-286.275 592.973,-263.696 671.811,-250.699"/>
<polygon fill="midnightblue" stroke="midnightblue" points="672.771,-254.088 682.069,-249.008 671.633,-247.182 672.771,-254.088"/>
</g>
<!-- Node18 -->
<g id="node18" class="node"><title>Node18</title>
<g id="a_node18"><a xlink:href="BlinnPhongMaterialData_8inl.html" target="_top" xlink:title="Core/Asset/BlinnPhongMaterial\lData.inl">
<polygon fill="white" stroke="black" points="101.678,-224.5 101.678,-254.5 265.678,-254.5 265.678,-224.5 101.678,-224.5"/>
<text text-anchor="start" x="109.678" y="-242.5" font-family="Helvetica,sans-Serif" font-size="10.00">Core/Asset/BlinnPhongMaterial</text>
<text text-anchor="middle" x="183.678" y="-231.5" font-family="Helvetica,sans-Serif" font-size="10.00">Data.inl</text>
</a>
</g>
</g>
<!-- Node1&#45;&gt;Node18 -->
<g id="edge21" class="edge"><title>Node1&#45;&gt;Node18</title>
<path fill="none" stroke="midnightblue" d="M236.898,-291.404C225.161,-281.852 212.612,-271.064 202.583,-261.887"/>
<polygon fill="midnightblue" stroke="midnightblue" points="204.837,-259.203 195.143,-254.926 200.054,-264.314 204.837,-259.203"/>
</g>
<!-- Node3 -->
<g id="node3" class="node"><title>Node3</title>
<polygon fill="white" stroke="#bfbfbf" points="144.678,-112.5 144.678,-131.5 188.678,-131.5 188.678,-112.5 144.678,-112.5"/>
<text text-anchor="middle" x="166.678" y="-119.5" font-family="Helvetica,sans-Serif" font-size="10.00">string</text>
</g>
<!-- Node2&#45;&gt;Node3 -->
<g id="edge2" class="edge"><title>Node2&#45;&gt;Node3</title>
<path fill="none" stroke="midnightblue" d="M313.626,-229.985C255.619,-219.221 164.56,-200.582 154.678,-188 144.184,-174.638 149.843,-154.989 156.48,-140.795"/>
<polygon fill="midnightblue" stroke="midnightblue" points="159.758,-142.079 161.27,-131.592 153.548,-138.847 159.758,-142.079"/>
</g>
<!-- Node4 -->
<g id="node4" class="node"><title>Node4</title>
<polygon fill="white" stroke="#bfbfbf" points="364.178,-168.5 364.178,-187.5 411.178,-187.5 411.178,-168.5 364.178,-168.5"/>
<text text-anchor="middle" x="387.678" y="-175.5" font-family="Helvetica,sans-Serif" font-size="10.00">vector</text>
</g>
<!-- Node2&#45;&gt;Node4 -->
<g id="edge3" class="edge"><title>Node2&#45;&gt;Node4</title>
<path fill="none" stroke="midnightblue" d="M365.403,-229.975C369.149,-221.404 375.038,-207.927 379.82,-196.983"/>
<polygon fill="midnightblue" stroke="midnightblue" points="383.163,-198.074 383.96,-187.509 376.748,-195.271 383.163,-198.074"/>
</g>
<!-- Node5 -->
<g id="node5" class="node"><title>Node5</title>
<g id="a_node5"><a xlink:href="AssetData_8hpp.html" target="_top" xlink:title="Core/Asset/AssetData.hpp">
<polygon fill="white" stroke="black" points="164.178,-168.5 164.178,-187.5 307.178,-187.5 307.178,-168.5 164.178,-168.5"/>
<text text-anchor="middle" x="235.678" y="-175.5" font-family="Helvetica,sans-Serif" font-size="10.00">Core/Asset/AssetData.hpp</text>
</a>
</g>
</g>
<!-- Node2&#45;&gt;Node5 -->
<g id="edge4" class="edge"><title>Node2&#45;&gt;Node5</title>
<path fill="none" stroke="midnightblue" d="M343.625,-229.975C322.48,-219.99 287.238,-203.348 262.8,-191.807"/>
<polygon fill="midnightblue" stroke="midnightblue" points="264.234,-188.614 253.697,-187.509 261.245,-194.944 264.234,-188.614"/>
</g>
<!-- Node6 -->
<g id="node6" class="node"><title>Node6</title>
<g id="a_node6"><a xlink:href="RaCore_8hpp.html" target="_top" xlink:title="Core/RaCore.hpp">
<polygon fill="white" stroke="black" points="206.678,-112.5 206.678,-131.5 304.678,-131.5 304.678,-112.5 206.678,-112.5"/>
<text text-anchor="middle" x="255.678" y="-119.5" font-family="Helvetica,sans-Serif" font-size="10.00">Core/RaCore.hpp</text>
</a>
</g>
</g>
<!-- Node2&#45;&gt;Node6 -->
<g id="edge13" class="edge"><title>Node2&#45;&gt;Node6</title>
<path fill="none" stroke="midnightblue" d="M357.171,-229.564C349.782,-215.46 334.061,-187.626 315.678,-168 304.755,-156.338 290.516,-145.516 278.651,-137.408"/>
<polygon fill="midnightblue" stroke="midnightblue" points="280.405,-134.372 270.135,-131.769 276.54,-140.208 280.405,-134.372"/>
</g>
<!-- Node13 -->
<g id="node13" class="node"><title>Node13</title>
<g id="a_node13"><a xlink:href="MaterialData_8inl.html" target="_top" xlink:title="Core/Asset/MaterialData.inl">
<polygon fill="white" stroke="black" points="429.178,-168.5 429.178,-187.5 576.178,-187.5 576.178,-168.5 429.178,-168.5"/>
<text text-anchor="middle" x="502.678" y="-175.5" font-family="Helvetica,sans-Serif" font-size="10.00">Core/Asset/MaterialData.inl</text>
</a>
</g>
</g>
<!-- Node2&#45;&gt;Node13 -->
<g id="edge14" class="edge"><title>Node2&#45;&gt;Node13</title>
<path fill="none" stroke="midnightblue" d="M376.979,-229.975C398.845,-219.813 439.04,-202.756 468.195,-191.2"/>
<polygon fill="midnightblue" stroke="midnightblue" points="469.582,-194.415 477.617,-187.509 467.029,-187.897 469.582,-194.415"/>
</g>
<!-- Node5&#45;&gt;Node3 -->
<g id="edge12" class="edge"><title>Node5&#45;&gt;Node3</title>
<path fill="none" stroke="midnightblue" d="M224.592,-168.324C214.192,-160.185 198.417,-147.839 185.956,-138.087"/>
<polygon fill="midnightblue" stroke="midnightblue" points="187.998,-135.241 177.966,-131.834 183.684,-140.753 187.998,-135.241"/>
</g>
<!-- Node5&#45;&gt;Node6 -->
<g id="edge5" class="edge"><title>Node5&#45;&gt;Node6</title>
<path fill="none" stroke="midnightblue" d="M238.981,-168.083C241.66,-160.849 245.527,-150.409 248.864,-141.397"/>
<polygon fill="midnightblue" stroke="midnightblue" points="252.246,-142.344 252.437,-131.751 245.682,-139.913 252.246,-142.344"/>
</g>
<!-- Node7 -->
<g id="node7" class="node"><title>Node7</title>
<g id="a_node7"><a xlink:href="CoreMacros_8hpp.html" target="_top" xlink:title="Core/CoreMacros.hpp">
<polygon fill="white" stroke="black" points="195.678,-56.5 195.678,-75.5 315.678,-75.5 315.678,-56.5 195.678,-56.5"/>
<text text-anchor="middle" x="255.678" y="-63.5" font-family="Helvetica,sans-Serif" font-size="10.00">Core/CoreMacros.hpp</text>
</a>
</g>
</g>
<!-- Node6&#45;&gt;Node7 -->
<g id="edge6" class="edge"><title>Node6&#45;&gt;Node7</title>
<path fill="none" stroke="midnightblue" d="M255.678,-112.083C255.678,-105.006 255.678,-94.8611 255.678,-85.9865"/>
<polygon fill="midnightblue" stroke="midnightblue" points="259.178,-85.751 255.678,-75.7511 252.178,-85.7511 259.178,-85.751"/>
</g>
<!-- Node8 -->
<g id="node8" class="node"><title>Node8</title>
<polygon fill="white" stroke="#bfbfbf" points="195.678,-0.5 195.678,-19.5 247.678,-19.5 247.678,-0.5 195.678,-0.5"/>
<text text-anchor="middle" x="221.678" y="-7.5" font-family="Helvetica,sans-Serif" font-size="10.00">cassert</text>
</g>
<!-- Node7&#45;&gt;Node8 -->
<g id="edge7" class="edge"><title>Node7&#45;&gt;Node8</title>
<path fill="none" stroke="midnightblue" d="M250.064,-56.083C245.311,-48.5341 238.36,-37.4948 232.526,-28.2298"/>
<polygon fill="midnightblue" stroke="midnightblue" points="235.478,-26.3486 227.188,-19.7511 229.554,-30.0783 235.478,-26.3486"/>
</g>
<!-- Node9 -->
<g id="node9" class="node"><title>Node9</title>
<polygon fill="white" stroke="#bfbfbf" points="266.178,-0.5 266.178,-19.5 311.178,-19.5 311.178,-0.5 266.178,-0.5"/>
<text text-anchor="middle" x="288.678" y="-7.5" font-family="Helvetica,sans-Serif" font-size="10.00">cstdio</text>
</g>
<!-- Node7&#45;&gt;Node9 -->
<g id="edge8" class="edge"><title>Node7&#45;&gt;Node9</title>
<path fill="none" stroke="midnightblue" d="M261.127,-56.083C265.693,-48.6127 272.346,-37.7244 277.971,-28.5199"/>
<polygon fill="midnightblue" stroke="midnightblue" points="281.102,-30.109 283.33,-19.7511 275.129,-26.4588 281.102,-30.109"/>
</g>
<!-- Node10 -->
<g id="node10" class="node"><title>Node10</title>
<polygon fill="white" stroke="#bfbfbf" points="329.178,-0.5 329.178,-19.5 388.178,-19.5 388.178,-0.5 329.178,-0.5"/>
<text text-anchor="middle" x="358.678" y="-7.5" font-family="Helvetica,sans-Serif" font-size="10.00">iostream</text>
</g>
<!-- Node7&#45;&gt;Node10 -->
<g id="edge9" class="edge"><title>Node7&#45;&gt;Node10</title>
<path fill="none" stroke="midnightblue" d="M272.227,-56.324C288.67,-47.7034 314.113,-34.3643 333.146,-24.3855"/>
<polygon fill="midnightblue" stroke="midnightblue" points="334.939,-27.3977 342.17,-19.6545 331.689,-21.198 334.939,-27.3977"/>
</g>
<!-- Node11 -->
<g id="node11" class="node"><title>Node11</title>
<polygon fill="white" stroke="#bfbfbf" points="7.67806,-0.5 7.67806,-19.5 63.6781,-19.5 63.6781,-0.5 7.67806,-0.5"/>
<text text-anchor="middle" x="35.6781" y="-7.5" font-family="Helvetica,sans-Serif" font-size="10.00">sstream</text>
</g>
<!-- Node7&#45;&gt;Node11 -->
<g id="edge10" class="edge"><title>Node7&#45;&gt;Node11</title>
<path fill="none" stroke="midnightblue" d="M220.818,-56.4435C180.72,-46.6012 115.104,-30.4955 73.7136,-20.336"/>
<polygon fill="midnightblue" stroke="midnightblue" points="74.2889,-16.8734 63.7428,-17.8886 72.6202,-23.6716 74.2889,-16.8734"/>
</g>
<!-- Node12 -->
<g id="node12" class="node"><title>Node12</title>
<polygon fill="white" stroke="#bfbfbf" points="129.678,-0.5 129.678,-19.5 177.678,-19.5 177.678,-0.5 129.678,-0.5"/>
<text text-anchor="middle" x="153.678" y="-7.5" font-family="Helvetica,sans-Serif" font-size="10.00">thread</text>
</g>
<!-- Node7&#45;&gt;Node12 -->
<g id="edge11" class="edge"><title>Node7&#45;&gt;Node12</title>
<path fill="none" stroke="midnightblue" d="M239.29,-56.324C223.007,-47.7034 197.811,-34.3643 178.962,-24.3855"/>
<polygon fill="midnightblue" stroke="midnightblue" points="180.501,-21.2402 170.025,-19.6545 177.226,-27.4267 180.501,-21.2402"/>
</g>
<!-- Node13&#45;&gt;Node2 -->
<g id="edge15" class="edge"><title>Node13&#45;&gt;Node2</title>
<path fill="none" stroke="midnightblue" d="M487.411,-187.509C465.565,-197.664 425.373,-214.72 396.207,-226.282"/>
<polygon fill="midnightblue" stroke="midnightblue" points="394.815,-223.069 386.781,-229.975 397.368,-229.586 394.815,-223.069"/>
</g>
<!-- Node14&#45;&gt;Node7 -->
<g id="edge17" class="edge"><title>Node14&#45;&gt;Node7</title>
<path fill="none" stroke="midnightblue" d="M743.924,-229.997C759.555,-216.012 785.917,-187.741 769.678,-168 714.27,-100.645 453.35,-77.5227 325.978,-70.1617"/>
<polygon fill="midnightblue" stroke="midnightblue" points="326.111,-66.6638 315.93,-69.5978 325.718,-73.6528 326.111,-66.6638"/>
</g>
<!-- Node15 -->
<g id="node15" class="node"><title>Node15</title>
<polygon fill="white" stroke="#bfbfbf" points="816.678,-168.5 816.678,-187.5 884.678,-187.5 884.678,-168.5 816.678,-168.5"/>
<text text-anchor="middle" x="850.678" y="-175.5" font-family="Helvetica,sans-Serif" font-size="10.00">Eigen/Core</text>
</g>
<!-- Node14&#45;&gt;Node15 -->
<g id="edge18" class="edge"><title>Node14&#45;&gt;Node15</title>
<path fill="none" stroke="midnightblue" d="M750.441,-229.975C769.903,-220.078 802.223,-203.642 824.889,-192.115"/>
<polygon fill="midnightblue" stroke="midnightblue" points="826.619,-195.162 833.946,-187.509 823.446,-188.922 826.619,-195.162"/>
</g>
<!-- Node16 -->
<g id="node16" class="node"><title>Node16</title>
<polygon fill="white" stroke="#bfbfbf" points="594.678,-168.5 594.678,-187.5 688.678,-187.5 688.678,-168.5 594.678,-168.5"/>
<text text-anchor="middle" x="641.678" y="-175.5" font-family="Helvetica,sans-Serif" font-size="10.00">Eigen/Geometry</text>
</g>
<!-- Node14&#45;&gt;Node16 -->
<g id="edge19" class="edge"><title>Node14&#45;&gt;Node16</title>
<path fill="none" stroke="midnightblue" d="M720.497,-229.975C705.604,-220.343 681.134,-204.517 663.405,-193.052"/>
<polygon fill="midnightblue" stroke="midnightblue" points="665.133,-190.001 654.835,-187.509 661.331,-195.879 665.133,-190.001"/>
</g>
<!-- Node17 -->
<g id="node17" class="node"><title>Node17</title>
<polygon fill="white" stroke="#bfbfbf" points="706.678,-168.5 706.678,-187.5 760.678,-187.5 760.678,-168.5 706.678,-168.5"/>
<text text-anchor="middle" x="733.678" y="-175.5" font-family="Helvetica,sans-Serif" font-size="10.00">random</text>
</g>
<!-- Node14&#45;&gt;Node17 -->
<g id="edge20" class="edge"><title>Node14&#45;&gt;Node17</title>
<path fill="none" stroke="midnightblue" d="M733.678,-229.975C733.678,-221.58 733.678,-208.481 733.678,-197.663"/>
<polygon fill="midnightblue" stroke="midnightblue" points="737.178,-197.509 733.678,-187.509 730.178,-197.509 737.178,-197.509"/>
</g>
<!-- Node18&#45;&gt;Node1 -->
<g id="edge22" class="edge"><title>Node18&#45;&gt;Node1</title>
<path fill="none" stroke="midnightblue" d="M205.61,-254.627C216.575,-263.033 229.916,-274.06 241.848,-284.473"/>
<polygon fill="midnightblue" stroke="midnightblue" points="239.637,-287.19 249.446,-291.193 244.274,-281.946 239.637,-287.19"/>
</g>
<!-- Node19 -->
<g id="node19" class="node"><title>Node19</title>
<g id="a_node19"><a xlink:href="Log_8hpp.html" target="_top" xlink:title="Core/Utils/Log.hpp">
<polygon fill="white" stroke="black" points="3.67806,-168.5 3.67806,-187.5 107.678,-187.5 107.678,-168.5 3.67806,-168.5"/>
<text text-anchor="middle" x="55.6781" y="-175.5" font-family="Helvetica,sans-Serif" font-size="10.00">Core/Utils/Log.hpp</text>
</a>
</g>
</g>
<!-- Node18&#45;&gt;Node19 -->
<g id="edge23" class="edge"><title>Node18&#45;&gt;Node19</title>
<path fill="none" stroke="midnightblue" d="M153.344,-224.399C132.155,-214.55 104.084,-201.501 83.476,-191.922"/>
<polygon fill="midnightblue" stroke="midnightblue" points="84.8467,-188.699 74.3032,-187.658 81.896,-195.047 84.8467,-188.699"/>
</g>
<!-- Node19&#45;&gt;Node3 -->
<g id="edge28" class="edge"><title>Node19&#45;&gt;Node3</title>
<path fill="none" stroke="midnightblue" d="M73.5121,-168.324C91.394,-159.625 119.153,-146.12 139.724,-136.113"/>
<polygon fill="midnightblue" stroke="midnightblue" points="141.427,-139.177 148.888,-131.655 138.365,-132.882 141.427,-139.177"/>
</g>
<!-- Node19&#45;&gt;Node6 -->
<g id="edge24" class="edge"><title>Node19&#45;&gt;Node6</title>
<path fill="none" stroke="midnightblue" d="M87.3687,-168.444C121.746,-159.162 176.755,-144.309 214.467,-134.127"/>
<polygon fill="midnightblue" stroke="midnightblue" points="215.394,-137.502 224.136,-131.516 213.569,-130.744 215.394,-137.502"/>
</g>
<!-- Node19&#45;&gt;Node11 -->
<g id="edge26" class="edge"><title>Node19&#45;&gt;Node11</title>
<path fill="none" stroke="midnightblue" d="M40.7256,-168.474C28.7462,-160.702 12.805,-148.002 5.67806,-132 -9.95461,-96.899 10.5244,-52.2879 24.546,-28.2396"/>
<polygon fill="midnightblue" stroke="midnightblue" points="27.6294,-29.9061 29.8625,-19.5493 21.6582,-26.2531 27.6294,-29.9061"/>
</g>
<!-- Node20 -->
<g id="node20" class="node"><title>Node20</title>
<polygon fill="white" stroke="#bfbfbf" points="14.6781,-112.5 14.6781,-131.5 58.6781,-131.5 58.6781,-112.5 14.6781,-112.5"/>
<text text-anchor="middle" x="36.6781" y="-119.5" font-family="Helvetica,sans-Serif" font-size="10.00">ctime</text>
</g>
<!-- Node19&#45;&gt;Node20 -->
<g id="edge25" class="edge"><title>Node19&#45;&gt;Node20</title>
<path fill="none" stroke="midnightblue" d="M52.5406,-168.083C49.9952,-160.849 46.3219,-150.409 43.151,-141.397"/>
<polygon fill="midnightblue" stroke="midnightblue" points="46.3779,-140.023 39.7571,-131.751 39.7747,-142.346 46.3779,-140.023"/>
</g>
<!-- Node21 -->
<g id="node21" class="node"><title>Node21</title>
<polygon fill="white" stroke="#bfbfbf" points="77.1781,-112.5 77.1781,-131.5 126.178,-131.5 126.178,-112.5 77.1781,-112.5"/>
<text text-anchor="middle" x="101.678" y="-119.5" font-family="Helvetica,sans-Serif" font-size="10.00">stdio.h</text>
</g>
<!-- Node19&#45;&gt;Node21 -->
<g id="edge27" class="edge"><title>Node19&#45;&gt;Node21</title>
<path fill="none" stroke="midnightblue" d="M63.274,-168.083C69.9056,-160.298 79.699,-148.801 87.7362,-139.367"/>
<polygon fill="midnightblue" stroke="midnightblue" points="90.4031,-141.633 94.2234,-131.751 85.0744,-137.094 90.4031,-141.633"/>
</g>
</g>
</svg>
