<?xml version="1.0" encoding="UTF-8" standalone="no"?>
<!DOCTYPE svg PUBLIC "-//W3C//DTD SVG 1.1//EN"
 "http://www.w3.org/Graphics/SVG/1.1/DTD/svg11.dtd">
<!-- Generated by graphviz version 2.38.0 (20140413.2041)
 -->
<!-- Title: /home/travis/build/STORM&#45;IRIT/Radium&#45;Engine/src/Core/Asset/CameraData.hpp Pages: 1 -->
<svg width="992pt" height="341pt"
 viewBox="0.00 0.00 991.50 341.00" xmlns="http://www.w3.org/2000/svg" xmlns:xlink="http://www.w3.org/1999/xlink">
<g id="graph0" class="graph" transform="scale(1 1) rotate(0) translate(4 337)">
<title>/home/travis/build/STORM&#45;IRIT/Radium&#45;Engine/src/Core/Asset/CameraData.hpp</title>
<polygon fill="white" stroke="none" points="-4,4 -4,-337 987.5,-337 987.5,4 -4,4"/>
<!-- Node1 -->
<g id="node1" class="node"><title>Node1</title>
<polygon fill="#bfbfbf" stroke="black" points="241,-291.5 241,-332.5 416,-332.5 416,-291.5 241,-291.5"/>
<text text-anchor="start" x="249" y="-320.5" font-family="Helvetica,sans-Serif" font-size="10.00">/home/travis/build</text>
<text text-anchor="start" x="249" y="-309.5" font-family="Helvetica,sans-Serif" font-size="10.00">/STORM&#45;IRIT/Radium&#45;Engine</text>
<text text-anchor="middle" x="328.5" y="-298.5" font-family="Helvetica,sans-Serif" font-size="10.00">/src/Core/Asset/CameraData.hpp</text>
</g>
<!-- Node2 -->
<g id="node2" class="node"><title>Node2</title>
<polygon fill="white" stroke="#bfbfbf" points="0,-235.5 0,-254.5 57,-254.5 57,-235.5 0,-235.5"/>
<text text-anchor="middle" x="28.5" y="-242.5" font-family="Helvetica,sans-Serif" font-size="10.00">memory</text>
</g>
<!-- Node1&#45;&gt;Node2 -->
<g id="edge1" class="edge"><title>Node1&#45;&gt;Node2</title>
<path fill="none" stroke="midnightblue" d="M240.994,-293.026C192.267,-282.862 130.273,-269.673 66.9283,-255.284"/>
<polygon fill="midnightblue" stroke="midnightblue" points="67.6917,-251.868 57.164,-253.059 66.1363,-258.693 67.6917,-251.868"/>
</g>
<!-- Node3 -->
<g id="node3" class="node"><title>Node3</title>
<polygon fill="white" stroke="#bfbfbf" points="256.5,-112.5 256.5,-131.5 300.5,-131.5 300.5,-112.5 256.5,-112.5"/>
<text text-anchor="middle" x="278.5" y="-119.5" font-family="Helvetica,sans-Serif" font-size="10.00">string</text>
</g>
<!-- Node1&#45;&gt;Node3 -->
<g id="edge2" class="edge"><title>Node1&#45;&gt;Node3</title>
<path fill="none" stroke="midnightblue" d="M308.231,-291.362C288.368,-270.579 259.399,-235.757 247.5,-199 243.257,-185.892 243.407,-181.156 247.5,-168 250.729,-157.622 257.276,-147.521 263.525,-139.527"/>
<polygon fill="midnightblue" stroke="midnightblue" points="266.285,-141.682 270.017,-131.766 260.916,-137.19 266.285,-141.682"/>
</g>
<!-- Node4 -->
<g id="node4" class="node"><title>Node4</title>
<polygon fill="white" stroke="#bfbfbf" points="640,-112.5 640,-131.5 687,-131.5 687,-112.5 640,-112.5"/>
<text text-anchor="middle" x="663.5" y="-119.5" font-family="Helvetica,sans-Serif" font-size="10.00">vector</text>
</g>
<!-- Node1&#45;&gt;Node4 -->
<g id="edge3" class="edge"><title>Node1&#45;&gt;Node4</title>
<path fill="none" stroke="midnightblue" d="M416.096,-307.964C504.03,-302.965 631.121,-289.769 664.5,-255 693.772,-224.509 680.347,-169.437 670.553,-141.03"/>
<polygon fill="midnightblue" stroke="midnightblue" points="673.806,-139.736 667.074,-131.555 667.235,-142.149 673.806,-139.736"/>
</g>
<!-- Node5 -->
<g id="node5" class="node"><title>Node5</title>
<g id="a_node5"><a xlink:href="AssetData_8hpp.html" target="_top" xlink:title="Core/Asset/AssetData.hpp">
<polygon fill="white" stroke="black" points="257,-174 257,-193 400,-193 400,-174 257,-174"/>
<text text-anchor="middle" x="328.5" y="-181" font-family="Helvetica,sans-Serif" font-size="10.00">Core/Asset/AssetData.hpp</text>
</a>
</g>
</g>
<!-- Node1&#45;&gt;Node5 -->
<g id="edge4" class="edge"><title>Node1&#45;&gt;Node5</title>
<path fill="none" stroke="midnightblue" d="M328.5,-291.234C328.5,-267.228 328.5,-227.024 328.5,-203.411"/>
<polygon fill="midnightblue" stroke="midnightblue" points="332,-203.295 328.5,-193.295 325,-203.295 332,-203.295"/>
</g>
<!-- Node6 -->
<g id="node6" class="node"><title>Node6</title>
<g id="a_node6"><a xlink:href="RaCore_8hpp.html" target="_top" xlink:title="Core/RaCore.hpp">
<polygon fill="white" stroke="black" points="379.5,-112.5 379.5,-131.5 477.5,-131.5 477.5,-112.5 379.5,-112.5"/>
<text text-anchor="middle" x="428.5" y="-119.5" font-family="Helvetica,sans-Serif" font-size="10.00">Core/RaCore.hpp</text>
</a>
</g>
</g>
<!-- Node1&#45;&gt;Node6 -->
<g id="edge26" class="edge"><title>Node1&#45;&gt;Node6</title>
<path fill="none" stroke="midnightblue" d="M346.269,-291.437C364.671,-270.172 392.997,-234.463 409.5,-199 418.089,-180.544 423.129,-157.691 425.835,-141.89"/>
<polygon fill="midnightblue" stroke="midnightblue" points="429.326,-142.215 427.409,-131.795 422.41,-141.136 429.326,-142.215"/>
</g>
<!-- Node13 -->
<g id="node13" class="node"><title>Node13</title>
<g id="a_node13"><a xlink:href="VectorArray_8hpp.html" target="_top" xlink:title="Core/Containers/VectorArray.hpp">
<polygon fill="white" stroke="black" points="482,-235.5 482,-254.5 655,-254.5 655,-235.5 482,-235.5"/>
<text text-anchor="middle" x="568.5" y="-242.5" font-family="Helvetica,sans-Serif" font-size="10.00">Core/Containers/VectorArray.hpp</text>
</a>
</g>
</g>
<!-- Node1&#45;&gt;Node13 -->
<g id="edge13" class="edge"><title>Node1&#45;&gt;Node13</title>
<path fill="none" stroke="midnightblue" d="M400.508,-291.498C441.853,-280.3 492.298,-266.638 527.057,-257.224"/>
<polygon fill="midnightblue" stroke="midnightblue" points="528.13,-260.56 536.868,-254.567 526.3,-253.803 528.13,-260.56"/>
</g>
<!-- Node16 -->
<g id="node16" class="node"><title>Node16</title>
<g id="a_node16"><a xlink:href="Types_8hpp.html" target="_top" xlink:title="Core/Math/Types.hpp">
<polygon fill="white" stroke="black" points="736.5,-174 736.5,-193 852.5,-193 852.5,-174 736.5,-174"/>
<text text-anchor="middle" x="794.5" y="-181" font-family="Helvetica,sans-Serif" font-size="10.00">Core/Math/Types.hpp</text>
</a>
</g>
</g>
<!-- Node1&#45;&gt;Node16 -->
<g id="edge25" class="edge"><title>Node1&#45;&gt;Node16</title>
<path fill="none" stroke="midnightblue" d="M416.383,-304.902C515.66,-296.904 670.214,-280.777 722.5,-255 747.655,-242.599 769.54,-218.083 782.386,-201.488"/>
<polygon fill="midnightblue" stroke="midnightblue" points="785.385,-203.32 788.556,-193.211 779.773,-199.137 785.385,-203.32"/>
</g>
<!-- Node20 -->
<g id="node20" class="node"><title>Node20</title>
<g id="a_node20"><a xlink:href="CameraData_8inl.html" target="_top" xlink:title="Core/Asset/CameraData.inl">
<polygon fill="white" stroke="black" points="75,-235.5 75,-254.5 222,-254.5 222,-235.5 75,-235.5"/>
<text text-anchor="middle" x="148.5" y="-242.5" font-family="Helvetica,sans-Serif" font-size="10.00">Core/Asset/CameraData.inl</text>
</a>
</g>
</g>
<!-- Node1&#45;&gt;Node20 -->
<g id="edge27" class="edge"><title>Node1&#45;&gt;Node20</title>
<path fill="none" stroke="midnightblue" d="M268.249,-291.498C237.514,-280.718 201.609,-267.653 177.123,-258.294"/>
<polygon fill="midnightblue" stroke="midnightblue" points="178.286,-254.991 167.696,-254.652 175.763,-261.521 178.286,-254.991"/>
</g>
<!-- Node5&#45;&gt;Node3 -->
<g id="edge12" class="edge"><title>Node5&#45;&gt;Node3</title>
<path fill="none" stroke="midnightblue" d="M321.336,-173.975C313.762,-164.962 301.63,-150.525 292.207,-139.312"/>
<polygon fill="midnightblue" stroke="midnightblue" points="294.763,-136.913 285.65,-131.509 289.404,-141.417 294.763,-136.913"/>
</g>
<!-- Node5&#45;&gt;Node6 -->
<g id="edge5" class="edge"><title>Node5&#45;&gt;Node6</title>
<path fill="none" stroke="midnightblue" d="M342.828,-173.975C359.164,-164.255 386.102,-148.227 405.412,-136.737"/>
<polygon fill="midnightblue" stroke="midnightblue" points="407.395,-139.63 414.199,-131.509 403.815,-133.615 407.395,-139.63"/>
</g>
<!-- Node7 -->
<g id="node7" class="node"><title>Node7</title>
<g id="a_node7"><a xlink:href="CoreMacros_8hpp.html" target="_top" xlink:title="Core/CoreMacros.hpp">
<polygon fill="white" stroke="black" points="329.5,-56.5 329.5,-75.5 449.5,-75.5 449.5,-56.5 329.5,-56.5"/>
<text text-anchor="middle" x="389.5" y="-63.5" font-family="Helvetica,sans-Serif" font-size="10.00">Core/CoreMacros.hpp</text>
</a>
</g>
</g>
<!-- Node6&#45;&gt;Node7 -->
<g id="edge6" class="edge"><title>Node6&#45;&gt;Node7</title>
<path fill="none" stroke="midnightblue" d="M422.06,-112.083C416.551,-104.455 408.469,-93.2645 401.735,-83.9408"/>
<polygon fill="midnightblue" stroke="midnightblue" points="404.513,-81.8087 395.82,-75.7511 398.838,-85.9071 404.513,-81.8087"/>
</g>
<!-- Node8 -->
<g id="node8" class="node"><title>Node8</title>
<polygon fill="white" stroke="#bfbfbf" points="261.5,-0.5 261.5,-19.5 313.5,-19.5 313.5,-0.5 261.5,-0.5"/>
<text text-anchor="middle" x="287.5" y="-7.5" font-family="Helvetica,sans-Serif" font-size="10.00">cassert</text>
</g>
<!-- Node7&#45;&gt;Node8 -->
<g id="edge7" class="edge"><title>Node7&#45;&gt;Node8</title>
<path fill="none" stroke="midnightblue" d="M373.112,-56.324C356.829,-47.7034 331.633,-34.3643 312.784,-24.3855"/>
<polygon fill="midnightblue" stroke="midnightblue" points="314.323,-21.2402 303.847,-19.6545 311.048,-27.4267 314.323,-21.2402"/>
</g>
<!-- Node9 -->
<g id="node9" class="node"><title>Node9</title>
<polygon fill="white" stroke="#bfbfbf" points="332,-0.5 332,-19.5 377,-19.5 377,-0.5 332,-0.5"/>
<text text-anchor="middle" x="354.5" y="-7.5" font-family="Helvetica,sans-Serif" font-size="10.00">cstdio</text>
</g>
<!-- Node7&#45;&gt;Node9 -->
<g id="edge8" class="edge"><title>Node7&#45;&gt;Node9</title>
<path fill="none" stroke="midnightblue" d="M383.72,-56.083C378.828,-48.5341 371.673,-37.4948 365.667,-28.2298"/>
<polygon fill="midnightblue" stroke="midnightblue" points="368.548,-26.239 360.172,-19.7511 362.674,-30.0463 368.548,-26.239"/>
</g>
<!-- Node10 -->
<g id="node10" class="node"><title>Node10</title>
<polygon fill="white" stroke="#bfbfbf" points="395,-0.5 395,-19.5 454,-19.5 454,-0.5 395,-0.5"/>
<text text-anchor="middle" x="424.5" y="-7.5" font-family="Helvetica,sans-Serif" font-size="10.00">iostream</text>
</g>
<!-- Node7&#45;&gt;Node10 -->
<g id="edge9" class="edge"><title>Node7&#45;&gt;Node10</title>
<path fill="none" stroke="midnightblue" d="M395.28,-56.083C400.172,-48.5341 407.327,-37.4948 413.333,-28.2298"/>
<polygon fill="midnightblue" stroke="midnightblue" points="416.326,-30.0463 418.828,-19.7511 410.452,-26.239 416.326,-30.0463"/>
</g>
<!-- Node11 -->
<g id="node11" class="node"><title>Node11</title>
<polygon fill="white" stroke="#bfbfbf" points="148.5,-0.5 148.5,-19.5 204.5,-19.5 204.5,-0.5 148.5,-0.5"/>
<text text-anchor="middle" x="176.5" y="-7.5" font-family="Helvetica,sans-Serif" font-size="10.00">sstream</text>
</g>
<!-- Node7&#45;&gt;Node11 -->
<g id="edge10" class="edge"><title>Node7&#45;&gt;Node11</title>
<path fill="none" stroke="midnightblue" d="M355.75,-56.4435C317.333,-46.7041 254.725,-30.8317 214.59,-20.6567"/>
<polygon fill="midnightblue" stroke="midnightblue" points="215.204,-17.2017 204.651,-18.1368 213.484,-23.987 215.204,-17.2017"/>
</g>
<!-- Node12 -->
<g id="node12" class="node"><title>Node12</title>
<polygon fill="white" stroke="#bfbfbf" points="472.5,-0.5 472.5,-19.5 520.5,-19.5 520.5,-0.5 472.5,-0.5"/>
<text text-anchor="middle" x="496.5" y="-7.5" font-family="Helvetica,sans-Serif" font-size="10.00">thread</text>
</g>
<!-- Node7&#45;&gt;Node12 -->
<g id="edge11" class="edge"><title>Node7&#45;&gt;Node12</title>
<path fill="none" stroke="midnightblue" d="M406.691,-56.324C423.851,-47.6641 450.446,-34.2424 470.247,-24.249"/>
<polygon fill="midnightblue" stroke="midnightblue" points="472.001,-27.2847 479.351,-19.6545 468.847,-21.0354 472.001,-27.2847"/>
</g>
<!-- Node13&#45;&gt;Node4 -->
<g id="edge24" class="edge"><title>Node13&#45;&gt;Node4</title>
<path fill="none" stroke="midnightblue" d="M598.879,-235.45C617.357,-228.632 639.775,-217.154 652.5,-199 664.189,-182.324 665.845,-158.491 665.28,-141.978"/>
<polygon fill="midnightblue" stroke="midnightblue" points="668.766,-141.648 664.629,-131.894 661.78,-142.098 668.766,-141.648"/>
</g>
<!-- Node13&#45;&gt;Node6 -->
<g id="edge23" class="edge"><title>Node13&#45;&gt;Node6</title>
<path fill="none" stroke="midnightblue" d="M546.811,-235.351C529.073,-227.584 503.989,-214.958 485.5,-199 465.878,-182.064 448.866,-157.28 438.655,-140.667"/>
<polygon fill="midnightblue" stroke="midnightblue" points="441.586,-138.748 433.46,-131.95 435.573,-142.332 441.586,-138.748"/>
</g>
<!-- Node14 -->
<g id="node14" class="node"><title>Node14</title>
<g id="a_node14"><a xlink:href="AlignedStdVector_8hpp.html" target="_top" xlink:title="Core/Containers/AlignedStd\lVector.hpp">
<polygon fill="white" stroke="black" points="494,-168.5 494,-198.5 643,-198.5 643,-168.5 494,-168.5"/>
<text text-anchor="start" x="502" y="-186.5" font-family="Helvetica,sans-Serif" font-size="10.00">Core/Containers/AlignedStd</text>
<text text-anchor="middle" x="568.5" y="-175.5" font-family="Helvetica,sans-Serif" font-size="10.00">Vector.hpp</text>
</a>
</g>
</g>
<!-- Node13&#45;&gt;Node14 -->
<g id="edge14" class="edge"><title>Node13&#45;&gt;Node14</title>
<path fill="none" stroke="midnightblue" d="M568.5,-235.475C568.5,-228.471 568.5,-218.192 568.5,-208.696"/>
<polygon fill="midnightblue" stroke="midnightblue" points="572,-208.523 568.5,-198.523 565,-208.523 572,-208.523"/>
</g>
<!-- Node13&#45;&gt;Node16 -->
<g id="edge18" class="edge"><title>Node13&#45;&gt;Node16</title>
<path fill="none" stroke="midnightblue" d="M600.88,-235.475C640.738,-224.982 708.519,-207.137 752.388,-195.587"/>
<polygon fill="midnightblue" stroke="midnightblue" points="753.4,-198.94 762.18,-193.009 751.618,-192.17 753.4,-198.94"/>
</g>
<!-- Node14&#45;&gt;Node4 -->
<g id="edge17" class="edge"><title>Node14&#45;&gt;Node4</title>
<path fill="none" stroke="midnightblue" d="M591.014,-168.399C606.099,-158.951 625.885,-146.559 640.973,-137.109"/>
<polygon fill="midnightblue" stroke="midnightblue" points="643.059,-139.932 649.677,-131.658 639.344,-134 643.059,-139.932"/>
</g>
<!-- Node14&#45;&gt;Node6 -->
<g id="edge15" class="edge"><title>Node14&#45;&gt;Node6</title>
<path fill="none" stroke="midnightblue" d="M535.322,-168.399C511.937,-158.461 480.888,-145.265 458.294,-135.662"/>
<polygon fill="midnightblue" stroke="midnightblue" points="459.444,-132.348 448.871,-131.658 456.706,-138.79 459.444,-132.348"/>
</g>
<!-- Node15 -->
<g id="node15" class="node"><title>Node15</title>
<polygon fill="white" stroke="#bfbfbf" points="522,-112.5 522,-131.5 615,-131.5 615,-112.5 522,-112.5"/>
<text text-anchor="middle" x="568.5" y="-119.5" font-family="Helvetica,sans-Serif" font-size="10.00">Eigen/StdVector</text>
</g>
<!-- Node14&#45;&gt;Node15 -->
<g id="edge16" class="edge"><title>Node14&#45;&gt;Node15</title>
<path fill="none" stroke="midnightblue" d="M568.5,-168.399C568.5,-160.466 568.5,-150.458 568.5,-141.858"/>
<polygon fill="midnightblue" stroke="midnightblue" points="572,-141.658 568.5,-131.658 565,-141.658 572,-141.658"/>
</g>
<!-- Node16&#45;&gt;Node6 -->
<g id="edge19" class="edge"><title>Node16&#45;&gt;Node6</title>
<path fill="none" stroke="midnightblue" d="M742.061,-173.975C674.71,-163.026 558.127,-144.073 487.671,-132.619"/>
<polygon fill="midnightblue" stroke="midnightblue" points="488.053,-129.136 477.621,-130.986 486.93,-136.045 488.053,-129.136"/>
</g>
<!-- Node17 -->
<g id="node17" class="node"><title>Node17</title>
<polygon fill="white" stroke="#bfbfbf" points="915.5,-112.5 915.5,-131.5 983.5,-131.5 983.5,-112.5 915.5,-112.5"/>
<text text-anchor="middle" x="949.5" y="-119.5" font-family="Helvetica,sans-Serif" font-size="10.00">Eigen/Core</text>
</g>
<!-- Node16&#45;&gt;Node17 -->
<g id="edge20" class="edge"><title>Node16&#45;&gt;Node17</title>
<path fill="none" stroke="midnightblue" d="M816.708,-173.975C843.181,-163.813 887.614,-146.756 917.72,-135.2"/>
<polygon fill="midnightblue" stroke="midnightblue" points="919.252,-138.36 927.333,-131.509 916.743,-131.825 919.252,-138.36"/>
</g>
<!-- Node18 -->
<g id="node18" class="node"><title>Node18</title>
<polygon fill="white" stroke="#bfbfbf" points="705.5,-112.5 705.5,-131.5 799.5,-131.5 799.5,-112.5 705.5,-112.5"/>
<text text-anchor="middle" x="752.5" y="-119.5" font-family="Helvetica,sans-Serif" font-size="10.00">Eigen/Geometry</text>
</g>
<!-- Node16&#45;&gt;Node18 -->
<g id="edge21" class="edge"><title>Node16&#45;&gt;Node18</title>
<path fill="none" stroke="midnightblue" d="M788.482,-173.975C782.245,-165.138 772.327,-151.089 764.482,-139.975"/>
<polygon fill="midnightblue" stroke="midnightblue" points="767.133,-137.66 758.506,-131.509 761.414,-141.697 767.133,-137.66"/>
</g>
<!-- Node19 -->
<g id="node19" class="node"><title>Node19</title>
<polygon fill="white" stroke="#bfbfbf" points="817.5,-112.5 817.5,-131.5 897.5,-131.5 897.5,-112.5 817.5,-112.5"/>
<text text-anchor="middle" x="857.5" y="-119.5" font-family="Helvetica,sans-Serif" font-size="10.00">Eigen/Sparse</text>
</g>
<!-- Node16&#45;&gt;Node19 -->
<g id="edge22" class="edge"><title>Node16&#45;&gt;Node19</title>
<path fill="none" stroke="midnightblue" d="M803.526,-173.975C813.257,-164.785 828.958,-149.956 840.923,-138.656"/>
<polygon fill="midnightblue" stroke="midnightblue" points="843.623,-140.92 848.49,-131.509 838.817,-135.831 843.623,-140.92"/>
</g>
<!-- Node20&#45;&gt;Node1 -->
<g id="edge28" class="edge"><title>Node20&#45;&gt;Node1</title>
<path fill="none" stroke="midnightblue" d="M176.97,-254.567C202.253,-263.04 239.781,-276.382 271.204,-287.967"/>
<polygon fill="midnightblue" stroke="midnightblue" points="270.146,-291.307 280.739,-291.498 272.577,-284.743 270.146,-291.307"/>
</g>
<!-- Node21 -->
<g id="node21" class="node"><title>Node21</title>
<g id="a_node21"><a xlink:href="Log_8hpp.html" target="_top" xlink:title="Core/Utils/Log.hpp">
<polygon fill="white" stroke="black" points="96.5,-174 96.5,-193 200.5,-193 200.5,-174 96.5,-174"/>
<text text-anchor="middle" x="148.5" y="-181" font-family="Helvetica,sans-Serif" font-size="10.00">Core/Utils/Log.hpp</text>
</a>
</g>
</g>
<!-- Node20&#45;&gt;Node21 -->
<g id="edge29" class="edge"><title>Node20&#45;&gt;Node21</title>
<path fill="none" stroke="midnightblue" d="M148.5,-235.475C148.5,-227.08 148.5,-213.981 148.5,-203.163"/>
<polygon fill="midnightblue" stroke="midnightblue" points="152,-203.009 148.5,-193.009 145,-203.009 152,-203.009"/>
</g>
<!-- Node21&#45;&gt;Node3 -->
<g id="edge34" class="edge"><title>Node21&#45;&gt;Node3</title>
<path fill="none" stroke="midnightblue" d="M167.126,-173.975C188.943,-163.99 225.304,-147.348 250.517,-135.807"/>
<polygon fill="midnightblue" stroke="midnightblue" points="252.272,-138.853 259.909,-131.509 249.359,-132.488 252.272,-138.853"/>
</g>
<!-- Node21&#45;&gt;Node6 -->
<g id="edge30" class="edge"><title>Node21&#45;&gt;Node6</title>
<path fill="none" stroke="midnightblue" d="M188.617,-173.975C238.622,-163.349 324.101,-145.185 378.371,-133.652"/>
<polygon fill="midnightblue" stroke="midnightblue" points="379.403,-137.011 388.457,-131.509 377.948,-130.164 379.403,-137.011"/>
</g>
<!-- Node21&#45;&gt;Node11 -->
<g id="edge32" class="edge"><title>Node21&#45;&gt;Node11</title>
<path fill="none" stroke="midnightblue" d="M140.263,-173.691C129.092,-160.648 111.212,-135.231 117.5,-112 126.294,-79.5098 148.434,-46.7521 162.951,-27.6934"/>
<polygon fill="midnightblue" stroke="midnightblue" points="165.781,-29.7557 169.191,-19.7246 160.27,-25.4398 165.781,-29.7557"/>
</g>
<!-- Node22 -->
<g id="node22" class="node"><title>Node22</title>
<polygon fill="white" stroke="#bfbfbf" points="126.5,-112.5 126.5,-131.5 170.5,-131.5 170.5,-112.5 126.5,-112.5"/>
<text text-anchor="middle" x="148.5" y="-119.5" font-family="Helvetica,sans-Serif" font-size="10.00">ctime</text>
</g>
<!-- Node21&#45;&gt;Node22 -->
<g id="edge31" class="edge"><title>Node21&#45;&gt;Node22</title>
<path fill="none" stroke="midnightblue" d="M148.5,-173.975C148.5,-165.58 148.5,-152.481 148.5,-141.663"/>
<polygon fill="midnightblue" stroke="midnightblue" points="152,-141.509 148.5,-131.509 145,-141.509 152,-141.509"/>
</g>
<!-- Node23 -->
<g id="node23" class="node"><title>Node23</title>
<polygon fill="white" stroke="#bfbfbf" points="189,-112.5 189,-131.5 238,-131.5 238,-112.5 189,-112.5"/>
<text text-anchor="middle" x="213.5" y="-119.5" font-family="Helvetica,sans-Serif" font-size="10.00">stdio.h</text>
</g>
<!-- Node21&#45;&gt;Node23 -->
<g id="edge33" class="edge"><title>Node21&#45;&gt;Node23</title>
<path fill="none" stroke="midnightblue" d="M157.813,-173.975C167.949,-164.697 184.364,-149.671 196.752,-138.331"/>
<polygon fill="midnightblue" stroke="midnightblue" points="199.191,-140.843 204.204,-131.509 194.465,-135.68 199.191,-140.843"/>
</g>
</g>
</svg>
