<?xml version="1.0" encoding="UTF-8" standalone="no"?>
<!DOCTYPE svg PUBLIC "-//W3C//DTD SVG 1.1//EN"
 "http://www.w3.org/Graphics/SVG/1.1/DTD/svg11.dtd">
<!-- Generated by graphviz version 2.38.0 (20140413.2041)
 -->
<!-- Title: /home/travis/build/STORM&#45;IRIT/Radium&#45;Engine/src/Core/Asset/CameraData.inl Pages: 1 -->
<svg width="865pt" height="397pt"
 viewBox="0.00 0.00 864.92 397.00" xmlns="http://www.w3.org/2000/svg" xmlns:xlink="http://www.w3.org/1999/xlink">
<g id="graph0" class="graph" transform="scale(1 1) rotate(0) translate(4 393)">
<title>/home/travis/build/STORM&#45;IRIT/Radium&#45;Engine/src/Core/Asset/CameraData.inl</title>
<polygon fill="white" stroke="none" points="-4,4 -4,-393 860.92,-393 860.92,4 -4,4"/>
<!-- Node1 -->
<g id="node1" class="node"><title>Node1</title>
<polygon fill="#bfbfbf" stroke="black" points="258.92,-347.5 258.92,-388.5 425.92,-388.5 425.92,-347.5 258.92,-347.5"/>
<text text-anchor="start" x="266.92" y="-376.5" font-family="Helvetica,sans-Serif" font-size="10.00">/home/travis/build</text>
<text text-anchor="start" x="266.92" y="-365.5" font-family="Helvetica,sans-Serif" font-size="10.00">/STORM&#45;IRIT/Radium&#45;Engine</text>
<text text-anchor="middle" x="342.42" y="-354.5" font-family="Helvetica,sans-Serif" font-size="10.00">/src/Core/Asset/CameraData.inl</text>
</g>
<!-- Node2 -->
<g id="node2" class="node"><title>Node2</title>
<g id="a_node2"><a xlink:href="CameraData_8hpp.html" target="_top" xlink:title="Core/Asset/CameraData.hpp">
<polygon fill="white" stroke="black" points="264.92,-291.5 264.92,-310.5 419.92,-310.5 419.92,-291.5 264.92,-291.5"/>
<text text-anchor="middle" x="342.42" y="-298.5" font-family="Helvetica,sans-Serif" font-size="10.00">Core/Asset/CameraData.hpp</text>
</a>
</g>
</g>
<!-- Node1&#45;&gt;Node2 -->
<g id="edge1" class="edge"><title>Node1&#45;&gt;Node2</title>
<path fill="none" stroke="midnightblue" d="M336.175,-347.498C335.477,-338.969 335.503,-329.011 336.253,-320.59"/>
<polygon fill="midnightblue" stroke="midnightblue" points="339.724,-321.044 337.656,-310.652 332.792,-320.065 339.724,-321.044"/>
</g>
<!-- Node21 -->
<g id="node21" class="node"><title>Node21</title>
<g id="a_node21"><a xlink:href="Log_8hpp.html" target="_top" xlink:title="Core/Utils/Log.hpp">
<polygon fill="white" stroke="black" points="606.42,-235.5 606.42,-254.5 710.42,-254.5 710.42,-235.5 606.42,-235.5"/>
<text text-anchor="middle" x="658.42" y="-242.5" font-family="Helvetica,sans-Serif" font-size="10.00">Core/Utils/Log.hpp</text>
</a>
</g>
</g>
<!-- Node1&#45;&gt;Node21 -->
<g id="edge29" class="edge"><title>Node1&#45;&gt;Node21</title>
<path fill="none" stroke="midnightblue" d="M393.543,-347.425C459.32,-322.238 571.62,-279.237 626.43,-258.249"/>
<polygon fill="midnightblue" stroke="midnightblue" points="627.884,-261.441 635.972,-254.596 625.381,-254.903 627.884,-261.441"/>
</g>
<!-- Node2&#45;&gt;Node1 -->
<g id="edge28" class="edge"><title>Node2&#45;&gt;Node1</title>
<path fill="none" stroke="midnightblue" d="M347.185,-310.652C348.647,-317.524 349.302,-327.559 349.149,-337.263"/>
<polygon fill="midnightblue" stroke="midnightblue" points="345.641,-337.344 348.666,-347.498 352.633,-337.674 345.641,-337.344"/>
</g>
<!-- Node3 -->
<g id="node3" class="node"><title>Node3</title>
<polygon fill="white" stroke="#bfbfbf" points="380.92,-235.5 380.92,-254.5 437.92,-254.5 437.92,-235.5 380.92,-235.5"/>
<text text-anchor="middle" x="409.42" y="-242.5" font-family="Helvetica,sans-Serif" font-size="10.00">memory</text>
</g>
<!-- Node2&#45;&gt;Node3 -->
<g id="edge2" class="edge"><title>Node2&#45;&gt;Node3</title>
<path fill="none" stroke="midnightblue" d="M353.185,-291.324C363.187,-283.263 378.307,-271.077 390.351,-261.369"/>
<polygon fill="midnightblue" stroke="midnightblue" points="392.87,-263.834 398.46,-254.834 388.478,-258.384 392.87,-263.834"/>
</g>
<!-- Node4 -->
<g id="node4" class="node"><title>Node4</title>
<polygon fill="white" stroke="#bfbfbf" points="63.4205,-174 63.4205,-193 107.42,-193 107.42,-174 63.4205,-174"/>
<text text-anchor="middle" x="85.4205" y="-181" font-family="Helvetica,sans-Serif" font-size="10.00">string</text>
</g>
<!-- Node2&#45;&gt;Node4 -->
<g id="edge3" class="edge"><title>Node2&#45;&gt;Node4</title>
<path fill="none" stroke="midnightblue" d="M264.847,-300.415C179.606,-299.019 50.5971,-290.821 19.4205,-255 1.67667,-234.613 32.4498,-211.946 57.6735,-197.955"/>
<polygon fill="midnightblue" stroke="midnightblue" points="59.4204,-200.991 66.6152,-193.213 56.1408,-194.806 59.4204,-200.991"/>
</g>
<!-- Node5 -->
<g id="node5" class="node"><title>Node5</title>
<polygon fill="white" stroke="#bfbfbf" points="111.92,-112.5 111.92,-131.5 158.92,-131.5 158.92,-112.5 111.92,-112.5"/>
<text text-anchor="middle" x="135.42" y="-119.5" font-family="Helvetica,sans-Serif" font-size="10.00">vector</text>
</g>
<!-- Node2&#45;&gt;Node5 -->
<g id="edge4" class="edge"><title>Node2&#45;&gt;Node5</title>
<path fill="none" stroke="midnightblue" d="M264.654,-300.766C177.087,-299.77 42.7568,-292.015 10.4205,-255 -28.9175,-209.97 58.4232,-159.298 106.493,-135.995"/>
<polygon fill="midnightblue" stroke="midnightblue" points="108.276,-139.023 115.815,-131.579 105.279,-132.697 108.276,-139.023"/>
</g>
<!-- Node6 -->
<g id="node6" class="node"><title>Node6</title>
<g id="a_node6"><a xlink:href="AssetData_8hpp.html" target="_top" xlink:title="Core/Asset/AssetData.hpp">
<polygon fill="white" stroke="black" points="28.9205,-235.5 28.9205,-254.5 171.92,-254.5 171.92,-235.5 28.9205,-235.5"/>
<text text-anchor="middle" x="100.42" y="-242.5" font-family="Helvetica,sans-Serif" font-size="10.00">Core/Asset/AssetData.hpp</text>
</a>
</g>
</g>
<!-- Node2&#45;&gt;Node6 -->
<g id="edge5" class="edge"><title>Node2&#45;&gt;Node6</title>
<path fill="none" stroke="midnightblue" d="M304.075,-291.444C261.947,-282.043 194.214,-266.929 148.548,-256.739"/>
<polygon fill="midnightblue" stroke="midnightblue" points="149.109,-253.278 138.587,-254.516 147.584,-260.11 149.109,-253.278"/>
</g>
<!-- Node7 -->
<g id="node7" class="node"><title>Node7</title>
<g id="a_node7"><a xlink:href="RaCore_8hpp.html" target="_top" xlink:title="Core/RaCore.hpp">
<polygon fill="white" stroke="black" points="295.42,-112.5 295.42,-131.5 393.42,-131.5 393.42,-112.5 295.42,-112.5"/>
<text text-anchor="middle" x="344.42" y="-119.5" font-family="Helvetica,sans-Serif" font-size="10.00">Core/RaCore.hpp</text>
</a>
</g>
</g>
<!-- Node2&#45;&gt;Node7 -->
<g id="edge27" class="edge"><title>Node2&#45;&gt;Node7</title>
<path fill="none" stroke="midnightblue" d="M390.47,-291.458C411.363,-285.101 433.891,-274.074 446.42,-255 451.301,-247.571 449.629,-243.289 446.42,-235 430.114,-192.877 389.777,-156.862 364.993,-137.72"/>
<polygon fill="midnightblue" stroke="midnightblue" points="367.037,-134.879 356.94,-131.671 362.833,-140.475 367.037,-134.879"/>
</g>
<!-- Node14 -->
<g id="node14" class="node"><title>Node14</title>
<g id="a_node14"><a xlink:href="VectorArray_8hpp.html" target="_top" xlink:title="Core/Containers/VectorArray.hpp">
<polygon fill="white" stroke="black" points="189.92,-235.5 189.92,-254.5 362.92,-254.5 362.92,-235.5 189.92,-235.5"/>
<text text-anchor="middle" x="276.42" y="-242.5" font-family="Helvetica,sans-Serif" font-size="10.00">Core/Containers/VectorArray.hpp</text>
</a>
</g>
</g>
<!-- Node2&#45;&gt;Node14 -->
<g id="edge14" class="edge"><title>Node2&#45;&gt;Node14</title>
<path fill="none" stroke="midnightblue" d="M331.816,-291.324C321.964,-283.263 307.07,-271.077 295.205,-261.369"/>
<polygon fill="midnightblue" stroke="midnightblue" points="297.173,-258.457 287.217,-254.834 292.741,-263.875 297.173,-258.457"/>
</g>
<!-- Node17 -->
<g id="node17" class="node"><title>Node17</title>
<g id="a_node17"><a xlink:href="Types_8hpp.html" target="_top" xlink:title="Core/Math/Types.hpp">
<polygon fill="white" stroke="black" points="486.42,-174 486.42,-193 602.42,-193 602.42,-174 486.42,-174"/>
<text text-anchor="middle" x="544.42" y="-181" font-family="Helvetica,sans-Serif" font-size="10.00">Core/Math/Types.hpp</text>
</a>
</g>
</g>
<!-- Node2&#45;&gt;Node17 -->
<g id="edge26" class="edge"><title>Node2&#45;&gt;Node17</title>
<path fill="none" stroke="midnightblue" d="M387.894,-291.43C416.135,-284.646 452.284,-273.212 480.42,-255 502.23,-240.884 521.381,-217.53 532.919,-201.601"/>
<polygon fill="midnightblue" stroke="midnightblue" points="535.928,-203.405 538.795,-193.206 530.193,-199.391 535.928,-203.405"/>
</g>
<!-- Node6&#45;&gt;Node4 -->
<g id="edge13" class="edge"><title>Node6&#45;&gt;Node4</title>
<path fill="none" stroke="midnightblue" d="M98.2713,-235.475C96.1327,-226.992 92.7829,-213.704 90.0395,-202.822"/>
<polygon fill="midnightblue" stroke="midnightblue" points="93.404,-201.85 87.5656,-193.009 86.6164,-203.561 93.404,-201.85"/>
</g>
<!-- Node6&#45;&gt;Node7 -->
<g id="edge6" class="edge"><title>Node6&#45;&gt;Node7</title>
<path fill="none" stroke="midnightblue" d="M157.044,-235.459C218.122,-225.772 308.31,-209.911 320.42,-199 336.611,-184.413 341.964,-159.008 343.686,-141.617"/>
<polygon fill="midnightblue" stroke="midnightblue" points="347.185,-141.755 344.371,-131.541 340.201,-141.28 347.185,-141.755"/>
</g>
<!-- Node8 -->
<g id="node8" class="node"><title>Node8</title>
<g id="a_node8"><a xlink:href="CoreMacros_8hpp.html" target="_top" xlink:title="Core/CoreMacros.hpp">
<polygon fill="white" stroke="black" points="341.42,-56.5 341.42,-75.5 461.42,-75.5 461.42,-56.5 341.42,-56.5"/>
<text text-anchor="middle" x="401.42" y="-63.5" font-family="Helvetica,sans-Serif" font-size="10.00">Core/CoreMacros.hpp</text>
</a>
</g>
</g>
<!-- Node7&#45;&gt;Node8 -->
<g id="edge7" class="edge"><title>Node7&#45;&gt;Node8</title>
<path fill="none" stroke="midnightblue" d="M353.579,-112.324C361.922,-104.42 374.453,-92.5482 384.597,-82.9377"/>
<polygon fill="midnightblue" stroke="midnightblue" points="387.243,-85.2522 392.096,-75.8339 382.429,-80.1705 387.243,-85.2522"/>
</g>
<!-- Node9 -->
<g id="node9" class="node"><title>Node9</title>
<polygon fill="white" stroke="#bfbfbf" points="342.42,-0.5 342.42,-19.5 394.42,-19.5 394.42,-0.5 342.42,-0.5"/>
<text text-anchor="middle" x="368.42" y="-7.5" font-family="Helvetica,sans-Serif" font-size="10.00">cassert</text>
</g>
<!-- Node8&#45;&gt;Node9 -->
<g id="edge8" class="edge"><title>Node8&#45;&gt;Node9</title>
<path fill="none" stroke="midnightblue" d="M395.971,-56.083C391.406,-48.6127 384.752,-37.7244 379.127,-28.5199"/>
<polygon fill="midnightblue" stroke="midnightblue" points="381.969,-26.4588 373.768,-19.7511 375.996,-30.109 381.969,-26.4588"/>
</g>
<!-- Node10 -->
<g id="node10" class="node"><title>Node10</title>
<polygon fill="white" stroke="#bfbfbf" points="412.92,-0.5 412.92,-19.5 457.92,-19.5 457.92,-0.5 412.92,-0.5"/>
<text text-anchor="middle" x="435.42" y="-7.5" font-family="Helvetica,sans-Serif" font-size="10.00">cstdio</text>
</g>
<!-- Node8&#45;&gt;Node10 -->
<g id="edge9" class="edge"><title>Node8&#45;&gt;Node10</title>
<path fill="none" stroke="midnightblue" d="M407.035,-56.083C411.788,-48.5341 418.739,-37.4948 424.572,-28.2298"/>
<polygon fill="midnightblue" stroke="midnightblue" points="427.544,-30.0783 429.911,-19.7511 421.621,-26.3486 427.544,-30.0783"/>
</g>
<!-- Node11 -->
<g id="node11" class="node"><title>Node11</title>
<polygon fill="white" stroke="#bfbfbf" points="475.92,-0.5 475.92,-19.5 534.92,-19.5 534.92,-0.5 475.92,-0.5"/>
<text text-anchor="middle" x="505.42" y="-7.5" font-family="Helvetica,sans-Serif" font-size="10.00">iostream</text>
</g>
<!-- Node8&#45;&gt;Node11 -->
<g id="edge10" class="edge"><title>Node8&#45;&gt;Node11</title>
<path fill="none" stroke="midnightblue" d="M418.13,-56.324C434.732,-47.7034 460.423,-34.3643 479.641,-24.3855"/>
<polygon fill="midnightblue" stroke="midnightblue" points="481.49,-27.3689 488.753,-19.6545 478.265,-21.1565 481.49,-27.3689"/>
</g>
<!-- Node12 -->
<g id="node12" class="node"><title>Node12</title>
<polygon fill="white" stroke="#bfbfbf" points="609.42,-0.5 609.42,-19.5 665.42,-19.5 665.42,-0.5 609.42,-0.5"/>
<text text-anchor="middle" x="637.42" y="-7.5" font-family="Helvetica,sans-Serif" font-size="10.00">sstream</text>
</g>
<!-- Node8&#45;&gt;Node12 -->
<g id="edge11" class="edge"><title>Node8&#45;&gt;Node12</title>
<path fill="none" stroke="midnightblue" d="M438.815,-56.4435C482.706,-46.4007 555.097,-29.8367 599.299,-19.7226"/>
<polygon fill="midnightblue" stroke="midnightblue" points="600.122,-23.125 609.089,-17.4826 598.56,-16.3014 600.122,-23.125"/>
</g>
<!-- Node13 -->
<g id="node13" class="node"><title>Node13</title>
<polygon fill="white" stroke="#bfbfbf" points="276.42,-0.5 276.42,-19.5 324.42,-19.5 324.42,-0.5 276.42,-0.5"/>
<text text-anchor="middle" x="300.42" y="-7.5" font-family="Helvetica,sans-Serif" font-size="10.00">thread</text>
</g>
<!-- Node8&#45;&gt;Node13 -->
<g id="edge12" class="edge"><title>Node8&#45;&gt;Node13</title>
<path fill="none" stroke="midnightblue" d="M385.193,-56.324C369.069,-47.7034 344.12,-34.3643 325.456,-24.3855"/>
<polygon fill="midnightblue" stroke="midnightblue" points="327.077,-21.283 316.608,-19.6545 323.776,-27.456 327.077,-21.283"/>
</g>
<!-- Node14&#45;&gt;Node5 -->
<g id="edge25" class="edge"><title>Node14&#45;&gt;Node5</title>
<path fill="none" stroke="midnightblue" d="M219.818,-235.461C196.22,-229.131 170.409,-218.125 153.42,-199 139.519,-183.35 135.838,-158.938 135.106,-142.023"/>
<polygon fill="midnightblue" stroke="midnightblue" points="138.602,-141.666 134.981,-131.709 131.603,-141.751 138.602,-141.666"/>
</g>
<!-- Node14&#45;&gt;Node7 -->
<g id="edge24" class="edge"><title>Node14&#45;&gt;Node7</title>
<path fill="none" stroke="midnightblue" d="M304.793,-235.495C322.173,-228.653 343.017,-217.13 353.42,-199 363.619,-181.228 358.264,-157.287 352.393,-141.06"/>
<polygon fill="midnightblue" stroke="midnightblue" points="355.591,-139.63 348.62,-131.652 349.094,-142.237 355.591,-139.63"/>
</g>
<!-- Node15 -->
<g id="node15" class="node"><title>Node15</title>
<g id="a_node15"><a xlink:href="AlignedStdVector_8hpp.html" target="_top" xlink:title="Core/Containers/AlignedStd\lVector.hpp">
<polygon fill="white" stroke="black" points="162.92,-168.5 162.92,-198.5 311.92,-198.5 311.92,-168.5 162.92,-168.5"/>
<text text-anchor="start" x="170.92" y="-186.5" font-family="Helvetica,sans-Serif" font-size="10.00">Core/Containers/AlignedStd</text>
<text text-anchor="middle" x="237.42" y="-175.5" font-family="Helvetica,sans-Serif" font-size="10.00">Vector.hpp</text>
</a>
</g>
</g>
<!-- Node14&#45;&gt;Node15 -->
<g id="edge15" class="edge"><title>Node14&#45;&gt;Node15</title>
<path fill="none" stroke="midnightblue" d="M270.833,-235.475C265.995,-228.094 258.774,-217.077 252.281,-207.171"/>
<polygon fill="midnightblue" stroke="midnightblue" points="255.021,-204.968 246.612,-198.523 249.167,-208.805 255.021,-204.968"/>
</g>
<!-- Node14&#45;&gt;Node17 -->
<g id="edge19" class="edge"><title>Node14&#45;&gt;Node17</title>
<path fill="none" stroke="midnightblue" d="M314.818,-235.475C362.581,-224.871 444.156,-206.76 496.116,-195.224"/>
<polygon fill="midnightblue" stroke="midnightblue" points="497.09,-198.593 506.094,-193.009 495.573,-191.76 497.09,-198.593"/>
</g>
<!-- Node15&#45;&gt;Node5 -->
<g id="edge18" class="edge"><title>Node15&#45;&gt;Node5</title>
<path fill="none" stroke="midnightblue" d="M213.248,-168.399C196.898,-158.862 175.406,-146.325 159.15,-136.842"/>
<polygon fill="midnightblue" stroke="midnightblue" points="160.664,-133.673 150.262,-131.658 157.137,-139.72 160.664,-133.673"/>
</g>
<!-- Node15&#45;&gt;Node7 -->
<g id="edge16" class="edge"><title>Node15&#45;&gt;Node7</title>
<path fill="none" stroke="midnightblue" d="M262.778,-168.399C280.09,-158.773 302.897,-146.09 320.004,-136.577"/>
<polygon fill="midnightblue" stroke="midnightblue" points="321.812,-139.577 328.851,-131.658 318.41,-133.459 321.812,-139.577"/>
</g>
<!-- Node16 -->
<g id="node16" class="node"><title>Node16</title>
<polygon fill="white" stroke="#bfbfbf" points="184.92,-112.5 184.92,-131.5 277.92,-131.5 277.92,-112.5 184.92,-112.5"/>
<text text-anchor="middle" x="231.42" y="-119.5" font-family="Helvetica,sans-Serif" font-size="10.00">Eigen/StdVector</text>
</g>
<!-- Node15&#45;&gt;Node16 -->
<g id="edge17" class="edge"><title>Node15&#45;&gt;Node16</title>
<path fill="none" stroke="midnightblue" d="M235.999,-168.399C235.199,-160.466 234.189,-150.458 233.322,-141.858"/>
<polygon fill="midnightblue" stroke="midnightblue" points="236.779,-141.256 232.294,-131.658 229.815,-141.959 236.779,-141.256"/>
</g>
<!-- Node17&#45;&gt;Node7 -->
<g id="edge20" class="edge"><title>Node17&#45;&gt;Node7</title>
<path fill="none" stroke="midnightblue" d="M515.765,-173.975C480.864,-163.592 421.77,-146.012 382.921,-134.454"/>
<polygon fill="midnightblue" stroke="midnightblue" points="383.605,-131.006 373.022,-131.509 381.609,-137.715 383.605,-131.006"/>
</g>
<!-- Node18 -->
<g id="node18" class="node"><title>Node18</title>
<polygon fill="white" stroke="#bfbfbf" points="411.42,-112.5 411.42,-131.5 479.42,-131.5 479.42,-112.5 411.42,-112.5"/>
<text text-anchor="middle" x="445.42" y="-119.5" font-family="Helvetica,sans-Serif" font-size="10.00">Eigen/Core</text>
</g>
<!-- Node17&#45;&gt;Node18 -->
<g id="edge21" class="edge"><title>Node17&#45;&gt;Node18</title>
<path fill="none" stroke="midnightblue" d="M530.236,-173.975C514.063,-164.255 487.394,-148.227 468.277,-136.737"/>
<polygon fill="midnightblue" stroke="midnightblue" points="469.953,-133.661 459.578,-131.509 466.347,-139.66 469.953,-133.661"/>
</g>
<!-- Node19 -->
<g id="node19" class="node"><title>Node19</title>
<polygon fill="white" stroke="#bfbfbf" points="497.42,-112.5 497.42,-131.5 591.42,-131.5 591.42,-112.5 497.42,-112.5"/>
<text text-anchor="middle" x="544.42" y="-119.5" font-family="Helvetica,sans-Serif" font-size="10.00">Eigen/Geometry</text>
</g>
<!-- Node17&#45;&gt;Node19 -->
<g id="edge22" class="edge"><title>Node17&#45;&gt;Node19</title>
<path fill="none" stroke="midnightblue" d="M544.42,-173.975C544.42,-165.58 544.42,-152.481 544.42,-141.663"/>
<polygon fill="midnightblue" stroke="midnightblue" points="547.921,-141.509 544.42,-131.509 540.921,-141.509 547.921,-141.509"/>
</g>
<!-- Node20 -->
<g id="node20" class="node"><title>Node20</title>
<polygon fill="white" stroke="#bfbfbf" points="609.42,-112.5 609.42,-131.5 689.42,-131.5 689.42,-112.5 609.42,-112.5"/>
<text text-anchor="middle" x="649.42" y="-119.5" font-family="Helvetica,sans-Serif" font-size="10.00">Eigen/Sparse</text>
</g>
<!-- Node17&#45;&gt;Node20 -->
<g id="edge23" class="edge"><title>Node17&#45;&gt;Node20</title>
<path fill="none" stroke="midnightblue" d="M559.464,-173.975C576.696,-164.211 605.16,-148.081 625.454,-136.581"/>
<polygon fill="midnightblue" stroke="midnightblue" points="627.43,-139.484 634.404,-131.509 623.979,-133.394 627.43,-139.484"/>
</g>
<!-- Node21&#45;&gt;Node4 -->
<g id="edge34" class="edge"><title>Node21&#45;&gt;Node4</title>
<path fill="none" stroke="midnightblue" d="M606.193,-241.438C514.262,-236.462 317.707,-223.742 153.42,-199 141.631,-197.225 128.818,-194.661 117.524,-192.181"/>
<polygon fill="midnightblue" stroke="midnightblue" points="118.179,-188.741 107.653,-189.953 116.637,-195.569 118.179,-188.741"/>
</g>
<!-- Node21&#45;&gt;Node7 -->
<g id="edge30" class="edge"><title>Node21&#45;&gt;Node7</title>
<path fill="none" stroke="midnightblue" d="M606.34,-236.472C569.183,-229.823 518.694,-218.137 477.42,-199 456.046,-189.09 454.578,-180.196 434.42,-168 414.621,-156.02 391.214,-144.389 373.234,-135.954"/>
<polygon fill="midnightblue" stroke="midnightblue" points="374.406,-132.639 363.861,-131.614 371.465,-138.992 374.406,-132.639"/>
</g>
<!-- Node21&#45;&gt;Node12 -->
<g id="edge32" class="edge"><title>Node21&#45;&gt;Node12</title>
<path fill="none" stroke="midnightblue" d="M664.531,-235.391C678.669,-214.391 711.464,-158.827 698.42,-112 689.31,-79.2919 666.425,-46.5985 651.422,-27.6121"/>
<polygon fill="midnightblue" stroke="midnightblue" points="653.996,-25.2299 644.973,-19.6772 648.564,-29.6449 653.996,-25.2299"/>
</g>
<!-- Node22 -->
<g id="node22" class="node"><title>Node22</title>
<polygon fill="white" stroke="#bfbfbf" points="745.42,-174 745.42,-193 789.42,-193 789.42,-174 745.42,-174"/>
<text text-anchor="middle" x="767.42" y="-181" font-family="Helvetica,sans-Serif" font-size="10.00">ctime</text>
</g>
<!-- Node21&#45;&gt;Node22 -->
<g id="edge31" class="edge"><title>Node21&#45;&gt;Node22</title>
<path fill="none" stroke="midnightblue" d="M674.038,-235.475C692.006,-225.666 721.742,-209.435 742.827,-197.925"/>
<polygon fill="midnightblue" stroke="midnightblue" points="744.732,-200.873 751.832,-193.009 741.378,-194.728 744.732,-200.873"/>
</g>
<!-- Node23 -->
<g id="node23" class="node"><title>Node23</title>
<polygon fill="white" stroke="#bfbfbf" points="807.92,-174 807.92,-193 856.92,-193 856.92,-174 807.92,-174"/>
<text text-anchor="middle" x="832.42" y="-181" font-family="Helvetica,sans-Serif" font-size="10.00">stdio.h</text>
</g>
<!-- Node21&#45;&gt;Node23 -->
<g id="edge33" class="edge"><title>Node21&#45;&gt;Node23</title>
<path fill="none" stroke="midnightblue" d="M687.646,-235.464C716.156,-226.936 760.627,-213.099 798.42,-199 800.074,-198.383 801.764,-197.732 803.465,-197.06"/>
<polygon fill="midnightblue" stroke="midnightblue" points="805.205,-200.129 813.127,-193.093 802.547,-193.653 805.205,-200.129"/>
</g>
</g>
</svg>
