<?xml version="1.0" encoding="UTF-8" standalone="no"?>
<!DOCTYPE svg PUBLIC "-//W3C//DTD SVG 1.1//EN"
 "http://www.w3.org/Graphics/SVG/1.1/DTD/svg11.dtd">
<!-- Generated by graphviz version 2.38.0 (20140413.2041)
 -->
<!-- Title: /home/travis/build/STORM&#45;IRIT/Radium&#45;Engine/src/GuiBase/Viewer/CameraInterface.hpp Pages: 1 -->
<svg width="871pt" height="274pt"
 viewBox="0.00 0.00 871.00 274.00" xmlns="http://www.w3.org/2000/svg" xmlns:xlink="http://www.w3.org/1999/xlink">
<g id="graph0" class="graph" transform="scale(1 1) rotate(0) translate(4 270)">
<title>/home/travis/build/STORM&#45;IRIT/Radium&#45;Engine/src/GuiBase/Viewer/CameraInterface.hpp</title>
<polygon fill="white" stroke="none" points="-4,4 -4,-270 867,-270 867,4 -4,4"/>
<!-- Node1 -->
<g id="node1" class="node"><title>Node1</title>
<polygon fill="#bfbfbf" stroke="black" points="237.5,-224.5 237.5,-265.5 452.5,-265.5 452.5,-224.5 237.5,-224.5"/>
<text text-anchor="start" x="245.5" y="-253.5" font-family="Helvetica,sans-Serif" font-size="10.00">/home/travis/build</text>
<text text-anchor="start" x="245.5" y="-242.5" font-family="Helvetica,sans-Serif" font-size="10.00">/STORM&#45;IRIT/Radium&#45;Engine</text>
<text text-anchor="middle" x="345" y="-231.5" font-family="Helvetica,sans-Serif" font-size="10.00">/src/GuiBase/Viewer/CameraInterface.hpp</text>
</g>
<!-- Node2 -->
<g id="node2" class="node"><title>Node2</title>
<g id="a_node2"><a xlink:href="RaGuiBase_8hpp.html" target="_top" xlink:title="GuiBase/RaGuiBase.hpp">
<polygon fill="white" stroke="black" points="0,-168.5 0,-187.5 132,-187.5 132,-168.5 0,-168.5"/>
<text text-anchor="middle" x="66" y="-175.5" font-family="Helvetica,sans-Serif" font-size="10.00">GuiBase/RaGuiBase.hpp</text>
</a>
</g>
</g>
<!-- Node1&#45;&gt;Node2 -->
<g id="edge1" class="edge"><title>Node1&#45;&gt;Node2</title>
<path fill="none" stroke="midnightblue" d="M261.291,-224.498C212.609,-213.156 153.073,-199.286 112.626,-189.863"/>
<polygon fill="midnightblue" stroke="midnightblue" points="113.306,-186.427 102.773,-187.567 111.718,-193.245 113.306,-186.427"/>
</g>
<!-- Node3 -->
<g id="node3" class="node"><title>Node3</title>
<g id="a_node3"><a xlink:href="CoreMacros_8hpp.html" target="_top" xlink:title="Core/CoreMacros.hpp">
<polygon fill="white" stroke="black" points="190,-56.5 190,-75.5 310,-75.5 310,-56.5 190,-56.5"/>
<text text-anchor="middle" x="250" y="-63.5" font-family="Helvetica,sans-Serif" font-size="10.00">Core/CoreMacros.hpp</text>
</a>
</g>
</g>
<!-- Node1&#45;&gt;Node3 -->
<g id="edge12" class="edge"><title>Node1&#45;&gt;Node3</title>
<path fill="none" stroke="midnightblue" d="M237.195,-228.857C214.456,-220.484 193.103,-207.641 179,-188 152.883,-151.626 200.898,-105.089 230.037,-81.7478"/>
<polygon fill="midnightblue" stroke="midnightblue" points="232.273,-84.443 238.025,-75.5456 227.98,-78.914 232.273,-84.443"/>
</g>
<!-- Node9 -->
<g id="node9" class="node"><title>Node9</title>
<polygon fill="white" stroke="#bfbfbf" points="188.5,-168.5 188.5,-187.5 245.5,-187.5 245.5,-168.5 188.5,-168.5"/>
<text text-anchor="middle" x="217" y="-175.5" font-family="Helvetica,sans-Serif" font-size="10.00">memory</text>
</g>
<!-- Node1&#45;&gt;Node9 -->
<g id="edge8" class="edge"><title>Node1&#45;&gt;Node9</title>
<path fill="none" stroke="midnightblue" d="M306.596,-224.498C286.122,-214.101 261.464,-201.579 243.203,-192.306"/>
<polygon fill="midnightblue" stroke="midnightblue" points="244.54,-189.06 234.039,-187.652 241.37,-195.301 244.54,-189.06"/>
</g>
<!-- Node10 -->
<g id="node10" class="node"><title>Node10</title>
<polygon fill="white" stroke="#bfbfbf" points="264,-168.5 264,-187.5 332,-187.5 332,-168.5 264,-168.5"/>
<text text-anchor="middle" x="298" y="-175.5" font-family="Helvetica,sans-Serif" font-size="10.00">QKeyEvent</text>
</g>
<!-- Node1&#45;&gt;Node10 -->
<g id="edge9" class="edge"><title>Node1&#45;&gt;Node10</title>
<path fill="none" stroke="midnightblue" d="M330.898,-224.498C324.316,-215.395 316.556,-204.662 310.226,-195.908"/>
<polygon fill="midnightblue" stroke="midnightblue" points="312.952,-193.705 304.256,-187.652 307.28,-197.807 312.952,-193.705"/>
</g>
<!-- Node11 -->
<g id="node11" class="node"><title>Node11</title>
<polygon fill="white" stroke="#bfbfbf" points="350.5,-168.5 350.5,-187.5 433.5,-187.5 433.5,-168.5 350.5,-168.5"/>
<text text-anchor="middle" x="392" y="-175.5" font-family="Helvetica,sans-Serif" font-size="10.00">QMouseEvent</text>
</g>
<!-- Node1&#45;&gt;Node11 -->
<g id="edge10" class="edge"><title>Node1&#45;&gt;Node11</title>
<path fill="none" stroke="midnightblue" d="M359.102,-224.498C365.684,-215.395 373.444,-204.662 379.774,-195.908"/>
<polygon fill="midnightblue" stroke="midnightblue" points="382.72,-197.807 385.744,-187.652 377.048,-193.705 382.72,-197.807"/>
</g>
<!-- Node12 -->
<g id="node12" class="node"><title>Node12</title>
<polygon fill="white" stroke="#bfbfbf" points="451.5,-168.5 451.5,-187.5 506.5,-187.5 506.5,-168.5 451.5,-168.5"/>
<text text-anchor="middle" x="479" y="-175.5" font-family="Helvetica,sans-Serif" font-size="10.00">QObject</text>
</g>
<!-- Node1&#45;&gt;Node12 -->
<g id="edge11" class="edge"><title>Node1&#45;&gt;Node12</title>
<path fill="none" stroke="midnightblue" d="M385.204,-224.498C406.836,-214.005 432.928,-201.348 452.096,-192.051"/>
<polygon fill="midnightblue" stroke="midnightblue" points="453.693,-195.166 461.163,-187.652 450.638,-188.868 453.693,-195.166"/>
</g>
<!-- Node13 -->
<g id="node13" class="node"><title>Node13</title>
<g id="a_node13"><a xlink:href="Types_8hpp.html" target="_top" xlink:title="Core/Math/Types.hpp">
<polygon fill="white" stroke="black" points="525,-168.5 525,-187.5 641,-187.5 641,-168.5 525,-168.5"/>
<text text-anchor="middle" x="583" y="-175.5" font-family="Helvetica,sans-Serif" font-size="10.00">Core/Math/Types.hpp</text>
</a>
</g>
</g>
<!-- Node1&#45;&gt;Node13 -->
<g id="edge13" class="edge"><title>Node1&#45;&gt;Node13</title>
<path fill="none" stroke="midnightblue" d="M416.408,-224.498C457.408,-213.3 507.433,-199.638 541.902,-190.224"/>
<polygon fill="midnightblue" stroke="midnightblue" points="542.907,-193.578 551.631,-187.567 541.063,-186.825 542.907,-193.578"/>
</g>
<!-- Node18 -->
<g id="node18" class="node"><title>Node18</title>
<g id="a_node18"><a xlink:href="Log_8hpp.html" target="_top" xlink:title="Core/Utils/Log.hpp">
<polygon fill="white" stroke="black" points="659,-168.5 659,-187.5 763,-187.5 763,-168.5 659,-168.5"/>
<text text-anchor="middle" x="711" y="-175.5" font-family="Helvetica,sans-Serif" font-size="10.00">Core/Utils/Log.hpp</text>
</a>
</g>
</g>
<!-- Node1&#45;&gt;Node18 -->
<g id="edge19" class="edge"><title>Node1&#45;&gt;Node18</title>
<path fill="none" stroke="midnightblue" d="M452.833,-224.849C518.204,-213.24 599.064,-198.879 652.688,-189.356"/>
<polygon fill="midnightblue" stroke="midnightblue" points="653.471,-192.772 662.705,-187.577 652.247,-185.88 653.471,-192.772"/>
</g>
<!-- Node2&#45;&gt;Node3 -->
<g id="edge2" class="edge"><title>Node2&#45;&gt;Node3</title>
<path fill="none" stroke="midnightblue" d="M75.2091,-168.081C89.4673,-154.62 118.155,-128.894 146,-112 168.071,-98.6095 194.84,-87.1233 215.692,-79.1073"/>
<polygon fill="midnightblue" stroke="midnightblue" points="216.983,-82.3612 225.112,-75.5662 214.52,-75.8089 216.983,-82.3612"/>
</g>
<!-- Node4 -->
<g id="node4" class="node"><title>Node4</title>
<polygon fill="white" stroke="#bfbfbf" points="122,-0.5 122,-19.5 174,-19.5 174,-0.5 122,-0.5"/>
<text text-anchor="middle" x="148" y="-7.5" font-family="Helvetica,sans-Serif" font-size="10.00">cassert</text>
</g>
<!-- Node3&#45;&gt;Node4 -->
<g id="edge3" class="edge"><title>Node3&#45;&gt;Node4</title>
<path fill="none" stroke="midnightblue" d="M233.612,-56.324C217.329,-47.7034 192.133,-34.3643 173.284,-24.3855"/>
<polygon fill="midnightblue" stroke="midnightblue" points="174.823,-21.2402 164.347,-19.6545 171.548,-27.4267 174.823,-21.2402"/>
</g>
<!-- Node5 -->
<g id="node5" class="node"><title>Node5</title>
<polygon fill="white" stroke="#bfbfbf" points="192.5,-0.5 192.5,-19.5 237.5,-19.5 237.5,-0.5 192.5,-0.5"/>
<text text-anchor="middle" x="215" y="-7.5" font-family="Helvetica,sans-Serif" font-size="10.00">cstdio</text>
</g>
<!-- Node3&#45;&gt;Node5 -->
<g id="edge4" class="edge"><title>Node3&#45;&gt;Node5</title>
<path fill="none" stroke="midnightblue" d="M244.22,-56.083C239.328,-48.5341 232.173,-37.4948 226.167,-28.2298"/>
<polygon fill="midnightblue" stroke="midnightblue" points="229.048,-26.239 220.672,-19.7511 223.174,-30.0463 229.048,-26.239"/>
</g>
<!-- Node6 -->
<g id="node6" class="node"><title>Node6</title>
<polygon fill="white" stroke="#bfbfbf" points="255.5,-0.5 255.5,-19.5 314.5,-19.5 314.5,-0.5 255.5,-0.5"/>
<text text-anchor="middle" x="285" y="-7.5" font-family="Helvetica,sans-Serif" font-size="10.00">iostream</text>
</g>
<!-- Node3&#45;&gt;Node6 -->
<g id="edge5" class="edge"><title>Node3&#45;&gt;Node6</title>
<path fill="none" stroke="midnightblue" d="M255.78,-56.083C260.672,-48.5341 267.827,-37.4948 273.833,-28.2298"/>
<polygon fill="midnightblue" stroke="midnightblue" points="276.826,-30.0463 279.328,-19.7511 270.952,-26.239 276.826,-30.0463"/>
</g>
<!-- Node7 -->
<g id="node7" class="node"><title>Node7</title>
<polygon fill="white" stroke="#bfbfbf" points="543,-0.5 543,-19.5 599,-19.5 599,-0.5 543,-0.5"/>
<text text-anchor="middle" x="571" y="-7.5" font-family="Helvetica,sans-Serif" font-size="10.00">sstream</text>
</g>
<!-- Node3&#45;&gt;Node7 -->
<g id="edge6" class="edge"><title>Node3&#45;&gt;Node7</title>
<path fill="none" stroke="midnightblue" d="M300.863,-56.4435C365.27,-45.6088 474.796,-27.1839 532.619,-17.4566"/>
<polygon fill="midnightblue" stroke="midnightblue" points="533.511,-20.8559 542.791,-15.7454 532.349,-13.9529 533.511,-20.8559"/>
</g>
<!-- Node8 -->
<g id="node8" class="node"><title>Node8</title>
<polygon fill="white" stroke="#bfbfbf" points="333,-0.5 333,-19.5 381,-19.5 381,-0.5 333,-0.5"/>
<text text-anchor="middle" x="357" y="-7.5" font-family="Helvetica,sans-Serif" font-size="10.00">thread</text>
</g>
<!-- Node3&#45;&gt;Node8 -->
<g id="edge7" class="edge"><title>Node3&#45;&gt;Node8</title>
<path fill="none" stroke="midnightblue" d="M267.191,-56.324C284.351,-47.6641 310.946,-34.2424 330.747,-24.249"/>
<polygon fill="midnightblue" stroke="midnightblue" points="332.501,-27.2847 339.851,-19.6545 329.347,-21.0354 332.501,-27.2847"/>
</g>
<!-- Node14 -->
<g id="node14" class="node"><title>Node14</title>
<g id="a_node14"><a xlink:href="RaCore_8hpp.html" target="_top" xlink:title="Core/RaCore.hpp">
<polygon fill="white" stroke="black" points="535,-112.5 535,-131.5 633,-131.5 633,-112.5 535,-112.5"/>
<text text-anchor="middle" x="584" y="-119.5" font-family="Helvetica,sans-Serif" font-size="10.00">Core/RaCore.hpp</text>
</a>
</g>
</g>
<!-- Node13&#45;&gt;Node14 -->
<g id="edge14" class="edge"><title>Node13&#45;&gt;Node14</title>
<path fill="none" stroke="midnightblue" d="M583.165,-168.083C583.296,-161.006 583.484,-150.861 583.648,-141.986"/>
<polygon fill="midnightblue" stroke="midnightblue" points="587.152,-141.814 583.838,-131.751 580.153,-141.685 587.152,-141.814"/>
</g>
<!-- Node15 -->
<g id="node15" class="node"><title>Node15</title>
<polygon fill="white" stroke="#bfbfbf" points="239,-112.5 239,-131.5 307,-131.5 307,-112.5 239,-112.5"/>
<text text-anchor="middle" x="273" y="-119.5" font-family="Helvetica,sans-Serif" font-size="10.00">Eigen/Core</text>
</g>
<!-- Node13&#45;&gt;Node15 -->
<g id="edge16" class="edge"><title>Node13&#45;&gt;Node15</title>
<path fill="none" stroke="midnightblue" d="M528.683,-168.488C476.87,-160.223 396.382,-147.009 317.371,-132.202"/>
<polygon fill="midnightblue" stroke="midnightblue" points="317.718,-128.706 307.243,-130.294 316.422,-135.585 317.718,-128.706"/>
</g>
<!-- Node16 -->
<g id="node16" class="node"><title>Node16</title>
<polygon fill="white" stroke="#bfbfbf" points="325,-112.5 325,-131.5 419,-131.5 419,-112.5 325,-112.5"/>
<text text-anchor="middle" x="372" y="-119.5" font-family="Helvetica,sans-Serif" font-size="10.00">Eigen/Geometry</text>
</g>
<!-- Node13&#45;&gt;Node16 -->
<g id="edge17" class="edge"><title>Node13&#45;&gt;Node16</title>
<path fill="none" stroke="midnightblue" d="M549.566,-168.444C513.144,-159.122 454.77,-144.183 414.971,-133.997"/>
<polygon fill="midnightblue" stroke="midnightblue" points="415.833,-130.605 405.277,-131.516 414.097,-137.387 415.833,-130.605"/>
</g>
<!-- Node17 -->
<g id="node17" class="node"><title>Node17</title>
<polygon fill="white" stroke="#bfbfbf" points="437,-112.5 437,-131.5 517,-131.5 517,-112.5 437,-112.5"/>
<text text-anchor="middle" x="477" y="-119.5" font-family="Helvetica,sans-Serif" font-size="10.00">Eigen/Sparse</text>
</g>
<!-- Node13&#45;&gt;Node17 -->
<g id="edge18" class="edge"><title>Node13&#45;&gt;Node17</title>
<path fill="none" stroke="midnightblue" d="M565.969,-168.324C548.97,-159.664 522.624,-146.242 503.007,-136.249"/>
<polygon fill="midnightblue" stroke="midnightblue" points="504.488,-133.075 493.988,-131.655 501.31,-139.312 504.488,-133.075"/>
</g>
<!-- Node14&#45;&gt;Node3 -->
<g id="edge15" class="edge"><title>Node14&#45;&gt;Node3</title>
<path fill="none" stroke="midnightblue" d="M534.717,-113.032C475.809,-103.508 377.141,-87.5557 312.814,-77.1556"/>
<polygon fill="midnightblue" stroke="midnightblue" points="313.227,-73.677 302.797,-75.536 312.11,-80.5872 313.227,-73.677"/>
</g>
<!-- Node18&#45;&gt;Node7 -->
<g id="edge22" class="edge"><title>Node18&#45;&gt;Node7</title>
<path fill="none" stroke="midnightblue" d="M703.473,-168.075C680.959,-141.38 613.898,-61.865 584.765,-27.3218"/>
<polygon fill="midnightblue" stroke="midnightblue" points="587.349,-24.956 578.226,-19.5681 581.998,-29.4689 587.349,-24.956"/>
</g>
<!-- Node18&#45;&gt;Node14 -->
<g id="edge20" class="edge"><title>Node18&#45;&gt;Node14</title>
<path fill="none" stroke="midnightblue" d="M690.876,-168.444C669.976,-159.557 637.065,-145.563 613.284,-135.451"/>
<polygon fill="midnightblue" stroke="midnightblue" points="614.602,-132.208 604.029,-131.516 611.862,-138.65 614.602,-132.208"/>
</g>
<!-- Node19 -->
<g id="node19" class="node"><title>Node19</title>
<polygon fill="white" stroke="#bfbfbf" points="689,-112.5 689,-131.5 733,-131.5 733,-112.5 689,-112.5"/>
<text text-anchor="middle" x="711" y="-119.5" font-family="Helvetica,sans-Serif" font-size="10.00">ctime</text>
</g>
<!-- Node18&#45;&gt;Node19 -->
<g id="edge21" class="edge"><title>Node18&#45;&gt;Node19</title>
<path fill="none" stroke="midnightblue" d="M711,-168.083C711,-161.006 711,-150.861 711,-141.986"/>
<polygon fill="midnightblue" stroke="midnightblue" points="714.5,-141.751 711,-131.751 707.5,-141.751 714.5,-141.751"/>
</g>
<!-- Node20 -->
<g id="node20" class="node"><title>Node20</title>
<polygon fill="white" stroke="#bfbfbf" points="751.5,-112.5 751.5,-131.5 800.5,-131.5 800.5,-112.5 751.5,-112.5"/>
<text text-anchor="middle" x="776" y="-119.5" font-family="Helvetica,sans-Serif" font-size="10.00">stdio.h</text>
</g>
<!-- Node18&#45;&gt;Node20 -->
<g id="edge23" class="edge"><title>Node18&#45;&gt;Node20</title>
<path fill="none" stroke="midnightblue" d="M721.443,-168.324C731.146,-160.263 745.815,-148.077 757.5,-138.369"/>
<polygon fill="midnightblue" stroke="midnightblue" points="759.911,-140.916 765.367,-131.834 755.438,-135.532 759.911,-140.916"/>
</g>
<!-- Node21 -->
<g id="node21" class="node"><title>Node21</title>
<polygon fill="white" stroke="#bfbfbf" points="819,-112.5 819,-131.5 863,-131.5 863,-112.5 819,-112.5"/>
<text text-anchor="middle" x="841" y="-119.5" font-family="Helvetica,sans-Serif" font-size="10.00">string</text>
</g>
<!-- Node18&#45;&gt;Node21 -->
<g id="edge24" class="edge"><title>Node18&#45;&gt;Node21</title>
<path fill="none" stroke="midnightblue" d="M731.599,-168.444C752.993,-159.557 786.681,-145.563 811.024,-135.451"/>
<polygon fill="midnightblue" stroke="midnightblue" points="812.605,-138.585 820.497,-131.516 809.92,-132.12 812.605,-138.585"/>
</g>
</g>
</svg>
