<?xml version="1.0" encoding="UTF-8" standalone="no"?>
<!DOCTYPE svg PUBLIC "-//W3C//DTD SVG 1.1//EN"
 "http://www.w3.org/Graphics/SVG/1.1/DTD/svg11.dtd">
<!-- Generated by graphviz version 2.38.0 (20140413.2041)
 -->
<!-- Title: /home/travis/build/STORM&#45;IRIT/Radium&#45;Engine/src/Engine/Renderer/Camera/Camera.hpp Pages: 1 -->
<svg width="3018pt" height="239pt"
 viewBox="0.00 0.00 3017.50 239.00" xmlns="http://www.w3.org/2000/svg" xmlns:xlink="http://www.w3.org/1999/xlink">
<g id="graph0" class="graph" transform="scale(1 1) rotate(0) translate(4 235)">
<title>/home/travis/build/STORM&#45;IRIT/Radium&#45;Engine/src/Engine/Renderer/Camera/Camera.hpp</title>
<polygon fill="white" stroke="none" points="-4,4 -4,-235 3013.5,-235 3013.5,4 -4,4"/>
<!-- Node1 -->
<g id="node1" class="node"><title>Node1</title>
<polygon fill="#bfbfbf" stroke="black" points="1412.5,-178.5 1412.5,-230.5 1568.5,-230.5 1568.5,-178.5 1412.5,-178.5"/>
<text text-anchor="start" x="1420.5" y="-218.5" font-family="Helvetica,sans-Serif" font-size="10.00">/home/travis/build</text>
<text text-anchor="start" x="1420.5" y="-207.5" font-family="Helvetica,sans-Serif" font-size="10.00">/STORM&#45;IRIT/Radium&#45;Engine</text>
<text text-anchor="start" x="1420.5" y="-196.5" font-family="Helvetica,sans-Serif" font-size="10.00">/src/Engine/Renderer/Camera</text>
<text text-anchor="middle" x="1490.5" y="-185.5" font-family="Helvetica,sans-Serif" font-size="10.00">/Camera.hpp</text>
</g>
<!-- Node2 -->
<g id="node2" class="node"><title>Node2</title>
<g id="a_node2"><a xlink:href="CameraManager_8cpp.html" target="_top" xlink:title="/home/travis/build\l/STORM&#45;IRIT/Radium&#45;Engine\l/src/Engine/Managers/CameraManager\l/CameraManager.cpp">
<polygon fill="white" stroke="black" points="-1.42109e-14,-89.5 -1.42109e-14,-141.5 203,-141.5 203,-89.5 -1.42109e-14,-89.5"/>
<text text-anchor="start" x="8" y="-129.5" font-family="Helvetica,sans-Serif" font-size="10.00">/home/travis/build</text>
<text text-anchor="start" x="8" y="-118.5" font-family="Helvetica,sans-Serif" font-size="10.00">/STORM&#45;IRIT/Radium&#45;Engine</text>
<text text-anchor="start" x="8" y="-107.5" font-family="Helvetica,sans-Serif" font-size="10.00">/src/Engine/Managers/CameraManager</text>
<text text-anchor="middle" x="101.5" y="-96.5" font-family="Helvetica,sans-Serif" font-size="10.00">/CameraManager.cpp</text>
</a>
</g>
</g>
<!-- Node1&#45;&gt;Node2 -->
<g id="edge1" class="edge"><title>Node1&#45;&gt;Node2</title>
<path fill="none" stroke="midnightblue" d="M1402.03,-201.291C1151.94,-194.722 442.973,-173.762 212.5,-142 209.464,-141.582 206.389,-141.12 203.29,-140.623"/>
<polygon fill="midnightblue" stroke="midnightblue" points="1402.08,-204.794 1412.17,-201.556 1402.26,-197.796 1402.08,-204.794"/>
</g>
<!-- Node3 -->
<g id="node3" class="node"><title>Node3</title>
<g id="a_node3"><a xlink:href="DefaultCameraManager_8hpp.html" target="_top" xlink:title="/home/travis/build\l/STORM&#45;IRIT/Radium&#45;Engine\l/src/Engine/Managers/CameraManager\l/DefaultCameraManager.hpp">
<polygon fill="white" stroke="black" points="221,-89.5 221,-141.5 424,-141.5 424,-89.5 221,-89.5"/>
<text text-anchor="start" x="229" y="-129.5" font-family="Helvetica,sans-Serif" font-size="10.00">/home/travis/build</text>
<text text-anchor="start" x="229" y="-118.5" font-family="Helvetica,sans-Serif" font-size="10.00">/STORM&#45;IRIT/Radium&#45;Engine</text>
<text text-anchor="start" x="229" y="-107.5" font-family="Helvetica,sans-Serif" font-size="10.00">/src/Engine/Managers/CameraManager</text>
<text text-anchor="middle" x="322.5" y="-96.5" font-family="Helvetica,sans-Serif" font-size="10.00">/DefaultCameraManager.hpp</text>
</a>
</g>
</g>
<!-- Node1&#45;&gt;Node3 -->
<g id="edge2" class="edge"><title>Node1&#45;&gt;Node3</title>
<path fill="none" stroke="midnightblue" d="M1402.43,-203.35C1220.47,-201.949 790.237,-192.987 433.5,-142 430.466,-141.566 427.393,-141.092 424.295,-140.583"/>
<polygon fill="midnightblue" stroke="midnightblue" points="1402.45,-206.85 1412.48,-203.422 1402.5,-199.851 1402.45,-206.85"/>
</g>
<!-- Node6 -->
<g id="node6" class="node"><title>Node6</title>
<g id="a_node6"><a xlink:href="Camera_8cpp.html" target="_top" xlink:title="/home/travis/build\l/STORM&#45;IRIT/Radium&#45;Engine\l/src/Engine/Renderer/Camera\l/Camera.cpp">
<polygon fill="white" stroke="black" points="442.5,-89.5 442.5,-141.5 598.5,-141.5 598.5,-89.5 442.5,-89.5"/>
<text text-anchor="start" x="450.5" y="-129.5" font-family="Helvetica,sans-Serif" font-size="10.00">/home/travis/build</text>
<text text-anchor="start" x="450.5" y="-118.5" font-family="Helvetica,sans-Serif" font-size="10.00">/STORM&#45;IRIT/Radium&#45;Engine</text>
<text text-anchor="start" x="450.5" y="-107.5" font-family="Helvetica,sans-Serif" font-size="10.00">/src/Engine/Renderer/Camera</text>
<text text-anchor="middle" x="520.5" y="-96.5" font-family="Helvetica,sans-Serif" font-size="10.00">/Camera.cpp</text>
</a>
</g>
</g>
<!-- Node1&#45;&gt;Node6 -->
<g id="edge5" class="edge"><title>Node1&#45;&gt;Node6</title>
<path fill="none" stroke="midnightblue" d="M1402.19,-203.616C1242.36,-202.441 895.01,-193.525 607.5,-142 604.556,-141.472 601.57,-140.883 598.565,-140.243"/>
<polygon fill="midnightblue" stroke="midnightblue" points="1402.42,-207.117 1412.44,-203.682 1402.47,-200.118 1402.42,-207.117"/>
</g>
<!-- Node7 -->
<g id="node7" class="node"><title>Node7</title>
<g id="a_node7"><a xlink:href="Camera_8inl.html" target="_top" xlink:title="/home/travis/build\l/STORM&#45;IRIT/Radium&#45;Engine\l/src/Engine/Renderer/Camera\l/Camera.inl">
<polygon fill="white" stroke="black" points="616.5,-89.5 616.5,-141.5 772.5,-141.5 772.5,-89.5 616.5,-89.5"/>
<text text-anchor="start" x="624.5" y="-129.5" font-family="Helvetica,sans-Serif" font-size="10.00">/home/travis/build</text>
<text text-anchor="start" x="624.5" y="-118.5" font-family="Helvetica,sans-Serif" font-size="10.00">/STORM&#45;IRIT/Radium&#45;Engine</text>
<text text-anchor="start" x="624.5" y="-107.5" font-family="Helvetica,sans-Serif" font-size="10.00">/src/Engine/Renderer/Camera</text>
<text text-anchor="middle" x="694.5" y="-96.5" font-family="Helvetica,sans-Serif" font-size="10.00">/Camera.inl</text>
</a>
</g>
</g>
<!-- Node1&#45;&gt;Node7 -->
<g id="edge6" class="edge"><title>Node1&#45;&gt;Node7</title>
<path fill="none" stroke="midnightblue" d="M1401.88,-201.631C1265.39,-197.444 996.315,-184.075 772.5,-142 771.727,-141.855 770.95,-141.705 770.171,-141.552"/>
<polygon fill="midnightblue" stroke="midnightblue" points="1402.17,-205.142 1412.27,-201.94 1402.38,-198.145 1402.17,-205.142"/>
</g>
<!-- Node8 -->
<g id="node8" class="node"><title>Node8</title>
<g id="a_node8"><a xlink:href="Renderer_8cpp.html" target="_top" xlink:title="/home/travis/build\l/STORM&#45;IRIT/Radium&#45;Engine\l/src/Engine/Renderer/Renderer.cpp">
<polygon fill="white" stroke="black" points="790.5,-95 790.5,-136 970.5,-136 970.5,-95 790.5,-95"/>
<text text-anchor="start" x="798.5" y="-124" font-family="Helvetica,sans-Serif" font-size="10.00">/home/travis/build</text>
<text text-anchor="start" x="798.5" y="-113" font-family="Helvetica,sans-Serif" font-size="10.00">/STORM&#45;IRIT/Radium&#45;Engine</text>
<text text-anchor="middle" x="880.5" y="-102" font-family="Helvetica,sans-Serif" font-size="10.00">/src/Engine/Renderer/Renderer.cpp</text>
</a>
</g>
</g>
<!-- Node1&#45;&gt;Node8 -->
<g id="edge8" class="edge"><title>Node1&#45;&gt;Node8</title>
<path fill="none" stroke="midnightblue" d="M1402.11,-196.44C1299.81,-187.443 1126.52,-169.657 979.5,-142 970.43,-140.294 960.96,-138.229 951.626,-136.021"/>
<polygon fill="midnightblue" stroke="midnightblue" points="1401.83,-199.928 1412.09,-197.31 1402.44,-192.955 1401.83,-199.928"/>
</g>
<!-- Node9 -->
<g id="node9" class="node"><title>Node9</title>
<g id="a_node9"><a xlink:href="RenderObject_8cpp.html" target="_top" xlink:title="/home/travis/build\l/STORM&#45;IRIT/Radium&#45;Engine\l/src/Engine/Renderer/RenderObject\l/RenderObject.cpp">
<polygon fill="white" stroke="black" points="988.5,-89.5 988.5,-141.5 1170.5,-141.5 1170.5,-89.5 988.5,-89.5"/>
<text text-anchor="start" x="996.5" y="-129.5" font-family="Helvetica,sans-Serif" font-size="10.00">/home/travis/build</text>
<text text-anchor="start" x="996.5" y="-118.5" font-family="Helvetica,sans-Serif" font-size="10.00">/STORM&#45;IRIT/Radium&#45;Engine</text>
<text text-anchor="start" x="996.5" y="-107.5" font-family="Helvetica,sans-Serif" font-size="10.00">/src/Engine/Renderer/RenderObject</text>
<text text-anchor="middle" x="1079.5" y="-96.5" font-family="Helvetica,sans-Serif" font-size="10.00">/RenderObject.cpp</text>
</a>
</g>
</g>
<!-- Node1&#45;&gt;Node9 -->
<g id="edge9" class="edge"><title>Node1&#45;&gt;Node9</title>
<path fill="none" stroke="midnightblue" d="M1402.09,-187.343C1339.7,-175.619 1254.25,-158.909 1179.5,-142 1176.62,-141.348 1173.69,-140.674 1170.74,-139.983"/>
<polygon fill="midnightblue" stroke="midnightblue" points="1401.81,-190.853 1412.29,-189.254 1403.1,-183.973 1401.81,-190.853"/>
</g>
<!-- Node10 -->
<g id="node10" class="node"><title>Node10</title>
<g id="a_node10"><a xlink:href="BaseApplication_8cpp.html" target="_top" xlink:title="/home/travis/build\l/STORM&#45;IRIT/Radium&#45;Engine\l/src/GuiBase/BaseApplication.cpp">
<polygon fill="white" stroke="black" points="1188.5,-95 1188.5,-136 1364.5,-136 1364.5,-95 1188.5,-95"/>
<text text-anchor="start" x="1196.5" y="-124" font-family="Helvetica,sans-Serif" font-size="10.00">/home/travis/build</text>
<text text-anchor="start" x="1196.5" y="-113" font-family="Helvetica,sans-Serif" font-size="10.00">/STORM&#45;IRIT/Radium&#45;Engine</text>
<text text-anchor="middle" x="1276.5" y="-102" font-family="Helvetica,sans-Serif" font-size="10.00">/src/GuiBase/BaseApplication.cpp</text>
</a>
</g>
</g>
<!-- Node1&#45;&gt;Node10 -->
<g id="edge10" class="edge"><title>Node1&#45;&gt;Node10</title>
<path fill="none" stroke="midnightblue" d="M1419.41,-174.598C1388.34,-161.969 1352.71,-147.482 1324.79,-136.134"/>
<polygon fill="midnightblue" stroke="midnightblue" points="1418.31,-177.929 1428.89,-178.453 1420.94,-171.444 1418.31,-177.929"/>
</g>
<!-- Node11 -->
<g id="node11" class="node"><title>Node11</title>
<g id="a_node11"><a xlink:href="CameraInterface_8cpp.html" target="_top" xlink:title="/home/travis/build\l/STORM&#45;IRIT/Radium&#45;Engine\l/src/GuiBase/Viewer/CameraInterface.cpp">
<polygon fill="white" stroke="black" points="1383,-95 1383,-136 1598,-136 1598,-95 1383,-95"/>
<text text-anchor="start" x="1391" y="-124" font-family="Helvetica,sans-Serif" font-size="10.00">/home/travis/build</text>
<text text-anchor="start" x="1391" y="-113" font-family="Helvetica,sans-Serif" font-size="10.00">/STORM&#45;IRIT/Radium&#45;Engine</text>
<text text-anchor="middle" x="1490.5" y="-102" font-family="Helvetica,sans-Serif" font-size="10.00">/src/GuiBase/Viewer/CameraInterface.cpp</text>
</a>
</g>
</g>
<!-- Node1&#45;&gt;Node11 -->
<g id="edge11" class="edge"><title>Node1&#45;&gt;Node11</title>
<path fill="none" stroke="midnightblue" d="M1490.5,-168.155C1490.5,-157.21 1490.5,-145.549 1490.5,-136.082"/>
<polygon fill="midnightblue" stroke="midnightblue" points="1487,-168.336 1490.5,-178.336 1494,-168.336 1487,-168.336"/>
</g>
<!-- Node12 -->
<g id="node12" class="node"><title>Node12</title>
<g id="a_node12"><a xlink:href="Gizmo_8cpp.html" target="_top" xlink:title="/home/travis/build\l/STORM&#45;IRIT/Radium&#45;Engine\l/src/GuiBase/Viewer/Gizmo\l/Gizmo.cpp">
<polygon fill="white" stroke="black" points="1616.5,-89.5 1616.5,-141.5 1764.5,-141.5 1764.5,-89.5 1616.5,-89.5"/>
<text text-anchor="start" x="1624.5" y="-129.5" font-family="Helvetica,sans-Serif" font-size="10.00">/home/travis/build</text>
<text text-anchor="start" x="1624.5" y="-118.5" font-family="Helvetica,sans-Serif" font-size="10.00">/STORM&#45;IRIT/Radium&#45;Engine</text>
<text text-anchor="start" x="1624.5" y="-107.5" font-family="Helvetica,sans-Serif" font-size="10.00">/src/GuiBase/Viewer/Gizmo</text>
<text text-anchor="middle" x="1690.5" y="-96.5" font-family="Helvetica,sans-Serif" font-size="10.00">/Gizmo.cpp</text>
</a>
</g>
</g>
<!-- Node1&#45;&gt;Node12 -->
<g id="edge12" class="edge"><title>Node1&#45;&gt;Node12</title>
<path fill="none" stroke="midnightblue" d="M1557.31,-174.436C1581.83,-163.771 1609.35,-151.8 1632.98,-141.521"/>
<polygon fill="midnightblue" stroke="midnightblue" points="1555.85,-171.254 1548.08,-178.453 1558.65,-177.673 1555.85,-171.254"/>
</g>
<!-- Node13 -->
<g id="node13" class="node"><title>Node13</title>
<g id="a_node13"><a xlink:href="GizmoManager_8cpp.html" target="_top" xlink:title="/home/travis/build\l/STORM&#45;IRIT/Radium&#45;Engine\l/src/GuiBase/Viewer/Gizmo\l/GizmoManager.cpp">
<polygon fill="white" stroke="black" points="1782.5,-89.5 1782.5,-141.5 1930.5,-141.5 1930.5,-89.5 1782.5,-89.5"/>
<text text-anchor="start" x="1790.5" y="-129.5" font-family="Helvetica,sans-Serif" font-size="10.00">/home/travis/build</text>
<text text-anchor="start" x="1790.5" y="-118.5" font-family="Helvetica,sans-Serif" font-size="10.00">/STORM&#45;IRIT/Radium&#45;Engine</text>
<text text-anchor="start" x="1790.5" y="-107.5" font-family="Helvetica,sans-Serif" font-size="10.00">/src/GuiBase/Viewer/Gizmo</text>
<text text-anchor="middle" x="1856.5" y="-96.5" font-family="Helvetica,sans-Serif" font-size="10.00">/GizmoManager.cpp</text>
</a>
</g>
</g>
<!-- Node1&#45;&gt;Node13 -->
<g id="edge13" class="edge"><title>Node1&#45;&gt;Node13</title>
<path fill="none" stroke="midnightblue" d="M1578.6,-186.343C1634.67,-174.932 1708.69,-158.966 1773.5,-142 1776.42,-141.236 1779.38,-140.437 1782.38,-139.611"/>
<polygon fill="midnightblue" stroke="midnightblue" points="1577.8,-182.933 1568.7,-188.348 1579.19,-189.794 1577.8,-182.933"/>
</g>
<!-- Node14 -->
<g id="node14" class="node"><title>Node14</title>
<g id="a_node14"><a xlink:href="RotateGizmo_8cpp.html" target="_top" xlink:title="/home/travis/build\l/STORM&#45;IRIT/Radium&#45;Engine\l/src/GuiBase/Viewer/Gizmo\l/RotateGizmo.cpp">
<polygon fill="white" stroke="black" points="1948.5,-89.5 1948.5,-141.5 2096.5,-141.5 2096.5,-89.5 1948.5,-89.5"/>
<text text-anchor="start" x="1956.5" y="-129.5" font-family="Helvetica,sans-Serif" font-size="10.00">/home/travis/build</text>
<text text-anchor="start" x="1956.5" y="-118.5" font-family="Helvetica,sans-Serif" font-size="10.00">/STORM&#45;IRIT/Radium&#45;Engine</text>
<text text-anchor="start" x="1956.5" y="-107.5" font-family="Helvetica,sans-Serif" font-size="10.00">/src/GuiBase/Viewer/Gizmo</text>
<text text-anchor="middle" x="2022.5" y="-96.5" font-family="Helvetica,sans-Serif" font-size="10.00">/RotateGizmo.cpp</text>
</a>
</g>
</g>
<!-- Node1&#45;&gt;Node14 -->
<g id="edge14" class="edge"><title>Node1&#45;&gt;Node14</title>
<path fill="none" stroke="midnightblue" d="M1578.65,-195.685C1669.73,-186.62 1815.64,-169.32 1939.5,-142 1942.44,-141.351 1945.43,-140.647 1948.45,-139.902"/>
<polygon fill="midnightblue" stroke="midnightblue" points="1578.25,-192.208 1568.64,-196.67 1578.94,-199.174 1578.25,-192.208"/>
</g>
<!-- Node15 -->
<g id="node15" class="node"><title>Node15</title>
<g id="a_node15"><a xlink:href="ScaleGizmo_8cpp.html" target="_top" xlink:title="/home/travis/build\l/STORM&#45;IRIT/Radium&#45;Engine\l/src/GuiBase/Viewer/Gizmo\l/ScaleGizmo.cpp">
<polygon fill="white" stroke="black" points="2114.5,-89.5 2114.5,-141.5 2262.5,-141.5 2262.5,-89.5 2114.5,-89.5"/>
<text text-anchor="start" x="2122.5" y="-129.5" font-family="Helvetica,sans-Serif" font-size="10.00">/home/travis/build</text>
<text text-anchor="start" x="2122.5" y="-118.5" font-family="Helvetica,sans-Serif" font-size="10.00">/STORM&#45;IRIT/Radium&#45;Engine</text>
<text text-anchor="start" x="2122.5" y="-107.5" font-family="Helvetica,sans-Serif" font-size="10.00">/src/GuiBase/Viewer/Gizmo</text>
<text text-anchor="middle" x="2188.5" y="-96.5" font-family="Helvetica,sans-Serif" font-size="10.00">/ScaleGizmo.cpp</text>
</a>
</g>
</g>
<!-- Node1&#45;&gt;Node15 -->
<g id="edge15" class="edge"><title>Node1&#45;&gt;Node15</title>
<path fill="none" stroke="midnightblue" d="M1579.16,-200.155C1699.43,-194.366 1920.5,-179.284 2105.5,-142 2108.46,-141.404 2111.46,-140.746 2114.48,-140.039"/>
<polygon fill="midnightblue" stroke="midnightblue" points="1578.73,-196.671 1568.9,-200.637 1579.06,-203.663 1578.73,-196.671"/>
</g>
<!-- Node16 -->
<g id="node16" class="node"><title>Node16</title>
<g id="a_node16"><a xlink:href="TranslateGizmo_8cpp.html" target="_top" xlink:title="/home/travis/build\l/STORM&#45;IRIT/Radium&#45;Engine\l/src/GuiBase/Viewer/Gizmo\l/TranslateGizmo.cpp">
<polygon fill="white" stroke="black" points="2280.5,-89.5 2280.5,-141.5 2428.5,-141.5 2428.5,-89.5 2280.5,-89.5"/>
<text text-anchor="start" x="2288.5" y="-129.5" font-family="Helvetica,sans-Serif" font-size="10.00">/home/travis/build</text>
<text text-anchor="start" x="2288.5" y="-118.5" font-family="Helvetica,sans-Serif" font-size="10.00">/STORM&#45;IRIT/Radium&#45;Engine</text>
<text text-anchor="start" x="2288.5" y="-107.5" font-family="Helvetica,sans-Serif" font-size="10.00">/src/GuiBase/Viewer/Gizmo</text>
<text text-anchor="middle" x="2354.5" y="-96.5" font-family="Helvetica,sans-Serif" font-size="10.00">/TranslateGizmo.cpp</text>
</a>
</g>
</g>
<!-- Node1&#45;&gt;Node16 -->
<g id="edge16" class="edge"><title>Node1&#45;&gt;Node16</title>
<path fill="none" stroke="midnightblue" d="M1578.78,-202.83C1724.38,-200.327 2023.44,-189.278 2271.5,-142 2274.46,-141.436 2277.47,-140.804 2280.49,-140.118"/>
<polygon fill="midnightblue" stroke="midnightblue" points="1578.51,-199.334 1568.57,-202.996 1578.62,-206.333 1578.51,-199.334"/>
</g>
<!-- Node17 -->
<g id="node17" class="node"><title>Node17</title>
<g id="a_node17"><a xlink:href="TrackballCamera_8cpp.html" target="_top" xlink:title="/home/travis/build\l/STORM&#45;IRIT/Radium&#45;Engine\l/src/GuiBase/Viewer/TrackballCamera.cpp">
<polygon fill="white" stroke="black" points="2447,-95 2447,-136 2660,-136 2660,-95 2447,-95"/>
<text text-anchor="start" x="2455" y="-124" font-family="Helvetica,sans-Serif" font-size="10.00">/home/travis/build</text>
<text text-anchor="start" x="2455" y="-113" font-family="Helvetica,sans-Serif" font-size="10.00">/STORM&#45;IRIT/Radium&#45;Engine</text>
<text text-anchor="middle" x="2553.5" y="-102" font-family="Helvetica,sans-Serif" font-size="10.00">/src/GuiBase/Viewer/TrackballCamera.cpp</text>
</a>
</g>
</g>
<!-- Node1&#45;&gt;Node17 -->
<g id="edge17" class="edge"><title>Node1&#45;&gt;Node17</title>
<path fill="none" stroke="midnightblue" d="M1578.58,-202.227C1746.47,-198.819 2123.57,-186.438 2437.5,-142 2448.73,-140.411 2460.49,-138.327 2472.03,-136.035"/>
<polygon fill="midnightblue" stroke="midnightblue" points="1578.48,-198.728 1568.55,-202.425 1578.62,-205.727 1578.48,-198.728"/>
</g>
<!-- Node18 -->
<g id="node18" class="node"><title>Node18</title>
<g id="a_node18"><a xlink:href="Viewer_8cpp.html" target="_top" xlink:title="/home/travis/build\l/STORM&#45;IRIT/Radium&#45;Engine\l/src/GuiBase/Viewer/Viewer.cpp">
<polygon fill="white" stroke="black" points="2678,-95 2678,-136 2843,-136 2843,-95 2678,-95"/>
<text text-anchor="start" x="2686" y="-124" font-family="Helvetica,sans-Serif" font-size="10.00">/home/travis/build</text>
<text text-anchor="start" x="2686" y="-113" font-family="Helvetica,sans-Serif" font-size="10.00">/STORM&#45;IRIT/Radium&#45;Engine</text>
<text text-anchor="middle" x="2760.5" y="-102" font-family="Helvetica,sans-Serif" font-size="10.00">/src/GuiBase/Viewer/Viewer.cpp</text>
</a>
</g>
</g>
<!-- Node1&#45;&gt;Node18 -->
<g id="edge18" class="edge"><title>Node1&#45;&gt;Node18</title>
<path fill="none" stroke="midnightblue" d="M1579.11,-201.415C1815.92,-195.438 2459.74,-176.425 2669.5,-142 2678.73,-140.485 2688.36,-138.381 2697.75,-136.025"/>
<polygon fill="midnightblue" stroke="midnightblue" points="1578.73,-197.924 1568.82,-201.673 1578.9,-204.921 1578.73,-197.924"/>
</g>
<!-- Node19 -->
<g id="node19" class="node"><title>Node19</title>
<g id="a_node19"><a xlink:href="CameraManipPlugin_8cpp.html" target="_top" xlink:title="/home/travis/build\l/STORM&#45;IRIT/Radium&#45;Engine\l/Plugins/CameraManip/src\l/CameraManipPlugin.cpp">
<polygon fill="white" stroke="black" points="2861.5,-89.5 2861.5,-141.5 3009.5,-141.5 3009.5,-89.5 2861.5,-89.5"/>
<text text-anchor="start" x="2869.5" y="-129.5" font-family="Helvetica,sans-Serif" font-size="10.00">/home/travis/build</text>
<text text-anchor="start" x="2869.5" y="-118.5" font-family="Helvetica,sans-Serif" font-size="10.00">/STORM&#45;IRIT/Radium&#45;Engine</text>
<text text-anchor="start" x="2869.5" y="-107.5" font-family="Helvetica,sans-Serif" font-size="10.00">/Plugins/CameraManip/src</text>
<text text-anchor="middle" x="2935.5" y="-96.5" font-family="Helvetica,sans-Serif" font-size="10.00">/CameraManipPlugin.cpp</text>
</a>
</g>
</g>
<!-- Node1&#45;&gt;Node19 -->
<g id="edge19" class="edge"><title>Node1&#45;&gt;Node19</title>
<path fill="none" stroke="midnightblue" d="M1578.94,-202.423C1840.34,-198.778 2606.39,-184.653 2852.5,-142 2855.32,-141.511 2858.18,-140.954 2861.06,-140.342"/>
<polygon fill="midnightblue" stroke="midnightblue" points="1578.69,-198.926 1568.74,-202.563 1578.79,-205.925 1578.69,-198.926"/>
</g>
<!-- Node4 -->
<g id="node4" class="node"><title>Node4</title>
<g id="a_node4"><a xlink:href="DefaultCameraManager_8cpp.html" target="_top" xlink:title="/home/travis/build\l/STORM&#45;IRIT/Radium&#45;Engine\l/src/Engine/Managers/CameraManager\l/DefaultCameraManager.cpp">
<polygon fill="white" stroke="black" points="119,-0.5 119,-52.5 322,-52.5 322,-0.5 119,-0.5"/>
<text text-anchor="start" x="127" y="-40.5" font-family="Helvetica,sans-Serif" font-size="10.00">/home/travis/build</text>
<text text-anchor="start" x="127" y="-29.5" font-family="Helvetica,sans-Serif" font-size="10.00">/STORM&#45;IRIT/Radium&#45;Engine</text>
<text text-anchor="start" x="127" y="-18.5" font-family="Helvetica,sans-Serif" font-size="10.00">/src/Engine/Managers/CameraManager</text>
<text text-anchor="middle" x="220.5" y="-7.5" font-family="Helvetica,sans-Serif" font-size="10.00">/DefaultCameraManager.cpp</text>
</a>
</g>
</g>
<!-- Node3&#45;&gt;Node4 -->
<g id="edge3" class="edge"><title>Node3&#45;&gt;Node4</title>
<path fill="none" stroke="midnightblue" d="M285.157,-82.6489C273.551,-72.749 260.925,-61.9801 249.936,-52.6075"/>
<polygon fill="midnightblue" stroke="midnightblue" points="283.118,-85.5094 292.997,-89.336 287.66,-80.1836 283.118,-85.5094"/>
</g>
<!-- Node5 -->
<g id="node5" class="node"><title>Node5</title>
<g id="a_node5"><a xlink:href="ForwardRenderer_8cpp.html" target="_top" xlink:title="/home/travis/build\l/STORM&#45;IRIT/Radium&#45;Engine\l/src/Engine/Renderer/Renderers\l/ForwardRenderer.cpp">
<polygon fill="white" stroke="black" points="340.5,-0.5 340.5,-52.5 506.5,-52.5 506.5,-0.5 340.5,-0.5"/>
<text text-anchor="start" x="348.5" y="-40.5" font-family="Helvetica,sans-Serif" font-size="10.00">/home/travis/build</text>
<text text-anchor="start" x="348.5" y="-29.5" font-family="Helvetica,sans-Serif" font-size="10.00">/STORM&#45;IRIT/Radium&#45;Engine</text>
<text text-anchor="start" x="348.5" y="-18.5" font-family="Helvetica,sans-Serif" font-size="10.00">/src/Engine/Renderer/Renderers</text>
<text text-anchor="middle" x="423.5" y="-7.5" font-family="Helvetica,sans-Serif" font-size="10.00">/ForwardRenderer.cpp</text>
</a>
</g>
</g>
<!-- Node3&#45;&gt;Node5 -->
<g id="edge4" class="edge"><title>Node3&#45;&gt;Node5</title>
<path fill="none" stroke="midnightblue" d="M359.477,-82.6489C370.97,-72.749 383.471,-61.9801 394.352,-52.6075"/>
<polygon fill="midnightblue" stroke="midnightblue" points="357.006,-80.1577 351.713,-89.336 361.574,-85.4614 357.006,-80.1577"/>
</g>
<!-- Node7&#45;&gt;Node1 -->
<g id="edge7" class="edge"><title>Node7&#45;&gt;Node1</title>
<path fill="none" stroke="midnightblue" d="M782.418,-140.363C785.138,-140.951 787.836,-141.499 790.5,-142 1013.92,-184.001 1282.45,-197.397 1412.48,-201.609"/>
<polygon fill="midnightblue" stroke="midnightblue" points="783.032,-136.912 772.501,-138.077 781.46,-143.734 783.032,-136.912"/>
</g>
</g>
</svg>
