<?xml version="1.0" encoding="UTF-8" standalone="no"?>
<!DOCTYPE svg PUBLIC "-//W3C//DTD SVG 1.1//EN"
 "http://www.w3.org/Graphics/SVG/1.1/DTD/svg11.dtd">
<!-- Generated by graphviz version 2.38.0 (20140413.2041)
 -->
<!-- Title: Ra::IO::AssimpLightDataLoader Pages: 1 -->
<svg width="310pt" height="580pt"
 viewBox="0.00 0.00 309.50 580.00" xmlns="http://www.w3.org/2000/svg" xmlns:xlink="http://www.w3.org/1999/xlink">
<g id="graph0" class="graph" transform="scale(1 1) rotate(0) translate(4 576)">
<title>Ra::IO::AssimpLightDataLoader</title>
<polygon fill="white" stroke="none" points="-4,4 -4,-576 305.5,-576 305.5,4 -4,4"/>
<!-- Node1 -->
<g id="node1" class="node"><title>Node1</title>
<polygon fill="#bfbfbf" stroke="black" points="0,-0.5 0,-156.5 165,-156.5 165,-0.5 0,-0.5"/>
<text text-anchor="middle" x="82.5" y="-144.5" font-family="Helvetica,sans-Serif" font-size="10.00">Ra::IO::AssimpLightDataLoader</text>
<polyline fill="none" stroke="black" points="0,-137.5 165,-137.5 "/>
<text text-anchor="middle" x="82.5" y="-125.5" font-family="Helvetica,sans-Serif" font-size="10.00"> </text>
<polyline fill="none" stroke="black" points="0,-118.5 165,-118.5 "/>
<text text-anchor="start" x="8" y="-106.5" font-family="Helvetica,sans-Serif" font-size="10.00">+ AssimpLightDataLoader()</text>
<text text-anchor="start" x="8" y="-95.5" font-family="Helvetica,sans-Serif" font-size="10.00">+ ~AssimpLightDataLoader()</text>
<text text-anchor="start" x="8" y="-84.5" font-family="Helvetica,sans-Serif" font-size="10.00">+ loadData()</text>
<text text-anchor="start" x="8" y="-73.5" font-family="Helvetica,sans-Serif" font-size="10.00"># sceneHasLight()</text>
<text text-anchor="start" x="8" y="-62.5" font-family="Helvetica,sans-Serif" font-size="10.00"># sceneLightSize()</text>
<text text-anchor="start" x="8" y="-51.5" font-family="Helvetica,sans-Serif" font-size="10.00"># loadLightData()</text>
<text text-anchor="start" x="8" y="-40.5" font-family="Helvetica,sans-Serif" font-size="10.00"># loadLightFrame()</text>
<text text-anchor="start" x="8" y="-29.5" font-family="Helvetica,sans-Serif" font-size="10.00"># fetchName()</text>
<text text-anchor="start" x="8" y="-18.5" font-family="Helvetica,sans-Serif" font-size="10.00"># fetchType()</text>
<text text-anchor="start" x="8" y="-7.5" font-family="Helvetica,sans-Serif" font-size="10.00"># setFrame()</text>
</g>
<!-- Node2 -->
<g id="node2" class="node"><title>Node2</title>
<g id="a_node2"><a xlink:href="classRa_1_1Core_1_1Asset_1_1DataLoader.html" target="_top" xlink:title="{Ra::Core::Asset::DataLoader\l\&lt; Core::Asset::LightData \&gt;\n||+ DataLoader()\l+ ~DataLoader()\l+ loadData()\l+ isVerbose()\l+ setVerbose()\l}">
<polygon fill="white" stroke="black" points="6.5,-194.5 6.5,-306.5 158.5,-306.5 158.5,-194.5 6.5,-194.5"/>
<text text-anchor="start" x="14.5" y="-294.5" font-family="Helvetica,sans-Serif" font-size="10.00">Ra::Core::Asset::DataLoader</text>
<text text-anchor="middle" x="82.5" y="-283.5" font-family="Helvetica,sans-Serif" font-size="10.00">&lt; Core::Asset::LightData &gt;</text>
<polyline fill="none" stroke="black" points="6.5,-276.5 158.5,-276.5 "/>
<text text-anchor="middle" x="82.5" y="-264.5" font-family="Helvetica,sans-Serif" font-size="10.00"> </text>
<polyline fill="none" stroke="black" points="6.5,-257.5 158.5,-257.5 "/>
<text text-anchor="start" x="14.5" y="-245.5" font-family="Helvetica,sans-Serif" font-size="10.00">+ DataLoader()</text>
<text text-anchor="start" x="14.5" y="-234.5" font-family="Helvetica,sans-Serif" font-size="10.00">+ ~DataLoader()</text>
<text text-anchor="start" x="14.5" y="-223.5" font-family="Helvetica,sans-Serif" font-size="10.00">+ loadData()</text>
<text text-anchor="start" x="14.5" y="-212.5" font-family="Helvetica,sans-Serif" font-size="10.00">+ isVerbose()</text>
<text text-anchor="start" x="14.5" y="-201.5" font-family="Helvetica,sans-Serif" font-size="10.00">+ setVerbose()</text>
</a>
</g>
</g>
<!-- Node2&#45;&gt;Node1 -->
<g id="edge1" class="edge"><title>Node2&#45;&gt;Node1</title>
<path fill="none" stroke="midnightblue" d="M82.5,-184.263C82.5,-175.229 82.5,-165.879 82.5,-156.654"/>
<polygon fill="none" stroke="midnightblue" points="79.0001,-184.306 82.5,-194.306 86.0001,-184.306 79.0001,-184.306"/>
</g>
<!-- Node3 -->
<g id="node3" class="node"><title>Node3</title>
<g id="a_node3"><a xlink:href="classbool.html" target="_top" xlink:title="{bool\n||}">
<polygon fill="white" stroke="black" points="96,-514.5 96,-571.5 133,-571.5 133,-514.5 96,-514.5"/>
<text text-anchor="middle" x="114.5" y="-559.5" font-family="Helvetica,sans-Serif" font-size="10.00">bool</text>
<polyline fill="none" stroke="black" points="96,-552.5 133,-552.5 "/>
<text text-anchor="middle" x="114.5" y="-540.5" font-family="Helvetica,sans-Serif" font-size="10.00"> </text>
<polyline fill="none" stroke="black" points="96,-533.5 133,-533.5 "/>
<text text-anchor="middle" x="114.5" y="-521.5" font-family="Helvetica,sans-Serif" font-size="10.00"> </text>
</a>
</g>
</g>
<!-- Node3&#45;&gt;Node2 -->
<g id="edge2" class="edge"><title>Node3&#45;&gt;Node2</title>
<path fill="none" stroke="#404040" d="M96.0989,-514.43C88.0742,-500.779 79.5776,-483.68 75.5,-467 63.6219,-418.411 66.051,-361.833 71.0876,-318.844"/>
<polygon fill="none" stroke="#404040" points="71.1032,-318.72 67.886,-312.266 72.6058,-306.814 75.823,-313.268 71.1032,-318.72"/>
<text text-anchor="middle" x="108" y="-408" font-family="Helvetica,sans-Serif" font-size="10.00"> #m_verbose</text>
</g>
<!-- Node4 -->
<g id="node4" class="node"><title>Node4</title>
<g id="a_node4"><a xlink:href="classRa_1_1Core_1_1Asset_1_1DataLoader.html" target="_top" xlink:title="{Ra::Core::Asset::DataLoader\l\&lt; DATA \&gt;\n||+ DataLoader()\l+ ~DataLoader()\l+ loadData()\l+ isVerbose()\l+ setVerbose()\l}">
<polygon fill="white" stroke="black" points="149.5,-354.5 149.5,-466.5 301.5,-466.5 301.5,-354.5 149.5,-354.5"/>
<text text-anchor="start" x="157.5" y="-454.5" font-family="Helvetica,sans-Serif" font-size="10.00">Ra::Core::Asset::DataLoader</text>
<text text-anchor="middle" x="225.5" y="-443.5" font-family="Helvetica,sans-Serif" font-size="10.00">&lt; DATA &gt;</text>
<polyline fill="none" stroke="black" points="149.5,-436.5 301.5,-436.5 "/>
<text text-anchor="middle" x="225.5" y="-424.5" font-family="Helvetica,sans-Serif" font-size="10.00"> </text>
<polyline fill="none" stroke="black" points="149.5,-417.5 301.5,-417.5 "/>
<text text-anchor="start" x="157.5" y="-405.5" font-family="Helvetica,sans-Serif" font-size="10.00">+ DataLoader()</text>
<text text-anchor="start" x="157.5" y="-394.5" font-family="Helvetica,sans-Serif" font-size="10.00">+ ~DataLoader()</text>
<text text-anchor="start" x="157.5" y="-383.5" font-family="Helvetica,sans-Serif" font-size="10.00">+ loadData()</text>
<text text-anchor="start" x="157.5" y="-372.5" font-family="Helvetica,sans-Serif" font-size="10.00">+ isVerbose()</text>
<text text-anchor="start" x="157.5" y="-361.5" font-family="Helvetica,sans-Serif" font-size="10.00">+ setVerbose()</text>
</a>
</g>
</g>
<!-- Node3&#45;&gt;Node4 -->
<g id="edge4" class="edge"><title>Node3&#45;&gt;Node4</title>
<path fill="none" stroke="#404040" d="M133.079,-520.157C143.5,-507.905 157.1,-491.916 170.649,-475.987"/>
<polygon fill="none" stroke="#404040" points="170.821,-475.785 171.661,-468.623 178.596,-466.644 177.755,-473.806 170.821,-475.785"/>
<text text-anchor="middle" x="192" y="-488" font-family="Helvetica,sans-Serif" font-size="10.00"> #m_verbose</text>
</g>
<!-- Node4&#45;&gt;Node2 -->
<g id="edge3" class="edge"><title>Node4&#45;&gt;Node2</title>
<path fill="none" stroke="orange" d="M168.541,-346.567C156.619,-333.393 144.132,-319.597 132.486,-306.73"/>
<polygon fill="orange" stroke="orange" points="166.18,-349.174 175.486,-354.239 171.37,-344.476 166.18,-349.174"/>
<text text-anchor="middle" x="224.5" y="-328" font-family="Helvetica,sans-Serif" font-size="10.00"> &lt; Core::Asset::LightData &gt;</text>
</g>
</g>
</svg>
