<?xml version="1.0" encoding="UTF-8" standalone="no"?>
<!DOCTYPE svg PUBLIC "-//W3C//DTD SVG 1.1//EN"
 "http://www.w3.org/Graphics/SVG/1.1/DTD/svg11.dtd">
<!-- Generated by graphviz version 2.38.0 (20140413.2041)
 -->
<!-- Title: Ra::IO::AssimpGeometryDataLoader Pages: 1 -->
<svg width="334pt" height="701pt"
 viewBox="0.00 0.00 333.50 701.00" xmlns="http://www.w3.org/2000/svg" xmlns:xlink="http://www.w3.org/1999/xlink">
<g id="graph0" class="graph" transform="scale(1 1) rotate(0) translate(4 697)">
<title>Ra::IO::AssimpGeometryDataLoader</title>
<polygon fill="white" stroke="none" points="-4,4 -4,-697 329.5,-697 329.5,4 -4,4"/>
<!-- Node1 -->
<g id="node1" class="node"><title>Node1</title>
<polygon fill="#bfbfbf" stroke="black" points="0,-0.5 0,-277.5 183,-277.5 183,-0.5 0,-0.5"/>
<text text-anchor="start" x="8" y="-265.5" font-family="Helvetica,sans-Serif" font-size="10.00">Ra::IO::AssimpGeometryData</text>
<text text-anchor="middle" x="91.5" y="-254.5" font-family="Helvetica,sans-Serif" font-size="10.00">Loader</text>
<polyline fill="none" stroke="black" points="0,-247.5 183,-247.5 "/>
<text text-anchor="middle" x="91.5" y="-235.5" font-family="Helvetica,sans-Serif" font-size="10.00"> </text>
<polyline fill="none" stroke="black" points="0,-228.5 183,-228.5 "/>
<text text-anchor="start" x="8" y="-216.5" font-family="Helvetica,sans-Serif" font-size="10.00">+ AssimpGeometryDataLoader()</text>
<text text-anchor="start" x="8" y="-205.5" font-family="Helvetica,sans-Serif" font-size="10.00">+ ~AssimpGeometryDataLoader()</text>
<text text-anchor="start" x="8" y="-194.5" font-family="Helvetica,sans-Serif" font-size="10.00">+ loadData()</text>
<text text-anchor="start" x="8" y="-183.5" font-family="Helvetica,sans-Serif" font-size="10.00"># sceneHasGeometry()</text>
<text text-anchor="start" x="8" y="-172.5" font-family="Helvetica,sans-Serif" font-size="10.00"># sceneGeometrySize()</text>
<text text-anchor="start" x="8" y="-161.5" font-family="Helvetica,sans-Serif" font-size="10.00"># loadGeometryData()</text>
<text text-anchor="start" x="8" y="-150.5" font-family="Helvetica,sans-Serif" font-size="10.00"># loadMeshData()</text>
<text text-anchor="start" x="8" y="-139.5" font-family="Helvetica,sans-Serif" font-size="10.00"># loadMaterial()</text>
<text text-anchor="start" x="8" y="-128.5" font-family="Helvetica,sans-Serif" font-size="10.00"># loadMeshFrame()</text>
<text text-anchor="start" x="8" y="-117.5" font-family="Helvetica,sans-Serif" font-size="10.00"># fetchName()</text>
<text text-anchor="start" x="8" y="-106.5" font-family="Helvetica,sans-Serif" font-size="10.00"># fetchType()</text>
<text text-anchor="start" x="8" y="-95.5" font-family="Helvetica,sans-Serif" font-size="10.00"># fetchVertices()</text>
<text text-anchor="start" x="8" y="-84.5" font-family="Helvetica,sans-Serif" font-size="10.00"># fetchEdges()</text>
<text text-anchor="start" x="8" y="-73.5" font-family="Helvetica,sans-Serif" font-size="10.00"># fetchFaces()</text>
<text text-anchor="start" x="8" y="-62.5" font-family="Helvetica,sans-Serif" font-size="10.00"># fetchPolyhedron()</text>
<text text-anchor="start" x="8" y="-51.5" font-family="Helvetica,sans-Serif" font-size="10.00"># fetchNormals()</text>
<text text-anchor="start" x="8" y="-40.5" font-family="Helvetica,sans-Serif" font-size="10.00"># fetchTangents()</text>
<text text-anchor="start" x="8" y="-29.5" font-family="Helvetica,sans-Serif" font-size="10.00"># fetchBitangents()</text>
<text text-anchor="start" x="8" y="-18.5" font-family="Helvetica,sans-Serif" font-size="10.00"># fetchTextureCoordinates()</text>
<text text-anchor="start" x="8" y="-7.5" font-family="Helvetica,sans-Serif" font-size="10.00"># fetchColors()</text>
</g>
<!-- Node2 -->
<g id="node2" class="node"><title>Node2</title>
<g id="a_node2"><a xlink:href="classRa_1_1Core_1_1Asset_1_1DataLoader.html" target="_top" xlink:title="{Ra::Core::Asset::DataLoader\l\&lt; Core::Asset::GeometryData \&gt;\n||+ DataLoader()\l+ ~DataLoader()\l+ loadData()\l+ isVerbose()\l+ setVerbose()\l}">
<polygon fill="white" stroke="black" points="5.5,-315.5 5.5,-427.5 177.5,-427.5 177.5,-315.5 5.5,-315.5"/>
<text text-anchor="start" x="13.5" y="-415.5" font-family="Helvetica,sans-Serif" font-size="10.00">Ra::Core::Asset::DataLoader</text>
<text text-anchor="middle" x="91.5" y="-404.5" font-family="Helvetica,sans-Serif" font-size="10.00">&lt; Core::Asset::GeometryData &gt;</text>
<polyline fill="none" stroke="black" points="5.5,-397.5 177.5,-397.5 "/>
<text text-anchor="middle" x="91.5" y="-385.5" font-family="Helvetica,sans-Serif" font-size="10.00"> </text>
<polyline fill="none" stroke="black" points="5.5,-378.5 177.5,-378.5 "/>
<text text-anchor="start" x="13.5" y="-366.5" font-family="Helvetica,sans-Serif" font-size="10.00">+ DataLoader()</text>
<text text-anchor="start" x="13.5" y="-355.5" font-family="Helvetica,sans-Serif" font-size="10.00">+ ~DataLoader()</text>
<text text-anchor="start" x="13.5" y="-344.5" font-family="Helvetica,sans-Serif" font-size="10.00">+ loadData()</text>
<text text-anchor="start" x="13.5" y="-333.5" font-family="Helvetica,sans-Serif" font-size="10.00">+ isVerbose()</text>
<text text-anchor="start" x="13.5" y="-322.5" font-family="Helvetica,sans-Serif" font-size="10.00">+ setVerbose()</text>
</a>
</g>
</g>
<!-- Node2&#45;&gt;Node1 -->
<g id="edge1" class="edge"><title>Node2&#45;&gt;Node1</title>
<path fill="none" stroke="midnightblue" d="M91.5,-305.262C91.5,-296.52 91.5,-287.302 91.5,-277.874"/>
<polygon fill="none" stroke="midnightblue" points="88.0001,-305.289 91.5,-315.29 95.0001,-305.29 88.0001,-305.289"/>
</g>
<!-- Node3 -->
<g id="node3" class="node"><title>Node3</title>
<g id="a_node3"><a xlink:href="classbool.html" target="_top" xlink:title="{bool\n||}">
<polygon fill="white" stroke="black" points="105,-635.5 105,-692.5 142,-692.5 142,-635.5 105,-635.5"/>
<text text-anchor="middle" x="123.5" y="-680.5" font-family="Helvetica,sans-Serif" font-size="10.00">bool</text>
<polyline fill="none" stroke="black" points="105,-673.5 142,-673.5 "/>
<text text-anchor="middle" x="123.5" y="-661.5" font-family="Helvetica,sans-Serif" font-size="10.00"> </text>
<polyline fill="none" stroke="black" points="105,-654.5 142,-654.5 "/>
<text text-anchor="middle" x="123.5" y="-642.5" font-family="Helvetica,sans-Serif" font-size="10.00"> </text>
</a>
</g>
</g>
<!-- Node3&#45;&gt;Node2 -->
<g id="edge2" class="edge"><title>Node3&#45;&gt;Node2</title>
<path fill="none" stroke="#404040" d="M105.099,-635.43C97.0742,-621.779 88.5776,-604.68 84.5,-588 72.6219,-539.411 75.051,-482.833 80.0876,-439.844"/>
<polygon fill="none" stroke="#404040" points="80.1032,-439.72 76.886,-433.266 81.6058,-427.814 84.823,-434.268 80.1032,-439.72"/>
<text text-anchor="middle" x="117" y="-529" font-family="Helvetica,sans-Serif" font-size="10.00"> #m_verbose</text>
</g>
<!-- Node4 -->
<g id="node4" class="node"><title>Node4</title>
<g id="a_node4"><a xlink:href="classRa_1_1Core_1_1Asset_1_1DataLoader.html" target="_top" xlink:title="{Ra::Core::Asset::DataLoader\l\&lt; DATA \&gt;\n||+ DataLoader()\l+ ~DataLoader()\l+ loadData()\l+ isVerbose()\l+ setVerbose()\l}">
<polygon fill="white" stroke="black" points="158.5,-475.5 158.5,-587.5 310.5,-587.5 310.5,-475.5 158.5,-475.5"/>
<text text-anchor="start" x="166.5" y="-575.5" font-family="Helvetica,sans-Serif" font-size="10.00">Ra::Core::Asset::DataLoader</text>
<text text-anchor="middle" x="234.5" y="-564.5" font-family="Helvetica,sans-Serif" font-size="10.00">&lt; DATA &gt;</text>
<polyline fill="none" stroke="black" points="158.5,-557.5 310.5,-557.5 "/>
<text text-anchor="middle" x="234.5" y="-545.5" font-family="Helvetica,sans-Serif" font-size="10.00"> </text>
<polyline fill="none" stroke="black" points="158.5,-538.5 310.5,-538.5 "/>
<text text-anchor="start" x="166.5" y="-526.5" font-family="Helvetica,sans-Serif" font-size="10.00">+ DataLoader()</text>
<text text-anchor="start" x="166.5" y="-515.5" font-family="Helvetica,sans-Serif" font-size="10.00">+ ~DataLoader()</text>
<text text-anchor="start" x="166.5" y="-504.5" font-family="Helvetica,sans-Serif" font-size="10.00">+ loadData()</text>
<text text-anchor="start" x="166.5" y="-493.5" font-family="Helvetica,sans-Serif" font-size="10.00">+ isVerbose()</text>
<text text-anchor="start" x="166.5" y="-482.5" font-family="Helvetica,sans-Serif" font-size="10.00">+ setVerbose()</text>
</a>
</g>
</g>
<!-- Node3&#45;&gt;Node4 -->
<g id="edge4" class="edge"><title>Node3&#45;&gt;Node4</title>
<path fill="none" stroke="#404040" d="M142.079,-641.157C152.5,-628.905 166.1,-612.916 179.649,-596.987"/>
<polygon fill="none" stroke="#404040" points="179.821,-596.785 180.661,-589.623 187.596,-587.644 186.755,-594.806 179.821,-596.785"/>
<text text-anchor="middle" x="201" y="-609" font-family="Helvetica,sans-Serif" font-size="10.00"> #m_verbose</text>
</g>
<!-- Node4&#45;&gt;Node2 -->
<g id="edge3" class="edge"><title>Node4&#45;&gt;Node2</title>
<path fill="none" stroke="orange" d="M177.541,-467.567C165.619,-454.393 153.132,-440.597 141.486,-427.73"/>
<polygon fill="orange" stroke="orange" points="175.18,-470.174 184.486,-475.239 180.37,-465.476 175.18,-470.174"/>
<text text-anchor="middle" x="246" y="-449" font-family="Helvetica,sans-Serif" font-size="10.00"> &lt; Core::Asset::GeometryData &gt;</text>
</g>
</g>
</svg>
