<?xml version="1.0" encoding="UTF-8" standalone="no"?>
<!DOCTYPE svg PUBLIC "-//W3C//DTD SVG 1.1//EN"
 "http://www.w3.org/Graphics/SVG/1.1/DTD/svg11.dtd">
<!-- Generated by graphviz version 2.38.0 (20140413.2041)
 -->
<!-- Title: Ra::Core::Animation::Skeleton::setTransform Pages: 1 -->
<svg width="765pt" height="333pt"
 viewBox="0.00 0.00 765.00 333.00" xmlns="http://www.w3.org/2000/svg" xmlns:xlink="http://www.w3.org/1999/xlink">
<g id="graph0" class="graph" transform="scale(1 1) rotate(0) translate(4 329)">
<title>Ra::Core::Animation::Skeleton::setTransform</title>
<polygon fill="white" stroke="none" points="-4,4 -4,-329 761,-329 761,4 -4,4"/>
<!-- Node1 -->
<g id="node1" class="node"><title>Node1</title>
<polygon fill="#bfbfbf" stroke="black" points="0,-98.5 0,-128.5 133,-128.5 133,-98.5 0,-98.5"/>
<text text-anchor="start" x="8" y="-116.5" font-family="Helvetica,sans-Serif" font-size="10.00">Ra::Core::Animation</text>
<text text-anchor="middle" x="66.5" y="-105.5" font-family="Helvetica,sans-Serif" font-size="10.00">::Skeleton::setTransform</text>
</g>
<!-- Node2 -->
<g id="node2" class="node"><title>Node2</title>
<g id="a_node2"><a xlink:href="classRa_1_1Core_1_1Animation_1_1Skeleton.html#a5679e1beb544b515c4539ce48a2f2ba3" target="_top" xlink:title="Ra::Core::Animation\l::Skeleton::size">
<polygon fill="white" stroke="black" points="169,-144.5 169,-174.5 281,-174.5 281,-144.5 169,-144.5"/>
<text text-anchor="start" x="177" y="-162.5" font-family="Helvetica,sans-Serif" font-size="10.00">Ra::Core::Animation</text>
<text text-anchor="middle" x="225" y="-151.5" font-family="Helvetica,sans-Serif" font-size="10.00">::Skeleton::size</text>
</a>
</g>
</g>
<!-- Node1&#45;&gt;Node2 -->
<g id="edge1" class="edge"><title>Node1&#45;&gt;Node2</title>
<path fill="none" stroke="midnightblue" d="M118.744,-128.562C132.868,-132.714 148.33,-137.258 162.949,-141.555"/>
<polygon fill="midnightblue" stroke="midnightblue" points="162.327,-145.021 172.908,-144.483 164.301,-138.305 162.327,-145.021"/>
</g>
<!-- Node6 -->
<g id="node6" class="node"><title>Node6</title>
<g id="a_node6"><a xlink:href="classRa_1_1Core_1_1AdjacencyList.html#a4e87e76f65f897cbe99d805b6cb35055" target="_top" xlink:title="Return true if a node is a root node. ">
<polygon fill="white" stroke="black" points="465,-294.5 465,-324.5 593,-324.5 593,-294.5 465,-294.5"/>
<text text-anchor="start" x="473" y="-312.5" font-family="Helvetica,sans-Serif" font-size="10.00">Ra::Core::AdjacencyList</text>
<text text-anchor="middle" x="529" y="-301.5" font-family="Helvetica,sans-Serif" font-size="10.00">::isRoot</text>
</a>
</g>
</g>
<!-- Node1&#45;&gt;Node6 -->
<g id="edge16" class="edge"><title>Node1&#45;&gt;Node6</title>
<path fill="none" stroke="midnightblue" d="M86.0036,-128.522C105.657,-143.92 138.093,-167.775 169,-183.5 266.05,-232.877 386.974,-270.909 460.782,-291.733"/>
<polygon fill="midnightblue" stroke="midnightblue" points="459.859,-295.109 470.432,-294.433 461.745,-288.368 459.859,-295.109"/>
</g>
<!-- Node10 -->
<g id="node10" class="node"><title>Node10</title>
<g id="a_node10"><a xlink:href="classRa_1_1Core_1_1AdjacencyList.html#a068632657bfda6ab9034a879372a45e8" target="_top" xlink:title="Return true if the node is a leaf node. ">
<polygon fill="white" stroke="black" points="465,-98.5 465,-128.5 593,-128.5 593,-98.5 465,-98.5"/>
<text text-anchor="start" x="473" y="-116.5" font-family="Helvetica,sans-Serif" font-size="10.00">Ra::Core::AdjacencyList</text>
<text text-anchor="middle" x="529" y="-105.5" font-family="Helvetica,sans-Serif" font-size="10.00">::isLeaf</text>
</a>
</g>
</g>
<!-- Node1&#45;&gt;Node10 -->
<g id="edge18" class="edge"><title>Node1&#45;&gt;Node10</title>
<path fill="none" stroke="midnightblue" d="M133.478,-113.5C218.523,-113.5 365.954,-113.5 454.5,-113.5"/>
<polygon fill="midnightblue" stroke="midnightblue" points="454.734,-117 464.734,-113.5 454.734,-110 454.734,-117"/>
</g>
<!-- Node11 -->
<g id="node11" class="node"><title>Node11</title>
<g id="a_node11"><a xlink:href="classRa_1_1Core_1_1AdjacencyList.html#a9c0e48ccbcfec3e3c35bebf6a45c7b12" target="_top" xlink:title="Ra::Core::AdjacencyList\l::parents">
<polygon fill="white" stroke="black" points="465,-49.5 465,-79.5 593,-79.5 593,-49.5 465,-49.5"/>
<text text-anchor="start" x="473" y="-67.5" font-family="Helvetica,sans-Serif" font-size="10.00">Ra::Core::AdjacencyList</text>
<text text-anchor="middle" x="529" y="-56.5" font-family="Helvetica,sans-Serif" font-size="10.00">::parents</text>
</a>
</g>
</g>
<!-- Node1&#45;&gt;Node11 -->
<g id="edge17" class="edge"><title>Node1&#45;&gt;Node11</title>
<path fill="none" stroke="midnightblue" d="M133.478,-106.479C218.609,-97.4211 366.253,-81.7108 454.77,-72.2921"/>
<polygon fill="midnightblue" stroke="midnightblue" points="455.16,-75.7705 464.734,-71.2319 454.419,-68.8097 455.16,-75.7705"/>
</g>
<!-- Node12 -->
<g id="node12" class="node"><title>Node12</title>
<g id="a_node12"><a xlink:href="classRa_1_1Core_1_1AdjacencyList.html#a23393ccd75883f2eb35196d7c82ee94f" target="_top" xlink:title="Ra::Core::AdjacencyList\l::children">
<polygon fill="white" stroke="black" points="465,-0.5 465,-30.5 593,-30.5 593,-0.5 465,-0.5"/>
<text text-anchor="start" x="473" y="-18.5" font-family="Helvetica,sans-Serif" font-size="10.00">Ra::Core::AdjacencyList</text>
<text text-anchor="middle" x="529" y="-7.5" font-family="Helvetica,sans-Serif" font-size="10.00">::children</text>
</a>
</g>
</g>
<!-- Node1&#45;&gt;Node12 -->
<g id="edge19" class="edge"><title>Node1&#45;&gt;Node12</title>
<path fill="none" stroke="midnightblue" d="M124.009,-98.4609C138.627,-94.7257 154.369,-90.8387 169,-87.5 267.552,-65.0114 382.191,-42.6798 454.904,-28.9875"/>
<polygon fill="midnightblue" stroke="midnightblue" points="455.698,-32.3996 464.88,-27.1136 454.406,-25.52 455.698,-32.3996"/>
</g>
<!-- Node3 -->
<g id="node3" class="node"><title>Node3</title>
<g id="a_node3"><a xlink:href="namespaceRa_1_1Core_1_1Animation.html#a93d6305ed74ab59961969dce601714c2" target="_top" xlink:title="Ra::Core::Animation\l::operator\&lt;\&lt;">
<polygon fill="white" stroke="black" points="317,-144.5 317,-174.5 429,-174.5 429,-144.5 317,-144.5"/>
<text text-anchor="start" x="325" y="-162.5" font-family="Helvetica,sans-Serif" font-size="10.00">Ra::Core::Animation</text>
<text text-anchor="middle" x="373" y="-151.5" font-family="Helvetica,sans-Serif" font-size="10.00">::operator&lt;&lt;</text>
</a>
</g>
</g>
<!-- Node2&#45;&gt;Node3 -->
<g id="edge2" class="edge"><title>Node2&#45;&gt;Node3</title>
<path fill="none" stroke="midnightblue" d="M281.196,-152.932C289.463,-152.76 298.055,-152.71 306.51,-152.782"/>
<polygon fill="midnightblue" stroke="midnightblue" points="306.676,-156.285 316.726,-152.93 306.777,-149.285 306.676,-156.285"/>
</g>
<!-- Node3&#45;&gt;Node2 -->
<g id="edge3" class="edge"><title>Node3&#45;&gt;Node2</title>
<path fill="none" stroke="midnightblue" d="M316.726,-166.07C308.457,-166.241 299.865,-166.29 291.41,-166.217"/>
<polygon fill="midnightblue" stroke="midnightblue" points="291.246,-162.715 281.196,-166.068 291.144,-169.714 291.246,-162.715"/>
</g>
<!-- Node4 -->
<g id="node4" class="node"><title>Node4</title>
<g id="a_node4"><a xlink:href="classRa_1_1Core_1_1Animation_1_1Handle.html#af2c003e7a85469470d5591b019e8ab80" target="_top" xlink:title="Ra::Core::Animation\l::Handle::getLabel">
<polygon fill="white" stroke="black" points="473,-245.5 473,-275.5 585,-275.5 585,-245.5 473,-245.5"/>
<text text-anchor="start" x="481" y="-263.5" font-family="Helvetica,sans-Serif" font-size="10.00">Ra::Core::Animation</text>
<text text-anchor="middle" x="529" y="-252.5" font-family="Helvetica,sans-Serif" font-size="10.00">::Handle::getLabel</text>
</a>
</g>
</g>
<!-- Node3&#45;&gt;Node4 -->
<g id="edge4" class="edge"><title>Node3&#45;&gt;Node4</title>
<path fill="none" stroke="midnightblue" d="M388.556,-174.58C405.579,-191.519 435.235,-218.935 465,-236.5 467.772,-238.136 470.675,-239.697 473.65,-241.181"/>
<polygon fill="midnightblue" stroke="midnightblue" points="472.184,-244.359 482.727,-245.398 475.133,-238.011 472.184,-244.359"/>
</g>
<!-- Node3&#45;&gt;Node6 -->
<g id="edge6" class="edge"><title>Node3&#45;&gt;Node6</title>
<path fill="none" stroke="midnightblue" d="M383.483,-174.824C402.255,-204.759 444.13,-269.481 465,-285.5 466.81,-286.89 468.711,-288.207 470.676,-289.455"/>
<polygon fill="midnightblue" stroke="midnightblue" points="469.207,-292.644 479.64,-294.489 472.635,-286.541 469.207,-292.644"/>
</g>
<!-- Node8 -->
<g id="node8" class="node"><title>Node8</title>
<g id="a_node8"><a xlink:href="classRa_1_1Core_1_1AdjacencyList.html#a37f39f4b1560b523a42ec3fb7187da2e" target="_top" xlink:title="Return true if the node is a joint node. ( |child| == 1 ) ">
<polygon fill="white" stroke="black" points="465,-196.5 465,-226.5 593,-226.5 593,-196.5 465,-196.5"/>
<text text-anchor="start" x="473" y="-214.5" font-family="Helvetica,sans-Serif" font-size="10.00">Ra::Core::AdjacencyList</text>
<text text-anchor="middle" x="529" y="-203.5" font-family="Helvetica,sans-Serif" font-size="10.00">::isJoint</text>
</a>
</g>
</g>
<!-- Node3&#45;&gt;Node8 -->
<g id="edge8" class="edge"><title>Node3&#45;&gt;Node8</title>
<path fill="none" stroke="midnightblue" d="M418.543,-174.541C435.862,-180.388 455.862,-187.142 473.99,-193.263"/>
<polygon fill="midnightblue" stroke="midnightblue" points="472.963,-196.61 483.557,-196.493 475.202,-189.978 472.963,-196.61"/>
</g>
<!-- Node9 -->
<g id="node9" class="node"><title>Node9</title>
<g id="a_node9"><a xlink:href="classRa_1_1Core_1_1AdjacencyList.html#a4ed5a37c628d3a1375f14f40bcd219e6" target="_top" xlink:title="Return true if the node is a branch node. ( |child| &gt; 1 ) ">
<polygon fill="white" stroke="black" points="465,-147.5 465,-177.5 593,-177.5 593,-147.5 465,-147.5"/>
<text text-anchor="start" x="473" y="-165.5" font-family="Helvetica,sans-Serif" font-size="10.00">Ra::Core::AdjacencyList</text>
<text text-anchor="middle" x="529" y="-154.5" font-family="Helvetica,sans-Serif" font-size="10.00">::isBranch</text>
</a>
</g>
</g>
<!-- Node3&#45;&gt;Node9 -->
<g id="edge10" class="edge"><title>Node3&#45;&gt;Node9</title>
<path fill="none" stroke="midnightblue" d="M429.163,-160.575C437.475,-160.737 446.157,-160.906 454.777,-161.074"/>
<polygon fill="midnightblue" stroke="midnightblue" points="454.774,-164.574 464.84,-161.27 454.91,-157.575 454.774,-164.574"/>
</g>
<!-- Node3&#45;&gt;Node10 -->
<g id="edge12" class="edge"><title>Node3&#45;&gt;Node10</title>
<path fill="none" stroke="midnightblue" d="M424.425,-144.438C438.324,-140.286 453.538,-135.742 467.924,-131.445"/>
<polygon fill="midnightblue" stroke="midnightblue" points="469.145,-134.733 477.724,-128.517 467.141,-128.026 469.145,-134.733"/>
</g>
<!-- Node3&#45;&gt;Node11 -->
<g id="edge14" class="edge"><title>Node3&#45;&gt;Node11</title>
<path fill="none" stroke="midnightblue" d="M390.359,-144.259C407.791,-128.638 436.721,-104.44 465,-88.5 467.997,-86.8109 471.136,-85.1933 474.345,-83.653"/>
<polygon fill="midnightblue" stroke="midnightblue" points="475.835,-86.8206 483.515,-79.5219 472.959,-80.4384 475.835,-86.8206"/>
</g>
<!-- Node3&#45;&gt;Node12 -->
<g id="edge15" class="edge"><title>Node3&#45;&gt;Node12</title>
<path fill="none" stroke="midnightblue" d="M381.741,-144.436C395.35,-119.333 425.87,-68.8157 465,-39.5 466.827,-38.1315 468.74,-36.8323 470.718,-35.5997"/>
<polygon fill="midnightblue" stroke="midnightblue" points="472.667,-38.5212 479.719,-30.614 469.275,-32.3978 472.667,-38.5212"/>
</g>
<!-- Node5 -->
<g id="node5" class="node"><title>Node5</title>
<g id="a_node5"><a xlink:href="classRa_1_1Core_1_1Animation_1_1Handle.html#aba876355658e5f8953033d3bb8f18533" target="_top" xlink:title="Ra::Core::Animation\l::Handle::size">
<polygon fill="white" stroke="black" points="637,-245.5 637,-275.5 749,-275.5 749,-245.5 637,-245.5"/>
<text text-anchor="start" x="645" y="-263.5" font-family="Helvetica,sans-Serif" font-size="10.00">Ra::Core::Animation</text>
<text text-anchor="middle" x="693" y="-252.5" font-family="Helvetica,sans-Serif" font-size="10.00">::Handle::size</text>
</a>
</g>
</g>
<!-- Node4&#45;&gt;Node5 -->
<g id="edge5" class="edge"><title>Node4&#45;&gt;Node5</title>
<path fill="none" stroke="midnightblue" d="M585.298,-260.5C598.592,-260.5 612.916,-260.5 626.62,-260.5"/>
<polygon fill="midnightblue" stroke="midnightblue" points="626.951,-264 636.951,-260.5 626.951,-257 626.951,-264"/>
</g>
<!-- Node7 -->
<g id="node7" class="node"><title>Node7</title>
<g id="a_node7"><a xlink:href="classRa_1_1Core_1_1AdjacencyList.html#a15e425543855966a22c3b9339aa27b4d" target="_top" xlink:title="Return the number of nodes in the graph. ">
<polygon fill="white" stroke="black" points="629,-171.5 629,-201.5 757,-201.5 757,-171.5 629,-171.5"/>
<text text-anchor="start" x="637" y="-189.5" font-family="Helvetica,sans-Serif" font-size="10.00">Ra::Core::AdjacencyList</text>
<text text-anchor="middle" x="693" y="-178.5" font-family="Helvetica,sans-Serif" font-size="10.00">::size</text>
</a>
</g>
</g>
<!-- Node6&#45;&gt;Node7 -->
<g id="edge7" class="edge"><title>Node6&#45;&gt;Node7</title>
<path fill="none" stroke="midnightblue" d="M578.332,-294.453C583.521,-291.873 588.53,-288.903 593,-285.5 614.504,-269.133 610.25,-255.961 629,-236.5 638.959,-226.163 651.078,-216.065 662.017,-207.682"/>
<polygon fill="midnightblue" stroke="midnightblue" points="664.192,-210.426 670.097,-201.629 659.995,-204.824 664.192,-210.426"/>
</g>
<!-- Node8&#45;&gt;Node7 -->
<g id="edge9" class="edge"><title>Node8&#45;&gt;Node7</title>
<path fill="none" stroke="midnightblue" d="M593.097,-201.763C601.526,-200.462 610.227,-199.119 618.81,-197.795"/>
<polygon fill="midnightblue" stroke="midnightblue" points="619.459,-201.236 628.808,-196.252 618.392,-194.318 619.459,-201.236"/>
</g>
<!-- Node9&#45;&gt;Node7 -->
<g id="edge11" class="edge"><title>Node9&#45;&gt;Node7</title>
<path fill="none" stroke="midnightblue" d="M593.097,-171.848C601.526,-173.096 610.227,-174.386 618.81,-175.657"/>
<polygon fill="midnightblue" stroke="midnightblue" points="618.403,-179.135 628.808,-177.138 619.429,-172.21 618.403,-179.135"/>
</g>
<!-- Node10&#45;&gt;Node7 -->
<g id="edge13" class="edge"><title>Node10&#45;&gt;Node7</title>
<path fill="none" stroke="midnightblue" d="M571.235,-128.559C578.535,-131.409 586.028,-134.455 593,-137.5 613.597,-146.496 636.084,-157.525 654.414,-166.84"/>
<polygon fill="midnightblue" stroke="midnightblue" points="652.823,-169.957 663.32,-171.397 656.012,-163.726 652.823,-169.957"/>
</g>
</g>
</svg>
