<?xml version="1.0" encoding="UTF-8" standalone="no"?>
<!DOCTYPE svg PUBLIC "-//W3C//DTD SVG 1.1//EN"
 "http://www.w3.org/Graphics/SVG/1.1/DTD/svg11.dtd">
<!-- Generated by graphviz version 2.38.0 (20140413.2041)
 -->
<!-- Title: Ra::GuiBase::TreeItem Pages: 1 -->
<svg width="162pt" height="270pt"
 viewBox="0.00 0.00 162.00 270.00" xmlns="http://www.w3.org/2000/svg" xmlns:xlink="http://www.w3.org/1999/xlink">
<g id="graph0" class="graph" transform="scale(1 1) rotate(0) translate(4 266)">
<title>Ra::GuiBase::TreeItem</title>
<polygon fill="white" stroke="none" points="-4,4 -4,-266 158,-266 158,4 -4,4"/>
<!-- Node1 -->
<g id="node1" class="node"><title>Node1</title>
<polygon fill="#bfbfbf" stroke="black" points="16,-116.5 16,-261.5 138,-261.5 138,-116.5 16,-116.5"/>
<text text-anchor="middle" x="77" y="-249.5" font-family="Helvetica,sans-Serif" font-size="10.00">Ra::GuiBase::TreeItem</text>
<polyline fill="none" stroke="black" points="16,-242.5 138,-242.5 "/>
<text text-anchor="start" x="24" y="-230.5" font-family="Helvetica,sans-Serif" font-size="10.00">+ m_parent</text>
<text text-anchor="start" x="24" y="-219.5" font-family="Helvetica,sans-Serif" font-size="10.00">+ m_children</text>
<polyline fill="none" stroke="black" points="16,-212.5 138,-212.5 "/>
<text text-anchor="start" x="24" y="-200.5" font-family="Helvetica,sans-Serif" font-size="10.00">+ TreeItem()</text>
<text text-anchor="start" x="24" y="-189.5" font-family="Helvetica,sans-Serif" font-size="10.00">+ ~TreeItem()</text>
<text text-anchor="start" x="24" y="-178.5" font-family="Helvetica,sans-Serif" font-size="10.00">+ TreeItem()</text>
<text text-anchor="start" x="24" y="-167.5" font-family="Helvetica,sans-Serif" font-size="10.00">+ operator=()</text>
<text text-anchor="start" x="24" y="-156.5" font-family="Helvetica,sans-Serif" font-size="10.00">+ getName()</text>
<text text-anchor="start" x="24" y="-145.5" font-family="Helvetica,sans-Serif" font-size="10.00">+ isValid()</text>
<text text-anchor="start" x="24" y="-134.5" font-family="Helvetica,sans-Serif" font-size="10.00">+ isSelectable()</text>
<text text-anchor="start" x="24" y="-123.5" font-family="Helvetica,sans-Serif" font-size="10.00">+ getIndexInParent()</text>
</g>
<!-- Node2 -->
<g id="node2" class="node"><title>Node2</title>
<g id="a_node2"><a xlink:href="classRa_1_1GuiBase_1_1EngineTreeItem.html" target="_top" xlink:title="{Ra::GuiBase::EngineTreeItem\n|+ m_entry\l|+ getName()\l+ isValid()\l+ isSelectable()\l}">
<polygon fill="white" stroke="black" points="0,-0.5 0,-79.5 154,-79.5 154,-0.5 0,-0.5"/>
<text text-anchor="middle" x="77" y="-67.5" font-family="Helvetica,sans-Serif" font-size="10.00">Ra::GuiBase::EngineTreeItem</text>
<polyline fill="none" stroke="black" points="0,-60.5 154,-60.5 "/>
<text text-anchor="start" x="8" y="-48.5" font-family="Helvetica,sans-Serif" font-size="10.00">+ m_entry</text>
<polyline fill="none" stroke="black" points="0,-41.5 154,-41.5 "/>
<text text-anchor="start" x="8" y="-29.5" font-family="Helvetica,sans-Serif" font-size="10.00">+ getName()</text>
<text text-anchor="start" x="8" y="-18.5" font-family="Helvetica,sans-Serif" font-size="10.00">+ isValid()</text>
<text text-anchor="start" x="8" y="-7.5" font-family="Helvetica,sans-Serif" font-size="10.00">+ isSelectable()</text>
</a>
</g>
</g>
<!-- Node1&#45;&gt;Node2 -->
<g id="edge1" class="edge"><title>Node1&#45;&gt;Node2</title>
<path fill="none" stroke="midnightblue" d="M77,-105.954C77,-96.8992 77,-88.0195 77,-79.875"/>
<polygon fill="none" stroke="midnightblue" points="73.5001,-106.222 77,-116.223 80.5001,-106.223 73.5001,-106.222"/>
</g>
</g>
</svg>
