<?xml version="1.0" encoding="UTF-8" standalone="no"?>
<!DOCTYPE svg PUBLIC "-//W3C//DTD SVG 1.1//EN"
 "http://www.w3.org/Graphics/SVG/1.1/DTD/svg11.dtd">
<!-- Generated by graphviz version 2.38.0 (20140413.2041)
 -->
<!-- Title: Ra::Core::Quadric::operator+ Pages: 1 -->
<svg width="278pt" height="104pt"
 viewBox="0.00 0.00 278.00 104.00" xmlns="http://www.w3.org/2000/svg" xmlns:xlink="http://www.w3.org/1999/xlink">
<g id="graph0" class="graph" transform="scale(1 1) rotate(0) translate(4 100)">
<title>Ra::Core::Quadric::operator+</title>
<polygon fill="white" stroke="none" points="-4,4 -4,-100 274,-100 274,4 -4,4"/>
<!-- Node1 -->
<g id="node1" class="node"><title>Node1</title>
<polygon fill="#bfbfbf" stroke="black" points="0,-33 0,-63 106,-63 106,-33 0,-33"/>
<text text-anchor="start" x="8" y="-51" font-family="Helvetica,sans-Serif" font-size="10.00">Ra::Core::Quadric::</text>
<text text-anchor="middle" x="53" y="-40" font-family="Helvetica,sans-Serif" font-size="10.00">operator+</text>
</g>
<!-- Node2 -->
<g id="node2" class="node"><title>Node2</title>
<g id="a_node2"><a xlink:href="classRa_1_1Core_1_1Quadric.html#aa8b47f0ad1c2582d2f7cd967c2fa2438" target="_top" xlink:title="Getters and setters. ">
<polygon fill="white" stroke="black" points="142,-76.5 142,-95.5 270,-95.5 270,-76.5 142,-76.5"/>
<text text-anchor="middle" x="206" y="-83.5" font-family="Helvetica,sans-Serif" font-size="10.00">Ra::Core::Quadric::getA</text>
</a>
</g>
</g>
<!-- Node1&#45;&gt;Node2 -->
<g id="edge1" class="edge"><title>Node1&#45;&gt;Node2</title>
<path fill="none" stroke="midnightblue" d="M106.389,-61.1839C122.895,-65.3378 141.033,-69.9022 157.202,-73.9713"/>
<polygon fill="midnightblue" stroke="midnightblue" points="156.431,-77.3865 166.983,-76.4328 158.14,-70.5981 156.431,-77.3865"/>
</g>
<!-- Node3 -->
<g id="node3" class="node"><title>Node3</title>
<g id="a_node3"><a xlink:href="classRa_1_1Core_1_1Quadric.html#a5dbab01aefb09e9ee3c38deaa26a2d6b" target="_top" xlink:title="Ra::Core::Quadric::getB">
<polygon fill="white" stroke="black" points="142,-38.5 142,-57.5 270,-57.5 270,-38.5 142,-38.5"/>
<text text-anchor="middle" x="206" y="-45.5" font-family="Helvetica,sans-Serif" font-size="10.00">Ra::Core::Quadric::getB</text>
</a>
</g>
</g>
<!-- Node1&#45;&gt;Node3 -->
<g id="edge2" class="edge"><title>Node1&#45;&gt;Node3</title>
<path fill="none" stroke="midnightblue" d="M106.389,-48C114.593,-48 123.2,-48 131.767,-48"/>
<polygon fill="midnightblue" stroke="midnightblue" points="131.781,-51.5001 141.781,-48 131.781,-44.5001 131.781,-51.5001"/>
</g>
<!-- Node4 -->
<g id="node4" class="node"><title>Node4</title>
<g id="a_node4"><a xlink:href="classRa_1_1Core_1_1Quadric.html#a089c593ab40439918c03913f11ea9ebc" target="_top" xlink:title="Ra::Core::Quadric::getC">
<polygon fill="white" stroke="black" points="142,-0.5 142,-19.5 270,-19.5 270,-0.5 142,-0.5"/>
<text text-anchor="middle" x="206" y="-7.5" font-family="Helvetica,sans-Serif" font-size="10.00">Ra::Core::Quadric::getC</text>
</a>
</g>
</g>
<!-- Node1&#45;&gt;Node4 -->
<g id="edge3" class="edge"><title>Node1&#45;&gt;Node4</title>
<path fill="none" stroke="midnightblue" d="M106.389,-34.8161C122.895,-30.6622 141.033,-26.0978 157.202,-22.0287"/>
<polygon fill="midnightblue" stroke="midnightblue" points="158.14,-25.4019 166.983,-19.5672 156.431,-18.6135 158.14,-25.4019"/>
</g>
</g>
</svg>
