<?xml version="1.0" encoding="UTF-8" standalone="no"?>
<!DOCTYPE svg PUBLIC "-//W3C//DTD SVG 1.1//EN"
 "http://www.w3.org/Graphics/SVG/1.1/DTD/svg11.dtd">
<!-- Generated by graphviz version 2.38.0 (20140413.2041)
 -->
<!-- Title: QItemSelectionModel Pages: 1 -->
<svg width="175pt" height="248pt"
 viewBox="0.00 0.00 175.00 248.00" xmlns="http://www.w3.org/2000/svg" xmlns:xlink="http://www.w3.org/1999/xlink">
<g id="graph0" class="graph" transform="scale(1 1) rotate(0) translate(4 244)">
<title>QItemSelectionModel</title>
<polygon fill="white" stroke="none" points="-4,4 -4,-244 171,-244 171,4 -4,4"/>
<!-- Node1 -->
<g id="node1" class="node"><title>Node1</title>
<polygon fill="#bfbfbf" stroke="black" points="24,-182.5 24,-239.5 143,-239.5 143,-182.5 24,-182.5"/>
<text text-anchor="middle" x="83.5" y="-227.5" font-family="Helvetica,sans-Serif" font-size="10.00">QItemSelectionModel</text>
<polyline fill="none" stroke="black" points="24,-220.5 143,-220.5 "/>
<text text-anchor="middle" x="83.5" y="-208.5" font-family="Helvetica,sans-Serif" font-size="10.00"> </text>
<polyline fill="none" stroke="black" points="24,-201.5 143,-201.5 "/>
<text text-anchor="middle" x="83.5" y="-189.5" font-family="Helvetica,sans-Serif" font-size="10.00"> </text>
</g>
<!-- Node2 -->
<g id="node2" class="node"><title>Node2</title>
<g id="a_node2"><a xlink:href="classRa_1_1GuiBase_1_1SelectionManager.html" target="_top" xlink:title="{Ra::GuiBase::SelectionManager\n||+ SelectionManager()\l+ isSelected()\l+ selectedEntries()\l+ currentItem()\l+ select()\l+ setCurrentEntry()\l# itemModel()\l# onModelRebuilt()\l# printSelection()\l}">
<polygon fill="white" stroke="black" points="-1.42109e-14,-0.5 -1.42109e-14,-145.5 167,-145.5 167,-0.5 -1.42109e-14,-0.5"/>
<text text-anchor="middle" x="83.5" y="-133.5" font-family="Helvetica,sans-Serif" font-size="10.00">Ra::GuiBase::SelectionManager</text>
<polyline fill="none" stroke="black" points="-1.42109e-14,-126.5 167,-126.5 "/>
<text text-anchor="middle" x="83.5" y="-114.5" font-family="Helvetica,sans-Serif" font-size="10.00"> </text>
<polyline fill="none" stroke="black" points="-1.42109e-14,-107.5 167,-107.5 "/>
<text text-anchor="start" x="8" y="-95.5" font-family="Helvetica,sans-Serif" font-size="10.00">+ SelectionManager()</text>
<text text-anchor="start" x="8" y="-84.5" font-family="Helvetica,sans-Serif" font-size="10.00">+ isSelected()</text>
<text text-anchor="start" x="8" y="-73.5" font-family="Helvetica,sans-Serif" font-size="10.00">+ selectedEntries()</text>
<text text-anchor="start" x="8" y="-62.5" font-family="Helvetica,sans-Serif" font-size="10.00">+ currentItem()</text>
<text text-anchor="start" x="8" y="-51.5" font-family="Helvetica,sans-Serif" font-size="10.00">+ select()</text>
<text text-anchor="start" x="8" y="-40.5" font-family="Helvetica,sans-Serif" font-size="10.00">+ setCurrentEntry()</text>
<text text-anchor="start" x="8" y="-29.5" font-family="Helvetica,sans-Serif" font-size="10.00"># itemModel()</text>
<text text-anchor="start" x="8" y="-18.5" font-family="Helvetica,sans-Serif" font-size="10.00"># onModelRebuilt()</text>
<text text-anchor="start" x="8" y="-7.5" font-family="Helvetica,sans-Serif" font-size="10.00"># printSelection()</text>
</a>
</g>
</g>
<!-- Node1&#45;&gt;Node2 -->
<g id="edge1" class="edge"><title>Node1&#45;&gt;Node2</title>
<path fill="none" stroke="midnightblue" d="M83.5,-172.356C83.5,-163.999 83.5,-154.872 83.5,-145.656"/>
<polygon fill="none" stroke="midnightblue" points="80.0001,-172.478 83.5,-182.478 87.0001,-172.478 80.0001,-172.478"/>
</g>
</g>
</svg>
