<?xml version="1.0" encoding="UTF-8" standalone="no"?>
<!DOCTYPE svg PUBLIC "-//W3C//DTD SVG 1.1//EN"
 "http://www.w3.org/Graphics/SVG/1.1/DTD/svg11.dtd">
<!-- Generated by graphviz version 2.38.0 (20140413.2041)
 -->
<!-- Title: Ra::Engine::DebugRender::addOBB Pages: 1 -->
<svg width="327pt" height="88pt"
 viewBox="0.00 0.00 327.00 88.00" xmlns="http://www.w3.org/2000/svg" xmlns:xlink="http://www.w3.org/1999/xlink">
<g id="graph0" class="graph" transform="scale(1 1) rotate(0) translate(4 84)">
<title>Ra::Engine::DebugRender::addOBB</title>
<polygon fill="white" stroke="none" points="-4,4 -4,-84 323,-84 323,4 -4,4"/>
<!-- Node1 -->
<g id="node1" class="node"><title>Node1</title>
<polygon fill="#bfbfbf" stroke="black" points="0,-24.5 0,-54.5 137,-54.5 137,-24.5 0,-24.5"/>
<text text-anchor="start" x="8" y="-42.5" font-family="Helvetica,sans-Serif" font-size="10.00">Ra::Engine::DebugRender</text>
<text text-anchor="middle" x="68.5" y="-31.5" font-family="Helvetica,sans-Serif" font-size="10.00">::addOBB</text>
</g>
<!-- Node2 -->
<g id="node2" class="node"><title>Node2</title>
<g id="a_node2"><a xlink:href="namespaceRa_1_1Engine_1_1DrawPrimitives.html#af7299c8d60577ed52b5256196cea3dec" target="_top" xlink:title="Display a wireframe AABB. ">
<polygon fill="white" stroke="black" points="174.5,-49.5 174.5,-79.5 317.5,-79.5 317.5,-49.5 174.5,-49.5"/>
<text text-anchor="start" x="182.5" y="-67.5" font-family="Helvetica,sans-Serif" font-size="10.00">Ra::Engine::DrawPrimitives</text>
<text text-anchor="middle" x="246" y="-56.5" font-family="Helvetica,sans-Serif" font-size="10.00">::AABB</text>
</a>
</g>
</g>
<!-- Node1&#45;&gt;Node2 -->
<g id="edge1" class="edge"><title>Node1&#45;&gt;Node2</title>
<path fill="none" stroke="midnightblue" d="M137.102,-49.1299C145.942,-50.3891 155.07,-51.6894 164.101,-52.9759"/>
<polygon fill="midnightblue" stroke="midnightblue" points="163.841,-56.4742 174.235,-54.4195 164.828,-49.5441 163.841,-56.4742"/>
</g>
<!-- Node3 -->
<g id="node3" class="node"><title>Node3</title>
<g id="a_node3"><a xlink:href="namespaceRa_1_1Engine.html#a4d2c5e4a673763dfafc72cb74965b95f" target="_top" xlink:title="Ra::Engine::RA_SINGLETON\l_IMPLEMENTATION">
<polygon fill="white" stroke="black" points="173,-0.5 173,-30.5 319,-30.5 319,-0.5 173,-0.5"/>
<text text-anchor="start" x="181" y="-18.5" font-family="Helvetica,sans-Serif" font-size="10.00">Ra::Engine::RA_SINGLETON</text>
<text text-anchor="middle" x="246" y="-7.5" font-family="Helvetica,sans-Serif" font-size="10.00">_IMPLEMENTATION</text>
</a>
</g>
</g>
<!-- Node1&#45;&gt;Node3 -->
<g id="edge2" class="edge"><title>Node1&#45;&gt;Node3</title>
<path fill="none" stroke="midnightblue" d="M137.102,-30.2553C145.5,-29.1069 154.158,-27.9229 162.745,-26.7485"/>
<polygon fill="midnightblue" stroke="midnightblue" points="163.34,-30.1998 172.774,-25.3771 162.392,-23.2643 163.34,-30.1998"/>
</g>
</g>
</svg>
