<?xml version="1.0" encoding="UTF-8" standalone="no"?>
<!DOCTYPE svg PUBLIC "-//W3C//DTD SVG 1.1//EN"
 "http://www.w3.org/Graphics/SVG/1.1/DTD/svg11.dtd">
<!-- Generated by graphviz version 2.38.0 (20140413.2041)
 -->
<!-- Title: Ra::Engine::Light::setPosition Pages: 1 -->
<svg width="285pt" height="39pt"
 viewBox="0.00 0.00 285.00 39.00" xmlns="http://www.w3.org/2000/svg" xmlns:xlink="http://www.w3.org/1999/xlink">
<g id="graph0" class="graph" transform="scale(1 1) rotate(0) translate(4 35)">
<title>Ra::Engine::Light::setPosition</title>
<polygon fill="white" stroke="none" points="-4,4 -4,-35 281,-35 281,4 -4,4"/>
<!-- Node1 -->
<g id="node1" class="node"><title>Node1</title>
<polygon fill="#bfbfbf" stroke="black" points="0,-0.5 0,-30.5 102,-30.5 102,-0.5 0,-0.5"/>
<text text-anchor="start" x="8" y="-18.5" font-family="Helvetica,sans-Serif" font-size="10.00">Ra::Engine::Light::</text>
<text text-anchor="middle" x="51" y="-7.5" font-family="Helvetica,sans-Serif" font-size="10.00">setPosition</text>
</g>
<!-- Node2 -->
<g id="node2" class="node"><title>Node2</title>
<g id="a_node2"><a xlink:href="classRa_1_1Core_1_1Utils_1_1ColorBase.html#a467dad42627c64495356c4fd21b3ac81" target="_top" xlink:title="Ra::Core::Utils::ColorBase\l\&lt; Scalar \&gt;::White">
<polygon fill="white" stroke="black" points="138,-0.5 138,-30.5 277,-30.5 277,-0.5 138,-0.5"/>
<text text-anchor="start" x="146" y="-18.5" font-family="Helvetica,sans-Serif" font-size="10.00">Ra::Core::Utils::ColorBase</text>
<text text-anchor="middle" x="207.5" y="-7.5" font-family="Helvetica,sans-Serif" font-size="10.00">&lt; Scalar &gt;::White</text>
</a>
</g>
</g>
<!-- Node1&#45;&gt;Node2 -->
<g id="edge1" class="edge"><title>Node1&#45;&gt;Node2</title>
<path fill="none" stroke="midnightblue" d="M102.162,-15.5C110.331,-15.5 118.964,-15.5 127.623,-15.5"/>
<polygon fill="midnightblue" stroke="midnightblue" points="127.775,-19.0001 137.775,-15.5 127.775,-12.0001 127.775,-19.0001"/>
</g>
</g>
</svg>
