<?xml version="1.0" encoding="UTF-8" standalone="no"?>
<!DOCTYPE svg PUBLIC "-//W3C//DTD SVG 1.1//EN"
 "http://www.w3.org/Graphics/SVG/1.1/DTD/svg11.dtd">
<!-- Generated by graphviz version 2.38.0 (20140413.2041)
 -->
<!-- Title: Ra::Gui::Viewer::keyReleaseEvent Pages: 1 -->
<svg width="307pt" height="127pt"
 viewBox="0.00 0.00 307.00 126.50" xmlns="http://www.w3.org/2000/svg" xmlns:xlink="http://www.w3.org/1999/xlink">
<g id="graph0" class="graph" transform="scale(1 1) rotate(0) translate(4 122.5)">
<title>Ra::Gui::Viewer::keyReleaseEvent</title>
<polygon fill="white" stroke="none" points="-4,4 -4,-122.5 303,-122.5 303,4 -4,4"/>
<!-- Node1 -->
<g id="node1" class="node"><title>Node1</title>
<polygon fill="#bfbfbf" stroke="black" points="0,-49.5 0,-79.5 147,-79.5 147,-49.5 0,-49.5"/>
<text text-anchor="start" x="8" y="-67.5" font-family="Helvetica,sans-Serif" font-size="10.00">Ra::Gui::Viewer::keyRelease</text>
<text text-anchor="middle" x="73.5" y="-56.5" font-family="Helvetica,sans-Serif" font-size="10.00">Event</text>
</g>
<!-- Node2 -->
<g id="node2" class="node"><title>Node2</title>
<g id="a_node2"><a xlink:href="namespaceRa_1_1Gui.html#a18f7eea3c745d4ee704cbcde6edce100" target="_top" xlink:title="Ra::Gui::keyReleased">
<polygon fill="white" stroke="black" points="183,-99 183,-118 299,-118 299,-99 183,-99"/>
<text text-anchor="middle" x="241" y="-106" font-family="Helvetica,sans-Serif" font-size="10.00">Ra::Gui::keyReleased</text>
</a>
</g>
</g>
<!-- Node1&#45;&gt;Node2 -->
<g id="edge1" class="edge"><title>Node1&#45;&gt;Node2</title>
<path fill="none" stroke="midnightblue" d="M130.993,-79.5192C151.566,-84.9888 174.555,-91.1007 194.098,-96.2964"/>
<polygon fill="midnightblue" stroke="midnightblue" points="193.409,-99.7348 203.973,-98.9217 195.208,-92.9698 193.409,-99.7348"/>
</g>
<!-- Node3 -->
<g id="node3" class="node"><title>Node3</title>
<g id="a_node3"><a xlink:href="classRa_1_1Engine_1_1Renderer.html#a22ea51c244563b744f89bdba9a80b938" target="_top" xlink:title="Toggle the fill/wireframe rendering mode. ">
<polygon fill="white" stroke="black" points="183,-49.5 183,-79.5 299,-79.5 299,-49.5 183,-49.5"/>
<text text-anchor="start" x="191" y="-67.5" font-family="Helvetica,sans-Serif" font-size="10.00">Ra::Engine::Renderer</text>
<text text-anchor="middle" x="241" y="-56.5" font-family="Helvetica,sans-Serif" font-size="10.00">::toggleWireframe</text>
</a>
</g>
</g>
<!-- Node1&#45;&gt;Node3 -->
<g id="edge2" class="edge"><title>Node1&#45;&gt;Node3</title>
<path fill="none" stroke="midnightblue" d="M147.091,-64.5C155.612,-64.5 164.278,-64.5 172.722,-64.5"/>
<polygon fill="midnightblue" stroke="midnightblue" points="172.887,-68.0001 182.887,-64.5 172.887,-61.0001 172.887,-68.0001"/>
</g>
<!-- Node4 -->
<g id="node4" class="node"><title>Node4</title>
<g id="a_node4"><a xlink:href="classRa_1_1Engine_1_1Renderer.html#a1165d48bd1c1d3e77579f326f978d59f" target="_top" xlink:title="Ra::Engine::Renderer\l::setBrushRadius">
<polygon fill="white" stroke="black" points="183,-0.5 183,-30.5 299,-30.5 299,-0.5 183,-0.5"/>
<text text-anchor="start" x="191" y="-18.5" font-family="Helvetica,sans-Serif" font-size="10.00">Ra::Engine::Renderer</text>
<text text-anchor="middle" x="241" y="-7.5" font-family="Helvetica,sans-Serif" font-size="10.00">::setBrushRadius</text>
</a>
</g>
</g>
<!-- Node1&#45;&gt;Node4 -->
<g id="edge3" class="edge"><title>Node1&#45;&gt;Node4</title>
<path fill="none" stroke="midnightblue" d="M125.506,-49.3986C142.575,-44.3449 161.768,-38.6624 179.491,-33.4152"/>
<polygon fill="midnightblue" stroke="midnightblue" points="180.568,-36.7466 189.163,-30.5516 178.58,-30.0346 180.568,-36.7466"/>
</g>
</g>
</svg>
