<?xml version="1.0" encoding="UTF-8" standalone="no"?>
<!DOCTYPE svg PUBLIC "-//W3C//DTD SVG 1.1//EN"
 "http://www.w3.org/Graphics/SVG/1.1/DTD/svg11.dtd">
<!-- Generated by graphviz version 2.38.0 (20140413.2041)
 -->
<!-- Title: Ra::Engine::DefaultLightManager Pages: 1 -->
<svg width="566pt" height="923pt"
 viewBox="0.00 0.00 565.50 923.00" xmlns="http://www.w3.org/2000/svg" xmlns:xlink="http://www.w3.org/1999/xlink">
<g id="graph0" class="graph" transform="scale(1 1) rotate(0) translate(4 919)">
<title>Ra::Engine::DefaultLightManager</title>
<polygon fill="white" stroke="none" points="-4,4 -4,-919 561.5,-919 561.5,4 -4,4"/>
<!-- Node1 -->
<g id="node1" class="node"><title>Node1</title>
<polygon fill="#bfbfbf" stroke="black" points="210,-0.5 210,-90.5 345,-90.5 345,-0.5 210,-0.5"/>
<text text-anchor="start" x="218" y="-78.5" font-family="Helvetica,sans-Serif" font-size="10.00">Ra::Engine::DefaultLight</text>
<text text-anchor="middle" x="277.5" y="-67.5" font-family="Helvetica,sans-Serif" font-size="10.00">Manager</text>
<polyline fill="none" stroke="black" points="210,-60.5 345,-60.5 "/>
<text text-anchor="middle" x="277.5" y="-48.5" font-family="Helvetica,sans-Serif" font-size="10.00"> </text>
<polyline fill="none" stroke="black" points="210,-41.5 345,-41.5 "/>
<text text-anchor="start" x="218" y="-29.5" font-family="Helvetica,sans-Serif" font-size="10.00">+ DefaultLightManager()</text>
<text text-anchor="start" x="218" y="-18.5" font-family="Helvetica,sans-Serif" font-size="10.00">+ getLight()</text>
<text text-anchor="start" x="218" y="-7.5" font-family="Helvetica,sans-Serif" font-size="10.00">+ addLight()</text>
</g>
<!-- Node2 -->
<g id="node2" class="node"><title>Node2</title>
<g id="a_node2"><a xlink:href="classRa_1_1Engine_1_1LightManager.html" target="_top" xlink:title="Interface providing functions to manage a group or type of lights in a specific way. ">
<polygon fill="white" stroke="black" points="199,-128.5 199,-306.5 356,-306.5 356,-128.5 199,-128.5"/>
<text text-anchor="middle" x="277.5" y="-294.5" font-family="Helvetica,sans-Serif" font-size="10.00">Ra::Engine::LightManager</text>
<polyline fill="none" stroke="black" points="199,-287.5 356,-287.5 "/>
<text text-anchor="middle" x="277.5" y="-275.5" font-family="Helvetica,sans-Serif" font-size="10.00"> </text>
<polyline fill="none" stroke="black" points="199,-268.5 356,-268.5 "/>
<text text-anchor="start" x="207" y="-256.5" font-family="Helvetica,sans-Serif" font-size="10.00">+ LightManager()</text>
<text text-anchor="start" x="207" y="-245.5" font-family="Helvetica,sans-Serif" font-size="10.00">+ LightManager()</text>
<text text-anchor="start" x="207" y="-234.5" font-family="Helvetica,sans-Serif" font-size="10.00">+ operator=()</text>
<text text-anchor="start" x="207" y="-223.5" font-family="Helvetica,sans-Serif" font-size="10.00">+ ~LightManager()</text>
<text text-anchor="start" x="207" y="-212.5" font-family="Helvetica,sans-Serif" font-size="10.00">+ getLight()</text>
<text text-anchor="start" x="207" y="-201.5" font-family="Helvetica,sans-Serif" font-size="10.00">+ addLight()</text>
<text text-anchor="start" x="207" y="-190.5" font-family="Helvetica,sans-Serif" font-size="10.00">+ count()</text>
<text text-anchor="start" x="207" y="-179.5" font-family="Helvetica,sans-Serif" font-size="10.00">+ generateTasks()</text>
<text text-anchor="start" x="207" y="-168.5" font-family="Helvetica,sans-Serif" font-size="10.00">+ handleAssetLoading()</text>
<text text-anchor="start" x="207" y="-157.5" font-family="Helvetica,sans-Serif" font-size="10.00"># registerComponent()</text>
<text text-anchor="start" x="207" y="-146.5" font-family="Helvetica,sans-Serif" font-size="10.00"># unregisterComponent()</text>
<text text-anchor="start" x="207" y="-135.5" font-family="Helvetica,sans-Serif" font-size="10.00"># unregisterAllComponents()</text>
</a>
</g>
</g>
<!-- Node2&#45;&gt;Node1 -->
<g id="edge1" class="edge"><title>Node2&#45;&gt;Node1</title>
<path fill="none" stroke="midnightblue" d="M277.5,-117.773C277.5,-108.397 277.5,-99.2503 277.5,-90.8048"/>
<polygon fill="none" stroke="midnightblue" points="274,-118.015 277.5,-128.015 281,-118.015 274,-118.015"/>
</g>
<!-- Node3 -->
<g id="node3" class="node"><title>Node3</title>
<g id="a_node3"><a xlink:href="classRa_1_1Engine_1_1System.html" target="_top" xlink:title="Systems are responsible of updating a specific subset of the components of each entity. ">
<polygon fill="white" stroke="black" points="113,-344.5 113,-478.5 270,-478.5 270,-344.5 113,-344.5"/>
<text text-anchor="middle" x="191.5" y="-466.5" font-family="Helvetica,sans-Serif" font-size="10.00">Ra::Engine::System</text>
<polyline fill="none" stroke="black" points="113,-459.5 270,-459.5 "/>
<text text-anchor="middle" x="191.5" y="-447.5" font-family="Helvetica,sans-Serif" font-size="10.00"> </text>
<polyline fill="none" stroke="black" points="113,-440.5 270,-440.5 "/>
<text text-anchor="start" x="121" y="-428.5" font-family="Helvetica,sans-Serif" font-size="10.00">+ System()</text>
<text text-anchor="start" x="121" y="-417.5" font-family="Helvetica,sans-Serif" font-size="10.00">+ ~System()</text>
<text text-anchor="start" x="121" y="-406.5" font-family="Helvetica,sans-Serif" font-size="10.00">+ handleAssetLoading()</text>
<text text-anchor="start" x="121" y="-395.5" font-family="Helvetica,sans-Serif" font-size="10.00">+ generateTasks()</text>
<text text-anchor="start" x="121" y="-384.5" font-family="Helvetica,sans-Serif" font-size="10.00">+ getEntityComponents()</text>
<text text-anchor="start" x="121" y="-373.5" font-family="Helvetica,sans-Serif" font-size="10.00"># registerComponent()</text>
<text text-anchor="start" x="121" y="-362.5" font-family="Helvetica,sans-Serif" font-size="10.00"># unregisterComponent()</text>
<text text-anchor="start" x="121" y="-351.5" font-family="Helvetica,sans-Serif" font-size="10.00"># unregisterAllComponents()</text>
</a>
</g>
</g>
<!-- Node3&#45;&gt;Node2 -->
<g id="edge2" class="edge"><title>Node3&#45;&gt;Node2</title>
<path fill="none" stroke="midnightblue" d="M225.231,-335.193C229.413,-325.857 233.718,-316.246 237.977,-306.738"/>
<polygon fill="none" stroke="midnightblue" points="221.99,-333.867 221.096,-344.424 228.378,-336.729 221.99,-333.867"/>
</g>
<!-- Node4 -->
<g id="node4" class="node"><title>Node4</title>
<polygon fill="white" stroke="#bfbfbf" points="55.5,-526.5 55.5,-605.5 229.5,-605.5 229.5,-526.5 55.5,-526.5"/>
<text text-anchor="start" x="63.5" y="-593.5" font-family="Helvetica,sans-Serif" font-size="10.00">std::vector&lt; std::pair</text>
<text text-anchor="start" x="63.5" y="-582.5" font-family="Helvetica,sans-Serif" font-size="10.00">&lt; const Ra::Engine::Entity</text>
<text text-anchor="middle" x="142.5" y="-571.5" font-family="Helvetica,sans-Serif" font-size="10.00"> *, Ra::Engine::Component * &gt; &gt;</text>
<polyline fill="none" stroke="#bfbfbf" points="55.5,-564.5 229.5,-564.5 "/>
<text text-anchor="middle" x="142.5" y="-552.5" font-family="Helvetica,sans-Serif" font-size="10.00"> </text>
<polyline fill="none" stroke="#bfbfbf" points="55.5,-545.5 229.5,-545.5 "/>
<text text-anchor="middle" x="142.5" y="-533.5" font-family="Helvetica,sans-Serif" font-size="10.00"> </text>
</g>
<!-- Node4&#45;&gt;Node3 -->
<g id="edge3" class="edge"><title>Node4&#45;&gt;Node3</title>
<path fill="none" stroke="#404040" d="M154.992,-526.123C158.552,-515.043 162.562,-502.564 166.586,-490.038"/>
<polygon fill="none" stroke="#404040" points="166.603,-489.985 164.63,-483.049 170.274,-478.561 172.247,-485.497 166.603,-489.985"/>
<text text-anchor="middle" x="208" y="-500" font-family="Helvetica,sans-Serif" font-size="10.00"> #m_components</text>
</g>
<!-- Node5 -->
<g id="node5" class="node"><title>Node5</title>
<polygon fill="white" stroke="#bfbfbf" points="0,-703 0,-782 125,-782 125,-703 0,-703"/>
<text text-anchor="start" x="8" y="-770" font-family="Helvetica,sans-Serif" font-size="10.00">pair&lt; const Ra::Engine</text>
<text text-anchor="start" x="8" y="-759" font-family="Helvetica,sans-Serif" font-size="10.00">::Entity *, Ra::Engine</text>
<text text-anchor="middle" x="62.5" y="-748" font-family="Helvetica,sans-Serif" font-size="10.00">::Component * &gt;</text>
<polyline fill="none" stroke="#bfbfbf" points="0,-741 125,-741 "/>
<text text-anchor="middle" x="62.5" y="-729" font-family="Helvetica,sans-Serif" font-size="10.00"> </text>
<polyline fill="none" stroke="#bfbfbf" points="0,-722 125,-722 "/>
<text text-anchor="middle" x="62.5" y="-710" font-family="Helvetica,sans-Serif" font-size="10.00"> </text>
</g>
<!-- Node5&#45;&gt;Node4 -->
<g id="edge4" class="edge"><title>Node5&#45;&gt;Node4</title>
<path fill="none" stroke="#404040" d="M67.6773,-702.808C71.9719,-679.057 79.543,-648.586 92.5,-624 94.0017,-621.151 95.6731,-618.325 97.4681,-615.545"/>
<polygon fill="none" stroke="#404040" points="97.4929,-615.51 97.6945,-608.302 104.426,-605.715 104.224,-612.924 97.4929,-615.51"/>
<text text-anchor="middle" x="121" y="-638" font-family="Helvetica,sans-Serif" font-size="10.00"> +elements</text>
</g>
<!-- Node6 -->
<g id="node6" class="node"><title>Node6</title>
<g id="a_node6"><a xlink:title="STL class. ">
<polygon fill="white" stroke="#bfbfbf" points="145,-714 145,-771 240,-771 240,-714 145,-714"/>
<text text-anchor="middle" x="192.5" y="-759" font-family="Helvetica,sans-Serif" font-size="10.00">std::vector&lt; T &gt;</text>
<polyline fill="none" stroke="#bfbfbf" points="145,-752 240,-752 "/>
<text text-anchor="middle" x="192.5" y="-740" font-family="Helvetica,sans-Serif" font-size="10.00"> </text>
<polyline fill="none" stroke="#bfbfbf" points="145,-733 240,-733 "/>
<text text-anchor="middle" x="192.5" y="-721" font-family="Helvetica,sans-Serif" font-size="10.00"> </text>
</a>
</g>
</g>
<!-- Node6&#45;&gt;Node4 -->
<g id="edge5" class="edge"><title>Node6&#45;&gt;Node4</title>
<path fill="none" stroke="orange" d="M176.816,-704.09C171.13,-689.566 165.004,-672.68 160.5,-657 155.749,-640.46 151.803,-621.857 148.829,-605.876"/>
<polygon fill="orange" stroke="orange" points="173.703,-705.732 180.657,-713.724 180.205,-703.139 173.703,-705.732"/>
<text text-anchor="start" x="160.5" y="-649" font-family="Helvetica,sans-Serif" font-size="10.00"> &lt; std::pair&lt; const</text>
<text text-anchor="start" x="160.5" y="-638" font-family="Helvetica,sans-Serif" font-size="10.00"> Ra::Engine::Entity</text>
<text text-anchor="middle" x="239.5" y="-627" font-family="Helvetica,sans-Serif" font-size="10.00"> *, Ra::Engine::Component * &gt; &gt;</text>
</g>
<!-- Node7 -->
<g id="node7" class="node"><title>Node7</title>
<polygon fill="white" stroke="#bfbfbf" points="248,-857.5 248,-914.5 277,-914.5 277,-857.5 248,-857.5"/>
<text text-anchor="middle" x="262.5" y="-902.5" font-family="Helvetica,sans-Serif" font-size="10.00">T</text>
<polyline fill="none" stroke="#bfbfbf" points="248,-895.5 277,-895.5 "/>
<text text-anchor="middle" x="262.5" y="-883.5" font-family="Helvetica,sans-Serif" font-size="10.00"> </text>
<polyline fill="none" stroke="#bfbfbf" points="248,-876.5 277,-876.5 "/>
<text text-anchor="middle" x="262.5" y="-864.5" font-family="Helvetica,sans-Serif" font-size="10.00"> </text>
</g>
<!-- Node7&#45;&gt;Node6 -->
<g id="edge6" class="edge"><title>Node7&#45;&gt;Node6</title>
<path fill="none" stroke="#404040" d="M247.85,-871.265C239.427,-862.681 229.217,-851.007 222.5,-839 212.78,-821.625 205.751,-800.675 200.952,-782.83"/>
<polygon fill="none" stroke="#404040" points="200.917,-782.689 195.57,-777.851 197.98,-771.054 203.327,-775.893 200.917,-782.689"/>
<text text-anchor="middle" x="251" y="-831" font-family="Helvetica,sans-Serif" font-size="10.00"> +elements</text>
</g>
<!-- Node10 -->
<g id="node10" class="node"><title>Node10</title>
<g id="a_node10"><a xlink:title="STL class. ">
<polygon fill="white" stroke="#bfbfbf" points="262.5,-714 262.5,-771 378.5,-771 378.5,-714 262.5,-714"/>
<text text-anchor="middle" x="320.5" y="-759" font-family="Helvetica,sans-Serif" font-size="10.00">std::unique_ptr&lt; T &gt;</text>
<polyline fill="none" stroke="#bfbfbf" points="262.5,-752 378.5,-752 "/>
<text text-anchor="middle" x="320.5" y="-740" font-family="Helvetica,sans-Serif" font-size="10.00"> </text>
<polyline fill="none" stroke="#bfbfbf" points="262.5,-733 378.5,-733 "/>
<text text-anchor="start" x="270.5" y="-721" font-family="Helvetica,sans-Serif" font-size="10.00">+ operator&#45;&gt;()</text>
</a>
</g>
</g>
<!-- Node7&#45;&gt;Node10 -->
<g id="edge10" class="edge"><title>Node7&#45;&gt;Node10</title>
<path fill="none" stroke="#404040" d="M273.821,-857.381C282.603,-835.955 294.884,-805.994 304.645,-782.181"/>
<polygon fill="none" stroke="#404040" points="304.657,-782.152 303.231,-775.083 309.208,-771.049 310.633,-778.118 304.657,-782.152"/>
<text text-anchor="middle" x="298" y="-831" font-family="Helvetica,sans-Serif" font-size="10.00"> +ptr</text>
</g>
<!-- Node8 -->
<g id="node8" class="node"><title>Node8</title>
<polygon fill="white" stroke="#bfbfbf" points="256.5,-532 256.5,-600 390.5,-600 390.5,-532 256.5,-532"/>
<text text-anchor="start" x="264.5" y="-588" font-family="Helvetica,sans-Serif" font-size="10.00">std::unique_ptr&lt; Ra</text>
<text text-anchor="middle" x="323.5" y="-577" font-family="Helvetica,sans-Serif" font-size="10.00">::Engine::LightStorage &gt;</text>
<polyline fill="none" stroke="#bfbfbf" points="256.5,-570 390.5,-570 "/>
<text text-anchor="middle" x="323.5" y="-558" font-family="Helvetica,sans-Serif" font-size="10.00"> </text>
<polyline fill="none" stroke="#bfbfbf" points="256.5,-551 390.5,-551 "/>
<text text-anchor="start" x="264.5" y="-539" font-family="Helvetica,sans-Serif" font-size="10.00">+ operator&#45;&gt;()</text>
</g>
<!-- Node8&#45;&gt;Node2 -->
<g id="edge7" class="edge"><title>Node8&#45;&gt;Node2</title>
<path fill="none" stroke="#404040" d="M319.089,-531.776C312.648,-483.259 300.398,-390.981 290.854,-319.09"/>
<polygon fill="none" stroke="#404040" points="290.806,-318.725 286.051,-313.304 289.226,-306.83 293.981,-312.251 290.806,-318.725"/>
<text text-anchor="middle" x="337" y="-409" font-family="Helvetica,sans-Serif" font-size="10.00"> #m_data</text>
</g>
<!-- Node9 -->
<g id="node9" class="node"><title>Node9</title>
<g id="a_node9"><a xlink:href="classRa_1_1Engine_1_1LightStorage.html" target="_top" xlink:title="Interface providing functions to access and store lights in an implementation&#45;defined way...">
<polygon fill="white" stroke="black" points="423.5,-675.5 423.5,-809.5 557.5,-809.5 557.5,-675.5 423.5,-675.5"/>
<text text-anchor="middle" x="490.5" y="-797.5" font-family="Helvetica,sans-Serif" font-size="10.00">Ra::Engine::LightStorage</text>
<polyline fill="none" stroke="black" points="423.5,-790.5 557.5,-790.5 "/>
<text text-anchor="middle" x="490.5" y="-778.5" font-family="Helvetica,sans-Serif" font-size="10.00"> </text>
<polyline fill="none" stroke="black" points="423.5,-771.5 557.5,-771.5 "/>
<text text-anchor="start" x="431.5" y="-759.5" font-family="Helvetica,sans-Serif" font-size="10.00">+ LightStorage()</text>
<text text-anchor="start" x="431.5" y="-748.5" font-family="Helvetica,sans-Serif" font-size="10.00">+ ~LightStorage()</text>
<text text-anchor="start" x="431.5" y="-737.5" font-family="Helvetica,sans-Serif" font-size="10.00">+ upload()</text>
<text text-anchor="start" x="431.5" y="-726.5" font-family="Helvetica,sans-Serif" font-size="10.00">+ size()</text>
<text text-anchor="start" x="431.5" y="-715.5" font-family="Helvetica,sans-Serif" font-size="10.00">+ add()</text>
<text text-anchor="start" x="431.5" y="-704.5" font-family="Helvetica,sans-Serif" font-size="10.00">+ remove()</text>
<text text-anchor="start" x="431.5" y="-693.5" font-family="Helvetica,sans-Serif" font-size="10.00">+ clear()</text>
<text text-anchor="start" x="431.5" y="-682.5" font-family="Helvetica,sans-Serif" font-size="10.00">+ operator[]()</text>
</a>
</g>
</g>
<!-- Node9&#45;&gt;Node8 -->
<g id="edge8" class="edge"><title>Node9&#45;&gt;Node8</title>
<path fill="none" stroke="#404040" d="M489.703,-675.212C486.581,-656.986 480.333,-638.318 468.5,-624 451.765,-603.751 426.859,-590.662 402.39,-582.215"/>
<polygon fill="none" stroke="#404040" points="402.267,-582.176 395.337,-584.171 390.831,-578.541 397.761,-576.547 402.267,-582.176"/>
<text text-anchor="middle" x="498" y="-638" font-family="Helvetica,sans-Serif" font-size="10.00"> +ptr</text>
</g>
<!-- Node10&#45;&gt;Node8 -->
<g id="edge9" class="edge"><title>Node10&#45;&gt;Node8</title>
<path fill="none" stroke="orange" d="M321.153,-703.496C321.683,-672.666 322.423,-629.639 322.93,-600.182"/>
<polygon fill="orange" stroke="orange" points="317.648,-703.791 320.975,-713.85 324.647,-703.912 317.648,-703.791"/>
<text text-anchor="middle" x="394.5" y="-638" font-family="Helvetica,sans-Serif" font-size="10.00"> &lt; Ra::Engine::LightStorage &gt;</text>
</g>
</g>
</svg>
