<?xml version="1.0" encoding="UTF-8" standalone="no"?>
<!DOCTYPE svg PUBLIC "-//W3C//DTD SVG 1.1//EN"
 "http://www.w3.org/Graphics/SVG/1.1/DTD/svg11.dtd">
<!-- Generated by graphviz version 2.38.0 (20140413.2041)
 -->
<!-- Title: Ra::Gui::CameraInterface::resetToDefaultCamera Pages: 1 -->
<svg width="621pt" height="186pt"
 viewBox="0.00 0.00 621.00 186.00" xmlns="http://www.w3.org/2000/svg" xmlns:xlink="http://www.w3.org/1999/xlink">
<g id="graph0" class="graph" transform="scale(1 1) rotate(0) translate(4 182)">
<title>Ra::Gui::CameraInterface::resetToDefaultCamera</title>
<polygon fill="white" stroke="none" points="-4,4 -4,-182 617,-182 617,4 -4,4"/>
<!-- Node1 -->
<g id="node1" class="node"><title>Node1</title>
<polygon fill="#bfbfbf" stroke="black" points="0,-73.5 0,-103.5 137,-103.5 137,-73.5 0,-73.5"/>
<text text-anchor="start" x="8" y="-91.5" font-family="Helvetica,sans-Serif" font-size="10.00">Ra::Gui::CameraInterface</text>
<text text-anchor="middle" x="68.5" y="-80.5" font-family="Helvetica,sans-Serif" font-size="10.00">::resetToDefaultCamera</text>
</g>
<!-- Node2 -->
<g id="node2" class="node"><title>Node2</title>
<g id="a_node2"><a xlink:href="classRa_1_1Engine_1_1Camera.html#acc1bb27e2afe38147548184324ceaa9e" target="_top" xlink:title="Return the width of the viewport. ">
<polygon fill="white" stroke="black" points="173,-147.5 173,-177.5 284,-177.5 284,-147.5 173,-147.5"/>
<text text-anchor="start" x="181" y="-165.5" font-family="Helvetica,sans-Serif" font-size="10.00">Ra::Engine::Camera</text>
<text text-anchor="middle" x="228.5" y="-154.5" font-family="Helvetica,sans-Serif" font-size="10.00">::getWidth</text>
</a>
</g>
</g>
<!-- Node1&#45;&gt;Node2 -->
<g id="edge1" class="edge"><title>Node1&#45;&gt;Node2</title>
<path fill="none" stroke="midnightblue" d="M100.162,-103.662C120.688,-113.726 148.358,-127.127 173,-138.5 176.391,-140.065 179.91,-141.666 183.454,-143.263"/>
<polygon fill="midnightblue" stroke="midnightblue" points="182.263,-146.564 192.821,-147.447 185.118,-140.173 182.263,-146.564"/>
</g>
<!-- Node3 -->
<g id="node3" class="node"><title>Node3</title>
<g id="a_node3"><a xlink:href="classRa_1_1Engine_1_1Camera.html#af9756bbd9e75f5b762a42f3e9e275af8" target="_top" xlink:title="Return the height of the viewport. ">
<polygon fill="white" stroke="black" points="173,-98.5 173,-128.5 284,-128.5 284,-98.5 173,-98.5"/>
<text text-anchor="start" x="181" y="-116.5" font-family="Helvetica,sans-Serif" font-size="10.00">Ra::Engine::Camera</text>
<text text-anchor="middle" x="228.5" y="-105.5" font-family="Helvetica,sans-Serif" font-size="10.00">::getHeight</text>
</a>
</g>
</g>
<!-- Node1&#45;&gt;Node3 -->
<g id="edge2" class="edge"><title>Node1&#45;&gt;Node3</title>
<path fill="none" stroke="midnightblue" d="M137.423,-99.2473C145.867,-100.583 154.483,-101.947 162.875,-103.274"/>
<polygon fill="midnightblue" stroke="midnightblue" points="162.549,-106.766 172.973,-104.872 163.643,-99.8524 162.549,-106.766"/>
</g>
<!-- Node4 -->
<g id="node4" class="node"><title>Node4</title>
<g id="a_node4"><a xlink:href="classRa_1_1Engine_1_1Camera.html#a2acbb1a258f8d0af86edcd978cfbf3e1" target="_top" xlink:title="Change the viewport size. ">
<polygon fill="white" stroke="black" points="173,-49.5 173,-79.5 284,-79.5 284,-49.5 173,-49.5"/>
<text text-anchor="start" x="181" y="-67.5" font-family="Helvetica,sans-Serif" font-size="10.00">Ra::Engine::Camera</text>
<text text-anchor="middle" x="228.5" y="-56.5" font-family="Helvetica,sans-Serif" font-size="10.00">::resize</text>
</a>
</g>
</g>
<!-- Node1&#45;&gt;Node4 -->
<g id="edge3" class="edge"><title>Node1&#45;&gt;Node4</title>
<path fill="none" stroke="midnightblue" d="M137.423,-78.1826C145.867,-76.9 154.483,-75.5912 162.875,-74.3165"/>
<polygon fill="midnightblue" stroke="midnightblue" points="163.612,-77.7447 172.973,-72.7825 162.561,-70.8241 163.612,-77.7447"/>
</g>
<!-- Node7 -->
<g id="node7" class="node"><title>Node7</title>
<g id="a_node7"><a xlink:href="classRa_1_1Engine_1_1Camera.html#a4c2aac5ad419cef7720e2a18d93b3703" target="_top" xlink:title="Toggle on/off displaying the Camera. ">
<polygon fill="white" stroke="black" points="173,-0.5 173,-30.5 284,-30.5 284,-0.5 173,-0.5"/>
<text text-anchor="start" x="181" y="-18.5" font-family="Helvetica,sans-Serif" font-size="10.00">Ra::Engine::Camera</text>
<text text-anchor="middle" x="228.5" y="-7.5" font-family="Helvetica,sans-Serif" font-size="10.00">::show</text>
</a>
</g>
</g>
<!-- Node1&#45;&gt;Node7 -->
<g id="edge6" class="edge"><title>Node1&#45;&gt;Node7</title>
<path fill="none" stroke="midnightblue" d="M100.648,-73.4817C121.14,-63.6682 148.587,-50.6516 173,-39.5 176.397,-37.9482 179.921,-36.3564 183.468,-34.7669"/>
<polygon fill="midnightblue" stroke="midnightblue" points="185.128,-37.8589 192.839,-30.5935 182.28,-31.4643 185.128,-37.8589"/>
</g>
<!-- Node5 -->
<g id="node5" class="node"><title>Node5</title>
<g id="a_node5"><a xlink:href="classRa_1_1Engine_1_1Camera.html#a2124136d939bd433f9630e23c403cdd6" target="_top" xlink:title="Update the projection matrix according to the current parameters. ">
<polygon fill="white" stroke="black" points="333,-49.5 333,-79.5 444,-79.5 444,-49.5 333,-49.5"/>
<text text-anchor="start" x="341" y="-67.5" font-family="Helvetica,sans-Serif" font-size="10.00">Ra::Engine::Camera</text>
<text text-anchor="middle" x="388.5" y="-56.5" font-family="Helvetica,sans-Serif" font-size="10.00">::updateProjMatrix</text>
</a>
</g>
</g>
<!-- Node4&#45;&gt;Node5 -->
<g id="edge4" class="edge"><title>Node4&#45;&gt;Node5</title>
<path fill="none" stroke="midnightblue" d="M284.317,-64.5C296.695,-64.5 309.95,-64.5 322.694,-64.5"/>
<polygon fill="midnightblue" stroke="midnightblue" points="322.78,-68.0001 332.78,-64.5 322.78,-61.0001 322.78,-68.0001"/>
</g>
<!-- Node6 -->
<g id="node6" class="node"><title>Node6</title>
<g id="a_node6"><a xlink:href="namespaceRa_1_1Core_1_1Geometry.html#aa04e6052d8911b1df1bd881474debb45" target="_top" xlink:title="Ra::Core::Geometry::t">
<polygon fill="white" stroke="black" points="493,-55 493,-74 613,-74 613,-55 493,-55"/>
<text text-anchor="middle" x="553" y="-62" font-family="Helvetica,sans-Serif" font-size="10.00">Ra::Core::Geometry::t</text>
</a>
</g>
</g>
<!-- Node5&#45;&gt;Node6 -->
<g id="edge5" class="edge"><title>Node5&#45;&gt;Node6</title>
<path fill="none" stroke="midnightblue" d="M444.062,-64.5C456.43,-64.5 469.727,-64.5 482.616,-64.5"/>
<polygon fill="midnightblue" stroke="midnightblue" points="482.84,-68.0001 492.84,-64.5 482.84,-61.0001 482.84,-68.0001"/>
</g>
<!-- Node8 -->
<g id="node8" class="node"><title>Node8</title>
<g id="a_node8"><a xlink:href="classRa_1_1Engine_1_1RenderObject.html#a62e0eb3a7de5a7d352b565a28260cc06" target="_top" xlink:title="Ra::Engine::RenderObject\l::setVisible">
<polygon fill="white" stroke="black" points="320,-0.5 320,-30.5 457,-30.5 457,-0.5 320,-0.5"/>
<text text-anchor="start" x="328" y="-18.5" font-family="Helvetica,sans-Serif" font-size="10.00">Ra::Engine::RenderObject</text>
<text text-anchor="middle" x="388.5" y="-7.5" font-family="Helvetica,sans-Serif" font-size="10.00">::setVisible</text>
</a>
</g>
</g>
<!-- Node7&#45;&gt;Node8 -->
<g id="edge7" class="edge"><title>Node7&#45;&gt;Node8</title>
<path fill="none" stroke="midnightblue" d="M284.317,-15.5C292.581,-15.5 301.236,-15.5 309.869,-15.5"/>
<polygon fill="midnightblue" stroke="midnightblue" points="309.968,-19.0001 319.968,-15.5 309.968,-12.0001 309.968,-19.0001"/>
</g>
</g>
</svg>
