<?xml version="1.0" encoding="UTF-8" standalone="no"?>
<!DOCTYPE svg PUBLIC "-//W3C//DTD SVG 1.1//EN"
 "http://www.w3.org/Graphics/SVG/1.1/DTD/svg11.dtd">
<!-- Generated by graphviz version 2.38.0 (20140413.2041)
 -->
<!-- Title: Ra::Engine::RenderParameters::UniformBindableVector&lt; T &gt; Pages: 1 -->
<svg width="421pt" height="376pt"
 viewBox="0.00 0.00 421.00 376.00" xmlns="http://www.w3.org/2000/svg" xmlns:xlink="http://www.w3.org/1999/xlink">
<g id="graph0" class="graph" transform="scale(1 1) rotate(0) translate(4 372)">
<title>Ra::Engine::RenderParameters::UniformBindableVector&lt; T &gt;</title>
<polygon fill="white" stroke="none" points="-4,4 -4,-372 417,-372 417,4 -4,4"/>
<!-- Node1 -->
<g id="node1" class="node"><title>Node1</title>
<polygon fill="#bfbfbf" stroke="black" points="92.5,-149.5 92.5,-217.5 253.5,-217.5 253.5,-149.5 92.5,-149.5"/>
<text text-anchor="start" x="100.5" y="-205.5" font-family="Helvetica,sans-Serif" font-size="10.00">Ra::Engine::RenderParameters</text>
<text text-anchor="middle" x="173" y="-194.5" font-family="Helvetica,sans-Serif" font-size="10.00">::UniformBindableVector&lt; T &gt;</text>
<polyline fill="none" stroke="black" points="92.5,-187.5 253.5,-187.5 "/>
<text text-anchor="middle" x="173" y="-175.5" font-family="Helvetica,sans-Serif" font-size="10.00"> </text>
<polyline fill="none" stroke="black" points="92.5,-168.5 253.5,-168.5 "/>
<text text-anchor="start" x="100.5" y="-156.5" font-family="Helvetica,sans-Serif" font-size="10.00">+ bind()</text>
</g>
<!-- Node3 -->
<g id="node3" class="node"><title>Node3</title>
<g id="a_node3"><a xlink:href="classRa_1_1Engine_1_1RenderParameters_1_1UniformBindableVector.html" target="_top" xlink:title="{Ra::Engine::RenderParameters\l::UniformBindableVector\&lt;\l Ra::Engine::RenderParameters\l::TParameter \&gt;\n||+ bind()\l}">
<polygon fill="white" stroke="black" points="0,-0.5 0,-90.5 164,-90.5 164,-0.5 0,-0.5"/>
<text text-anchor="start" x="8" y="-78.5" font-family="Helvetica,sans-Serif" font-size="10.00">Ra::Engine::RenderParameters</text>
<text text-anchor="start" x="8" y="-67.5" font-family="Helvetica,sans-Serif" font-size="10.00">::UniformBindableVector&lt;</text>
<text text-anchor="start" x="8" y="-56.5" font-family="Helvetica,sans-Serif" font-size="10.00"> Ra::Engine::RenderParameters</text>
<text text-anchor="middle" x="82" y="-45.5" font-family="Helvetica,sans-Serif" font-size="10.00">::TParameter &gt;</text>
<polyline fill="none" stroke="black" points="0,-38.5 164,-38.5 "/>
<text text-anchor="middle" x="82" y="-26.5" font-family="Helvetica,sans-Serif" font-size="10.00"> </text>
<polyline fill="none" stroke="black" points="0,-19.5 164,-19.5 "/>
<text text-anchor="start" x="8" y="-7.5" font-family="Helvetica,sans-Serif" font-size="10.00">+ bind()</text>
</a>
</g>
</g>
<!-- Node1&#45;&gt;Node3 -->
<g id="edge2" class="edge"><title>Node1&#45;&gt;Node3</title>
<path fill="none" stroke="orange" d="M91.3462,-142.263C88.194,-138.786 85.3734,-135.037 83,-131 76.0111,-119.111 74.0198,-104.56 74.2984,-90.9054"/>
<polygon fill="orange" stroke="orange" points="89.1233,-144.984 98.732,-149.447 94.0041,-139.966 89.1233,-144.984"/>
<text text-anchor="start" x="83" y="-123" font-family="Helvetica,sans-Serif" font-size="10.00"> &lt; Ra::Engine::RenderParameters</text>
<text text-anchor="middle" x="163" y="-112" font-family="Helvetica,sans-Serif" font-size="10.00">::TParameter &gt;</text>
</g>
<!-- Node4 -->
<g id="node4" class="node"><title>Node4</title>
<g id="a_node4"><a xlink:href="classRa_1_1Engine_1_1RenderParameters_1_1UniformBindableVector.html" target="_top" xlink:title="{Ra::Engine::RenderParameters\l::UniformBindableVector\&lt;\l Ra::Engine::RenderParameters\l::TextureParameter \&gt;\n||+ bind()\l}">
<polygon fill="white" stroke="black" points="183,-0.5 183,-90.5 347,-90.5 347,-0.5 183,-0.5"/>
<text text-anchor="start" x="191" y="-78.5" font-family="Helvetica,sans-Serif" font-size="10.00">Ra::Engine::RenderParameters</text>
<text text-anchor="start" x="191" y="-67.5" font-family="Helvetica,sans-Serif" font-size="10.00">::UniformBindableVector&lt;</text>
<text text-anchor="start" x="191" y="-56.5" font-family="Helvetica,sans-Serif" font-size="10.00"> Ra::Engine::RenderParameters</text>
<text text-anchor="middle" x="265" y="-45.5" font-family="Helvetica,sans-Serif" font-size="10.00">::TextureParameter &gt;</text>
<polyline fill="none" stroke="black" points="183,-38.5 347,-38.5 "/>
<text text-anchor="middle" x="265" y="-26.5" font-family="Helvetica,sans-Serif" font-size="10.00"> </text>
<polyline fill="none" stroke="black" points="183,-19.5 347,-19.5 "/>
<text text-anchor="start" x="191" y="-7.5" font-family="Helvetica,sans-Serif" font-size="10.00">+ bind()</text>
</a>
</g>
</g>
<!-- Node1&#45;&gt;Node4 -->
<g id="edge3" class="edge"><title>Node1&#45;&gt;Node4</title>
<path fill="none" stroke="orange" d="M233.94,-142.214C237.27,-138.673 240.336,-134.93 243,-131 251.079,-119.078 256.192,-104.368 259.427,-90.5812"/>
<polygon fill="orange" stroke="orange" points="231.496,-139.708 226.779,-149.195 236.382,-144.72 231.496,-139.708"/>
<text text-anchor="start" x="253" y="-123" font-family="Helvetica,sans-Serif" font-size="10.00"> &lt; Ra::Engine::RenderParameters</text>
<text text-anchor="middle" x="333" y="-112" font-family="Helvetica,sans-Serif" font-size="10.00">::TextureParameter &gt;</text>
</g>
<!-- Node2 -->
<g id="node2" class="node"><title>Node2</title>
<g id="a_node2"><a xlink:title="STL class. ">
<polygon fill="white" stroke="#bfbfbf" points="78.5,-255.5 78.5,-367.5 267.5,-367.5 267.5,-255.5 78.5,-255.5"/>
<text text-anchor="start" x="86.5" y="-355.5" font-family="Helvetica,sans-Serif" font-size="10.00">std::map&lt; std::string,</text>
<text text-anchor="start" x="86.5" y="-344.5" font-family="Helvetica,sans-Serif" font-size="10.00"> T, std::less&lt; std::string</text>
<text text-anchor="start" x="86.5" y="-333.5" font-family="Helvetica,sans-Serif" font-size="10.00"> &gt;, Core::AlignedAllocator</text>
<text text-anchor="start" x="86.5" y="-322.5" font-family="Helvetica,sans-Serif" font-size="10.00">&lt; std::pair&lt; const std::string,</text>
<text text-anchor="middle" x="173" y="-311.5" font-family="Helvetica,sans-Serif" font-size="10.00"> T &gt;, EIGEN_MAX_ALIGN_BYTES &gt; &gt;</text>
<polyline fill="none" stroke="#bfbfbf" points="78.5,-304.5 267.5,-304.5 "/>
<text text-anchor="start" x="86.5" y="-292.5" font-family="Helvetica,sans-Serif" font-size="10.00">+ keys</text>
<text text-anchor="start" x="86.5" y="-281.5" font-family="Helvetica,sans-Serif" font-size="10.00">+ elements</text>
<polyline fill="none" stroke="#bfbfbf" points="78.5,-274.5 267.5,-274.5 "/>
<text text-anchor="middle" x="173" y="-262.5" font-family="Helvetica,sans-Serif" font-size="10.00"> </text>
</a>
</g>
</g>
<!-- Node2&#45;&gt;Node1 -->
<g id="edge1" class="edge"><title>Node2&#45;&gt;Node1</title>
<path fill="none" stroke="midnightblue" d="M173,-244.961C173,-235.484 173,-226.083 173,-217.619"/>
<polygon fill="none" stroke="midnightblue" points="169.5,-245.235 173,-255.235 176.5,-245.235 169.5,-245.235"/>
</g>
</g>
</svg>
