<?xml version="1.0" encoding="UTF-8" standalone="no"?>
<!DOCTYPE svg PUBLIC "-//W3C//DTD SVG 1.1//EN"
 "http://www.w3.org/Graphics/SVG/1.1/DTD/svg11.dtd">
<!-- Generated by graphviz version 2.38.0 (20140413.2041)
 -->
<!-- Title: MeshFeatureTrackingPlugin::MeshFeatureTrackingComponent::initialize Pages: 1 -->
<svg width="911pt" height="418pt"
 viewBox="0.00 0.00 911.00 418.00" xmlns="http://www.w3.org/2000/svg" xmlns:xlink="http://www.w3.org/1999/xlink">
<g id="graph0" class="graph" transform="scale(1 1) rotate(0) translate(4 414)">
<title>MeshFeatureTrackingPlugin::MeshFeatureTrackingComponent::initialize</title>
<polygon fill="white" stroke="none" points="-4,4 -4,-414 907,-414 907,4 -4,4"/>
<!-- Node1 -->
<g id="node1" class="node"><title>Node1</title>
<polygon fill="#bfbfbf" stroke="black" points="0,-117 0,-158 179,-158 179,-117 0,-117"/>
<text text-anchor="start" x="8" y="-146" font-family="Helvetica,sans-Serif" font-size="10.00">MeshFeatureTrackingPlugin</text>
<text text-anchor="start" x="8" y="-135" font-family="Helvetica,sans-Serif" font-size="10.00">::MeshFeatureTrackingComponent</text>
<text text-anchor="middle" x="89.5" y="-124" font-family="Helvetica,sans-Serif" font-size="10.00">::initialize</text>
</g>
<!-- Node2 -->
<g id="node2" class="node"><title>Node2</title>
<g id="a_node2"><a xlink:href="namespaceRa_1_1Core_1_1Geometry.html#ab418f661cb476383040b013c779c1375" target="_top" xlink:title="Create a parametric spherical mesh of given radius. Template parameters set the resolution. ">
<polygon fill="white" stroke="black" points="231,-286.5 231,-316.5 367,-316.5 367,-286.5 231,-286.5"/>
<text text-anchor="start" x="239" y="-304.5" font-family="Helvetica,sans-Serif" font-size="10.00">Ra::Core::Geometry</text>
<text text-anchor="middle" x="299" y="-293.5" font-family="Helvetica,sans-Serif" font-size="10.00">::makeParametricSphere</text>
</a>
</g>
</g>
<!-- Node1&#45;&gt;Node2 -->
<g id="edge1" class="edge"><title>Node1&#45;&gt;Node2</title>
<path fill="none" stroke="midnightblue" d="M116.78,-158.271C156.385,-189.573 230.981,-248.531 271.003,-280.163"/>
<polygon fill="midnightblue" stroke="midnightblue" points="268.978,-283.023 278.994,-286.478 273.319,-277.532 268.978,-283.023"/>
</g>
<!-- Node11 -->
<g id="node11" class="node"><title>Node11</title>
<g id="a_node11"><a xlink:href="classRa_1_1Engine_1_1RenderObject.html#ae9cb914f351555a60d29e8d6afedc06b" target="_top" xlink:title="Sort of factory method to easily create a render object. ">
<polygon fill="white" stroke="black" points="230.5,-196.5 230.5,-226.5 367.5,-226.5 367.5,-196.5 230.5,-196.5"/>
<text text-anchor="start" x="238.5" y="-214.5" font-family="Helvetica,sans-Serif" font-size="10.00">Ra::Engine::RenderObject</text>
<text text-anchor="middle" x="299" y="-203.5" font-family="Helvetica,sans-Serif" font-size="10.00">::createRenderObject</text>
</a>
</g>
</g>
<!-- Node1&#45;&gt;Node11 -->
<g id="edge12" class="edge"><title>Node1&#45;&gt;Node11</title>
<path fill="none" stroke="midnightblue" d="M140.128,-158.117C162.796,-167.253 190.091,-177.863 215,-186.5 221.745,-188.839 228.84,-191.169 235.924,-193.414"/>
<polygon fill="midnightblue" stroke="midnightblue" points="234.955,-196.778 245.544,-196.415 237.04,-190.095 234.955,-196.778"/>
</g>
<!-- Node14 -->
<g id="node14" class="node"><title>Node14</title>
<g id="a_node14"><a xlink:href="classRa_1_1Engine_1_1RenderTechnique.html#a7d0c94a20081423baa758dd6e5b3f954" target="_top" xlink:title="Ra::Engine::RenderTechnique\l::createDefaultRenderTechnique">
<polygon fill="white" stroke="black" points="215,-147.5 215,-177.5 383,-177.5 383,-147.5 215,-147.5"/>
<text text-anchor="start" x="223" y="-165.5" font-family="Helvetica,sans-Serif" font-size="10.00">Ra::Engine::RenderTechnique</text>
<text text-anchor="middle" x="299" y="-154.5" font-family="Helvetica,sans-Serif" font-size="10.00">::createDefaultRenderTechnique</text>
</a>
</g>
</g>
<!-- Node1&#45;&gt;Node14 -->
<g id="edge15" class="edge"><title>Node1&#45;&gt;Node14</title>
<path fill="none" stroke="midnightblue" d="M179.101,-148.175C187.651,-149.205 196.342,-150.252 204.934,-151.287"/>
<polygon fill="midnightblue" stroke="midnightblue" points="204.614,-154.774 214.961,-152.495 205.451,-147.824 204.614,-154.774"/>
</g>
<!-- Node17 -->
<g id="node17" class="node"><title>Node17</title>
<g id="a_node17"><a xlink:href="classRa_1_1Engine_1_1RenderObject.html#ab80fe6e6565273eac1984ec6e213c354" target="_top" xlink:title="Ra::Engine::RenderObject\l::setPickable">
<polygon fill="white" stroke="black" points="230.5,-98.5 230.5,-128.5 367.5,-128.5 367.5,-98.5 230.5,-98.5"/>
<text text-anchor="start" x="238.5" y="-116.5" font-family="Helvetica,sans-Serif" font-size="10.00">Ra::Engine::RenderObject</text>
<text text-anchor="middle" x="299" y="-105.5" font-family="Helvetica,sans-Serif" font-size="10.00">::setPickable</text>
</a>
</g>
</g>
<!-- Node1&#45;&gt;Node17 -->
<g id="edge18" class="edge"><title>Node1&#45;&gt;Node17</title>
<path fill="none" stroke="midnightblue" d="M179.101,-127.252C192.794,-125.668 206.847,-124.043 220.278,-122.49"/>
<polygon fill="midnightblue" stroke="midnightblue" points="220.88,-125.943 230.411,-121.318 220.075,-118.99 220.88,-125.943"/>
</g>
<!-- Node18 -->
<g id="node18" class="node"><title>Node18</title>
<g id="a_node18"><a xlink:href="classRa_1_1Engine_1_1RenderObject.html#a62e0eb3a7de5a7d352b565a28260cc06" target="_top" xlink:title="Ra::Engine::RenderObject\l::setVisible">
<polygon fill="white" stroke="black" points="230.5,-49.5 230.5,-79.5 367.5,-79.5 367.5,-49.5 230.5,-49.5"/>
<text text-anchor="start" x="238.5" y="-67.5" font-family="Helvetica,sans-Serif" font-size="10.00">Ra::Engine::RenderObject</text>
<text text-anchor="middle" x="299" y="-56.5" font-family="Helvetica,sans-Serif" font-size="10.00">::setVisible</text>
</a>
</g>
</g>
<!-- Node1&#45;&gt;Node18 -->
<g id="edge19" class="edge"><title>Node1&#45;&gt;Node18</title>
<path fill="none" stroke="midnightblue" d="M139.486,-116.996C162.262,-107.78 189.823,-97.0735 215,-88.5 220.964,-86.4692 227.205,-84.4587 233.471,-82.5166"/>
<polygon fill="midnightblue" stroke="midnightblue" points="234.754,-85.7848 243.304,-79.5278 232.718,-79.0874 234.754,-85.7848"/>
</g>
<!-- Node19 -->
<g id="node19" class="node"><title>Node19</title>
<g id="a_node19"><a xlink:href="classRa_1_1Engine_1_1Component.html#aea20d8186eb969b255cd83218a809178" target="_top" xlink:title="Add a new render object to the component. This adds the RO to the manager for drawing. ">
<polygon fill="white" stroke="black" points="234.5,-0.5 234.5,-30.5 363.5,-30.5 363.5,-0.5 234.5,-0.5"/>
<text text-anchor="start" x="242.5" y="-18.5" font-family="Helvetica,sans-Serif" font-size="10.00">Ra::Engine::Component</text>
<text text-anchor="middle" x="299" y="-7.5" font-family="Helvetica,sans-Serif" font-size="10.00">::addRenderObject</text>
</a>
</g>
</g>
<!-- Node1&#45;&gt;Node19 -->
<g id="edge20" class="edge"><title>Node1&#45;&gt;Node19</title>
<path fill="none" stroke="midnightblue" d="M111.63,-116.608C135.058,-94.5242 174.865,-60.0982 215,-39.5 218.576,-37.6647 222.313,-35.9506 226.138,-34.3526"/>
<polygon fill="midnightblue" stroke="midnightblue" points="227.724,-37.4916 235.785,-30.6161 225.196,-30.9642 227.724,-37.4916"/>
</g>
<!-- Node3 -->
<g id="node3" class="node"><title>Node3</title>
<g id="a_node3"><a xlink:href="classRa_1_1Core_1_1Geometry_1_1TriangleMesh.html#a6ef9dbd18c0501f2ffd1316be6be56ce" target="_top" xlink:title="Access the vertices positions. ">
<polygon fill="white" stroke="black" points="635.5,-379.5 635.5,-409.5 763.5,-409.5 763.5,-379.5 635.5,-379.5"/>
<text text-anchor="start" x="643.5" y="-397.5" font-family="Helvetica,sans-Serif" font-size="10.00">Ra::Core::Geometry</text>
<text text-anchor="middle" x="699.5" y="-386.5" font-family="Helvetica,sans-Serif" font-size="10.00">::TriangleMesh::vertices</text>
</a>
</g>
</g>
<!-- Node2&#45;&gt;Node3 -->
<g id="edge2" class="edge"><title>Node2&#45;&gt;Node3</title>
<path fill="none" stroke="midnightblue" d="M334.565,-316.585C358.009,-326.312 389.909,-338.58 419,-346.5 487.903,-365.258 568.449,-378.169 625.327,-385.837"/>
<polygon fill="midnightblue" stroke="midnightblue" points="624.935,-389.315 635.308,-387.161 625.856,-382.376 624.935,-389.315"/>
</g>
<!-- Node4 -->
<g id="node4" class="node"><title>Node4</title>
<g id="a_node4"><a xlink:href="classRa_1_1Core_1_1Geometry_1_1TriangleMesh.html#ad7d3f6272b902171740e50232ba56114" target="_top" xlink:title="Access the vertices normals. ">
<polygon fill="white" stroke="black" points="635,-330.5 635,-360.5 764,-360.5 764,-330.5 635,-330.5"/>
<text text-anchor="start" x="643" y="-348.5" font-family="Helvetica,sans-Serif" font-size="10.00">Ra::Core::Geometry</text>
<text text-anchor="middle" x="699.5" y="-337.5" font-family="Helvetica,sans-Serif" font-size="10.00">::TriangleMesh::normals</text>
</a>
</g>
</g>
<!-- Node2&#45;&gt;Node4 -->
<g id="edge3" class="edge"><title>Node2&#45;&gt;Node4</title>
<path fill="none" stroke="midnightblue" d="M366.772,-316.524C383.736,-319.911 401.98,-323.184 419,-325.5 488.431,-334.946 568.212,-340.094 624.717,-342.79"/>
<polygon fill="midnightblue" stroke="midnightblue" points="624.838,-346.299 634.989,-343.265 625.162,-339.307 624.838,-346.299"/>
</g>
<!-- Node5 -->
<g id="node5" class="node"><title>Node5</title>
<g id="a_node5"><a xlink:href="namespaceRa_1_1Core_1_1Vector.html#a42d87f3bd0658bac532d72f0ec528827" target="_top" xlink:title="Get the cosine of the angle between two vectors. ">
<polygon fill="white" stroke="black" points="449,-248 449,-267 565,-267 565,-248 449,-248"/>
<text text-anchor="middle" x="507" y="-255" font-family="Helvetica,sans-Serif" font-size="10.00">Ra::Core::Vector::cos</text>
</a>
</g>
</g>
<!-- Node2&#45;&gt;Node5 -->
<g id="edge4" class="edge"><title>Node2&#45;&gt;Node5</title>
<path fill="none" stroke="midnightblue" d="M367.167,-287.154C394.428,-281.331 425.514,-274.691 451.35,-269.173"/>
<polygon fill="midnightblue" stroke="midnightblue" points="452.292,-272.551 461.34,-267.039 450.83,-265.705 452.292,-272.551"/>
</g>
<!-- Node6 -->
<g id="node6" class="node"><title>Node6</title>
<g id="a_node6"><a xlink:href="classRa_1_1Core_1_1Geometry_1_1TriangleMesh.html#a0b294c697e094dcc62b3adb3c0ac16af" target="_top" xlink:title="Check that the mesh is well built, asserting when it is not. ">
<polygon fill="white" stroke="black" points="419,-286.5 419,-316.5 595,-316.5 595,-286.5 419,-286.5"/>
<text text-anchor="start" x="427" y="-304.5" font-family="Helvetica,sans-Serif" font-size="10.00">Ra::Core::Geometry</text>
<text text-anchor="middle" x="507" y="-293.5" font-family="Helvetica,sans-Serif" font-size="10.00">::TriangleMesh::checkConsistency</text>
</a>
</g>
</g>
<!-- Node2&#45;&gt;Node6 -->
<g id="edge5" class="edge"><title>Node2&#45;&gt;Node6</title>
<path fill="none" stroke="midnightblue" d="M367.167,-301.5C380.394,-301.5 394.522,-301.5 408.514,-301.5"/>
<polygon fill="midnightblue" stroke="midnightblue" points="408.663,-305 418.663,-301.5 408.663,-298 408.663,-305"/>
</g>
<!-- Node6&#45;&gt;Node3 -->
<g id="edge6" class="edge"><title>Node6&#45;&gt;Node3</title>
<path fill="none" stroke="midnightblue" d="M532.329,-316.776C556.692,-331.68 595.556,-354.398 631,-370.5 634.885,-372.265 638.942,-373.988 643.054,-375.649"/>
<polygon fill="midnightblue" stroke="midnightblue" points="642.106,-379.036 652.695,-379.401 644.645,-372.512 642.106,-379.036"/>
</g>
<!-- Node6&#45;&gt;Node4 -->
<g id="edge11" class="edge"><title>Node6&#45;&gt;Node4</title>
<path fill="none" stroke="midnightblue" d="M573.026,-316.519C589.695,-320.369 607.742,-324.538 624.813,-328.48"/>
<polygon fill="midnightblue" stroke="midnightblue" points="624.203,-331.932 634.734,-330.772 625.778,-325.111 624.203,-331.932"/>
</g>
<!-- Node7 -->
<g id="node7" class="node"><title>Node7</title>
<g id="a_node7"><a xlink:href="namespaceRa_1_1Core_1_1Geometry.html#aa04e6052d8911b1df1bd881474debb45" target="_top" xlink:title="Ra::Core::Geometry::t">
<polygon fill="white" stroke="black" points="639.5,-243 639.5,-262 759.5,-262 759.5,-243 639.5,-243"/>
<text text-anchor="middle" x="699.5" y="-250" font-family="Helvetica,sans-Serif" font-size="10.00">Ra::Core::Geometry::t</text>
</a>
</g>
</g>
<!-- Node6&#45;&gt;Node7 -->
<g id="edge7" class="edge"><title>Node6&#45;&gt;Node7</title>
<path fill="none" stroke="midnightblue" d="M566.451,-286.465C593.776,-279.437 625.875,-271.18 651.584,-264.568"/>
<polygon fill="midnightblue" stroke="midnightblue" points="652.645,-267.909 661.458,-262.028 650.901,-261.129 652.645,-267.909"/>
</g>
<!-- Node8 -->
<g id="node8" class="node"><title>Node8</title>
<g id="a_node8"><a xlink:href="namespaceRa_1_1Core_1_1Geometry.html#a178f2b7309fe2ea5bc31a3abcb25368e" target="_top" xlink:title="Ra::Core::Geometry\l::triangleArea">
<polygon fill="white" stroke="black" points="644,-281.5 644,-311.5 755,-311.5 755,-281.5 644,-281.5"/>
<text text-anchor="start" x="652" y="-299.5" font-family="Helvetica,sans-Serif" font-size="10.00">Ra::Core::Geometry</text>
<text text-anchor="middle" x="699.5" y="-288.5" font-family="Helvetica,sans-Serif" font-size="10.00">::triangleArea</text>
</a>
</g>
</g>
<!-- Node6&#45;&gt;Node8 -->
<g id="edge8" class="edge"><title>Node6&#45;&gt;Node8</title>
<path fill="none" stroke="midnightblue" d="M595.166,-299.212C608.101,-298.873 621.237,-298.528 633.609,-298.203"/>
<polygon fill="midnightblue" stroke="midnightblue" points="633.897,-301.697 643.801,-297.936 633.713,-294.699 633.897,-301.697"/>
</g>
<!-- Node9 -->
<g id="node9" class="node"><title>Node9</title>
<g id="a_node9"><a xlink:href="namespaceOpenMesh.html#a71e7f1dd3eac016d2b8245ac408a291c" target="_top" xlink:title="OpenMesh::cross">
<polygon fill="white" stroke="black" points="804,-306 804,-325 903,-325 903,-306 804,-306"/>
<text text-anchor="middle" x="853.5" y="-313" font-family="Helvetica,sans-Serif" font-size="10.00">OpenMesh::cross</text>
</a>
</g>
</g>
<!-- Node8&#45;&gt;Node9 -->
<g id="edge9" class="edge"><title>Node8&#45;&gt;Node9</title>
<path fill="none" stroke="midnightblue" d="M755.375,-303.359C767.856,-304.919 781.162,-306.583 793.795,-308.162"/>
<polygon fill="midnightblue" stroke="midnightblue" points="793.396,-311.639 803.753,-309.407 794.264,-304.693 793.396,-311.639"/>
</g>
<!-- Node10 -->
<g id="node10" class="node"><title>Node10</title>
<g id="a_node10"><a xlink:href="namespaceOpenMesh.html#a8205f789ce08919bc11c58383574596c" target="_top" xlink:title="OpenMesh::norm">
<polygon fill="white" stroke="black" points="804,-268 804,-287 903,-287 903,-268 804,-268"/>
<text text-anchor="middle" x="853.5" y="-275" font-family="Helvetica,sans-Serif" font-size="10.00">OpenMesh::norm</text>
</a>
</g>
</g>
<!-- Node8&#45;&gt;Node10 -->
<g id="edge10" class="edge"><title>Node8&#45;&gt;Node10</title>
<path fill="none" stroke="midnightblue" d="M755.375,-289.641C767.856,-288.081 781.162,-286.417 793.795,-284.838"/>
<polygon fill="midnightblue" stroke="midnightblue" points="794.264,-288.307 803.753,-283.593 793.396,-281.361 794.264,-288.307"/>
</g>
<!-- Node12 -->
<g id="node12" class="node"><title>Node12</title>
<g id="a_node12"><a xlink:href="classRa_1_1Engine_1_1RenderObject.html#acf300c8fdb55fee54d27b3fb46a1e523" target="_top" xlink:title="A &#45;1 (or any other negative value) lifetime is considered infinite, 0 is an &quot;invalid value&quot; (would me...">
<polygon fill="white" stroke="black" points="438.5,-196.5 438.5,-226.5 575.5,-226.5 575.5,-196.5 438.5,-196.5"/>
<text text-anchor="start" x="446.5" y="-214.5" font-family="Helvetica,sans-Serif" font-size="10.00">Ra::Engine::RenderObject</text>
<text text-anchor="middle" x="507" y="-203.5" font-family="Helvetica,sans-Serif" font-size="10.00">::RenderObject</text>
</a>
</g>
</g>
<!-- Node11&#45;&gt;Node12 -->
<g id="edge13" class="edge"><title>Node11&#45;&gt;Node12</title>
<path fill="none" stroke="midnightblue" d="M367.737,-211.5C387.011,-211.5 408.157,-211.5 427.988,-211.5"/>
<polygon fill="midnightblue" stroke="midnightblue" points="428.222,-215 438.222,-211.5 428.222,-208 428.222,-215"/>
</g>
<!-- Node13 -->
<g id="node13" class="node"><title>Node13</title>
<g id="a_node13"><a xlink:href="classRa_1_1Engine_1_1RenderObject.html#a8ea17931e62bea93890d44815bf7fcf5" target="_top" xlink:title="Ra::Engine::RenderObject\l::~RenderObject">
<polygon fill="white" stroke="black" points="631,-193.5 631,-223.5 768,-223.5 768,-193.5 631,-193.5"/>
<text text-anchor="start" x="639" y="-211.5" font-family="Helvetica,sans-Serif" font-size="10.00">Ra::Engine::RenderObject</text>
<text text-anchor="middle" x="699.5" y="-200.5" font-family="Helvetica,sans-Serif" font-size="10.00">::~RenderObject</text>
</a>
</g>
</g>
<!-- Node12&#45;&gt;Node13 -->
<g id="edge14" class="edge"><title>Node12&#45;&gt;Node13</title>
<path fill="none" stroke="midnightblue" d="M575.7,-210.434C590.21,-210.205 605.655,-209.962 620.519,-209.728"/>
<polygon fill="midnightblue" stroke="midnightblue" points="620.754,-213.225 630.698,-209.568 620.644,-206.226 620.754,-213.225"/>
</g>
<!-- Node15 -->
<g id="node15" class="node"><title>Node15</title>
<g id="a_node15"><a xlink:href="classRa_1_1Engine_1_1RenderTechnique.html#a9bddcd20723ee582fd81c363b9148cf9" target="_top" xlink:title="Ra::Engine::RenderTechnique\l::setMaterial">
<polygon fill="white" stroke="black" points="430.5,-147.5 430.5,-177.5 583.5,-177.5 583.5,-147.5 430.5,-147.5"/>
<text text-anchor="start" x="438.5" y="-165.5" font-family="Helvetica,sans-Serif" font-size="10.00">Ra::Engine::RenderTechnique</text>
<text text-anchor="middle" x="507" y="-154.5" font-family="Helvetica,sans-Serif" font-size="10.00">::setMaterial</text>
</a>
</g>
</g>
<!-- Node14&#45;&gt;Node15 -->
<g id="edge16" class="edge"><title>Node14&#45;&gt;Node15</title>
<path fill="none" stroke="midnightblue" d="M383.194,-162.5C395.408,-162.5 408.007,-162.5 420.27,-162.5"/>
<polygon fill="midnightblue" stroke="midnightblue" points="420.477,-166 430.477,-162.5 420.477,-159 420.477,-166"/>
</g>
<!-- Node16 -->
<g id="node16" class="node"><title>Node16</title>
<g id="a_node16"><a xlink:href="namespaceRa_1_1Engine_1_1EngineRenderTechniques.html#a5e831d5088144082e9bd3828323aa57a" target="_top" xlink:title="Ra::Engine::EngineRender\lTechniques::getDefaultTechnique">
<polygon fill="white" stroke="black" points="420.5,-98.5 420.5,-128.5 593.5,-128.5 593.5,-98.5 420.5,-98.5"/>
<text text-anchor="start" x="428.5" y="-116.5" font-family="Helvetica,sans-Serif" font-size="10.00">Ra::Engine::EngineRender</text>
<text text-anchor="middle" x="507" y="-105.5" font-family="Helvetica,sans-Serif" font-size="10.00">Techniques::getDefaultTechnique</text>
</a>
</g>
</g>
<!-- Node14&#45;&gt;Node16 -->
<g id="edge17" class="edge"><title>Node14&#45;&gt;Node16</title>
<path fill="none" stroke="midnightblue" d="M363.207,-147.465C385.254,-142.221 410.176,-136.293 432.956,-130.874"/>
<polygon fill="midnightblue" stroke="midnightblue" points="433.994,-134.225 442.913,-128.506 432.374,-127.415 433.994,-134.225"/>
</g>
<!-- Node20 -->
<g id="node20" class="node"><title>Node20</title>
<g id="a_node20"><a xlink:href="classRa_1_1Engine_1_1Component.html#a10b0bc182b76165744ebea603ae32dfe" target="_top" xlink:title="Shortcut to access the render object manager. ">
<polygon fill="white" stroke="black" points="442.5,-0.5 442.5,-30.5 571.5,-30.5 571.5,-0.5 442.5,-0.5"/>
<text text-anchor="start" x="450.5" y="-18.5" font-family="Helvetica,sans-Serif" font-size="10.00">Ra::Engine::Component</text>
<text text-anchor="middle" x="507" y="-7.5" font-family="Helvetica,sans-Serif" font-size="10.00">::getRoMgr</text>
</a>
</g>
</g>
<!-- Node19&#45;&gt;Node20 -->
<g id="edge21" class="edge"><title>Node19&#45;&gt;Node20</title>
<path fill="none" stroke="midnightblue" d="M363.769,-15.5C385.39,-15.5 409.723,-15.5 432.068,-15.5"/>
<polygon fill="midnightblue" stroke="midnightblue" points="432.178,-19.0001 442.178,-15.5 432.178,-12.0001 432.178,-19.0001"/>
</g>
</g>
</svg>
