<?xml version="1.0" encoding="UTF-8" standalone="no"?>
<!DOCTYPE svg PUBLIC "-//W3C//DTD SVG 1.1//EN"
 "http://www.w3.org/Graphics/SVG/1.1/DTD/svg11.dtd">
<!-- Generated by graphviz version 2.38.0 (20140413.2041)
 -->
<!-- Title: Ra::Core::Animation::Cage Pages: 1 -->
<svg width="120pt" height="402pt"
 viewBox="0.00 0.00 120.00 402.00" xmlns="http://www.w3.org/2000/svg" xmlns:xlink="http://www.w3.org/1999/xlink">
<g id="graph0" class="graph" transform="scale(1 1) rotate(0) translate(4 398)">
<title>Ra::Core::Animation::Cage</title>
<polygon fill="white" stroke="none" points="-4,4 -4,-398 116,-398 116,4 -4,4"/>
<!-- Node1 -->
<g id="node1" class="node"><title>Node1</title>
<polygon fill="#bfbfbf" stroke="black" points="-7.10543e-15,-0.5 -7.10543e-15,-112.5 112,-112.5 112,-0.5 -7.10543e-15,-0.5"/>
<text text-anchor="start" x="8" y="-100.5" font-family="Helvetica,sans-Serif" font-size="10.00">Ra::Core::Animation</text>
<text text-anchor="middle" x="56" y="-89.5" font-family="Helvetica,sans-Serif" font-size="10.00">::Cage</text>
<polyline fill="none" stroke="black" points="-7.10543e-15,-82.5 112,-82.5 "/>
<text text-anchor="start" x="8" y="-70.5" font-family="Helvetica,sans-Serif" font-size="10.00">+ m_triangle</text>
<polyline fill="none" stroke="black" points="-7.10543e-15,-63.5 112,-63.5 "/>
<text text-anchor="start" x="8" y="-51.5" font-family="Helvetica,sans-Serif" font-size="10.00">+ Cage()</text>
<text text-anchor="start" x="8" y="-40.5" font-family="Helvetica,sans-Serif" font-size="10.00">+ Cage()</text>
<text text-anchor="start" x="8" y="-29.5" font-family="Helvetica,sans-Serif" font-size="10.00">+ Cage()</text>
<text text-anchor="start" x="8" y="-18.5" font-family="Helvetica,sans-Serif" font-size="10.00">+ ~Cage()</text>
<text text-anchor="start" x="8" y="-7.5" font-family="Helvetica,sans-Serif" font-size="10.00">+ clear()</text>
</g>
<!-- Node2 -->
<g id="node2" class="node"><title>Node2</title>
<g id="a_node2"><a xlink:href="classRa_1_1Core_1_1Animation_1_1Handle.html" target="_top" xlink:title="The Handle class describes the base handle structure used for deformation. ">
<polygon fill="white" stroke="black" points="-7.10543e-15,-149.5 -7.10543e-15,-393.5 112,-393.5 112,-149.5 -7.10543e-15,-149.5"/>
<text text-anchor="start" x="8" y="-381.5" font-family="Helvetica,sans-Serif" font-size="10.00">Ra::Core::Animation</text>
<text text-anchor="middle" x="56" y="-370.5" font-family="Helvetica,sans-Serif" font-size="10.00">::Handle</text>
<polyline fill="none" stroke="black" points="-7.10543e-15,-363.5 112,-363.5 "/>
<text text-anchor="start" x="8" y="-351.5" font-family="Helvetica,sans-Serif" font-size="10.00">+ m_pose</text>
<text text-anchor="start" x="8" y="-340.5" font-family="Helvetica,sans-Serif" font-size="10.00"># m_name</text>
<text text-anchor="start" x="8" y="-329.5" font-family="Helvetica,sans-Serif" font-size="10.00"># m_label</text>
<polyline fill="none" stroke="black" points="-7.10543e-15,-322.5 112,-322.5 "/>
<text text-anchor="start" x="8" y="-310.5" font-family="Helvetica,sans-Serif" font-size="10.00">+ Handle()</text>
<text text-anchor="start" x="8" y="-299.5" font-family="Helvetica,sans-Serif" font-size="10.00">+ Handle()</text>
<text text-anchor="start" x="8" y="-288.5" font-family="Helvetica,sans-Serif" font-size="10.00">+ Handle()</text>
<text text-anchor="start" x="8" y="-277.5" font-family="Helvetica,sans-Serif" font-size="10.00">+ operator=()</text>
<text text-anchor="start" x="8" y="-266.5" font-family="Helvetica,sans-Serif" font-size="10.00">+ ~Handle()</text>
<text text-anchor="start" x="8" y="-255.5" font-family="Helvetica,sans-Serif" font-size="10.00">+ size()</text>
<text text-anchor="start" x="8" y="-244.5" font-family="Helvetica,sans-Serif" font-size="10.00">+ clear()</text>
<text text-anchor="start" x="8" y="-233.5" font-family="Helvetica,sans-Serif" font-size="10.00">+ getPose()</text>
<text text-anchor="start" x="8" y="-222.5" font-family="Helvetica,sans-Serif" font-size="10.00">+ setPose()</text>
<text text-anchor="start" x="8" y="-211.5" font-family="Helvetica,sans-Serif" font-size="10.00">+ getTransform()</text>
<text text-anchor="start" x="8" y="-200.5" font-family="Helvetica,sans-Serif" font-size="10.00">+ setTransform()</text>
<text text-anchor="start" x="8" y="-189.5" font-family="Helvetica,sans-Serif" font-size="10.00">+ getName()</text>
<text text-anchor="start" x="8" y="-178.5" font-family="Helvetica,sans-Serif" font-size="10.00">+ setName()</text>
<text text-anchor="start" x="8" y="-167.5" font-family="Helvetica,sans-Serif" font-size="10.00">+ getLabel()</text>
<text text-anchor="start" x="8" y="-156.5" font-family="Helvetica,sans-Serif" font-size="10.00">+ setLabel()</text>
</a>
</g>
</g>
<!-- Node2&#45;&gt;Node1 -->
<g id="edge1" class="edge"><title>Node2&#45;&gt;Node1</title>
<path fill="none" stroke="midnightblue" d="M56,-139.227C56,-129.956 56,-120.95 56,-112.512"/>
<polygon fill="none" stroke="midnightblue" points="52.5001,-139.377 56,-149.377 59.5001,-139.377 52.5001,-139.377"/>
</g>
</g>
</svg>
