<?xml version="1.0" encoding="UTF-8" standalone="no"?>
<!DOCTYPE svg PUBLIC "-//W3C//DTD SVG 1.1//EN"
 "http://www.w3.org/Graphics/SVG/1.1/DTD/svg11.dtd">
<!-- Generated by graphviz version 2.38.0 (20140413.2041)
 -->
<!-- Title: DummyPlugin::DummySystem Pages: 1 -->
<svg width="327pt" height="674pt"
 viewBox="0.00 0.00 326.50 674.00" xmlns="http://www.w3.org/2000/svg" xmlns:xlink="http://www.w3.org/1999/xlink">
<g id="graph0" class="graph" transform="scale(1 1) rotate(0) translate(4 670)">
<title>DummyPlugin::DummySystem</title>
<polygon fill="white" stroke="none" points="-4,4 -4,-670 322.5,-670 322.5,4 -4,4"/>
<!-- Node1 -->
<g id="node1" class="node"><title>Node1</title>
<polygon fill="#bfbfbf" stroke="black" points="23.5,-0.5 23.5,-112.5 205.5,-112.5 205.5,-0.5 23.5,-0.5"/>
<text text-anchor="middle" x="114.5" y="-100.5" font-family="Helvetica,sans-Serif" font-size="10.00">DummyPlugin::DummySystem</text>
<polyline fill="none" stroke="black" points="23.5,-93.5 205.5,-93.5 "/>
<text text-anchor="middle" x="114.5" y="-81.5" font-family="Helvetica,sans-Serif" font-size="10.00"> </text>
<polyline fill="none" stroke="black" points="23.5,-74.5 205.5,-74.5 "/>
<text text-anchor="start" x="31.5" y="-62.5" font-family="Helvetica,sans-Serif" font-size="10.00">+ DummySystem()</text>
<text text-anchor="start" x="31.5" y="-51.5" font-family="Helvetica,sans-Serif" font-size="10.00">+ ~DummySystem()</text>
<text text-anchor="start" x="31.5" y="-40.5" font-family="Helvetica,sans-Serif" font-size="10.00">+ initialize()</text>
<text text-anchor="start" x="31.5" y="-29.5" font-family="Helvetica,sans-Serif" font-size="10.00">+ handleDataLoading()</text>
<text text-anchor="start" x="31.5" y="-18.5" font-family="Helvetica,sans-Serif" font-size="10.00">+ generateTasks()</text>
<text text-anchor="start" x="31.5" y="-7.5" font-family="Helvetica,sans-Serif" font-size="10.00"># addComponentToEntityInternal()</text>
</g>
<!-- Node2 -->
<g id="node2" class="node"><title>Node2</title>
<g id="a_node2"><a xlink:href="classRa_1_1Engine_1_1System.html" target="_top" xlink:title="Systems are responsible of updating a specific subset of the components of each entity. ">
<polygon fill="white" stroke="black" points="36,-150.5 36,-284.5 193,-284.5 193,-150.5 36,-150.5"/>
<text text-anchor="middle" x="114.5" y="-272.5" font-family="Helvetica,sans-Serif" font-size="10.00">Ra::Engine::System</text>
<polyline fill="none" stroke="black" points="36,-265.5 193,-265.5 "/>
<text text-anchor="middle" x="114.5" y="-253.5" font-family="Helvetica,sans-Serif" font-size="10.00"> </text>
<polyline fill="none" stroke="black" points="36,-246.5 193,-246.5 "/>
<text text-anchor="start" x="44" y="-234.5" font-family="Helvetica,sans-Serif" font-size="10.00">+ System()</text>
<text text-anchor="start" x="44" y="-223.5" font-family="Helvetica,sans-Serif" font-size="10.00">+ ~System()</text>
<text text-anchor="start" x="44" y="-212.5" font-family="Helvetica,sans-Serif" font-size="10.00">+ handleAssetLoading()</text>
<text text-anchor="start" x="44" y="-201.5" font-family="Helvetica,sans-Serif" font-size="10.00">+ generateTasks()</text>
<text text-anchor="start" x="44" y="-190.5" font-family="Helvetica,sans-Serif" font-size="10.00">+ getEntityComponents()</text>
<text text-anchor="start" x="44" y="-179.5" font-family="Helvetica,sans-Serif" font-size="10.00"># registerComponent()</text>
<text text-anchor="start" x="44" y="-168.5" font-family="Helvetica,sans-Serif" font-size="10.00"># unregisterComponent()</text>
<text text-anchor="start" x="44" y="-157.5" font-family="Helvetica,sans-Serif" font-size="10.00"># unregisterAllComponents()</text>
</a>
</g>
</g>
<!-- Node2&#45;&gt;Node1 -->
<g id="edge1" class="edge"><title>Node2&#45;&gt;Node1</title>
<path fill="none" stroke="midnightblue" d="M114.5,-140.157C114.5,-130.994 114.5,-121.776 114.5,-112.99"/>
<polygon fill="none" stroke="midnightblue" points="111,-140.451 114.5,-150.451 118,-140.451 111,-140.451"/>
</g>
<!-- Node3 -->
<g id="node3" class="node"><title>Node3</title>
<polygon fill="white" stroke="#bfbfbf" points="27.5,-332.5 27.5,-411.5 201.5,-411.5 201.5,-332.5 27.5,-332.5"/>
<text text-anchor="start" x="35.5" y="-399.5" font-family="Helvetica,sans-Serif" font-size="10.00">std::vector&lt; std::pair</text>
<text text-anchor="start" x="35.5" y="-388.5" font-family="Helvetica,sans-Serif" font-size="10.00">&lt; const Ra::Engine::Entity</text>
<text text-anchor="middle" x="114.5" y="-377.5" font-family="Helvetica,sans-Serif" font-size="10.00"> *, Ra::Engine::Component * &gt; &gt;</text>
<polyline fill="none" stroke="#bfbfbf" points="27.5,-370.5 201.5,-370.5 "/>
<text text-anchor="middle" x="114.5" y="-358.5" font-family="Helvetica,sans-Serif" font-size="10.00"> </text>
<polyline fill="none" stroke="#bfbfbf" points="27.5,-351.5 201.5,-351.5 "/>
<text text-anchor="middle" x="114.5" y="-339.5" font-family="Helvetica,sans-Serif" font-size="10.00"> </text>
</g>
<!-- Node3&#45;&gt;Node2 -->
<g id="edge2" class="edge"><title>Node3&#45;&gt;Node2</title>
<path fill="none" stroke="#404040" d="M114.5,-332.123C114.5,-321.269 114.5,-309.072 114.5,-296.805"/>
<polygon fill="none" stroke="#404040" points="114.5,-296.561 110.5,-290.561 114.5,-284.561 118.5,-290.561 114.5,-296.561"/>
<text text-anchor="middle" x="158" y="-306" font-family="Helvetica,sans-Serif" font-size="10.00"> #m_components</text>
</g>
<!-- Node4 -->
<g id="node4" class="node"><title>Node4</title>
<polygon fill="white" stroke="#bfbfbf" points="-7.10543e-15,-481.5 -7.10543e-15,-560.5 125,-560.5 125,-481.5 -7.10543e-15,-481.5"/>
<text text-anchor="start" x="8" y="-548.5" font-family="Helvetica,sans-Serif" font-size="10.00">pair&lt; const Ra::Engine</text>
<text text-anchor="start" x="8" y="-537.5" font-family="Helvetica,sans-Serif" font-size="10.00">::Entity *, Ra::Engine</text>
<text text-anchor="middle" x="62.5" y="-526.5" font-family="Helvetica,sans-Serif" font-size="10.00">::Component * &gt;</text>
<polyline fill="none" stroke="#bfbfbf" points="-7.10543e-15,-519.5 125,-519.5 "/>
<text text-anchor="middle" x="62.5" y="-507.5" font-family="Helvetica,sans-Serif" font-size="10.00"> </text>
<polyline fill="none" stroke="#bfbfbf" points="-7.10543e-15,-500.5 125,-500.5 "/>
<text text-anchor="middle" x="62.5" y="-488.5" font-family="Helvetica,sans-Serif" font-size="10.00"> </text>
</g>
<!-- Node4&#45;&gt;Node3 -->
<g id="edge3" class="edge"><title>Node4&#45;&gt;Node3</title>
<path fill="none" stroke="#404040" d="M71.658,-481.439C75.8801,-465.338 81.3284,-446.564 87.5,-430 88.3811,-427.635 89.3224,-425.234 90.3059,-422.823"/>
<polygon fill="none" stroke="#404040" points="90.4092,-422.582 89.1041,-415.49 95.1486,-411.558 96.4537,-418.65 90.4092,-422.582"/>
<text text-anchor="middle" x="116" y="-444" font-family="Helvetica,sans-Serif" font-size="10.00"> +elements</text>
</g>
<!-- Node5 -->
<g id="node5" class="node"><title>Node5</title>
<g id="a_node5"><a xlink:title="STL class. ">
<polygon fill="white" stroke="#bfbfbf" points="143,-492.5 143,-549.5 238,-549.5 238,-492.5 143,-492.5"/>
<text text-anchor="middle" x="190.5" y="-537.5" font-family="Helvetica,sans-Serif" font-size="10.00">std::vector&lt; T &gt;</text>
<polyline fill="none" stroke="#bfbfbf" points="143,-530.5 238,-530.5 "/>
<text text-anchor="middle" x="190.5" y="-518.5" font-family="Helvetica,sans-Serif" font-size="10.00"> </text>
<polyline fill="none" stroke="#bfbfbf" points="143,-511.5 238,-511.5 "/>
<text text-anchor="middle" x="190.5" y="-499.5" font-family="Helvetica,sans-Serif" font-size="10.00"> </text>
</a>
</g>
</g>
<!-- Node5&#45;&gt;Node3 -->
<g id="edge4" class="edge"><title>Node5&#45;&gt;Node3</title>
<path fill="none" stroke="orange" d="M171.803,-483.173C163.488,-466.859 153.55,-447.449 144.5,-430 141.411,-424.044 138.121,-417.749 134.896,-411.6"/>
<polygon fill="orange" stroke="orange" points="168.836,-485.06 176.493,-492.383 175.074,-481.884 168.836,-485.06"/>
<text text-anchor="start" x="160.5" y="-455" font-family="Helvetica,sans-Serif" font-size="10.00"> &lt; std::pair&lt; const</text>
<text text-anchor="start" x="160.5" y="-444" font-family="Helvetica,sans-Serif" font-size="10.00"> Ra::Engine::Entity</text>
<text text-anchor="middle" x="239.5" y="-433" font-family="Helvetica,sans-Serif" font-size="10.00"> *, Ra::Engine::Component * &gt; &gt;</text>
</g>
<!-- Node6 -->
<g id="node6" class="node"><title>Node6</title>
<polygon fill="white" stroke="#bfbfbf" points="176,-608.5 176,-665.5 205,-665.5 205,-608.5 176,-608.5"/>
<text text-anchor="middle" x="190.5" y="-653.5" font-family="Helvetica,sans-Serif" font-size="10.00">T</text>
<polyline fill="none" stroke="#bfbfbf" points="176,-646.5 205,-646.5 "/>
<text text-anchor="middle" x="190.5" y="-634.5" font-family="Helvetica,sans-Serif" font-size="10.00"> </text>
<polyline fill="none" stroke="#bfbfbf" points="176,-627.5 205,-627.5 "/>
<text text-anchor="middle" x="190.5" y="-615.5" font-family="Helvetica,sans-Serif" font-size="10.00"> </text>
</g>
<!-- Node6&#45;&gt;Node5 -->
<g id="edge5" class="edge"><title>Node6&#45;&gt;Node5</title>
<path fill="none" stroke="#404040" d="M190.5,-608.404C190.5,-594.504 190.5,-577.392 190.5,-562.073"/>
<polygon fill="none" stroke="#404040" points="190.5,-561.737 186.5,-555.737 190.5,-549.737 194.5,-555.737 190.5,-561.737"/>
<text text-anchor="middle" x="219" y="-582" font-family="Helvetica,sans-Serif" font-size="10.00"> +elements</text>
</g>
</g>
</svg>
