<?xml version="1.0" encoding="UTF-8" standalone="no"?>
<!DOCTYPE svg PUBLIC "-//W3C//DTD SVG 1.1//EN"
 "http://www.w3.org/Graphics/SVG/1.1/DTD/svg11.dtd">
<!-- Generated by graphviz version 2.38.0 (20140413.2041)
 -->
<!-- Title: Ra::Engine::ShaderProgram::ShaderProgram Pages: 1 -->
<svg width="549pt" height="137pt"
 viewBox="0.00 0.00 549.00 137.00" xmlns="http://www.w3.org/2000/svg" xmlns:xlink="http://www.w3.org/1999/xlink">
<g id="graph0" class="graph" transform="scale(1 1) rotate(0) translate(4 133)">
<title>Ra::Engine::ShaderProgram::ShaderProgram</title>
<polygon fill="white" stroke="none" points="-4,4 -4,-133 545,-133 545,4 -4,4"/>
<!-- Node1 -->
<g id="node1" class="node"><title>Node1</title>
<polygon fill="#bfbfbf" stroke="black" points="0,-24.5 0,-54.5 149,-54.5 149,-24.5 0,-24.5"/>
<text text-anchor="start" x="8" y="-42.5" font-family="Helvetica,sans-Serif" font-size="10.00">Ra::Engine::ShaderProgram</text>
<text text-anchor="middle" x="74.5" y="-31.5" font-family="Helvetica,sans-Serif" font-size="10.00">::ShaderProgram</text>
</g>
<!-- Node2 -->
<g id="node2" class="node"><title>Node2</title>
<g id="a_node2"><a xlink:href="classRa_1_1Engine_1_1ShaderProgram.html#a992bd04cdf26d44501f261bfd52a4521" target="_top" xlink:title="Ra::Engine::ShaderProgram\l::load">
<polygon fill="white" stroke="black" points="185,-49.5 185,-79.5 334,-79.5 334,-49.5 185,-49.5"/>
<text text-anchor="start" x="193" y="-67.5" font-family="Helvetica,sans-Serif" font-size="10.00">Ra::Engine::ShaderProgram</text>
<text text-anchor="middle" x="259.5" y="-56.5" font-family="Helvetica,sans-Serif" font-size="10.00">::load</text>
</a>
</g>
</g>
<!-- Node1&#45;&gt;Node2 -->
<g id="edge1" class="edge"><title>Node1&#45;&gt;Node2</title>
<path fill="none" stroke="midnightblue" d="M149.142,-49.5604C157.565,-50.7111 166.199,-51.8906 174.742,-53.0576"/>
<polygon fill="midnightblue" stroke="midnightblue" points="174.329,-56.5337 184.711,-54.4195 175.277,-49.5981 174.329,-56.5337"/>
</g>
<!-- Node6 -->
<g id="node6" class="node"><title>Node6</title>
<g id="a_node6"><a xlink:href="classRa_1_1Engine_1_1ShaderProgram.html#a64ae78fb149ae67e8301c7b6bf97c54c" target="_top" xlink:title="Ra::Engine::ShaderProgram\l::~ShaderProgram">
<polygon fill="white" stroke="black" points="185,-0.5 185,-30.5 334,-30.5 334,-0.5 185,-0.5"/>
<text text-anchor="start" x="193" y="-18.5" font-family="Helvetica,sans-Serif" font-size="10.00">Ra::Engine::ShaderProgram</text>
<text text-anchor="middle" x="259.5" y="-7.5" font-family="Helvetica,sans-Serif" font-size="10.00">::~ShaderProgram</text>
</a>
</g>
</g>
<!-- Node1&#45;&gt;Node6 -->
<g id="edge5" class="edge"><title>Node1&#45;&gt;Node6</title>
<path fill="none" stroke="midnightblue" d="M149.142,-29.842C157.565,-28.7373 166.199,-27.6051 174.742,-26.4847"/>
<polygon fill="midnightblue" stroke="midnightblue" points="175.251,-29.948 184.711,-25.1773 174.34,-23.0074 175.251,-29.948"/>
</g>
<!-- Node3 -->
<g id="node3" class="node"><title>Node3</title>
<g id="a_node3"><a xlink:href="classRa_1_1Engine_1_1ShaderConfiguration.html#a143bdfdadc4b4a595c22c37638775c87" target="_top" xlink:title="Tell if a shader configuration has at least a vertex and a fragment shader, or a compute shader...">
<polygon fill="white" stroke="black" points="370,-98.5 370,-128.5 541,-128.5 541,-98.5 370,-98.5"/>
<text text-anchor="start" x="378" y="-116.5" font-family="Helvetica,sans-Serif" font-size="10.00">Ra::Engine::ShaderConfiguration</text>
<text text-anchor="middle" x="455.5" y="-105.5" font-family="Helvetica,sans-Serif" font-size="10.00">::isComplete</text>
</a>
</g>
</g>
<!-- Node2&#45;&gt;Node3 -->
<g id="edge2" class="edge"><title>Node2&#45;&gt;Node3</title>
<path fill="none" stroke="midnightblue" d="M320.025,-79.5346C340.602,-84.7318 363.837,-90.6006 385.134,-95.9796"/>
<polygon fill="midnightblue" stroke="midnightblue" points="384.535,-99.4383 395.088,-98.4938 386.249,-92.6514 384.535,-99.4383"/>
</g>
<!-- Node4 -->
<g id="node4" class="node"><title>Node4</title>
<g id="a_node4"><a xlink:href="classRa_1_1Engine_1_1ShaderConfiguration.html#ad0bd608d1b6f52302485b81907145136" target="_top" xlink:title="Ra::Engine::ShaderConfiguration\l::getProperties">
<polygon fill="white" stroke="black" points="370,-49.5 370,-79.5 541,-79.5 541,-49.5 370,-49.5"/>
<text text-anchor="start" x="378" y="-67.5" font-family="Helvetica,sans-Serif" font-size="10.00">Ra::Engine::ShaderConfiguration</text>
<text text-anchor="middle" x="455.5" y="-56.5" font-family="Helvetica,sans-Serif" font-size="10.00">::getProperties</text>
</a>
</g>
</g>
<!-- Node2&#45;&gt;Node4 -->
<g id="edge3" class="edge"><title>Node2&#45;&gt;Node4</title>
<path fill="none" stroke="midnightblue" d="M334.12,-64.5C342.517,-64.5 351.164,-64.5 359.786,-64.5"/>
<polygon fill="midnightblue" stroke="midnightblue" points="359.88,-68.0001 369.88,-64.5 359.88,-61.0001 359.88,-68.0001"/>
</g>
<!-- Node5 -->
<g id="node5" class="node"><title>Node5</title>
<g id="a_node5"><a xlink:href="classRa_1_1Engine_1_1ShaderConfiguration.html#ad53b9a1661fea2d4703c9d9cf05e1cb5" target="_top" xlink:title="Ra::Engine::ShaderConfiguration\l::getIncludes">
<polygon fill="white" stroke="black" points="370,-0.5 370,-30.5 541,-30.5 541,-0.5 370,-0.5"/>
<text text-anchor="start" x="378" y="-18.5" font-family="Helvetica,sans-Serif" font-size="10.00">Ra::Engine::ShaderConfiguration</text>
<text text-anchor="middle" x="455.5" y="-7.5" font-family="Helvetica,sans-Serif" font-size="10.00">::getIncludes</text>
</a>
</g>
</g>
<!-- Node2&#45;&gt;Node5 -->
<g id="edge4" class="edge"><title>Node2&#45;&gt;Node5</title>
<path fill="none" stroke="midnightblue" d="M320.025,-49.4654C340.602,-44.2682 363.837,-38.3994 385.134,-33.0204"/>
<polygon fill="midnightblue" stroke="midnightblue" points="386.249,-36.3486 395.088,-30.5062 384.535,-29.5617 386.249,-36.3486"/>
</g>
</g>
</svg>
