<?xml version="1.0" encoding="UTF-8" standalone="no"?>
<!DOCTYPE svg PUBLIC "-//W3C//DTD SVG 1.1//EN"
 "http://www.w3.org/Graphics/SVG/1.1/DTD/svg11.dtd">
<!-- Generated by graphviz version 2.38.0 (20140413.2041)
 -->
<!-- Title: Ra::Engine::SignalManager::fireComponentRemoved Pages: 1 -->
<svg width="614pt" height="61pt"
 viewBox="0.00 0.00 614.00 61.00" xmlns="http://www.w3.org/2000/svg" xmlns:xlink="http://www.w3.org/1999/xlink">
<g id="graph0" class="graph" transform="scale(1 1) rotate(0) translate(4 57)">
<title>Ra::Engine::SignalManager::fireComponentRemoved</title>
<polygon fill="white" stroke="none" points="-4,4 -4,-57 610,-57 610,4 -4,4"/>
<!-- Node1 -->
<g id="node1" class="node"><title>Node1</title>
<polygon fill="#bfbfbf" stroke="black" points="0,-0.5 0,-30.5 144,-30.5 144,-0.5 0,-0.5"/>
<text text-anchor="start" x="8" y="-18.5" font-family="Helvetica,sans-Serif" font-size="10.00">Ra::Engine::SignalManager</text>
<text text-anchor="middle" x="72" y="-7.5" font-family="Helvetica,sans-Serif" font-size="10.00">::fireComponentRemoved</text>
</g>
<!-- Node2 -->
<g id="node2" class="node"><title>Node2</title>
<g id="a_node2"><a xlink:href="structRa_1_1Engine_1_1ItemEntry.html#ac78e7430338c62ed664a16da7e3ea206" target="_top" xlink:title="Returns true if the item represents a component. ">
<polygon fill="white" stroke="black" points="180,-0.5 180,-30.5 299,-30.5 299,-0.5 180,-0.5"/>
<text text-anchor="start" x="188" y="-18.5" font-family="Helvetica,sans-Serif" font-size="10.00">Ra::Engine::ItemEntry</text>
<text text-anchor="middle" x="239.5" y="-7.5" font-family="Helvetica,sans-Serif" font-size="10.00">::isComponentNode</text>
</a>
</g>
</g>
<!-- Node1&#45;&gt;Node2 -->
<g id="edge1" class="edge"><title>Node1&#45;&gt;Node2</title>
<path fill="none" stroke="midnightblue" d="M144.147,-15.5C152.618,-15.5 161.254,-15.5 169.692,-15.5"/>
<polygon fill="midnightblue" stroke="midnightblue" points="169.86,-19.0001 179.86,-15.5 169.86,-12.0001 169.86,-19.0001"/>
</g>
<!-- Node3 -->
<g id="node3" class="node"><title>Node3</title>
<g id="a_node3"><a xlink:href="structRa_1_1Engine_1_1ItemEntry.html#a1fb9fdd74413a1fa5878f53c1cfcf8fd" target="_top" xlink:title="Debug checks. ">
<polygon fill="white" stroke="black" points="335,-22.5 335,-52.5 454,-52.5 454,-22.5 335,-22.5"/>
<text text-anchor="start" x="343" y="-40.5" font-family="Helvetica,sans-Serif" font-size="10.00">Ra::Engine::ItemEntry</text>
<text text-anchor="middle" x="394.5" y="-29.5" font-family="Helvetica,sans-Serif" font-size="10.00">::checkConsistency</text>
</a>
</g>
</g>
<!-- Node2&#45;&gt;Node3 -->
<g id="edge2" class="edge"><title>Node2&#45;&gt;Node3</title>
<path fill="none" stroke="midnightblue" d="M299.216,-23.9429C307.635,-25.1535 316.359,-26.4078 324.947,-27.6427"/>
<polygon fill="midnightblue" stroke="midnightblue" points="324.545,-31.1208 334.941,-29.0797 325.541,-24.192 324.545,-31.1208"/>
</g>
<!-- Node4 -->
<g id="node4" class="node"><title>Node4</title>
<g id="a_node4"><a xlink:href="classRa_1_1Core_1_1Utils_1_1Index.html#ac7d6c68387fe147f7a13668ac30a4533" target="_top" xlink:title="INVALID. ">
<polygon fill="white" stroke="black" points="490,-0.5 490,-30.5 606,-30.5 606,-0.5 490,-0.5"/>
<text text-anchor="start" x="498" y="-18.5" font-family="Helvetica,sans-Serif" font-size="10.00">Ra::Core::Utils::Index</text>
<text text-anchor="middle" x="548" y="-7.5" font-family="Helvetica,sans-Serif" font-size="10.00">::isInvalid</text>
</a>
</g>
</g>
<!-- Node2&#45;&gt;Node4 -->
<g id="edge4" class="edge"><title>Node2&#45;&gt;Node4</title>
<path fill="none" stroke="midnightblue" d="M299.225,-14.0643C311.068,-13.8291 323.432,-13.6224 335,-13.5 387.886,-12.9404 401.114,-12.9314 454,-13.5 462.357,-13.5898 471.136,-13.7251 479.824,-13.8837"/>
<polygon fill="midnightblue" stroke="midnightblue" points="479.885,-17.3855 489.951,-14.0794 480.02,-10.3868 479.885,-17.3855"/>
</g>
<!-- Node3&#45;&gt;Node4 -->
<g id="edge3" class="edge"><title>Node3&#45;&gt;Node4</title>
<path fill="none" stroke="midnightblue" d="M454.074,-28.9942C462.452,-27.7775 471.127,-26.5179 479.658,-25.2791"/>
<polygon fill="midnightblue" stroke="midnightblue" points="480.186,-28.7392 489.579,-23.8383 479.18,-21.8118 480.186,-28.7392"/>
</g>
</g>
</svg>
