<?xml version="1.0" encoding="UTF-8" standalone="no"?>
<!DOCTYPE svg PUBLIC "-//W3C//DTD SVG 1.1//EN"
 "http://www.w3.org/Graphics/SVG/1.1/DTD/svg11.dtd">
<!-- Generated by graphviz version 2.38.0 (20140413.2041)
 -->
<!-- Title: MeshPaintPlugin::MeshPaintPluginC::activePaintColor Pages: 1 -->
<svg width="1093pt" height="137pt"
 viewBox="0.00 0.00 1093.00 137.00" xmlns="http://www.w3.org/2000/svg" xmlns:xlink="http://www.w3.org/1999/xlink">
<g id="graph0" class="graph" transform="scale(1 1) rotate(0) translate(4 133)">
<title>MeshPaintPlugin::MeshPaintPluginC::activePaintColor</title>
<polygon fill="white" stroke="none" points="-4,4 -4,-133 1089,-133 1089,4 -4,4"/>
<!-- Node1 -->
<g id="node1" class="node"><title>Node1</title>
<polygon fill="#bfbfbf" stroke="black" points="0,-49.5 0,-79.5 149,-79.5 149,-49.5 0,-49.5"/>
<text text-anchor="start" x="8" y="-67.5" font-family="Helvetica,sans-Serif" font-size="10.00">MeshPaintPlugin::MeshPaint</text>
<text text-anchor="middle" x="74.5" y="-56.5" font-family="Helvetica,sans-Serif" font-size="10.00">PluginC::activePaintColor</text>
</g>
<!-- Node2 -->
<g id="node2" class="node"><title>Node2</title>
<g id="a_node2"><a xlink:href="classMeshPaintPlugin_1_1MeshPaintSystem.html#aefa5e3a92bef793200ef4e32cda1fe80" target="_top" xlink:title="MeshPaintPlugin::MeshPaint\lSystem::startPaintMesh">
<polygon fill="white" stroke="black" points="185,-49.5 185,-79.5 334,-79.5 334,-49.5 185,-49.5"/>
<text text-anchor="start" x="193" y="-67.5" font-family="Helvetica,sans-Serif" font-size="10.00">MeshPaintPlugin::MeshPaint</text>
<text text-anchor="middle" x="259.5" y="-56.5" font-family="Helvetica,sans-Serif" font-size="10.00">System::startPaintMesh</text>
</a>
</g>
</g>
<!-- Node1&#45;&gt;Node2 -->
<g id="edge1" class="edge"><title>Node1&#45;&gt;Node2</title>
<path fill="none" stroke="midnightblue" d="M149.142,-64.5C157.474,-64.5 166.011,-64.5 174.463,-64.5"/>
<polygon fill="midnightblue" stroke="midnightblue" points="174.711,-68.0001 184.711,-64.5 174.711,-61.0001 174.711,-68.0001"/>
</g>
<!-- Node3 -->
<g id="node3" class="node"><title>Node3</title>
<g id="a_node3"><a xlink:href="classMeshPaintPlugin_1_1MeshPaintComponent.html#a0c13da0e237aef580f67ad5b900d1036" target="_top" xlink:title="MeshPaintPlugin::MeshPaint\lComponent::startPaint">
<polygon fill="white" stroke="black" points="370,-49.5 370,-79.5 519,-79.5 519,-49.5 370,-49.5"/>
<text text-anchor="start" x="378" y="-67.5" font-family="Helvetica,sans-Serif" font-size="10.00">MeshPaintPlugin::MeshPaint</text>
<text text-anchor="middle" x="444.5" y="-56.5" font-family="Helvetica,sans-Serif" font-size="10.00">Component::startPaint</text>
</a>
</g>
</g>
<!-- Node2&#45;&gt;Node3 -->
<g id="edge2" class="edge"><title>Node2&#45;&gt;Node3</title>
<path fill="none" stroke="midnightblue" d="M334.142,-64.5C342.474,-64.5 351.011,-64.5 359.463,-64.5"/>
<polygon fill="midnightblue" stroke="midnightblue" points="359.711,-68.0001 369.711,-64.5 359.711,-61.0001 359.711,-68.0001"/>
</g>
<!-- Node4 -->
<g id="node4" class="node"><title>Node4</title>
<g id="a_node4"><a xlink:href="classRa_1_1Engine_1_1Component.html#a10b0bc182b76165744ebea603ae32dfe" target="_top" xlink:title="Shortcut to access the render object manager. ">
<polygon fill="white" stroke="black" points="576,-98.5 576,-128.5 705,-128.5 705,-98.5 576,-98.5"/>
<text text-anchor="start" x="584" y="-116.5" font-family="Helvetica,sans-Serif" font-size="10.00">Ra::Engine::Component</text>
<text text-anchor="middle" x="640.5" y="-105.5" font-family="Helvetica,sans-Serif" font-size="10.00">::getRoMgr</text>
</a>
</g>
</g>
<!-- Node3&#45;&gt;Node4 -->
<g id="edge3" class="edge"><title>Node3&#45;&gt;Node4</title>
<path fill="none" stroke="midnightblue" d="M505.025,-79.5346C525.602,-84.7318 548.837,-90.6006 570.134,-95.9796"/>
<polygon fill="midnightblue" stroke="midnightblue" points="569.535,-99.4383 580.088,-98.4938 571.249,-92.6514 569.535,-99.4383"/>
</g>
<!-- Node5 -->
<g id="node5" class="node"><title>Node5</title>
<g id="a_node5"><a xlink:href="classRa_1_1Engine_1_1RenderObjectManager.html#a13fc919e9fa01bfb36e67bc9011d325f" target="_top" xlink:title="Returns the render object corresponding to the given index. ">
<polygon fill="white" stroke="black" points="568.5,-49.5 568.5,-79.5 712.5,-79.5 712.5,-49.5 568.5,-49.5"/>
<text text-anchor="start" x="576.5" y="-67.5" font-family="Helvetica,sans-Serif" font-size="10.00">Ra::Engine::RenderObject</text>
<text text-anchor="middle" x="640.5" y="-56.5" font-family="Helvetica,sans-Serif" font-size="10.00">Manager::getRenderObject</text>
</a>
</g>
</g>
<!-- Node3&#45;&gt;Node5 -->
<g id="edge4" class="edge"><title>Node3&#45;&gt;Node5</title>
<path fill="none" stroke="midnightblue" d="M519.12,-64.5C531.891,-64.5 545.238,-64.5 558.2,-64.5"/>
<polygon fill="midnightblue" stroke="midnightblue" points="558.495,-68.0001 568.495,-64.5 558.495,-61.0001 558.495,-68.0001"/>
</g>
<!-- Node8 -->
<g id="node8" class="node"><title>Node8</title>
<g id="a_node8"><a xlink:href="namespaceRa_1_1Engine_1_1ShaderConfigurationFactory.html#a0bc60f21dbabd745961037f3d2f019c8" target="_top" xlink:title="Get a configuration from the factory. ">
<polygon fill="white" stroke="black" points="555,-0.5 555,-30.5 726,-30.5 726,-0.5 555,-0.5"/>
<text text-anchor="start" x="563" y="-18.5" font-family="Helvetica,sans-Serif" font-size="10.00">Ra::Engine::ShaderConfiguration</text>
<text text-anchor="middle" x="640.5" y="-7.5" font-family="Helvetica,sans-Serif" font-size="10.00">Factory::getConfiguration</text>
</a>
</g>
</g>
<!-- Node3&#45;&gt;Node8 -->
<g id="edge7" class="edge"><title>Node3&#45;&gt;Node8</title>
<path fill="none" stroke="midnightblue" d="M505.025,-49.4654C525.602,-44.2682 548.837,-38.3994 570.134,-33.0204"/>
<polygon fill="midnightblue" stroke="midnightblue" points="571.249,-36.3486 580.088,-30.5062 569.535,-29.5617 571.249,-36.3486"/>
</g>
<!-- Node6 -->
<g id="node6" class="node"><title>Node6</title>
<g id="a_node6"><a xlink:href="classRa_1_1Engine_1_1RenderObjectManager.html#a088feae4339349a81b7b6635b38aead1" target="_top" xlink:title="Returns true if the index points to a valid render object. ">
<polygon fill="white" stroke="black" points="779,-49.5 779,-79.5 916,-79.5 916,-49.5 779,-49.5"/>
<text text-anchor="start" x="787" y="-67.5" font-family="Helvetica,sans-Serif" font-size="10.00">Ra::Engine::RenderObject</text>
<text text-anchor="middle" x="847.5" y="-56.5" font-family="Helvetica,sans-Serif" font-size="10.00">Manager::exists</text>
</a>
</g>
</g>
<!-- Node5&#45;&gt;Node6 -->
<g id="edge5" class="edge"><title>Node5&#45;&gt;Node6</title>
<path fill="none" stroke="midnightblue" d="M712.624,-64.5C730.772,-64.5 750.373,-64.5 768.831,-64.5"/>
<polygon fill="midnightblue" stroke="midnightblue" points="768.952,-68.0001 778.952,-64.5 768.952,-61.0001 768.952,-68.0001"/>
</g>
<!-- Node7 -->
<g id="node7" class="node"><title>Node7</title>
<g id="a_node7"><a xlink:href="classRa_1_1Core_1_1Utils_1_1Index.html#ac7a1b710e6b95834a562c27e2f6c0f4b" target="_top" xlink:title="DESTRUCTOR: Must not be defined, we need it trivial to be constexpr. ">
<polygon fill="white" stroke="black" points="969,-49.5 969,-79.5 1085,-79.5 1085,-49.5 969,-49.5"/>
<text text-anchor="start" x="977" y="-67.5" font-family="Helvetica,sans-Serif" font-size="10.00">Ra::Core::Utils::Index</text>
<text text-anchor="middle" x="1027" y="-56.5" font-family="Helvetica,sans-Serif" font-size="10.00">::isValid</text>
</a>
</g>
</g>
<!-- Node6&#45;&gt;Node7 -->
<g id="edge6" class="edge"><title>Node6&#45;&gt;Node7</title>
<path fill="none" stroke="midnightblue" d="M916.111,-64.5C930.144,-64.5 944.926,-64.5 958.939,-64.5"/>
<polygon fill="midnightblue" stroke="midnightblue" points="958.985,-68.0001 968.985,-64.5 958.985,-61.0001 958.985,-68.0001"/>
</g>
<!-- Node9 -->
<g id="node9" class="node"><title>Node9</title>
<g id="a_node9"><a xlink:href="classRa_1_1Engine_1_1ShaderConfiguration.html#a7e20a600c78e8627f0238b342f4b42f2" target="_top" xlink:title="Ra::Engine::ShaderConfiguration\l::getDefaultShaderConfig">
<polygon fill="white" stroke="black" points="762,-0.5 762,-30.5 933,-30.5 933,-0.5 762,-0.5"/>
<text text-anchor="start" x="770" y="-18.5" font-family="Helvetica,sans-Serif" font-size="10.00">Ra::Engine::ShaderConfiguration</text>
<text text-anchor="middle" x="847.5" y="-7.5" font-family="Helvetica,sans-Serif" font-size="10.00">::getDefaultShaderConfig</text>
</a>
</g>
</g>
<!-- Node8&#45;&gt;Node9 -->
<g id="edge8" class="edge"><title>Node8&#45;&gt;Node9</title>
<path fill="none" stroke="midnightblue" d="M726.065,-15.5C734.547,-15.5 743.198,-15.5 751.777,-15.5"/>
<polygon fill="midnightblue" stroke="midnightblue" points="751.799,-19.0001 761.799,-15.5 751.799,-12.0001 751.799,-19.0001"/>
</g>
</g>
</svg>
