<?xml version="1.0" encoding="UTF-8" standalone="no"?>
<!DOCTYPE svg PUBLIC "-//W3C//DTD SVG 1.1//EN"
 "http://www.w3.org/Graphics/SVG/1.1/DTD/svg11.dtd">
<!-- Generated by graphviz version 2.38.0 (20140413.2041)
 -->
<!-- Title: Ra::Gui::TrackballCamera::setCameraPosition Pages: 1 -->
<svg width="638pt" height="312pt"
 viewBox="0.00 0.00 638.00 312.00" xmlns="http://www.w3.org/2000/svg" xmlns:xlink="http://www.w3.org/1999/xlink">
<g id="graph0" class="graph" transform="scale(1 1) rotate(0) translate(4 308)">
<title>Ra::Gui::TrackballCamera::setCameraPosition</title>
<polygon fill="white" stroke="none" points="-4,4 -4,-308 634,-308 634,4 -4,4"/>
<!-- Node1 -->
<g id="node1" class="node"><title>Node1</title>
<polygon fill="#bfbfbf" stroke="black" points="0,-147.5 0,-177.5 135,-177.5 135,-147.5 0,-147.5"/>
<text text-anchor="start" x="8" y="-165.5" font-family="Helvetica,sans-Serif" font-size="10.00">Ra::Gui::TrackballCamera</text>
<text text-anchor="middle" x="67.5" y="-154.5" font-family="Helvetica,sans-Serif" font-size="10.00">::setCameraPosition</text>
</g>
<!-- Node2 -->
<g id="node2" class="node"><title>Node2</title>
<g id="a_node2"><a xlink:href="classRa_1_1Engine_1_1Camera.html#ab8f9fdfba7355b4589c4d9cb39f0b527" target="_top" xlink:title="Set the position of the camera to &#39;position&#39;. ">
<polygon fill="white" stroke="black" points="171,-98.5 171,-128.5 282,-128.5 282,-98.5 171,-98.5"/>
<text text-anchor="start" x="179" y="-116.5" font-family="Helvetica,sans-Serif" font-size="10.00">Ra::Engine::Camera</text>
<text text-anchor="middle" x="226.5" y="-105.5" font-family="Helvetica,sans-Serif" font-size="10.00">::setPosition</text>
</a>
</g>
</g>
<!-- Node1&#45;&gt;Node2 -->
<g id="edge1" class="edge"><title>Node1&#45;&gt;Node2</title>
<path fill="none" stroke="midnightblue" d="M116.886,-147.399C132.929,-142.392 150.949,-136.768 167.631,-131.561"/>
<polygon fill="midnightblue" stroke="midnightblue" points="168.77,-134.872 177.274,-128.552 166.685,-128.19 168.77,-134.872"/>
</g>
<!-- Node4 -->
<g id="node4" class="node"><title>Node4</title>
<g id="a_node4"><a xlink:href="classRa_1_1Engine_1_1Camera.html#a724a052e94817af7e602129467c8696f" target="_top" xlink:title="Return the position. ">
<polygon fill="white" stroke="black" points="506,-229.5 506,-259.5 617,-259.5 617,-229.5 506,-229.5"/>
<text text-anchor="start" x="514" y="-247.5" font-family="Helvetica,sans-Serif" font-size="10.00">Ra::Engine::Camera</text>
<text text-anchor="middle" x="561.5" y="-236.5" font-family="Helvetica,sans-Serif" font-size="10.00">::getPosition</text>
</a>
</g>
</g>
<!-- Node1&#45;&gt;Node4 -->
<g id="edge12" class="edge"><title>Node1&#45;&gt;Node4</title>
<path fill="none" stroke="midnightblue" d="M97.7498,-177.701C117.832,-187.471 145.386,-199.586 171,-206.5 282.428,-236.579 417.481,-243.472 495.741,-244.705"/>
<polygon fill="midnightblue" stroke="midnightblue" points="495.887,-248.207 505.932,-244.838 495.979,-241.207 495.887,-248.207"/>
</g>
<!-- Node6 -->
<g id="node6" class="node"><title>Node6</title>
<g id="a_node6"><a xlink:href="classRa_1_1Engine_1_1Camera.html#a2fd3ed37be68acb358df23c3f04b3d81" target="_top" xlink:title="Set the direction of the camera to &#39;direction&#39;. ">
<polygon fill="white" stroke="black" points="171,-147.5 171,-177.5 282,-177.5 282,-147.5 171,-147.5"/>
<text text-anchor="start" x="179" y="-165.5" font-family="Helvetica,sans-Serif" font-size="10.00">Ra::Engine::Camera</text>
<text text-anchor="middle" x="226.5" y="-154.5" font-family="Helvetica,sans-Serif" font-size="10.00">::setDirection</text>
</a>
</g>
</g>
<!-- Node1&#45;&gt;Node6 -->
<g id="edge5" class="edge"><title>Node1&#45;&gt;Node6</title>
<path fill="none" stroke="midnightblue" d="M135.082,-162.5C143.519,-162.5 152.144,-162.5 160.556,-162.5"/>
<polygon fill="midnightblue" stroke="midnightblue" points="160.682,-166 170.682,-162.5 160.682,-159 160.682,-166"/>
</g>
<!-- Node7 -->
<g id="node7" class="node"><title>Node7</title>
<g id="a_node7"><a xlink:href="classRa_1_1Engine_1_1Camera.html#a23be7aa714c0e9c2a9429dfc9ef2c53a" target="_top" xlink:title="Return the direction the camera is looking at. ">
<polygon fill="white" stroke="black" points="332,-185.5 332,-215.5 443,-215.5 443,-185.5 332,-185.5"/>
<text text-anchor="start" x="340" y="-203.5" font-family="Helvetica,sans-Serif" font-size="10.00">Ra::Engine::Camera</text>
<text text-anchor="middle" x="387.5" y="-192.5" font-family="Helvetica,sans-Serif" font-size="10.00">::getDirection</text>
</a>
</g>
</g>
<!-- Node1&#45;&gt;Node7 -->
<g id="edge14" class="edge"><title>Node1&#45;&gt;Node7</title>
<path fill="none" stroke="midnightblue" d="M125.106,-177.514C139.945,-180.965 155.995,-184.272 171,-186.5 221.298,-193.97 278.787,-197.454 321.731,-199.08"/>
<polygon fill="midnightblue" stroke="midnightblue" points="321.649,-202.579 331.767,-199.436 321.898,-195.583 321.649,-202.579"/>
</g>
<!-- Node8 -->
<g id="node8" class="node"><title>Node8</title>
<g id="a_node8"><a xlink:href="classRa_1_1Gui_1_1TrackballCamera.html#a1f4216d79cee852ec5653a1a11fe4155" target="_top" xlink:title="Update the polar coordinates of the Camera w.r.t. the trackball center. ">
<polygon fill="white" stroke="black" points="320,-273.5 320,-303.5 455,-303.5 455,-273.5 320,-273.5"/>
<text text-anchor="start" x="328" y="-291.5" font-family="Helvetica,sans-Serif" font-size="10.00">Ra::Gui::TrackballCamera</text>
<text text-anchor="middle" x="387.5" y="-280.5" font-family="Helvetica,sans-Serif" font-size="10.00">::updatePhiTheta</text>
</a>
</g>
</g>
<!-- Node1&#45;&gt;Node8 -->
<g id="edge8" class="edge"><title>Node1&#45;&gt;Node8</title>
<path fill="none" stroke="midnightblue" d="M79.7664,-177.859C96.8114,-199.811 131.397,-239.589 171,-258.5 214.076,-279.069 267.135,-286.641 309.826,-289.036"/>
<polygon fill="midnightblue" stroke="midnightblue" points="309.727,-292.535 319.883,-289.516 310.061,-285.543 309.727,-292.535"/>
</g>
<!-- Node9 -->
<g id="node9" class="node"><title>Node9</title>
<g id="a_node9"><a xlink:href="classRa_1_1Engine_1_1Light.html#a1bf2c510e62b2a99f0012a39ad218378" target="_top" xlink:title="Set the position of the light source. ">
<polygon fill="white" stroke="black" points="175.5,-49.5 175.5,-79.5 277.5,-79.5 277.5,-49.5 175.5,-49.5"/>
<text text-anchor="start" x="183.5" y="-67.5" font-family="Helvetica,sans-Serif" font-size="10.00">Ra::Engine::Light::</text>
<text text-anchor="middle" x="226.5" y="-56.5" font-family="Helvetica,sans-Serif" font-size="10.00">setPosition</text>
</a>
</g>
</g>
<!-- Node1&#45;&gt;Node9 -->
<g id="edge10" class="edge"><title>Node1&#45;&gt;Node9</title>
<path fill="none" stroke="midnightblue" d="M86.9619,-147.336C106.889,-131.417 139.955,-106.278 171,-88.5 173.651,-86.982 176.416,-85.4947 179.233,-84.0512"/>
<polygon fill="midnightblue" stroke="midnightblue" points="180.885,-87.1397 188.335,-79.6063 177.813,-80.8498 180.885,-87.1397"/>
</g>
<!-- Node11 -->
<g id="node11" class="node"><title>Node11</title>
<g id="a_node11"><a xlink:href="classRa_1_1Engine_1_1Light.html#a24e11b300dfe4e2a785d87b6de74b036" target="_top" xlink:title="set the direction of lighting ">
<polygon fill="white" stroke="black" points="175.5,-0.5 175.5,-30.5 277.5,-30.5 277.5,-0.5 175.5,-0.5"/>
<text text-anchor="start" x="183.5" y="-18.5" font-family="Helvetica,sans-Serif" font-size="10.00">Ra::Engine::Light::</text>
<text text-anchor="middle" x="226.5" y="-7.5" font-family="Helvetica,sans-Serif" font-size="10.00">setDirection</text>
</a>
</g>
</g>
<!-- Node1&#45;&gt;Node11 -->
<g id="edge13" class="edge"><title>Node1&#45;&gt;Node11</title>
<path fill="none" stroke="midnightblue" d="M77.7752,-147.325C93.9237,-121.987 129.476,-70.7685 171,-39.5 172.778,-38.1609 174.643,-36.8773 176.567,-35.6494"/>
<polygon fill="midnightblue" stroke="midnightblue" points="178.378,-38.6451 185.298,-30.622 174.885,-32.5789 178.378,-38.6451"/>
</g>
<!-- Node3 -->
<g id="node3" class="node"><title>Node3</title>
<g id="a_node3"><a xlink:href="classRa_1_1Engine_1_1Camera.html#a7a2c1c84e3063c6c3f09d490477abb0f" target="_top" xlink:title="Apply the local transformation &#39;T&#39; to the camera. ">
<polygon fill="white" stroke="black" points="332,-136.5 332,-166.5 443,-166.5 443,-136.5 332,-136.5"/>
<text text-anchor="start" x="340" y="-154.5" font-family="Helvetica,sans-Serif" font-size="10.00">Ra::Engine::Camera</text>
<text text-anchor="middle" x="387.5" y="-143.5" font-family="Helvetica,sans-Serif" font-size="10.00">::applyTransform</text>
</a>
</g>
</g>
<!-- Node2&#45;&gt;Node3 -->
<g id="edge2" class="edge"><title>Node2&#45;&gt;Node3</title>
<path fill="none" stroke="midnightblue" d="M282.219,-126.577C295.032,-129.64 308.8,-132.93 321.996,-136.084"/>
<polygon fill="midnightblue" stroke="midnightblue" points="321.41,-139.542 331.95,-138.463 323.037,-132.734 321.41,-139.542"/>
</g>
<!-- Node3&#45;&gt;Node4 -->
<g id="edge3" class="edge"><title>Node3&#45;&gt;Node4</title>
<path fill="none" stroke="midnightblue" d="M436.307,-166.51C443.366,-169.224 450.459,-172.239 457,-175.5 484.227,-189.074 512.83,-208.604 533.05,-223.423"/>
<polygon fill="midnightblue" stroke="midnightblue" points="531.059,-226.304 541.174,-229.455 535.232,-220.684 531.059,-226.304"/>
</g>
<!-- Node5 -->
<g id="node5" class="node"><title>Node5</title>
<g id="a_node5"><a xlink:href="classRa_1_1Engine_1_1RenderObject.html#a2d6a1bc2b7646fe0912035a2ece24864" target="_top" xlink:title="Ra::Engine::RenderObject\l::setLocalTransform">
<polygon fill="white" stroke="black" points="493,-136.5 493,-166.5 630,-166.5 630,-136.5 493,-136.5"/>
<text text-anchor="start" x="501" y="-154.5" font-family="Helvetica,sans-Serif" font-size="10.00">Ra::Engine::RenderObject</text>
<text text-anchor="middle" x="561.5" y="-143.5" font-family="Helvetica,sans-Serif" font-size="10.00">::setLocalTransform</text>
</a>
</g>
</g>
<!-- Node3&#45;&gt;Node5 -->
<g id="edge4" class="edge"><title>Node3&#45;&gt;Node5</title>
<path fill="none" stroke="midnightblue" d="M443.395,-151.5C455.93,-151.5 469.484,-151.5 482.772,-151.5"/>
<polygon fill="midnightblue" stroke="midnightblue" points="482.861,-155 492.86,-151.5 482.86,-148 482.861,-155"/>
</g>
<!-- Node6&#45;&gt;Node3 -->
<g id="edge7" class="edge"><title>Node6&#45;&gt;Node3</title>
<path fill="none" stroke="midnightblue" d="M282.219,-158.714C294.907,-157.837 308.53,-156.894 321.607,-155.989"/>
<polygon fill="midnightblue" stroke="midnightblue" points="322.215,-159.456 331.95,-155.274 321.732,-152.473 322.215,-159.456"/>
</g>
<!-- Node6&#45;&gt;Node7 -->
<g id="edge6" class="edge"><title>Node6&#45;&gt;Node7</title>
<path fill="none" stroke="midnightblue" d="M282.219,-175.577C295.032,-178.64 308.8,-181.93 321.996,-185.084"/>
<polygon fill="midnightblue" stroke="midnightblue" points="321.41,-188.542 331.95,-187.463 323.037,-181.734 321.41,-188.542"/>
</g>
<!-- Node8&#45;&gt;Node4 -->
<g id="edge9" class="edge"><title>Node8&#45;&gt;Node4</title>
<path fill="none" stroke="midnightblue" d="M447.212,-273.481C462.927,-269.461 479.999,-265.093 496.008,-260.998"/>
<polygon fill="midnightblue" stroke="midnightblue" points="496.996,-264.358 505.817,-258.489 495.261,-257.576 496.996,-264.358"/>
</g>
<!-- Node10 -->
<g id="node10" class="node"><title>Node10</title>
<g id="a_node10"><a xlink:href="classRa_1_1Core_1_1Utils_1_1ColorBase.html#a467dad42627c64495356c4fd21b3ac81" target="_top" xlink:title="Ra::Core::Utils::ColorBase\l\&lt; Scalar \&gt;::White">
<polygon fill="white" stroke="black" points="318,-49.5 318,-79.5 457,-79.5 457,-49.5 318,-49.5"/>
<text text-anchor="start" x="326" y="-67.5" font-family="Helvetica,sans-Serif" font-size="10.00">Ra::Core::Utils::ColorBase</text>
<text text-anchor="middle" x="387.5" y="-56.5" font-family="Helvetica,sans-Serif" font-size="10.00">&lt; Scalar &gt;::White</text>
</a>
</g>
</g>
<!-- Node9&#45;&gt;Node10 -->
<g id="edge11" class="edge"><title>Node9&#45;&gt;Node10</title>
<path fill="none" stroke="midnightblue" d="M277.809,-64.5C287.362,-64.5 297.568,-64.5 307.757,-64.5"/>
<polygon fill="midnightblue" stroke="midnightblue" points="307.916,-68.0001 317.916,-64.5 307.916,-61.0001 307.916,-68.0001"/>
</g>
</g>
</svg>
