<?xml version="1.0" encoding="UTF-8" standalone="no"?>
<!DOCTYPE svg PUBLIC "-//W3C//DTD SVG 1.1//EN"
 "http://www.w3.org/Graphics/SVG/1.1/DTD/svg11.dtd">
<!-- Generated by graphviz version 2.38.0 (20140413.2041)
 -->
<!-- Title: Ra::Gui::GizmoManager Pages: 1 -->
<svg width="236pt" height="369pt"
 viewBox="0.00 0.00 236.00 369.00" xmlns="http://www.w3.org/2000/svg" xmlns:xlink="http://www.w3.org/1999/xlink">
<g id="graph0" class="graph" transform="scale(1 1) rotate(0) translate(4 365)">
<title>Ra::Gui::GizmoManager</title>
<polygon fill="white" stroke="none" points="-4,4 -4,-365 232,-365 232,4 -4,4"/>
<!-- Node1 -->
<g id="node1" class="node"><title>Node1</title>
<polygon fill="#bfbfbf" stroke="black" points="7,-0.5 7,-178.5 170,-178.5 170,-0.5 7,-0.5"/>
<text text-anchor="middle" x="88.5" y="-166.5" font-family="Helvetica,sans-Serif" font-size="10.00">Ra::Gui::GizmoManager</text>
<polyline fill="none" stroke="black" points="7,-159.5 170,-159.5 "/>
<text text-anchor="start" x="15" y="-147.5" font-family="Helvetica,sans-Serif" font-size="10.00">+ EIGEN_MAKE_ALIGNED</text>
<text text-anchor="start" x="15" y="-136.5" font-family="Helvetica,sans-Serif" font-size="10.00">_OPERATOR_NEW</text>
<polyline fill="none" stroke="black" points="7,-129.5 170,-129.5 "/>
<text text-anchor="start" x="15" y="-117.5" font-family="Helvetica,sans-Serif" font-size="10.00">+ GizmoManager()</text>
<text text-anchor="start" x="15" y="-106.5" font-family="Helvetica,sans-Serif" font-size="10.00">+ ~GizmoManager()</text>
<text text-anchor="start" x="15" y="-95.5" font-family="Helvetica,sans-Serif" font-size="10.00">+ handleMousePressEvent()</text>
<text text-anchor="start" x="15" y="-84.5" font-family="Helvetica,sans-Serif" font-size="10.00">+ handleMouseReleaseEvent()</text>
<text text-anchor="start" x="15" y="-73.5" font-family="Helvetica,sans-Serif" font-size="10.00">+ handleMouseMoveEvent()</text>
<text text-anchor="start" x="15" y="-62.5" font-family="Helvetica,sans-Serif" font-size="10.00">+ setEditable()</text>
<text text-anchor="start" x="15" y="-51.5" font-family="Helvetica,sans-Serif" font-size="10.00">+ cleanup()</text>
<text text-anchor="start" x="15" y="-40.5" font-family="Helvetica,sans-Serif" font-size="10.00">+ handlePickingResult()</text>
<text text-anchor="start" x="15" y="-29.5" font-family="Helvetica,sans-Serif" font-size="10.00">+ setLocal()</text>
<text text-anchor="start" x="15" y="-18.5" font-family="Helvetica,sans-Serif" font-size="10.00">+ changeGizmoType()</text>
<text text-anchor="start" x="15" y="-7.5" font-family="Helvetica,sans-Serif" font-size="10.00">+ updateValues()</text>
</g>
<!-- Node2 -->
<g id="node2" class="node"><title>Node2</title>
<g id="a_node2"><a xlink:href="classQObject.html" target="_top" xlink:title="{QObject\n||}">
<polygon fill="white" stroke="black" points="0,-259.5 0,-316.5 55,-316.5 55,-259.5 0,-259.5"/>
<text text-anchor="middle" x="27.5" y="-304.5" font-family="Helvetica,sans-Serif" font-size="10.00">QObject</text>
<polyline fill="none" stroke="black" points="0,-297.5 55,-297.5 "/>
<text text-anchor="middle" x="27.5" y="-285.5" font-family="Helvetica,sans-Serif" font-size="10.00"> </text>
<polyline fill="none" stroke="black" points="0,-278.5 55,-278.5 "/>
<text text-anchor="middle" x="27.5" y="-266.5" font-family="Helvetica,sans-Serif" font-size="10.00"> </text>
</a>
</g>
</g>
<!-- Node2&#45;&gt;Node1 -->
<g id="edge1" class="edge"><title>Node2&#45;&gt;Node1</title>
<path fill="none" stroke="midnightblue" d="M39.128,-249.543C45.3969,-229.348 53.4182,-203.509 61.1643,-178.557"/>
<polygon fill="none" stroke="midnightblue" points="35.7326,-248.675 36.1104,-259.263 42.4179,-250.75 35.7326,-248.675"/>
</g>
<!-- Node3 -->
<g id="node3" class="node"><title>Node3</title>
<g id="a_node3"><a xlink:href="classRa_1_1GuiBase_1_1TransformEditor.html" target="_top" xlink:title="{Ra::GuiBase::TransformEditor\n|# m_transform\l# m_currentEdit\l|+ TransformEditor()\l+ ~TransformEditor()\l+ setEditable()\l+ updateValues()\l# getTransform()\l# setTransform()\l# canEdit()\l# getWorldTransform()\l}">
<polygon fill="white" stroke="black" points="73,-215.5 73,-360.5 228,-360.5 228,-215.5 73,-215.5"/>
<text text-anchor="middle" x="150.5" y="-348.5" font-family="Helvetica,sans-Serif" font-size="10.00">Ra::GuiBase::TransformEditor</text>
<polyline fill="none" stroke="black" points="73,-341.5 228,-341.5 "/>
<text text-anchor="start" x="81" y="-329.5" font-family="Helvetica,sans-Serif" font-size="10.00"># m_transform</text>
<text text-anchor="start" x="81" y="-318.5" font-family="Helvetica,sans-Serif" font-size="10.00"># m_currentEdit</text>
<polyline fill="none" stroke="black" points="73,-311.5 228,-311.5 "/>
<text text-anchor="start" x="81" y="-299.5" font-family="Helvetica,sans-Serif" font-size="10.00">+ TransformEditor()</text>
<text text-anchor="start" x="81" y="-288.5" font-family="Helvetica,sans-Serif" font-size="10.00">+ ~TransformEditor()</text>
<text text-anchor="start" x="81" y="-277.5" font-family="Helvetica,sans-Serif" font-size="10.00">+ setEditable()</text>
<text text-anchor="start" x="81" y="-266.5" font-family="Helvetica,sans-Serif" font-size="10.00">+ updateValues()</text>
<text text-anchor="start" x="81" y="-255.5" font-family="Helvetica,sans-Serif" font-size="10.00"># getTransform()</text>
<text text-anchor="start" x="81" y="-244.5" font-family="Helvetica,sans-Serif" font-size="10.00"># setTransform()</text>
<text text-anchor="start" x="81" y="-233.5" font-family="Helvetica,sans-Serif" font-size="10.00"># canEdit()</text>
<text text-anchor="start" x="81" y="-222.5" font-family="Helvetica,sans-Serif" font-size="10.00"># getWorldTransform()</text>
</a>
</g>
</g>
<!-- Node3&#45;&gt;Node1 -->
<g id="edge2" class="edge"><title>Node3&#45;&gt;Node1</title>
<path fill="none" stroke="midnightblue" d="M124.844,-205.686C122.044,-196.814 119.185,-187.752 116.361,-178.801"/>
<polygon fill="none" stroke="midnightblue" points="121.507,-206.741 127.853,-215.225 128.182,-204.635 121.507,-206.741"/>
</g>
</g>
</svg>
