<?xml version="1.0" encoding="UTF-8" standalone="no"?>
<!DOCTYPE svg PUBLIC "-//W3C//DTD SVG 1.1//EN"
 "http://www.w3.org/Graphics/SVG/1.1/DTD/svg11.dtd">
<!-- Generated by graphviz version 2.38.0 (20140413.2041)
 -->
<!-- Title: Ra::Core::Geometry::TopologicalMesh::interpolateAllPropsOnFaces Pages: 1 -->
<svg width="543pt" height="350pt"
 viewBox="0.00 0.00 543.00 350.00" xmlns="http://www.w3.org/2000/svg" xmlns:xlink="http://www.w3.org/1999/xlink">
<g id="graph0" class="graph" transform="scale(1 1) rotate(0) translate(4 346)">
<title>Ra::Core::Geometry::TopologicalMesh::interpolateAllPropsOnFaces</title>
<polygon fill="white" stroke="none" points="-4,4 -4,-346 539,-346 539,4 -4,4"/>
<!-- Node1 -->
<g id="node1" class="node"><title>Node1</title>
<polygon fill="#bfbfbf" stroke="black" points="0,-150.5 0,-191.5 158,-191.5 158,-150.5 0,-150.5"/>
<text text-anchor="start" x="8" y="-179.5" font-family="Helvetica,sans-Serif" font-size="10.00">Ra::Core::Geometry</text>
<text text-anchor="start" x="8" y="-168.5" font-family="Helvetica,sans-Serif" font-size="10.00">::TopologicalMesh::interpolate</text>
<text text-anchor="middle" x="79" y="-157.5" font-family="Helvetica,sans-Serif" font-size="10.00">AllPropsOnFaces</text>
</g>
<!-- Node2 -->
<g id="node2" class="node"><title>Node2</title>
<g id="a_node2"><a xlink:href="classRa_1_1Core_1_1Geometry_1_1TopologicalMesh.html#a188cdce2eb15cd9fc3dbdca27df9a1b9" target="_top" xlink:title="Interpolate normal property on face center. ">
<polygon fill="white" stroke="black" points="194,-300.5 194,-341.5 352,-341.5 352,-300.5 194,-300.5"/>
<text text-anchor="start" x="202" y="-329.5" font-family="Helvetica,sans-Serif" font-size="10.00">Ra::Core::Geometry</text>
<text text-anchor="start" x="202" y="-318.5" font-family="Helvetica,sans-Serif" font-size="10.00">::TopologicalMesh::interpolate</text>
<text text-anchor="middle" x="273" y="-307.5" font-family="Helvetica,sans-Serif" font-size="10.00">NormalOnFaces</text>
</a>
</g>
</g>
<!-- Node1&#45;&gt;Node2 -->
<g id="edge1" class="edge"><title>Node1&#45;&gt;Node2</title>
<path fill="none" stroke="midnightblue" d="M95.1453,-191.953C115.137,-218.288 152.667,-263.379 194,-291 196.431,-292.625 198.964,-294.18 201.565,-295.666"/>
<polygon fill="midnightblue" stroke="midnightblue" points="200.158,-298.881 210.635,-300.454 203.426,-292.69 200.158,-298.881"/>
</g>
<!-- Node4 -->
<g id="node4" class="node"><title>Node4</title>
<g id="a_node4"><a xlink:href="classRa_1_1Core_1_1Geometry_1_1TopologicalMesh.html#a98391545fbf256845b44ae2d4b81ad44" target="_top" xlink:title="Interpolate hprops on face center. ">
<polygon fill="white" stroke="black" points="194,-240.5 194,-281.5 352,-281.5 352,-240.5 194,-240.5"/>
<text text-anchor="start" x="202" y="-269.5" font-family="Helvetica,sans-Serif" font-size="10.00">Ra::Core::Geometry</text>
<text text-anchor="start" x="202" y="-258.5" font-family="Helvetica,sans-Serif" font-size="10.00">::TopologicalMesh::interpolate</text>
<text text-anchor="middle" x="273" y="-247.5" font-family="Helvetica,sans-Serif" font-size="10.00">PropsOnFaces</text>
</a>
</g>
</g>
<!-- Node1&#45;&gt;Node4 -->
<g id="edge3" class="edge"><title>Node1&#45;&gt;Node4</title>
<path fill="none" stroke="midnightblue" d="M116.421,-191.569C138.537,-203.705 167.521,-218.99 194,-231 198.125,-232.871 202.404,-234.732 206.738,-236.557"/>
<polygon fill="midnightblue" stroke="midnightblue" points="205.696,-239.913 216.275,-240.486 208.362,-233.441 205.696,-239.913"/>
</g>
<!-- Node5 -->
<g id="node5" class="node"><title>Node5</title>
<g id="a_node5"><a xlink:href="classRa_1_1Core_1_1Geometry_1_1TopologicalMesh.html#a324e5fbc84f49bcf3c64488cfcf61c7a" target="_top" xlink:title="Ra::Core::Geometry\l::TopologicalMesh::getFloat\lPropsHandles">
<polygon fill="white" stroke="black" points="200.5,-180.5 200.5,-221.5 345.5,-221.5 345.5,-180.5 200.5,-180.5"/>
<text text-anchor="start" x="208.5" y="-209.5" font-family="Helvetica,sans-Serif" font-size="10.00">Ra::Core::Geometry</text>
<text text-anchor="start" x="208.5" y="-198.5" font-family="Helvetica,sans-Serif" font-size="10.00">::TopologicalMesh::getFloat</text>
<text text-anchor="middle" x="273" y="-187.5" font-family="Helvetica,sans-Serif" font-size="10.00">PropsHandles</text>
</a>
</g>
</g>
<!-- Node1&#45;&gt;Node5 -->
<g id="edge5" class="edge"><title>Node1&#45;&gt;Node5</title>
<path fill="none" stroke="midnightblue" d="M158.094,-183.202C168.715,-184.862 179.64,-186.569 190.322,-188.238"/>
<polygon fill="midnightblue" stroke="midnightblue" points="190.052,-191.738 200.472,-189.824 191.132,-184.822 190.052,-191.738"/>
</g>
<!-- Node6 -->
<g id="node6" class="node"><title>Node6</title>
<g id="a_node6"><a xlink:href="classRa_1_1Core_1_1Geometry_1_1TopologicalMesh.html#a4e39246a1bcd24efee58de472195b4d4" target="_top" xlink:title="Ra::Core::Geometry\l::TopologicalMesh::getVector2\lPropsHandles">
<polygon fill="white" stroke="black" points="194,-120.5 194,-161.5 352,-161.5 352,-120.5 194,-120.5"/>
<text text-anchor="start" x="202" y="-149.5" font-family="Helvetica,sans-Serif" font-size="10.00">Ra::Core::Geometry</text>
<text text-anchor="start" x="202" y="-138.5" font-family="Helvetica,sans-Serif" font-size="10.00">::TopologicalMesh::getVector2</text>
<text text-anchor="middle" x="273" y="-127.5" font-family="Helvetica,sans-Serif" font-size="10.00">PropsHandles</text>
</a>
</g>
</g>
<!-- Node1&#45;&gt;Node6 -->
<g id="edge6" class="edge"><title>Node1&#45;&gt;Node6</title>
<path fill="none" stroke="midnightblue" d="M158.094,-158.798C166.601,-157.469 175.302,-156.109 183.918,-154.763"/>
<polygon fill="midnightblue" stroke="midnightblue" points="184.636,-158.193 193.975,-153.191 183.555,-151.277 184.636,-158.193"/>
</g>
<!-- Node7 -->
<g id="node7" class="node"><title>Node7</title>
<g id="a_node7"><a xlink:href="classRa_1_1Core_1_1Geometry_1_1TopologicalMesh.html#aedacfa21cfb80c83200daf1998a410a8" target="_top" xlink:title="Ra::Core::Geometry\l::TopologicalMesh::getVector3\lPropsHandles">
<polygon fill="white" stroke="black" points="194,-60.5 194,-101.5 352,-101.5 352,-60.5 194,-60.5"/>
<text text-anchor="start" x="202" y="-89.5" font-family="Helvetica,sans-Serif" font-size="10.00">Ra::Core::Geometry</text>
<text text-anchor="start" x="202" y="-78.5" font-family="Helvetica,sans-Serif" font-size="10.00">::TopologicalMesh::getVector3</text>
<text text-anchor="middle" x="273" y="-67.5" font-family="Helvetica,sans-Serif" font-size="10.00">PropsHandles</text>
</a>
</g>
</g>
<!-- Node1&#45;&gt;Node7 -->
<g id="edge7" class="edge"><title>Node1&#45;&gt;Node7</title>
<path fill="none" stroke="midnightblue" d="M116.421,-150.431C138.537,-138.295 167.521,-123.01 194,-111 198.125,-109.129 202.404,-107.268 206.738,-105.443"/>
<polygon fill="midnightblue" stroke="midnightblue" points="208.362,-108.559 216.275,-101.514 205.696,-102.087 208.362,-108.559"/>
</g>
<!-- Node8 -->
<g id="node8" class="node"><title>Node8</title>
<g id="a_node8"><a xlink:href="classRa_1_1Core_1_1Geometry_1_1TopologicalMesh.html#a32fc981a9fe179cce958398a92a0ae9b" target="_top" xlink:title="Ra::Core::Geometry\l::TopologicalMesh::getVector4\lPropsHandles">
<polygon fill="white" stroke="black" points="194,-0.5 194,-41.5 352,-41.5 352,-0.5 194,-0.5"/>
<text text-anchor="start" x="202" y="-29.5" font-family="Helvetica,sans-Serif" font-size="10.00">Ra::Core::Geometry</text>
<text text-anchor="start" x="202" y="-18.5" font-family="Helvetica,sans-Serif" font-size="10.00">::TopologicalMesh::getVector4</text>
<text text-anchor="middle" x="273" y="-7.5" font-family="Helvetica,sans-Serif" font-size="10.00">PropsHandles</text>
</a>
</g>
</g>
<!-- Node1&#45;&gt;Node8 -->
<g id="edge8" class="edge"><title>Node1&#45;&gt;Node8</title>
<path fill="none" stroke="midnightblue" d="M95.1453,-150.047C115.137,-123.712 152.667,-78.6212 194,-51 196.431,-49.3751 198.964,-47.8202 201.565,-46.3342"/>
<polygon fill="midnightblue" stroke="midnightblue" points="203.426,-49.3098 210.635,-41.5461 200.158,-43.1194 203.426,-49.3098"/>
</g>
<!-- Node3 -->
<g id="node3" class="node"><title>Node3</title>
<g id="a_node3"><a xlink:href="classRa_1_1Core_1_1Geometry_1_1TopologicalMesh.html#a1c87413e2fca885e3317008c3b122847" target="_top" xlink:title="Return the half&#45;edge associated with a given vertex and face. ">
<polygon fill="white" stroke="black" points="388,-270.5 388,-311.5 535,-311.5 535,-270.5 388,-270.5"/>
<text text-anchor="start" x="396" y="-299.5" font-family="Helvetica,sans-Serif" font-size="10.00">Ra::Core::Geometry</text>
<text text-anchor="start" x="396" y="-288.5" font-family="Helvetica,sans-Serif" font-size="10.00">::TopologicalMesh::halfedge</text>
<text text-anchor="middle" x="461.5" y="-277.5" font-family="Helvetica,sans-Serif" font-size="10.00">_handle</text>
</a>
</g>
</g>
<!-- Node2&#45;&gt;Node3 -->
<g id="edge2" class="edge"><title>Node2&#45;&gt;Node3</title>
<path fill="none" stroke="midnightblue" d="M352.012,-308.451C360.55,-307.078 369.262,-305.676 377.853,-304.294"/>
<polygon fill="midnightblue" stroke="midnightblue" points="378.547,-307.728 387.864,-302.684 377.435,-300.817 378.547,-307.728"/>
</g>
<!-- Node4&#45;&gt;Node3 -->
<g id="edge4" class="edge"><title>Node4&#45;&gt;Node3</title>
<path fill="none" stroke="midnightblue" d="M352.012,-273.549C360.55,-274.922 369.262,-276.324 377.853,-277.706"/>
<polygon fill="midnightblue" stroke="midnightblue" points="377.435,-281.183 387.864,-279.316 378.547,-274.272 377.435,-281.183"/>
</g>
</g>
</svg>
