<?xml version="1.0" encoding="UTF-8" standalone="no"?>
<!DOCTYPE svg PUBLIC "-//W3C//DTD SVG 1.1//EN"
 "http://www.w3.org/Graphics/SVG/1.1/DTD/svg11.dtd">
<!-- Generated by graphviz version 2.38.0 (20140413.2041)
 -->
<!-- Title: Ra::Gui::TranslateGizmo::TranslateGizmo Pages: 1 -->
<svg width="915pt" height="566pt"
 viewBox="0.00 0.00 915.00 566.44" xmlns="http://www.w3.org/2000/svg" xmlns:xlink="http://www.w3.org/1999/xlink">
<g id="graph0" class="graph" transform="scale(1 1) rotate(0) translate(4 562.441)">
<title>Ra::Gui::TranslateGizmo::TranslateGizmo</title>
<polygon fill="white" stroke="none" points="-4,4 -4,-562.441 911,-562.441 911,4 -4,4"/>
<!-- Node1 -->
<g id="node1" class="node"><title>Node1</title>
<polygon fill="#bfbfbf" stroke="black" points="0,-231.941 0,-261.941 130,-261.941 130,-231.941 0,-231.941"/>
<text text-anchor="start" x="8" y="-249.941" font-family="Helvetica,sans-Serif" font-size="10.00">Ra::Gui::TranslateGizmo</text>
<text text-anchor="middle" x="65" y="-238.941" font-family="Helvetica,sans-Serif" font-size="10.00">::TranslateGizmo</text>
</g>
<!-- Node2 -->
<g id="node2" class="node"><title>Node2</title>
<g id="a_node2"><a xlink:href="namespaceRa_1_1Engine_1_1ShaderConfigurationFactory.html#a0bc60f21dbabd745961037f3d2f019c8" target="_top" xlink:title="Get a configuration from the factory. ">
<polygon fill="white" stroke="black" points="166,-527.941 166,-557.941 337,-557.941 337,-527.941 166,-527.941"/>
<text text-anchor="start" x="174" y="-545.941" font-family="Helvetica,sans-Serif" font-size="10.00">Ra::Engine::ShaderConfiguration</text>
<text text-anchor="middle" x="251.5" y="-534.941" font-family="Helvetica,sans-Serif" font-size="10.00">Factory::getConfiguration</text>
</a>
</g>
</g>
<!-- Node1&#45;&gt;Node2 -->
<g id="edge1" class="edge"><title>Node1&#45;&gt;Node2</title>
<path fill="none" stroke="midnightblue" d="M67.2974,-261.949C71.9505,-306.599 91.715,-440.014 166,-512.941 169.791,-516.663 174.073,-519.925 178.647,-522.785"/>
<polygon fill="midnightblue" stroke="midnightblue" points="177.305,-526.041 187.752,-527.802 180.683,-519.911 177.305,-526.041"/>
</g>
<!-- Node4 -->
<g id="node4" class="node"><title>Node4</title>
<g id="a_node4"><a xlink:href="namespaceRa_1_1Core_1_1Geometry.html#ac33f3611fc8b6657f818f3d49d23df13" target="_top" xlink:title="Create a cylinder approximation (n&#45;faced prism) with base faces centered on A and B with given radius...">
<polygon fill="white" stroke="black" points="196,-368.941 196,-398.941 307,-398.941 307,-368.941 196,-368.941"/>
<text text-anchor="start" x="204" y="-386.941" font-family="Helvetica,sans-Serif" font-size="10.00">Ra::Core::Geometry</text>
<text text-anchor="middle" x="251.5" y="-375.941" font-family="Helvetica,sans-Serif" font-size="10.00">::makeCylinder</text>
</a>
</g>
</g>
<!-- Node1&#45;&gt;Node4 -->
<g id="edge3" class="edge"><title>Node1&#45;&gt;Node4</title>
<path fill="none" stroke="midnightblue" d="M75.4093,-262.051C91.1817,-286.134 125.265,-333.129 166,-358.941 172.219,-362.882 179.086,-366.224 186.138,-369.055"/>
<polygon fill="midnightblue" stroke="midnightblue" points="185.231,-372.45 195.824,-372.604 187.639,-365.877 185.231,-372.45"/>
</g>
<!-- Node6 -->
<g id="node6" class="node"><title>Node6</title>
<g id="a_node6"><a xlink:href="classRa_1_1Core_1_1Geometry_1_1TriangleMesh.html#ad7d3f6272b902171740e50232ba56114" target="_top" xlink:title="Access the vertices normals. ">
<polygon fill="white" stroke="black" points="599.5,-289.941 599.5,-319.941 728.5,-319.941 728.5,-289.941 599.5,-289.941"/>
<text text-anchor="start" x="607.5" y="-307.941" font-family="Helvetica,sans-Serif" font-size="10.00">Ra::Core::Geometry</text>
<text text-anchor="middle" x="664" y="-296.941" font-family="Helvetica,sans-Serif" font-size="10.00">::TriangleMesh::normals</text>
</a>
</g>
</g>
<!-- Node1&#45;&gt;Node6 -->
<g id="edge36" class="edge"><title>Node1&#45;&gt;Node6</title>
<path fill="none" stroke="midnightblue" d="M71.4077,-262.218C83.413,-293.983 115.301,-367.551 166,-407.941 242.072,-468.545 277.063,-462.945 373,-478.941 450.157,-491.805 480.182,-516.126 549,-478.941 564.457,-470.589 622.285,-374.397 649.137,-328.731"/>
<polygon fill="midnightblue" stroke="midnightblue" points="652.184,-330.454 654.222,-320.057 646.145,-326.914 652.184,-330.454"/>
</g>
<!-- Node16 -->
<g id="node16" class="node"><title>Node16</title>
<g id="a_node16"><a xlink:href="namespaceRa_1_1Core_1_1Geometry.html#a651ced57069a74136b0ba2b5c52159e6" target="_top" xlink:title="Create a cone approximation (n&#45;faced pyramid) with base face centered on base, pointing towards tip w...">
<polygon fill="white" stroke="black" points="196,-319.941 196,-349.941 307,-349.941 307,-319.941 196,-319.941"/>
<text text-anchor="start" x="204" y="-337.941" font-family="Helvetica,sans-Serif" font-size="10.00">Ra::Core::Geometry</text>
<text text-anchor="middle" x="251.5" y="-326.941" font-family="Helvetica,sans-Serif" font-size="10.00">::makeCone</text>
</a>
</g>
</g>
<!-- Node1&#45;&gt;Node16 -->
<g id="edge17" class="edge"><title>Node1&#45;&gt;Node16</title>
<path fill="none" stroke="midnightblue" d="M89.1835,-262.036C109.042,-274.559 138.678,-292.299 166,-304.941 174.703,-308.968 184.111,-312.794 193.38,-316.283"/>
<polygon fill="midnightblue" stroke="midnightblue" points="192.36,-319.636 202.953,-319.79 194.768,-313.064 192.36,-319.636"/>
</g>
<!-- Node17 -->
<g id="node17" class="node"><title>Node17</title>
<g id="a_node17"><a xlink:href="classRa_1_1Core_1_1Geometry_1_1TriangleMesh.html#a13434325489bfb69f9fd972c0eee408e" target="_top" xlink:title="Appends another mesh to this one, but only if they have the same attributes. ">
<polygon fill="white" stroke="black" points="398,-51.9411 398,-81.9411 524,-81.9411 524,-51.9411 398,-51.9411"/>
<text text-anchor="start" x="406" y="-69.9411" font-family="Helvetica,sans-Serif" font-size="10.00">Ra::Core::Geometry</text>
<text text-anchor="middle" x="461" y="-58.9411" font-family="Helvetica,sans-Serif" font-size="10.00">::TriangleMesh::append</text>
</a>
</g>
</g>
<!-- Node1&#45;&gt;Node17 -->
<g id="edge23" class="edge"><title>Node1&#45;&gt;Node17</title>
<path fill="none" stroke="midnightblue" d="M69.5292,-231.704C78.5626,-196.629 106.149,-110.467 166,-74.9411 233.102,-35.1106 324.862,-39.9843 387.926,-50.3826"/>
<polygon fill="midnightblue" stroke="midnightblue" points="387.342,-53.8335 397.793,-52.0929 388.538,-46.9364 387.342,-53.8335"/>
</g>
<!-- Node19 -->
<g id="node19" class="node"><title>Node19</title>
<g id="a_node19"><a xlink:href="classRa_1_1Core_1_1Utils_1_1ColorBase.html#aaf67b196b10805750f12f3638ae81516" target="_top" xlink:title="Ra::Core::Utils::ColorBase\l\&lt; Scalar \&gt;::Black">
<polygon fill="white" stroke="black" points="182,-231.941 182,-261.941 321,-261.941 321,-231.941 182,-231.941"/>
<text text-anchor="start" x="190" y="-249.941" font-family="Helvetica,sans-Serif" font-size="10.00">Ra::Core::Utils::ColorBase</text>
<text text-anchor="middle" x="251.5" y="-238.941" font-family="Helvetica,sans-Serif" font-size="10.00">&lt; Scalar &gt;::Black</text>
</a>
</g>
</g>
<!-- Node1&#45;&gt;Node19 -->
<g id="edge27" class="edge"><title>Node1&#45;&gt;Node19</title>
<path fill="none" stroke="midnightblue" d="M130.011,-246.941C143.495,-246.941 157.87,-246.941 171.821,-246.941"/>
<polygon fill="midnightblue" stroke="midnightblue" points="171.886,-250.441 181.886,-246.941 171.886,-243.441 171.886,-250.441"/>
</g>
<!-- Node20 -->
<g id="node20" class="node"><title>Node20</title>
<g id="a_node20"><a xlink:href="classRa_1_1Engine_1_1RenderObject.html#ae1ea453e2b698cda9956586d11b9cfbd" target="_top" xlink:title="Ra::Engine::RenderObject\l::setRenderTechnique">
<polygon fill="white" stroke="black" points="183,-182.941 183,-212.941 320,-212.941 320,-182.941 183,-182.941"/>
<text text-anchor="start" x="191" y="-200.941" font-family="Helvetica,sans-Serif" font-size="10.00">Ra::Engine::RenderObject</text>
<text text-anchor="middle" x="251.5" y="-189.941" font-family="Helvetica,sans-Serif" font-size="10.00">::setRenderTechnique</text>
</a>
</g>
</g>
<!-- Node1&#45;&gt;Node20 -->
<g id="edge28" class="edge"><title>Node1&#45;&gt;Node20</title>
<path fill="none" stroke="midnightblue" d="M122.61,-231.906C142.091,-226.733 164.077,-220.894 184.255,-215.534"/>
<polygon fill="midnightblue" stroke="midnightblue" points="185.231,-218.897 193.997,-212.947 183.434,-212.131 185.231,-218.897"/>
</g>
<!-- Node21 -->
<g id="node21" class="node"><title>Node21</title>
<g id="a_node21"><a xlink:href="classRa_1_1Engine_1_1RenderObject.html#ae8e94954e783a2012fd774598af1eb52" target="_top" xlink:title="Ra::Engine::RenderObject\l::setMesh">
<polygon fill="white" stroke="black" points="183,-133.941 183,-163.941 320,-163.941 320,-133.941 183,-133.941"/>
<text text-anchor="start" x="191" y="-151.941" font-family="Helvetica,sans-Serif" font-size="10.00">Ra::Engine::RenderObject</text>
<text text-anchor="middle" x="251.5" y="-140.941" font-family="Helvetica,sans-Serif" font-size="10.00">::setMesh</text>
</a>
</g>
</g>
<!-- Node1&#45;&gt;Node21 -->
<g id="edge29" class="edge"><title>Node1&#45;&gt;Node21</title>
<path fill="none" stroke="midnightblue" d="M82.4586,-231.798C101.33,-215.177 133.825,-188.758 166,-172.941 169.956,-170.996 174.096,-169.185 178.328,-167.501"/>
<polygon fill="midnightblue" stroke="midnightblue" points="179.549,-170.781 187.704,-164.017 177.111,-164.219 179.549,-170.781"/>
</g>
<!-- Node22 -->
<g id="node22" class="node"><title>Node22</title>
<g id="a_node22"><a xlink:href="classRa_1_1Engine_1_1Component.html#aea20d8186eb969b255cd83218a809178" target="_top" xlink:title="Add a new render object to the component. This adds the RO to the manager for drawing. ">
<polygon fill="white" stroke="black" points="187,-84.9411 187,-114.941 316,-114.941 316,-84.9411 187,-84.9411"/>
<text text-anchor="start" x="195" y="-102.941" font-family="Helvetica,sans-Serif" font-size="10.00">Ra::Engine::Component</text>
<text text-anchor="middle" x="251.5" y="-91.9411" font-family="Helvetica,sans-Serif" font-size="10.00">::addRenderObject</text>
</a>
</g>
</g>
<!-- Node1&#45;&gt;Node22 -->
<g id="edge30" class="edge"><title>Node1&#45;&gt;Node22</title>
<path fill="none" stroke="midnightblue" d="M74.2727,-231.54C89.1148,-205.396 122.792,-152.402 166,-123.941 169.582,-121.582 173.397,-119.451 177.35,-117.527"/>
<polygon fill="midnightblue" stroke="midnightblue" points="179.021,-120.617 186.781,-113.404 176.217,-114.203 179.021,-120.617"/>
</g>
<!-- Node24 -->
<g id="node24" class="node"><title>Node24</title>
<g id="a_node24"><a xlink:href="namespaceRa_1_1Core_1_1Geometry.html#a406d3122ffb1118cbf53b1a19e54e31c" target="_top" xlink:title="Create a 2D grid mesh with given number of row and columns. ">
<polygon fill="white" stroke="black" points="405.5,-149.941 405.5,-179.941 516.5,-179.941 516.5,-149.941 405.5,-149.941"/>
<text text-anchor="start" x="413.5" y="-167.941" font-family="Helvetica,sans-Serif" font-size="10.00">Ra::Core::Geometry</text>
<text text-anchor="middle" x="461" y="-156.941" font-family="Helvetica,sans-Serif" font-size="10.00">::makePlaneGrid</text>
</a>
</g>
</g>
<!-- Node1&#45;&gt;Node24 -->
<g id="edge32" class="edge"><title>Node1&#45;&gt;Node24</title>
<path fill="none" stroke="midnightblue" d="M99.493,-262.059C153.931,-284.145 262.963,-317.794 337,-270.941 368.583,-250.954 345.155,-219.872 373,-194.941 379.659,-188.979 387.563,-184.19 395.849,-180.346"/>
<polygon fill="midnightblue" stroke="midnightblue" points="397.439,-183.475 405.321,-176.395 394.744,-177.014 397.439,-183.475"/>
</g>
<!-- Node26 -->
<g id="node26" class="node"><title>Node26</title>
<g id="a_node26"><a xlink:href="classRa_1_1Gui_1_1TranslateGizmo.html#a5a100607ad14934626008ba6222a4563" target="_top" xlink:title="Called every time the underlying transform may have changed. ">
<polygon fill="white" stroke="black" points="396,-2.94107 396,-32.9411 526,-32.9411 526,-2.94107 396,-2.94107"/>
<text text-anchor="start" x="404" y="-20.9411" font-family="Helvetica,sans-Serif" font-size="10.00">Ra::Gui::TranslateGizmo</text>
<text text-anchor="middle" x="461" y="-9.94107" font-family="Helvetica,sans-Serif" font-size="10.00">::updateTransform</text>
</a>
</g>
</g>
<!-- Node1&#45;&gt;Node26 -->
<g id="edge37" class="edge"><title>Node1&#45;&gt;Node26</title>
<path fill="none" stroke="midnightblue" d="M68.1291,-231.918C74.5871,-192.566 97.8729,-86.3225 166,-39.9411 230.358,3.87465 322.034,3.38808 385.842,-4.22252"/>
<polygon fill="midnightblue" stroke="midnightblue" points="385.472,-7.70362 395.835,-5.49945 386.359,-0.760074 385.472,-7.70362"/>
</g>
<!-- Node3 -->
<g id="node3" class="node"><title>Node3</title>
<g id="a_node3"><a xlink:href="classRa_1_1Engine_1_1ShaderConfiguration.html#a7e20a600c78e8627f0238b342f4b42f2" target="_top" xlink:title="Ra::Engine::ShaderConfiguration\l::getDefaultShaderConfig">
<polygon fill="white" stroke="black" points="375.5,-527.941 375.5,-557.941 546.5,-557.941 546.5,-527.941 375.5,-527.941"/>
<text text-anchor="start" x="383.5" y="-545.941" font-family="Helvetica,sans-Serif" font-size="10.00">Ra::Engine::ShaderConfiguration</text>
<text text-anchor="middle" x="461" y="-534.941" font-family="Helvetica,sans-Serif" font-size="10.00">::getDefaultShaderConfig</text>
</a>
</g>
</g>
<!-- Node2&#45;&gt;Node3 -->
<g id="edge2" class="edge"><title>Node2&#45;&gt;Node3</title>
<path fill="none" stroke="midnightblue" d="M337.197,-542.941C346.415,-542.941 355.84,-542.941 365.168,-542.941"/>
<polygon fill="midnightblue" stroke="midnightblue" points="365.237,-546.441 375.237,-542.941 365.237,-539.441 365.237,-546.441"/>
</g>
<!-- Node5 -->
<g id="node5" class="node"><title>Node5</title>
<g id="a_node5"><a xlink:href="classRa_1_1Core_1_1Geometry_1_1TriangleMesh.html#a6ef9dbd18c0501f2ffd1316be6be56ce" target="_top" xlink:title="Access the vertices positions. ">
<polygon fill="white" stroke="black" points="600,-191.941 600,-221.941 728,-221.941 728,-191.941 600,-191.941"/>
<text text-anchor="start" x="608" y="-209.941" font-family="Helvetica,sans-Serif" font-size="10.00">Ra::Core::Geometry</text>
<text text-anchor="middle" x="664" y="-198.941" font-family="Helvetica,sans-Serif" font-size="10.00">::TriangleMesh::vertices</text>
</a>
</g>
</g>
<!-- Node4&#45;&gt;Node5 -->
<g id="edge4" class="edge"><title>Node4&#45;&gt;Node5</title>
<path fill="none" stroke="midnightblue" d="M307.171,-385.465C382.617,-386.414 513.389,-383.54 549,-353.941 592.805,-317.532 545.001,-271.494 585,-230.941 586.872,-229.043 588.89,-227.295 591.022,-225.684"/>
<polygon fill="midnightblue" stroke="midnightblue" points="593.192,-228.452 599.748,-220.129 589.432,-222.547 593.192,-228.452"/>
</g>
<!-- Node4&#45;&gt;Node6 -->
<g id="edge5" class="edge"><title>Node4&#45;&gt;Node6</title>
<path fill="none" stroke="midnightblue" d="M307.063,-394.599C367.748,-404.165 467.911,-413.075 549,-386.941 585.373,-375.218 619.944,-347.108 641.283,-327.074"/>
<polygon fill="midnightblue" stroke="midnightblue" points="643.747,-329.56 648.524,-320.103 638.892,-324.517 643.747,-329.56"/>
</g>
<!-- Node7 -->
<g id="node7" class="node"><title>Node7</title>
<g id="a_node7"><a xlink:href="namespaceRa_1_1Core_1_1Vector.html#a0464b705193d326a5102691dd58d753d" target="_top" xlink:title="Get two vectors orthogonal to a given vector. ">
<polygon fill="white" stroke="black" points="376.5,-439.941 376.5,-469.941 545.5,-469.941 545.5,-439.941 376.5,-439.941"/>
<text text-anchor="start" x="384.5" y="-457.941" font-family="Helvetica,sans-Serif" font-size="10.00">Ra::Core::Vector::getOrthogonal</text>
<text text-anchor="middle" x="461" y="-446.941" font-family="Helvetica,sans-Serif" font-size="10.00">Vectors</text>
</a>
</g>
</g>
<!-- Node4&#45;&gt;Node7 -->
<g id="edge6" class="edge"><title>Node4&#45;&gt;Node7</title>
<path fill="none" stroke="midnightblue" d="M296.505,-398.998C328.555,-409.965 372.143,-424.879 406.254,-436.551"/>
<polygon fill="midnightblue" stroke="midnightblue" points="405.463,-439.98 416.058,-439.905 407.73,-433.357 405.463,-439.98"/>
</g>
<!-- Node10 -->
<g id="node10" class="node"><title>Node10</title>
<g id="a_node10"><a xlink:href="namespaceRa_1_1Core_1_1Vector.html#a42d87f3bd0658bac532d72f0ec528827" target="_top" xlink:title="Get the cosine of the angle between two vectors. ">
<polygon fill="white" stroke="black" points="403,-325.441 403,-344.441 519,-344.441 519,-325.441 403,-325.441"/>
<text text-anchor="middle" x="461" y="-332.441" font-family="Helvetica,sans-Serif" font-size="10.00">Ra::Core::Vector::cos</text>
</a>
</g>
</g>
<!-- Node4&#45;&gt;Node10 -->
<g id="edge9" class="edge"><title>Node4&#45;&gt;Node10</title>
<path fill="none" stroke="midnightblue" d="M307.018,-371.067C338.873,-363.545 378.788,-354.119 409.859,-346.782"/>
<polygon fill="midnightblue" stroke="midnightblue" points="410.687,-350.182 419.615,-344.478 409.078,-343.37 410.687,-350.182"/>
</g>
<!-- Node11 -->
<g id="node11" class="node"><title>Node11</title>
<g id="a_node11"><a xlink:href="classRa_1_1Core_1_1Geometry_1_1TriangleMesh.html#a0b294c697e094dcc62b3adb3c0ac16af" target="_top" xlink:title="Check that the mesh is well built, asserting when it is not. ">
<polygon fill="white" stroke="black" points="373,-237.941 373,-267.941 549,-267.941 549,-237.941 373,-237.941"/>
<text text-anchor="start" x="381" y="-255.941" font-family="Helvetica,sans-Serif" font-size="10.00">Ra::Core::Geometry</text>
<text text-anchor="middle" x="461" y="-244.941" font-family="Helvetica,sans-Serif" font-size="10.00">::TriangleMesh::checkConsistency</text>
</a>
</g>
</g>
<!-- Node4&#45;&gt;Node11 -->
<g id="edge10" class="edge"><title>Node4&#45;&gt;Node11</title>
<path fill="none" stroke="midnightblue" d="M307.322,-372.831C317.671,-369.348 328.046,-364.816 337,-358.941 357.839,-345.267 354.767,-332.935 373,-315.941 389.728,-300.349 410.392,-285.239 427.383,-273.727"/>
<polygon fill="midnightblue" stroke="midnightblue" points="429.516,-276.512 435.894,-268.052 425.632,-270.688 429.516,-276.512"/>
</g>
<!-- Node8 -->
<g id="node8" class="node"><title>Node8</title>
<g id="a_node8"><a xlink:href="namespaceRa_1_1Core_1_1Math.html#a90f0fe9079f5bb86c721ea4b61738470" target="_top" xlink:title="Returns the sign of any numeric type as { &#45;1, 0, 1}. ">
<polygon fill="white" stroke="black" points="607.5,-445.441 607.5,-464.441 720.5,-464.441 720.5,-445.441 607.5,-445.441"/>
<text text-anchor="middle" x="664" y="-452.441" font-family="Helvetica,sans-Serif" font-size="10.00">Ra::Core::Math::sign</text>
</a>
</g>
</g>
<!-- Node7&#45;&gt;Node8 -->
<g id="edge7" class="edge"><title>Node7&#45;&gt;Node8</title>
<path fill="none" stroke="midnightblue" d="M545.787,-454.941C563.003,-454.941 580.893,-454.941 597.358,-454.941"/>
<polygon fill="midnightblue" stroke="midnightblue" points="597.407,-458.441 607.407,-454.941 597.407,-451.441 597.407,-458.441"/>
</g>
<!-- Node9 -->
<g id="node9" class="node"><title>Node9</title>
<g id="a_node9"><a xlink:href="namespaceRa_1_1Core_1_1Math.html#ae4e681e0738fe7e5bfd028c6270b597a" target="_top" xlink:title="Ra::Core::Math::signum">
<polygon fill="white" stroke="black" points="779,-445.441 779,-464.441 907,-464.441 907,-445.441 779,-445.441"/>
<text text-anchor="middle" x="843" y="-452.441" font-family="Helvetica,sans-Serif" font-size="10.00">Ra::Core::Math::signum</text>
</a>
</g>
</g>
<!-- Node8&#45;&gt;Node9 -->
<g id="edge8" class="edge"><title>Node8&#45;&gt;Node9</title>
<path fill="none" stroke="midnightblue" d="M720.518,-454.941C735.738,-454.941 752.476,-454.941 768.533,-454.941"/>
<polygon fill="midnightblue" stroke="midnightblue" points="768.965,-458.441 778.965,-454.941 768.965,-451.441 768.965,-458.441"/>
</g>
<!-- Node11&#45;&gt;Node5 -->
<g id="edge11" class="edge"><title>Node11&#45;&gt;Node5</title>
<path fill="none" stroke="midnightblue" d="M527.815,-237.879C547.69,-233.33 569.628,-228.31 589.945,-223.66"/>
<polygon fill="midnightblue" stroke="midnightblue" points="590.806,-227.054 599.773,-221.411 589.244,-220.23 590.806,-227.054"/>
</g>
<!-- Node11&#45;&gt;Node6 -->
<g id="edge16" class="edge"><title>Node11&#45;&gt;Node6</title>
<path fill="none" stroke="midnightblue" d="M520.138,-267.982C543.575,-274.045 570.776,-281.082 595.114,-287.378"/>
<polygon fill="midnightblue" stroke="midnightblue" points="594.435,-290.818 604.993,-289.934 596.188,-284.041 594.435,-290.818"/>
</g>
<!-- Node12 -->
<g id="node12" class="node"><title>Node12</title>
<g id="a_node12"><a xlink:href="namespaceRa_1_1Core_1_1Geometry.html#aa04e6052d8911b1df1bd881474debb45" target="_top" xlink:title="Ra::Core::Geometry::t">
<polygon fill="white" stroke="black" points="604,-79.4411 604,-98.4411 724,-98.4411 724,-79.4411 604,-79.4411"/>
<text text-anchor="middle" x="664" y="-86.4411" font-family="Helvetica,sans-Serif" font-size="10.00">Ra::Core::Geometry::t</text>
</a>
</g>
</g>
<!-- Node11&#45;&gt;Node12 -->
<g id="edge12" class="edge"><title>Node11&#45;&gt;Node12</title>
<path fill="none" stroke="midnightblue" d="M485.824,-237.9C504.083,-225.804 529.389,-207.773 549,-188.941 567.474,-171.201 566.349,-161.495 585,-143.941 601.239,-128.657 621.962,-114.242 637.966,-104.007"/>
<polygon fill="midnightblue" stroke="midnightblue" points="640.158,-106.764 646.773,-98.4884 636.441,-100.832 640.158,-106.764"/>
</g>
<!-- Node13 -->
<g id="node13" class="node"><title>Node13</title>
<g id="a_node13"><a xlink:href="namespaceRa_1_1Core_1_1Geometry.html#a178f2b7309fe2ea5bc31a3abcb25368e" target="_top" xlink:title="Ra::Core::Geometry\l::triangleArea">
<polygon fill="white" stroke="black" points="608.5,-240.941 608.5,-270.941 719.5,-270.941 719.5,-240.941 608.5,-240.941"/>
<text text-anchor="start" x="616.5" y="-258.941" font-family="Helvetica,sans-Serif" font-size="10.00">Ra::Core::Geometry</text>
<text text-anchor="middle" x="664" y="-247.941" font-family="Helvetica,sans-Serif" font-size="10.00">::triangleArea</text>
</a>
</g>
</g>
<!-- Node11&#45;&gt;Node13 -->
<g id="edge13" class="edge"><title>Node11&#45;&gt;Node13</title>
<path fill="none" stroke="midnightblue" d="M549.285,-254.244C565.71,-254.489 582.615,-254.741 598.203,-254.974"/>
<polygon fill="midnightblue" stroke="midnightblue" points="598.187,-258.474 608.238,-255.124 598.292,-251.475 598.187,-258.474"/>
</g>
<!-- Node14 -->
<g id="node14" class="node"><title>Node14</title>
<g id="a_node14"><a xlink:href="namespaceOpenMesh.html#a71e7f1dd3eac016d2b8245ac408a291c" target="_top" xlink:title="OpenMesh::cross">
<polygon fill="white" stroke="black" points="793.5,-265.441 793.5,-284.441 892.5,-284.441 892.5,-265.441 793.5,-265.441"/>
<text text-anchor="middle" x="843" y="-272.441" font-family="Helvetica,sans-Serif" font-size="10.00">OpenMesh::cross</text>
</a>
</g>
</g>
<!-- Node13&#45;&gt;Node14 -->
<g id="edge14" class="edge"><title>Node13&#45;&gt;Node14</title>
<path fill="none" stroke="midnightblue" d="M719.55,-261.797C739.71,-263.961 762.64,-266.422 783.163,-268.625"/>
<polygon fill="midnightblue" stroke="midnightblue" points="783.017,-272.13 793.334,-269.717 783.765,-265.17 783.017,-272.13"/>
</g>
<!-- Node15 -->
<g id="node15" class="node"><title>Node15</title>
<g id="a_node15"><a xlink:href="namespaceOpenMesh.html#a8205f789ce08919bc11c58383574596c" target="_top" xlink:title="OpenMesh::norm">
<polygon fill="white" stroke="black" points="793.5,-227.441 793.5,-246.441 892.5,-246.441 892.5,-227.441 793.5,-227.441"/>
<text text-anchor="middle" x="843" y="-234.441" font-family="Helvetica,sans-Serif" font-size="10.00">OpenMesh::norm</text>
</a>
</g>
</g>
<!-- Node13&#45;&gt;Node15 -->
<g id="edge15" class="edge"><title>Node13&#45;&gt;Node15</title>
<path fill="none" stroke="midnightblue" d="M719.55,-250.085C739.71,-247.921 762.64,-245.46 783.163,-243.257"/>
<polygon fill="midnightblue" stroke="midnightblue" points="783.765,-246.713 793.334,-242.165 783.017,-239.752 783.765,-246.713"/>
</g>
<!-- Node16&#45;&gt;Node5 -->
<g id="edge18" class="edge"><title>Node16&#45;&gt;Node5</title>
<path fill="none" stroke="midnightblue" d="M300.607,-319.874C313.501,-314.18 326.703,-306.654 337,-296.941 362.161,-273.205 344.088,-246.929 373,-227.941 436.949,-185.943 526.826,-186.313 589.515,-193.605"/>
<polygon fill="midnightblue" stroke="midnightblue" points="589.366,-197.114 599.723,-194.881 590.234,-190.168 589.366,-197.114"/>
</g>
<!-- Node16&#45;&gt;Node6 -->
<g id="edge19" class="edge"><title>Node16&#45;&gt;Node6</title>
<path fill="none" stroke="midnightblue" d="M307.212,-324.911C327.772,-321.512 351.394,-318.047 373,-315.941 446.324,-308.795 530.496,-306.224 589.203,-305.332"/>
<polygon fill="midnightblue" stroke="midnightblue" points="589.543,-308.828 599.494,-305.189 589.446,-301.829 589.543,-308.828"/>
</g>
<!-- Node16&#45;&gt;Node7 -->
<g id="edge20" class="edge"><title>Node16&#45;&gt;Node7</title>
<path fill="none" stroke="midnightblue" d="M307.32,-347.166C317.456,-350.353 327.753,-354.247 337,-358.941 375.628,-378.55 413.995,-411.123 437.352,-432.811"/>
<polygon fill="midnightblue" stroke="midnightblue" points="434.999,-435.402 444.677,-439.714 439.8,-430.308 434.999,-435.402"/>
</g>
<!-- Node16&#45;&gt;Node10 -->
<g id="edge21" class="edge"><title>Node16&#45;&gt;Node10</title>
<path fill="none" stroke="midnightblue" d="M307.018,-334.941C333.326,-334.941 365.132,-334.941 392.913,-334.941"/>
<polygon fill="midnightblue" stroke="midnightblue" points="392.948,-338.441 402.948,-334.941 392.948,-331.441 392.948,-338.441"/>
</g>
<!-- Node16&#45;&gt;Node11 -->
<g id="edge22" class="edge"><title>Node16&#45;&gt;Node11</title>
<path fill="none" stroke="midnightblue" d="M300.575,-319.816C312.666,-315.486 325.477,-310.434 337,-304.941 353.926,-296.872 356.037,-290.933 373,-282.941 381.689,-278.847 391.094,-275.022 400.401,-271.564"/>
<polygon fill="midnightblue" stroke="midnightblue" points="401.806,-274.779 410.03,-268.099 399.435,-268.192 401.806,-274.779"/>
</g>
<!-- Node17&#45;&gt;Node5 -->
<g id="edge25" class="edge"><title>Node17&#45;&gt;Node5</title>
<path fill="none" stroke="midnightblue" d="M524.156,-76.3879C533.226,-79.8508 541.888,-84.5558 549,-90.9411 581.364,-119.999 553.239,-152.226 585,-181.941 586.908,-183.726 588.944,-185.384 591.08,-186.923"/>
<polygon fill="midnightblue" stroke="midnightblue" points="589.408,-190.005 599.753,-192.293 593.093,-184.053 589.408,-190.005"/>
</g>
<!-- Node17&#45;&gt;Node12 -->
<g id="edge26" class="edge"><title>Node17&#45;&gt;Node12</title>
<path fill="none" stroke="midnightblue" d="M524.221,-73.7513C546.217,-76.1589 571.09,-78.8813 593.641,-81.3496"/>
<polygon fill="midnightblue" stroke="midnightblue" points="593.499,-84.8548 603.821,-82.4637 594.261,-77.8964 593.499,-84.8548"/>
</g>
<!-- Node18 -->
<g id="node18" class="node"><title>Node18</title>
<g id="a_node18"><a xlink:href="classRa_1_1Core_1_1Utils_1_1AttribManager.html#a191ecf090eaf0b6d52ed390938e1e0c5" target="_top" xlink:title="Return true if *this and other have the same attributes, same amount and same names. ">
<polygon fill="white" stroke="black" points="585,-29.9411 585,-59.9411 743,-59.9411 743,-29.9411 585,-29.9411"/>
<text text-anchor="start" x="593" y="-47.9411" font-family="Helvetica,sans-Serif" font-size="10.00">Ra::Core::Utils::AttribManager</text>
<text text-anchor="middle" x="664" y="-36.9411" font-family="Helvetica,sans-Serif" font-size="10.00">::hasSameAttribs</text>
</a>
</g>
</g>
<!-- Node17&#45;&gt;Node18 -->
<g id="edge24" class="edge"><title>Node17&#45;&gt;Node18</title>
<path fill="none" stroke="midnightblue" d="M524.221,-60.1308C540.22,-58.3796 557.741,-56.4619 574.784,-54.5966"/>
<polygon fill="midnightblue" stroke="midnightblue" points="575.188,-58.0734 584.747,-53.506 574.426,-51.1149 575.188,-58.0734"/>
</g>
<!-- Node23 -->
<g id="node23" class="node"><title>Node23</title>
<g id="a_node23"><a xlink:href="classRa_1_1Engine_1_1Component.html#a10b0bc182b76165744ebea603ae32dfe" target="_top" xlink:title="Shortcut to access the render object manager. ">
<polygon fill="white" stroke="black" points="396.5,-100.941 396.5,-130.941 525.5,-130.941 525.5,-100.941 396.5,-100.941"/>
<text text-anchor="start" x="404.5" y="-118.941" font-family="Helvetica,sans-Serif" font-size="10.00">Ra::Engine::Component</text>
<text text-anchor="middle" x="461" y="-107.941" font-family="Helvetica,sans-Serif" font-size="10.00">::getRoMgr</text>
</a>
</g>
</g>
<!-- Node22&#45;&gt;Node23 -->
<g id="edge31" class="edge"><title>Node22&#45;&gt;Node23</title>
<path fill="none" stroke="midnightblue" d="M316.167,-104.85C338.375,-106.563 363.478,-108.498 386.425,-110.268"/>
<polygon fill="midnightblue" stroke="midnightblue" points="386.214,-113.762 396.453,-111.041 386.752,-106.783 386.214,-113.762"/>
</g>
<!-- Node24&#45;&gt;Node5 -->
<g id="edge33" class="edge"><title>Node24&#45;&gt;Node5</title>
<path fill="none" stroke="midnightblue" d="M516.659,-176.362C539.239,-181.081 565.748,-186.62 589.956,-191.678"/>
<polygon fill="midnightblue" stroke="midnightblue" points="589.31,-195.119 599.814,-193.738 590.742,-188.267 589.31,-195.119"/>
</g>
<!-- Node24&#45;&gt;Node6 -->
<g id="edge34" class="edge"><title>Node24&#45;&gt;Node6</title>
<path fill="none" stroke="midnightblue" d="M487.371,-180.037C505.733,-191.705 530.475,-209.019 549,-227.941 568.664,-248.027 562.415,-263.206 585,-279.941 587.628,-281.888 590.413,-283.687 593.306,-285.349"/>
<polygon fill="midnightblue" stroke="midnightblue" points="591.764,-288.492 602.26,-289.934 594.955,-282.261 591.764,-288.492"/>
</g>
<!-- Node25 -->
<g id="node25" class="node"><title>Node25</title>
<g id="a_node25"><a xlink:href="classRa_1_1Core_1_1Grid.html#ae9c02e6ec89130899fd0645dbfa4ece7" target="_top" xlink:title="Access an element with a D&#45;dimensional index. ">
<polygon fill="white" stroke="black" points="615,-153.441 615,-172.441 713,-172.441 713,-153.441 615,-153.441"/>
<text text-anchor="middle" x="664" y="-160.441" font-family="Helvetica,sans-Serif" font-size="10.00">Ra::Core::Grid::at</text>
</a>
</g>
</g>
<!-- Node24&#45;&gt;Node25 -->
<g id="edge35" class="edge"><title>Node24&#45;&gt;Node25</title>
<path fill="none" stroke="midnightblue" d="M516.659,-164.397C543.872,-164.126 576.793,-163.799 604.513,-163.523"/>
<polygon fill="midnightblue" stroke="midnightblue" points="604.895,-167.019 614.859,-163.42 604.825,-160.02 604.895,-167.019"/>
</g>
<!-- Node26&#45;&gt;Node12 -->
<g id="edge38" class="edge"><title>Node26&#45;&gt;Node12</title>
<path fill="none" stroke="midnightblue" d="M526.218,-32.689C534.059,-35.349 541.827,-38.4198 549,-41.9411 566.953,-50.7543 566.967,-60.2913 585,-68.9411 591.013,-71.8252 597.493,-74.329 604.058,-76.494"/>
<polygon fill="midnightblue" stroke="midnightblue" points="603.106,-79.8627 613.692,-79.4283 605.146,-73.1664 603.106,-79.8627"/>
</g>
</g>
</svg>
