<?xml version="1.0" encoding="UTF-8" standalone="no"?>
<!DOCTYPE svg PUBLIC "-//W3C//DTD SVG 1.1//EN"
 "http://www.w3.org/Graphics/SVG/1.1/DTD/svg11.dtd">
<!-- Generated by graphviz version 2.38.0 (20140413.2041)
 -->
<!-- Title: MeshPaintPlugin::MeshPaintSystem::startPaintMesh Pages: 1 -->
<svg width="908pt" height="137pt"
 viewBox="0.00 0.00 908.00 137.00" xmlns="http://www.w3.org/2000/svg" xmlns:xlink="http://www.w3.org/1999/xlink">
<g id="graph0" class="graph" transform="scale(1 1) rotate(0) translate(4 133)">
<title>MeshPaintPlugin::MeshPaintSystem::startPaintMesh</title>
<polygon fill="white" stroke="none" points="-4,4 -4,-133 904,-133 904,4 -4,4"/>
<!-- Node1 -->
<g id="node1" class="node"><title>Node1</title>
<polygon fill="#bfbfbf" stroke="black" points="0,-49.5 0,-79.5 149,-79.5 149,-49.5 0,-49.5"/>
<text text-anchor="start" x="8" y="-67.5" font-family="Helvetica,sans-Serif" font-size="10.00">MeshPaintPlugin::MeshPaint</text>
<text text-anchor="middle" x="74.5" y="-56.5" font-family="Helvetica,sans-Serif" font-size="10.00">System::startPaintMesh</text>
</g>
<!-- Node2 -->
<g id="node2" class="node"><title>Node2</title>
<g id="a_node2"><a xlink:href="classMeshPaintPlugin_1_1MeshPaintComponent.html#a0c13da0e237aef580f67ad5b900d1036" target="_top" xlink:title="MeshPaintPlugin::MeshPaint\lComponent::startPaint">
<polygon fill="white" stroke="black" points="185,-49.5 185,-79.5 334,-79.5 334,-49.5 185,-49.5"/>
<text text-anchor="start" x="193" y="-67.5" font-family="Helvetica,sans-Serif" font-size="10.00">MeshPaintPlugin::MeshPaint</text>
<text text-anchor="middle" x="259.5" y="-56.5" font-family="Helvetica,sans-Serif" font-size="10.00">Component::startPaint</text>
</a>
</g>
</g>
<!-- Node1&#45;&gt;Node2 -->
<g id="edge1" class="edge"><title>Node1&#45;&gt;Node2</title>
<path fill="none" stroke="midnightblue" d="M149.142,-64.5C157.474,-64.5 166.011,-64.5 174.463,-64.5"/>
<polygon fill="midnightblue" stroke="midnightblue" points="174.711,-68.0001 184.711,-64.5 174.711,-61.0001 174.711,-68.0001"/>
</g>
<!-- Node3 -->
<g id="node3" class="node"><title>Node3</title>
<g id="a_node3"><a xlink:href="classRa_1_1Engine_1_1Component.html#a10b0bc182b76165744ebea603ae32dfe" target="_top" xlink:title="Shortcut to access the render object manager. ">
<polygon fill="white" stroke="black" points="391,-98.5 391,-128.5 520,-128.5 520,-98.5 391,-98.5"/>
<text text-anchor="start" x="399" y="-116.5" font-family="Helvetica,sans-Serif" font-size="10.00">Ra::Engine::Component</text>
<text text-anchor="middle" x="455.5" y="-105.5" font-family="Helvetica,sans-Serif" font-size="10.00">::getRoMgr</text>
</a>
</g>
</g>
<!-- Node2&#45;&gt;Node3 -->
<g id="edge2" class="edge"><title>Node2&#45;&gt;Node3</title>
<path fill="none" stroke="midnightblue" d="M320.025,-79.5346C340.602,-84.7318 363.837,-90.6006 385.134,-95.9796"/>
<polygon fill="midnightblue" stroke="midnightblue" points="384.535,-99.4383 395.088,-98.4938 386.249,-92.6514 384.535,-99.4383"/>
</g>
<!-- Node4 -->
<g id="node4" class="node"><title>Node4</title>
<g id="a_node4"><a xlink:href="classRa_1_1Engine_1_1RenderObjectManager.html#a13fc919e9fa01bfb36e67bc9011d325f" target="_top" xlink:title="Returns the render object corresponding to the given index. ">
<polygon fill="white" stroke="black" points="383.5,-49.5 383.5,-79.5 527.5,-79.5 527.5,-49.5 383.5,-49.5"/>
<text text-anchor="start" x="391.5" y="-67.5" font-family="Helvetica,sans-Serif" font-size="10.00">Ra::Engine::RenderObject</text>
<text text-anchor="middle" x="455.5" y="-56.5" font-family="Helvetica,sans-Serif" font-size="10.00">Manager::getRenderObject</text>
</a>
</g>
</g>
<!-- Node2&#45;&gt;Node4 -->
<g id="edge3" class="edge"><title>Node2&#45;&gt;Node4</title>
<path fill="none" stroke="midnightblue" d="M334.12,-64.5C346.891,-64.5 360.238,-64.5 373.2,-64.5"/>
<polygon fill="midnightblue" stroke="midnightblue" points="373.495,-68.0001 383.495,-64.5 373.495,-61.0001 373.495,-68.0001"/>
</g>
<!-- Node7 -->
<g id="node7" class="node"><title>Node7</title>
<g id="a_node7"><a xlink:href="namespaceRa_1_1Engine_1_1ShaderConfigurationFactory.html#a0bc60f21dbabd745961037f3d2f019c8" target="_top" xlink:title="Get a configuration from the factory. ">
<polygon fill="white" stroke="black" points="370,-0.5 370,-30.5 541,-30.5 541,-0.5 370,-0.5"/>
<text text-anchor="start" x="378" y="-18.5" font-family="Helvetica,sans-Serif" font-size="10.00">Ra::Engine::ShaderConfiguration</text>
<text text-anchor="middle" x="455.5" y="-7.5" font-family="Helvetica,sans-Serif" font-size="10.00">Factory::getConfiguration</text>
</a>
</g>
</g>
<!-- Node2&#45;&gt;Node7 -->
<g id="edge6" class="edge"><title>Node2&#45;&gt;Node7</title>
<path fill="none" stroke="midnightblue" d="M320.025,-49.4654C340.602,-44.2682 363.837,-38.3994 385.134,-33.0204"/>
<polygon fill="midnightblue" stroke="midnightblue" points="386.249,-36.3486 395.088,-30.5062 384.535,-29.5617 386.249,-36.3486"/>
</g>
<!-- Node5 -->
<g id="node5" class="node"><title>Node5</title>
<g id="a_node5"><a xlink:href="classRa_1_1Engine_1_1RenderObjectManager.html#a088feae4339349a81b7b6635b38aead1" target="_top" xlink:title="Returns true if the index points to a valid render object. ">
<polygon fill="white" stroke="black" points="594,-49.5 594,-79.5 731,-79.5 731,-49.5 594,-49.5"/>
<text text-anchor="start" x="602" y="-67.5" font-family="Helvetica,sans-Serif" font-size="10.00">Ra::Engine::RenderObject</text>
<text text-anchor="middle" x="662.5" y="-56.5" font-family="Helvetica,sans-Serif" font-size="10.00">Manager::exists</text>
</a>
</g>
</g>
<!-- Node4&#45;&gt;Node5 -->
<g id="edge4" class="edge"><title>Node4&#45;&gt;Node5</title>
<path fill="none" stroke="midnightblue" d="M527.624,-64.5C545.772,-64.5 565.373,-64.5 583.831,-64.5"/>
<polygon fill="midnightblue" stroke="midnightblue" points="583.952,-68.0001 593.952,-64.5 583.952,-61.0001 583.952,-68.0001"/>
</g>
<!-- Node6 -->
<g id="node6" class="node"><title>Node6</title>
<g id="a_node6"><a xlink:href="classRa_1_1Core_1_1Utils_1_1Index.html#ac7a1b710e6b95834a562c27e2f6c0f4b" target="_top" xlink:title="DESTRUCTOR: Must not be defined, we need it trivial to be constexpr. ">
<polygon fill="white" stroke="black" points="784,-49.5 784,-79.5 900,-79.5 900,-49.5 784,-49.5"/>
<text text-anchor="start" x="792" y="-67.5" font-family="Helvetica,sans-Serif" font-size="10.00">Ra::Core::Utils::Index</text>
<text text-anchor="middle" x="842" y="-56.5" font-family="Helvetica,sans-Serif" font-size="10.00">::isValid</text>
</a>
</g>
</g>
<!-- Node5&#45;&gt;Node6 -->
<g id="edge5" class="edge"><title>Node5&#45;&gt;Node6</title>
<path fill="none" stroke="midnightblue" d="M731.111,-64.5C745.144,-64.5 759.926,-64.5 773.939,-64.5"/>
<polygon fill="midnightblue" stroke="midnightblue" points="773.985,-68.0001 783.985,-64.5 773.985,-61.0001 773.985,-68.0001"/>
</g>
<!-- Node8 -->
<g id="node8" class="node"><title>Node8</title>
<g id="a_node8"><a xlink:href="classRa_1_1Engine_1_1ShaderConfiguration.html#a7e20a600c78e8627f0238b342f4b42f2" target="_top" xlink:title="Ra::Engine::ShaderConfiguration\l::getDefaultShaderConfig">
<polygon fill="white" stroke="black" points="577,-0.5 577,-30.5 748,-30.5 748,-0.5 577,-0.5"/>
<text text-anchor="start" x="585" y="-18.5" font-family="Helvetica,sans-Serif" font-size="10.00">Ra::Engine::ShaderConfiguration</text>
<text text-anchor="middle" x="662.5" y="-7.5" font-family="Helvetica,sans-Serif" font-size="10.00">::getDefaultShaderConfig</text>
</a>
</g>
</g>
<!-- Node7&#45;&gt;Node8 -->
<g id="edge7" class="edge"><title>Node7&#45;&gt;Node8</title>
<path fill="none" stroke="midnightblue" d="M541.065,-15.5C549.547,-15.5 558.198,-15.5 566.777,-15.5"/>
<polygon fill="midnightblue" stroke="midnightblue" points="566.799,-19.0001 576.799,-15.5 566.799,-12.0001 566.799,-19.0001"/>
</g>
</g>
</svg>
