<?xml version="1.0" encoding="UTF-8" standalone="no"?>
<!DOCTYPE svg PUBLIC "-//W3C//DTD SVG 1.1//EN"
 "http://www.w3.org/Graphics/SVG/1.1/DTD/svg11.dtd">
<!-- Generated by graphviz version 2.38.0 (20140413.2041)
 -->
<!-- Title: Ra::Gui::Viewer::mouseMoveEvent Pages: 1 -->
<svg width="1417pt" height="485pt"
 viewBox="0.00 0.00 1417.00 485.00" xmlns="http://www.w3.org/2000/svg" xmlns:xlink="http://www.w3.org/1999/xlink">
<g id="graph0" class="graph" transform="scale(1 1) rotate(0) translate(4 481)">
<title>Ra::Gui::Viewer::mouseMoveEvent</title>
<polygon fill="white" stroke="none" points="-4,4 -4,-481 1413,-481 1413,4 -4,4"/>
<!-- Node1 -->
<g id="node1" class="node"><title>Node1</title>
<polygon fill="#bfbfbf" stroke="black" points="0,-66.5 0,-96.5 152,-96.5 152,-66.5 0,-66.5"/>
<text text-anchor="start" x="8" y="-84.5" font-family="Helvetica,sans-Serif" font-size="10.00">Ra::Gui::Viewer::mouseMove</text>
<text text-anchor="middle" x="76" y="-73.5" font-family="Helvetica,sans-Serif" font-size="10.00">Event</text>
</g>
<!-- Node2 -->
<g id="node2" class="node"><title>Node2</title>
<g id="a_node2"><a xlink:href="classRa_1_1Gui_1_1GizmoManager.html#a4b7b7f4bf7325c878e1924b7418cc7ad" target="_top" xlink:title="Ra::Gui::GizmoManager\l::handleMouseMoveEvent">
<polygon fill="white" stroke="black" points="203,-137.5 203,-167.5 342,-167.5 342,-137.5 203,-137.5"/>
<text text-anchor="start" x="211" y="-155.5" font-family="Helvetica,sans-Serif" font-size="10.00">Ra::Gui::GizmoManager</text>
<text text-anchor="middle" x="272.5" y="-144.5" font-family="Helvetica,sans-Serif" font-size="10.00">::handleMouseMoveEvent</text>
</a>
</g>
</g>
<!-- Node1&#45;&gt;Node2 -->
<g id="edge1" class="edge"><title>Node1&#45;&gt;Node2</title>
<path fill="none" stroke="midnightblue" d="M111.148,-96.7112C132.923,-106.146 161.862,-118.198 188,-127.5 194.513,-129.818 201.362,-132.105 208.217,-134.298"/>
<polygon fill="midnightblue" stroke="midnightblue" points="207.64,-137.785 218.229,-137.436 209.734,-131.105 207.64,-137.785"/>
</g>
<!-- Node24 -->
<g id="node24" class="node"><title>Node24</title>
<g id="a_node24"><a xlink:href="classRa_1_1Engine_1_1Renderer.html#acba3d1160a0d77f8aff98feade1efb7e" target="_top" xlink:title="Ra::Engine::Renderer\l::setMousePosition">
<polygon fill="white" stroke="black" points="214.5,-88.5 214.5,-118.5 330.5,-118.5 330.5,-88.5 214.5,-88.5"/>
<text text-anchor="start" x="222.5" y="-106.5" font-family="Helvetica,sans-Serif" font-size="10.00">Ra::Engine::Renderer</text>
<text text-anchor="middle" x="272.5" y="-95.5" font-family="Helvetica,sans-Serif" font-size="10.00">::setMousePosition</text>
</a>
</g>
</g>
<!-- Node1&#45;&gt;Node24 -->
<g id="edge30" class="edge"><title>Node1&#45;&gt;Node24</title>
<path fill="none" stroke="midnightblue" d="M152.199,-90.0058C169.284,-91.9383 187.328,-93.9793 204.067,-95.8727"/>
<polygon fill="midnightblue" stroke="midnightblue" points="203.971,-99.384 214.301,-97.0302 204.758,-92.4284 203.971,-99.384"/>
</g>
<!-- Node25 -->
<g id="node25" class="node"><title>Node25</title>
<g id="a_node25"><a xlink:href="classRa_1_1Gui_1_1Viewer.html#a2a0edd535318fbc1a69b9345029b71bb" target="_top" xlink:title="Ra::Gui::Viewer::getPickingMode">
<polygon fill="white" stroke="black" points="188,-50 188,-69 357,-69 357,-50 188,-50"/>
<text text-anchor="middle" x="272.5" y="-57" font-family="Helvetica,sans-Serif" font-size="10.00">Ra::Gui::Viewer::getPickingMode</text>
</a>
</g>
</g>
<!-- Node1&#45;&gt;Node25 -->
<g id="edge31" class="edge"><title>Node1&#45;&gt;Node25</title>
<path fill="none" stroke="midnightblue" d="M152.199,-72.9942C160.574,-72.0469 169.179,-71.0736 177.748,-70.1044"/>
<polygon fill="midnightblue" stroke="midnightblue" points="178.231,-73.5721 187.774,-68.9703 177.444,-66.6165 178.231,-73.5721"/>
</g>
<!-- Node27 -->
<g id="node27" class="node"><title>Node27</title>
<g id="a_node27"><a xlink:href="classRa_1_1Engine_1_1Renderer.html#a4c25a5364a90acf6e55b122770a654a2" target="_top" xlink:title="Add a new picking query for the next rendering. ">
<polygon fill="white" stroke="black" points="214.5,-0.5 214.5,-30.5 330.5,-30.5 330.5,-0.5 214.5,-0.5"/>
<text text-anchor="start" x="222.5" y="-18.5" font-family="Helvetica,sans-Serif" font-size="10.00">Ra::Engine::Renderer</text>
<text text-anchor="middle" x="272.5" y="-7.5" font-family="Helvetica,sans-Serif" font-size="10.00">::addPickingRequest</text>
</a>
</g>
</g>
<!-- Node1&#45;&gt;Node27 -->
<g id="edge33" class="edge"><title>Node1&#45;&gt;Node27</title>
<path fill="none" stroke="midnightblue" d="M115.829,-66.4764C137.041,-58.442 163.838,-48.5704 188,-40.5 194.907,-38.1928 202.168,-35.8696 209.406,-33.6179"/>
<polygon fill="midnightblue" stroke="midnightblue" points="210.696,-36.8833 219.226,-30.6 208.639,-30.1921 210.696,-36.8833"/>
</g>
<!-- Node3 -->
<g id="node3" class="node"><title>Node3</title>
<g id="a_node3"><a xlink:href="classRa_1_1Gui_1_1CameraInterface.html#ab0c85694c64d45f72de41ac62e1f4152" target="_top" xlink:title="Static method to get the Camera from the given viewer. ">
<polygon fill="white" stroke="black" points="402,-181.5 402,-211.5 539,-211.5 539,-181.5 402,-181.5"/>
<text text-anchor="start" x="410" y="-199.5" font-family="Helvetica,sans-Serif" font-size="10.00">Ra::Gui::CameraInterface</text>
<text text-anchor="middle" x="470.5" y="-188.5" font-family="Helvetica,sans-Serif" font-size="10.00">::getCameraFromViewer</text>
</a>
</g>
</g>
<!-- Node2&#45;&gt;Node3 -->
<g id="edge2" class="edge"><title>Node2&#45;&gt;Node3</title>
<path fill="none" stroke="midnightblue" d="M340.404,-167.519C357.183,-171.286 375.319,-175.357 392.545,-179.224"/>
<polygon fill="midnightblue" stroke="midnightblue" points="392.041,-182.698 402.565,-181.474 393.575,-175.868 392.041,-182.698"/>
</g>
<!-- Node4 -->
<g id="node4" class="node"><title>Node4</title>
<g id="a_node4"><a xlink:href="classRa_1_1Gui_1_1Gizmo.html#a3a32d16a592e31ca37149aeee2f1322d" target="_top" xlink:title="Called when the mose movement is recorder with the camera parameters and the current pixel coordinate...">
<polygon fill="white" stroke="black" points="394.5,-143 394.5,-162 546.5,-162 546.5,-143 394.5,-143"/>
<text text-anchor="middle" x="470.5" y="-150" font-family="Helvetica,sans-Serif" font-size="10.00">Ra::Gui::Gizmo::mouseMove</text>
</a>
</g>
</g>
<!-- Node2&#45;&gt;Node4 -->
<g id="edge3" class="edge"><title>Node2&#45;&gt;Node4</title>
<path fill="none" stroke="midnightblue" d="M342.051,-152.5C355.642,-152.5 370.067,-152.5 384.137,-152.5"/>
<polygon fill="midnightblue" stroke="midnightblue" points="384.304,-156 394.304,-152.5 384.304,-149 384.304,-156"/>
</g>
<!-- Node5 -->
<g id="node5" class="node"><title>Node5</title>
<g id="a_node5"><a xlink:href="classRa_1_1GuiBase_1_1TransformEditor.html#a28fe7af7f62396a35765ce909f76485b" target="_top" xlink:title="Helper to set the transform to the editable. ">
<polygon fill="white" stroke="black" points="393,-93.5 393,-123.5 548,-123.5 548,-93.5 393,-93.5"/>
<text text-anchor="start" x="401" y="-111.5" font-family="Helvetica,sans-Serif" font-size="10.00">Ra::GuiBase::TransformEditor</text>
<text text-anchor="middle" x="470.5" y="-100.5" font-family="Helvetica,sans-Serif" font-size="10.00">::setTransform</text>
</a>
</g>
</g>
<!-- Node2&#45;&gt;Node5 -->
<g id="edge4" class="edge"><title>Node2&#45;&gt;Node5</title>
<path fill="none" stroke="midnightblue" d="M340.404,-137.481C357.183,-133.714 375.319,-129.643 392.545,-125.776"/>
<polygon fill="midnightblue" stroke="midnightblue" points="393.575,-129.132 402.565,-123.526 392.041,-122.302 393.575,-129.132"/>
</g>
<!-- Node6 -->
<g id="node6" class="node"><title>Node6</title>
<g id="a_node6"><a xlink:href="classRa_1_1GuiBase_1_1TransformEditor.html#ad21b8c46ad2d5c62e309eb16b104ee2f" target="_top" xlink:title="Ra::GuiBase::TransformEditor\l::canEdit">
<polygon fill="white" stroke="black" points="584,-162.5 584,-192.5 739,-192.5 739,-162.5 584,-162.5"/>
<text text-anchor="start" x="592" y="-180.5" font-family="Helvetica,sans-Serif" font-size="10.00">Ra::GuiBase::TransformEditor</text>
<text text-anchor="middle" x="661.5" y="-169.5" font-family="Helvetica,sans-Serif" font-size="10.00">::canEdit</text>
</a>
</g>
</g>
<!-- Node5&#45;&gt;Node6 -->
<g id="edge5" class="edge"><title>Node5&#45;&gt;Node6</title>
<path fill="none" stroke="midnightblue" d="M518.981,-123.551C528.619,-126.737 538.662,-130.151 548,-133.5 569.899,-141.353 593.943,-150.663 614.162,-158.691"/>
<polygon fill="midnightblue" stroke="midnightblue" points="612.871,-161.945 623.457,-162.399 615.465,-155.443 612.871,-161.945"/>
</g>
<!-- Node20 -->
<g id="node20" class="node"><title>Node20</title>
<g id="a_node20"><a xlink:href="structRa_1_1Engine_1_1ItemEntry.html#a4823dfa3c113db71733979f1719f3b28" target="_top" xlink:title="Returns true if the item represents an entity. ">
<polygon fill="white" stroke="black" points="780,-113.5 780,-143.5 899,-143.5 899,-113.5 780,-113.5"/>
<text text-anchor="start" x="788" y="-131.5" font-family="Helvetica,sans-Serif" font-size="10.00">Ra::Engine::ItemEntry</text>
<text text-anchor="middle" x="839.5" y="-120.5" font-family="Helvetica,sans-Serif" font-size="10.00">::isEntityNode</text>
</a>
</g>
</g>
<!-- Node5&#45;&gt;Node20 -->
<g id="edge27" class="edge"><title>Node5&#45;&gt;Node20</title>
<path fill="none" stroke="midnightblue" d="M548.435,-112.693C613.741,-116.252 706.605,-121.312 769.53,-124.741"/>
<polygon fill="midnightblue" stroke="midnightblue" points="769.576,-128.249 779.751,-125.298 769.957,-121.259 769.576,-128.249"/>
</g>
<!-- Node22 -->
<g id="node22" class="node"><title>Node22</title>
<g id="a_node22"><a xlink:href="classRa_1_1Engine_1_1Entity.html#a0555082e814666f1ec051e65b727930d" target="_top" xlink:title="Ra::Engine::Entity\l::setTransform">
<polygon fill="white" stroke="black" points="611.5,-71.5 611.5,-101.5 711.5,-101.5 711.5,-71.5 611.5,-71.5"/>
<text text-anchor="start" x="619.5" y="-89.5" font-family="Helvetica,sans-Serif" font-size="10.00">Ra::Engine::Entity</text>
<text text-anchor="middle" x="661.5" y="-78.5" font-family="Helvetica,sans-Serif" font-size="10.00">::setTransform</text>
</a>
</g>
</g>
<!-- Node5&#45;&gt;Node22 -->
<g id="edge28" class="edge"><title>Node5&#45;&gt;Node22</title>
<path fill="none" stroke="midnightblue" d="M548.101,-99.5835C565.811,-97.522 584.392,-95.3591 601.231,-93.399"/>
<polygon fill="midnightblue" stroke="midnightblue" points="601.939,-96.8404 611.467,-92.2075 601.13,-89.8873 601.939,-96.8404"/>
</g>
<!-- Node23 -->
<g id="node23" class="node"><title>Node23</title>
<g id="a_node23"><a xlink:href="classRa_1_1Engine_1_1Component.html#a1073e2c8c9ca06b206376d63cb469f0b" target="_top" xlink:title="Set the new transform associated with the RO index key. ">
<polygon fill="white" stroke="black" points="597,-22.5 597,-52.5 726,-52.5 726,-22.5 597,-22.5"/>
<text text-anchor="start" x="605" y="-40.5" font-family="Helvetica,sans-Serif" font-size="10.00">Ra::Engine::Component</text>
<text text-anchor="middle" x="661.5" y="-29.5" font-family="Helvetica,sans-Serif" font-size="10.00">::setTransform</text>
</a>
</g>
</g>
<!-- Node5&#45;&gt;Node23 -->
<g id="edge29" class="edge"><title>Node5&#45;&gt;Node23</title>
<path fill="none" stroke="midnightblue" d="M511.413,-93.4345C523.257,-88.8062 536.212,-83.5879 548,-78.5 564.246,-71.4883 567.52,-67.9412 584,-61.5 589.024,-59.5365 594.279,-57.6175 599.582,-55.7746"/>
<polygon fill="midnightblue" stroke="midnightblue" points="600.783,-59.0633 609.136,-52.5462 598.542,-52.4316 600.783,-59.0633"/>
</g>
<!-- Node7 -->
<g id="node7" class="node"><title>Node7</title>
<g id="a_node7"><a xlink:href="structRa_1_1Engine_1_1ItemEntry.html#aceafc81a73631955b64999dd39a639da" target="_top" xlink:title="Returns true if the item represents any valid object. ">
<polygon fill="white" stroke="black" points="780,-211.5 780,-241.5 899,-241.5 899,-211.5 780,-211.5"/>
<text text-anchor="start" x="788" y="-229.5" font-family="Helvetica,sans-Serif" font-size="10.00">Ra::Engine::ItemEntry</text>
<text text-anchor="middle" x="839.5" y="-218.5" font-family="Helvetica,sans-Serif" font-size="10.00">::isValid</text>
</a>
</g>
</g>
<!-- Node6&#45;&gt;Node7 -->
<g id="edge6" class="edge"><title>Node6&#45;&gt;Node7</title>
<path fill="none" stroke="midnightblue" d="M716.742,-192.601C735.062,-197.702 755.683,-203.443 774.675,-208.73"/>
<polygon fill="midnightblue" stroke="midnightblue" points="773.865,-212.138 784.437,-211.448 775.742,-205.395 773.865,-212.138"/>
</g>
<!-- Node17 -->
<g id="node17" class="node"><title>Node17</title>
<g id="a_node17"><a xlink:href="structRa_1_1Engine_1_1ItemEntry.html#a09e294208d0896596a42a7a6c7e78f75" target="_top" xlink:title="Returns true if the item can be selected. ">
<polygon fill="white" stroke="black" points="780,-348.5 780,-378.5 899,-378.5 899,-348.5 780,-348.5"/>
<text text-anchor="start" x="788" y="-366.5" font-family="Helvetica,sans-Serif" font-size="10.00">Ra::Engine::ItemEntry</text>
<text text-anchor="middle" x="839.5" y="-355.5" font-family="Helvetica,sans-Serif" font-size="10.00">::isSelectable</text>
</a>
</g>
</g>
<!-- Node6&#45;&gt;Node17 -->
<g id="edge18" class="edge"><title>Node6&#45;&gt;Node17</title>
<path fill="none" stroke="midnightblue" d="M676.903,-192.721C707.791,-225.364 780.544,-302.251 816.955,-340.731"/>
<polygon fill="midnightblue" stroke="midnightblue" points="814.73,-343.471 824.145,-348.329 819.814,-338.66 814.73,-343.471"/>
</g>
<!-- Node6&#45;&gt;Node20 -->
<g id="edge24" class="edge"><title>Node6&#45;&gt;Node20</title>
<path fill="none" stroke="midnightblue" d="M716.742,-162.399C735.062,-157.298 755.683,-151.557 774.675,-146.27"/>
<polygon fill="midnightblue" stroke="midnightblue" points="775.742,-149.605 784.437,-143.552 773.865,-142.862 775.742,-149.605"/>
</g>
<!-- Node21 -->
<g id="node21" class="node"><title>Node21</title>
<g id="a_node21"><a xlink:href="classRa_1_1Engine_1_1Component.html#a2c33ddf042a2c56f81f39477d9b616d0" target="_top" xlink:title="Returns true if a transform can be edited with the render object index given as a key...">
<polygon fill="white" stroke="black" points="775,-162.5 775,-192.5 904,-192.5 904,-162.5 775,-162.5"/>
<text text-anchor="start" x="783" y="-180.5" font-family="Helvetica,sans-Serif" font-size="10.00">Ra::Engine::Component</text>
<text text-anchor="middle" x="839.5" y="-169.5" font-family="Helvetica,sans-Serif" font-size="10.00">::canEdit</text>
</a>
</g>
</g>
<!-- Node6&#45;&gt;Node21 -->
<g id="edge26" class="edge"><title>Node6&#45;&gt;Node21</title>
<path fill="none" stroke="midnightblue" d="M739.184,-177.5C747.68,-177.5 756.318,-177.5 764.776,-177.5"/>
<polygon fill="midnightblue" stroke="midnightblue" points="764.981,-181 774.981,-177.5 764.981,-174 764.981,-181"/>
</g>
<!-- Node8 -->
<g id="node8" class="node"><title>Node8</title>
<g id="a_node8"><a xlink:href="structRa_1_1Engine_1_1ItemEntry.html#a1fb9fdd74413a1fa5878f53c1cfcf8fd" target="_top" xlink:title="Debug checks. ">
<polygon fill="white" stroke="black" points="1129,-69.5 1129,-99.5 1248,-99.5 1248,-69.5 1129,-69.5"/>
<text text-anchor="start" x="1137" y="-87.5" font-family="Helvetica,sans-Serif" font-size="10.00">Ra::Engine::ItemEntry</text>
<text text-anchor="middle" x="1188.5" y="-76.5" font-family="Helvetica,sans-Serif" font-size="10.00">::checkConsistency</text>
</a>
</g>
</g>
<!-- Node7&#45;&gt;Node8 -->
<g id="edge7" class="edge"><title>Node7&#45;&gt;Node8</title>
<path fill="none" stroke="midnightblue" d="M891.209,-211.317C895.895,-208.558 900.274,-205.313 904,-201.5 936.431,-168.314 902.996,-131.496 940,-103.5 967.184,-82.934 1055.28,-80.53 1118.63,-81.6951"/>
<polygon fill="midnightblue" stroke="midnightblue" points="1118.89,-85.2015 1128.96,-81.9203 1119.04,-78.2031 1118.89,-85.2015"/>
</g>
<!-- Node10 -->
<g id="node10" class="node"><title>Node10</title>
<g id="a_node10"><a xlink:href="classRa_1_1Engine_1_1RadiumEngine.html#a79f6626ce468268791bc5bdfe17b5586" target="_top" xlink:title="Get the entity manager attached to the engine. ">
<polygon fill="white" stroke="black" points="941.5,-162.5 941.5,-192.5 1082.5,-192.5 1082.5,-162.5 941.5,-162.5"/>
<text text-anchor="start" x="949.5" y="-180.5" font-family="Helvetica,sans-Serif" font-size="10.00">Ra::Engine::RadiumEngine</text>
<text text-anchor="middle" x="1012" y="-169.5" font-family="Helvetica,sans-Serif" font-size="10.00">::getEntityManager</text>
</a>
</g>
</g>
<!-- Node7&#45;&gt;Node10 -->
<g id="edge9" class="edge"><title>Node7&#45;&gt;Node10</title>
<path fill="none" stroke="midnightblue" d="M893.047,-211.399C910.713,-206.321 930.587,-200.61 948.916,-195.342"/>
<polygon fill="midnightblue" stroke="midnightblue" points="949.982,-198.678 958.627,-192.552 948.049,-191.95 949.982,-198.678"/>
</g>
<!-- Node11 -->
<g id="node11" class="node"><title>Node11</title>
<g id="a_node11"><a xlink:href="classRa_1_1Engine_1_1EntityManager.html#a5115cccae6aaef614ad4bd08e64d8185" target="_top" xlink:title="Check wether an entity with a given name exists or not. ">
<polygon fill="white" stroke="black" points="941,-113.5 941,-143.5 1083,-143.5 1083,-113.5 941,-113.5"/>
<text text-anchor="start" x="949" y="-131.5" font-family="Helvetica,sans-Serif" font-size="10.00">Ra::Engine::EntityManager</text>
<text text-anchor="middle" x="1012" y="-120.5" font-family="Helvetica,sans-Serif" font-size="10.00">::entityExists</text>
</a>
</g>
</g>
<!-- Node7&#45;&gt;Node11 -->
<g id="edge10" class="edge"><title>Node7&#45;&gt;Node11</title>
<path fill="none" stroke="midnightblue" d="M887.576,-211.497C893.387,-208.647 899.024,-205.331 904,-201.5 925.413,-185.015 918.189,-168.455 940,-152.5 941.877,-151.127 943.838,-149.828 945.863,-148.601"/>
<polygon fill="midnightblue" stroke="midnightblue" points="947.917,-151.471 955.078,-143.663 944.61,-145.301 947.917,-151.471"/>
</g>
<!-- Node12 -->
<g id="node12" class="node"><title>Node12</title>
<g id="a_node12"><a xlink:href="classRa_1_1Engine_1_1Entity.html#aaf256bea44bbc5bff6aa504aca05ca35" target="_top" xlink:title="Ra::Engine::Entity\l::getName">
<polygon fill="white" stroke="black" points="962,-211.5 962,-241.5 1062,-241.5 1062,-211.5 962,-211.5"/>
<text text-anchor="start" x="970" y="-229.5" font-family="Helvetica,sans-Serif" font-size="10.00">Ra::Engine::Entity</text>
<text text-anchor="middle" x="1012" y="-218.5" font-family="Helvetica,sans-Serif" font-size="10.00">::getName</text>
</a>
</g>
</g>
<!-- Node7&#45;&gt;Node12 -->
<g id="edge11" class="edge"><title>Node7&#45;&gt;Node12</title>
<path fill="none" stroke="midnightblue" d="M899.176,-226.5C916.088,-226.5 934.55,-226.5 951.51,-226.5"/>
<polygon fill="midnightblue" stroke="midnightblue" points="951.849,-230 961.849,-226.5 951.849,-223 951.849,-230"/>
</g>
<!-- Node13 -->
<g id="node13" class="node"><title>Node13</title>
<g id="a_node13"><a xlink:href="structRa_1_1Engine_1_1ItemEntry.html#a898047549069e5b64d3a9a65c058af56" target="_top" xlink:title="Returns true if the item represents a render object. ">
<polygon fill="white" stroke="black" points="952.5,-260.5 952.5,-290.5 1071.5,-290.5 1071.5,-260.5 952.5,-260.5"/>
<text text-anchor="start" x="960.5" y="-278.5" font-family="Helvetica,sans-Serif" font-size="10.00">Ra::Engine::ItemEntry</text>
<text text-anchor="middle" x="1012" y="-267.5" font-family="Helvetica,sans-Serif" font-size="10.00">::isRoNode</text>
</a>
</g>
</g>
<!-- Node7&#45;&gt;Node13 -->
<g id="edge12" class="edge"><title>Node7&#45;&gt;Node13</title>
<path fill="none" stroke="midnightblue" d="M893.047,-241.601C910.713,-246.679 930.587,-252.39 948.916,-257.658"/>
<polygon fill="midnightblue" stroke="midnightblue" points="948.049,-261.05 958.627,-260.448 949.982,-254.322 948.049,-261.05"/>
</g>
<!-- Node15 -->
<g id="node15" class="node"><title>Node15</title>
<g id="a_node15"><a xlink:href="classRa_1_1Engine_1_1RadiumEngine.html#a58b27bc600ea769f68b0e2938abc7862" target="_top" xlink:title="Manager getters. ">
<polygon fill="white" stroke="black" points="940,-348.5 940,-378.5 1084,-378.5 1084,-348.5 940,-348.5"/>
<text text-anchor="start" x="948" y="-366.5" font-family="Helvetica,sans-Serif" font-size="10.00">Ra::Engine::RadiumEngine</text>
<text text-anchor="middle" x="1012" y="-355.5" font-family="Helvetica,sans-Serif" font-size="10.00">::getRenderObjectManager</text>
</a>
</g>
</g>
<!-- Node7&#45;&gt;Node15 -->
<g id="edge15" class="edge"><title>Node7&#45;&gt;Node15</title>
<path fill="none" stroke="midnightblue" d="M851.154,-241.516C867.844,-264.112 902.178,-307.024 940,-333.5 945.524,-337.367 951.624,-340.874 957.86,-344.013"/>
<polygon fill="midnightblue" stroke="midnightblue" points="956.504,-347.243 967.041,-348.347 959.493,-340.913 956.504,-347.243"/>
</g>
<!-- Node16 -->
<g id="node16" class="node"><title>Node16</title>
<g id="a_node16"><a xlink:href="classRa_1_1Engine_1_1RenderObjectManager.html#a088feae4339349a81b7b6635b38aead1" target="_top" xlink:title="Returns true if the index points to a valid render object. ">
<polygon fill="white" stroke="black" points="1120,-304.5 1120,-334.5 1257,-334.5 1257,-304.5 1120,-304.5"/>
<text text-anchor="start" x="1128" y="-322.5" font-family="Helvetica,sans-Serif" font-size="10.00">Ra::Engine::RenderObject</text>
<text text-anchor="middle" x="1188.5" y="-311.5" font-family="Helvetica,sans-Serif" font-size="10.00">Manager::exists</text>
</a>
</g>
</g>
<!-- Node7&#45;&gt;Node16 -->
<g id="edge16" class="edge"><title>Node7&#45;&gt;Node16</title>
<path fill="none" stroke="midnightblue" d="M855.409,-241.681C873.577,-259.09 906.072,-286.853 940,-299.5 994.324,-319.749 1059.87,-324.243 1109.87,-323.946"/>
<polygon fill="midnightblue" stroke="midnightblue" points="1110.01,-327.445 1119.97,-323.821 1109.92,-320.446 1110.01,-327.445"/>
</g>
<!-- Node9 -->
<g id="node9" class="node"><title>Node9</title>
<g id="a_node9"><a xlink:href="classRa_1_1Core_1_1Utils_1_1Index.html#ac7d6c68387fe147f7a13668ac30a4533" target="_top" xlink:title="INVALID. ">
<polygon fill="white" stroke="black" points="1293,-69.5 1293,-99.5 1409,-99.5 1409,-69.5 1293,-69.5"/>
<text text-anchor="start" x="1301" y="-87.5" font-family="Helvetica,sans-Serif" font-size="10.00">Ra::Core::Utils::Index</text>
<text text-anchor="middle" x="1351" y="-76.5" font-family="Helvetica,sans-Serif" font-size="10.00">::isInvalid</text>
</a>
</g>
</g>
<!-- Node8&#45;&gt;Node9 -->
<g id="edge8" class="edge"><title>Node8&#45;&gt;Node9</title>
<path fill="none" stroke="midnightblue" d="M1248.35,-84.5C1259.45,-84.5 1271.13,-84.5 1282.47,-84.5"/>
<polygon fill="midnightblue" stroke="midnightblue" points="1282.76,-88.0001 1292.76,-84.5 1282.76,-81.0001 1282.76,-88.0001"/>
</g>
<!-- Node13&#45;&gt;Node8 -->
<g id="edge13" class="edge"><title>Node13&#45;&gt;Node8</title>
<path fill="none" stroke="midnightblue" d="M1068.12,-260.402C1073.78,-257.617 1079.21,-254.343 1084,-250.5 1131.75,-212.21 1163.56,-145.568 1178.21,-109.465"/>
<polygon fill="midnightblue" stroke="midnightblue" points="1181.64,-110.31 1182.05,-99.7232 1175.13,-107.746 1181.64,-110.31"/>
</g>
<!-- Node14 -->
<g id="node14" class="node"><title>Node14</title>
<g id="a_node14"><a xlink:href="classRa_1_1Core_1_1Utils_1_1Index.html#ac7a1b710e6b95834a562c27e2f6c0f4b" target="_top" xlink:title="DESTRUCTOR: Must not be defined, we need it trivial to be constexpr. ">
<polygon fill="white" stroke="black" points="1293,-282.5 1293,-312.5 1409,-312.5 1409,-282.5 1293,-282.5"/>
<text text-anchor="start" x="1301" y="-300.5" font-family="Helvetica,sans-Serif" font-size="10.00">Ra::Core::Utils::Index</text>
<text text-anchor="middle" x="1351" y="-289.5" font-family="Helvetica,sans-Serif" font-size="10.00">::isValid</text>
</a>
</g>
</g>
<!-- Node13&#45;&gt;Node14 -->
<g id="edge14" class="edge"><title>Node13&#45;&gt;Node14</title>
<path fill="none" stroke="midnightblue" d="M1071.7,-279.332C1130.56,-283.175 1221.08,-289.084 1282.79,-293.112"/>
<polygon fill="midnightblue" stroke="midnightblue" points="1282.61,-296.608 1292.81,-293.767 1283.06,-289.623 1282.61,-296.608"/>
</g>
<!-- Node16&#45;&gt;Node14 -->
<g id="edge17" class="edge"><title>Node16&#45;&gt;Node14</title>
<path fill="none" stroke="midnightblue" d="M1257.1,-310.234C1265.66,-309.061 1274.42,-307.86 1282.97,-306.688"/>
<polygon fill="midnightblue" stroke="midnightblue" points="1283.45,-310.155 1292.88,-305.329 1282.5,-303.219 1283.45,-310.155"/>
</g>
<!-- Node17&#45;&gt;Node13 -->
<g id="edge20" class="edge"><title>Node17&#45;&gt;Node13</title>
<path fill="none" stroke="midnightblue" d="M869.81,-348.372C898.198,-333.72 941.403,-311.421 972.541,-295.35"/>
<polygon fill="midnightblue" stroke="midnightblue" points="974.507,-298.274 981.788,-290.577 971.296,-292.054 974.507,-298.274"/>
</g>
<!-- Node17&#45;&gt;Node15 -->
<g id="edge21" class="edge"><title>Node17&#45;&gt;Node15</title>
<path fill="none" stroke="midnightblue" d="M899.176,-363.5C909.002,-363.5 919.35,-363.5 929.624,-363.5"/>
<polygon fill="midnightblue" stroke="midnightblue" points="929.85,-367 939.85,-363.5 929.85,-360 929.85,-367"/>
</g>
<!-- Node18 -->
<g id="node18" class="node"><title>Node18</title>
<g id="a_node18"><a xlink:href="classRa_1_1Core_1_1Utils_1_1IndexedObject.html#accf1e1447b2ed890b10080fb44a91e6c" target="_top" xlink:title="Ra::Core::Utils::Indexed\lObject::getIndex">
<polygon fill="white" stroke="black" points="948,-446.5 948,-476.5 1076,-476.5 1076,-446.5 948,-446.5"/>
<text text-anchor="start" x="956" y="-464.5" font-family="Helvetica,sans-Serif" font-size="10.00">Ra::Core::Utils::Indexed</text>
<text text-anchor="middle" x="1012" y="-453.5" font-family="Helvetica,sans-Serif" font-size="10.00">Object::getIndex</text>
</a>
</g>
</g>
<!-- Node17&#45;&gt;Node18 -->
<g id="edge19" class="edge"><title>Node17&#45;&gt;Node18</title>
<path fill="none" stroke="midnightblue" d="M857.353,-378.653C876.298,-395.037 908.538,-421.011 940,-437.5 943.466,-439.317 947.098,-441.038 950.809,-442.661"/>
<polygon fill="midnightblue" stroke="midnightblue" points="949.566,-445.934 960.146,-446.491 952.223,-439.457 949.566,-445.934"/>
</g>
<!-- Node19 -->
<g id="node19" class="node"><title>Node19</title>
<g id="a_node19"><a xlink:href="classRa_1_1Engine_1_1RenderObjectManager.html#a13fc919e9fa01bfb36e67bc9011d325f" target="_top" xlink:title="Returns the render object corresponding to the given index. ">
<polygon fill="white" stroke="black" points="940,-397.5 940,-427.5 1084,-427.5 1084,-397.5 940,-397.5"/>
<text text-anchor="start" x="948" y="-415.5" font-family="Helvetica,sans-Serif" font-size="10.00">Ra::Engine::RenderObject</text>
<text text-anchor="middle" x="1012" y="-404.5" font-family="Helvetica,sans-Serif" font-size="10.00">Manager::getRenderObject</text>
</a>
</g>
</g>
<!-- Node17&#45;&gt;Node19 -->
<g id="edge22" class="edge"><title>Node17&#45;&gt;Node19</title>
<path fill="none" stroke="midnightblue" d="M893.047,-378.601C910.713,-383.679 930.587,-389.39 948.916,-394.658"/>
<polygon fill="midnightblue" stroke="midnightblue" points="948.049,-398.05 958.627,-397.448 949.982,-391.322 948.049,-398.05"/>
</g>
<!-- Node19&#45;&gt;Node16 -->
<g id="edge23" class="edge"><title>Node19&#45;&gt;Node16</title>
<path fill="none" stroke="midnightblue" d="M1062.94,-397.472C1070.13,-394.778 1077.34,-391.773 1084,-388.5 1111.3,-375.076 1139.9,-355.532 1160.1,-340.668"/>
<polygon fill="midnightblue" stroke="midnightblue" points="1162.29,-343.4 1168.21,-334.616 1158.1,-337.789 1162.29,-343.4"/>
</g>
<!-- Node20&#45;&gt;Node8 -->
<g id="edge25" class="edge"><title>Node20&#45;&gt;Node8</title>
<path fill="none" stroke="midnightblue" d="M859.311,-113.401C878.359,-99.1579 909.309,-78.7922 940,-70.5 998.888,-54.5896 1068.44,-60.5884 1118.79,-69.1132"/>
<polygon fill="midnightblue" stroke="midnightblue" points="1118.46,-72.6085 1128.91,-70.9047 1119.68,-65.7156 1118.46,-72.6085"/>
</g>
<!-- Node26 -->
<g id="node26" class="node"><title>Node26</title>
<g id="a_node26"><a xlink:href="namespaceRa_1_1Gui.html#afe2329e48512356b2cce3d8add41c665" target="_top" xlink:title="Ra::Gui::isKeyPressed">
<polygon fill="white" stroke="black" points="411,-50 411,-69 530,-69 530,-50 411,-50"/>
<text text-anchor="middle" x="470.5" y="-57" font-family="Helvetica,sans-Serif" font-size="10.00">Ra::Gui::isKeyPressed</text>
</a>
</g>
</g>
<!-- Node25&#45;&gt;Node26 -->
<g id="edge32" class="edge"><title>Node25&#45;&gt;Node26</title>
<path fill="none" stroke="midnightblue" d="M357.19,-59.5C371.758,-59.5 386.758,-59.5 400.863,-59.5"/>
<polygon fill="midnightblue" stroke="midnightblue" points="400.957,-63.0001 410.957,-59.5 400.957,-56.0001 400.957,-63.0001"/>
</g>
</g>
</svg>
