<?xml version="1.0" encoding="UTF-8" standalone="no"?>
<!DOCTYPE svg PUBLIC "-//W3C//DTD SVG 1.1//EN"
 "http://www.w3.org/Graphics/SVG/1.1/DTD/svg11.dtd">
<!-- Generated by graphviz version 2.38.0 (20140413.2041)
 -->
<!-- Title: Ra::Core::Grid&lt; T, D &gt; Pages: 1 -->
<svg width="324pt" height="380pt"
 viewBox="0.00 0.00 323.50 380.00" xmlns="http://www.w3.org/2000/svg" xmlns:xlink="http://www.w3.org/1999/xlink">
<g id="graph0" class="graph" transform="scale(1 1) rotate(0) translate(4 376)">
<title>Ra::Core::Grid&lt; T, D &gt;</title>
<polygon fill="white" stroke="none" points="-4,4 -4,-376 319.5,-376 319.5,4 -4,4"/>
<!-- Node1 -->
<g id="node1" class="node"><title>Node1</title>
<polygon fill="#bfbfbf" stroke="black" points="86.5,-0.5 86.5,-266.5 210.5,-266.5 210.5,-0.5 86.5,-0.5"/>
<text text-anchor="middle" x="148.5" y="-254.5" font-family="Helvetica,sans-Serif" font-size="10.00">Ra::Core::Grid&lt; T, D &gt;</text>
<polyline fill="none" stroke="black" points="86.5,-247.5 210.5,-247.5 "/>
<text text-anchor="middle" x="148.5" y="-235.5" font-family="Helvetica,sans-Serif" font-size="10.00"> </text>
<polyline fill="none" stroke="black" points="86.5,-228.5 210.5,-228.5 "/>
<text text-anchor="start" x="94.5" y="-216.5" font-family="Helvetica,sans-Serif" font-size="10.00">+ Grid()</text>
<text text-anchor="start" x="94.5" y="-205.5" font-family="Helvetica,sans-Serif" font-size="10.00">+ Grid()</text>
<text text-anchor="start" x="94.5" y="-194.5" font-family="Helvetica,sans-Serif" font-size="10.00">+ Grid()</text>
<text text-anchor="start" x="94.5" y="-183.5" font-family="Helvetica,sans-Serif" font-size="10.00">+ operator=()</text>
<text text-anchor="start" x="94.5" y="-172.5" font-family="Helvetica,sans-Serif" font-size="10.00">+ size()</text>
<text text-anchor="start" x="94.5" y="-161.5" font-family="Helvetica,sans-Serif" font-size="10.00">+ sizeVector()</text>
<text text-anchor="start" x="94.5" y="-150.5" font-family="Helvetica,sans-Serif" font-size="10.00">+ empty()</text>
<text text-anchor="start" x="94.5" y="-139.5" font-family="Helvetica,sans-Serif" font-size="10.00">+ clear()</text>
<text text-anchor="start" x="94.5" y="-128.5" font-family="Helvetica,sans-Serif" font-size="10.00">+ at()</text>
<text text-anchor="start" x="94.5" y="-117.5" font-family="Helvetica,sans-Serif" font-size="10.00">+ at()</text>
<text text-anchor="start" x="94.5" y="-106.5" font-family="Helvetica,sans-Serif" font-size="10.00">+ at()</text>
<text text-anchor="start" x="94.5" y="-95.5" font-family="Helvetica,sans-Serif" font-size="10.00">+ at()</text>
<text text-anchor="start" x="94.5" y="-84.5" font-family="Helvetica,sans-Serif" font-size="10.00">+ at()</text>
<text text-anchor="start" x="94.5" y="-73.5" font-family="Helvetica,sans-Serif" font-size="10.00">+ at()</text>
<text text-anchor="start" x="94.5" y="-62.5" font-family="Helvetica,sans-Serif" font-size="10.00">+ data()</text>
<text text-anchor="start" x="94.5" y="-51.5" font-family="Helvetica,sans-Serif" font-size="10.00">+ data()</text>
<text text-anchor="start" x="94.5" y="-40.5" font-family="Helvetica,sans-Serif" font-size="10.00">+ begin()</text>
<text text-anchor="start" x="94.5" y="-29.5" font-family="Helvetica,sans-Serif" font-size="10.00">+ begin()</text>
<text text-anchor="start" x="94.5" y="-18.5" font-family="Helvetica,sans-Serif" font-size="10.00">+ end()</text>
<text text-anchor="start" x="94.5" y="-7.5" font-family="Helvetica,sans-Serif" font-size="10.00">+ end()</text>
</g>
<!-- Node2 -->
<g id="node2" class="node"><title>Node2</title>
<polygon fill="white" stroke="#bfbfbf" points="0,-314.5 0,-371.5 93,-371.5 93,-314.5 0,-314.5"/>
<text text-anchor="middle" x="46.5" y="-359.5" font-family="Helvetica,sans-Serif" font-size="10.00">static const uint</text>
<polyline fill="none" stroke="#bfbfbf" points="0,-352.5 93,-352.5 "/>
<text text-anchor="middle" x="46.5" y="-340.5" font-family="Helvetica,sans-Serif" font-size="10.00"> </text>
<polyline fill="none" stroke="#bfbfbf" points="0,-333.5 93,-333.5 "/>
<text text-anchor="middle" x="46.5" y="-321.5" font-family="Helvetica,sans-Serif" font-size="10.00"> </text>
</g>
<!-- Node2&#45;&gt;Node1 -->
<g id="edge1" class="edge"><title>Node2&#45;&gt;Node1</title>
<path fill="none" stroke="#404040" d="M60.0448,-314.446C65.8568,-302.622 73.1153,-287.856 80.9591,-271.899"/>
<polygon fill="none" stroke="#404040" points="81.1785,-271.453 80.2357,-264.304 86.4723,-260.684 87.4152,-267.833 81.1785,-271.453"/>
<text text-anchor="middle" x="106" y="-288" font-family="Helvetica,sans-Serif" font-size="10.00"> +Dimension</text>
</g>
<!-- Node3 -->
<g id="node3" class="node"><title>Node3</title>
<polygon fill="white" stroke="#bfbfbf" points="111.5,-314.5 111.5,-371.5 185.5,-371.5 185.5,-314.5 111.5,-314.5"/>
<text text-anchor="middle" x="148.5" y="-359.5" font-family="Helvetica,sans-Serif" font-size="10.00">vector&lt; T &gt;</text>
<polyline fill="none" stroke="#bfbfbf" points="111.5,-352.5 185.5,-352.5 "/>
<text text-anchor="middle" x="148.5" y="-340.5" font-family="Helvetica,sans-Serif" font-size="10.00"> </text>
<polyline fill="none" stroke="#bfbfbf" points="111.5,-333.5 185.5,-333.5 "/>
<text text-anchor="middle" x="148.5" y="-321.5" font-family="Helvetica,sans-Serif" font-size="10.00"> </text>
</g>
<!-- Node3&#45;&gt;Node1 -->
<g id="edge2" class="edge"><title>Node3&#45;&gt;Node1</title>
<path fill="none" stroke="#404040" d="M148.5,-314.446C148.5,-304.401 148.5,-292.234 148.5,-279.017"/>
<polygon fill="none" stroke="#404040" points="148.5,-278.614 144.5,-272.614 148.5,-266.614 152.5,-272.614 148.5,-278.614"/>
<text text-anchor="middle" x="173" y="-288" font-family="Helvetica,sans-Serif" font-size="10.00"> #m_data</text>
</g>
<!-- Node4 -->
<g id="node4" class="node"><title>Node4</title>
<polygon fill="white" stroke="#bfbfbf" points="203.5,-314.5 203.5,-371.5 315.5,-371.5 315.5,-314.5 203.5,-314.5"/>
<text text-anchor="middle" x="259.5" y="-359.5" font-family="Helvetica,sans-Serif" font-size="10.00">Matrix&lt; uint, D, 1 &gt;</text>
<polyline fill="none" stroke="#bfbfbf" points="203.5,-352.5 315.5,-352.5 "/>
<text text-anchor="middle" x="259.5" y="-340.5" font-family="Helvetica,sans-Serif" font-size="10.00"> </text>
<polyline fill="none" stroke="#bfbfbf" points="203.5,-333.5 315.5,-333.5 "/>
<text text-anchor="middle" x="259.5" y="-321.5" font-family="Helvetica,sans-Serif" font-size="10.00"> </text>
</g>
<!-- Node4&#45;&gt;Node1 -->
<g id="edge3" class="edge"><title>Node4&#45;&gt;Node1</title>
<path fill="none" stroke="#404040" d="M244.76,-314.446C237.062,-300.055 227.032,-281.305 216.359,-261.354"/>
<polygon fill="none" stroke="#404040" points="216.213,-261.08 209.856,-257.676 210.553,-250.499 216.91,-253.903 216.213,-261.08"/>
<text text-anchor="middle" x="256.5" y="-288" font-family="Helvetica,sans-Serif" font-size="10.00"> #m_size</text>
</g>
</g>
</svg>
