<?xml version="1.0" encoding="UTF-8" standalone="no"?>
<!DOCTYPE svg PUBLIC "-//W3C//DTD SVG 1.1//EN"
 "http://www.w3.org/Graphics/SVG/1.1/DTD/svg11.dtd">
<!-- Generated by graphviz version 2.38.0 (20140413.2041)
 -->
<!-- Title: Ra::Core::Grid::Iterator::operator&gt;= Pages: 1 -->
<svg width="306pt" height="418pt"
 viewBox="0.00 0.00 306.00 418.00" xmlns="http://www.w3.org/2000/svg" xmlns:xlink="http://www.w3.org/1999/xlink">
<g id="graph0" class="graph" transform="scale(1 1) rotate(0) translate(4 414)">
<title>Ra::Core::Grid::Iterator::operator&gt;=</title>
<polygon fill="white" stroke="none" points="-4,4 -4,-414 302,-414 302,4 -4,4"/>
<!-- Node1 -->
<g id="node1" class="node"><title>Node1</title>
<polygon fill="#bfbfbf" stroke="black" points="0,-193 0,-223 124,-223 124,-193 0,-193"/>
<text text-anchor="start" x="8" y="-211" font-family="Helvetica,sans-Serif" font-size="10.00">Ra::Core::Grid::Iterator</text>
<text text-anchor="middle" x="62" y="-200" font-family="Helvetica,sans-Serif" font-size="10.00">::operator&gt;=</text>
</g>
<!-- Node2 -->
<g id="node2" class="node"><title>Node2</title>
<g id="a_node2"><a xlink:href="classRa_1_1Core_1_1Grid.html#a5c1b5a229a69f59188a2e4173d0d6717" target="_top" xlink:title="Construct a grid of a given size and fill it with the given value. ">
<polygon fill="white" stroke="black" points="175,-390.5 175,-409.5 283,-409.5 283,-390.5 175,-390.5"/>
<text text-anchor="middle" x="229" y="-397.5" font-family="Helvetica,sans-Serif" font-size="10.00">Ra::Core::Grid::Grid</text>
</a>
</g>
</g>
<!-- Node1&#45;&gt;Node2 -->
<g id="edge1" class="edge"><title>Node1&#45;&gt;Node2</title>
<path fill="none" stroke="midnightblue" d="M67.1213,-223.104C77.1074,-256.791 105.855,-338.444 160,-381 162.304,-382.811 164.771,-384.449 167.349,-385.931"/>
<polygon fill="midnightblue" stroke="midnightblue" points="165.955,-389.146 176.476,-390.393 169.03,-382.857 165.955,-389.146"/>
</g>
<!-- Node3 -->
<g id="node3" class="node"><title>Node3</title>
<g id="a_node3"><a xlink:href="classRa_1_1Core_1_1Grid.html#a45bf1d4630b08f632693d4d0af485e11" target="_top" xlink:title="Returns the number of elements stored. ">
<polygon fill="white" stroke="black" points="175.5,-352.5 175.5,-371.5 282.5,-371.5 282.5,-352.5 175.5,-352.5"/>
<text text-anchor="middle" x="229" y="-359.5" font-family="Helvetica,sans-Serif" font-size="10.00">Ra::Core::Grid::size</text>
</a>
</g>
</g>
<!-- Node1&#45;&gt;Node3 -->
<g id="edge2" class="edge"><title>Node1&#45;&gt;Node3</title>
<path fill="none" stroke="midnightblue" d="M69.641,-223.141C82.7302,-251.188 114.585,-311.252 160,-343 162.849,-344.992 165.901,-346.775 169.077,-348.372"/>
<polygon fill="midnightblue" stroke="midnightblue" points="167.722,-351.6 178.286,-352.398 170.525,-345.186 167.722,-351.6"/>
</g>
<!-- Node4 -->
<g id="node4" class="node"><title>Node4</title>
<g id="a_node4"><a xlink:href="classRa_1_1Core_1_1Grid_1_1Iterator.html#a6296084fa80818cccf0ddcdcb7120150" target="_top" xlink:title="Ra::Core::Grid::Iterator\l::operator=">
<polygon fill="white" stroke="black" points="167,-303 167,-333 291,-333 291,-303 167,-303"/>
<text text-anchor="start" x="175" y="-321" font-family="Helvetica,sans-Serif" font-size="10.00">Ra::Core::Grid::Iterator</text>
<text text-anchor="middle" x="229" y="-310" font-family="Helvetica,sans-Serif" font-size="10.00">::operator=</text>
</a>
</g>
</g>
<!-- Node1&#45;&gt;Node4 -->
<g id="edge3" class="edge"><title>Node1&#45;&gt;Node4</title>
<path fill="none" stroke="midnightblue" d="M76.7818,-223.097C94.4823,-241.724 126.887,-273.334 160,-293 163.43,-295.037 167.054,-296.954 170.772,-298.747"/>
<polygon fill="midnightblue" stroke="midnightblue" points="169.59,-302.053 180.146,-302.954 172.456,-295.667 169.59,-302.053"/>
</g>
<!-- Node5 -->
<g id="node5" class="node"><title>Node5</title>
<g id="a_node5"><a xlink:href="classRa_1_1Core_1_1Grid.html#a3413612b42d3ab6981527c291ff631a0" target="_top" xlink:title="Returns the size vector (a D&#45;dimensional vector with the size along each dimension). ">
<polygon fill="white" stroke="black" points="160,-264.5 160,-283.5 298,-283.5 298,-264.5 160,-264.5"/>
<text text-anchor="middle" x="229" y="-271.5" font-family="Helvetica,sans-Serif" font-size="10.00">Ra::Core::Grid::sizeVector</text>
</a>
</g>
</g>
<!-- Node1&#45;&gt;Node5 -->
<g id="edge4" class="edge"><title>Node1&#45;&gt;Node5</title>
<path fill="none" stroke="midnightblue" d="M90.8505,-223.143C109.929,-233.103 136.023,-245.925 160,-255 166.239,-257.361 172.898,-259.577 179.518,-261.603"/>
<polygon fill="midnightblue" stroke="midnightblue" points="178.552,-264.967 189.133,-264.43 180.526,-258.252 178.552,-264.967"/>
</g>
<!-- Node6 -->
<g id="node6" class="node"><title>Node6</title>
<g id="a_node6"><a xlink:href="classRa_1_1Core_1_1Grid.html#ad2ec4ea8272e504caa5127b779e103bc" target="_top" xlink:title="Returns true if the grid is empty (i.e. if size() ==0). ">
<polygon fill="white" stroke="black" points="169.5,-226.5 169.5,-245.5 288.5,-245.5 288.5,-226.5 169.5,-226.5"/>
<text text-anchor="middle" x="229" y="-233.5" font-family="Helvetica,sans-Serif" font-size="10.00">Ra::Core::Grid::empty</text>
</a>
</g>
</g>
<!-- Node1&#45;&gt;Node6 -->
<g id="edge5" class="edge"><title>Node1&#45;&gt;Node6</title>
<path fill="none" stroke="midnightblue" d="M124.44,-218.426C136.609,-220.491 149.433,-222.667 161.753,-224.758"/>
<polygon fill="midnightblue" stroke="midnightblue" points="161.514,-228.267 171.959,-226.49 162.685,-221.366 161.514,-228.267"/>
</g>
<!-- Node7 -->
<g id="node7" class="node"><title>Node7</title>
<g id="a_node7"><a xlink:href="classRa_1_1Core_1_1Grid.html#a593ee4efe5ebb4bce9a3fb873b6a3fe0" target="_top" xlink:title="Erases all data and makes the grid empty. ">
<polygon fill="white" stroke="black" points="173,-170.5 173,-189.5 285,-189.5 285,-170.5 173,-170.5"/>
<text text-anchor="middle" x="229" y="-177.5" font-family="Helvetica,sans-Serif" font-size="10.00">Ra::Core::Grid::clear</text>
</a>
</g>
</g>
<!-- Node1&#45;&gt;Node7 -->
<g id="edge6" class="edge"><title>Node1&#45;&gt;Node7</title>
<path fill="none" stroke="midnightblue" d="M124.44,-197.574C136.947,-195.451 150.147,-193.211 162.781,-191.068"/>
<polygon fill="midnightblue" stroke="midnightblue" points="163.494,-194.497 172.767,-189.373 162.322,-187.595 163.494,-194.497"/>
</g>
<!-- Node8 -->
<g id="node8" class="node"><title>Node8</title>
<g id="a_node8"><a xlink:href="classRa_1_1Core_1_1Grid.html#ae9c02e6ec89130899fd0645dbfa4ece7" target="_top" xlink:title="Access an element with a D&#45;dimensional index. ">
<polygon fill="white" stroke="black" points="180,-132.5 180,-151.5 278,-151.5 278,-132.5 180,-132.5"/>
<text text-anchor="middle" x="229" y="-139.5" font-family="Helvetica,sans-Serif" font-size="10.00">Ra::Core::Grid::at</text>
</a>
</g>
</g>
<!-- Node1&#45;&gt;Node8 -->
<g id="edge8" class="edge"><title>Node1&#45;&gt;Node8</title>
<path fill="none" stroke="midnightblue" d="M90.8505,-192.857C109.929,-182.897 136.023,-170.075 160,-161 166.239,-158.639 172.898,-156.423 179.518,-154.397"/>
<polygon fill="midnightblue" stroke="midnightblue" points="180.526,-157.748 189.133,-151.57 178.552,-151.033 180.526,-157.748"/>
</g>
<!-- Node9 -->
<g id="node9" class="node"><title>Node9</title>
<g id="a_node9"><a xlink:href="classRa_1_1Core_1_1Grid.html#ac1d1b452e0ecfa3f10ab35847ad38994" target="_top" xlink:title="Read only access to the underlying data. ">
<polygon fill="white" stroke="black" points="174,-76.5 174,-95.5 284,-95.5 284,-76.5 174,-76.5"/>
<text text-anchor="middle" x="229" y="-83.5" font-family="Helvetica,sans-Serif" font-size="10.00">Ra::Core::Grid::data</text>
</a>
</g>
</g>
<!-- Node1&#45;&gt;Node9 -->
<g id="edge9" class="edge"><title>Node1&#45;&gt;Node9</title>
<path fill="none" stroke="midnightblue" d="M78.2397,-192.721C96.6298,-174.755 128.961,-144.645 160,-123 172.123,-114.546 186.379,-106.528 198.698,-100.131"/>
<polygon fill="midnightblue" stroke="midnightblue" points="200.341,-103.222 207.673,-95.5744 197.172,-96.98 200.341,-103.222"/>
</g>
<!-- Node10 -->
<g id="node10" class="node"><title>Node10</title>
<g id="a_node10"><a xlink:href="classRa_1_1Core_1_1Grid.html#a041f46b46f8421750e287e69fc269291" target="_top" xlink:title="Get an iterator on this grid at the first element. ">
<polygon fill="white" stroke="black" points="171.5,-38.5 171.5,-57.5 286.5,-57.5 286.5,-38.5 171.5,-38.5"/>
<text text-anchor="middle" x="229" y="-45.5" font-family="Helvetica,sans-Serif" font-size="10.00">Ra::Core::Grid::begin</text>
</a>
</g>
</g>
<!-- Node1&#45;&gt;Node10 -->
<g id="edge11" class="edge"><title>Node1&#45;&gt;Node10</title>
<path fill="none" stroke="midnightblue" d="M69.2546,-192.642C81.9019,-163.548 113.339,-100.335 160,-67 162.693,-65.0761 165.574,-63.3467 168.574,-61.7921"/>
<polygon fill="midnightblue" stroke="midnightblue" points="170.165,-64.9149 177.861,-57.6333 167.303,-58.5263 170.165,-64.9149"/>
</g>
<!-- Node11 -->
<g id="node11" class="node"><title>Node11</title>
<g id="a_node11"><a xlink:href="classRa_1_1Core_1_1Grid.html#ad7d838e7753d2ee71ef33a1fb408cf31" target="_top" xlink:title="Get an iterator on this grid past the last element. ">
<polygon fill="white" stroke="black" points="175.5,-0.5 175.5,-19.5 282.5,-19.5 282.5,-0.5 175.5,-0.5"/>
<text text-anchor="middle" x="229" y="-7.5" font-family="Helvetica,sans-Serif" font-size="10.00">Ra::Core::Grid::end</text>
</a>
</g>
</g>
<!-- Node1&#45;&gt;Node11 -->
<g id="edge12" class="edge"><title>Node1&#45;&gt;Node11</title>
<path fill="none" stroke="midnightblue" d="M66.8173,-192.898C76.3376,-158.385 104.46,-73.3033 160,-29 162.291,-27.1727 164.747,-25.5209 167.317,-24.0279"/>
<polygon fill="midnightblue" stroke="midnightblue" points="169.001,-27.1 176.423,-19.5388 165.906,-20.8215 169.001,-27.1"/>
</g>
<!-- Node7&#45;&gt;Node7 -->
<g id="edge7" class="edge"><title>Node7&#45;&gt;Node7</title>
<path fill="none" stroke="midnightblue" d="M203.415,-189.757C190.968,-198.565 199.496,-208 229,-208 248.823,-208 259.177,-203.741 260.063,-198.275"/>
<polygon fill="midnightblue" stroke="midnightblue" points="262.938,-196.275 254.585,-189.757 257.051,-200.061 262.938,-196.275"/>
</g>
<!-- Node9&#45;&gt;Node9 -->
<g id="edge10" class="edge"><title>Node9&#45;&gt;Node9</title>
<path fill="none" stroke="midnightblue" d="M203.415,-95.7571C190.968,-104.565 199.496,-114 229,-114 248.823,-114 259.177,-109.741 260.063,-104.275"/>
<polygon fill="midnightblue" stroke="midnightblue" points="262.938,-102.275 254.585,-95.7571 257.051,-106.061 262.938,-102.275"/>
</g>
</g>
</svg>
