<?xml version="1.0" encoding="UTF-8" standalone="no"?>
<!DOCTYPE svg PUBLIC "-//W3C//DTD SVG 1.1//EN"
 "http://www.w3.org/Graphics/SVG/1.1/DTD/svg11.dtd">
<!-- Generated by graphviz version 2.38.0 (20140413.2041)
 -->
<!-- Title: Ra::GuiBase::BaseApplication::radiumFrame Pages: 1 -->
<svg width="917pt" height="641pt"
 viewBox="0.00 0.00 917.00 641.00" xmlns="http://www.w3.org/2000/svg" xmlns:xlink="http://www.w3.org/1999/xlink">
<g id="graph0" class="graph" transform="scale(1 1) rotate(0) translate(4 637)">
<title>Ra::GuiBase::BaseApplication::radiumFrame</title>
<polygon fill="white" stroke="none" points="-4,4 -4,-637 913,-637 913,4 -4,4"/>
<!-- Node1 -->
<g id="node1" class="node"><title>Node1</title>
<polygon fill="#bfbfbf" stroke="black" points="0,-318.5 0,-348.5 157,-348.5 157,-318.5 0,-318.5"/>
<text text-anchor="start" x="8" y="-336.5" font-family="Helvetica,sans-Serif" font-size="10.00">Ra::GuiBase::BaseApplication</text>
<text text-anchor="middle" x="78.5" y="-325.5" font-family="Helvetica,sans-Serif" font-size="10.00">::radiumFrame</text>
</g>
<!-- Node2 -->
<g id="node2" class="node"><title>Node2</title>
<g id="a_node2"><a xlink:href="namespaceRa_1_1Core_1_1Utils.html#aa49c969fc840be78b425b79b6c611c56" target="_top" xlink:title="Ra::Core::Utils::getInterval\lSeconds">
<polygon fill="white" stroke="black" points="204.5,-553.5 204.5,-583.5 345.5,-583.5 345.5,-553.5 204.5,-553.5"/>
<text text-anchor="start" x="212.5" y="-571.5" font-family="Helvetica,sans-Serif" font-size="10.00">Ra::Core::Utils::getInterval</text>
<text text-anchor="middle" x="275" y="-560.5" font-family="Helvetica,sans-Serif" font-size="10.00">Seconds</text>
</a>
</g>
</g>
<!-- Node1&#45;&gt;Node2 -->
<g id="edge1" class="edge"><title>Node1&#45;&gt;Node2</title>
<path fill="none" stroke="midnightblue" d="M83.2651,-348.598C93.6964,-387.26 126.678,-490.575 193,-544.5 194.579,-545.784 196.225,-546.999 197.925,-548.149"/>
<polygon fill="midnightblue" stroke="midnightblue" points="196.435,-551.333 206.831,-553.375 199.978,-545.295 196.435,-551.333"/>
</g>
<!-- Node3 -->
<g id="node3" class="node"><title>Node3</title>
<g id="a_node3"><a xlink:href="classRa_1_1Gui_1_1Viewer.html#aeee8e169e5cdca89d16cde152a7f4657" target="_top" xlink:title="Emits signals corresponding to picking requests. ">
<polygon fill="white" stroke="black" points="209.5,-504.5 209.5,-534.5 340.5,-534.5 340.5,-504.5 209.5,-504.5"/>
<text text-anchor="start" x="217.5" y="-522.5" font-family="Helvetica,sans-Serif" font-size="10.00">Ra::Gui::Viewer::process</text>
<text text-anchor="middle" x="275" y="-511.5" font-family="Helvetica,sans-Serif" font-size="10.00">Picking</text>
</a>
</g>
</g>
<!-- Node1&#45;&gt;Node3 -->
<g id="edge2" class="edge"><title>Node1&#45;&gt;Node3</title>
<path fill="none" stroke="midnightblue" d="M95.4168,-348.721C129.695,-381.501 210.626,-458.896 250.693,-497.212"/>
<polygon fill="midnightblue" stroke="midnightblue" points="248.49,-499.948 258.136,-504.329 253.328,-494.888 248.49,-499.948"/>
</g>
<!-- Node7 -->
<g id="node7" class="node"><title>Node7</title>
<g id="a_node7"><a xlink:href="classRa_1_1Gui_1_1Viewer.html#a0bc8019968c23fd6ca0d1c27c0d6ec0d" target="_top" xlink:title="Start rendering (potentially asynchronously in a separate thread) ">
<polygon fill="white" stroke="black" points="193,-412 193,-431 357,-431 357,-412 193,-412"/>
<text text-anchor="middle" x="275" y="-419" font-family="Helvetica,sans-Serif" font-size="10.00">Ra::Gui::Viewer::startRendering</text>
</a>
</g>
</g>
<!-- Node1&#45;&gt;Node7 -->
<g id="edge6" class="edge"><title>Node1&#45;&gt;Node7</title>
<path fill="none" stroke="midnightblue" d="M99.7797,-348.567C121.709,-364.186 158.21,-388.268 193,-402.5 199.198,-405.035 205.807,-407.276 212.476,-409.244"/>
<polygon fill="midnightblue" stroke="midnightblue" points="211.677,-412.655 222.247,-411.937 213.537,-405.906 211.677,-412.655"/>
</g>
<!-- Node23 -->
<g id="node23" class="node"><title>Node23</title>
<g id="a_node23"><a xlink:href="classRa_1_1Gui_1_1Viewer.html#aabb347c672746b38052bbd9c7e726c24" target="_top" xlink:title="Blocks until rendering is finished. ">
<polygon fill="white" stroke="black" points="211,-362.5 211,-392.5 339,-392.5 339,-362.5 211,-362.5"/>
<text text-anchor="start" x="219" y="-380.5" font-family="Helvetica,sans-Serif" font-size="10.00">Ra::Gui::Viewer::waitFor</text>
<text text-anchor="middle" x="275" y="-369.5" font-family="Helvetica,sans-Serif" font-size="10.00">Rendering</text>
</a>
</g>
</g>
<!-- Node1&#45;&gt;Node23 -->
<g id="edge22" class="edge"><title>Node1&#45;&gt;Node23</title>
<path fill="none" stroke="midnightblue" d="M145.892,-348.519C163.627,-352.531 182.89,-356.889 200.961,-360.977"/>
<polygon fill="midnightblue" stroke="midnightblue" points="200.335,-364.424 210.861,-363.217 201.88,-357.596 200.335,-364.424"/>
</g>
<!-- Node24 -->
<g id="node24" class="node"><title>Node24</title>
<g id="a_node24"><a xlink:href="classRa_1_1Gui_1_1Viewer.html#af27bf06c9bd7d133b81dde4c34469d1e" target="_top" xlink:title="Read&#45;only access to renderer. ">
<polygon fill="white" stroke="black" points="199,-324 199,-343 351,-343 351,-324 199,-324"/>
<text text-anchor="middle" x="275" y="-331" font-family="Helvetica,sans-Serif" font-size="10.00">Ra::Gui::Viewer::getRenderer</text>
</a>
</g>
</g>
<!-- Node1&#45;&gt;Node24 -->
<g id="edge23" class="edge"><title>Node1&#45;&gt;Node24</title>
<path fill="none" stroke="midnightblue" d="M157.21,-333.5C167.634,-333.5 178.371,-333.5 188.914,-333.5"/>
<polygon fill="midnightblue" stroke="midnightblue" points="188.946,-337 198.946,-333.5 188.946,-330 188.946,-337"/>
</g>
<!-- Node25 -->
<g id="node25" class="node"><title>Node25</title>
<g id="a_node25"><a xlink:href="classRa_1_1Engine_1_1Renderer.html#af8db8153a92d948aefbe0158273e4626" target="_top" xlink:title="Extract the timings from las render. ">
<polygon fill="white" stroke="black" points="217,-274.5 217,-304.5 333,-304.5 333,-274.5 217,-274.5"/>
<text text-anchor="start" x="225" y="-292.5" font-family="Helvetica,sans-Serif" font-size="10.00">Ra::Engine::Renderer</text>
<text text-anchor="middle" x="275" y="-281.5" font-family="Helvetica,sans-Serif" font-size="10.00">::getTimerData</text>
</a>
</g>
</g>
<!-- Node1&#45;&gt;Node25 -->
<g id="edge24" class="edge"><title>Node1&#45;&gt;Node25</title>
<path fill="none" stroke="midnightblue" d="M145.892,-318.481C165.662,-314.008 187.33,-309.107 207.131,-304.627"/>
<polygon fill="midnightblue" stroke="midnightblue" points="208.007,-308.017 216.988,-302.397 206.463,-301.19 208.007,-308.017"/>
</g>
<!-- Node26 -->
<g id="node26" class="node"><title>Node26</title>
<g id="a_node26"><a xlink:href="structRa_1_1FrameTimerData.html#a7e5a2022b84cf7abf32c4813137d7a89" target="_top" xlink:title="Ra::FrameTimerData\l::print">
<polygon fill="white" stroke="black" points="217.5,-225.5 217.5,-255.5 332.5,-255.5 332.5,-225.5 217.5,-225.5"/>
<text text-anchor="start" x="225.5" y="-243.5" font-family="Helvetica,sans-Serif" font-size="10.00">Ra::FrameTimerData</text>
<text text-anchor="middle" x="275" y="-232.5" font-family="Helvetica,sans-Serif" font-size="10.00">::print</text>
</a>
</g>
</g>
<!-- Node1&#45;&gt;Node26 -->
<g id="edge25" class="edge"><title>Node1&#45;&gt;Node26</title>
<path fill="none" stroke="midnightblue" d="M101.252,-318.301C123.49,-303.291 159.435,-280.472 193,-265.5 198.252,-263.157 203.789,-260.947 209.4,-258.884"/>
<polygon fill="midnightblue" stroke="midnightblue" points="210.603,-262.171 218.876,-255.552 208.282,-255.567 210.603,-262.171"/>
</g>
<!-- Node28 -->
<g id="node28" class="node"><title>Node28</title>
<g id="a_node28"><a xlink:href="classRa_1_1GuiBase_1_1BaseApplication.html#a38543f32547a83e36ca0c678ac11be57" target="_top" xlink:title="Ra::GuiBase::BaseApplication\l::recordFrame">
<polygon fill="white" stroke="black" points="196.5,-176.5 196.5,-206.5 353.5,-206.5 353.5,-176.5 196.5,-176.5"/>
<text text-anchor="start" x="204.5" y="-194.5" font-family="Helvetica,sans-Serif" font-size="10.00">Ra::GuiBase::BaseApplication</text>
<text text-anchor="middle" x="275" y="-183.5" font-family="Helvetica,sans-Serif" font-size="10.00">::recordFrame</text>
</a>
</g>
</g>
<!-- Node1&#45;&gt;Node28 -->
<g id="edge27" class="edge"><title>Node1&#45;&gt;Node28</title>
<path fill="none" stroke="midnightblue" d="M90.2519,-318.211C108.543,-293.309 148.124,-244.012 193,-216.5 196.431,-214.397 200.053,-212.457 203.786,-210.671"/>
<polygon fill="midnightblue" stroke="midnightblue" points="205.485,-213.749 213.249,-206.54 202.684,-207.333 205.485,-213.749"/>
</g>
<!-- Node36 -->
<g id="node36" class="node"><title>Node36</title>
<g id="a_node36"><a xlink:href="classRa_1_1GuiBase_1_1BaseApplication.html#aa19a984e0783e70237b8050feb1a3d2a" target="_top" xlink:title="Ra::GuiBase::BaseApplication\l::appNeedsToQuit">
<polygon fill="white" stroke="black" points="196.5,-127.5 196.5,-157.5 353.5,-157.5 353.5,-127.5 196.5,-127.5"/>
<text text-anchor="start" x="204.5" y="-145.5" font-family="Helvetica,sans-Serif" font-size="10.00">Ra::GuiBase::BaseApplication</text>
<text text-anchor="middle" x="275" y="-134.5" font-family="Helvetica,sans-Serif" font-size="10.00">::appNeedsToQuit</text>
</a>
</g>
</g>
<!-- Node1&#45;&gt;Node36 -->
<g id="edge35" class="edge"><title>Node1&#45;&gt;Node36</title>
<path fill="none" stroke="midnightblue" d="M85.7697,-318.115C99.8908,-285.387 137.358,-208.516 193,-167.5 195.525,-165.639 198.191,-163.914 200.956,-162.317"/>
<polygon fill="midnightblue" stroke="midnightblue" points="202.782,-165.314 210.08,-157.633 199.585,-159.086 202.782,-165.314"/>
</g>
<!-- Node4 -->
<g id="node4" class="node"><title>Node4</title>
<g id="a_node4"><a xlink:href="classRa_1_1Engine_1_1Renderer.html#a08c269858a2f3603f7417ba6ed649bde" target="_top" xlink:title="Get the vector of picking queries. ">
<polygon fill="white" stroke="black" points="408,-602.5 408,-632.5 524,-632.5 524,-602.5 408,-602.5"/>
<text text-anchor="start" x="416" y="-620.5" font-family="Helvetica,sans-Serif" font-size="10.00">Ra::Engine::Renderer</text>
<text text-anchor="middle" x="466" y="-609.5" font-family="Helvetica,sans-Serif" font-size="10.00">::getPickingQueries</text>
</a>
</g>
</g>
<!-- Node3&#45;&gt;Node4 -->
<g id="edge3" class="edge"><title>Node3&#45;&gt;Node4</title>
<path fill="none" stroke="midnightblue" d="M339.373,-534.631C345.601,-537.4 351.603,-540.661 357,-544.5 379.021,-560.163 371.156,-577.591 393,-593.5 395.05,-594.993 397.199,-596.398 399.421,-597.718"/>
<polygon fill="midnightblue" stroke="midnightblue" points="397.815,-600.828 408.291,-602.405 401.085,-594.639 397.815,-600.828"/>
</g>
<!-- Node5 -->
<g id="node5" class="node"><title>Node5</title>
<g id="a_node5"><a xlink:href="classRa_1_1Engine_1_1Renderer.html#a0508dbc35d4ab5ff766a209925fca359" target="_top" xlink:title="Get the vector of picking results. ">
<polygon fill="white" stroke="black" points="408,-553.5 408,-583.5 524,-583.5 524,-553.5 408,-553.5"/>
<text text-anchor="start" x="416" y="-571.5" font-family="Helvetica,sans-Serif" font-size="10.00">Ra::Engine::Renderer</text>
<text text-anchor="middle" x="466" y="-560.5" font-family="Helvetica,sans-Serif" font-size="10.00">::getPickingResults</text>
</a>
</g>
</g>
<!-- Node3&#45;&gt;Node5 -->
<g id="edge4" class="edge"><title>Node3&#45;&gt;Node5</title>
<path fill="none" stroke="midnightblue" d="M333.991,-534.535C354.224,-539.78 377.097,-545.71 398.003,-551.13"/>
<polygon fill="midnightblue" stroke="midnightblue" points="397.21,-554.541 407.769,-553.662 398.967,-547.765 397.21,-554.541"/>
</g>
<!-- Node6 -->
<g id="node6" class="node"><title>Node6</title>
<g id="a_node6"><a xlink:href="classRa_1_1Gui_1_1PickingManager.html#acc32a270073f0496c3f96f880521b07e" target="_top" xlink:title="Ra::Gui::PickingManager\l::setCurrent">
<polygon fill="white" stroke="black" points="400.5,-504.5 400.5,-534.5 531.5,-534.5 531.5,-504.5 400.5,-504.5"/>
<text text-anchor="start" x="408.5" y="-522.5" font-family="Helvetica,sans-Serif" font-size="10.00">Ra::Gui::PickingManager</text>
<text text-anchor="middle" x="466" y="-511.5" font-family="Helvetica,sans-Serif" font-size="10.00">::setCurrent</text>
</a>
</g>
</g>
<!-- Node3&#45;&gt;Node6 -->
<g id="edge5" class="edge"><title>Node3&#45;&gt;Node6</title>
<path fill="none" stroke="midnightblue" d="M340.514,-519.5C356.543,-519.5 373.856,-519.5 390.328,-519.5"/>
<polygon fill="midnightblue" stroke="midnightblue" points="390.456,-523 400.456,-519.5 390.456,-516 390.456,-523"/>
</g>
<!-- Node8 -->
<g id="node8" class="node"><title>Node8</title>
<g id="a_node8"><a xlink:href="classRa_1_1Gui_1_1PickingManager.html#a0e09b5c72c23cfc60f0c1d2f0d00a809" target="_top" xlink:title="Ra::Gui::PickingManager\l::clear">
<polygon fill="white" stroke="black" points="400.5,-455.5 400.5,-485.5 531.5,-485.5 531.5,-455.5 400.5,-455.5"/>
<text text-anchor="start" x="408.5" y="-473.5" font-family="Helvetica,sans-Serif" font-size="10.00">Ra::Gui::PickingManager</text>
<text text-anchor="middle" x="466" y="-462.5" font-family="Helvetica,sans-Serif" font-size="10.00">::clear</text>
</a>
</g>
</g>
<!-- Node7&#45;&gt;Node8 -->
<g id="edge7" class="edge"><title>Node7&#45;&gt;Node8</title>
<path fill="none" stroke="midnightblue" d="M312.89,-431.064C336.818,-437.268 368.715,-445.537 397.118,-452.901"/>
<polygon fill="midnightblue" stroke="midnightblue" points="396.442,-456.341 407,-455.463 398.199,-449.565 396.442,-456.341"/>
</g>
<!-- Node11 -->
<g id="node11" class="node"><title>Node11</title>
<g id="a_node11"><a xlink:href="classRa_1_1Engine_1_1Renderer.html#aae06e80b86860b118f7d4a8970fa883f" target="_top" xlink:title="Tell if the renderer has an usable light. ">
<polygon fill="white" stroke="black" points="408,-406.5 408,-436.5 524,-436.5 524,-406.5 408,-406.5"/>
<text text-anchor="start" x="416" y="-424.5" font-family="Helvetica,sans-Serif" font-size="10.00">Ra::Engine::Renderer</text>
<text text-anchor="middle" x="466" y="-413.5" font-family="Helvetica,sans-Serif" font-size="10.00">::hasLight</text>
</a>
</g>
</g>
<!-- Node7&#45;&gt;Node11 -->
<g id="edge10" class="edge"><title>Node7&#45;&gt;Node11</title>
<path fill="none" stroke="midnightblue" d="M357.25,-421.5C370.671,-421.5 384.455,-421.5 397.491,-421.5"/>
<polygon fill="midnightblue" stroke="midnightblue" points="397.765,-425 407.765,-421.5 397.765,-418 397.765,-425"/>
</g>
<!-- Node12 -->
<g id="node12" class="node"><title>Node12</title>
<g id="a_node12"><a xlink:href="classRa_1_1Engine_1_1Renderer.html#ad8e27588477d7e65666598cdfd1d4fbb" target="_top" xlink:title="Add a light to the renderer. ">
<polygon fill="white" stroke="black" points="408,-357.5 408,-387.5 524,-387.5 524,-357.5 408,-357.5"/>
<text text-anchor="start" x="416" y="-375.5" font-family="Helvetica,sans-Serif" font-size="10.00">Ra::Engine::Renderer</text>
<text text-anchor="middle" x="466" y="-364.5" font-family="Helvetica,sans-Serif" font-size="10.00">::addLight</text>
</a>
</g>
</g>
<!-- Node7&#45;&gt;Node12 -->
<g id="edge11" class="edge"><title>Node7&#45;&gt;Node12</title>
<path fill="none" stroke="midnightblue" d="M318.12,-411.961C330.657,-409.03 344.407,-405.725 357,-402.5 371.923,-398.679 387.944,-394.352 402.956,-390.198"/>
<polygon fill="midnightblue" stroke="midnightblue" points="403.958,-393.553 412.654,-387.501 402.082,-386.809 403.958,-393.553"/>
</g>
<!-- Node13 -->
<g id="node13" class="node"><title>Node13</title>
<g id="a_node13"><a xlink:href="classRa_1_1Engine_1_1Renderer.html#affc431edcc808c4bd5ca80bfe03a2c55" target="_top" xlink:title="Tell the renderer it needs to render. ">
<polygon fill="white" stroke="black" points="408,-308.5 408,-338.5 524,-338.5 524,-308.5 408,-308.5"/>
<text text-anchor="start" x="416" y="-326.5" font-family="Helvetica,sans-Serif" font-size="10.00">Ra::Engine::Renderer</text>
<text text-anchor="middle" x="466" y="-315.5" font-family="Helvetica,sans-Serif" font-size="10.00">::render</text>
</a>
</g>
</g>
<!-- Node7&#45;&gt;Node13 -->
<g id="edge12" class="edge"><title>Node7&#45;&gt;Node13</title>
<path fill="none" stroke="midnightblue" d="M338.659,-411.925C345.163,-409.46 351.422,-406.37 357,-402.5 380.698,-386.057 370.187,-366.151 393,-348.5 395.306,-346.716 397.748,-345.054 400.286,-343.506"/>
<polygon fill="midnightblue" stroke="midnightblue" points="402.094,-346.508 409.225,-338.672 398.764,-340.35 402.094,-346.508"/>
</g>
<!-- Node9 -->
<g id="node9" class="node"><title>Node9</title>
<g id="a_node9"><a xlink:href="classRa_1_1Core_1_1Utils_1_1Index.html#a771f93efd49538950e3cb9e57e46fbaf" target="_top" xlink:title="Ra::Core::Utils::Index\l::Invalid">
<polygon fill="white" stroke="black" points="608,-553.5 608,-583.5 724,-583.5 724,-553.5 608,-553.5"/>
<text text-anchor="start" x="616" y="-571.5" font-family="Helvetica,sans-Serif" font-size="10.00">Ra::Core::Utils::Index</text>
<text text-anchor="middle" x="666" y="-560.5" font-family="Helvetica,sans-Serif" font-size="10.00">::Invalid</text>
</a>
</g>
</g>
<!-- Node8&#45;&gt;Node9 -->
<g id="edge8" class="edge"><title>Node8&#45;&gt;Node9</title>
<path fill="none" stroke="midnightblue" d="M521.863,-485.552C527.925,-488.359 533.783,-491.65 539,-495.5 560.745,-511.545 552.679,-529.266 575,-544.5 582.008,-549.283 589.924,-553.114 598.082,-556.181"/>
<polygon fill="midnightblue" stroke="midnightblue" points="597.134,-559.556 607.729,-559.443 599.377,-552.924 597.134,-559.556"/>
</g>
<!-- Node10 -->
<g id="node10" class="node"><title>Node10</title>
<g id="a_node10"><a xlink:href="classRa_1_1Core_1_1Utils_1_1Index.html#ab3ba134498a9c2f1f3f9ccadd984a8e8" target="_top" xlink:title="CONSTRUCTOR Default constructor that allow implicit conversion from integer to Index. ">
<polygon fill="white" stroke="black" points="793,-553.5 793,-583.5 909,-583.5 909,-553.5 793,-553.5"/>
<text text-anchor="start" x="801" y="-571.5" font-family="Helvetica,sans-Serif" font-size="10.00">Ra::Core::Utils::Index</text>
<text text-anchor="middle" x="851" y="-560.5" font-family="Helvetica,sans-Serif" font-size="10.00">::Index</text>
</a>
</g>
</g>
<!-- Node9&#45;&gt;Node10 -->
<g id="edge9" class="edge"><title>Node9&#45;&gt;Node10</title>
<path fill="none" stroke="midnightblue" d="M724.15,-568.5C742.729,-568.5 763.518,-568.5 782.764,-568.5"/>
<polygon fill="midnightblue" stroke="midnightblue" points="782.969,-572 792.969,-568.5 782.969,-565 782.969,-572"/>
</g>
<!-- Node14 -->
<g id="node14" class="node"><title>Node14</title>
<g id="a_node14"><a xlink:href="classRa_1_1Engine_1_1Renderer.html#a54631e8470c2638009457f53628dac57" target="_top" xlink:title="Update the renderer dependent resources for the next frame. ">
<polygon fill="white" stroke="black" points="608,-504.5 608,-534.5 724,-534.5 724,-504.5 608,-504.5"/>
<text text-anchor="start" x="616" y="-522.5" font-family="Helvetica,sans-Serif" font-size="10.00">Ra::Engine::Renderer</text>
<text text-anchor="middle" x="666" y="-511.5" font-family="Helvetica,sans-Serif" font-size="10.00">::updateStepInternal</text>
</a>
</g>
</g>
<!-- Node13&#45;&gt;Node14 -->
<g id="edge13" class="edge"><title>Node13&#45;&gt;Node14</title>
<path fill="none" stroke="midnightblue" d="M524.24,-337.085C529.738,-340.147 534.814,-343.901 539,-348.5 584.275,-398.246 527.926,-447.454 575,-495.5 581.483,-502.116 589.57,-506.974 598.22,-510.527"/>
<polygon fill="midnightblue" stroke="midnightblue" points="597.182,-513.873 607.777,-513.894 599.508,-507.27 597.182,-513.873"/>
</g>
<!-- Node15 -->
<g id="node15" class="node"><title>Node15</title>
<g id="a_node15"><a xlink:href="classRa_1_1Engine_1_1Renderer.html#a0991bff12be739a189f5a173458b6623" target="_top" xlink:title="All the scene rendering magics basically happens here. ">
<polygon fill="white" stroke="black" points="608,-455.5 608,-485.5 724,-485.5 724,-455.5 608,-455.5"/>
<text text-anchor="start" x="616" y="-473.5" font-family="Helvetica,sans-Serif" font-size="10.00">Ra::Engine::Renderer</text>
<text text-anchor="middle" x="666" y="-462.5" font-family="Helvetica,sans-Serif" font-size="10.00">::renderInternal</text>
</a>
</g>
</g>
<!-- Node13&#45;&gt;Node15 -->
<g id="edge14" class="edge"><title>Node13&#45;&gt;Node15</title>
<path fill="none" stroke="midnightblue" d="M524.096,-337.758C529.551,-340.695 534.658,-344.235 539,-348.5 572.102,-381.017 540.724,-415.223 575,-446.5 581.596,-452.519 589.534,-457.058 597.928,-460.475"/>
<polygon fill="midnightblue" stroke="midnightblue" points="596.957,-463.844 607.551,-463.876 599.289,-457.244 596.957,-463.844"/>
</g>
<!-- Node16 -->
<g id="node16" class="node"><title>Node16</title>
<g id="a_node16"><a xlink:href="classRa_1_1Engine_1_1Renderer.html#a75b434244e669f4be43889a820011b79" target="_top" xlink:title="Do all post processing stuff. ">
<polygon fill="white" stroke="black" points="607.5,-406.5 607.5,-436.5 724.5,-436.5 724.5,-406.5 607.5,-406.5"/>
<text text-anchor="start" x="615.5" y="-424.5" font-family="Helvetica,sans-Serif" font-size="10.00">Ra::Engine::Renderer</text>
<text text-anchor="middle" x="666" y="-413.5" font-family="Helvetica,sans-Serif" font-size="10.00">::postProcessInternal</text>
</a>
</g>
</g>
<!-- Node13&#45;&gt;Node16 -->
<g id="edge15" class="edge"><title>Node13&#45;&gt;Node16</title>
<path fill="none" stroke="midnightblue" d="M521.863,-338.552C527.925,-341.359 533.783,-344.65 539,-348.5 560.745,-364.545 552.679,-382.266 575,-397.5 581.912,-402.217 589.707,-406.008 597.746,-409.055"/>
<polygon fill="midnightblue" stroke="midnightblue" points="596.663,-412.383 607.257,-412.3 598.923,-405.758 596.663,-412.383"/>
</g>
<!-- Node17 -->
<g id="node17" class="node"><title>Node17</title>
<g id="a_node17"><a xlink:href="classRa_1_1Engine_1_1Renderer.html#a4bf7ab27df3a206bcb0b759f28dab716" target="_top" xlink:title="Add the debug layer with useful informations. ">
<polygon fill="white" stroke="black" points="608,-357.5 608,-387.5 724,-387.5 724,-357.5 608,-357.5"/>
<text text-anchor="start" x="616" y="-375.5" font-family="Helvetica,sans-Serif" font-size="10.00">Ra::Engine::Renderer</text>
<text text-anchor="middle" x="666" y="-364.5" font-family="Helvetica,sans-Serif" font-size="10.00">::debugInternal</text>
</a>
</g>
</g>
<!-- Node13&#45;&gt;Node17 -->
<g id="edge16" class="edge"><title>Node13&#45;&gt;Node17</title>
<path fill="none" stroke="midnightblue" d="M524.004,-337.607C547.098,-343.322 573.936,-349.964 597.96,-355.909"/>
<polygon fill="midnightblue" stroke="midnightblue" points="597.165,-359.318 607.713,-358.323 598.846,-352.523 597.165,-359.318"/>
</g>
<!-- Node18 -->
<g id="node18" class="node"><title>Node18</title>
<g id="a_node18"><a xlink:href="classRa_1_1Engine_1_1Renderer.html#a02f80a1fa78786ad58d68393225aed64" target="_top" xlink:title="Draw the UI data. ">
<polygon fill="white" stroke="black" points="608,-308.5 608,-338.5 724,-338.5 724,-308.5 608,-308.5"/>
<text text-anchor="start" x="616" y="-326.5" font-family="Helvetica,sans-Serif" font-size="10.00">Ra::Engine::Renderer</text>
<text text-anchor="middle" x="666" y="-315.5" font-family="Helvetica,sans-Serif" font-size="10.00">::uiInternal</text>
</a>
</g>
</g>
<!-- Node13&#45;&gt;Node18 -->
<g id="edge17" class="edge"><title>Node13&#45;&gt;Node18</title>
<path fill="none" stroke="midnightblue" d="M524.004,-323.5C546.996,-323.5 573.697,-323.5 597.639,-323.5"/>
<polygon fill="midnightblue" stroke="midnightblue" points="597.713,-327 607.713,-323.5 597.713,-320 597.713,-327"/>
</g>
<!-- Node19 -->
<g id="node19" class="node"><title>Node19</title>
<g id="a_node19"><a xlink:href="classRa_1_1Engine_1_1RenderObjectManager.html#a3375e7e622402ff6781497c3b0610128" target="_top" xlink:title="Get all render objects of the given type, the vector is assumed to be empty whan called. ">
<polygon fill="white" stroke="black" points="575,-259.5 575,-289.5 757,-289.5 757,-259.5 575,-259.5"/>
<text text-anchor="start" x="583" y="-277.5" font-family="Helvetica,sans-Serif" font-size="10.00">Ra::Engine::RenderObject</text>
<text text-anchor="middle" x="666" y="-266.5" font-family="Helvetica,sans-Serif" font-size="10.00">Manager::getRenderObjectsByType</text>
</a>
</g>
</g>
<!-- Node13&#45;&gt;Node19 -->
<g id="edge18" class="edge"><title>Node13&#45;&gt;Node19</title>
<path fill="none" stroke="midnightblue" d="M524.004,-309.393C545.996,-303.95 571.382,-297.668 594.501,-291.947"/>
<polygon fill="midnightblue" stroke="midnightblue" points="595.388,-295.333 604.254,-289.533 593.706,-288.538 595.388,-295.333"/>
</g>
<!-- Node20 -->
<g id="node20" class="node"><title>Node20</title>
<g id="a_node20"><a xlink:href="namespaceOpenMesh.html#a8205f789ce08919bc11c58383574596c" target="_top" xlink:title="OpenMesh::norm">
<polygon fill="white" stroke="black" points="616.5,-221 616.5,-240 715.5,-240 715.5,-221 616.5,-221"/>
<text text-anchor="middle" x="666" y="-228" font-family="Helvetica,sans-Serif" font-size="10.00">OpenMesh::norm</text>
</a>
</g>
</g>
<!-- Node13&#45;&gt;Node20 -->
<g id="edge19" class="edge"><title>Node13&#45;&gt;Node20</title>
<path fill="none" stroke="midnightblue" d="M484.865,-308.285C505.327,-291.64 540.494,-265.355 575,-250.5 584.905,-246.236 595.831,-242.831 606.553,-240.128"/>
<polygon fill="midnightblue" stroke="midnightblue" points="607.372,-243.531 616.308,-237.839 605.773,-236.716 607.372,-243.531"/>
</g>
<!-- Node21 -->
<g id="node21" class="node"><title>Node21</title>
<g id="a_node21"><a xlink:href="classRa_1_1Engine_1_1ShaderProgramManager.html#a5ddf7b2a65b82380204c6bb5da2127d2" target="_top" xlink:title="Get the shader programm corresponding to the given id. ">
<polygon fill="white" stroke="black" points="588,-171.5 588,-201.5 744,-201.5 744,-171.5 588,-171.5"/>
<text text-anchor="start" x="596" y="-189.5" font-family="Helvetica,sans-Serif" font-size="10.00">Ra::Engine::ShaderProgram</text>
<text text-anchor="middle" x="666" y="-178.5" font-family="Helvetica,sans-Serif" font-size="10.00">Manager::getShaderProgram</text>
</a>
</g>
</g>
<!-- Node13&#45;&gt;Node21 -->
<g id="edge20" class="edge"><title>Node13&#45;&gt;Node21</title>
<path fill="none" stroke="midnightblue" d="M489.266,-308.314C504.303,-297.429 524.058,-281.853 539,-265.5 558.457,-244.206 551.64,-228.421 575,-211.5 577.692,-209.55 580.531,-207.752 583.474,-206.094"/>
<polygon fill="midnightblue" stroke="midnightblue" points="585.209,-209.139 592.58,-201.529 582.072,-202.882 585.209,-209.139"/>
</g>
<!-- Node22 -->
<g id="node22" class="node"><title>Node22</title>
<g id="a_node22"><a xlink:href="classRa_1_1Engine_1_1ShaderProgram.html#a63faeab38c95dbcb4514a94c1e785890" target="_top" xlink:title="Ra::Engine::ShaderProgram\l::bind">
<polygon fill="white" stroke="black" points="591.5,-122.5 591.5,-152.5 740.5,-152.5 740.5,-122.5 591.5,-122.5"/>
<text text-anchor="start" x="599.5" y="-140.5" font-family="Helvetica,sans-Serif" font-size="10.00">Ra::Engine::ShaderProgram</text>
<text text-anchor="middle" x="666" y="-129.5" font-family="Helvetica,sans-Serif" font-size="10.00">::bind</text>
</a>
</g>
</g>
<!-- Node13&#45;&gt;Node22 -->
<g id="edge21" class="edge"><title>Node13&#45;&gt;Node22</title>
<path fill="none" stroke="midnightblue" d="M492.368,-308.279C507.739,-297.917 526.692,-282.943 539,-265.5 566.957,-225.877 539.609,-195.652 575,-162.5 577.426,-160.227 580.041,-158.158 582.798,-156.275"/>
<polygon fill="midnightblue" stroke="midnightblue" points="584.623,-159.262 591.454,-151.163 581.063,-153.235 584.623,-159.262"/>
</g>
<!-- Node27 -->
<g id="node27" class="node"><title>Node27</title>
<g id="a_node27"><a xlink:href="namespaceRa_1_1Core_1_1Utils.html#ad4680945a5efebfe2b7b320e9e2a9a61" target="_top" xlink:title="Ra::Core::Utils::getInterval\lMicro">
<polygon fill="white" stroke="black" points="395.5,-225.5 395.5,-255.5 536.5,-255.5 536.5,-225.5 395.5,-225.5"/>
<text text-anchor="start" x="403.5" y="-243.5" font-family="Helvetica,sans-Serif" font-size="10.00">Ra::Core::Utils::getInterval</text>
<text text-anchor="middle" x="466" y="-232.5" font-family="Helvetica,sans-Serif" font-size="10.00">Micro</text>
</a>
</g>
</g>
<!-- Node26&#45;&gt;Node27 -->
<g id="edge26" class="edge"><title>Node26&#45;&gt;Node27</title>
<path fill="none" stroke="midnightblue" d="M332.706,-240.5C349.158,-240.5 367.439,-240.5 385.032,-240.5"/>
<polygon fill="midnightblue" stroke="midnightblue" points="385.292,-244 395.292,-240.5 385.292,-237 385.292,-244"/>
</g>
<!-- Node29 -->
<g id="node29" class="node"><title>Node29</title>
<g id="a_node29"><a xlink:href="classRa_1_1Gui_1_1Viewer.html#ab3854bf1c656d1f6bf7e12e61251e9dc" target="_top" xlink:title="Write the current frame as an image. Supports either BMP or PNG file names. ">
<polygon fill="white" stroke="black" points="393,-79 393,-98 539,-98 539,-79 393,-79"/>
<text text-anchor="middle" x="466" y="-86" font-family="Helvetica,sans-Serif" font-size="10.00">Ra::Gui::Viewer::grabFrame</text>
</a>
</g>
</g>
<!-- Node28&#45;&gt;Node29 -->
<g id="edge28" class="edge"><title>Node28&#45;&gt;Node29</title>
<path fill="none" stroke="midnightblue" d="M335.741,-176.364C343.05,-173.769 350.297,-170.819 357,-167.5 391.399,-150.466 426.385,-122.509 446.87,-104.827"/>
<polygon fill="midnightblue" stroke="midnightblue" points="449.263,-107.384 454.472,-98.1583 444.647,-102.122 449.263,-107.384"/>
</g>
<!-- Node30 -->
<g id="node30" class="node"><title>Node30</title>
<g id="a_node30"><a xlink:href="classRa_1_1Engine_1_1Renderer.html#a584cc744ee0f15884f5f853209c055cd" target="_top" xlink:title="Ra::Engine::Renderer\l::grabFrame">
<polygon fill="white" stroke="black" points="608,-73.5 608,-103.5 724,-103.5 724,-73.5 608,-73.5"/>
<text text-anchor="start" x="616" y="-91.5" font-family="Helvetica,sans-Serif" font-size="10.00">Ra::Engine::Renderer</text>
<text text-anchor="middle" x="666" y="-80.5" font-family="Helvetica,sans-Serif" font-size="10.00">::grabFrame</text>
</a>
</g>
</g>
<!-- Node29&#45;&gt;Node30 -->
<g id="edge29" class="edge"><title>Node29&#45;&gt;Node30</title>
<path fill="none" stroke="midnightblue" d="M539.043,-88.5C558.257,-88.5 578.937,-88.5 597.876,-88.5"/>
<polygon fill="midnightblue" stroke="midnightblue" points="597.899,-92.0001 607.899,-88.5 597.899,-85.0001 597.899,-92.0001"/>
</g>
<!-- Node35 -->
<g id="node35" class="node"><title>Node35</title>
<g id="a_node35"><a xlink:href="namespaceRa_1_1Core_1_1Utils.html#aad2a7bedc49e227d0503794d76acbfea" target="_top" xlink:title="Ra::Core::Utils::getFileExt">
<polygon fill="white" stroke="black" points="598,-35 598,-54 734,-54 734,-35 598,-35"/>
<text text-anchor="middle" x="666" y="-42" font-family="Helvetica,sans-Serif" font-size="10.00">Ra::Core::Utils::getFileExt</text>
</a>
</g>
</g>
<!-- Node29&#45;&gt;Node35 -->
<g id="edge34" class="edge"><title>Node29&#45;&gt;Node35</title>
<path fill="none" stroke="midnightblue" d="M509.963,-78.9527C539.931,-72.2931 580.114,-63.3637 612.061,-56.2642"/>
<polygon fill="midnightblue" stroke="midnightblue" points="613.118,-59.6147 622.121,-54.0287 611.6,-52.7814 613.118,-59.6147"/>
</g>
<!-- Node31 -->
<g id="node31" class="node"><title>Node31</title>
<g id="a_node31"><a xlink:href="classRa_1_1Engine_1_1Renderer.html#a8a68ecdea83da2148ef303176bcffac8" target="_top" xlink:title="Get the currently displayed texture. ">
<polygon fill="white" stroke="black" points="793,-147.5 793,-177.5 909,-177.5 909,-147.5 793,-147.5"/>
<text text-anchor="start" x="801" y="-165.5" font-family="Helvetica,sans-Serif" font-size="10.00">Ra::Engine::Renderer</text>
<text text-anchor="middle" x="851" y="-154.5" font-family="Helvetica,sans-Serif" font-size="10.00">::getDisplayTexture</text>
</a>
</g>
</g>
<!-- Node30&#45;&gt;Node31 -->
<g id="edge30" class="edge"><title>Node30&#45;&gt;Node31</title>
<path fill="none" stroke="midnightblue" d="M724.22,-101.274C735.339,-104.62 746.725,-108.676 757,-113.5 774.633,-121.779 775.931,-129.114 793,-138.5 795.87,-140.078 798.865,-141.621 801.914,-143.114"/>
<polygon fill="midnightblue" stroke="midnightblue" points="800.615,-146.37 811.157,-147.432 803.578,-140.028 800.615,-146.37"/>
</g>
<!-- Node32 -->
<g id="node32" class="node"><title>Node32</title>
<g id="a_node32"><a xlink:href="classRa_1_1Engine_1_1Texture.html#a9ba7fb88d2b2b023ad5e68f2d4f3f1bb" target="_top" xlink:title="Bind the texture to enable its use in a shader. ">
<polygon fill="white" stroke="black" points="797.5,-98.5 797.5,-128.5 904.5,-128.5 904.5,-98.5 797.5,-98.5"/>
<text text-anchor="start" x="805.5" y="-116.5" font-family="Helvetica,sans-Serif" font-size="10.00">Ra::Engine::Texture</text>
<text text-anchor="middle" x="851" y="-105.5" font-family="Helvetica,sans-Serif" font-size="10.00">::bind</text>
</a>
</g>
</g>
<!-- Node30&#45;&gt;Node32 -->
<g id="edge31" class="edge"><title>Node30&#45;&gt;Node32</title>
<path fill="none" stroke="midnightblue" d="M724.15,-96.3073C744.156,-99.0404 766.725,-102.124 787.17,-104.917"/>
<polygon fill="midnightblue" stroke="midnightblue" points="786.946,-108.419 797.328,-106.304 787.894,-101.483 786.946,-108.419"/>
</g>
<!-- Node33 -->
<g id="node33" class="node"><title>Node33</title>
<g id="a_node33"><a xlink:href="classRa_1_1Engine_1_1Texture.html#a5fb64b92e7a9025f6ad315f84eba2dca" target="_top" xlink:title="Ra::Engine::Texture\l::width">
<polygon fill="white" stroke="black" points="797.5,-49.5 797.5,-79.5 904.5,-79.5 904.5,-49.5 797.5,-49.5"/>
<text text-anchor="start" x="805.5" y="-67.5" font-family="Helvetica,sans-Serif" font-size="10.00">Ra::Engine::Texture</text>
<text text-anchor="middle" x="851" y="-56.5" font-family="Helvetica,sans-Serif" font-size="10.00">::width</text>
</a>
</g>
</g>
<!-- Node30&#45;&gt;Node33 -->
<g id="edge32" class="edge"><title>Node30&#45;&gt;Node33</title>
<path fill="none" stroke="midnightblue" d="M724.15,-81.005C744.156,-78.3812 766.725,-75.4213 787.17,-72.74"/>
<polygon fill="midnightblue" stroke="midnightblue" points="787.868,-76.1785 797.328,-71.4078 786.958,-69.2379 787.868,-76.1785"/>
</g>
<!-- Node34 -->
<g id="node34" class="node"><title>Node34</title>
<g id="a_node34"><a xlink:href="classRa_1_1Engine_1_1Texture.html#a42c27099c6aa960f13485a4477517296" target="_top" xlink:title="Ra::Engine::Texture\l::height">
<polygon fill="white" stroke="black" points="797.5,-0.5 797.5,-30.5 904.5,-30.5 904.5,-0.5 797.5,-0.5"/>
<text text-anchor="start" x="805.5" y="-18.5" font-family="Helvetica,sans-Serif" font-size="10.00">Ra::Engine::Texture</text>
<text text-anchor="middle" x="851" y="-7.5" font-family="Helvetica,sans-Serif" font-size="10.00">::height</text>
</a>
</g>
</g>
<!-- Node30&#45;&gt;Node34 -->
<g id="edge33" class="edge"><title>Node30&#45;&gt;Node34</title>
<path fill="none" stroke="midnightblue" d="M724.076,-75.4115C735.207,-72.0914 746.634,-68.126 757,-63.5 774.339,-55.7626 776.256,-49.4512 793,-40.5 796.544,-38.6055 800.261,-36.7339 804.026,-34.9185"/>
<polygon fill="midnightblue" stroke="midnightblue" points="805.83,-37.9394 813.413,-30.5406 802.871,-31.5954 805.83,-37.9394"/>
</g>
</g>
</svg>
