<?xml version="1.0" encoding="UTF-8" standalone="no"?>
<!DOCTYPE svg PUBLIC "-//W3C//DTD SVG 1.1//EN"
 "http://www.w3.org/Graphics/SVG/1.1/DTD/svg11.dtd">
<!-- Generated by graphviz version 2.38.0 (20140413.2041)
 -->
<!-- Title: Ra::Engine::Renderer Pages: 1 -->
<svg width="1458pt" height="1472pt"
 viewBox="0.00 0.00 1457.50 1472.00" xmlns="http://www.w3.org/2000/svg" xmlns:xlink="http://www.w3.org/1999/xlink">
<g id="graph0" class="graph" transform="scale(1 1) rotate(0) translate(4 1468)">
<title>Ra::Engine::Renderer</title>
<polygon fill="white" stroke="none" points="-4,4 -4,-1468 1453.5,-1468 1453.5,4 -4,4"/>
<!-- Node1 -->
<g id="node1" class="node"><title>Node1</title>
<polygon fill="#bfbfbf" stroke="black" points="634.5,-0.5 634.5,-409.5 767.5,-409.5 767.5,-0.5 634.5,-0.5"/>
<text text-anchor="middle" x="701" y="-397.5" font-family="Helvetica,sans-Serif" font-size="10.00">Ra::Engine::Renderer</text>
<polyline fill="none" stroke="black" points="634.5,-390.5 767.5,-390.5 "/>
<text text-anchor="middle" x="701" y="-378.5" font-family="Helvetica,sans-Serif" font-size="10.00"> </text>
<polyline fill="none" stroke="black" points="634.5,-371.5 767.5,-371.5 "/>
<text text-anchor="start" x="642.5" y="-359.5" font-family="Helvetica,sans-Serif" font-size="10.00">+ Renderer()</text>
<text text-anchor="start" x="642.5" y="-348.5" font-family="Helvetica,sans-Serif" font-size="10.00">+ ~Renderer()</text>
<text text-anchor="start" x="642.5" y="-337.5" font-family="Helvetica,sans-Serif" font-size="10.00">+ getTimerData()</text>
<text text-anchor="start" x="642.5" y="-326.5" font-family="Helvetica,sans-Serif" font-size="10.00">+ getDisplayTexture()</text>
<text text-anchor="start" x="642.5" y="-315.5" font-family="Helvetica,sans-Serif" font-size="10.00">+ lockRendering()</text>
<text text-anchor="start" x="642.5" y="-304.5" font-family="Helvetica,sans-Serif" font-size="10.00">+ unlockRendering()</text>
<text text-anchor="start" x="642.5" y="-293.5" font-family="Helvetica,sans-Serif" font-size="10.00">+ toggleWireframe()</text>
<text text-anchor="start" x="642.5" y="-282.5" font-family="Helvetica,sans-Serif" font-size="10.00">+ enableWireframe()</text>
<text text-anchor="start" x="642.5" y="-271.5" font-family="Helvetica,sans-Serif" font-size="10.00">+ toggleDrawDebug()</text>
<text text-anchor="start" x="642.5" y="-260.5" font-family="Helvetica,sans-Serif" font-size="10.00">+ enableDebugDraw()</text>
<text text-anchor="start" x="642.5" y="-249.5" font-family="Helvetica,sans-Serif" font-size="10.00">+ enablePostProcess()</text>
<text text-anchor="start" x="642.5" y="-238.5" font-family="Helvetica,sans-Serif" font-size="10.00">+ render()</text>
<text text-anchor="start" x="642.5" y="-227.5" font-family="Helvetica,sans-Serif" font-size="10.00">+ initialize()</text>
<text text-anchor="start" x="642.5" y="-216.5" font-family="Helvetica,sans-Serif" font-size="10.00">+ resize()</text>
<text text-anchor="start" x="642.5" y="-205.5" font-family="Helvetica,sans-Serif" font-size="10.00">+ addPickingRequest()</text>
<text text-anchor="start" x="642.5" y="-194.5" font-family="Helvetica,sans-Serif" font-size="10.00">+ getPickingResults()</text>
<text text-anchor="start" x="642.5" y="-183.5" font-family="Helvetica,sans-Serif" font-size="10.00">+ getPickingQueries()</text>
<text text-anchor="start" x="642.5" y="-172.5" font-family="Helvetica,sans-Serif" font-size="10.00">+ setMousePosition()</text>
<text text-anchor="start" x="642.5" y="-161.5" font-family="Helvetica,sans-Serif" font-size="10.00">+ setBrushRadius()</text>
<text text-anchor="start" x="642.5" y="-150.5" font-family="Helvetica,sans-Serif" font-size="10.00">+ hasLight()</text>
<text text-anchor="start" x="642.5" y="-139.5" font-family="Helvetica,sans-Serif" font-size="10.00">+ addLight()</text>
<text text-anchor="start" x="642.5" y="-128.5" font-family="Helvetica,sans-Serif" font-size="10.00">+ reloadShaders()</text>
<text text-anchor="start" x="642.5" y="-117.5" font-family="Helvetica,sans-Serif" font-size="10.00">+ displayTexture()</text>
<text text-anchor="start" x="642.5" y="-106.5" font-family="Helvetica,sans-Serif" font-size="10.00">+ getAvailableTextures()</text>
<text text-anchor="start" x="642.5" y="-95.5" font-family="Helvetica,sans-Serif" font-size="10.00">+ getRendererName()</text>
<text text-anchor="start" x="642.5" y="-84.5" font-family="Helvetica,sans-Serif" font-size="10.00">+ grabFrame()</text>
<text text-anchor="start" x="642.5" y="-73.5" font-family="Helvetica,sans-Serif" font-size="10.00"># initializeInternal()</text>
<text text-anchor="start" x="642.5" y="-62.5" font-family="Helvetica,sans-Serif" font-size="10.00"># resizeInternal()</text>
<text text-anchor="start" x="642.5" y="-51.5" font-family="Helvetica,sans-Serif" font-size="10.00"># updateStepInternal()</text>
<text text-anchor="start" x="642.5" y="-40.5" font-family="Helvetica,sans-Serif" font-size="10.00"># renderInternal()</text>
<text text-anchor="start" x="642.5" y="-29.5" font-family="Helvetica,sans-Serif" font-size="10.00"># postProcessInternal()</text>
<text text-anchor="start" x="642.5" y="-18.5" font-family="Helvetica,sans-Serif" font-size="10.00"># debugInternal()</text>
<text text-anchor="start" x="642.5" y="-7.5" font-family="Helvetica,sans-Serif" font-size="10.00"># uiInternal()</text>
</g>
<!-- Node2 -->
<g id="node2" class="node"><title>Node2</title>
<polygon fill="white" stroke="#bfbfbf" points="0,-556.5 0,-624.5 130,-624.5 130,-556.5 0,-556.5"/>
<text text-anchor="start" x="8" y="-612.5" font-family="Helvetica,sans-Serif" font-size="10.00">std::map&lt; std::string,</text>
<text text-anchor="middle" x="65" y="-601.5" font-family="Helvetica,sans-Serif" font-size="10.00"> Ra::Engine::Texture * &gt;</text>
<polyline fill="none" stroke="#bfbfbf" points="0,-594.5 130,-594.5 "/>
<text text-anchor="middle" x="65" y="-582.5" font-family="Helvetica,sans-Serif" font-size="10.00"> </text>
<polyline fill="none" stroke="#bfbfbf" points="0,-575.5 130,-575.5 "/>
<text text-anchor="middle" x="65" y="-563.5" font-family="Helvetica,sans-Serif" font-size="10.00"> </text>
</g>
<!-- Node2&#45;&gt;Node1 -->
<g id="edge1" class="edge"><title>Node2&#45;&gt;Node1</title>
<path fill="none" stroke="#404040" d="M65.4839,-556.222C67.7607,-520.287 76.7035,-463.441 109,-428 246.021,-277.638 494.913,-228.634 621.889,-213.037"/>
<polygon fill="none" stroke="#404040" points="622.242,-212.996 627.731,-208.319 634.159,-211.588 628.67,-216.264 622.242,-212.996"/>
<text text-anchor="middle" x="167" y="-447.5" font-family="Helvetica,sans-Serif" font-size="10.00"> #m_secondaryTextures</text>
</g>
<!-- Node3 -->
<g id="node3" class="node"><title>Node3</title>
<g id="a_node3"><a xlink:href="classRa_1_1Engine_1_1Texture.html" target="_top" xlink:title="Represent a Texture of the engine See TextureManager to informations about how unique texture are def...">
<polygon fill="white" stroke="black" points="173.5,-782.5 173.5,-1026.5 298.5,-1026.5 298.5,-782.5 173.5,-782.5"/>
<text text-anchor="middle" x="236" y="-1014.5" font-family="Helvetica,sans-Serif" font-size="10.00">Ra::Engine::Texture</text>
<polyline fill="none" stroke="black" points="173.5,-1007.5 298.5,-1007.5 "/>
<text text-anchor="middle" x="236" y="-995.5" font-family="Helvetica,sans-Serif" font-size="10.00"> </text>
<polyline fill="none" stroke="black" points="173.5,-988.5 298.5,-988.5 "/>
<text text-anchor="start" x="181.5" y="-976.5" font-family="Helvetica,sans-Serif" font-size="10.00">+ Texture()</text>
<text text-anchor="start" x="181.5" y="-965.5" font-family="Helvetica,sans-Serif" font-size="10.00">+ operator=()</text>
<text text-anchor="start" x="181.5" y="-954.5" font-family="Helvetica,sans-Serif" font-size="10.00">+ Texture()</text>
<text text-anchor="start" x="181.5" y="-943.5" font-family="Helvetica,sans-Serif" font-size="10.00">+ ~Texture()</text>
<text text-anchor="start" x="181.5" y="-932.5" font-family="Helvetica,sans-Serif" font-size="10.00">+ initializeGL()</text>
<text text-anchor="start" x="181.5" y="-921.5" font-family="Helvetica,sans-Serif" font-size="10.00">+ generateCube()</text>
<text text-anchor="start" x="181.5" y="-910.5" font-family="Helvetica,sans-Serif" font-size="10.00">+ bind()</text>
<text text-anchor="start" x="181.5" y="-899.5" font-family="Helvetica,sans-Serif" font-size="10.00">+ getName()</text>
<text text-anchor="start" x="181.5" y="-888.5" font-family="Helvetica,sans-Serif" font-size="10.00">+ updateData()</text>
<text text-anchor="start" x="181.5" y="-877.5" font-family="Helvetica,sans-Serif" font-size="10.00">+ updateParameters()</text>
<text text-anchor="start" x="181.5" y="-866.5" font-family="Helvetica,sans-Serif" font-size="10.00">+ linearize()</text>
<text text-anchor="start" x="181.5" y="-855.5" font-family="Helvetica,sans-Serif" font-size="10.00">+ format()</text>
<text text-anchor="start" x="181.5" y="-844.5" font-family="Helvetica,sans-Serif" font-size="10.00">+ width()</text>
<text text-anchor="start" x="181.5" y="-833.5" font-family="Helvetica,sans-Serif" font-size="10.00">+ height()</text>
<text text-anchor="start" x="181.5" y="-822.5" font-family="Helvetica,sans-Serif" font-size="10.00">+ depth()</text>
<text text-anchor="start" x="181.5" y="-811.5" font-family="Helvetica,sans-Serif" font-size="10.00">+ texels()</text>
<text text-anchor="start" x="181.5" y="-800.5" font-family="Helvetica,sans-Serif" font-size="10.00">+ texture()</text>
<text text-anchor="start" x="181.5" y="-789.5" font-family="Helvetica,sans-Serif" font-size="10.00">+ resize()</text>
</a>
</g>
</g>
<!-- Node3&#45;&gt;Node1 -->
<g id="edge17" class="edge"><title>Node3&#45;&gt;Node1</title>
<path fill="none" stroke="#404040" d="M227.152,-782.493C221.771,-678.563 220.46,-538.11 248,-490 329.897,-346.935 516.172,-265.69 622.594,-229.343"/>
<polygon fill="none" stroke="#404040" points="622.84,-229.26 627.256,-223.56 634.216,-225.443 629.8,-231.144 622.84,-229.26"/>
<text text-anchor="middle" x="301" y="-588" font-family="Helvetica,sans-Serif" font-size="10.00"> #m_displayedTexture</text>
</g>
<!-- Node3&#45;&gt;Node2 -->
<g id="edge2" class="edge"><title>Node3&#45;&gt;Node2</title>
<path fill="none" stroke="#404040" d="M183.009,-782.393C171.203,-757.737 158.237,-732.244 145,-709 130.451,-683.452 112.118,-656.236 96.6736,-634.437"/>
<polygon fill="none" stroke="#404040" points="96.5595,-634.278 89.8158,-631.724 89.5798,-624.516 96.3234,-627.07 96.5595,-634.278"/>
<text text-anchor="middle" x="185.5" y="-717.5" font-family="Helvetica,sans-Serif" font-size="10.00"> +elements</text>
</g>
<!-- Node21 -->
<g id="node21" class="node"><title>Node21</title>
<polygon fill="white" stroke="#bfbfbf" points="363,-556.5 363,-624.5 475,-624.5 475,-556.5 363,-556.5"/>
<text text-anchor="start" x="371" y="-612.5" font-family="Helvetica,sans-Serif" font-size="10.00">std::unique_ptr&lt; Ra</text>
<text text-anchor="middle" x="419" y="-601.5" font-family="Helvetica,sans-Serif" font-size="10.00">::Engine::Texture &gt;</text>
<polyline fill="none" stroke="#bfbfbf" points="363,-594.5 475,-594.5 "/>
<text text-anchor="middle" x="419" y="-582.5" font-family="Helvetica,sans-Serif" font-size="10.00"> </text>
<polyline fill="none" stroke="#bfbfbf" points="363,-575.5 475,-575.5 "/>
<text text-anchor="start" x="371" y="-563.5" font-family="Helvetica,sans-Serif" font-size="10.00">+ operator&#45;&gt;()</text>
</g>
<!-- Node3&#45;&gt;Node21 -->
<g id="edge25" class="edge"><title>Node3&#45;&gt;Node21</title>
<path fill="none" stroke="#404040" d="M298.722,-796.564C331.11,-741.345 368.854,-676.996 393.298,-635.32"/>
<polygon fill="none" stroke="#404040" points="393.448,-635.064 393.033,-627.865 399.519,-624.713 399.934,-631.913 393.448,-635.064"/>
<text text-anchor="middle" x="362.5" y="-717.5" font-family="Helvetica,sans-Serif" font-size="10.00"> +ptr</text>
</g>
<!-- Node4 -->
<g id="node4" class="node"><title>Node4</title>
<g id="a_node4"><a xlink:href="structRa_1_1Engine_1_1TextureParameters.html" target="_top" xlink:title="Describes the content and parameters of a texture. ">
<polygon fill="white" stroke="black" points="141.5,-1107.5 141.5,-1164.5 304.5,-1164.5 304.5,-1107.5 141.5,-1107.5"/>
<text text-anchor="middle" x="223" y="-1152.5" font-family="Helvetica,sans-Serif" font-size="10.00">Ra::Engine::TextureParameters</text>
<polyline fill="none" stroke="black" points="141.5,-1145.5 304.5,-1145.5 "/>
<text text-anchor="middle" x="223" y="-1133.5" font-family="Helvetica,sans-Serif" font-size="10.00"> </text>
<polyline fill="none" stroke="black" points="141.5,-1126.5 304.5,-1126.5 "/>
<text text-anchor="middle" x="223" y="-1114.5" font-family="Helvetica,sans-Serif" font-size="10.00"> </text>
</a>
</g>
</g>
<!-- Node4&#45;&gt;Node3 -->
<g id="edge3" class="edge"><title>Node4&#45;&gt;Node3</title>
<path fill="none" stroke="#404040" d="M224.568,-1107.32C225.581,-1089.43 226.982,-1064.7 228.457,-1038.67"/>
<polygon fill="none" stroke="#404040" points="228.459,-1038.62 224.805,-1032.4 229.138,-1026.64 232.792,-1032.86 228.459,-1038.62"/>
<text text-anchor="middle" x="285.5" y="-1081" font-family="Helvetica,sans-Serif" font-size="10.00"> +m_textureParameters</text>
</g>
<!-- Node5 -->
<g id="node5" class="node"><title>Node5</title>
<polygon fill="white" stroke="#bfbfbf" points="263.5,-1300.5 263.5,-1357.5 320.5,-1357.5 320.5,-1300.5 263.5,-1300.5"/>
<text text-anchor="middle" x="292" y="-1345.5" font-family="Helvetica,sans-Serif" font-size="10.00">GLenum</text>
<polyline fill="none" stroke="#bfbfbf" points="263.5,-1338.5 320.5,-1338.5 "/>
<text text-anchor="middle" x="292" y="-1326.5" font-family="Helvetica,sans-Serif" font-size="10.00"> </text>
<polyline fill="none" stroke="#bfbfbf" points="263.5,-1319.5 320.5,-1319.5 "/>
<text text-anchor="middle" x="292" y="-1307.5" font-family="Helvetica,sans-Serif" font-size="10.00"> </text>
</g>
<!-- Node5&#45;&gt;Node4 -->
<g id="edge4" class="edge"><title>Node5&#45;&gt;Node4</title>
<path fill="none" stroke="#404040" d="M291.962,-1300.33C290.875,-1269.99 285.974,-1220.64 267,-1183 265.512,-1180.05 263.771,-1177.16 261.857,-1174.36"/>
<polygon fill="none" stroke="#404040" points="261.671,-1174.12 254.831,-1171.83 254.308,-1164.64 261.148,-1166.93 261.671,-1174.12"/>
<text text-anchor="middle" x="330.5" y="-1274" font-family="Helvetica,sans-Serif" font-size="10.00"> +type</text>
<text text-anchor="middle" x="330.5" y="-1263" font-family="Helvetica,sans-Serif" font-size="10.00">+minFilter</text>
<text text-anchor="middle" x="330.5" y="-1252" font-family="Helvetica,sans-Serif" font-size="10.00">+wrapP</text>
<text text-anchor="middle" x="330.5" y="-1241" font-family="Helvetica,sans-Serif" font-size="10.00">+magFilter</text>
<text text-anchor="middle" x="330.5" y="-1230" font-family="Helvetica,sans-Serif" font-size="10.00">+target</text>
<text text-anchor="middle" x="330.5" y="-1219" font-family="Helvetica,sans-Serif" font-size="10.00">+internalFormat</text>
<text text-anchor="middle" x="330.5" y="-1208" font-family="Helvetica,sans-Serif" font-size="10.00">+wrapS</text>
<text text-anchor="middle" x="330.5" y="-1197" font-family="Helvetica,sans-Serif" font-size="10.00">+wrapT</text>
<text text-anchor="middle" x="330.5" y="-1186" font-family="Helvetica,sans-Serif" font-size="10.00">+format</text>
</g>
<!-- Node6 -->
<g id="node6" class="node"><title>Node6</title>
<polygon fill="white" stroke="#bfbfbf" points="138,-1300.5 138,-1357.5 182,-1357.5 182,-1300.5 138,-1300.5"/>
<text text-anchor="middle" x="160" y="-1345.5" font-family="Helvetica,sans-Serif" font-size="10.00">size_t</text>
<polyline fill="none" stroke="#bfbfbf" points="138,-1338.5 182,-1338.5 "/>
<text text-anchor="middle" x="160" y="-1326.5" font-family="Helvetica,sans-Serif" font-size="10.00"> </text>
<polyline fill="none" stroke="#bfbfbf" points="138,-1319.5 182,-1319.5 "/>
<text text-anchor="middle" x="160" y="-1307.5" font-family="Helvetica,sans-Serif" font-size="10.00"> </text>
</g>
<!-- Node6&#45;&gt;Node4 -->
<g id="edge5" class="edge"><title>Node6&#45;&gt;Node4</title>
<path fill="none" stroke="#404040" d="M158.635,-1300.38C158.24,-1270.1 160.902,-1220.78 179,-1183 180.428,-1180.02 182.123,-1177.11 184.002,-1174.29"/>
<polygon fill="none" stroke="#404040" points="184.177,-1174.06 184.649,-1166.87 191.473,-1164.53 191.001,-1171.73 184.177,-1174.06"/>
<text text-anchor="middle" x="199" y="-1241" font-family="Helvetica,sans-Serif" font-size="10.00"> +depth</text>
<text text-anchor="middle" x="199" y="-1230" font-family="Helvetica,sans-Serif" font-size="10.00">+height</text>
<text text-anchor="middle" x="199" y="-1219" font-family="Helvetica,sans-Serif" font-size="10.00">+width</text>
</g>
<!-- Node7 -->
<g id="node7" class="node"><title>Node7</title>
<g id="a_node7"><a xlink:title="STL class. ">
<polygon fill="white" stroke="#bfbfbf" points="20.5,-1300.5 20.5,-1357.5 85.5,-1357.5 85.5,-1300.5 20.5,-1300.5"/>
<text text-anchor="middle" x="53" y="-1345.5" font-family="Helvetica,sans-Serif" font-size="10.00">std::string</text>
<polyline fill="none" stroke="#bfbfbf" points="20.5,-1338.5 85.5,-1338.5 "/>
<text text-anchor="middle" x="53" y="-1326.5" font-family="Helvetica,sans-Serif" font-size="10.00"> </text>
<polyline fill="none" stroke="#bfbfbf" points="20.5,-1319.5 85.5,-1319.5 "/>
<text text-anchor="middle" x="53" y="-1307.5" font-family="Helvetica,sans-Serif" font-size="10.00"> </text>
</a>
</g>
</g>
<!-- Node7&#45;&gt;Node2 -->
<g id="edge9" class="edge"><title>Node7&#45;&gt;Node2</title>
<path fill="none" stroke="#404040" d="M50.1049,-1300.21C41.8657,-1216.66 20.0107,-960.406 38,-749 41.2498,-710.809 48.856,-667.966 55.1698,-636.617"/>
<polygon fill="none" stroke="#404040" points="55.1871,-636.532 52.4767,-629.85 57.6026,-624.778 60.313,-631.46 55.1871,-636.532"/>
<text text-anchor="middle" x="52" y="-1081" font-family="Helvetica,sans-Serif" font-size="10.00"> +keys</text>
</g>
<!-- Node7&#45;&gt;Node4 -->
<g id="edge6" class="edge"><title>Node7&#45;&gt;Node4</title>
<path fill="none" stroke="#404040" d="M58.2709,-1300.47C65.7268,-1268.41 82.2597,-1215.69 115,-1183 119.777,-1178.23 125.126,-1173.92 130.819,-1170.04"/>
<polygon fill="none" stroke="#404040" points="131.183,-1169.82 134.181,-1163.26 141.388,-1163.5 138.39,-1170.06 131.183,-1169.82"/>
<text text-anchor="middle" x="135" y="-1230" font-family="Helvetica,sans-Serif" font-size="10.00"> +name</text>
</g>
<!-- Node8 -->
<g id="node8" class="node"><title>Node8</title>
<g id="a_node8"><a xlink:title="STL class. ">
<polygon fill="white" stroke="#bfbfbf" points="1.5,-1395.5 1.5,-1463.5 104.5,-1463.5 104.5,-1395.5 1.5,-1395.5"/>
<text text-anchor="start" x="9.5" y="-1451.5" font-family="Helvetica,sans-Serif" font-size="10.00">std::basic_string&lt;</text>
<text text-anchor="middle" x="53" y="-1440.5" font-family="Helvetica,sans-Serif" font-size="10.00"> char &gt;</text>
<polyline fill="none" stroke="#bfbfbf" points="1.5,-1433.5 104.5,-1433.5 "/>
<text text-anchor="middle" x="53" y="-1421.5" font-family="Helvetica,sans-Serif" font-size="10.00"> </text>
<polyline fill="none" stroke="#bfbfbf" points="1.5,-1414.5 104.5,-1414.5 "/>
<text text-anchor="middle" x="53" y="-1402.5" font-family="Helvetica,sans-Serif" font-size="10.00"> </text>
</a>
</g>
</g>
<!-- Node8&#45;&gt;Node7 -->
<g id="edge7" class="edge"><title>Node8&#45;&gt;Node7</title>
<path fill="none" stroke="midnightblue" d="M53,-1385.38C53,-1375.94 53,-1366.2 53,-1357.57"/>
<polygon fill="none" stroke="midnightblue" points="49.5001,-1385.43 53,-1395.43 56.5001,-1385.43 49.5001,-1385.43"/>
</g>
<!-- Node9 -->
<g id="node9" class="node"><title>Node9</title>
<polygon fill="white" stroke="#bfbfbf" points="201,-1300.5 201,-1357.5 245,-1357.5 245,-1300.5 201,-1300.5"/>
<text text-anchor="middle" x="223" y="-1345.5" font-family="Helvetica,sans-Serif" font-size="10.00">void *</text>
<polyline fill="none" stroke="#bfbfbf" points="201,-1338.5 245,-1338.5 "/>
<text text-anchor="middle" x="223" y="-1326.5" font-family="Helvetica,sans-Serif" font-size="10.00"> </text>
<polyline fill="none" stroke="#bfbfbf" points="201,-1319.5 245,-1319.5 "/>
<text text-anchor="middle" x="223" y="-1307.5" font-family="Helvetica,sans-Serif" font-size="10.00"> </text>
</g>
<!-- Node9&#45;&gt;Node4 -->
<g id="edge8" class="edge"><title>Node9&#45;&gt;Node4</title>
<path fill="none" stroke="#404040" d="M223,-1300.23C223,-1267.83 223,-1214.02 223,-1177.1"/>
<polygon fill="none" stroke="#404040" points="223,-1176.81 219,-1170.81 223,-1164.81 227,-1170.81 223,-1176.81"/>
<text text-anchor="middle" x="243" y="-1230" font-family="Helvetica,sans-Serif" font-size="10.00"> +texels</text>
</g>
<!-- Node10 -->
<g id="node10" class="node"><title>Node10</title>
<g id="a_node10"><a xlink:title="STL class. ">
<polygon fill="white" stroke="#bfbfbf" points="47.5,-876 47.5,-933 146.5,-933 146.5,-876 47.5,-876"/>
<text text-anchor="middle" x="97" y="-921" font-family="Helvetica,sans-Serif" font-size="10.00">std::map&lt; K, T &gt;</text>
<polyline fill="none" stroke="#bfbfbf" points="47.5,-914 146.5,-914 "/>
<text text-anchor="middle" x="97" y="-902" font-family="Helvetica,sans-Serif" font-size="10.00"> </text>
<polyline fill="none" stroke="#bfbfbf" points="47.5,-895 146.5,-895 "/>
<text text-anchor="middle" x="97" y="-883" font-family="Helvetica,sans-Serif" font-size="10.00"> </text>
</a>
</g>
</g>
<!-- Node10&#45;&gt;Node2 -->
<g id="edge10" class="edge"><title>Node10&#45;&gt;Node2</title>
<path fill="none" stroke="orange" d="M81.7663,-866.118C67.5418,-827.362 48.9252,-764.753 52,-709 53.5766,-680.413 57.2952,-648.091 60.3531,-624.593"/>
<polygon fill="orange" stroke="orange" points="78.6559,-867.79 85.4559,-875.915 85.2068,-865.323 78.6559,-867.79"/>
<text text-anchor="start" x="52" y="-723" font-family="Helvetica,sans-Serif" font-size="10.00"> &lt; std::string, Ra::</text>
<text text-anchor="middle" x="98.5" y="-712" font-family="Helvetica,sans-Serif" font-size="10.00">Engine::Texture * &gt;</text>
</g>
<!-- Node11 -->
<g id="node11" class="node"><title>Node11</title>
<polygon fill="white" stroke="#bfbfbf" points="82.5,-1107.5 82.5,-1164.5 111.5,-1164.5 111.5,-1107.5 82.5,-1107.5"/>
<text text-anchor="middle" x="97" y="-1152.5" font-family="Helvetica,sans-Serif" font-size="10.00">K</text>
<polyline fill="none" stroke="#bfbfbf" points="82.5,-1145.5 111.5,-1145.5 "/>
<text text-anchor="middle" x="97" y="-1133.5" font-family="Helvetica,sans-Serif" font-size="10.00"> </text>
<polyline fill="none" stroke="#bfbfbf" points="82.5,-1126.5 111.5,-1126.5 "/>
<text text-anchor="middle" x="97" y="-1114.5" font-family="Helvetica,sans-Serif" font-size="10.00"> </text>
</g>
<!-- Node11&#45;&gt;Node10 -->
<g id="edge11" class="edge"><title>Node11&#45;&gt;Node10</title>
<path fill="none" stroke="#404040" d="M97,-1107.32C97,-1067 97,-991.885 97,-945.538"/>
<polygon fill="none" stroke="#404040" points="97.0001,-945.281 93,-939.281 97,-933.281 101,-939.281 97.0001,-945.281"/>
<text text-anchor="middle" x="114" y="-1081" font-family="Helvetica,sans-Serif" font-size="10.00"> +keys</text>
</g>
<!-- Node12 -->
<g id="node12" class="node"><title>Node12</title>
<polygon fill="white" stroke="#bfbfbf" points="580.5,-1107.5 580.5,-1164.5 609.5,-1164.5 609.5,-1107.5 580.5,-1107.5"/>
<text text-anchor="middle" x="595" y="-1152.5" font-family="Helvetica,sans-Serif" font-size="10.00">T</text>
<polyline fill="none" stroke="#bfbfbf" points="580.5,-1145.5 609.5,-1145.5 "/>
<text text-anchor="middle" x="595" y="-1133.5" font-family="Helvetica,sans-Serif" font-size="10.00"> </text>
<polyline fill="none" stroke="#bfbfbf" points="580.5,-1126.5 609.5,-1126.5 "/>
<text text-anchor="middle" x="595" y="-1114.5" font-family="Helvetica,sans-Serif" font-size="10.00"> </text>
</g>
<!-- Node12&#45;&gt;Node10 -->
<g id="edge12" class="edge"><title>Node12&#45;&gt;Node10</title>
<path fill="none" stroke="#404040" d="M580.355,-1133.54C505.525,-1126.06 169.213,-1092.28 165,-1089 120.679,-1054.51 105.243,-988.061 99.8684,-945.298"/>
<polygon fill="none" stroke="#404040" points="99.8404,-945.043 95.2081,-939.517 98.5277,-933.115 103.16,-938.642 99.8404,-945.043"/>
<text text-anchor="middle" x="193.5" y="-1081" font-family="Helvetica,sans-Serif" font-size="10.00"> +elements</text>
</g>
<!-- Node15 -->
<g id="node15" class="node"><title>Node15</title>
<g id="a_node15"><a xlink:title="STL class. ">
<polygon fill="white" stroke="#bfbfbf" points="671.5,-876 671.5,-933 766.5,-933 766.5,-876 671.5,-876"/>
<text text-anchor="middle" x="719" y="-921" font-family="Helvetica,sans-Serif" font-size="10.00">std::vector&lt; T &gt;</text>
<polyline fill="none" stroke="#bfbfbf" points="671.5,-914 766.5,-914 "/>
<text text-anchor="middle" x="719" y="-902" font-family="Helvetica,sans-Serif" font-size="10.00"> </text>
<polyline fill="none" stroke="#bfbfbf" points="671.5,-895 766.5,-895 "/>
<text text-anchor="middle" x="719" y="-883" font-family="Helvetica,sans-Serif" font-size="10.00"> </text>
</a>
</g>
</g>
<!-- Node12&#45;&gt;Node15 -->
<g id="edge16" class="edge"><title>Node12&#45;&gt;Node15</title>
<path fill="none" stroke="#404040" d="M609.572,-1121.9C624.467,-1107.84 647.427,-1084.24 662,-1060 683.944,-1023.5 699.65,-977.161 708.948,-944.796"/>
<polygon fill="none" stroke="#404040" points="708.979,-944.685 706.735,-937.832 712.197,-933.125 714.441,-939.978 708.979,-944.685"/>
<text text-anchor="middle" x="678.5" y="-1081" font-family="Helvetica,sans-Serif" font-size="10.00"> +elements</text>
</g>
<!-- Node22 -->
<g id="node22" class="node"><title>Node22</title>
<g id="a_node22"><a xlink:title="STL class. ">
<polygon fill="white" stroke="#bfbfbf" points="537,-876 537,-933 653,-933 653,-876 537,-876"/>
<text text-anchor="middle" x="595" y="-921" font-family="Helvetica,sans-Serif" font-size="10.00">std::unique_ptr&lt; T &gt;</text>
<polyline fill="none" stroke="#bfbfbf" points="537,-914 653,-914 "/>
<text text-anchor="middle" x="595" y="-902" font-family="Helvetica,sans-Serif" font-size="10.00"> </text>
<polyline fill="none" stroke="#bfbfbf" points="537,-895 653,-895 "/>
<text text-anchor="start" x="545" y="-883" font-family="Helvetica,sans-Serif" font-size="10.00">+ operator&#45;&gt;()</text>
</a>
</g>
</g>
<!-- Node12&#45;&gt;Node22 -->
<g id="edge27" class="edge"><title>Node12&#45;&gt;Node22</title>
<path fill="none" stroke="#404040" d="M595,-1107.32C595,-1067 595,-991.885 595,-945.538"/>
<polygon fill="none" stroke="#404040" points="595,-945.281 591,-939.281 595,-933.281 599,-939.281 595,-945.281"/>
<text text-anchor="middle" x="607.5" y="-1081" font-family="Helvetica,sans-Serif" font-size="10.00"> +ptr</text>
</g>
<!-- Node13 -->
<g id="node13" class="node"><title>Node13</title>
<polygon fill="white" stroke="#bfbfbf" points="493,-556.5 493,-624.5 657,-624.5 657,-556.5 493,-556.5"/>
<text text-anchor="start" x="501" y="-612.5" font-family="Helvetica,sans-Serif" font-size="10.00">std::vector&lt; Ra::Engine</text>
<text text-anchor="middle" x="575" y="-601.5" font-family="Helvetica,sans-Serif" font-size="10.00">::Ra::Engine::LightManager * &gt;</text>
<polyline fill="none" stroke="#bfbfbf" points="493,-594.5 657,-594.5 "/>
<text text-anchor="middle" x="575" y="-582.5" font-family="Helvetica,sans-Serif" font-size="10.00"> </text>
<polyline fill="none" stroke="#bfbfbf" points="493,-575.5 657,-575.5 "/>
<text text-anchor="middle" x="575" y="-563.5" font-family="Helvetica,sans-Serif" font-size="10.00"> </text>
</g>
<!-- Node13&#45;&gt;Node1 -->
<g id="edge13" class="edge"><title>Node13&#45;&gt;Node1</title>
<path fill="none" stroke="#404040" d="M564.868,-556.341C556.37,-523.207 547.462,-471.128 560,-428 573.661,-381.012 600.595,-334.458 627.296,-296.21"/>
<polygon fill="none" stroke="#404040" points="627.486,-295.942 627.702,-288.734 634.439,-286.161 634.223,-293.369 627.486,-295.942"/>
<text text-anchor="middle" x="608" y="-447.5" font-family="Helvetica,sans-Serif" font-size="10.00"> #m_lightmanagers</text>
</g>
<!-- Node14 -->
<g id="node14" class="node"><title>Node14</title>
<polygon fill="white" stroke="#bfbfbf" points="429,-876 429,-933 519,-933 519,-876 429,-876"/>
<text text-anchor="middle" x="474" y="-921" font-family="Helvetica,sans-Serif" font-size="10.00">LightManager *</text>
<polyline fill="none" stroke="#bfbfbf" points="429,-914 519,-914 "/>
<text text-anchor="middle" x="474" y="-902" font-family="Helvetica,sans-Serif" font-size="10.00"> </text>
<polyline fill="none" stroke="#bfbfbf" points="429,-895 519,-895 "/>
<text text-anchor="middle" x="474" y="-883" font-family="Helvetica,sans-Serif" font-size="10.00"> </text>
</g>
<!-- Node14&#45;&gt;Node13 -->
<g id="edge14" class="edge"><title>Node14&#45;&gt;Node13</title>
<path fill="none" stroke="#404040" d="M471.031,-875.74C467.953,-837.051 466.132,-765.33 487,-709 497.211,-681.436 516.084,-654.859 533.74,-633.974"/>
<polygon fill="none" stroke="#404040" points="533.852,-633.846 534.775,-626.695 541.732,-624.796 540.808,-631.948 533.852,-633.846"/>
<text text-anchor="middle" x="515.5" y="-717.5" font-family="Helvetica,sans-Serif" font-size="10.00"> +elements</text>
</g>
<!-- Node15&#45;&gt;Node13 -->
<g id="edge15" class="edge"><title>Node15&#45;&gt;Node13</title>
<path fill="none" stroke="orange" d="M720.241,-865.646C719.961,-824.513 714.638,-758.108 687,-709 680.971,-698.287 674.831,-699.551 666,-691 644.138,-669.83 621.013,-644.503 603.545,-624.699"/>
<polygon fill="orange" stroke="orange" points="716.74,-865.774 720.211,-875.785 723.74,-865.795 716.74,-865.774"/>
<text text-anchor="start" x="697" y="-723" font-family="Helvetica,sans-Serif" font-size="10.00"> &lt; Ra::Engine::Ra::Engine</text>
<text text-anchor="middle" x="757.5" y="-712" font-family="Helvetica,sans-Serif" font-size="10.00">::LightManager * &gt;</text>
</g>
<!-- Node16 -->
<g id="node16" class="node"><title>Node16</title>
<polygon fill="white" stroke="#bfbfbf" points="1306.5,-556.5 1306.5,-624.5 1449.5,-624.5 1449.5,-556.5 1306.5,-556.5"/>
<text text-anchor="start" x="1314.5" y="-612.5" font-family="Helvetica,sans-Serif" font-size="10.00">std::vector&lt; RenderObject</text>
<text text-anchor="middle" x="1378" y="-601.5" font-family="Helvetica,sans-Serif" font-size="10.00">Ptr &gt;</text>
<polyline fill="none" stroke="#bfbfbf" points="1306.5,-594.5 1449.5,-594.5 "/>
<text text-anchor="middle" x="1378" y="-582.5" font-family="Helvetica,sans-Serif" font-size="10.00"> </text>
<polyline fill="none" stroke="#bfbfbf" points="1306.5,-575.5 1449.5,-575.5 "/>
<text text-anchor="middle" x="1378" y="-563.5" font-family="Helvetica,sans-Serif" font-size="10.00"> </text>
</g>
<!-- Node15&#45;&gt;Node16 -->
<g id="edge20" class="edge"><title>Node15&#45;&gt;Node16</title>
<path fill="none" stroke="orange" d="M756.801,-869.136C798.644,-833.137 869.65,-777.892 941,-749 1015.29,-718.916 1227.62,-731.141 1297,-691 1323.99,-675.383 1345.69,-647.089 1359.8,-624.655"/>
<polygon fill="orange" stroke="orange" points="754.334,-866.643 749.082,-875.844 758.926,-871.927 754.334,-866.643"/>
<text text-anchor="middle" x="1292.5" y="-717.5" font-family="Helvetica,sans-Serif" font-size="10.00"> &lt; RenderObjectPtr &gt;</text>
</g>
<!-- Node16&#45;&gt;Node1 -->
<g id="edge18" class="edge"><title>Node16&#45;&gt;Node1</title>
<path fill="none" stroke="#404040" d="M1356.62,-556.331C1341.82,-535.307 1320.58,-508.657 1297,-490 1132.8,-360.098 899.477,-270.98 779.278,-230.583"/>
<polygon fill="none" stroke="#404040" points="779.038,-230.503 772.081,-232.401 767.653,-226.71 774.61,-224.812 779.038,-230.503"/>
<text text-anchor="middle" x="1330.5" y="-464" font-family="Helvetica,sans-Serif" font-size="10.00"> #m_uiRenderObjects</text>
<text text-anchor="middle" x="1330.5" y="-453" font-family="Helvetica,sans-Serif" font-size="10.00">#m_debugRenderObjects</text>
<text text-anchor="middle" x="1330.5" y="-442" font-family="Helvetica,sans-Serif" font-size="10.00">#m_fancyRenderObjects</text>
<text text-anchor="middle" x="1330.5" y="-431" font-family="Helvetica,sans-Serif" font-size="10.00">#m_xrayRenderObjects</text>
</g>
<!-- Node17 -->
<g id="node17" class="node"><title>Node17</title>
<polygon fill="white" stroke="#bfbfbf" points="1331,-876 1331,-933 1425,-933 1425,-876 1331,-876"/>
<text text-anchor="middle" x="1378" y="-921" font-family="Helvetica,sans-Serif" font-size="10.00">RenderObjectPtr</text>
<polyline fill="none" stroke="#bfbfbf" points="1331,-914 1425,-914 "/>
<text text-anchor="middle" x="1378" y="-902" font-family="Helvetica,sans-Serif" font-size="10.00"> </text>
<polyline fill="none" stroke="#bfbfbf" points="1331,-895 1425,-895 "/>
<text text-anchor="middle" x="1378" y="-883" font-family="Helvetica,sans-Serif" font-size="10.00"> </text>
</g>
<!-- Node17&#45;&gt;Node16 -->
<g id="edge19" class="edge"><title>Node17&#45;&gt;Node16</title>
<path fill="none" stroke="#404040" d="M1378,-875.812C1378,-821.983 1378,-702.756 1378,-637.087"/>
<polygon fill="none" stroke="#404040" points="1378,-636.702 1374,-630.702 1378,-624.702 1382,-630.702 1378,-636.702"/>
<text text-anchor="middle" x="1406.5" y="-717.5" font-family="Helvetica,sans-Serif" font-size="10.00"> +elements</text>
</g>
<!-- Node18 -->
<g id="node18" class="node"><title>Node18</title>
<polygon fill="white" stroke="#bfbfbf" points="675.5,-562 675.5,-619 704.5,-619 704.5,-562 675.5,-562"/>
<text text-anchor="middle" x="690" y="-607" font-family="Helvetica,sans-Serif" font-size="10.00">int</text>
<polyline fill="none" stroke="#bfbfbf" points="675.5,-600 704.5,-600 "/>
<text text-anchor="middle" x="690" y="-588" font-family="Helvetica,sans-Serif" font-size="10.00"> </text>
<polyline fill="none" stroke="#bfbfbf" points="675.5,-581 704.5,-581 "/>
<text text-anchor="middle" x="690" y="-569" font-family="Helvetica,sans-Serif" font-size="10.00"> </text>
</g>
<!-- Node18&#45;&gt;Node1 -->
<g id="edge21" class="edge"><title>Node18&#45;&gt;Node1</title>
<path fill="none" stroke="#404040" d="M683.304,-561.754C675.106,-527.733 662.266,-474.265 662,-472 660.082,-455.681 659.43,-438.819 659.73,-421.873"/>
<polygon fill="none" stroke="#404040" points="659.741,-421.52 655.929,-415.399 660.113,-409.526 663.925,-415.647 659.741,-421.52"/>
<text text-anchor="middle" x="690.5" y="-453" font-family="Helvetica,sans-Serif" font-size="10.00"> #m_height</text>
<text text-anchor="middle" x="690.5" y="-442" font-family="Helvetica,sans-Serif" font-size="10.00">#m_width</text>
</g>
<!-- Node19 -->
<g id="node19" class="node"><title>Node19</title>
<g id="a_node19"><a xlink:href="classbool.html" target="_top" xlink:title="{bool\n||}">
<polygon fill="white" stroke="black" points="722.5,-562 722.5,-619 759.5,-619 759.5,-562 722.5,-562"/>
<text text-anchor="middle" x="741" y="-607" font-family="Helvetica,sans-Serif" font-size="10.00">bool</text>
<polyline fill="none" stroke="black" points="722.5,-600 759.5,-600 "/>
<text text-anchor="middle" x="741" y="-588" font-family="Helvetica,sans-Serif" font-size="10.00"> </text>
<polyline fill="none" stroke="black" points="722.5,-581 759.5,-581 "/>
<text text-anchor="middle" x="741" y="-569" font-family="Helvetica,sans-Serif" font-size="10.00"> </text>
</a>
</g>
</g>
<!-- Node19&#45;&gt;Node1 -->
<g id="edge22" class="edge"><title>Node19&#45;&gt;Node1</title>
<path fill="none" stroke="#404040" d="M738.123,-561.92C734.896,-530.974 729.342,-477.729 723.499,-421.713"/>
<polygon fill="none" stroke="#404040" points="723.494,-421.66 718.893,-416.107 722.249,-409.725 726.85,-415.277 723.494,-421.66"/>
<text text-anchor="middle" x="800" y="-464" font-family="Helvetica,sans-Serif" font-size="10.00"> #m_renderQueuesUpToDate</text>
<text text-anchor="middle" x="800" y="-453" font-family="Helvetica,sans-Serif" font-size="10.00">#m_postProcessEnabled</text>
<text text-anchor="middle" x="800" y="-442" font-family="Helvetica,sans-Serif" font-size="10.00">#m_wireframe</text>
<text text-anchor="middle" x="800" y="-431" font-family="Helvetica,sans-Serif" font-size="10.00">#m_drawDebug</text>
</g>
<!-- Node20 -->
<g id="node20" class="node"><title>Node20</title>
<g id="a_node20"><a xlink:href="classRa_1_1Engine_1_1RenderObjectManager.html" target="_top" xlink:title="{Ra::Engine::RenderObject\lManager\n||+ RenderObjectManager()\l+ ~RenderObjectManager()\l+ addRenderObject()\l+ removeRenderObject()\l+ getRenderObjectsCount()\l+ getRenderObject()\l+ getRenderObjects()\l+ getRenderObjectsByType()\l+ exists()\l+ renderObjectExpired()\l+ getNumFaces()\l+ getNumVertices()\l+ getSceneAabb()\l}">
<polygon fill="white" stroke="black" points="777.5,-490.5 777.5,-690.5 930.5,-690.5 930.5,-490.5 777.5,-490.5"/>
<text text-anchor="start" x="785.5" y="-678.5" font-family="Helvetica,sans-Serif" font-size="10.00">Ra::Engine::RenderObject</text>
<text text-anchor="middle" x="854" y="-667.5" font-family="Helvetica,sans-Serif" font-size="10.00">Manager</text>
<polyline fill="none" stroke="black" points="777.5,-660.5 930.5,-660.5 "/>
<text text-anchor="middle" x="854" y="-648.5" font-family="Helvetica,sans-Serif" font-size="10.00"> </text>
<polyline fill="none" stroke="black" points="777.5,-641.5 930.5,-641.5 "/>
<text text-anchor="start" x="785.5" y="-629.5" font-family="Helvetica,sans-Serif" font-size="10.00">+ RenderObjectManager()</text>
<text text-anchor="start" x="785.5" y="-618.5" font-family="Helvetica,sans-Serif" font-size="10.00">+ ~RenderObjectManager()</text>
<text text-anchor="start" x="785.5" y="-607.5" font-family="Helvetica,sans-Serif" font-size="10.00">+ addRenderObject()</text>
<text text-anchor="start" x="785.5" y="-596.5" font-family="Helvetica,sans-Serif" font-size="10.00">+ removeRenderObject()</text>
<text text-anchor="start" x="785.5" y="-585.5" font-family="Helvetica,sans-Serif" font-size="10.00">+ getRenderObjectsCount()</text>
<text text-anchor="start" x="785.5" y="-574.5" font-family="Helvetica,sans-Serif" font-size="10.00">+ getRenderObject()</text>
<text text-anchor="start" x="785.5" y="-563.5" font-family="Helvetica,sans-Serif" font-size="10.00">+ getRenderObjects()</text>
<text text-anchor="start" x="785.5" y="-552.5" font-family="Helvetica,sans-Serif" font-size="10.00">+ getRenderObjectsByType()</text>
<text text-anchor="start" x="785.5" y="-541.5" font-family="Helvetica,sans-Serif" font-size="10.00">+ exists()</text>
<text text-anchor="start" x="785.5" y="-530.5" font-family="Helvetica,sans-Serif" font-size="10.00">+ renderObjectExpired()</text>
<text text-anchor="start" x="785.5" y="-519.5" font-family="Helvetica,sans-Serif" font-size="10.00">+ getNumFaces()</text>
<text text-anchor="start" x="785.5" y="-508.5" font-family="Helvetica,sans-Serif" font-size="10.00">+ getNumVertices()</text>
<text text-anchor="start" x="785.5" y="-497.5" font-family="Helvetica,sans-Serif" font-size="10.00">+ getSceneAabb()</text>
</a>
</g>
</g>
<!-- Node20&#45;&gt;Node1 -->
<g id="edge23" class="edge"><title>Node20&#45;&gt;Node1</title>
<path fill="none" stroke="#404040" d="M881.139,-490.244C882.937,-469.321 881.781,-447.644 875,-428 855.168,-370.549 813.668,-316.624 776.171,-276.31"/>
<polygon fill="none" stroke="#404040" points="775.989,-276.118 768.96,-274.508 767.743,-267.4 774.772,-269.01 775.989,-276.118"/>
<text text-anchor="middle" x="909.5" y="-447.5" font-family="Helvetica,sans-Serif" font-size="10.00"> #m_roMgr</text>
</g>
<!-- Node21&#45;&gt;Node1 -->
<g id="edge24" class="edge"><title>Node21&#45;&gt;Node1</title>
<path fill="none" stroke="#404040" d="M422.6,-556.469C427.514,-522.271 438.672,-468.304 463,-428 504.096,-359.917 571.94,-299.596 624.7,-259.079"/>
<polygon fill="none" stroke="#404040" points="624.805,-258.999 627.168,-252.186 634.366,-251.747 632.003,-258.56 624.805,-258.999"/>
<text text-anchor="middle" x="506.5" y="-453" font-family="Helvetica,sans-Serif" font-size="10.00"> #m_fancyTexture</text>
<text text-anchor="middle" x="506.5" y="-442" font-family="Helvetica,sans-Serif" font-size="10.00">#m_depthTexture</text>
</g>
<!-- Node22&#45;&gt;Node21 -->
<g id="edge26" class="edge"><title>Node22&#45;&gt;Node21</title>
<path fill="none" stroke="orange" d="M595.521,-865.772C594.036,-822.273 584.882,-751.34 544,-709 524.661,-688.972 506.301,-707.666 484,-691 461.191,-673.954 444.085,-646.372 433.161,-624.567"/>
<polygon fill="orange" stroke="orange" points="592.026,-866.021 595.746,-875.941 599.024,-865.866 592.026,-866.021"/>
<text text-anchor="middle" x="619.5" y="-717.5" font-family="Helvetica,sans-Serif" font-size="10.00"> &lt; Ra::Engine::Texture &gt;</text>
</g>
<!-- Node24 -->
<g id="node24" class="node"><title>Node24</title>
<polygon fill="white" stroke="#bfbfbf" points="949,-556.5 949,-624.5 1061,-624.5 1061,-556.5 949,-556.5"/>
<text text-anchor="start" x="957" y="-612.5" font-family="Helvetica,sans-Serif" font-size="10.00">std::unique_ptr&lt; Ra</text>
<text text-anchor="middle" x="1005" y="-601.5" font-family="Helvetica,sans-Serif" font-size="10.00">::Engine::Mesh &gt;</text>
<polyline fill="none" stroke="#bfbfbf" points="949,-594.5 1061,-594.5 "/>
<text text-anchor="middle" x="1005" y="-582.5" font-family="Helvetica,sans-Serif" font-size="10.00"> </text>
<polyline fill="none" stroke="#bfbfbf" points="949,-575.5 1061,-575.5 "/>
<text text-anchor="start" x="957" y="-563.5" font-family="Helvetica,sans-Serif" font-size="10.00">+ operator&#45;&gt;()</text>
</g>
<!-- Node22&#45;&gt;Node24 -->
<g id="edge32" class="edge"><title>Node22&#45;&gt;Node24</title>
<path fill="none" stroke="orange" d="M600.495,-865.55C607.869,-829.429 624.668,-776.612 662,-749 690.767,-727.724 787.088,-738.834 822,-731 828.703,-729.496 933.562,-695.197 939,-691 961.482,-673.65 978.803,-646.373 990.049,-624.764"/>
<polygon fill="orange" stroke="orange" points="596.992,-865.242 598.576,-875.718 603.87,-866.54 596.992,-865.242"/>
<text text-anchor="middle" x="942" y="-717.5" font-family="Helvetica,sans-Serif" font-size="10.00"> &lt; Ra::Engine::Mesh &gt;</text>
</g>
<!-- Node23 -->
<g id="node23" class="node"><title>Node23</title>
<g id="a_node23"><a xlink:href="classRa_1_1Engine_1_1ShaderProgramManager.html" target="_top" xlink:title="Manage the set of shaders used by Radium Engine for rendering. ">
<polygon fill="white" stroke="black" points="1079.5,-518 1079.5,-663 1288.5,-663 1288.5,-518 1079.5,-518"/>
<text text-anchor="start" x="1087.5" y="-651" font-family="Helvetica,sans-Serif" font-size="10.00">Ra::Engine::ShaderProgram</text>
<text text-anchor="middle" x="1184" y="-640" font-family="Helvetica,sans-Serif" font-size="10.00">Manager</text>
<polyline fill="none" stroke="black" points="1079.5,-633 1288.5,-633 "/>
<text text-anchor="middle" x="1184" y="-621" font-family="Helvetica,sans-Serif" font-size="10.00"> </text>
<polyline fill="none" stroke="black" points="1079.5,-614 1288.5,-614 "/>
<text text-anchor="start" x="1087.5" y="-602" font-family="Helvetica,sans-Serif" font-size="10.00">+ addShaderProgram()</text>
<text text-anchor="start" x="1087.5" y="-591" font-family="Helvetica,sans-Serif" font-size="10.00">+ getShaderProgram()</text>
<text text-anchor="start" x="1087.5" y="-580" font-family="Helvetica,sans-Serif" font-size="10.00">+ getShaderProgram()</text>
<text text-anchor="start" x="1087.5" y="-569" font-family="Helvetica,sans-Serif" font-size="10.00">+ getDefaultShaderProgram()</text>
<text text-anchor="start" x="1087.5" y="-558" font-family="Helvetica,sans-Serif" font-size="10.00">+ reloadAllShaderPrograms()</text>
<text text-anchor="start" x="1087.5" y="-547" font-family="Helvetica,sans-Serif" font-size="10.00">+ reloadNotCompiledShaderPrograms()</text>
<text text-anchor="start" x="1087.5" y="-536" font-family="Helvetica,sans-Serif" font-size="10.00">+ addNamedString()</text>
<text text-anchor="start" x="1087.5" y="-525" font-family="Helvetica,sans-Serif" font-size="10.00">+ reloadNamedString()</text>
</a>
</g>
</g>
<!-- Node23&#45;&gt;Node1 -->
<g id="edge28" class="edge"><title>Node23&#45;&gt;Node1</title>
<path fill="none" stroke="#404040" d="M1129.88,-517.91C1105.66,-488.305 1075.68,-454.728 1045,-428 961.14,-354.95 851.283,-288.264 778.536,-247.452"/>
<polygon fill="none" stroke="#404040" points="778.115,-247.218 770.927,-247.79 767.634,-241.375 774.823,-240.803 778.115,-247.218"/>
<text text-anchor="middle" x="1126" y="-447.5" font-family="Helvetica,sans-Serif" font-size="10.00"> #m_shaderMgr</text>
</g>
<!-- Node24&#45;&gt;Node1 -->
<g id="edge29" class="edge"><title>Node24&#45;&gt;Node1</title>
<path fill="none" stroke="#404040" d="M996.622,-556.468C986.913,-522.27 968.621,-468.302 941,-428 896.294,-362.768 829.16,-302.783 777.254,-261.656"/>
<polygon fill="none" stroke="#404040" points="777.19,-261.605 770,-261.049 767.748,-254.199 774.938,-254.755 777.19,-261.605"/>
<text text-anchor="middle" x="1003" y="-447.5" font-family="Helvetica,sans-Serif" font-size="10.00"> #m_quadMesh</text>
</g>
<!-- Node25 -->
<g id="node25" class="node"><title>Node25</title>
<g id="a_node25"><a xlink:href="classRa_1_1Engine_1_1Mesh.html" target="_top" xlink:title="A class representing an openGL general mesh to be displayed. ">
<polygon fill="white" stroke="black" points="950,-749.5 950,-1059.5 1060,-1059.5 1060,-749.5 950,-749.5"/>
<text text-anchor="middle" x="1005" y="-1047.5" font-family="Helvetica,sans-Serif" font-size="10.00">Ra::Engine::Mesh</text>
<polyline fill="none" stroke="black" points="950,-1040.5 1060,-1040.5 "/>
<text text-anchor="middle" x="1005" y="-1028.5" font-family="Helvetica,sans-Serif" font-size="10.00"> </text>
<polyline fill="none" stroke="black" points="950,-1021.5 1060,-1021.5 "/>
<text text-anchor="start" x="958" y="-1009.5" font-family="Helvetica,sans-Serif" font-size="10.00">+ Mesh()</text>
<text text-anchor="start" x="958" y="-998.5" font-family="Helvetica,sans-Serif" font-size="10.00">+ Mesh()</text>
<text text-anchor="start" x="958" y="-987.5" font-family="Helvetica,sans-Serif" font-size="10.00">+ operator=()</text>
<text text-anchor="start" x="958" y="-976.5" font-family="Helvetica,sans-Serif" font-size="10.00">+ ~Mesh()</text>
<text text-anchor="start" x="958" y="-965.5" font-family="Helvetica,sans-Serif" font-size="10.00">+ getName()</text>
<text text-anchor="start" x="958" y="-954.5" font-family="Helvetica,sans-Serif" font-size="10.00">+ setRenderMode()</text>
<text text-anchor="start" x="958" y="-943.5" font-family="Helvetica,sans-Serif" font-size="10.00">+ getRenderMode()</text>
<text text-anchor="start" x="958" y="-932.5" font-family="Helvetica,sans-Serif" font-size="10.00">+ getGeometry()</text>
<text text-anchor="start" x="958" y="-921.5" font-family="Helvetica,sans-Serif" font-size="10.00">+ getGeometry()</text>
<text text-anchor="start" x="958" y="-910.5" font-family="Helvetica,sans-Serif" font-size="10.00">+ loadGeometry()</text>
<text text-anchor="start" x="958" y="-899.5" font-family="Helvetica,sans-Serif" font-size="10.00">+ loadGeometry()</text>
<text text-anchor="start" x="958" y="-888.5" font-family="Helvetica,sans-Serif" font-size="10.00">+ addData()</text>
<text text-anchor="start" x="958" y="-877.5" font-family="Helvetica,sans-Serif" font-size="10.00">+ addData()</text>
<text text-anchor="start" x="958" y="-866.5" font-family="Helvetica,sans-Serif" font-size="10.00">+ getData()</text>
<text text-anchor="start" x="958" y="-855.5" font-family="Helvetica,sans-Serif" font-size="10.00">+ getData()</text>
<text text-anchor="start" x="958" y="-844.5" font-family="Helvetica,sans-Serif" font-size="10.00">+ setDirty()</text>
<text text-anchor="start" x="958" y="-833.5" font-family="Helvetica,sans-Serif" font-size="10.00">+ setDirty()</text>
<text text-anchor="start" x="958" y="-822.5" font-family="Helvetica,sans-Serif" font-size="10.00">+ setDirty()</text>
<text text-anchor="start" x="958" y="-811.5" font-family="Helvetica,sans-Serif" font-size="10.00">+ updateGL()</text>
<text text-anchor="start" x="958" y="-800.5" font-family="Helvetica,sans-Serif" font-size="10.00">+ render()</text>
<text text-anchor="start" x="958" y="-789.5" font-family="Helvetica,sans-Serif" font-size="10.00">+ colorize()</text>
<text text-anchor="start" x="958" y="-778.5" font-family="Helvetica,sans-Serif" font-size="10.00">* MeshData</text>
<text text-anchor="start" x="958" y="-767.5" font-family="Helvetica,sans-Serif" font-size="10.00">* Vec3Data</text>
<text text-anchor="start" x="958" y="-756.5" font-family="Helvetica,sans-Serif" font-size="10.00">* Vec4Data</text>
</a>
</g>
</g>
<!-- Node25&#45;&gt;Node24 -->
<g id="edge30" class="edge"><title>Node25&#45;&gt;Node24</title>
<path fill="none" stroke="#404040" d="M1005,-749.328C1005,-708.222 1005,-666.946 1005,-636.92"/>
<polygon fill="none" stroke="#404040" points="1005,-636.774 1001,-630.774 1005,-624.774 1009,-630.774 1005,-636.774"/>
<text text-anchor="middle" x="1017.5" y="-717.5" font-family="Helvetica,sans-Serif" font-size="10.00"> +ptr</text>
</g>
<!-- Node26 -->
<g id="node26" class="node"><title>Node26</title>
<polygon fill="white" stroke="#bfbfbf" points="948,-1107.5 948,-1164.5 1062,-1164.5 1062,-1107.5 948,-1107.5"/>
<text text-anchor="middle" x="1005" y="-1152.5" font-family="Helvetica,sans-Serif" font-size="10.00">static constexpr uint</text>
<polyline fill="none" stroke="#bfbfbf" points="948,-1145.5 1062,-1145.5 "/>
<text text-anchor="middle" x="1005" y="-1133.5" font-family="Helvetica,sans-Serif" font-size="10.00"> </text>
<polyline fill="none" stroke="#bfbfbf" points="948,-1126.5 1062,-1126.5 "/>
<text text-anchor="middle" x="1005" y="-1114.5" font-family="Helvetica,sans-Serif" font-size="10.00"> </text>
</g>
<!-- Node26&#45;&gt;Node25 -->
<g id="edge31" class="edge"><title>Node26&#45;&gt;Node25</title>
<path fill="none" stroke="#404040" d="M1005,-1107.32C1005,-1097.27 1005,-1085.05 1005,-1071.66"/>
<polygon fill="none" stroke="#404040" points="1005,-1071.62 1001,-1065.62 1005,-1059.62 1009,-1065.62 1005,-1071.62"/>
<text text-anchor="middle" x="1036.5" y="-1081" font-family="Helvetica,sans-Serif" font-size="10.00"> +MAX_DATA</text>
</g>
</g>
</svg>
