<?xml version="1.0" encoding="UTF-8" standalone="no"?>
<!DOCTYPE svg PUBLIC "-//W3C//DTD SVG 1.1//EN"
 "http://www.w3.org/Graphics/SVG/1.1/DTD/svg11.dtd">
<!-- Generated by graphviz version 2.38.0 (20140413.2041)
 -->
<!-- Title: Ra::Gui::Viewer::intializeRenderer Pages: 1 -->
<svg width="906pt" height="284pt"
 viewBox="0.00 0.00 906.00 284.00" xmlns="http://www.w3.org/2000/svg" xmlns:xlink="http://www.w3.org/1999/xlink">
<g id="graph0" class="graph" transform="scale(1 1) rotate(0) translate(4 280)">
<title>Ra::Gui::Viewer::intializeRenderer</title>
<polygon fill="white" stroke="none" points="-4,4 -4,-280 902,-280 902,4 -4,4"/>
<!-- Node1 -->
<g id="node1" class="node"><title>Node1</title>
<polygon fill="#bfbfbf" stroke="black" points="0,-97.5 0,-127.5 130,-127.5 130,-97.5 0,-97.5"/>
<text text-anchor="start" x="8" y="-115.5" font-family="Helvetica,sans-Serif" font-size="10.00">Ra::Gui::Viewer::intialize</text>
<text text-anchor="middle" x="65" y="-104.5" font-family="Helvetica,sans-Serif" font-size="10.00">Renderer</text>
</g>
<!-- Node2 -->
<g id="node2" class="node"><title>Node2</title>
<g id="a_node2"><a xlink:href="classRa_1_1Engine_1_1Renderer.html#af7d65da9d3a185ede31e308d79398259" target="_top" xlink:title="Initialize renderer. ">
<polygon fill="white" stroke="black" points="166,-122.5 166,-152.5 282,-152.5 282,-122.5 166,-122.5"/>
<text text-anchor="start" x="174" y="-140.5" font-family="Helvetica,sans-Serif" font-size="10.00">Ra::Engine::Renderer</text>
<text text-anchor="middle" x="224" y="-129.5" font-family="Helvetica,sans-Serif" font-size="10.00">::initialize</text>
</a>
</g>
</g>
<!-- Node1&#45;&gt;Node2 -->
<g id="edge1" class="edge"><title>Node1&#45;&gt;Node2</title>
<path fill="none" stroke="midnightblue" d="M130.311,-122.741C138.619,-124.064 147.147,-125.421 155.504,-126.752"/>
<polygon fill="midnightblue" stroke="midnightblue" points="155.163,-130.242 165.589,-128.358 156.264,-123.329 155.163,-130.242"/>
</g>
<!-- Node16 -->
<g id="node16" class="node"><title>Node16</title>
<g id="a_node16"><a xlink:href="classRa_1_1Engine_1_1Renderer.html#a3166160850c466595fe48a74116bc116" target="_top" xlink:title="Lock rendering. ">
<polygon fill="white" stroke="black" points="166,-73.5 166,-103.5 282,-103.5 282,-73.5 166,-73.5"/>
<text text-anchor="start" x="174" y="-91.5" font-family="Helvetica,sans-Serif" font-size="10.00">Ra::Engine::Renderer</text>
<text text-anchor="middle" x="224" y="-80.5" font-family="Helvetica,sans-Serif" font-size="10.00">::lockRendering</text>
</a>
</g>
</g>
<!-- Node1&#45;&gt;Node16 -->
<g id="edge15" class="edge"><title>Node1&#45;&gt;Node16</title>
<path fill="none" stroke="midnightblue" d="M130.311,-102.669C138.619,-101.399 147.147,-100.095 155.504,-98.8178"/>
<polygon fill="midnightblue" stroke="midnightblue" points="156.232,-102.247 165.589,-97.2763 155.175,-95.3276 156.232,-102.247"/>
</g>
<!-- Node3 -->
<g id="node3" class="node"><title>Node3</title>
<g id="a_node3"><a xlink:href="classRa_1_1Engine_1_1ShaderProgramManager.html#ace65fe1c6b109156e169cf23e01c51aa" target="_top" xlink:title="Add a shader program to the program collection according to the given configuration. ">
<polygon fill="white" stroke="black" points="324.5,-245.5 324.5,-275.5 482.5,-275.5 482.5,-245.5 324.5,-245.5"/>
<text text-anchor="start" x="332.5" y="-263.5" font-family="Helvetica,sans-Serif" font-size="10.00">Ra::Engine::ShaderProgram</text>
<text text-anchor="middle" x="403.5" y="-252.5" font-family="Helvetica,sans-Serif" font-size="10.00">Manager::addShaderProgram</text>
</a>
</g>
</g>
<!-- Node2&#45;&gt;Node3 -->
<g id="edge2" class="edge"><title>Node2&#45;&gt;Node3</title>
<path fill="none" stroke="midnightblue" d="M235.135,-152.661C250.493,-174.454 281.739,-214.433 318,-236.5 320.801,-238.205 323.727,-239.792 326.739,-241.27"/>
<polygon fill="midnightblue" stroke="midnightblue" points="325.426,-244.517 335.985,-245.384 328.271,-238.121 325.426,-244.517"/>
</g>
<!-- Node6 -->
<g id="node6" class="node"><title>Node6</title>
<g id="a_node6"><a xlink:href="classRa_1_1Engine_1_1ShaderConfiguration.html#a8ffa1714a9e63a320acaa7873fb99797" target="_top" xlink:title="Add a shader given its type. ">
<polygon fill="white" stroke="black" points="318,-196.5 318,-226.5 489,-226.5 489,-196.5 318,-196.5"/>
<text text-anchor="start" x="326" y="-214.5" font-family="Helvetica,sans-Serif" font-size="10.00">Ra::Engine::ShaderConfiguration</text>
<text text-anchor="middle" x="403.5" y="-203.5" font-family="Helvetica,sans-Serif" font-size="10.00">::addShader</text>
</a>
</g>
</g>
<!-- Node2&#45;&gt;Node6 -->
<g id="edge5" class="edge"><title>Node2&#45;&gt;Node6</title>
<path fill="none" stroke="midnightblue" d="M249.549,-152.599C267.9,-163.409 293.875,-177.724 318,-187.5 323.035,-189.54 328.305,-191.478 333.648,-193.301"/>
<polygon fill="midnightblue" stroke="midnightblue" points="332.714,-196.678 343.306,-196.458 334.889,-190.025 332.714,-196.678"/>
</g>
<!-- Node7 -->
<g id="node7" class="node"><title>Node7</title>
<g id="a_node7"><a xlink:href="namespaceRa_1_1Engine_1_1ShaderConfigurationFactory.html#a36842535508a390108fb1205210a5c49" target="_top" xlink:title="Add a configuration to the factory. ">
<polygon fill="white" stroke="black" points="318,-147.5 318,-177.5 489,-177.5 489,-147.5 318,-147.5"/>
<text text-anchor="start" x="326" y="-165.5" font-family="Helvetica,sans-Serif" font-size="10.00">Ra::Engine::ShaderConfiguration</text>
<text text-anchor="middle" x="403.5" y="-154.5" font-family="Helvetica,sans-Serif" font-size="10.00">Factory::addConfiguration</text>
</a>
</g>
</g>
<!-- Node2&#45;&gt;Node7 -->
<g id="edge6" class="edge"><title>Node2&#45;&gt;Node7</title>
<path fill="none" stroke="midnightblue" d="M282.139,-145.548C290.297,-146.697 298.866,-147.904 307.513,-149.122"/>
<polygon fill="midnightblue" stroke="midnightblue" points="307.291,-152.625 317.682,-150.554 308.267,-145.693 307.291,-152.625"/>
</g>
<!-- Node8 -->
<g id="node8" class="node"><title>Node8</title>
<g id="a_node8"><a xlink:href="namespaceRa_1_1Core_1_1Geometry.html#ab5b50c432007b86706d836df1c57b394" target="_top" xlink:title="Create a 2D quad mesh given half extents, centered on the origin with z axis as normal. ">
<polygon fill="white" stroke="black" points="344.5,-98.5 344.5,-128.5 462.5,-128.5 462.5,-98.5 344.5,-98.5"/>
<text text-anchor="start" x="352.5" y="-116.5" font-family="Helvetica,sans-Serif" font-size="10.00">Ra::Core::Geometry</text>
<text text-anchor="middle" x="403.5" y="-105.5" font-family="Helvetica,sans-Serif" font-size="10.00">::makeZNormalQuad</text>
</a>
</g>
</g>
<!-- Node2&#45;&gt;Node8 -->
<g id="edge7" class="edge"><title>Node2&#45;&gt;Node8</title>
<path fill="none" stroke="midnightblue" d="M282.139,-129.774C298.744,-127.529 317.047,-125.054 334.261,-122.727"/>
<polygon fill="midnightblue" stroke="midnightblue" points="334.808,-126.185 344.249,-121.376 333.87,-119.248 334.808,-126.185"/>
</g>
<!-- Node13 -->
<g id="node13" class="node"><title>Node13</title>
<g id="a_node13"><a xlink:href="classRa_1_1Engine_1_1Renderer.html#ab793c712188ab407165f2e8a5f80ceb0" target="_top" xlink:title="initializeInternal Initialize the renderer dependant resources. ">
<polygon fill="white" stroke="black" points="345.5,-49.5 345.5,-79.5 461.5,-79.5 461.5,-49.5 345.5,-49.5"/>
<text text-anchor="start" x="353.5" y="-67.5" font-family="Helvetica,sans-Serif" font-size="10.00">Ra::Engine::Renderer</text>
<text text-anchor="middle" x="403.5" y="-56.5" font-family="Helvetica,sans-Serif" font-size="10.00">::initializeInternal</text>
</a>
</g>
</g>
<!-- Node2&#45;&gt;Node13 -->
<g id="edge12" class="edge"><title>Node2&#45;&gt;Node13</title>
<path fill="none" stroke="midnightblue" d="M261.945,-122.424C268.718,-119.344 275.649,-115.975 282,-112.5 298.869,-103.27 300.54,-96.5577 318,-88.5 323.634,-85.9 329.612,-83.5201 335.681,-81.3562"/>
<polygon fill="midnightblue" stroke="midnightblue" points="336.898,-84.6398 345.259,-78.1329 334.665,-78.0054 336.898,-84.6398"/>
</g>
<!-- Node14 -->
<g id="node14" class="node"><title>Node14</title>
<g id="a_node14"><a xlink:href="classRa_1_1Engine_1_1Renderer.html#a7343dbeb04c9699cc2abf2690c9941ee" target="_top" xlink:title="Resize the viewport and all the screen textures, fbos. ">
<polygon fill="white" stroke="black" points="345.5,-0.5 345.5,-30.5 461.5,-30.5 461.5,-0.5 345.5,-0.5"/>
<text text-anchor="start" x="353.5" y="-18.5" font-family="Helvetica,sans-Serif" font-size="10.00">Ra::Engine::Renderer</text>
<text text-anchor="middle" x="403.5" y="-7.5" font-family="Helvetica,sans-Serif" font-size="10.00">::resize</text>
</a>
</g>
</g>
<!-- Node2&#45;&gt;Node14 -->
<g id="edge13" class="edge"><title>Node2&#45;&gt;Node14</title>
<path fill="none" stroke="midnightblue" d="M268.452,-122.408C273.358,-119.592 278.017,-116.309 282,-112.5 308.147,-87.5 290.208,-62.6574 318,-39.5 323.274,-35.1054 329.306,-31.5141 335.667,-28.5797"/>
<polygon fill="midnightblue" stroke="midnightblue" points="337.214,-31.7294 345.17,-24.7333 334.587,-25.2407 337.214,-31.7294"/>
</g>
<!-- Node4 -->
<g id="node4" class="node"><title>Node4</title>
<g id="a_node4"><a xlink:href="classRa_1_1Engine_1_1ShaderProgramManager.html#afec9eb5d3df9d0d0ee97fc9404fcf0e5" target="_top" xlink:title="Get the system default program. ">
<polygon fill="white" stroke="black" points="525,-245.5 525,-275.5 716,-275.5 716,-245.5 525,-245.5"/>
<text text-anchor="start" x="533" y="-263.5" font-family="Helvetica,sans-Serif" font-size="10.00">Ra::Engine::ShaderProgram</text>
<text text-anchor="middle" x="620.5" y="-252.5" font-family="Helvetica,sans-Serif" font-size="10.00">Manager::getDefaultShaderProgram</text>
</a>
</g>
</g>
<!-- Node3&#45;&gt;Node4 -->
<g id="edge3" class="edge"><title>Node3&#45;&gt;Node4</title>
<path fill="none" stroke="midnightblue" d="M482.728,-260.5C493.101,-260.5 503.867,-260.5 514.598,-260.5"/>
<polygon fill="midnightblue" stroke="midnightblue" points="514.863,-264 524.863,-260.5 514.863,-257 514.863,-264"/>
</g>
<!-- Node5 -->
<g id="node5" class="node"><title>Node5</title>
<g id="a_node5"><a xlink:href="namespaceRa_1_1Engine.html#a4d2c5e4a673763dfafc72cb74965b95f" target="_top" xlink:title="Ra::Engine::RA_SINGLETON\l_IMPLEMENTATION">
<polygon fill="white" stroke="black" points="752,-245.5 752,-275.5 898,-275.5 898,-245.5 752,-245.5"/>
<text text-anchor="start" x="760" y="-263.5" font-family="Helvetica,sans-Serif" font-size="10.00">Ra::Engine::RA_SINGLETON</text>
<text text-anchor="middle" x="825" y="-252.5" font-family="Helvetica,sans-Serif" font-size="10.00">_IMPLEMENTATION</text>
</a>
</g>
</g>
<!-- Node4&#45;&gt;Node5 -->
<g id="edge4" class="edge"><title>Node4&#45;&gt;Node5</title>
<path fill="none" stroke="midnightblue" d="M716.228,-260.5C724.717,-260.5 733.267,-260.5 741.639,-260.5"/>
<polygon fill="midnightblue" stroke="midnightblue" points="741.746,-264 751.746,-260.5 741.746,-257 741.746,-264"/>
</g>
<!-- Node9 -->
<g id="node9" class="node"><title>Node9</title>
<g id="a_node9"><a xlink:href="namespaceRa_1_1Core_1_1Geometry.html#a406d3122ffb1118cbf53b1a19e54e31c" target="_top" xlink:title="Create a 2D grid mesh with given number of row and columns. ">
<polygon fill="white" stroke="black" points="565,-98.5 565,-128.5 676,-128.5 676,-98.5 565,-98.5"/>
<text text-anchor="start" x="573" y="-116.5" font-family="Helvetica,sans-Serif" font-size="10.00">Ra::Core::Geometry</text>
<text text-anchor="middle" x="620.5" y="-105.5" font-family="Helvetica,sans-Serif" font-size="10.00">::makePlaneGrid</text>
</a>
</g>
</g>
<!-- Node8&#45;&gt;Node9 -->
<g id="edge8" class="edge"><title>Node8&#45;&gt;Node9</title>
<path fill="none" stroke="midnightblue" d="M462.682,-113.5C491.161,-113.5 525.535,-113.5 554.835,-113.5"/>
<polygon fill="midnightblue" stroke="midnightblue" points="554.969,-117 564.968,-113.5 554.968,-110 554.969,-117"/>
</g>
<!-- Node10 -->
<g id="node10" class="node"><title>Node10</title>
<g id="a_node10"><a xlink:href="classRa_1_1Core_1_1Geometry_1_1TriangleMesh.html#a6ef9dbd18c0501f2ffd1316be6be56ce" target="_top" xlink:title="Access the vertices positions. ">
<polygon fill="white" stroke="black" points="761,-147.5 761,-177.5 889,-177.5 889,-147.5 761,-147.5"/>
<text text-anchor="start" x="769" y="-165.5" font-family="Helvetica,sans-Serif" font-size="10.00">Ra::Core::Geometry</text>
<text text-anchor="middle" x="825" y="-154.5" font-family="Helvetica,sans-Serif" font-size="10.00">::TriangleMesh::vertices</text>
</a>
</g>
</g>
<!-- Node9&#45;&gt;Node10 -->
<g id="edge9" class="edge"><title>Node9&#45;&gt;Node10</title>
<path fill="none" stroke="midnightblue" d="M676.033,-126.696C699.405,-132.351 727.03,-139.036 752.045,-145.089"/>
<polygon fill="midnightblue" stroke="midnightblue" points="751.31,-148.512 761.853,-147.462 752.957,-141.708 751.31,-148.512"/>
</g>
<!-- Node11 -->
<g id="node11" class="node"><title>Node11</title>
<g id="a_node11"><a xlink:href="classRa_1_1Core_1_1Geometry_1_1TriangleMesh.html#ad7d3f6272b902171740e50232ba56114" target="_top" xlink:title="Access the vertices normals. ">
<polygon fill="white" stroke="black" points="760.5,-98.5 760.5,-128.5 889.5,-128.5 889.5,-98.5 760.5,-98.5"/>
<text text-anchor="start" x="768.5" y="-116.5" font-family="Helvetica,sans-Serif" font-size="10.00">Ra::Core::Geometry</text>
<text text-anchor="middle" x="825" y="-105.5" font-family="Helvetica,sans-Serif" font-size="10.00">::TriangleMesh::normals</text>
</a>
</g>
</g>
<!-- Node9&#45;&gt;Node11 -->
<g id="edge10" class="edge"><title>Node9&#45;&gt;Node11</title>
<path fill="none" stroke="midnightblue" d="M676.033,-113.5C698.889,-113.5 725.814,-113.5 750.387,-113.5"/>
<polygon fill="midnightblue" stroke="midnightblue" points="750.393,-117 760.393,-113.5 750.393,-110 750.393,-117"/>
</g>
<!-- Node12 -->
<g id="node12" class="node"><title>Node12</title>
<g id="a_node12"><a xlink:href="classRa_1_1Core_1_1Grid.html#ae9c02e6ec89130899fd0645dbfa4ece7" target="_top" xlink:title="Access an element with a D&#45;dimensional index. ">
<polygon fill="white" stroke="black" points="776,-60 776,-79 874,-79 874,-60 776,-60"/>
<text text-anchor="middle" x="825" y="-67" font-family="Helvetica,sans-Serif" font-size="10.00">Ra::Core::Grid::at</text>
</a>
</g>
</g>
<!-- Node9&#45;&gt;Node12 -->
<g id="edge11" class="edge"><title>Node9&#45;&gt;Node12</title>
<path fill="none" stroke="midnightblue" d="M676.033,-101.651C705.269,-95.2984 741.161,-87.4997 770.273,-81.174"/>
<polygon fill="midnightblue" stroke="midnightblue" points="771.237,-84.5464 780.266,-79.0028 769.75,-77.706 771.237,-84.5464"/>
</g>
<!-- Node15 -->
<g id="node15" class="node"><title>Node15</title>
<g id="a_node15"><a xlink:href="classRa_1_1Engine_1_1Renderer.html#a18a293f1c7c6864e4f1de7f6b88b0f4a" target="_top" xlink:title="resize the renderer dependent resources ">
<polygon fill="white" stroke="black" points="562.5,-0.5 562.5,-30.5 678.5,-30.5 678.5,-0.5 562.5,-0.5"/>
<text text-anchor="start" x="570.5" y="-18.5" font-family="Helvetica,sans-Serif" font-size="10.00">Ra::Engine::Renderer</text>
<text text-anchor="middle" x="620.5" y="-7.5" font-family="Helvetica,sans-Serif" font-size="10.00">::resizeInternal</text>
</a>
</g>
</g>
<!-- Node14&#45;&gt;Node15 -->
<g id="edge14" class="edge"><title>Node14&#45;&gt;Node15</title>
<path fill="none" stroke="midnightblue" d="M461.552,-15.5C489.372,-15.5 523.023,-15.5 552.103,-15.5"/>
<polygon fill="midnightblue" stroke="midnightblue" points="552.182,-19.0001 562.182,-15.5 552.182,-12.0001 552.182,-19.0001"/>
</g>
</g>
</svg>
