<?xml version="1.0" encoding="UTF-8" standalone="no"?>
<!DOCTYPE svg PUBLIC "-//W3C//DTD SVG 1.1//EN"
 "http://www.w3.org/Graphics/SVG/1.1/DTD/svg11.dtd">
<!-- Generated by graphviz version 2.38.0 (20140413.2041)
 -->
<!-- Title: Ra::IO::AssimpCameraDataLoader::AssimpCameraDataLoader Pages: 1 -->
<svg width="423pt" height="39pt"
 viewBox="0.00 0.00 423.00 39.00" xmlns="http://www.w3.org/2000/svg" xmlns:xlink="http://www.w3.org/1999/xlink">
<g id="graph0" class="graph" transform="scale(1 1) rotate(0) translate(4 35)">
<title>Ra::IO::AssimpCameraDataLoader::AssimpCameraDataLoader</title>
<polygon fill="white" stroke="none" points="-4,4 -4,-35 419,-35 419,4 -4,4"/>
<!-- Node1 -->
<g id="node1" class="node"><title>Node1</title>
<polygon fill="#bfbfbf" stroke="black" points="0,-0.5 0,-30.5 185,-30.5 185,-0.5 0,-0.5"/>
<text text-anchor="start" x="8" y="-18.5" font-family="Helvetica,sans-Serif" font-size="10.00">Ra::IO::AssimpCameraData</text>
<text text-anchor="middle" x="92.5" y="-7.5" font-family="Helvetica,sans-Serif" font-size="10.00">Loader::AssimpCameraDataLoader</text>
</g>
<!-- Node2 -->
<g id="node2" class="node"><title>Node2</title>
<g id="a_node2"><a xlink:href="classRa_1_1IO_1_1AssimpCameraDataLoader.html#a42169708cf814827a58dfae76d208690" target="_top" xlink:title="Ra::IO::AssimpCameraData\lLoader::~AssimpCameraDataLoader">
<polygon fill="white" stroke="black" points="221,-0.5 221,-30.5 415,-30.5 415,-0.5 221,-0.5"/>
<text text-anchor="start" x="229" y="-18.5" font-family="Helvetica,sans-Serif" font-size="10.00">Ra::IO::AssimpCameraData</text>
<text text-anchor="middle" x="318" y="-7.5" font-family="Helvetica,sans-Serif" font-size="10.00">Loader::~AssimpCameraDataLoader</text>
</a>
</g>
</g>
<!-- Node1&#45;&gt;Node2 -->
<g id="edge1" class="edge"><title>Node1&#45;&gt;Node2</title>
<path fill="none" stroke="midnightblue" d="M185.051,-15.5C193.542,-15.5 202.195,-15.5 210.803,-15.5"/>
<polygon fill="midnightblue" stroke="midnightblue" points="210.876,-19.0001 220.876,-15.5 210.876,-12.0001 210.876,-19.0001"/>
</g>
</g>
</svg>
