<?xml version="1.0" encoding="UTF-8" standalone="no"?>
<!DOCTYPE svg PUBLIC "-//W3C//DTD SVG 1.1//EN"
 "http://www.w3.org/Graphics/SVG/1.1/DTD/svg11.dtd">
<!-- Generated by graphviz version 2.38.0 (20140413.2041)
 -->
<!-- Title: Ra::Engine::GeometryComponent::handleMeshLoading Pages: 1 -->
<svg width="967pt" height="1613pt"
 viewBox="0.00 0.00 967.00 1613.00" xmlns="http://www.w3.org/2000/svg" xmlns:xlink="http://www.w3.org/1999/xlink">
<g id="graph0" class="graph" transform="scale(1 1) rotate(0) translate(4 1609)">
<title>Ra::Engine::GeometryComponent::handleMeshLoading</title>
<polygon fill="white" stroke="none" points="-4,4 -4,-1609 963,-1609 963,4 -4,4"/>
<!-- Node1 -->
<g id="node1" class="node"><title>Node1</title>
<polygon fill="#bfbfbf" stroke="black" points="0,-961.5 0,-991.5 177,-991.5 177,-961.5 0,-961.5"/>
<text text-anchor="start" x="8" y="-979.5" font-family="Helvetica,sans-Serif" font-size="10.00">Ra::Engine::GeometryComponent</text>
<text text-anchor="middle" x="88.5" y="-968.5" font-family="Helvetica,sans-Serif" font-size="10.00">::handleMeshLoading</text>
</g>
<!-- Node2 -->
<g id="node2" class="node"><title>Node2</title>
<g id="a_node2"><a xlink:href="classRa_1_1Core_1_1Asset_1_1AssetData.html#a3f4a6e18b60f2de4a23c8898a7341d21" target="_top" xlink:title="Acces to the name of the asset. ">
<polygon fill="white" stroke="black" points="228.5,-1574.5 228.5,-1604.5 374.5,-1604.5 374.5,-1574.5 228.5,-1574.5"/>
<text text-anchor="start" x="236.5" y="-1592.5" font-family="Helvetica,sans-Serif" font-size="10.00">Ra::Core::Asset::AssetData</text>
<text text-anchor="middle" x="301.5" y="-1581.5" font-family="Helvetica,sans-Serif" font-size="10.00">::getName</text>
</a>
</g>
</g>
<!-- Node1&#45;&gt;Node2 -->
<g id="edge1" class="edge"><title>Node1&#45;&gt;Node2</title>
<path fill="none" stroke="midnightblue" d="M90.5756,-991.592C96.8116,-1074.93 130.939,-1478.27 213,-1565.5 215.074,-1567.7 217.33,-1569.71 219.729,-1571.54"/>
<polygon fill="midnightblue" stroke="midnightblue" points="218.073,-1574.64 228.378,-1577.1 221.858,-1568.75 218.073,-1574.64"/>
</g>
<!-- Node3 -->
<g id="node3" class="node"><title>Node3</title>
<g id="a_node3"><a xlink:href="classRa_1_1Core_1_1Asset_1_1GeometryData.html#a2e3e4ace10de6776f8e6eb0103bdf05b" target="_top" xlink:title="Return the Transform of the object. ">
<polygon fill="white" stroke="black" points="229.5,-1525.5 229.5,-1555.5 373.5,-1555.5 373.5,-1525.5 229.5,-1525.5"/>
<text text-anchor="start" x="237.5" y="-1543.5" font-family="Helvetica,sans-Serif" font-size="10.00">Ra::Core::Asset::Geometry</text>
<text text-anchor="middle" x="301.5" y="-1532.5" font-family="Helvetica,sans-Serif" font-size="10.00">Data::getFrame</text>
</a>
</g>
</g>
<!-- Node1&#45;&gt;Node3 -->
<g id="edge2" class="edge"><title>Node1&#45;&gt;Node3</title>
<path fill="none" stroke="midnightblue" d="M90.8871,-991.626C98.4473,-1070.85 137.156,-1437.33 213,-1516.5 215.343,-1518.95 217.909,-1521.15 220.645,-1523.14"/>
<polygon fill="midnightblue" stroke="midnightblue" points="218.956,-1526.21 229.308,-1528.46 222.623,-1520.24 218.956,-1526.21"/>
</g>
<!-- Node4 -->
<g id="node4" class="node"><title>Node4</title>
<g id="a_node4"><a xlink:href="classRa_1_1Core_1_1Asset_1_1GeometryData.html#a853558748a15cc6cb17180202e80591c" target="_top" xlink:title="Return the number of vertices. ">
<polygon fill="white" stroke="black" points="229.5,-1476.5 229.5,-1506.5 373.5,-1506.5 373.5,-1476.5 229.5,-1476.5"/>
<text text-anchor="start" x="237.5" y="-1494.5" font-family="Helvetica,sans-Serif" font-size="10.00">Ra::Core::Asset::Geometry</text>
<text text-anchor="middle" x="301.5" y="-1483.5" font-family="Helvetica,sans-Serif" font-size="10.00">Data::getVerticesSize</text>
</a>
</g>
</g>
<!-- Node1&#45;&gt;Node4 -->
<g id="edge3" class="edge"><title>Node1&#45;&gt;Node4</title>
<path fill="none" stroke="midnightblue" d="M91.2678,-991.724C100.274,-1066.75 143.364,-1396.37 213,-1467.5 215.369,-1469.92 217.957,-1472.1 220.712,-1474.07"/>
<polygon fill="midnightblue" stroke="midnightblue" points="219.053,-1477.16 229.417,-1479.36 222.685,-1471.18 219.053,-1477.16"/>
</g>
<!-- Node5 -->
<g id="node5" class="node"><title>Node5</title>
<g id="a_node5"><a xlink:href="classRa_1_1Core_1_1Asset_1_1GeometryData.html#a72272b6e82f2ef8d55443b962df07344" target="_top" xlink:title="Return the list of vertices. ">
<polygon fill="white" stroke="black" points="229.5,-1427.5 229.5,-1457.5 373.5,-1457.5 373.5,-1427.5 229.5,-1427.5"/>
<text text-anchor="start" x="237.5" y="-1445.5" font-family="Helvetica,sans-Serif" font-size="10.00">Ra::Core::Asset::Geometry</text>
<text text-anchor="middle" x="301.5" y="-1434.5" font-family="Helvetica,sans-Serif" font-size="10.00">Data::getVertices</text>
</a>
</g>
</g>
<!-- Node1&#45;&gt;Node5 -->
<g id="edge4" class="edge"><title>Node1&#45;&gt;Node5</title>
<path fill="none" stroke="midnightblue" d="M91.6995,-991.593C102.213,-1061.75 149.468,-1355.27 213,-1418.5 215.271,-1420.76 217.734,-1422.81 220.344,-1424.68"/>
<polygon fill="midnightblue" stroke="midnightblue" points="218.759,-1427.81 229.123,-1430.01 222.393,-1421.83 218.759,-1427.81"/>
</g>
<!-- Node6 -->
<g id="node6" class="node"><title>Node6</title>
<g id="a_node6"><a xlink:href="classRa_1_1Core_1_1Asset_1_1GeometryData.html#a03a070fa11189fb2c3af42869e5b0578" target="_top" xlink:title="Return true if the object has vertex normals. ">
<polygon fill="white" stroke="black" points="229.5,-1378.5 229.5,-1408.5 373.5,-1408.5 373.5,-1378.5 229.5,-1378.5"/>
<text text-anchor="start" x="237.5" y="-1396.5" font-family="Helvetica,sans-Serif" font-size="10.00">Ra::Core::Asset::Geometry</text>
<text text-anchor="middle" x="301.5" y="-1385.5" font-family="Helvetica,sans-Serif" font-size="10.00">Data::hasNormals</text>
</a>
</g>
</g>
<!-- Node1&#45;&gt;Node6 -->
<g id="edge5" class="edge"><title>Node1&#45;&gt;Node6</title>
<path fill="none" stroke="midnightblue" d="M89.4228,-991.545C89.976,-1049.51 99.9735,-1260.56 213,-1369.5 215.307,-1371.72 217.8,-1373.75 220.435,-1375.58"/>
<polygon fill="midnightblue" stroke="midnightblue" points="218.896,-1378.74 229.279,-1380.85 222.478,-1372.73 218.896,-1378.74"/>
</g>
<!-- Node7 -->
<g id="node7" class="node"><title>Node7</title>
<g id="a_node7"><a xlink:href="classRa_1_1Core_1_1Asset_1_1GeometryData.html#a73a3a087566bd60eea1c04e5626bda7f" target="_top" xlink:title="Return the list of vertex normals. ">
<polygon fill="white" stroke="black" points="229.5,-1329.5 229.5,-1359.5 373.5,-1359.5 373.5,-1329.5 229.5,-1329.5"/>
<text text-anchor="start" x="237.5" y="-1347.5" font-family="Helvetica,sans-Serif" font-size="10.00">Ra::Core::Asset::Geometry</text>
<text text-anchor="middle" x="301.5" y="-1336.5" font-family="Helvetica,sans-Serif" font-size="10.00">Data::getNormals</text>
</a>
</g>
</g>
<!-- Node1&#45;&gt;Node7 -->
<g id="edge6" class="edge"><title>Node1&#45;&gt;Node7</title>
<path fill="none" stroke="midnightblue" d="M90.1905,-991.505C93.4769,-1044.83 111.96,-1226.95 213,-1320.5 215.427,-1322.75 218.045,-1324.79 220.806,-1326.64"/>
<polygon fill="midnightblue" stroke="midnightblue" points="219.061,-1329.67 229.47,-1331.65 222.565,-1323.61 219.061,-1329.67"/>
</g>
<!-- Node8 -->
<g id="node8" class="node"><title>Node8</title>
<g id="a_node8"><a xlink:href="classRa_1_1Core_1_1Asset_1_1GeometryData.html#a4683a5543ccaed63907eb19dd25b5a7e" target="_top" xlink:title="Return the list of faces. ">
<polygon fill="white" stroke="black" points="229.5,-1280.5 229.5,-1310.5 373.5,-1310.5 373.5,-1280.5 229.5,-1280.5"/>
<text text-anchor="start" x="237.5" y="-1298.5" font-family="Helvetica,sans-Serif" font-size="10.00">Ra::Core::Asset::Geometry</text>
<text text-anchor="middle" x="301.5" y="-1287.5" font-family="Helvetica,sans-Serif" font-size="10.00">Data::getFaces</text>
</a>
</g>
</g>
<!-- Node1&#45;&gt;Node8 -->
<g id="edge7" class="edge"><title>Node1&#45;&gt;Node8</title>
<path fill="none" stroke="midnightblue" d="M91.2191,-991.722C97.538,-1040.34 123.96,-1193.25 213,-1271.5 215.35,-1273.57 217.862,-1275.45 220.496,-1277.18"/>
<polygon fill="midnightblue" stroke="midnightblue" points="218.855,-1280.28 229.279,-1282.17 222.313,-1274.19 218.855,-1280.28"/>
</g>
<!-- Node9 -->
<g id="node9" class="node"><title>Node9</title>
<g id="a_node9"><a xlink:href="classRa_1_1Core_1_1Asset_1_1GeometryData.html#af277f6a3742105c2c1a690d230c387d2" target="_top" xlink:title="Return true if the object has vertex tangent vectors. ">
<polygon fill="white" stroke="black" points="229.5,-1231.5 229.5,-1261.5 373.5,-1261.5 373.5,-1231.5 229.5,-1231.5"/>
<text text-anchor="start" x="237.5" y="-1249.5" font-family="Helvetica,sans-Serif" font-size="10.00">Ra::Core::Asset::Geometry</text>
<text text-anchor="middle" x="301.5" y="-1238.5" font-family="Helvetica,sans-Serif" font-size="10.00">Data::hasTangents</text>
</a>
</g>
</g>
<!-- Node1&#45;&gt;Node9 -->
<g id="edge8" class="edge"><title>Node1&#45;&gt;Node9</title>
<path fill="none" stroke="midnightblue" d="M92.5798,-991.619C102.162,-1034.69 135.57,-1159.03 213,-1222.5 215.284,-1224.37 217.703,-1226.1 220.225,-1227.69"/>
<polygon fill="midnightblue" stroke="midnightblue" points="218.701,-1230.85 229.149,-1232.61 222.077,-1224.72 218.701,-1230.85"/>
</g>
<!-- Node10 -->
<g id="node10" class="node"><title>Node10</title>
<g id="a_node10"><a xlink:href="classRa_1_1Core_1_1Asset_1_1GeometryData.html#a748f0e0de9a8e7338adabf551e24852a" target="_top" xlink:title="Return the list of vertex tangent vectors. ">
<polygon fill="white" stroke="black" points="229.5,-1182.5 229.5,-1212.5 373.5,-1212.5 373.5,-1182.5 229.5,-1182.5"/>
<text text-anchor="start" x="237.5" y="-1200.5" font-family="Helvetica,sans-Serif" font-size="10.00">Ra::Core::Asset::Geometry</text>
<text text-anchor="middle" x="301.5" y="-1189.5" font-family="Helvetica,sans-Serif" font-size="10.00">Data::getTangents</text>
</a>
</g>
</g>
<!-- Node1&#45;&gt;Node10 -->
<g id="edge9" class="edge"><title>Node1&#45;&gt;Node10</title>
<path fill="none" stroke="midnightblue" d="M94.5365,-991.501C107.729,-1028.44 146.913,-1124.37 213,-1173.5 215.234,-1175.16 217.577,-1176.71 220.002,-1178.15"/>
<polygon fill="midnightblue" stroke="midnightblue" points="218.617,-1181.37 229.101,-1182.9 221.86,-1175.17 218.617,-1181.37"/>
</g>
<!-- Node11 -->
<g id="node11" class="node"><title>Node11</title>
<g id="a_node11"><a xlink:href="classRa_1_1Core_1_1Asset_1_1GeometryData.html#a4b49bc309288a182f63da6330c786dbb" target="_top" xlink:title="Return true if the object has vertex bitangent vectors. ">
<polygon fill="white" stroke="black" points="229.5,-1133.5 229.5,-1163.5 373.5,-1163.5 373.5,-1133.5 229.5,-1133.5"/>
<text text-anchor="start" x="237.5" y="-1151.5" font-family="Helvetica,sans-Serif" font-size="10.00">Ra::Core::Asset::Geometry</text>
<text text-anchor="middle" x="301.5" y="-1140.5" font-family="Helvetica,sans-Serif" font-size="10.00">Data::hasBiTangents</text>
</a>
</g>
</g>
<!-- Node1&#45;&gt;Node11 -->
<g id="edge10" class="edge"><title>Node1&#45;&gt;Node11</title>
<path fill="none" stroke="midnightblue" d="M97.8457,-991.692C115.187,-1021.81 158.115,-1089.2 213,-1124.5 215.484,-1126.1 218.074,-1127.59 220.74,-1128.98"/>
<polygon fill="midnightblue" stroke="midnightblue" points="219.519,-1132.28 230.059,-1133.35 222.491,-1125.94 219.519,-1132.28"/>
</g>
<!-- Node12 -->
<g id="node12" class="node"><title>Node12</title>
<g id="a_node12"><a xlink:href="classRa_1_1Core_1_1Asset_1_1GeometryData.html#a29d034b5e11d7431047c5ebd1e39d0f7" target="_top" xlink:title="Return the list of vertex bitangent vectors. ">
<polygon fill="white" stroke="black" points="229.5,-1084.5 229.5,-1114.5 373.5,-1114.5 373.5,-1084.5 229.5,-1084.5"/>
<text text-anchor="start" x="237.5" y="-1102.5" font-family="Helvetica,sans-Serif" font-size="10.00">Ra::Core::Asset::Geometry</text>
<text text-anchor="middle" x="301.5" y="-1091.5" font-family="Helvetica,sans-Serif" font-size="10.00">Data::getBiTangents</text>
</a>
</g>
</g>
<!-- Node1&#45;&gt;Node12 -->
<g id="edge11" class="edge"><title>Node1&#45;&gt;Node12</title>
<path fill="none" stroke="midnightblue" d="M104.041,-991.552C125.782,-1013.21 168.939,-1053.02 213,-1075.5 216.71,-1077.39 220.586,-1079.15 224.556,-1080.78"/>
<polygon fill="midnightblue" stroke="midnightblue" points="223.361,-1084.07 233.952,-1084.36 225.851,-1077.53 223.361,-1084.07"/>
</g>
<!-- Node13 -->
<g id="node13" class="node"><title>Node13</title>
<g id="a_node13"><a xlink:href="classRa_1_1Core_1_1Asset_1_1GeometryData.html#a8a91c9d0153cab67fc7c2a4c169237e9" target="_top" xlink:title="Return true if the object has vertex texture coordinates. ">
<polygon fill="white" stroke="black" points="224,-1035.5 224,-1065.5 379,-1065.5 379,-1035.5 224,-1035.5"/>
<text text-anchor="start" x="232" y="-1053.5" font-family="Helvetica,sans-Serif" font-size="10.00">Ra::Core::Asset::Geometry</text>
<text text-anchor="middle" x="301.5" y="-1042.5" font-family="Helvetica,sans-Serif" font-size="10.00">Data::hasTextureCoordinates</text>
</a>
</g>
</g>
<!-- Node1&#45;&gt;Node13 -->
<g id="edge12" class="edge"><title>Node1&#45;&gt;Node13</title>
<path fill="none" stroke="midnightblue" d="M123.696,-991.603C148.264,-1002.14 182.324,-1016.12 213,-1026.5 219.071,-1028.55 225.423,-1030.56 231.812,-1032.48"/>
<polygon fill="midnightblue" stroke="midnightblue" points="231.268,-1035.97 241.849,-1035.43 233.241,-1029.26 231.268,-1035.97"/>
</g>
<!-- Node14 -->
<g id="node14" class="node"><title>Node14</title>
<g id="a_node14"><a xlink:href="classRa_1_1Core_1_1Asset_1_1GeometryData.html#a762ed62a1450a0cbeed4465cc62f9843" target="_top" xlink:title="Return the list of vertex texture coordinates. ">
<polygon fill="white" stroke="black" points="229.5,-986.5 229.5,-1016.5 373.5,-1016.5 373.5,-986.5 229.5,-986.5"/>
<text text-anchor="start" x="237.5" y="-1004.5" font-family="Helvetica,sans-Serif" font-size="10.00">Ra::Core::Asset::Geometry</text>
<text text-anchor="middle" x="301.5" y="-993.5" font-family="Helvetica,sans-Serif" font-size="10.00">Data::getTexCoords</text>
</a>
</g>
</g>
<!-- Node1&#45;&gt;Node14 -->
<g id="edge13" class="edge"><title>Node1&#45;&gt;Node14</title>
<path fill="none" stroke="midnightblue" d="M177.15,-986.885C191.181,-988.548 205.646,-990.261 219.513,-991.904"/>
<polygon fill="midnightblue" stroke="midnightblue" points="219.148,-995.386 229.49,-993.087 219.971,-988.434 219.148,-995.386"/>
</g>
<!-- Node15 -->
<g id="node15" class="node"><title>Node15</title>
<g id="a_node15"><a xlink:href="classRa_1_1Core_1_1Asset_1_1GeometryData.html#a2532784691e431bfda51f3eccd0ba902" target="_top" xlink:title="Return true if the object has vertex colors. ">
<polygon fill="white" stroke="black" points="229.5,-937.5 229.5,-967.5 373.5,-967.5 373.5,-937.5 229.5,-937.5"/>
<text text-anchor="start" x="237.5" y="-955.5" font-family="Helvetica,sans-Serif" font-size="10.00">Ra::Core::Asset::Geometry</text>
<text text-anchor="middle" x="301.5" y="-944.5" font-family="Helvetica,sans-Serif" font-size="10.00">Data::hasColors</text>
</a>
</g>
</g>
<!-- Node1&#45;&gt;Node15 -->
<g id="edge14" class="edge"><title>Node1&#45;&gt;Node15</title>
<path fill="none" stroke="midnightblue" d="M177.15,-966.53C191.181,-964.934 205.646,-963.289 219.513,-961.712"/>
<polygon fill="midnightblue" stroke="midnightblue" points="219.95,-965.185 229.49,-960.577 219.159,-958.23 219.95,-965.185"/>
</g>
<!-- Node16 -->
<g id="node16" class="node"><title>Node16</title>
<g id="a_node16"><a xlink:href="classRa_1_1Core_1_1Asset_1_1GeometryData.html#aa3dd156b0cc006ba40882908e484ef43" target="_top" xlink:title="Return the list of vertex colors. ">
<polygon fill="white" stroke="black" points="229.5,-888.5 229.5,-918.5 373.5,-918.5 373.5,-888.5 229.5,-888.5"/>
<text text-anchor="start" x="237.5" y="-906.5" font-family="Helvetica,sans-Serif" font-size="10.00">Ra::Core::Asset::Geometry</text>
<text text-anchor="middle" x="301.5" y="-895.5" font-family="Helvetica,sans-Serif" font-size="10.00">Data::getColors</text>
</a>
</g>
</g>
<!-- Node1&#45;&gt;Node16 -->
<g id="edge15" class="edge"><title>Node1&#45;&gt;Node16</title>
<path fill="none" stroke="midnightblue" d="M125.653,-961.431C150.104,-951.493 183.239,-938.511 213,-928.5 220.08,-926.118 227.53,-923.764 234.971,-921.507"/>
<polygon fill="midnightblue" stroke="midnightblue" points="236.132,-924.813 244.716,-918.603 234.133,-918.105 236.132,-924.813"/>
</g>
<!-- Node17 -->
<g id="node17" class="node"><title>Node17</title>
<g id="a_node17"><a xlink:href="classRa_1_1Core_1_1Asset_1_1GeometryData.html#a36dd93930e7b55d20162a57f7aa89157" target="_top" xlink:title="Return true if the object has MaterialData. ">
<polygon fill="white" stroke="black" points="229.5,-839.5 229.5,-869.5 373.5,-869.5 373.5,-839.5 229.5,-839.5"/>
<text text-anchor="start" x="237.5" y="-857.5" font-family="Helvetica,sans-Serif" font-size="10.00">Ra::Core::Asset::Geometry</text>
<text text-anchor="middle" x="301.5" y="-846.5" font-family="Helvetica,sans-Serif" font-size="10.00">Data::hasMaterial</text>
</a>
</g>
</g>
<!-- Node1&#45;&gt;Node17 -->
<g id="edge16" class="edge"><title>Node1&#45;&gt;Node17</title>
<path fill="none" stroke="midnightblue" d="M104.501,-961.475C126.473,-940.273 169.535,-901.691 213,-879.5 217.545,-877.18 222.335,-875.047 227.237,-873.092"/>
<polygon fill="midnightblue" stroke="midnightblue" points="228.614,-876.314 236.767,-869.547 226.174,-869.753 228.614,-876.314"/>
</g>
<!-- Node18 -->
<g id="node18" class="node"><title>Node18</title>
<g id="a_node18"><a xlink:href="classRa_1_1Core_1_1Asset_1_1GeometryData.html#a67c18300edf7cd3c8c89851d260599a9" target="_top" xlink:title="Return the MaterialData associated to the objet. ">
<polygon fill="white" stroke="black" points="229.5,-790.5 229.5,-820.5 373.5,-820.5 373.5,-790.5 229.5,-790.5"/>
<text text-anchor="start" x="237.5" y="-808.5" font-family="Helvetica,sans-Serif" font-size="10.00">Ra::Core::Asset::Geometry</text>
<text text-anchor="middle" x="301.5" y="-797.5" font-family="Helvetica,sans-Serif" font-size="10.00">Data::getMaterial</text>
</a>
</g>
</g>
<!-- Node1&#45;&gt;Node18 -->
<g id="edge17" class="edge"><title>Node1&#45;&gt;Node18</title>
<path fill="none" stroke="midnightblue" d="M98.2028,-961.106C115.871,-931.271 158.898,-865.445 213,-830.5 216.173,-828.451 219.516,-826.566 222.97,-824.834"/>
<polygon fill="midnightblue" stroke="midnightblue" points="224.667,-827.907 232.332,-820.593 221.778,-821.531 224.667,-827.907"/>
</g>
<!-- Node19 -->
<g id="node19" class="node"><title>Node19</title>
<g id="a_node19"><a xlink:href="namespaceRa_1_1Engine_1_1EngineMaterialConverters.html#ad440019d5fdaa657b3a483a705dc3657" target="_top" xlink:title="Ra::Engine::EngineMaterial\lConverters::getMaterialConverter">
<polygon fill="white" stroke="black" points="213.5,-741.5 213.5,-771.5 389.5,-771.5 389.5,-741.5 213.5,-741.5"/>
<text text-anchor="start" x="221.5" y="-759.5" font-family="Helvetica,sans-Serif" font-size="10.00">Ra::Engine::EngineMaterial</text>
<text text-anchor="middle" x="301.5" y="-748.5" font-family="Helvetica,sans-Serif" font-size="10.00">Converters::getMaterialConverter</text>
</a>
</g>
</g>
<!-- Node1&#45;&gt;Node19 -->
<g id="edge18" class="edge"><title>Node1&#45;&gt;Node19</title>
<path fill="none" stroke="midnightblue" d="M94.7129,-961.424C108.178,-924.756 147.701,-830.348 213,-781.5 215.512,-779.621 218.162,-777.882 220.911,-776.275"/>
<polygon fill="midnightblue" stroke="midnightblue" points="222.72,-779.279 229.99,-771.571 219.5,-773.064 222.72,-779.279"/>
</g>
<!-- Node20 -->
<g id="node20" class="node"><title>Node20</title>
<g id="a_node20"><a xlink:href="classRa_1_1Core_1_1Asset_1_1MaterialData.html#af5d61bc4099f8c25c76d7919408a8d89" target="_top" xlink:title="TYPE. ">
<polygon fill="white" stroke="black" points="234.5,-692.5 234.5,-722.5 368.5,-722.5 368.5,-692.5 234.5,-692.5"/>
<text text-anchor="start" x="242.5" y="-710.5" font-family="Helvetica,sans-Serif" font-size="10.00">Ra::Core::Asset::Material</text>
<text text-anchor="middle" x="301.5" y="-699.5" font-family="Helvetica,sans-Serif" font-size="10.00">Data::getType</text>
</a>
</g>
</g>
<!-- Node1&#45;&gt;Node20 -->
<g id="edge19" class="edge"><title>Node1&#45;&gt;Node20</title>
<path fill="none" stroke="midnightblue" d="M92.7228,-961.236C102.59,-918.331 136.487,-795.684 213,-732.5 216.761,-729.394 220.888,-726.674 225.237,-724.291"/>
<polygon fill="midnightblue" stroke="midnightblue" points="226.943,-727.354 234.432,-719.859 223.904,-721.048 226.943,-727.354"/>
</g>
<!-- Node21 -->
<g id="node21" class="node"><title>Node21</title>
<g id="a_node21"><a xlink:href="classRa_1_1Engine_1_1RenderTechnique.html#a9bddcd20723ee582fd81c363b9148cf9" target="_top" xlink:title="Ra::Engine::RenderTechnique\l::setMaterial">
<polygon fill="white" stroke="black" points="225,-643.5 225,-673.5 378,-673.5 378,-643.5 225,-643.5"/>
<text text-anchor="start" x="233" y="-661.5" font-family="Helvetica,sans-Serif" font-size="10.00">Ra::Engine::RenderTechnique</text>
<text text-anchor="middle" x="301.5" y="-650.5" font-family="Helvetica,sans-Serif" font-size="10.00">::setMaterial</text>
</a>
</g>
</g>
<!-- Node1&#45;&gt;Node21 -->
<g id="edge20" class="edge"><title>Node1&#45;&gt;Node21</title>
<path fill="none" stroke="midnightblue" d="M91.2879,-961.418C97.8142,-913.243 124.792,-761.663 213,-683.5 214.777,-681.925 216.648,-680.449 218.594,-679.065"/>
<polygon fill="midnightblue" stroke="midnightblue" points="220.861,-681.781 227.56,-673.573 217.205,-675.812 220.861,-681.781"/>
</g>
<!-- Node22 -->
<g id="node22" class="node"><title>Node22</title>
<g id="a_node22"><a xlink:href="namespaceRa_1_1Engine_1_1EngineRenderTechniques.html#a5e831d5088144082e9bd3828323aa57a" target="_top" xlink:title="Ra::Engine::EngineRender\lTechniques::getDefaultTechnique">
<polygon fill="white" stroke="black" points="215,-594.5 215,-624.5 388,-624.5 388,-594.5 215,-594.5"/>
<text text-anchor="start" x="223" y="-612.5" font-family="Helvetica,sans-Serif" font-size="10.00">Ra::Engine::EngineRender</text>
<text text-anchor="middle" x="301.5" y="-601.5" font-family="Helvetica,sans-Serif" font-size="10.00">Techniques::getDefaultTechnique</text>
</a>
</g>
</g>
<!-- Node1&#45;&gt;Node22 -->
<g id="edge21" class="edge"><title>Node1&#45;&gt;Node22</title>
<path fill="none" stroke="midnightblue" d="M90.2795,-961.249C93.8482,-907.891 113.118,-727.788 213,-634.5 214.689,-632.923 216.47,-631.444 218.328,-630.058"/>
<polygon fill="midnightblue" stroke="midnightblue" points="220.384,-632.898 226.914,-624.555 216.606,-627.005 220.384,-632.898"/>
</g>
<!-- Node23 -->
<g id="node23" class="node"><title>Node23</title>
<g id="a_node23"><a xlink:href="classRa_1_1Core_1_1Utils_1_1ColorBase.html#a7f0a6768d3dff7343b503929b142fc22" target="_top" xlink:title="Ra::Core::Utils::ColorBase\l\&lt; Scalar \&gt;::Grey">
<polygon fill="white" stroke="black" points="232,-545.5 232,-575.5 371,-575.5 371,-545.5 232,-545.5"/>
<text text-anchor="start" x="240" y="-563.5" font-family="Helvetica,sans-Serif" font-size="10.00">Ra::Core::Utils::ColorBase</text>
<text text-anchor="middle" x="301.5" y="-552.5" font-family="Helvetica,sans-Serif" font-size="10.00">&lt; Scalar &gt;::Grey</text>
</a>
</g>
</g>
<!-- Node1&#45;&gt;Node23 -->
<g id="edge22" class="edge"><title>Node1&#45;&gt;Node23</title>
<path fill="none" stroke="midnightblue" d="M89.4905,-961.17C90.3162,-903.067 101.249,-694.205 213,-585.5 216.058,-582.526 219.444,-579.901 223.055,-577.584"/>
<polygon fill="midnightblue" stroke="midnightblue" points="224.787,-580.626 231.841,-572.721 221.397,-574.502 224.787,-580.626"/>
</g>
<!-- Node24 -->
<g id="node24" class="node"><title>Node24</title>
<g id="a_node24"><a xlink:href="classRa_1_1Core_1_1Utils_1_1ColorBase.html#a467dad42627c64495356c4fd21b3ac81" target="_top" xlink:title="Ra::Core::Utils::ColorBase\l\&lt; Scalar \&gt;::White">
<polygon fill="white" stroke="black" points="232,-496.5 232,-526.5 371,-526.5 371,-496.5 232,-496.5"/>
<text text-anchor="start" x="240" y="-514.5" font-family="Helvetica,sans-Serif" font-size="10.00">Ra::Core::Utils::ColorBase</text>
<text text-anchor="middle" x="301.5" y="-503.5" font-family="Helvetica,sans-Serif" font-size="10.00">&lt; Scalar &gt;::White</text>
</a>
</g>
</g>
<!-- Node1&#45;&gt;Node24 -->
<g id="edge23" class="edge"><title>Node1&#45;&gt;Node24</title>
<path fill="none" stroke="midnightblue" d="M88.8694,-961.467C87.1284,-899.469 89.0228,-661.056 213,-536.5 216.009,-533.477 219.357,-530.813 222.939,-528.467"/>
<polygon fill="midnightblue" stroke="midnightblue" points="224.675,-531.506 231.67,-523.548 221.239,-525.407 224.675,-531.506"/>
</g>
<!-- Node25 -->
<g id="node25" class="node"><title>Node25</title>
<g id="a_node25"><a xlink:href="classRa_1_1Engine_1_1RenderObject.html#ae9cb914f351555a60d29e8d6afedc06b" target="_top" xlink:title="Sort of factory method to easily create a render object. ">
<polygon fill="white" stroke="black" points="233,-447.5 233,-477.5 370,-477.5 370,-447.5 233,-447.5"/>
<text text-anchor="start" x="241" y="-465.5" font-family="Helvetica,sans-Serif" font-size="10.00">Ra::Engine::RenderObject</text>
<text text-anchor="middle" x="301.5" y="-454.5" font-family="Helvetica,sans-Serif" font-size="10.00">::createRenderObject</text>
</a>
</g>
</g>
<!-- Node1&#45;&gt;Node25 -->
<g id="edge24" class="edge"><title>Node1&#45;&gt;Node25</title>
<path fill="none" stroke="midnightblue" d="M91.2921,-961.352C100.414,-886.702 143.973,-558.695 213,-487.5 216.243,-484.156 219.899,-481.25 223.831,-478.726"/>
<polygon fill="midnightblue" stroke="midnightblue" points="225.742,-481.67 232.824,-473.79 222.374,-475.534 225.742,-481.67"/>
</g>
<!-- Node28 -->
<g id="node28" class="node"><title>Node28</title>
<g id="a_node28"><a xlink:href="classRa_1_1Engine_1_1GeometryComponent.html#acd66e05ec26dd556df24c544cee48440" target="_top" xlink:title="Ra::Engine::GeometryComponent\l::setupIO">
<polygon fill="white" stroke="black" points="213,-202.5 213,-232.5 390,-232.5 390,-202.5 213,-202.5"/>
<text text-anchor="start" x="221" y="-220.5" font-family="Helvetica,sans-Serif" font-size="10.00">Ra::Engine::GeometryComponent</text>
<text text-anchor="middle" x="301.5" y="-209.5" font-family="Helvetica,sans-Serif" font-size="10.00">::setupIO</text>
</a>
</g>
</g>
<!-- Node1&#45;&gt;Node28 -->
<g id="edge27" class="edge"><title>Node1&#45;&gt;Node28</title>
<path fill="none" stroke="midnightblue" d="M91.2237,-961.133C99.2152,-892.653 135.602,-609.009 213,-389.5 232.57,-333.998 266.481,-273.68 285.838,-241.288"/>
<polygon fill="midnightblue" stroke="midnightblue" points="288.945,-242.913 291.117,-232.544 282.953,-239.296 288.945,-242.913"/>
</g>
<!-- Node42 -->
<g id="node42" class="node"><title>Node42</title>
<g id="a_node42"><a xlink:href="classRa_1_1Engine_1_1Component.html#aea20d8186eb969b255cd83218a809178" target="_top" xlink:title="Add a new render object to the component. This adds the RO to the manager for drawing. ">
<polygon fill="white" stroke="black" points="237,-398.5 237,-428.5 366,-428.5 366,-398.5 237,-398.5"/>
<text text-anchor="start" x="245" y="-416.5" font-family="Helvetica,sans-Serif" font-size="10.00">Ra::Engine::Component</text>
<text text-anchor="middle" x="301.5" y="-405.5" font-family="Helvetica,sans-Serif" font-size="10.00">::addRenderObject</text>
</a>
</g>
</g>
<!-- Node1&#45;&gt;Node42 -->
<g id="edge43" class="edge"><title>Node1&#45;&gt;Node42</title>
<path fill="none" stroke="midnightblue" d="M90.9106,-961.444C98.5904,-882.586 137.81,-517.757 213,-438.5 217.18,-434.094 222.077,-430.448 227.381,-427.433"/>
<polygon fill="midnightblue" stroke="midnightblue" points="229.177,-430.451 236.639,-422.93 226.116,-424.156 229.177,-430.451"/>
</g>
<!-- Node26 -->
<g id="node26" class="node"><title>Node26</title>
<g id="a_node26"><a xlink:href="classRa_1_1Engine_1_1RenderObject.html#acf300c8fdb55fee54d27b3fb46a1e523" target="_top" xlink:title="A &#45;1 (or any other negative value) lifetime is considered infinite, 0 is an &quot;invalid value&quot; (would me...">
<polygon fill="white" stroke="black" points="446,-447.5 446,-477.5 583,-477.5 583,-447.5 446,-447.5"/>
<text text-anchor="start" x="454" y="-465.5" font-family="Helvetica,sans-Serif" font-size="10.00">Ra::Engine::RenderObject</text>
<text text-anchor="middle" x="514.5" y="-454.5" font-family="Helvetica,sans-Serif" font-size="10.00">::RenderObject</text>
</a>
</g>
</g>
<!-- Node25&#45;&gt;Node26 -->
<g id="edge25" class="edge"><title>Node25&#45;&gt;Node26</title>
<path fill="none" stroke="midnightblue" d="M370.132,-462.5C391.048,-462.5 414.254,-462.5 435.795,-462.5"/>
<polygon fill="midnightblue" stroke="midnightblue" points="435.889,-466 445.889,-462.5 435.889,-459 435.889,-466"/>
</g>
<!-- Node27 -->
<g id="node27" class="node"><title>Node27</title>
<g id="a_node27"><a xlink:href="classRa_1_1Engine_1_1RenderObject.html#a8ea17931e62bea93890d44815bf7fcf5" target="_top" xlink:title="Ra::Engine::RenderObject\l::~RenderObject">
<polygon fill="white" stroke="black" points="654.5,-447.5 654.5,-477.5 791.5,-477.5 791.5,-447.5 654.5,-447.5"/>
<text text-anchor="start" x="662.5" y="-465.5" font-family="Helvetica,sans-Serif" font-size="10.00">Ra::Engine::RenderObject</text>
<text text-anchor="middle" x="723" y="-454.5" font-family="Helvetica,sans-Serif" font-size="10.00">::~RenderObject</text>
</a>
</g>
</g>
<!-- Node26&#45;&gt;Node27 -->
<g id="edge26" class="edge"><title>Node26&#45;&gt;Node27</title>
<path fill="none" stroke="midnightblue" d="M583.116,-462.5C602.637,-462.5 624.095,-462.5 644.184,-462.5"/>
<polygon fill="midnightblue" stroke="midnightblue" points="644.232,-466 654.232,-462.5 644.232,-459 644.232,-466"/>
</g>
<!-- Node29 -->
<g id="node29" class="node"><title>Node29</title>
<g id="a_node29"><a xlink:href="classRa_1_1Engine_1_1Component.html#a207c1dc2e97856c22e0767fb77162933" target="_top" xlink:title="Return the entity the component belongs to. ">
<polygon fill="white" stroke="black" points="450,-349.5 450,-379.5 579,-379.5 579,-349.5 450,-349.5"/>
<text text-anchor="start" x="458" y="-367.5" font-family="Helvetica,sans-Serif" font-size="10.00">Ra::Engine::Component</text>
<text text-anchor="middle" x="514.5" y="-356.5" font-family="Helvetica,sans-Serif" font-size="10.00">::getEntity</text>
</a>
</g>
</g>
<!-- Node28&#45;&gt;Node29 -->
<g id="edge28" class="edge"><title>Node28&#45;&gt;Node29</title>
<path fill="none" stroke="midnightblue" d="M313.595,-232.884C333.251,-259.003 376.787,-311.959 426,-340.5 430.484,-343.1 435.261,-345.429 440.181,-347.512"/>
<polygon fill="midnightblue" stroke="midnightblue" points="439.192,-350.882 449.782,-351.224 441.716,-344.353 439.192,-350.882"/>
</g>
<!-- Node30 -->
<g id="node30" class="node"><title>Node30</title>
<g id="a_node30"><a xlink:href="classRa_1_1Engine_1_1Component.html#a10b0bc182b76165744ebea603ae32dfe" target="_top" xlink:title="Shortcut to access the render object manager. ">
<polygon fill="white" stroke="black" points="450,-398.5 450,-428.5 579,-428.5 579,-398.5 450,-398.5"/>
<text text-anchor="start" x="458" y="-416.5" font-family="Helvetica,sans-Serif" font-size="10.00">Ra::Engine::Component</text>
<text text-anchor="middle" x="514.5" y="-405.5" font-family="Helvetica,sans-Serif" font-size="10.00">::getRoMgr</text>
</a>
</g>
</g>
<!-- Node28&#45;&gt;Node30 -->
<g id="edge29" class="edge"><title>Node28&#45;&gt;Node30</title>
<path fill="none" stroke="midnightblue" d="M308.98,-232.562C324.218,-266.148 365.648,-347.508 426,-389.5 430.526,-392.649 435.449,-395.385 440.577,-397.763"/>
<polygon fill="midnightblue" stroke="midnightblue" points="439.41,-401.068 449.988,-401.668 442.093,-394.602 439.41,-401.068"/>
</g>
<!-- Node31 -->
<g id="node31" class="node"><title>Node31</title>
<g id="a_node31"><a xlink:href="classRa_1_1Engine_1_1RenderObjectManager.html#a13fc919e9fa01bfb36e67bc9011d325f" target="_top" xlink:title="Returns the render object corresponding to the given index. ">
<polygon fill="white" stroke="black" points="442.5,-300.5 442.5,-330.5 586.5,-330.5 586.5,-300.5 442.5,-300.5"/>
<text text-anchor="start" x="450.5" y="-318.5" font-family="Helvetica,sans-Serif" font-size="10.00">Ra::Engine::RenderObject</text>
<text text-anchor="middle" x="514.5" y="-307.5" font-family="Helvetica,sans-Serif" font-size="10.00">Manager::getRenderObject</text>
</a>
</g>
</g>
<!-- Node28&#45;&gt;Node31 -->
<g id="edge30" class="edge"><title>Node28&#45;&gt;Node31</title>
<path fill="none" stroke="midnightblue" d="M323.845,-232.762C347.733,-249.239 388.074,-275.297 426,-291.5 430.767,-293.536 435.754,-295.446 440.825,-297.227"/>
<polygon fill="midnightblue" stroke="midnightblue" points="440.054,-300.659 450.648,-300.495 442.264,-294.017 440.054,-300.659"/>
</g>
<!-- Node34 -->
<g id="node34" class="node"><title>Node34</title>
<g id="a_node34"><a xlink:href="classRa_1_1Engine_1_1GeometryComponent.html#a35d2c154a968afc08224d7b4acd795f3" target="_top" xlink:title="Returns the index of the associated RO (the display mesh) ">
<polygon fill="white" stroke="black" points="426,-251.5 426,-281.5 603,-281.5 603,-251.5 426,-251.5"/>
<text text-anchor="start" x="434" y="-269.5" font-family="Helvetica,sans-Serif" font-size="10.00">Ra::Engine::GeometryComponent</text>
<text text-anchor="middle" x="514.5" y="-258.5" font-family="Helvetica,sans-Serif" font-size="10.00">::getRenderObjectIndex</text>
</a>
</g>
</g>
<!-- Node28&#45;&gt;Node34 -->
<g id="edge33" class="edge"><title>Node28&#45;&gt;Node34</title>
<path fill="none" stroke="midnightblue" d="M367.241,-232.535C389.925,-237.802 415.579,-243.76 438.997,-249.198"/>
<polygon fill="midnightblue" stroke="midnightblue" points="438.349,-252.641 448.882,-251.494 439.932,-245.822 438.349,-252.641"/>
</g>
<!-- Node35 -->
<g id="node35" class="node"><title>Node35</title>
<g id="a_node35"><a xlink:href="classRa_1_1Engine_1_1GeometryComponent.html#a4f76de5cae3f221ddde1632e2bfbb671" target="_top" xlink:title="Returns the current display geometry. ">
<polygon fill="white" stroke="black" points="426,-202.5 426,-232.5 603,-232.5 603,-202.5 426,-202.5"/>
<text text-anchor="start" x="434" y="-220.5" font-family="Helvetica,sans-Serif" font-size="10.00">Ra::Engine::GeometryComponent</text>
<text text-anchor="middle" x="514.5" y="-209.5" font-family="Helvetica,sans-Serif" font-size="10.00">::getMesh</text>
</a>
</g>
</g>
<!-- Node28&#45;&gt;Node35 -->
<g id="edge34" class="edge"><title>Node28&#45;&gt;Node35</title>
<path fill="none" stroke="midnightblue" d="M390.15,-217.5C398.522,-217.5 407.048,-217.5 415.509,-217.5"/>
<polygon fill="midnightblue" stroke="midnightblue" points="415.783,-221 425.783,-217.5 415.783,-214 415.783,-221"/>
</g>
<!-- Node36 -->
<g id="node36" class="node"><title>Node36</title>
<g id="a_node36"><a xlink:href="classRa_1_1Engine_1_1Mesh.html#a1a0dd0e87ce6e6c7d6177c101046c8bf" target="_top" xlink:title="Returns the underlying TriangleMesh. ">
<polygon fill="white" stroke="black" points="639,-186 639,-205 807,-205 807,-186 639,-186"/>
<text text-anchor="middle" x="723" y="-193" font-family="Helvetica,sans-Serif" font-size="10.00">Ra::Engine::Mesh::getGeometry</text>
</a>
</g>
</g>
<!-- Node28&#45;&gt;Node36 -->
<g id="edge37" class="edge"><title>Node28&#45;&gt;Node36</title>
<path fill="none" stroke="midnightblue" d="M364.326,-202.468C383.923,-198.382 405.757,-194.528 426,-192.5 493.535,-185.733 570.168,-186.747 628.538,-189.314"/>
<polygon fill="midnightblue" stroke="midnightblue" points="628.697,-192.825 638.848,-189.792 629.021,-185.833 628.697,-192.825"/>
</g>
<!-- Node37 -->
<g id="node37" class="node"><title>Node37</title>
<g id="a_node37"><a xlink:href="classRa_1_1Engine_1_1Mesh.html#a9a1dcadf7fb4ff851b18c87b3a98ac6b" target="_top" xlink:title="Mark one of the data types as dirty, forcing an update of the openGL buffer. ">
<polygon fill="white" stroke="black" points="443.5,-126 443.5,-145 585.5,-145 585.5,-126 443.5,-126"/>
<text text-anchor="middle" x="514.5" y="-133" font-family="Helvetica,sans-Serif" font-size="10.00">Ra::Engine::Mesh::setDirty</text>
</a>
</g>
</g>
<!-- Node28&#45;&gt;Node37 -->
<g id="edge36" class="edge"><title>Node28&#45;&gt;Node37</title>
<path fill="none" stroke="midnightblue" d="M330.849,-202.48C355.504,-189.833 392.442,-171.879 426,-159.5 437.895,-155.113 450.959,-151.112 463.281,-147.688"/>
<polygon fill="midnightblue" stroke="midnightblue" points="464.228,-151.058 472.968,-145.069 462.401,-144.3 464.228,-151.058"/>
</g>
<!-- Node38 -->
<g id="node38" class="node"><title>Node38</title>
<g id="a_node38"><a xlink:href="classRa_1_1Engine_1_1Mesh.html#aa0a5434603b5e29adefbe1dff06b6613" target="_top" xlink:title="Use the given geometry as base for a display mesh. Normals are optionnal. ">
<polygon fill="white" stroke="black" points="428,-50 428,-69 601,-69 601,-50 428,-50"/>
<text text-anchor="middle" x="514.5" y="-57" font-family="Helvetica,sans-Serif" font-size="10.00">Ra::Engine::Mesh::loadGeometry</text>
</a>
</g>
</g>
<!-- Node28&#45;&gt;Node38 -->
<g id="edge38" class="edge"><title>Node28&#45;&gt;Node38</title>
<path fill="none" stroke="midnightblue" d="M312.069,-202.486C330.59,-174.67 374.117,-115.091 426,-83.5 433.527,-78.9169 441.943,-75.1908 450.5,-72.1659"/>
<polygon fill="midnightblue" stroke="midnightblue" points="451.74,-75.4435 460.181,-69.0404 449.589,-68.7821 451.74,-75.4435"/>
</g>
<!-- Node39 -->
<g id="node39" class="node"><title>Node39</title>
<g id="a_node39"><a xlink:href="classRa_1_1Core_1_1Geometry_1_1TriangleMesh.html#a6ef9dbd18c0501f2ffd1316be6be56ce" target="_top" xlink:title="Access the vertices positions. ">
<polygon fill="white" stroke="black" points="659,-82.5 659,-112.5 787,-112.5 787,-82.5 659,-82.5"/>
<text text-anchor="start" x="667" y="-100.5" font-family="Helvetica,sans-Serif" font-size="10.00">Ra::Core::Geometry</text>
<text text-anchor="middle" x="723" y="-89.5" font-family="Helvetica,sans-Serif" font-size="10.00">::TriangleMesh::vertices</text>
</a>
</g>
</g>
<!-- Node28&#45;&gt;Node39 -->
<g id="edge41" class="edge"><title>Node28&#45;&gt;Node39</title>
<path fill="none" stroke="midnightblue" d="M315.058,-202.454C335.522,-179.172 378.574,-135.158 426,-116.5 497.948,-88.1957 587.318,-86.5564 648.926,-90.0403"/>
<polygon fill="midnightblue" stroke="midnightblue" points="648.75,-93.5361 658.949,-90.6661 649.187,-86.5497 648.75,-93.5361"/>
</g>
<!-- Node41 -->
<g id="node41" class="node"><title>Node41</title>
<g id="a_node41"><a xlink:href="classRa_1_1Core_1_1Geometry_1_1TriangleMesh.html#ad7d3f6272b902171740e50232ba56114" target="_top" xlink:title="Access the vertices normals. ">
<polygon fill="white" stroke="black" points="450,-0.5 450,-30.5 579,-30.5 579,-0.5 450,-0.5"/>
<text text-anchor="start" x="458" y="-18.5" font-family="Helvetica,sans-Serif" font-size="10.00">Ra::Core::Geometry</text>
<text text-anchor="middle" x="514.5" y="-7.5" font-family="Helvetica,sans-Serif" font-size="10.00">::TriangleMesh::normals</text>
</a>
</g>
</g>
<!-- Node28&#45;&gt;Node41 -->
<g id="edge42" class="edge"><title>Node28&#45;&gt;Node41</title>
<path fill="none" stroke="midnightblue" d="M308.775,-202.304C323.731,-167.999 364.853,-84.1482 426,-40.5 430.501,-37.2874 435.406,-34.4859 440.522,-32.0432"/>
<polygon fill="midnightblue" stroke="midnightblue" points="442.099,-35.1754 449.915,-28.0225 439.344,-28.7401 442.099,-35.1754"/>
</g>
<!-- Node32 -->
<g id="node32" class="node"><title>Node32</title>
<g id="a_node32"><a xlink:href="classRa_1_1Engine_1_1RenderObjectManager.html#a088feae4339349a81b7b6635b38aead1" target="_top" xlink:title="Returns true if the index points to a valid render object. ">
<polygon fill="white" stroke="black" points="654.5,-300.5 654.5,-330.5 791.5,-330.5 791.5,-300.5 654.5,-300.5"/>
<text text-anchor="start" x="662.5" y="-318.5" font-family="Helvetica,sans-Serif" font-size="10.00">Ra::Engine::RenderObject</text>
<text text-anchor="middle" x="723" y="-307.5" font-family="Helvetica,sans-Serif" font-size="10.00">Manager::exists</text>
</a>
</g>
</g>
<!-- Node31&#45;&gt;Node32 -->
<g id="edge31" class="edge"><title>Node31&#45;&gt;Node32</title>
<path fill="none" stroke="midnightblue" d="M586.566,-315.5C605.157,-315.5 625.296,-315.5 644.218,-315.5"/>
<polygon fill="midnightblue" stroke="midnightblue" points="644.286,-319 654.286,-315.5 644.286,-312 644.286,-319"/>
</g>
<!-- Node33 -->
<g id="node33" class="node"><title>Node33</title>
<g id="a_node33"><a xlink:href="classRa_1_1Core_1_1Utils_1_1Index.html#ac7a1b710e6b95834a562c27e2f6c0f4b" target="_top" xlink:title="DESTRUCTOR: Must not be defined, we need it trivial to be constexpr. ">
<polygon fill="white" stroke="black" points="843,-300.5 843,-330.5 959,-330.5 959,-300.5 843,-300.5"/>
<text text-anchor="start" x="851" y="-318.5" font-family="Helvetica,sans-Serif" font-size="10.00">Ra::Core::Utils::Index</text>
<text text-anchor="middle" x="901" y="-307.5" font-family="Helvetica,sans-Serif" font-size="10.00">::isValid</text>
</a>
</g>
</g>
<!-- Node32&#45;&gt;Node33 -->
<g id="edge32" class="edge"><title>Node32&#45;&gt;Node33</title>
<path fill="none" stroke="midnightblue" d="M791.543,-315.5C805.061,-315.5 819.262,-315.5 832.77,-315.5"/>
<polygon fill="midnightblue" stroke="midnightblue" points="832.941,-319 842.941,-315.5 832.941,-312 832.941,-319"/>
</g>
<!-- Node35&#45;&gt;Node36 -->
<g id="edge35" class="edge"><title>Node35&#45;&gt;Node36</title>
<path fill="none" stroke="midnightblue" d="M603.075,-208.17C611.608,-207.261 620.287,-206.336 628.872,-205.422"/>
<polygon fill="midnightblue" stroke="midnightblue" points="629.319,-208.894 638.892,-204.354 628.577,-201.933 629.319,-208.894"/>
</g>
<!-- Node38&#45;&gt;Node39 -->
<g id="edge39" class="edge"><title>Node38&#45;&gt;Node39</title>
<path fill="none" stroke="midnightblue" d="M567.342,-69.04C591.92,-73.5627 621.715,-79.0456 648.567,-83.9869"/>
<polygon fill="midnightblue" stroke="midnightblue" points="648.229,-87.4833 658.697,-85.851 649.496,-80.5989 648.229,-87.4833"/>
</g>
<!-- Node40 -->
<g id="node40" class="node"><title>Node40</title>
<g id="a_node40"><a xlink:href="classRa_1_1Core_1_1Geometry_1_1TriangleMesh.html#a316e86eab4e624183f1bfe5c25f8592c" target="_top" xlink:title="Return the Handle to the attribute with the given name if it exists, an invalid handle otherwise...">
<polygon fill="white" stroke="black" points="640,-33.5 640,-63.5 806,-63.5 806,-33.5 640,-33.5"/>
<text text-anchor="start" x="648" y="-51.5" font-family="Helvetica,sans-Serif" font-size="10.00">Ra::Core::Geometry</text>
<text text-anchor="middle" x="723" y="-40.5" font-family="Helvetica,sans-Serif" font-size="10.00">::TriangleMesh::getAttribHandle</text>
</a>
</g>
</g>
<!-- Node38&#45;&gt;Node40 -->
<g id="edge40" class="edge"><title>Node38&#45;&gt;Node40</title>
<path fill="none" stroke="midnightblue" d="M601.281,-54.9306C610.639,-54.4321 620.195,-53.923 629.628,-53.4206"/>
<polygon fill="midnightblue" stroke="midnightblue" points="630.001,-56.9057 639.801,-52.8787 629.628,-49.9156 630.001,-56.9057"/>
</g>
<!-- Node42&#45;&gt;Node30 -->
<g id="edge44" class="edge"><title>Node42&#45;&gt;Node30</title>
<path fill="none" stroke="midnightblue" d="M366.093,-413.5C389.239,-413.5 415.599,-413.5 439.565,-413.5"/>
<polygon fill="midnightblue" stroke="midnightblue" points="439.673,-417 449.673,-413.5 439.673,-410 439.673,-417"/>
</g>
</g>
</svg>
