<?xml version="1.0" encoding="UTF-8" standalone="no"?>
<!DOCTYPE svg PUBLIC "-//W3C//DTD SVG 1.1//EN"
 "http://www.w3.org/Graphics/SVG/1.1/DTD/svg11.dtd">
<!-- Generated by graphviz version 2.38.0 (20140413.2041)
 -->
<!-- Title: Ra::GuiBase::BaseApplication::setupScene Pages: 1 -->
<svg width="758pt" height="333pt"
 viewBox="0.00 0.00 758.00 333.00" xmlns="http://www.w3.org/2000/svg" xmlns:xlink="http://www.w3.org/1999/xlink">
<g id="graph0" class="graph" transform="scale(1 1) rotate(0) translate(4 329)">
<title>Ra::GuiBase::BaseApplication::setupScene</title>
<polygon fill="white" stroke="none" points="-4,4 -4,-329 754,-329 754,4 -4,4"/>
<!-- Node1 -->
<g id="node1" class="node"><title>Node1</title>
<polygon fill="#bfbfbf" stroke="black" points="0,-122.5 0,-152.5 157,-152.5 157,-122.5 0,-122.5"/>
<text text-anchor="start" x="8" y="-140.5" font-family="Helvetica,sans-Serif" font-size="10.00">Ra::GuiBase::BaseApplication</text>
<text text-anchor="middle" x="78.5" y="-129.5" font-family="Helvetica,sans-Serif" font-size="10.00">::setupScene</text>
</g>
<!-- Node2 -->
<g id="node2" class="node"><title>Node2</title>
<g id="a_node2"><a xlink:href="namespaceRa_1_1Engine_1_1DrawPrimitives.html#a70881604443264a7fceb751567eaa5b4" target="_top" xlink:title="Ra::Engine::DrawPrimitives\l::Primitive">
<polygon fill="white" stroke="black" points="193,-245.5 193,-275.5 336,-275.5 336,-245.5 193,-245.5"/>
<text text-anchor="start" x="201" y="-263.5" font-family="Helvetica,sans-Serif" font-size="10.00">Ra::Engine::DrawPrimitives</text>
<text text-anchor="middle" x="264.5" y="-252.5" font-family="Helvetica,sans-Serif" font-size="10.00">::Primitive</text>
</a>
</g>
</g>
<!-- Node1&#45;&gt;Node2 -->
<g id="edge1" class="edge"><title>Node1&#45;&gt;Node2</title>
<path fill="none" stroke="midnightblue" d="M93.5314,-152.764C113.713,-173.931 152.936,-212.213 193,-235.5 196.6,-237.592 200.404,-239.553 204.304,-241.381"/>
<polygon fill="midnightblue" stroke="midnightblue" points="202.965,-244.616 213.53,-245.409 205.766,-238.2 202.965,-244.616"/>
</g>
<!-- Node6 -->
<g id="node6" class="node"><title>Node6</title>
<g id="a_node6"><a xlink:href="classRa_1_1Engine_1_1SystemEntity.html#a2b341d35802bc8d3e1b7a49833db9730" target="_top" xlink:title="Access the UI Component. ">
<polygon fill="white" stroke="black" points="196,-196.5 196,-226.5 333,-226.5 333,-196.5 196,-196.5"/>
<text text-anchor="start" x="204" y="-214.5" font-family="Helvetica,sans-Serif" font-size="10.00">Ra::Engine::SystemEntity</text>
<text text-anchor="middle" x="264.5" y="-203.5" font-family="Helvetica,sans-Serif" font-size="10.00">::uiCmp</text>
</a>
</g>
</g>
<!-- Node1&#45;&gt;Node6 -->
<g id="edge5" class="edge"><title>Node1&#45;&gt;Node6</title>
<path fill="none" stroke="midnightblue" d="M113.027,-152.674C135.496,-162.669 165.83,-175.832 193,-186.5 198.498,-188.659 204.268,-190.84 210.04,-192.967"/>
<polygon fill="midnightblue" stroke="midnightblue" points="209.112,-196.354 219.707,-196.482 211.505,-189.775 209.112,-196.354"/>
</g>
<!-- Node9 -->
<g id="node9" class="node"><title>Node9</title>
<g id="a_node9"><a xlink:href="namespaceRa_1_1Engine_1_1DrawPrimitives.html#a60dbf809e54bc9de98a71f75e3ece13e" target="_top" xlink:title="Create a res*res square grid centered on center, in plane normal to normal. ">
<polygon fill="white" stroke="black" points="193,-147.5 193,-177.5 336,-177.5 336,-147.5 193,-147.5"/>
<text text-anchor="start" x="201" y="-165.5" font-family="Helvetica,sans-Serif" font-size="10.00">Ra::Engine::DrawPrimitives</text>
<text text-anchor="middle" x="264.5" y="-154.5" font-family="Helvetica,sans-Serif" font-size="10.00">::Grid</text>
</a>
</g>
</g>
<!-- Node1&#45;&gt;Node9 -->
<g id="edge8" class="edge"><title>Node1&#45;&gt;Node9</title>
<path fill="none" stroke="midnightblue" d="M157.266,-148.066C165.633,-149.203 174.162,-150.362 182.566,-151.503"/>
<polygon fill="midnightblue" stroke="midnightblue" points="182.355,-155.007 192.735,-152.885 183.297,-148.071 182.355,-155.007"/>
</g>
<!-- Node10 -->
<g id="node10" class="node"><title>Node10</title>
<g id="a_node10"><a xlink:href="classRa_1_1Core_1_1Utils_1_1ColorBase.html#a7f0a6768d3dff7343b503929b142fc22" target="_top" xlink:title="Ra::Core::Utils::ColorBase\l\&lt; Scalar \&gt;::Grey">
<polygon fill="white" stroke="black" points="195,-98.5 195,-128.5 334,-128.5 334,-98.5 195,-98.5"/>
<text text-anchor="start" x="203" y="-116.5" font-family="Helvetica,sans-Serif" font-size="10.00">Ra::Core::Utils::ColorBase</text>
<text text-anchor="middle" x="264.5" y="-105.5" font-family="Helvetica,sans-Serif" font-size="10.00">&lt; Scalar &gt;::Grey</text>
</a>
</g>
</g>
<!-- Node1&#45;&gt;Node10 -->
<g id="edge9" class="edge"><title>Node1&#45;&gt;Node10</title>
<path fill="none" stroke="midnightblue" d="M157.266,-127.357C166.316,-126.176 175.555,-124.971 184.62,-123.789"/>
<polygon fill="midnightblue" stroke="midnightblue" points="185.299,-127.23 194.762,-122.466 184.393,-120.289 185.299,-127.23"/>
</g>
<!-- Node11 -->
<g id="node11" class="node"><title>Node11</title>
<g id="a_node11"><a xlink:href="classRa_1_1Engine_1_1Component.html#aea20d8186eb969b255cd83218a809178" target="_top" xlink:title="Add a new render object to the component. This adds the RO to the manager for drawing. ">
<polygon fill="white" stroke="black" points="200,-49.5 200,-79.5 329,-79.5 329,-49.5 200,-49.5"/>
<text text-anchor="start" x="208" y="-67.5" font-family="Helvetica,sans-Serif" font-size="10.00">Ra::Engine::Component</text>
<text text-anchor="middle" x="264.5" y="-56.5" font-family="Helvetica,sans-Serif" font-size="10.00">::addRenderObject</text>
</a>
</g>
</g>
<!-- Node1&#45;&gt;Node11 -->
<g id="edge10" class="edge"><title>Node1&#45;&gt;Node11</title>
<path fill="none" stroke="midnightblue" d="M112.489,-122.434C134.987,-112.363 165.563,-99.0735 193,-88.5 197.779,-86.6584 202.766,-84.8122 207.784,-83.0068"/>
<polygon fill="midnightblue" stroke="midnightblue" points="209.162,-86.2318 217.423,-79.5972 206.828,-79.6324 209.162,-86.2318"/>
</g>
<!-- Node13 -->
<g id="node13" class="node"><title>Node13</title>
<g id="a_node13"><a xlink:href="classRa_1_1Engine_1_1Entity.html#ae48596d95b5dcb605e046d12461959e6" target="_top" xlink:title="Ra::Engine::Entity\l::getComponents">
<polygon fill="white" stroke="black" points="214.5,-0.5 214.5,-30.5 314.5,-30.5 314.5,-0.5 214.5,-0.5"/>
<text text-anchor="start" x="222.5" y="-18.5" font-family="Helvetica,sans-Serif" font-size="10.00">Ra::Engine::Entity</text>
<text text-anchor="middle" x="264.5" y="-7.5" font-family="Helvetica,sans-Serif" font-size="10.00">::getComponents</text>
</a>
</g>
</g>
<!-- Node1&#45;&gt;Node13 -->
<g id="edge12" class="edge"><title>Node1&#45;&gt;Node13</title>
<path fill="none" stroke="midnightblue" d="M93.4905,-122.165C113.624,-100.915 152.789,-62.5327 193,-39.5 196.723,-37.3672 200.666,-35.3841 204.709,-33.5477"/>
<polygon fill="midnightblue" stroke="midnightblue" points="206.407,-36.6307 214.267,-29.5274 203.693,-30.1782 206.407,-36.6307"/>
</g>
<!-- Node3 -->
<g id="node3" class="node"><title>Node3</title>
<g id="a_node3"><a xlink:href="namespaceRa_1_1Engine_1_1ShaderConfigurationFactory.html#a0bc60f21dbabd745961037f3d2f019c8" target="_top" xlink:title="Get a configuration from the factory. ">
<polygon fill="white" stroke="black" points="372,-294.5 372,-324.5 543,-324.5 543,-294.5 372,-294.5"/>
<text text-anchor="start" x="380" y="-312.5" font-family="Helvetica,sans-Serif" font-size="10.00">Ra::Engine::ShaderConfiguration</text>
<text text-anchor="middle" x="457.5" y="-301.5" font-family="Helvetica,sans-Serif" font-size="10.00">Factory::getConfiguration</text>
</a>
</g>
</g>
<!-- Node2&#45;&gt;Node3 -->
<g id="edge2" class="edge"><title>Node2&#45;&gt;Node3</title>
<path fill="none" stroke="midnightblue" d="M324.104,-275.535C344.363,-280.732 367.239,-286.601 388.206,-291.98"/>
<polygon fill="midnightblue" stroke="midnightblue" points="387.45,-295.399 398.006,-294.494 389.19,-288.619 387.45,-295.399"/>
</g>
<!-- Node5 -->
<g id="node5" class="node"><title>Node5</title>
<g id="a_node5"><a xlink:href="classRa_1_1Engine_1_1RenderTechnique.html#a9bddcd20723ee582fd81c363b9148cf9" target="_top" xlink:title="Ra::Engine::RenderTechnique\l::setMaterial">
<polygon fill="white" stroke="black" points="381,-245.5 381,-275.5 534,-275.5 534,-245.5 381,-245.5"/>
<text text-anchor="start" x="389" y="-263.5" font-family="Helvetica,sans-Serif" font-size="10.00">Ra::Engine::RenderTechnique</text>
<text text-anchor="middle" x="457.5" y="-252.5" font-family="Helvetica,sans-Serif" font-size="10.00">::setMaterial</text>
</a>
</g>
</g>
<!-- Node2&#45;&gt;Node5 -->
<g id="edge4" class="edge"><title>Node2&#45;&gt;Node5</title>
<path fill="none" stroke="midnightblue" d="M336.079,-260.5C347.339,-260.5 359.096,-260.5 370.662,-260.5"/>
<polygon fill="midnightblue" stroke="midnightblue" points="370.76,-264 380.76,-260.5 370.76,-257 370.76,-264"/>
</g>
<!-- Node4 -->
<g id="node4" class="node"><title>Node4</title>
<g id="a_node4"><a xlink:href="classRa_1_1Engine_1_1ShaderConfiguration.html#a7e20a600c78e8627f0238b342f4b42f2" target="_top" xlink:title="Ra::Engine::ShaderConfiguration\l::getDefaultShaderConfig">
<polygon fill="white" stroke="black" points="579,-294.5 579,-324.5 750,-324.5 750,-294.5 579,-294.5"/>
<text text-anchor="start" x="587" y="-312.5" font-family="Helvetica,sans-Serif" font-size="10.00">Ra::Engine::ShaderConfiguration</text>
<text text-anchor="middle" x="664.5" y="-301.5" font-family="Helvetica,sans-Serif" font-size="10.00">::getDefaultShaderConfig</text>
</a>
</g>
</g>
<!-- Node3&#45;&gt;Node4 -->
<g id="edge3" class="edge"><title>Node3&#45;&gt;Node4</title>
<path fill="none" stroke="midnightblue" d="M543.065,-309.5C551.547,-309.5 560.198,-309.5 568.777,-309.5"/>
<polygon fill="midnightblue" stroke="midnightblue" points="568.799,-313 578.799,-309.5 568.799,-306 568.799,-313"/>
</g>
<!-- Node7 -->
<g id="node7" class="node"><title>Node7</title>
<g id="a_node7"><a xlink:href="classRa_1_1Engine_1_1Entity.html#a92b52cd01334d5bbb6cc61f353a3dd99" target="_top" xlink:title="Ra::Engine::Entity\l::getTransformAsMatrix">
<polygon fill="white" stroke="black" points="394,-196.5 394,-226.5 521,-226.5 521,-196.5 394,-196.5"/>
<text text-anchor="start" x="402" y="-214.5" font-family="Helvetica,sans-Serif" font-size="10.00">Ra::Engine::Entity</text>
<text text-anchor="middle" x="457.5" y="-203.5" font-family="Helvetica,sans-Serif" font-size="10.00">::getTransformAsMatrix</text>
</a>
</g>
</g>
<!-- Node6&#45;&gt;Node7 -->
<g id="edge6" class="edge"><title>Node6&#45;&gt;Node7</title>
<path fill="none" stroke="midnightblue" d="M333.108,-211.5C349.46,-211.5 367.008,-211.5 383.592,-211.5"/>
<polygon fill="midnightblue" stroke="midnightblue" points="383.774,-215 393.773,-211.5 383.773,-208 383.774,-215"/>
</g>
<!-- Node8 -->
<g id="node8" class="node"><title>Node8</title>
<g id="a_node8"><a xlink:href="classRa_1_1Engine_1_1Entity.html#a524712805170bfce52ed0a98f7eee436" target="_top" xlink:title="Get component with a given name. ">
<polygon fill="white" stroke="black" points="407.5,-147.5 407.5,-177.5 507.5,-177.5 507.5,-147.5 407.5,-147.5"/>
<text text-anchor="start" x="415.5" y="-165.5" font-family="Helvetica,sans-Serif" font-size="10.00">Ra::Engine::Entity</text>
<text text-anchor="middle" x="457.5" y="-154.5" font-family="Helvetica,sans-Serif" font-size="10.00">::getComponent</text>
</a>
</g>
</g>
<!-- Node6&#45;&gt;Node8 -->
<g id="edge7" class="edge"><title>Node6&#45;&gt;Node8</title>
<path fill="none" stroke="midnightblue" d="M324.104,-196.465C347.421,-190.484 374.204,-183.613 397.554,-177.622"/>
<polygon fill="midnightblue" stroke="midnightblue" points="398.514,-180.989 407.331,-175.114 396.775,-174.209 398.514,-180.989"/>
</g>
<!-- Node12 -->
<g id="node12" class="node"><title>Node12</title>
<g id="a_node12"><a xlink:href="classRa_1_1Engine_1_1Component.html#a10b0bc182b76165744ebea603ae32dfe" target="_top" xlink:title="Shortcut to access the render object manager. ">
<polygon fill="white" stroke="black" points="393,-49.5 393,-79.5 522,-79.5 522,-49.5 393,-49.5"/>
<text text-anchor="start" x="401" y="-67.5" font-family="Helvetica,sans-Serif" font-size="10.00">Ra::Engine::Component</text>
<text text-anchor="middle" x="457.5" y="-56.5" font-family="Helvetica,sans-Serif" font-size="10.00">::getRoMgr</text>
</a>
</g>
</g>
<!-- Node11&#45;&gt;Node12 -->
<g id="edge11" class="edge"><title>Node11&#45;&gt;Node12</title>
<path fill="none" stroke="midnightblue" d="M329.1,-64.5C346.245,-64.5 364.941,-64.5 382.596,-64.5"/>
<polygon fill="midnightblue" stroke="midnightblue" points="382.852,-68.0001 392.852,-64.5 382.852,-61.0001 382.852,-68.0001"/>
</g>
</g>
</svg>
