<?xml version="1.0" encoding="UTF-8" standalone="no"?>
<!DOCTYPE svg PUBLIC "-//W3C//DTD SVG 1.1//EN"
 "http://www.w3.org/Graphics/SVG/1.1/DTD/svg11.dtd">
<!-- Generated by graphviz version 2.38.0 (20140413.2041)
 -->
<!-- Title: Ra::IO::AssimpHandleDataLoader Pages: 1 -->
<svg width="313pt" height="635pt"
 viewBox="0.00 0.00 312.50 635.00" xmlns="http://www.w3.org/2000/svg" xmlns:xlink="http://www.w3.org/1999/xlink">
<g id="graph0" class="graph" transform="scale(1 1) rotate(0) translate(4 631)">
<title>Ra::IO::AssimpHandleDataLoader</title>
<polygon fill="white" stroke="none" points="-4,4 -4,-631 308.5,-631 308.5,4 -4,4"/>
<!-- Node1 -->
<g id="node1" class="node"><title>Node1</title>
<polygon fill="#bfbfbf" stroke="black" points="-1.42109e-14,-0.5 -1.42109e-14,-211.5 169,-211.5 169,-0.5 -1.42109e-14,-0.5"/>
<text text-anchor="start" x="8" y="-199.5" font-family="Helvetica,sans-Serif" font-size="10.00">Ra::IO::AssimpHandleData</text>
<text text-anchor="middle" x="84.5" y="-188.5" font-family="Helvetica,sans-Serif" font-size="10.00">Loader</text>
<polyline fill="none" stroke="black" points="-1.42109e-14,-181.5 169,-181.5 "/>
<text text-anchor="middle" x="84.5" y="-169.5" font-family="Helvetica,sans-Serif" font-size="10.00"> </text>
<polyline fill="none" stroke="black" points="-1.42109e-14,-162.5 169,-162.5 "/>
<text text-anchor="start" x="8" y="-150.5" font-family="Helvetica,sans-Serif" font-size="10.00">+ AssimpHandleDataLoader()</text>
<text text-anchor="start" x="8" y="-139.5" font-family="Helvetica,sans-Serif" font-size="10.00">+ ~AssimpHandleDataLoader()</text>
<text text-anchor="start" x="8" y="-128.5" font-family="Helvetica,sans-Serif" font-size="10.00">+ loadData()</text>
<text text-anchor="start" x="8" y="-117.5" font-family="Helvetica,sans-Serif" font-size="10.00"># sceneHasHandle()</text>
<text text-anchor="start" x="8" y="-106.5" font-family="Helvetica,sans-Serif" font-size="10.00"># sceneHandleSize()</text>
<text text-anchor="start" x="8" y="-95.5" font-family="Helvetica,sans-Serif" font-size="10.00"># loadHandleData()</text>
<text text-anchor="start" x="8" y="-84.5" font-family="Helvetica,sans-Serif" font-size="10.00"># loadHandleComponentData()</text>
<text text-anchor="start" x="8" y="-73.5" font-family="Helvetica,sans-Serif" font-size="10.00"># loadHandleComponentData()</text>
<text text-anchor="start" x="8" y="-62.5" font-family="Helvetica,sans-Serif" font-size="10.00"># loadHandleComponentData()</text>
<text text-anchor="start" x="8" y="-51.5" font-family="Helvetica,sans-Serif" font-size="10.00"># loadHandleTopologyData()</text>
<text text-anchor="start" x="8" y="-40.5" font-family="Helvetica,sans-Serif" font-size="10.00"># loadHandleFrame()</text>
<text text-anchor="start" x="8" y="-29.5" font-family="Helvetica,sans-Serif" font-size="10.00"># fetchName()</text>
<text text-anchor="start" x="8" y="-18.5" font-family="Helvetica,sans-Serif" font-size="10.00"># fetchType()</text>
<text text-anchor="start" x="8" y="-7.5" font-family="Helvetica,sans-Serif" font-size="10.00"># fetchVertexSize()</text>
</g>
<!-- Node2 -->
<g id="node2" class="node"><title>Node2</title>
<g id="a_node2"><a xlink:href="classRa_1_1Core_1_1Asset_1_1DataLoader.html" target="_top" xlink:title="{Ra::Core::Asset::DataLoader\l\&lt; Core::Asset::HandleData \&gt;\n||+ DataLoader()\l+ ~DataLoader()\l+ loadData()\l+ isVerbose()\l+ setVerbose()\l}">
<polygon fill="white" stroke="black" points="5.5,-249.5 5.5,-361.5 163.5,-361.5 163.5,-249.5 5.5,-249.5"/>
<text text-anchor="start" x="13.5" y="-349.5" font-family="Helvetica,sans-Serif" font-size="10.00">Ra::Core::Asset::DataLoader</text>
<text text-anchor="middle" x="84.5" y="-338.5" font-family="Helvetica,sans-Serif" font-size="10.00">&lt; Core::Asset::HandleData &gt;</text>
<polyline fill="none" stroke="black" points="5.5,-331.5 163.5,-331.5 "/>
<text text-anchor="middle" x="84.5" y="-319.5" font-family="Helvetica,sans-Serif" font-size="10.00"> </text>
<polyline fill="none" stroke="black" points="5.5,-312.5 163.5,-312.5 "/>
<text text-anchor="start" x="13.5" y="-300.5" font-family="Helvetica,sans-Serif" font-size="10.00">+ DataLoader()</text>
<text text-anchor="start" x="13.5" y="-289.5" font-family="Helvetica,sans-Serif" font-size="10.00">+ ~DataLoader()</text>
<text text-anchor="start" x="13.5" y="-278.5" font-family="Helvetica,sans-Serif" font-size="10.00">+ loadData()</text>
<text text-anchor="start" x="13.5" y="-267.5" font-family="Helvetica,sans-Serif" font-size="10.00">+ isVerbose()</text>
<text text-anchor="start" x="13.5" y="-256.5" font-family="Helvetica,sans-Serif" font-size="10.00">+ setVerbose()</text>
</a>
</g>
</g>
<!-- Node2&#45;&gt;Node1 -->
<g id="edge1" class="edge"><title>Node2&#45;&gt;Node1</title>
<path fill="none" stroke="midnightblue" d="M84.5,-239.239C84.5,-230.333 84.5,-221.014 84.5,-211.623"/>
<polygon fill="none" stroke="midnightblue" points="81.0001,-239.485 84.5,-249.485 88.0001,-239.485 81.0001,-239.485"/>
</g>
<!-- Node3 -->
<g id="node3" class="node"><title>Node3</title>
<g id="a_node3"><a xlink:href="classbool.html" target="_top" xlink:title="{bool\n||}">
<polygon fill="white" stroke="black" points="98,-569.5 98,-626.5 135,-626.5 135,-569.5 98,-569.5"/>
<text text-anchor="middle" x="116.5" y="-614.5" font-family="Helvetica,sans-Serif" font-size="10.00">bool</text>
<polyline fill="none" stroke="black" points="98,-607.5 135,-607.5 "/>
<text text-anchor="middle" x="116.5" y="-595.5" font-family="Helvetica,sans-Serif" font-size="10.00"> </text>
<polyline fill="none" stroke="black" points="98,-588.5 135,-588.5 "/>
<text text-anchor="middle" x="116.5" y="-576.5" font-family="Helvetica,sans-Serif" font-size="10.00"> </text>
</a>
</g>
</g>
<!-- Node3&#45;&gt;Node2 -->
<g id="edge2" class="edge"><title>Node3&#45;&gt;Node2</title>
<path fill="none" stroke="#404040" d="M98.0989,-569.43C90.0742,-555.779 81.5776,-538.68 77.5,-522 65.6219,-473.411 68.051,-416.833 73.0876,-373.844"/>
<polygon fill="none" stroke="#404040" points="73.1032,-373.72 69.886,-367.266 74.6058,-361.814 77.823,-368.268 73.1032,-373.72"/>
<text text-anchor="middle" x="110" y="-463" font-family="Helvetica,sans-Serif" font-size="10.00"> #m_verbose</text>
</g>
<!-- Node4 -->
<g id="node4" class="node"><title>Node4</title>
<g id="a_node4"><a xlink:href="classRa_1_1Core_1_1Asset_1_1DataLoader.html" target="_top" xlink:title="{Ra::Core::Asset::DataLoader\l\&lt; DATA \&gt;\n||+ DataLoader()\l+ ~DataLoader()\l+ loadData()\l+ isVerbose()\l+ setVerbose()\l}">
<polygon fill="white" stroke="black" points="151.5,-409.5 151.5,-521.5 303.5,-521.5 303.5,-409.5 151.5,-409.5"/>
<text text-anchor="start" x="159.5" y="-509.5" font-family="Helvetica,sans-Serif" font-size="10.00">Ra::Core::Asset::DataLoader</text>
<text text-anchor="middle" x="227.5" y="-498.5" font-family="Helvetica,sans-Serif" font-size="10.00">&lt; DATA &gt;</text>
<polyline fill="none" stroke="black" points="151.5,-491.5 303.5,-491.5 "/>
<text text-anchor="middle" x="227.5" y="-479.5" font-family="Helvetica,sans-Serif" font-size="10.00"> </text>
<polyline fill="none" stroke="black" points="151.5,-472.5 303.5,-472.5 "/>
<text text-anchor="start" x="159.5" y="-460.5" font-family="Helvetica,sans-Serif" font-size="10.00">+ DataLoader()</text>
<text text-anchor="start" x="159.5" y="-449.5" font-family="Helvetica,sans-Serif" font-size="10.00">+ ~DataLoader()</text>
<text text-anchor="start" x="159.5" y="-438.5" font-family="Helvetica,sans-Serif" font-size="10.00">+ loadData()</text>
<text text-anchor="start" x="159.5" y="-427.5" font-family="Helvetica,sans-Serif" font-size="10.00">+ isVerbose()</text>
<text text-anchor="start" x="159.5" y="-416.5" font-family="Helvetica,sans-Serif" font-size="10.00">+ setVerbose()</text>
</a>
</g>
</g>
<!-- Node3&#45;&gt;Node4 -->
<g id="edge4" class="edge"><title>Node3&#45;&gt;Node4</title>
<path fill="none" stroke="#404040" d="M135.079,-575.157C145.5,-562.905 159.1,-546.916 172.649,-530.987"/>
<polygon fill="none" stroke="#404040" points="172.821,-530.785 173.661,-523.623 180.596,-521.644 179.755,-528.806 172.821,-530.785"/>
<text text-anchor="middle" x="194" y="-543" font-family="Helvetica,sans-Serif" font-size="10.00"> #m_verbose</text>
</g>
<!-- Node4&#45;&gt;Node2 -->
<g id="edge3" class="edge"><title>Node4&#45;&gt;Node2</title>
<path fill="none" stroke="orange" d="M170.541,-401.567C158.619,-388.393 146.132,-374.597 134.486,-361.73"/>
<polygon fill="orange" stroke="orange" points="168.18,-404.174 177.486,-409.239 173.37,-399.476 168.18,-404.174"/>
<text text-anchor="middle" x="232" y="-383" font-family="Helvetica,sans-Serif" font-size="10.00"> &lt; Core::Asset::HandleData &gt;</text>
</g>
</g>
</svg>
