<?xml version="1.0" encoding="UTF-8" standalone="no"?>
<!DOCTYPE svg PUBLIC "-//W3C//DTD SVG 1.1//EN"
 "http://www.w3.org/Graphics/SVG/1.1/DTD/svg11.dtd">
<!-- Generated by graphviz version 2.38.0 (20140413.2041)
 -->
<!-- Title: Ra::Engine::EntityManager::createEntity Pages: 1 -->
<svg width="314pt" height="39pt"
 viewBox="0.00 0.00 314.00 39.00" xmlns="http://www.w3.org/2000/svg" xmlns:xlink="http://www.w3.org/1999/xlink">
<g id="graph0" class="graph" transform="scale(1 1) rotate(0) translate(4 35)">
<title>Ra::Engine::EntityManager::createEntity</title>
<polygon fill="white" stroke="none" points="-4,4 -4,-35 310,-35 310,4 -4,4"/>
<!-- Node1 -->
<g id="node1" class="node"><title>Node1</title>
<polygon fill="#bfbfbf" stroke="black" points="0,-0.5 0,-30.5 142,-30.5 142,-0.5 0,-0.5"/>
<text text-anchor="start" x="8" y="-18.5" font-family="Helvetica,sans-Serif" font-size="10.00">Ra::Engine::EntityManager</text>
<text text-anchor="middle" x="71" y="-7.5" font-family="Helvetica,sans-Serif" font-size="10.00">::createEntity</text>
</g>
<!-- Node2 -->
<g id="node2" class="node"><title>Node2</title>
<g id="a_node2"><a xlink:href="classRa_1_1Core_1_1Utils_1_1IndexedObject.html#ae049f9a31cf501d8f426121493c9bf54" target="_top" xlink:title="Ra::Core::Utils::Indexed\lObject::setIndex">
<polygon fill="white" stroke="black" points="178,-0.5 178,-30.5 306,-30.5 306,-0.5 178,-0.5"/>
<text text-anchor="start" x="186" y="-18.5" font-family="Helvetica,sans-Serif" font-size="10.00">Ra::Core::Utils::Indexed</text>
<text text-anchor="middle" x="242" y="-7.5" font-family="Helvetica,sans-Serif" font-size="10.00">Object::setIndex</text>
</a>
</g>
</g>
<!-- Node1&#45;&gt;Node2 -->
<g id="edge1" class="edge"><title>Node1&#45;&gt;Node2</title>
<path fill="none" stroke="midnightblue" d="M142.203,-15.5C150.585,-15.5 159.16,-15.5 167.585,-15.5"/>
<polygon fill="midnightblue" stroke="midnightblue" points="167.765,-19.0001 177.765,-15.5 167.765,-12.0001 167.765,-19.0001"/>
</g>
</g>
</svg>
