<?xml version="1.0" encoding="UTF-8" standalone="no"?>
<!DOCTYPE svg PUBLIC "-//W3C//DTD SVG 1.1//EN"
 "http://www.w3.org/Graphics/SVG/1.1/DTD/svg11.dtd">
<!-- Generated by graphviz version 2.38.0 (20140413.2041)
 -->
<!-- Title: Ra::Core::Animation::Skeleton Pages: 1 -->
<svg width="600pt" height="849pt"
 viewBox="0.00 0.00 600.00 849.00" xmlns="http://www.w3.org/2000/svg" xmlns:xlink="http://www.w3.org/1999/xlink">
<g id="graph0" class="graph" transform="scale(1 1) rotate(0) translate(4 845)">
<title>Ra::Core::Animation::Skeleton</title>
<polygon fill="white" stroke="none" points="-4,4 -4,-845 596,-845 596,4 -4,4"/>
<!-- Node1 -->
<g id="node1" class="node"><title>Node1</title>
<polygon fill="#bfbfbf" stroke="black" points="263.5,-0.5 263.5,-200.5 375.5,-200.5 375.5,-0.5 263.5,-0.5"/>
<text text-anchor="start" x="271.5" y="-188.5" font-family="Helvetica,sans-Serif" font-size="10.00">Ra::Core::Animation</text>
<text text-anchor="middle" x="319.5" y="-177.5" font-family="Helvetica,sans-Serif" font-size="10.00">::Skeleton</text>
<polyline fill="none" stroke="black" points="263.5,-170.5 375.5,-170.5 "/>
<text text-anchor="middle" x="319.5" y="-158.5" font-family="Helvetica,sans-Serif" font-size="10.00"> </text>
<polyline fill="none" stroke="black" points="263.5,-151.5 375.5,-151.5 "/>
<text text-anchor="start" x="271.5" y="-139.5" font-family="Helvetica,sans-Serif" font-size="10.00">+ Skeleton()</text>
<text text-anchor="start" x="271.5" y="-128.5" font-family="Helvetica,sans-Serif" font-size="10.00">+ Skeleton()</text>
<text text-anchor="start" x="271.5" y="-117.5" font-family="Helvetica,sans-Serif" font-size="10.00">+ Skeleton()</text>
<text text-anchor="start" x="271.5" y="-106.5" font-family="Helvetica,sans-Serif" font-size="10.00">+ ~Skeleton()</text>
<text text-anchor="start" x="271.5" y="-95.5" font-family="Helvetica,sans-Serif" font-size="10.00">+ size()</text>
<text text-anchor="start" x="271.5" y="-84.5" font-family="Helvetica,sans-Serif" font-size="10.00">+ clear()</text>
<text text-anchor="start" x="271.5" y="-73.5" font-family="Helvetica,sans-Serif" font-size="10.00">+ getPose()</text>
<text text-anchor="start" x="271.5" y="-62.5" font-family="Helvetica,sans-Serif" font-size="10.00">+ setPose()</text>
<text text-anchor="start" x="271.5" y="-51.5" font-family="Helvetica,sans-Serif" font-size="10.00">+ getTransform()</text>
<text text-anchor="start" x="271.5" y="-40.5" font-family="Helvetica,sans-Serif" font-size="10.00">+ setTransform()</text>
<text text-anchor="start" x="271.5" y="-29.5" font-family="Helvetica,sans-Serif" font-size="10.00">+ addBone()</text>
<text text-anchor="start" x="271.5" y="-18.5" font-family="Helvetica,sans-Serif" font-size="10.00">+ getBonePoints()</text>
<text text-anchor="start" x="271.5" y="-7.5" font-family="Helvetica,sans-Serif" font-size="10.00">+ projectOnBone()</text>
</g>
<!-- Node2 -->
<g id="node2" class="node"><title>Node2</title>
<g id="a_node2"><a xlink:href="classRa_1_1Core_1_1Animation_1_1Handle.html" target="_top" xlink:title="The Handle class describes the base handle structure used for deformation. ">
<polygon fill="white" stroke="black" points="129.5,-265 129.5,-487 241.5,-487 241.5,-265 129.5,-265"/>
<text text-anchor="start" x="137.5" y="-475" font-family="Helvetica,sans-Serif" font-size="10.00">Ra::Core::Animation</text>
<text text-anchor="middle" x="185.5" y="-464" font-family="Helvetica,sans-Serif" font-size="10.00">::Handle</text>
<polyline fill="none" stroke="black" points="129.5,-457 241.5,-457 "/>
<text text-anchor="middle" x="185.5" y="-445" font-family="Helvetica,sans-Serif" font-size="10.00"> </text>
<polyline fill="none" stroke="black" points="129.5,-438 241.5,-438 "/>
<text text-anchor="start" x="137.5" y="-426" font-family="Helvetica,sans-Serif" font-size="10.00">+ Handle()</text>
<text text-anchor="start" x="137.5" y="-415" font-family="Helvetica,sans-Serif" font-size="10.00">+ Handle()</text>
<text text-anchor="start" x="137.5" y="-404" font-family="Helvetica,sans-Serif" font-size="10.00">+ Handle()</text>
<text text-anchor="start" x="137.5" y="-393" font-family="Helvetica,sans-Serif" font-size="10.00">+ operator=()</text>
<text text-anchor="start" x="137.5" y="-382" font-family="Helvetica,sans-Serif" font-size="10.00">+ ~Handle()</text>
<text text-anchor="start" x="137.5" y="-371" font-family="Helvetica,sans-Serif" font-size="10.00">+ size()</text>
<text text-anchor="start" x="137.5" y="-360" font-family="Helvetica,sans-Serif" font-size="10.00">+ clear()</text>
<text text-anchor="start" x="137.5" y="-349" font-family="Helvetica,sans-Serif" font-size="10.00">+ getPose()</text>
<text text-anchor="start" x="137.5" y="-338" font-family="Helvetica,sans-Serif" font-size="10.00">+ setPose()</text>
<text text-anchor="start" x="137.5" y="-327" font-family="Helvetica,sans-Serif" font-size="10.00">+ getTransform()</text>
<text text-anchor="start" x="137.5" y="-316" font-family="Helvetica,sans-Serif" font-size="10.00">+ setTransform()</text>
<text text-anchor="start" x="137.5" y="-305" font-family="Helvetica,sans-Serif" font-size="10.00">+ getName()</text>
<text text-anchor="start" x="137.5" y="-294" font-family="Helvetica,sans-Serif" font-size="10.00">+ setName()</text>
<text text-anchor="start" x="137.5" y="-283" font-family="Helvetica,sans-Serif" font-size="10.00">+ getLabel()</text>
<text text-anchor="start" x="137.5" y="-272" font-family="Helvetica,sans-Serif" font-size="10.00">+ setLabel()</text>
</a>
</g>
</g>
<!-- Node2&#45;&gt;Node1 -->
<g id="edge1" class="edge"><title>Node2&#45;&gt;Node1</title>
<path fill="none" stroke="midnightblue" d="M243.834,-255.938C252.859,-237.517 262.097,-218.661 270.879,-200.738"/>
<polygon fill="none" stroke="midnightblue" points="240.68,-254.419 239.424,-264.939 246.967,-257.499 240.68,-254.419"/>
</g>
<!-- Node3 -->
<g id="node3" class="node"><title>Node3</title>
<polygon fill="white" stroke="#bfbfbf" points="102.5,-551.5 102.5,-608.5 218.5,-608.5 218.5,-551.5 102.5,-551.5"/>
<text text-anchor="middle" x="160.5" y="-596.5" font-family="Helvetica,sans-Serif" font-size="10.00">std::vector&lt; Label &gt;</text>
<polyline fill="none" stroke="#bfbfbf" points="102.5,-589.5 218.5,-589.5 "/>
<text text-anchor="middle" x="160.5" y="-577.5" font-family="Helvetica,sans-Serif" font-size="10.00"> </text>
<polyline fill="none" stroke="#bfbfbf" points="102.5,-570.5 218.5,-570.5 "/>
<text text-anchor="middle" x="160.5" y="-558.5" font-family="Helvetica,sans-Serif" font-size="10.00"> </text>
</g>
<!-- Node3&#45;&gt;Node2 -->
<g id="edge2" class="edge"><title>Node3&#45;&gt;Node2</title>
<path fill="none" stroke="#404040" d="M163.924,-551.336C165.682,-537.132 167.959,-518.728 170.374,-499.218"/>
<polygon fill="none" stroke="#404040" points="170.376,-499.202 167.143,-492.756 171.85,-487.293 175.083,-493.739 170.376,-499.202"/>
<text text-anchor="middle" x="192" y="-525" font-family="Helvetica,sans-Serif" font-size="10.00"> #m_label</text>
</g>
<!-- Node4 -->
<g id="node4" class="node"><title>Node4</title>
<g id="a_node4"><a xlink:title="STL class. ">
<polygon fill="white" stroke="#bfbfbf" points="19,-662 19,-719 84,-719 84,-662 19,-662"/>
<text text-anchor="middle" x="51.5" y="-707" font-family="Helvetica,sans-Serif" font-size="10.00">std::string</text>
<polyline fill="none" stroke="#bfbfbf" points="19,-700 84,-700 "/>
<text text-anchor="middle" x="51.5" y="-688" font-family="Helvetica,sans-Serif" font-size="10.00"> </text>
<polyline fill="none" stroke="#bfbfbf" points="19,-681 84,-681 "/>
<text text-anchor="middle" x="51.5" y="-669" font-family="Helvetica,sans-Serif" font-size="10.00"> </text>
</a>
</g>
</g>
<!-- Node4&#45;&gt;Node2 -->
<g id="edge10" class="edge"><title>Node4&#45;&gt;Node2</title>
<path fill="none" stroke="#404040" d="M42.0151,-661.789C33.7798,-633.163 25.0986,-587.629 38.5,-551 55.0807,-505.681 89.2547,-464.032 120.482,-432.85"/>
<polygon fill="none" stroke="#404040" points="120.611,-432.724 122.108,-425.67 129.195,-424.338 127.698,-431.393 120.611,-432.724"/>
<text text-anchor="middle" x="66" y="-577.5" font-family="Helvetica,sans-Serif" font-size="10.00"> #m_name</text>
</g>
<!-- Node4&#45;&gt;Node3 -->
<g id="edge3" class="edge"><title>Node4&#45;&gt;Node3</title>
<path fill="none" stroke="#404040" d="M72.6553,-661.713C81.6886,-650.494 92.6403,-637.699 103.5,-627 107.067,-623.486 110.885,-619.965 114.793,-616.522"/>
<polygon fill="none" stroke="#404040" points="114.868,-616.458 116.836,-609.521 123.997,-608.67 122.028,-615.607 114.868,-616.458"/>
<text text-anchor="middle" x="132" y="-630" font-family="Helvetica,sans-Serif" font-size="10.00"> +elements</text>
</g>
<!-- Node5 -->
<g id="node5" class="node"><title>Node5</title>
<g id="a_node5"><a xlink:title="STL class. ">
<polygon fill="white" stroke="#bfbfbf" points="0,-772.5 0,-840.5 103,-840.5 103,-772.5 0,-772.5"/>
<text text-anchor="start" x="8" y="-828.5" font-family="Helvetica,sans-Serif" font-size="10.00">std::basic_string&lt;</text>
<text text-anchor="middle" x="51.5" y="-817.5" font-family="Helvetica,sans-Serif" font-size="10.00"> char &gt;</text>
<polyline fill="none" stroke="#bfbfbf" points="0,-810.5 103,-810.5 "/>
<text text-anchor="middle" x="51.5" y="-798.5" font-family="Helvetica,sans-Serif" font-size="10.00"> </text>
<polyline fill="none" stroke="#bfbfbf" points="0,-791.5 103,-791.5 "/>
<text text-anchor="middle" x="51.5" y="-779.5" font-family="Helvetica,sans-Serif" font-size="10.00"> </text>
</a>
</g>
</g>
<!-- Node5&#45;&gt;Node4 -->
<g id="edge4" class="edge"><title>Node5&#45;&gt;Node4</title>
<path fill="none" stroke="midnightblue" d="M51.5,-762.034C51.5,-747.673 51.5,-732.096 51.5,-719.242"/>
<polygon fill="none" stroke="midnightblue" points="48.0001,-762.22 51.5,-772.22 55.0001,-762.22 48.0001,-762.22"/>
</g>
<!-- Node6 -->
<g id="node6" class="node"><title>Node6</title>
<g id="a_node6"><a xlink:title="STL class. ">
<polygon fill="white" stroke="#bfbfbf" points="121,-662 121,-719 216,-719 216,-662 121,-662"/>
<text text-anchor="middle" x="168.5" y="-707" font-family="Helvetica,sans-Serif" font-size="10.00">std::vector&lt; T &gt;</text>
<polyline fill="none" stroke="#bfbfbf" points="121,-700 216,-700 "/>
<text text-anchor="middle" x="168.5" y="-688" font-family="Helvetica,sans-Serif" font-size="10.00"> </text>
<polyline fill="none" stroke="#bfbfbf" points="121,-681 216,-681 "/>
<text text-anchor="middle" x="168.5" y="-669" font-family="Helvetica,sans-Serif" font-size="10.00"> </text>
</a>
</g>
</g>
<!-- Node6&#45;&gt;Node3 -->
<g id="edge5" class="edge"><title>Node6&#45;&gt;Node3</title>
<path fill="none" stroke="orange" d="M165.724,-651.851C164.676,-637.636 163.504,-621.738 162.536,-608.609"/>
<polygon fill="orange" stroke="orange" points="162.235,-652.125 166.461,-661.84 169.216,-651.61 162.235,-652.125"/>
<text text-anchor="middle" x="190.5" y="-630" font-family="Helvetica,sans-Serif" font-size="10.00"> &lt; Label &gt;</text>
</g>
<!-- Node7 -->
<g id="node7" class="node"><title>Node7</title>
<polygon fill="white" stroke="#bfbfbf" points="209,-778 209,-835 238,-835 238,-778 209,-778"/>
<text text-anchor="middle" x="223.5" y="-823" font-family="Helvetica,sans-Serif" font-size="10.00">T</text>
<polyline fill="none" stroke="#bfbfbf" points="209,-816 238,-816 "/>
<text text-anchor="middle" x="223.5" y="-804" font-family="Helvetica,sans-Serif" font-size="10.00"> </text>
<polyline fill="none" stroke="#bfbfbf" points="209,-797 238,-797 "/>
<text text-anchor="middle" x="223.5" y="-785" font-family="Helvetica,sans-Serif" font-size="10.00"> </text>
</g>
<!-- Node7&#45;&gt;Node6 -->
<g id="edge6" class="edge"><title>Node7&#45;&gt;Node6</title>
<path fill="none" stroke="#404040" d="M210.186,-777.904C203.279,-763.587 194.727,-745.862 187.171,-730.199"/>
<polygon fill="none" stroke="#404040" points="187.096,-730.045 180.887,-726.379 181.882,-719.237 188.092,-722.903 187.096,-730.045"/>
<text text-anchor="middle" x="227" y="-746" font-family="Helvetica,sans-Serif" font-size="10.00"> +elements</text>
</g>
<!-- Node9 -->
<g id="node9" class="node"><title>Node9</title>
<g id="a_node9"><a xlink:title="STL class. ">
<polygon fill="white" stroke="#bfbfbf" points="237,-656.5 237,-724.5 380,-724.5 380,-656.5 237,-656.5"/>
<text text-anchor="start" x="245" y="-712.5" font-family="Helvetica,sans-Serif" font-size="10.00">std::vector&lt; T, Eigen</text>
<text text-anchor="middle" x="308.5" y="-701.5" font-family="Helvetica,sans-Serif" font-size="10.00">::aligned_allocator&lt; T &gt; &gt;</text>
<polyline fill="none" stroke="#bfbfbf" points="237,-694.5 380,-694.5 "/>
<text text-anchor="middle" x="308.5" y="-682.5" font-family="Helvetica,sans-Serif" font-size="10.00"> </text>
<polyline fill="none" stroke="#bfbfbf" points="237,-675.5 380,-675.5 "/>
<text text-anchor="middle" x="308.5" y="-663.5" font-family="Helvetica,sans-Serif" font-size="10.00"> </text>
</a>
</g>
</g>
<!-- Node7&#45;&gt;Node9 -->
<g id="edge9" class="edge"><title>Node7&#45;&gt;Node9</title>
<path fill="none" stroke="#404040" d="M238.112,-785.903C248.587,-771.854 263.109,-752.377 276.244,-734.762"/>
<polygon fill="none" stroke="#404040" points="276.602,-734.28 276.982,-727.079 283.775,-724.66 283.396,-731.861 276.602,-734.28"/>
<text text-anchor="middle" x="298" y="-746" font-family="Helvetica,sans-Serif" font-size="10.00"> +elements</text>
</g>
<!-- Node8 -->
<g id="node8" class="node"><title>Node8</title>
<g id="a_node8"><a xlink:href="structRa_1_1Core_1_1AlignedStdVector.html" target="_top" xlink:title="Shortcut for the ubiquitous aligned std::vector Uses Eigen&#39;s aligned allocator, as stated in http://e...">
<polygon fill="white" stroke="black" points="237,-551.5 237,-608.5 410,-608.5 410,-551.5 237,-551.5"/>
<text text-anchor="middle" x="323.5" y="-596.5" font-family="Helvetica,sans-Serif" font-size="10.00">Ra::Core::AlignedStdVector&lt; T &gt;</text>
<polyline fill="none" stroke="black" points="237,-589.5 410,-589.5 "/>
<text text-anchor="middle" x="323.5" y="-577.5" font-family="Helvetica,sans-Serif" font-size="10.00"> </text>
<polyline fill="none" stroke="black" points="237,-570.5 410,-570.5 "/>
<text text-anchor="middle" x="323.5" y="-558.5" font-family="Helvetica,sans-Serif" font-size="10.00"> </text>
</a>
</g>
</g>
<!-- Node8&#45;&gt;Node1 -->
<g id="edge12" class="edge"><title>Node8&#45;&gt;Node1</title>
<path fill="none" stroke="#404040" d="M323.268,-551.264C322.728,-486.802 321.363,-323.937 320.434,-212.947"/>
<polygon fill="none" stroke="#404040" points="320.432,-212.692 316.381,-206.725 320.331,-200.692 324.381,-206.658 320.432,-212.692"/>
<text text-anchor="middle" x="367" y="-373.5" font-family="Helvetica,sans-Serif" font-size="10.00"> #m_modelSpace</text>
</g>
<!-- Node8&#45;&gt;Node2 -->
<g id="edge7" class="edge"><title>Node8&#45;&gt;Node2</title>
<path fill="none" stroke="#404040" d="M275.329,-551.442C268.106,-545.951 261.186,-539.765 255.5,-533 246.547,-522.348 238.526,-510.366 231.396,-497.899"/>
<polygon fill="none" stroke="#404040" points="231.374,-497.859 224.985,-494.515 225.615,-487.331 232.004,-490.675 231.374,-497.859"/>
<text text-anchor="middle" x="280.5" y="-525" font-family="Helvetica,sans-Serif" font-size="10.00"> +m_pose</text>
</g>
<!-- Node9&#45;&gt;Node8 -->
<g id="edge8" class="edge"><title>Node9&#45;&gt;Node8</title>
<path fill="none" stroke="midnightblue" d="M314.453,-646.44C316.203,-633.778 318.072,-620.266 319.653,-608.827"/>
<polygon fill="none" stroke="midnightblue" points="310.985,-645.972 313.082,-656.357 317.919,-646.93 310.985,-645.972"/>
</g>
<!-- Node10 -->
<g id="node10" class="node"><title>Node10</title>
<g id="a_node10"><a xlink:href="classRa_1_1Core_1_1AdjacencyList.html" target="_top" xlink:title="The AdjacencyList contains the adjacency matrix expressed as a vector of indices and a vector contain...">
<polygon fill="white" stroke="black" points="425,-248.5 425,-503.5 592,-503.5 592,-248.5 425,-248.5"/>
<text text-anchor="middle" x="508.5" y="-491.5" font-family="Helvetica,sans-Serif" font-size="10.00">Ra::Core::AdjacencyList</text>
<polyline fill="none" stroke="black" points="425,-484.5 592,-484.5 "/>
<text text-anchor="middle" x="508.5" y="-472.5" font-family="Helvetica,sans-Serif" font-size="10.00"> </text>
<polyline fill="none" stroke="black" points="425,-465.5 592,-465.5 "/>
<text text-anchor="start" x="433" y="-453.5" font-family="Helvetica,sans-Serif" font-size="10.00">+ AdjacencyList()</text>
<text text-anchor="start" x="433" y="-442.5" font-family="Helvetica,sans-Serif" font-size="10.00">+ AdjacencyList()</text>
<text text-anchor="start" x="433" y="-431.5" font-family="Helvetica,sans-Serif" font-size="10.00">+ AdjacencyList()</text>
<text text-anchor="start" x="433" y="-420.5" font-family="Helvetica,sans-Serif" font-size="10.00">+ ~AdjacencyList()</text>
<text text-anchor="start" x="433" y="-409.5" font-family="Helvetica,sans-Serif" font-size="10.00">+ addNode()</text>
<text text-anchor="start" x="433" y="-398.5" font-family="Helvetica,sans-Serif" font-size="10.00">+ pruneLeaves()</text>
<text text-anchor="start" x="433" y="-387.5" font-family="Helvetica,sans-Serif" font-size="10.00">+ pruneLeaves()</text>
<text text-anchor="start" x="433" y="-376.5" font-family="Helvetica,sans-Serif" font-size="10.00">+ extractEdgeList()</text>
<text text-anchor="start" x="433" y="-365.5" font-family="Helvetica,sans-Serif" font-size="10.00">+ size()</text>
<text text-anchor="start" x="433" y="-354.5" font-family="Helvetica,sans-Serif" font-size="10.00">+ clear()</text>
<text text-anchor="start" x="433" y="-343.5" font-family="Helvetica,sans-Serif" font-size="10.00">+ computeConsistencyStatus()</text>
<text text-anchor="start" x="433" y="-332.5" font-family="Helvetica,sans-Serif" font-size="10.00">+ isEmpty()</text>
<text text-anchor="start" x="433" y="-321.5" font-family="Helvetica,sans-Serif" font-size="10.00">+ isRoot()</text>
<text text-anchor="start" x="433" y="-310.5" font-family="Helvetica,sans-Serif" font-size="10.00">+ isLeaf()</text>
<text text-anchor="start" x="433" y="-299.5" font-family="Helvetica,sans-Serif" font-size="10.00">+ isBranch()</text>
<text text-anchor="start" x="433" y="-288.5" font-family="Helvetica,sans-Serif" font-size="10.00">+ isJoint()</text>
<text text-anchor="start" x="433" y="-277.5" font-family="Helvetica,sans-Serif" font-size="10.00">+ isEdge()</text>
<text text-anchor="start" x="433" y="-266.5" font-family="Helvetica,sans-Serif" font-size="10.00">+ children()</text>
<text text-anchor="start" x="433" y="-255.5" font-family="Helvetica,sans-Serif" font-size="10.00">+ parents()</text>
</a>
</g>
</g>
<!-- Node10&#45;&gt;Node1 -->
<g id="edge11" class="edge"><title>Node10&#45;&gt;Node1</title>
<path fill="none" stroke="#404040" d="M424.776,-253.845C410.651,-233.403 396.2,-212.491 382.708,-192.967"/>
<polygon fill="none" stroke="#404040" points="382.569,-192.766 375.867,-190.104 375.746,-182.894 382.448,-185.556 382.569,-192.766"/>
<text text-anchor="middle" x="431" y="-222" font-family="Helvetica,sans-Serif" font-size="10.00"> +m_graph</text>
</g>
</g>
</svg>
