<?xml version="1.0" encoding="UTF-8" standalone="no"?>
<!DOCTYPE svg PUBLIC "-//W3C//DTD SVG 1.1//EN"
 "http://www.w3.org/Graphics/SVG/1.1/DTD/svg11.dtd">
<!-- Generated by graphviz version 2.38.0 (20140413.2041)
 -->
<!-- Title: Ra::Core::Quadric::Quadric Pages: 1 -->
<svg width="442pt" height="710pt"
 viewBox="0.00 0.00 442.00 710.00" xmlns="http://www.w3.org/2000/svg" xmlns:xlink="http://www.w3.org/1999/xlink">
<g id="graph0" class="graph" transform="scale(1 1) rotate(0) translate(4 706)">
<title>Ra::Core::Quadric::Quadric</title>
<polygon fill="white" stroke="none" points="-4,4 -4,-706 438,-706 438,4 -4,4"/>
<!-- Node1 -->
<g id="node1" class="node"><title>Node1</title>
<polygon fill="#bfbfbf" stroke="black" points="0,-346.5 0,-376.5 106,-376.5 106,-346.5 0,-346.5"/>
<text text-anchor="start" x="8" y="-364.5" font-family="Helvetica,sans-Serif" font-size="10.00">Ra::Core::Quadric::</text>
<text text-anchor="middle" x="53" y="-353.5" font-family="Helvetica,sans-Serif" font-size="10.00">Quadric</text>
</g>
<!-- Node2 -->
<g id="node2" class="node"><title>Node2</title>
<g id="a_node2"><a xlink:href="classRa_1_1Core_1_1Quadric.html#a1b519985e1e96507441552fe0b989a52" target="_top" xlink:title="Construct an initialized quadric. ">
<polygon fill="white" stroke="black" points="153,-671.5 153,-701.5 259,-701.5 259,-671.5 153,-671.5"/>
<text text-anchor="start" x="161" y="-689.5" font-family="Helvetica,sans-Serif" font-size="10.00">Ra::Core::Quadric::</text>
<text text-anchor="middle" x="206" y="-678.5" font-family="Helvetica,sans-Serif" font-size="10.00">Quadric</text>
</a>
</g>
</g>
<!-- Node1&#45;&gt;Node2 -->
<g id="edge1" class="edge"><title>Node1&#45;&gt;Node2</title>
<path fill="none" stroke="midnightblue" d="M53.9504,-376.572C54.6094,-424.791 63.1399,-577.103 142,-662.5 142.893,-663.467 143.83,-664.396 144.804,-665.288"/>
<polygon fill="midnightblue" stroke="midnightblue" points="142.829,-668.182 152.917,-671.421 147.05,-662.598 142.829,-668.182"/>
</g>
<!-- Node3 -->
<g id="node3" class="node"><title>Node3</title>
<g id="a_node3"><a xlink:href="classRa_1_1Core_1_1Quadric.html#a93e75bb96907ca2d73026ef6c4e9dbee" target="_top" xlink:title="Ra::Core::Quadric::\l~Quadric">
<polygon fill="white" stroke="black" points="153,-622.5 153,-652.5 259,-652.5 259,-622.5 153,-622.5"/>
<text text-anchor="start" x="161" y="-640.5" font-family="Helvetica,sans-Serif" font-size="10.00">Ra::Core::Quadric::</text>
<text text-anchor="middle" x="206" y="-629.5" font-family="Helvetica,sans-Serif" font-size="10.00">~Quadric</text>
</a>
</g>
</g>
<!-- Node1&#45;&gt;Node3 -->
<g id="edge2" class="edge"><title>Node1&#45;&gt;Node3</title>
<path fill="none" stroke="midnightblue" d="M55.4148,-376.518C60.0932,-418.284 78.5836,-537.34 142,-607.5 145.232,-611.075 148.98,-614.264 153.007,-617.099"/>
<polygon fill="midnightblue" stroke="midnightblue" points="151.247,-620.126 161.587,-622.435 154.943,-614.182 151.247,-620.126"/>
</g>
<!-- Node4 -->
<g id="node4" class="node"><title>Node4</title>
<g id="a_node4"><a xlink:href="classRa_1_1Core_1_1Quadric.html#aa8b47f0ad1c2582d2f7cd967c2fa2438" target="_top" xlink:title="Getters and setters. ">
<polygon fill="white" stroke="black" points="306,-540 306,-559 434,-559 434,-540 306,-540"/>
<text text-anchor="middle" x="370" y="-547" font-family="Helvetica,sans-Serif" font-size="10.00">Ra::Core::Quadric::getA</text>
</a>
</g>
</g>
<!-- Node1&#45;&gt;Node4 -->
<g id="edge3" class="edge"><title>Node1&#45;&gt;Node4</title>
<path fill="none" stroke="midnightblue" d="M54.848,-376.569C58.037,-417.073 72.9903,-528.344 142,-574.5 203.253,-615.468 295.218,-583.771 341.012,-563.327"/>
<polygon fill="midnightblue" stroke="midnightblue" points="342.698,-566.404 350.317,-559.042 339.77,-560.046 342.698,-566.404"/>
</g>
<!-- Node5 -->
<g id="node5" class="node"><title>Node5</title>
<g id="a_node5"><a xlink:href="classRa_1_1Core_1_1Quadric.html#ad09c2c1a7f2d46cb554dd48d56b11a5f" target="_top" xlink:title="Ra::Core::Quadric::setA">
<polygon fill="white" stroke="black" points="142,-371 142,-390 270,-390 270,-371 142,-371"/>
<text text-anchor="middle" x="206" y="-378" font-family="Helvetica,sans-Serif" font-size="10.00">Ra::Core::Quadric::setA</text>
</a>
</g>
</g>
<!-- Node1&#45;&gt;Node5 -->
<g id="edge4" class="edge"><title>Node1&#45;&gt;Node5</title>
<path fill="none" stroke="midnightblue" d="M106.389,-368.092C114.593,-369.124 123.2,-370.207 131.767,-371.285"/>
<polygon fill="midnightblue" stroke="midnightblue" points="131.422,-374.769 141.781,-372.545 132.296,-367.824 131.422,-374.769"/>
</g>
<!-- Node6 -->
<g id="node6" class="node"><title>Node6</title>
<g id="a_node6"><a xlink:href="classRa_1_1Core_1_1Quadric.html#a5dbab01aefb09e9ee3c38deaa26a2d6b" target="_top" xlink:title="Ra::Core::Quadric::getB">
<polygon fill="white" stroke="black" points="306,-496 306,-515 434,-515 434,-496 306,-496"/>
<text text-anchor="middle" x="370" y="-503" font-family="Helvetica,sans-Serif" font-size="10.00">Ra::Core::Quadric::getB</text>
</a>
</g>
</g>
<!-- Node1&#45;&gt;Node6 -->
<g id="edge5" class="edge"><title>Node1&#45;&gt;Node6</title>
<path fill="none" stroke="midnightblue" d="M69.2761,-376.746C85.9048,-392.601 113.896,-417.202 142,-432.5 158.532,-441.499 266.149,-474.557 327.085,-492.947"/>
<polygon fill="midnightblue" stroke="midnightblue" points="326.219,-496.341 336.804,-495.875 328.238,-489.639 326.219,-496.341"/>
</g>
<!-- Node7 -->
<g id="node7" class="node"><title>Node7</title>
<g id="a_node7"><a xlink:href="classRa_1_1Core_1_1Quadric.html#a83f5d4f91f2d657cfc31d5285d388d64" target="_top" xlink:title="Ra::Core::Quadric::setB">
<polygon fill="white" stroke="black" points="142,-333 142,-352 270,-352 270,-333 142,-333"/>
<text text-anchor="middle" x="206" y="-340" font-family="Helvetica,sans-Serif" font-size="10.00">Ra::Core::Quadric::setB</text>
</a>
</g>
</g>
<!-- Node1&#45;&gt;Node7 -->
<g id="edge6" class="edge"><title>Node1&#45;&gt;Node7</title>
<path fill="none" stroke="midnightblue" d="M106.389,-354.908C114.593,-353.876 123.2,-352.793 131.767,-351.715"/>
<polygon fill="midnightblue" stroke="midnightblue" points="132.296,-355.176 141.781,-350.455 131.422,-348.231 132.296,-355.176"/>
</g>
<!-- Node8 -->
<g id="node8" class="node"><title>Node8</title>
<g id="a_node8"><a xlink:href="classRa_1_1Core_1_1Quadric.html#a089c593ab40439918c03913f11ea9ebc" target="_top" xlink:title="Ra::Core::Quadric::getC">
<polygon fill="white" stroke="black" points="306,-458 306,-477 434,-477 434,-458 306,-458"/>
<text text-anchor="middle" x="370" y="-465" font-family="Helvetica,sans-Serif" font-size="10.00">Ra::Core::Quadric::getC</text>
</a>
</g>
</g>
<!-- Node1&#45;&gt;Node8 -->
<g id="edge7" class="edge"><title>Node1&#45;&gt;Node8</title>
<path fill="none" stroke="midnightblue" d="M86.6463,-376.677C103.07,-384.034 123.393,-392.722 142,-399.5 203.582,-421.933 276.427,-442.78 322.669,-455.327"/>
<polygon fill="midnightblue" stroke="midnightblue" points="321.837,-458.727 332.403,-457.952 323.66,-451.969 321.837,-458.727"/>
</g>
<!-- Node9 -->
<g id="node9" class="node"><title>Node9</title>
<g id="a_node9"><a xlink:href="classRa_1_1Core_1_1Quadric.html#aeec1e8b0fb36fc9bab0690b1e4d79b4d" target="_top" xlink:title="Ra::Core::Quadric::setC">
<polygon fill="white" stroke="black" points="142,-295 142,-314 270,-314 270,-295 142,-295"/>
<text text-anchor="middle" x="206" y="-302" font-family="Helvetica,sans-Serif" font-size="10.00">Ra::Core::Quadric::setC</text>
</a>
</g>
</g>
<!-- Node1&#45;&gt;Node9 -->
<g id="edge8" class="edge"><title>Node1&#45;&gt;Node9</title>
<path fill="none" stroke="midnightblue" d="M86.6517,-346.338C103.076,-338.984 123.399,-330.296 142,-323.5 148.056,-321.288 154.504,-319.127 160.876,-317.103"/>
<polygon fill="midnightblue" stroke="midnightblue" points="162.241,-320.345 170.761,-314.048 160.173,-313.657 162.241,-320.345"/>
</g>
<!-- Node10 -->
<g id="node10" class="node"><title>Node10</title>
<g id="a_node10"><a xlink:href="namespaceRa_1_1Core_1_1Containers.html#a83257c42de08d550fe2081a5d8a13331" target="_top" xlink:title="Stores a 3&#45;dimensional hierarchy of meshes of arbitrary type. ">
<polygon fill="white" stroke="black" points="148.5,-245.5 148.5,-275.5 263.5,-275.5 263.5,-245.5 148.5,-245.5"/>
<text text-anchor="start" x="156.5" y="-263.5" font-family="Helvetica,sans-Serif" font-size="10.00">Ra::Core::Containers</text>
<text text-anchor="middle" x="206" y="-252.5" font-family="Helvetica,sans-Serif" font-size="10.00">::deprecated</text>
</a>
</g>
</g>
<!-- Node1&#45;&gt;Node10 -->
<g id="edge9" class="edge"><title>Node1&#45;&gt;Node10</title>
<path fill="none" stroke="midnightblue" d="M68.3572,-346.367C84.851,-329.672 113.346,-302.874 142,-285.5 145.207,-283.555 148.593,-281.707 152.062,-279.962"/>
<polygon fill="midnightblue" stroke="midnightblue" points="153.814,-283.006 161.377,-275.587 150.837,-276.67 153.814,-283.006"/>
</g>
<!-- Node12 -->
<g id="node12" class="node"><title>Node12</title>
<g id="a_node12"><a xlink:href="classRa_1_1Core_1_1Quadric.html#a11aed72785711bff4f1d738f15ce3e3d" target="_top" xlink:title="Create a quadric from a normal vector n and the scalar which represent the distance from the plane of...">
<polygon fill="white" stroke="black" points="153,-196.5 153,-226.5 259,-226.5 259,-196.5 153,-196.5"/>
<text text-anchor="start" x="161" y="-214.5" font-family="Helvetica,sans-Serif" font-size="10.00">Ra::Core::Quadric::</text>
<text text-anchor="middle" x="206" y="-203.5" font-family="Helvetica,sans-Serif" font-size="10.00">compute</text>
</a>
</g>
</g>
<!-- Node1&#45;&gt;Node12 -->
<g id="edge11" class="edge"><title>Node1&#45;&gt;Node12</title>
<path fill="none" stroke="midnightblue" d="M61.0345,-346.265C73.7248,-320.323 102.816,-267.389 142,-236.5 144.253,-234.724 146.647,-233.06 149.137,-231.502"/>
<polygon fill="midnightblue" stroke="midnightblue" points="150.874,-234.541 157.896,-226.608 147.459,-228.43 150.874,-234.541"/>
</g>
<!-- Node13 -->
<g id="node13" class="node"><title>Node13</title>
<g id="a_node13"><a xlink:href="classRa_1_1Core_1_1Quadric.html#ac3f77afd295214a049f72026d6d64753" target="_top" xlink:title="Computes eigen values and vectors of matrix A. ">
<polygon fill="white" stroke="black" points="144,-147.5 144,-177.5 268,-177.5 268,-147.5 144,-147.5"/>
<text text-anchor="start" x="152" y="-165.5" font-family="Helvetica,sans-Serif" font-size="10.00">Ra::Core::Quadric::</text>
<text text-anchor="middle" x="206" y="-154.5" font-family="Helvetica,sans-Serif" font-size="10.00">computeEigenValuesA</text>
</a>
</g>
</g>
<!-- Node1&#45;&gt;Node13 -->
<g id="edge12" class="edge"><title>Node1&#45;&gt;Node13</title>
<path fill="none" stroke="midnightblue" d="M57.6806,-346.47C66.5467,-313.275 92.1353,-233.046 142,-187.5 143.694,-185.952 145.496,-184.496 147.379,-183.125"/>
<polygon fill="midnightblue" stroke="midnightblue" points="149.477,-185.94 156.073,-177.649 145.746,-180.017 149.477,-185.94"/>
</g>
<!-- Node14 -->
<g id="node14" class="node"><title>Node14</title>
<g id="a_node14"><a xlink:href="classRa_1_1Core_1_1Quadric.html#a2c8ad8a15bbc75c6d78b6c4533fd4bfe" target="_top" xlink:title="Ra::Core::Quadric::\lcomputeEigenVectorsA">
<polygon fill="white" stroke="black" points="142,-98.5 142,-128.5 270,-128.5 270,-98.5 142,-98.5"/>
<text text-anchor="start" x="150" y="-116.5" font-family="Helvetica,sans-Serif" font-size="10.00">Ra::Core::Quadric::</text>
<text text-anchor="middle" x="206" y="-105.5" font-family="Helvetica,sans-Serif" font-size="10.00">computeEigenVectorsA</text>
</a>
</g>
</g>
<!-- Node1&#45;&gt;Node14 -->
<g id="edge13" class="edge"><title>Node1&#45;&gt;Node14</title>
<path fill="none" stroke="midnightblue" d="M55.828,-346.247C61.3585,-306.602 81.4315,-199.184 142,-138.5 143.434,-137.063 144.961,-135.707 146.561,-134.426"/>
<polygon fill="midnightblue" stroke="midnightblue" points="148.784,-137.148 155.091,-128.634 144.851,-131.356 148.784,-137.148"/>
</g>
<!-- Node15 -->
<g id="node15" class="node"><title>Node15</title>
<g id="a_node15"><a xlink:href="classRa_1_1Core_1_1Quadric.html#ab18886cc4b79de1495b45314df54c814" target="_top" xlink:title="Operators. ">
<polygon fill="white" stroke="black" points="153,-534.5 153,-564.5 259,-564.5 259,-534.5 153,-534.5"/>
<text text-anchor="start" x="161" y="-552.5" font-family="Helvetica,sans-Serif" font-size="10.00">Ra::Core::Quadric::</text>
<text text-anchor="middle" x="206" y="-541.5" font-family="Helvetica,sans-Serif" font-size="10.00">operator+</text>
</a>
</g>
</g>
<!-- Node1&#45;&gt;Node15 -->
<g id="edge14" class="edge"><title>Node1&#45;&gt;Node15</title>
<path fill="none" stroke="midnightblue" d="M58.25,-376.921C67.8517,-409.011 94.1919,-483.472 142,-525.5 143.33,-526.669 144.722,-527.783 146.165,-528.846"/>
<polygon fill="midnightblue" stroke="midnightblue" points="144.58,-531.985 154.901,-534.379 148.326,-526.071 144.58,-531.985"/>
</g>
<!-- Node16 -->
<g id="node16" class="node"><title>Node16</title>
<g id="a_node16"><a xlink:href="classRa_1_1Core_1_1Quadric.html#a8c0c06178ad000d833a71ed52955d0e9" target="_top" xlink:title="Ra::Core::Quadric::\loperator*">
<polygon fill="white" stroke="black" points="153,-49.5 153,-79.5 259,-79.5 259,-49.5 153,-49.5"/>
<text text-anchor="start" x="161" y="-67.5" font-family="Helvetica,sans-Serif" font-size="10.00">Ra::Core::Quadric::</text>
<text text-anchor="middle" x="206" y="-56.5" font-family="Helvetica,sans-Serif" font-size="10.00">operator*</text>
</a>
</g>
</g>
<!-- Node1&#45;&gt;Node16 -->
<g id="edge18" class="edge"><title>Node1&#45;&gt;Node16</title>
<path fill="none" stroke="midnightblue" d="M54.5633,-346.324C57.0427,-301.144 70.3893,-165.913 142,-89.5 143.358,-88.0511 144.81,-86.6846 146.339,-85.3959"/>
<polygon fill="midnightblue" stroke="midnightblue" points="148.405,-88.2215 154.535,-79.5798 144.354,-82.5129 148.405,-88.2215"/>
</g>
<!-- Node17 -->
<g id="node17" class="node"><title>Node17</title>
<g id="a_node17"><a xlink:href="classRa_1_1Core_1_1Quadric.html#ae206cdab05157aeee1e26ee9aace045d" target="_top" xlink:title="Ra::Core::Quadric::\loperator+=">
<polygon fill="white" stroke="black" points="153,-485.5 153,-515.5 259,-515.5 259,-485.5 153,-485.5"/>
<text text-anchor="start" x="161" y="-503.5" font-family="Helvetica,sans-Serif" font-size="10.00">Ra::Core::Quadric::</text>
<text text-anchor="middle" x="206" y="-492.5" font-family="Helvetica,sans-Serif" font-size="10.00">operator+=</text>
</a>
</g>
</g>
<!-- Node1&#45;&gt;Node17 -->
<g id="edge19" class="edge"><title>Node1&#45;&gt;Node17</title>
<path fill="none" stroke="midnightblue" d="M63.0973,-376.685C77.4321,-399.557 107.25,-443.082 142,-470.5 146.691,-474.202 151.914,-477.59 157.289,-480.65"/>
<polygon fill="midnightblue" stroke="midnightblue" points="155.936,-483.894 166.411,-485.484 159.214,-477.709 155.936,-483.894"/>
</g>
<!-- Node18 -->
<g id="node18" class="node"><title>Node18</title>
<g id="a_node18"><a xlink:href="classRa_1_1Core_1_1Quadric.html#a88a5adf148644664524c45150231be74" target="_top" xlink:title="Ra::Core::Quadric::\loperator*=">
<polygon fill="white" stroke="black" points="153,-0.5 153,-30.5 259,-30.5 259,-0.5 153,-0.5"/>
<text text-anchor="start" x="161" y="-18.5" font-family="Helvetica,sans-Serif" font-size="10.00">Ra::Core::Quadric::</text>
<text text-anchor="middle" x="206" y="-7.5" font-family="Helvetica,sans-Serif" font-size="10.00">operator*=</text>
</a>
</g>
</g>
<!-- Node1&#45;&gt;Node18 -->
<g id="edge23" class="edge"><title>Node1&#45;&gt;Node18</title>
<path fill="none" stroke="midnightblue" d="M53.6692,-346.208C53.4103,-295.8 59.3141,-132.839 142,-40.5 143.187,-39.1741 144.454,-37.9176 145.787,-36.727"/>
<polygon fill="midnightblue" stroke="midnightblue" points="148.1,-39.3693 154.05,-30.6027 143.932,-33.7457 148.1,-39.3693"/>
</g>
<!-- Node11 -->
<g id="node11" class="node"><title>Node11</title>
<g id="a_node11"><a xlink:href="namespaceRa_1_1Core_1_1Geometry.html#aa04e6052d8911b1df1bd881474debb45" target="_top" xlink:title="Ra::Core::Geometry::t">
<polygon fill="white" stroke="black" points="310,-251 310,-270 430,-270 430,-251 310,-251"/>
<text text-anchor="middle" x="370" y="-258" font-family="Helvetica,sans-Serif" font-size="10.00">Ra::Core::Geometry::t</text>
</a>
</g>
</g>
<!-- Node10&#45;&gt;Node11 -->
<g id="edge10" class="edge"><title>Node10&#45;&gt;Node11</title>
<path fill="none" stroke="midnightblue" d="M263.66,-260.5C275.35,-260.5 287.786,-260.5 299.863,-260.5"/>
<polygon fill="midnightblue" stroke="midnightblue" points="299.898,-264 309.898,-260.5 299.898,-257 299.898,-264"/>
</g>
<!-- Node15&#45;&gt;Node4 -->
<g id="edge15" class="edge"><title>Node15&#45;&gt;Node4</title>
<path fill="none" stroke="midnightblue" d="M259.15,-549.5C270.784,-549.5 283.331,-549.5 295.642,-549.5"/>
<polygon fill="midnightblue" stroke="midnightblue" points="295.901,-553 305.901,-549.5 295.901,-546 295.901,-553"/>
</g>
<!-- Node15&#45;&gt;Node6 -->
<g id="edge16" class="edge"><title>Node15&#45;&gt;Node6</title>
<path fill="none" stroke="midnightblue" d="M259.15,-535.336C280.039,-529.662 303.873,-523.189 323.99,-517.725"/>
<polygon fill="midnightblue" stroke="midnightblue" points="325.103,-521.05 333.836,-515.051 323.268,-514.294 325.103,-521.05"/>
</g>
<!-- Node15&#45;&gt;Node8 -->
<g id="edge17" class="edge"><title>Node15&#45;&gt;Node8</title>
<path fill="none" stroke="midnightblue" d="M253.983,-534.411C259.581,-531.808 265.056,-528.844 270,-525.5 289.54,-512.284 286.003,-499.013 306,-486.5 309.337,-484.412 312.916,-482.542 316.613,-480.869"/>
<polygon fill="midnightblue" stroke="midnightblue" points="318,-484.084 325.971,-477.104 315.388,-477.589 318,-484.084"/>
</g>
<!-- Node17&#45;&gt;Node4 -->
<g id="edge20" class="edge"><title>Node17&#45;&gt;Node4</title>
<path fill="none" stroke="midnightblue" d="M256.927,-515.601C279.56,-522.447 306.007,-530.447 327.525,-536.955"/>
<polygon fill="midnightblue" stroke="midnightblue" points="326.757,-540.379 337.343,-539.925 328.784,-533.679 326.757,-540.379"/>
</g>
<!-- Node17&#45;&gt;Node6 -->
<g id="edge21" class="edge"><title>Node17&#45;&gt;Node6</title>
<path fill="none" stroke="midnightblue" d="M259.15,-502.11C270.784,-502.469 283.331,-502.856 295.642,-503.236"/>
<polygon fill="midnightblue" stroke="midnightblue" points="295.798,-506.742 305.901,-503.552 296.014,-499.746 295.798,-506.742"/>
</g>
<!-- Node17&#45;&gt;Node8 -->
<g id="edge22" class="edge"><title>Node17&#45;&gt;Node8</title>
<path fill="none" stroke="midnightblue" d="M259.15,-489.877C276.083,-486.428 294.951,-482.584 312.205,-479.069"/>
<polygon fill="midnightblue" stroke="midnightblue" points="313.051,-482.469 322.151,-477.043 311.654,-475.61 313.051,-482.469"/>
</g>
</g>
</svg>
