<?xml version="1.0" encoding="UTF-8" standalone="no"?>
<!DOCTYPE svg PUBLIC "-//W3C//DTD SVG 1.1//EN"
 "http://www.w3.org/Graphics/SVG/1.1/DTD/svg11.dtd">
<!-- Generated by graphviz version 2.38.0 (20140413.2041)
 -->
<!-- Title: Ra::Engine::RenderParameters::TParameter&lt; T &gt; Pages: 1 -->
<svg width="253pt" height="364pt"
 viewBox="0.00 0.00 253.00 364.00" xmlns="http://www.w3.org/2000/svg" xmlns:xlink="http://www.w3.org/1999/xlink">
<g id="graph0" class="graph" transform="scale(1 1) rotate(0) translate(4 360)">
<title>Ra::Engine::RenderParameters::TParameter&lt; T &gt;</title>
<polygon fill="white" stroke="none" points="-4,4 -4,-360 249,-360 249,4 -4,4"/>
<!-- Node1 -->
<g id="node1" class="node"><title>Node1</title>
<polygon fill="#bfbfbf" stroke="black" points="84,-0.5 84,-101.5 245,-101.5 245,-0.5 84,-0.5"/>
<text text-anchor="start" x="92" y="-89.5" font-family="Helvetica,sans-Serif" font-size="10.00">Ra::Engine::RenderParameters</text>
<text text-anchor="middle" x="164.5" y="-78.5" font-family="Helvetica,sans-Serif" font-size="10.00">::TParameter&lt; T &gt;</text>
<polyline fill="none" stroke="black" points="84,-71.5 245,-71.5 "/>
<text text-anchor="middle" x="164.5" y="-59.5" font-family="Helvetica,sans-Serif" font-size="10.00"> </text>
<polyline fill="none" stroke="black" points="84,-52.5 245,-52.5 "/>
<text text-anchor="start" x="92" y="-40.5" font-family="Helvetica,sans-Serif" font-size="10.00">+ TParameter()</text>
<text text-anchor="start" x="92" y="-29.5" font-family="Helvetica,sans-Serif" font-size="10.00">+ TParameter()</text>
<text text-anchor="start" x="92" y="-18.5" font-family="Helvetica,sans-Serif" font-size="10.00">+ ~TParameter()</text>
<text text-anchor="start" x="92" y="-7.5" font-family="Helvetica,sans-Serif" font-size="10.00">+ bind()</text>
</g>
<!-- Node2 -->
<g id="node2" class="node"><title>Node2</title>
<g id="a_node2"><a xlink:href="classRa_1_1Engine_1_1RenderParameters_1_1Parameter.html" target="_top" xlink:title="{Ra::Engine::RenderParameters\l::Parameter\n||+ Parameter()\l+ Parameter()\l+ ~Parameter()\l+ bind()\l}">
<polygon fill="white" stroke="black" points="0,-149.5 0,-250.5 161,-250.5 161,-149.5 0,-149.5"/>
<text text-anchor="start" x="8" y="-238.5" font-family="Helvetica,sans-Serif" font-size="10.00">Ra::Engine::RenderParameters</text>
<text text-anchor="middle" x="80.5" y="-227.5" font-family="Helvetica,sans-Serif" font-size="10.00">::Parameter</text>
<polyline fill="none" stroke="black" points="0,-220.5 161,-220.5 "/>
<text text-anchor="middle" x="80.5" y="-208.5" font-family="Helvetica,sans-Serif" font-size="10.00"> </text>
<polyline fill="none" stroke="black" points="0,-201.5 161,-201.5 "/>
<text text-anchor="start" x="8" y="-189.5" font-family="Helvetica,sans-Serif" font-size="10.00">+ Parameter()</text>
<text text-anchor="start" x="8" y="-178.5" font-family="Helvetica,sans-Serif" font-size="10.00">+ Parameter()</text>
<text text-anchor="start" x="8" y="-167.5" font-family="Helvetica,sans-Serif" font-size="10.00">+ ~Parameter()</text>
<text text-anchor="start" x="8" y="-156.5" font-family="Helvetica,sans-Serif" font-size="10.00">+ bind()</text>
</a>
</g>
</g>
<!-- Node2&#45;&gt;Node1 -->
<g id="edge1" class="edge"><title>Node2&#45;&gt;Node1</title>
<path fill="none" stroke="midnightblue" d="M113.946,-140.469C121.28,-127.635 128.977,-114.166 136.091,-101.716"/>
<polygon fill="none" stroke="midnightblue" points="110.861,-138.814 108.939,-149.233 116.939,-142.287 110.861,-138.814"/>
</g>
<!-- Node3 -->
<g id="node3" class="node"><title>Node3</title>
<polygon fill="white" stroke="#bfbfbf" points="43,-298.5 43,-355.5 118,-355.5 118,-298.5 43,-298.5"/>
<text text-anchor="middle" x="80.5" y="-343.5" font-family="Helvetica,sans-Serif" font-size="10.00">const char *</text>
<polyline fill="none" stroke="#bfbfbf" points="43,-336.5 118,-336.5 "/>
<text text-anchor="middle" x="80.5" y="-324.5" font-family="Helvetica,sans-Serif" font-size="10.00"> </text>
<polyline fill="none" stroke="#bfbfbf" points="43,-317.5 118,-317.5 "/>
<text text-anchor="middle" x="80.5" y="-305.5" font-family="Helvetica,sans-Serif" font-size="10.00"> </text>
</g>
<!-- Node3&#45;&gt;Node2 -->
<g id="edge2" class="edge"><title>Node3&#45;&gt;Node2</title>
<path fill="none" stroke="#404040" d="M80.5,-298.258C80.5,-287.793 80.5,-275.422 80.5,-263.072"/>
<polygon fill="none" stroke="#404040" points="80.5001,-262.802 76.5,-256.802 80.5,-250.802 84.5,-256.802 80.5001,-262.802"/>
<text text-anchor="middle" x="108" y="-272" font-family="Helvetica,sans-Serif" font-size="10.00"> +m_name</text>
</g>
<!-- Node4 -->
<g id="node4" class="node"><title>Node4</title>
<polygon fill="white" stroke="#bfbfbf" points="179,-171.5 179,-228.5 208,-228.5 208,-171.5 179,-171.5"/>
<text text-anchor="middle" x="193.5" y="-216.5" font-family="Helvetica,sans-Serif" font-size="10.00">T</text>
<polyline fill="none" stroke="#bfbfbf" points="179,-209.5 208,-209.5 "/>
<text text-anchor="middle" x="193.5" y="-197.5" font-family="Helvetica,sans-Serif" font-size="10.00"> </text>
<polyline fill="none" stroke="#bfbfbf" points="179,-190.5 208,-190.5 "/>
<text text-anchor="middle" x="193.5" y="-178.5" font-family="Helvetica,sans-Serif" font-size="10.00"> </text>
</g>
<!-- Node4&#45;&gt;Node1 -->
<g id="edge3" class="edge"><title>Node4&#45;&gt;Node1</title>
<path fill="none" stroke="#404040" d="M188.045,-171.35C184.824,-155.019 180.61,-133.66 176.639,-113.532"/>
<polygon fill="none" stroke="#404040" points="176.597,-113.316 171.511,-108.204 174.274,-101.543 179.36,-106.656 176.597,-113.316"/>
<text text-anchor="middle" x="205.5" y="-123" font-family="Helvetica,sans-Serif" font-size="10.00"> +m_value</text>
</g>
</g>
</svg>
