<?xml version="1.0" encoding="UTF-8" standalone="no"?>
<!DOCTYPE svg PUBLIC "-//W3C//DTD SVG 1.1//EN"
 "http://www.w3.org/Graphics/SVG/1.1/DTD/svg11.dtd">
<!-- Generated by graphviz version 2.38.0 (20140413.2041)
 -->
<!-- Title: MeshFeatureTrackingPlugin::MeshFeatureTrackingComponent::setData Pages: 1 -->
<svg width="692pt" height="127pt"
 viewBox="0.00 0.00 692.00 126.50" xmlns="http://www.w3.org/2000/svg" xmlns:xlink="http://www.w3.org/1999/xlink">
<g id="graph0" class="graph" transform="scale(1 1) rotate(0) translate(4 122.5)">
<title>MeshFeatureTrackingPlugin::MeshFeatureTrackingComponent::setData</title>
<polygon fill="white" stroke="none" points="-4,4 -4,-122.5 688,-122.5 688,4 -4,4"/>
<!-- Node1 -->
<g id="node1" class="node"><title>Node1</title>
<polygon fill="#bfbfbf" stroke="black" points="0,-33.5 0,-74.5 179,-74.5 179,-33.5 0,-33.5"/>
<text text-anchor="start" x="8" y="-62.5" font-family="Helvetica,sans-Serif" font-size="10.00">MeshFeatureTrackingPlugin</text>
<text text-anchor="start" x="8" y="-51.5" font-family="Helvetica,sans-Serif" font-size="10.00">::MeshFeatureTrackingComponent</text>
<text text-anchor="middle" x="89.5" y="-40.5" font-family="Helvetica,sans-Serif" font-size="10.00">::setData</text>
</g>
<!-- Node2 -->
<g id="node2" class="node"><title>Node2</title>
<g id="a_node2"><a xlink:href="classRa_1_1Engine_1_1Component.html#a10b0bc182b76165744ebea603ae32dfe" target="_top" xlink:title="Shortcut to access the render object manager. ">
<polygon fill="white" stroke="black" points="222.5,-88 222.5,-118 351.5,-118 351.5,-88 222.5,-88"/>
<text text-anchor="start" x="230.5" y="-106" font-family="Helvetica,sans-Serif" font-size="10.00">Ra::Engine::Component</text>
<text text-anchor="middle" x="287" y="-95" font-family="Helvetica,sans-Serif" font-size="10.00">::getRoMgr</text>
</a>
</g>
</g>
<!-- Node1&#45;&gt;Node2 -->
<g id="edge1" class="edge"><title>Node1&#45;&gt;Node2</title>
<path fill="none" stroke="midnightblue" d="M172.56,-74.5674C187.022,-78.1923 201.955,-81.9351 216.048,-85.4672"/>
<polygon fill="midnightblue" stroke="midnightblue" points="215.591,-88.9609 226.142,-87.9972 217.293,-82.1709 215.591,-88.9609"/>
</g>
<!-- Node3 -->
<g id="node3" class="node"><title>Node3</title>
<g id="a_node3"><a xlink:href="classRa_1_1Engine_1_1RenderObjectManager.html#a13fc919e9fa01bfb36e67bc9011d325f" target="_top" xlink:title="Returns the render object corresponding to the given index. ">
<polygon fill="white" stroke="black" points="215,-39 215,-69 359,-69 359,-39 215,-39"/>
<text text-anchor="start" x="223" y="-57" font-family="Helvetica,sans-Serif" font-size="10.00">Ra::Engine::RenderObject</text>
<text text-anchor="middle" x="287" y="-46" font-family="Helvetica,sans-Serif" font-size="10.00">Manager::getRenderObject</text>
</a>
</g>
</g>
<!-- Node1&#45;&gt;Node3 -->
<g id="edge2" class="edge"><title>Node1&#45;&gt;Node3</title>
<path fill="none" stroke="midnightblue" d="M179.098,-54C187.645,-54 196.286,-54 204.757,-54"/>
<polygon fill="midnightblue" stroke="midnightblue" points="204.988,-57.5001 214.988,-54 204.988,-50.5001 204.988,-57.5001"/>
</g>
<!-- Node6 -->
<g id="node6" class="node"><title>Node6</title>
<g id="a_node6"><a xlink:href="namespaceRa_1_1Core_1_1Geometry.html#aa04e6052d8911b1df1bd881474debb45" target="_top" xlink:title="Ra::Core::Geometry::t">
<polygon fill="white" stroke="black" points="227,-0.5 227,-19.5 347,-19.5 347,-0.5 227,-0.5"/>
<text text-anchor="middle" x="287" y="-7.5" font-family="Helvetica,sans-Serif" font-size="10.00">Ra::Core::Geometry::t</text>
</a>
</g>
</g>
<!-- Node1&#45;&gt;Node6 -->
<g id="edge5" class="edge"><title>Node1&#45;&gt;Node6</title>
<path fill="none" stroke="midnightblue" d="M179.098,-34.0598C197.671,-29.8796 216.69,-25.5993 233.438,-21.8297"/>
<polygon fill="midnightblue" stroke="midnightblue" points="234.562,-25.1645 243.549,-19.5541 233.025,-18.3353 234.562,-25.1645"/>
</g>
<!-- Node4 -->
<g id="node4" class="node"><title>Node4</title>
<g id="a_node4"><a xlink:href="classRa_1_1Engine_1_1RenderObjectManager.html#a088feae4339349a81b7b6635b38aead1" target="_top" xlink:title="Returns true if the index points to a valid render object. ">
<polygon fill="white" stroke="black" points="395,-39 395,-69 532,-69 532,-39 395,-39"/>
<text text-anchor="start" x="403" y="-57" font-family="Helvetica,sans-Serif" font-size="10.00">Ra::Engine::RenderObject</text>
<text text-anchor="middle" x="463.5" y="-46" font-family="Helvetica,sans-Serif" font-size="10.00">Manager::exists</text>
</a>
</g>
</g>
<!-- Node3&#45;&gt;Node4 -->
<g id="edge3" class="edge"><title>Node3&#45;&gt;Node4</title>
<path fill="none" stroke="midnightblue" d="M359.228,-54C367.602,-54 376.181,-54 384.641,-54"/>
<polygon fill="midnightblue" stroke="midnightblue" points="384.879,-57.5001 394.879,-54 384.879,-50.5001 384.879,-57.5001"/>
</g>
<!-- Node5 -->
<g id="node5" class="node"><title>Node5</title>
<g id="a_node5"><a xlink:href="classRa_1_1Core_1_1Utils_1_1Index.html#ac7a1b710e6b95834a562c27e2f6c0f4b" target="_top" xlink:title="DESTRUCTOR: Must not be defined, we need it trivial to be constexpr. ">
<polygon fill="white" stroke="black" points="568,-39 568,-69 684,-69 684,-39 568,-39"/>
<text text-anchor="start" x="576" y="-57" font-family="Helvetica,sans-Serif" font-size="10.00">Ra::Core::Utils::Index</text>
<text text-anchor="middle" x="626" y="-46" font-family="Helvetica,sans-Serif" font-size="10.00">::isValid</text>
</a>
</g>
</g>
<!-- Node4&#45;&gt;Node5 -->
<g id="edge4" class="edge"><title>Node4&#45;&gt;Node5</title>
<path fill="none" stroke="midnightblue" d="M532.101,-54C540.567,-54 549.226,-54 557.688,-54"/>
<polygon fill="midnightblue" stroke="midnightblue" points="557.885,-57.5001 567.885,-54 557.885,-50.5001 557.885,-57.5001"/>
</g>
</g>
</svg>
