<?xml version="1.0" encoding="UTF-8" standalone="no"?>
<!DOCTYPE svg PUBLIC "-//W3C//DTD SVG 1.1//EN"
 "http://www.w3.org/Graphics/SVG/1.1/DTD/svg11.dtd">
<!-- Generated by graphviz version 2.38.0 (20140413.2041)
 -->
<!-- Title: Ra::GuiBase::SelectionManager::SelectionManager Pages: 1 -->
<svg width="1271pt" height="506pt"
 viewBox="0.00 0.00 1271.00 506.00" xmlns="http://www.w3.org/2000/svg" xmlns:xlink="http://www.w3.org/1999/xlink">
<g id="graph0" class="graph" transform="scale(1 1) rotate(0) translate(4 502)">
<title>Ra::GuiBase::SelectionManager::SelectionManager</title>
<polygon fill="white" stroke="none" points="-4,4 -4,-502 1267,-502 1267,4 -4,4"/>
<!-- Node1 -->
<g id="node1" class="node"><title>Node1</title>
<polygon fill="#bfbfbf" stroke="black" points="0,-393.5 0,-423.5 167,-423.5 167,-393.5 0,-393.5"/>
<text text-anchor="start" x="8" y="-411.5" font-family="Helvetica,sans-Serif" font-size="10.00">Ra::GuiBase::SelectionManager</text>
<text text-anchor="middle" x="83.5" y="-400.5" font-family="Helvetica,sans-Serif" font-size="10.00">::SelectionManager</text>
</g>
<!-- Node2 -->
<g id="node2" class="node"><title>Node2</title>
<g id="a_node2"><a xlink:href="classRa_1_1GuiBase_1_1SelectionManager.html#a1496f52d627bf335f9020ce0bee77d81" target="_top" xlink:title="Ra::GuiBase::SelectionManager\l::printSelection">
<polygon fill="white" stroke="black" points="203,-418.5 203,-448.5 370,-448.5 370,-418.5 203,-418.5"/>
<text text-anchor="start" x="211" y="-436.5" font-family="Helvetica,sans-Serif" font-size="10.00">Ra::GuiBase::SelectionManager</text>
<text text-anchor="middle" x="286.5" y="-425.5" font-family="Helvetica,sans-Serif" font-size="10.00">::printSelection</text>
</a>
</g>
</g>
<!-- Node1&#45;&gt;Node2 -->
<g id="edge1" class="edge"><title>Node1&#45;&gt;Node2</title>
<path fill="none" stroke="midnightblue" d="M167.125,-418.777C175.607,-419.832 184.266,-420.909 192.848,-421.976"/>
<polygon fill="midnightblue" stroke="midnightblue" points="192.516,-425.462 202.872,-423.223 193.38,-418.515 192.516,-425.462"/>
</g>
<!-- Node23 -->
<g id="node23" class="node"><title>Node23</title>
<g id="a_node23"><a xlink:href="classRa_1_1GuiBase_1_1SelectionManager.html#a2fcab4f0b1fd16de85a985380075784f" target="_top" xlink:title="Ra::GuiBase::SelectionManager\l::onModelRebuilt">
<polygon fill="white" stroke="black" points="203,-369.5 203,-399.5 370,-399.5 370,-369.5 203,-369.5"/>
<text text-anchor="start" x="211" y="-387.5" font-family="Helvetica,sans-Serif" font-size="10.00">Ra::GuiBase::SelectionManager</text>
<text text-anchor="middle" x="286.5" y="-376.5" font-family="Helvetica,sans-Serif" font-size="10.00">::onModelRebuilt</text>
</a>
</g>
</g>
<!-- Node1&#45;&gt;Node23 -->
<g id="edge32" class="edge"><title>Node1&#45;&gt;Node23</title>
<path fill="none" stroke="midnightblue" d="M167.125,-398.634C175.607,-397.621 184.266,-396.588 192.848,-395.563"/>
<polygon fill="midnightblue" stroke="midnightblue" points="193.357,-399.027 202.872,-394.366 192.527,-392.076 193.357,-399.027"/>
</g>
<!-- Node3 -->
<g id="node3" class="node"><title>Node3</title>
<g id="a_node3"><a xlink:href="classRa_1_1GuiBase_1_1SelectionManager.html#a34082047d9104b97d5a655c6dd36b8e0" target="_top" xlink:title="Return the set of selected entries. ">
<polygon fill="white" stroke="black" points="406,-467.5 406,-497.5 573,-497.5 573,-467.5 406,-467.5"/>
<text text-anchor="start" x="414" y="-485.5" font-family="Helvetica,sans-Serif" font-size="10.00">Ra::GuiBase::SelectionManager</text>
<text text-anchor="middle" x="489.5" y="-474.5" font-family="Helvetica,sans-Serif" font-size="10.00">::selectedEntries</text>
</a>
</g>
</g>
<!-- Node2&#45;&gt;Node3 -->
<g id="edge2" class="edge"><title>Node2&#45;&gt;Node3</title>
<path fill="none" stroke="midnightblue" d="M349.173,-448.535C370.588,-453.755 394.784,-459.654 416.93,-465.053"/>
<polygon fill="midnightblue" stroke="midnightblue" points="416.4,-468.526 426.944,-467.494 418.058,-461.725 416.4,-468.526"/>
</g>
<!-- Node5 -->
<g id="node5" class="node"><title>Node5</title>
<g id="a_node5"><a xlink:href="namespaceRa_1_1Engine.html#a318db0d77f9e9b965c12bd100fb8de50" target="_top" xlink:title="Returns the name associated to the given item. ">
<polygon fill="white" stroke="black" points="418,-246 418,-265 561,-265 561,-246 418,-246"/>
<text text-anchor="middle" x="489.5" y="-253" font-family="Helvetica,sans-Serif" font-size="10.00">Ra::Engine::getEntryName</text>
</a>
</g>
</g>
<!-- Node2&#45;&gt;Node5 -->
<g id="edge4" class="edge"><title>Node2&#45;&gt;Node5</title>
<path fill="none" stroke="midnightblue" d="M353.641,-418.446C359.4,-415.908 364.949,-412.948 370,-409.5 422.544,-373.628 461.981,-307.033 479.107,-274.449"/>
<polygon fill="midnightblue" stroke="midnightblue" points="482.428,-275.643 483.872,-265.147 476.198,-272.451 482.428,-275.643"/>
</g>
<!-- Node20 -->
<g id="node20" class="node"><title>Node20</title>
<g id="a_node20"><a xlink:href="classRa_1_1GuiBase_1_1SelectionManager.html#a29cbd250208f1e18d2ab1e0f4d91105d" target="_top" xlink:title="Return the current selected item, or an invalid entry if there is no current item. ">
<polygon fill="white" stroke="black" points="406,-418.5 406,-448.5 573,-448.5 573,-418.5 406,-418.5"/>
<text text-anchor="start" x="414" y="-436.5" font-family="Helvetica,sans-Serif" font-size="10.00">Ra::GuiBase::SelectionManager</text>
<text text-anchor="middle" x="489.5" y="-425.5" font-family="Helvetica,sans-Serif" font-size="10.00">::currentItem</text>
</a>
</g>
</g>
<!-- Node2&#45;&gt;Node20 -->
<g id="edge28" class="edge"><title>Node2&#45;&gt;Node20</title>
<path fill="none" stroke="midnightblue" d="M370.125,-433.5C378.607,-433.5 387.266,-433.5 395.848,-433.5"/>
<polygon fill="midnightblue" stroke="midnightblue" points="395.872,-437 405.872,-433.5 395.871,-430 395.872,-437"/>
</g>
<!-- Node4 -->
<g id="node4" class="node"><title>Node4</title>
<g id="a_node4"><a xlink:href="classRa_1_1GuiBase_1_1SelectionManager.html#aec178a6b3de1c04e5e1d16ff72c6e966" target="_top" xlink:title="Ra::GuiBase::SelectionManager\l::itemModel">
<polygon fill="white" stroke="black" points="609,-467.5 609,-497.5 776,-497.5 776,-467.5 609,-467.5"/>
<text text-anchor="start" x="617" y="-485.5" font-family="Helvetica,sans-Serif" font-size="10.00">Ra::GuiBase::SelectionManager</text>
<text text-anchor="middle" x="692.5" y="-474.5" font-family="Helvetica,sans-Serif" font-size="10.00">::itemModel</text>
</a>
</g>
</g>
<!-- Node3&#45;&gt;Node4 -->
<g id="edge3" class="edge"><title>Node3&#45;&gt;Node4</title>
<path fill="none" stroke="midnightblue" d="M573.125,-482.5C581.607,-482.5 590.266,-482.5 598.848,-482.5"/>
<polygon fill="midnightblue" stroke="midnightblue" points="598.872,-486 608.872,-482.5 598.871,-479 598.872,-486"/>
</g>
<!-- Node6 -->
<g id="node6" class="node"><title>Node6</title>
<g id="a_node6"><a xlink:href="structRa_1_1Engine_1_1ItemEntry.html#aceafc81a73631955b64999dd39a639da" target="_top" xlink:title="Returns true if the item represents any valid object. ">
<polygon fill="white" stroke="black" points="633,-149.5 633,-179.5 752,-179.5 752,-149.5 633,-149.5"/>
<text text-anchor="start" x="641" y="-167.5" font-family="Helvetica,sans-Serif" font-size="10.00">Ra::Engine::ItemEntry</text>
<text text-anchor="middle" x="692.5" y="-156.5" font-family="Helvetica,sans-Serif" font-size="10.00">::isValid</text>
</a>
</g>
</g>
<!-- Node5&#45;&gt;Node6 -->
<g id="edge5" class="edge"><title>Node5&#45;&gt;Node6</title>
<path fill="none" stroke="midnightblue" d="M509.177,-245.82C532.355,-233.933 573.202,-213.394 609,-197.5 619.796,-192.707 631.514,-187.829 642.637,-183.345"/>
<polygon fill="midnightblue" stroke="midnightblue" points="644.231,-186.477 652.221,-179.519 641.636,-179.977 644.231,-186.477"/>
</g>
<!-- Node11 -->
<g id="node11" class="node"><title>Node11</title>
<g id="a_node11"><a xlink:href="classRa_1_1Engine_1_1Entity.html#aaf256bea44bbc5bff6aa504aca05ca35" target="_top" xlink:title="Ra::Engine::Entity\l::getName">
<polygon fill="white" stroke="black" points="834,-235.5 834,-265.5 934,-265.5 934,-235.5 834,-235.5"/>
<text text-anchor="start" x="842" y="-253.5" font-family="Helvetica,sans-Serif" font-size="10.00">Ra::Engine::Entity</text>
<text text-anchor="middle" x="884" y="-242.5" font-family="Helvetica,sans-Serif" font-size="10.00">::getName</text>
</a>
</g>
</g>
<!-- Node5&#45;&gt;Node11 -->
<g id="edge27" class="edge"><title>Node5&#45;&gt;Node11</title>
<path fill="none" stroke="midnightblue" d="M527.833,-245.946C551.019,-240.511 581.535,-234.253 609,-231.5 682.852,-224.096 702.064,-224.987 776,-231.5 791.648,-232.879 808.436,-235.37 823.967,-238.105"/>
<polygon fill="midnightblue" stroke="midnightblue" points="823.502,-241.578 833.967,-239.928 824.757,-234.691 823.502,-241.578"/>
</g>
<!-- Node12 -->
<g id="node12" class="node"><title>Node12</title>
<g id="a_node12"><a xlink:href="structRa_1_1Engine_1_1ItemEntry.html#a898047549069e5b64d3a9a65c058af56" target="_top" xlink:title="Returns true if the item represents a render object. ">
<polygon fill="white" stroke="black" points="824.5,-49.5 824.5,-79.5 943.5,-79.5 943.5,-49.5 824.5,-49.5"/>
<text text-anchor="start" x="832.5" y="-67.5" font-family="Helvetica,sans-Serif" font-size="10.00">Ra::Engine::ItemEntry</text>
<text text-anchor="middle" x="884" y="-56.5" font-family="Helvetica,sans-Serif" font-size="10.00">::isRoNode</text>
</a>
</g>
</g>
<!-- Node5&#45;&gt;Node12 -->
<g id="edge17" class="edge"><title>Node5&#45;&gt;Node12</title>
<path fill="none" stroke="midnightblue" d="M497.636,-245.825C514.467,-223.707 559.008,-169.156 609,-140.5 673.341,-103.619 756.526,-83.8516 814.281,-73.813"/>
<polygon fill="midnightblue" stroke="midnightblue" points="815.119,-77.2211 824.399,-72.1084 813.956,-70.3183 815.119,-77.2211"/>
</g>
<!-- Node14 -->
<g id="node14" class="node"><title>Node14</title>
<g id="a_node14"><a xlink:href="classRa_1_1Engine_1_1RadiumEngine.html#a58b27bc600ea769f68b0e2938abc7862" target="_top" xlink:title="Manager getters. ">
<polygon fill="white" stroke="black" points="812,-284.5 812,-314.5 956,-314.5 956,-284.5 812,-284.5"/>
<text text-anchor="start" x="820" y="-302.5" font-family="Helvetica,sans-Serif" font-size="10.00">Ra::Engine::RadiumEngine</text>
<text text-anchor="middle" x="884" y="-291.5" font-family="Helvetica,sans-Serif" font-size="10.00">::getRenderObjectManager</text>
</a>
</g>
</g>
<!-- Node5&#45;&gt;Node14 -->
<g id="edge18" class="edge"><title>Node5&#45;&gt;Node14</title>
<path fill="none" stroke="midnightblue" d="M528.954,-265.025C552.025,-270.386 582.033,-276.739 609,-280.5 673.332,-289.472 746.782,-294.276 801.431,-296.807"/>
<polygon fill="midnightblue" stroke="midnightblue" points="801.609,-300.318 811.755,-297.268 801.921,-293.325 801.609,-300.318"/>
</g>
<!-- Node16 -->
<g id="node16" class="node"><title>Node16</title>
<g id="a_node16"><a xlink:href="classRa_1_1Engine_1_1RenderObjectManager.html#a13fc919e9fa01bfb36e67bc9011d325f" target="_top" xlink:title="Returns the render object corresponding to the given index. ">
<polygon fill="white" stroke="black" points="620.5,-2.5 620.5,-32.5 764.5,-32.5 764.5,-2.5 620.5,-2.5"/>
<text text-anchor="start" x="628.5" y="-20.5" font-family="Helvetica,sans-Serif" font-size="10.00">Ra::Engine::RenderObject</text>
<text text-anchor="middle" x="692.5" y="-9.5" font-family="Helvetica,sans-Serif" font-size="10.00">Manager::getRenderObject</text>
</a>
</g>
</g>
<!-- Node5&#45;&gt;Node16 -->
<g id="edge19" class="edge"><title>Node5&#45;&gt;Node16</title>
<path fill="none" stroke="midnightblue" d="M495.375,-245.773C509.863,-217.496 555.027,-133.757 609,-77.5 623.38,-62.5117 641.899,-48.6636 657.747,-38.0567"/>
<polygon fill="midnightblue" stroke="midnightblue" points="659.777,-40.9112 666.234,-32.5109 655.948,-35.0515 659.777,-40.9112"/>
</g>
<!-- Node17 -->
<g id="node17" class="node"><title>Node17</title>
<g id="a_node17"><a xlink:href="structRa_1_1Engine_1_1ItemEntry.html#ac78e7430338c62ed664a16da7e3ea206" target="_top" xlink:title="Returns true if the item represents a component. ">
<polygon fill="white" stroke="black" points="824.5,-372.5 824.5,-402.5 943.5,-402.5 943.5,-372.5 824.5,-372.5"/>
<text text-anchor="start" x="832.5" y="-390.5" font-family="Helvetica,sans-Serif" font-size="10.00">Ra::Engine::ItemEntry</text>
<text text-anchor="middle" x="884" y="-379.5" font-family="Helvetica,sans-Serif" font-size="10.00">::isComponentNode</text>
</a>
</g>
</g>
<!-- Node5&#45;&gt;Node17 -->
<g id="edge21" class="edge"><title>Node5&#45;&gt;Node17</title>
<path fill="none" stroke="midnightblue" d="M496.845,-265.03C512.625,-287.802 556.201,-345.21 609,-368.5 674.336,-397.321 756.997,-398.924 814.354,-395.29"/>
<polygon fill="midnightblue" stroke="midnightblue" points="814.673,-398.777 824.403,-394.584 814.182,-391.794 814.673,-398.777"/>
</g>
<!-- Node18 -->
<g id="node18" class="node"><title>Node18</title>
<g id="a_node18"><a xlink:href="classRa_1_1Engine_1_1Component.html#aa3e5cb90432a9a49e4362b673652ff76" target="_top" xlink:title="Return the component&#39;s name. ">
<polygon fill="white" stroke="black" points="628,-240.5 628,-270.5 757,-270.5 757,-240.5 628,-240.5"/>
<text text-anchor="start" x="636" y="-258.5" font-family="Helvetica,sans-Serif" font-size="10.00">Ra::Engine::Component</text>
<text text-anchor="middle" x="692.5" y="-247.5" font-family="Helvetica,sans-Serif" font-size="10.00">::getName</text>
</a>
</g>
</g>
<!-- Node5&#45;&gt;Node18 -->
<g id="edge24" class="edge"><title>Node5&#45;&gt;Node18</title>
<path fill="none" stroke="midnightblue" d="M561.082,-255.5C579.407,-255.5 599.193,-255.5 617.679,-255.5"/>
<polygon fill="midnightblue" stroke="midnightblue" points="617.799,-259 627.799,-255.5 617.799,-252 617.799,-259"/>
</g>
<!-- Node19 -->
<g id="node19" class="node"><title>Node19</title>
<g id="a_node19"><a xlink:href="structRa_1_1Engine_1_1ItemEntry.html#a4823dfa3c113db71733979f1719f3b28" target="_top" xlink:title="Returns true if the item represents an entity. ">
<polygon fill="white" stroke="black" points="633,-328.5 633,-358.5 752,-358.5 752,-328.5 633,-328.5"/>
<text text-anchor="start" x="641" y="-346.5" font-family="Helvetica,sans-Serif" font-size="10.00">Ra::Engine::ItemEntry</text>
<text text-anchor="middle" x="692.5" y="-335.5" font-family="Helvetica,sans-Serif" font-size="10.00">::isEntityNode</text>
</a>
</g>
</g>
<!-- Node5&#45;&gt;Node19 -->
<g id="edge25" class="edge"><title>Node5&#45;&gt;Node19</title>
<path fill="none" stroke="midnightblue" d="M508.692,-265.157C531.714,-277.203 572.744,-298.087 609,-313.5 618.257,-317.435 628.224,-321.336 637.921,-324.957"/>
<polygon fill="midnightblue" stroke="midnightblue" points="636.897,-328.31 647.49,-328.477 639.313,-321.74 636.897,-328.31"/>
</g>
<!-- Node7 -->
<g id="node7" class="node"><title>Node7</title>
<g id="a_node7"><a xlink:href="structRa_1_1Engine_1_1ItemEntry.html#a1fb9fdd74413a1fa5878f53c1cfcf8fd" target="_top" xlink:title="Debug checks. ">
<polygon fill="white" stroke="black" points="992,-328.5 992,-358.5 1111,-358.5 1111,-328.5 992,-328.5"/>
<text text-anchor="start" x="1000" y="-346.5" font-family="Helvetica,sans-Serif" font-size="10.00">Ra::Engine::ItemEntry</text>
<text text-anchor="middle" x="1051.5" y="-335.5" font-family="Helvetica,sans-Serif" font-size="10.00">::checkConsistency</text>
</a>
</g>
</g>
<!-- Node6&#45;&gt;Node7 -->
<g id="edge6" class="edge"><title>Node6&#45;&gt;Node7</title>
<path fill="none" stroke="midnightblue" d="M752.048,-176.233C824.017,-190.979 938.784,-215.667 956,-226.5 992.967,-249.762 1021.97,-292.579 1037.64,-319.464"/>
<polygon fill="midnightblue" stroke="midnightblue" points="1034.64,-321.273 1042.61,-328.25 1040.73,-317.824 1034.64,-321.273"/>
</g>
<!-- Node9 -->
<g id="node9" class="node"><title>Node9</title>
<g id="a_node9"><a xlink:href="classRa_1_1Engine_1_1RadiumEngine.html#a79f6626ce468268791bc5bdfe17b5586" target="_top" xlink:title="Get the entity manager attached to the engine. ">
<polygon fill="white" stroke="black" points="813.5,-147.5 813.5,-177.5 954.5,-177.5 954.5,-147.5 813.5,-147.5"/>
<text text-anchor="start" x="821.5" y="-165.5" font-family="Helvetica,sans-Serif" font-size="10.00">Ra::Engine::RadiumEngine</text>
<text text-anchor="middle" x="884" y="-154.5" font-family="Helvetica,sans-Serif" font-size="10.00">::getEntityManager</text>
</a>
</g>
</g>
<!-- Node6&#45;&gt;Node9 -->
<g id="edge8" class="edge"><title>Node6&#45;&gt;Node9</title>
<path fill="none" stroke="midnightblue" d="M752.161,-163.881C768.335,-163.71 786.159,-163.522 803.307,-163.341"/>
<polygon fill="midnightblue" stroke="midnightblue" points="803.346,-166.841 813.309,-163.236 803.272,-159.841 803.346,-166.841"/>
</g>
<!-- Node10 -->
<g id="node10" class="node"><title>Node10</title>
<g id="a_node10"><a xlink:href="classRa_1_1Engine_1_1EntityManager.html#a5115cccae6aaef614ad4bd08e64d8185" target="_top" xlink:title="Check wether an entity with a given name exists or not. ">
<polygon fill="white" stroke="black" points="813,-98.5 813,-128.5 955,-128.5 955,-98.5 813,-98.5"/>
<text text-anchor="start" x="821" y="-116.5" font-family="Helvetica,sans-Serif" font-size="10.00">Ra::Engine::EntityManager</text>
<text text-anchor="middle" x="884" y="-105.5" font-family="Helvetica,sans-Serif" font-size="10.00">::entityExists</text>
</a>
</g>
</g>
<!-- Node6&#45;&gt;Node10 -->
<g id="edge9" class="edge"><title>Node6&#45;&gt;Node10</title>
<path fill="none" stroke="midnightblue" d="M749.331,-149.474C770.729,-143.715 795.332,-137.094 817.551,-131.114"/>
<polygon fill="midnightblue" stroke="midnightblue" points="818.494,-134.485 827.241,-128.506 816.675,-127.726 818.494,-134.485"/>
</g>
<!-- Node6&#45;&gt;Node11 -->
<g id="edge10" class="edge"><title>Node6&#45;&gt;Node11</title>
<path fill="none" stroke="midnightblue" d="M735.727,-179.627C748.861,-184.798 763.239,-190.945 776,-197.5 792.889,-206.175 795.195,-211.662 812,-220.5 819.241,-224.308 827.074,-228.009 834.801,-231.435"/>
<polygon fill="midnightblue" stroke="midnightblue" points="833.561,-234.712 844.129,-235.469 836.34,-228.287 833.561,-234.712"/>
</g>
<!-- Node6&#45;&gt;Node12 -->
<g id="edge11" class="edge"><title>Node6&#45;&gt;Node12</title>
<path fill="none" stroke="midnightblue" d="M713.582,-149.443C736.464,-132.816 775.435,-106.078 812,-88.5 815.76,-86.6925 819.692,-84.9612 823.693,-83.3155"/>
<polygon fill="midnightblue" stroke="midnightblue" points="825.07,-86.5355 833.109,-79.6352 822.521,-80.0158 825.07,-86.5355"/>
</g>
<!-- Node6&#45;&gt;Node14 -->
<g id="edge14" class="edge"><title>Node6&#45;&gt;Node14</title>
<path fill="none" stroke="midnightblue" d="M714.483,-179.66C731.772,-192.582 756.525,-212.095 776,-231.5 793.899,-249.334 791.225,-261.118 812,-275.5 814.153,-276.99 816.406,-278.395 818.731,-279.718"/>
<polygon fill="midnightblue" stroke="midnightblue" points="817.488,-283.012 827.988,-284.424 820.66,-276.772 817.488,-283.012"/>
</g>
<!-- Node15 -->
<g id="node15" class="node"><title>Node15</title>
<g id="a_node15"><a xlink:href="classRa_1_1Engine_1_1RenderObjectManager.html#a088feae4339349a81b7b6635b38aead1" target="_top" xlink:title="Returns true if the index points to a valid render object. ">
<polygon fill="white" stroke="black" points="815.5,-0.5 815.5,-30.5 952.5,-30.5 952.5,-0.5 815.5,-0.5"/>
<text text-anchor="start" x="823.5" y="-18.5" font-family="Helvetica,sans-Serif" font-size="10.00">Ra::Engine::RenderObject</text>
<text text-anchor="middle" x="884" y="-7.5" font-family="Helvetica,sans-Serif" font-size="10.00">Manager::exists</text>
</a>
</g>
</g>
<!-- Node6&#45;&gt;Node15 -->
<g id="edge15" class="edge"><title>Node6&#45;&gt;Node15</title>
<path fill="none" stroke="midnightblue" d="M704.117,-149.138C722.933,-123.005 764.641,-69.7909 812,-39.5 814.466,-37.9226 817.048,-36.437 819.704,-35.0394"/>
<polygon fill="midnightblue" stroke="midnightblue" points="821.452,-38.0836 828.972,-30.6205 818.439,-31.7651 821.452,-38.0836"/>
</g>
<!-- Node8 -->
<g id="node8" class="node"><title>Node8</title>
<g id="a_node8"><a xlink:href="classRa_1_1Core_1_1Utils_1_1Index.html#ac7d6c68387fe147f7a13668ac30a4533" target="_top" xlink:title="INVALID. ">
<polygon fill="white" stroke="black" points="1147,-350.5 1147,-380.5 1263,-380.5 1263,-350.5 1147,-350.5"/>
<text text-anchor="start" x="1155" y="-368.5" font-family="Helvetica,sans-Serif" font-size="10.00">Ra::Core::Utils::Index</text>
<text text-anchor="middle" x="1205" y="-357.5" font-family="Helvetica,sans-Serif" font-size="10.00">::isInvalid</text>
</a>
</g>
</g>
<!-- Node7&#45;&gt;Node8 -->
<g id="edge7" class="edge"><title>Node7&#45;&gt;Node8</title>
<path fill="none" stroke="midnightblue" d="M1111.07,-352.006C1119.45,-353.222 1128.13,-354.482 1136.66,-355.721"/>
<polygon fill="midnightblue" stroke="midnightblue" points="1136.18,-359.188 1146.58,-357.162 1137.19,-352.261 1136.18,-359.188"/>
</g>
<!-- Node12&#45;&gt;Node7 -->
<g id="edge12" class="edge"><title>Node12&#45;&gt;Node7</title>
<path fill="none" stroke="midnightblue" d="M943.713,-79.3767C948.182,-81.9485 952.36,-84.964 956,-88.5 1022.25,-152.864 1042.43,-267.784 1048.27,-318.394"/>
<polygon fill="midnightblue" stroke="midnightblue" points="1044.8,-318.875 1049.33,-328.451 1051.76,-318.138 1044.8,-318.875"/>
</g>
<!-- Node13 -->
<g id="node13" class="node"><title>Node13</title>
<g id="a_node13"><a xlink:href="classRa_1_1Core_1_1Utils_1_1Index.html#ac7a1b710e6b95834a562c27e2f6c0f4b" target="_top" xlink:title="DESTRUCTOR: Must not be defined, we need it trivial to be constexpr. ">
<polygon fill="white" stroke="black" points="993.5,-24.5 993.5,-54.5 1109.5,-54.5 1109.5,-24.5 993.5,-24.5"/>
<text text-anchor="start" x="1001.5" y="-42.5" font-family="Helvetica,sans-Serif" font-size="10.00">Ra::Core::Utils::Index</text>
<text text-anchor="middle" x="1051.5" y="-31.5" font-family="Helvetica,sans-Serif" font-size="10.00">::isValid</text>
</a>
</g>
</g>
<!-- Node12&#45;&gt;Node13 -->
<g id="edge13" class="edge"><title>Node12&#45;&gt;Node13</title>
<path fill="none" stroke="midnightblue" d="M943.815,-55.6155C956.623,-53.6807 970.269,-51.6195 983.372,-49.6402"/>
<polygon fill="midnightblue" stroke="midnightblue" points="983.899,-53.1004 993.264,-48.146 982.853,-46.179 983.899,-53.1004"/>
</g>
<!-- Node15&#45;&gt;Node13 -->
<g id="edge16" class="edge"><title>Node15&#45;&gt;Node13</title>
<path fill="none" stroke="midnightblue" d="M952.793,-25.331C962.902,-26.797 973.32,-28.3077 983.415,-29.7716"/>
<polygon fill="midnightblue" stroke="midnightblue" points="982.98,-33.2451 993.379,-31.2165 983.984,-26.3175 982.98,-33.2451"/>
</g>
<!-- Node16&#45;&gt;Node15 -->
<g id="edge20" class="edge"><title>Node16&#45;&gt;Node15</title>
<path fill="none" stroke="midnightblue" d="M764.602,-16.7496C777.825,-16.61 791.704,-16.4635 805.118,-16.322"/>
<polygon fill="midnightblue" stroke="midnightblue" points="805.303,-19.8203 815.266,-16.2149 805.229,-12.8207 805.303,-19.8203"/>
</g>
<!-- Node17&#45;&gt;Node7 -->
<g id="edge22" class="edge"><title>Node17&#45;&gt;Node7</title>
<path fill="none" stroke="midnightblue" d="M941.493,-372.481C955.264,-368.82 970.117,-364.871 984.295,-361.101"/>
<polygon fill="midnightblue" stroke="midnightblue" points="985.216,-364.478 993.981,-358.526 983.417,-357.713 985.216,-364.478"/>
</g>
<!-- Node17&#45;&gt;Node8 -->
<g id="edge23" class="edge"><title>Node17&#45;&gt;Node8</title>
<path fill="none" stroke="midnightblue" d="M943.51,-383.465C998.147,-379.697 1079.64,-374.076 1136.9,-370.128"/>
<polygon fill="midnightblue" stroke="midnightblue" points="1137.2,-373.615 1146.93,-369.436 1136.72,-366.632 1137.2,-373.615"/>
</g>
<!-- Node19&#45;&gt;Node7 -->
<g id="edge26" class="edge"><title>Node19&#45;&gt;Node7</title>
<path fill="none" stroke="midnightblue" d="M752.052,-343.5C814.954,-343.5 914.843,-343.5 981.512,-343.5"/>
<polygon fill="midnightblue" stroke="midnightblue" points="981.917,-347 991.916,-343.5 981.916,-340 981.917,-347"/>
</g>
<!-- Node20&#45;&gt;Node4 -->
<g id="edge29" class="edge"><title>Node20&#45;&gt;Node4</title>
<path fill="none" stroke="midnightblue" d="M552.173,-448.535C573.588,-453.755 597.784,-459.654 619.93,-465.053"/>
<polygon fill="midnightblue" stroke="midnightblue" points="619.4,-468.526 629.944,-467.494 621.058,-461.725 619.4,-468.526"/>
</g>
<!-- Node21 -->
<g id="node21" class="node"><title>Node21</title>
<g id="a_node21"><a xlink:href="classRa_1_1GuiBase_1_1ItemModel.html#a3236433d461ad6cac5e9390b2685fa3f" target="_top" xlink:title="Returns the entry corresponding to a given index or an invalid entry if the index doesn&#39;t match any e...">
<polygon fill="white" stroke="black" points="627,-418.5 627,-448.5 758,-448.5 758,-418.5 627,-418.5"/>
<text text-anchor="start" x="635" y="-436.5" font-family="Helvetica,sans-Serif" font-size="10.00">Ra::GuiBase::ItemModel</text>
<text text-anchor="middle" x="692.5" y="-425.5" font-family="Helvetica,sans-Serif" font-size="10.00">::getEntry</text>
</a>
</g>
</g>
<!-- Node20&#45;&gt;Node21 -->
<g id="edge30" class="edge"><title>Node20&#45;&gt;Node21</title>
<path fill="none" stroke="midnightblue" d="M573.125,-433.5C587.501,-433.5 602.382,-433.5 616.538,-433.5"/>
<polygon fill="midnightblue" stroke="midnightblue" points="616.701,-437 626.701,-433.5 616.701,-430 616.701,-437"/>
</g>
<!-- Node22 -->
<g id="node22" class="node"><title>Node22</title>
<g id="a_node22"><a xlink:href="classRa_1_1GuiBase_1_1TreeModel.html#a5aa24ace72c1c3d29e268cb34dc576f2" target="_top" xlink:title="Get the tree item corresponding to the given index. ">
<polygon fill="white" stroke="black" points="820,-421.5 820,-451.5 948,-451.5 948,-421.5 820,-421.5"/>
<text text-anchor="start" x="828" y="-439.5" font-family="Helvetica,sans-Serif" font-size="10.00">Ra::GuiBase::TreeModel</text>
<text text-anchor="middle" x="884" y="-428.5" font-family="Helvetica,sans-Serif" font-size="10.00">::getItem</text>
</a>
</g>
</g>
<!-- Node21&#45;&gt;Node22 -->
<g id="edge31" class="edge"><title>Node21&#45;&gt;Node22</title>
<path fill="none" stroke="midnightblue" d="M758.185,-434.524C774.7,-434.785 792.575,-435.068 809.497,-435.336"/>
<polygon fill="midnightblue" stroke="midnightblue" points="809.835,-438.842 819.889,-435.501 809.946,-431.843 809.835,-438.842"/>
</g>
</g>
</svg>
