<?xml version="1.0" encoding="UTF-8" standalone="no"?>
<!DOCTYPE svg PUBLIC "-//W3C//DTD SVG 1.1//EN"
 "http://www.w3.org/Graphics/SVG/1.1/DTD/svg11.dtd">
<!-- Generated by graphviz version 2.38.0 (20140413.2041)
 -->
<!-- Title: Ra::IO::AssimpGeometryDataLoader::fetchEdges Pages: 1 -->
<svg width="345pt" height="78pt"
 viewBox="0.00 0.00 345.00 77.50" xmlns="http://www.w3.org/2000/svg" xmlns:xlink="http://www.w3.org/1999/xlink">
<g id="graph0" class="graph" transform="scale(1 1) rotate(0) translate(4 73.5)">
<title>Ra::IO::AssimpGeometryDataLoader::fetchEdges</title>
<polygon fill="white" stroke="none" points="-4,4 -4,-73.5 341,-73.5 341,4 -4,4"/>
<!-- Node1 -->
<g id="node1" class="node"><title>Node1</title>
<polygon fill="#bfbfbf" stroke="black" points="0,-17 0,-47 157,-47 157,-17 0,-17"/>
<text text-anchor="start" x="8" y="-35" font-family="Helvetica,sans-Serif" font-size="10.00">Ra::IO::AssimpGeometryData</text>
<text text-anchor="middle" x="78.5" y="-24" font-family="Helvetica,sans-Serif" font-size="10.00">Loader::fetchEdges</text>
</g>
<!-- Node2 -->
<g id="node2" class="node"><title>Node2</title>
<g id="a_node2"><a xlink:href="classRa_1_1Core_1_1Asset_1_1GeometryData.html#a72983bc81153a7be462cb3c5ee45650b" target="_top" xlink:title="Return the list of lines. ">
<polygon fill="white" stroke="black" points="193,-39 193,-69 337,-69 337,-39 193,-39"/>
<text text-anchor="start" x="201" y="-57" font-family="Helvetica,sans-Serif" font-size="10.00">Ra::Core::Asset::Geometry</text>
<text text-anchor="middle" x="265" y="-46" font-family="Helvetica,sans-Serif" font-size="10.00">Data::getEdges</text>
</a>
</g>
</g>
<!-- Node1&#45;&gt;Node2 -->
<g id="edge1" class="edge"><title>Node1&#45;&gt;Node2</title>
<path fill="none" stroke="midnightblue" d="M157.21,-41.2662C165.704,-42.2791 174.367,-43.312 182.9,-44.3296"/>
<polygon fill="midnightblue" stroke="midnightblue" points="182.497,-47.8061 192.841,-45.5149 183.325,-40.8554 182.497,-47.8061"/>
</g>
<!-- Node3 -->
<g id="node3" class="node"><title>Node3</title>
<g id="a_node3"><a xlink:href="namespaceRa_1_1IO.html#aef6c50424873964fcea0008be55d4a34" target="_top" xlink:title="Ra::IO::assimpToCore">
<polygon fill="white" stroke="black" points="206.5,-0.5 206.5,-19.5 323.5,-19.5 323.5,-0.5 206.5,-0.5"/>
<text text-anchor="middle" x="265" y="-7.5" font-family="Helvetica,sans-Serif" font-size="10.00">Ra::IO::assimpToCore</text>
</a>
</g>
</g>
<!-- Node1&#45;&gt;Node3 -->
<g id="edge2" class="edge"><title>Node1&#45;&gt;Node3</title>
<path fill="none" stroke="midnightblue" d="M157.21,-22.7338C170.187,-21.1864 183.558,-19.592 196.261,-18.0773"/>
<polygon fill="midnightblue" stroke="midnightblue" points="196.769,-21.5416 206.284,-16.8821 195.94,-14.5908 196.769,-21.5416"/>
</g>
</g>
</svg>
