<?xml version="1.0" encoding="UTF-8" standalone="no"?>
<!DOCTYPE svg PUBLIC "-//W3C//DTD SVG 1.1//EN"
 "http://www.w3.org/Graphics/SVG/1.1/DTD/svg11.dtd">
<!-- Generated by graphviz version 2.38.0 (20140413.2041)
 -->
<!-- Title: Ra::Gui::Viewer::resizeEvent Pages: 1 -->
<svg width="1505pt" height="380pt"
 viewBox="0.00 0.00 1505.00 379.89" xmlns="http://www.w3.org/2000/svg" xmlns:xlink="http://www.w3.org/1999/xlink">
<g id="graph0" class="graph" transform="scale(1 1) rotate(0) translate(4 375.885)">
<title>Ra::Gui::Viewer::resizeEvent</title>
<polygon fill="white" stroke="none" points="-4,4 -4,-375.885 1501,-375.885 1501,4 -4,4"/>
<!-- Node1 -->
<g id="node1" class="node"><title>Node1</title>
<polygon fill="#bfbfbf" stroke="black" points="0,-91.8851 0,-110.885 149,-110.885 149,-91.8851 0,-91.8851"/>
<text text-anchor="middle" x="74.5" y="-98.8851" font-family="Helvetica,sans-Serif" font-size="10.00">Ra::Gui::Viewer::resizeEvent</text>
</g>
<!-- Node2 -->
<g id="node2" class="node"><title>Node2</title>
<g id="a_node2"><a xlink:href="classRa_1_1Gui_1_1Viewer.html#aaff78c033593e81550c0fb5fc5ae4836" target="_top" xlink:title="Initialize openGL. ">
<polygon fill="white" stroke="black" points="185,-118.885 185,-137.885 330,-137.885 330,-118.885 185,-118.885"/>
<text text-anchor="middle" x="257.5" y="-125.885" font-family="Helvetica,sans-Serif" font-size="10.00">Ra::Gui::Viewer::initializeGL</text>
</a>
</g>
</g>
<!-- Node1&#45;&gt;Node2 -->
<g id="edge1" class="edge"><title>Node1&#45;&gt;Node2</title>
<path fill="none" stroke="midnightblue" d="M139.314,-110.904C153.237,-112.981 168.085,-115.196 182.371,-117.327"/>
<polygon fill="midnightblue" stroke="midnightblue" points="182.245,-120.847 192.652,-118.861 183.278,-113.924 182.245,-120.847"/>
</g>
<!-- Node23 -->
<g id="node23" class="node"><title>Node23</title>
<g id="a_node23"><a xlink:href="classRa_1_1Gui_1_1Viewer.html#a9cc3d2046e3cf8c7529cef657cd80233" target="_top" xlink:title="Resize the view port and the camera. Called by the resize event. ">
<polygon fill="white" stroke="black" points="376,-28.8851 376,-47.8851 511,-47.8851 511,-28.8851 376,-28.8851"/>
<text text-anchor="middle" x="443.5" y="-35.8851" font-family="Helvetica,sans-Serif" font-size="10.00">Ra::Gui::Viewer::resizeGL</text>
</a>
</g>
</g>
<!-- Node1&#45;&gt;Node23 -->
<g id="edge25" class="edge"><title>Node1&#45;&gt;Node23</title>
<path fill="none" stroke="midnightblue" d="M131.239,-91.8168C197.272,-80.4815 307.124,-61.6241 377.112,-49.6098"/>
<polygon fill="midnightblue" stroke="midnightblue" points="377.875,-53.03 387.139,-47.8885 376.691,-46.1309 377.875,-53.03"/>
</g>
<!-- Node3 -->
<g id="node3" class="node"><title>Node3</title>
<g id="a_node3"><a xlink:href="classRa_1_1Gui_1_1Viewer.html#a5038d663d3fe66ec87ad8a68f98f5cb0" target="_top" xlink:title="Initialize renderer internal state + configure lights. ">
<polygon fill="white" stroke="black" points="578,-170.385 578,-200.385 708,-200.385 708,-170.385 578,-170.385"/>
<text text-anchor="start" x="586" y="-188.385" font-family="Helvetica,sans-Serif" font-size="10.00">Ra::Gui::Viewer::intialize</text>
<text text-anchor="middle" x="643" y="-177.385" font-family="Helvetica,sans-Serif" font-size="10.00">Renderer</text>
</a>
</g>
</g>
<!-- Node2&#45;&gt;Node3 -->
<g id="edge2" class="edge"><title>Node2&#45;&gt;Node3</title>
<path fill="none" stroke="midnightblue" d="M280.235,-138.039C301.603,-147.053 335.374,-160.041 366,-166.385 433.299,-180.326 511.596,-184.618 567.569,-185.693"/>
<polygon fill="midnightblue" stroke="midnightblue" points="567.697,-189.195 577.753,-185.858 567.811,-182.196 567.697,-189.195"/>
</g>
<!-- Node19 -->
<g id="node19" class="node"><title>Node19</title>
<g id="a_node19"><a xlink:href="classRa_1_1Gui_1_1Viewer.html#a0b3d60e0f712822a7f951c40e4ed90db" target="_top" xlink:title="Add a renderer and return its index. ">
<polygon fill="white" stroke="black" points="366,-137.885 366,-156.885 521,-156.885 521,-137.885 366,-137.885"/>
<text text-anchor="middle" x="443.5" y="-144.885" font-family="Helvetica,sans-Serif" font-size="10.00">Ra::Gui::Viewer::addRenderer</text>
</a>
</g>
</g>
<!-- Node2&#45;&gt;Node19 -->
<g id="edge18" class="edge"><title>Node2&#45;&gt;Node19</title>
<path fill="none" stroke="midnightblue" d="M330.166,-135.785C338.579,-136.654 347.231,-137.548 355.821,-138.435"/>
<polygon fill="midnightblue" stroke="midnightblue" points="355.551,-141.925 365.858,-139.471 356.27,-134.962 355.551,-141.925"/>
</g>
<!-- Node20 -->
<g id="node20" class="node"><title>Node20</title>
<g id="a_node20"><a xlink:href="classRa_1_1Gui_1_1Viewer.html#a94ca6b2d9205f3affdc98703e5d22a13" target="_top" xlink:title="Set the renderer. ">
<polygon fill="white" stroke="black" points="557,-99.8851 557,-118.885 729,-118.885 729,-99.8851 557,-99.8851"/>
<text text-anchor="middle" x="643" y="-106.885" font-family="Helvetica,sans-Serif" font-size="10.00">Ra::Gui::Viewer::changeRenderer</text>
</a>
</g>
</g>
<!-- Node2&#45;&gt;Node20 -->
<g id="edge20" class="edge"><title>Node2&#45;&gt;Node20</title>
<path fill="none" stroke="midnightblue" d="M330.184,-124.834C391.324,-121.805 479.717,-117.425 546.789,-114.102"/>
<polygon fill="midnightblue" stroke="midnightblue" points="547.129,-117.59 556.943,-113.599 546.782,-110.598 547.129,-117.59"/>
</g>
<!-- Node4 -->
<g id="node4" class="node"><title>Node4</title>
<g id="a_node4"><a xlink:href="classRa_1_1Engine_1_1Renderer.html#af7d65da9d3a185ede31e308d79398259" target="_top" xlink:title="Initialize renderer. ">
<polygon fill="white" stroke="black" points="765,-219.385 765,-249.385 881,-249.385 881,-219.385 765,-219.385"/>
<text text-anchor="start" x="773" y="-237.385" font-family="Helvetica,sans-Serif" font-size="10.00">Ra::Engine::Renderer</text>
<text text-anchor="middle" x="823" y="-226.385" font-family="Helvetica,sans-Serif" font-size="10.00">::initialize</text>
</a>
</g>
</g>
<!-- Node3&#45;&gt;Node4 -->
<g id="edge3" class="edge"><title>Node3&#45;&gt;Node4</title>
<path fill="none" stroke="midnightblue" d="M698.858,-200.487C717.386,-205.587 738.242,-211.328 757.45,-216.616"/>
<polygon fill="midnightblue" stroke="midnightblue" points="756.753,-220.054 767.323,-219.334 758.61,-213.305 756.753,-220.054"/>
</g>
<!-- Node18 -->
<g id="node18" class="node"><title>Node18</title>
<g id="a_node18"><a xlink:href="classRa_1_1Engine_1_1Renderer.html#a3166160850c466595fe48a74116bc116" target="_top" xlink:title="Lock rendering. ">
<polygon fill="white" stroke="black" points="765,-170.385 765,-200.385 881,-200.385 881,-170.385 765,-170.385"/>
<text text-anchor="start" x="773" y="-188.385" font-family="Helvetica,sans-Serif" font-size="10.00">Ra::Engine::Renderer</text>
<text text-anchor="middle" x="823" y="-177.385" font-family="Helvetica,sans-Serif" font-size="10.00">::lockRendering</text>
</a>
</g>
</g>
<!-- Node3&#45;&gt;Node18 -->
<g id="edge17" class="edge"><title>Node3&#45;&gt;Node18</title>
<path fill="none" stroke="midnightblue" d="M708.011,-185.385C723.073,-185.385 739.175,-185.385 754.39,-185.385"/>
<polygon fill="midnightblue" stroke="midnightblue" points="754.758,-188.885 764.758,-185.385 754.758,-181.885 754.758,-188.885"/>
</g>
<!-- Node5 -->
<g id="node5" class="node"><title>Node5</title>
<g id="a_node5"><a xlink:href="classRa_1_1Engine_1_1ShaderProgramManager.html#ace65fe1c6b109156e169cf23e01c51aa" target="_top" xlink:title="Add a shader program to the program collection according to the given configuration. ">
<polygon fill="white" stroke="black" points="923.5,-341.385 923.5,-371.385 1081.5,-371.385 1081.5,-341.385 923.5,-341.385"/>
<text text-anchor="start" x="931.5" y="-359.385" font-family="Helvetica,sans-Serif" font-size="10.00">Ra::Engine::ShaderProgram</text>
<text text-anchor="middle" x="1002.5" y="-348.385" font-family="Helvetica,sans-Serif" font-size="10.00">Manager::addShaderProgram</text>
</a>
</g>
</g>
<!-- Node4&#45;&gt;Node5 -->
<g id="edge4" class="edge"><title>Node4&#45;&gt;Node5</title>
<path fill="none" stroke="midnightblue" d="M834.172,-249.389C849.575,-270.958 880.878,-310.528 917,-332.385 919.805,-334.083 922.735,-335.664 925.749,-337.137"/>
<polygon fill="midnightblue" stroke="midnightblue" points="924.443,-340.387 935.003,-341.24 927.28,-333.987 924.443,-340.387"/>
</g>
<!-- Node8 -->
<g id="node8" class="node"><title>Node8</title>
<g id="a_node8"><a xlink:href="classRa_1_1Engine_1_1ShaderConfiguration.html#a8ffa1714a9e63a320acaa7873fb99797" target="_top" xlink:title="Add a shader given its type. ">
<polygon fill="white" stroke="black" points="917,-292.385 917,-322.385 1088,-322.385 1088,-292.385 917,-292.385"/>
<text text-anchor="start" x="925" y="-310.385" font-family="Helvetica,sans-Serif" font-size="10.00">Ra::Engine::ShaderConfiguration</text>
<text text-anchor="middle" x="1002.5" y="-299.385" font-family="Helvetica,sans-Serif" font-size="10.00">::addShader</text>
</a>
</g>
</g>
<!-- Node4&#45;&gt;Node8 -->
<g id="edge7" class="edge"><title>Node4&#45;&gt;Node8</title>
<path fill="none" stroke="midnightblue" d="M849.836,-249.399C868.161,-259.627 893.565,-272.969 917,-282.385 922.869,-284.743 929.046,-286.992 935.279,-289.105"/>
<polygon fill="midnightblue" stroke="midnightblue" points="934.491,-292.529 945.083,-292.309 936.665,-285.876 934.491,-292.529"/>
</g>
<!-- Node9 -->
<g id="node9" class="node"><title>Node9</title>
<g id="a_node9"><a xlink:href="namespaceRa_1_1Engine_1_1ShaderConfigurationFactory.html#a36842535508a390108fb1205210a5c49" target="_top" xlink:title="Add a configuration to the factory. ">
<polygon fill="white" stroke="black" points="917,-243.385 917,-273.385 1088,-273.385 1088,-243.385 917,-243.385"/>
<text text-anchor="start" x="925" y="-261.385" font-family="Helvetica,sans-Serif" font-size="10.00">Ra::Engine::ShaderConfiguration</text>
<text text-anchor="middle" x="1002.5" y="-250.385" font-family="Helvetica,sans-Serif" font-size="10.00">Factory::addConfiguration</text>
</a>
</g>
</g>
<!-- Node4&#45;&gt;Node9 -->
<g id="edge8" class="edge"><title>Node4&#45;&gt;Node9</title>
<path fill="none" stroke="midnightblue" d="M881.139,-242.111C889.297,-243.214 897.866,-244.373 906.513,-245.542"/>
<polygon fill="midnightblue" stroke="midnightblue" points="906.303,-249.045 916.682,-246.917 907.241,-242.108 906.303,-249.045"/>
</g>
<!-- Node10 -->
<g id="node10" class="node"><title>Node10</title>
<g id="a_node10"><a xlink:href="namespaceRa_1_1Core_1_1Geometry.html#ab5b50c432007b86706d836df1c57b394" target="_top" xlink:title="Create a 2D quad mesh given half extents, centered on the origin with z axis as normal. ">
<polygon fill="white" stroke="black" points="943.5,-194.385 943.5,-224.385 1061.5,-224.385 1061.5,-194.385 943.5,-194.385"/>
<text text-anchor="start" x="951.5" y="-212.385" font-family="Helvetica,sans-Serif" font-size="10.00">Ra::Core::Geometry</text>
<text text-anchor="middle" x="1002.5" y="-201.385" font-family="Helvetica,sans-Serif" font-size="10.00">::makeZNormalQuad</text>
</a>
</g>
</g>
<!-- Node4&#45;&gt;Node10 -->
<g id="edge9" class="edge"><title>Node4&#45;&gt;Node10</title>
<path fill="none" stroke="midnightblue" d="M881.139,-226.337C897.744,-223.999 916.047,-221.421 933.261,-218.996"/>
<polygon fill="midnightblue" stroke="midnightblue" points="933.835,-222.45 943.249,-217.589 932.859,-215.518 933.835,-222.45"/>
</g>
<!-- Node15 -->
<g id="node15" class="node"><title>Node15</title>
<g id="a_node15"><a xlink:href="classRa_1_1Engine_1_1Renderer.html#ab793c712188ab407165f2e8a5f80ceb0" target="_top" xlink:title="initializeInternal Initialize the renderer dependant resources. ">
<polygon fill="white" stroke="black" points="944.5,-145.385 944.5,-175.385 1060.5,-175.385 1060.5,-145.385 944.5,-145.385"/>
<text text-anchor="start" x="952.5" y="-163.385" font-family="Helvetica,sans-Serif" font-size="10.00">Ra::Engine::Renderer</text>
<text text-anchor="middle" x="1002.5" y="-152.385" font-family="Helvetica,sans-Serif" font-size="10.00">::initializeInternal</text>
</a>
</g>
</g>
<!-- Node4&#45;&gt;Node15 -->
<g id="edge14" class="edge"><title>Node4&#45;&gt;Node15</title>
<path fill="none" stroke="midnightblue" d="M861.303,-219.268C867.973,-216.216 874.776,-212.868 881,-209.385 897.999,-199.873 899.391,-192.715 917,-184.385 922.609,-181.732 928.57,-179.316 934.628,-177.128"/>
<polygon fill="midnightblue" stroke="midnightblue" points="935.851,-180.409 944.194,-173.878 933.599,-173.781 935.851,-180.409"/>
</g>
<!-- Node16 -->
<g id="node16" class="node"><title>Node16</title>
<g id="a_node16"><a xlink:href="classRa_1_1Engine_1_1Renderer.html#a7343dbeb04c9699cc2abf2690c9941ee" target="_top" xlink:title="Resize the viewport and all the screen textures, fbos. ">
<polygon fill="white" stroke="black" points="944.5,-96.3851 944.5,-126.385 1060.5,-126.385 1060.5,-96.3851 944.5,-96.3851"/>
<text text-anchor="start" x="952.5" y="-114.385" font-family="Helvetica,sans-Serif" font-size="10.00">Ra::Engine::Renderer</text>
<text text-anchor="middle" x="1002.5" y="-103.385" font-family="Helvetica,sans-Serif" font-size="10.00">::resize</text>
</a>
</g>
</g>
<!-- Node4&#45;&gt;Node16 -->
<g id="edge15" class="edge"><title>Node4&#45;&gt;Node16</title>
<path fill="none" stroke="midnightblue" d="M867.472,-219.314C872.375,-216.494 877.027,-213.204 881,-209.385 907.367,-184.038 888.965,-158.873 917,-135.385 922.262,-130.976 928.287,-127.376 934.642,-124.436"/>
<polygon fill="midnightblue" stroke="midnightblue" points="936.19,-127.585 944.141,-120.584 933.559,-121.099 936.19,-127.585"/>
</g>
<!-- Node6 -->
<g id="node6" class="node"><title>Node6</title>
<g id="a_node6"><a xlink:href="classRa_1_1Engine_1_1ShaderProgramManager.html#afec9eb5d3df9d0d0ee97fc9404fcf0e5" target="_top" xlink:title="Get the system default program. ">
<polygon fill="white" stroke="black" points="1124,-341.385 1124,-371.385 1315,-371.385 1315,-341.385 1124,-341.385"/>
<text text-anchor="start" x="1132" y="-359.385" font-family="Helvetica,sans-Serif" font-size="10.00">Ra::Engine::ShaderProgram</text>
<text text-anchor="middle" x="1219.5" y="-348.385" font-family="Helvetica,sans-Serif" font-size="10.00">Manager::getDefaultShaderProgram</text>
</a>
</g>
</g>
<!-- Node5&#45;&gt;Node6 -->
<g id="edge5" class="edge"><title>Node5&#45;&gt;Node6</title>
<path fill="none" stroke="midnightblue" d="M1081.73,-356.385C1092.1,-356.385 1102.87,-356.385 1113.6,-356.385"/>
<polygon fill="midnightblue" stroke="midnightblue" points="1113.86,-359.885 1123.86,-356.385 1113.86,-352.885 1113.86,-359.885"/>
</g>
<!-- Node7 -->
<g id="node7" class="node"><title>Node7</title>
<g id="a_node7"><a xlink:href="namespaceRa_1_1Engine.html#a4d2c5e4a673763dfafc72cb74965b95f" target="_top" xlink:title="Ra::Engine::RA_SINGLETON\l_IMPLEMENTATION">
<polygon fill="white" stroke="black" points="1351,-341.385 1351,-371.385 1497,-371.385 1497,-341.385 1351,-341.385"/>
<text text-anchor="start" x="1359" y="-359.385" font-family="Helvetica,sans-Serif" font-size="10.00">Ra::Engine::RA_SINGLETON</text>
<text text-anchor="middle" x="1424" y="-348.385" font-family="Helvetica,sans-Serif" font-size="10.00">_IMPLEMENTATION</text>
</a>
</g>
</g>
<!-- Node6&#45;&gt;Node7 -->
<g id="edge6" class="edge"><title>Node6&#45;&gt;Node7</title>
<path fill="none" stroke="midnightblue" d="M1315.23,-356.385C1323.72,-356.385 1332.27,-356.385 1340.64,-356.385"/>
<polygon fill="midnightblue" stroke="midnightblue" points="1340.75,-359.885 1350.75,-356.385 1340.75,-352.885 1340.75,-359.885"/>
</g>
<!-- Node11 -->
<g id="node11" class="node"><title>Node11</title>
<g id="a_node11"><a xlink:href="namespaceRa_1_1Core_1_1Geometry.html#a406d3122ffb1118cbf53b1a19e54e31c" target="_top" xlink:title="Create a 2D grid mesh with given number of row and columns. ">
<polygon fill="white" stroke="black" points="1164,-194.385 1164,-224.385 1275,-224.385 1275,-194.385 1164,-194.385"/>
<text text-anchor="start" x="1172" y="-212.385" font-family="Helvetica,sans-Serif" font-size="10.00">Ra::Core::Geometry</text>
<text text-anchor="middle" x="1219.5" y="-201.385" font-family="Helvetica,sans-Serif" font-size="10.00">::makePlaneGrid</text>
</a>
</g>
</g>
<!-- Node10&#45;&gt;Node11 -->
<g id="edge10" class="edge"><title>Node10&#45;&gt;Node11</title>
<path fill="none" stroke="midnightblue" d="M1061.68,-209.385C1090.16,-209.385 1124.54,-209.385 1153.83,-209.385"/>
<polygon fill="midnightblue" stroke="midnightblue" points="1153.97,-212.885 1163.97,-209.385 1153.97,-205.885 1153.97,-212.885"/>
</g>
<!-- Node12 -->
<g id="node12" class="node"><title>Node12</title>
<g id="a_node12"><a xlink:href="classRa_1_1Core_1_1Geometry_1_1TriangleMesh.html#a6ef9dbd18c0501f2ffd1316be6be56ce" target="_top" xlink:title="Access the vertices positions. ">
<polygon fill="white" stroke="black" points="1360,-243.385 1360,-273.385 1488,-273.385 1488,-243.385 1360,-243.385"/>
<text text-anchor="start" x="1368" y="-261.385" font-family="Helvetica,sans-Serif" font-size="10.00">Ra::Core::Geometry</text>
<text text-anchor="middle" x="1424" y="-250.385" font-family="Helvetica,sans-Serif" font-size="10.00">::TriangleMesh::vertices</text>
</a>
</g>
</g>
<!-- Node11&#45;&gt;Node12 -->
<g id="edge11" class="edge"><title>Node11&#45;&gt;Node12</title>
<path fill="none" stroke="midnightblue" d="M1275.03,-222.581C1298.4,-228.236 1326.03,-234.921 1351.05,-240.974"/>
<polygon fill="midnightblue" stroke="midnightblue" points="1350.31,-244.397 1360.85,-243.347 1351.96,-237.593 1350.31,-244.397"/>
</g>
<!-- Node13 -->
<g id="node13" class="node"><title>Node13</title>
<g id="a_node13"><a xlink:href="classRa_1_1Core_1_1Geometry_1_1TriangleMesh.html#ad7d3f6272b902171740e50232ba56114" target="_top" xlink:title="Access the vertices normals. ">
<polygon fill="white" stroke="black" points="1359.5,-194.385 1359.5,-224.385 1488.5,-224.385 1488.5,-194.385 1359.5,-194.385"/>
<text text-anchor="start" x="1367.5" y="-212.385" font-family="Helvetica,sans-Serif" font-size="10.00">Ra::Core::Geometry</text>
<text text-anchor="middle" x="1424" y="-201.385" font-family="Helvetica,sans-Serif" font-size="10.00">::TriangleMesh::normals</text>
</a>
</g>
</g>
<!-- Node11&#45;&gt;Node13 -->
<g id="edge12" class="edge"><title>Node11&#45;&gt;Node13</title>
<path fill="none" stroke="midnightblue" d="M1275.03,-209.385C1297.89,-209.385 1324.81,-209.385 1349.39,-209.385"/>
<polygon fill="midnightblue" stroke="midnightblue" points="1349.39,-212.885 1359.39,-209.385 1349.39,-205.885 1349.39,-212.885"/>
</g>
<!-- Node14 -->
<g id="node14" class="node"><title>Node14</title>
<g id="a_node14"><a xlink:href="classRa_1_1Core_1_1Grid.html#ae9c02e6ec89130899fd0645dbfa4ece7" target="_top" xlink:title="Access an element with a D&#45;dimensional index. ">
<polygon fill="white" stroke="black" points="1375,-155.885 1375,-174.885 1473,-174.885 1473,-155.885 1375,-155.885"/>
<text text-anchor="middle" x="1424" y="-162.885" font-family="Helvetica,sans-Serif" font-size="10.00">Ra::Core::Grid::at</text>
</a>
</g>
</g>
<!-- Node11&#45;&gt;Node14 -->
<g id="edge13" class="edge"><title>Node11&#45;&gt;Node14</title>
<path fill="none" stroke="midnightblue" d="M1275.03,-197.536C1304.27,-191.184 1340.16,-183.385 1369.27,-177.059"/>
<polygon fill="midnightblue" stroke="midnightblue" points="1370.24,-180.431 1379.27,-174.888 1368.75,-173.591 1370.24,-180.431"/>
</g>
<!-- Node17 -->
<g id="node17" class="node"><title>Node17</title>
<g id="a_node17"><a xlink:href="classRa_1_1Engine_1_1Renderer.html#a18a293f1c7c6864e4f1de7f6b88b0f4a" target="_top" xlink:title="resize the renderer dependent resources ">
<polygon fill="white" stroke="black" points="1161.5,-96.3851 1161.5,-126.385 1277.5,-126.385 1277.5,-96.3851 1161.5,-96.3851"/>
<text text-anchor="start" x="1169.5" y="-114.385" font-family="Helvetica,sans-Serif" font-size="10.00">Ra::Engine::Renderer</text>
<text text-anchor="middle" x="1219.5" y="-103.385" font-family="Helvetica,sans-Serif" font-size="10.00">::resizeInternal</text>
</a>
</g>
</g>
<!-- Node16&#45;&gt;Node17 -->
<g id="edge16" class="edge"><title>Node16&#45;&gt;Node17</title>
<path fill="none" stroke="midnightblue" d="M1060.55,-111.385C1088.37,-111.385 1122.02,-111.385 1151.1,-111.385"/>
<polygon fill="midnightblue" stroke="midnightblue" points="1151.18,-114.885 1161.18,-111.385 1151.18,-107.885 1151.18,-114.885"/>
</g>
<!-- Node19&#45;&gt;Node3 -->
<g id="edge19" class="edge"><title>Node19&#45;&gt;Node3</title>
<path fill="none" stroke="midnightblue" d="M494.083,-156.925C516.378,-161.215 543.162,-166.368 567.775,-171.104"/>
<polygon fill="midnightblue" stroke="midnightblue" points="567.327,-174.582 577.808,-173.034 568.65,-167.708 567.327,-174.582"/>
</g>
<!-- Node20&#45;&gt;Node16 -->
<g id="edge22" class="edge"><title>Node20&#45;&gt;Node16</title>
<path fill="none" stroke="midnightblue" d="M729.198,-118.901C741.205,-119.93 753.404,-120.811 765,-121.385 816.493,-123.932 829.489,-123.519 881,-121.385 898.27,-120.67 916.897,-119.38 934.22,-117.959"/>
<polygon fill="midnightblue" stroke="midnightblue" points="934.58,-121.442 944.25,-117.111 933.99,-114.467 934.58,-121.442"/>
</g>
<!-- Node20&#45;&gt;Node18 -->
<g id="edge21" class="edge"><title>Node20&#45;&gt;Node18</title>
<path fill="none" stroke="midnightblue" d="M666.544,-119.011C694.249,-130.84 741.916,-151.192 777.182,-166.249"/>
<polygon fill="midnightblue" stroke="midnightblue" points="776.202,-169.637 786.773,-170.344 778.951,-163.199 776.202,-169.637"/>
</g>
<!-- Node21 -->
<g id="node21" class="node"><title>Node21</title>
<g id="a_node21"><a xlink:href="classRa_1_1Engine_1_1Renderer.html#aa1773ee0f741df643e10d21d968fbcc3" target="_top" xlink:title="Unlock the rendering. ">
<polygon fill="white" stroke="black" points="765,-82.3851 765,-112.385 881,-112.385 881,-82.3851 765,-82.3851"/>
<text text-anchor="start" x="773" y="-100.385" font-family="Helvetica,sans-Serif" font-size="10.00">Ra::Engine::Renderer</text>
<text text-anchor="middle" x="823" y="-89.3851" font-family="Helvetica,sans-Serif" font-size="10.00">::unlockRendering</text>
</a>
</g>
</g>
<!-- Node20&#45;&gt;Node21 -->
<g id="edge23" class="edge"><title>Node20&#45;&gt;Node21</title>
<path fill="none" stroke="midnightblue" d="M729.09,-103.649C737.732,-103.066 746.424,-102.48 754.838,-101.913"/>
<polygon fill="midnightblue" stroke="midnightblue" points="755.199,-105.397 764.941,-101.232 754.729,-98.4124 755.199,-105.397"/>
</g>
<!-- Node22 -->
<g id="node22" class="node"><title>Node22</title>
<g id="a_node22"><a xlink:href="classRa_1_1Engine_1_1Renderer.html#a56fec7b4244e68e76d80ce48cacb61eb" target="_top" xlink:title="Get the name of the renderer, e.g to be displayed in the UI. ">
<polygon fill="white" stroke="black" points="765,-33.3851 765,-63.3851 881,-63.3851 881,-33.3851 765,-33.3851"/>
<text text-anchor="start" x="773" y="-51.3851" font-family="Helvetica,sans-Serif" font-size="10.00">Ra::Engine::Renderer</text>
<text text-anchor="middle" x="823" y="-40.3851" font-family="Helvetica,sans-Serif" font-size="10.00">::getRendererName</text>
</a>
</g>
</g>
<!-- Node20&#45;&gt;Node22 -->
<g id="edge24" class="edge"><title>Node20&#45;&gt;Node22</title>
<path fill="none" stroke="midnightblue" d="M671.812,-99.8539C697.598,-91.0171 736.666,-77.6287 768.492,-66.722"/>
<polygon fill="midnightblue" stroke="midnightblue" points="769.789,-69.9776 778.114,-63.4246 767.52,-63.3556 769.789,-69.9776"/>
</g>
<!-- Node23&#45;&gt;Node16 -->
<g id="edge26" class="edge"><title>Node23&#45;&gt;Node16</title>
<path fill="none" stroke="midnightblue" d="M481.323,-28.8411C557.98,-10.7394 739.351,22.8313 881,-23.3851 920.433,-36.2512 957.679,-67.4495 980.047,-89.0141"/>
<polygon fill="midnightblue" stroke="midnightblue" points="977.743,-91.6577 987.318,-96.1941 982.662,-86.6771 977.743,-91.6577"/>
</g>
</g>
</svg>
