<?xml version="1.0" encoding="UTF-8" standalone="no"?>
<!DOCTYPE svg PUBLIC "-//W3C//DTD SVG 1.1//EN"
 "http://www.w3.org/Graphics/SVG/1.1/DTD/svg11.dtd">
<!-- Generated by graphviz version 2.38.0 (20140413.2041)
 -->
<!-- Title: Ra::Core::Tex::fetch Pages: 1 -->
<svg width="433pt" height="176pt"
 viewBox="0.00 0.00 433.00 175.50" xmlns="http://www.w3.org/2000/svg" xmlns:xlink="http://www.w3.org/1999/xlink">
<g id="graph0" class="graph" transform="scale(1 1) rotate(0) translate(4 171.5)">
<title>Ra::Core::Tex::fetch</title>
<polygon fill="white" stroke="none" points="-4,4 -4,-171.5 429,-171.5 429,4 -4,4"/>
<!-- Node1 -->
<g id="node1" class="node"><title>Node1</title>
<polygon fill="#bfbfbf" stroke="black" points="0,-79 0,-98 108,-98 108,-79 0,-79"/>
<text text-anchor="middle" x="54" y="-86" font-family="Helvetica,sans-Serif" font-size="10.00">Ra::Core::Tex::fetch</text>
</g>
<!-- Node2 -->
<g id="node2" class="node"><title>Node2</title>
<g id="a_node2"><a xlink:href="namespaceRa_1_1Core_1_1Vector.html#a9ee859e471c539559bec21b69ca4da7b" target="_top" xlink:title="Component&#45;wise trunc() function on a floating&#45;point vector. ">
<polygon fill="white" stroke="black" points="144,-148 144,-167 269,-167 269,-148 144,-148"/>
<text text-anchor="middle" x="206.5" y="-155" font-family="Helvetica,sans-Serif" font-size="10.00">Ra::Core::Vector::trunc</text>
</a>
</g>
</g>
<!-- Node1&#45;&gt;Node2 -->
<g id="edge1" class="edge"><title>Node1&#45;&gt;Node2</title>
<path fill="none" stroke="midnightblue" d="M69.9311,-98.1919C87.2175,-109.1 116.806,-126.818 144,-138.5 149.134,-140.705 154.608,-142.774 160.095,-144.675"/>
<polygon fill="midnightblue" stroke="midnightblue" points="159.318,-148.105 169.911,-147.91 161.509,-141.456 159.318,-148.105"/>
</g>
<!-- Node3 -->
<g id="node3" class="node"><title>Node3</title>
<g id="a_node3"><a xlink:href="classRa_1_1Core_1_1Grid.html#a3413612b42d3ab6981527c291ff631a0" target="_top" xlink:title="Returns the size vector (a D&#45;dimensional vector with the size along each dimension). ">
<polygon fill="white" stroke="black" points="155.5,-98.5 155.5,-128.5 257.5,-128.5 257.5,-98.5 155.5,-98.5"/>
<text text-anchor="start" x="163.5" y="-116.5" font-family="Helvetica,sans-Serif" font-size="10.00">Ra::Core::Grid&lt; T,</text>
<text text-anchor="middle" x="206.5" y="-105.5" font-family="Helvetica,sans-Serif" font-size="10.00"> N &gt;::sizeVector</text>
</a>
</g>
</g>
<!-- Node1&#45;&gt;Node3 -->
<g id="edge2" class="edge"><title>Node1&#45;&gt;Node3</title>
<path fill="none" stroke="midnightblue" d="M108.061,-97.3141C120.094,-99.3129 132.958,-101.45 145.264,-103.494"/>
<polygon fill="midnightblue" stroke="midnightblue" points="145.001,-106.998 155.44,-105.184 146.148,-100.093 145.001,-106.998"/>
</g>
<!-- Node4 -->
<g id="node4" class="node"><title>Node4</title>
<g id="a_node4"><a xlink:href="classRa_1_1Core_1_1Grid.html#a45bf1d4630b08f632693d4d0af485e11" target="_top" xlink:title="Returns the number of elements stored. ">
<polygon fill="white" stroke="black" points="155.5,-49.5 155.5,-79.5 257.5,-79.5 257.5,-49.5 155.5,-49.5"/>
<text text-anchor="start" x="163.5" y="-67.5" font-family="Helvetica,sans-Serif" font-size="10.00">Ra::Core::Grid&lt; T,</text>
<text text-anchor="middle" x="206.5" y="-56.5" font-family="Helvetica,sans-Serif" font-size="10.00"> N &gt;::size</text>
</a>
</g>
</g>
<!-- Node1&#45;&gt;Node4 -->
<g id="edge3" class="edge"><title>Node1&#45;&gt;Node4</title>
<path fill="none" stroke="midnightblue" d="M108.061,-80.0385C120.094,-78.1196 132.958,-76.0681 145.264,-74.1057"/>
<polygon fill="midnightblue" stroke="midnightblue" points="146.116,-77.5143 155.44,-72.4831 145.013,-70.6016 146.116,-77.5143"/>
</g>
<!-- Node5 -->
<g id="node5" class="node"><title>Node5</title>
<g id="a_node5"><a xlink:href="namespaceRa_1_1Core_1_1Animation.html#a6951de94ba127cd79685e704d658808b" target="_top" xlink:title="Ra::Core::Animation\l::interpolate">
<polygon fill="white" stroke="black" points="150.5,-0.5 150.5,-30.5 262.5,-30.5 262.5,-0.5 150.5,-0.5"/>
<text text-anchor="start" x="158.5" y="-18.5" font-family="Helvetica,sans-Serif" font-size="10.00">Ra::Core::Animation</text>
<text text-anchor="middle" x="206.5" y="-7.5" font-family="Helvetica,sans-Serif" font-size="10.00">::interpolate</text>
</a>
</g>
</g>
<!-- Node1&#45;&gt;Node5 -->
<g id="edge4" class="edge"><title>Node1&#45;&gt;Node5</title>
<path fill="none" stroke="midnightblue" d="M71.4544,-78.9277C89.1111,-68.822 118.115,-52.6976 144,-40.5 148.271,-38.4872 152.751,-36.4784 157.262,-34.5239"/>
<polygon fill="midnightblue" stroke="midnightblue" points="158.669,-37.7289 166.511,-30.6041 155.938,-31.2838 158.669,-37.7289"/>
</g>
<!-- Node6 -->
<g id="node6" class="node"><title>Node6</title>
<g id="a_node6"><a xlink:href="namespaceRa_1_1Core_1_1Geometry.html#aa04e6052d8911b1df1bd881474debb45" target="_top" xlink:title="Ra::Core::Geometry::t">
<polygon fill="white" stroke="black" points="305,-6 305,-25 425,-25 425,-6 305,-6"/>
<text text-anchor="middle" x="365" y="-13" font-family="Helvetica,sans-Serif" font-size="10.00">Ra::Core::Geometry::t</text>
</a>
</g>
</g>
<!-- Node5&#45;&gt;Node6 -->
<g id="edge5" class="edge"><title>Node5&#45;&gt;Node6</title>
<path fill="none" stroke="midnightblue" d="M262.676,-15.5C273.013,-15.5 283.94,-15.5 294.642,-15.5"/>
<polygon fill="midnightblue" stroke="midnightblue" points="294.807,-19.0001 304.807,-15.5 294.807,-12.0001 294.807,-19.0001"/>
</g>
</g>
</svg>
