<?xml version="1.0" encoding="UTF-8" standalone="no"?>
<!DOCTYPE svg PUBLIC "-//W3C//DTD SVG 1.1//EN"
 "http://www.w3.org/Graphics/SVG/1.1/DTD/svg11.dtd">
<!-- Generated by graphviz version 2.38.0 (20140413.2041)
 -->
<!-- Title: SkinningPlugin::SkinningComponent::setSkinningType Pages: 1 -->
<svg width="1123pt" height="318pt"
 viewBox="0.00 0.00 1123.00 318.00" xmlns="http://www.w3.org/2000/svg" xmlns:xlink="http://www.w3.org/1999/xlink">
<g id="graph0" class="graph" transform="scale(1 1) rotate(0) translate(4 314)">
<title>SkinningPlugin::SkinningComponent::setSkinningType</title>
<polygon fill="white" stroke="none" points="-4,4 -4,-314 1119,-314 1119,4 -4,4"/>
<!-- Node1 -->
<g id="node1" class="node"><title>Node1</title>
<polygon fill="#bfbfbf" stroke="black" points="0,-125.5 0,-155.5 155,-155.5 155,-125.5 0,-125.5"/>
<text text-anchor="start" x="8" y="-143.5" font-family="Helvetica,sans-Serif" font-size="10.00">SkinningPlugin::Skinning</text>
<text text-anchor="middle" x="77.5" y="-132.5" font-family="Helvetica,sans-Serif" font-size="10.00">Component::setSkinningType</text>
</g>
<!-- Node2 -->
<g id="node2" class="node"><title>Node2</title>
<g id="a_node2"><a xlink:href="classSkinningPlugin_1_1SkinningComponent.html#a0ba759710b12a03a59faca912566d328" target="_top" xlink:title="Computes internal data related to the Skinning method. ">
<polygon fill="white" stroke="black" points="191,-125.5 191,-155.5 358,-155.5 358,-125.5 191,-125.5"/>
<text text-anchor="start" x="199" y="-143.5" font-family="Helvetica,sans-Serif" font-size="10.00">SkinningPlugin::Skinning</text>
<text text-anchor="middle" x="274.5" y="-132.5" font-family="Helvetica,sans-Serif" font-size="10.00">Component::setupSkinningType</text>
</a>
</g>
</g>
<!-- Node1&#45;&gt;Node2 -->
<g id="edge1" class="edge"><title>Node1&#45;&gt;Node2</title>
<path fill="none" stroke="midnightblue" d="M155.009,-140.5C163.445,-140.5 172.102,-140.5 180.709,-140.5"/>
<polygon fill="midnightblue" stroke="midnightblue" points="180.774,-144 190.774,-140.5 180.774,-137 180.774,-144"/>
</g>
<!-- Node3 -->
<g id="node3" class="node"><title>Node3</title>
<g id="a_node3"><a xlink:href="namespaceRa_1_1Core_1_1Animation.html#a40700cdabdd47fdb360f6bbfe692b36d" target="_top" xlink:title="Compute the optimal center of rotations (1 per vertex) based on weight similarity. ">
<polygon fill="white" stroke="black" points="394,-125.5 394,-155.5 506,-155.5 506,-125.5 394,-125.5"/>
<text text-anchor="start" x="402" y="-143.5" font-family="Helvetica,sans-Serif" font-size="10.00">Ra::Core::Animation</text>
<text text-anchor="middle" x="450" y="-132.5" font-family="Helvetica,sans-Serif" font-size="10.00">::computeCoR</text>
</a>
</g>
</g>
<!-- Node2&#45;&gt;Node3 -->
<g id="edge2" class="edge"><title>Node2&#45;&gt;Node3</title>
<path fill="none" stroke="midnightblue" d="M358.185,-140.5C366.748,-140.5 375.364,-140.5 383.698,-140.5"/>
<polygon fill="midnightblue" stroke="midnightblue" points="383.701,-144 393.701,-140.5 383.701,-137 383.701,-144"/>
</g>
<!-- Node4 -->
<g id="node4" class="node"><title>Node4</title>
<g id="a_node4"><a xlink:href="classRa_1_1Core_1_1Geometry_1_1TriangleMesh.html#a5a66222eccdfa045fb880cf0d92e9d11" target="_top" xlink:title="Copy only the mesh faces and geometry. ">
<polygon fill="white" stroke="black" points="542,-255.5 542,-285.5 727,-285.5 727,-255.5 542,-255.5"/>
<text text-anchor="start" x="550" y="-273.5" font-family="Helvetica,sans-Serif" font-size="10.00">Ra::Core::Geometry</text>
<text text-anchor="middle" x="634.5" y="-262.5" font-family="Helvetica,sans-Serif" font-size="10.00">::TriangleMesh::copyBaseGeometry</text>
</a>
</g>
</g>
<!-- Node3&#45;&gt;Node4 -->
<g id="edge3" class="edge"><title>Node3&#45;&gt;Node4</title>
<path fill="none" stroke="midnightblue" d="M459.799,-155.7C474.038,-178.91 504.37,-222.963 542,-246.5 544.63,-248.145 547.37,-249.678 550.19,-251.107"/>
<polygon fill="midnightblue" stroke="midnightblue" points="548.878,-254.355 559.429,-255.323 551.784,-247.987 548.878,-254.355"/>
</g>
<!-- Node8 -->
<g id="node8" class="node"><title>Node8</title>
<g id="a_node8"><a xlink:href="classRa_1_1Core_1_1Geometry_1_1TriangleMesh.html#a6ef9dbd18c0501f2ffd1316be6be56ce" target="_top" xlink:title="Access the vertices positions. ">
<polygon fill="white" stroke="black" points="570.5,-206.5 570.5,-236.5 698.5,-236.5 698.5,-206.5 570.5,-206.5"/>
<text text-anchor="start" x="578.5" y="-224.5" font-family="Helvetica,sans-Serif" font-size="10.00">Ra::Core::Geometry</text>
<text text-anchor="middle" x="634.5" y="-213.5" font-family="Helvetica,sans-Serif" font-size="10.00">::TriangleMesh::vertices</text>
</a>
</g>
</g>
<!-- Node3&#45;&gt;Node8 -->
<g id="edge7" class="edge"><title>Node3&#45;&gt;Node8</title>
<path fill="none" stroke="midnightblue" d="M470.975,-155.511C488.786,-168.269 515.991,-186.256 542,-197.5 547.837,-200.023 554.001,-202.332 560.26,-204.434"/>
<polygon fill="midnightblue" stroke="midnightblue" points="559.55,-207.881 570.14,-207.567 561.666,-201.208 559.55,-207.881"/>
</g>
<!-- Node9 -->
<g id="node9" class="node"><title>Node9</title>
<g id="a_node9"><a xlink:href="classRa_1_1Core_1_1Geometry_1_1TopologicalMesh.html#a1c87413e2fca885e3317008c3b122847" target="_top" xlink:title="Return the half&#45;edge associated with a given vertex and face. ">
<polygon fill="white" stroke="black" points="561,-147 561,-188 708,-188 708,-147 561,-147"/>
<text text-anchor="start" x="569" y="-176" font-family="Helvetica,sans-Serif" font-size="10.00">Ra::Core::Geometry</text>
<text text-anchor="start" x="569" y="-165" font-family="Helvetica,sans-Serif" font-size="10.00">::TopologicalMesh::halfedge</text>
<text text-anchor="middle" x="634.5" y="-154" font-family="Helvetica,sans-Serif" font-size="10.00">_handle</text>
</a>
</g>
</g>
<!-- Node3&#45;&gt;Node9 -->
<g id="edge8" class="edge"><title>Node3&#45;&gt;Node9</title>
<path fill="none" stroke="midnightblue" d="M506.251,-148.674C520.365,-150.762 535.847,-153.053 551.004,-155.295"/>
<polygon fill="midnightblue" stroke="midnightblue" points="550.495,-158.758 560.9,-156.759 551.52,-151.833 550.495,-158.758"/>
</g>
<!-- Node10 -->
<g id="node10" class="node"><title>Node10</title>
<g id="a_node10"><a xlink:href="classRa_1_1Core_1_1Geometry_1_1TopologicalMesh.html#a5be06e9a973e79d487dad3e570fb5928" target="_top" xlink:title="Apply a 2&#45;4 edge split. ">
<polygon fill="white" stroke="black" points="560,-98.5 560,-128.5 709,-128.5 709,-98.5 560,-98.5"/>
<text text-anchor="start" x="568" y="-116.5" font-family="Helvetica,sans-Serif" font-size="10.00">Ra::Core::Geometry</text>
<text text-anchor="middle" x="634.5" y="-105.5" font-family="Helvetica,sans-Serif" font-size="10.00">::TopologicalMesh::splitEdge</text>
</a>
</g>
</g>
<!-- Node3&#45;&gt;Node10 -->
<g id="edge9" class="edge"><title>Node3&#45;&gt;Node10</title>
<path fill="none" stroke="midnightblue" d="M506.251,-132.326C519.975,-130.295 534.992,-128.074 549.747,-125.891"/>
<polygon fill="midnightblue" stroke="midnightblue" points="550.52,-129.315 559.9,-124.389 549.495,-122.39 550.52,-129.315"/>
</g>
<!-- Node12 -->
<g id="node12" class="node"><title>Node12</title>
<g id="a_node12"><a xlink:href="namespaceRa_1_1Core_1_1Geometry.html#a178f2b7309fe2ea5bc31a3abcb25368e" target="_top" xlink:title="Ra::Core::Geometry\l::triangleArea">
<polygon fill="white" stroke="black" points="579,-49.5 579,-79.5 690,-79.5 690,-49.5 579,-49.5"/>
<text text-anchor="start" x="587" y="-67.5" font-family="Helvetica,sans-Serif" font-size="10.00">Ra::Core::Geometry</text>
<text text-anchor="middle" x="634.5" y="-56.5" font-family="Helvetica,sans-Serif" font-size="10.00">::triangleArea</text>
</a>
</g>
</g>
<!-- Node3&#45;&gt;Node12 -->
<g id="edge11" class="edge"><title>Node3&#45;&gt;Node12</title>
<path fill="none" stroke="midnightblue" d="M474.156,-125.433C492.091,-114.286 517.867,-99.3853 542,-89.5 550.505,-86.0161 559.651,-82.8631 568.754,-80.0622"/>
<polygon fill="midnightblue" stroke="midnightblue" points="569.981,-83.3492 578.582,-77.1621 568,-76.6354 569.981,-83.3492"/>
</g>
<!-- Node15 -->
<g id="node15" class="node"><title>Node15</title>
<g id="a_node15"><a xlink:href="namespaceRa_1_1Core_1_1Animation.html#a71236244c5603a8a5bc63595db9b7717" target="_top" xlink:title="Computes the similarity between two weights vector. ">
<polygon fill="white" stroke="black" points="578.5,-0.5 578.5,-30.5 690.5,-30.5 690.5,-0.5 578.5,-0.5"/>
<text text-anchor="start" x="586.5" y="-18.5" font-family="Helvetica,sans-Serif" font-size="10.00">Ra::Core::Animation</text>
<text text-anchor="middle" x="634.5" y="-7.5" font-family="Helvetica,sans-Serif" font-size="10.00">::weightSimilarity</text>
</a>
</g>
</g>
<!-- Node3&#45;&gt;Node15 -->
<g id="edge14" class="edge"><title>Node3&#45;&gt;Node15</title>
<path fill="none" stroke="midnightblue" d="M460.526,-125.494C475.281,-103.493 505.77,-62.6929 542,-40.5 550.129,-35.5204 559.261,-31.5144 568.526,-28.2965"/>
<polygon fill="midnightblue" stroke="midnightblue" points="569.725,-31.5879 578.193,-25.2205 567.603,-24.9175 569.725,-31.5879"/>
</g>
<!-- Node5 -->
<g id="node5" class="node"><title>Node5</title>
<g id="a_node5"><a xlink:href="classRa_1_1Core_1_1Geometry_1_1TriangleMesh.html#a824b54329930c6a95050c3f6d624d0e7" target="_top" xlink:title="Erases all data, making the mesh empty. ">
<polygon fill="white" stroke="black" points="785.5,-279.5 785.5,-309.5 898.5,-309.5 898.5,-279.5 785.5,-279.5"/>
<text text-anchor="start" x="793.5" y="-297.5" font-family="Helvetica,sans-Serif" font-size="10.00">Ra::Core::Geometry</text>
<text text-anchor="middle" x="842" y="-286.5" font-family="Helvetica,sans-Serif" font-size="10.00">::TriangleMesh::clear</text>
</a>
</g>
</g>
<!-- Node4&#45;&gt;Node5 -->
<g id="edge4" class="edge"><title>Node4&#45;&gt;Node5</title>
<path fill="none" stroke="midnightblue" d="M727.131,-281.201C743.22,-283.08 759.676,-285.002 774.897,-286.78"/>
<polygon fill="midnightblue" stroke="midnightblue" points="774.879,-290.302 785.218,-287.985 775.691,-283.349 774.879,-290.302"/>
</g>
<!-- Node7 -->
<g id="node7" class="node"><title>Node7</title>
<g id="a_node7"><a xlink:href="classRa_1_1Core_1_1Utils_1_1AttribManager.html#ac6bb36601ef78ccc0997134b5a2df7f0" target="_top" xlink:title="Base copy, does nothing. ">
<polygon fill="white" stroke="black" points="763,-230.5 763,-260.5 921,-260.5 921,-230.5 763,-230.5"/>
<text text-anchor="start" x="771" y="-248.5" font-family="Helvetica,sans-Serif" font-size="10.00">Ra::Core::Utils::AttribManager</text>
<text text-anchor="middle" x="842" y="-237.5" font-family="Helvetica,sans-Serif" font-size="10.00">::copyAttributes</text>
</a>
</g>
</g>
<!-- Node4&#45;&gt;Node7 -->
<g id="edge6" class="edge"><title>Node4&#45;&gt;Node7</title>
<path fill="none" stroke="midnightblue" d="M727.131,-259.353C735.578,-258.325 744.125,-257.285 752.543,-256.261"/>
<polygon fill="midnightblue" stroke="midnightblue" points="753.225,-259.704 762.729,-255.022 752.38,-252.755 753.225,-259.704"/>
</g>
<!-- Node6 -->
<g id="node6" class="node"><title>Node6</title>
<g id="a_node6"><a xlink:href="classRa_1_1Core_1_1Utils_1_1AttribManager.html#ae99bb77d3d29e9d99b4bcc257919ecda" target="_top" xlink:title="clear all attribs, invalidate handles. ">
<polygon fill="white" stroke="black" points="957,-279.5 957,-309.5 1115,-309.5 1115,-279.5 957,-279.5"/>
<text text-anchor="start" x="965" y="-297.5" font-family="Helvetica,sans-Serif" font-size="10.00">Ra::Core::Utils::AttribManager</text>
<text text-anchor="middle" x="1036" y="-286.5" font-family="Helvetica,sans-Serif" font-size="10.00">::clear</text>
</a>
</g>
</g>
<!-- Node5&#45;&gt;Node6 -->
<g id="edge5" class="edge"><title>Node5&#45;&gt;Node6</title>
<path fill="none" stroke="midnightblue" d="M898.534,-294.5C913.576,-294.5 930.24,-294.5 946.607,-294.5"/>
<polygon fill="midnightblue" stroke="midnightblue" points="946.742,-298 956.742,-294.5 946.742,-291 946.742,-298"/>
</g>
<!-- Node11 -->
<g id="node11" class="node"><title>Node11</title>
<g id="a_node11"><a xlink:href="namespaceRa_1_1Engine_1_1DrawPrimitives.html#a9d33f8734278ef9ca7d7725caeec2e36" target="_top" xlink:title="Displays given point shown as the crossing of 3 lines of length &#39;scale&#39;. ">
<polygon fill="white" stroke="black" points="770.5,-98.5 770.5,-128.5 913.5,-128.5 913.5,-98.5 770.5,-98.5"/>
<text text-anchor="start" x="778.5" y="-116.5" font-family="Helvetica,sans-Serif" font-size="10.00">Ra::Engine::DrawPrimitives</text>
<text text-anchor="middle" x="842" y="-105.5" font-family="Helvetica,sans-Serif" font-size="10.00">::Point</text>
</a>
</g>
</g>
<!-- Node10&#45;&gt;Node11 -->
<g id="edge10" class="edge"><title>Node10&#45;&gt;Node11</title>
<path fill="none" stroke="midnightblue" d="M709.11,-113.5C725.609,-113.5 743.202,-113.5 759.984,-113.5"/>
<polygon fill="midnightblue" stroke="midnightblue" points="760.311,-117 770.311,-113.5 760.311,-110 760.311,-117"/>
</g>
<!-- Node13 -->
<g id="node13" class="node"><title>Node13</title>
<g id="a_node13"><a xlink:href="namespaceOpenMesh.html#a71e7f1dd3eac016d2b8245ac408a291c" target="_top" xlink:title="OpenMesh::cross">
<polygon fill="white" stroke="black" points="792.5,-57 792.5,-76 891.5,-76 891.5,-57 792.5,-57"/>
<text text-anchor="middle" x="842" y="-64" font-family="Helvetica,sans-Serif" font-size="10.00">OpenMesh::cross</text>
</a>
</g>
</g>
<!-- Node12&#45;&gt;Node13 -->
<g id="edge12" class="edge"><title>Node12&#45;&gt;Node13</title>
<path fill="none" stroke="midnightblue" d="M690.031,-65.0307C718.306,-65.3059 752.883,-65.6424 781.808,-65.9239"/>
<polygon fill="midnightblue" stroke="midnightblue" points="782.153,-69.4273 792.186,-66.0249 782.221,-62.4277 782.153,-69.4273"/>
</g>
<!-- Node14 -->
<g id="node14" class="node"><title>Node14</title>
<g id="a_node14"><a xlink:href="namespaceOpenMesh.html#a8205f789ce08919bc11c58383574596c" target="_top" xlink:title="OpenMesh::norm">
<polygon fill="white" stroke="black" points="792.5,-19 792.5,-38 891.5,-38 891.5,-19 792.5,-19"/>
<text text-anchor="middle" x="842" y="-26" font-family="Helvetica,sans-Serif" font-size="10.00">OpenMesh::norm</text>
</a>
</g>
</g>
<!-- Node12&#45;&gt;Node14 -->
<g id="edge13" class="edge"><title>Node12&#45;&gt;Node14</title>
<path fill="none" stroke="midnightblue" d="M690.031,-54.9472C718.43,-49.972 753.186,-43.8834 782.188,-38.8028"/>
<polygon fill="midnightblue" stroke="midnightblue" points="782.94,-42.2244 792.186,-37.0513 781.732,-35.3294 782.94,-42.2244"/>
</g>
</g>
</svg>
