<?xml version="1.0" encoding="UTF-8" standalone="no"?>
<!DOCTYPE svg PUBLIC "-//W3C//DTD SVG 1.1//EN"
 "http://www.w3.org/Graphics/SVG/1.1/DTD/svg11.dtd">
<!-- Generated by graphviz version 2.38.0 (20140413.2041)
 -->
<!-- Title: DummyPlugin::DummySystem::generateTasks Pages: 1 -->
<svg width="553pt" height="186pt"
 viewBox="0.00 0.00 553.00 186.00" xmlns="http://www.w3.org/2000/svg" xmlns:xlink="http://www.w3.org/1999/xlink">
<g id="graph0" class="graph" transform="scale(1 1) rotate(0) translate(4 182)">
<title>DummyPlugin::DummySystem::generateTasks</title>
<polygon fill="white" stroke="none" points="-4,4 -4,-182 549,-182 549,4 -4,4"/>
<!-- Node1 -->
<g id="node1" class="node"><title>Node1</title>
<polygon fill="#bfbfbf" stroke="black" points="0,-73.5 0,-103.5 164,-103.5 164,-73.5 0,-73.5"/>
<text text-anchor="start" x="8" y="-91.5" font-family="Helvetica,sans-Serif" font-size="10.00">DummyPlugin::DummySystem</text>
<text text-anchor="middle" x="82" y="-80.5" font-family="Helvetica,sans-Serif" font-size="10.00">::generateTasks</text>
</g>
<!-- Node2 -->
<g id="node2" class="node"><title>Node2</title>
<g id="a_node2"><a xlink:href="classDummyPlugin_1_1DummyTask.html#a4f533b1b620145c6b3d12063cf4c89bb" target="_top" xlink:title="DummyPlugin::DummyTask\l::init">
<polygon fill="white" stroke="black" points="213.5,-147.5 213.5,-177.5 361.5,-177.5 361.5,-147.5 213.5,-147.5"/>
<text text-anchor="start" x="221.5" y="-165.5" font-family="Helvetica,sans-Serif" font-size="10.00">DummyPlugin::DummyTask</text>
<text text-anchor="middle" x="287.5" y="-154.5" font-family="Helvetica,sans-Serif" font-size="10.00">::init</text>
</a>
</g>
</g>
<!-- Node1&#45;&gt;Node2 -->
<g id="edge1" class="edge"><title>Node1&#45;&gt;Node2</title>
<path fill="none" stroke="midnightblue" d="M115.322,-103.691C138.561,-114.273 170.817,-128.267 200,-138.5 205.887,-140.564 212.048,-142.57 218.254,-144.485"/>
<polygon fill="midnightblue" stroke="midnightblue" points="217.425,-147.89 228.009,-147.414 219.438,-141.186 217.425,-147.89"/>
</g>
<!-- Node3 -->
<g id="node3" class="node"><title>Node3</title>
<g id="a_node3"><a xlink:href="classDummyPlugin_1_1DummyOtherTask.html#a528fcb58a2a00d1430a3f94e563838d2" target="_top" xlink:title="DummyPlugin::DummyOtherTask\l::init">
<polygon fill="white" stroke="black" points="200,-98.5 200,-128.5 375,-128.5 375,-98.5 200,-98.5"/>
<text text-anchor="start" x="208" y="-116.5" font-family="Helvetica,sans-Serif" font-size="10.00">DummyPlugin::DummyOtherTask</text>
<text text-anchor="middle" x="287.5" y="-105.5" font-family="Helvetica,sans-Serif" font-size="10.00">::init</text>
</a>
</g>
</g>
<!-- Node1&#45;&gt;Node3 -->
<g id="edge2" class="edge"><title>Node1&#45;&gt;Node3</title>
<path fill="none" stroke="midnightblue" d="M164.013,-98.4525C172.458,-99.4899 181.101,-100.552 189.698,-101.608"/>
<polygon fill="midnightblue" stroke="midnightblue" points="189.401,-105.098 199.753,-102.843 190.254,-98.1498 189.401,-105.098"/>
</g>
<!-- Node4 -->
<g id="node4" class="node"><title>Node4</title>
<g id="a_node4"><a xlink:href="classRa_1_1Core_1_1TaskQueue.html#a9dfa226458ca9f60b19d54277583977a" target="_top" xlink:title="Registers a task to be executed. ">
<polygon fill="white" stroke="black" points="230,-49.5 230,-79.5 345,-79.5 345,-49.5 230,-49.5"/>
<text text-anchor="start" x="238" y="-67.5" font-family="Helvetica,sans-Serif" font-size="10.00">Ra::Core::TaskQueue</text>
<text text-anchor="middle" x="287.5" y="-56.5" font-family="Helvetica,sans-Serif" font-size="10.00">::registerTask</text>
</a>
</g>
</g>
<!-- Node1&#45;&gt;Node4 -->
<g id="edge3" class="edge"><title>Node1&#45;&gt;Node4</title>
<path fill="none" stroke="midnightblue" d="M164.013,-78.9456C182.452,-76.7711 201.839,-74.4846 219.611,-72.3886"/>
<polygon fill="midnightblue" stroke="midnightblue" points="220.349,-75.826 229.87,-71.1787 219.529,-68.8742 220.349,-75.826"/>
</g>
<!-- Node6 -->
<g id="node6" class="node"><title>Node6</title>
<g id="a_node6"><a xlink:href="classRa_1_1Core_1_1TaskQueue.html#ab15b59009ff7bd766871ac66e01c3210" target="_top" xlink:title="Add dependency between two tasks. ">
<polygon fill="white" stroke="black" points="230,-0.5 230,-30.5 345,-30.5 345,-0.5 230,-0.5"/>
<text text-anchor="start" x="238" y="-18.5" font-family="Helvetica,sans-Serif" font-size="10.00">Ra::Core::TaskQueue</text>
<text text-anchor="middle" x="287.5" y="-7.5" font-family="Helvetica,sans-Serif" font-size="10.00">::addDependency</text>
</a>
</g>
</g>
<!-- Node1&#45;&gt;Node6 -->
<g id="edge5" class="edge"><title>Node1&#45;&gt;Node6</title>
<path fill="none" stroke="midnightblue" d="M115.854,-73.4319C139.07,-63.1086 171.077,-49.5242 200,-39.5 206.431,-37.2712 213.185,-35.1043 219.965,-33.0432"/>
<polygon fill="midnightblue" stroke="midnightblue" points="221.289,-36.3014 229.882,-30.1041 219.299,-29.59 221.289,-36.3014"/>
</g>
<!-- Node5 -->
<g id="node5" class="node"><title>Node5</title>
<g id="a_node5"><a xlink:href="classRa_1_1Core_1_1Task.html#a6c1ba13f4d8a2965f8b0b371c83efb69" target="_top" xlink:title="Return the name of the task. ">
<polygon fill="white" stroke="black" points="411,-55 411,-74 545,-74 545,-55 411,-55"/>
<text text-anchor="middle" x="478" y="-62" font-family="Helvetica,sans-Serif" font-size="10.00">Ra::Core::Task::getName</text>
</a>
</g>
</g>
<!-- Node4&#45;&gt;Node5 -->
<g id="edge4" class="edge"><title>Node4&#45;&gt;Node5</title>
<path fill="none" stroke="midnightblue" d="M345.056,-64.5C362.533,-64.5 382.08,-64.5 400.662,-64.5"/>
<polygon fill="midnightblue" stroke="midnightblue" points="400.867,-68.0001 410.867,-64.5 400.867,-61.0001 400.867,-68.0001"/>
</g>
<!-- Node7 -->
<g id="node7" class="node"><title>Node7</title>
<g id="a_node7"><a xlink:href="classRa_1_1Core_1_1Utils_1_1Index.html#ac7a1b710e6b95834a562c27e2f6c0f4b" target="_top" xlink:title="DESTRUCTOR: Must not be defined, we need it trivial to be constexpr. ">
<polygon fill="white" stroke="black" points="420,-0.5 420,-30.5 536,-30.5 536,-0.5 420,-0.5"/>
<text text-anchor="start" x="428" y="-18.5" font-family="Helvetica,sans-Serif" font-size="10.00">Ra::Core::Utils::Index</text>
<text text-anchor="middle" x="478" y="-7.5" font-family="Helvetica,sans-Serif" font-size="10.00">::isValid</text>
</a>
</g>
</g>
<!-- Node6&#45;&gt;Node7 -->
<g id="edge6" class="edge"><title>Node6&#45;&gt;Node7</title>
<path fill="none" stroke="midnightblue" d="M345.056,-15.5C365.373,-15.5 388.487,-15.5 409.631,-15.5"/>
<polygon fill="midnightblue" stroke="midnightblue" points="409.832,-19.0001 419.832,-15.5 409.832,-12.0001 409.832,-19.0001"/>
</g>
</g>
</svg>
