<?xml version="1.0" encoding="UTF-8" standalone="no"?>
<!DOCTYPE svg PUBLIC "-//W3C//DTD SVG 1.1//EN"
 "http://www.w3.org/Graphics/SVG/1.1/DTD/svg11.dtd">
<!-- Generated by graphviz version 2.38.0 (20140413.2041)
 -->
<!-- Title: MeshPaintPlugin::MeshPaintSystem::paintMesh Pages: 1 -->
<svg width="847pt" height="127pt"
 viewBox="0.00 0.00 847.00 126.50" xmlns="http://www.w3.org/2000/svg" xmlns:xlink="http://www.w3.org/1999/xlink">
<g id="graph0" class="graph" transform="scale(1 1) rotate(0) translate(4 122.5)">
<title>MeshPaintPlugin::MeshPaintSystem::paintMesh</title>
<polygon fill="white" stroke="none" points="-4,4 -4,-122.5 843,-122.5 843,4 -4,4"/>
<!-- Node1 -->
<g id="node1" class="node"><title>Node1</title>
<polygon fill="#bfbfbf" stroke="black" points="0,-39 0,-69 149,-69 149,-39 0,-39"/>
<text text-anchor="start" x="8" y="-57" font-family="Helvetica,sans-Serif" font-size="10.00">MeshPaintPlugin::MeshPaint</text>
<text text-anchor="middle" x="74.5" y="-46" font-family="Helvetica,sans-Serif" font-size="10.00">System::paintMesh</text>
</g>
<!-- Node2 -->
<g id="node2" class="node"><title>Node2</title>
<g id="a_node2"><a xlink:href="classMeshPaintPlugin_1_1MeshPaintComponent.html#ad9bb2078c1824760a5394105ad9866e8" target="_top" xlink:title="MeshPaintPlugin::MeshPaint\lComponent::paintMesh">
<polygon fill="white" stroke="black" points="185,-39 185,-69 334,-69 334,-39 185,-39"/>
<text text-anchor="start" x="193" y="-57" font-family="Helvetica,sans-Serif" font-size="10.00">MeshPaintPlugin::MeshPaint</text>
<text text-anchor="middle" x="259.5" y="-46" font-family="Helvetica,sans-Serif" font-size="10.00">Component::paintMesh</text>
</a>
</g>
</g>
<!-- Node1&#45;&gt;Node2 -->
<g id="edge1" class="edge"><title>Node1&#45;&gt;Node2</title>
<path fill="none" stroke="midnightblue" d="M149.142,-54C157.474,-54 166.011,-54 174.463,-54"/>
<polygon fill="midnightblue" stroke="midnightblue" points="174.711,-57.5001 184.711,-54 174.711,-50.5001 174.711,-57.5001"/>
</g>
<!-- Node3 -->
<g id="node3" class="node"><title>Node3</title>
<g id="a_node3"><a xlink:href="classRa_1_1Engine_1_1Component.html#a10b0bc182b76165744ebea603ae32dfe" target="_top" xlink:title="Shortcut to access the render object manager. ">
<polygon fill="white" stroke="black" points="377.5,-88 377.5,-118 506.5,-118 506.5,-88 377.5,-88"/>
<text text-anchor="start" x="385.5" y="-106" font-family="Helvetica,sans-Serif" font-size="10.00">Ra::Engine::Component</text>
<text text-anchor="middle" x="442" y="-95" font-family="Helvetica,sans-Serif" font-size="10.00">::getRoMgr</text>
</a>
</g>
</g>
<!-- Node2&#45;&gt;Node3 -->
<g id="edge2" class="edge"><title>Node2&#45;&gt;Node3</title>
<path fill="none" stroke="midnightblue" d="M316.129,-69.1014C335.003,-74.2253 356.259,-79.9956 375.811,-85.3032"/>
<polygon fill="midnightblue" stroke="midnightblue" points="374.987,-88.7062 385.555,-87.9484 376.821,-81.9507 374.987,-88.7062"/>
</g>
<!-- Node4 -->
<g id="node4" class="node"><title>Node4</title>
<g id="a_node4"><a xlink:href="classRa_1_1Engine_1_1RenderObjectManager.html#a13fc919e9fa01bfb36e67bc9011d325f" target="_top" xlink:title="Returns the render object corresponding to the given index. ">
<polygon fill="white" stroke="black" points="370,-39 370,-69 514,-69 514,-39 370,-39"/>
<text text-anchor="start" x="378" y="-57" font-family="Helvetica,sans-Serif" font-size="10.00">Ra::Engine::RenderObject</text>
<text text-anchor="middle" x="442" y="-46" font-family="Helvetica,sans-Serif" font-size="10.00">Manager::getRenderObject</text>
</a>
</g>
</g>
<!-- Node2&#45;&gt;Node4 -->
<g id="edge3" class="edge"><title>Node2&#45;&gt;Node4</title>
<path fill="none" stroke="midnightblue" d="M334.177,-54C342.562,-54 351.146,-54 359.623,-54"/>
<polygon fill="midnightblue" stroke="midnightblue" points="359.892,-57.5001 369.892,-54 359.892,-50.5001 359.892,-57.5001"/>
</g>
<!-- Node7 -->
<g id="node7" class="node"><title>Node7</title>
<g id="a_node7"><a xlink:href="namespaceRa_1_1Core_1_1Geometry.html#aa04e6052d8911b1df1bd881474debb45" target="_top" xlink:title="Ra::Core::Geometry::t">
<polygon fill="white" stroke="black" points="382,-0.5 382,-19.5 502,-19.5 502,-0.5 382,-0.5"/>
<text text-anchor="middle" x="442" y="-7.5" font-family="Helvetica,sans-Serif" font-size="10.00">Ra::Core::Geometry::t</text>
</a>
</g>
</g>
<!-- Node2&#45;&gt;Node7 -->
<g id="edge6" class="edge"><title>Node2&#45;&gt;Node7</title>
<path fill="none" stroke="midnightblue" d="M322.113,-38.9808C344.948,-33.4144 370.511,-27.1829 392.065,-21.9287"/>
<polygon fill="midnightblue" stroke="midnightblue" points="393.091,-25.2812 401.977,-19.5124 391.433,-18.4804 393.091,-25.2812"/>
</g>
<!-- Node5 -->
<g id="node5" class="node"><title>Node5</title>
<g id="a_node5"><a xlink:href="classRa_1_1Engine_1_1RenderObjectManager.html#a088feae4339349a81b7b6635b38aead1" target="_top" xlink:title="Returns true if the index points to a valid render object. ">
<polygon fill="white" stroke="black" points="550,-39 550,-69 687,-69 687,-39 550,-39"/>
<text text-anchor="start" x="558" y="-57" font-family="Helvetica,sans-Serif" font-size="10.00">Ra::Engine::RenderObject</text>
<text text-anchor="middle" x="618.5" y="-46" font-family="Helvetica,sans-Serif" font-size="10.00">Manager::exists</text>
</a>
</g>
</g>
<!-- Node4&#45;&gt;Node5 -->
<g id="edge4" class="edge"><title>Node4&#45;&gt;Node5</title>
<path fill="none" stroke="midnightblue" d="M514.228,-54C522.602,-54 531.181,-54 539.641,-54"/>
<polygon fill="midnightblue" stroke="midnightblue" points="539.879,-57.5001 549.879,-54 539.879,-50.5001 539.879,-57.5001"/>
</g>
<!-- Node6 -->
<g id="node6" class="node"><title>Node6</title>
<g id="a_node6"><a xlink:href="classRa_1_1Core_1_1Utils_1_1Index.html#ac7a1b710e6b95834a562c27e2f6c0f4b" target="_top" xlink:title="DESTRUCTOR: Must not be defined, we need it trivial to be constexpr. ">
<polygon fill="white" stroke="black" points="723,-39 723,-69 839,-69 839,-39 723,-39"/>
<text text-anchor="start" x="731" y="-57" font-family="Helvetica,sans-Serif" font-size="10.00">Ra::Core::Utils::Index</text>
<text text-anchor="middle" x="781" y="-46" font-family="Helvetica,sans-Serif" font-size="10.00">::isValid</text>
</a>
</g>
</g>
<!-- Node5&#45;&gt;Node6 -->
<g id="edge5" class="edge"><title>Node5&#45;&gt;Node6</title>
<path fill="none" stroke="midnightblue" d="M687.101,-54C695.567,-54 704.226,-54 712.688,-54"/>
<polygon fill="midnightblue" stroke="midnightblue" points="712.885,-57.5001 722.885,-54 712.885,-50.5001 712.885,-57.5001"/>
</g>
</g>
</svg>
