<?xml version="1.0" encoding="UTF-8" standalone="no"?>
<!DOCTYPE svg PUBLIC "-//W3C//DTD SVG 1.1//EN"
 "http://www.w3.org/Graphics/SVG/1.1/DTD/svg11.dtd">
<!-- Generated by graphviz version 2.38.0 (20140413.2041)
 -->
<!-- Title: Ra::Core::Utils::IndexMap&lt; T &gt; Pages: 1 -->
<svg width="271pt" height="942pt"
 viewBox="0.00 0.00 271.00 942.00" xmlns="http://www.w3.org/2000/svg" xmlns:xlink="http://www.w3.org/1999/xlink">
<g id="graph0" class="graph" transform="scale(1 1) rotate(0) translate(4 938)">
<title>Ra::Core::Utils::IndexMap&lt; T &gt;</title>
<polygon fill="white" stroke="none" points="-4,4 -4,-938 267,-938 267,4 -4,4"/>
<!-- Node1 -->
<g id="node1" class="node"><title>Node1</title>
<polygon fill="#bfbfbf" stroke="black" points="1,-0.5 1,-310.5 165,-310.5 165,-0.5 1,-0.5"/>
<text text-anchor="middle" x="83" y="-298.5" font-family="Helvetica,sans-Serif" font-size="10.00">Ra::Core::Utils::IndexMap&lt; T &gt;</text>
<polyline fill="none" stroke="black" points="1,-291.5 165,-291.5 "/>
<text text-anchor="middle" x="83" y="-279.5" font-family="Helvetica,sans-Serif" font-size="10.00"> </text>
<polyline fill="none" stroke="black" points="1,-272.5 165,-272.5 "/>
<text text-anchor="start" x="9" y="-260.5" font-family="Helvetica,sans-Serif" font-size="10.00">+ IndexMap()</text>
<text text-anchor="start" x="9" y="-249.5" font-family="Helvetica,sans-Serif" font-size="10.00">+ IndexMap()</text>
<text text-anchor="start" x="9" y="-238.5" font-family="Helvetica,sans-Serif" font-size="10.00">+ ~IndexMap()</text>
<text text-anchor="start" x="9" y="-227.5" font-family="Helvetica,sans-Serif" font-size="10.00">+ insert()</text>
<text text-anchor="start" x="9" y="-216.5" font-family="Helvetica,sans-Serif" font-size="10.00">+ emplace()</text>
<text text-anchor="start" x="9" y="-205.5" font-family="Helvetica,sans-Serif" font-size="10.00">+ remove()</text>
<text text-anchor="start" x="9" y="-194.5" font-family="Helvetica,sans-Serif" font-size="10.00">+ at()</text>
<text text-anchor="start" x="9" y="-183.5" font-family="Helvetica,sans-Serif" font-size="10.00">+ access()</text>
<text text-anchor="start" x="9" y="-172.5" font-family="Helvetica,sans-Serif" font-size="10.00">+ size()</text>
<text text-anchor="start" x="9" y="-161.5" font-family="Helvetica,sans-Serif" font-size="10.00">+ clear()</text>
<text text-anchor="start" x="9" y="-150.5" font-family="Helvetica,sans-Serif" font-size="10.00">+ empty()</text>
<text text-anchor="start" x="9" y="-139.5" font-family="Helvetica,sans-Serif" font-size="10.00">+ full()</text>
<text text-anchor="start" x="9" y="-128.5" font-family="Helvetica,sans-Serif" font-size="10.00">+ contains()</text>
<text text-anchor="start" x="9" y="-117.5" font-family="Helvetica,sans-Serif" font-size="10.00">+ index()</text>
<text text-anchor="start" x="9" y="-106.5" font-family="Helvetica,sans-Serif" font-size="10.00">+ operator[]()</text>
<text text-anchor="start" x="9" y="-95.5" font-family="Helvetica,sans-Serif" font-size="10.00">+ operator[]()</text>
<text text-anchor="start" x="9" y="-84.5" font-family="Helvetica,sans-Serif" font-size="10.00">+ cbegin_index()</text>
<text text-anchor="start" x="9" y="-73.5" font-family="Helvetica,sans-Serif" font-size="10.00">+ cend_index()</text>
<text text-anchor="start" x="9" y="-62.5" font-family="Helvetica,sans-Serif" font-size="10.00">+ begin()</text>
<text text-anchor="start" x="9" y="-51.5" font-family="Helvetica,sans-Serif" font-size="10.00">+ end()</text>
<text text-anchor="start" x="9" y="-40.5" font-family="Helvetica,sans-Serif" font-size="10.00">+ begin()</text>
<text text-anchor="start" x="9" y="-29.5" font-family="Helvetica,sans-Serif" font-size="10.00">+ end()</text>
<text text-anchor="start" x="9" y="-18.5" font-family="Helvetica,sans-Serif" font-size="10.00">+ cbegin()</text>
<text text-anchor="start" x="9" y="-7.5" font-family="Helvetica,sans-Serif" font-size="10.00">+ cend()</text>
</g>
<!-- Node2 -->
<g id="node2" class="node"><title>Node2</title>
<polygon fill="white" stroke="#bfbfbf" points="0,-358.5 0,-415.5 74,-415.5 74,-358.5 0,-358.5"/>
<text text-anchor="middle" x="37" y="-403.5" font-family="Helvetica,sans-Serif" font-size="10.00">deque&lt; T &gt;</text>
<polyline fill="none" stroke="#bfbfbf" points="0,-396.5 74,-396.5 "/>
<text text-anchor="middle" x="37" y="-384.5" font-family="Helvetica,sans-Serif" font-size="10.00"> </text>
<polyline fill="none" stroke="#bfbfbf" points="0,-377.5 74,-377.5 "/>
<text text-anchor="middle" x="37" y="-365.5" font-family="Helvetica,sans-Serif" font-size="10.00"> </text>
</g>
<!-- Node2&#45;&gt;Node1 -->
<g id="edge1" class="edge"><title>Node2&#45;&gt;Node1</title>
<path fill="none" stroke="#404040" d="M42.5487,-358.317C44.5632,-348.266 47.011,-336.054 49.6948,-322.664"/>
<polygon fill="none" stroke="#404040" points="49.7508,-322.384 47.008,-315.715 52.1092,-310.618 54.8519,-317.288 49.7508,-322.384"/>
<text text-anchor="middle" x="73.5" y="-332" font-family="Helvetica,sans-Serif" font-size="10.00"> #m_data</text>
</g>
<!-- Node3 -->
<g id="node3" class="node"><title>Node3</title>
<polygon fill="white" stroke="#bfbfbf" points="92,-358.5 92,-415.5 208,-415.5 208,-358.5 92,-358.5"/>
<text text-anchor="middle" x="150" y="-403.5" font-family="Helvetica,sans-Serif" font-size="10.00">std::deque&lt; Index &gt;</text>
<polyline fill="none" stroke="#bfbfbf" points="92,-396.5 208,-396.5 "/>
<text text-anchor="middle" x="150" y="-384.5" font-family="Helvetica,sans-Serif" font-size="10.00"> </text>
<polyline fill="none" stroke="#bfbfbf" points="92,-377.5 208,-377.5 "/>
<text text-anchor="middle" x="150" y="-365.5" font-family="Helvetica,sans-Serif" font-size="10.00"> </text>
</g>
<!-- Node3&#45;&gt;Node1 -->
<g id="edge2" class="edge"><title>Node3&#45;&gt;Node1</title>
<path fill="none" stroke="#404040" d="M141.918,-358.317C138.954,-348.165 135.347,-335.807 131.391,-322.258"/>
<polygon fill="none" stroke="#404040" points="131.356,-322.138 125.835,-317.499 127.993,-310.618 133.514,-315.257 131.356,-322.138"/>
<text text-anchor="middle" x="162" y="-332" font-family="Helvetica,sans-Serif" font-size="10.00"> #m_index</text>
</g>
<!-- Node4 -->
<g id="node4" class="node"><title>Node4</title>
<g id="a_node4"><a xlink:href="classRa_1_1Core_1_1Utils_1_1Index.html" target="_top" xlink:title="{Ra::Core::Utils::Index\n||+ Index()\l+ Index()\l+ isValid()\l+ isInvalid()\l+ setInvalid()\l+ getValue()\l+ setValue()\l+ operator int()\l+ operator=()\l+ operator++()\l+ operator&#45;&#45;()\l+ operator+()\l+ operator+()\l+ operator&#45;()\l+ operator&#45;()\l+ operator==()\l+ operator==()\l+ operator!=()\l+ operator!=()\l+ operator\&lt;()\l+ operator\&lt;()\l+ operator\&lt;=()\l+ operator\&lt;=()\l+ operator\&gt;()\l+ operator\&gt;()\l+ operator\&gt;=()\l+ operator\&gt;=()\l+ Invalid()\l+ Max()\l}">
<polygon fill="white" stroke="black" points="24,-463.5 24,-828.5 140,-828.5 140,-463.5 24,-463.5"/>
<text text-anchor="middle" x="82" y="-816.5" font-family="Helvetica,sans-Serif" font-size="10.00">Ra::Core::Utils::Index</text>
<polyline fill="none" stroke="black" points="24,-809.5 140,-809.5 "/>
<text text-anchor="middle" x="82" y="-797.5" font-family="Helvetica,sans-Serif" font-size="10.00"> </text>
<polyline fill="none" stroke="black" points="24,-790.5 140,-790.5 "/>
<text text-anchor="start" x="32" y="-778.5" font-family="Helvetica,sans-Serif" font-size="10.00">+ Index()</text>
<text text-anchor="start" x="32" y="-767.5" font-family="Helvetica,sans-Serif" font-size="10.00">+ Index()</text>
<text text-anchor="start" x="32" y="-756.5" font-family="Helvetica,sans-Serif" font-size="10.00">+ isValid()</text>
<text text-anchor="start" x="32" y="-745.5" font-family="Helvetica,sans-Serif" font-size="10.00">+ isInvalid()</text>
<text text-anchor="start" x="32" y="-734.5" font-family="Helvetica,sans-Serif" font-size="10.00">+ setInvalid()</text>
<text text-anchor="start" x="32" y="-723.5" font-family="Helvetica,sans-Serif" font-size="10.00">+ getValue()</text>
<text text-anchor="start" x="32" y="-712.5" font-family="Helvetica,sans-Serif" font-size="10.00">+ setValue()</text>
<text text-anchor="start" x="32" y="-701.5" font-family="Helvetica,sans-Serif" font-size="10.00">+ operator int()</text>
<text text-anchor="start" x="32" y="-690.5" font-family="Helvetica,sans-Serif" font-size="10.00">+ operator=()</text>
<text text-anchor="start" x="32" y="-679.5" font-family="Helvetica,sans-Serif" font-size="10.00">+ operator++()</text>
<text text-anchor="start" x="32" y="-668.5" font-family="Helvetica,sans-Serif" font-size="10.00">+ operator&#45;&#45;()</text>
<text text-anchor="start" x="32" y="-657.5" font-family="Helvetica,sans-Serif" font-size="10.00">+ operator+()</text>
<text text-anchor="start" x="32" y="-646.5" font-family="Helvetica,sans-Serif" font-size="10.00">+ operator+()</text>
<text text-anchor="start" x="32" y="-635.5" font-family="Helvetica,sans-Serif" font-size="10.00">+ operator&#45;()</text>
<text text-anchor="start" x="32" y="-624.5" font-family="Helvetica,sans-Serif" font-size="10.00">+ operator&#45;()</text>
<text text-anchor="start" x="32" y="-613.5" font-family="Helvetica,sans-Serif" font-size="10.00">+ operator==()</text>
<text text-anchor="start" x="32" y="-602.5" font-family="Helvetica,sans-Serif" font-size="10.00">+ operator==()</text>
<text text-anchor="start" x="32" y="-591.5" font-family="Helvetica,sans-Serif" font-size="10.00">+ operator!=()</text>
<text text-anchor="start" x="32" y="-580.5" font-family="Helvetica,sans-Serif" font-size="10.00">+ operator!=()</text>
<text text-anchor="start" x="32" y="-569.5" font-family="Helvetica,sans-Serif" font-size="10.00">+ operator&lt;()</text>
<text text-anchor="start" x="32" y="-558.5" font-family="Helvetica,sans-Serif" font-size="10.00">+ operator&lt;()</text>
<text text-anchor="start" x="32" y="-547.5" font-family="Helvetica,sans-Serif" font-size="10.00">+ operator&lt;=()</text>
<text text-anchor="start" x="32" y="-536.5" font-family="Helvetica,sans-Serif" font-size="10.00">+ operator&lt;=()</text>
<text text-anchor="start" x="32" y="-525.5" font-family="Helvetica,sans-Serif" font-size="10.00">+ operator&gt;()</text>
<text text-anchor="start" x="32" y="-514.5" font-family="Helvetica,sans-Serif" font-size="10.00">+ operator&gt;()</text>
<text text-anchor="start" x="32" y="-503.5" font-family="Helvetica,sans-Serif" font-size="10.00">+ operator&gt;=()</text>
<text text-anchor="start" x="32" y="-492.5" font-family="Helvetica,sans-Serif" font-size="10.00">+ operator&gt;=()</text>
<text text-anchor="start" x="32" y="-481.5" font-family="Helvetica,sans-Serif" font-size="10.00">+ Invalid()</text>
<text text-anchor="start" x="32" y="-470.5" font-family="Helvetica,sans-Serif" font-size="10.00">+ Max()</text>
</a>
</g>
</g>
<!-- Node4&#45;&gt;Node3 -->
<g id="edge3" class="edge"><title>Node4&#45;&gt;Node3</title>
<path fill="none" stroke="#404040" d="M92.6289,-463.444C95.769,-453.282 99.5246,-443.393 104,-434 105.431,-430.997 107.141,-428.076 109.048,-425.258"/>
<polygon fill="none" stroke="#404040" points="109.261,-424.986 109.814,-417.797 116.664,-415.542 116.111,-422.732 109.261,-424.986"/>
<text text-anchor="middle" x="132.5" y="-437" font-family="Helvetica,sans-Serif" font-size="10.00"> +elements</text>
</g>
<!-- Node5 -->
<g id="node5" class="node"><title>Node5</title>
<polygon fill="white" stroke="#bfbfbf" points="67.5,-876.5 67.5,-933.5 96.5,-933.5 96.5,-876.5 67.5,-876.5"/>
<text text-anchor="middle" x="82" y="-921.5" font-family="Helvetica,sans-Serif" font-size="10.00">int</text>
<polyline fill="none" stroke="#bfbfbf" points="67.5,-914.5 96.5,-914.5 "/>
<text text-anchor="middle" x="82" y="-902.5" font-family="Helvetica,sans-Serif" font-size="10.00"> </text>
<polyline fill="none" stroke="#bfbfbf" points="67.5,-895.5 96.5,-895.5 "/>
<text text-anchor="middle" x="82" y="-883.5" font-family="Helvetica,sans-Serif" font-size="10.00"> </text>
</g>
<!-- Node5&#45;&gt;Node4 -->
<g id="edge4" class="edge"><title>Node5&#45;&gt;Node4</title>
<path fill="none" stroke="#404040" d="M82,-876.496C82,-866.531 82,-854.377 82,-840.917"/>
<polygon fill="none" stroke="#404040" points="82.0001,-840.774 78,-834.774 82,-828.774 86,-834.774 82.0001,-840.774"/>
<text text-anchor="middle" x="102" y="-850" font-family="Helvetica,sans-Serif" font-size="10.00"> #m_idx</text>
</g>
<!-- Node6 -->
<g id="node6" class="node"><title>Node6</title>
<g id="a_node6"><a xlink:title="STL class. ">
<polygon fill="white" stroke="#bfbfbf" points="158.5,-617.5 158.5,-674.5 253.5,-674.5 253.5,-617.5 158.5,-617.5"/>
<text text-anchor="middle" x="206" y="-662.5" font-family="Helvetica,sans-Serif" font-size="10.00">std::deque&lt; T &gt;</text>
<polyline fill="none" stroke="#bfbfbf" points="158.5,-655.5 253.5,-655.5 "/>
<text text-anchor="middle" x="206" y="-643.5" font-family="Helvetica,sans-Serif" font-size="10.00"> </text>
<polyline fill="none" stroke="#bfbfbf" points="158.5,-636.5 253.5,-636.5 "/>
<text text-anchor="middle" x="206" y="-624.5" font-family="Helvetica,sans-Serif" font-size="10.00"> </text>
</a>
</g>
</g>
<!-- Node6&#45;&gt;Node3 -->
<g id="edge5" class="edge"><title>Node6&#45;&gt;Node3</title>
<path fill="none" stroke="orange" d="M200.159,-607.556C193.21,-565.13 180.567,-494.07 165,-434 163.441,-427.983 161.529,-421.601 159.6,-415.567"/>
<polygon fill="orange" stroke="orange" points="196.707,-608.133 201.76,-617.445 203.617,-607.014 196.707,-608.133"/>
<text text-anchor="middle" x="193" y="-437" font-family="Helvetica,sans-Serif" font-size="10.00"> &lt; Index &gt;</text>
</g>
<!-- Node7 -->
<g id="node7" class="node"><title>Node7</title>
<polygon fill="white" stroke="#bfbfbf" points="191.5,-876.5 191.5,-933.5 220.5,-933.5 220.5,-876.5 191.5,-876.5"/>
<text text-anchor="middle" x="206" y="-921.5" font-family="Helvetica,sans-Serif" font-size="10.00">T</text>
<polyline fill="none" stroke="#bfbfbf" points="191.5,-914.5 220.5,-914.5 "/>
<text text-anchor="middle" x="206" y="-902.5" font-family="Helvetica,sans-Serif" font-size="10.00"> </text>
<polyline fill="none" stroke="#bfbfbf" points="191.5,-895.5 220.5,-895.5 "/>
<text text-anchor="middle" x="206" y="-883.5" font-family="Helvetica,sans-Serif" font-size="10.00"> </text>
</g>
<!-- Node7&#45;&gt;Node6 -->
<g id="edge6" class="edge"><title>Node7&#45;&gt;Node6</title>
<path fill="none" stroke="#404040" d="M206,-876.496C206,-830.919 206,-739.547 206,-686.884"/>
<polygon fill="none" stroke="#404040" points="206,-686.694 202,-680.694 206,-674.694 210,-680.694 206,-686.694"/>
<text text-anchor="middle" x="234.5" y="-850" font-family="Helvetica,sans-Serif" font-size="10.00"> +elements</text>
</g>
</g>
</svg>
