<?xml version="1.0" encoding="UTF-8" standalone="no"?>
<!DOCTYPE svg PUBLIC "-//W3C//DTD SVG 1.1//EN"
 "http://www.w3.org/Graphics/SVG/1.1/DTD/svg11.dtd">
<!-- Generated by graphviz version 2.38.0 (20140413.2041)
 -->
<!-- Title: AnimationPlugin::SkeletonBoneRenderObject::makeBoneShape Pages: 1 -->
<svg width="658pt" height="137pt"
 viewBox="0.00 0.00 658.00 137.00" xmlns="http://www.w3.org/2000/svg" xmlns:xlink="http://www.w3.org/1999/xlink">
<g id="graph0" class="graph" transform="scale(1 1) rotate(0) translate(4 133)">
<title>AnimationPlugin::SkeletonBoneRenderObject::makeBoneShape</title>
<polygon fill="white" stroke="none" points="-4,4 -4,-133 654,-133 654,4 -4,4"/>
<!-- Node1 -->
<g id="node1" class="node"><title>Node1</title>
<polygon fill="#bfbfbf" stroke="black" points="0,-49.5 0,-79.5 194,-79.5 194,-49.5 0,-49.5"/>
<text text-anchor="start" x="8" y="-67.5" font-family="Helvetica,sans-Serif" font-size="10.00">AnimationPlugin::Skeleton</text>
<text text-anchor="middle" x="97" y="-56.5" font-family="Helvetica,sans-Serif" font-size="10.00">BoneRenderObject::makeBoneShape</text>
</g>
<!-- Node2 -->
<g id="node2" class="node"><title>Node2</title>
<g id="a_node2"><a xlink:href="classRa_1_1Core_1_1Geometry_1_1TriangleMesh.html#a6ef9dbd18c0501f2ffd1316be6be56ce" target="_top" xlink:title="Access the vertices positions. ">
<polygon fill="white" stroke="black" points="230.5,-98.5 230.5,-128.5 358.5,-128.5 358.5,-98.5 230.5,-98.5"/>
<text text-anchor="start" x="238.5" y="-116.5" font-family="Helvetica,sans-Serif" font-size="10.00">Ra::Core::Geometry</text>
<text text-anchor="middle" x="294.5" y="-105.5" font-family="Helvetica,sans-Serif" font-size="10.00">::TriangleMesh::vertices</text>
</a>
</g>
</g>
<!-- Node1&#45;&gt;Node2 -->
<g id="edge1" class="edge"><title>Node1&#45;&gt;Node2</title>
<path fill="none" stroke="midnightblue" d="M157.985,-79.5346C178.815,-84.7554 202.348,-90.6537 223.889,-96.0526"/>
<polygon fill="midnightblue" stroke="midnightblue" points="223.077,-99.4575 233.628,-98.4938 224.779,-92.6676 223.077,-99.4575"/>
</g>
<!-- Node3 -->
<g id="node3" class="node"><title>Node3</title>
<g id="a_node3"><a xlink:href="namespaceRa_1_1Core_1_1Geometry.html#a49d50c5e2afd9e40f08cf4a52f540146" target="_top" xlink:title="GLOBAL ///. ">
<polygon fill="white" stroke="black" points="239,-49.5 239,-79.5 350,-79.5 350,-49.5 239,-49.5"/>
<text text-anchor="start" x="247" y="-67.5" font-family="Helvetica,sans-Serif" font-size="10.00">Ra::Core::Geometry</text>
<text text-anchor="middle" x="294.5" y="-56.5" font-family="Helvetica,sans-Serif" font-size="10.00">::uniformNormal</text>
</a>
</g>
</g>
<!-- Node1&#45;&gt;Node3 -->
<g id="edge2" class="edge"><title>Node1&#45;&gt;Node3</title>
<path fill="none" stroke="midnightblue" d="M194.032,-64.5C205.787,-64.5 217.575,-64.5 228.717,-64.5"/>
<polygon fill="midnightblue" stroke="midnightblue" points="228.747,-68.0001 238.747,-64.5 228.747,-61.0001 228.747,-68.0001"/>
</g>
<!-- Node7 -->
<g id="node7" class="node"><title>Node7</title>
<g id="a_node7"><a xlink:href="classRa_1_1Core_1_1Geometry_1_1TriangleMesh.html#ad7d3f6272b902171740e50232ba56114" target="_top" xlink:title="Access the vertices normals. ">
<polygon fill="white" stroke="black" points="230,-0.5 230,-30.5 359,-30.5 359,-0.5 230,-0.5"/>
<text text-anchor="start" x="238" y="-18.5" font-family="Helvetica,sans-Serif" font-size="10.00">Ra::Core::Geometry</text>
<text text-anchor="middle" x="294.5" y="-7.5" font-family="Helvetica,sans-Serif" font-size="10.00">::TriangleMesh::normals</text>
</a>
</g>
</g>
<!-- Node1&#45;&gt;Node7 -->
<g id="edge6" class="edge"><title>Node1&#45;&gt;Node7</title>
<path fill="none" stroke="midnightblue" d="M157.985,-49.4654C178.815,-44.2446 202.348,-38.3463 223.889,-32.9474"/>
<polygon fill="midnightblue" stroke="midnightblue" points="224.779,-36.3324 233.628,-30.5062 223.077,-29.5425 224.779,-36.3324"/>
</g>
<!-- Node4 -->
<g id="node4" class="node"><title>Node4</title>
<g id="a_node4"><a xlink:href="namespaceRa_1_1Core_1_1Geometry.html#aa04e6052d8911b1df1bd881474debb45" target="_top" xlink:title="Ra::Core::Geometry::t">
<polygon fill="white" stroke="black" points="395,-77 395,-96 515,-96 515,-77 395,-77"/>
<text text-anchor="middle" x="455" y="-84" font-family="Helvetica,sans-Serif" font-size="10.00">Ra::Core::Geometry::t</text>
</a>
</g>
</g>
<!-- Node3&#45;&gt;Node4 -->
<g id="edge3" class="edge"><title>Node3&#45;&gt;Node4</title>
<path fill="none" stroke="midnightblue" d="M350.047,-72.0712C361.197,-73.6189 373.073,-75.2673 384.662,-76.8758"/>
<polygon fill="midnightblue" stroke="midnightblue" points="384.36,-80.3674 394.746,-78.2755 385.322,-73.4338 384.36,-80.3674"/>
</g>
<!-- Node5 -->
<g id="node5" class="node"><title>Node5</title>
<g id="a_node5"><a xlink:href="namespaceRa_1_1Core_1_1Geometry.html#a2ce97206423345716bf1b55f60c1c227" target="_top" xlink:title="Ra::Core::Geometry\l::triangleNormal">
<polygon fill="white" stroke="black" points="399.5,-27.5 399.5,-57.5 510.5,-57.5 510.5,-27.5 399.5,-27.5"/>
<text text-anchor="start" x="407.5" y="-45.5" font-family="Helvetica,sans-Serif" font-size="10.00">Ra::Core::Geometry</text>
<text text-anchor="middle" x="455" y="-34.5" font-family="Helvetica,sans-Serif" font-size="10.00">::triangleNormal</text>
</a>
</g>
</g>
<!-- Node3&#45;&gt;Node5 -->
<g id="edge4" class="edge"><title>Node3&#45;&gt;Node5</title>
<path fill="none" stroke="midnightblue" d="M350.047,-56.9288C362.624,-55.1831 376.124,-53.3094 389.093,-51.5092"/>
<polygon fill="midnightblue" stroke="midnightblue" points="389.929,-54.9268 399.353,-50.0851 388.966,-47.9933 389.929,-54.9268"/>
</g>
<!-- Node6 -->
<g id="node6" class="node"><title>Node6</title>
<g id="a_node6"><a xlink:href="namespaceOpenMesh.html#a71e7f1dd3eac016d2b8245ac408a291c" target="_top" xlink:title="OpenMesh::cross">
<polygon fill="white" stroke="black" points="551,-33 551,-52 650,-52 650,-33 551,-33"/>
<text text-anchor="middle" x="600.5" y="-40" font-family="Helvetica,sans-Serif" font-size="10.00">OpenMesh::cross</text>
</a>
</g>
</g>
<!-- Node5&#45;&gt;Node6 -->
<g id="edge5" class="edge"><title>Node5&#45;&gt;Node6</title>
<path fill="none" stroke="midnightblue" d="M510.661,-42.5C520.419,-42.5 530.625,-42.5 540.498,-42.5"/>
<polygon fill="midnightblue" stroke="midnightblue" points="540.634,-46.0001 550.634,-42.5 540.634,-39.0001 540.634,-46.0001"/>
</g>
</g>
</svg>
