<?xml version="1.0" encoding="UTF-8" standalone="no"?>
<!DOCTYPE svg PUBLIC "-//W3C//DTD SVG 1.1//EN"
 "http://www.w3.org/Graphics/SVG/1.1/DTD/svg11.dtd">
<!-- Generated by graphviz version 2.38.0 (20140413.2041)
 -->
<!-- Title: Ra::Core::Geometry::TriangleMesh::TriangleMesh Pages: 1 -->
<svg width="548pt" height="39pt"
 viewBox="0.00 0.00 548.00 39.00" xmlns="http://www.w3.org/2000/svg" xmlns:xlink="http://www.w3.org/1999/xlink">
<g id="graph0" class="graph" transform="scale(1 1) rotate(0) translate(4 35)">
<title>Ra::Core::Geometry::TriangleMesh::TriangleMesh</title>
<polygon fill="white" stroke="none" points="-4,4 -4,-35 544,-35 544,4 -4,4"/>
<!-- Node1 -->
<g id="node1" class="node"><title>Node1</title>
<polygon fill="#bfbfbf" stroke="black" points="5.68434e-14,-0.5 5.68434e-14,-30.5 152,-30.5 152,-0.5 5.68434e-14,-0.5"/>
<text text-anchor="start" x="8" y="-18.5" font-family="Helvetica,sans-Serif" font-size="10.00">Ra::Core::Geometry</text>
<text text-anchor="middle" x="76" y="-7.5" font-family="Helvetica,sans-Serif" font-size="10.00">::TriangleMesh::TriangleMesh</text>
</g>
<!-- Node2 -->
<g id="node2" class="node"><title>Node2</title>
<g id="a_node2"><a xlink:href="classRa_1_1Core_1_1Utils_1_1AttribManager.html#a406dc2c2d82a535130d7af3c388c7f8f" target="_top" xlink:title="Copy all attributes from m. ">
<polygon fill="white" stroke="black" points="188,-0.5 188,-30.5 346,-30.5 346,-0.5 188,-0.5"/>
<text text-anchor="start" x="196" y="-18.5" font-family="Helvetica,sans-Serif" font-size="10.00">Ra::Core::Utils::AttribManager</text>
<text text-anchor="middle" x="267" y="-7.5" font-family="Helvetica,sans-Serif" font-size="10.00">::copyAllAttributes</text>
</a>
</g>
</g>
<!-- Node1&#45;&gt;Node2 -->
<g id="edge1" class="edge"><title>Node1&#45;&gt;Node2</title>
<path fill="none" stroke="midnightblue" d="M152.241,-15.5C160.676,-15.5 169.324,-15.5 177.902,-15.5"/>
<polygon fill="midnightblue" stroke="midnightblue" points="177.922,-19.0001 187.922,-15.5 177.922,-12.0001 177.922,-19.0001"/>
</g>
<!-- Node3 -->
<g id="node3" class="node"><title>Node3</title>
<g id="a_node3"><a xlink:href="classRa_1_1Core_1_1Utils_1_1AttribManager.html#a0a49a4d134669b24642856717a1e5c5b" target="_top" xlink:title="Get attribute by handle. ">
<polygon fill="white" stroke="black" points="382,-0.5 382,-30.5 540,-30.5 540,-0.5 382,-0.5"/>
<text text-anchor="start" x="390" y="-18.5" font-family="Helvetica,sans-Serif" font-size="10.00">Ra::Core::Utils::AttribManager</text>
<text text-anchor="middle" x="461" y="-7.5" font-family="Helvetica,sans-Serif" font-size="10.00">::getAttrib</text>
</a>
</g>
</g>
<!-- Node2&#45;&gt;Node3 -->
<g id="edge2" class="edge"><title>Node2&#45;&gt;Node3</title>
<path fill="none" stroke="midnightblue" d="M346.094,-15.5C354.601,-15.5 363.302,-15.5 371.918,-15.5"/>
<polygon fill="midnightblue" stroke="midnightblue" points="371.975,-19.0001 381.975,-15.5 371.975,-12.0001 371.975,-19.0001"/>
</g>
</g>
</svg>
