<?xml version="1.0" encoding="UTF-8" standalone="no"?>
<!DOCTYPE svg PUBLIC "-//W3C//DTD SVG 1.1//EN"
 "http://www.w3.org/Graphics/SVG/1.1/DTD/svg11.dtd">
<!-- Generated by graphviz version 2.38.0 (20140413.2041)
 -->
<!-- Title: Ra::Engine::Component::Component Pages: 1 -->
<svg width="438pt" height="137pt"
 viewBox="0.00 0.00 438.00 137.00" xmlns="http://www.w3.org/2000/svg" xmlns:xlink="http://www.w3.org/1999/xlink">
<g id="graph0" class="graph" transform="scale(1 1) rotate(0) translate(4 133)">
<title>Ra::Engine::Component::Component</title>
<polygon fill="white" stroke="none" points="-4,4 -4,-133 434,-133 434,4 -4,4"/>
<!-- Node1 -->
<g id="node1" class="node"><title>Node1</title>
<polygon fill="#bfbfbf" stroke="black" points="0,-49.5 0,-79.5 129,-79.5 129,-49.5 0,-49.5"/>
<text text-anchor="start" x="8" y="-67.5" font-family="Helvetica,sans-Serif" font-size="10.00">Ra::Engine::Component</text>
<text text-anchor="middle" x="64.5" y="-56.5" font-family="Helvetica,sans-Serif" font-size="10.00">::Component</text>
</g>
<!-- Node2 -->
<g id="node2" class="node"><title>Node2</title>
<g id="a_node2"><a xlink:href="classRa_1_1Engine_1_1Entity.html#a9a12371846a981467ab64e304b213992" target="_top" xlink:title="Add a component to the given entity. Component ownership is transfered to the entity. ">
<polygon fill="white" stroke="black" points="165,-49.5 165,-79.5 265,-79.5 265,-49.5 165,-49.5"/>
<text text-anchor="start" x="173" y="-67.5" font-family="Helvetica,sans-Serif" font-size="10.00">Ra::Engine::Entity</text>
<text text-anchor="middle" x="215" y="-56.5" font-family="Helvetica,sans-Serif" font-size="10.00">::addComponent</text>
</a>
</g>
</g>
<!-- Node1&#45;&gt;Node2 -->
<g id="edge1" class="edge"><title>Node1&#45;&gt;Node2</title>
<path fill="none" stroke="midnightblue" d="M129.339,-64.5C137.63,-64.5 146.098,-64.5 154.317,-64.5"/>
<polygon fill="midnightblue" stroke="midnightblue" points="154.565,-68.0001 164.565,-64.5 154.565,-61.0001 154.565,-68.0001"/>
</g>
<!-- Node3 -->
<g id="node3" class="node"><title>Node3</title>
<g id="a_node3"><a xlink:href="classRa_1_1Engine_1_1Entity.html#a524712805170bfce52ed0a98f7eee436" target="_top" xlink:title="Get component with a given name. ">
<polygon fill="white" stroke="black" points="315.5,-98.5 315.5,-128.5 415.5,-128.5 415.5,-98.5 315.5,-98.5"/>
<text text-anchor="start" x="323.5" y="-116.5" font-family="Helvetica,sans-Serif" font-size="10.00">Ra::Engine::Entity</text>
<text text-anchor="middle" x="365.5" y="-105.5" font-family="Helvetica,sans-Serif" font-size="10.00">::getComponent</text>
</a>
</g>
</g>
<!-- Node2&#45;&gt;Node3 -->
<g id="edge2" class="edge"><title>Node2&#45;&gt;Node3</title>
<path fill="none" stroke="midnightblue" d="M261.767,-79.6014C276.799,-84.5615 293.667,-90.1274 309.321,-95.2929"/>
<polygon fill="midnightblue" stroke="midnightblue" points="308.291,-98.6386 318.885,-98.4484 310.485,-91.9911 308.291,-98.6386"/>
</g>
<!-- Node4 -->
<g id="node4" class="node"><title>Node4</title>
<g id="a_node4"><a xlink:href="classRa_1_1Engine_1_1Component.html#aa3e5cb90432a9a49e4362b673652ff76" target="_top" xlink:title="Return the component&#39;s name. ">
<polygon fill="white" stroke="black" points="301,-49.5 301,-79.5 430,-79.5 430,-49.5 301,-49.5"/>
<text text-anchor="start" x="309" y="-67.5" font-family="Helvetica,sans-Serif" font-size="10.00">Ra::Engine::Component</text>
<text text-anchor="middle" x="365.5" y="-56.5" font-family="Helvetica,sans-Serif" font-size="10.00">::getName</text>
</a>
</g>
</g>
<!-- Node2&#45;&gt;Node4 -->
<g id="edge3" class="edge"><title>Node2&#45;&gt;Node4</title>
<path fill="none" stroke="midnightblue" d="M265.036,-64.5C273.294,-64.5 282.024,-64.5 290.746,-64.5"/>
<polygon fill="midnightblue" stroke="midnightblue" points="290.951,-68.0001 300.95,-64.5 290.95,-61.0001 290.951,-68.0001"/>
</g>
<!-- Node5 -->
<g id="node5" class="node"><title>Node5</title>
<g id="a_node5"><a xlink:href="classRa_1_1Engine_1_1Component.html#a63b26ba33a78358bfa5747f85015c932" target="_top" xlink:title="Set entity the component is part of. ">
<polygon fill="white" stroke="black" points="301,-0.5 301,-30.5 430,-30.5 430,-0.5 301,-0.5"/>
<text text-anchor="start" x="309" y="-18.5" font-family="Helvetica,sans-Serif" font-size="10.00">Ra::Engine::Component</text>
<text text-anchor="middle" x="365.5" y="-7.5" font-family="Helvetica,sans-Serif" font-size="10.00">::setEntity</text>
</a>
</g>
</g>
<!-- Node2&#45;&gt;Node5 -->
<g id="edge4" class="edge"><title>Node2&#45;&gt;Node5</title>
<path fill="none" stroke="midnightblue" d="M261.767,-49.3986C276.799,-44.4385 293.667,-38.8726 309.321,-33.7071"/>
<polygon fill="midnightblue" stroke="midnightblue" points="310.485,-37.0089 318.885,-30.5516 308.291,-30.3614 310.485,-37.0089"/>
</g>
</g>
</svg>
