<?xml version="1.0" encoding="UTF-8" standalone="no"?>
<!DOCTYPE svg PUBLIC "-//W3C//DTD SVG 1.1//EN"
 "http://www.w3.org/Graphics/SVG/1.1/DTD/svg11.dtd">
<!-- Generated by graphviz version 2.38.0 (20140413.2041)
 -->
<!-- Title: Ra::Engine::GeometryComponent Pages: 1 -->
<svg width="712pt" height="1417pt"
 viewBox="0.00 0.00 711.50 1417.00" xmlns="http://www.w3.org/2000/svg" xmlns:xlink="http://www.w3.org/1999/xlink">
<g id="graph0" class="graph" transform="scale(1 1) rotate(0) translate(4 1413)">
<title>Ra::Engine::GeometryComponent</title>
<polygon fill="white" stroke="none" points="-4,4 -4,-1413 707.5,-1413 707.5,4 -4,4"/>
<!-- Node1 -->
<g id="node1" class="node"><title>Node1</title>
<polygon fill="#bfbfbf" stroke="black" points="345.5,-0.5 345.5,-156.5 522.5,-156.5 522.5,-0.5 345.5,-0.5"/>
<text text-anchor="middle" x="434" y="-144.5" font-family="Helvetica,sans-Serif" font-size="10.00">Ra::Engine::GeometryComponent</text>
<polyline fill="none" stroke="black" points="345.5,-137.5 522.5,-137.5 "/>
<text text-anchor="middle" x="434" y="-125.5" font-family="Helvetica,sans-Serif" font-size="10.00"> </text>
<polyline fill="none" stroke="black" points="345.5,-118.5 522.5,-118.5 "/>
<text text-anchor="start" x="353.5" y="-106.5" font-family="Helvetica,sans-Serif" font-size="10.00">+ GeometryComponent()</text>
<text text-anchor="start" x="353.5" y="-95.5" font-family="Helvetica,sans-Serif" font-size="10.00">+ ~GeometryComponent()</text>
<text text-anchor="start" x="353.5" y="-84.5" font-family="Helvetica,sans-Serif" font-size="10.00">+ initialize()</text>
<text text-anchor="start" x="353.5" y="-73.5" font-family="Helvetica,sans-Serif" font-size="10.00">+ addMeshRenderObject()</text>
<text text-anchor="start" x="353.5" y="-62.5" font-family="Helvetica,sans-Serif" font-size="10.00">+ handleMeshLoading()</text>
<text text-anchor="start" x="353.5" y="-51.5" font-family="Helvetica,sans-Serif" font-size="10.00">+ getRenderObjectIndex()</text>
<text text-anchor="start" x="353.5" y="-40.5" font-family="Helvetica,sans-Serif" font-size="10.00">+ getMesh()</text>
<text text-anchor="start" x="353.5" y="-29.5" font-family="Helvetica,sans-Serif" font-size="10.00">+ setupIO()</text>
<text text-anchor="start" x="353.5" y="-18.5" font-family="Helvetica,sans-Serif" font-size="10.00">+ setContentName()</text>
<text text-anchor="start" x="353.5" y="-7.5" font-family="Helvetica,sans-Serif" font-size="10.00">+ setDeformable()</text>
</g>
<!-- Node2 -->
<g id="node2" class="node"><title>Node2</title>
<g id="a_node2"><a xlink:href="classRa_1_1Engine_1_1Component.html" target="_top" xlink:title="A component is an element that can be updated by a system. ">
<polygon fill="white" stroke="black" points="353.5,-194.5 353.5,-416.5 514.5,-416.5 514.5,-194.5 353.5,-194.5"/>
<text text-anchor="middle" x="434" y="-404.5" font-family="Helvetica,sans-Serif" font-size="10.00">Ra::Engine::Component</text>
<polyline fill="none" stroke="black" points="353.5,-397.5 514.5,-397.5 "/>
<text text-anchor="middle" x="434" y="-385.5" font-family="Helvetica,sans-Serif" font-size="10.00"> </text>
<polyline fill="none" stroke="black" points="353.5,-378.5 514.5,-378.5 "/>
<text text-anchor="start" x="361.5" y="-366.5" font-family="Helvetica,sans-Serif" font-size="10.00">+ Component()</text>
<text text-anchor="start" x="361.5" y="-355.5" font-family="Helvetica,sans-Serif" font-size="10.00">+ ~Component()</text>
<text text-anchor="start" x="361.5" y="-344.5" font-family="Helvetica,sans-Serif" font-size="10.00">+ initialize()</text>
<text text-anchor="start" x="361.5" y="-333.5" font-family="Helvetica,sans-Serif" font-size="10.00">+ setEntity()</text>
<text text-anchor="start" x="361.5" y="-322.5" font-family="Helvetica,sans-Serif" font-size="10.00">+ getEntity()</text>
<text text-anchor="start" x="361.5" y="-311.5" font-family="Helvetica,sans-Serif" font-size="10.00">+ getName()</text>
<text text-anchor="start" x="361.5" y="-300.5" font-family="Helvetica,sans-Serif" font-size="10.00">+ setSystem()</text>
<text text-anchor="start" x="361.5" y="-289.5" font-family="Helvetica,sans-Serif" font-size="10.00">+ getSystem()</text>
<text text-anchor="start" x="361.5" y="-278.5" font-family="Helvetica,sans-Serif" font-size="10.00">+ addRenderObject()</text>
<text text-anchor="start" x="361.5" y="-267.5" font-family="Helvetica,sans-Serif" font-size="10.00">+ removeRenderObject()</text>
<text text-anchor="start" x="361.5" y="-256.5" font-family="Helvetica,sans-Serif" font-size="10.00">+ rayCastQuery()</text>
<text text-anchor="start" x="361.5" y="-245.5" font-family="Helvetica,sans-Serif" font-size="10.00">+ canEdit()</text>
<text text-anchor="start" x="361.5" y="-234.5" font-family="Helvetica,sans-Serif" font-size="10.00">+ getTransform()</text>
<text text-anchor="start" x="361.5" y="-223.5" font-family="Helvetica,sans-Serif" font-size="10.00">+ setTransform()</text>
<text text-anchor="start" x="361.5" y="-212.5" font-family="Helvetica,sans-Serif" font-size="10.00">+ notifyRenderObjectExpired()</text>
<text text-anchor="start" x="361.5" y="-201.5" font-family="Helvetica,sans-Serif" font-size="10.00"># getRoMgr()</text>
</a>
</g>
</g>
<!-- Node2&#45;&gt;Node1 -->
<g id="edge1" class="edge"><title>Node2&#45;&gt;Node1</title>
<path fill="none" stroke="midnightblue" d="M434,-184.196C434,-174.892 434,-165.661 434,-156.756"/>
<polygon fill="none" stroke="midnightblue" points="430.5,-184.307 434,-194.307 437.5,-184.307 430.5,-184.307"/>
</g>
<!-- Node3 -->
<g id="node3" class="node"><title>Node3</title>
<polygon fill="white" stroke="#bfbfbf" points="45.5,-773 45.5,-852 156.5,-852 156.5,-773 45.5,-773"/>
<text text-anchor="start" x="53.5" y="-840" font-family="Helvetica,sans-Serif" font-size="10.00">std::vector&lt; Core::</text>
<text text-anchor="start" x="53.5" y="-829" font-family="Helvetica,sans-Serif" font-size="10.00">Utils::Ra::Core::Utils</text>
<text text-anchor="middle" x="101" y="-818" font-family="Helvetica,sans-Serif" font-size="10.00">::Index &gt;</text>
<polyline fill="none" stroke="#bfbfbf" points="45.5,-811 156.5,-811 "/>
<text text-anchor="middle" x="101" y="-799" font-family="Helvetica,sans-Serif" font-size="10.00"> </text>
<polyline fill="none" stroke="#bfbfbf" points="45.5,-792 156.5,-792 "/>
<text text-anchor="middle" x="101" y="-780" font-family="Helvetica,sans-Serif" font-size="10.00"> </text>
</g>
<!-- Node3&#45;&gt;Node2 -->
<g id="edge2" class="edge"><title>Node3&#45;&gt;Node2</title>
<path fill="none" stroke="#404040" d="M98.6563,-772.882C96.4582,-704.257 100.894,-559.335 168,-464 210.226,-404.011 283.195,-363.181 342.039,-338.153"/>
<polygon fill="none" stroke="#404040" points="342.145,-338.109 346.153,-332.115 353.228,-333.51 349.22,-339.504 342.145,-338.109"/>
<text text-anchor="middle" x="215" y="-584" font-family="Helvetica,sans-Serif" font-size="10.00"> +m_renderObjects</text>
</g>
<!-- Node4 -->
<g id="node4" class="node"><title>Node4</title>
<polygon fill="white" stroke="#bfbfbf" points="0,-1092.5 0,-1149.5 42,-1149.5 42,-1092.5 0,-1092.5"/>
<text text-anchor="middle" x="21" y="-1137.5" font-family="Helvetica,sans-Serif" font-size="10.00">Index</text>
<polyline fill="none" stroke="#bfbfbf" points="0,-1130.5 42,-1130.5 "/>
<text text-anchor="middle" x="21" y="-1118.5" font-family="Helvetica,sans-Serif" font-size="10.00"> </text>
<polyline fill="none" stroke="#bfbfbf" points="0,-1111.5 42,-1111.5 "/>
<text text-anchor="middle" x="21" y="-1099.5" font-family="Helvetica,sans-Serif" font-size="10.00"> </text>
</g>
<!-- Node4&#45;&gt;Node3 -->
<g id="edge3" class="edge"><title>Node4&#45;&gt;Node3</title>
<path fill="none" stroke="#404040" d="M17.603,-1092.18C13.2704,-1047.16 9.42234,-956.379 38,-887 41.6005,-878.259 46.6604,-869.81 52.3645,-861.948"/>
<polygon fill="none" stroke="#404040" points="52.4911,-861.786 53.0284,-854.595 59.8729,-852.325 59.3357,-859.516 52.4911,-861.786"/>
<text text-anchor="middle" x="66.5" y="-901" font-family="Helvetica,sans-Serif" font-size="10.00"> +elements</text>
</g>
<!-- Node5 -->
<g id="node5" class="node"><title>Node5</title>
<g id="a_node5"><a xlink:title="STL class. ">
<polygon fill="white" stroke="#bfbfbf" points="115.5,-1092.5 115.5,-1149.5 210.5,-1149.5 210.5,-1092.5 115.5,-1092.5"/>
<text text-anchor="middle" x="163" y="-1137.5" font-family="Helvetica,sans-Serif" font-size="10.00">std::vector&lt; T &gt;</text>
<polyline fill="none" stroke="#bfbfbf" points="115.5,-1130.5 210.5,-1130.5 "/>
<text text-anchor="middle" x="163" y="-1118.5" font-family="Helvetica,sans-Serif" font-size="10.00"> </text>
<polyline fill="none" stroke="#bfbfbf" points="115.5,-1111.5 210.5,-1111.5 "/>
<text text-anchor="middle" x="163" y="-1099.5" font-family="Helvetica,sans-Serif" font-size="10.00"> </text>
</a>
</g>
</g>
<!-- Node5&#45;&gt;Node3 -->
<g id="edge4" class="edge"><title>Node5&#45;&gt;Node3</title>
<path fill="none" stroke="orange" d="M148.182,-1082.94C133.191,-1043.34 110.985,-978.379 102,-920 98.5684,-897.704 98.1805,-872.472 98.7145,-852.165"/>
<polygon fill="orange" stroke="orange" points="144.977,-1084.35 151.825,-1092.44 151.512,-1081.85 144.977,-1084.35"/>
<text text-anchor="start" x="102" y="-906.5" font-family="Helvetica,sans-Serif" font-size="10.00"> &lt; Core::Utils::Ra::</text>
<text text-anchor="middle" x="148.5" y="-895.5" font-family="Helvetica,sans-Serif" font-size="10.00">Core::Utils::Index &gt;</text>
</g>
<!-- Node8 -->
<g id="node8" class="node"><title>Node8</title>
<polygon fill="white" stroke="#bfbfbf" points="262,-773 262,-852 436,-852 436,-773 262,-773"/>
<text text-anchor="start" x="270" y="-840" font-family="Helvetica,sans-Serif" font-size="10.00">std::vector&lt; std::pair</text>
<text text-anchor="start" x="270" y="-829" font-family="Helvetica,sans-Serif" font-size="10.00">&lt; const Ra::Engine::Entity</text>
<text text-anchor="middle" x="349" y="-818" font-family="Helvetica,sans-Serif" font-size="10.00"> *, Ra::Engine::Component * &gt; &gt;</text>
<polyline fill="none" stroke="#bfbfbf" points="262,-811 436,-811 "/>
<text text-anchor="middle" x="349" y="-799" font-family="Helvetica,sans-Serif" font-size="10.00"> </text>
<polyline fill="none" stroke="#bfbfbf" points="262,-792 436,-792 "/>
<text text-anchor="middle" x="349" y="-780" font-family="Helvetica,sans-Serif" font-size="10.00"> </text>
</g>
<!-- Node5&#45;&gt;Node8 -->
<g id="edge9" class="edge"><title>Node5&#45;&gt;Node8</title>
<path fill="none" stroke="orange" d="M167.458,-1081.9C174.865,-1024.01 191.184,-917.398 214,-887 226.415,-870.459 243.685,-857.197 261.734,-846.745"/>
<polygon fill="orange" stroke="orange" points="163.949,-1081.76 166.179,-1092.12 170.894,-1082.63 163.949,-1081.76"/>
<text text-anchor="start" x="214" y="-912" font-family="Helvetica,sans-Serif" font-size="10.00"> &lt; std::pair&lt; const</text>
<text text-anchor="start" x="214" y="-901" font-family="Helvetica,sans-Serif" font-size="10.00"> Ra::Engine::Entity</text>
<text text-anchor="middle" x="293" y="-890" font-family="Helvetica,sans-Serif" font-size="10.00"> *, Ra::Engine::Component * &gt; &gt;</text>
</g>
<!-- Node6 -->
<g id="node6" class="node"><title>Node6</title>
<polygon fill="white" stroke="#bfbfbf" points="148.5,-1351.5 148.5,-1408.5 177.5,-1408.5 177.5,-1351.5 148.5,-1351.5"/>
<text text-anchor="middle" x="163" y="-1396.5" font-family="Helvetica,sans-Serif" font-size="10.00">T</text>
<polyline fill="none" stroke="#bfbfbf" points="148.5,-1389.5 177.5,-1389.5 "/>
<text text-anchor="middle" x="163" y="-1377.5" font-family="Helvetica,sans-Serif" font-size="10.00"> </text>
<polyline fill="none" stroke="#bfbfbf" points="148.5,-1370.5 177.5,-1370.5 "/>
<text text-anchor="middle" x="163" y="-1358.5" font-family="Helvetica,sans-Serif" font-size="10.00"> </text>
</g>
<!-- Node6&#45;&gt;Node5 -->
<g id="edge5" class="edge"><title>Node6&#45;&gt;Node5</title>
<path fill="none" stroke="#404040" d="M163,-1351.5C163,-1305.92 163,-1214.55 163,-1161.88"/>
<polygon fill="none" stroke="#404040" points="163,-1161.69 159,-1155.69 163,-1149.69 167,-1155.69 163,-1161.69"/>
<text text-anchor="middle" x="191.5" y="-1325" font-family="Helvetica,sans-Serif" font-size="10.00"> +elements</text>
</g>
<!-- Node7 -->
<g id="node7" class="node"><title>Node7</title>
<g id="a_node7"><a xlink:href="classRa_1_1Engine_1_1System.html" target="_top" xlink:title="Systems are responsible of updating a specific subset of the components of each entity. ">
<polygon fill="white" stroke="black" points="271.5,-519.5 271.5,-653.5 428.5,-653.5 428.5,-519.5 271.5,-519.5"/>
<text text-anchor="middle" x="350" y="-641.5" font-family="Helvetica,sans-Serif" font-size="10.00">Ra::Engine::System</text>
<polyline fill="none" stroke="black" points="271.5,-634.5 428.5,-634.5 "/>
<text text-anchor="middle" x="350" y="-622.5" font-family="Helvetica,sans-Serif" font-size="10.00"> </text>
<polyline fill="none" stroke="black" points="271.5,-615.5 428.5,-615.5 "/>
<text text-anchor="start" x="279.5" y="-603.5" font-family="Helvetica,sans-Serif" font-size="10.00">+ System()</text>
<text text-anchor="start" x="279.5" y="-592.5" font-family="Helvetica,sans-Serif" font-size="10.00">+ ~System()</text>
<text text-anchor="start" x="279.5" y="-581.5" font-family="Helvetica,sans-Serif" font-size="10.00">+ handleAssetLoading()</text>
<text text-anchor="start" x="279.5" y="-570.5" font-family="Helvetica,sans-Serif" font-size="10.00">+ generateTasks()</text>
<text text-anchor="start" x="279.5" y="-559.5" font-family="Helvetica,sans-Serif" font-size="10.00">+ getEntityComponents()</text>
<text text-anchor="start" x="279.5" y="-548.5" font-family="Helvetica,sans-Serif" font-size="10.00"># registerComponent()</text>
<text text-anchor="start" x="279.5" y="-537.5" font-family="Helvetica,sans-Serif" font-size="10.00"># unregisterComponent()</text>
<text text-anchor="start" x="279.5" y="-526.5" font-family="Helvetica,sans-Serif" font-size="10.00"># unregisterAllComponents()</text>
</a>
</g>
</g>
<!-- Node7&#45;&gt;Node2 -->
<g id="edge6" class="edge"><title>Node7&#45;&gt;Node2</title>
<path fill="none" stroke="#404040" d="M369.907,-519.381C378.102,-492.161 387.866,-459.73 397.272,-428.49"/>
<polygon fill="none" stroke="#404040" points="397.396,-428.079 395.295,-421.18 400.855,-416.588 402.956,-423.487 397.396,-428.079"/>
<text text-anchor="middle" x="426" y="-438" font-family="Helvetica,sans-Serif" font-size="10.00"> #m_system</text>
</g>
<!-- Node8&#45;&gt;Node7 -->
<g id="edge7" class="edge"><title>Node8&#45;&gt;Node7</title>
<path fill="none" stroke="#404040" d="M349.172,-772.993C349.303,-743.549 349.489,-701.971 349.651,-665.64"/>
<polygon fill="none" stroke="#404040" points="349.651,-665.545 345.678,-659.527 349.705,-653.545 353.678,-659.563 349.651,-665.545"/>
<text text-anchor="middle" x="393.5" y="-730" font-family="Helvetica,sans-Serif" font-size="10.00"> #m_components</text>
</g>
<!-- Node9 -->
<g id="node9" class="node"><title>Node9</title>
<polygon fill="white" stroke="#bfbfbf" points="335.5,-1081.5 335.5,-1160.5 460.5,-1160.5 460.5,-1081.5 335.5,-1081.5"/>
<text text-anchor="start" x="343.5" y="-1148.5" font-family="Helvetica,sans-Serif" font-size="10.00">pair&lt; const Ra::Engine</text>
<text text-anchor="start" x="343.5" y="-1137.5" font-family="Helvetica,sans-Serif" font-size="10.00">::Entity *, Ra::Engine</text>
<text text-anchor="middle" x="398" y="-1126.5" font-family="Helvetica,sans-Serif" font-size="10.00">::Component * &gt;</text>
<polyline fill="none" stroke="#bfbfbf" points="335.5,-1119.5 460.5,-1119.5 "/>
<text text-anchor="middle" x="398" y="-1107.5" font-family="Helvetica,sans-Serif" font-size="10.00"> </text>
<polyline fill="none" stroke="#bfbfbf" points="335.5,-1100.5 460.5,-1100.5 "/>
<text text-anchor="middle" x="398" y="-1088.5" font-family="Helvetica,sans-Serif" font-size="10.00"> </text>
</g>
<!-- Node9&#45;&gt;Node8 -->
<g id="edge8" class="edge"><title>Node9&#45;&gt;Node8</title>
<path fill="none" stroke="#404040" d="M397.381,-1081.18C395.942,-1034.53 391.237,-954.163 376,-887 374.262,-879.341 371.934,-871.395 369.37,-863.683"/>
<polygon fill="none" stroke="#404040" points="369.322,-863.545 363.559,-859.211 365.343,-852.224 371.106,-856.558 369.322,-863.545"/>
<text text-anchor="middle" x="411.5" y="-901" font-family="Helvetica,sans-Serif" font-size="10.00"> +elements</text>
</g>
<!-- Node10 -->
<g id="node10" class="node"><title>Node10</title>
<g id="a_node10"><a xlink:href="classRa_1_1Engine_1_1Entity.html" target="_top" xlink:title="An entity is an scene element. It ties together components with a transform. ">
<polygon fill="white" stroke="black" points="448,-464.5 448,-708.5 588,-708.5 588,-464.5 448,-464.5"/>
<text text-anchor="middle" x="518" y="-696.5" font-family="Helvetica,sans-Serif" font-size="10.00">Ra::Engine::Entity</text>
<polyline fill="none" stroke="black" points="448,-689.5 588,-689.5 "/>
<text text-anchor="middle" x="518" y="-677.5" font-family="Helvetica,sans-Serif" font-size="10.00"> </text>
<polyline fill="none" stroke="black" points="448,-670.5 588,-670.5 "/>
<text text-anchor="start" x="456" y="-658.5" font-family="Helvetica,sans-Serif" font-size="10.00">+ Entity()</text>
<text text-anchor="start" x="456" y="-647.5" font-family="Helvetica,sans-Serif" font-size="10.00">+ Entity()</text>
<text text-anchor="start" x="456" y="-636.5" font-family="Helvetica,sans-Serif" font-size="10.00">+ operator=()</text>
<text text-anchor="start" x="456" y="-625.5" font-family="Helvetica,sans-Serif" font-size="10.00">+ ~Entity()</text>
<text text-anchor="start" x="456" y="-614.5" font-family="Helvetica,sans-Serif" font-size="10.00">+ getName()</text>
<text text-anchor="start" x="456" y="-603.5" font-family="Helvetica,sans-Serif" font-size="10.00">+ rename()</text>
<text text-anchor="start" x="456" y="-592.5" font-family="Helvetica,sans-Serif" font-size="10.00">+ setTransform()</text>
<text text-anchor="start" x="456" y="-581.5" font-family="Helvetica,sans-Serif" font-size="10.00">+ setTransform()</text>
<text text-anchor="start" x="456" y="-570.5" font-family="Helvetica,sans-Serif" font-size="10.00">+ getTransform()</text>
<text text-anchor="start" x="456" y="-559.5" font-family="Helvetica,sans-Serif" font-size="10.00">+ getTransformAsMatrix()</text>
<text text-anchor="start" x="456" y="-548.5" font-family="Helvetica,sans-Serif" font-size="10.00">+ swapTransformBuffers()</text>
<text text-anchor="start" x="456" y="-537.5" font-family="Helvetica,sans-Serif" font-size="10.00">+ addComponent()</text>
<text text-anchor="start" x="456" y="-526.5" font-family="Helvetica,sans-Serif" font-size="10.00">+ removeComponent()</text>
<text text-anchor="start" x="456" y="-515.5" font-family="Helvetica,sans-Serif" font-size="10.00">+ getComponent()</text>
<text text-anchor="start" x="456" y="-504.5" font-family="Helvetica,sans-Serif" font-size="10.00">+ getComponent()</text>
<text text-anchor="start" x="456" y="-493.5" font-family="Helvetica,sans-Serif" font-size="10.00">+ getComponents()</text>
<text text-anchor="start" x="456" y="-482.5" font-family="Helvetica,sans-Serif" font-size="10.00">+ getNumComponents()</text>
<text text-anchor="start" x="456" y="-471.5" font-family="Helvetica,sans-Serif" font-size="10.00">+ rayCastQuery()</text>
</a>
</g>
</g>
<!-- Node10&#45;&gt;Node2 -->
<g id="edge10" class="edge"><title>Node10&#45;&gt;Node2</title>
<path fill="none" stroke="#404040" d="M481.523,-464.344C477.937,-452.432 474.295,-440.339 470.707,-428.419"/>
<polygon fill="none" stroke="#404040" points="470.599,-428.062 465.039,-423.469 467.14,-416.571 472.7,-421.163 470.599,-428.062"/>
<text text-anchor="middle" x="503" y="-438" font-family="Helvetica,sans-Serif" font-size="10.00"> #m_entity</text>
</g>
<!-- Node11 -->
<g id="node11" class="node"><title>Node11</title>
<g id="a_node11"><a xlink:href="classRa_1_1Core_1_1Utils_1_1IndexedObject.html" target="_top" xlink:title="{Ra::Core::Utils::Indexed\lObject\n||+ IndexedObject()\l+ IndexedObject()\l+ ~IndexedObject()\l+ setIndex()\l+ getIndex()\l}">
<polygon fill="white" stroke="black" points="454,-756.5 454,-868.5 582,-868.5 582,-756.5 454,-756.5"/>
<text text-anchor="start" x="462" y="-856.5" font-family="Helvetica,sans-Serif" font-size="10.00">Ra::Core::Utils::Indexed</text>
<text text-anchor="middle" x="518" y="-845.5" font-family="Helvetica,sans-Serif" font-size="10.00">Object</text>
<polyline fill="none" stroke="black" points="454,-838.5 582,-838.5 "/>
<text text-anchor="middle" x="518" y="-826.5" font-family="Helvetica,sans-Serif" font-size="10.00"> </text>
<polyline fill="none" stroke="black" points="454,-819.5 582,-819.5 "/>
<text text-anchor="start" x="462" y="-807.5" font-family="Helvetica,sans-Serif" font-size="10.00">+ IndexedObject()</text>
<text text-anchor="start" x="462" y="-796.5" font-family="Helvetica,sans-Serif" font-size="10.00">+ IndexedObject()</text>
<text text-anchor="start" x="462" y="-785.5" font-family="Helvetica,sans-Serif" font-size="10.00">+ ~IndexedObject()</text>
<text text-anchor="start" x="462" y="-774.5" font-family="Helvetica,sans-Serif" font-size="10.00">+ setIndex()</text>
<text text-anchor="start" x="462" y="-763.5" font-family="Helvetica,sans-Serif" font-size="10.00">+ getIndex()</text>
</a>
</g>
</g>
<!-- Node11&#45;&gt;Node10 -->
<g id="edge11" class="edge"><title>Node11&#45;&gt;Node10</title>
<path fill="none" stroke="midnightblue" d="M518,-746.213C518,-734.331 518,-721.595 518,-708.696"/>
<polygon fill="none" stroke="midnightblue" points="514.5,-746.417 518,-756.417 521.5,-746.417 514.5,-746.417"/>
</g>
<!-- Node12 -->
<g id="node12" class="node"><title>Node12</title>
<g id="a_node12"><a xlink:href="classRa_1_1Core_1_1Utils_1_1Index.html" target="_top" xlink:title="{Ra::Core::Utils::Index\n||+ Index()\l+ Index()\l+ isValid()\l+ isInvalid()\l+ setInvalid()\l+ getValue()\l+ setValue()\l+ operator int()\l+ operator=()\l+ operator++()\l+ operator&#45;&#45;()\l+ operator+()\l+ operator+()\l+ operator&#45;()\l+ operator&#45;()\l+ operator==()\l+ operator==()\l+ operator!=()\l+ operator!=()\l+ operator\&lt;()\l+ operator\&lt;()\l+ operator\&lt;=()\l+ operator\&lt;=()\l+ operator\&gt;()\l+ operator\&gt;()\l+ operator\&gt;=()\l+ operator\&gt;=()\l+ Invalid()\l+ Max()\l}">
<polygon fill="white" stroke="black" points="479,-938.5 479,-1303.5 595,-1303.5 595,-938.5 479,-938.5"/>
<text text-anchor="middle" x="537" y="-1291.5" font-family="Helvetica,sans-Serif" font-size="10.00">Ra::Core::Utils::Index</text>
<polyline fill="none" stroke="black" points="479,-1284.5 595,-1284.5 "/>
<text text-anchor="middle" x="537" y="-1272.5" font-family="Helvetica,sans-Serif" font-size="10.00"> </text>
<polyline fill="none" stroke="black" points="479,-1265.5 595,-1265.5 "/>
<text text-anchor="start" x="487" y="-1253.5" font-family="Helvetica,sans-Serif" font-size="10.00">+ Index()</text>
<text text-anchor="start" x="487" y="-1242.5" font-family="Helvetica,sans-Serif" font-size="10.00">+ Index()</text>
<text text-anchor="start" x="487" y="-1231.5" font-family="Helvetica,sans-Serif" font-size="10.00">+ isValid()</text>
<text text-anchor="start" x="487" y="-1220.5" font-family="Helvetica,sans-Serif" font-size="10.00">+ isInvalid()</text>
<text text-anchor="start" x="487" y="-1209.5" font-family="Helvetica,sans-Serif" font-size="10.00">+ setInvalid()</text>
<text text-anchor="start" x="487" y="-1198.5" font-family="Helvetica,sans-Serif" font-size="10.00">+ getValue()</text>
<text text-anchor="start" x="487" y="-1187.5" font-family="Helvetica,sans-Serif" font-size="10.00">+ setValue()</text>
<text text-anchor="start" x="487" y="-1176.5" font-family="Helvetica,sans-Serif" font-size="10.00">+ operator int()</text>
<text text-anchor="start" x="487" y="-1165.5" font-family="Helvetica,sans-Serif" font-size="10.00">+ operator=()</text>
<text text-anchor="start" x="487" y="-1154.5" font-family="Helvetica,sans-Serif" font-size="10.00">+ operator++()</text>
<text text-anchor="start" x="487" y="-1143.5" font-family="Helvetica,sans-Serif" font-size="10.00">+ operator&#45;&#45;()</text>
<text text-anchor="start" x="487" y="-1132.5" font-family="Helvetica,sans-Serif" font-size="10.00">+ operator+()</text>
<text text-anchor="start" x="487" y="-1121.5" font-family="Helvetica,sans-Serif" font-size="10.00">+ operator+()</text>
<text text-anchor="start" x="487" y="-1110.5" font-family="Helvetica,sans-Serif" font-size="10.00">+ operator&#45;()</text>
<text text-anchor="start" x="487" y="-1099.5" font-family="Helvetica,sans-Serif" font-size="10.00">+ operator&#45;()</text>
<text text-anchor="start" x="487" y="-1088.5" font-family="Helvetica,sans-Serif" font-size="10.00">+ operator==()</text>
<text text-anchor="start" x="487" y="-1077.5" font-family="Helvetica,sans-Serif" font-size="10.00">+ operator==()</text>
<text text-anchor="start" x="487" y="-1066.5" font-family="Helvetica,sans-Serif" font-size="10.00">+ operator!=()</text>
<text text-anchor="start" x="487" y="-1055.5" font-family="Helvetica,sans-Serif" font-size="10.00">+ operator!=()</text>
<text text-anchor="start" x="487" y="-1044.5" font-family="Helvetica,sans-Serif" font-size="10.00">+ operator&lt;()</text>
<text text-anchor="start" x="487" y="-1033.5" font-family="Helvetica,sans-Serif" font-size="10.00">+ operator&lt;()</text>
<text text-anchor="start" x="487" y="-1022.5" font-family="Helvetica,sans-Serif" font-size="10.00">+ operator&lt;=()</text>
<text text-anchor="start" x="487" y="-1011.5" font-family="Helvetica,sans-Serif" font-size="10.00">+ operator&lt;=()</text>
<text text-anchor="start" x="487" y="-1000.5" font-family="Helvetica,sans-Serif" font-size="10.00">+ operator&gt;()</text>
<text text-anchor="start" x="487" y="-989.5" font-family="Helvetica,sans-Serif" font-size="10.00">+ operator&gt;()</text>
<text text-anchor="start" x="487" y="-978.5" font-family="Helvetica,sans-Serif" font-size="10.00">+ operator&gt;=()</text>
<text text-anchor="start" x="487" y="-967.5" font-family="Helvetica,sans-Serif" font-size="10.00">+ operator&gt;=()</text>
<text text-anchor="start" x="487" y="-956.5" font-family="Helvetica,sans-Serif" font-size="10.00">+ Invalid()</text>
<text text-anchor="start" x="487" y="-945.5" font-family="Helvetica,sans-Serif" font-size="10.00">+ Max()</text>
</a>
</g>
</g>
<!-- Node12&#45;&gt;Node11 -->
<g id="edge12" class="edge"><title>Node12&#45;&gt;Node11</title>
<path fill="none" stroke="#404040" d="M525.728,-938.165C524.468,-917.84 523.251,-898.21 522.17,-880.775"/>
<polygon fill="none" stroke="#404040" points="522.17,-880.76 517.806,-875.019 521.427,-868.783 525.791,-874.524 522.17,-880.76"/>
<text text-anchor="middle" x="545" y="-901" font-family="Helvetica,sans-Serif" font-size="10.00"> #m_idx</text>
</g>
<!-- Node13 -->
<g id="node13" class="node"><title>Node13</title>
<polygon fill="white" stroke="#bfbfbf" points="522.5,-1351.5 522.5,-1408.5 551.5,-1408.5 551.5,-1351.5 522.5,-1351.5"/>
<text text-anchor="middle" x="537" y="-1396.5" font-family="Helvetica,sans-Serif" font-size="10.00">int</text>
<polyline fill="none" stroke="#bfbfbf" points="522.5,-1389.5 551.5,-1389.5 "/>
<text text-anchor="middle" x="537" y="-1377.5" font-family="Helvetica,sans-Serif" font-size="10.00"> </text>
<polyline fill="none" stroke="#bfbfbf" points="522.5,-1370.5 551.5,-1370.5 "/>
<text text-anchor="middle" x="537" y="-1358.5" font-family="Helvetica,sans-Serif" font-size="10.00"> </text>
</g>
<!-- Node13&#45;&gt;Node12 -->
<g id="edge13" class="edge"><title>Node13&#45;&gt;Node12</title>
<path fill="none" stroke="#404040" d="M537,-1351.5C537,-1341.53 537,-1329.38 537,-1315.92"/>
<polygon fill="none" stroke="#404040" points="537,-1315.77 533,-1309.77 537,-1303.77 541,-1309.77 537,-1315.77"/>
<text text-anchor="middle" x="557" y="-1325" font-family="Helvetica,sans-Serif" font-size="10.00"> #m_idx</text>
</g>
<!-- Node14 -->
<g id="node14" class="node"><title>Node14</title>
<g id="a_node14"><a xlink:title="STL class. ">
<polygon fill="white" stroke="#bfbfbf" points="613.5,-558 613.5,-615 678.5,-615 678.5,-558 613.5,-558"/>
<text text-anchor="middle" x="646" y="-603" font-family="Helvetica,sans-Serif" font-size="10.00">std::string</text>
<polyline fill="none" stroke="#bfbfbf" points="613.5,-596 678.5,-596 "/>
<text text-anchor="middle" x="646" y="-584" font-family="Helvetica,sans-Serif" font-size="10.00"> </text>
<polyline fill="none" stroke="#bfbfbf" points="613.5,-577 678.5,-577 "/>
<text text-anchor="middle" x="646" y="-565" font-family="Helvetica,sans-Serif" font-size="10.00"> </text>
</a>
</g>
</g>
<!-- Node14&#45;&gt;Node2 -->
<g id="edge14" class="edge"><title>Node14&#45;&gt;Node2</title>
<path fill="none" stroke="#404040" d="M638.487,-557.835C630.686,-532.106 616.827,-493.425 597,-464 576.651,-433.801 549.715,-404.855 523.612,-380.201"/>
<polygon fill="none" stroke="#404040" points="523.591,-380.181 516.473,-379.025 514.803,-372.009 521.921,-373.166 523.591,-380.181"/>
<text text-anchor="middle" x="610.5" y="-438" font-family="Helvetica,sans-Serif" font-size="10.00"> #m_name</text>
</g>
<!-- Node15 -->
<g id="node15" class="node"><title>Node15</title>
<g id="a_node15"><a xlink:title="STL class. ">
<polygon fill="white" stroke="#bfbfbf" points="600.5,-778.5 600.5,-846.5 703.5,-846.5 703.5,-778.5 600.5,-778.5"/>
<text text-anchor="start" x="608.5" y="-834.5" font-family="Helvetica,sans-Serif" font-size="10.00">std::basic_string&lt;</text>
<text text-anchor="middle" x="652" y="-823.5" font-family="Helvetica,sans-Serif" font-size="10.00"> char &gt;</text>
<polyline fill="none" stroke="#bfbfbf" points="600.5,-816.5 703.5,-816.5 "/>
<text text-anchor="middle" x="652" y="-804.5" font-family="Helvetica,sans-Serif" font-size="10.00"> </text>
<polyline fill="none" stroke="#bfbfbf" points="600.5,-797.5 703.5,-797.5 "/>
<text text-anchor="middle" x="652" y="-785.5" font-family="Helvetica,sans-Serif" font-size="10.00"> </text>
</a>
</g>
</g>
<!-- Node15&#45;&gt;Node14 -->
<g id="edge15" class="edge"><title>Node15&#45;&gt;Node14</title>
<path fill="none" stroke="midnightblue" d="M650.844,-768.346C649.632,-723.093 647.764,-653.343 646.738,-615.037"/>
<polygon fill="none" stroke="midnightblue" points="647.348,-768.545 651.115,-778.448 654.346,-768.358 647.348,-768.545"/>
</g>
</g>
</svg>
