<?xml version="1.0" encoding="UTF-8" standalone="no"?>
<!DOCTYPE svg PUBLIC "-//W3C//DTD SVG 1.1//EN"
 "http://www.w3.org/Graphics/SVG/1.1/DTD/svg11.dtd">
<!-- Generated by graphviz version 2.38.0 (20140413.2041)
 -->
<!-- Title: Ra::IO::AssimpGeometryDataLoader::AssimpGeometryDataLoader Pages: 1 -->
<svg width="442pt" height="39pt"
 viewBox="0.00 0.00 442.00 39.00" xmlns="http://www.w3.org/2000/svg" xmlns:xlink="http://www.w3.org/1999/xlink">
<g id="graph0" class="graph" transform="scale(1 1) rotate(0) translate(4 35)">
<title>Ra::IO::AssimpGeometryDataLoader::AssimpGeometryDataLoader</title>
<polygon fill="white" stroke="none" points="-4,4 -4,-35 438,-35 438,4 -4,4"/>
<!-- Node1 -->
<g id="node1" class="node"><title>Node1</title>
<polygon fill="#bfbfbf" stroke="black" points="0,-0.5 0,-30.5 195,-30.5 195,-0.5 0,-0.5"/>
<text text-anchor="start" x="8" y="-18.5" font-family="Helvetica,sans-Serif" font-size="10.00">Ra::IO::AssimpGeometryData</text>
<text text-anchor="middle" x="97.5" y="-7.5" font-family="Helvetica,sans-Serif" font-size="10.00">Loader::AssimpGeometryDataLoader</text>
</g>
<!-- Node2 -->
<g id="node2" class="node"><title>Node2</title>
<g id="a_node2"><a xlink:href="classRa_1_1IO_1_1AssimpGeometryDataLoader.html#ac4aea8ff57b978047124829e10100602" target="_top" xlink:title="Ra::IO::AssimpGeometryData\lLoader::~AssimpGeometryDataLoader">
<polygon fill="white" stroke="black" points="231,-0.5 231,-30.5 434,-30.5 434,-0.5 231,-0.5"/>
<text text-anchor="start" x="239" y="-18.5" font-family="Helvetica,sans-Serif" font-size="10.00">Ra::IO::AssimpGeometryData</text>
<text text-anchor="middle" x="332.5" y="-7.5" font-family="Helvetica,sans-Serif" font-size="10.00">Loader::~AssimpGeometryDataLoader</text>
</a>
</g>
</g>
<!-- Node1&#45;&gt;Node2 -->
<g id="edge1" class="edge"><title>Node1&#45;&gt;Node2</title>
<path fill="none" stroke="midnightblue" d="M195.289,-15.5C203.736,-15.5 212.326,-15.5 220.874,-15.5"/>
<polygon fill="midnightblue" stroke="midnightblue" points="220.877,-19.0001 230.877,-15.5 220.877,-12.0001 220.877,-19.0001"/>
</g>
</g>
</svg>
