<?xml version="1.0" encoding="UTF-8" standalone="no"?>
<!DOCTYPE svg PUBLIC "-//W3C//DTD SVG 1.1//EN"
 "http://www.w3.org/Graphics/SVG/1.1/DTD/svg11.dtd">
<!-- Generated by graphviz version 2.38.0 (20140413.2041)
 -->
<!-- Title: Ra::Engine::CameraManager::handleAssetLoading Pages: 1 -->
<svg width="331pt" height="88pt"
 viewBox="0.00 0.00 331.00 88.00" xmlns="http://www.w3.org/2000/svg" xmlns:xlink="http://www.w3.org/1999/xlink">
<g id="graph0" class="graph" transform="scale(1 1) rotate(0) translate(4 84)">
<title>Ra::Engine::CameraManager::handleAssetLoading</title>
<polygon fill="white" stroke="none" points="-4,4 -4,-84 327,-84 327,4 -4,4"/>
<!-- Node1 -->
<g id="node1" class="node"><title>Node1</title>
<polygon fill="#bfbfbf" stroke="black" points="0,-24.5 0,-54.5 153,-54.5 153,-24.5 0,-24.5"/>
<text text-anchor="start" x="8" y="-42.5" font-family="Helvetica,sans-Serif" font-size="10.00">Ra::Engine::CameraManager</text>
<text text-anchor="middle" x="76.5" y="-31.5" font-family="Helvetica,sans-Serif" font-size="10.00">::handleAssetLoading</text>
</g>
<!-- Node2 -->
<g id="node2" class="node"><title>Node2</title>
<g id="a_node2"><a xlink:href="classRa_1_1Core_1_1Asset_1_1FileData.html#aaa9fd51572d1649599678c8be95c4951" target="_top" xlink:title="Ra::Core::Asset::FileData\l::getCameraData">
<polygon fill="white" stroke="black" points="189,-49.5 189,-79.5 323,-79.5 323,-49.5 189,-49.5"/>
<text text-anchor="start" x="197" y="-67.5" font-family="Helvetica,sans-Serif" font-size="10.00">Ra::Core::Asset::FileData</text>
<text text-anchor="middle" x="256" y="-56.5" font-family="Helvetica,sans-Serif" font-size="10.00">::getCameraData</text>
</a>
</g>
</g>
<!-- Node1&#45;&gt;Node2 -->
<g id="edge1" class="edge"><title>Node1&#45;&gt;Node2</title>
<path fill="none" stroke="midnightblue" d="M153.033,-50.1385C161.579,-51.3421 170.291,-52.5692 178.844,-53.7738"/>
<polygon fill="midnightblue" stroke="midnightblue" points="178.402,-57.246 188.792,-55.175 179.378,-50.3144 178.402,-57.246"/>
</g>
<!-- Node3 -->
<g id="node3" class="node"><title>Node3</title>
<g id="a_node3"><a xlink:href="classRa_1_1Engine_1_1Entity.html#aaf256bea44bbc5bff6aa504aca05ca35" target="_top" xlink:title="Ra::Engine::Entity\l::getName">
<polygon fill="white" stroke="black" points="206,-0.5 206,-30.5 306,-30.5 306,-0.5 206,-0.5"/>
<text text-anchor="start" x="214" y="-18.5" font-family="Helvetica,sans-Serif" font-size="10.00">Ra::Engine::Entity</text>
<text text-anchor="middle" x="256" y="-7.5" font-family="Helvetica,sans-Serif" font-size="10.00">::getName</text>
</a>
</g>
</g>
<!-- Node1&#45;&gt;Node3 -->
<g id="edge2" class="edge"><title>Node1&#45;&gt;Node3</title>
<path fill="none" stroke="midnightblue" d="M153.033,-29.287C167.244,-27.3655 181.918,-25.3815 195.552,-23.538"/>
<polygon fill="midnightblue" stroke="midnightblue" points="196.31,-26.9674 205.751,-22.159 195.372,-20.0306 196.31,-26.9674"/>
</g>
</g>
</svg>
