<?xml version="1.0" encoding="UTF-8" standalone="no"?>
<!DOCTYPE svg PUBLIC "-//W3C//DTD SVG 1.1//EN"
 "http://www.w3.org/Graphics/SVG/1.1/DTD/svg11.dtd">
<!-- Generated by graphviz version 2.38.0 (20140413.2041)
 -->
<!-- Title: Ra::Engine::GeometryComponent::setupIO Pages: 1 -->
<svg width="754pt" height="437pt"
 viewBox="0.00 0.00 754.00 437.00" xmlns="http://www.w3.org/2000/svg" xmlns:xlink="http://www.w3.org/1999/xlink">
<g id="graph0" class="graph" transform="scale(1 1) rotate(0) translate(4 433)">
<title>Ra::Engine::GeometryComponent::setupIO</title>
<polygon fill="white" stroke="none" points="-4,4 -4,-433 750,-433 750,4 -4,4"/>
<!-- Node1 -->
<g id="node1" class="node"><title>Node1</title>
<polygon fill="#bfbfbf" stroke="black" points="0,-180.5 0,-210.5 177,-210.5 177,-180.5 0,-180.5"/>
<text text-anchor="start" x="8" y="-198.5" font-family="Helvetica,sans-Serif" font-size="10.00">Ra::Engine::GeometryComponent</text>
<text text-anchor="middle" x="88.5" y="-187.5" font-family="Helvetica,sans-Serif" font-size="10.00">::setupIO</text>
</g>
<!-- Node2 -->
<g id="node2" class="node"><title>Node2</title>
<g id="a_node2"><a xlink:href="classRa_1_1Engine_1_1Component.html#a207c1dc2e97856c22e0767fb77162933" target="_top" xlink:title="Return the entity the component belongs to. ">
<polygon fill="white" stroke="black" points="237,-398.5 237,-428.5 366,-428.5 366,-398.5 237,-398.5"/>
<text text-anchor="start" x="245" y="-416.5" font-family="Helvetica,sans-Serif" font-size="10.00">Ra::Engine::Component</text>
<text text-anchor="middle" x="301.5" y="-405.5" font-family="Helvetica,sans-Serif" font-size="10.00">::getEntity</text>
</a>
</g>
</g>
<!-- Node1&#45;&gt;Node2 -->
<g id="edge1" class="edge"><title>Node1&#45;&gt;Node2</title>
<path fill="none" stroke="midnightblue" d="M94.7036,-210.543C108.147,-247.122 147.627,-341.252 213,-389.5 217.436,-392.774 222.294,-395.601 227.377,-398.043"/>
<polygon fill="midnightblue" stroke="midnightblue" points="226.154,-401.326 236.725,-402.034 228.903,-394.888 226.154,-401.326"/>
</g>
<!-- Node3 -->
<g id="node3" class="node"><title>Node3</title>
<g id="a_node3"><a xlink:href="classRa_1_1Engine_1_1Component.html#a10b0bc182b76165744ebea603ae32dfe" target="_top" xlink:title="Shortcut to access the render object manager. ">
<polygon fill="white" stroke="black" points="237,-349.5 237,-379.5 366,-379.5 366,-349.5 237,-349.5"/>
<text text-anchor="start" x="245" y="-367.5" font-family="Helvetica,sans-Serif" font-size="10.00">Ra::Engine::Component</text>
<text text-anchor="middle" x="301.5" y="-356.5" font-family="Helvetica,sans-Serif" font-size="10.00">::getRoMgr</text>
</a>
</g>
</g>
<!-- Node1&#45;&gt;Node3 -->
<g id="edge2" class="edge"><title>Node1&#45;&gt;Node3</title>
<path fill="none" stroke="midnightblue" d="M98.1981,-210.837C115.858,-240.553 158.871,-306.072 213,-340.5 217.569,-343.406 222.488,-345.964 227.582,-348.216"/>
<polygon fill="midnightblue" stroke="midnightblue" points="226.316,-351.479 236.901,-351.946 228.918,-344.981 226.316,-351.479"/>
</g>
<!-- Node4 -->
<g id="node4" class="node"><title>Node4</title>
<g id="a_node4"><a xlink:href="classRa_1_1Engine_1_1RenderObjectManager.html#a13fc919e9fa01bfb36e67bc9011d325f" target="_top" xlink:title="Returns the render object corresponding to the given index. ">
<polygon fill="white" stroke="black" points="229.5,-300.5 229.5,-330.5 373.5,-330.5 373.5,-300.5 229.5,-300.5"/>
<text text-anchor="start" x="237.5" y="-318.5" font-family="Helvetica,sans-Serif" font-size="10.00">Ra::Engine::RenderObject</text>
<text text-anchor="middle" x="301.5" y="-307.5" font-family="Helvetica,sans-Serif" font-size="10.00">Manager::getRenderObject</text>
</a>
</g>
</g>
<!-- Node1&#45;&gt;Node4 -->
<g id="edge3" class="edge"><title>Node1&#45;&gt;Node4</title>
<path fill="none" stroke="midnightblue" d="M104.871,-210.778C126.954,-231.899 169.777,-269.857 213,-291.5 216.803,-293.404 220.777,-295.174 224.844,-296.816"/>
<polygon fill="midnightblue" stroke="midnightblue" points="223.872,-300.189 234.464,-300.419 226.327,-293.634 223.872,-300.189"/>
</g>
<!-- Node7 -->
<g id="node7" class="node"><title>Node7</title>
<g id="a_node7"><a xlink:href="classRa_1_1Engine_1_1GeometryComponent.html#a35d2c154a968afc08224d7b4acd795f3" target="_top" xlink:title="Returns the index of the associated RO (the display mesh) ">
<polygon fill="white" stroke="black" points="213,-251.5 213,-281.5 390,-281.5 390,-251.5 213,-251.5"/>
<text text-anchor="start" x="221" y="-269.5" font-family="Helvetica,sans-Serif" font-size="10.00">Ra::Engine::GeometryComponent</text>
<text text-anchor="middle" x="301.5" y="-258.5" font-family="Helvetica,sans-Serif" font-size="10.00">::getRenderObjectIndex</text>
</a>
</g>
</g>
<!-- Node1&#45;&gt;Node7 -->
<g id="edge6" class="edge"><title>Node1&#45;&gt;Node7</title>
<path fill="none" stroke="midnightblue" d="M126.188,-210.522C150.583,-220.248 183.451,-232.849 213,-242.5 219.338,-244.57 225.972,-246.612 232.632,-248.578"/>
<polygon fill="midnightblue" stroke="midnightblue" points="231.796,-251.979 242.375,-251.398 233.742,-245.255 231.796,-251.979"/>
</g>
<!-- Node8 -->
<g id="node8" class="node"><title>Node8</title>
<g id="a_node8"><a xlink:href="classRa_1_1Engine_1_1GeometryComponent.html#a4f76de5cae3f221ddde1632e2bfbb671" target="_top" xlink:title="Returns the current display geometry. ">
<polygon fill="white" stroke="black" points="213,-202.5 213,-232.5 390,-232.5 390,-202.5 213,-202.5"/>
<text text-anchor="start" x="221" y="-220.5" font-family="Helvetica,sans-Serif" font-size="10.00">Ra::Engine::GeometryComponent</text>
<text text-anchor="middle" x="301.5" y="-209.5" font-family="Helvetica,sans-Serif" font-size="10.00">::getMesh</text>
</a>
</g>
</g>
<!-- Node1&#45;&gt;Node8 -->
<g id="edge7" class="edge"><title>Node1&#45;&gt;Node8</title>
<path fill="none" stroke="midnightblue" d="M177.15,-204.639C185.614,-205.521 194.235,-206.42 202.788,-207.312"/>
<polygon fill="midnightblue" stroke="midnightblue" points="202.474,-210.798 212.783,-208.354 203.2,-203.836 202.474,-210.798"/>
</g>
<!-- Node9 -->
<g id="node9" class="node"><title>Node9</title>
<g id="a_node9"><a xlink:href="classRa_1_1Engine_1_1Mesh.html#a1a0dd0e87ce6e6c7d6177c101046c8bf" target="_top" xlink:title="Returns the underlying TriangleMesh. ">
<polygon fill="white" stroke="black" points="426,-186 426,-205 594,-205 594,-186 426,-186"/>
<text text-anchor="middle" x="510" y="-193" font-family="Helvetica,sans-Serif" font-size="10.00">Ra::Engine::Mesh::getGeometry</text>
</a>
</g>
</g>
<!-- Node1&#45;&gt;Node9 -->
<g id="edge10" class="edge"><title>Node1&#45;&gt;Node9</title>
<path fill="none" stroke="midnightblue" d="M177.205,-193.905C189.231,-193.737 201.421,-193.594 213,-193.5 291.664,-192.863 311.336,-192.839 390,-193.5 398.316,-193.57 406.959,-193.667 415.621,-193.782"/>
<polygon fill="midnightblue" stroke="midnightblue" points="415.73,-197.283 425.778,-193.923 415.828,-190.284 415.73,-197.283"/>
</g>
<!-- Node10 -->
<g id="node10" class="node"><title>Node10</title>
<g id="a_node10"><a xlink:href="classRa_1_1Engine_1_1Mesh.html#a9a1dcadf7fb4ff851b18c87b3a98ac6b" target="_top" xlink:title="Mark one of the data types as dirty, forcing an update of the openGL buffer. ">
<polygon fill="white" stroke="black" points="230.5,-126 230.5,-145 372.5,-145 372.5,-126 230.5,-126"/>
<text text-anchor="middle" x="301.5" y="-133" font-family="Helvetica,sans-Serif" font-size="10.00">Ra::Engine::Mesh::setDirty</text>
</a>
</g>
</g>
<!-- Node1&#45;&gt;Node10 -->
<g id="edge9" class="edge"><title>Node1&#45;&gt;Node10</title>
<path fill="none" stroke="midnightblue" d="M140.521,-180.429C162.759,-173.912 189.146,-166.248 213,-159.5 226.782,-155.601 241.813,-151.444 255.467,-147.704"/>
<polygon fill="midnightblue" stroke="midnightblue" points="256.404,-151.077 265.128,-145.064 254.559,-144.324 256.404,-151.077"/>
</g>
<!-- Node11 -->
<g id="node11" class="node"><title>Node11</title>
<g id="a_node11"><a xlink:href="classRa_1_1Engine_1_1Mesh.html#aa0a5434603b5e29adefbe1dff06b6613" target="_top" xlink:title="Use the given geometry as base for a display mesh. Normals are optionnal. ">
<polygon fill="white" stroke="black" points="215,-50 215,-69 388,-69 388,-50 215,-50"/>
<text text-anchor="middle" x="301.5" y="-57" font-family="Helvetica,sans-Serif" font-size="10.00">Ra::Engine::Mesh::loadGeometry</text>
</a>
</g>
</g>
<!-- Node1&#45;&gt;Node11 -->
<g id="edge11" class="edge"><title>Node1&#45;&gt;Node11</title>
<path fill="none" stroke="midnightblue" d="M101.898,-180.381C122.469,-156.286 166.063,-109.273 213,-83.5 221.403,-78.8858 230.756,-75.1091 240.132,-72.0325"/>
<polygon fill="midnightblue" stroke="midnightblue" points="241.322,-75.3292 249.873,-69.074 239.287,-68.6313 241.322,-75.3292"/>
</g>
<!-- Node12 -->
<g id="node12" class="node"><title>Node12</title>
<g id="a_node12"><a xlink:href="classRa_1_1Core_1_1Geometry_1_1TriangleMesh.html#a6ef9dbd18c0501f2ffd1316be6be56ce" target="_top" xlink:title="Access the vertices positions. ">
<polygon fill="white" stroke="black" points="446,-82.5 446,-112.5 574,-112.5 574,-82.5 446,-82.5"/>
<text text-anchor="start" x="454" y="-100.5" font-family="Helvetica,sans-Serif" font-size="10.00">Ra::Core::Geometry</text>
<text text-anchor="middle" x="510" y="-89.5" font-family="Helvetica,sans-Serif" font-size="10.00">::TriangleMesh::vertices</text>
</a>
</g>
</g>
<!-- Node1&#45;&gt;Node12 -->
<g id="edge14" class="edge"><title>Node1&#45;&gt;Node12</title>
<path fill="none" stroke="midnightblue" d="M106.832,-180.295C129.467,-161.467 171.156,-130.209 213,-116.5 285.974,-92.5928 374.37,-90.091 435.46,-92.169"/>
<polygon fill="midnightblue" stroke="midnightblue" points="435.651,-95.679 445.78,-92.5723 435.924,-88.6844 435.651,-95.679"/>
</g>
<!-- Node14 -->
<g id="node14" class="node"><title>Node14</title>
<g id="a_node14"><a xlink:href="classRa_1_1Core_1_1Geometry_1_1TriangleMesh.html#ad7d3f6272b902171740e50232ba56114" target="_top" xlink:title="Access the vertices normals. ">
<polygon fill="white" stroke="black" points="237,-0.5 237,-30.5 366,-30.5 366,-0.5 237,-0.5"/>
<text text-anchor="start" x="245" y="-18.5" font-family="Helvetica,sans-Serif" font-size="10.00">Ra::Core::Geometry</text>
<text text-anchor="middle" x="301.5" y="-7.5" font-family="Helvetica,sans-Serif" font-size="10.00">::TriangleMesh::normals</text>
</a>
</g>
</g>
<!-- Node1&#45;&gt;Node14 -->
<g id="edge15" class="edge"><title>Node1&#45;&gt;Node14</title>
<path fill="none" stroke="midnightblue" d="M97.4262,-180.114C114.307,-148.897 156.894,-77.9168 213,-40.5 217.518,-37.4868 222.401,-34.832 227.468,-32.4938"/>
<polygon fill="midnightblue" stroke="midnightblue" points="228.872,-35.7007 236.751,-28.6177 226.174,-29.2412 228.872,-35.7007"/>
</g>
<!-- Node5 -->
<g id="node5" class="node"><title>Node5</title>
<g id="a_node5"><a xlink:href="classRa_1_1Engine_1_1RenderObjectManager.html#a088feae4339349a81b7b6635b38aead1" target="_top" xlink:title="Returns true if the index points to a valid render object. ">
<polygon fill="white" stroke="black" points="441.5,-300.5 441.5,-330.5 578.5,-330.5 578.5,-300.5 441.5,-300.5"/>
<text text-anchor="start" x="449.5" y="-318.5" font-family="Helvetica,sans-Serif" font-size="10.00">Ra::Engine::RenderObject</text>
<text text-anchor="middle" x="510" y="-307.5" font-family="Helvetica,sans-Serif" font-size="10.00">Manager::exists</text>
</a>
</g>
</g>
<!-- Node4&#45;&gt;Node5 -->
<g id="edge4" class="edge"><title>Node4&#45;&gt;Node5</title>
<path fill="none" stroke="midnightblue" d="M373.566,-315.5C392.157,-315.5 412.296,-315.5 431.218,-315.5"/>
<polygon fill="midnightblue" stroke="midnightblue" points="431.286,-319 441.286,-315.5 431.286,-312 431.286,-319"/>
</g>
<!-- Node6 -->
<g id="node6" class="node"><title>Node6</title>
<g id="a_node6"><a xlink:href="classRa_1_1Core_1_1Utils_1_1Index.html#ac7a1b710e6b95834a562c27e2f6c0f4b" target="_top" xlink:title="DESTRUCTOR: Must not be defined, we need it trivial to be constexpr. ">
<polygon fill="white" stroke="black" points="630,-300.5 630,-330.5 746,-330.5 746,-300.5 630,-300.5"/>
<text text-anchor="start" x="638" y="-318.5" font-family="Helvetica,sans-Serif" font-size="10.00">Ra::Core::Utils::Index</text>
<text text-anchor="middle" x="688" y="-307.5" font-family="Helvetica,sans-Serif" font-size="10.00">::isValid</text>
</a>
</g>
</g>
<!-- Node5&#45;&gt;Node6 -->
<g id="edge5" class="edge"><title>Node5&#45;&gt;Node6</title>
<path fill="none" stroke="midnightblue" d="M578.543,-315.5C592.061,-315.5 606.262,-315.5 619.77,-315.5"/>
<polygon fill="midnightblue" stroke="midnightblue" points="619.941,-319 629.941,-315.5 619.941,-312 619.941,-319"/>
</g>
<!-- Node8&#45;&gt;Node9 -->
<g id="edge8" class="edge"><title>Node8&#45;&gt;Node9</title>
<path fill="none" stroke="midnightblue" d="M390.075,-208.17C398.608,-207.261 407.287,-206.336 415.872,-205.422"/>
<polygon fill="midnightblue" stroke="midnightblue" points="416.319,-208.894 425.892,-204.354 415.577,-201.933 416.319,-208.894"/>
</g>
<!-- Node11&#45;&gt;Node12 -->
<g id="edge12" class="edge"><title>Node11&#45;&gt;Node12</title>
<path fill="none" stroke="midnightblue" d="M354.342,-69.04C378.92,-73.5627 408.715,-79.0456 435.567,-83.9869"/>
<polygon fill="midnightblue" stroke="midnightblue" points="435.229,-87.4833 445.697,-85.851 436.496,-80.5989 435.229,-87.4833"/>
</g>
<!-- Node13 -->
<g id="node13" class="node"><title>Node13</title>
<g id="a_node13"><a xlink:href="classRa_1_1Core_1_1Geometry_1_1TriangleMesh.html#a316e86eab4e624183f1bfe5c25f8592c" target="_top" xlink:title="Return the Handle to the attribute with the given name if it exists, an invalid handle otherwise...">
<polygon fill="white" stroke="black" points="427,-33.5 427,-63.5 593,-63.5 593,-33.5 427,-33.5"/>
<text text-anchor="start" x="435" y="-51.5" font-family="Helvetica,sans-Serif" font-size="10.00">Ra::Core::Geometry</text>
<text text-anchor="middle" x="510" y="-40.5" font-family="Helvetica,sans-Serif" font-size="10.00">::TriangleMesh::getAttribHandle</text>
</a>
</g>
</g>
<!-- Node11&#45;&gt;Node13 -->
<g id="edge13" class="edge"><title>Node11&#45;&gt;Node13</title>
<path fill="none" stroke="midnightblue" d="M388.281,-54.9306C397.639,-54.4321 407.195,-53.923 416.628,-53.4206"/>
<polygon fill="midnightblue" stroke="midnightblue" points="417.001,-56.9057 426.801,-52.8787 416.628,-49.9156 417.001,-56.9057"/>
</g>
</g>
</svg>
