<?xml version="1.0" encoding="UTF-8" standalone="no"?>
<!DOCTYPE svg PUBLIC "-//W3C//DTD SVG 1.1//EN"
 "http://www.w3.org/Graphics/SVG/1.1/DTD/svg11.dtd">
<!-- Generated by graphviz version 2.38.0 (20140413.2041)
 -->
<!-- Title: Ra::Core::Geometry::PolyLine::getSegmentIndex Pages: 1 -->
<svg width="489pt" height="78pt"
 viewBox="0.00 0.00 489.00 77.50" xmlns="http://www.w3.org/2000/svg" xmlns:xlink="http://www.w3.org/1999/xlink">
<g id="graph0" class="graph" transform="scale(1 1) rotate(0) translate(4 73.5)">
<title>Ra::Core::Geometry::PolyLine::getSegmentIndex</title>
<polygon fill="white" stroke="none" points="-4,4 -4,-73.5 485,-73.5 485,4 -4,4"/>
<!-- Node1 -->
<g id="node1" class="node"><title>Node1</title>
<polygon fill="#bfbfbf" stroke="black" points="0,-17 0,-47 153,-47 153,-17 0,-17"/>
<text text-anchor="start" x="8" y="-35" font-family="Helvetica,sans-Serif" font-size="10.00">Ra::Core::Geometry</text>
<text text-anchor="middle" x="76.5" y="-24" font-family="Helvetica,sans-Serif" font-size="10.00">::PolyLine::getSegmentIndex</text>
</g>
<!-- Node2 -->
<g id="node2" class="node"><title>Node2</title>
<g id="a_node2"><a xlink:href="classRa_1_1Core_1_1Geometry_1_1PolyLine.html#a2902446ee56d44c7ac8003e7b9335652" target="_top" xlink:title="Get the total length of the line . ">
<polygon fill="white" stroke="black" points="200.5,-39 200.5,-69 311.5,-69 311.5,-39 200.5,-39"/>
<text text-anchor="start" x="208.5" y="-57" font-family="Helvetica,sans-Serif" font-size="10.00">Ra::Core::Geometry</text>
<text text-anchor="middle" x="256" y="-46" font-family="Helvetica,sans-Serif" font-size="10.00">::PolyLine::length</text>
</a>
</g>
</g>
<!-- Node1&#45;&gt;Node2 -->
<g id="edge1" class="edge"><title>Node1&#45;&gt;Node2</title>
<path fill="none" stroke="midnightblue" d="M153.033,-41.3619C165.491,-42.906 178.305,-44.4941 190.462,-46.001"/>
<polygon fill="midnightblue" stroke="midnightblue" points="190.143,-49.4881 200.498,-47.2448 191.004,-42.5413 190.143,-49.4881"/>
</g>
<!-- Node3 -->
<g id="node3" class="node"><title>Node3</title>
<g id="a_node3"><a xlink:href="namespaceRa_1_1Core_1_1Math.html#ac59d3507a0a632719542d21a16a11bba" target="_top" xlink:title="Clamps the value between 0 and 1. ">
<polygon fill="white" stroke="black" points="189,-0.5 189,-19.5 323,-19.5 323,-0.5 189,-0.5"/>
<text text-anchor="middle" x="256" y="-7.5" font-family="Helvetica,sans-Serif" font-size="10.00">Ra::Core::Math::saturate</text>
</a>
</g>
</g>
<!-- Node1&#45;&gt;Node3 -->
<g id="edge2" class="edge"><title>Node1&#45;&gt;Node3</title>
<path fill="none" stroke="midnightblue" d="M153.033,-22.6381C161.579,-21.579 170.291,-20.4991 178.844,-19.439"/>
<polygon fill="midnightblue" stroke="midnightblue" points="179.299,-22.9096 188.792,-18.206 178.438,-15.9627 179.299,-22.9096"/>
</g>
<!-- Node4 -->
<g id="node4" class="node"><title>Node4</title>
<g id="a_node4"><a xlink:href="namespaceRa_1_1Core_1_1Math.html#a43a856c00d750c5f5c28f362b5df8664" target="_top" xlink:title="Returns value v clamped between bounds min and max. ">
<polygon fill="white" stroke="black" points="359,-0.5 359,-19.5 481,-19.5 481,-0.5 359,-0.5"/>
<text text-anchor="middle" x="420" y="-7.5" font-family="Helvetica,sans-Serif" font-size="10.00">Ra::Core::Math::clamp</text>
</a>
</g>
</g>
<!-- Node3&#45;&gt;Node4 -->
<g id="edge3" class="edge"><title>Node3&#45;&gt;Node4</title>
<path fill="none" stroke="midnightblue" d="M323.359,-10C331.745,-10 340.348,-10 348.792,-10"/>
<polygon fill="midnightblue" stroke="midnightblue" points="348.987,-13.5001 358.987,-10 348.987,-6.5001 348.987,-13.5001"/>
</g>
</g>
</svg>
