<?xml version="1.0" encoding="UTF-8" standalone="no"?>
<!DOCTYPE svg PUBLIC "-//W3C//DTD SVG 1.1//EN"
 "http://www.w3.org/Graphics/SVG/1.1/DTD/svg11.dtd">
<!-- Generated by graphviz version 2.38.0 (20140413.2041)
 -->
<!-- Title: Ra::Engine::DebugRender::addFrame Pages: 1 -->
<svg width="499pt" height="137pt"
 viewBox="0.00 0.00 499.00 137.00" xmlns="http://www.w3.org/2000/svg" xmlns:xlink="http://www.w3.org/1999/xlink">
<g id="graph0" class="graph" transform="scale(1 1) rotate(0) translate(4 133)">
<title>Ra::Engine::DebugRender::addFrame</title>
<polygon fill="white" stroke="none" points="-4,4 -4,-133 495,-133 495,4 -4,4"/>
<!-- Node1 -->
<g id="node1" class="node"><title>Node1</title>
<polygon fill="#bfbfbf" stroke="black" points="0,-49.5 0,-79.5 137,-79.5 137,-49.5 0,-49.5"/>
<text text-anchor="start" x="8" y="-67.5" font-family="Helvetica,sans-Serif" font-size="10.00">Ra::Engine::DebugRender</text>
<text text-anchor="middle" x="68.5" y="-56.5" font-family="Helvetica,sans-Serif" font-size="10.00">::addFrame</text>
</g>
<!-- Node2 -->
<g id="node2" class="node"><title>Node2</title>
<g id="a_node2"><a xlink:href="namespaceRa_1_1Engine_1_1DrawPrimitives.html#abff435f32f2575b0871997617170237a" target="_top" xlink:title="Displays a 3D frame representing the given transform. ">
<polygon fill="white" stroke="black" points="173,-49.5 173,-79.5 316,-79.5 316,-49.5 173,-49.5"/>
<text text-anchor="start" x="181" y="-67.5" font-family="Helvetica,sans-Serif" font-size="10.00">Ra::Engine::DrawPrimitives</text>
<text text-anchor="middle" x="244.5" y="-56.5" font-family="Helvetica,sans-Serif" font-size="10.00">::Frame</text>
</a>
</g>
</g>
<!-- Node1&#45;&gt;Node2 -->
<g id="edge1" class="edge"><title>Node1&#45;&gt;Node2</title>
<path fill="none" stroke="midnightblue" d="M137.271,-64.5C145.548,-64.5 154.068,-64.5 162.513,-64.5"/>
<polygon fill="midnightblue" stroke="midnightblue" points="162.755,-68.0001 172.755,-64.5 162.755,-61.0001 162.755,-68.0001"/>
</g>
<!-- Node3 -->
<g id="node3" class="node"><title>Node3</title>
<g id="a_node3"><a xlink:href="classRa_1_1Core_1_1Utils_1_1ColorBase.html#a1b7a2d694cf0fe9382aa80868253f0d1" target="_top" xlink:title="Ra::Core::Utils::ColorBase\l\&lt; Scalar \&gt;::Red">
<polygon fill="white" stroke="black" points="352,-98.5 352,-128.5 491,-128.5 491,-98.5 352,-98.5"/>
<text text-anchor="start" x="360" y="-116.5" font-family="Helvetica,sans-Serif" font-size="10.00">Ra::Core::Utils::ColorBase</text>
<text text-anchor="middle" x="421.5" y="-105.5" font-family="Helvetica,sans-Serif" font-size="10.00">&lt; Scalar &gt;::Red</text>
</a>
</g>
</g>
<!-- Node2&#45;&gt;Node3 -->
<g id="edge2" class="edge"><title>Node2&#45;&gt;Node3</title>
<path fill="none" stroke="midnightblue" d="M299.434,-79.6014C317.65,-84.7019 338.153,-90.4429 357.037,-95.7305"/>
<polygon fill="midnightblue" stroke="midnightblue" points="356.171,-99.1224 366.744,-98.4484 358.058,-92.3817 356.171,-99.1224"/>
</g>
<!-- Node4 -->
<g id="node4" class="node"><title>Node4</title>
<g id="a_node4"><a xlink:href="classRa_1_1Core_1_1Utils_1_1ColorBase.html#a54193413c10301c1edf46fc41fb09dfb" target="_top" xlink:title="Ra::Core::Utils::ColorBase\l\&lt; Scalar \&gt;::Green">
<polygon fill="white" stroke="black" points="352,-49.5 352,-79.5 491,-79.5 491,-49.5 352,-49.5"/>
<text text-anchor="start" x="360" y="-67.5" font-family="Helvetica,sans-Serif" font-size="10.00">Ra::Core::Utils::ColorBase</text>
<text text-anchor="middle" x="421.5" y="-56.5" font-family="Helvetica,sans-Serif" font-size="10.00">&lt; Scalar &gt;::Green</text>
</a>
</g>
</g>
<!-- Node2&#45;&gt;Node4 -->
<g id="edge3" class="edge"><title>Node2&#45;&gt;Node4</title>
<path fill="none" stroke="midnightblue" d="M316.175,-64.5C324.537,-64.5 333.113,-64.5 341.581,-64.5"/>
<polygon fill="midnightblue" stroke="midnightblue" points="341.834,-68.0001 351.834,-64.5 341.834,-61.0001 341.834,-68.0001"/>
</g>
<!-- Node5 -->
<g id="node5" class="node"><title>Node5</title>
<g id="a_node5"><a xlink:href="classRa_1_1Core_1_1Utils_1_1ColorBase.html#aed9cce82f3b09c3ec32a9fdc898d3b7f" target="_top" xlink:title="Ra::Core::Utils::ColorBase\l\&lt; Scalar \&gt;::Blue">
<polygon fill="white" stroke="black" points="352,-0.5 352,-30.5 491,-30.5 491,-0.5 352,-0.5"/>
<text text-anchor="start" x="360" y="-18.5" font-family="Helvetica,sans-Serif" font-size="10.00">Ra::Core::Utils::ColorBase</text>
<text text-anchor="middle" x="421.5" y="-7.5" font-family="Helvetica,sans-Serif" font-size="10.00">&lt; Scalar &gt;::Blue</text>
</a>
</g>
</g>
<!-- Node2&#45;&gt;Node5 -->
<g id="edge4" class="edge"><title>Node2&#45;&gt;Node5</title>
<path fill="none" stroke="midnightblue" d="M299.434,-49.3986C317.65,-44.2981 338.153,-38.5571 357.037,-33.2695"/>
<polygon fill="midnightblue" stroke="midnightblue" points="358.058,-36.6183 366.744,-30.5516 356.171,-29.8776 358.058,-36.6183"/>
</g>
</g>
</svg>
