<?xml version="1.0" encoding="UTF-8" standalone="no"?>
<!DOCTYPE svg PUBLIC "-//W3C//DTD SVG 1.1//EN"
 "http://www.w3.org/Graphics/SVG/1.1/DTD/svg11.dtd">
<!-- Generated by graphviz version 2.38.0 (20140413.2041)
 -->
<!-- Title: Ra::Engine::ShaderProgram::load Pages: 1 -->
<svg width="364pt" height="137pt"
 viewBox="0.00 0.00 364.00 137.00" xmlns="http://www.w3.org/2000/svg" xmlns:xlink="http://www.w3.org/1999/xlink">
<g id="graph0" class="graph" transform="scale(1 1) rotate(0) translate(4 133)">
<title>Ra::Engine::ShaderProgram::load</title>
<polygon fill="white" stroke="none" points="-4,4 -4,-133 360,-133 360,4 -4,4"/>
<!-- Node1 -->
<g id="node1" class="node"><title>Node1</title>
<polygon fill="#bfbfbf" stroke="black" points="0,-49.5 0,-79.5 149,-79.5 149,-49.5 0,-49.5"/>
<text text-anchor="start" x="8" y="-67.5" font-family="Helvetica,sans-Serif" font-size="10.00">Ra::Engine::ShaderProgram</text>
<text text-anchor="middle" x="74.5" y="-56.5" font-family="Helvetica,sans-Serif" font-size="10.00">::load</text>
</g>
<!-- Node2 -->
<g id="node2" class="node"><title>Node2</title>
<g id="a_node2"><a xlink:href="classRa_1_1Engine_1_1ShaderConfiguration.html#a143bdfdadc4b4a595c22c37638775c87" target="_top" xlink:title="Tell if a shader configuration has at least a vertex and a fragment shader, or a compute shader...">
<polygon fill="white" stroke="black" points="185,-98.5 185,-128.5 356,-128.5 356,-98.5 185,-98.5"/>
<text text-anchor="start" x="193" y="-116.5" font-family="Helvetica,sans-Serif" font-size="10.00">Ra::Engine::ShaderConfiguration</text>
<text text-anchor="middle" x="270.5" y="-105.5" font-family="Helvetica,sans-Serif" font-size="10.00">::isComplete</text>
</a>
</g>
</g>
<!-- Node1&#45;&gt;Node2 -->
<g id="edge1" class="edge"><title>Node1&#45;&gt;Node2</title>
<path fill="none" stroke="midnightblue" d="M135.025,-79.5346C155.602,-84.7318 178.837,-90.6006 200.134,-95.9796"/>
<polygon fill="midnightblue" stroke="midnightblue" points="199.535,-99.4383 210.088,-98.4938 201.249,-92.6514 199.535,-99.4383"/>
</g>
<!-- Node3 -->
<g id="node3" class="node"><title>Node3</title>
<g id="a_node3"><a xlink:href="classRa_1_1Engine_1_1ShaderConfiguration.html#ad0bd608d1b6f52302485b81907145136" target="_top" xlink:title="Ra::Engine::ShaderConfiguration\l::getProperties">
<polygon fill="white" stroke="black" points="185,-49.5 185,-79.5 356,-79.5 356,-49.5 185,-49.5"/>
<text text-anchor="start" x="193" y="-67.5" font-family="Helvetica,sans-Serif" font-size="10.00">Ra::Engine::ShaderConfiguration</text>
<text text-anchor="middle" x="270.5" y="-56.5" font-family="Helvetica,sans-Serif" font-size="10.00">::getProperties</text>
</a>
</g>
</g>
<!-- Node1&#45;&gt;Node3 -->
<g id="edge2" class="edge"><title>Node1&#45;&gt;Node3</title>
<path fill="none" stroke="midnightblue" d="M149.12,-64.5C157.517,-64.5 166.164,-64.5 174.786,-64.5"/>
<polygon fill="midnightblue" stroke="midnightblue" points="174.88,-68.0001 184.88,-64.5 174.88,-61.0001 174.88,-68.0001"/>
</g>
<!-- Node4 -->
<g id="node4" class="node"><title>Node4</title>
<g id="a_node4"><a xlink:href="classRa_1_1Engine_1_1ShaderConfiguration.html#ad53b9a1661fea2d4703c9d9cf05e1cb5" target="_top" xlink:title="Ra::Engine::ShaderConfiguration\l::getIncludes">
<polygon fill="white" stroke="black" points="185,-0.5 185,-30.5 356,-30.5 356,-0.5 185,-0.5"/>
<text text-anchor="start" x="193" y="-18.5" font-family="Helvetica,sans-Serif" font-size="10.00">Ra::Engine::ShaderConfiguration</text>
<text text-anchor="middle" x="270.5" y="-7.5" font-family="Helvetica,sans-Serif" font-size="10.00">::getIncludes</text>
</a>
</g>
</g>
<!-- Node1&#45;&gt;Node4 -->
<g id="edge3" class="edge"><title>Node1&#45;&gt;Node4</title>
<path fill="none" stroke="midnightblue" d="M135.025,-49.4654C155.602,-44.2682 178.837,-38.3994 200.134,-33.0204"/>
<polygon fill="midnightblue" stroke="midnightblue" points="201.249,-36.3486 210.088,-30.5062 199.535,-29.5617 201.249,-36.3486"/>
</g>
</g>
</svg>
