<?xml version="1.0" encoding="UTF-8" standalone="no"?>
<!DOCTYPE svg PUBLIC "-//W3C//DTD SVG 1.1//EN"
 "http://www.w3.org/Graphics/SVG/1.1/DTD/svg11.dtd">
<!-- Generated by graphviz version 2.38.0 (20140413.2041)
 -->
<!-- Title: Ra::Engine::System Pages: 1 -->
<svg width="327pt" height="524pt"
 viewBox="0.00 0.00 326.50 524.00" xmlns="http://www.w3.org/2000/svg" xmlns:xlink="http://www.w3.org/1999/xlink">
<g id="graph0" class="graph" transform="scale(1 1) rotate(0) translate(4 520)">
<title>Ra::Engine::System</title>
<polygon fill="white" stroke="none" points="-4,4 -4,-520 322.5,-520 322.5,4 -4,4"/>
<!-- Node1 -->
<g id="node1" class="node"><title>Node1</title>
<polygon fill="#bfbfbf" stroke="black" points="36,-0.5 36,-134.5 193,-134.5 193,-0.5 36,-0.5"/>
<text text-anchor="middle" x="114.5" y="-122.5" font-family="Helvetica,sans-Serif" font-size="10.00">Ra::Engine::System</text>
<polyline fill="none" stroke="black" points="36,-115.5 193,-115.5 "/>
<text text-anchor="middle" x="114.5" y="-103.5" font-family="Helvetica,sans-Serif" font-size="10.00"> </text>
<polyline fill="none" stroke="black" points="36,-96.5 193,-96.5 "/>
<text text-anchor="start" x="44" y="-84.5" font-family="Helvetica,sans-Serif" font-size="10.00">+ System()</text>
<text text-anchor="start" x="44" y="-73.5" font-family="Helvetica,sans-Serif" font-size="10.00">+ ~System()</text>
<text text-anchor="start" x="44" y="-62.5" font-family="Helvetica,sans-Serif" font-size="10.00">+ handleAssetLoading()</text>
<text text-anchor="start" x="44" y="-51.5" font-family="Helvetica,sans-Serif" font-size="10.00">+ generateTasks()</text>
<text text-anchor="start" x="44" y="-40.5" font-family="Helvetica,sans-Serif" font-size="10.00">+ getEntityComponents()</text>
<text text-anchor="start" x="44" y="-29.5" font-family="Helvetica,sans-Serif" font-size="10.00"># registerComponent()</text>
<text text-anchor="start" x="44" y="-18.5" font-family="Helvetica,sans-Serif" font-size="10.00"># unregisterComponent()</text>
<text text-anchor="start" x="44" y="-7.5" font-family="Helvetica,sans-Serif" font-size="10.00"># unregisterAllComponents()</text>
</g>
<!-- Node2 -->
<g id="node2" class="node"><title>Node2</title>
<polygon fill="white" stroke="#bfbfbf" points="27.5,-182.5 27.5,-261.5 201.5,-261.5 201.5,-182.5 27.5,-182.5"/>
<text text-anchor="start" x="35.5" y="-249.5" font-family="Helvetica,sans-Serif" font-size="10.00">std::vector&lt; std::pair</text>
<text text-anchor="start" x="35.5" y="-238.5" font-family="Helvetica,sans-Serif" font-size="10.00">&lt; const Ra::Engine::Entity</text>
<text text-anchor="middle" x="114.5" y="-227.5" font-family="Helvetica,sans-Serif" font-size="10.00"> *, Ra::Engine::Component * &gt; &gt;</text>
<polyline fill="none" stroke="#bfbfbf" points="27.5,-220.5 201.5,-220.5 "/>
<text text-anchor="middle" x="114.5" y="-208.5" font-family="Helvetica,sans-Serif" font-size="10.00"> </text>
<polyline fill="none" stroke="#bfbfbf" points="27.5,-201.5 201.5,-201.5 "/>
<text text-anchor="middle" x="114.5" y="-189.5" font-family="Helvetica,sans-Serif" font-size="10.00"> </text>
</g>
<!-- Node2&#45;&gt;Node1 -->
<g id="edge1" class="edge"><title>Node2&#45;&gt;Node1</title>
<path fill="none" stroke="#404040" d="M114.5,-182.123C114.5,-171.269 114.5,-159.072 114.5,-146.805"/>
<polygon fill="none" stroke="#404040" points="114.5,-146.561 110.5,-140.561 114.5,-134.561 118.5,-140.561 114.5,-146.561"/>
<text text-anchor="middle" x="158" y="-156" font-family="Helvetica,sans-Serif" font-size="10.00"> #m_components</text>
</g>
<!-- Node3 -->
<g id="node3" class="node"><title>Node3</title>
<polygon fill="white" stroke="#bfbfbf" points="-7.10543e-15,-331.5 -7.10543e-15,-410.5 125,-410.5 125,-331.5 -7.10543e-15,-331.5"/>
<text text-anchor="start" x="8" y="-398.5" font-family="Helvetica,sans-Serif" font-size="10.00">pair&lt; const Ra::Engine</text>
<text text-anchor="start" x="8" y="-387.5" font-family="Helvetica,sans-Serif" font-size="10.00">::Entity *, Ra::Engine</text>
<text text-anchor="middle" x="62.5" y="-376.5" font-family="Helvetica,sans-Serif" font-size="10.00">::Component * &gt;</text>
<polyline fill="none" stroke="#bfbfbf" points="-7.10543e-15,-369.5 125,-369.5 "/>
<text text-anchor="middle" x="62.5" y="-357.5" font-family="Helvetica,sans-Serif" font-size="10.00"> </text>
<polyline fill="none" stroke="#bfbfbf" points="-7.10543e-15,-350.5 125,-350.5 "/>
<text text-anchor="middle" x="62.5" y="-338.5" font-family="Helvetica,sans-Serif" font-size="10.00"> </text>
</g>
<!-- Node3&#45;&gt;Node2 -->
<g id="edge2" class="edge"><title>Node3&#45;&gt;Node2</title>
<path fill="none" stroke="#404040" d="M71.658,-331.439C75.8801,-315.338 81.3284,-296.564 87.5,-280 88.3811,-277.635 89.3224,-275.234 90.3059,-272.823"/>
<polygon fill="none" stroke="#404040" points="90.4092,-272.582 89.1041,-265.49 95.1486,-261.558 96.4537,-268.65 90.4092,-272.582"/>
<text text-anchor="middle" x="116" y="-294" font-family="Helvetica,sans-Serif" font-size="10.00"> +elements</text>
</g>
<!-- Node4 -->
<g id="node4" class="node"><title>Node4</title>
<g id="a_node4"><a xlink:title="STL class. ">
<polygon fill="white" stroke="#bfbfbf" points="143,-342.5 143,-399.5 238,-399.5 238,-342.5 143,-342.5"/>
<text text-anchor="middle" x="190.5" y="-387.5" font-family="Helvetica,sans-Serif" font-size="10.00">std::vector&lt; T &gt;</text>
<polyline fill="none" stroke="#bfbfbf" points="143,-380.5 238,-380.5 "/>
<text text-anchor="middle" x="190.5" y="-368.5" font-family="Helvetica,sans-Serif" font-size="10.00"> </text>
<polyline fill="none" stroke="#bfbfbf" points="143,-361.5 238,-361.5 "/>
<text text-anchor="middle" x="190.5" y="-349.5" font-family="Helvetica,sans-Serif" font-size="10.00"> </text>
</a>
</g>
</g>
<!-- Node4&#45;&gt;Node2 -->
<g id="edge3" class="edge"><title>Node4&#45;&gt;Node2</title>
<path fill="none" stroke="orange" d="M171.803,-333.173C163.488,-316.859 153.55,-297.449 144.5,-280 141.411,-274.044 138.121,-267.749 134.896,-261.6"/>
<polygon fill="orange" stroke="orange" points="168.836,-335.06 176.493,-342.383 175.074,-331.884 168.836,-335.06"/>
<text text-anchor="start" x="160.5" y="-305" font-family="Helvetica,sans-Serif" font-size="10.00"> &lt; std::pair&lt; const</text>
<text text-anchor="start" x="160.5" y="-294" font-family="Helvetica,sans-Serif" font-size="10.00"> Ra::Engine::Entity</text>
<text text-anchor="middle" x="239.5" y="-283" font-family="Helvetica,sans-Serif" font-size="10.00"> *, Ra::Engine::Component * &gt; &gt;</text>
</g>
<!-- Node5 -->
<g id="node5" class="node"><title>Node5</title>
<polygon fill="white" stroke="#bfbfbf" points="176,-458.5 176,-515.5 205,-515.5 205,-458.5 176,-458.5"/>
<text text-anchor="middle" x="190.5" y="-503.5" font-family="Helvetica,sans-Serif" font-size="10.00">T</text>
<polyline fill="none" stroke="#bfbfbf" points="176,-496.5 205,-496.5 "/>
<text text-anchor="middle" x="190.5" y="-484.5" font-family="Helvetica,sans-Serif" font-size="10.00"> </text>
<polyline fill="none" stroke="#bfbfbf" points="176,-477.5 205,-477.5 "/>
<text text-anchor="middle" x="190.5" y="-465.5" font-family="Helvetica,sans-Serif" font-size="10.00"> </text>
</g>
<!-- Node5&#45;&gt;Node4 -->
<g id="edge4" class="edge"><title>Node5&#45;&gt;Node4</title>
<path fill="none" stroke="#404040" d="M190.5,-458.404C190.5,-444.504 190.5,-427.392 190.5,-412.073"/>
<polygon fill="none" stroke="#404040" points="190.5,-411.737 186.5,-405.737 190.5,-399.737 194.5,-405.737 190.5,-411.737"/>
<text text-anchor="middle" x="219" y="-432" font-family="Helvetica,sans-Serif" font-size="10.00"> +elements</text>
</g>
</g>
</svg>
