<?xml version="1.0" encoding="UTF-8" standalone="no"?>
<!DOCTYPE svg PUBLIC "-//W3C//DTD SVG 1.1//EN"
 "http://www.w3.org/Graphics/SVG/1.1/DTD/svg11.dtd">
<!-- Generated by graphviz version 2.38.0 (20140413.2041)
 -->
<!-- Title: Ra::Core::Geometry::TopologicalMesh::clearAllProps Pages: 1 -->
<svg width="340pt" height="88pt"
 viewBox="0.00 0.00 340.00 88.00" xmlns="http://www.w3.org/2000/svg" xmlns:xlink="http://www.w3.org/1999/xlink">
<g id="graph0" class="graph" transform="scale(1 1) rotate(0) translate(4 84)">
<title>Ra::Core::Geometry::TopologicalMesh::clearAllProps</title>
<polygon fill="white" stroke="none" points="-4,4 -4,-84 336,-84 336,4 -4,4"/>
<!-- Node1 -->
<g id="node1" class="node"><title>Node1</title>
<polygon fill="#bfbfbf" stroke="black" points="0,-19 0,-60 140,-60 140,-19 0,-19"/>
<text text-anchor="start" x="8" y="-48" font-family="Helvetica,sans-Serif" font-size="10.00">Ra::Core::Geometry</text>
<text text-anchor="start" x="8" y="-37" font-family="Helvetica,sans-Serif" font-size="10.00">::TopologicalMesh::clearAll</text>
<text text-anchor="middle" x="70" y="-26" font-family="Helvetica,sans-Serif" font-size="10.00">Props</text>
</g>
<!-- Node2 -->
<g id="node2" class="node"><title>Node2</title>
<g id="a_node2"><a xlink:href="classRa_1_1Core_1_1Geometry_1_1TopologicalMesh.html#a76b0728d1d802f0fff43b7006bacdcb0" target="_top" xlink:title="Remove face property prop from mesh. ">
<polygon fill="white" stroke="black" points="178.5,-49.5 178.5,-79.5 329.5,-79.5 329.5,-49.5 178.5,-49.5"/>
<text text-anchor="start" x="186.5" y="-67.5" font-family="Helvetica,sans-Serif" font-size="10.00">Ra::Core::Geometry</text>
<text text-anchor="middle" x="254" y="-56.5" font-family="Helvetica,sans-Serif" font-size="10.00">::TopologicalMesh::clearProp</text>
</a>
</g>
</g>
<!-- Node1&#45;&gt;Node2 -->
<g id="edge1" class="edge"><title>Node1&#45;&gt;Node2</title>
<path fill="none" stroke="midnightblue" d="M140.066,-48.9871C149.223,-50.2449 158.695,-51.5461 168.081,-52.8353"/>
<polygon fill="midnightblue" stroke="midnightblue" points="167.829,-56.3335 178.212,-54.227 168.782,-49.3986 167.829,-56.3335"/>
</g>
<!-- Node3 -->
<g id="node3" class="node"><title>Node3</title>
<g id="a_node3"><a xlink:href="classRa_1_1Core_1_1Geometry_1_1TopologicalMesh.html#a6e3bf667f2f8402d23e9ffe0edaba7f8" target="_top" xlink:title="Remove props from mesh. ">
<polygon fill="white" stroke="black" points="176,-0.5 176,-30.5 332,-30.5 332,-0.5 176,-0.5"/>
<text text-anchor="start" x="184" y="-18.5" font-family="Helvetica,sans-Serif" font-size="10.00">Ra::Core::Geometry</text>
<text text-anchor="middle" x="254" y="-7.5" font-family="Helvetica,sans-Serif" font-size="10.00">::TopologicalMesh::clearProps</text>
</a>
</g>
</g>
<!-- Node1&#45;&gt;Node3 -->
<g id="edge2" class="edge"><title>Node1&#45;&gt;Node3</title>
<path fill="none" stroke="midnightblue" d="M140.066,-30.3924C148.45,-29.2868 157.098,-28.1464 165.702,-27.0118"/>
<polygon fill="midnightblue" stroke="midnightblue" points="166.308,-30.4624 175.764,-25.685 165.392,-23.5224 166.308,-30.4624"/>
</g>
</g>
</svg>
