<?xml version="1.0" encoding="UTF-8" standalone="no"?>
<!DOCTYPE svg PUBLIC "-//W3C//DTD SVG 1.1//EN"
 "http://www.w3.org/Graphics/SVG/1.1/DTD/svg11.dtd">
<!-- Generated by graphviz version 2.38.0 (20140413.2041)
 -->
<!-- Title: Ra::Core::Geometry::QuadraSpline::fdf Pages: 1 -->
<svg width="432pt" height="137pt"
 viewBox="0.00 0.00 432.00 137.00" xmlns="http://www.w3.org/2000/svg" xmlns:xlink="http://www.w3.org/1999/xlink">
<g id="graph0" class="graph" transform="scale(1 1) rotate(0) translate(4 133)">
<title>Ra::Core::Geometry::QuadraSpline::fdf</title>
<polygon fill="white" stroke="none" points="-4,4 -4,-133 428,-133 428,4 -4,4"/>
<!-- Node1 -->
<g id="node1" class="node"><title>Node1</title>
<polygon fill="#bfbfbf" stroke="black" points="0,-49.5 0,-79.5 111,-79.5 111,-49.5 0,-49.5"/>
<text text-anchor="start" x="8" y="-67.5" font-family="Helvetica,sans-Serif" font-size="10.00">Ra::Core::Geometry</text>
<text text-anchor="middle" x="55.5" y="-56.5" font-family="Helvetica,sans-Serif" font-size="10.00">::QuadraSpline::fdf</text>
</g>
<!-- Node2 -->
<g id="node2" class="node"><title>Node2</title>
<g id="a_node2"><a xlink:href="classRa_1_1Core_1_1Geometry_1_1Spline.html#aa9b2549bafa3c74c109c6e4dfc8b90b2" target="_top" xlink:title="Set the position of the spline control points. ">
<polygon fill="white" stroke="black" points="147,-98.5 147,-128.5 266,-128.5 266,-98.5 147,-98.5"/>
<text text-anchor="start" x="155" y="-116.5" font-family="Helvetica,sans-Serif" font-size="10.00">Ra::Core::Geometry</text>
<text text-anchor="middle" x="206.5" y="-105.5" font-family="Helvetica,sans-Serif" font-size="10.00">::Spline::setCtrlPoints</text>
</a>
</g>
</g>
<!-- Node1&#45;&gt;Node2 -->
<g id="edge1" class="edge"><title>Node1&#45;&gt;Node2</title>
<path fill="none" stroke="midnightblue" d="M102.421,-79.6014C117.503,-84.5615 134.428,-90.1274 150.136,-95.2929"/>
<polygon fill="midnightblue" stroke="midnightblue" points="149.138,-98.6492 159.731,-98.4484 151.325,-91.9995 149.138,-98.6492"/>
</g>
<!-- Node3 -->
<g id="node3" class="node"><title>Node3</title>
<g id="a_node3"><a xlink:href="classRa_1_1Core_1_1Geometry_1_1Spline.html#a2dd44487e160b8180abf0305b8f051f4" target="_top" xlink:title="Evaluate speed of the spline. ">
<polygon fill="white" stroke="black" points="151,-49.5 151,-79.5 262,-79.5 262,-49.5 151,-49.5"/>
<text text-anchor="start" x="159" y="-67.5" font-family="Helvetica,sans-Serif" font-size="10.00">Ra::Core::Geometry</text>
<text text-anchor="middle" x="206.5" y="-56.5" font-family="Helvetica,sans-Serif" font-size="10.00">::Spline::df</text>
</a>
</g>
</g>
<!-- Node1&#45;&gt;Node3 -->
<g id="edge2" class="edge"><title>Node1&#45;&gt;Node3</title>
<path fill="none" stroke="midnightblue" d="M111.136,-64.5C120.752,-64.5 130.845,-64.5 140.707,-64.5"/>
<polygon fill="midnightblue" stroke="midnightblue" points="140.871,-68.0001 150.871,-64.5 140.871,-61.0001 140.871,-68.0001"/>
</g>
<!-- Node5 -->
<g id="node5" class="node"><title>Node5</title>
<g id="a_node5"><a xlink:href="classRa_1_1Core_1_1Geometry_1_1Spline.html#ab99f4b66c93ef11fb323721f5c91c107" target="_top" xlink:title="Evaluate position of the spline. ">
<polygon fill="white" stroke="black" points="151,-0.5 151,-30.5 262,-30.5 262,-0.5 151,-0.5"/>
<text text-anchor="start" x="159" y="-18.5" font-family="Helvetica,sans-Serif" font-size="10.00">Ra::Core::Geometry</text>
<text text-anchor="middle" x="206.5" y="-7.5" font-family="Helvetica,sans-Serif" font-size="10.00">::Spline::f</text>
</a>
</g>
</g>
<!-- Node1&#45;&gt;Node5 -->
<g id="edge4" class="edge"><title>Node1&#45;&gt;Node5</title>
<path fill="none" stroke="midnightblue" d="M102.421,-49.3986C117.503,-44.4385 134.428,-38.8726 150.136,-33.7071"/>
<polygon fill="midnightblue" stroke="midnightblue" points="151.325,-37.0005 159.731,-30.5516 149.138,-30.3508 151.325,-37.0005"/>
</g>
<!-- Node4 -->
<g id="node4" class="node"><title>Node4</title>
<g id="a_node4"><a xlink:href="namespaceRa_1_1Core_1_1Math.html#a43a856c00d750c5f5c28f362b5df8664" target="_top" xlink:title="Returns value v clamped between bounds min and max. ">
<polygon fill="white" stroke="black" points="302,-30 302,-49 424,-49 424,-30 302,-30"/>
<text text-anchor="middle" x="363" y="-37" font-family="Helvetica,sans-Serif" font-size="10.00">Ra::Core::Math::clamp</text>
</a>
</g>
</g>
<!-- Node3&#45;&gt;Node4 -->
<g id="edge3" class="edge"><title>Node3&#45;&gt;Node4</title>
<path fill="none" stroke="midnightblue" d="M262.406,-55.6155C272.294,-54.0156 282.716,-52.3292 292.944,-50.6741"/>
<polygon fill="midnightblue" stroke="midnightblue" points="293.768,-54.0864 303.081,-49.0339 292.65,-47.1763 293.768,-54.0864"/>
</g>
<!-- Node5&#45;&gt;Node4 -->
<g id="edge5" class="edge"><title>Node5&#45;&gt;Node4</title>
<path fill="none" stroke="midnightblue" d="M262.406,-24.0291C271.869,-25.499 281.821,-27.045 291.624,-28.5679"/>
<polygon fill="midnightblue" stroke="midnightblue" points="291.341,-32.0658 301.76,-30.1423 292.416,-25.1487 291.341,-32.0658"/>
</g>
</g>
</svg>
