<?xml version="1.0" encoding="UTF-8" standalone="no"?>
<!DOCTYPE svg PUBLIC "-//W3C//DTD SVG 1.1//EN"
 "http://www.w3.org/Graphics/SVG/1.1/DTD/svg11.dtd">
<!-- Generated by graphviz version 2.38.0 (20140413.2041)
 -->
<!-- Title: Ra::IO::AssimpAnimationDataLoader::loadData Pages: 1 -->
<svg width="950pt" height="617pt"
 viewBox="0.00 0.00 950.00 617.00" xmlns="http://www.w3.org/2000/svg" xmlns:xlink="http://www.w3.org/1999/xlink">
<g id="graph0" class="graph" transform="scale(1 1) rotate(0) translate(4 613)">
<title>Ra::IO::AssimpAnimationDataLoader::loadData</title>
<polygon fill="white" stroke="none" points="-4,4 -4,-613 946,-613 946,4 -4,4"/>
<!-- Node1 -->
<g id="node1" class="node"><title>Node1</title>
<polygon fill="#bfbfbf" stroke="black" points="0,-464.5 0,-494.5 158,-494.5 158,-464.5 0,-464.5"/>
<text text-anchor="start" x="8" y="-482.5" font-family="Helvetica,sans-Serif" font-size="10.00">Ra::IO::AssimpAnimationData</text>
<text text-anchor="middle" x="79" y="-471.5" font-family="Helvetica,sans-Serif" font-size="10.00">Loader::loadData</text>
</g>
<!-- Node2 -->
<g id="node2" class="node"><title>Node2</title>
<g id="a_node2"><a xlink:href="classRa_1_1IO_1_1AssimpAnimationDataLoader.html#a055e8ed9642a4a6131e6342e0855ef2b" target="_top" xlink:title="QUERY. ">
<polygon fill="white" stroke="black" points="194,-501.5 194,-531.5 352,-531.5 352,-501.5 194,-501.5"/>
<text text-anchor="start" x="202" y="-519.5" font-family="Helvetica,sans-Serif" font-size="10.00">Ra::IO::AssimpAnimationData</text>
<text text-anchor="middle" x="273" y="-508.5" font-family="Helvetica,sans-Serif" font-size="10.00">Loader::sceneHasAnimation</text>
</a>
</g>
</g>
<!-- Node1&#45;&gt;Node2 -->
<g id="edge1" class="edge"><title>Node1&#45;&gt;Node2</title>
<path fill="none" stroke="midnightblue" d="M158.094,-494.549C166.601,-496.189 175.302,-497.865 183.918,-499.526"/>
<polygon fill="midnightblue" stroke="midnightblue" points="183.494,-503.008 193.975,-501.464 184.818,-496.135 183.494,-503.008"/>
</g>
<!-- Node4 -->
<g id="node4" class="node"><title>Node4</title>
<g id="a_node4"><a xlink:href="classRa_1_1IO_1_1AssimpAnimationDataLoader.html#a77e8abfd38e758c5f75c3419f0c6beb1" target="_top" xlink:title="KEY FRAME. ">
<polygon fill="white" stroke="black" points="194,-428.5 194,-458.5 352,-458.5 352,-428.5 194,-428.5"/>
<text text-anchor="start" x="202" y="-446.5" font-family="Helvetica,sans-Serif" font-size="10.00">Ra::IO::AssimpAnimationData</text>
<text text-anchor="middle" x="273" y="-435.5" font-family="Helvetica,sans-Serif" font-size="10.00">Loader::loadAnimationData</text>
</a>
</g>
</g>
<!-- Node1&#45;&gt;Node4 -->
<g id="edge3" class="edge"><title>Node1&#45;&gt;Node4</title>
<path fill="none" stroke="midnightblue" d="M158.094,-464.857C166.601,-463.262 175.302,-461.631 183.918,-460.015"/>
<polygon fill="midnightblue" stroke="midnightblue" points="184.792,-463.413 193.975,-458.13 183.502,-456.533 184.792,-463.413"/>
</g>
<!-- Node3 -->
<g id="node3" class="node"><title>Node3</title>
<g id="a_node3"><a xlink:href="classRa_1_1IO_1_1AssimpAnimationDataLoader.html#ab0bc77b937a09f8e770b8826d526f980" target="_top" xlink:title="Ra::IO::AssimpAnimationData\lLoader::sceneAnimationSize">
<polygon fill="white" stroke="black" points="388,-514.5 388,-544.5 546,-544.5 546,-514.5 388,-514.5"/>
<text text-anchor="start" x="396" y="-532.5" font-family="Helvetica,sans-Serif" font-size="10.00">Ra::IO::AssimpAnimationData</text>
<text text-anchor="middle" x="467" y="-521.5" font-family="Helvetica,sans-Serif" font-size="10.00">Loader::sceneAnimationSize</text>
</a>
</g>
</g>
<!-- Node2&#45;&gt;Node3 -->
<g id="edge2" class="edge"><title>Node2&#45;&gt;Node3</title>
<path fill="none" stroke="midnightblue" d="M352.094,-521.788C360.601,-522.364 369.302,-522.953 377.918,-523.536"/>
<polygon fill="midnightblue" stroke="midnightblue" points="377.762,-527.033 387.975,-524.217 378.235,-520.049 377.762,-527.033"/>
</g>
<!-- Node4&#45;&gt;Node3 -->
<g id="edge4" class="edge"><title>Node4&#45;&gt;Node3</title>
<path fill="none" stroke="midnightblue" d="M298.202,-458.512C320.811,-472.084 355.813,-491.956 388,-505.5 392.695,-507.476 397.61,-509.37 402.59,-511.166"/>
<polygon fill="midnightblue" stroke="midnightblue" points="401.613,-514.532 412.207,-514.497 403.903,-507.917 401.613,-514.532"/>
</g>
<!-- Node5 -->
<g id="node5" class="node"><title>Node5</title>
<g id="a_node5"><a xlink:href="classRa_1_1IO_1_1AssimpAnimationDataLoader.html#a3fd820ed40bc590ce8eacb14906ac624" target="_top" xlink:title="NAME. ">
<polygon fill="white" stroke="black" points="388,-465.5 388,-495.5 546,-495.5 546,-465.5 388,-465.5"/>
<text text-anchor="start" x="396" y="-483.5" font-family="Helvetica,sans-Serif" font-size="10.00">Ra::IO::AssimpAnimationData</text>
<text text-anchor="middle" x="467" y="-472.5" font-family="Helvetica,sans-Serif" font-size="10.00">Loader::fetchName</text>
</a>
</g>
</g>
<!-- Node4&#45;&gt;Node5 -->
<g id="edge5" class="edge"><title>Node4&#45;&gt;Node5</title>
<path fill="none" stroke="midnightblue" d="M352.094,-458.549C360.601,-460.189 369.302,-461.865 377.918,-463.526"/>
<polygon fill="midnightblue" stroke="midnightblue" points="377.494,-467.008 387.975,-465.464 378.818,-460.135 377.494,-467.008"/>
</g>
<!-- Node8 -->
<g id="node8" class="node"><title>Node8</title>
<g id="a_node8"><a xlink:href="classRa_1_1IO_1_1AssimpAnimationDataLoader.html#a964ac458da2d4db7e5f33dc756bac339" target="_top" xlink:title="TIME. ">
<polygon fill="white" stroke="black" points="388,-416.5 388,-446.5 546,-446.5 546,-416.5 388,-416.5"/>
<text text-anchor="start" x="396" y="-434.5" font-family="Helvetica,sans-Serif" font-size="10.00">Ra::IO::AssimpAnimationData</text>
<text text-anchor="middle" x="467" y="-423.5" font-family="Helvetica,sans-Serif" font-size="10.00">Loader::fetchTime</text>
</a>
</g>
</g>
<!-- Node4&#45;&gt;Node8 -->
<g id="edge8" class="edge"><title>Node4&#45;&gt;Node8</title>
<path fill="none" stroke="midnightblue" d="M352.094,-438.619C360.601,-438.087 369.302,-437.544 377.918,-437.005"/>
<polygon fill="midnightblue" stroke="midnightblue" points="378.213,-440.494 387.975,-436.377 377.777,-433.507 378.213,-440.494"/>
</g>
<!-- Node13 -->
<g id="node13" class="node"><title>Node13</title>
<g id="a_node13"><a xlink:href="classRa_1_1IO_1_1AssimpAnimationDataLoader.html#a0bace18eef188d039521472210513e80" target="_top" xlink:title="Ra::IO::AssimpAnimationData\lLoader::fetchAnimation">
<polygon fill="white" stroke="black" points="388,-245.5 388,-275.5 546,-275.5 546,-245.5 388,-245.5"/>
<text text-anchor="start" x="396" y="-263.5" font-family="Helvetica,sans-Serif" font-size="10.00">Ra::IO::AssimpAnimationData</text>
<text text-anchor="middle" x="467" y="-252.5" font-family="Helvetica,sans-Serif" font-size="10.00">Loader::fetchAnimation</text>
</a>
</g>
</g>
<!-- Node4&#45;&gt;Node13 -->
<g id="edge13" class="edge"><title>Node4&#45;&gt;Node13</title>
<path fill="none" stroke="midnightblue" d="M290.04,-428.212C324.006,-395.838 403.307,-320.254 442.799,-282.614"/>
<polygon fill="midnightblue" stroke="midnightblue" points="445.317,-285.048 450.141,-275.616 440.488,-279.981 445.317,-285.048"/>
</g>
<!-- Node23 -->
<g id="node23" class="node"><title>Node23</title>
<g id="a_node23"><a xlink:href="classRa_1_1Core_1_1Asset_1_1AnimationData.html#a582bb3679315ce1bb32b7b3ba71ff15a" target="_top" xlink:title="DEBUG. ">
<polygon fill="white" stroke="black" points="394.5,-49.5 394.5,-79.5 539.5,-79.5 539.5,-49.5 394.5,-49.5"/>
<text text-anchor="start" x="402.5" y="-67.5" font-family="Helvetica,sans-Serif" font-size="10.00">Ra::Core::Asset::Animation</text>
<text text-anchor="middle" x="467" y="-56.5" font-family="Helvetica,sans-Serif" font-size="10.00">Data::displayInfo</text>
</a>
</g>
</g>
<!-- Node4&#45;&gt;Node23 -->
<g id="edge25" class="edge"><title>Node4&#45;&gt;Node23</title>
<path fill="none" stroke="midnightblue" d="M281.764,-428.173C311.381,-369.712 417.403,-160.428 453.705,-88.7699"/>
<polygon fill="midnightblue" stroke="midnightblue" points="456.952,-90.1045 458.349,-79.6021 450.708,-86.941 456.952,-90.1045"/>
</g>
<!-- Node6 -->
<g id="node6" class="node"><title>Node6</title>
<g id="a_node6"><a xlink:href="classRa_1_1Core_1_1Asset_1_1AnimationData.html#ad73e13ac16296d39c830255b0a5888a3" target="_top" xlink:title="NAME. ">
<polygon fill="white" stroke="black" points="590.5,-578.5 590.5,-608.5 735.5,-608.5 735.5,-578.5 590.5,-578.5"/>
<text text-anchor="start" x="598.5" y="-596.5" font-family="Helvetica,sans-Serif" font-size="10.00">Ra::Core::Asset::Animation</text>
<text text-anchor="middle" x="663" y="-585.5" font-family="Helvetica,sans-Serif" font-size="10.00">Data::setName</text>
</a>
</g>
</g>
<!-- Node5&#45;&gt;Node6 -->
<g id="edge6" class="edge"><title>Node5&#45;&gt;Node6</title>
<path fill="none" stroke="midnightblue" d="M529.732,-495.618C535.527,-498.385 541.068,-501.65 546,-505.5 569.917,-524.167 558.544,-544.257 582,-563.5 586.817,-567.451 592.206,-570.914 597.851,-573.941"/>
<polygon fill="midnightblue" stroke="midnightblue" points="596.363,-577.11 606.886,-578.348 599.432,-570.818 596.363,-577.11"/>
</g>
<!-- Node7 -->
<g id="node7" class="node"><title>Node7</title>
<g id="a_node7"><a xlink:href="namespaceRa_1_1IO.html#aef6c50424873964fcea0008be55d4a34" target="_top" xlink:title="Ra::IO::assimpToCore">
<polygon fill="white" stroke="black" points="802.5,-454 802.5,-473 919.5,-473 919.5,-454 802.5,-454"/>
<text text-anchor="middle" x="861" y="-461" font-family="Helvetica,sans-Serif" font-size="10.00">Ra::IO::assimpToCore</text>
</a>
</g>
</g>
<!-- Node5&#45;&gt;Node7 -->
<g id="edge7" class="edge"><title>Node5&#45;&gt;Node7</title>
<path fill="none" stroke="midnightblue" d="M522.116,-495.53C530.278,-498.456 538.477,-501.786 546,-505.5 563.467,-514.123 563.411,-524.678 582,-530.5 650.709,-552.018 674.455,-549.141 744,-530.5 780.92,-520.604 818.247,-495.798 840.24,-479.307"/>
<polygon fill="midnightblue" stroke="midnightblue" points="842.62,-481.892 848.417,-473.024 838.355,-476.342 842.62,-481.892"/>
</g>
<!-- Node9 -->
<g id="node9" class="node"><title>Node9</title>
<g id="a_node9"><a xlink:href="classRa_1_1Core_1_1Animation_1_1AnimationTime.html#a4bf7c5506fe62e4bfcb26d49391d4bb8" target="_top" xlink:title="Ra::Core::Animation\l::AnimationTime::setStart">
<polygon fill="white" stroke="black" points="593,-490.5 593,-520.5 733,-520.5 733,-490.5 593,-490.5"/>
<text text-anchor="start" x="601" y="-508.5" font-family="Helvetica,sans-Serif" font-size="10.00">Ra::Core::Animation</text>
<text text-anchor="middle" x="663" y="-497.5" font-family="Helvetica,sans-Serif" font-size="10.00">::AnimationTime::setStart</text>
</a>
</g>
</g>
<!-- Node8&#45;&gt;Node9 -->
<g id="edge9" class="edge"><title>Node8&#45;&gt;Node9</title>
<path fill="none" stroke="midnightblue" d="M522.116,-446.53C530.278,-449.456 538.477,-452.786 546,-456.5 563.467,-465.123 564.453,-473.041 582,-481.5 586.002,-483.429 590.192,-485.241 594.468,-486.935"/>
<polygon fill="midnightblue" stroke="midnightblue" points="593.333,-490.247 603.926,-490.456 595.776,-483.687 593.333,-490.247"/>
</g>
<!-- Node10 -->
<g id="node10" class="node"><title>Node10</title>
<g id="a_node10"><a xlink:href="classRa_1_1Core_1_1Animation_1_1AnimationTime.html#a580eb83650065fd51d318abb4c79b563" target="_top" xlink:title="Ra::Core::Animation\l::AnimationTime::setEnd">
<polygon fill="white" stroke="black" points="596,-441.5 596,-471.5 730,-471.5 730,-441.5 596,-441.5"/>
<text text-anchor="start" x="604" y="-459.5" font-family="Helvetica,sans-Serif" font-size="10.00">Ra::Core::Animation</text>
<text text-anchor="middle" x="663" y="-448.5" font-family="Helvetica,sans-Serif" font-size="10.00">::AnimationTime::setEnd</text>
</a>
</g>
</g>
<!-- Node8&#45;&gt;Node10 -->
<g id="edge10" class="edge"><title>Node8&#45;&gt;Node10</title>
<path fill="none" stroke="midnightblue" d="M546.069,-441.56C559.112,-443.241 572.631,-444.983 585.631,-446.659"/>
<polygon fill="midnightblue" stroke="midnightblue" points="585.561,-450.178 595.926,-447.985 586.456,-443.236 585.561,-450.178"/>
</g>
<!-- Node11 -->
<g id="node11" class="node"><title>Node11</title>
<g id="a_node11"><a xlink:href="classRa_1_1Core_1_1Asset_1_1AnimationData.html#afa3d60833227971fb049197741da0126" target="_top" xlink:title="Ra::Core::Asset::Animation\lData::setTime">
<polygon fill="white" stroke="black" points="590.5,-343.5 590.5,-373.5 735.5,-373.5 735.5,-343.5 590.5,-343.5"/>
<text text-anchor="start" x="598.5" y="-361.5" font-family="Helvetica,sans-Serif" font-size="10.00">Ra::Core::Asset::Animation</text>
<text text-anchor="middle" x="663" y="-350.5" font-family="Helvetica,sans-Serif" font-size="10.00">Data::setTime</text>
</a>
</g>
</g>
<!-- Node8&#45;&gt;Node11 -->
<g id="edge11" class="edge"><title>Node8&#45;&gt;Node11</title>
<path fill="none" stroke="midnightblue" d="M500.526,-416.34C523.116,-406.103 554.061,-392.658 582,-382.5 587.5,-380.5 593.254,-378.535 599.046,-376.642"/>
<polygon fill="midnightblue" stroke="midnightblue" points="600.327,-379.907 608.79,-373.533 598.199,-373.239 600.327,-379.907"/>
</g>
<!-- Node12 -->
<g id="node12" class="node"><title>Node12</title>
<g id="a_node12"><a xlink:href="classRa_1_1Core_1_1Asset_1_1AnimationData.html#a830222af692dea0d510274b8537618f0" target="_top" xlink:title="Ra::Core::Asset::Animation\lData::setTimeStep">
<polygon fill="white" stroke="black" points="590.5,-392.5 590.5,-422.5 735.5,-422.5 735.5,-392.5 590.5,-392.5"/>
<text text-anchor="start" x="598.5" y="-410.5" font-family="Helvetica,sans-Serif" font-size="10.00">Ra::Core::Asset::Animation</text>
<text text-anchor="middle" x="663" y="-399.5" font-family="Helvetica,sans-Serif" font-size="10.00">Data::setTimeStep</text>
</a>
</g>
</g>
<!-- Node8&#45;&gt;Node12 -->
<g id="edge12" class="edge"><title>Node8&#45;&gt;Node12</title>
<path fill="none" stroke="midnightblue" d="M546.069,-421.842C557.274,-420.456 568.829,-419.026 580.106,-417.631"/>
<polygon fill="midnightblue" stroke="midnightblue" points="580.87,-421.063 590.365,-416.362 580.011,-414.116 580.87,-421.063"/>
</g>
<!-- Node13&#45;&gt;Node11 -->
<g id="edge24" class="edge"><title>Node13&#45;&gt;Node11</title>
<path fill="none" stroke="midnightblue" d="M488.052,-275.698C510.106,-291.836 547.067,-317.215 582,-333.5 586.946,-335.806 592.159,-337.972 597.456,-339.991"/>
<polygon fill="midnightblue" stroke="midnightblue" points="596.445,-343.347 607.039,-343.463 598.83,-336.766 596.445,-343.347"/>
</g>
<!-- Node14 -->
<g id="node14" class="node"><title>Node14</title>
<g id="a_node14"><a xlink:href="classRa_1_1Core_1_1Asset_1_1AnimationData.html#afade14c5f9df05a906c54e6b76c501a0" target="_top" xlink:title="TIME. ">
<polygon fill="white" stroke="black" points="590.5,-294.5 590.5,-324.5 735.5,-324.5 735.5,-294.5 590.5,-294.5"/>
<text text-anchor="start" x="598.5" y="-312.5" font-family="Helvetica,sans-Serif" font-size="10.00">Ra::Core::Asset::Animation</text>
<text text-anchor="middle" x="663" y="-301.5" font-family="Helvetica,sans-Serif" font-size="10.00">Data::getTime</text>
</a>
</g>
</g>
<!-- Node13&#45;&gt;Node14 -->
<g id="edge14" class="edge"><title>Node13&#45;&gt;Node14</title>
<path fill="none" stroke="midnightblue" d="M527.525,-275.535C548.102,-280.732 571.337,-286.601 592.634,-291.98"/>
<polygon fill="midnightblue" stroke="midnightblue" points="592.035,-295.438 602.588,-294.494 593.749,-288.651 592.035,-295.438"/>
</g>
<!-- Node15 -->
<g id="node15" class="node"><title>Node15</title>
<g id="a_node15"><a xlink:href="classRa_1_1IO_1_1AssimpAnimationDataLoader.html#a655e07ef5d8d52ced4e7ae0f369f6621" target="_top" xlink:title="Ra::IO::AssimpAnimationData\lLoader::fetchHandleAnimation">
<polygon fill="white" stroke="black" points="582,-245.5 582,-275.5 744,-275.5 744,-245.5 582,-245.5"/>
<text text-anchor="start" x="590" y="-263.5" font-family="Helvetica,sans-Serif" font-size="10.00">Ra::IO::AssimpAnimationData</text>
<text text-anchor="middle" x="663" y="-252.5" font-family="Helvetica,sans-Serif" font-size="10.00">Loader::fetchHandleAnimation</text>
</a>
</g>
</g>
<!-- Node13&#45;&gt;Node15 -->
<g id="edge15" class="edge"><title>Node13&#45;&gt;Node15</title>
<path fill="none" stroke="midnightblue" d="M546.069,-260.5C554.544,-260.5 563.221,-260.5 571.825,-260.5"/>
<polygon fill="midnightblue" stroke="midnightblue" points="571.876,-264 581.876,-260.5 571.876,-257 571.876,-264"/>
</g>
<!-- Node20 -->
<g id="node20" class="node"><title>Node20</title>
<g id="a_node20"><a xlink:href="classRa_1_1Core_1_1Asset_1_1AnimationData.html#a23328ee1414fb8448ad645094d192e9b" target="_top" xlink:title="Ra::Core::Asset::Animation\lData::getTimeStep">
<polygon fill="white" stroke="black" points="590.5,-196.5 590.5,-226.5 735.5,-226.5 735.5,-196.5 590.5,-196.5"/>
<text text-anchor="start" x="598.5" y="-214.5" font-family="Helvetica,sans-Serif" font-size="10.00">Ra::Core::Asset::Animation</text>
<text text-anchor="middle" x="663" y="-203.5" font-family="Helvetica,sans-Serif" font-size="10.00">Data::getTimeStep</text>
</a>
</g>
</g>
<!-- Node13&#45;&gt;Node20 -->
<g id="edge21" class="edge"><title>Node13&#45;&gt;Node20</title>
<path fill="none" stroke="midnightblue" d="M527.525,-245.465C548.102,-240.268 571.337,-234.399 592.634,-229.02"/>
<polygon fill="midnightblue" stroke="midnightblue" points="593.749,-232.349 602.588,-226.506 592.035,-225.562 593.749,-232.349"/>
</g>
<!-- Node21 -->
<g id="node21" class="node"><title>Node21</title>
<g id="a_node21"><a xlink:href="classRa_1_1Core_1_1Animation_1_1AnimationTime.html#a36df32bef71eb889b59753012266bf27" target="_top" xlink:title="Ra::Core::Animation\l::AnimationTime::merge">
<polygon fill="white" stroke="black" points="597,-147.5 597,-177.5 729,-177.5 729,-147.5 597,-147.5"/>
<text text-anchor="start" x="605" y="-165.5" font-family="Helvetica,sans-Serif" font-size="10.00">Ra::Core::Animation</text>
<text text-anchor="middle" x="663" y="-154.5" font-family="Helvetica,sans-Serif" font-size="10.00">::AnimationTime::merge</text>
</a>
</g>
</g>
<!-- Node13&#45;&gt;Node21 -->
<g id="edge22" class="edge"><title>Node13&#45;&gt;Node21</title>
<path fill="none" stroke="midnightblue" d="M487.581,-245.297C509.525,-228.87 546.67,-202.858 582,-186.5 586.108,-184.598 590.404,-182.803 594.78,-181.117"/>
<polygon fill="midnightblue" stroke="midnightblue" points="596.247,-184.308 604.449,-177.602 593.855,-177.729 596.247,-184.308"/>
</g>
<!-- Node22 -->
<g id="node22" class="node"><title>Node22</title>
<g id="a_node22"><a xlink:href="classRa_1_1Core_1_1Asset_1_1AnimationData.html#a0e5c12649e21fc27a09540b23b06cfd4" target="_top" xlink:title="Ra::Core::Asset::Animation\lData::setFrames">
<polygon fill="white" stroke="black" points="590.5,-98.5 590.5,-128.5 735.5,-128.5 735.5,-98.5 590.5,-98.5"/>
<text text-anchor="start" x="598.5" y="-116.5" font-family="Helvetica,sans-Serif" font-size="10.00">Ra::Core::Asset::Animation</text>
<text text-anchor="middle" x="663" y="-105.5" font-family="Helvetica,sans-Serif" font-size="10.00">Data::setFrames</text>
</a>
</g>
</g>
<!-- Node13&#45;&gt;Node22 -->
<g id="edge23" class="edge"><title>Node13&#45;&gt;Node22</title>
<path fill="none" stroke="midnightblue" d="M478.025,-245.204C495.842,-219.217 535.548,-166.455 582,-137.5 584.769,-135.774 587.669,-134.166 590.656,-132.669"/>
<polygon fill="midnightblue" stroke="midnightblue" points="592.174,-135.823 599.832,-128.501 589.28,-129.45 592.174,-135.823"/>
</g>
<!-- Node15&#45;&gt;Node7 -->
<g id="edge18" class="edge"><title>Node15&#45;&gt;Node7</title>
<path fill="none" stroke="midnightblue" d="M730.497,-275.51C735.336,-278.052 739.913,-281.024 744,-284.5 771.862,-308.194 760.823,-327.356 780,-358.5 800.082,-391.114 828.039,-425.895 845.03,-446.114"/>
<polygon fill="midnightblue" stroke="midnightblue" points="842.446,-448.479 851.585,-453.839 847.784,-443.949 842.446,-448.479"/>
</g>
<!-- Node16 -->
<g id="node16" class="node"><title>Node16</title>
<g id="a_node16"><a xlink:href="classRa_1_1Core_1_1Animation_1_1KeyFrame.html#aeca1b8f8c3c59e2f48e79725ec6d6e16" target="_top" xlink:title="RESET. ">
<polygon fill="white" stroke="black" points="805,-319.5 805,-349.5 917,-349.5 917,-319.5 805,-319.5"/>
<text text-anchor="start" x="813" y="-337.5" font-family="Helvetica,sans-Serif" font-size="10.00">Ra::Core::Animation</text>
<text text-anchor="middle" x="861" y="-326.5" font-family="Helvetica,sans-Serif" font-size="10.00">::KeyFrame::reset</text>
</a>
</g>
</g>
<!-- Node15&#45;&gt;Node16 -->
<g id="edge16" class="edge"><title>Node15&#45;&gt;Node16</title>
<path fill="none" stroke="midnightblue" d="M722.074,-275.544C729.592,-278.178 737.077,-281.163 744,-284.5 761.547,-292.959 762.502,-300.941 780,-309.5 784.902,-311.898 790.084,-314.129 795.359,-316.192"/>
<polygon fill="midnightblue" stroke="midnightblue" points="794.322,-319.54 804.915,-319.723 796.748,-312.974 794.322,-319.54"/>
</g>
<!-- Node17 -->
<g id="node17" class="node"><title>Node17</title>
<g id="a_node17"><a xlink:href="classRa_1_1Core_1_1Animation_1_1KeyFrame.html#a86175e67c429b471659603f8a2514eef" target="_top" xlink:title="Ra::Core::Animation\l::KeyFrame::insertKeyFrame">
<polygon fill="white" stroke="black" points="786.5,-270.5 786.5,-300.5 935.5,-300.5 935.5,-270.5 786.5,-270.5"/>
<text text-anchor="start" x="794.5" y="-288.5" font-family="Helvetica,sans-Serif" font-size="10.00">Ra::Core::Animation</text>
<text text-anchor="middle" x="861" y="-277.5" font-family="Helvetica,sans-Serif" font-size="10.00">::KeyFrame::insertKeyFrame</text>
</a>
</g>
</g>
<!-- Node15&#45;&gt;Node17 -->
<g id="edge17" class="edge"><title>Node15&#45;&gt;Node17</title>
<path fill="none" stroke="midnightblue" d="M744.003,-270.705C754.592,-272.055 765.471,-273.443 776.122,-274.801"/>
<polygon fill="midnightblue" stroke="midnightblue" points="775.885,-278.299 786.248,-276.093 776.771,-271.356 775.885,-278.299"/>
</g>
<!-- Node18 -->
<g id="node18" class="node"><title>Node18</title>
<g id="a_node18"><a xlink:href="classRa_1_1Core_1_1Animation_1_1KeyFrame.html#af940695555c9d6f064dee70435f33519" target="_top" xlink:title="Ra::Core::Animation\l::KeyFrame::setAnimationTime">
<polygon fill="white" stroke="black" points="780,-221.5 780,-251.5 942,-251.5 942,-221.5 780,-221.5"/>
<text text-anchor="start" x="788" y="-239.5" font-family="Helvetica,sans-Serif" font-size="10.00">Ra::Core::Animation</text>
<text text-anchor="middle" x="861" y="-228.5" font-family="Helvetica,sans-Serif" font-size="10.00">::KeyFrame::setAnimationTime</text>
</a>
</g>
</g>
<!-- Node15&#45;&gt;Node18 -->
<g id="edge19" class="edge"><title>Node15&#45;&gt;Node18</title>
<path fill="none" stroke="midnightblue" d="M744.003,-250.704C752.524,-249.66 761.234,-248.594 769.861,-247.537"/>
<polygon fill="midnightblue" stroke="midnightblue" points="770.434,-250.993 779.935,-246.304 769.583,-244.045 770.434,-250.993"/>
</g>
<!-- Node19 -->
<g id="node19" class="node"><title>Node19</title>
<g id="a_node19"><a xlink:href="classRa_1_1Core_1_1Animation_1_1KeyFrame.html#a6081d34d6fcc0a83303da05c9416b20c" target="_top" xlink:title="Ra::Core::Animation\l::KeyFrame::at">
<polygon fill="white" stroke="black" points="805,-172.5 805,-202.5 917,-202.5 917,-172.5 805,-172.5"/>
<text text-anchor="start" x="813" y="-190.5" font-family="Helvetica,sans-Serif" font-size="10.00">Ra::Core::Animation</text>
<text text-anchor="middle" x="861" y="-179.5" font-family="Helvetica,sans-Serif" font-size="10.00">::KeyFrame::at</text>
</a>
</g>
</g>
<!-- Node15&#45;&gt;Node19 -->
<g id="edge20" class="edge"><title>Node15&#45;&gt;Node19</title>
<path fill="none" stroke="midnightblue" d="M719.447,-245.443C727.827,-242.521 736.253,-239.199 744,-235.5 761.353,-227.215 762.6,-219.686 780,-211.5 784.92,-209.185 790.116,-207.034 795.4,-205.047"/>
<polygon fill="midnightblue" stroke="midnightblue" points="796.715,-208.294 804.968,-201.65 794.373,-201.698 796.715,-208.294"/>
</g>
<!-- Node24 -->
<g id="node24" class="node"><title>Node24</title>
<g id="a_node24"><a xlink:href="classRa_1_1Core_1_1Animation_1_1AnimationTime.html#a80d2cce81cb79a38a8f8fdd0190551b4" target="_top" xlink:title="TIME. ">
<polygon fill="white" stroke="black" points="593,-49.5 593,-79.5 733,-79.5 733,-49.5 593,-49.5"/>
<text text-anchor="start" x="601" y="-67.5" font-family="Helvetica,sans-Serif" font-size="10.00">Ra::Core::Animation</text>
<text text-anchor="middle" x="663" y="-56.5" font-family="Helvetica,sans-Serif" font-size="10.00">::AnimationTime::getStart</text>
</a>
</g>
</g>
<!-- Node23&#45;&gt;Node24 -->
<g id="edge26" class="edge"><title>Node23&#45;&gt;Node24</title>
<path fill="none" stroke="midnightblue" d="M539.687,-64.5C553.671,-64.5 568.409,-64.5 582.625,-64.5"/>
<polygon fill="midnightblue" stroke="midnightblue" points="582.865,-68.0001 592.865,-64.5 582.865,-61.0001 582.865,-68.0001"/>
</g>
<!-- Node25 -->
<g id="node25" class="node"><title>Node25</title>
<g id="a_node25"><a xlink:href="classRa_1_1Core_1_1Animation_1_1AnimationTime.html#a4c2b58b32f70257b89a1a50a338a48cb" target="_top" xlink:title="Ra::Core::Animation\l::AnimationTime::getEnd">
<polygon fill="white" stroke="black" points="596,-0.5 596,-30.5 730,-30.5 730,-0.5 596,-0.5"/>
<text text-anchor="start" x="604" y="-18.5" font-family="Helvetica,sans-Serif" font-size="10.00">Ra::Core::Animation</text>
<text text-anchor="middle" x="663" y="-7.5" font-family="Helvetica,sans-Serif" font-size="10.00">::AnimationTime::getEnd</text>
</a>
</g>
</g>
<!-- Node23&#45;&gt;Node25 -->
<g id="edge27" class="edge"><title>Node23&#45;&gt;Node25</title>
<path fill="none" stroke="midnightblue" d="M527.525,-49.4654C548.102,-44.2682 571.337,-38.3994 592.634,-33.0204"/>
<polygon fill="midnightblue" stroke="midnightblue" points="593.749,-36.3486 602.588,-30.5062 592.035,-29.5617 593.749,-36.3486"/>
</g>
</g>
</svg>
