<?xml version="1.0" encoding="UTF-8" standalone="no"?>
<!DOCTYPE svg PUBLIC "-//W3C//DTD SVG 1.1//EN"
 "http://www.w3.org/Graphics/SVG/1.1/DTD/svg11.dtd">
<!-- Generated by graphviz version 2.38.0 (20140413.2041)
 -->
<!-- Title: Ra::Core::DualQuaternion::transform Pages: 1 -->
<svg width="499pt" height="103pt"
 viewBox="0.00 0.00 499.00 103.24" xmlns="http://www.w3.org/2000/svg" xmlns:xlink="http://www.w3.org/1999/xlink">
<g id="graph0" class="graph" transform="scale(1 1) rotate(0) translate(4 99.2357)">
<title>Ra::Core::DualQuaternion::transform</title>
<polygon fill="white" stroke="none" points="-4,4 -4,-99.2357 495,-99.2357 495,4 -4,4"/>
<!-- Node1 -->
<g id="node1" class="node"><title>Node1</title>
<polygon fill="#bfbfbf" stroke="black" points="0,-49.5 0,-79.5 138,-79.5 138,-49.5 0,-49.5"/>
<text text-anchor="start" x="8" y="-67.5" font-family="Helvetica,sans-Serif" font-size="10.00">Ra::Core::DualQuaternion</text>
<text text-anchor="middle" x="69" y="-56.5" font-family="Helvetica,sans-Serif" font-size="10.00">::transform</text>
</g>
<!-- Node2 -->
<g id="node2" class="node"><title>Node2</title>
<g id="a_node2"><a xlink:href="namespaceRa_1_1Core_1_1Math.html#af36b0dc40414af4cc329f037d428dada" target="_top" xlink:title="Returns true if |a &#45;b| &lt; eps. ">
<polygon fill="white" stroke="black" points="348,-46.5 348,-76.5 491,-76.5 491,-46.5 348,-46.5"/>
<text text-anchor="start" x="356" y="-64.5" font-family="Helvetica,sans-Serif" font-size="10.00">Ra::Core::Math::areApprox</text>
<text text-anchor="middle" x="419.5" y="-53.5" font-family="Helvetica,sans-Serif" font-size="10.00">Equal</text>
</a>
</g>
</g>
<!-- Node1&#45;&gt;Node2 -->
<g id="edge1" class="edge"><title>Node1&#45;&gt;Node2</title>
<path fill="none" stroke="midnightblue" d="M121.938,-79.5274C138.435,-83.6126 156.85,-87.4676 174,-89.5 234.907,-96.7178 251.173,-97.3625 312,-89.5 328.486,-87.369 346.06,-83.4553 362.08,-79.2157"/>
<polygon fill="midnightblue" stroke="midnightblue" points="363.11,-82.5628 371.831,-76.5469 361.262,-75.8111 363.11,-82.5628"/>
</g>
<!-- Node3 -->
<g id="node3" class="node"><title>Node3</title>
<g id="a_node3"><a xlink:href="classRa_1_1Core_1_1DualQuaternion.html#ac7b44ebcec6435ede7183b59585e61bf" target="_top" xlink:title="Apply only the translational part of the dual quaternion to the given vector. ">
<polygon fill="white" stroke="black" points="174,-49.5 174,-79.5 312,-79.5 312,-49.5 174,-49.5"/>
<text text-anchor="start" x="182" y="-67.5" font-family="Helvetica,sans-Serif" font-size="10.00">Ra::Core::DualQuaternion</text>
<text text-anchor="middle" x="243" y="-56.5" font-family="Helvetica,sans-Serif" font-size="10.00">::translate</text>
</a>
</g>
</g>
<!-- Node1&#45;&gt;Node3 -->
<g id="edge2" class="edge"><title>Node1&#45;&gt;Node3</title>
<path fill="none" stroke="midnightblue" d="M138.473,-64.5C146.732,-64.5 155.216,-64.5 163.602,-64.5"/>
<polygon fill="midnightblue" stroke="midnightblue" points="163.762,-68.0001 173.762,-64.5 163.762,-61.0001 163.762,-68.0001"/>
</g>
<!-- Node4 -->
<g id="node4" class="node"><title>Node4</title>
<g id="a_node4"><a xlink:href="classRa_1_1Core_1_1DualQuaternion.html#adeb06a28fea639484f58da9a8a9ef217" target="_top" xlink:title="Apply only the rotational part of the dual quaternion to the given vector. ">
<polygon fill="white" stroke="black" points="174,-0.5 174,-30.5 312,-30.5 312,-0.5 174,-0.5"/>
<text text-anchor="start" x="182" y="-18.5" font-family="Helvetica,sans-Serif" font-size="10.00">Ra::Core::DualQuaternion</text>
<text text-anchor="middle" x="243" y="-7.5" font-family="Helvetica,sans-Serif" font-size="10.00">::rotate</text>
</a>
</g>
</g>
<!-- Node1&#45;&gt;Node4 -->
<g id="edge3" class="edge"><title>Node1&#45;&gt;Node4</title>
<path fill="none" stroke="midnightblue" d="M123.009,-49.3986C140.831,-44.3215 160.88,-38.6098 179.37,-33.3423"/>
<polygon fill="midnightblue" stroke="midnightblue" points="180.508,-36.6575 189.166,-30.5516 178.59,-29.9254 180.508,-36.6575"/>
</g>
<!-- Node4&#45;&gt;Node2 -->
<g id="edge4" class="edge"><title>Node4&#45;&gt;Node2</title>
<path fill="none" stroke="midnightblue" d="M301.138,-30.5621C317.34,-34.8333 335.122,-39.5207 351.835,-43.9265"/>
<polygon fill="midnightblue" stroke="midnightblue" points="350.97,-47.3179 361.532,-46.4826 352.754,-40.5492 350.97,-47.3179"/>
</g>
</g>
</svg>
