<?xml version="1.0" encoding="UTF-8" standalone="no"?>
<!DOCTYPE svg PUBLIC "-//W3C//DTD SVG 1.1//EN"
 "http://www.w3.org/Graphics/SVG/1.1/DTD/svg11.dtd">
<!-- Generated by graphviz version 2.38.0 (20140413.2041)
 -->
<!-- Title: Ra::Engine::Camera::project Pages: 1 -->
<svg width="402pt" height="88pt"
 viewBox="0.00 0.00 402.00 88.00" xmlns="http://www.w3.org/2000/svg" xmlns:xlink="http://www.w3.org/1999/xlink">
<g id="graph0" class="graph" transform="scale(1 1) rotate(0) translate(4 84)">
<title>Ra::Engine::Camera::project</title>
<polygon fill="white" stroke="none" points="-4,4 -4,-84 398,-84 398,4 -4,4"/>
<!-- Node1 -->
<g id="node1" class="node"><title>Node1</title>
<polygon fill="#bfbfbf" stroke="black" points="0,-24.5 0,-54.5 111,-54.5 111,-24.5 0,-24.5"/>
<text text-anchor="start" x="8" y="-42.5" font-family="Helvetica,sans-Serif" font-size="10.00">Ra::Engine::Camera</text>
<text text-anchor="middle" x="55.5" y="-31.5" font-family="Helvetica,sans-Serif" font-size="10.00">::project</text>
</g>
<!-- Node2 -->
<g id="node2" class="node"><title>Node2</title>
<g id="a_node2"><a xlink:href="classRa_1_1Engine_1_1Camera.html#adb545a4a1f889d63ce4fc9a41cdeef2a" target="_top" xlink:title="Return the projection matrix. ">
<polygon fill="white" stroke="black" points="147,-49.5 147,-79.5 258,-79.5 258,-49.5 147,-49.5"/>
<text text-anchor="start" x="155" y="-67.5" font-family="Helvetica,sans-Serif" font-size="10.00">Ra::Engine::Camera</text>
<text text-anchor="middle" x="202.5" y="-56.5" font-family="Helvetica,sans-Serif" font-size="10.00">::getProjMatrix</text>
</a>
</g>
</g>
<!-- Node1&#45;&gt;Node2 -->
<g id="edge1" class="edge"><title>Node1&#45;&gt;Node2</title>
<path fill="none" stroke="midnightblue" d="M111.318,-48.9514C119.619,-50.3826 128.249,-51.8705 136.735,-53.3337"/>
<polygon fill="midnightblue" stroke="midnightblue" points="136.155,-56.7852 146.604,-55.0352 137.344,-49.8869 136.155,-56.7852"/>
</g>
<!-- Node3 -->
<g id="node3" class="node"><title>Node3</title>
<g id="a_node3"><a xlink:href="classRa_1_1Engine_1_1Camera.html#a0940bfd2c92663f462aaf02138ec35f6" target="_top" xlink:title="Return the view matrix. ">
<polygon fill="white" stroke="black" points="147,-0.5 147,-30.5 258,-30.5 258,-0.5 147,-0.5"/>
<text text-anchor="start" x="155" y="-18.5" font-family="Helvetica,sans-Serif" font-size="10.00">Ra::Engine::Camera</text>
<text text-anchor="middle" x="202.5" y="-7.5" font-family="Helvetica,sans-Serif" font-size="10.00">::getViewMatrix</text>
</a>
</g>
</g>
<!-- Node1&#45;&gt;Node3 -->
<g id="edge2" class="edge"><title>Node1&#45;&gt;Node3</title>
<path fill="none" stroke="midnightblue" d="M111.318,-30.4266C119.619,-29.0528 128.249,-27.6244 136.735,-26.2197"/>
<polygon fill="midnightblue" stroke="midnightblue" points="137.31,-29.6723 146.604,-24.5862 136.167,-22.7662 137.31,-29.6723"/>
</g>
<!-- Node4 -->
<g id="node4" class="node"><title>Node4</title>
<g id="a_node4"><a xlink:href="classRa_1_1Engine_1_1Entity.html#adfcfb0c0eb4e1663cd66473e74d83aa3" target="_top" xlink:title="Ra::Engine::Entity\l::getTransform">
<polygon fill="white" stroke="black" points="294,-0.5 294,-30.5 394,-30.5 394,-0.5 294,-0.5"/>
<text text-anchor="start" x="302" y="-18.5" font-family="Helvetica,sans-Serif" font-size="10.00">Ra::Engine::Entity</text>
<text text-anchor="middle" x="344" y="-7.5" font-family="Helvetica,sans-Serif" font-size="10.00">::getTransform</text>
</a>
</g>
</g>
<!-- Node3&#45;&gt;Node4 -->
<g id="edge3" class="edge"><title>Node3&#45;&gt;Node4</title>
<path fill="none" stroke="midnightblue" d="M258.234,-15.5C266.591,-15.5 275.25,-15.5 283.7,-15.5"/>
<polygon fill="midnightblue" stroke="midnightblue" points="283.868,-19.0001 293.868,-15.5 283.868,-12.0001 283.868,-19.0001"/>
</g>
</g>
</svg>
