<?xml version="1.0" encoding="UTF-8" standalone="no"?>
<!DOCTYPE svg PUBLIC "-//W3C//DTD SVG 1.1//EN"
 "http://www.w3.org/Graphics/SVG/1.1/DTD/svg11.dtd">
<!-- Generated by graphviz version 2.38.0 (20140413.2041)
 -->
<!-- Title: Ra::IO::AssimpGeometryDataLoader::fetchType Pages: 1 -->
<svg width="345pt" height="39pt"
 viewBox="0.00 0.00 345.00 39.00" xmlns="http://www.w3.org/2000/svg" xmlns:xlink="http://www.w3.org/1999/xlink">
<g id="graph0" class="graph" transform="scale(1 1) rotate(0) translate(4 35)">
<title>Ra::IO::AssimpGeometryDataLoader::fetchType</title>
<polygon fill="white" stroke="none" points="-4,4 -4,-35 341,-35 341,4 -4,4"/>
<!-- Node1 -->
<g id="node1" class="node"><title>Node1</title>
<polygon fill="#bfbfbf" stroke="black" points="0,-0.5 0,-30.5 157,-30.5 157,-0.5 0,-0.5"/>
<text text-anchor="start" x="8" y="-18.5" font-family="Helvetica,sans-Serif" font-size="10.00">Ra::IO::AssimpGeometryData</text>
<text text-anchor="middle" x="78.5" y="-7.5" font-family="Helvetica,sans-Serif" font-size="10.00">Loader::fetchType</text>
</g>
<!-- Node2 -->
<g id="node2" class="node"><title>Node2</title>
<g id="a_node2"><a xlink:href="classRa_1_1Core_1_1Asset_1_1GeometryData.html#a7b0ddcd9c27162449300a1fd69b491a6" target="_top" xlink:title="Set the type of geometry. ">
<polygon fill="white" stroke="black" points="193,-0.5 193,-30.5 337,-30.5 337,-0.5 193,-0.5"/>
<text text-anchor="start" x="201" y="-18.5" font-family="Helvetica,sans-Serif" font-size="10.00">Ra::Core::Asset::Geometry</text>
<text text-anchor="middle" x="265" y="-7.5" font-family="Helvetica,sans-Serif" font-size="10.00">Data::setType</text>
</a>
</g>
</g>
<!-- Node1&#45;&gt;Node2 -->
<g id="edge1" class="edge"><title>Node1&#45;&gt;Node2</title>
<path fill="none" stroke="midnightblue" d="M157.21,-15.5C165.612,-15.5 174.178,-15.5 182.622,-15.5"/>
<polygon fill="midnightblue" stroke="midnightblue" points="182.841,-19.0001 192.841,-15.5 182.841,-12.0001 182.841,-19.0001"/>
</g>
</g>
</svg>
