<?xml version="1.0" encoding="UTF-8" standalone="no"?>
<!DOCTYPE svg PUBLIC "-//W3C//DTD SVG 1.1//EN"
 "http://www.w3.org/Graphics/SVG/1.1/DTD/svg11.dtd">
<!-- Generated by graphviz version 2.38.0 (20140413.2041)
 -->
<!-- Title: Ra::Core::Animation::Skeleton::size Pages: 1 -->
<svg width="596pt" height="333pt"
 viewBox="0.00 0.00 596.00 333.00" xmlns="http://www.w3.org/2000/svg" xmlns:xlink="http://www.w3.org/1999/xlink">
<g id="graph0" class="graph" transform="scale(1 1) rotate(0) translate(4 329)">
<title>Ra::Core::Animation::Skeleton::size</title>
<polygon fill="white" stroke="none" points="-4,4 -4,-329 592,-329 592,4 -4,4"/>
<!-- Node1 -->
<g id="node1" class="node"><title>Node1</title>
<polygon fill="#bfbfbf" stroke="black" points="0,-147.5 0,-177.5 112,-177.5 112,-147.5 0,-147.5"/>
<text text-anchor="start" x="8" y="-165.5" font-family="Helvetica,sans-Serif" font-size="10.00">Ra::Core::Animation</text>
<text text-anchor="middle" x="56" y="-154.5" font-family="Helvetica,sans-Serif" font-size="10.00">::Skeleton::size</text>
</g>
<!-- Node2 -->
<g id="node2" class="node"><title>Node2</title>
<g id="a_node2"><a xlink:href="namespaceRa_1_1Core_1_1Animation.html#a93d6305ed74ab59961969dce601714c2" target="_top" xlink:title="Ra::Core::Animation\l::operator\&lt;\&lt;">
<polygon fill="white" stroke="black" points="148,-147.5 148,-177.5 260,-177.5 260,-147.5 148,-147.5"/>
<text text-anchor="start" x="156" y="-165.5" font-family="Helvetica,sans-Serif" font-size="10.00">Ra::Core::Animation</text>
<text text-anchor="middle" x="204" y="-154.5" font-family="Helvetica,sans-Serif" font-size="10.00">::operator&lt;&lt;</text>
</a>
</g>
</g>
<!-- Node1&#45;&gt;Node2 -->
<g id="edge1" class="edge"><title>Node1&#45;&gt;Node2</title>
<path fill="none" stroke="midnightblue" d="M112.196,-155.932C120.463,-155.76 129.055,-155.71 137.51,-155.782"/>
<polygon fill="midnightblue" stroke="midnightblue" points="137.676,-159.285 147.726,-155.93 137.777,-152.285 137.676,-159.285"/>
</g>
<!-- Node2&#45;&gt;Node1 -->
<g id="edge2" class="edge"><title>Node2&#45;&gt;Node1</title>
<path fill="none" stroke="midnightblue" d="M147.726,-169.07C139.457,-169.241 130.865,-169.29 122.41,-169.217"/>
<polygon fill="midnightblue" stroke="midnightblue" points="122.246,-165.715 112.196,-169.068 122.144,-172.714 122.246,-165.715"/>
</g>
<!-- Node3 -->
<g id="node3" class="node"><title>Node3</title>
<g id="a_node3"><a xlink:href="classRa_1_1Core_1_1Animation_1_1Handle.html#af2c003e7a85469470d5591b019e8ab80" target="_top" xlink:title="Ra::Core::Animation\l::Handle::getLabel">
<polygon fill="white" stroke="black" points="304,-294.5 304,-324.5 416,-324.5 416,-294.5 304,-294.5"/>
<text text-anchor="start" x="312" y="-312.5" font-family="Helvetica,sans-Serif" font-size="10.00">Ra::Core::Animation</text>
<text text-anchor="middle" x="360" y="-301.5" font-family="Helvetica,sans-Serif" font-size="10.00">::Handle::getLabel</text>
</a>
</g>
</g>
<!-- Node2&#45;&gt;Node3 -->
<g id="edge3" class="edge"><title>Node2&#45;&gt;Node3</title>
<path fill="none" stroke="midnightblue" d="M212.429,-177.537C225.786,-203.133 256.212,-255.321 296,-285.5 297.818,-286.879 299.725,-288.188 301.697,-289.428"/>
<polygon fill="midnightblue" stroke="midnightblue" points="300.241,-292.623 310.679,-294.439 303.651,-286.51 300.241,-292.623"/>
</g>
<!-- Node5 -->
<g id="node5" class="node"><title>Node5</title>
<g id="a_node5"><a xlink:href="classRa_1_1Core_1_1AdjacencyList.html#a4e87e76f65f897cbe99d805b6cb35055" target="_top" xlink:title="Return true if a node is a root node. ">
<polygon fill="white" stroke="black" points="296,-245.5 296,-275.5 424,-275.5 424,-245.5 296,-245.5"/>
<text text-anchor="start" x="304" y="-263.5" font-family="Helvetica,sans-Serif" font-size="10.00">Ra::Core::AdjacencyList</text>
<text text-anchor="middle" x="360" y="-252.5" font-family="Helvetica,sans-Serif" font-size="10.00">::isRoot</text>
</a>
</g>
</g>
<!-- Node2&#45;&gt;Node5 -->
<g id="edge5" class="edge"><title>Node2&#45;&gt;Node5</title>
<path fill="none" stroke="midnightblue" d="M220.289,-177.538C237.507,-193.821 266.899,-219.708 296,-236.5 298.839,-238.138 301.81,-239.705 304.851,-241.196"/>
<polygon fill="midnightblue" stroke="midnightblue" points="303.571,-244.459 314.12,-245.441 306.485,-238.095 303.571,-244.459"/>
</g>
<!-- Node7 -->
<g id="node7" class="node"><title>Node7</title>
<g id="a_node7"><a xlink:href="classRa_1_1Core_1_1AdjacencyList.html#a37f39f4b1560b523a42ec3fb7187da2e" target="_top" xlink:title="Return true if the node is a joint node. ( |child| == 1 ) ">
<polygon fill="white" stroke="black" points="296,-196.5 296,-226.5 424,-226.5 424,-196.5 296,-196.5"/>
<text text-anchor="start" x="304" y="-214.5" font-family="Helvetica,sans-Serif" font-size="10.00">Ra::Core::AdjacencyList</text>
<text text-anchor="middle" x="360" y="-203.5" font-family="Helvetica,sans-Serif" font-size="10.00">::isJoint</text>
</a>
</g>
</g>
<!-- Node2&#45;&gt;Node7 -->
<g id="edge7" class="edge"><title>Node2&#45;&gt;Node7</title>
<path fill="none" stroke="midnightblue" d="M252.462,-177.601C268.05,-182.562 285.543,-188.127 301.778,-193.293"/>
<polygon fill="midnightblue" stroke="midnightblue" points="301.105,-196.752 311.695,-196.448 303.227,-190.081 301.105,-196.752"/>
</g>
<!-- Node8 -->
<g id="node8" class="node"><title>Node8</title>
<g id="a_node8"><a xlink:href="classRa_1_1Core_1_1AdjacencyList.html#a4ed5a37c628d3a1375f14f40bcd219e6" target="_top" xlink:title="Return true if the node is a branch node. ( |child| &gt; 1 ) ">
<polygon fill="white" stroke="black" points="296,-147.5 296,-177.5 424,-177.5 424,-147.5 296,-147.5"/>
<text text-anchor="start" x="304" y="-165.5" font-family="Helvetica,sans-Serif" font-size="10.00">Ra::Core::AdjacencyList</text>
<text text-anchor="middle" x="360" y="-154.5" font-family="Helvetica,sans-Serif" font-size="10.00">::isBranch</text>
</a>
</g>
</g>
<!-- Node2&#45;&gt;Node8 -->
<g id="edge9" class="edge"><title>Node2&#45;&gt;Node8</title>
<path fill="none" stroke="midnightblue" d="M260.163,-162.5C268.475,-162.5 277.157,-162.5 285.777,-162.5"/>
<polygon fill="midnightblue" stroke="midnightblue" points="285.84,-166 295.84,-162.5 285.84,-159 285.84,-166"/>
</g>
<!-- Node9 -->
<g id="node9" class="node"><title>Node9</title>
<g id="a_node9"><a xlink:href="classRa_1_1Core_1_1AdjacencyList.html#a068632657bfda6ab9034a879372a45e8" target="_top" xlink:title="Return true if the node is a leaf node. ">
<polygon fill="white" stroke="black" points="296,-98.5 296,-128.5 424,-128.5 424,-98.5 296,-98.5"/>
<text text-anchor="start" x="304" y="-116.5" font-family="Helvetica,sans-Serif" font-size="10.00">Ra::Core::AdjacencyList</text>
<text text-anchor="middle" x="360" y="-105.5" font-family="Helvetica,sans-Serif" font-size="10.00">::isLeaf</text>
</a>
</g>
</g>
<!-- Node2&#45;&gt;Node9 -->
<g id="edge11" class="edge"><title>Node2&#45;&gt;Node9</title>
<path fill="none" stroke="midnightblue" d="M252.462,-147.399C268.05,-142.438 285.543,-136.873 301.778,-131.707"/>
<polygon fill="midnightblue" stroke="midnightblue" points="303.227,-134.919 311.695,-128.552 301.105,-128.248 303.227,-134.919"/>
</g>
<!-- Node10 -->
<g id="node10" class="node"><title>Node10</title>
<g id="a_node10"><a xlink:href="classRa_1_1Core_1_1AdjacencyList.html#a9c0e48ccbcfec3e3c35bebf6a45c7b12" target="_top" xlink:title="Ra::Core::AdjacencyList\l::parents">
<polygon fill="white" stroke="black" points="296,-49.5 296,-79.5 424,-79.5 424,-49.5 296,-49.5"/>
<text text-anchor="start" x="304" y="-67.5" font-family="Helvetica,sans-Serif" font-size="10.00">Ra::Core::AdjacencyList</text>
<text text-anchor="middle" x="360" y="-56.5" font-family="Helvetica,sans-Serif" font-size="10.00">::parents</text>
</a>
</g>
</g>
<!-- Node2&#45;&gt;Node10 -->
<g id="edge13" class="edge"><title>Node2&#45;&gt;Node10</title>
<path fill="none" stroke="midnightblue" d="M220.687,-147.464C238.018,-131.465 267.289,-106.204 296,-89.5 299.393,-87.526 302.972,-85.6419 306.63,-83.8579"/>
<polygon fill="midnightblue" stroke="midnightblue" points="308.199,-86.9887 315.826,-79.635 305.278,-80.6273 308.199,-86.9887"/>
</g>
<!-- Node11 -->
<g id="node11" class="node"><title>Node11</title>
<g id="a_node11"><a xlink:href="classRa_1_1Core_1_1AdjacencyList.html#a23393ccd75883f2eb35196d7c82ee94f" target="_top" xlink:title="Ra::Core::AdjacencyList\l::children">
<polygon fill="white" stroke="black" points="296,-0.5 296,-30.5 424,-30.5 424,-0.5 296,-0.5"/>
<text text-anchor="start" x="304" y="-18.5" font-family="Helvetica,sans-Serif" font-size="10.00">Ra::Core::AdjacencyList</text>
<text text-anchor="middle" x="360" y="-7.5" font-family="Helvetica,sans-Serif" font-size="10.00">::children</text>
</a>
</g>
</g>
<!-- Node2&#45;&gt;Node11 -->
<g id="edge14" class="edge"><title>Node2&#45;&gt;Node11</title>
<path fill="none" stroke="midnightblue" d="M212.721,-147.239C226.301,-121.799 256.779,-70.5547 296,-40.5 298.32,-38.7219 300.784,-37.0534 303.341,-35.4901"/>
<polygon fill="midnightblue" stroke="midnightblue" points="305.231,-38.4456 312.321,-30.5732 301.869,-32.3056 305.231,-38.4456"/>
</g>
<!-- Node4 -->
<g id="node4" class="node"><title>Node4</title>
<g id="a_node4"><a xlink:href="classRa_1_1Core_1_1Animation_1_1Handle.html#aba876355658e5f8953033d3bb8f18533" target="_top" xlink:title="Ra::Core::Animation\l::Handle::size">
<polygon fill="white" stroke="black" points="468,-294.5 468,-324.5 580,-324.5 580,-294.5 468,-294.5"/>
<text text-anchor="start" x="476" y="-312.5" font-family="Helvetica,sans-Serif" font-size="10.00">Ra::Core::Animation</text>
<text text-anchor="middle" x="524" y="-301.5" font-family="Helvetica,sans-Serif" font-size="10.00">::Handle::size</text>
</a>
</g>
</g>
<!-- Node3&#45;&gt;Node4 -->
<g id="edge4" class="edge"><title>Node3&#45;&gt;Node4</title>
<path fill="none" stroke="midnightblue" d="M416.298,-309.5C429.592,-309.5 443.916,-309.5 457.62,-309.5"/>
<polygon fill="midnightblue" stroke="midnightblue" points="457.951,-313 467.951,-309.5 457.951,-306 457.951,-313"/>
</g>
<!-- Node6 -->
<g id="node6" class="node"><title>Node6</title>
<g id="a_node6"><a xlink:href="classRa_1_1Core_1_1AdjacencyList.html#a15e425543855966a22c3b9339aa27b4d" target="_top" xlink:title="Return the number of nodes in the graph. ">
<polygon fill="white" stroke="black" points="460,-171.5 460,-201.5 588,-201.5 588,-171.5 460,-171.5"/>
<text text-anchor="start" x="468" y="-189.5" font-family="Helvetica,sans-Serif" font-size="10.00">Ra::Core::AdjacencyList</text>
<text text-anchor="middle" x="524" y="-178.5" font-family="Helvetica,sans-Serif" font-size="10.00">::size</text>
</a>
</g>
</g>
<!-- Node5&#45;&gt;Node6 -->
<g id="edge6" class="edge"><title>Node5&#45;&gt;Node6</title>
<path fill="none" stroke="midnightblue" d="M402.256,-245.488C409.554,-242.633 417.041,-239.573 424,-236.5 444.945,-227.251 467.792,-215.807 486.255,-206.202"/>
<polygon fill="midnightblue" stroke="midnightblue" points="487.975,-209.252 495.208,-201.51 484.725,-203.052 487.975,-209.252"/>
</g>
<!-- Node7&#45;&gt;Node6 -->
<g id="edge8" class="edge"><title>Node7&#45;&gt;Node6</title>
<path fill="none" stroke="midnightblue" d="M424.097,-201.763C432.526,-200.462 441.227,-199.119 449.81,-197.795"/>
<polygon fill="midnightblue" stroke="midnightblue" points="450.459,-201.236 459.808,-196.252 449.392,-194.318 450.459,-201.236"/>
</g>
<!-- Node8&#45;&gt;Node6 -->
<g id="edge10" class="edge"><title>Node8&#45;&gt;Node6</title>
<path fill="none" stroke="midnightblue" d="M424.097,-171.848C432.526,-173.096 441.227,-174.386 449.81,-175.657"/>
<polygon fill="midnightblue" stroke="midnightblue" points="449.403,-179.135 459.808,-177.138 450.429,-172.21 449.403,-179.135"/>
</g>
<!-- Node9&#45;&gt;Node6 -->
<g id="edge12" class="edge"><title>Node9&#45;&gt;Node6</title>
<path fill="none" stroke="midnightblue" d="M400.17,-128.525C408.102,-131.713 416.353,-135.134 424,-138.5 444.098,-147.346 466.11,-157.927 484.264,-166.9"/>
<polygon fill="midnightblue" stroke="midnightblue" points="482.862,-170.112 493.375,-171.429 485.978,-163.844 482.862,-170.112"/>
</g>
</g>
</svg>
