<?xml version="1.0" encoding="UTF-8" standalone="no"?>
<!DOCTYPE svg PUBLIC "-//W3C//DTD SVG 1.1//EN"
 "http://www.w3.org/Graphics/SVG/1.1/DTD/svg11.dtd">
<!-- Generated by graphviz version 2.38.0 (20140413.2041)
 -->
<!-- Title: Ra::Engine::RadiumEngine::cleanup Pages: 1 -->
<svg width="782pt" height="161pt"
 viewBox="0.00 0.00 782.00 161.00" xmlns="http://www.w3.org/2000/svg" xmlns:xlink="http://www.w3.org/1999/xlink">
<g id="graph0" class="graph" transform="scale(1 1) rotate(0) translate(4 157)">
<title>Ra::Engine::RadiumEngine::cleanup</title>
<polygon fill="white" stroke="none" points="-4,4 -4,-157 778,-157 778,4 -4,4"/>
<!-- Node1 -->
<g id="node1" class="node"><title>Node1</title>
<polygon fill="#bfbfbf" stroke="black" points="0,-73.5 0,-103.5 141,-103.5 141,-73.5 0,-73.5"/>
<text text-anchor="start" x="8" y="-91.5" font-family="Helvetica,sans-Serif" font-size="10.00">Ra::Engine::RadiumEngine</text>
<text text-anchor="middle" x="70.5" y="-80.5" font-family="Helvetica,sans-Serif" font-size="10.00">::cleanup</text>
</g>
<!-- Node2 -->
<g id="node2" class="node"><title>Node2</title>
<g id="a_node2"><a xlink:href="classRa_1_1Engine_1_1BlinnPhongMaterial.html#ac811cdb36c687637bc210a5c32b95d51" target="_top" xlink:title="Remove the material from the material library. ">
<polygon fill="white" stroke="black" points="177,-73.5 177,-103.5 341,-103.5 341,-73.5 177,-73.5"/>
<text text-anchor="start" x="185" y="-91.5" font-family="Helvetica,sans-Serif" font-size="10.00">Ra::Engine::BlinnPhongMaterial</text>
<text text-anchor="middle" x="259" y="-80.5" font-family="Helvetica,sans-Serif" font-size="10.00">::unregisterMaterial</text>
</a>
</g>
</g>
<!-- Node1&#45;&gt;Node2 -->
<g id="edge1" class="edge"><title>Node1&#45;&gt;Node2</title>
<path fill="none" stroke="midnightblue" d="M141.211,-88.5C149.54,-88.5 158.136,-88.5 166.711,-88.5"/>
<polygon fill="midnightblue" stroke="midnightblue" points="166.749,-92.0001 176.749,-88.5 166.749,-85.0001 166.749,-92.0001"/>
</g>
<!-- Node3 -->
<g id="node3" class="node"><title>Node3</title>
<g id="a_node3"><a xlink:href="namespaceRa_1_1Engine_1_1EngineMaterialConverters.html#ac41449ebd949e8a7b1d93ff2a42acf92" target="_top" xlink:title="remove a material converter ">
<polygon fill="white" stroke="black" points="377,-122.5 377,-152.5 574,-152.5 574,-122.5 377,-122.5"/>
<text text-anchor="start" x="385" y="-140.5" font-family="Helvetica,sans-Serif" font-size="10.00">Ra::Engine::EngineMaterial</text>
<text text-anchor="middle" x="475.5" y="-129.5" font-family="Helvetica,sans-Serif" font-size="10.00">Converters::removeMaterialConverter</text>
</a>
</g>
</g>
<!-- Node2&#45;&gt;Node3 -->
<g id="edge2" class="edge"><title>Node2&#45;&gt;Node3</title>
<path fill="none" stroke="midnightblue" d="M325.815,-103.535C348.875,-108.802 374.955,-114.76 398.761,-120.198"/>
<polygon fill="midnightblue" stroke="midnightblue" points="398.281,-123.679 408.81,-122.494 399.84,-116.855 398.281,-123.679"/>
</g>
<!-- Node4 -->
<g id="node4" class="node"><title>Node4</title>
<g id="a_node4"><a xlink:href="namespaceRa_1_1Engine_1_1EngineRenderTechniques.html#a6e2ce86d7ae1f3822819477bf5bd7c74" target="_top" xlink:title="remove a default builder ">
<polygon fill="white" stroke="black" points="378.5,-73.5 378.5,-103.5 572.5,-103.5 572.5,-73.5 378.5,-73.5"/>
<text text-anchor="start" x="386.5" y="-91.5" font-family="Helvetica,sans-Serif" font-size="10.00">Ra::Engine::EngineRender</text>
<text text-anchor="middle" x="475.5" y="-80.5" font-family="Helvetica,sans-Serif" font-size="10.00">Techniques::removeDefaultTechnique</text>
</a>
</g>
</g>
<!-- Node2&#45;&gt;Node4 -->
<g id="edge3" class="edge"><title>Node2&#45;&gt;Node4</title>
<path fill="none" stroke="midnightblue" d="M341.093,-88.5C349.885,-88.5 358.927,-88.5 367.963,-88.5"/>
<polygon fill="midnightblue" stroke="midnightblue" points="368.147,-92.0001 378.147,-88.5 368.147,-85.0001 368.147,-92.0001"/>
</g>
<!-- Node5 -->
<g id="node5" class="node"><title>Node5</title>
<g id="a_node5"><a xlink:href="classRa_1_1Engine_1_1BlinnPhongMaterialConverter.html#aa58f5ca952965587965d1c0586b8bbbc" target="_top" xlink:title="Ra::Engine::BlinnPhongMaterial\lConverter::operator()">
<polygon fill="white" stroke="black" points="393.5,-24.5 393.5,-54.5 557.5,-54.5 557.5,-24.5 393.5,-24.5"/>
<text text-anchor="start" x="401.5" y="-42.5" font-family="Helvetica,sans-Serif" font-size="10.00">Ra::Engine::BlinnPhongMaterial</text>
<text text-anchor="middle" x="475.5" y="-31.5" font-family="Helvetica,sans-Serif" font-size="10.00">Converter::operator()</text>
</a>
</g>
</g>
<!-- Node2&#45;&gt;Node5 -->
<g id="edge4" class="edge"><title>Node2&#45;&gt;Node5</title>
<path fill="none" stroke="midnightblue" d="M325.815,-73.4654C348.875,-68.1976 374.955,-62.2399 398.761,-56.8016"/>
<polygon fill="midnightblue" stroke="midnightblue" points="399.84,-60.1454 408.81,-54.5062 398.281,-53.3212 399.84,-60.1454"/>
</g>
<!-- Node6 -->
<g id="node6" class="node"><title>Node6</title>
<g id="a_node6"><a xlink:href="classRa_1_1Core_1_1Asset_1_1AssetData.html#a3f4a6e18b60f2de4a23c8898a7341d21" target="_top" xlink:title="Acces to the name of the asset. ">
<polygon fill="white" stroke="black" points="619,-49.5 619,-79.5 765,-79.5 765,-49.5 619,-49.5"/>
<text text-anchor="start" x="627" y="-67.5" font-family="Helvetica,sans-Serif" font-size="10.00">Ra::Core::Asset::AssetData</text>
<text text-anchor="middle" x="692" y="-56.5" font-family="Helvetica,sans-Serif" font-size="10.00">::getName</text>
</a>
</g>
</g>
<!-- Node5&#45;&gt;Node6 -->
<g id="edge5" class="edge"><title>Node5&#45;&gt;Node6</title>
<path fill="none" stroke="midnightblue" d="M557.593,-48.9514C574.295,-50.898 591.899,-52.9497 608.645,-54.9015"/>
<polygon fill="midnightblue" stroke="midnightblue" points="608.607,-58.4207 618.945,-56.102 609.418,-51.4678 608.607,-58.4207"/>
</g>
<!-- Node7 -->
<g id="node7" class="node"><title>Node7</title>
<g id="a_node7"><a xlink:href="classRa_1_1Engine_1_1BlinnPhongMaterial.html#a427cfdf1838a26e61cc8f19f5b775e21" target="_top" xlink:title="Add an already existing texture to control the specified BSDF parameter. ">
<polygon fill="white" stroke="black" points="610,-0.5 610,-30.5 774,-30.5 774,-0.5 610,-0.5"/>
<text text-anchor="start" x="618" y="-18.5" font-family="Helvetica,sans-Serif" font-size="10.00">Ra::Engine::BlinnPhongMaterial</text>
<text text-anchor="middle" x="692" y="-7.5" font-family="Helvetica,sans-Serif" font-size="10.00">::addTexture</text>
</a>
</g>
</g>
<!-- Node5&#45;&gt;Node7 -->
<g id="edge6" class="edge"><title>Node5&#45;&gt;Node7</title>
<path fill="none" stroke="midnightblue" d="M557.593,-30.4266C571.34,-28.8885 585.698,-27.282 599.686,-25.7169"/>
<polygon fill="midnightblue" stroke="midnightblue" points="600.243,-29.1765 609.792,-24.5862 599.465,-22.2199 600.243,-29.1765"/>
</g>
</g>
</svg>
