<?xml version="1.0" encoding="UTF-8" standalone="no"?>
<!DOCTYPE svg PUBLIC "-//W3C//DTD SVG 1.1//EN"
 "http://www.w3.org/Graphics/SVG/1.1/DTD/svg11.dtd">
<!-- Generated by graphviz version 2.38.0 (20140413.2041)
 -->
<!-- Title: Ra::GuiBase::BaseApplication::recordFrame Pages: 1 -->
<svg width="671pt" height="186pt"
 viewBox="0.00 0.00 671.00 186.00" xmlns="http://www.w3.org/2000/svg" xmlns:xlink="http://www.w3.org/1999/xlink">
<g id="graph0" class="graph" transform="scale(1 1) rotate(0) translate(4 182)">
<title>Ra::GuiBase::BaseApplication::recordFrame</title>
<polygon fill="white" stroke="none" points="-4,4 -4,-182 667,-182 667,4 -4,4"/>
<!-- Node1 -->
<g id="node1" class="node"><title>Node1</title>
<polygon fill="#bfbfbf" stroke="black" points="0,-51.5 0,-81.5 157,-81.5 157,-51.5 0,-51.5"/>
<text text-anchor="start" x="8" y="-69.5" font-family="Helvetica,sans-Serif" font-size="10.00">Ra::GuiBase::BaseApplication</text>
<text text-anchor="middle" x="78.5" y="-58.5" font-family="Helvetica,sans-Serif" font-size="10.00">::recordFrame</text>
</g>
<!-- Node2 -->
<g id="node2" class="node"><title>Node2</title>
<g id="a_node2"><a xlink:href="classRa_1_1Gui_1_1Viewer.html#ab3854bf1c656d1f6bf7e12e61251e9dc" target="_top" xlink:title="Write the current frame as an image. Supports either BMP or PNG file names. ">
<polygon fill="white" stroke="black" points="193,-57 193,-76 339,-76 339,-57 193,-57"/>
<text text-anchor="middle" x="266" y="-64" font-family="Helvetica,sans-Serif" font-size="10.00">Ra::Gui::Viewer::grabFrame</text>
</a>
</g>
</g>
<!-- Node1&#45;&gt;Node2 -->
<g id="edge1" class="edge"><title>Node1&#45;&gt;Node2</title>
<path fill="none" stroke="midnightblue" d="M157.094,-66.5C165.493,-66.5 174.063,-66.5 182.518,-66.5"/>
<polygon fill="midnightblue" stroke="midnightblue" points="182.754,-70.0001 192.754,-66.5 182.754,-63.0001 182.754,-70.0001"/>
</g>
<!-- Node3 -->
<g id="node3" class="node"><title>Node3</title>
<g id="a_node3"><a xlink:href="classRa_1_1Engine_1_1Renderer.html#a584cc744ee0f15884f5f853209c055cd" target="_top" xlink:title="Ra::Engine::Renderer\l::grabFrame">
<polygon fill="white" stroke="black" points="385,-73.5 385,-103.5 501,-103.5 501,-73.5 385,-73.5"/>
<text text-anchor="start" x="393" y="-91.5" font-family="Helvetica,sans-Serif" font-size="10.00">Ra::Engine::Renderer</text>
<text text-anchor="middle" x="443" y="-80.5" font-family="Helvetica,sans-Serif" font-size="10.00">::grabFrame</text>
</a>
</g>
</g>
<!-- Node2&#45;&gt;Node3 -->
<g id="edge2" class="edge"><title>Node2&#45;&gt;Node3</title>
<path fill="none" stroke="midnightblue" d="M339.19,-75.5753C350.986,-77.0583 363.167,-78.5895 374.836,-80.0565"/>
<polygon fill="midnightblue" stroke="midnightblue" points="374.578,-83.5516 384.937,-81.3263 375.452,-76.6063 374.578,-83.5516"/>
</g>
<!-- Node8 -->
<g id="node8" class="node"><title>Node8</title>
<g id="a_node8"><a xlink:href="namespaceRa_1_1Core_1_1Utils.html#aad2a7bedc49e227d0503794d76acbfea" target="_top" xlink:title="Ra::Core::Utils::getFileExt">
<polygon fill="white" stroke="black" points="375,-35 375,-54 511,-54 511,-35 375,-35"/>
<text text-anchor="middle" x="443" y="-42" font-family="Helvetica,sans-Serif" font-size="10.00">Ra::Core::Utils::getFileExt</text>
</a>
</g>
</g>
<!-- Node2&#45;&gt;Node8 -->
<g id="edge7" class="edge"><title>Node2&#45;&gt;Node8</title>
<path fill="none" stroke="midnightblue" d="M339.19,-57.4247C347.649,-56.3613 356.304,-55.2731 364.828,-54.2016"/>
<polygon fill="midnightblue" stroke="midnightblue" points="365.268,-57.674 374.753,-52.9539 364.394,-50.7287 365.268,-57.674"/>
</g>
<!-- Node4 -->
<g id="node4" class="node"><title>Node4</title>
<g id="a_node4"><a xlink:href="classRa_1_1Engine_1_1Renderer.html#a8a68ecdea83da2148ef303176bcffac8" target="_top" xlink:title="Get the currently displayed texture. ">
<polygon fill="white" stroke="black" points="547,-147.5 547,-177.5 663,-177.5 663,-147.5 547,-147.5"/>
<text text-anchor="start" x="555" y="-165.5" font-family="Helvetica,sans-Serif" font-size="10.00">Ra::Engine::Renderer</text>
<text text-anchor="middle" x="605" y="-154.5" font-family="Helvetica,sans-Serif" font-size="10.00">::getDisplayTexture</text>
</a>
</g>
</g>
<!-- Node3&#45;&gt;Node4 -->
<g id="edge3" class="edge"><title>Node3&#45;&gt;Node4</title>
<path fill="none" stroke="midnightblue" d="M473.996,-103.585C494.439,-113.736 522.193,-127.266 547,-138.5 550.584,-140.123 554.309,-141.773 558.063,-143.409"/>
<polygon fill="midnightblue" stroke="midnightblue" points="556.816,-146.683 567.385,-147.424 559.585,-140.254 556.816,-146.683"/>
</g>
<!-- Node5 -->
<g id="node5" class="node"><title>Node5</title>
<g id="a_node5"><a xlink:href="classRa_1_1Engine_1_1Texture.html#a9ba7fb88d2b2b023ad5e68f2d4f3f1bb" target="_top" xlink:title="Bind the texture to enable its use in a shader. ">
<polygon fill="white" stroke="black" points="551.5,-98.5 551.5,-128.5 658.5,-128.5 658.5,-98.5 551.5,-98.5"/>
<text text-anchor="start" x="559.5" y="-116.5" font-family="Helvetica,sans-Serif" font-size="10.00">Ra::Engine::Texture</text>
<text text-anchor="middle" x="605" y="-105.5" font-family="Helvetica,sans-Serif" font-size="10.00">::bind</text>
</a>
</g>
</g>
<!-- Node3&#45;&gt;Node5 -->
<g id="edge4" class="edge"><title>Node3&#45;&gt;Node5</title>
<path fill="none" stroke="midnightblue" d="M501.312,-97.455C514.316,-99.487 528.193,-101.655 541.404,-103.719"/>
<polygon fill="midnightblue" stroke="midnightblue" points="540.932,-107.188 551.352,-105.274 542.012,-100.272 540.932,-107.188"/>
</g>
<!-- Node6 -->
<g id="node6" class="node"><title>Node6</title>
<g id="a_node6"><a xlink:href="classRa_1_1Engine_1_1Texture.html#a5fb64b92e7a9025f6ad315f84eba2dca" target="_top" xlink:title="Ra::Engine::Texture\l::width">
<polygon fill="white" stroke="black" points="551.5,-49.5 551.5,-79.5 658.5,-79.5 658.5,-49.5 551.5,-49.5"/>
<text text-anchor="start" x="559.5" y="-67.5" font-family="Helvetica,sans-Serif" font-size="10.00">Ra::Engine::Texture</text>
<text text-anchor="middle" x="605" y="-56.5" font-family="Helvetica,sans-Serif" font-size="10.00">::width</text>
</a>
</g>
</g>
<!-- Node3&#45;&gt;Node6 -->
<g id="edge5" class="edge"><title>Node3&#45;&gt;Node6</title>
<path fill="none" stroke="midnightblue" d="M501.312,-79.9032C514.316,-77.9525 528.193,-75.871 541.404,-73.8893"/>
<polygon fill="midnightblue" stroke="midnightblue" points="541.982,-77.342 551.352,-72.3972 540.943,-70.4194 541.982,-77.342"/>
</g>
<!-- Node7 -->
<g id="node7" class="node"><title>Node7</title>
<g id="a_node7"><a xlink:href="classRa_1_1Engine_1_1Texture.html#a42c27099c6aa960f13485a4477517296" target="_top" xlink:title="Ra::Engine::Texture\l::height">
<polygon fill="white" stroke="black" points="551.5,-0.5 551.5,-30.5 658.5,-30.5 658.5,-0.5 551.5,-0.5"/>
<text text-anchor="start" x="559.5" y="-18.5" font-family="Helvetica,sans-Serif" font-size="10.00">Ra::Engine::Texture</text>
<text text-anchor="middle" x="605" y="-7.5" font-family="Helvetica,sans-Serif" font-size="10.00">::height</text>
</a>
</g>
</g>
<!-- Node3&#45;&gt;Node7 -->
<g id="edge6" class="edge"><title>Node3&#45;&gt;Node7</title>
<path fill="none" stroke="midnightblue" d="M488.533,-73.3929C496.148,-70.384 503.89,-67.0477 511,-63.5 527.989,-55.0228 530.256,-49.4512 547,-40.5 550.544,-38.6055 554.261,-36.7339 558.026,-34.9185"/>
<polygon fill="midnightblue" stroke="midnightblue" points="559.83,-37.9394 567.413,-30.5406 556.871,-31.5954 559.83,-37.9394"/>
</g>
</g>
</svg>
