<?xml version="1.0" encoding="UTF-8" standalone="no"?>
<!DOCTYPE svg PUBLIC "-//W3C//DTD SVG 1.1//EN"
 "http://www.w3.org/Graphics/SVG/1.1/DTD/svg11.dtd">
<!-- Generated by graphviz version 2.38.0 (20140413.2041)
 -->
<!-- Title: Ra::Gui::ScaleGizmo::ScaleGizmo Pages: 1 -->
<svg width="898pt" height="679pt"
 viewBox="0.00 0.00 898.00 679.00" xmlns="http://www.w3.org/2000/svg" xmlns:xlink="http://www.w3.org/1999/xlink">
<g id="graph0" class="graph" transform="scale(1 1) rotate(0) translate(4 675)">
<title>Ra::Gui::ScaleGizmo::ScaleGizmo</title>
<polygon fill="white" stroke="none" points="-4,4 -4,-675 894,-675 894,4 -4,4"/>
<!-- Node1 -->
<g id="node1" class="node"><title>Node1</title>
<polygon fill="#bfbfbf" stroke="black" points="0,-240.5 0,-270.5 113,-270.5 113,-240.5 0,-240.5"/>
<text text-anchor="start" x="8" y="-258.5" font-family="Helvetica,sans-Serif" font-size="10.00">Ra::Gui::ScaleGizmo</text>
<text text-anchor="middle" x="56.5" y="-247.5" font-family="Helvetica,sans-Serif" font-size="10.00">::ScaleGizmo</text>
</g>
<!-- Node2 -->
<g id="node2" class="node"><title>Node2</title>
<g id="a_node2"><a xlink:href="namespaceRa_1_1Engine_1_1ShaderConfigurationFactory.html#a0bc60f21dbabd745961037f3d2f019c8" target="_top" xlink:title="Get a configuration from the factory. ">
<polygon fill="white" stroke="black" points="149,-632.5 149,-662.5 320,-662.5 320,-632.5 149,-632.5"/>
<text text-anchor="start" x="157" y="-650.5" font-family="Helvetica,sans-Serif" font-size="10.00">Ra::Engine::ShaderConfiguration</text>
<text text-anchor="middle" x="234.5" y="-639.5" font-family="Helvetica,sans-Serif" font-size="10.00">Factory::getConfiguration</text>
</a>
</g>
</g>
<!-- Node1&#45;&gt;Node2 -->
<g id="edge1" class="edge"><title>Node1&#45;&gt;Node2</title>
<path fill="none" stroke="midnightblue" d="M59.502,-270.867C67.8323,-332.674 101.542,-562.345 149,-615.5 153.016,-619.998 157.731,-623.866 162.844,-627.193"/>
<polygon fill="midnightblue" stroke="midnightblue" points="161.354,-630.373 171.773,-632.296 164.827,-624.295 161.354,-630.373"/>
</g>
<!-- Node4 -->
<g id="node4" class="node"><title>Node4</title>
<g id="a_node4"><a xlink:href="namespaceRa_1_1Core_1_1Geometry.html#ac33f3611fc8b6657f818f3d49d23df13" target="_top" xlink:title="Create a cylinder approximation (n&#45;faced prism) with base faces centered on A and B with given radius...">
<polygon fill="white" stroke="black" points="179,-388.5 179,-418.5 290,-418.5 290,-388.5 179,-388.5"/>
<text text-anchor="start" x="187" y="-406.5" font-family="Helvetica,sans-Serif" font-size="10.00">Ra::Core::Geometry</text>
<text text-anchor="middle" x="234.5" y="-395.5" font-family="Helvetica,sans-Serif" font-size="10.00">::makeCylinder</text>
</a>
</g>
</g>
<!-- Node1&#45;&gt;Node4 -->
<g id="edge3" class="edge"><title>Node1&#45;&gt;Node4</title>
<path fill="none" stroke="midnightblue" d="M75.3444,-270.505C106.706,-296.877 171.8,-351.616 207.934,-382.001"/>
<polygon fill="midnightblue" stroke="midnightblue" points="205.702,-384.698 215.608,-388.455 210.207,-379.34 205.702,-384.698"/>
</g>
<!-- Node6 -->
<g id="node6" class="node"><title>Node6</title>
<g id="a_node6"><a xlink:href="classRa_1_1Core_1_1Geometry_1_1TriangleMesh.html#ad7d3f6272b902171740e50232ba56114" target="_top" xlink:title="Access the vertices normals. ">
<polygon fill="white" stroke="black" points="582.5,-322.5 582.5,-352.5 711.5,-352.5 711.5,-322.5 582.5,-322.5"/>
<text text-anchor="start" x="590.5" y="-340.5" font-family="Helvetica,sans-Serif" font-size="10.00">Ra::Core::Geometry</text>
<text text-anchor="middle" x="647" y="-329.5" font-family="Helvetica,sans-Serif" font-size="10.00">::TriangleMesh::normals</text>
</a>
</g>
</g>
<!-- Node1&#45;&gt;Node6 -->
<g id="edge31" class="edge"><title>Node1&#45;&gt;Node6</title>
<path fill="none" stroke="midnightblue" d="M113.198,-251.333C222.313,-244.087 459.869,-233.101 532,-268.5 554.683,-279.632 547.112,-298.283 568,-312.5 570.909,-314.48 573.985,-316.311 577.169,-318.004"/>
<polygon fill="midnightblue" stroke="midnightblue" points="575.843,-321.249 586.373,-322.413 578.867,-314.936 575.843,-321.249"/>
</g>
<!-- Node16 -->
<g id="node16" class="node"><title>Node16</title>
<g id="a_node16"><a xlink:href="namespaceRa_1_1Core_1_1Geometry.html#a8529928f2c7f9a56fa423572219b5335" target="_top" xlink:title="Create an axis&#45;aligned cubic mesh with the given half extents, centered on the origin. ">
<polygon fill="white" stroke="black" points="179,-196.5 179,-226.5 290,-226.5 290,-196.5 179,-196.5"/>
<text text-anchor="start" x="187" y="-214.5" font-family="Helvetica,sans-Serif" font-size="10.00">Ra::Core::Geometry</text>
<text text-anchor="middle" x="234.5" y="-203.5" font-family="Helvetica,sans-Serif" font-size="10.00">::makeSharpBox</text>
</a>
</g>
</g>
<!-- Node1&#45;&gt;Node16 -->
<g id="edge17" class="edge"><title>Node1&#45;&gt;Node16</title>
<path fill="none" stroke="midnightblue" d="M113.188,-241.578C130.944,-237.139 150.738,-232.191 169.061,-227.61"/>
<polygon fill="midnightblue" stroke="midnightblue" points="169.925,-231.002 178.777,-225.181 168.227,-224.211 169.925,-231.002"/>
</g>
<!-- Node17 -->
<g id="node17" class="node"><title>Node17</title>
<g id="a_node17"><a xlink:href="classRa_1_1Core_1_1Geometry_1_1TriangleMesh.html#a13434325489bfb69f9fd972c0eee408e" target="_top" xlink:title="Appends another mesh to this one, but only if they have the same attributes. ">
<polygon fill="white" stroke="black" points="381,-542.5 381,-572.5 507,-572.5 507,-542.5 381,-542.5"/>
<text text-anchor="start" x="389" y="-560.5" font-family="Helvetica,sans-Serif" font-size="10.00">Ra::Core::Geometry</text>
<text text-anchor="middle" x="444" y="-549.5" font-family="Helvetica,sans-Serif" font-size="10.00">::TriangleMesh::append</text>
</a>
</g>
</g>
<!-- Node1&#45;&gt;Node17 -->
<g id="edge18" class="edge"><title>Node1&#45;&gt;Node17</title>
<path fill="none" stroke="midnightblue" d="M61.9166,-270.956C72.0616,-303.922 100.001,-381.847 149,-427.5 212.21,-486.393 306.478,-521.597 371.13,-540.226"/>
<polygon fill="midnightblue" stroke="midnightblue" points="370.269,-543.62 380.844,-542.965 372.169,-536.883 370.269,-543.62"/>
</g>
<!-- Node19 -->
<g id="node19" class="node"><title>Node19</title>
<g id="a_node19"><a xlink:href="classRa_1_1Core_1_1Utils_1_1ColorBase.html#aaf67b196b10805750f12f3638ae81516" target="_top" xlink:title="Ra::Core::Utils::ColorBase\l\&lt; Scalar \&gt;::Black">
<polygon fill="white" stroke="black" points="165,-147.5 165,-177.5 304,-177.5 304,-147.5 165,-147.5"/>
<text text-anchor="start" x="173" y="-165.5" font-family="Helvetica,sans-Serif" font-size="10.00">Ra::Core::Utils::ColorBase</text>
<text text-anchor="middle" x="234.5" y="-154.5" font-family="Helvetica,sans-Serif" font-size="10.00">&lt; Scalar &gt;::Black</text>
</a>
</g>
</g>
<!-- Node1&#45;&gt;Node19 -->
<g id="edge22" class="edge"><title>Node1&#45;&gt;Node19</title>
<path fill="none" stroke="midnightblue" d="M73.7767,-240.227C91.1642,-224.67 120.139,-200.85 149,-186.5 152.947,-184.537 157.081,-182.712 161.307,-181.018"/>
<polygon fill="midnightblue" stroke="midnightblue" points="162.533,-184.296 170.674,-177.516 160.082,-177.739 162.533,-184.296"/>
</g>
<!-- Node20 -->
<g id="node20" class="node"><title>Node20</title>
<g id="a_node20"><a xlink:href="classRa_1_1Engine_1_1RenderObject.html#ae1ea453e2b698cda9956586d11b9cfbd" target="_top" xlink:title="Ra::Engine::RenderObject\l::setRenderTechnique">
<polygon fill="white" stroke="black" points="166,-98.5 166,-128.5 303,-128.5 303,-98.5 166,-98.5"/>
<text text-anchor="start" x="174" y="-116.5" font-family="Helvetica,sans-Serif" font-size="10.00">Ra::Engine::RenderObject</text>
<text text-anchor="middle" x="234.5" y="-105.5" font-family="Helvetica,sans-Serif" font-size="10.00">::setRenderTechnique</text>
</a>
</g>
</g>
<!-- Node1&#45;&gt;Node20 -->
<g id="edge23" class="edge"><title>Node1&#45;&gt;Node20</title>
<path fill="none" stroke="midnightblue" d="M65.1028,-240.317C78.5208,-215.088 108.826,-164.631 149,-137.5 151.429,-135.86 153.969,-134.33 156.591,-132.905"/>
<polygon fill="midnightblue" stroke="midnightblue" points="158.306,-135.963 165.773,-128.446 155.248,-129.666 158.306,-135.963"/>
</g>
<!-- Node21 -->
<g id="node21" class="node"><title>Node21</title>
<g id="a_node21"><a xlink:href="classRa_1_1Engine_1_1RenderObject.html#ae8e94954e783a2012fd774598af1eb52" target="_top" xlink:title="Ra::Engine::RenderObject\l::setMesh">
<polygon fill="white" stroke="black" points="166,-49.5 166,-79.5 303,-79.5 303,-49.5 166,-49.5"/>
<text text-anchor="start" x="174" y="-67.5" font-family="Helvetica,sans-Serif" font-size="10.00">Ra::Engine::RenderObject</text>
<text text-anchor="middle" x="234.5" y="-56.5" font-family="Helvetica,sans-Serif" font-size="10.00">::setMesh</text>
</a>
</g>
</g>
<!-- Node1&#45;&gt;Node21 -->
<g id="edge24" class="edge"><title>Node1&#45;&gt;Node21</title>
<path fill="none" stroke="midnightblue" d="M61.4383,-240.45C70.804,-207.677 97.5622,-129.516 149,-88.5 151.564,-86.4558 154.293,-84.5857 157.141,-82.8748"/>
<polygon fill="midnightblue" stroke="midnightblue" points="158.785,-85.9646 166,-78.2052 155.521,-79.7723 158.785,-85.9646"/>
</g>
<!-- Node22 -->
<g id="node22" class="node"><title>Node22</title>
<g id="a_node22"><a xlink:href="classRa_1_1Engine_1_1Component.html#aea20d8186eb969b255cd83218a809178" target="_top" xlink:title="Add a new render object to the component. This adds the RO to the manager for drawing. ">
<polygon fill="white" stroke="black" points="170,-0.5 170,-30.5 299,-30.5 299,-0.5 170,-0.5"/>
<text text-anchor="start" x="178" y="-18.5" font-family="Helvetica,sans-Serif" font-size="10.00">Ra::Engine::Component</text>
<text text-anchor="middle" x="234.5" y="-7.5" font-family="Helvetica,sans-Serif" font-size="10.00">::addRenderObject</text>
</a>
</g>
</g>
<!-- Node1&#45;&gt;Node22 -->
<g id="edge25" class="edge"><title>Node1&#45;&gt;Node22</title>
<path fill="none" stroke="midnightblue" d="M59.4114,-240.355C65.1879,-201.058 86.1166,-95.0346 149,-39.5 152.597,-36.3232 156.587,-33.5648 160.818,-31.1699"/>
<polygon fill="midnightblue" stroke="midnightblue" points="162.371,-34.3065 169.794,-26.747 159.277,-28.0274 162.371,-34.3065"/>
</g>
<!-- Node24 -->
<g id="node24" class="node"><title>Node24</title>
<g id="a_node24"><a xlink:href="namespaceRa_1_1Core_1_1Geometry.html#a406d3122ffb1118cbf53b1a19e54e31c" target="_top" xlink:title="Create a 2D grid mesh with given number of row and columns. ">
<polygon fill="white" stroke="black" points="388.5,-278.5 388.5,-308.5 499.5,-308.5 499.5,-278.5 388.5,-278.5"/>
<text text-anchor="start" x="396.5" y="-296.5" font-family="Helvetica,sans-Serif" font-size="10.00">Ra::Core::Geometry</text>
<text text-anchor="middle" x="444" y="-285.5" font-family="Helvetica,sans-Serif" font-size="10.00">::makePlaneGrid</text>
</a>
</g>
</g>
<!-- Node1&#45;&gt;Node24 -->
<g id="edge27" class="edge"><title>Node1&#45;&gt;Node24</title>
<path fill="none" stroke="midnightblue" d="M113.061,-264.641C124.902,-266.41 137.348,-268.135 149,-269.5 227.734,-278.725 318.745,-285.569 378.4,-289.538"/>
<polygon fill="midnightblue" stroke="midnightblue" points="378.221,-293.034 388.43,-290.198 378.681,-286.049 378.221,-293.034"/>
</g>
<!-- Node26 -->
<g id="node26" class="node"><title>Node26</title>
<g id="a_node26"><a xlink:href="classRa_1_1Gui_1_1ScaleGizmo.html#aa51b01edb58183c9b461be7400311d22" target="_top" xlink:title="Called every time the underlying transform may have changed. ">
<polygon fill="white" stroke="black" points="387.5,-591.5 387.5,-621.5 500.5,-621.5 500.5,-591.5 387.5,-591.5"/>
<text text-anchor="start" x="395.5" y="-609.5" font-family="Helvetica,sans-Serif" font-size="10.00">Ra::Gui::ScaleGizmo</text>
<text text-anchor="middle" x="444" y="-598.5" font-family="Helvetica,sans-Serif" font-size="10.00">::updateTransform</text>
</a>
</g>
</g>
<!-- Node1&#45;&gt;Node26 -->
<g id="edge32" class="edge"><title>Node1&#45;&gt;Node26</title>
<path fill="none" stroke="midnightblue" d="M59.5007,-270.592C65.5857,-310.899 87.3788,-422.419 149,-487.5 210.128,-552.06 311.099,-582.52 377.339,-596.213"/>
<polygon fill="midnightblue" stroke="midnightblue" points="376.763,-599.667 387.255,-598.192 378.133,-592.803 376.763,-599.667"/>
</g>
<!-- Node3 -->
<g id="node3" class="node"><title>Node3</title>
<g id="a_node3"><a xlink:href="classRa_1_1Engine_1_1ShaderConfiguration.html#a7e20a600c78e8627f0238b342f4b42f2" target="_top" xlink:title="Ra::Engine::ShaderConfiguration\l::getDefaultShaderConfig">
<polygon fill="white" stroke="black" points="358.5,-640.5 358.5,-670.5 529.5,-670.5 529.5,-640.5 358.5,-640.5"/>
<text text-anchor="start" x="366.5" y="-658.5" font-family="Helvetica,sans-Serif" font-size="10.00">Ra::Engine::ShaderConfiguration</text>
<text text-anchor="middle" x="444" y="-647.5" font-family="Helvetica,sans-Serif" font-size="10.00">::getDefaultShaderConfig</text>
</a>
</g>
</g>
<!-- Node2&#45;&gt;Node3 -->
<g id="edge2" class="edge"><title>Node2&#45;&gt;Node3</title>
<path fill="none" stroke="midnightblue" d="M320.197,-650.765C329.415,-651.121 338.84,-651.484 348.168,-651.844"/>
<polygon fill="midnightblue" stroke="midnightblue" points="348.11,-655.344 358.237,-652.232 348.379,-648.349 348.11,-655.344"/>
</g>
<!-- Node5 -->
<g id="node5" class="node"><title>Node5</title>
<g id="a_node5"><a xlink:href="classRa_1_1Core_1_1Geometry_1_1TriangleMesh.html#a6ef9dbd18c0501f2ffd1316be6be56ce" target="_top" xlink:title="Access the vertices positions. ">
<polygon fill="white" stroke="black" points="583,-493.5 583,-523.5 711,-523.5 711,-493.5 583,-493.5"/>
<text text-anchor="start" x="591" y="-511.5" font-family="Helvetica,sans-Serif" font-size="10.00">Ra::Core::Geometry</text>
<text text-anchor="middle" x="647" y="-500.5" font-family="Helvetica,sans-Serif" font-size="10.00">::TriangleMesh::vertices</text>
</a>
</g>
</g>
<!-- Node4&#45;&gt;Node5 -->
<g id="edge4" class="edge"><title>Node4&#45;&gt;Node5</title>
<path fill="none" stroke="midnightblue" d="M249.324,-418.55C270.084,-439.969 311.633,-478.429 356,-494.5 426.337,-519.978 512.589,-520.62 572.662,-516.66"/>
<polygon fill="midnightblue" stroke="midnightblue" points="573.093,-520.138 582.817,-515.93 572.592,-513.156 573.093,-520.138"/>
</g>
<!-- Node4&#45;&gt;Node6 -->
<g id="edge5" class="edge"><title>Node4&#45;&gt;Node6</title>
<path fill="none" stroke="midnightblue" d="M266.386,-388.411C290.253,-377.509 324.435,-363.514 356,-356.5 428.252,-340.445 512.921,-336.551 572.054,-336.153"/>
<polygon fill="midnightblue" stroke="midnightblue" points="572.433,-339.651 582.421,-336.117 572.409,-332.651 572.433,-339.651"/>
</g>
<!-- Node7 -->
<g id="node7" class="node"><title>Node7</title>
<g id="a_node7"><a xlink:href="namespaceRa_1_1Core_1_1Vector.html#a0464b705193d326a5102691dd58d753d" target="_top" xlink:title="Get two vectors orthogonal to a given vector. ">
<polygon fill="white" stroke="black" points="359.5,-366.5 359.5,-396.5 528.5,-396.5 528.5,-366.5 359.5,-366.5"/>
<text text-anchor="start" x="367.5" y="-384.5" font-family="Helvetica,sans-Serif" font-size="10.00">Ra::Core::Vector::getOrthogonal</text>
<text text-anchor="middle" x="444" y="-373.5" font-family="Helvetica,sans-Serif" font-size="10.00">Vectors</text>
</a>
</g>
</g>
<!-- Node4&#45;&gt;Node7 -->
<g id="edge6" class="edge"><title>Node4&#45;&gt;Node7</title>
<path fill="none" stroke="midnightblue" d="M290.018,-397.72C308.097,-395.803 328.772,-393.611 348.954,-391.471"/>
<polygon fill="midnightblue" stroke="midnightblue" points="349.55,-394.928 359.125,-390.393 348.812,-387.967 349.55,-394.928"/>
</g>
<!-- Node10 -->
<g id="node10" class="node"><title>Node10</title>
<g id="a_node10"><a xlink:href="namespaceRa_1_1Core_1_1Vector.html#a42d87f3bd0658bac532d72f0ec528827" target="_top" xlink:title="Get the cosine of the angle between two vectors. ">
<polygon fill="white" stroke="black" points="386,-416 386,-435 502,-435 502,-416 386,-416"/>
<text text-anchor="middle" x="444" y="-423" font-family="Helvetica,sans-Serif" font-size="10.00">Ra::Core::Vector::cos</text>
</a>
</g>
</g>
<!-- Node4&#45;&gt;Node10 -->
<g id="edge9" class="edge"><title>Node4&#45;&gt;Node10</title>
<path fill="none" stroke="midnightblue" d="M290.018,-409.28C316.326,-412.07 348.132,-415.442 375.913,-418.387"/>
<polygon fill="midnightblue" stroke="midnightblue" points="375.635,-421.877 385.948,-419.451 376.373,-414.916 375.635,-421.877"/>
</g>
<!-- Node11 -->
<g id="node11" class="node"><title>Node11</title>
<g id="a_node11"><a xlink:href="classRa_1_1Core_1_1Geometry_1_1TriangleMesh.html#a0b294c697e094dcc62b3adb3c0ac16af" target="_top" xlink:title="Check that the mesh is well built, asserting when it is not. ">
<polygon fill="white" stroke="black" points="356,-454.5 356,-484.5 532,-484.5 532,-454.5 356,-454.5"/>
<text text-anchor="start" x="364" y="-472.5" font-family="Helvetica,sans-Serif" font-size="10.00">Ra::Core::Geometry</text>
<text text-anchor="middle" x="444" y="-461.5" font-family="Helvetica,sans-Serif" font-size="10.00">::TriangleMesh::checkConsistency</text>
</a>
</g>
</g>
<!-- Node4&#45;&gt;Node11 -->
<g id="edge10" class="edge"><title>Node4&#45;&gt;Node11</title>
<path fill="none" stroke="midnightblue" d="M277.998,-418.518C301,-426.505 329.96,-436.334 356,-444.5 363.486,-446.848 371.361,-449.23 379.188,-451.545"/>
<polygon fill="midnightblue" stroke="midnightblue" points="378.463,-454.98 389.044,-454.433 380.432,-448.262 378.463,-454.98"/>
</g>
<!-- Node8 -->
<g id="node8" class="node"><title>Node8</title>
<g id="a_node8"><a xlink:href="namespaceRa_1_1Core_1_1Math.html#a90f0fe9079f5bb86c721ea4b61738470" target="_top" xlink:title="Returns the sign of any numeric type as { &#45;1, 0, 1}. ">
<polygon fill="white" stroke="black" points="590.5,-372 590.5,-391 703.5,-391 703.5,-372 590.5,-372"/>
<text text-anchor="middle" x="647" y="-379" font-family="Helvetica,sans-Serif" font-size="10.00">Ra::Core::Math::sign</text>
</a>
</g>
</g>
<!-- Node7&#45;&gt;Node8 -->
<g id="edge7" class="edge"><title>Node7&#45;&gt;Node8</title>
<path fill="none" stroke="midnightblue" d="M528.787,-381.5C546.003,-381.5 563.893,-381.5 580.358,-381.5"/>
<polygon fill="midnightblue" stroke="midnightblue" points="580.407,-385 590.407,-381.5 580.407,-378 580.407,-385"/>
</g>
<!-- Node9 -->
<g id="node9" class="node"><title>Node9</title>
<g id="a_node9"><a xlink:href="namespaceRa_1_1Core_1_1Math.html#ae4e681e0738fe7e5bfd028c6270b597a" target="_top" xlink:title="Ra::Core::Math::signum">
<polygon fill="white" stroke="black" points="762,-372 762,-391 890,-391 890,-372 762,-372"/>
<text text-anchor="middle" x="826" y="-379" font-family="Helvetica,sans-Serif" font-size="10.00">Ra::Core::Math::signum</text>
</a>
</g>
</g>
<!-- Node8&#45;&gt;Node9 -->
<g id="edge8" class="edge"><title>Node8&#45;&gt;Node9</title>
<path fill="none" stroke="midnightblue" d="M703.518,-381.5C718.738,-381.5 735.476,-381.5 751.533,-381.5"/>
<polygon fill="midnightblue" stroke="midnightblue" points="751.965,-385 761.965,-381.5 751.965,-378 751.965,-385"/>
</g>
<!-- Node11&#45;&gt;Node5 -->
<g id="edge11" class="edge"><title>Node11&#45;&gt;Node5</title>
<path fill="none" stroke="midnightblue" d="M522.424,-484.523C539.001,-487.739 556.463,-491.127 572.871,-494.311"/>
<polygon fill="midnightblue" stroke="midnightblue" points="572.45,-497.794 582.934,-496.263 573.784,-490.923 572.45,-497.794"/>
</g>
<!-- Node11&#45;&gt;Node6 -->
<g id="edge16" class="edge"><title>Node11&#45;&gt;Node6</title>
<path fill="none" stroke="midnightblue" d="M517.463,-454.319C522.693,-451.571 527.623,-448.327 532,-444.5 561.964,-418.301 538.437,-389.15 568,-362.5 569.759,-360.914 571.62,-359.429 573.561,-358.037"/>
<polygon fill="midnightblue" stroke="midnightblue" points="575.842,-360.743 582.524,-352.521 572.174,-354.782 575.842,-360.743"/>
</g>
<!-- Node12 -->
<g id="node12" class="node"><title>Node12</title>
<g id="a_node12"><a xlink:href="namespaceRa_1_1Core_1_1Geometry.html#aa04e6052d8911b1df1bd881474debb45" target="_top" xlink:title="Ra::Core::Geometry::t">
<polygon fill="white" stroke="black" points="587,-592 587,-611 707,-611 707,-592 587,-592"/>
<text text-anchor="middle" x="647" y="-599" font-family="Helvetica,sans-Serif" font-size="10.00">Ra::Core::Geometry::t</text>
</a>
</g>
</g>
<!-- Node11&#45;&gt;Node12 -->
<g id="edge12" class="edge"><title>Node11&#45;&gt;Node12</title>
<path fill="none" stroke="midnightblue" d="M469.426,-484.565C487.772,-496.539 512.913,-514.401 532,-533.5 551.103,-552.614 545.516,-567.509 568,-582.5 571.08,-584.554 574.361,-586.386 577.768,-588.02"/>
<polygon fill="midnightblue" stroke="midnightblue" points="576.452,-591.264 587.028,-591.901 579.158,-584.808 576.452,-591.264"/>
</g>
<!-- Node13 -->
<g id="node13" class="node"><title>Node13</title>
<g id="a_node13"><a xlink:href="namespaceRa_1_1Core_1_1Geometry.html#a178f2b7309fe2ea5bc31a3abcb25368e" target="_top" xlink:title="Ra::Core::Geometry\l::triangleArea">
<polygon fill="white" stroke="black" points="591.5,-444.5 591.5,-474.5 702.5,-474.5 702.5,-444.5 591.5,-444.5"/>
<text text-anchor="start" x="599.5" y="-462.5" font-family="Helvetica,sans-Serif" font-size="10.00">Ra::Core::Geometry</text>
<text text-anchor="middle" x="647" y="-451.5" font-family="Helvetica,sans-Serif" font-size="10.00">::triangleArea</text>
</a>
</g>
</g>
<!-- Node11&#45;&gt;Node13 -->
<g id="edge13" class="edge"><title>Node11&#45;&gt;Node13</title>
<path fill="none" stroke="midnightblue" d="M532.285,-465.157C548.71,-464.34 565.615,-463.499 581.203,-462.724"/>
<polygon fill="midnightblue" stroke="midnightblue" points="581.425,-466.217 591.238,-462.224 581.077,-459.226 581.425,-466.217"/>
</g>
<!-- Node14 -->
<g id="node14" class="node"><title>Node14</title>
<g id="a_node14"><a xlink:href="namespaceOpenMesh.html#a71e7f1dd3eac016d2b8245ac408a291c" target="_top" xlink:title="OpenMesh::cross">
<polygon fill="white" stroke="black" points="776.5,-431 776.5,-450 875.5,-450 875.5,-431 776.5,-431"/>
<text text-anchor="middle" x="826" y="-438" font-family="Helvetica,sans-Serif" font-size="10.00">OpenMesh::cross</text>
</a>
</g>
</g>
<!-- Node13&#45;&gt;Node14 -->
<g id="edge14" class="edge"><title>Node13&#45;&gt;Node14</title>
<path fill="none" stroke="midnightblue" d="M702.55,-453.644C722.71,-451.48 745.64,-449.019 766.163,-446.816"/>
<polygon fill="midnightblue" stroke="midnightblue" points="766.765,-450.271 776.334,-445.724 766.017,-443.311 766.765,-450.271"/>
</g>
<!-- Node15 -->
<g id="node15" class="node"><title>Node15</title>
<g id="a_node15"><a xlink:href="namespaceOpenMesh.html#a8205f789ce08919bc11c58383574596c" target="_top" xlink:title="OpenMesh::norm">
<polygon fill="white" stroke="black" points="776.5,-469 776.5,-488 875.5,-488 875.5,-469 776.5,-469"/>
<text text-anchor="middle" x="826" y="-476" font-family="Helvetica,sans-Serif" font-size="10.00">OpenMesh::norm</text>
</a>
</g>
</g>
<!-- Node13&#45;&gt;Node15 -->
<g id="edge15" class="edge"><title>Node13&#45;&gt;Node15</title>
<path fill="none" stroke="midnightblue" d="M702.55,-465.356C722.71,-467.52 745.64,-469.981 766.163,-472.184"/>
<polygon fill="midnightblue" stroke="midnightblue" points="766.017,-475.689 776.334,-473.276 766.765,-468.729 766.017,-475.689"/>
</g>
<!-- Node17&#45;&gt;Node5 -->
<g id="edge20" class="edge"><title>Node17&#45;&gt;Node5</title>
<path fill="none" stroke="midnightblue" d="M506.673,-542.465C528.088,-537.245 552.284,-531.346 574.43,-525.947"/>
<polygon fill="midnightblue" stroke="midnightblue" points="575.558,-529.275 584.444,-523.506 573.9,-522.474 575.558,-529.275"/>
</g>
<!-- Node17&#45;&gt;Node12 -->
<g id="edge21" class="edge"><title>Node17&#45;&gt;Node12</title>
<path fill="none" stroke="midnightblue" d="M507.221,-571.121C534.62,-577.118 566.482,-584.093 592.761,-589.846"/>
<polygon fill="midnightblue" stroke="midnightblue" points="592.022,-593.267 602.539,-591.986 593.519,-586.429 592.022,-593.267"/>
</g>
<!-- Node18 -->
<g id="node18" class="node"><title>Node18</title>
<g id="a_node18"><a xlink:href="classRa_1_1Core_1_1Utils_1_1AttribManager.html#a191ecf090eaf0b6d52ed390938e1e0c5" target="_top" xlink:title="Return true if *this and other have the same attributes, same amount and same names. ">
<polygon fill="white" stroke="black" points="568,-542.5 568,-572.5 726,-572.5 726,-542.5 568,-542.5"/>
<text text-anchor="start" x="576" y="-560.5" font-family="Helvetica,sans-Serif" font-size="10.00">Ra::Core::Utils::AttribManager</text>
<text text-anchor="middle" x="647" y="-549.5" font-family="Helvetica,sans-Serif" font-size="10.00">::hasSameAttribs</text>
</a>
</g>
</g>
<!-- Node17&#45;&gt;Node18 -->
<g id="edge19" class="edge"><title>Node17&#45;&gt;Node18</title>
<path fill="none" stroke="midnightblue" d="M507.221,-557.5C523.071,-557.5 540.414,-557.5 557.306,-557.5"/>
<polygon fill="midnightblue" stroke="midnightblue" points="557.748,-561 567.747,-557.5 557.747,-554 557.748,-561"/>
</g>
<!-- Node23 -->
<g id="node23" class="node"><title>Node23</title>
<g id="a_node23"><a xlink:href="classRa_1_1Engine_1_1Component.html#a10b0bc182b76165744ebea603ae32dfe" target="_top" xlink:title="Shortcut to access the render object manager. ">
<polygon fill="white" stroke="black" points="379.5,-0.5 379.5,-30.5 508.5,-30.5 508.5,-0.5 379.5,-0.5"/>
<text text-anchor="start" x="387.5" y="-18.5" font-family="Helvetica,sans-Serif" font-size="10.00">Ra::Engine::Component</text>
<text text-anchor="middle" x="444" y="-7.5" font-family="Helvetica,sans-Serif" font-size="10.00">::getRoMgr</text>
</a>
</g>
</g>
<!-- Node22&#45;&gt;Node23 -->
<g id="edge26" class="edge"><title>Node22&#45;&gt;Node23</title>
<path fill="none" stroke="midnightblue" d="M299.167,-15.5C321.375,-15.5 346.478,-15.5 369.425,-15.5"/>
<polygon fill="midnightblue" stroke="midnightblue" points="369.453,-19.0001 379.453,-15.5 369.453,-12.0001 369.453,-19.0001"/>
</g>
<!-- Node24&#45;&gt;Node5 -->
<g id="edge28" class="edge"><title>Node24&#45;&gt;Node5</title>
<path fill="none" stroke="midnightblue" d="M475.282,-308.58C494.19,-319.462 517.596,-335.852 532,-356.5 565.811,-404.968 526.724,-442.207 568,-484.5 569.862,-486.408 571.871,-488.164 573.996,-489.782"/>
<polygon fill="midnightblue" stroke="midnightblue" points="572.392,-492.911 582.7,-495.359 576.168,-487.017 572.392,-492.911"/>
</g>
<!-- Node24&#45;&gt;Node6 -->
<g id="edge29" class="edge"><title>Node24&#45;&gt;Node6</title>
<path fill="none" stroke="midnightblue" d="M499.659,-305.465C522.137,-310.386 548.509,-316.159 572.627,-321.438"/>
<polygon fill="midnightblue" stroke="midnightblue" points="571.935,-324.87 582.452,-323.589 573.432,-318.031 571.935,-324.87"/>
</g>
<!-- Node25 -->
<g id="node25" class="node"><title>Node25</title>
<g id="a_node25"><a xlink:href="classRa_1_1Core_1_1Grid.html#ae9c02e6ec89130899fd0645dbfa4ece7" target="_top" xlink:title="Access an element with a D&#45;dimensional index. ">
<polygon fill="white" stroke="black" points="598,-284 598,-303 696,-303 696,-284 598,-284"/>
<text text-anchor="middle" x="647" y="-291" font-family="Helvetica,sans-Serif" font-size="10.00">Ra::Core::Grid::at</text>
</a>
</g>
</g>
<!-- Node24&#45;&gt;Node25 -->
<g id="edge30" class="edge"><title>Node24&#45;&gt;Node25</title>
<path fill="none" stroke="midnightblue" d="M499.659,-293.5C526.872,-293.5 559.793,-293.5 587.513,-293.5"/>
<polygon fill="midnightblue" stroke="midnightblue" points="587.86,-297 597.859,-293.5 587.859,-290 587.86,-297"/>
</g>
<!-- Node26&#45;&gt;Node12 -->
<g id="edge33" class="edge"><title>Node26&#45;&gt;Node12</title>
<path fill="none" stroke="midnightblue" d="M500.723,-605.114C524.209,-604.53 551.795,-603.843 576.584,-603.227"/>
<polygon fill="midnightblue" stroke="midnightblue" points="576.742,-606.724 586.652,-602.976 576.568,-599.726 576.742,-606.724"/>
</g>
</g>
</svg>
