<?xml version="1.0" encoding="UTF-8" standalone="no"?>
<!DOCTYPE svg PUBLIC "-//W3C//DTD SVG 1.1//EN"
 "http://www.w3.org/Graphics/SVG/1.1/DTD/svg11.dtd">
<!-- Generated by graphviz version 2.38.0 (20140413.2041)
 -->
<!-- Title: AnimationPlugin::AnimationComponent::handleSkeletonLoading Pages: 1 -->
<svg width="593pt" height="181pt"
 viewBox="0.00 0.00 593.00 181.00" xmlns="http://www.w3.org/2000/svg" xmlns:xlink="http://www.w3.org/1999/xlink">
<g id="graph0" class="graph" transform="scale(1 1) rotate(0) translate(4 177)">
<title>AnimationPlugin::AnimationComponent::handleSkeletonLoading</title>
<polygon fill="white" stroke="none" points="-4,4 -4,-177 589,-177 589,4 -4,4"/>
<!-- Node1 -->
<g id="node1" class="node"><title>Node1</title>
<polygon fill="#bfbfbf" stroke="black" points="0,-71.5 0,-101.5 191,-101.5 191,-71.5 0,-71.5"/>
<text text-anchor="start" x="8" y="-89.5" font-family="Helvetica,sans-Serif" font-size="10.00">AnimationPlugin::Animation</text>
<text text-anchor="middle" x="95.5" y="-78.5" font-family="Helvetica,sans-Serif" font-size="10.00">Component::handleSkeletonLoading</text>
</g>
<!-- Node2 -->
<g id="node2" class="node"><title>Node2</title>
<g id="a_node2"><a xlink:href="classRa_1_1Core_1_1Asset_1_1AssetData.html#a3f4a6e18b60f2de4a23c8898a7341d21" target="_top" xlink:title="Acces to the name of the asset. ">
<polygon fill="white" stroke="black" points="238.5,-142.5 238.5,-172.5 384.5,-172.5 384.5,-142.5 238.5,-142.5"/>
<text text-anchor="start" x="246.5" y="-160.5" font-family="Helvetica,sans-Serif" font-size="10.00">Ra::Core::Asset::AssetData</text>
<text text-anchor="middle" x="311.5" y="-149.5" font-family="Helvetica,sans-Serif" font-size="10.00">::getName</text>
</a>
</g>
</g>
<!-- Node1&#45;&gt;Node2 -->
<g id="edge1" class="edge"><title>Node1&#45;&gt;Node2</title>
<path fill="none" stroke="midnightblue" d="M136.247,-101.584C161.981,-111.159 196.297,-123.571 227,-133.5 233.268,-135.527 239.827,-137.561 246.396,-139.54"/>
<polygon fill="midnightblue" stroke="midnightblue" points="245.411,-142.899 255.994,-142.394 247.406,-136.189 245.411,-142.899"/>
</g>
<!-- Node3 -->
<g id="node3" class="node"><title>Node3</title>
<g id="a_node3"><a xlink:href="classRa_1_1Core_1_1Animation_1_1Handle.html#ae8dab79a9d571d2a876ec9aaeb36959c" target="_top" xlink:title="Set the Handle&#39;s name. ">
<polygon fill="white" stroke="black" points="255.5,-93.5 255.5,-123.5 367.5,-123.5 367.5,-93.5 255.5,-93.5"/>
<text text-anchor="start" x="263.5" y="-111.5" font-family="Helvetica,sans-Serif" font-size="10.00">Ra::Core::Animation</text>
<text text-anchor="middle" x="311.5" y="-100.5" font-family="Helvetica,sans-Serif" font-size="10.00">::Handle::setName</text>
</a>
</g>
</g>
<!-- Node1&#45;&gt;Node3 -->
<g id="edge2" class="edge"><title>Node1&#45;&gt;Node3</title>
<path fill="none" stroke="midnightblue" d="M191.298,-96.2456C209.444,-98.1111 228.065,-100.025 245.036,-101.77"/>
<polygon fill="midnightblue" stroke="midnightblue" points="245.065,-105.291 255.37,-102.832 245.781,-98.3281 245.065,-105.291"/>
</g>
<!-- Node4 -->
<g id="node4" class="node"><title>Node4</title>
<g id="a_node4"><a xlink:href="namespaceRa_1_1Core_1_1Asset.html#a9a7ca6c7d138ab84b45f99aead35ff78" target="_top" xlink:title="Create a skeleton from a Handle Data extracted from a file Outputs the skeleton and a map from the co...">
<polygon fill="white" stroke="black" points="227,-55 227,-74 396,-74 396,-55 227,-55"/>
<text text-anchor="middle" x="311.5" y="-62" font-family="Helvetica,sans-Serif" font-size="10.00">Ra::Core::Asset::createSkeleton</text>
</a>
</g>
</g>
<!-- Node1&#45;&gt;Node4 -->
<g id="edge3" class="edge"><title>Node1&#45;&gt;Node4</title>
<path fill="none" stroke="midnightblue" d="M191.298,-76.7544C199.723,-75.8883 208.251,-75.0116 216.668,-74.1463"/>
<polygon fill="midnightblue" stroke="midnightblue" points="217.276,-77.6023 226.865,-73.098 216.56,-70.639 217.276,-77.6023"/>
</g>
<!-- Node8 -->
<g id="node8" class="node"><title>Node8</title>
<g id="a_node8"><a xlink:href="classRa_1_1Core_1_1Animation_1_1Skeleton.html#acb6381c3f288f580800589eb718c1759" target="_top" xlink:title="Ra::Core::Animation\l::Skeleton::getPose">
<polygon fill="white" stroke="black" points="255.5,-5.5 255.5,-35.5 367.5,-35.5 367.5,-5.5 255.5,-5.5"/>
<text text-anchor="start" x="263.5" y="-23.5" font-family="Helvetica,sans-Serif" font-size="10.00">Ra::Core::Animation</text>
<text text-anchor="middle" x="311.5" y="-12.5" font-family="Helvetica,sans-Serif" font-size="10.00">::Skeleton::getPose</text>
</a>
</g>
</g>
<!-- Node1&#45;&gt;Node8 -->
<g id="edge7" class="edge"><title>Node1&#45;&gt;Node8</title>
<path fill="none" stroke="midnightblue" d="M143.873,-71.4476C168.618,-63.6275 199.415,-53.9624 227,-45.5 234.426,-43.222 242.23,-40.8525 249.963,-38.5197"/>
<polygon fill="midnightblue" stroke="midnightblue" points="251.119,-41.8271 259.687,-35.5942 249.102,-35.1239 251.119,-41.8271"/>
</g>
<!-- Node5 -->
<g id="node5" class="node"><title>Node5</title>
<g id="a_node5"><a xlink:href="classRa_1_1Core_1_1Asset_1_1HandleData.html#a06a80ef7e42fd860557b93a1d035d283" target="_top" xlink:title="DATA. ">
<polygon fill="white" stroke="black" points="432,-98.5 432,-128.5 585,-128.5 585,-98.5 432,-98.5"/>
<text text-anchor="start" x="440" y="-116.5" font-family="Helvetica,sans-Serif" font-size="10.00">Ra::Core::Asset::HandleData</text>
<text text-anchor="middle" x="508.5" y="-105.5" font-family="Helvetica,sans-Serif" font-size="10.00">::getComponentDataSize</text>
</a>
</g>
</g>
<!-- Node4&#45;&gt;Node5 -->
<g id="edge4" class="edge"><title>Node4&#45;&gt;Node5</title>
<path fill="none" stroke="midnightblue" d="M352.886,-74.0067C366.586,-77.276 381.972,-80.996 396,-84.5 410.427,-88.1035 425.878,-92.0598 440.541,-95.86"/>
<polygon fill="midnightblue" stroke="midnightblue" points="439.986,-99.3319 450.545,-98.4598 441.747,-92.557 439.986,-99.3319"/>
</g>
<!-- Node6 -->
<g id="node6" class="node"><title>Node6</title>
<g id="a_node6"><a xlink:href="classRa_1_1Core_1_1Asset_1_1HandleData.html#a456d73d7b367dbf29f03d037bedaeaba" target="_top" xlink:title="Ra::Core::Asset::HandleData\l::getComponentData">
<polygon fill="white" stroke="black" points="432,-49.5 432,-79.5 585,-79.5 585,-49.5 432,-49.5"/>
<text text-anchor="start" x="440" y="-67.5" font-family="Helvetica,sans-Serif" font-size="10.00">Ra::Core::Asset::HandleData</text>
<text text-anchor="middle" x="508.5" y="-56.5" font-family="Helvetica,sans-Serif" font-size="10.00">::getComponentData</text>
</a>
</g>
</g>
<!-- Node4&#45;&gt;Node6 -->
<g id="edge5" class="edge"><title>Node4&#45;&gt;Node6</title>
<path fill="none" stroke="midnightblue" d="M396.046,-64.5C404.498,-64.5 413.092,-64.5 421.568,-64.5"/>
<polygon fill="midnightblue" stroke="midnightblue" points="421.83,-68.0001 431.83,-64.5 421.83,-61.0001 421.83,-68.0001"/>
</g>
<!-- Node7 -->
<g id="node7" class="node"><title>Node7</title>
<g id="a_node7"><a xlink:href="classRa_1_1Core_1_1Asset_1_1HandleData.html#a2ce8dde1d1d3848bcc76693a40e389de" target="_top" xlink:title="Ra::Core::Asset::HandleData\l::getEdgeData">
<polygon fill="white" stroke="black" points="432,-0.5 432,-30.5 585,-30.5 585,-0.5 432,-0.5"/>
<text text-anchor="start" x="440" y="-18.5" font-family="Helvetica,sans-Serif" font-size="10.00">Ra::Core::Asset::HandleData</text>
<text text-anchor="middle" x="508.5" y="-7.5" font-family="Helvetica,sans-Serif" font-size="10.00">::getEdgeData</text>
</a>
</g>
</g>
<!-- Node4&#45;&gt;Node7 -->
<g id="edge6" class="edge"><title>Node4&#45;&gt;Node7</title>
<path fill="none" stroke="midnightblue" d="M355.914,-54.9596C368.838,-52.0284 383.014,-48.7232 396,-45.5 411.321,-41.6972 427.768,-37.3952 443.197,-33.2609"/>
<polygon fill="midnightblue" stroke="midnightblue" points="444.422,-36.5558 453.167,-30.5753 442.601,-29.7967 444.422,-36.5558"/>
</g>
</g>
</svg>
