<?xml version="1.0" encoding="UTF-8" standalone="no"?>
<!DOCTYPE svg PUBLIC "-//W3C//DTD SVG 1.1//EN"
 "http://www.w3.org/Graphics/SVG/1.1/DTD/svg11.dtd">
<!-- Generated by graphviz version 2.38.0 (20140413.2041)
 -->
<!-- Title: MeshFeatureTrackingPlugin::MeshFeatureTrackingPluginC::update Pages: 1 -->
<svg width="1101pt" height="453pt"
 viewBox="0.00 0.00 1101.00 452.50" xmlns="http://www.w3.org/2000/svg" xmlns:xlink="http://www.w3.org/1999/xlink">
<g id="graph0" class="graph" transform="scale(1 1) rotate(0) translate(4 448.5)">
<title>MeshFeatureTrackingPlugin::MeshFeatureTrackingPluginC::update</title>
<polygon fill="white" stroke="none" points="-4,4 -4,-448.5 1097,-448.5 1097,4 -4,4"/>
<!-- Node1 -->
<g id="node1" class="node"><title>Node1</title>
<polygon fill="#bfbfbf" stroke="black" points="0,-98.5 0,-139.5 158,-139.5 158,-98.5 0,-98.5"/>
<text text-anchor="start" x="8" y="-127.5" font-family="Helvetica,sans-Serif" font-size="10.00">MeshFeatureTrackingPlugin</text>
<text text-anchor="start" x="8" y="-116.5" font-family="Helvetica,sans-Serif" font-size="10.00">::MeshFeatureTrackingPluginC</text>
<text text-anchor="middle" x="79" y="-105.5" font-family="Helvetica,sans-Serif" font-size="10.00">::update</text>
</g>
<!-- Node2 -->
<g id="node2" class="node"><title>Node2</title>
<g id="a_node2"><a xlink:href="classMeshFeatureTrackingPlugin_1_1MeshFeatureTrackingComponent.html#a7f9f785a0e97dfec002b5a569f087ad6" target="_top" xlink:title="MeshFeatureTrackingPlugin\l::MeshFeatureTrackingComponent\l::update">
<polygon fill="white" stroke="black" points="194,-245.5 194,-286.5 373,-286.5 373,-245.5 194,-245.5"/>
<text text-anchor="start" x="202" y="-274.5" font-family="Helvetica,sans-Serif" font-size="10.00">MeshFeatureTrackingPlugin</text>
<text text-anchor="start" x="202" y="-263.5" font-family="Helvetica,sans-Serif" font-size="10.00">::MeshFeatureTrackingComponent</text>
<text text-anchor="middle" x="283.5" y="-252.5" font-family="Helvetica,sans-Serif" font-size="10.00">::update</text>
</a>
</g>
</g>
<!-- Node1&#45;&gt;Node2 -->
<g id="edge1" class="edge"><title>Node1&#45;&gt;Node2</title>
<path fill="none" stroke="midnightblue" d="M108.584,-139.75C144.464,-165.796 206.076,-210.522 245.515,-239.151"/>
<polygon fill="midnightblue" stroke="midnightblue" points="243.913,-242.314 254.062,-245.356 248.025,-236.649 243.913,-242.314"/>
</g>
<!-- Node6 -->
<g id="node6" class="node"><title>Node6</title>
<g id="a_node6"><a xlink:href="classMeshFeatureTrackingPlugin_1_1MeshFeatureTrackingComponent.html#a070c4cf514a05514998983ef9ea8333c" target="_top" xlink:title="MeshFeatureTrackingPlugin\l::MeshFeatureTrackingComponent\l::getFeaturePosition">
<polygon fill="white" stroke="black" points="409,-136.5 409,-177.5 588,-177.5 588,-136.5 409,-136.5"/>
<text text-anchor="start" x="417" y="-165.5" font-family="Helvetica,sans-Serif" font-size="10.00">MeshFeatureTrackingPlugin</text>
<text text-anchor="start" x="417" y="-154.5" font-family="Helvetica,sans-Serif" font-size="10.00">::MeshFeatureTrackingComponent</text>
<text text-anchor="middle" x="498.5" y="-143.5" font-family="Helvetica,sans-Serif" font-size="10.00">::getFeaturePosition</text>
</a>
</g>
</g>
<!-- Node1&#45;&gt;Node6 -->
<g id="edge19" class="edge"><title>Node1&#45;&gt;Node6</title>
<path fill="none" stroke="midnightblue" d="M158.039,-126.103C226.113,-132.299 325.22,-141.319 398.791,-148.016"/>
<polygon fill="midnightblue" stroke="midnightblue" points="398.721,-151.524 408.997,-148.945 399.355,-144.553 398.721,-151.524"/>
</g>
<!-- Node14 -->
<g id="node14" class="node"><title>Node14</title>
<g id="a_node14"><a xlink:href="classMeshFeatureTrackingUI.html#a625d0d3786b6ecac8ecbf3027798e4e9" target="_top" xlink:title="MeshFeatureTrackingUI\l::updateTracking">
<polygon fill="white" stroke="black" points="220.5,-60 220.5,-90 346.5,-90 346.5,-60 220.5,-60"/>
<text text-anchor="start" x="228.5" y="-78" font-family="Helvetica,sans-Serif" font-size="10.00">MeshFeatureTrackingUI</text>
<text text-anchor="middle" x="283.5" y="-67" font-family="Helvetica,sans-Serif" font-size="10.00">::updateTracking</text>
</a>
</g>
</g>
<!-- Node1&#45;&gt;Node14 -->
<g id="edge17" class="edge"><title>Node1&#45;&gt;Node14</title>
<path fill="none" stroke="midnightblue" d="M158.002,-102.051C175.232,-98.3075 193.412,-94.3573 210.396,-90.667"/>
<polygon fill="midnightblue" stroke="midnightblue" points="211.213,-94.0713 220.242,-88.5278 209.726,-87.2309 211.213,-94.0713"/>
</g>
<!-- Node15 -->
<g id="node15" class="node"><title>Node15</title>
<g id="a_node15"><a xlink:href="classMeshFeatureTrackingPlugin_1_1MeshFeatureTrackingComponent.html#a8be16956b81c04b73837d1bc2277a50f" target="_top" xlink:title="MeshFeatureTrackingPlugin\l::MeshFeatureTrackingComponent\l::getFeatureData">
<polygon fill="white" stroke="black" points="194,-0.5 194,-41.5 373,-41.5 373,-0.5 194,-0.5"/>
<text text-anchor="start" x="202" y="-29.5" font-family="Helvetica,sans-Serif" font-size="10.00">MeshFeatureTrackingPlugin</text>
<text text-anchor="start" x="202" y="-18.5" font-family="Helvetica,sans-Serif" font-size="10.00">::MeshFeatureTrackingComponent</text>
<text text-anchor="middle" x="283.5" y="-7.5" font-family="Helvetica,sans-Serif" font-size="10.00">::getFeatureData</text>
</a>
</g>
</g>
<!-- Node1&#45;&gt;Node15 -->
<g id="edge18" class="edge"><title>Node1&#45;&gt;Node15</title>
<path fill="none" stroke="midnightblue" d="M109.925,-98.293C132.336,-83.4391 164.146,-63.7087 194,-50 197.536,-48.3765 201.188,-46.802 204.905,-45.2816"/>
<polygon fill="midnightblue" stroke="midnightblue" points="206.215,-48.5275 214.246,-41.6167 203.658,-42.0112 206.215,-48.5275"/>
</g>
<!-- Node16 -->
<g id="node16" class="node"><title>Node16</title>
<g id="a_node16"><a xlink:href="classMeshFeatureTrackingPlugin_1_1MeshFeatureTrackingComponent.html#a2488fa8b1b29a5cc427ccd2f079e86cf" target="_top" xlink:title="MeshFeatureTrackingPlugin\l::MeshFeatureTrackingComponent\l::getFeatureVector">
<polygon fill="white" stroke="black" points="409,-76.5 409,-117.5 588,-117.5 588,-76.5 409,-76.5"/>
<text text-anchor="start" x="417" y="-105.5" font-family="Helvetica,sans-Serif" font-size="10.00">MeshFeatureTrackingPlugin</text>
<text text-anchor="start" x="417" y="-94.5" font-family="Helvetica,sans-Serif" font-size="10.00">::MeshFeatureTrackingComponent</text>
<text text-anchor="middle" x="498.5" y="-83.5" font-family="Helvetica,sans-Serif" font-size="10.00">::getFeatureVector</text>
</a>
</g>
</g>
<!-- Node1&#45;&gt;Node16 -->
<g id="edge20" class="edge"><title>Node1&#45;&gt;Node16</title>
<path fill="none" stroke="midnightblue" d="M158.039,-114.888C226.113,-111.301 325.22,-106.078 398.791,-102.201"/>
<polygon fill="midnightblue" stroke="midnightblue" points="399.195,-105.685 408.997,-101.664 398.827,-98.6948 399.195,-105.685"/>
</g>
<!-- Node3 -->
<g id="node3" class="node"><title>Node3</title>
<g id="a_node3"><a xlink:href="classRa_1_1Engine_1_1Component.html#a10b0bc182b76165744ebea603ae32dfe" target="_top" xlink:title="Shortcut to access the render object manager. ">
<polygon fill="white" stroke="black" points="631.5,-196 631.5,-226 760.5,-226 760.5,-196 631.5,-196"/>
<text text-anchor="start" x="639.5" y="-214" font-family="Helvetica,sans-Serif" font-size="10.00">Ra::Engine::Component</text>
<text text-anchor="middle" x="696" y="-203" font-family="Helvetica,sans-Serif" font-size="10.00">::getRoMgr</text>
</a>
</g>
</g>
<!-- Node2&#45;&gt;Node3 -->
<g id="edge2" class="edge"><title>Node2&#45;&gt;Node3</title>
<path fill="none" stroke="midnightblue" d="M373.264,-266.536C434.196,-265.423 516.634,-260.987 588,-247 608.216,-243.038 629.87,-236.26 648.372,-229.647"/>
<polygon fill="midnightblue" stroke="midnightblue" points="649.83,-232.841 658.016,-226.115 647.422,-226.268 649.83,-232.841"/>
</g>
<!-- Node4 -->
<g id="node4" class="node"><title>Node4</title>
<g id="a_node4"><a xlink:href="classMeshFeatureTrackingPlugin_1_1MeshFeatureTrackingComponent.html#ae7f3f822c5cd05548c11d92b3ef98931" target="_top" xlink:title="Registers the new center for the sphere. ">
<polygon fill="white" stroke="black" points="409,-294.5 409,-335.5 588,-335.5 588,-294.5 409,-294.5"/>
<text text-anchor="start" x="417" y="-323.5" font-family="Helvetica,sans-Serif" font-size="10.00">MeshFeatureTrackingPlugin</text>
<text text-anchor="start" x="417" y="-312.5" font-family="Helvetica,sans-Serif" font-size="10.00">::MeshFeatureTrackingComponent</text>
<text text-anchor="middle" x="498.5" y="-301.5" font-family="Helvetica,sans-Serif" font-size="10.00">::setPosition</text>
</a>
</g>
</g>
<!-- Node2&#45;&gt;Node4 -->
<g id="edge3" class="edge"><title>Node2&#45;&gt;Node4</title>
<path fill="none" stroke="midnightblue" d="M373.289,-286.426C381.739,-288.37 390.343,-290.349 398.879,-292.313"/>
<polygon fill="midnightblue" stroke="midnightblue" points="398.325,-295.776 408.855,-294.607 399.894,-288.955 398.325,-295.776"/>
</g>
<!-- Node2&#45;&gt;Node6 -->
<g id="edge5" class="edge"><title>Node2&#45;&gt;Node6</title>
<path fill="none" stroke="midnightblue" d="M312.553,-245.449C337.079,-228.167 374.129,-203.678 409,-187 413.061,-185.058 417.282,-183.184 421.58,-181.386"/>
<polygon fill="midnightblue" stroke="midnightblue" points="423.101,-184.547 431.08,-177.577 420.496,-178.05 423.101,-184.547"/>
</g>
<!-- Node10 -->
<g id="node10" class="node"><title>Node10</title>
<g id="a_node10"><a xlink:href="classMeshFeatureTrackingPlugin_1_1MeshFeatureTrackingComponent.html#a66ff6e44bfadaa9cb0b5a3f2c09e205e" target="_top" xlink:title="Registers the new scale for the sphere. ">
<polygon fill="white" stroke="black" points="409,-354.5 409,-395.5 588,-395.5 588,-354.5 409,-354.5"/>
<text text-anchor="start" x="417" y="-383.5" font-family="Helvetica,sans-Serif" font-size="10.00">MeshFeatureTrackingPlugin</text>
<text text-anchor="start" x="417" y="-372.5" font-family="Helvetica,sans-Serif" font-size="10.00">::MeshFeatureTrackingComponent</text>
<text text-anchor="middle" x="498.5" y="-361.5" font-family="Helvetica,sans-Serif" font-size="10.00">::setScale</text>
</a>
</g>
</g>
<!-- Node2&#45;&gt;Node10 -->
<g id="edge10" class="edge"><title>Node2&#45;&gt;Node10</title>
<path fill="none" stroke="midnightblue" d="M312.553,-286.551C337.079,-303.833 374.129,-328.322 409,-345 413.061,-346.942 417.282,-348.816 421.58,-350.614"/>
<polygon fill="midnightblue" stroke="midnightblue" points="420.496,-353.95 431.08,-354.423 423.101,-347.453 420.496,-353.95"/>
</g>
<!-- Node12 -->
<g id="node12" class="node"><title>Node12</title>
<g id="a_node12"><a xlink:href="classMeshFeatureTrackingPlugin_1_1MeshFeatureTrackingComponent.html#ab8cb3c199c646746382ee3b5f9a76565" target="_top" xlink:title="MeshFeatureTrackingPlugin\l::MeshFeatureTrackingComponent\l::getFeatureScale">
<polygon fill="white" stroke="black" points="409,-196.5 409,-237.5 588,-237.5 588,-196.5 409,-196.5"/>
<text text-anchor="start" x="417" y="-225.5" font-family="Helvetica,sans-Serif" font-size="10.00">MeshFeatureTrackingPlugin</text>
<text text-anchor="start" x="417" y="-214.5" font-family="Helvetica,sans-Serif" font-size="10.00">::MeshFeatureTrackingComponent</text>
<text text-anchor="middle" x="498.5" y="-203.5" font-family="Helvetica,sans-Serif" font-size="10.00">::getFeatureScale</text>
</a>
</g>
</g>
<!-- Node2&#45;&gt;Node12 -->
<g id="edge13" class="edge"><title>Node2&#45;&gt;Node12</title>
<path fill="none" stroke="midnightblue" d="M373.289,-245.574C381.739,-243.63 390.343,-241.651 398.879,-239.687"/>
<polygon fill="midnightblue" stroke="midnightblue" points="399.894,-243.045 408.855,-237.393 398.325,-236.224 399.894,-243.045"/>
</g>
<!-- Node13 -->
<g id="node13" class="node"><title>Node13</title>
<g id="a_node13"><a xlink:href="classRa_1_1Engine_1_1RenderObject.html#a62e0eb3a7de5a7d352b565a28260cc06" target="_top" xlink:title="Ra::Engine::RenderObject\l::setVisible">
<polygon fill="white" stroke="black" points="430,-414 430,-444 567,-444 567,-414 430,-414"/>
<text text-anchor="start" x="438" y="-432" font-family="Helvetica,sans-Serif" font-size="10.00">Ra::Engine::RenderObject</text>
<text text-anchor="middle" x="498.5" y="-421" font-family="Helvetica,sans-Serif" font-size="10.00">::setVisible</text>
</a>
</g>
</g>
<!-- Node2&#45;&gt;Node13 -->
<g id="edge16" class="edge"><title>Node2&#45;&gt;Node13</title>
<path fill="none" stroke="midnightblue" d="M297.279,-286.623C317.289,-317.167 358.952,-374.136 409,-405 412.582,-407.209 416.369,-409.218 420.278,-411.044"/>
<polygon fill="midnightblue" stroke="midnightblue" points="419.015,-414.31 429.588,-414.983 421.742,-407.863 419.015,-414.31"/>
</g>
<!-- Node5 -->
<g id="node5" class="node"><title>Node5</title>
<g id="a_node5"><a xlink:href="classRa_1_1Engine_1_1RenderObject.html#a2d6a1bc2b7646fe0912035a2ece24864" target="_top" xlink:title="Ra::Engine::RenderObject\l::setLocalTransform">
<polygon fill="white" stroke="black" points="627.5,-305 627.5,-335 764.5,-335 764.5,-305 627.5,-305"/>
<text text-anchor="start" x="635.5" y="-323" font-family="Helvetica,sans-Serif" font-size="10.00">Ra::Engine::RenderObject</text>
<text text-anchor="middle" x="696" y="-312" font-family="Helvetica,sans-Serif" font-size="10.00">::setLocalTransform</text>
</a>
</g>
</g>
<!-- Node4&#45;&gt;Node5 -->
<g id="edge4" class="edge"><title>Node4&#45;&gt;Node5</title>
<path fill="none" stroke="midnightblue" d="M588.098,-317.266C597.817,-317.515 607.658,-317.766 617.232,-318.011"/>
<polygon fill="midnightblue" stroke="midnightblue" points="617.411,-321.517 627.498,-318.274 617.59,-314.519 617.411,-321.517"/>
</g>
<!-- Node6&#45;&gt;Node3 -->
<g id="edge6" class="edge"><title>Node6&#45;&gt;Node3</title>
<path fill="none" stroke="midnightblue" d="M573.968,-177.569C592.632,-182.725 612.499,-188.212 630.626,-193.219"/>
<polygon fill="midnightblue" stroke="midnightblue" points="629.928,-196.657 640.499,-195.946 631.792,-189.91 629.928,-196.657"/>
</g>
<!-- Node7 -->
<g id="node7" class="node"><title>Node7</title>
<g id="a_node7"><a xlink:href="classRa_1_1Engine_1_1RenderObjectManager.html#a13fc919e9fa01bfb36e67bc9011d325f" target="_top" xlink:title="Returns the render object corresponding to the given index. ">
<polygon fill="white" stroke="black" points="624,-142 624,-172 768,-172 768,-142 624,-142"/>
<text text-anchor="start" x="632" y="-160" font-family="Helvetica,sans-Serif" font-size="10.00">Ra::Engine::RenderObject</text>
<text text-anchor="middle" x="696" y="-149" font-family="Helvetica,sans-Serif" font-size="10.00">Manager::getRenderObject</text>
</a>
</g>
</g>
<!-- Node6&#45;&gt;Node7 -->
<g id="edge7" class="edge"><title>Node6&#45;&gt;Node7</title>
<path fill="none" stroke="midnightblue" d="M588.098,-157C596.645,-157 605.286,-157 613.757,-157"/>
<polygon fill="midnightblue" stroke="midnightblue" points="613.988,-160.5 623.988,-157 613.988,-153.5 613.988,-160.5"/>
</g>
<!-- Node8 -->
<g id="node8" class="node"><title>Node8</title>
<g id="a_node8"><a xlink:href="classRa_1_1Engine_1_1RenderObjectManager.html#a088feae4339349a81b7b6635b38aead1" target="_top" xlink:title="Returns true if the index points to a valid render object. ">
<polygon fill="white" stroke="black" points="804,-142 804,-172 941,-172 941,-142 804,-142"/>
<text text-anchor="start" x="812" y="-160" font-family="Helvetica,sans-Serif" font-size="10.00">Ra::Engine::RenderObject</text>
<text text-anchor="middle" x="872.5" y="-149" font-family="Helvetica,sans-Serif" font-size="10.00">Manager::exists</text>
</a>
</g>
</g>
<!-- Node7&#45;&gt;Node8 -->
<g id="edge8" class="edge"><title>Node7&#45;&gt;Node8</title>
<path fill="none" stroke="midnightblue" d="M768.228,-157C776.602,-157 785.181,-157 793.641,-157"/>
<polygon fill="midnightblue" stroke="midnightblue" points="793.879,-160.5 803.879,-157 793.879,-153.5 793.879,-160.5"/>
</g>
<!-- Node9 -->
<g id="node9" class="node"><title>Node9</title>
<g id="a_node9"><a xlink:href="classRa_1_1Core_1_1Utils_1_1Index.html#ac7a1b710e6b95834a562c27e2f6c0f4b" target="_top" xlink:title="DESTRUCTOR: Must not be defined, we need it trivial to be constexpr. ">
<polygon fill="white" stroke="black" points="977,-142 977,-172 1093,-172 1093,-142 977,-142"/>
<text text-anchor="start" x="985" y="-160" font-family="Helvetica,sans-Serif" font-size="10.00">Ra::Core::Utils::Index</text>
<text text-anchor="middle" x="1035" y="-149" font-family="Helvetica,sans-Serif" font-size="10.00">::isValid</text>
</a>
</g>
</g>
<!-- Node8&#45;&gt;Node9 -->
<g id="edge9" class="edge"><title>Node8&#45;&gt;Node9</title>
<path fill="none" stroke="midnightblue" d="M941.101,-157C949.567,-157 958.226,-157 966.688,-157"/>
<polygon fill="midnightblue" stroke="midnightblue" points="966.885,-160.5 976.885,-157 966.885,-153.5 966.885,-160.5"/>
</g>
<!-- Node10&#45;&gt;Node5 -->
<g id="edge12" class="edge"><title>Node10&#45;&gt;Node5</title>
<path fill="none" stroke="midnightblue" d="M572.575,-354.442C592.062,-348.959 612.949,-343.083 631.854,-337.765"/>
<polygon fill="midnightblue" stroke="midnightblue" points="632.862,-341.117 641.541,-335.04 630.967,-334.379 632.862,-341.117"/>
</g>
<!-- Node11 -->
<g id="node11" class="node"><title>Node11</title>
<g id="a_node11"><a xlink:href="classRa_1_1Engine_1_1RenderObject.html#af6b3614bed03854e25328b143343fe1e" target="_top" xlink:title="Ra::Engine::RenderObject\l::getLocalTransform">
<polygon fill="white" stroke="black" points="627.5,-360 627.5,-390 764.5,-390 764.5,-360 627.5,-360"/>
<text text-anchor="start" x="635.5" y="-378" font-family="Helvetica,sans-Serif" font-size="10.00">Ra::Engine::RenderObject</text>
<text text-anchor="middle" x="696" y="-367" font-family="Helvetica,sans-Serif" font-size="10.00">::getLocalTransform</text>
</a>
</g>
</g>
<!-- Node10&#45;&gt;Node11 -->
<g id="edge11" class="edge"><title>Node10&#45;&gt;Node11</title>
<path fill="none" stroke="midnightblue" d="M588.098,-375C597.817,-375 607.658,-375 617.232,-375"/>
<polygon fill="midnightblue" stroke="midnightblue" points="617.498,-378.5 627.498,-375 617.498,-371.5 617.498,-378.5"/>
</g>
<!-- Node12&#45;&gt;Node3 -->
<g id="edge14" class="edge"><title>Node12&#45;&gt;Node3</title>
<path fill="none" stroke="midnightblue" d="M588.098,-214.281C599.123,-213.943 610.304,-213.599 621.075,-213.269"/>
<polygon fill="midnightblue" stroke="midnightblue" points="621.369,-216.762 631.257,-212.956 621.154,-209.765 621.369,-216.762"/>
</g>
<!-- Node12&#45;&gt;Node7 -->
<g id="edge15" class="edge"><title>Node12&#45;&gt;Node7</title>
<path fill="none" stroke="midnightblue" d="M566.506,-196.435C589.128,-189.493 614.195,-181.799 636.138,-175.065"/>
<polygon fill="midnightblue" stroke="midnightblue" points="637.448,-178.324 645.98,-172.044 635.394,-171.632 637.448,-178.324"/>
</g>
<!-- Node16&#45;&gt;Node3 -->
<g id="edge21" class="edge"><title>Node16&#45;&gt;Node3</title>
<path fill="none" stroke="midnightblue" d="M572.978,-117.507C578.288,-120.293 583.368,-123.443 588,-127 610.878,-144.566 601.778,-162.611 624,-181 628.623,-184.826 633.805,-188.232 639.209,-191.247"/>
<polygon fill="midnightblue" stroke="midnightblue" points="637.953,-194.536 648.451,-195.96 641.132,-188.3 637.953,-194.536"/>
</g>
<!-- Node16&#45;&gt;Node7 -->
<g id="edge22" class="edge"><title>Node16&#45;&gt;Node7</title>
<path fill="none" stroke="midnightblue" d="M566.506,-117.565C589.128,-124.507 614.195,-132.201 636.138,-138.935"/>
<polygon fill="midnightblue" stroke="midnightblue" points="635.394,-142.368 645.98,-141.956 637.448,-135.676 635.394,-142.368"/>
</g>
<!-- Node17 -->
<g id="node17" class="node"><title>Node17</title>
<g id="a_node17"><a xlink:href="namespaceOpenMesh.html#a71e7f1dd3eac016d2b8245ac408a291c" target="_top" xlink:title="OpenMesh::cross">
<polygon fill="white" stroke="black" points="646.5,-87.5 646.5,-106.5 745.5,-106.5 745.5,-87.5 646.5,-87.5"/>
<text text-anchor="middle" x="696" y="-94.5" font-family="Helvetica,sans-Serif" font-size="10.00">OpenMesh::cross</text>
</a>
</g>
</g>
<!-- Node16&#45;&gt;Node17 -->
<g id="edge23" class="edge"><title>Node16&#45;&gt;Node17</title>
<path fill="none" stroke="midnightblue" d="M588.098,-97C604.351,-97 620.944,-97 636.06,-97"/>
<polygon fill="midnightblue" stroke="midnightblue" points="636.266,-100.5 646.266,-97 636.266,-93.5001 636.266,-100.5"/>
</g>
</g>
</svg>
