<?xml version="1.0" encoding="UTF-8" standalone="no"?>
<!DOCTYPE svg PUBLIC "-//W3C//DTD SVG 1.1//EN"
 "http://www.w3.org/Graphics/SVG/1.1/DTD/svg11.dtd">
<!-- Generated by graphviz version 2.38.0 (20140413.2041)
 -->
<!-- Title: Ra::Gui::Gizmo Pages: 1 -->
<svg width="408pt" height="336pt"
 viewBox="0.00 0.00 408.00 336.00" xmlns="http://www.w3.org/2000/svg" xmlns:xlink="http://www.w3.org/1999/xlink">
<g id="graph0" class="graph" transform="scale(1 1) rotate(0) translate(4 332)">
<title>Ra::Gui::Gizmo</title>
<polygon fill="white" stroke="none" points="-4,4 -4,-332 404,-332 404,4 -4,4"/>
<!-- Node1 -->
<g id="node1" class="node"><title>Node1</title>
<polygon fill="#bfbfbf" stroke="black" points="136,-138.5 136,-327.5 252,-327.5 252,-138.5 136,-138.5"/>
<text text-anchor="middle" x="194" y="-315.5" font-family="Helvetica,sans-Serif" font-size="10.00">Ra::Gui::Gizmo</text>
<polyline fill="none" stroke="black" points="136,-308.5 252,-308.5 "/>
<text text-anchor="start" x="144" y="-296.5" font-family="Helvetica,sans-Serif" font-size="10.00"># m_worldTo</text>
<text text-anchor="start" x="144" y="-285.5" font-family="Helvetica,sans-Serif" font-size="10.00"># m_transform</text>
<text text-anchor="start" x="144" y="-274.5" font-family="Helvetica,sans-Serif" font-size="10.00"># m_comp</text>
<text text-anchor="start" x="144" y="-263.5" font-family="Helvetica,sans-Serif" font-size="10.00"># m_mode</text>
<text text-anchor="start" x="144" y="-252.5" font-family="Helvetica,sans-Serif" font-size="10.00"># m_renderObjects</text>
<polyline fill="none" stroke="black" points="136,-245.5 252,-245.5 "/>
<text text-anchor="start" x="144" y="-233.5" font-family="Helvetica,sans-Serif" font-size="10.00">+ Gizmo()</text>
<text text-anchor="start" x="144" y="-222.5" font-family="Helvetica,sans-Serif" font-size="10.00">+ ~Gizmo()</text>
<text text-anchor="start" x="144" y="-211.5" font-family="Helvetica,sans-Serif" font-size="10.00">+ show()</text>
<text text-anchor="start" x="144" y="-200.5" font-family="Helvetica,sans-Serif" font-size="10.00">+ updateTransform()</text>
<text text-anchor="start" x="144" y="-189.5" font-family="Helvetica,sans-Serif" font-size="10.00">+ selectConstraint()</text>
<text text-anchor="start" x="144" y="-178.5" font-family="Helvetica,sans-Serif" font-size="10.00">+ setInitialState()</text>
<text text-anchor="start" x="144" y="-167.5" font-family="Helvetica,sans-Serif" font-size="10.00">+ mouseMove()</text>
<text text-anchor="start" x="144" y="-156.5" font-family="Helvetica,sans-Serif" font-size="10.00"># findPointOnAxis()</text>
<text text-anchor="start" x="144" y="-145.5" font-family="Helvetica,sans-Serif" font-size="10.00"># findPointOnPlane()</text>
</g>
<!-- Node2 -->
<g id="node2" class="node"><title>Node2</title>
<g id="a_node2"><a xlink:href="classRa_1_1Gui_1_1RotateGizmo.html" target="_top" xlink:title="A RotateGizmo manipulates the rotational part of a transformation. ">
<polygon fill="white" stroke="black" points="0,-0.5 0,-101.5 118,-101.5 118,-0.5 0,-0.5"/>
<text text-anchor="middle" x="59" y="-89.5" font-family="Helvetica,sans-Serif" font-size="10.00">Ra::Gui::RotateGizmo</text>
<polyline fill="none" stroke="black" points="0,-82.5 118,-82.5 "/>
<text text-anchor="middle" x="59" y="-70.5" font-family="Helvetica,sans-Serif" font-size="10.00"> </text>
<polyline fill="none" stroke="black" points="0,-63.5 118,-63.5 "/>
<text text-anchor="start" x="8" y="-51.5" font-family="Helvetica,sans-Serif" font-size="10.00">+ RotateGizmo()</text>
<text text-anchor="start" x="8" y="-40.5" font-family="Helvetica,sans-Serif" font-size="10.00">+ updateTransform()</text>
<text text-anchor="start" x="8" y="-29.5" font-family="Helvetica,sans-Serif" font-size="10.00">+ selectConstraint()</text>
<text text-anchor="start" x="8" y="-18.5" font-family="Helvetica,sans-Serif" font-size="10.00">+ setInitialState()</text>
<text text-anchor="start" x="8" y="-7.5" font-family="Helvetica,sans-Serif" font-size="10.00">+ mouseMove()</text>
</a>
</g>
</g>
<!-- Node1&#45;&gt;Node2 -->
<g id="edge1" class="edge"><title>Node1&#45;&gt;Node2</title>
<path fill="none" stroke="midnightblue" d="M129.955,-146.607C118.426,-131.235 106.762,-115.683 96.3138,-101.752"/>
<polygon fill="none" stroke="midnightblue" points="127.164,-148.719 135.964,-154.619 132.764,-144.519 127.164,-148.719"/>
</g>
<!-- Node3 -->
<g id="node3" class="node"><title>Node3</title>
<g id="a_node3"><a xlink:href="classRa_1_1Gui_1_1ScaleGizmo.html" target="_top" xlink:title="A ScaleGizmo manipulates the scaling part of a transformation. ">
<polygon fill="white" stroke="black" points="136,-0.5 136,-101.5 252,-101.5 252,-0.5 136,-0.5"/>
<text text-anchor="middle" x="194" y="-89.5" font-family="Helvetica,sans-Serif" font-size="10.00">Ra::Gui::ScaleGizmo</text>
<polyline fill="none" stroke="black" points="136,-82.5 252,-82.5 "/>
<text text-anchor="middle" x="194" y="-70.5" font-family="Helvetica,sans-Serif" font-size="10.00"> </text>
<polyline fill="none" stroke="black" points="136,-63.5 252,-63.5 "/>
<text text-anchor="start" x="144" y="-51.5" font-family="Helvetica,sans-Serif" font-size="10.00">+ ScaleGizmo()</text>
<text text-anchor="start" x="144" y="-40.5" font-family="Helvetica,sans-Serif" font-size="10.00">+ updateTransform()</text>
<text text-anchor="start" x="144" y="-29.5" font-family="Helvetica,sans-Serif" font-size="10.00">+ selectConstraint()</text>
<text text-anchor="start" x="144" y="-18.5" font-family="Helvetica,sans-Serif" font-size="10.00">+ setInitialState()</text>
<text text-anchor="start" x="144" y="-7.5" font-family="Helvetica,sans-Serif" font-size="10.00">+ mouseMove()</text>
</a>
</g>
</g>
<!-- Node1&#45;&gt;Node3 -->
<g id="edge2" class="edge"><title>Node1&#45;&gt;Node3</title>
<path fill="none" stroke="midnightblue" d="M194,-128.274C194,-119.08 194,-110.081 194,-101.673"/>
<polygon fill="none" stroke="midnightblue" points="190.5,-128.309 194,-138.31 197.5,-128.31 190.5,-128.309"/>
</g>
<!-- Node4 -->
<g id="node4" class="node"><title>Node4</title>
<g id="a_node4"><a xlink:href="classRa_1_1Gui_1_1TranslateGizmo.html" target="_top" xlink:title="A TranslateGizmo manipulates the translational part of a transformation. ">
<polygon fill="white" stroke="black" points="270,-0.5 270,-101.5 400,-101.5 400,-0.5 270,-0.5"/>
<text text-anchor="middle" x="335" y="-89.5" font-family="Helvetica,sans-Serif" font-size="10.00">Ra::Gui::TranslateGizmo</text>
<polyline fill="none" stroke="black" points="270,-82.5 400,-82.5 "/>
<text text-anchor="middle" x="335" y="-70.5" font-family="Helvetica,sans-Serif" font-size="10.00"> </text>
<polyline fill="none" stroke="black" points="270,-63.5 400,-63.5 "/>
<text text-anchor="start" x="278" y="-51.5" font-family="Helvetica,sans-Serif" font-size="10.00">+ TranslateGizmo()</text>
<text text-anchor="start" x="278" y="-40.5" font-family="Helvetica,sans-Serif" font-size="10.00">+ updateTransform()</text>
<text text-anchor="start" x="278" y="-29.5" font-family="Helvetica,sans-Serif" font-size="10.00">+ selectConstraint()</text>
<text text-anchor="start" x="278" y="-18.5" font-family="Helvetica,sans-Serif" font-size="10.00">+ setInitialState()</text>
<text text-anchor="start" x="278" y="-7.5" font-family="Helvetica,sans-Serif" font-size="10.00">+ mouseMove()</text>
</a>
</g>
</g>
<!-- Node1&#45;&gt;Node4 -->
<g id="edge3" class="edge"><title>Node1&#45;&gt;Node4</title>
<path fill="none" stroke="midnightblue" d="M258.442,-149.734C271.289,-133.334 284.406,-116.588 296.07,-101.698"/>
<polygon fill="none" stroke="midnightblue" points="255.576,-147.717 252.164,-157.748 261.086,-152.034 255.576,-147.717"/>
</g>
</g>
</svg>
