<?xml version="1.0" encoding="UTF-8" standalone="no"?>
<!DOCTYPE svg PUBLIC "-//W3C//DTD SVG 1.1//EN"
 "http://www.w3.org/Graphics/SVG/1.1/DTD/svg11.dtd">
<!-- Generated by graphviz version 2.38.0 (20140413.2041)
 -->
<!-- Title: Ra::Gui::Viewer::changeRenderer Pages: 1 -->
<svg width="484pt" height="186pt"
 viewBox="0.00 0.00 484.00 186.00" xmlns="http://www.w3.org/2000/svg" xmlns:xlink="http://www.w3.org/1999/xlink">
<g id="graph0" class="graph" transform="scale(1 1) rotate(0) translate(4 182)">
<title>Ra::Gui::Viewer::changeRenderer</title>
<polygon fill="white" stroke="none" points="-4,4 -4,-182 480,-182 480,4 -4,4"/>
<!-- Node1 -->
<g id="node1" class="node"><title>Node1</title>
<polygon fill="#bfbfbf" stroke="black" points="0,-79 0,-98 172,-98 172,-79 0,-79"/>
<text text-anchor="middle" x="86" y="-86" font-family="Helvetica,sans-Serif" font-size="10.00">Ra::Gui::Viewer::changeRenderer</text>
</g>
<!-- Node2 -->
<g id="node2" class="node"><title>Node2</title>
<g id="a_node2"><a xlink:href="classRa_1_1Engine_1_1Renderer.html#a3166160850c466595fe48a74116bc116" target="_top" xlink:title="Lock rendering. ">
<polygon fill="white" stroke="black" points="208,-147.5 208,-177.5 324,-177.5 324,-147.5 208,-147.5"/>
<text text-anchor="start" x="216" y="-165.5" font-family="Helvetica,sans-Serif" font-size="10.00">Ra::Engine::Renderer</text>
<text text-anchor="middle" x="266" y="-154.5" font-family="Helvetica,sans-Serif" font-size="10.00">::lockRendering</text>
</a>
</g>
</g>
<!-- Node1&#45;&gt;Node2 -->
<g id="edge1" class="edge"><title>Node1&#45;&gt;Node2</title>
<path fill="none" stroke="midnightblue" d="M109.906,-98.0227C137.371,-109.441 184.073,-128.856 219.069,-143.405"/>
<polygon fill="midnightblue" stroke="midnightblue" points="218.026,-146.762 228.603,-147.369 220.713,-140.298 218.026,-146.762"/>
</g>
<!-- Node3 -->
<g id="node3" class="node"><title>Node3</title>
<g id="a_node3"><a xlink:href="classRa_1_1Engine_1_1Renderer.html#a7343dbeb04c9699cc2abf2690c9941ee" target="_top" xlink:title="Resize the viewport and all the screen textures, fbos. ">
<polygon fill="white" stroke="black" points="208,-98.5 208,-128.5 324,-128.5 324,-98.5 208,-98.5"/>
<text text-anchor="start" x="216" y="-116.5" font-family="Helvetica,sans-Serif" font-size="10.00">Ra::Engine::Renderer</text>
<text text-anchor="middle" x="266" y="-105.5" font-family="Helvetica,sans-Serif" font-size="10.00">::resize</text>
</a>
</g>
</g>
<!-- Node1&#45;&gt;Node3 -->
<g id="edge2" class="edge"><title>Node1&#45;&gt;Node3</title>
<path fill="none" stroke="midnightblue" d="M154.802,-98.0227C168.874,-99.9992 183.698,-102.081 197.75,-104.055"/>
<polygon fill="midnightblue" stroke="midnightblue" points="197.435,-107.545 207.824,-105.47 198.409,-100.613 197.435,-107.545"/>
</g>
<!-- Node5 -->
<g id="node5" class="node"><title>Node5</title>
<g id="a_node5"><a xlink:href="classRa_1_1Engine_1_1Renderer.html#aa1773ee0f741df643e10d21d968fbcc3" target="_top" xlink:title="Unlock the rendering. ">
<polygon fill="white" stroke="black" points="208,-49.5 208,-79.5 324,-79.5 324,-49.5 208,-49.5"/>
<text text-anchor="start" x="216" y="-67.5" font-family="Helvetica,sans-Serif" font-size="10.00">Ra::Engine::Renderer</text>
<text text-anchor="middle" x="266" y="-56.5" font-family="Helvetica,sans-Serif" font-size="10.00">::unlockRendering</text>
</a>
</g>
</g>
<!-- Node1&#45;&gt;Node5 -->
<g id="edge4" class="edge"><title>Node1&#45;&gt;Node5</title>
<path fill="none" stroke="midnightblue" d="M157.606,-78.9801C170.91,-77.1863 184.787,-75.3153 197.977,-73.5368"/>
<polygon fill="midnightblue" stroke="midnightblue" points="198.466,-77.0026 207.909,-72.1977 197.531,-70.0654 198.466,-77.0026"/>
</g>
<!-- Node6 -->
<g id="node6" class="node"><title>Node6</title>
<g id="a_node6"><a xlink:href="classRa_1_1Engine_1_1Renderer.html#a56fec7b4244e68e76d80ce48cacb61eb" target="_top" xlink:title="Get the name of the renderer, e.g to be displayed in the UI. ">
<polygon fill="white" stroke="black" points="208,-0.5 208,-30.5 324,-30.5 324,-0.5 208,-0.5"/>
<text text-anchor="start" x="216" y="-18.5" font-family="Helvetica,sans-Serif" font-size="10.00">Ra::Engine::Renderer</text>
<text text-anchor="middle" x="266" y="-7.5" font-family="Helvetica,sans-Serif" font-size="10.00">::getRendererName</text>
</a>
</g>
</g>
<!-- Node1&#45;&gt;Node6 -->
<g id="edge5" class="edge"><title>Node1&#45;&gt;Node6</title>
<path fill="none" stroke="midnightblue" d="M110.27,-78.9565C137.662,-67.7228 183.822,-48.7919 218.612,-34.5242"/>
<polygon fill="midnightblue" stroke="midnightblue" points="220.174,-37.6667 228.098,-30.634 217.518,-31.1902 220.174,-37.6667"/>
</g>
<!-- Node4 -->
<g id="node4" class="node"><title>Node4</title>
<g id="a_node4"><a xlink:href="classRa_1_1Engine_1_1Renderer.html#a18a293f1c7c6864e4f1de7f6b88b0f4a" target="_top" xlink:title="resize the renderer dependent resources ">
<polygon fill="white" stroke="black" points="360,-98.5 360,-128.5 476,-128.5 476,-98.5 360,-98.5"/>
<text text-anchor="start" x="368" y="-116.5" font-family="Helvetica,sans-Serif" font-size="10.00">Ra::Engine::Renderer</text>
<text text-anchor="middle" x="418" y="-105.5" font-family="Helvetica,sans-Serif" font-size="10.00">::resizeInternal</text>
</a>
</g>
</g>
<!-- Node3&#45;&gt;Node4 -->
<g id="edge3" class="edge"><title>Node3&#45;&gt;Node4</title>
<path fill="none" stroke="midnightblue" d="M324.136,-113.5C332.377,-113.5 340.923,-113.5 349.344,-113.5"/>
<polygon fill="midnightblue" stroke="midnightblue" points="349.526,-117 359.525,-113.5 349.525,-110 349.526,-117"/>
</g>
</g>
</svg>
