<?xml version="1.0" encoding="UTF-8" standalone="no"?>
<!DOCTYPE svg PUBLIC "-//W3C//DTD SVG 1.1//EN"
 "http://www.w3.org/Graphics/SVG/1.1/DTD/svg11.dtd">
<!-- Generated by graphviz version 2.38.0 (20140413.2041)
 -->
<!-- Title: Ra::GuiBase::SelectionManager::printSelection Pages: 1 -->
<svg width="1068pt" height="506pt"
 viewBox="0.00 0.00 1068.00 506.00" xmlns="http://www.w3.org/2000/svg" xmlns:xlink="http://www.w3.org/1999/xlink">
<g id="graph0" class="graph" transform="scale(1 1) rotate(0) translate(4 502)">
<title>Ra::GuiBase::SelectionManager::printSelection</title>
<polygon fill="white" stroke="none" points="-4,4 -4,-502 1064,-502 1064,4 -4,4"/>
<!-- Node1 -->
<g id="node1" class="node"><title>Node1</title>
<polygon fill="#bfbfbf" stroke="black" points="0,-418.5 0,-448.5 167,-448.5 167,-418.5 0,-418.5"/>
<text text-anchor="start" x="8" y="-436.5" font-family="Helvetica,sans-Serif" font-size="10.00">Ra::GuiBase::SelectionManager</text>
<text text-anchor="middle" x="83.5" y="-425.5" font-family="Helvetica,sans-Serif" font-size="10.00">::printSelection</text>
</g>
<!-- Node2 -->
<g id="node2" class="node"><title>Node2</title>
<g id="a_node2"><a xlink:href="classRa_1_1GuiBase_1_1SelectionManager.html#a34082047d9104b97d5a655c6dd36b8e0" target="_top" xlink:title="Return the set of selected entries. ">
<polygon fill="white" stroke="black" points="203,-467.5 203,-497.5 370,-497.5 370,-467.5 203,-467.5"/>
<text text-anchor="start" x="211" y="-485.5" font-family="Helvetica,sans-Serif" font-size="10.00">Ra::GuiBase::SelectionManager</text>
<text text-anchor="middle" x="286.5" y="-474.5" font-family="Helvetica,sans-Serif" font-size="10.00">::selectedEntries</text>
</a>
</g>
</g>
<!-- Node1&#45;&gt;Node2 -->
<g id="edge1" class="edge"><title>Node1&#45;&gt;Node2</title>
<path fill="none" stroke="midnightblue" d="M146.173,-448.535C167.588,-453.755 191.784,-459.654 213.93,-465.053"/>
<polygon fill="midnightblue" stroke="midnightblue" points="213.4,-468.526 223.944,-467.494 215.058,-461.725 213.4,-468.526"/>
</g>
<!-- Node4 -->
<g id="node4" class="node"><title>Node4</title>
<g id="a_node4"><a xlink:href="namespaceRa_1_1Engine.html#a318db0d77f9e9b965c12bd100fb8de50" target="_top" xlink:title="Returns the name associated to the given item. ">
<polygon fill="white" stroke="black" points="215,-246 215,-265 358,-265 358,-246 215,-246"/>
<text text-anchor="middle" x="286.5" y="-253" font-family="Helvetica,sans-Serif" font-size="10.00">Ra::Engine::getEntryName</text>
</a>
</g>
</g>
<!-- Node1&#45;&gt;Node4 -->
<g id="edge3" class="edge"><title>Node1&#45;&gt;Node4</title>
<path fill="none" stroke="midnightblue" d="M101.637,-418.324C139.06,-385.183 227.843,-306.56 266.719,-272.132"/>
<polygon fill="midnightblue" stroke="midnightblue" points="269.474,-274.367 274.64,-265.117 264.833,-269.127 269.474,-274.367"/>
</g>
<!-- Node19 -->
<g id="node19" class="node"><title>Node19</title>
<g id="a_node19"><a xlink:href="classRa_1_1GuiBase_1_1SelectionManager.html#a29cbd250208f1e18d2ab1e0f4d91105d" target="_top" xlink:title="Return the current selected item, or an invalid entry if there is no current item. ">
<polygon fill="white" stroke="black" points="203,-418.5 203,-448.5 370,-448.5 370,-418.5 203,-418.5"/>
<text text-anchor="start" x="211" y="-436.5" font-family="Helvetica,sans-Serif" font-size="10.00">Ra::GuiBase::SelectionManager</text>
<text text-anchor="middle" x="286.5" y="-425.5" font-family="Helvetica,sans-Serif" font-size="10.00">::currentItem</text>
</a>
</g>
</g>
<!-- Node1&#45;&gt;Node19 -->
<g id="edge27" class="edge"><title>Node1&#45;&gt;Node19</title>
<path fill="none" stroke="midnightblue" d="M167.125,-433.5C175.607,-433.5 184.266,-433.5 192.848,-433.5"/>
<polygon fill="midnightblue" stroke="midnightblue" points="192.872,-437 202.872,-433.5 192.871,-430 192.872,-437"/>
</g>
<!-- Node3 -->
<g id="node3" class="node"><title>Node3</title>
<g id="a_node3"><a xlink:href="classRa_1_1GuiBase_1_1SelectionManager.html#aec178a6b3de1c04e5e1d16ff72c6e966" target="_top" xlink:title="Ra::GuiBase::SelectionManager\l::itemModel">
<polygon fill="white" stroke="black" points="406,-467.5 406,-497.5 573,-497.5 573,-467.5 406,-467.5"/>
<text text-anchor="start" x="414" y="-485.5" font-family="Helvetica,sans-Serif" font-size="10.00">Ra::GuiBase::SelectionManager</text>
<text text-anchor="middle" x="489.5" y="-474.5" font-family="Helvetica,sans-Serif" font-size="10.00">::itemModel</text>
</a>
</g>
</g>
<!-- Node2&#45;&gt;Node3 -->
<g id="edge2" class="edge"><title>Node2&#45;&gt;Node3</title>
<path fill="none" stroke="midnightblue" d="M370.125,-482.5C378.607,-482.5 387.266,-482.5 395.848,-482.5"/>
<polygon fill="midnightblue" stroke="midnightblue" points="395.872,-486 405.872,-482.5 395.871,-479 395.872,-486"/>
</g>
<!-- Node5 -->
<g id="node5" class="node"><title>Node5</title>
<g id="a_node5"><a xlink:href="structRa_1_1Engine_1_1ItemEntry.html#aceafc81a73631955b64999dd39a639da" target="_top" xlink:title="Returns true if the item represents any valid object. ">
<polygon fill="white" stroke="black" points="430,-149.5 430,-179.5 549,-179.5 549,-149.5 430,-149.5"/>
<text text-anchor="start" x="438" y="-167.5" font-family="Helvetica,sans-Serif" font-size="10.00">Ra::Engine::ItemEntry</text>
<text text-anchor="middle" x="489.5" y="-156.5" font-family="Helvetica,sans-Serif" font-size="10.00">::isValid</text>
</a>
</g>
</g>
<!-- Node4&#45;&gt;Node5 -->
<g id="edge4" class="edge"><title>Node4&#45;&gt;Node5</title>
<path fill="none" stroke="midnightblue" d="M306.177,-245.82C329.355,-233.933 370.202,-213.394 406,-197.5 416.796,-192.707 428.514,-187.829 439.637,-183.345"/>
<polygon fill="midnightblue" stroke="midnightblue" points="441.231,-186.477 449.221,-179.519 438.636,-179.977 441.231,-186.477"/>
</g>
<!-- Node10 -->
<g id="node10" class="node"><title>Node10</title>
<g id="a_node10"><a xlink:href="classRa_1_1Engine_1_1Entity.html#aaf256bea44bbc5bff6aa504aca05ca35" target="_top" xlink:title="Ra::Engine::Entity\l::getName">
<polygon fill="white" stroke="black" points="631,-235.5 631,-265.5 731,-265.5 731,-235.5 631,-235.5"/>
<text text-anchor="start" x="639" y="-253.5" font-family="Helvetica,sans-Serif" font-size="10.00">Ra::Engine::Entity</text>
<text text-anchor="middle" x="681" y="-242.5" font-family="Helvetica,sans-Serif" font-size="10.00">::getName</text>
</a>
</g>
</g>
<!-- Node4&#45;&gt;Node10 -->
<g id="edge26" class="edge"><title>Node4&#45;&gt;Node10</title>
<path fill="none" stroke="midnightblue" d="M322.973,-245.999C346.359,-240.237 377.768,-233.446 406,-230.5 479.821,-222.798 499.094,-223.652 573,-230.5 588.668,-231.952 605.463,-234.575 620.994,-237.454"/>
<polygon fill="midnightblue" stroke="midnightblue" points="620.513,-240.925 630.993,-239.373 621.832,-234.051 620.513,-240.925"/>
</g>
<!-- Node11 -->
<g id="node11" class="node"><title>Node11</title>
<g id="a_node11"><a xlink:href="structRa_1_1Engine_1_1ItemEntry.html#a898047549069e5b64d3a9a65c058af56" target="_top" xlink:title="Returns true if the item represents a render object. ">
<polygon fill="white" stroke="black" points="621.5,-49.5 621.5,-79.5 740.5,-79.5 740.5,-49.5 621.5,-49.5"/>
<text text-anchor="start" x="629.5" y="-67.5" font-family="Helvetica,sans-Serif" font-size="10.00">Ra::Engine::ItemEntry</text>
<text text-anchor="middle" x="681" y="-56.5" font-family="Helvetica,sans-Serif" font-size="10.00">::isRoNode</text>
</a>
</g>
</g>
<!-- Node4&#45;&gt;Node11 -->
<g id="edge16" class="edge"><title>Node4&#45;&gt;Node11</title>
<path fill="none" stroke="midnightblue" d="M294.609,-245.726C311.382,-223.386 355.81,-168.301 406,-139.5 470.263,-102.623 553.462,-83.1996 611.241,-73.4442"/>
<polygon fill="midnightblue" stroke="midnightblue" points="612.059,-76.8569 621.364,-71.7898 610.93,-69.9486 612.059,-76.8569"/>
</g>
<!-- Node13 -->
<g id="node13" class="node"><title>Node13</title>
<g id="a_node13"><a xlink:href="classRa_1_1Engine_1_1RadiumEngine.html#a58b27bc600ea769f68b0e2938abc7862" target="_top" xlink:title="Manager getters. ">
<polygon fill="white" stroke="black" points="609,-284.5 609,-314.5 753,-314.5 753,-284.5 609,-284.5"/>
<text text-anchor="start" x="617" y="-302.5" font-family="Helvetica,sans-Serif" font-size="10.00">Ra::Engine::RadiumEngine</text>
<text text-anchor="middle" x="681" y="-291.5" font-family="Helvetica,sans-Serif" font-size="10.00">::getRenderObjectManager</text>
</a>
</g>
</g>
<!-- Node4&#45;&gt;Node13 -->
<g id="edge17" class="edge"><title>Node4&#45;&gt;Node13</title>
<path fill="none" stroke="midnightblue" d="M327.868,-265C350.681,-270.035 379.797,-275.905 406,-279.5 470.369,-288.331 543.816,-293.427 598.455,-296.262"/>
<polygon fill="midnightblue" stroke="midnightblue" points="598.613,-299.774 608.777,-296.782 598.966,-292.783 598.613,-299.774"/>
</g>
<!-- Node15 -->
<g id="node15" class="node"><title>Node15</title>
<g id="a_node15"><a xlink:href="classRa_1_1Engine_1_1RenderObjectManager.html#a13fc919e9fa01bfb36e67bc9011d325f" target="_top" xlink:title="Returns the render object corresponding to the given index. ">
<polygon fill="white" stroke="black" points="417.5,-2.5 417.5,-32.5 561.5,-32.5 561.5,-2.5 417.5,-2.5"/>
<text text-anchor="start" x="425.5" y="-20.5" font-family="Helvetica,sans-Serif" font-size="10.00">Ra::Engine::RenderObject</text>
<text text-anchor="middle" x="489.5" y="-9.5" font-family="Helvetica,sans-Serif" font-size="10.00">Manager::getRenderObject</text>
</a>
</g>
</g>
<!-- Node4&#45;&gt;Node15 -->
<g id="edge18" class="edge"><title>Node4&#45;&gt;Node15</title>
<path fill="none" stroke="midnightblue" d="M292.375,-245.773C306.863,-217.496 352.027,-133.757 406,-77.5 420.38,-62.5117 438.899,-48.6636 454.747,-38.0567"/>
<polygon fill="midnightblue" stroke="midnightblue" points="456.777,-40.9112 463.234,-32.5109 452.948,-35.0515 456.777,-40.9112"/>
</g>
<!-- Node16 -->
<g id="node16" class="node"><title>Node16</title>
<g id="a_node16"><a xlink:href="structRa_1_1Engine_1_1ItemEntry.html#ac78e7430338c62ed664a16da7e3ea206" target="_top" xlink:title="Returns true if the item represents a component. ">
<polygon fill="white" stroke="black" points="621.5,-372.5 621.5,-402.5 740.5,-402.5 740.5,-372.5 621.5,-372.5"/>
<text text-anchor="start" x="629.5" y="-390.5" font-family="Helvetica,sans-Serif" font-size="10.00">Ra::Engine::ItemEntry</text>
<text text-anchor="middle" x="681" y="-379.5" font-family="Helvetica,sans-Serif" font-size="10.00">::isComponentNode</text>
</a>
</g>
</g>
<!-- Node4&#45;&gt;Node16 -->
<g id="edge20" class="edge"><title>Node4&#45;&gt;Node16</title>
<path fill="none" stroke="midnightblue" d="M294.109,-265.27C310.144,-288.039 353.673,-344.443 406,-367.5 471.365,-396.302 554.021,-398.25 611.369,-394.907"/>
<polygon fill="midnightblue" stroke="midnightblue" points="611.665,-398.395 621.416,-394.252 611.21,-391.41 611.665,-398.395"/>
</g>
<!-- Node17 -->
<g id="node17" class="node"><title>Node17</title>
<g id="a_node17"><a xlink:href="classRa_1_1Engine_1_1Component.html#aa3e5cb90432a9a49e4362b673652ff76" target="_top" xlink:title="Return the component&#39;s name. ">
<polygon fill="white" stroke="black" points="425,-240.5 425,-270.5 554,-270.5 554,-240.5 425,-240.5"/>
<text text-anchor="start" x="433" y="-258.5" font-family="Helvetica,sans-Serif" font-size="10.00">Ra::Engine::Component</text>
<text text-anchor="middle" x="489.5" y="-247.5" font-family="Helvetica,sans-Serif" font-size="10.00">::getName</text>
</a>
</g>
</g>
<!-- Node4&#45;&gt;Node17 -->
<g id="edge23" class="edge"><title>Node4&#45;&gt;Node17</title>
<path fill="none" stroke="midnightblue" d="M358.082,-255.5C376.407,-255.5 396.193,-255.5 414.679,-255.5"/>
<polygon fill="midnightblue" stroke="midnightblue" points="414.799,-259 424.799,-255.5 414.799,-252 414.799,-259"/>
</g>
<!-- Node18 -->
<g id="node18" class="node"><title>Node18</title>
<g id="a_node18"><a xlink:href="structRa_1_1Engine_1_1ItemEntry.html#a4823dfa3c113db71733979f1719f3b28" target="_top" xlink:title="Returns true if the item represents an entity. ">
<polygon fill="white" stroke="black" points="430,-328.5 430,-358.5 549,-358.5 549,-328.5 430,-328.5"/>
<text text-anchor="start" x="438" y="-346.5" font-family="Helvetica,sans-Serif" font-size="10.00">Ra::Engine::ItemEntry</text>
<text text-anchor="middle" x="489.5" y="-335.5" font-family="Helvetica,sans-Serif" font-size="10.00">::isEntityNode</text>
</a>
</g>
</g>
<!-- Node4&#45;&gt;Node18 -->
<g id="edge24" class="edge"><title>Node4&#45;&gt;Node18</title>
<path fill="none" stroke="midnightblue" d="M305.692,-265.157C328.714,-277.203 369.744,-298.087 406,-313.5 415.257,-317.435 425.224,-321.336 434.921,-324.957"/>
<polygon fill="midnightblue" stroke="midnightblue" points="433.897,-328.31 444.49,-328.477 436.313,-321.74 433.897,-328.31"/>
</g>
<!-- Node6 -->
<g id="node6" class="node"><title>Node6</title>
<g id="a_node6"><a xlink:href="structRa_1_1Engine_1_1ItemEntry.html#a1fb9fdd74413a1fa5878f53c1cfcf8fd" target="_top" xlink:title="Debug checks. ">
<polygon fill="white" stroke="black" points="789,-328.5 789,-358.5 908,-358.5 908,-328.5 789,-328.5"/>
<text text-anchor="start" x="797" y="-346.5" font-family="Helvetica,sans-Serif" font-size="10.00">Ra::Engine::ItemEntry</text>
<text text-anchor="middle" x="848.5" y="-335.5" font-family="Helvetica,sans-Serif" font-size="10.00">::checkConsistency</text>
</a>
</g>
</g>
<!-- Node5&#45;&gt;Node6 -->
<g id="edge5" class="edge"><title>Node5&#45;&gt;Node6</title>
<path fill="none" stroke="midnightblue" d="M549.053,-175.991C621.029,-190.442 735.802,-214.671 753,-225.5 790.152,-248.893 819.1,-292.097 834.703,-319.234"/>
<polygon fill="midnightblue" stroke="midnightblue" points="831.725,-321.079 839.657,-328.103 837.836,-317.666 831.725,-321.079"/>
</g>
<!-- Node8 -->
<g id="node8" class="node"><title>Node8</title>
<g id="a_node8"><a xlink:href="classRa_1_1Engine_1_1RadiumEngine.html#a79f6626ce468268791bc5bdfe17b5586" target="_top" xlink:title="Get the entity manager attached to the engine. ">
<polygon fill="white" stroke="black" points="610.5,-147.5 610.5,-177.5 751.5,-177.5 751.5,-147.5 610.5,-147.5"/>
<text text-anchor="start" x="618.5" y="-165.5" font-family="Helvetica,sans-Serif" font-size="10.00">Ra::Engine::RadiumEngine</text>
<text text-anchor="middle" x="681" y="-154.5" font-family="Helvetica,sans-Serif" font-size="10.00">::getEntityManager</text>
</a>
</g>
</g>
<!-- Node5&#45;&gt;Node8 -->
<g id="edge7" class="edge"><title>Node5&#45;&gt;Node8</title>
<path fill="none" stroke="midnightblue" d="M549.161,-163.881C565.335,-163.71 583.159,-163.522 600.307,-163.341"/>
<polygon fill="midnightblue" stroke="midnightblue" points="600.346,-166.841 610.309,-163.236 600.272,-159.841 600.346,-166.841"/>
</g>
<!-- Node9 -->
<g id="node9" class="node"><title>Node9</title>
<g id="a_node9"><a xlink:href="classRa_1_1Engine_1_1EntityManager.html#a5115cccae6aaef614ad4bd08e64d8185" target="_top" xlink:title="Check wether an entity with a given name exists or not. ">
<polygon fill="white" stroke="black" points="610,-98.5 610,-128.5 752,-128.5 752,-98.5 610,-98.5"/>
<text text-anchor="start" x="618" y="-116.5" font-family="Helvetica,sans-Serif" font-size="10.00">Ra::Engine::EntityManager</text>
<text text-anchor="middle" x="681" y="-105.5" font-family="Helvetica,sans-Serif" font-size="10.00">::entityExists</text>
</a>
</g>
</g>
<!-- Node5&#45;&gt;Node9 -->
<g id="edge8" class="edge"><title>Node5&#45;&gt;Node9</title>
<path fill="none" stroke="midnightblue" d="M546.331,-149.474C567.729,-143.715 592.332,-137.094 614.551,-131.114"/>
<polygon fill="midnightblue" stroke="midnightblue" points="615.494,-134.485 624.241,-128.506 613.675,-127.726 615.494,-134.485"/>
</g>
<!-- Node5&#45;&gt;Node10 -->
<g id="edge9" class="edge"><title>Node5&#45;&gt;Node10</title>
<path fill="none" stroke="midnightblue" d="M532.727,-179.627C545.861,-184.798 560.239,-190.945 573,-197.5 589.889,-206.175 592.195,-211.662 609,-220.5 616.241,-224.308 624.074,-228.009 631.801,-231.435"/>
<polygon fill="midnightblue" stroke="midnightblue" points="630.561,-234.712 641.129,-235.469 633.34,-228.287 630.561,-234.712"/>
</g>
<!-- Node5&#45;&gt;Node11 -->
<g id="edge10" class="edge"><title>Node5&#45;&gt;Node11</title>
<path fill="none" stroke="midnightblue" d="M510.582,-149.443C533.464,-132.816 572.435,-106.078 609,-88.5 612.76,-86.6925 616.692,-84.9612 620.693,-83.3155"/>
<polygon fill="midnightblue" stroke="midnightblue" points="622.07,-86.5355 630.109,-79.6352 619.521,-80.0158 622.07,-86.5355"/>
</g>
<!-- Node5&#45;&gt;Node13 -->
<g id="edge13" class="edge"><title>Node5&#45;&gt;Node13</title>
<path fill="none" stroke="midnightblue" d="M511.855,-179.636C529.141,-192.334 553.699,-211.41 573,-230.5 590.964,-248.268 588.316,-259.988 609,-274.5 611.728,-276.414 614.617,-278.195 617.608,-279.85"/>
<polygon fill="midnightblue" stroke="midnightblue" points="616.315,-283.116 626.827,-284.445 619.438,-276.851 616.315,-283.116"/>
</g>
<!-- Node14 -->
<g id="node14" class="node"><title>Node14</title>
<g id="a_node14"><a xlink:href="classRa_1_1Engine_1_1RenderObjectManager.html#a088feae4339349a81b7b6635b38aead1" target="_top" xlink:title="Returns true if the index points to a valid render object. ">
<polygon fill="white" stroke="black" points="612.5,-0.5 612.5,-30.5 749.5,-30.5 749.5,-0.5 612.5,-0.5"/>
<text text-anchor="start" x="620.5" y="-18.5" font-family="Helvetica,sans-Serif" font-size="10.00">Ra::Engine::RenderObject</text>
<text text-anchor="middle" x="681" y="-7.5" font-family="Helvetica,sans-Serif" font-size="10.00">Manager::exists</text>
</a>
</g>
</g>
<!-- Node5&#45;&gt;Node14 -->
<g id="edge14" class="edge"><title>Node5&#45;&gt;Node14</title>
<path fill="none" stroke="midnightblue" d="M501.117,-149.138C519.933,-123.005 561.641,-69.7909 609,-39.5 611.466,-37.9226 614.048,-36.437 616.704,-35.0394"/>
<polygon fill="midnightblue" stroke="midnightblue" points="618.452,-38.0836 625.972,-30.6205 615.439,-31.7651 618.452,-38.0836"/>
</g>
<!-- Node7 -->
<g id="node7" class="node"><title>Node7</title>
<g id="a_node7"><a xlink:href="classRa_1_1Core_1_1Utils_1_1Index.html#ac7d6c68387fe147f7a13668ac30a4533" target="_top" xlink:title="INVALID. ">
<polygon fill="white" stroke="black" points="944,-350.5 944,-380.5 1060,-380.5 1060,-350.5 944,-350.5"/>
<text text-anchor="start" x="952" y="-368.5" font-family="Helvetica,sans-Serif" font-size="10.00">Ra::Core::Utils::Index</text>
<text text-anchor="middle" x="1002" y="-357.5" font-family="Helvetica,sans-Serif" font-size="10.00">::isInvalid</text>
</a>
</g>
</g>
<!-- Node6&#45;&gt;Node7 -->
<g id="edge6" class="edge"><title>Node6&#45;&gt;Node7</title>
<path fill="none" stroke="midnightblue" d="M908.074,-352.006C916.452,-353.222 925.127,-354.482 933.658,-355.721"/>
<polygon fill="midnightblue" stroke="midnightblue" points="933.18,-359.188 943.579,-357.162 934.186,-352.261 933.18,-359.188"/>
</g>
<!-- Node11&#45;&gt;Node6 -->
<g id="edge11" class="edge"><title>Node11&#45;&gt;Node6</title>
<path fill="none" stroke="midnightblue" d="M740.713,-79.3767C745.182,-81.9485 749.36,-84.964 753,-88.5 819.253,-152.864 839.434,-267.784 845.267,-318.394"/>
<polygon fill="midnightblue" stroke="midnightblue" points="841.798,-318.875 846.331,-328.451 848.759,-318.138 841.798,-318.875"/>
</g>
<!-- Node12 -->
<g id="node12" class="node"><title>Node12</title>
<g id="a_node12"><a xlink:href="classRa_1_1Core_1_1Utils_1_1Index.html#ac7a1b710e6b95834a562c27e2f6c0f4b" target="_top" xlink:title="DESTRUCTOR: Must not be defined, we need it trivial to be constexpr. ">
<polygon fill="white" stroke="black" points="790.5,-24.5 790.5,-54.5 906.5,-54.5 906.5,-24.5 790.5,-24.5"/>
<text text-anchor="start" x="798.5" y="-42.5" font-family="Helvetica,sans-Serif" font-size="10.00">Ra::Core::Utils::Index</text>
<text text-anchor="middle" x="848.5" y="-31.5" font-family="Helvetica,sans-Serif" font-size="10.00">::isValid</text>
</a>
</g>
</g>
<!-- Node11&#45;&gt;Node12 -->
<g id="edge12" class="edge"><title>Node11&#45;&gt;Node12</title>
<path fill="none" stroke="midnightblue" d="M740.815,-55.6155C753.623,-53.6807 767.269,-51.6195 780.372,-49.6402"/>
<polygon fill="midnightblue" stroke="midnightblue" points="780.899,-53.1004 790.264,-48.146 779.853,-46.179 780.899,-53.1004"/>
</g>
<!-- Node14&#45;&gt;Node12 -->
<g id="edge15" class="edge"><title>Node14&#45;&gt;Node12</title>
<path fill="none" stroke="midnightblue" d="M749.793,-25.331C759.902,-26.797 770.32,-28.3077 780.415,-29.7716"/>
<polygon fill="midnightblue" stroke="midnightblue" points="779.98,-33.2451 790.379,-31.2165 780.984,-26.3175 779.98,-33.2451"/>
</g>
<!-- Node15&#45;&gt;Node14 -->
<g id="edge19" class="edge"><title>Node15&#45;&gt;Node14</title>
<path fill="none" stroke="midnightblue" d="M561.602,-16.7496C574.825,-16.61 588.704,-16.4635 602.118,-16.322"/>
<polygon fill="midnightblue" stroke="midnightblue" points="602.303,-19.8203 612.266,-16.2149 602.229,-12.8207 602.303,-19.8203"/>
</g>
<!-- Node16&#45;&gt;Node6 -->
<g id="edge21" class="edge"><title>Node16&#45;&gt;Node6</title>
<path fill="none" stroke="midnightblue" d="M738.493,-372.481C752.264,-368.82 767.117,-364.871 781.295,-361.101"/>
<polygon fill="midnightblue" stroke="midnightblue" points="782.216,-364.478 790.981,-358.526 780.417,-357.713 782.216,-364.478"/>
</g>
<!-- Node16&#45;&gt;Node7 -->
<g id="edge22" class="edge"><title>Node16&#45;&gt;Node7</title>
<path fill="none" stroke="midnightblue" d="M740.51,-383.465C795.147,-379.697 876.642,-374.076 933.895,-370.128"/>
<polygon fill="midnightblue" stroke="midnightblue" points="934.199,-373.615 943.935,-369.436 933.718,-366.632 934.199,-373.615"/>
</g>
<!-- Node18&#45;&gt;Node6 -->
<g id="edge25" class="edge"><title>Node18&#45;&gt;Node6</title>
<path fill="none" stroke="midnightblue" d="M549.052,-343.5C611.954,-343.5 711.843,-343.5 778.512,-343.5"/>
<polygon fill="midnightblue" stroke="midnightblue" points="778.917,-347 788.916,-343.5 778.916,-340 778.917,-347"/>
</g>
<!-- Node19&#45;&gt;Node3 -->
<g id="edge28" class="edge"><title>Node19&#45;&gt;Node3</title>
<path fill="none" stroke="midnightblue" d="M349.173,-448.535C370.588,-453.755 394.784,-459.654 416.93,-465.053"/>
<polygon fill="midnightblue" stroke="midnightblue" points="416.4,-468.526 426.944,-467.494 418.058,-461.725 416.4,-468.526"/>
</g>
<!-- Node20 -->
<g id="node20" class="node"><title>Node20</title>
<g id="a_node20"><a xlink:href="classRa_1_1GuiBase_1_1ItemModel.html#a3236433d461ad6cac5e9390b2685fa3f" target="_top" xlink:title="Returns the entry corresponding to a given index or an invalid entry if the index doesn&#39;t match any e...">
<polygon fill="white" stroke="black" points="424,-418.5 424,-448.5 555,-448.5 555,-418.5 424,-418.5"/>
<text text-anchor="start" x="432" y="-436.5" font-family="Helvetica,sans-Serif" font-size="10.00">Ra::GuiBase::ItemModel</text>
<text text-anchor="middle" x="489.5" y="-425.5" font-family="Helvetica,sans-Serif" font-size="10.00">::getEntry</text>
</a>
</g>
</g>
<!-- Node19&#45;&gt;Node20 -->
<g id="edge29" class="edge"><title>Node19&#45;&gt;Node20</title>
<path fill="none" stroke="midnightblue" d="M370.125,-433.5C384.501,-433.5 399.382,-433.5 413.538,-433.5"/>
<polygon fill="midnightblue" stroke="midnightblue" points="413.701,-437 423.701,-433.5 413.701,-430 413.701,-437"/>
</g>
<!-- Node21 -->
<g id="node21" class="node"><title>Node21</title>
<g id="a_node21"><a xlink:href="classRa_1_1GuiBase_1_1TreeModel.html#a5aa24ace72c1c3d29e268cb34dc576f2" target="_top" xlink:title="Get the tree item corresponding to the given index. ">
<polygon fill="white" stroke="black" points="617,-421.5 617,-451.5 745,-451.5 745,-421.5 617,-421.5"/>
<text text-anchor="start" x="625" y="-439.5" font-family="Helvetica,sans-Serif" font-size="10.00">Ra::GuiBase::TreeModel</text>
<text text-anchor="middle" x="681" y="-428.5" font-family="Helvetica,sans-Serif" font-size="10.00">::getItem</text>
</a>
</g>
</g>
<!-- Node20&#45;&gt;Node21 -->
<g id="edge30" class="edge"><title>Node20&#45;&gt;Node21</title>
<path fill="none" stroke="midnightblue" d="M555.185,-434.524C571.7,-434.785 589.575,-435.068 606.497,-435.336"/>
<polygon fill="midnightblue" stroke="midnightblue" points="606.835,-438.842 616.889,-435.501 606.946,-431.843 606.835,-438.842"/>
</g>
</g>
</svg>
