<?xml version="1.0" encoding="UTF-8" standalone="no"?>
<!DOCTYPE svg PUBLIC "-//W3C//DTD SVG 1.1//EN"
 "http://www.w3.org/Graphics/SVG/1.1/DTD/svg11.dtd">
<!-- Generated by graphviz version 2.38.0 (20140413.2041)
 -->
<!-- Title: Ra::Core::Utils::Log::FromString Pages: 1 -->
<svg width="608pt" height="78pt"
 viewBox="0.00 0.00 608.00 77.50" xmlns="http://www.w3.org/2000/svg" xmlns:xlink="http://www.w3.org/1999/xlink">
<g id="graph0" class="graph" transform="scale(1 1) rotate(0) translate(4 73.5)">
<title>Ra::Core::Utils::Log::FromString</title>
<polygon fill="white" stroke="none" points="-4,4 -4,-73.5 604,-73.5 604,4 -4,4"/>
<!-- Node1 -->
<g id="node1" class="node"><title>Node1</title>
<polygon fill="#bfbfbf" stroke="black" points="0,-22.5 0,-52.5 107,-52.5 107,-22.5 0,-22.5"/>
<text text-anchor="start" x="8" y="-40.5" font-family="Helvetica,sans-Serif" font-size="10.00">Ra::Core::Utils::Log</text>
<text text-anchor="middle" x="53.5" y="-29.5" font-family="Helvetica,sans-Serif" font-size="10.00">::FromString</text>
</g>
<!-- Node2 -->
<g id="node2" class="node"><title>Node2</title>
<g id="a_node2"><a xlink:href="classRa_1_1Core_1_1Utils_1_1Log.html#a5f3642bfb87bb8029468adfe0d649185" target="_top" xlink:title="Ra::Core::Utils::Log::Get">
<polygon fill="white" stroke="black" points="143,-28 143,-47 274,-47 274,-28 143,-28"/>
<text text-anchor="middle" x="208.5" y="-35" font-family="Helvetica,sans-Serif" font-size="10.00">Ra::Core::Utils::Log::Get</text>
</a>
</g>
</g>
<!-- Node1&#45;&gt;Node2 -->
<g id="edge1" class="edge"><title>Node1&#45;&gt;Node2</title>
<path fill="none" stroke="midnightblue" d="M107.154,-37.5C115.417,-37.5 124.093,-37.5 132.739,-37.5"/>
<polygon fill="midnightblue" stroke="midnightblue" points="132.848,-41.0001 142.848,-37.5 132.848,-34.0001 132.848,-41.0001"/>
</g>
<!-- Node3 -->
<g id="node3" class="node"><title>Node3</title>
<g id="a_node3"><a xlink:href="namespaceRa_1_1Core_1_1Utils.html#ad7538d961d008c77173d308106df52c8" target="_top" xlink:title="Ra::Core::Utils::NowTime">
<polygon fill="white" stroke="black" points="310,-50 310,-69 444,-69 444,-50 310,-50"/>
<text text-anchor="middle" x="377" y="-57" font-family="Helvetica,sans-Serif" font-size="10.00">Ra::Core::Utils::NowTime</text>
</a>
</g>
</g>
<!-- Node2&#45;&gt;Node3 -->
<g id="edge2" class="edge"><title>Node2&#45;&gt;Node3</title>
<path fill="none" stroke="midnightblue" d="M274.35,-46.0688C282.75,-47.1787 291.414,-48.3235 299.975,-49.4547"/>
<polygon fill="midnightblue" stroke="midnightblue" points="299.583,-52.9332 309.956,-50.7734 300.5,-45.9936 299.583,-52.9332"/>
</g>
<!-- Node5 -->
<g id="node5" class="node"><title>Node5</title>
<g id="a_node5"><a xlink:href="classRa_1_1Core_1_1Utils_1_1Log.html#a4a5888c0bc0b64fd3e2676e458e97b25" target="_top" xlink:title="Ra::Core::Utils::Log\l::ToString">
<polygon fill="white" stroke="black" points="323.5,-0.5 323.5,-30.5 430.5,-30.5 430.5,-0.5 323.5,-0.5"/>
<text text-anchor="start" x="331.5" y="-18.5" font-family="Helvetica,sans-Serif" font-size="10.00">Ra::Core::Utils::Log</text>
<text text-anchor="middle" x="377" y="-7.5" font-family="Helvetica,sans-Serif" font-size="10.00">::ToString</text>
</a>
</g>
</g>
<!-- Node2&#45;&gt;Node5 -->
<g id="edge4" class="edge"><title>Node2&#45;&gt;Node5</title>
<path fill="none" stroke="midnightblue" d="M274.35,-28.9312C287.175,-27.2367 300.613,-25.4611 313.362,-23.7765"/>
<polygon fill="midnightblue" stroke="midnightblue" points="313.959,-27.2281 323.415,-22.4482 313.042,-20.2884 313.959,-27.2281"/>
</g>
<!-- Node4 -->
<g id="node4" class="node"><title>Node4</title>
<g id="a_node4"><a xlink:href="namespaceRa_1_1Core_1_1Geometry.html#aa04e6052d8911b1df1bd881474debb45" target="_top" xlink:title="Ra::Core::Geometry::t">
<polygon fill="white" stroke="black" points="480,-50 480,-69 600,-69 600,-50 480,-50"/>
<text text-anchor="middle" x="540" y="-57" font-family="Helvetica,sans-Serif" font-size="10.00">Ra::Core::Geometry::t</text>
</a>
</g>
</g>
<!-- Node3&#45;&gt;Node4 -->
<g id="edge3" class="edge"><title>Node3&#45;&gt;Node4</title>
<path fill="none" stroke="midnightblue" d="M444.414,-59.5C452.789,-59.5 461.374,-59.5 469.791,-59.5"/>
<polygon fill="midnightblue" stroke="midnightblue" points="469.95,-63.0001 479.949,-59.5 469.949,-56.0001 469.95,-63.0001"/>
</g>
</g>
</svg>
