<?xml version="1.0" encoding="UTF-8" standalone="no"?>
<!DOCTYPE svg PUBLIC "-//W3C//DTD SVG 1.1//EN"
 "http://www.w3.org/Graphics/SVG/1.1/DTD/svg11.dtd">
<!-- Generated by graphviz version 2.38.0 (20140413.2041)
 -->
<!-- Title: SkinningPlugin::SkinningComponent::endSkinning Pages: 1 -->
<svg width="636pt" height="198pt"
 viewBox="0.00 0.00 636.00 197.50" xmlns="http://www.w3.org/2000/svg" xmlns:xlink="http://www.w3.org/1999/xlink">
<g id="graph0" class="graph" transform="scale(1 1) rotate(0) translate(4 193.5)">
<title>SkinningPlugin::SkinningComponent::endSkinning</title>
<polygon fill="white" stroke="none" points="-4,4 -4,-193.5 632,-193.5 632,4 -4,4"/>
<!-- Node1 -->
<g id="node1" class="node"><title>Node1</title>
<polygon fill="#bfbfbf" stroke="black" points="0,-73.5 0,-103.5 137,-103.5 137,-73.5 0,-73.5"/>
<text text-anchor="start" x="8" y="-91.5" font-family="Helvetica,sans-Serif" font-size="10.00">SkinningPlugin::Skinning</text>
<text text-anchor="middle" x="68.5" y="-80.5" font-family="Helvetica,sans-Serif" font-size="10.00">Component::endSkinning</text>
</g>
<!-- Node2 -->
<g id="node2" class="node"><title>Node2</title>
<g id="a_node2"><a xlink:href="namespaceSkinningPlugin.html#a010dccff0e8dce4bd2dd6c633bbeec63" target="_top" xlink:title="SkinningPlugin::uniformNormal">
<polygon fill="white" stroke="black" points="173,-148 173,-167 337,-167 337,-148 173,-148"/>
<text text-anchor="middle" x="255" y="-155" font-family="Helvetica,sans-Serif" font-size="10.00">SkinningPlugin::uniformNormal</text>
</a>
</g>
</g>
<!-- Node1&#45;&gt;Node2 -->
<g id="edge1" class="edge"><title>Node1&#45;&gt;Node2</title>
<path fill="none" stroke="midnightblue" d="M96.4709,-103.56C116.957,-114.492 146.099,-128.978 173,-138.5 180.276,-141.076 188.044,-143.404 195.781,-145.476"/>
<polygon fill="midnightblue" stroke="midnightblue" points="194.971,-148.881 205.526,-147.962 196.702,-142.098 194.971,-148.881"/>
</g>
<!-- Node6 -->
<g id="node6" class="node"><title>Node6</title>
<g id="a_node6"><a xlink:href="classRa_1_1Core_1_1Geometry_1_1TriangleMesh.html#a6ef9dbd18c0501f2ffd1316be6be56ce" target="_top" xlink:title="Access the vertices positions. ">
<polygon fill="white" stroke="black" points="191,-98.5 191,-128.5 319,-128.5 319,-98.5 191,-98.5"/>
<text text-anchor="start" x="199" y="-116.5" font-family="Helvetica,sans-Serif" font-size="10.00">Ra::Core::Geometry</text>
<text text-anchor="middle" x="255" y="-105.5" font-family="Helvetica,sans-Serif" font-size="10.00">::TriangleMesh::vertices</text>
</a>
</g>
</g>
<!-- Node1&#45;&gt;Node6 -->
<g id="edge5" class="edge"><title>Node1&#45;&gt;Node6</title>
<path fill="none" stroke="midnightblue" d="M137.153,-97.6671C151.305,-99.5847 166.289,-101.615 180.637,-103.559"/>
<polygon fill="midnightblue" stroke="midnightblue" points="180.572,-107.082 190.951,-104.957 181.512,-100.146 180.572,-107.082"/>
</g>
<!-- Node7 -->
<g id="node7" class="node"><title>Node7</title>
<g id="a_node7"><a xlink:href="classRa_1_1Core_1_1Geometry_1_1TriangleMesh.html#ad7d3f6272b902171740e50232ba56114" target="_top" xlink:title="Access the vertices normals. ">
<polygon fill="white" stroke="black" points="190.5,-49.5 190.5,-79.5 319.5,-79.5 319.5,-49.5 190.5,-49.5"/>
<text text-anchor="start" x="198.5" y="-67.5" font-family="Helvetica,sans-Serif" font-size="10.00">Ra::Core::Geometry</text>
<text text-anchor="middle" x="255" y="-56.5" font-family="Helvetica,sans-Serif" font-size="10.00">::TriangleMesh::normals</text>
</a>
</g>
</g>
<!-- Node1&#45;&gt;Node7 -->
<g id="edge6" class="edge"><title>Node1&#45;&gt;Node7</title>
<path fill="none" stroke="midnightblue" d="M137.153,-79.6996C151.139,-77.8802 165.939,-75.9551 180.134,-74.1086"/>
<polygon fill="midnightblue" stroke="midnightblue" points="180.877,-77.5415 190.342,-72.7807 179.974,-70.6 180.877,-77.5415"/>
</g>
<!-- Node8 -->
<g id="node8" class="node"><title>Node8</title>
<g id="a_node8"><a xlink:href="namespaceRa_1_1Core_1_1Animation.html#a03d7eb179bf339237a3e5b06d6d06100" target="_top" xlink:title="Ra::Core::Animation\l::relativePose">
<polygon fill="white" stroke="black" points="199,-0.5 199,-30.5 311,-30.5 311,-0.5 199,-0.5"/>
<text text-anchor="start" x="207" y="-18.5" font-family="Helvetica,sans-Serif" font-size="10.00">Ra::Core::Animation</text>
<text text-anchor="middle" x="255" y="-7.5" font-family="Helvetica,sans-Serif" font-size="10.00">::relativePose</text>
</a>
</g>
</g>
<!-- Node1&#45;&gt;Node8 -->
<g id="edge7" class="edge"><title>Node1&#45;&gt;Node8</title>
<path fill="none" stroke="midnightblue" d="M98.4204,-73.3333C118.892,-62.9649 147.187,-49.3669 173,-39.5 178.354,-37.4535 183.96,-35.4726 189.618,-33.5849"/>
<polygon fill="midnightblue" stroke="midnightblue" points="190.715,-36.9089 199.152,-30.501 188.56,-30.2486 190.715,-36.9089"/>
</g>
<!-- Node3 -->
<g id="node3" class="node"><title>Node3</title>
<g id="a_node3"><a xlink:href="namespaceRa_1_1Core_1_1Geometry.html#aa04e6052d8911b1df1bd881474debb45" target="_top" xlink:title="Ra::Core::Geometry::t">
<polygon fill="white" stroke="black" points="373,-170 373,-189 493,-189 493,-170 373,-170"/>
<text text-anchor="middle" x="433" y="-177" font-family="Helvetica,sans-Serif" font-size="10.00">Ra::Core::Geometry::t</text>
</a>
</g>
</g>
<!-- Node2&#45;&gt;Node3 -->
<g id="edge2" class="edge"><title>Node2&#45;&gt;Node3</title>
<path fill="none" stroke="midnightblue" d="M332.173,-167.022C342.415,-168.302 352.875,-169.609 362.984,-170.873"/>
<polygon fill="midnightblue" stroke="midnightblue" points="362.599,-174.352 372.956,-172.119 363.467,-167.406 362.599,-174.352"/>
</g>
<!-- Node4 -->
<g id="node4" class="node"><title>Node4</title>
<g id="a_node4"><a xlink:href="namespaceRa_1_1Core_1_1Geometry.html#a2ce97206423345716bf1b55f60c1c227" target="_top" xlink:title="Ra::Core::Geometry\l::triangleNormal">
<polygon fill="white" stroke="black" points="377.5,-120.5 377.5,-150.5 488.5,-150.5 488.5,-120.5 377.5,-120.5"/>
<text text-anchor="start" x="385.5" y="-138.5" font-family="Helvetica,sans-Serif" font-size="10.00">Ra::Core::Geometry</text>
<text text-anchor="middle" x="433" y="-127.5" font-family="Helvetica,sans-Serif" font-size="10.00">::triangleNormal</text>
</a>
</g>
</g>
<!-- Node2&#45;&gt;Node4 -->
<g id="edge3" class="edge"><title>Node2&#45;&gt;Node4</title>
<path fill="none" stroke="midnightblue" d="M332.173,-147.978C343.957,-146.505 356.029,-144.996 367.523,-143.56"/>
<polygon fill="midnightblue" stroke="midnightblue" points="367.965,-147.032 377.454,-142.318 367.097,-140.086 367.965,-147.032"/>
</g>
<!-- Node5 -->
<g id="node5" class="node"><title>Node5</title>
<g id="a_node5"><a xlink:href="namespaceOpenMesh.html#a71e7f1dd3eac016d2b8245ac408a291c" target="_top" xlink:title="OpenMesh::cross">
<polygon fill="white" stroke="black" points="529,-126 529,-145 628,-145 628,-126 529,-126"/>
<text text-anchor="middle" x="578.5" y="-133" font-family="Helvetica,sans-Serif" font-size="10.00">OpenMesh::cross</text>
</a>
</g>
</g>
<!-- Node4&#45;&gt;Node5 -->
<g id="edge4" class="edge"><title>Node4&#45;&gt;Node5</title>
<path fill="none" stroke="midnightblue" d="M488.661,-135.5C498.419,-135.5 508.625,-135.5 518.498,-135.5"/>
<polygon fill="midnightblue" stroke="midnightblue" points="518.634,-139 528.634,-135.5 518.634,-132 518.634,-139"/>
</g>
<!-- Node9 -->
<g id="node9" class="node"><title>Node9</title>
<g id="a_node9"><a xlink:href="namespaceRa_1_1Core_1_1Animation.html#a44a3a0320649edf2829268bf80555800" target="_top" xlink:title="Ra::Core::Animation\l::compatible">
<polygon fill="white" stroke="black" points="377,-0.5 377,-30.5 489,-30.5 489,-0.5 377,-0.5"/>
<text text-anchor="start" x="385" y="-18.5" font-family="Helvetica,sans-Serif" font-size="10.00">Ra::Core::Animation</text>
<text text-anchor="middle" x="433" y="-7.5" font-family="Helvetica,sans-Serif" font-size="10.00">::compatible</text>
</a>
</g>
</g>
<!-- Node8&#45;&gt;Node9 -->
<g id="edge8" class="edge"><title>Node8&#45;&gt;Node9</title>
<path fill="none" stroke="midnightblue" d="M311.205,-15.5C328.897,-15.5 348.653,-15.5 366.979,-15.5"/>
<polygon fill="midnightblue" stroke="midnightblue" points="366.991,-19.0001 376.991,-15.5 366.991,-12.0001 366.991,-19.0001"/>
</g>
</g>
</svg>
