<?xml version="1.0" encoding="UTF-8" standalone="no"?>
<!DOCTYPE svg PUBLIC "-//W3C//DTD SVG 1.1//EN"
 "http://www.w3.org/Graphics/SVG/1.1/DTD/svg11.dtd">
<!-- Generated by graphviz version 2.38.0 (20140413.2041)
 -->
<!-- Title: Ra::GuiBase::TransformEditor::setTransform Pages: 1 -->
<svg width="1024pt" height="462pt"
 viewBox="0.00 0.00 1024.00 462.00" xmlns="http://www.w3.org/2000/svg" xmlns:xlink="http://www.w3.org/1999/xlink">
<g id="graph0" class="graph" transform="scale(1 1) rotate(0) translate(4 458)">
<title>Ra::GuiBase::TransformEditor::setTransform</title>
<polygon fill="white" stroke="none" points="-4,4 -4,-458 1020,-458 1020,4 -4,4"/>
<!-- Node1 -->
<g id="node1" class="node"><title>Node1</title>
<polygon fill="#bfbfbf" stroke="black" points="0,-71.5 0,-101.5 155,-101.5 155,-71.5 0,-71.5"/>
<text text-anchor="start" x="8" y="-89.5" font-family="Helvetica,sans-Serif" font-size="10.00">Ra::GuiBase::TransformEditor</text>
<text text-anchor="middle" x="77.5" y="-78.5" font-family="Helvetica,sans-Serif" font-size="10.00">::setTransform</text>
</g>
<!-- Node2 -->
<g id="node2" class="node"><title>Node2</title>
<g id="a_node2"><a xlink:href="classRa_1_1GuiBase_1_1TransformEditor.html#ad21b8c46ad2d5c62e309eb16b104ee2f" target="_top" xlink:title="Ra::GuiBase::TransformEditor\l::canEdit">
<polygon fill="white" stroke="black" points="191,-139.5 191,-169.5 346,-169.5 346,-139.5 191,-139.5"/>
<text text-anchor="start" x="199" y="-157.5" font-family="Helvetica,sans-Serif" font-size="10.00">Ra::GuiBase::TransformEditor</text>
<text text-anchor="middle" x="268.5" y="-146.5" font-family="Helvetica,sans-Serif" font-size="10.00">::canEdit</text>
</a>
</g>
</g>
<!-- Node1&#45;&gt;Node2 -->
<g id="edge1" class="edge"><title>Node1&#45;&gt;Node2</title>
<path fill="none" stroke="midnightblue" d="M120.445,-101.591C148.707,-111.76 186.164,-125.236 216.202,-136.043"/>
<polygon fill="midnightblue" stroke="midnightblue" points="215.078,-139.359 225.672,-139.451 217.447,-132.772 215.078,-139.359"/>
</g>
<!-- Node16 -->
<g id="node16" class="node"><title>Node16</title>
<g id="a_node16"><a xlink:href="structRa_1_1Engine_1_1ItemEntry.html#a4823dfa3c113db71733979f1719f3b28" target="_top" xlink:title="Returns true if the item represents an entity. ">
<polygon fill="white" stroke="black" points="387,-90.5 387,-120.5 506,-120.5 506,-90.5 387,-90.5"/>
<text text-anchor="start" x="395" y="-108.5" font-family="Helvetica,sans-Serif" font-size="10.00">Ra::Engine::ItemEntry</text>
<text text-anchor="middle" x="446.5" y="-97.5" font-family="Helvetica,sans-Serif" font-size="10.00">::isEntityNode</text>
</a>
</g>
</g>
<!-- Node1&#45;&gt;Node16 -->
<g id="edge23" class="edge"><title>Node1&#45;&gt;Node16</title>
<path fill="none" stroke="midnightblue" d="M155.435,-90.483C220.741,-93.864 313.605,-98.6716 376.53,-101.929"/>
<polygon fill="midnightblue" stroke="midnightblue" points="376.584,-105.437 386.751,-102.459 376.946,-98.4461 376.584,-105.437"/>
</g>
<!-- Node18 -->
<g id="node18" class="node"><title>Node18</title>
<g id="a_node18"><a xlink:href="classRa_1_1Engine_1_1Entity.html#a0555082e814666f1ec051e65b727930d" target="_top" xlink:title="Ra::Engine::Entity\l::setTransform">
<polygon fill="white" stroke="black" points="218.5,-49.5 218.5,-79.5 318.5,-79.5 318.5,-49.5 218.5,-49.5"/>
<text text-anchor="start" x="226.5" y="-67.5" font-family="Helvetica,sans-Serif" font-size="10.00">Ra::Engine::Entity</text>
<text text-anchor="middle" x="268.5" y="-56.5" font-family="Helvetica,sans-Serif" font-size="10.00">::setTransform</text>
</a>
</g>
</g>
<!-- Node1&#45;&gt;Node18 -->
<g id="edge24" class="edge"><title>Node1&#45;&gt;Node18</title>
<path fill="none" stroke="midnightblue" d="M155.101,-77.5835C172.811,-75.522 191.392,-73.3591 208.231,-71.399"/>
<polygon fill="midnightblue" stroke="midnightblue" points="208.939,-74.8404 218.467,-70.2075 208.13,-67.8873 208.939,-74.8404"/>
</g>
<!-- Node19 -->
<g id="node19" class="node"><title>Node19</title>
<g id="a_node19"><a xlink:href="classRa_1_1Engine_1_1Component.html#a1073e2c8c9ca06b206376d63cb469f0b" target="_top" xlink:title="Set the new transform associated with the RO index key. ">
<polygon fill="white" stroke="black" points="204,-0.5 204,-30.5 333,-30.5 333,-0.5 204,-0.5"/>
<text text-anchor="start" x="212" y="-18.5" font-family="Helvetica,sans-Serif" font-size="10.00">Ra::Engine::Component</text>
<text text-anchor="middle" x="268.5" y="-7.5" font-family="Helvetica,sans-Serif" font-size="10.00">::setTransform</text>
</a>
</g>
</g>
<!-- Node1&#45;&gt;Node19 -->
<g id="edge25" class="edge"><title>Node1&#45;&gt;Node19</title>
<path fill="none" stroke="midnightblue" d="M112.149,-71.4906C134.338,-61.8297 164.155,-49.295 191,-39.5 196.23,-37.5915 201.694,-35.6935 207.19,-33.8492"/>
<polygon fill="midnightblue" stroke="midnightblue" points="208.67,-37.047 217.075,-30.597 206.482,-30.3976 208.67,-37.047"/>
</g>
<!-- Node3 -->
<g id="node3" class="node"><title>Node3</title>
<g id="a_node3"><a xlink:href="structRa_1_1Engine_1_1ItemEntry.html#aceafc81a73631955b64999dd39a639da" target="_top" xlink:title="Returns true if the item represents any valid object. ">
<polygon fill="white" stroke="black" points="387,-188.5 387,-218.5 506,-218.5 506,-188.5 387,-188.5"/>
<text text-anchor="start" x="395" y="-206.5" font-family="Helvetica,sans-Serif" font-size="10.00">Ra::Engine::ItemEntry</text>
<text text-anchor="middle" x="446.5" y="-195.5" font-family="Helvetica,sans-Serif" font-size="10.00">::isValid</text>
</a>
</g>
</g>
<!-- Node2&#45;&gt;Node3 -->
<g id="edge2" class="edge"><title>Node2&#45;&gt;Node3</title>
<path fill="none" stroke="midnightblue" d="M323.742,-169.601C342.062,-174.702 362.683,-180.443 381.675,-185.73"/>
<polygon fill="midnightblue" stroke="midnightblue" points="380.865,-189.138 391.437,-188.448 382.742,-182.395 380.865,-189.138"/>
</g>
<!-- Node13 -->
<g id="node13" class="node"><title>Node13</title>
<g id="a_node13"><a xlink:href="structRa_1_1Engine_1_1ItemEntry.html#a09e294208d0896596a42a7a6c7e78f75" target="_top" xlink:title="Returns true if the item can be selected. ">
<polygon fill="white" stroke="black" points="387,-325.5 387,-355.5 506,-355.5 506,-325.5 387,-325.5"/>
<text text-anchor="start" x="395" y="-343.5" font-family="Helvetica,sans-Serif" font-size="10.00">Ra::Engine::ItemEntry</text>
<text text-anchor="middle" x="446.5" y="-332.5" font-family="Helvetica,sans-Serif" font-size="10.00">::isSelectable</text>
</a>
</g>
</g>
<!-- Node2&#45;&gt;Node13 -->
<g id="edge14" class="edge"><title>Node2&#45;&gt;Node13</title>
<path fill="none" stroke="midnightblue" d="M283.903,-169.721C314.791,-202.364 387.544,-279.251 423.955,-317.731"/>
<polygon fill="midnightblue" stroke="midnightblue" points="421.73,-320.471 431.145,-325.329 426.814,-315.66 421.73,-320.471"/>
</g>
<!-- Node2&#45;&gt;Node16 -->
<g id="edge20" class="edge"><title>Node2&#45;&gt;Node16</title>
<path fill="none" stroke="midnightblue" d="M323.742,-139.399C342.062,-134.298 362.683,-128.557 381.675,-123.27"/>
<polygon fill="midnightblue" stroke="midnightblue" points="382.742,-126.605 391.437,-120.552 380.865,-119.862 382.742,-126.605"/>
</g>
<!-- Node17 -->
<g id="node17" class="node"><title>Node17</title>
<g id="a_node17"><a xlink:href="classRa_1_1Engine_1_1Component.html#a2c33ddf042a2c56f81f39477d9b616d0" target="_top" xlink:title="Returns true if a transform can be edited with the render object index given as a key...">
<polygon fill="white" stroke="black" points="382,-139.5 382,-169.5 511,-169.5 511,-139.5 382,-139.5"/>
<text text-anchor="start" x="390" y="-157.5" font-family="Helvetica,sans-Serif" font-size="10.00">Ra::Engine::Component</text>
<text text-anchor="middle" x="446.5" y="-146.5" font-family="Helvetica,sans-Serif" font-size="10.00">::canEdit</text>
</a>
</g>
</g>
<!-- Node2&#45;&gt;Node17 -->
<g id="edge22" class="edge"><title>Node2&#45;&gt;Node17</title>
<path fill="none" stroke="midnightblue" d="M346.184,-154.5C354.68,-154.5 363.318,-154.5 371.776,-154.5"/>
<polygon fill="midnightblue" stroke="midnightblue" points="371.981,-158 381.981,-154.5 371.981,-151 371.981,-158"/>
</g>
<!-- Node4 -->
<g id="node4" class="node"><title>Node4</title>
<g id="a_node4"><a xlink:href="structRa_1_1Engine_1_1ItemEntry.html#a1fb9fdd74413a1fa5878f53c1cfcf8fd" target="_top" xlink:title="Debug checks. ">
<polygon fill="white" stroke="black" points="736,-46.5 736,-76.5 855,-76.5 855,-46.5 736,-46.5"/>
<text text-anchor="start" x="744" y="-64.5" font-family="Helvetica,sans-Serif" font-size="10.00">Ra::Engine::ItemEntry</text>
<text text-anchor="middle" x="795.5" y="-53.5" font-family="Helvetica,sans-Serif" font-size="10.00">::checkConsistency</text>
</a>
</g>
</g>
<!-- Node3&#45;&gt;Node4 -->
<g id="edge3" class="edge"><title>Node3&#45;&gt;Node4</title>
<path fill="none" stroke="midnightblue" d="M499.451,-188.425C503.668,-185.891 507.605,-182.938 511,-179.5 543.897,-146.186 509.709,-108.809 547,-80.5 574.15,-59.8895 662.254,-57.496 725.613,-58.6756"/>
<polygon fill="midnightblue" stroke="midnightblue" points="725.875,-62.1821 735.95,-58.9033 726.029,-55.1838 725.875,-62.1821"/>
</g>
<!-- Node6 -->
<g id="node6" class="node"><title>Node6</title>
<g id="a_node6"><a xlink:href="classRa_1_1Engine_1_1RadiumEngine.html#a79f6626ce468268791bc5bdfe17b5586" target="_top" xlink:title="Get the entity manager attached to the engine. ">
<polygon fill="white" stroke="black" points="548.5,-139.5 548.5,-169.5 689.5,-169.5 689.5,-139.5 548.5,-139.5"/>
<text text-anchor="start" x="556.5" y="-157.5" font-family="Helvetica,sans-Serif" font-size="10.00">Ra::Engine::RadiumEngine</text>
<text text-anchor="middle" x="619" y="-146.5" font-family="Helvetica,sans-Serif" font-size="10.00">::getEntityManager</text>
</a>
</g>
</g>
<!-- Node3&#45;&gt;Node6 -->
<g id="edge5" class="edge"><title>Node3&#45;&gt;Node6</title>
<path fill="none" stroke="midnightblue" d="M500.047,-188.399C517.713,-183.321 537.587,-177.61 555.916,-172.342"/>
<polygon fill="midnightblue" stroke="midnightblue" points="556.982,-175.678 565.627,-169.552 555.049,-168.95 556.982,-175.678"/>
</g>
<!-- Node7 -->
<g id="node7" class="node"><title>Node7</title>
<g id="a_node7"><a xlink:href="classRa_1_1Engine_1_1EntityManager.html#a5115cccae6aaef614ad4bd08e64d8185" target="_top" xlink:title="Check wether an entity with a given name exists or not. ">
<polygon fill="white" stroke="black" points="548,-90.5 548,-120.5 690,-120.5 690,-90.5 548,-90.5"/>
<text text-anchor="start" x="556" y="-108.5" font-family="Helvetica,sans-Serif" font-size="10.00">Ra::Engine::EntityManager</text>
<text text-anchor="middle" x="619" y="-97.5" font-family="Helvetica,sans-Serif" font-size="10.00">::entityExists</text>
</a>
</g>
</g>
<!-- Node3&#45;&gt;Node7 -->
<g id="edge6" class="edge"><title>Node3&#45;&gt;Node7</title>
<path fill="none" stroke="midnightblue" d="M496.216,-188.488C501.445,-185.902 506.494,-182.92 511,-179.5 532.525,-163.162 525.29,-146.592 547,-130.5 549.492,-128.653 552.132,-126.934 554.871,-125.334"/>
<polygon fill="midnightblue" stroke="midnightblue" points="556.652,-128.353 563.898,-120.624 553.413,-122.147 556.652,-128.353"/>
</g>
<!-- Node8 -->
<g id="node8" class="node"><title>Node8</title>
<g id="a_node8"><a xlink:href="classRa_1_1Engine_1_1Entity.html#aaf256bea44bbc5bff6aa504aca05ca35" target="_top" xlink:title="Ra::Engine::Entity\l::getName">
<polygon fill="white" stroke="black" points="569,-188.5 569,-218.5 669,-218.5 669,-188.5 569,-188.5"/>
<text text-anchor="start" x="577" y="-206.5" font-family="Helvetica,sans-Serif" font-size="10.00">Ra::Engine::Entity</text>
<text text-anchor="middle" x="619" y="-195.5" font-family="Helvetica,sans-Serif" font-size="10.00">::getName</text>
</a>
</g>
</g>
<!-- Node3&#45;&gt;Node8 -->
<g id="edge7" class="edge"><title>Node3&#45;&gt;Node8</title>
<path fill="none" stroke="midnightblue" d="M506.176,-203.5C523.088,-203.5 541.55,-203.5 558.51,-203.5"/>
<polygon fill="midnightblue" stroke="midnightblue" points="558.849,-207 568.849,-203.5 558.849,-200 558.849,-207"/>
</g>
<!-- Node9 -->
<g id="node9" class="node"><title>Node9</title>
<g id="a_node9"><a xlink:href="structRa_1_1Engine_1_1ItemEntry.html#a898047549069e5b64d3a9a65c058af56" target="_top" xlink:title="Returns true if the item represents a render object. ">
<polygon fill="white" stroke="black" points="559.5,-237.5 559.5,-267.5 678.5,-267.5 678.5,-237.5 559.5,-237.5"/>
<text text-anchor="start" x="567.5" y="-255.5" font-family="Helvetica,sans-Serif" font-size="10.00">Ra::Engine::ItemEntry</text>
<text text-anchor="middle" x="619" y="-244.5" font-family="Helvetica,sans-Serif" font-size="10.00">::isRoNode</text>
</a>
</g>
</g>
<!-- Node3&#45;&gt;Node9 -->
<g id="edge8" class="edge"><title>Node3&#45;&gt;Node9</title>
<path fill="none" stroke="midnightblue" d="M500.047,-218.601C517.713,-223.679 537.587,-229.39 555.916,-234.658"/>
<polygon fill="midnightblue" stroke="midnightblue" points="555.049,-238.05 565.627,-237.448 556.982,-231.322 555.049,-238.05"/>
</g>
<!-- Node11 -->
<g id="node11" class="node"><title>Node11</title>
<g id="a_node11"><a xlink:href="classRa_1_1Engine_1_1RadiumEngine.html#a58b27bc600ea769f68b0e2938abc7862" target="_top" xlink:title="Manager getters. ">
<polygon fill="white" stroke="black" points="547,-325.5 547,-355.5 691,-355.5 691,-325.5 547,-325.5"/>
<text text-anchor="start" x="555" y="-343.5" font-family="Helvetica,sans-Serif" font-size="10.00">Ra::Engine::RadiumEngine</text>
<text text-anchor="middle" x="619" y="-332.5" font-family="Helvetica,sans-Serif" font-size="10.00">::getRenderObjectManager</text>
</a>
</g>
</g>
<!-- Node3&#45;&gt;Node11 -->
<g id="edge11" class="edge"><title>Node3&#45;&gt;Node11</title>
<path fill="none" stroke="midnightblue" d="M458.154,-218.516C474.844,-241.112 509.178,-284.024 547,-310.5 552.524,-314.367 558.624,-317.874 564.86,-321.013"/>
<polygon fill="midnightblue" stroke="midnightblue" points="563.504,-324.243 574.041,-325.347 566.493,-317.913 563.504,-324.243"/>
</g>
<!-- Node12 -->
<g id="node12" class="node"><title>Node12</title>
<g id="a_node12"><a xlink:href="classRa_1_1Engine_1_1RenderObjectManager.html#a088feae4339349a81b7b6635b38aead1" target="_top" xlink:title="Returns true if the index points to a valid render object. ">
<polygon fill="white" stroke="black" points="727,-281.5 727,-311.5 864,-311.5 864,-281.5 727,-281.5"/>
<text text-anchor="start" x="735" y="-299.5" font-family="Helvetica,sans-Serif" font-size="10.00">Ra::Engine::RenderObject</text>
<text text-anchor="middle" x="795.5" y="-288.5" font-family="Helvetica,sans-Serif" font-size="10.00">Manager::exists</text>
</a>
</g>
</g>
<!-- Node3&#45;&gt;Node12 -->
<g id="edge12" class="edge"><title>Node3&#45;&gt;Node12</title>
<path fill="none" stroke="midnightblue" d="M462.038,-218.6C480.093,-236.251 512.723,-264.675 547,-277.5 601.281,-297.81 666.834,-302.025 716.837,-301.45"/>
<polygon fill="midnightblue" stroke="midnightblue" points="717.006,-304.947 726.941,-301.266 716.879,-297.948 717.006,-304.947"/>
</g>
<!-- Node5 -->
<g id="node5" class="node"><title>Node5</title>
<g id="a_node5"><a xlink:href="classRa_1_1Core_1_1Utils_1_1Index.html#ac7d6c68387fe147f7a13668ac30a4533" target="_top" xlink:title="INVALID. ">
<polygon fill="white" stroke="black" points="900,-46.5 900,-76.5 1016,-76.5 1016,-46.5 900,-46.5"/>
<text text-anchor="start" x="908" y="-64.5" font-family="Helvetica,sans-Serif" font-size="10.00">Ra::Core::Utils::Index</text>
<text text-anchor="middle" x="958" y="-53.5" font-family="Helvetica,sans-Serif" font-size="10.00">::isInvalid</text>
</a>
</g>
</g>
<!-- Node4&#45;&gt;Node5 -->
<g id="edge4" class="edge"><title>Node4&#45;&gt;Node5</title>
<path fill="none" stroke="midnightblue" d="M855.353,-61.5C866.449,-61.5 878.135,-61.5 889.473,-61.5"/>
<polygon fill="midnightblue" stroke="midnightblue" points="889.76,-65.0001 899.76,-61.5 889.76,-58.0001 889.76,-65.0001"/>
</g>
<!-- Node9&#45;&gt;Node4 -->
<g id="edge9" class="edge"><title>Node9&#45;&gt;Node4</title>
<path fill="none" stroke="midnightblue" d="M676.921,-237.349C681.933,-234.827 686.72,-231.898 691,-228.5 739.351,-190.117 771.066,-122.538 785.502,-86.2279"/>
<polygon fill="midnightblue" stroke="midnightblue" points="788.78,-87.4556 789.115,-76.8661 782.249,-84.9353 788.78,-87.4556"/>
</g>
<!-- Node10 -->
<g id="node10" class="node"><title>Node10</title>
<g id="a_node10"><a xlink:href="classRa_1_1Core_1_1Utils_1_1Index.html#ac7a1b710e6b95834a562c27e2f6c0f4b" target="_top" xlink:title="DESTRUCTOR: Must not be defined, we need it trivial to be constexpr. ">
<polygon fill="white" stroke="black" points="900,-259.5 900,-289.5 1016,-289.5 1016,-259.5 900,-259.5"/>
<text text-anchor="start" x="908" y="-277.5" font-family="Helvetica,sans-Serif" font-size="10.00">Ra::Core::Utils::Index</text>
<text text-anchor="middle" x="958" y="-266.5" font-family="Helvetica,sans-Serif" font-size="10.00">::isValid</text>
</a>
</g>
</g>
<!-- Node9&#45;&gt;Node10 -->
<g id="edge10" class="edge"><title>Node9&#45;&gt;Node10</title>
<path fill="none" stroke="midnightblue" d="M678.701,-256.332C737.561,-260.175 828.082,-266.084 889.788,-270.112"/>
<polygon fill="midnightblue" stroke="midnightblue" points="889.608,-273.608 899.815,-270.767 890.064,-266.623 889.608,-273.608"/>
</g>
<!-- Node12&#45;&gt;Node10 -->
<g id="edge13" class="edge"><title>Node12&#45;&gt;Node10</title>
<path fill="none" stroke="midnightblue" d="M864.101,-287.234C872.66,-286.061 881.416,-284.86 889.966,-283.688"/>
<polygon fill="midnightblue" stroke="midnightblue" points="890.453,-287.155 899.885,-282.329 889.502,-280.219 890.453,-287.155"/>
</g>
<!-- Node13&#45;&gt;Node9 -->
<g id="edge16" class="edge"><title>Node13&#45;&gt;Node9</title>
<path fill="none" stroke="midnightblue" d="M476.81,-325.372C505.198,-310.72 548.403,-288.421 579.541,-272.35"/>
<polygon fill="midnightblue" stroke="midnightblue" points="581.507,-275.274 588.788,-267.577 578.296,-269.054 581.507,-275.274"/>
</g>
<!-- Node13&#45;&gt;Node11 -->
<g id="edge17" class="edge"><title>Node13&#45;&gt;Node11</title>
<path fill="none" stroke="midnightblue" d="M506.176,-340.5C516.002,-340.5 526.35,-340.5 536.624,-340.5"/>
<polygon fill="midnightblue" stroke="midnightblue" points="536.85,-344 546.85,-340.5 536.85,-337 536.85,-344"/>
</g>
<!-- Node14 -->
<g id="node14" class="node"><title>Node14</title>
<g id="a_node14"><a xlink:href="classRa_1_1Core_1_1Utils_1_1IndexedObject.html#accf1e1447b2ed890b10080fb44a91e6c" target="_top" xlink:title="Ra::Core::Utils::Indexed\lObject::getIndex">
<polygon fill="white" stroke="black" points="555,-423.5 555,-453.5 683,-453.5 683,-423.5 555,-423.5"/>
<text text-anchor="start" x="563" y="-441.5" font-family="Helvetica,sans-Serif" font-size="10.00">Ra::Core::Utils::Indexed</text>
<text text-anchor="middle" x="619" y="-430.5" font-family="Helvetica,sans-Serif" font-size="10.00">Object::getIndex</text>
</a>
</g>
</g>
<!-- Node13&#45;&gt;Node14 -->
<g id="edge15" class="edge"><title>Node13&#45;&gt;Node14</title>
<path fill="none" stroke="midnightblue" d="M464.353,-355.653C483.298,-372.037 515.538,-398.011 547,-414.5 550.466,-416.317 554.098,-418.038 557.809,-419.661"/>
<polygon fill="midnightblue" stroke="midnightblue" points="556.566,-422.934 567.146,-423.491 559.223,-416.457 556.566,-422.934"/>
</g>
<!-- Node15 -->
<g id="node15" class="node"><title>Node15</title>
<g id="a_node15"><a xlink:href="classRa_1_1Engine_1_1RenderObjectManager.html#a13fc919e9fa01bfb36e67bc9011d325f" target="_top" xlink:title="Returns the render object corresponding to the given index. ">
<polygon fill="white" stroke="black" points="547,-374.5 547,-404.5 691,-404.5 691,-374.5 547,-374.5"/>
<text text-anchor="start" x="555" y="-392.5" font-family="Helvetica,sans-Serif" font-size="10.00">Ra::Engine::RenderObject</text>
<text text-anchor="middle" x="619" y="-381.5" font-family="Helvetica,sans-Serif" font-size="10.00">Manager::getRenderObject</text>
</a>
</g>
</g>
<!-- Node13&#45;&gt;Node15 -->
<g id="edge18" class="edge"><title>Node13&#45;&gt;Node15</title>
<path fill="none" stroke="midnightblue" d="M500.047,-355.601C517.713,-360.679 537.587,-366.39 555.916,-371.658"/>
<polygon fill="midnightblue" stroke="midnightblue" points="555.049,-375.05 565.627,-374.448 556.982,-368.322 555.049,-375.05"/>
</g>
<!-- Node15&#45;&gt;Node12 -->
<g id="edge19" class="edge"><title>Node15&#45;&gt;Node12</title>
<path fill="none" stroke="midnightblue" d="M669.943,-374.472C677.133,-371.778 684.344,-368.773 691,-365.5 718.301,-352.076 746.897,-332.532 767.096,-317.668"/>
<polygon fill="midnightblue" stroke="midnightblue" points="769.286,-320.4 775.21,-311.616 765.101,-314.789 769.286,-320.4"/>
</g>
<!-- Node16&#45;&gt;Node4 -->
<g id="edge21" class="edge"><title>Node16&#45;&gt;Node4</title>
<path fill="none" stroke="midnightblue" d="M466.311,-90.4007C485.359,-76.1579 516.309,-55.7922 547,-47.5 605.888,-31.5896 675.435,-37.5884 725.788,-46.1132"/>
<polygon fill="midnightblue" stroke="midnightblue" points="725.455,-49.6085 735.912,-47.9047 726.675,-42.7156 725.455,-49.6085"/>
</g>
</g>
</svg>
