<?xml version="1.0" encoding="UTF-8" standalone="no"?>
<!DOCTYPE svg PUBLIC "-//W3C//DTD SVG 1.1//EN"
 "http://www.w3.org/Graphics/SVG/1.1/DTD/svg11.dtd">
<!-- Generated by graphviz version 2.38.0 (20140413.2041)
 -->
<!-- Title: MeshFeatureTrackingUI Pages: 1 -->
<svg width="161pt" height="204pt"
 viewBox="0.00 0.00 161.00 204.00" xmlns="http://www.w3.org/2000/svg" xmlns:xlink="http://www.w3.org/1999/xlink">
<g id="graph0" class="graph" transform="scale(1 1) rotate(0) translate(4 200)">
<title>MeshFeatureTrackingUI</title>
<polygon fill="white" stroke="none" points="-4,4 -4,-200 157,-200 157,4 -4,4"/>
<!-- Node1 -->
<g id="node1" class="node"><title>Node1</title>
<polygon fill="#bfbfbf" stroke="black" points="0,-0.5 0,-101.5 153,-101.5 153,-0.5 0,-0.5"/>
<text text-anchor="middle" x="76.5" y="-89.5" font-family="Helvetica,sans-Serif" font-size="10.00">MeshFeatureTrackingUI</text>
<polyline fill="none" stroke="black" points="0,-82.5 153,-82.5 "/>
<text text-anchor="middle" x="76.5" y="-70.5" font-family="Helvetica,sans-Serif" font-size="10.00"> </text>
<polyline fill="none" stroke="black" points="0,-63.5 153,-63.5 "/>
<text text-anchor="start" x="8" y="-51.5" font-family="Helvetica,sans-Serif" font-size="10.00">+ MeshFeatureTrackingUI()</text>
<text text-anchor="start" x="8" y="-40.5" font-family="Helvetica,sans-Serif" font-size="10.00">+ ~MeshFeatureTrackingUI()</text>
<text text-anchor="start" x="8" y="-29.5" font-family="Helvetica,sans-Serif" font-size="10.00">+ updateTracking()</text>
<text text-anchor="start" x="8" y="-18.5" font-family="Helvetica,sans-Serif" font-size="10.00">+ setMaxV()</text>
<text text-anchor="start" x="8" y="-7.5" font-family="Helvetica,sans-Serif" font-size="10.00">+ setMaxT()</text>
</g>
<!-- Node2 -->
<g id="node2" class="node"><title>Node2</title>
<g id="a_node2"><a xlink:href="classQFrame.html" target="_top" xlink:title="{QFrame\n||}">
<polygon fill="white" stroke="black" points="49.5,-138.5 49.5,-195.5 103.5,-195.5 103.5,-138.5 49.5,-138.5"/>
<text text-anchor="middle" x="76.5" y="-183.5" font-family="Helvetica,sans-Serif" font-size="10.00">QFrame</text>
<polyline fill="none" stroke="black" points="49.5,-176.5 103.5,-176.5 "/>
<text text-anchor="middle" x="76.5" y="-164.5" font-family="Helvetica,sans-Serif" font-size="10.00"> </text>
<polyline fill="none" stroke="black" points="49.5,-157.5 103.5,-157.5 "/>
<text text-anchor="middle" x="76.5" y="-145.5" font-family="Helvetica,sans-Serif" font-size="10.00"> </text>
</a>
</g>
</g>
<!-- Node2&#45;&gt;Node1 -->
<g id="edge1" class="edge"><title>Node2&#45;&gt;Node1</title>
<path fill="none" stroke="midnightblue" d="M76.5,-128.354C76.5,-119.796 76.5,-110.578 76.5,-101.608"/>
<polygon fill="none" stroke="midnightblue" points="73.0001,-128.404 76.5,-138.404 80.0001,-128.404 73.0001,-128.404"/>
</g>
</g>
</svg>
