<?xml version="1.0" encoding="UTF-8" standalone="no"?>
<!DOCTYPE svg PUBLIC "-//W3C//DTD SVG 1.1//EN"
 "http://www.w3.org/Graphics/SVG/1.1/DTD/svg11.dtd">
<!-- Generated by graphviz version 2.38.0 (20140413.2041)
 -->
<!-- Title: Ra::Core::Utils::AttribManager::copyAttributes Pages: 1 -->
<svg width="698pt" height="112pt"
 viewBox="0.00 0.00 698.00 112.00" xmlns="http://www.w3.org/2000/svg" xmlns:xlink="http://www.w3.org/1999/xlink">
<g id="graph0" class="graph" transform="scale(1 1) rotate(0) translate(4 108)">
<title>Ra::Core::Utils::AttribManager::copyAttributes</title>
<polygon fill="white" stroke="none" points="-4,4 -4,-108 694,-108 694,4 -4,4"/>
<!-- Node1 -->
<g id="node1" class="node"><title>Node1</title>
<polygon fill="#bfbfbf" stroke="black" points="0,-24.5 0,-54.5 158,-54.5 158,-24.5 0,-24.5"/>
<text text-anchor="start" x="8" y="-42.5" font-family="Helvetica,sans-Serif" font-size="10.00">Ra::Core::Utils::AttribManager</text>
<text text-anchor="middle" x="79" y="-31.5" font-family="Helvetica,sans-Serif" font-size="10.00">::copyAttributes</text>
</g>
<!-- Node2 -->
<g id="node2" class="node"><title>Node2</title>
<g id="a_node2"><a xlink:href="classRa_1_1Core_1_1Utils_1_1AttribManager.html#a15852253cab37e8aa8af5c76ec056f3d" target="_top" xlink:title="Return true if h correspond to an existing attribute in *this. ">
<polygon fill="white" stroke="black" points="194,-49.5 194,-79.5 352,-79.5 352,-49.5 194,-49.5"/>
<text text-anchor="start" x="202" y="-67.5" font-family="Helvetica,sans-Serif" font-size="10.00">Ra::Core::Utils::AttribManager</text>
<text text-anchor="middle" x="273" y="-56.5" font-family="Helvetica,sans-Serif" font-size="10.00">::isValid</text>
</a>
</g>
</g>
<!-- Node1&#45;&gt;Node2 -->
<g id="edge1" class="edge"><title>Node1&#45;&gt;Node2</title>
<path fill="none" stroke="midnightblue" d="M158.094,-49.6685C166.601,-50.7761 175.302,-51.9091 183.918,-53.0309"/>
<polygon fill="midnightblue" stroke="midnightblue" points="183.607,-56.52 193.975,-54.3406 184.511,-49.5786 183.607,-56.52"/>
</g>
<!-- Node6 -->
<g id="node6" class="node"><title>Node6</title>
<g id="a_node6"><a xlink:href="classRa_1_1Core_1_1Utils_1_1AttribManager.html#a0a49a4d134669b24642856717a1e5c5b" target="_top" xlink:title="Get attribute by handle. ">
<polygon fill="white" stroke="black" points="194,-0.5 194,-30.5 352,-30.5 352,-0.5 194,-0.5"/>
<text text-anchor="start" x="202" y="-18.5" font-family="Helvetica,sans-Serif" font-size="10.00">Ra::Core::Utils::AttribManager</text>
<text text-anchor="middle" x="273" y="-7.5" font-family="Helvetica,sans-Serif" font-size="10.00">::getAttrib</text>
</a>
</g>
</g>
<!-- Node1&#45;&gt;Node6 -->
<g id="edge5" class="edge"><title>Node1&#45;&gt;Node6</title>
<path fill="none" stroke="midnightblue" d="M158.094,-29.7383C166.601,-28.6749 175.302,-27.5873 183.918,-26.5103"/>
<polygon fill="midnightblue" stroke="midnightblue" points="184.487,-29.9665 193.975,-25.2531 183.619,-23.0205 184.487,-29.9665"/>
</g>
<!-- Node3 -->
<g id="node3" class="node"><title>Node3</title>
<g id="a_node3"><a xlink:href="classRa_1_1Core_1_1Utils_1_1Index.html#a771f93efd49538950e3cb9e57e46fbaf" target="_top" xlink:title="Ra::Core::Utils::Index\l::Invalid">
<polygon fill="white" stroke="black" points="405,-73.5 405,-103.5 521,-103.5 521,-73.5 405,-73.5"/>
<text text-anchor="start" x="413" y="-91.5" font-family="Helvetica,sans-Serif" font-size="10.00">Ra::Core::Utils::Index</text>
<text text-anchor="middle" x="463" y="-80.5" font-family="Helvetica,sans-Serif" font-size="10.00">::Invalid</text>
</a>
</g>
</g>
<!-- Node2&#45;&gt;Node3 -->
<g id="edge2" class="edge"><title>Node2&#45;&gt;Node3</title>
<path fill="none" stroke="midnightblue" d="M352.096,-74.4697C366.302,-76.2833 381.008,-78.1606 394.864,-79.9294"/>
<polygon fill="midnightblue" stroke="midnightblue" points="394.42,-83.4011 404.783,-81.1957 395.307,-76.4575 394.42,-83.4011"/>
</g>
<!-- Node5 -->
<g id="node5" class="node"><title>Node5</title>
<g id="a_node5"><a xlink:href="classRa_1_1Core_1_1Utils_1_1AttribHandle.html#ab1b136a123fc9f7a52ac6886526d2013" target="_top" xlink:title="Ra::Core::Utils::AttribHandle\l::attribName">
<polygon fill="white" stroke="black" points="388,-24.5 388,-54.5 538,-54.5 538,-24.5 388,-24.5"/>
<text text-anchor="start" x="396" y="-42.5" font-family="Helvetica,sans-Serif" font-size="10.00">Ra::Core::Utils::AttribHandle</text>
<text text-anchor="middle" x="463" y="-31.5" font-family="Helvetica,sans-Serif" font-size="10.00">::attribName</text>
</a>
</g>
</g>
<!-- Node2&#45;&gt;Node5 -->
<g id="edge4" class="edge"><title>Node2&#45;&gt;Node5</title>
<path fill="none" stroke="midnightblue" d="M352.096,-54.1149C360.579,-52.9868 369.241,-51.835 377.794,-50.6977"/>
<polygon fill="midnightblue" stroke="midnightblue" points="378.315,-54.1593 387.766,-49.3715 377.392,-47.2204 378.315,-54.1593"/>
</g>
<!-- Node4 -->
<g id="node4" class="node"><title>Node4</title>
<g id="a_node4"><a xlink:href="classRa_1_1Core_1_1Utils_1_1Index.html#ab3ba134498a9c2f1f3f9ccadd984a8e8" target="_top" xlink:title="CONSTRUCTOR Default constructor that allow implicit conversion from integer to Index. ">
<polygon fill="white" stroke="black" points="574,-73.5 574,-103.5 690,-103.5 690,-73.5 574,-73.5"/>
<text text-anchor="start" x="582" y="-91.5" font-family="Helvetica,sans-Serif" font-size="10.00">Ra::Core::Utils::Index</text>
<text text-anchor="middle" x="632" y="-80.5" font-family="Helvetica,sans-Serif" font-size="10.00">::Index</text>
</a>
</g>
</g>
<!-- Node3&#45;&gt;Node4 -->
<g id="edge3" class="edge"><title>Node3&#45;&gt;Node4</title>
<path fill="none" stroke="midnightblue" d="M521.005,-88.5C534.767,-88.5 549.601,-88.5 563.782,-88.5"/>
<polygon fill="midnightblue" stroke="midnightblue" points="563.969,-92.0001 573.969,-88.5 563.969,-85.0001 563.969,-92.0001"/>
</g>
</g>
</svg>
