<?xml version="1.0" encoding="UTF-8" standalone="no"?>
<!DOCTYPE svg PUBLIC "-//W3C//DTD SVG 1.1//EN"
 "http://www.w3.org/Graphics/SVG/1.1/DTD/svg11.dtd">
<!-- Generated by graphviz version 2.38.0 (20140413.2041)
 -->
<!-- Title: SkinningPlugin::SkinningPluginC::getAction Pages: 1 -->
<svg width="1506pt" height="318pt"
 viewBox="0.00 0.00 1506.00 318.00" xmlns="http://www.w3.org/2000/svg" xmlns:xlink="http://www.w3.org/1999/xlink">
<g id="graph0" class="graph" transform="scale(1 1) rotate(0) translate(4 314)">
<title>SkinningPlugin::SkinningPluginC::getAction</title>
<polygon fill="white" stroke="none" points="-4,4 -4,-314 1502,-314 1502,4 -4,4"/>
<!-- Node1 -->
<g id="node1" class="node"><title>Node1</title>
<polygon fill="#bfbfbf" stroke="black" points="0,-198.5 0,-228.5 132,-228.5 132,-198.5 0,-198.5"/>
<text text-anchor="start" x="8" y="-216.5" font-family="Helvetica,sans-Serif" font-size="10.00">SkinningPlugin::Skinning</text>
<text text-anchor="middle" x="66" y="-205.5" font-family="Helvetica,sans-Serif" font-size="10.00">PluginC::getAction</text>
</g>
<!-- Node2 -->
<g id="node2" class="node"><title>Node2</title>
<g id="a_node2"><a xlink:href="classRa_1_1GuiBase_1_1SelectionManager.html#a29cbd250208f1e18d2ab1e0f4d91105d" target="_top" xlink:title="Return the current selected item, or an invalid entry if there is no current item. ">
<polygon fill="white" stroke="black" points="168,-247.5 168,-277.5 335,-277.5 335,-247.5 168,-247.5"/>
<text text-anchor="start" x="176" y="-265.5" font-family="Helvetica,sans-Serif" font-size="10.00">Ra::GuiBase::SelectionManager</text>
<text text-anchor="middle" x="251.5" y="-254.5" font-family="Helvetica,sans-Serif" font-size="10.00">::currentItem</text>
</a>
</g>
</g>
<!-- Node1&#45;&gt;Node2 -->
<g id="edge1" class="edge"><title>Node1&#45;&gt;Node2</title>
<path fill="none" stroke="midnightblue" d="M123.303,-228.535C142.678,-233.708 164.545,-239.548 184.614,-244.907"/>
<polygon fill="midnightblue" stroke="midnightblue" points="183.739,-248.295 194.303,-247.494 185.545,-241.532 183.739,-248.295"/>
</g>
<!-- Node6 -->
<g id="node6" class="node"><title>Node6</title>
<g id="a_node6"><a xlink:href="classRa_1_1Engine_1_1System.html#aafa5a9505889509fc498bfe61344199e" target="_top" xlink:title="Returns the components stored for the given entity. ">
<polygon fill="white" stroke="black" points="188,-198.5 188,-228.5 315,-228.5 315,-198.5 188,-198.5"/>
<text text-anchor="start" x="196" y="-216.5" font-family="Helvetica,sans-Serif" font-size="10.00">Ra::Engine::System</text>
<text text-anchor="middle" x="251.5" y="-205.5" font-family="Helvetica,sans-Serif" font-size="10.00">::getEntityComponents</text>
</a>
</g>
</g>
<!-- Node1&#45;&gt;Node6 -->
<g id="edge5" class="edge"><title>Node1&#45;&gt;Node6</title>
<path fill="none" stroke="midnightblue" d="M132.212,-213.5C146.943,-213.5 162.673,-213.5 177.694,-213.5"/>
<polygon fill="midnightblue" stroke="midnightblue" points="177.959,-217 187.959,-213.5 177.959,-210 177.959,-217"/>
</g>
<!-- Node7 -->
<g id="node7" class="node"><title>Node7</title>
<g id="a_node7"><a xlink:href="classSkinningPlugin_1_1SkinningWidget.html#a82b3a8d0f4cbc8dbf049283174caaf6e" target="_top" xlink:title="SkinningPlugin::Skinning\lWidget::setCurrent">
<polygon fill="white" stroke="black" points="185.5,-149.5 185.5,-179.5 317.5,-179.5 317.5,-149.5 185.5,-149.5"/>
<text text-anchor="start" x="193.5" y="-167.5" font-family="Helvetica,sans-Serif" font-size="10.00">SkinningPlugin::Skinning</text>
<text text-anchor="middle" x="251.5" y="-156.5" font-family="Helvetica,sans-Serif" font-size="10.00">Widget::setCurrent</text>
</a>
</g>
</g>
<!-- Node1&#45;&gt;Node7 -->
<g id="edge6" class="edge"><title>Node1&#45;&gt;Node7</title>
<path fill="none" stroke="midnightblue" d="M123.303,-198.465C142.678,-193.292 164.545,-187.452 184.614,-182.093"/>
<polygon fill="midnightblue" stroke="midnightblue" points="185.545,-185.468 194.303,-179.506 183.739,-178.705 185.545,-185.468"/>
</g>
<!-- Node3 -->
<g id="node3" class="node"><title>Node3</title>
<g id="a_node3"><a xlink:href="classRa_1_1GuiBase_1_1SelectionManager.html#aec178a6b3de1c04e5e1d16ff72c6e966" target="_top" xlink:title="Ra::GuiBase::SelectionManager\l::itemModel">
<polygon fill="white" stroke="black" points="371,-272.5 371,-302.5 538,-302.5 538,-272.5 371,-272.5"/>
<text text-anchor="start" x="379" y="-290.5" font-family="Helvetica,sans-Serif" font-size="10.00">Ra::GuiBase::SelectionManager</text>
<text text-anchor="middle" x="454.5" y="-279.5" font-family="Helvetica,sans-Serif" font-size="10.00">::itemModel</text>
</a>
</g>
</g>
<!-- Node2&#45;&gt;Node3 -->
<g id="edge2" class="edge"><title>Node2&#45;&gt;Node3</title>
<path fill="none" stroke="midnightblue" d="M335.125,-272.777C343.607,-273.832 352.266,-274.909 360.848,-275.976"/>
<polygon fill="midnightblue" stroke="midnightblue" points="360.516,-279.462 370.872,-277.223 361.38,-272.515 360.516,-279.462"/>
</g>
<!-- Node4 -->
<g id="node4" class="node"><title>Node4</title>
<g id="a_node4"><a xlink:href="classRa_1_1GuiBase_1_1ItemModel.html#a3236433d461ad6cac5e9390b2685fa3f" target="_top" xlink:title="Returns the entry corresponding to a given index or an invalid entry if the index doesn&#39;t match any e...">
<polygon fill="white" stroke="black" points="389,-223.5 389,-253.5 520,-253.5 520,-223.5 389,-223.5"/>
<text text-anchor="start" x="397" y="-241.5" font-family="Helvetica,sans-Serif" font-size="10.00">Ra::GuiBase::ItemModel</text>
<text text-anchor="middle" x="454.5" y="-230.5" font-family="Helvetica,sans-Serif" font-size="10.00">::getEntry</text>
</a>
</g>
</g>
<!-- Node2&#45;&gt;Node4 -->
<g id="edge3" class="edge"><title>Node2&#45;&gt;Node4</title>
<path fill="none" stroke="midnightblue" d="M335.125,-252.634C349.501,-250.918 364.382,-249.141 378.538,-247.451"/>
<polygon fill="midnightblue" stroke="midnightblue" points="379.187,-250.898 388.701,-246.237 378.357,-243.948 379.187,-250.898"/>
</g>
<!-- Node5 -->
<g id="node5" class="node"><title>Node5</title>
<g id="a_node5"><a xlink:href="classRa_1_1GuiBase_1_1TreeModel.html#a5aa24ace72c1c3d29e268cb34dc576f2" target="_top" xlink:title="Get the tree item corresponding to the given index. ">
<polygon fill="white" stroke="black" points="593.5,-223.5 593.5,-253.5 721.5,-253.5 721.5,-223.5 593.5,-223.5"/>
<text text-anchor="start" x="601.5" y="-241.5" font-family="Helvetica,sans-Serif" font-size="10.00">Ra::GuiBase::TreeModel</text>
<text text-anchor="middle" x="657.5" y="-230.5" font-family="Helvetica,sans-Serif" font-size="10.00">::getItem</text>
</a>
</g>
</g>
<!-- Node4&#45;&gt;Node5 -->
<g id="edge4" class="edge"><title>Node4&#45;&gt;Node5</title>
<path fill="none" stroke="midnightblue" d="M520.204,-238.5C540.232,-238.5 562.442,-238.5 583.019,-238.5"/>
<polygon fill="midnightblue" stroke="midnightblue" points="583.29,-242 593.29,-238.5 583.29,-235 583.29,-242"/>
</g>
<!-- Node8 -->
<g id="node8" class="node"><title>Node8</title>
<g id="a_node8"><a xlink:href="classSkinningPlugin_1_1SkinningComponent.html#a412042af255abac6143f258152167a44" target="_top" xlink:title="SkinningPlugin::Skinning\lComponent::getSkinningType">
<polygon fill="white" stroke="black" points="376.5,-174.5 376.5,-204.5 532.5,-204.5 532.5,-174.5 376.5,-174.5"/>
<text text-anchor="start" x="384.5" y="-192.5" font-family="Helvetica,sans-Serif" font-size="10.00">SkinningPlugin::Skinning</text>
<text text-anchor="middle" x="454.5" y="-181.5" font-family="Helvetica,sans-Serif" font-size="10.00">Component::getSkinningType</text>
</a>
</g>
</g>
<!-- Node7&#45;&gt;Node8 -->
<g id="edge7" class="edge"><title>Node7&#45;&gt;Node8</title>
<path fill="none" stroke="midnightblue" d="M317.759,-172.617C333.232,-174.541 349.982,-176.625 366.259,-178.649"/>
<polygon fill="midnightblue" stroke="midnightblue" points="365.961,-182.139 376.317,-179.9 366.825,-175.193 365.961,-182.139"/>
</g>
<!-- Node9 -->
<g id="node9" class="node"><title>Node9</title>
<g id="a_node9"><a xlink:href="classSkinningPlugin_1_1SkinningComponent.html#a9da330b1356de267daf5ac3ba1400d22" target="_top" xlink:title="Sets the Skinning method to use. ">
<polygon fill="white" stroke="black" points="377,-125.5 377,-155.5 532,-155.5 532,-125.5 377,-125.5"/>
<text text-anchor="start" x="385" y="-143.5" font-family="Helvetica,sans-Serif" font-size="10.00">SkinningPlugin::Skinning</text>
<text text-anchor="middle" x="454.5" y="-132.5" font-family="Helvetica,sans-Serif" font-size="10.00">Component::setSkinningType</text>
</a>
</g>
</g>
<!-- Node7&#45;&gt;Node9 -->
<g id="edge8" class="edge"><title>Node7&#45;&gt;Node9</title>
<path fill="none" stroke="midnightblue" d="M317.759,-156.708C333.327,-154.849 350.187,-152.836 366.558,-150.881"/>
<polygon fill="midnightblue" stroke="midnightblue" points="367.158,-154.334 376.673,-149.673 366.328,-147.384 367.158,-154.334"/>
</g>
<!-- Node10 -->
<g id="node10" class="node"><title>Node10</title>
<g id="a_node10"><a xlink:href="classSkinningPlugin_1_1SkinningComponent.html#a0ba759710b12a03a59faca912566d328" target="_top" xlink:title="Computes internal data related to the Skinning method. ">
<polygon fill="white" stroke="black" points="574,-125.5 574,-155.5 741,-155.5 741,-125.5 574,-125.5"/>
<text text-anchor="start" x="582" y="-143.5" font-family="Helvetica,sans-Serif" font-size="10.00">SkinningPlugin::Skinning</text>
<text text-anchor="middle" x="657.5" y="-132.5" font-family="Helvetica,sans-Serif" font-size="10.00">Component::setupSkinningType</text>
</a>
</g>
</g>
<!-- Node9&#45;&gt;Node10 -->
<g id="edge9" class="edge"><title>Node9&#45;&gt;Node10</title>
<path fill="none" stroke="midnightblue" d="M532.063,-140.5C542.404,-140.5 553.104,-140.5 563.69,-140.5"/>
<polygon fill="midnightblue" stroke="midnightblue" points="563.788,-144 573.788,-140.5 563.788,-137 563.788,-144"/>
</g>
<!-- Node11 -->
<g id="node11" class="node"><title>Node11</title>
<g id="a_node11"><a xlink:href="namespaceRa_1_1Core_1_1Animation.html#a40700cdabdd47fdb360f6bbfe692b36d" target="_top" xlink:title="Compute the optimal center of rotations (1 per vertex) based on weight similarity. ">
<polygon fill="white" stroke="black" points="777,-125.5 777,-155.5 889,-155.5 889,-125.5 777,-125.5"/>
<text text-anchor="start" x="785" y="-143.5" font-family="Helvetica,sans-Serif" font-size="10.00">Ra::Core::Animation</text>
<text text-anchor="middle" x="833" y="-132.5" font-family="Helvetica,sans-Serif" font-size="10.00">::computeCoR</text>
</a>
</g>
</g>
<!-- Node10&#45;&gt;Node11 -->
<g id="edge10" class="edge"><title>Node10&#45;&gt;Node11</title>
<path fill="none" stroke="midnightblue" d="M741.185,-140.5C749.748,-140.5 758.364,-140.5 766.698,-140.5"/>
<polygon fill="midnightblue" stroke="midnightblue" points="766.701,-144 776.701,-140.5 766.701,-137 766.701,-144"/>
</g>
<!-- Node12 -->
<g id="node12" class="node"><title>Node12</title>
<g id="a_node12"><a xlink:href="classRa_1_1Core_1_1Geometry_1_1TriangleMesh.html#a5a66222eccdfa045fb880cf0d92e9d11" target="_top" xlink:title="Copy only the mesh faces and geometry. ">
<polygon fill="white" stroke="black" points="925,-255.5 925,-285.5 1110,-285.5 1110,-255.5 925,-255.5"/>
<text text-anchor="start" x="933" y="-273.5" font-family="Helvetica,sans-Serif" font-size="10.00">Ra::Core::Geometry</text>
<text text-anchor="middle" x="1017.5" y="-262.5" font-family="Helvetica,sans-Serif" font-size="10.00">::TriangleMesh::copyBaseGeometry</text>
</a>
</g>
</g>
<!-- Node11&#45;&gt;Node12 -->
<g id="edge11" class="edge"><title>Node11&#45;&gt;Node12</title>
<path fill="none" stroke="midnightblue" d="M842.799,-155.7C857.038,-178.91 887.37,-222.963 925,-246.5 927.63,-248.145 930.37,-249.678 933.19,-251.107"/>
<polygon fill="midnightblue" stroke="midnightblue" points="931.878,-254.355 942.429,-255.323 934.784,-247.987 931.878,-254.355"/>
</g>
<!-- Node16 -->
<g id="node16" class="node"><title>Node16</title>
<g id="a_node16"><a xlink:href="classRa_1_1Core_1_1Geometry_1_1TriangleMesh.html#a6ef9dbd18c0501f2ffd1316be6be56ce" target="_top" xlink:title="Access the vertices positions. ">
<polygon fill="white" stroke="black" points="953.5,-206.5 953.5,-236.5 1081.5,-236.5 1081.5,-206.5 953.5,-206.5"/>
<text text-anchor="start" x="961.5" y="-224.5" font-family="Helvetica,sans-Serif" font-size="10.00">Ra::Core::Geometry</text>
<text text-anchor="middle" x="1017.5" y="-213.5" font-family="Helvetica,sans-Serif" font-size="10.00">::TriangleMesh::vertices</text>
</a>
</g>
</g>
<!-- Node11&#45;&gt;Node16 -->
<g id="edge15" class="edge"><title>Node11&#45;&gt;Node16</title>
<path fill="none" stroke="midnightblue" d="M853.975,-155.511C871.786,-168.269 898.991,-186.256 925,-197.5 930.837,-200.023 937.001,-202.332 943.26,-204.434"/>
<polygon fill="midnightblue" stroke="midnightblue" points="942.55,-207.881 953.14,-207.567 944.666,-201.208 942.55,-207.881"/>
</g>
<!-- Node17 -->
<g id="node17" class="node"><title>Node17</title>
<g id="a_node17"><a xlink:href="classRa_1_1Core_1_1Geometry_1_1TopologicalMesh.html#a1c87413e2fca885e3317008c3b122847" target="_top" xlink:title="Return the half&#45;edge associated with a given vertex and face. ">
<polygon fill="white" stroke="black" points="944,-147 944,-188 1091,-188 1091,-147 944,-147"/>
<text text-anchor="start" x="952" y="-176" font-family="Helvetica,sans-Serif" font-size="10.00">Ra::Core::Geometry</text>
<text text-anchor="start" x="952" y="-165" font-family="Helvetica,sans-Serif" font-size="10.00">::TopologicalMesh::halfedge</text>
<text text-anchor="middle" x="1017.5" y="-154" font-family="Helvetica,sans-Serif" font-size="10.00">_handle</text>
</a>
</g>
</g>
<!-- Node11&#45;&gt;Node17 -->
<g id="edge16" class="edge"><title>Node11&#45;&gt;Node17</title>
<path fill="none" stroke="midnightblue" d="M889.251,-148.674C903.365,-150.762 918.847,-153.053 934.004,-155.295"/>
<polygon fill="midnightblue" stroke="midnightblue" points="933.495,-158.758 943.9,-156.759 934.52,-151.833 933.495,-158.758"/>
</g>
<!-- Node18 -->
<g id="node18" class="node"><title>Node18</title>
<g id="a_node18"><a xlink:href="classRa_1_1Core_1_1Geometry_1_1TopologicalMesh.html#a5be06e9a973e79d487dad3e570fb5928" target="_top" xlink:title="Apply a 2&#45;4 edge split. ">
<polygon fill="white" stroke="black" points="943,-98.5 943,-128.5 1092,-128.5 1092,-98.5 943,-98.5"/>
<text text-anchor="start" x="951" y="-116.5" font-family="Helvetica,sans-Serif" font-size="10.00">Ra::Core::Geometry</text>
<text text-anchor="middle" x="1017.5" y="-105.5" font-family="Helvetica,sans-Serif" font-size="10.00">::TopologicalMesh::splitEdge</text>
</a>
</g>
</g>
<!-- Node11&#45;&gt;Node18 -->
<g id="edge17" class="edge"><title>Node11&#45;&gt;Node18</title>
<path fill="none" stroke="midnightblue" d="M889.251,-132.326C902.975,-130.295 917.992,-128.074 932.747,-125.891"/>
<polygon fill="midnightblue" stroke="midnightblue" points="933.52,-129.315 942.9,-124.389 932.495,-122.39 933.52,-129.315"/>
</g>
<!-- Node20 -->
<g id="node20" class="node"><title>Node20</title>
<g id="a_node20"><a xlink:href="namespaceRa_1_1Core_1_1Geometry.html#a178f2b7309fe2ea5bc31a3abcb25368e" target="_top" xlink:title="Ra::Core::Geometry\l::triangleArea">
<polygon fill="white" stroke="black" points="962,-49.5 962,-79.5 1073,-79.5 1073,-49.5 962,-49.5"/>
<text text-anchor="start" x="970" y="-67.5" font-family="Helvetica,sans-Serif" font-size="10.00">Ra::Core::Geometry</text>
<text text-anchor="middle" x="1017.5" y="-56.5" font-family="Helvetica,sans-Serif" font-size="10.00">::triangleArea</text>
</a>
</g>
</g>
<!-- Node11&#45;&gt;Node20 -->
<g id="edge19" class="edge"><title>Node11&#45;&gt;Node20</title>
<path fill="none" stroke="midnightblue" d="M856.713,-125.277C874.625,-113.835 900.575,-98.4781 925,-88.5 933.485,-85.0336 942.62,-81.9379 951.717,-79.2161"/>
<polygon fill="midnightblue" stroke="midnightblue" points="952.888,-82.5217 961.542,-76.4094 950.965,-75.791 952.888,-82.5217"/>
</g>
<!-- Node23 -->
<g id="node23" class="node"><title>Node23</title>
<g id="a_node23"><a xlink:href="namespaceRa_1_1Core_1_1Animation.html#a71236244c5603a8a5bc63595db9b7717" target="_top" xlink:title="Computes the similarity between two weights vector. ">
<polygon fill="white" stroke="black" points="961.5,-0.5 961.5,-30.5 1073.5,-30.5 1073.5,-0.5 961.5,-0.5"/>
<text text-anchor="start" x="969.5" y="-18.5" font-family="Helvetica,sans-Serif" font-size="10.00">Ra::Core::Animation</text>
<text text-anchor="middle" x="1017.5" y="-7.5" font-family="Helvetica,sans-Serif" font-size="10.00">::weightSimilarity</text>
</a>
</g>
</g>
<!-- Node11&#45;&gt;Node23 -->
<g id="edge22" class="edge"><title>Node11&#45;&gt;Node23</title>
<path fill="none" stroke="midnightblue" d="M843.46,-125.294C858.131,-103.008 888.513,-61.7189 925,-39.5 933.12,-34.5552 942.247,-30.6195 951.51,-27.4894"/>
<polygon fill="midnightblue" stroke="midnightblue" points="952.65,-30.8006 961.175,-24.5106 950.588,-24.1111 952.65,-30.8006"/>
</g>
<!-- Node13 -->
<g id="node13" class="node"><title>Node13</title>
<g id="a_node13"><a xlink:href="classRa_1_1Core_1_1Geometry_1_1TriangleMesh.html#a824b54329930c6a95050c3f6d624d0e7" target="_top" xlink:title="Erases all data, making the mesh empty. ">
<polygon fill="white" stroke="black" points="1168.5,-279.5 1168.5,-309.5 1281.5,-309.5 1281.5,-279.5 1168.5,-279.5"/>
<text text-anchor="start" x="1176.5" y="-297.5" font-family="Helvetica,sans-Serif" font-size="10.00">Ra::Core::Geometry</text>
<text text-anchor="middle" x="1225" y="-286.5" font-family="Helvetica,sans-Serif" font-size="10.00">::TriangleMesh::clear</text>
</a>
</g>
</g>
<!-- Node12&#45;&gt;Node13 -->
<g id="edge12" class="edge"><title>Node12&#45;&gt;Node13</title>
<path fill="none" stroke="midnightblue" d="M1110.13,-281.201C1126.22,-283.08 1142.68,-285.002 1157.9,-286.78"/>
<polygon fill="midnightblue" stroke="midnightblue" points="1157.88,-290.302 1168.22,-287.985 1158.69,-283.349 1157.88,-290.302"/>
</g>
<!-- Node15 -->
<g id="node15" class="node"><title>Node15</title>
<g id="a_node15"><a xlink:href="classRa_1_1Core_1_1Utils_1_1AttribManager.html#ac6bb36601ef78ccc0997134b5a2df7f0" target="_top" xlink:title="Base copy, does nothing. ">
<polygon fill="white" stroke="black" points="1146,-230.5 1146,-260.5 1304,-260.5 1304,-230.5 1146,-230.5"/>
<text text-anchor="start" x="1154" y="-248.5" font-family="Helvetica,sans-Serif" font-size="10.00">Ra::Core::Utils::AttribManager</text>
<text text-anchor="middle" x="1225" y="-237.5" font-family="Helvetica,sans-Serif" font-size="10.00">::copyAttributes</text>
</a>
</g>
</g>
<!-- Node12&#45;&gt;Node15 -->
<g id="edge14" class="edge"><title>Node12&#45;&gt;Node15</title>
<path fill="none" stroke="midnightblue" d="M1110.13,-259.353C1118.58,-258.325 1127.13,-257.285 1135.54,-256.261"/>
<polygon fill="midnightblue" stroke="midnightblue" points="1136.23,-259.704 1145.73,-255.022 1135.38,-252.755 1136.23,-259.704"/>
</g>
<!-- Node14 -->
<g id="node14" class="node"><title>Node14</title>
<g id="a_node14"><a xlink:href="classRa_1_1Core_1_1Utils_1_1AttribManager.html#ae99bb77d3d29e9d99b4bcc257919ecda" target="_top" xlink:title="clear all attribs, invalidate handles. ">
<polygon fill="white" stroke="black" points="1340,-279.5 1340,-309.5 1498,-309.5 1498,-279.5 1340,-279.5"/>
<text text-anchor="start" x="1348" y="-297.5" font-family="Helvetica,sans-Serif" font-size="10.00">Ra::Core::Utils::AttribManager</text>
<text text-anchor="middle" x="1419" y="-286.5" font-family="Helvetica,sans-Serif" font-size="10.00">::clear</text>
</a>
</g>
</g>
<!-- Node13&#45;&gt;Node14 -->
<g id="edge13" class="edge"><title>Node13&#45;&gt;Node14</title>
<path fill="none" stroke="midnightblue" d="M1281.53,-294.5C1296.58,-294.5 1313.24,-294.5 1329.61,-294.5"/>
<polygon fill="midnightblue" stroke="midnightblue" points="1329.74,-298 1339.74,-294.5 1329.74,-291 1329.74,-298"/>
</g>
<!-- Node19 -->
<g id="node19" class="node"><title>Node19</title>
<g id="a_node19"><a xlink:href="namespaceRa_1_1Engine_1_1DrawPrimitives.html#a9d33f8734278ef9ca7d7725caeec2e36" target="_top" xlink:title="Displays given point shown as the crossing of 3 lines of length &#39;scale&#39;. ">
<polygon fill="white" stroke="black" points="1153.5,-98.5 1153.5,-128.5 1296.5,-128.5 1296.5,-98.5 1153.5,-98.5"/>
<text text-anchor="start" x="1161.5" y="-116.5" font-family="Helvetica,sans-Serif" font-size="10.00">Ra::Engine::DrawPrimitives</text>
<text text-anchor="middle" x="1225" y="-105.5" font-family="Helvetica,sans-Serif" font-size="10.00">::Point</text>
</a>
</g>
</g>
<!-- Node18&#45;&gt;Node19 -->
<g id="edge18" class="edge"><title>Node18&#45;&gt;Node19</title>
<path fill="none" stroke="midnightblue" d="M1092.11,-113.5C1108.61,-113.5 1126.2,-113.5 1142.98,-113.5"/>
<polygon fill="midnightblue" stroke="midnightblue" points="1143.31,-117 1153.31,-113.5 1143.31,-110 1143.31,-117"/>
</g>
<!-- Node21 -->
<g id="node21" class="node"><title>Node21</title>
<g id="a_node21"><a xlink:href="namespaceOpenMesh.html#a71e7f1dd3eac016d2b8245ac408a291c" target="_top" xlink:title="OpenMesh::cross">
<polygon fill="white" stroke="black" points="1175.5,-57 1175.5,-76 1274.5,-76 1274.5,-57 1175.5,-57"/>
<text text-anchor="middle" x="1225" y="-64" font-family="Helvetica,sans-Serif" font-size="10.00">OpenMesh::cross</text>
</a>
</g>
</g>
<!-- Node20&#45;&gt;Node21 -->
<g id="edge20" class="edge"><title>Node20&#45;&gt;Node21</title>
<path fill="none" stroke="midnightblue" d="M1073.03,-65.0307C1101.31,-65.3059 1135.88,-65.6424 1164.81,-65.9239"/>
<polygon fill="midnightblue" stroke="midnightblue" points="1165.15,-69.4273 1175.19,-66.0249 1165.22,-62.4277 1165.15,-69.4273"/>
</g>
<!-- Node22 -->
<g id="node22" class="node"><title>Node22</title>
<g id="a_node22"><a xlink:href="namespaceOpenMesh.html#a8205f789ce08919bc11c58383574596c" target="_top" xlink:title="OpenMesh::norm">
<polygon fill="white" stroke="black" points="1175.5,-19 1175.5,-38 1274.5,-38 1274.5,-19 1175.5,-19"/>
<text text-anchor="middle" x="1225" y="-26" font-family="Helvetica,sans-Serif" font-size="10.00">OpenMesh::norm</text>
</a>
</g>
</g>
<!-- Node20&#45;&gt;Node22 -->
<g id="edge21" class="edge"><title>Node20&#45;&gt;Node22</title>
<path fill="none" stroke="midnightblue" d="M1073.03,-54.9472C1101.43,-49.972 1136.19,-43.8834 1165.19,-38.8028"/>
<polygon fill="midnightblue" stroke="midnightblue" points="1165.94,-42.2244 1175.19,-37.0513 1164.73,-35.3294 1165.94,-42.2244"/>
</g>
</g>
</svg>
