<?xml version="1.0" encoding="UTF-8" standalone="no"?>
<!DOCTYPE svg PUBLIC "-//W3C//DTD SVG 1.1//EN"
 "http://www.w3.org/Graphics/SVG/1.1/DTD/svg11.dtd">
<!-- Generated by graphviz version 2.38.0 (20140413.2041)
 -->
<!-- Title: AnimationPlugin::AnimationPluginC::step Pages: 1 -->
<svg width="527pt" height="88pt"
 viewBox="0.00 0.00 527.00 88.00" xmlns="http://www.w3.org/2000/svg" xmlns:xlink="http://www.w3.org/1999/xlink">
<g id="graph0" class="graph" transform="scale(1 1) rotate(0) translate(4 84)">
<title>AnimationPlugin::AnimationPluginC::step</title>
<polygon fill="white" stroke="none" points="-4,4 -4,-84 523,-84 523,4 -4,4"/>
<!-- Node1 -->
<g id="node1" class="node"><title>Node1</title>
<polygon fill="#bfbfbf" stroke="black" points="0,-24.5 0,-54.5 149,-54.5 149,-24.5 0,-24.5"/>
<text text-anchor="start" x="8" y="-42.5" font-family="Helvetica,sans-Serif" font-size="10.00">AnimationPlugin::Animation</text>
<text text-anchor="middle" x="74.5" y="-31.5" font-family="Helvetica,sans-Serif" font-size="10.00">PluginC::step</text>
</g>
<!-- Node2 -->
<g id="node2" class="node"><title>Node2</title>
<g id="a_node2"><a xlink:href="classAnimationPlugin_1_1AnimationPluginC.html#a2557c2abe774ff96f778edbb44a6362b" target="_top" xlink:title="Slot for the user asking to pause the animation. ">
<polygon fill="white" stroke="black" points="185,-49.5 185,-79.5 334,-79.5 334,-49.5 185,-49.5"/>
<text text-anchor="start" x="193" y="-67.5" font-family="Helvetica,sans-Serif" font-size="10.00">AnimationPlugin::Animation</text>
<text text-anchor="middle" x="259.5" y="-56.5" font-family="Helvetica,sans-Serif" font-size="10.00">PluginC::pause</text>
</a>
</g>
</g>
<!-- Node1&#45;&gt;Node2 -->
<g id="edge1" class="edge"><title>Node1&#45;&gt;Node2</title>
<path fill="none" stroke="midnightblue" d="M149.142,-49.5604C157.565,-50.7111 166.199,-51.8906 174.742,-53.0576"/>
<polygon fill="midnightblue" stroke="midnightblue" points="174.329,-56.5337 184.711,-54.4195 175.277,-49.5981 174.329,-56.5337"/>
</g>
<!-- Node4 -->
<g id="node4" class="node"><title>Node4</title>
<g id="a_node4"><a xlink:href="classAnimationPlugin_1_1AnimationSystem.html#a47edb32277314755d72534c3c1b25f77" target="_top" xlink:title="Advance the animation next frame, then pauses. ">
<polygon fill="white" stroke="black" points="185,-0.5 185,-30.5 334,-30.5 334,-0.5 185,-0.5"/>
<text text-anchor="start" x="193" y="-18.5" font-family="Helvetica,sans-Serif" font-size="10.00">AnimationPlugin::Animation</text>
<text text-anchor="middle" x="259.5" y="-7.5" font-family="Helvetica,sans-Serif" font-size="10.00">System::step</text>
</a>
</g>
</g>
<!-- Node1&#45;&gt;Node4 -->
<g id="edge3" class="edge"><title>Node1&#45;&gt;Node4</title>
<path fill="none" stroke="midnightblue" d="M149.142,-29.842C157.565,-28.7373 166.199,-27.6051 174.742,-26.4847"/>
<polygon fill="midnightblue" stroke="midnightblue" points="175.251,-29.948 184.711,-25.1773 174.34,-23.0074 175.251,-29.948"/>
</g>
<!-- Node3 -->
<g id="node3" class="node"><title>Node3</title>
<g id="a_node3"><a xlink:href="classAnimationPlugin_1_1AnimationSystem.html#a5212467a5429133988c38e8390459e2b" target="_top" xlink:title="Toggle on/off playing of animations. ">
<polygon fill="white" stroke="black" points="370,-49.5 370,-79.5 519,-79.5 519,-49.5 370,-49.5"/>
<text text-anchor="start" x="378" y="-67.5" font-family="Helvetica,sans-Serif" font-size="10.00">AnimationPlugin::Animation</text>
<text text-anchor="middle" x="444.5" y="-56.5" font-family="Helvetica,sans-Serif" font-size="10.00">System::play</text>
</a>
</g>
</g>
<!-- Node2&#45;&gt;Node3 -->
<g id="edge2" class="edge"><title>Node2&#45;&gt;Node3</title>
<path fill="none" stroke="midnightblue" d="M334.142,-64.5C342.474,-64.5 351.011,-64.5 359.463,-64.5"/>
<polygon fill="midnightblue" stroke="midnightblue" points="359.711,-68.0001 369.711,-64.5 359.711,-61.0001 359.711,-68.0001"/>
</g>
</g>
</svg>
