<?xml version="1.0" encoding="UTF-8" standalone="no"?>
<!DOCTYPE svg PUBLIC "-//W3C//DTD SVG 1.1//EN"
 "http://www.w3.org/Graphics/SVG/1.1/DTD/svg11.dtd">
<!-- Generated by graphviz version 2.38.0 (20140413.2041)
 -->
<!-- Title: Ra::Core::Animation::KeyFrame&lt; FRAME &gt; Pages: 1 -->
<svg width="470pt" height="865pt"
 viewBox="0.00 0.00 470.00 865.00" xmlns="http://www.w3.org/2000/svg" xmlns:xlink="http://www.w3.org/1999/xlink">
<g id="graph0" class="graph" transform="scale(1 1) rotate(0) translate(4 861)">
<title>Ra::Core::Animation::KeyFrame&lt; FRAME &gt;</title>
<polygon fill="white" stroke="none" points="-4,4 -4,-861 466,-861 466,4 -4,4"/>
<!-- Node1 -->
<g id="node1" class="node"><title>Node1</title>
<polygon fill="#bfbfbf" stroke="black" points="91.5,-0.5 91.5,-299.5 214.5,-299.5 214.5,-0.5 91.5,-0.5"/>
<text text-anchor="start" x="99.5" y="-287.5" font-family="Helvetica,sans-Serif" font-size="10.00">Ra::Core::Animation</text>
<text text-anchor="middle" x="153" y="-276.5" font-family="Helvetica,sans-Serif" font-size="10.00">::KeyFrame&lt; FRAME &gt;</text>
<polyline fill="none" stroke="black" points="91.5,-269.5 214.5,-269.5 "/>
<text text-anchor="middle" x="153" y="-257.5" font-family="Helvetica,sans-Serif" font-size="10.00"> </text>
<polyline fill="none" stroke="black" points="91.5,-250.5 214.5,-250.5 "/>
<text text-anchor="start" x="99.5" y="-238.5" font-family="Helvetica,sans-Serif" font-size="10.00">+ KeyFrame()</text>
<text text-anchor="start" x="99.5" y="-227.5" font-family="Helvetica,sans-Serif" font-size="10.00">+ KeyFrame()</text>
<text text-anchor="start" x="99.5" y="-216.5" font-family="Helvetica,sans-Serif" font-size="10.00">+ ~KeyFrame()</text>
<text text-anchor="start" x="99.5" y="-205.5" font-family="Helvetica,sans-Serif" font-size="10.00">+ getAnimationTime()</text>
<text text-anchor="start" x="99.5" y="-194.5" font-family="Helvetica,sans-Serif" font-size="10.00">+ setAnimationTime()</text>
<text text-anchor="start" x="99.5" y="-183.5" font-family="Helvetica,sans-Serif" font-size="10.00">+ getKeyFrame()</text>
<text text-anchor="start" x="99.5" y="-172.5" font-family="Helvetica,sans-Serif" font-size="10.00">+ getKeyFrame()</text>
<text text-anchor="start" x="99.5" y="-161.5" font-family="Helvetica,sans-Serif" font-size="10.00">+ at()</text>
<text text-anchor="start" x="99.5" y="-150.5" font-family="Helvetica,sans-Serif" font-size="10.00">+ setKeyFrame()</text>
<text text-anchor="start" x="99.5" y="-139.5" font-family="Helvetica,sans-Serif" font-size="10.00">+ setKeyFrame()</text>
<text text-anchor="start" x="99.5" y="-128.5" font-family="Helvetica,sans-Serif" font-size="10.00">+ insertKeyFrame()</text>
<text text-anchor="start" x="99.5" y="-117.5" font-family="Helvetica,sans-Serif" font-size="10.00">+ size()</text>
<text text-anchor="start" x="99.5" y="-106.5" font-family="Helvetica,sans-Serif" font-size="10.00">+ clear()</text>
<text text-anchor="start" x="99.5" y="-95.5" font-family="Helvetica,sans-Serif" font-size="10.00">+ empty()</text>
<text text-anchor="start" x="99.5" y="-84.5" font-family="Helvetica,sans-Serif" font-size="10.00">+ timeSchedule()</text>
<text text-anchor="start" x="99.5" y="-73.5" font-family="Helvetica,sans-Serif" font-size="10.00">+ reset()</text>
<text text-anchor="start" x="99.5" y="-62.5" font-family="Helvetica,sans-Serif" font-size="10.00">+ operator=()</text>
<text text-anchor="start" x="99.5" y="-51.5" font-family="Helvetica,sans-Serif" font-size="10.00">+ operator==()</text>
<text text-anchor="start" x="99.5" y="-40.5" font-family="Helvetica,sans-Serif" font-size="10.00">+ operator!=()</text>
<text text-anchor="start" x="99.5" y="-29.5" font-family="Helvetica,sans-Serif" font-size="10.00"># defaultFrame()</text>
<text text-anchor="start" x="99.5" y="-18.5" font-family="Helvetica,sans-Serif" font-size="10.00"># findRange()</text>
<text text-anchor="start" x="99.5" y="-7.5" font-family="Helvetica,sans-Serif" font-size="10.00"># interpolate()</text>
</g>
<!-- Node2 -->
<g id="node2" class="node"><title>Node2</title>
<g id="a_node2"><a xlink:href="classRa_1_1Core_1_1Animation_1_1AnimationTime.html" target="_top" xlink:title="{Ra::Core::Animation\l::AnimationTime\n||+ AnimationTime()\l+ AnimationTime()\l+ ~AnimationTime()\l+ getStart()\l+ setStart()\l+ getEnd()\l+ setEnd()\l+ duration()\l+ merge()\l+ contain()\l+ intersect()\l+ isValid()\l+ operator==()\l+ operator!=()\l+ operator\&lt;()\l+ operator==()\l+ operator\&lt;()\l+ operator\&gt;()\l}">
<polygon fill="white" stroke="black" points="0,-347.5 0,-602.5 116,-602.5 116,-347.5 0,-347.5"/>
<text text-anchor="start" x="8" y="-590.5" font-family="Helvetica,sans-Serif" font-size="10.00">Ra::Core::Animation</text>
<text text-anchor="middle" x="58" y="-579.5" font-family="Helvetica,sans-Serif" font-size="10.00">::AnimationTime</text>
<polyline fill="none" stroke="black" points="0,-572.5 116,-572.5 "/>
<text text-anchor="middle" x="58" y="-560.5" font-family="Helvetica,sans-Serif" font-size="10.00"> </text>
<polyline fill="none" stroke="black" points="0,-553.5 116,-553.5 "/>
<text text-anchor="start" x="8" y="-541.5" font-family="Helvetica,sans-Serif" font-size="10.00">+ AnimationTime()</text>
<text text-anchor="start" x="8" y="-530.5" font-family="Helvetica,sans-Serif" font-size="10.00">+ AnimationTime()</text>
<text text-anchor="start" x="8" y="-519.5" font-family="Helvetica,sans-Serif" font-size="10.00">+ ~AnimationTime()</text>
<text text-anchor="start" x="8" y="-508.5" font-family="Helvetica,sans-Serif" font-size="10.00">+ getStart()</text>
<text text-anchor="start" x="8" y="-497.5" font-family="Helvetica,sans-Serif" font-size="10.00">+ setStart()</text>
<text text-anchor="start" x="8" y="-486.5" font-family="Helvetica,sans-Serif" font-size="10.00">+ getEnd()</text>
<text text-anchor="start" x="8" y="-475.5" font-family="Helvetica,sans-Serif" font-size="10.00">+ setEnd()</text>
<text text-anchor="start" x="8" y="-464.5" font-family="Helvetica,sans-Serif" font-size="10.00">+ duration()</text>
<text text-anchor="start" x="8" y="-453.5" font-family="Helvetica,sans-Serif" font-size="10.00">+ merge()</text>
<text text-anchor="start" x="8" y="-442.5" font-family="Helvetica,sans-Serif" font-size="10.00">+ contain()</text>
<text text-anchor="start" x="8" y="-431.5" font-family="Helvetica,sans-Serif" font-size="10.00">+ intersect()</text>
<text text-anchor="start" x="8" y="-420.5" font-family="Helvetica,sans-Serif" font-size="10.00">+ isValid()</text>
<text text-anchor="start" x="8" y="-409.5" font-family="Helvetica,sans-Serif" font-size="10.00">+ operator==()</text>
<text text-anchor="start" x="8" y="-398.5" font-family="Helvetica,sans-Serif" font-size="10.00">+ operator!=()</text>
<text text-anchor="start" x="8" y="-387.5" font-family="Helvetica,sans-Serif" font-size="10.00">+ operator&lt;()</text>
<text text-anchor="start" x="8" y="-376.5" font-family="Helvetica,sans-Serif" font-size="10.00">+ operator==()</text>
<text text-anchor="start" x="8" y="-365.5" font-family="Helvetica,sans-Serif" font-size="10.00">+ operator&lt;()</text>
<text text-anchor="start" x="8" y="-354.5" font-family="Helvetica,sans-Serif" font-size="10.00">+ operator&gt;()</text>
</a>
</g>
</g>
<!-- Node2&#45;&gt;Node1 -->
<g id="edge1" class="edge"><title>Node2&#45;&gt;Node1</title>
<path fill="none" stroke="#404040" d="M95.2739,-347.269C98.7601,-335.416 102.323,-323.3 105.884,-311.194"/>
<polygon fill="none" stroke="#404040" points="105.908,-311.112 103.764,-304.227 109.294,-299.6 111.439,-306.485 105.908,-311.112"/>
<text text-anchor="middle" x="127.5" y="-321" font-family="Helvetica,sans-Serif" font-size="10.00"> #m_time</text>
</g>
<!-- Node3 -->
<g id="node3" class="node"><title>Node3</title>
<polygon fill="white" stroke="#bfbfbf" points="39,-694.5 39,-751.5 77,-751.5 77,-694.5 39,-694.5"/>
<text text-anchor="middle" x="58" y="-739.5" font-family="Helvetica,sans-Serif" font-size="10.00">float</text>
<polyline fill="none" stroke="#bfbfbf" points="39,-732.5 77,-732.5 "/>
<text text-anchor="middle" x="58" y="-720.5" font-family="Helvetica,sans-Serif" font-size="10.00"> </text>
<polyline fill="none" stroke="#bfbfbf" points="39,-713.5 77,-713.5 "/>
<text text-anchor="middle" x="58" y="-701.5" font-family="Helvetica,sans-Serif" font-size="10.00"> </text>
</g>
<!-- Node3&#45;&gt;Node2 -->
<g id="edge2" class="edge"><title>Node3&#45;&gt;Node2</title>
<path fill="none" stroke="#404040" d="M58,-694.259C58,-674.07 58,-645.058 58,-614.749"/>
<polygon fill="none" stroke="#404040" points="58.0001,-614.628 54,-608.628 58,-602.628 62,-608.628 58.0001,-614.628"/>
<text text-anchor="middle" x="81" y="-651.5" font-family="Helvetica,sans-Serif" font-size="10.00"> #m_end</text>
<text text-anchor="middle" x="81" y="-640.5" font-family="Helvetica,sans-Serif" font-size="10.00">#m_start</text>
</g>
<!-- Node4 -->
<g id="node4" class="node"><title>Node4</title>
<polygon fill="white" stroke="#bfbfbf" points="134.5,-424.5 134.5,-525.5 315.5,-525.5 315.5,-424.5 134.5,-424.5"/>
<text text-anchor="start" x="142.5" y="-513.5" font-family="Helvetica,sans-Serif" font-size="10.00">std::map&lt; Time, FRAME,</text>
<text text-anchor="start" x="142.5" y="-502.5" font-family="Helvetica,sans-Serif" font-size="10.00"> std::less&lt; Time &gt;, Ra</text>
<text text-anchor="start" x="142.5" y="-491.5" font-family="Helvetica,sans-Serif" font-size="10.00">::Core::Ra::Core::AlignedAllocator</text>
<text text-anchor="start" x="142.5" y="-480.5" font-family="Helvetica,sans-Serif" font-size="10.00">&lt; std::pair&lt; const Time, FRAME</text>
<text text-anchor="middle" x="225" y="-469.5" font-family="Helvetica,sans-Serif" font-size="10.00"> &gt;, EIGEN_MAX_ALIGN_BYTES &gt; &gt;</text>
<polyline fill="none" stroke="#bfbfbf" points="134.5,-462.5 315.5,-462.5 "/>
<text text-anchor="middle" x="225" y="-450.5" font-family="Helvetica,sans-Serif" font-size="10.00"> </text>
<polyline fill="none" stroke="#bfbfbf" points="134.5,-443.5 315.5,-443.5 "/>
<text text-anchor="middle" x="225" y="-431.5" font-family="Helvetica,sans-Serif" font-size="10.00"> </text>
</g>
<!-- Node4&#45;&gt;Node1 -->
<g id="edge3" class="edge"><title>Node4&#45;&gt;Node1</title>
<path fill="none" stroke="#404040" d="M213.908,-424.239C207.09,-393.652 197.934,-352.577 188.795,-311.581"/>
<polygon fill="none" stroke="#404040" points="188.767,-311.454 183.557,-306.468 186.156,-299.742 191.366,-304.728 188.767,-311.454"/>
<text text-anchor="middle" x="228" y="-321" font-family="Helvetica,sans-Serif" font-size="10.00"> #m_keyframe</text>
</g>
<!-- Node5 -->
<g id="node5" class="node"><title>Node5</title>
<polygon fill="white" stroke="#bfbfbf" points="121,-694.5 121,-751.5 169,-751.5 169,-694.5 121,-694.5"/>
<text text-anchor="middle" x="145" y="-739.5" font-family="Helvetica,sans-Serif" font-size="10.00">FRAME</text>
<polyline fill="none" stroke="#bfbfbf" points="121,-732.5 169,-732.5 "/>
<text text-anchor="middle" x="145" y="-720.5" font-family="Helvetica,sans-Serif" font-size="10.00"> </text>
<polyline fill="none" stroke="#bfbfbf" points="121,-713.5 169,-713.5 "/>
<text text-anchor="middle" x="145" y="-701.5" font-family="Helvetica,sans-Serif" font-size="10.00"> </text>
</g>
<!-- Node5&#45;&gt;Node4 -->
<g id="edge4" class="edge"><title>Node5&#45;&gt;Node4</title>
<path fill="none" stroke="#404040" d="M148.608,-694.186C151.657,-673.685 156.705,-645.263 164,-621 172.529,-592.636 184.779,-562.281 196.067,-536.713"/>
<polygon fill="none" stroke="#404040" points="196.095,-536.65 194.896,-529.539 200.999,-525.698 202.198,-532.809 196.095,-536.65"/>
<text text-anchor="middle" x="192.5" y="-646" font-family="Helvetica,sans-Serif" font-size="10.00"> +elements</text>
</g>
<!-- Node6 -->
<g id="node6" class="node"><title>Node6</title>
<polygon fill="white" stroke="#bfbfbf" points="205,-694.5 205,-751.5 245,-751.5 245,-694.5 205,-694.5"/>
<text text-anchor="middle" x="225" y="-739.5" font-family="Helvetica,sans-Serif" font-size="10.00">Time</text>
<polyline fill="none" stroke="#bfbfbf" points="205,-732.5 245,-732.5 "/>
<text text-anchor="middle" x="225" y="-720.5" font-family="Helvetica,sans-Serif" font-size="10.00"> </text>
<polyline fill="none" stroke="#bfbfbf" points="205,-713.5 245,-713.5 "/>
<text text-anchor="middle" x="225" y="-701.5" font-family="Helvetica,sans-Serif" font-size="10.00"> </text>
</g>
<!-- Node6&#45;&gt;Node4 -->
<g id="edge5" class="edge"><title>Node6&#45;&gt;Node4</title>
<path fill="none" stroke="#404040" d="M225,-694.259C225,-656.532 225,-587.997 225,-537.76"/>
<polygon fill="none" stroke="#404040" points="225,-537.734 221,-531.734 225,-525.734 229,-531.734 225,-537.734"/>
<text text-anchor="middle" x="242" y="-646" font-family="Helvetica,sans-Serif" font-size="10.00"> +keys</text>
</g>
<!-- Node7 -->
<g id="node7" class="node"><title>Node7</title>
<g id="a_node7"><a xlink:title="STL class. ">
<polygon fill="white" stroke="#bfbfbf" points="263.5,-694.5 263.5,-751.5 362.5,-751.5 362.5,-694.5 263.5,-694.5"/>
<text text-anchor="middle" x="313" y="-739.5" font-family="Helvetica,sans-Serif" font-size="10.00">std::map&lt; K, T &gt;</text>
<polyline fill="none" stroke="#bfbfbf" points="263.5,-732.5 362.5,-732.5 "/>
<text text-anchor="middle" x="313" y="-720.5" font-family="Helvetica,sans-Serif" font-size="10.00"> </text>
<polyline fill="none" stroke="#bfbfbf" points="263.5,-713.5 362.5,-713.5 "/>
<text text-anchor="middle" x="313" y="-701.5" font-family="Helvetica,sans-Serif" font-size="10.00"> </text>
</a>
</g>
</g>
<!-- Node7&#45;&gt;Node4 -->
<g id="edge6" class="edge"><title>Node7&#45;&gt;Node4</title>
<path fill="none" stroke="orange" d="M299.619,-684.595C284.434,-642.145 259.599,-572.719 242.791,-525.734"/>
<polygon fill="orange" stroke="orange" points="296.413,-686.022 303.076,-694.259 303.004,-683.664 296.413,-686.022"/>
<text text-anchor="start" x="297" y="-668" font-family="Helvetica,sans-Serif" font-size="10.00"> &lt; Time, FRAME, std</text>
<text text-anchor="start" x="297" y="-657" font-family="Helvetica,sans-Serif" font-size="10.00">::less&lt; Time &gt;, Ra::</text>
<text text-anchor="start" x="297" y="-646" font-family="Helvetica,sans-Serif" font-size="10.00">Core::Ra::Core::AlignedAllocator</text>
<text text-anchor="start" x="297" y="-635" font-family="Helvetica,sans-Serif" font-size="10.00">&lt; std::pair&lt; const Time, FRAME</text>
<text text-anchor="middle" x="379.5" y="-624" font-family="Helvetica,sans-Serif" font-size="10.00"> &gt;, EIGEN_MAX_ALIGN_BYTES &gt; &gt;</text>
</g>
<!-- Node8 -->
<g id="node8" class="node"><title>Node8</title>
<polygon fill="white" stroke="#bfbfbf" points="269.5,-799.5 269.5,-856.5 298.5,-856.5 298.5,-799.5 269.5,-799.5"/>
<text text-anchor="middle" x="284" y="-844.5" font-family="Helvetica,sans-Serif" font-size="10.00">K</text>
<polyline fill="none" stroke="#bfbfbf" points="269.5,-837.5 298.5,-837.5 "/>
<text text-anchor="middle" x="284" y="-825.5" font-family="Helvetica,sans-Serif" font-size="10.00"> </text>
<polyline fill="none" stroke="#bfbfbf" points="269.5,-818.5 298.5,-818.5 "/>
<text text-anchor="middle" x="284" y="-806.5" font-family="Helvetica,sans-Serif" font-size="10.00"> </text>
</g>
<!-- Node8&#45;&gt;Node7 -->
<g id="edge7" class="edge"><title>Node8&#45;&gt;Node7</title>
<path fill="none" stroke="#404040" d="M284.244,-799.343C284.898,-789.888 286.27,-779.345 289,-770 289.663,-767.73 290.442,-765.442 291.307,-763.164"/>
<polygon fill="none" stroke="#404040" points="291.391,-762.971 290.132,-755.871 296.202,-751.978 297.461,-759.078 291.391,-762.971"/>
<text text-anchor="middle" x="306" y="-773" font-family="Helvetica,sans-Serif" font-size="10.00"> +keys</text>
</g>
<!-- Node9 -->
<g id="node9" class="node"><title>Node9</title>
<polygon fill="white" stroke="#bfbfbf" points="326.5,-799.5 326.5,-856.5 355.5,-856.5 355.5,-799.5 326.5,-799.5"/>
<text text-anchor="middle" x="341" y="-844.5" font-family="Helvetica,sans-Serif" font-size="10.00">T</text>
<polyline fill="none" stroke="#bfbfbf" points="326.5,-837.5 355.5,-837.5 "/>
<text text-anchor="middle" x="341" y="-825.5" font-family="Helvetica,sans-Serif" font-size="10.00"> </text>
<polyline fill="none" stroke="#bfbfbf" points="326.5,-818.5 355.5,-818.5 "/>
<text text-anchor="middle" x="341" y="-806.5" font-family="Helvetica,sans-Serif" font-size="10.00"> </text>
</g>
<!-- Node9&#45;&gt;Node7 -->
<g id="edge8" class="edge"><title>Node9&#45;&gt;Node7</title>
<path fill="none" stroke="#404040" d="M333.497,-799.398C330.483,-788.314 326.955,-775.333 323.682,-763.296"/>
<polygon fill="none" stroke="#404040" points="323.672,-763.258 318.238,-758.518 320.524,-751.678 325.958,-756.419 323.672,-763.258"/>
<text text-anchor="middle" x="356.5" y="-773" font-family="Helvetica,sans-Serif" font-size="10.00"> +elements</text>
</g>
</g>
</svg>
