<?xml version="1.0" encoding="UTF-8" standalone="no"?>
<!DOCTYPE svg PUBLIC "-//W3C//DTD SVG 1.1//EN"
 "http://www.w3.org/Graphics/SVG/1.1/DTD/svg11.dtd">
<!-- Generated by graphviz version 2.38.0 (20140413.2041)
 -->
<!-- Title: Ra::Engine::RenderParameters::TextureParameter::bind Pages: 1 -->
<svg width="354pt" height="39pt"
 viewBox="0.00 0.00 354.00 39.00" xmlns="http://www.w3.org/2000/svg" xmlns:xlink="http://www.w3.org/1999/xlink">
<g id="graph0" class="graph" transform="scale(1 1) rotate(0) translate(4 35)">
<title>Ra::Engine::RenderParameters::TextureParameter::bind</title>
<polygon fill="white" stroke="none" points="-4,4 -4,-35 350,-35 350,4 -4,4"/>
<!-- Node1 -->
<g id="node1" class="node"><title>Node1</title>
<polygon fill="#bfbfbf" stroke="black" points="0,-0.5 0,-30.5 161,-30.5 161,-0.5 0,-0.5"/>
<text text-anchor="start" x="8" y="-18.5" font-family="Helvetica,sans-Serif" font-size="10.00">Ra::Engine::RenderParameters</text>
<text text-anchor="middle" x="80.5" y="-7.5" font-family="Helvetica,sans-Serif" font-size="10.00">::TextureParameter::bind</text>
</g>
<!-- Node2 -->
<g id="node2" class="node"><title>Node2</title>
<g id="a_node2"><a xlink:href="classRa_1_1Engine_1_1ShaderProgram.html#a5f7ae2880276f421c378810e3da65c4c" target="_top" xlink:title="Ra::Engine::ShaderProgram\l::setUniform">
<polygon fill="white" stroke="black" points="197,-0.5 197,-30.5 346,-30.5 346,-0.5 197,-0.5"/>
<text text-anchor="start" x="205" y="-18.5" font-family="Helvetica,sans-Serif" font-size="10.00">Ra::Engine::ShaderProgram</text>
<text text-anchor="middle" x="271.5" y="-7.5" font-family="Helvetica,sans-Serif" font-size="10.00">::setUniform</text>
</a>
</g>
</g>
<!-- Node1&#45;&gt;Node2 -->
<g id="edge1" class="edge"><title>Node1&#45;&gt;Node2</title>
<path fill="none" stroke="midnightblue" d="M161.105,-15.5C169.497,-15.5 178.049,-15.5 186.488,-15.5"/>
<polygon fill="midnightblue" stroke="midnightblue" points="186.708,-19.0001 196.708,-15.5 186.708,-12.0001 186.708,-19.0001"/>
</g>
</g>
</svg>
