<?xml version="1.0" encoding="UTF-8" standalone="no"?>
<!DOCTYPE svg PUBLIC "-//W3C//DTD SVG 1.1//EN"
 "http://www.w3.org/Graphics/SVG/1.1/DTD/svg11.dtd">
<!-- Generated by graphviz version 2.38.0 (20140413.2041)
 -->
<!-- Title: Ra::Gui::Viewer::processPicking Pages: 1 -->
<svg width="306pt" height="137pt"
 viewBox="0.00 0.00 306.00 137.00" xmlns="http://www.w3.org/2000/svg" xmlns:xlink="http://www.w3.org/1999/xlink">
<g id="graph0" class="graph" transform="scale(1 1) rotate(0) translate(4 133)">
<title>Ra::Gui::Viewer::processPicking</title>
<polygon fill="white" stroke="none" points="-4,4 -4,-133 302,-133 302,4 -4,4"/>
<!-- Node1 -->
<g id="node1" class="node"><title>Node1</title>
<polygon fill="#bfbfbf" stroke="black" points="0,-49.5 0,-79.5 131,-79.5 131,-49.5 0,-49.5"/>
<text text-anchor="start" x="8" y="-67.5" font-family="Helvetica,sans-Serif" font-size="10.00">Ra::Gui::Viewer::process</text>
<text text-anchor="middle" x="65.5" y="-56.5" font-family="Helvetica,sans-Serif" font-size="10.00">Picking</text>
</g>
<!-- Node2 -->
<g id="node2" class="node"><title>Node2</title>
<g id="a_node2"><a xlink:href="classRa_1_1Engine_1_1Renderer.html#a08c269858a2f3603f7417ba6ed649bde" target="_top" xlink:title="Get the vector of picking queries. ">
<polygon fill="white" stroke="black" points="174.5,-98.5 174.5,-128.5 290.5,-128.5 290.5,-98.5 174.5,-98.5"/>
<text text-anchor="start" x="182.5" y="-116.5" font-family="Helvetica,sans-Serif" font-size="10.00">Ra::Engine::Renderer</text>
<text text-anchor="middle" x="232.5" y="-105.5" font-family="Helvetica,sans-Serif" font-size="10.00">::getPickingQueries</text>
</a>
</g>
</g>
<!-- Node1&#45;&gt;Node2 -->
<g id="edge1" class="edge"><title>Node1&#45;&gt;Node2</title>
<path fill="none" stroke="midnightblue" d="M117.352,-79.6014C134.369,-84.6551 153.504,-90.3376 171.173,-95.5848"/>
<polygon fill="midnightblue" stroke="midnightblue" points="170.233,-98.9567 180.816,-98.4484 172.226,-92.2464 170.233,-98.9567"/>
</g>
<!-- Node3 -->
<g id="node3" class="node"><title>Node3</title>
<g id="a_node3"><a xlink:href="classRa_1_1Engine_1_1Renderer.html#a0508dbc35d4ab5ff766a209925fca359" target="_top" xlink:title="Get the vector of picking results. ">
<polygon fill="white" stroke="black" points="174.5,-49.5 174.5,-79.5 290.5,-79.5 290.5,-49.5 174.5,-49.5"/>
<text text-anchor="start" x="182.5" y="-67.5" font-family="Helvetica,sans-Serif" font-size="10.00">Ra::Engine::Renderer</text>
<text text-anchor="middle" x="232.5" y="-56.5" font-family="Helvetica,sans-Serif" font-size="10.00">::getPickingResults</text>
</a>
</g>
</g>
<!-- Node1&#45;&gt;Node3 -->
<g id="edge2" class="edge"><title>Node1&#45;&gt;Node3</title>
<path fill="none" stroke="midnightblue" d="M131.239,-64.5C142.049,-64.5 153.286,-64.5 164.16,-64.5"/>
<polygon fill="midnightblue" stroke="midnightblue" points="164.447,-68.0001 174.447,-64.5 164.447,-61.0001 164.447,-68.0001"/>
</g>
<!-- Node4 -->
<g id="node4" class="node"><title>Node4</title>
<g id="a_node4"><a xlink:href="classRa_1_1Gui_1_1PickingManager.html#acc32a270073f0496c3f96f880521b07e" target="_top" xlink:title="Ra::Gui::PickingManager\l::setCurrent">
<polygon fill="white" stroke="black" points="167,-0.5 167,-30.5 298,-30.5 298,-0.5 167,-0.5"/>
<text text-anchor="start" x="175" y="-18.5" font-family="Helvetica,sans-Serif" font-size="10.00">Ra::Gui::PickingManager</text>
<text text-anchor="middle" x="232.5" y="-7.5" font-family="Helvetica,sans-Serif" font-size="10.00">::setCurrent</text>
</a>
</g>
</g>
<!-- Node1&#45;&gt;Node4 -->
<g id="edge3" class="edge"><title>Node1&#45;&gt;Node4</title>
<path fill="none" stroke="midnightblue" d="M117.352,-49.3986C134.369,-44.3449 153.504,-38.6624 171.173,-33.4152"/>
<polygon fill="midnightblue" stroke="midnightblue" points="172.226,-36.7536 180.816,-30.5516 170.233,-30.0433 172.226,-36.7536"/>
</g>
</g>
</svg>
