<?xml version="1.0" encoding="UTF-8" standalone="no"?>
<!DOCTYPE svg PUBLIC "-//W3C//DTD SVG 1.1//EN"
 "http://www.w3.org/Graphics/SVG/1.1/DTD/svg11.dtd">
<!-- Generated by graphviz version 2.38.0 (20140413.2041)
 -->
<!-- Title: Ra::GuiBase::ItemModel Pages: 1 -->
<svg width="641pt" height="797pt"
 viewBox="0.00 0.00 641.00 797.00" xmlns="http://www.w3.org/2000/svg" xmlns:xlink="http://www.w3.org/1999/xlink">
<g id="graph0" class="graph" transform="scale(1 1) rotate(0) translate(4 793)">
<title>Ra::GuiBase::ItemModel</title>
<polygon fill="white" stroke="none" points="-4,4 -4,-793 637,-793 637,4 -4,4"/>
<!-- Node1 -->
<g id="node1" class="node"><title>Node1</title>
<polygon fill="#bfbfbf" stroke="black" points="71.5,-6 71.5,-129 202.5,-129 202.5,-6 71.5,-6"/>
<text text-anchor="middle" x="137" y="-117" font-family="Helvetica,sans-Serif" font-size="10.00">Ra::GuiBase::ItemModel</text>
<polyline fill="none" stroke="black" points="71.5,-110 202.5,-110 "/>
<text text-anchor="middle" x="137" y="-98" font-family="Helvetica,sans-Serif" font-size="10.00"> </text>
<polyline fill="none" stroke="black" points="71.5,-91 202.5,-91 "/>
<text text-anchor="start" x="79.5" y="-79" font-family="Helvetica,sans-Serif" font-size="10.00">+ ItemModel()</text>
<text text-anchor="start" x="79.5" y="-68" font-family="Helvetica,sans-Serif" font-size="10.00">+ getEntry()</text>
<text text-anchor="start" x="79.5" y="-57" font-family="Helvetica,sans-Serif" font-size="10.00">+ findEntryIndex()</text>
<text text-anchor="start" x="79.5" y="-46" font-family="Helvetica,sans-Serif" font-size="10.00">+ addItem()</text>
<text text-anchor="start" x="79.5" y="-35" font-family="Helvetica,sans-Serif" font-size="10.00">+ removeItem()</text>
<text text-anchor="start" x="79.5" y="-24" font-family="Helvetica,sans-Serif" font-size="10.00"># buildModel()</text>
<text text-anchor="start" x="79.5" y="-13" font-family="Helvetica,sans-Serif" font-size="10.00"># getHeaderString()</text>
</g>
<!-- Node2 -->
<g id="node2" class="node"><title>Node2</title>
<g id="a_node2"><a xlink:href="classRa_1_1GuiBase_1_1TreeModel.html" target="_top" xlink:title="This class implement QAbstractItem model with the TreeItem as its model Derived class must use some k...">
<polygon fill="white" stroke="black" points="0,-199 0,-399 128,-399 128,-199 0,-199"/>
<text text-anchor="middle" x="64" y="-387" font-family="Helvetica,sans-Serif" font-size="10.00">Ra::GuiBase::TreeModel</text>
<polyline fill="none" stroke="black" points="0,-380 128,-380 "/>
<text text-anchor="middle" x="64" y="-368" font-family="Helvetica,sans-Serif" font-size="10.00"> </text>
<polyline fill="none" stroke="black" points="0,-361 128,-361 "/>
<text text-anchor="start" x="8" y="-349" font-family="Helvetica,sans-Serif" font-size="10.00">+ TreeModel()</text>
<text text-anchor="start" x="8" y="-338" font-family="Helvetica,sans-Serif" font-size="10.00">+ rowCount()</text>
<text text-anchor="start" x="8" y="-327" font-family="Helvetica,sans-Serif" font-size="10.00">+ columnCount()</text>
<text text-anchor="start" x="8" y="-316" font-family="Helvetica,sans-Serif" font-size="10.00">+ data()</text>
<text text-anchor="start" x="8" y="-305" font-family="Helvetica,sans-Serif" font-size="10.00">+ headerData()</text>
<text text-anchor="start" x="8" y="-294" font-family="Helvetica,sans-Serif" font-size="10.00">+ index()</text>
<text text-anchor="start" x="8" y="-283" font-family="Helvetica,sans-Serif" font-size="10.00">+ parent()</text>
<text text-anchor="start" x="8" y="-272" font-family="Helvetica,sans-Serif" font-size="10.00">+ flags()</text>
<text text-anchor="start" x="8" y="-261" font-family="Helvetica,sans-Serif" font-size="10.00">+ rebuildModel()</text>
<text text-anchor="start" x="8" y="-250" font-family="Helvetica,sans-Serif" font-size="10.00"># getHeaderString()</text>
<text text-anchor="start" x="8" y="-239" font-family="Helvetica,sans-Serif" font-size="10.00"># buildModel()</text>
<text text-anchor="start" x="8" y="-228" font-family="Helvetica,sans-Serif" font-size="10.00"># getItem()</text>
<text text-anchor="start" x="8" y="-217" font-family="Helvetica,sans-Serif" font-size="10.00"># findInTree()</text>
<text text-anchor="start" x="8" y="-206" font-family="Helvetica,sans-Serif" font-size="10.00"># printModel()</text>
</a>
</g>
</g>
<!-- Node2&#45;&gt;Node1 -->
<g id="edge1" class="edge"><title>Node2&#45;&gt;Node1</title>
<path fill="none" stroke="midnightblue" d="M98.6887,-188.944C105.221,-168.408 111.831,-147.627 117.679,-129.243"/>
<polygon fill="none" stroke="midnightblue" points="95.2902,-188.082 95.5943,-198.673 101.961,-190.204 95.2902,-188.082"/>
</g>
<!-- Node3 -->
<g id="node3" class="node"><title>Node3</title>
<g id="a_node3"><a xlink:href="classQAbstractItemModel.html" target="_top" xlink:title="{QAbstractItemModel\n||}">
<polygon fill="white" stroke="black" points="6.5,-469 6.5,-526 121.5,-526 121.5,-469 6.5,-469"/>
<text text-anchor="middle" x="64" y="-514" font-family="Helvetica,sans-Serif" font-size="10.00">QAbstractItemModel</text>
<polyline fill="none" stroke="black" points="6.5,-507 121.5,-507 "/>
<text text-anchor="middle" x="64" y="-495" font-family="Helvetica,sans-Serif" font-size="10.00"> </text>
<polyline fill="none" stroke="black" points="6.5,-488 121.5,-488 "/>
<text text-anchor="middle" x="64" y="-476" font-family="Helvetica,sans-Serif" font-size="10.00"> </text>
</a>
</g>
</g>
<!-- Node3&#45;&gt;Node2 -->
<g id="edge2" class="edge"><title>Node3&#45;&gt;Node2</title>
<path fill="none" stroke="midnightblue" d="M64,-458.627C64,-441.457 64,-420.268 64,-399.031"/>
<polygon fill="none" stroke="midnightblue" points="60.5001,-458.763 64,-468.763 67.5001,-458.763 60.5001,-458.763"/>
</g>
<!-- Node4 -->
<g id="node4" class="node"><title>Node4</title>
<polygon fill="white" stroke="#bfbfbf" points="272.5,-463.5 272.5,-531.5 393.5,-531.5 393.5,-463.5 272.5,-463.5"/>
<text text-anchor="start" x="280.5" y="-519.5" font-family="Helvetica,sans-Serif" font-size="10.00">std::unique_ptr&lt; Ra</text>
<text text-anchor="middle" x="333" y="-508.5" font-family="Helvetica,sans-Serif" font-size="10.00">::GuiBase::TreeItem &gt;</text>
<polyline fill="none" stroke="#bfbfbf" points="272.5,-501.5 393.5,-501.5 "/>
<text text-anchor="middle" x="333" y="-489.5" font-family="Helvetica,sans-Serif" font-size="10.00"> </text>
<polyline fill="none" stroke="#bfbfbf" points="272.5,-482.5 393.5,-482.5 "/>
<text text-anchor="start" x="280.5" y="-470.5" font-family="Helvetica,sans-Serif" font-size="10.00">+ operator&#45;&gt;()</text>
</g>
<!-- Node4&#45;&gt;Node2 -->
<g id="edge3" class="edge"><title>Node4&#45;&gt;Node2</title>
<path fill="none" stroke="#404040" d="M272.121,-482.053C230.549,-469.821 176.128,-448.917 137,-416 133.996,-413.472 131.075,-410.789 128.241,-407.98"/>
<polygon fill="none" stroke="#404040" points="128.214,-407.951 121.19,-406.318 119.995,-399.207 127.019,-400.84 128.214,-407.951"/>
<text text-anchor="middle" x="214" y="-437" font-family="Helvetica,sans-Serif" font-size="10.00"> #m_rootItem</text>
</g>
<!-- Node6 -->
<g id="node6" class="node"><title>Node6</title>
<polygon fill="white" stroke="#bfbfbf" points="383,-265 383,-333 557,-333 557,-265 383,-265"/>
<text text-anchor="start" x="391" y="-321" font-family="Helvetica,sans-Serif" font-size="10.00">std::vector&lt; std::unique</text>
<text text-anchor="middle" x="470" y="-310" font-family="Helvetica,sans-Serif" font-size="10.00">_ptr&lt; Ra::GuiBase::TreeItem &gt; &gt;</text>
<polyline fill="none" stroke="#bfbfbf" points="383,-303 557,-303 "/>
<text text-anchor="middle" x="470" y="-291" font-family="Helvetica,sans-Serif" font-size="10.00"> </text>
<polyline fill="none" stroke="#bfbfbf" points="383,-284 557,-284 "/>
<text text-anchor="middle" x="470" y="-272" font-family="Helvetica,sans-Serif" font-size="10.00"> </text>
</g>
<!-- Node4&#45;&gt;Node6 -->
<g id="edge6" class="edge"><title>Node4&#45;&gt;Node6</title>
<path fill="none" stroke="#404040" d="M356.24,-463.166C379.239,-430.179 414.558,-379.521 439.737,-343.407"/>
<polygon fill="none" stroke="#404040" points="440.012,-343.012 440.162,-335.803 446.875,-333.169 446.725,-340.378 440.012,-343.012"/>
<text text-anchor="middle" x="402.5" y="-437" font-family="Helvetica,sans-Serif" font-size="10.00"> +elements</text>
</g>
<!-- Node5 -->
<g id="node5" class="node"><title>Node5</title>
<g id="a_node5"><a xlink:href="classRa_1_1GuiBase_1_1TreeItem.html" target="_top" xlink:title="Base class for element of the tree representation. ">
<polygon fill="white" stroke="black" points="294,-0.5 294,-134.5 416,-134.5 416,-0.5 294,-0.5"/>
<text text-anchor="middle" x="355" y="-122.5" font-family="Helvetica,sans-Serif" font-size="10.00">Ra::GuiBase::TreeItem</text>
<polyline fill="none" stroke="black" points="294,-115.5 416,-115.5 "/>
<text text-anchor="middle" x="355" y="-103.5" font-family="Helvetica,sans-Serif" font-size="10.00"> </text>
<polyline fill="none" stroke="black" points="294,-96.5 416,-96.5 "/>
<text text-anchor="start" x="302" y="-84.5" font-family="Helvetica,sans-Serif" font-size="10.00">+ TreeItem()</text>
<text text-anchor="start" x="302" y="-73.5" font-family="Helvetica,sans-Serif" font-size="10.00">+ ~TreeItem()</text>
<text text-anchor="start" x="302" y="-62.5" font-family="Helvetica,sans-Serif" font-size="10.00">+ TreeItem()</text>
<text text-anchor="start" x="302" y="-51.5" font-family="Helvetica,sans-Serif" font-size="10.00">+ operator=()</text>
<text text-anchor="start" x="302" y="-40.5" font-family="Helvetica,sans-Serif" font-size="10.00">+ getName()</text>
<text text-anchor="start" x="302" y="-29.5" font-family="Helvetica,sans-Serif" font-size="10.00">+ isValid()</text>
<text text-anchor="start" x="302" y="-18.5" font-family="Helvetica,sans-Serif" font-size="10.00">+ isSelectable()</text>
<text text-anchor="start" x="302" y="-7.5" font-family="Helvetica,sans-Serif" font-size="10.00">+ getIndexInParent()</text>
</a>
</g>
</g>
<!-- Node5&#45;&gt;Node4 -->
<g id="edge4" class="edge"><title>Node5&#45;&gt;Node4</title>
<path fill="none" stroke="#404040" d="M351.488,-134.517C350.666,-150.089 349.797,-166.629 349,-182 344.03,-277.828 338.354,-390.088 335.276,-451.204"/>
<polygon fill="none" stroke="#404040" points="335.263,-451.46 338.957,-457.654 334.66,-463.445 330.967,-457.251 335.263,-451.46"/>
<text text-anchor="middle" x="361.5" y="-296.5" font-family="Helvetica,sans-Serif" font-size="10.00"> +ptr</text>
</g>
<!-- Node5&#45;&gt;Node5 -->
<g id="edge9" class="edge"><title>Node5&#45;&gt;Node5</title>
<path fill="none" stroke="#404040" d="M416.279,-83.2534C426.747,-81.1007 434,-75.8496 434,-67.5 434,-62.6729 431.576,-58.8814 427.508,-56.1255"/>
<polygon fill="none" stroke="#404040" points="427.459,-56.1064 420.416,-57.6532 416.279,-51.7466 423.322,-50.1999 427.459,-56.1064"/>
<text text-anchor="middle" x="463" y="-65" font-family="Helvetica,sans-Serif" font-size="10.00"> +m_parent</text>
</g>
<!-- Node6&#45;&gt;Node5 -->
<g id="edge5" class="edge"><title>Node6&#45;&gt;Node5</title>
<path fill="none" stroke="#404040" d="M453.278,-264.629C437.7,-233.54 413.894,-186.032 393.614,-145.561"/>
<polygon fill="none" stroke="#404040" points="393.51,-145.353 387.246,-141.781 388.134,-134.625 394.399,-138.197 393.51,-145.353"/>
<text text-anchor="middle" x="435" y="-156" font-family="Helvetica,sans-Serif" font-size="10.00"> +m_children</text>
</g>
<!-- Node7 -->
<g id="node7" class="node"><title>Node7</title>
<g id="a_node7"><a xlink:title="STL class. ">
<polygon fill="white" stroke="#bfbfbf" points="462.5,-550.5 462.5,-607.5 557.5,-607.5 557.5,-550.5 462.5,-550.5"/>
<text text-anchor="middle" x="510" y="-595.5" font-family="Helvetica,sans-Serif" font-size="10.00">std::vector&lt; T &gt;</text>
<polyline fill="none" stroke="#bfbfbf" points="462.5,-588.5 557.5,-588.5 "/>
<text text-anchor="middle" x="510" y="-576.5" font-family="Helvetica,sans-Serif" font-size="10.00"> </text>
<polyline fill="none" stroke="#bfbfbf" points="462.5,-569.5 557.5,-569.5 "/>
<text text-anchor="middle" x="510" y="-557.5" font-family="Helvetica,sans-Serif" font-size="10.00"> </text>
</a>
</g>
</g>
<!-- Node7&#45;&gt;Node6 -->
<g id="edge7" class="edge"><title>Node7&#45;&gt;Node6</title>
<path fill="none" stroke="orange" d="M504.583,-540.351C496.714,-485.666 482.249,-385.128 474.765,-333.115"/>
<polygon fill="orange" stroke="orange" points="501.13,-540.928 506.018,-550.328 508.058,-539.931 501.13,-540.928"/>
<text text-anchor="start" x="502" y="-500.5" font-family="Helvetica,sans-Serif" font-size="10.00"> &lt; std::unique_ptr&lt;</text>
<text text-anchor="middle" x="567.5" y="-489.5" font-family="Helvetica,sans-Serif" font-size="10.00"> Ra::GuiBase::TreeItem &gt; &gt;</text>
</g>
<!-- Node8 -->
<g id="node8" class="node"><title>Node8</title>
<polygon fill="white" stroke="#bfbfbf" points="430.5,-731.5 430.5,-788.5 459.5,-788.5 459.5,-731.5 430.5,-731.5"/>
<text text-anchor="middle" x="445" y="-776.5" font-family="Helvetica,sans-Serif" font-size="10.00">T</text>
<polyline fill="none" stroke="#bfbfbf" points="430.5,-769.5 459.5,-769.5 "/>
<text text-anchor="middle" x="445" y="-757.5" font-family="Helvetica,sans-Serif" font-size="10.00"> </text>
<polyline fill="none" stroke="#bfbfbf" points="430.5,-750.5 459.5,-750.5 "/>
<text text-anchor="middle" x="445" y="-738.5" font-family="Helvetica,sans-Serif" font-size="10.00"> </text>
</g>
<!-- Node8&#45;&gt;Node7 -->
<g id="edge8" class="edge"><title>Node8&#45;&gt;Node7</title>
<path fill="none" stroke="#404040" d="M455.014,-731.424C465.94,-701.334 483.518,-652.928 495.851,-618.965"/>
<polygon fill="none" stroke="#404040" points="495.879,-618.887 494.167,-611.882 499.975,-607.608 501.687,-614.613 495.879,-618.887"/>
<text text-anchor="middle" x="493.5" y="-705" font-family="Helvetica,sans-Serif" font-size="10.00"> +elements</text>
</g>
<!-- Node9 -->
<g id="node9" class="node"><title>Node9</title>
<g id="a_node9"><a xlink:title="STL class. ">
<polygon fill="white" stroke="#bfbfbf" points="317,-626.5 317,-683.5 433,-683.5 433,-626.5 317,-626.5"/>
<text text-anchor="middle" x="375" y="-671.5" font-family="Helvetica,sans-Serif" font-size="10.00">std::unique_ptr&lt; T &gt;</text>
<polyline fill="none" stroke="#bfbfbf" points="317,-664.5 433,-664.5 "/>
<text text-anchor="middle" x="375" y="-652.5" font-family="Helvetica,sans-Serif" font-size="10.00"> </text>
<polyline fill="none" stroke="#bfbfbf" points="317,-645.5 433,-645.5 "/>
<text text-anchor="start" x="325" y="-633.5" font-family="Helvetica,sans-Serif" font-size="10.00">+ operator&#45;&gt;()</text>
</a>
</g>
</g>
<!-- Node8&#45;&gt;Node9 -->
<g id="edge11" class="edge"><title>Node8&#45;&gt;Node9</title>
<path fill="none" stroke="#404040" d="M430.496,-737.658C421.841,-724.923 410.604,-708.389 400.508,-693.533"/>
<polygon fill="none" stroke="#404040" points="400.491,-693.508 393.81,-690.794 393.746,-683.583 400.427,-686.297 400.491,-693.508"/>
<text text-anchor="middle" x="425.5" y="-705" font-family="Helvetica,sans-Serif" font-size="10.00"> +ptr</text>
</g>
<!-- Node9&#45;&gt;Node4 -->
<g id="edge10" class="edge"><title>Node9&#45;&gt;Node4</title>
<path fill="none" stroke="orange" d="M329.166,-618.458C326.756,-615.158 324.652,-611.666 323,-608 312.179,-583.981 315.931,-554.038 321.688,-531.538"/>
<polygon fill="orange" stroke="orange" points="326.6,-620.845 335.707,-626.259 331.964,-616.348 326.6,-620.845"/>
<text text-anchor="middle" x="388.5" y="-576.5" font-family="Helvetica,sans-Serif" font-size="10.00"> &lt; Ra::GuiBase::TreeItem &gt;</text>
</g>
<!-- Node10 -->
<g id="node10" class="node"><title>Node10</title>
<g id="a_node10"><a xlink:href="classRa_1_1Engine_1_1RadiumEngine.html" target="_top" xlink:title="Engine main class : Manage all the systems and managers that are used by the engine module...">
<polygon fill="white" stroke="black" points="146.5,-182.5 146.5,-415.5 303.5,-415.5 303.5,-182.5 146.5,-182.5"/>
<text text-anchor="middle" x="225" y="-403.5" font-family="Helvetica,sans-Serif" font-size="10.00">Ra::Engine::RadiumEngine</text>
<polyline fill="none" stroke="black" points="146.5,-396.5 303.5,-396.5 "/>
<text text-anchor="middle" x="225" y="-384.5" font-family="Helvetica,sans-Serif" font-size="10.00"> </text>
<polyline fill="none" stroke="black" points="146.5,-377.5 303.5,-377.5 "/>
<text text-anchor="start" x="154.5" y="-365.5" font-family="Helvetica,sans-Serif" font-size="10.00">+ RadiumEngine()</text>
<text text-anchor="start" x="154.5" y="-354.5" font-family="Helvetica,sans-Serif" font-size="10.00">+ ~RadiumEngine()</text>
<text text-anchor="start" x="154.5" y="-343.5" font-family="Helvetica,sans-Serif" font-size="10.00">+ initialize()</text>
<text text-anchor="start" x="154.5" y="-332.5" font-family="Helvetica,sans-Serif" font-size="10.00">+ cleanup()</text>
<text text-anchor="start" x="154.5" y="-321.5" font-family="Helvetica,sans-Serif" font-size="10.00">+ getTasks()</text>
<text text-anchor="start" x="154.5" y="-310.5" font-family="Helvetica,sans-Serif" font-size="10.00">+ registerSystem()</text>
<text text-anchor="start" x="154.5" y="-299.5" font-family="Helvetica,sans-Serif" font-size="10.00">+ getSystem()</text>
<text text-anchor="start" x="154.5" y="-288.5" font-family="Helvetica,sans-Serif" font-size="10.00">+ getMesh()</text>
<text text-anchor="start" x="154.5" y="-277.5" font-family="Helvetica,sans-Serif" font-size="10.00">+ loadFile()</text>
<text text-anchor="start" x="154.5" y="-266.5" font-family="Helvetica,sans-Serif" font-size="10.00">+ getFileData()</text>
<text text-anchor="start" x="154.5" y="-255.5" font-family="Helvetica,sans-Serif" font-size="10.00">+ releaseFile()</text>
<text text-anchor="start" x="154.5" y="-244.5" font-family="Helvetica,sans-Serif" font-size="10.00">+ endFrameSync()</text>
<text text-anchor="start" x="154.5" y="-233.5" font-family="Helvetica,sans-Serif" font-size="10.00">+ getRenderObjectManager()</text>
<text text-anchor="start" x="154.5" y="-222.5" font-family="Helvetica,sans-Serif" font-size="10.00">+ getEntityManager()</text>
<text text-anchor="start" x="154.5" y="-211.5" font-family="Helvetica,sans-Serif" font-size="10.00">+ getSignalManager()</text>
<text text-anchor="start" x="154.5" y="-200.5" font-family="Helvetica,sans-Serif" font-size="10.00">+ registerFileLoader()</text>
<text text-anchor="start" x="154.5" y="-189.5" font-family="Helvetica,sans-Serif" font-size="10.00">+ getFileLoaders()</text>
</a>
</g>
</g>
<!-- Node10&#45;&gt;Node1 -->
<g id="edge12" class="edge"><title>Node10&#45;&gt;Node1</title>
<path fill="none" stroke="#404040" d="M180.613,-182.241C175.162,-168.025 169.719,-153.829 164.618,-140.527"/>
<polygon fill="none" stroke="#404040" points="164.529,-140.293 158.646,-136.123 160.232,-129.089 166.115,-133.259 164.529,-140.293"/>
<text text-anchor="middle" x="203.5" y="-156" font-family="Helvetica,sans-Serif" font-size="10.00"> #m_engine</text>
</g>
</g>
</svg>
