<?xml version="1.0" encoding="UTF-8" standalone="no"?>
<!DOCTYPE svg PUBLIC "-//W3C//DTD SVG 1.1//EN"
 "http://www.w3.org/Graphics/SVG/1.1/DTD/svg11.dtd">
<!-- Generated by graphviz version 2.38.0 (20140413.2041)
 -->
<!-- Title: Ra::Engine::DebugRender::addSphere Pages: 1 -->
<svg width="1000pt" height="176pt"
 viewBox="0.00 0.00 1000.00 176.00" xmlns="http://www.w3.org/2000/svg" xmlns:xlink="http://www.w3.org/1999/xlink">
<g id="graph0" class="graph" transform="scale(1 1) rotate(0) translate(4 172)">
<title>Ra::Engine::DebugRender::addSphere</title>
<polygon fill="white" stroke="none" points="-4,4 -4,-172 996,-172 996,4 -4,4"/>
<!-- Node1 -->
<g id="node1" class="node"><title>Node1</title>
<polygon fill="#bfbfbf" stroke="black" points="0,-123.5 0,-153.5 137,-153.5 137,-123.5 0,-123.5"/>
<text text-anchor="start" x="8" y="-141.5" font-family="Helvetica,sans-Serif" font-size="10.00">Ra::Engine::DebugRender</text>
<text text-anchor="middle" x="68.5" y="-130.5" font-family="Helvetica,sans-Serif" font-size="10.00">::addSphere</text>
</g>
<!-- Node2 -->
<g id="node2" class="node"><title>Node2</title>
<g id="a_node2"><a xlink:href="namespaceRa_1_1Engine_1_1DrawPrimitives.html#a7170136c52f78d62597f431f79317664" target="_top" xlink:title="Displays sphere computed with given center and radius. ">
<polygon fill="white" stroke="black" points="173,-123.5 173,-153.5 316,-153.5 316,-123.5 173,-123.5"/>
<text text-anchor="start" x="181" y="-141.5" font-family="Helvetica,sans-Serif" font-size="10.00">Ra::Engine::DrawPrimitives</text>
<text text-anchor="middle" x="244.5" y="-130.5" font-family="Helvetica,sans-Serif" font-size="10.00">::Sphere</text>
</a>
</g>
</g>
<!-- Node1&#45;&gt;Node2 -->
<g id="edge1" class="edge"><title>Node1&#45;&gt;Node2</title>
<path fill="none" stroke="midnightblue" d="M137.271,-138.5C145.548,-138.5 154.068,-138.5 162.513,-138.5"/>
<polygon fill="midnightblue" stroke="midnightblue" points="162.755,-142 172.755,-138.5 162.755,-135 162.755,-142"/>
</g>
<!-- Node3 -->
<g id="node3" class="node"><title>Node3</title>
<g id="a_node3"><a xlink:href="namespaceRa_1_1Core_1_1Geometry.html#a6b6b58787a02c6aa51f66d7860384131" target="_top" xlink:title="Create a spherical mesh by subdivision of an icosahedron. ">
<polygon fill="white" stroke="black" points="352,-82.5 352,-112.5 480,-112.5 480,-82.5 352,-82.5"/>
<text text-anchor="start" x="360" y="-100.5" font-family="Helvetica,sans-Serif" font-size="10.00">Ra::Core::Geometry</text>
<text text-anchor="middle" x="416" y="-89.5" font-family="Helvetica,sans-Serif" font-size="10.00">::makeGeodesicSphere</text>
</a>
</g>
</g>
<!-- Node2&#45;&gt;Node3 -->
<g id="edge2" class="edge"><title>Node2&#45;&gt;Node3</title>
<path fill="none" stroke="midnightblue" d="M307.653,-123.466C319.168,-120.681 331.284,-117.75 343.061,-114.901"/>
<polygon fill="midnightblue" stroke="midnightblue" points="343.958,-118.285 352.854,-112.532 342.312,-111.482 343.958,-118.285"/>
</g>
<!-- Node4 -->
<g id="node4" class="node"><title>Node4</title>
<g id="a_node4"><a xlink:href="classRa_1_1Core_1_1Geometry_1_1TriangleMesh.html#a6ef9dbd18c0501f2ffd1316be6be56ce" target="_top" xlink:title="Access the vertices positions. ">
<polygon fill="white" stroke="black" points="728.5,-137.5 728.5,-167.5 856.5,-167.5 856.5,-137.5 728.5,-137.5"/>
<text text-anchor="start" x="736.5" y="-155.5" font-family="Helvetica,sans-Serif" font-size="10.00">Ra::Core::Geometry</text>
<text text-anchor="middle" x="792.5" y="-144.5" font-family="Helvetica,sans-Serif" font-size="10.00">::TriangleMesh::vertices</text>
</a>
</g>
</g>
<!-- Node2&#45;&gt;Node4 -->
<g id="edge13" class="edge"><title>Node2&#45;&gt;Node4</title>
<path fill="none" stroke="midnightblue" d="M316.115,-141.142C370.691,-143.112 448.125,-145.755 516,-147.5 584.543,-149.262 662.694,-150.618 718.208,-151.471"/>
<polygon fill="midnightblue" stroke="midnightblue" points="718.251,-154.972 728.303,-151.624 718.358,-147.973 718.251,-154.972"/>
</g>
<!-- Node3&#45;&gt;Node4 -->
<g id="edge3" class="edge"><title>Node3&#45;&gt;Node4</title>
<path fill="none" stroke="midnightblue" d="M473.544,-112.504C487.361,-115.811 502.155,-119.053 516,-121.5 584.045,-133.527 662.415,-141.814 718.129,-146.773"/>
<polygon fill="midnightblue" stroke="midnightblue" points="717.993,-150.275 728.26,-147.661 718.604,-143.301 717.993,-150.275"/>
</g>
<!-- Node5 -->
<g id="node5" class="node"><title>Node5</title>
<g id="a_node5"><a xlink:href="classRa_1_1Core_1_1Geometry_1_1TriangleMesh.html#ad7d3f6272b902171740e50232ba56114" target="_top" xlink:title="Access the vertices normals. ">
<polygon fill="white" stroke="black" points="728,-0.5 728,-30.5 857,-30.5 857,-0.5 728,-0.5"/>
<text text-anchor="start" x="736" y="-18.5" font-family="Helvetica,sans-Serif" font-size="10.00">Ra::Core::Geometry</text>
<text text-anchor="middle" x="792.5" y="-7.5" font-family="Helvetica,sans-Serif" font-size="10.00">::TriangleMesh::normals</text>
</a>
</g>
</g>
<!-- Node3&#45;&gt;Node5 -->
<g id="edge4" class="edge"><title>Node3&#45;&gt;Node5</title>
<path fill="none" stroke="midnightblue" d="M434.56,-82.4268C453.332,-67.3018 484.649,-44.8126 516,-34.5 581.812,-12.8517 661.109,-9.58924 717.697,-10.8538"/>
<polygon fill="midnightblue" stroke="midnightblue" points="717.897,-14.3606 727.991,-11.1392 718.091,-7.36328 717.897,-14.3606"/>
</g>
<!-- Node6 -->
<g id="node6" class="node"><title>Node6</title>
<g id="a_node6"><a xlink:href="namespaceRa_1_1Core_1_1Vector.html#a42d87f3bd0658bac532d72f0ec528827" target="_top" xlink:title="Get the cosine of the angle between two vectors. ">
<polygon fill="white" stroke="black" points="546,-44 546,-63 662,-63 662,-44 546,-44"/>
<text text-anchor="middle" x="604" y="-51" font-family="Helvetica,sans-Serif" font-size="10.00">Ra::Core::Vector::cos</text>
</a>
</g>
</g>
<!-- Node3&#45;&gt;Node6 -->
<g id="edge5" class="edge"><title>Node3&#45;&gt;Node6</title>
<path fill="none" stroke="midnightblue" d="M475.292,-82.4461C488.648,-79.0899 502.8,-75.6073 516,-72.5 526.264,-70.084 537.234,-67.6067 547.805,-65.2723"/>
<polygon fill="midnightblue" stroke="midnightblue" points="548.764,-68.6453 557.783,-63.0846 547.265,-61.8077 548.764,-68.6453"/>
</g>
<!-- Node7 -->
<g id="node7" class="node"><title>Node7</title>
<g id="a_node7"><a xlink:href="classRa_1_1Core_1_1Geometry_1_1TriangleMesh.html#a0b294c697e094dcc62b3adb3c0ac16af" target="_top" xlink:title="Check that the mesh is well built, asserting when it is not. ">
<polygon fill="white" stroke="black" points="516,-82.5 516,-112.5 692,-112.5 692,-82.5 516,-82.5"/>
<text text-anchor="start" x="524" y="-100.5" font-family="Helvetica,sans-Serif" font-size="10.00">Ra::Core::Geometry</text>
<text text-anchor="middle" x="604" y="-89.5" font-family="Helvetica,sans-Serif" font-size="10.00">::TriangleMesh::checkConsistency</text>
</a>
</g>
</g>
<!-- Node3&#45;&gt;Node7 -->
<g id="edge6" class="edge"><title>Node3&#45;&gt;Node7</title>
<path fill="none" stroke="midnightblue" d="M480.231,-97.5C488.481,-97.5 497.082,-97.5 505.731,-97.5"/>
<polygon fill="midnightblue" stroke="midnightblue" points="505.89,-101 515.89,-97.5 505.89,-94.0001 505.89,-101"/>
</g>
<!-- Node7&#45;&gt;Node4 -->
<g id="edge7" class="edge"><title>Node7&#45;&gt;Node4</title>
<path fill="none" stroke="midnightblue" d="M655.962,-112.529C679.091,-119.35 706.623,-127.469 730.812,-134.603"/>
<polygon fill="midnightblue" stroke="midnightblue" points="730.018,-138.018 740.6,-137.489 731.998,-131.303 730.018,-138.018"/>
</g>
<!-- Node7&#45;&gt;Node5 -->
<g id="edge12" class="edge"><title>Node7&#45;&gt;Node5</title>
<path fill="none" stroke="midnightblue" d="M669.968,-82.3497C677.603,-79.5523 685.116,-76.2894 692,-72.5 710.753,-62.1762 709.759,-51.7049 728,-40.5 731.164,-38.5563 734.506,-36.7137 737.933,-34.9767"/>
<polygon fill="midnightblue" stroke="midnightblue" points="739.596,-38.0621 747.145,-30.6284 736.608,-31.7319 739.596,-38.0621"/>
</g>
<!-- Node8 -->
<g id="node8" class="node"><title>Node8</title>
<g id="a_node8"><a xlink:href="namespaceRa_1_1Core_1_1Geometry.html#aa04e6052d8911b1df1bd881474debb45" target="_top" xlink:title="Ra::Core::Geometry::t">
<polygon fill="white" stroke="black" points="732.5,-50 732.5,-69 852.5,-69 852.5,-50 732.5,-50"/>
<text text-anchor="middle" x="792.5" y="-57" font-family="Helvetica,sans-Serif" font-size="10.00">Ra::Core::Geometry::t</text>
</a>
</g>
</g>
<!-- Node7&#45;&gt;Node8 -->
<g id="edge8" class="edge"><title>Node7&#45;&gt;Node8</title>
<path fill="none" stroke="midnightblue" d="M678.71,-82.4814C697.349,-78.6835 717.079,-74.6634 734.737,-71.0656"/>
<polygon fill="midnightblue" stroke="midnightblue" points="735.771,-74.427 744.87,-69.0009 734.373,-67.568 735.771,-74.427"/>
</g>
<!-- Node9 -->
<g id="node9" class="node"><title>Node9</title>
<g id="a_node9"><a xlink:href="namespaceRa_1_1Core_1_1Geometry.html#a178f2b7309fe2ea5bc31a3abcb25368e" target="_top" xlink:title="Ra::Core::Geometry\l::triangleArea">
<polygon fill="white" stroke="black" points="737,-88.5 737,-118.5 848,-118.5 848,-88.5 737,-88.5"/>
<text text-anchor="start" x="745" y="-106.5" font-family="Helvetica,sans-Serif" font-size="10.00">Ra::Core::Geometry</text>
<text text-anchor="middle" x="792.5" y="-95.5" font-family="Helvetica,sans-Serif" font-size="10.00">::triangleArea</text>
</a>
</g>
</g>
<!-- Node7&#45;&gt;Node9 -->
<g id="edge9" class="edge"><title>Node7&#45;&gt;Node9</title>
<path fill="none" stroke="midnightblue" d="M692.243,-100.307C703.857,-100.68 715.595,-101.058 726.733,-101.416"/>
<polygon fill="midnightblue" stroke="midnightblue" points="726.665,-104.916 736.773,-101.739 726.89,-97.9195 726.665,-104.916"/>
</g>
<!-- Node10 -->
<g id="node10" class="node"><title>Node10</title>
<g id="a_node10"><a xlink:href="namespaceOpenMesh.html#a71e7f1dd3eac016d2b8245ac408a291c" target="_top" xlink:title="OpenMesh::cross">
<polygon fill="white" stroke="black" points="893,-113 893,-132 992,-132 992,-113 893,-113"/>
<text text-anchor="middle" x="942.5" y="-120" font-family="Helvetica,sans-Serif" font-size="10.00">OpenMesh::cross</text>
</a>
</g>
</g>
<!-- Node9&#45;&gt;Node10 -->
<g id="edge10" class="edge"><title>Node9&#45;&gt;Node10</title>
<path fill="none" stroke="midnightblue" d="M848.189,-110.521C859.411,-111.962 871.27,-113.484 882.632,-114.943"/>
<polygon fill="midnightblue" stroke="midnightblue" points="882.529,-118.458 892.894,-116.26 883.421,-111.515 882.529,-118.458"/>
</g>
<!-- Node11 -->
<g id="node11" class="node"><title>Node11</title>
<g id="a_node11"><a xlink:href="namespaceOpenMesh.html#a8205f789ce08919bc11c58383574596c" target="_top" xlink:title="OpenMesh::norm">
<polygon fill="white" stroke="black" points="893,-75 893,-94 992,-94 992,-75 893,-75"/>
<text text-anchor="middle" x="942.5" y="-82" font-family="Helvetica,sans-Serif" font-size="10.00">OpenMesh::norm</text>
</a>
</g>
</g>
<!-- Node9&#45;&gt;Node11 -->
<g id="edge11" class="edge"><title>Node9&#45;&gt;Node11</title>
<path fill="none" stroke="midnightblue" d="M848.189,-96.4791C859.411,-95.0384 871.27,-93.516 882.632,-92.0574"/>
<polygon fill="midnightblue" stroke="midnightblue" points="883.421,-95.4849 892.894,-90.74 882.529,-88.5419 883.421,-95.4849"/>
</g>
</g>
</svg>
