<?xml version="1.0" encoding="UTF-8" standalone="no"?>
<!DOCTYPE svg PUBLIC "-//W3C//DTD SVG 1.1//EN"
 "http://www.w3.org/Graphics/SVG/1.1/DTD/svg11.dtd">
<!-- Generated by graphviz version 2.38.0 (20140413.2041)
 -->
<!-- Title: Ra::Engine::System Pages: 1 -->
<svg width="1203pt" height="1047pt"
 viewBox="0.00 0.00 1203.00 1047.00" xmlns="http://www.w3.org/2000/svg" xmlns:xlink="http://www.w3.org/1999/xlink">
<g id="graph0" class="graph" transform="scale(1 1) rotate(0) translate(4 1043)">
<title>Ra::Engine::System</title>
<polygon fill="white" stroke="none" points="-4,4 -4,-1043 1199,-1043 1199,4 -4,4"/>
<!-- Node1 -->
<g id="node1" class="node"><title>Node1</title>
<polygon fill="#bfbfbf" stroke="black" points="535.5,-904.5 535.5,-1038.5 692.5,-1038.5 692.5,-904.5 535.5,-904.5"/>
<text text-anchor="middle" x="614" y="-1026.5" font-family="Helvetica,sans-Serif" font-size="10.00">Ra::Engine::System</text>
<polyline fill="none" stroke="black" points="535.5,-1019.5 692.5,-1019.5 "/>
<text text-anchor="start" x="543.5" y="-1007.5" font-family="Helvetica,sans-Serif" font-size="10.00"># m_components</text>
<polyline fill="none" stroke="black" points="535.5,-1000.5 692.5,-1000.5 "/>
<text text-anchor="start" x="543.5" y="-988.5" font-family="Helvetica,sans-Serif" font-size="10.00">+ System()</text>
<text text-anchor="start" x="543.5" y="-977.5" font-family="Helvetica,sans-Serif" font-size="10.00">+ ~System()</text>
<text text-anchor="start" x="543.5" y="-966.5" font-family="Helvetica,sans-Serif" font-size="10.00">+ handleAssetLoading()</text>
<text text-anchor="start" x="543.5" y="-955.5" font-family="Helvetica,sans-Serif" font-size="10.00">+ generateTasks()</text>
<text text-anchor="start" x="543.5" y="-944.5" font-family="Helvetica,sans-Serif" font-size="10.00">+ getEntityComponents()</text>
<text text-anchor="start" x="543.5" y="-933.5" font-family="Helvetica,sans-Serif" font-size="10.00"># registerComponent()</text>
<text text-anchor="start" x="543.5" y="-922.5" font-family="Helvetica,sans-Serif" font-size="10.00"># unregisterComponent()</text>
<text text-anchor="start" x="543.5" y="-911.5" font-family="Helvetica,sans-Serif" font-size="10.00"># unregisterAllComponents()</text>
</g>
<!-- Node2 -->
<g id="node2" class="node"><title>Node2</title>
<g id="a_node2"><a xlink:href="classDummyPlugin_1_1DummySystem.html" target="_top" xlink:title="{DummyPlugin::DummySystem\n||+ DummySystem()\l+ ~DummySystem()\l+ initialize()\l+ handleDataLoading()\l+ generateTasks()\l# addComponentToEntityInternal()\l}">
<polygon fill="white" stroke="black" points="0,-722.5 0,-834.5 182,-834.5 182,-722.5 0,-722.5"/>
<text text-anchor="middle" x="91" y="-822.5" font-family="Helvetica,sans-Serif" font-size="10.00">DummyPlugin::DummySystem</text>
<polyline fill="none" stroke="black" points="0,-815.5 182,-815.5 "/>
<text text-anchor="middle" x="91" y="-803.5" font-family="Helvetica,sans-Serif" font-size="10.00"> </text>
<polyline fill="none" stroke="black" points="0,-796.5 182,-796.5 "/>
<text text-anchor="start" x="8" y="-784.5" font-family="Helvetica,sans-Serif" font-size="10.00">+ DummySystem()</text>
<text text-anchor="start" x="8" y="-773.5" font-family="Helvetica,sans-Serif" font-size="10.00">+ ~DummySystem()</text>
<text text-anchor="start" x="8" y="-762.5" font-family="Helvetica,sans-Serif" font-size="10.00">+ initialize()</text>
<text text-anchor="start" x="8" y="-751.5" font-family="Helvetica,sans-Serif" font-size="10.00">+ handleDataLoading()</text>
<text text-anchor="start" x="8" y="-740.5" font-family="Helvetica,sans-Serif" font-size="10.00">+ generateTasks()</text>
<text text-anchor="start" x="8" y="-729.5" font-family="Helvetica,sans-Serif" font-size="10.00"># addComponentToEntityInternal()</text>
</a>
</g>
</g>
<!-- Node1&#45;&gt;Node2 -->
<g id="edge1" class="edge"><title>Node1&#45;&gt;Node2</title>
<path fill="none" stroke="midnightblue" d="M525.376,-961.484C436.862,-949.677 298.952,-923.532 192,-868 175.137,-859.244 158.774,-847.094 144.302,-834.597"/>
<polygon fill="none" stroke="midnightblue" points="525.018,-964.967 535.386,-962.786 525.921,-958.025 525.018,-964.967"/>
</g>
<!-- Node3 -->
<g id="node3" class="node"><title>Node3</title>
<g id="a_node3"><a xlink:href="classMeshPaintPlugin_1_1MeshPaintSystem.html" target="_top" xlink:title="{MeshPaintPlugin::MeshPaint\lSystem\n||+ MeshPaintSystem()\l+ ~MeshPaintSystem()\l+ handleAssetLoading()\l+ generateTasks()\l+ startPaintMesh()\l+ paintMesh()\l}">
<polygon fill="white" stroke="black" points="200.5,-717 200.5,-840 349.5,-840 349.5,-717 200.5,-717"/>
<text text-anchor="start" x="208.5" y="-828" font-family="Helvetica,sans-Serif" font-size="10.00">MeshPaintPlugin::MeshPaint</text>
<text text-anchor="middle" x="275" y="-817" font-family="Helvetica,sans-Serif" font-size="10.00">System</text>
<polyline fill="none" stroke="black" points="200.5,-810 349.5,-810 "/>
<text text-anchor="middle" x="275" y="-798" font-family="Helvetica,sans-Serif" font-size="10.00"> </text>
<polyline fill="none" stroke="black" points="200.5,-791 349.5,-791 "/>
<text text-anchor="start" x="208.5" y="-779" font-family="Helvetica,sans-Serif" font-size="10.00">+ MeshPaintSystem()</text>
<text text-anchor="start" x="208.5" y="-768" font-family="Helvetica,sans-Serif" font-size="10.00">+ ~MeshPaintSystem()</text>
<text text-anchor="start" x="208.5" y="-757" font-family="Helvetica,sans-Serif" font-size="10.00">+ handleAssetLoading()</text>
<text text-anchor="start" x="208.5" y="-746" font-family="Helvetica,sans-Serif" font-size="10.00">+ generateTasks()</text>
<text text-anchor="start" x="208.5" y="-735" font-family="Helvetica,sans-Serif" font-size="10.00">+ startPaintMesh()</text>
<text text-anchor="start" x="208.5" y="-724" font-family="Helvetica,sans-Serif" font-size="10.00">+ paintMesh()</text>
</a>
</g>
</g>
<!-- Node1&#45;&gt;Node3 -->
<g id="edge2" class="edge"><title>Node1&#45;&gt;Node3</title>
<path fill="none" stroke="midnightblue" d="M525.646,-945.727C474.017,-928.746 409.163,-902.939 358,-868 346.519,-860.16 335.441,-850.48 325.322,-840.43"/>
<polygon fill="none" stroke="midnightblue" points="524.865,-949.152 535.456,-948.9 527.019,-942.492 524.865,-949.152"/>
</g>
<!-- Node4 -->
<g id="node4" class="node"><title>Node4</title>
<g id="a_node4"><a xlink:href="classRa_1_1Engine_1_1AbstractTimedSystem.html" target="_top" xlink:title="Timed Systems are systems which can be disabled or paused, e.g. animation systems. ">
<polygon fill="white" stroke="black" points="367,-711.5 367,-845.5 517,-845.5 517,-711.5 367,-711.5"/>
<text text-anchor="start" x="375" y="-833.5" font-family="Helvetica,sans-Serif" font-size="10.00">Ra::Engine::AbstractTimed</text>
<text text-anchor="middle" x="442" y="-822.5" font-family="Helvetica,sans-Serif" font-size="10.00">System</text>
<polyline fill="none" stroke="black" points="367,-815.5 517,-815.5 "/>
<text text-anchor="middle" x="442" y="-803.5" font-family="Helvetica,sans-Serif" font-size="10.00"> </text>
<polyline fill="none" stroke="black" points="367,-796.5 517,-796.5 "/>
<text text-anchor="start" x="375" y="-784.5" font-family="Helvetica,sans-Serif" font-size="10.00">+ AbstractTimedSystem()</text>
<text text-anchor="start" x="375" y="-773.5" font-family="Helvetica,sans-Serif" font-size="10.00">+ ~AbstractTimedSystem()</text>
<text text-anchor="start" x="375" y="-762.5" font-family="Helvetica,sans-Serif" font-size="10.00">+ play()</text>
<text text-anchor="start" x="375" y="-751.5" font-family="Helvetica,sans-Serif" font-size="10.00">+ step()</text>
<text text-anchor="start" x="375" y="-740.5" font-family="Helvetica,sans-Serif" font-size="10.00">+ reset()</text>
<text text-anchor="start" x="375" y="-729.5" font-family="Helvetica,sans-Serif" font-size="10.00">+ cacheFrame()</text>
<text text-anchor="start" x="375" y="-718.5" font-family="Helvetica,sans-Serif" font-size="10.00">+ restoreFrame()</text>
</a>
</g>
</g>
<!-- Node1&#45;&gt;Node4 -->
<g id="edge3" class="edge"><title>Node1&#45;&gt;Node4</title>
<path fill="none" stroke="midnightblue" d="M547.448,-896.596C532.333,-879.811 516.372,-862.088 501.569,-845.649"/>
<polygon fill="none" stroke="midnightblue" points="545.033,-899.145 554.325,-904.234 550.234,-894.46 545.033,-899.145"/>
</g>
<!-- Node8 -->
<g id="node8" class="node"><title>Node8</title>
<g id="a_node8"><a xlink:href="classRa_1_1Engine_1_1CameraManager.html" target="_top" xlink:title="Interface providing functions to manage a group or type of Cameras in a specific way. ">
<polygon fill="white" stroke="black" points="535.5,-689.5 535.5,-867.5 692.5,-867.5 692.5,-689.5 535.5,-689.5"/>
<text text-anchor="middle" x="614" y="-855.5" font-family="Helvetica,sans-Serif" font-size="10.00">Ra::Engine::CameraManager</text>
<polyline fill="none" stroke="black" points="535.5,-848.5 692.5,-848.5 "/>
<text text-anchor="start" x="543.5" y="-836.5" font-family="Helvetica,sans-Serif" font-size="10.00"># m_data</text>
<polyline fill="none" stroke="black" points="535.5,-829.5 692.5,-829.5 "/>
<text text-anchor="start" x="543.5" y="-817.5" font-family="Helvetica,sans-Serif" font-size="10.00">+ CameraManager()</text>
<text text-anchor="start" x="543.5" y="-806.5" font-family="Helvetica,sans-Serif" font-size="10.00">+ CameraManager()</text>
<text text-anchor="start" x="543.5" y="-795.5" font-family="Helvetica,sans-Serif" font-size="10.00">+ operator=()</text>
<text text-anchor="start" x="543.5" y="-784.5" font-family="Helvetica,sans-Serif" font-size="10.00">+ ~CameraManager()</text>
<text text-anchor="start" x="543.5" y="-773.5" font-family="Helvetica,sans-Serif" font-size="10.00">+ getCamera()</text>
<text text-anchor="start" x="543.5" y="-762.5" font-family="Helvetica,sans-Serif" font-size="10.00">+ addCamera()</text>
<text text-anchor="start" x="543.5" y="-751.5" font-family="Helvetica,sans-Serif" font-size="10.00">+ count()</text>
<text text-anchor="start" x="543.5" y="-740.5" font-family="Helvetica,sans-Serif" font-size="10.00">+ generateTasks()</text>
<text text-anchor="start" x="543.5" y="-729.5" font-family="Helvetica,sans-Serif" font-size="10.00">+ handleAssetLoading()</text>
<text text-anchor="start" x="543.5" y="-718.5" font-family="Helvetica,sans-Serif" font-size="10.00"># registerComponent()</text>
<text text-anchor="start" x="543.5" y="-707.5" font-family="Helvetica,sans-Serif" font-size="10.00"># unregisterComponent()</text>
<text text-anchor="start" x="543.5" y="-696.5" font-family="Helvetica,sans-Serif" font-size="10.00"># unregisterAllComponents()</text>
</a>
</g>
</g>
<!-- Node1&#45;&gt;Node8 -->
<g id="edge7" class="edge"><title>Node1&#45;&gt;Node8</title>
<path fill="none" stroke="midnightblue" d="M614,-894.094C614,-885.354 614,-876.392 614,-867.516"/>
<polygon fill="none" stroke="midnightblue" points="610.5,-894.233 614,-904.234 617.5,-894.234 610.5,-894.233"/>
</g>
<!-- Node10 -->
<g id="node10" class="node"><title>Node10</title>
<g id="a_node10"><a xlink:href="classRa_1_1Engine_1_1GeometrySystem.html" target="_top" xlink:title="{Ra::Engine::GeometrySystem\n||+ GeometrySystem()\l+ ~GeometrySystem()\l+ handleAssetLoading()\l+ generateTasks()\l}">
<polygon fill="white" stroke="black" points="711,-733.5 711,-823.5 869,-823.5 869,-733.5 711,-733.5"/>
<text text-anchor="middle" x="790" y="-811.5" font-family="Helvetica,sans-Serif" font-size="10.00">Ra::Engine::GeometrySystem</text>
<polyline fill="none" stroke="black" points="711,-804.5 869,-804.5 "/>
<text text-anchor="middle" x="790" y="-792.5" font-family="Helvetica,sans-Serif" font-size="10.00"> </text>
<polyline fill="none" stroke="black" points="711,-785.5 869,-785.5 "/>
<text text-anchor="start" x="719" y="-773.5" font-family="Helvetica,sans-Serif" font-size="10.00">+ GeometrySystem()</text>
<text text-anchor="start" x="719" y="-762.5" font-family="Helvetica,sans-Serif" font-size="10.00">+ ~GeometrySystem()</text>
<text text-anchor="start" x="719" y="-751.5" font-family="Helvetica,sans-Serif" font-size="10.00">+ handleAssetLoading()</text>
<text text-anchor="start" x="719" y="-740.5" font-family="Helvetica,sans-Serif" font-size="10.00">+ generateTasks()</text>
</a>
</g>
</g>
<!-- Node1&#45;&gt;Node10 -->
<g id="edge9" class="edge"><title>Node1&#45;&gt;Node10</title>
<path fill="none" stroke="midnightblue" d="M682.034,-896.668C704.713,-872.055 729.261,-845.416 749.21,-823.766"/>
<polygon fill="none" stroke="midnightblue" points="679.265,-894.508 675.062,-904.234 684.413,-899.251 679.265,-894.508"/>
</g>
<!-- Node11 -->
<g id="node11" class="node"><title>Node11</title>
<g id="a_node11"><a xlink:href="classRa_1_1Engine_1_1LightManager.html" target="_top" xlink:title="Interface providing functions to manage a group or type of lights in a specific way. ">
<polygon fill="white" stroke="black" points="887.5,-689.5 887.5,-867.5 1044.5,-867.5 1044.5,-689.5 887.5,-689.5"/>
<text text-anchor="middle" x="966" y="-855.5" font-family="Helvetica,sans-Serif" font-size="10.00">Ra::Engine::LightManager</text>
<polyline fill="none" stroke="black" points="887.5,-848.5 1044.5,-848.5 "/>
<text text-anchor="start" x="895.5" y="-836.5" font-family="Helvetica,sans-Serif" font-size="10.00"># m_data</text>
<polyline fill="none" stroke="black" points="887.5,-829.5 1044.5,-829.5 "/>
<text text-anchor="start" x="895.5" y="-817.5" font-family="Helvetica,sans-Serif" font-size="10.00">+ LightManager()</text>
<text text-anchor="start" x="895.5" y="-806.5" font-family="Helvetica,sans-Serif" font-size="10.00">+ LightManager()</text>
<text text-anchor="start" x="895.5" y="-795.5" font-family="Helvetica,sans-Serif" font-size="10.00">+ operator=()</text>
<text text-anchor="start" x="895.5" y="-784.5" font-family="Helvetica,sans-Serif" font-size="10.00">+ ~LightManager()</text>
<text text-anchor="start" x="895.5" y="-773.5" font-family="Helvetica,sans-Serif" font-size="10.00">+ getLight()</text>
<text text-anchor="start" x="895.5" y="-762.5" font-family="Helvetica,sans-Serif" font-size="10.00">+ addLight()</text>
<text text-anchor="start" x="895.5" y="-751.5" font-family="Helvetica,sans-Serif" font-size="10.00">+ count()</text>
<text text-anchor="start" x="895.5" y="-740.5" font-family="Helvetica,sans-Serif" font-size="10.00">+ generateTasks()</text>
<text text-anchor="start" x="895.5" y="-729.5" font-family="Helvetica,sans-Serif" font-size="10.00">+ handleAssetLoading()</text>
<text text-anchor="start" x="895.5" y="-718.5" font-family="Helvetica,sans-Serif" font-size="10.00"># registerComponent()</text>
<text text-anchor="start" x="895.5" y="-707.5" font-family="Helvetica,sans-Serif" font-size="10.00"># unregisterComponent()</text>
<text text-anchor="start" x="895.5" y="-696.5" font-family="Helvetica,sans-Serif" font-size="10.00"># unregisterAllComponents()</text>
</a>
</g>
</g>
<!-- Node1&#45;&gt;Node11 -->
<g id="edge10" class="edge"><title>Node1&#45;&gt;Node11</title>
<path fill="none" stroke="midnightblue" d="M702.409,-946.397C755.895,-929.402 823.965,-903.347 878,-868 881.173,-865.924 884.324,-863.719 887.44,-861.411"/>
<polygon fill="none" stroke="midnightblue" points="701.098,-943.14 692.598,-949.465 703.187,-949.821 701.098,-943.14"/>
</g>
<!-- Node13 -->
<g id="node13" class="node"><title>Node13</title>
<g id="a_node13"><a xlink:href="classSkinningPlugin_1_1SkinningSystem.html" target="_top" xlink:title="{SkinningPlugin::Skinning\lSystem\n||+ SkinningSystem()\l+ generateTasks()\l+ handleAssetLoading()\l}">
<polygon fill="white" stroke="black" points="1063,-733.5 1063,-823.5 1195,-823.5 1195,-733.5 1063,-733.5"/>
<text text-anchor="start" x="1071" y="-811.5" font-family="Helvetica,sans-Serif" font-size="10.00">SkinningPlugin::Skinning</text>
<text text-anchor="middle" x="1129" y="-800.5" font-family="Helvetica,sans-Serif" font-size="10.00">System</text>
<polyline fill="none" stroke="black" points="1063,-793.5 1195,-793.5 "/>
<text text-anchor="middle" x="1129" y="-781.5" font-family="Helvetica,sans-Serif" font-size="10.00"> </text>
<polyline fill="none" stroke="black" points="1063,-774.5 1195,-774.5 "/>
<text text-anchor="start" x="1071" y="-762.5" font-family="Helvetica,sans-Serif" font-size="10.00">+ SkinningSystem()</text>
<text text-anchor="start" x="1071" y="-751.5" font-family="Helvetica,sans-Serif" font-size="10.00">+ generateTasks()</text>
<text text-anchor="start" x="1071" y="-740.5" font-family="Helvetica,sans-Serif" font-size="10.00">+ handleAssetLoading()</text>
</a>
</g>
</g>
<!-- Node1&#45;&gt;Node13 -->
<g id="edge12" class="edge"><title>Node1&#45;&gt;Node13</title>
<path fill="none" stroke="midnightblue" d="M702.717,-966.14C796.241,-957.991 944.856,-934.666 1054,-868 1072.22,-856.872 1088.21,-839.786 1100.69,-823.584"/>
<polygon fill="none" stroke="midnightblue" points="702.393,-962.655 692.718,-966.972 702.973,-969.631 702.393,-962.655"/>
</g>
<!-- Node5 -->
<g id="node5" class="node"><title>Node5</title>
<g id="a_node5"><a xlink:href="classRa_1_1Engine_1_1BaseCouplingSystem.html" target="_top" xlink:title="{Ra::Engine::BaseCoupling\lSystem\&lt; AbstractTimedSystem \&gt;\n||+ BaseCouplingSystem()\l+ BaseCouplingSystem()\l+ ~BaseCouplingSystem()\l+ operator=()\l+ addSystem()\l+ generateTasks()\l+ handleAssetLoading()\l# dispatch()\l# dispatch()\l# conditionnaldispatch()\l# conditionnaldispatch()\l}">
<polygon fill="white" stroke="black" points="345,-474.5 345,-652.5 527,-652.5 527,-474.5 345,-474.5"/>
<text text-anchor="start" x="353" y="-640.5" font-family="Helvetica,sans-Serif" font-size="10.00">Ra::Engine::BaseCoupling</text>
<text text-anchor="middle" x="436" y="-629.5" font-family="Helvetica,sans-Serif" font-size="10.00">System&lt; AbstractTimedSystem &gt;</text>
<polyline fill="none" stroke="black" points="345,-622.5 527,-622.5 "/>
<text text-anchor="middle" x="436" y="-610.5" font-family="Helvetica,sans-Serif" font-size="10.00"> </text>
<polyline fill="none" stroke="black" points="345,-603.5 527,-603.5 "/>
<text text-anchor="start" x="353" y="-591.5" font-family="Helvetica,sans-Serif" font-size="10.00">+ BaseCouplingSystem()</text>
<text text-anchor="start" x="353" y="-580.5" font-family="Helvetica,sans-Serif" font-size="10.00">+ BaseCouplingSystem()</text>
<text text-anchor="start" x="353" y="-569.5" font-family="Helvetica,sans-Serif" font-size="10.00">+ ~BaseCouplingSystem()</text>
<text text-anchor="start" x="353" y="-558.5" font-family="Helvetica,sans-Serif" font-size="10.00">+ operator=()</text>
<text text-anchor="start" x="353" y="-547.5" font-family="Helvetica,sans-Serif" font-size="10.00">+ addSystem()</text>
<text text-anchor="start" x="353" y="-536.5" font-family="Helvetica,sans-Serif" font-size="10.00">+ generateTasks()</text>
<text text-anchor="start" x="353" y="-525.5" font-family="Helvetica,sans-Serif" font-size="10.00">+ handleAssetLoading()</text>
<text text-anchor="start" x="353" y="-514.5" font-family="Helvetica,sans-Serif" font-size="10.00"># dispatch()</text>
<text text-anchor="start" x="353" y="-503.5" font-family="Helvetica,sans-Serif" font-size="10.00"># dispatch()</text>
<text text-anchor="start" x="353" y="-492.5" font-family="Helvetica,sans-Serif" font-size="10.00"># conditionnaldispatch()</text>
<text text-anchor="start" x="353" y="-481.5" font-family="Helvetica,sans-Serif" font-size="10.00"># conditionnaldispatch()</text>
</a>
</g>
</g>
<!-- Node4&#45;&gt;Node5 -->
<g id="edge4" class="edge"><title>Node4&#45;&gt;Node5</title>
<path fill="none" stroke="midnightblue" d="M439.848,-701.097C439.405,-685.379 438.935,-668.708 438.482,-652.615"/>
<polygon fill="none" stroke="midnightblue" points="436.354,-701.376 440.134,-711.273 443.351,-701.178 436.354,-701.376"/>
</g>
<!-- Node6 -->
<g id="node6" class="node"><title>Node6</title>
<g id="a_node6"><a xlink:href="classRa_1_1Engine_1_1CoupledTimedSystem.html" target="_top" xlink:title="{Ra::Engine::CoupledTimed\lSystem\n||+ play()\l+ step()\l+ reset()\l+ cacheFrame()\l+ restoreFrame()\l}">
<polygon fill="white" stroke="black" points="365.5,-325.5 365.5,-437.5 506.5,-437.5 506.5,-325.5 365.5,-325.5"/>
<text text-anchor="start" x="373.5" y="-425.5" font-family="Helvetica,sans-Serif" font-size="10.00">Ra::Engine::CoupledTimed</text>
<text text-anchor="middle" x="436" y="-414.5" font-family="Helvetica,sans-Serif" font-size="10.00">System</text>
<polyline fill="none" stroke="black" points="365.5,-407.5 506.5,-407.5 "/>
<text text-anchor="middle" x="436" y="-395.5" font-family="Helvetica,sans-Serif" font-size="10.00"> </text>
<polyline fill="none" stroke="black" points="365.5,-388.5 506.5,-388.5 "/>
<text text-anchor="start" x="373.5" y="-376.5" font-family="Helvetica,sans-Serif" font-size="10.00">+ play()</text>
<text text-anchor="start" x="373.5" y="-365.5" font-family="Helvetica,sans-Serif" font-size="10.00">+ step()</text>
<text text-anchor="start" x="373.5" y="-354.5" font-family="Helvetica,sans-Serif" font-size="10.00">+ reset()</text>
<text text-anchor="start" x="373.5" y="-343.5" font-family="Helvetica,sans-Serif" font-size="10.00">+ cacheFrame()</text>
<text text-anchor="start" x="373.5" y="-332.5" font-family="Helvetica,sans-Serif" font-size="10.00">+ restoreFrame()</text>
</a>
</g>
</g>
<!-- Node5&#45;&gt;Node6 -->
<g id="edge5" class="edge"><title>Node5&#45;&gt;Node6</title>
<path fill="none" stroke="midnightblue" d="M436,-464.125C436,-455.097 436,-446.183 436,-437.75"/>
<polygon fill="none" stroke="midnightblue" points="432.5,-464.346 436,-474.346 439.5,-464.346 432.5,-464.346"/>
</g>
<!-- Node7 -->
<g id="node7" class="node"><title>Node7</title>
<g id="a_node7"><a xlink:href="classAnimationPlugin_1_1AnimationSystem.html" target="_top" xlink:title="The AnimationSystem is the main system for coupling TimedSystems. ">
<polygon fill="white" stroke="black" points="356,-0.5 356,-288.5 516,-288.5 516,-0.5 356,-0.5"/>
<text text-anchor="start" x="364" y="-276.5" font-family="Helvetica,sans-Serif" font-size="10.00">AnimationPlugin::Animation</text>
<text text-anchor="middle" x="436" y="-265.5" font-family="Helvetica,sans-Serif" font-size="10.00">System</text>
<polyline fill="none" stroke="black" points="356,-258.5 516,-258.5 "/>
<text text-anchor="middle" x="436" y="-246.5" font-family="Helvetica,sans-Serif" font-size="10.00"> </text>
<polyline fill="none" stroke="black" points="356,-239.5 516,-239.5 "/>
<text text-anchor="start" x="364" y="-227.5" font-family="Helvetica,sans-Serif" font-size="10.00">+ AnimationSystem()</text>
<text text-anchor="start" x="364" y="-216.5" font-family="Helvetica,sans-Serif" font-size="10.00">+ AnimationSystem()</text>
<text text-anchor="start" x="364" y="-205.5" font-family="Helvetica,sans-Serif" font-size="10.00">+ operator=()</text>
<text text-anchor="start" x="364" y="-194.5" font-family="Helvetica,sans-Serif" font-size="10.00">+ generateTasks()</text>
<text text-anchor="start" x="364" y="-183.5" font-family="Helvetica,sans-Serif" font-size="10.00">+ handleAssetLoading()</text>
<text text-anchor="start" x="364" y="-172.5" font-family="Helvetica,sans-Serif" font-size="10.00">+ play()</text>
<text text-anchor="start" x="364" y="-161.5" font-family="Helvetica,sans-Serif" font-size="10.00">+ step()</text>
<text text-anchor="start" x="364" y="-150.5" font-family="Helvetica,sans-Serif" font-size="10.00">+ reset()</text>
<text text-anchor="start" x="364" y="-139.5" font-family="Helvetica,sans-Serif" font-size="10.00">+ cacheFrame()</text>
<text text-anchor="start" x="364" y="-128.5" font-family="Helvetica,sans-Serif" font-size="10.00">+ cacheFrame()</text>
<text text-anchor="start" x="364" y="-117.5" font-family="Helvetica,sans-Serif" font-size="10.00">+ restoreFrame()</text>
<text text-anchor="start" x="364" y="-106.5" font-family="Helvetica,sans-Serif" font-size="10.00">+ setXray()</text>
<text text-anchor="start" x="364" y="-95.5" font-family="Helvetica,sans-Serif" font-size="10.00">+ isXrayOn()</text>
<text text-anchor="start" x="364" y="-84.5" font-family="Helvetica,sans-Serif" font-size="10.00">+ toggleSkeleton()</text>
<text text-anchor="start" x="364" y="-73.5" font-family="Helvetica,sans-Serif" font-size="10.00">+ setAnimation()</text>
<text text-anchor="start" x="364" y="-62.5" font-family="Helvetica,sans-Serif" font-size="10.00">+ toggleAnimationTimeStep()</text>
<text text-anchor="start" x="364" y="-51.5" font-family="Helvetica,sans-Serif" font-size="10.00">+ setAnimationSpeed()</text>
<text text-anchor="start" x="364" y="-40.5" font-family="Helvetica,sans-Serif" font-size="10.00">+ toggleSlowMotion()</text>
<text text-anchor="start" x="364" y="-29.5" font-family="Helvetica,sans-Serif" font-size="10.00">+ getTime()</text>
<text text-anchor="start" x="364" y="-18.5" font-family="Helvetica,sans-Serif" font-size="10.00">+ getAnimFrame()</text>
<text text-anchor="start" x="364" y="-7.5" font-family="Helvetica,sans-Serif" font-size="10.00">+ getMaxFrame()</text>
</a>
</g>
</g>
<!-- Node6&#45;&gt;Node7 -->
<g id="edge6" class="edge"><title>Node6&#45;&gt;Node7</title>
<path fill="none" stroke="midnightblue" d="M436,-315.26C436,-306.745 436,-297.77 436,-288.575"/>
<polygon fill="none" stroke="midnightblue" points="432.5,-315.403 436,-325.403 439.5,-315.403 432.5,-315.403"/>
</g>
<!-- Node9 -->
<g id="node9" class="node"><title>Node9</title>
<g id="a_node9"><a xlink:href="classRa_1_1Engine_1_1DefaultCameraManager.html" target="_top" xlink:title="DefaultCameraManager. ">
<polygon fill="white" stroke="black" points="545,-518.5 545,-608.5 695,-608.5 695,-518.5 545,-518.5"/>
<text text-anchor="start" x="553" y="-596.5" font-family="Helvetica,sans-Serif" font-size="10.00">Ra::Engine::DefaultCamera</text>
<text text-anchor="middle" x="620" y="-585.5" font-family="Helvetica,sans-Serif" font-size="10.00">Manager</text>
<polyline fill="none" stroke="black" points="545,-578.5 695,-578.5 "/>
<text text-anchor="middle" x="620" y="-566.5" font-family="Helvetica,sans-Serif" font-size="10.00"> </text>
<polyline fill="none" stroke="black" points="545,-559.5 695,-559.5 "/>
<text text-anchor="start" x="553" y="-547.5" font-family="Helvetica,sans-Serif" font-size="10.00">+ DefaultCameraManager()</text>
<text text-anchor="start" x="553" y="-536.5" font-family="Helvetica,sans-Serif" font-size="10.00">+ getCamera()</text>
<text text-anchor="start" x="553" y="-525.5" font-family="Helvetica,sans-Serif" font-size="10.00">+ addCamera()</text>
</a>
</g>
</g>
<!-- Node8&#45;&gt;Node9 -->
<g id="edge8" class="edge"><title>Node8&#45;&gt;Node9</title>
<path fill="none" stroke="midnightblue" d="M616.77,-679.162C617.466,-654.455 618.179,-629.158 618.757,-608.633"/>
<polygon fill="none" stroke="midnightblue" points="613.267,-679.233 616.484,-689.327 620.264,-679.43 613.267,-679.233"/>
</g>
<!-- Node12 -->
<g id="node12" class="node"><title>Node12</title>
<g id="a_node12"><a xlink:href="classRa_1_1Engine_1_1DefaultLightManager.html" target="_top" xlink:title="DefaultLightManager. ">
<polygon fill="white" stroke="black" points="898.5,-518.5 898.5,-608.5 1033.5,-608.5 1033.5,-518.5 898.5,-518.5"/>
<text text-anchor="start" x="906.5" y="-596.5" font-family="Helvetica,sans-Serif" font-size="10.00">Ra::Engine::DefaultLight</text>
<text text-anchor="middle" x="966" y="-585.5" font-family="Helvetica,sans-Serif" font-size="10.00">Manager</text>
<polyline fill="none" stroke="black" points="898.5,-578.5 1033.5,-578.5 "/>
<text text-anchor="middle" x="966" y="-566.5" font-family="Helvetica,sans-Serif" font-size="10.00"> </text>
<polyline fill="none" stroke="black" points="898.5,-559.5 1033.5,-559.5 "/>
<text text-anchor="start" x="906.5" y="-547.5" font-family="Helvetica,sans-Serif" font-size="10.00">+ DefaultLightManager()</text>
<text text-anchor="start" x="906.5" y="-536.5" font-family="Helvetica,sans-Serif" font-size="10.00">+ getLight()</text>
<text text-anchor="start" x="906.5" y="-525.5" font-family="Helvetica,sans-Serif" font-size="10.00">+ addLight()</text>
</a>
</g>
</g>
<!-- Node11&#45;&gt;Node12 -->
<g id="edge11" class="edge"><title>Node11&#45;&gt;Node12</title>
<path fill="none" stroke="midnightblue" d="M966,-679.162C966,-654.455 966,-629.158 966,-608.633"/>
<polygon fill="none" stroke="midnightblue" points="962.5,-679.327 966,-689.327 969.5,-679.327 962.5,-679.327"/>
</g>
</g>
</svg>
