<?xml version="1.0" encoding="UTF-8" standalone="no"?>
<!DOCTYPE svg PUBLIC "-//W3C//DTD SVG 1.1//EN"
 "http://www.w3.org/Graphics/SVG/1.1/DTD/svg11.dtd">
<!-- Generated by graphviz version 2.38.0 (20140413.2041)
 -->
<!-- Title: CameraManipPlugin::CameraManipPluginC::useSelectedCamera Pages: 1 -->
<svg width="703pt" height="308pt"
 viewBox="0.00 0.00 703.00 308.00" xmlns="http://www.w3.org/2000/svg" xmlns:xlink="http://www.w3.org/1999/xlink">
<g id="graph0" class="graph" transform="scale(1 1) rotate(0) translate(4 304)">
<title>CameraManipPlugin::CameraManipPluginC::useSelectedCamera</title>
<polygon fill="white" stroke="none" points="-4,4 -4,-304 699,-304 699,4 -4,4"/>
<!-- Node1 -->
<g id="node1" class="node"><title>Node1</title>
<polygon fill="#bfbfbf" stroke="black" points="0,-117 0,-158 125,-158 125,-117 0,-117"/>
<text text-anchor="start" x="8" y="-146" font-family="Helvetica,sans-Serif" font-size="10.00">CameraManipPlugin::</text>
<text text-anchor="start" x="8" y="-135" font-family="Helvetica,sans-Serif" font-size="10.00">CameraManipPluginC::</text>
<text text-anchor="middle" x="62.5" y="-124" font-family="Helvetica,sans-Serif" font-size="10.00">useSelectedCamera</text>
</g>
<!-- Node2 -->
<g id="node2" class="node"><title>Node2</title>
<g id="a_node2"><a xlink:href="classRa_1_1GuiBase_1_1SelectionManager.html#a29cbd250208f1e18d2ab1e0f4d91105d" target="_top" xlink:title="Return the current selected item, or an invalid entry if there is no current item. ">
<polygon fill="white" stroke="black" points="161,-245.5 161,-275.5 328,-275.5 328,-245.5 161,-245.5"/>
<text text-anchor="start" x="169" y="-263.5" font-family="Helvetica,sans-Serif" font-size="10.00">Ra::GuiBase::SelectionManager</text>
<text text-anchor="middle" x="244.5" y="-252.5" font-family="Helvetica,sans-Serif" font-size="10.00">::currentItem</text>
</a>
</g>
</g>
<!-- Node1&#45;&gt;Node2 -->
<g id="edge1" class="edge"><title>Node1&#45;&gt;Node2</title>
<path fill="none" stroke="midnightblue" d="M78.7445,-158.402C96.1971,-180.871 126.821,-216.102 161,-236.5 163.972,-238.274 167.083,-239.923 170.284,-241.456"/>
<polygon fill="midnightblue" stroke="midnightblue" points="168.933,-244.685 179.498,-245.475 171.731,-238.269 168.933,-244.685"/>
</g>
<!-- Node6 -->
<g id="node6" class="node"><title>Node6</title>
<g id="a_node6"><a xlink:href="classRa_1_1Engine_1_1Component.html#aa3e5cb90432a9a49e4362b673652ff76" target="_top" xlink:title="Return the component&#39;s name. ">
<polygon fill="white" stroke="black" points="180,-196.5 180,-226.5 309,-226.5 309,-196.5 180,-196.5"/>
<text text-anchor="start" x="188" y="-214.5" font-family="Helvetica,sans-Serif" font-size="10.00">Ra::Engine::Component</text>
<text text-anchor="middle" x="244.5" y="-203.5" font-family="Helvetica,sans-Serif" font-size="10.00">::getName</text>
</a>
</g>
</g>
<!-- Node1&#45;&gt;Node6 -->
<g id="edge5" class="edge"><title>Node1&#45;&gt;Node6</title>
<path fill="none" stroke="midnightblue" d="M99.7674,-158.193C117.797,-167.935 140.141,-179.206 161,-187.5 166.025,-189.498 171.28,-191.411 176.601,-193.224"/>
<polygon fill="midnightblue" stroke="midnightblue" points="175.62,-196.586 186.213,-196.375 177.801,-189.934 175.62,-196.586"/>
</g>
<!-- Node7 -->
<g id="node7" class="node"><title>Node7</title>
<g id="a_node7"><a xlink:href="classRa_1_1Gui_1_1Viewer.html#a4c52ddd225ed6e8fe630a7b1ac4c138f" target="_top" xlink:title="Access to camera interface. ">
<polygon fill="white" stroke="black" points="170.5,-147.5 170.5,-177.5 318.5,-177.5 318.5,-147.5 170.5,-147.5"/>
<text text-anchor="start" x="178.5" y="-165.5" font-family="Helvetica,sans-Serif" font-size="10.00">Ra::Gui::Viewer::getCamera</text>
<text text-anchor="middle" x="244.5" y="-154.5" font-family="Helvetica,sans-Serif" font-size="10.00">Interface</text>
</a>
</g>
</g>
<!-- Node1&#45;&gt;Node7 -->
<g id="edge6" class="edge"><title>Node1&#45;&gt;Node7</title>
<path fill="none" stroke="midnightblue" d="M125.194,-146.069C136.564,-147.648 148.604,-149.32 160.482,-150.97"/>
<polygon fill="midnightblue" stroke="midnightblue" points="160.016,-154.438 170.402,-152.348 160.979,-147.505 160.016,-154.438"/>
</g>
<!-- Node8 -->
<g id="node8" class="node"><title>Node8</title>
<g id="a_node8"><a xlink:href="classRa_1_1Gui_1_1CameraInterface.html#a2ea6e39df7373ffead7afa626c8ac6d6" target="_top" xlink:title="Pointer access to the camera. ">
<polygon fill="white" stroke="black" points="176,-98.5 176,-128.5 313,-128.5 313,-98.5 176,-98.5"/>
<text text-anchor="start" x="184" y="-116.5" font-family="Helvetica,sans-Serif" font-size="10.00">Ra::Gui::CameraInterface</text>
<text text-anchor="middle" x="244.5" y="-105.5" font-family="Helvetica,sans-Serif" font-size="10.00">::getCamera</text>
</a>
</g>
</g>
<!-- Node1&#45;&gt;Node8 -->
<g id="edge7" class="edge"><title>Node1&#45;&gt;Node8</title>
<path fill="none" stroke="midnightblue" d="M125.194,-129.274C138.17,-127.544 152.019,-125.697 165.503,-123.9"/>
<polygon fill="midnightblue" stroke="midnightblue" points="166.273,-127.328 175.722,-122.537 165.347,-120.389 166.273,-127.328"/>
</g>
<!-- Node9 -->
<g id="node9" class="node"><title>Node9</title>
<g id="a_node9"><a xlink:href="classRa_1_1Engine_1_1Camera.html#a4c2aac5ad419cef7720e2a18d93b3703" target="_top" xlink:title="Toggle on/off displaying the Camera. ">
<polygon fill="white" stroke="black" points="189,-49.5 189,-79.5 300,-79.5 300,-49.5 189,-49.5"/>
<text text-anchor="start" x="197" y="-67.5" font-family="Helvetica,sans-Serif" font-size="10.00">Ra::Engine::Camera</text>
<text text-anchor="middle" x="244.5" y="-56.5" font-family="Helvetica,sans-Serif" font-size="10.00">::show</text>
</a>
</g>
</g>
<!-- Node1&#45;&gt;Node9 -->
<g id="edge8" class="edge"><title>Node1&#45;&gt;Node9</title>
<path fill="none" stroke="midnightblue" d="M100.734,-116.775C118.61,-107.351 140.547,-96.5367 161,-88.5 166.831,-86.2088 172.969,-84.0234 179.157,-81.9708"/>
<polygon fill="midnightblue" stroke="midnightblue" points="180.427,-85.2394 188.885,-78.8584 178.294,-78.5724 180.427,-85.2394"/>
</g>
<!-- Node11 -->
<g id="node11" class="node"><title>Node11</title>
<g id="a_node11"><a xlink:href="classRa_1_1Gui_1_1CameraInterface.html#aa2ae818a4c8089c0aad905e3cad5441f" target="_top" xlink:title="Set the Camera used to render the scene. ">
<polygon fill="white" stroke="black" points="176,-0.5 176,-30.5 313,-30.5 313,-0.5 176,-0.5"/>
<text text-anchor="start" x="184" y="-18.5" font-family="Helvetica,sans-Serif" font-size="10.00">Ra::Gui::CameraInterface</text>
<text text-anchor="middle" x="244.5" y="-7.5" font-family="Helvetica,sans-Serif" font-size="10.00">::setCamera</text>
</a>
</g>
</g>
<!-- Node1&#45;&gt;Node11 -->
<g id="edge10" class="edge"><title>Node1&#45;&gt;Node11</title>
<path fill="none" stroke="midnightblue" d="M78.7913,-116.815C96.2848,-94.5775 126.944,-59.7076 161,-39.5 163.977,-37.7338 167.091,-36.0906 170.295,-34.5626"/>
<polygon fill="midnightblue" stroke="midnightblue" points="171.74,-37.7509 179.516,-30.5551 168.95,-31.3309 171.74,-37.7509"/>
</g>
<!-- Node3 -->
<g id="node3" class="node"><title>Node3</title>
<g id="a_node3"><a xlink:href="classRa_1_1GuiBase_1_1SelectionManager.html#aec178a6b3de1c04e5e1d16ff72c6e966" target="_top" xlink:title="Ra::GuiBase::SelectionManager\l::itemModel">
<polygon fill="white" stroke="black" points="364,-269.5 364,-299.5 531,-299.5 531,-269.5 364,-269.5"/>
<text text-anchor="start" x="372" y="-287.5" font-family="Helvetica,sans-Serif" font-size="10.00">Ra::GuiBase::SelectionManager</text>
<text text-anchor="middle" x="447.5" y="-276.5" font-family="Helvetica,sans-Serif" font-size="10.00">::itemModel</text>
</a>
</g>
</g>
<!-- Node2&#45;&gt;Node3 -->
<g id="edge2" class="edge"><title>Node2&#45;&gt;Node3</title>
<path fill="none" stroke="midnightblue" d="M328.125,-270.366C336.607,-271.379 345.266,-272.412 353.848,-273.437"/>
<polygon fill="midnightblue" stroke="midnightblue" points="353.527,-276.924 363.872,-274.634 354.357,-269.973 353.527,-276.924"/>
</g>
<!-- Node4 -->
<g id="node4" class="node"><title>Node4</title>
<g id="a_node4"><a xlink:href="classRa_1_1GuiBase_1_1ItemModel.html#a3236433d461ad6cac5e9390b2685fa3f" target="_top" xlink:title="Returns the entry corresponding to a given index or an invalid entry if the index doesn&#39;t match any e...">
<polygon fill="white" stroke="black" points="382,-220.5 382,-250.5 513,-250.5 513,-220.5 382,-220.5"/>
<text text-anchor="start" x="390" y="-238.5" font-family="Helvetica,sans-Serif" font-size="10.00">Ra::GuiBase::ItemModel</text>
<text text-anchor="middle" x="447.5" y="-227.5" font-family="Helvetica,sans-Serif" font-size="10.00">::getEntry</text>
</a>
</g>
</g>
<!-- Node2&#45;&gt;Node4 -->
<g id="edge3" class="edge"><title>Node2&#45;&gt;Node4</title>
<path fill="none" stroke="midnightblue" d="M328.125,-250.223C342.501,-248.435 357.382,-246.584 371.538,-244.824"/>
<polygon fill="midnightblue" stroke="midnightblue" points="372.21,-248.267 381.701,-243.56 371.346,-241.321 372.21,-248.267"/>
</g>
<!-- Node5 -->
<g id="node5" class="node"><title>Node5</title>
<g id="a_node5"><a xlink:href="classRa_1_1GuiBase_1_1TreeModel.html#a5aa24ace72c1c3d29e268cb34dc576f2" target="_top" xlink:title="Get the tree item corresponding to the given index. ">
<polygon fill="white" stroke="black" points="567,-220.5 567,-250.5 695,-250.5 695,-220.5 567,-220.5"/>
<text text-anchor="start" x="575" y="-238.5" font-family="Helvetica,sans-Serif" font-size="10.00">Ra::GuiBase::TreeModel</text>
<text text-anchor="middle" x="631" y="-227.5" font-family="Helvetica,sans-Serif" font-size="10.00">::getItem</text>
</a>
</g>
</g>
<!-- Node4&#45;&gt;Node5 -->
<g id="edge4" class="edge"><title>Node4&#45;&gt;Node5</title>
<path fill="none" stroke="midnightblue" d="M513.001,-235.5C527.104,-235.5 542.131,-235.5 556.553,-235.5"/>
<polygon fill="midnightblue" stroke="midnightblue" points="556.926,-239 566.926,-235.5 556.926,-232 556.926,-239"/>
</g>
<!-- Node10 -->
<g id="node10" class="node"><title>Node10</title>
<g id="a_node10"><a xlink:href="classRa_1_1Engine_1_1RenderObject.html#a62e0eb3a7de5a7d352b565a28260cc06" target="_top" xlink:title="Ra::Engine::RenderObject\l::setVisible">
<polygon fill="white" stroke="black" points="379,-49.5 379,-79.5 516,-79.5 516,-49.5 379,-49.5"/>
<text text-anchor="start" x="387" y="-67.5" font-family="Helvetica,sans-Serif" font-size="10.00">Ra::Engine::RenderObject</text>
<text text-anchor="middle" x="447.5" y="-56.5" font-family="Helvetica,sans-Serif" font-size="10.00">::setVisible</text>
</a>
</g>
</g>
<!-- Node9&#45;&gt;Node10 -->
<g id="edge9" class="edge"><title>Node9&#45;&gt;Node10</title>
<path fill="none" stroke="midnightblue" d="M300.159,-64.5C321.323,-64.5 345.939,-64.5 368.877,-64.5"/>
<polygon fill="midnightblue" stroke="midnightblue" points="368.933,-68.0001 378.933,-64.5 368.933,-61.0001 368.933,-68.0001"/>
</g>
</g>
</svg>
