<?xml version="1.0" encoding="UTF-8" standalone="no"?>
<!DOCTYPE svg PUBLIC "-//W3C//DTD SVG 1.1//EN"
 "http://www.w3.org/Graphics/SVG/1.1/DTD/svg11.dtd">
<!-- Generated by graphviz version 2.38.0 (20140413.2041)
 -->
<!-- Title: Ra::Engine::Mesh::getRenderMode Pages: 1 -->
<svg width="1052pt" height="39pt"
 viewBox="0.00 0.00 1052.00 39.00" xmlns="http://www.w3.org/2000/svg" xmlns:xlink="http://www.w3.org/1999/xlink">
<g id="graph0" class="graph" transform="scale(1 1) rotate(0) translate(4 35)">
<title>Ra::Engine::Mesh::getRenderMode</title>
<polygon fill="white" stroke="none" points="-4,4 -4,-35 1048,-35 1048,4 -4,4"/>
<!-- Node1 -->
<g id="node1" class="node"><title>Node1</title>
<polygon fill="#bfbfbf" stroke="black" points="0,-6 0,-25 179,-25 179,-6 0,-6"/>
<text text-anchor="middle" x="89.5" y="-13" font-family="Helvetica,sans-Serif" font-size="10.00">Ra::Engine::Mesh::getRenderMode</text>
</g>
<!-- Node2 -->
<g id="node2" class="node"><title>Node2</title>
<g id="a_node2"><a xlink:href="namespaceRa_1_1Engine.html#a4674a5cd2b0ff5b978b40172d0c24654" target="_top" xlink:title="Ra::Engine::sendGLData">
<polygon fill="white" stroke="black" points="215,-6 215,-25 347,-25 347,-6 215,-6"/>
<text text-anchor="middle" x="281" y="-13" font-family="Helvetica,sans-Serif" font-size="10.00">Ra::Engine::sendGLData</text>
</a>
</g>
</g>
<!-- Node1&#45;&gt;Node2 -->
<g id="edge1" class="edge"><title>Node1&#45;&gt;Node2</title>
<path fill="none" stroke="midnightblue" d="M179.147,-15.5C187.707,-15.5 196.334,-15.5 204.747,-15.5"/>
<polygon fill="midnightblue" stroke="midnightblue" points="204.883,-19.0001 214.883,-15.5 204.883,-12.0001 204.883,-19.0001"/>
</g>
<!-- Node3 -->
<g id="node3" class="node"><title>Node3</title>
<g id="a_node3"><a xlink:href="namespaceRa_1_1Engine_1_1DrawPrimitives.html#ae5ee79fb923c94ae9382e98ce4516730" target="_top" xlink:title="Displays given vector shown as an arrow originating from &#39;start&#39;. ">
<polygon fill="white" stroke="black" points="383,-0.5 383,-30.5 526,-30.5 526,-0.5 383,-0.5"/>
<text text-anchor="start" x="391" y="-18.5" font-family="Helvetica,sans-Serif" font-size="10.00">Ra::Engine::DrawPrimitives</text>
<text text-anchor="middle" x="454.5" y="-7.5" font-family="Helvetica,sans-Serif" font-size="10.00">::Vector</text>
</a>
</g>
</g>
<!-- Node2&#45;&gt;Node3 -->
<g id="edge2" class="edge"><title>Node2&#45;&gt;Node3</title>
<path fill="none" stroke="midnightblue" d="M347.326,-15.5C355.695,-15.5 364.339,-15.5 372.914,-15.5"/>
<polygon fill="midnightblue" stroke="midnightblue" points="372.927,-19.0001 382.927,-15.5 372.927,-12.0001 372.927,-19.0001"/>
</g>
<!-- Node4 -->
<g id="node4" class="node"><title>Node4</title>
<g id="a_node4"><a xlink:href="namespaceRa_1_1Core_1_1Vector.html#a0464b705193d326a5102691dd58d753d" target="_top" xlink:title="Get two vectors orthogonal to a given vector. ">
<polygon fill="white" stroke="black" points="562,-0.5 562,-30.5 731,-30.5 731,-0.5 562,-0.5"/>
<text text-anchor="start" x="570" y="-18.5" font-family="Helvetica,sans-Serif" font-size="10.00">Ra::Core::Vector::getOrthogonal</text>
<text text-anchor="middle" x="646.5" y="-7.5" font-family="Helvetica,sans-Serif" font-size="10.00">Vectors</text>
</a>
</g>
</g>
<!-- Node3&#45;&gt;Node4 -->
<g id="edge3" class="edge"><title>Node3&#45;&gt;Node4</title>
<path fill="none" stroke="midnightblue" d="M526.249,-15.5C534.591,-15.5 543.2,-15.5 551.795,-15.5"/>
<polygon fill="midnightblue" stroke="midnightblue" points="551.861,-19.0001 561.861,-15.5 551.861,-12.0001 551.861,-19.0001"/>
</g>
<!-- Node5 -->
<g id="node5" class="node"><title>Node5</title>
<g id="a_node5"><a xlink:href="namespaceRa_1_1Core_1_1Math.html#a90f0fe9079f5bb86c721ea4b61738470" target="_top" xlink:title="Returns the sign of any numeric type as { &#45;1, 0, 1}. ">
<polygon fill="white" stroke="black" points="767,-6 767,-25 880,-25 880,-6 767,-6"/>
<text text-anchor="middle" x="823.5" y="-13" font-family="Helvetica,sans-Serif" font-size="10.00">Ra::Core::Math::sign</text>
</a>
</g>
</g>
<!-- Node4&#45;&gt;Node5 -->
<g id="edge4" class="edge"><title>Node4&#45;&gt;Node5</title>
<path fill="none" stroke="midnightblue" d="M731.156,-15.5C739.777,-15.5 748.449,-15.5 756.835,-15.5"/>
<polygon fill="midnightblue" stroke="midnightblue" points="756.899,-19.0001 766.899,-15.5 756.899,-12.0001 756.899,-19.0001"/>
</g>
<!-- Node6 -->
<g id="node6" class="node"><title>Node6</title>
<g id="a_node6"><a xlink:href="namespaceRa_1_1Core_1_1Math.html#ae4e681e0738fe7e5bfd028c6270b597a" target="_top" xlink:title="Ra::Core::Math::signum">
<polygon fill="white" stroke="black" points="916,-6 916,-25 1044,-25 1044,-6 916,-6"/>
<text text-anchor="middle" x="980" y="-13" font-family="Helvetica,sans-Serif" font-size="10.00">Ra::Core::Math::signum</text>
</a>
</g>
</g>
<!-- Node5&#45;&gt;Node6 -->
<g id="edge5" class="edge"><title>Node5&#45;&gt;Node6</title>
<path fill="none" stroke="midnightblue" d="M880.278,-15.5C888.603,-15.5 897.289,-15.5 905.906,-15.5"/>
<polygon fill="midnightblue" stroke="midnightblue" points="905.964,-19.0001 915.964,-15.5 905.964,-12.0001 905.964,-19.0001"/>
</g>
</g>
</svg>
