<?xml version="1.0" encoding="UTF-8" standalone="no"?>
<!DOCTYPE svg PUBLIC "-//W3C//DTD SVG 1.1//EN"
 "http://www.w3.org/Graphics/SVG/1.1/DTD/svg11.dtd">
<!-- Generated by graphviz version 2.38.0 (20140413.2041)
 -->
<!-- Title: Ra::Engine::RadiumEngine::initialize Pages: 1 -->
<svg width="789pt" height="284pt"
 viewBox="0.00 0.00 789.00 284.00" xmlns="http://www.w3.org/2000/svg" xmlns:xlink="http://www.w3.org/1999/xlink">
<g id="graph0" class="graph" transform="scale(1 1) rotate(0) translate(4 280)">
<title>Ra::Engine::RadiumEngine::initialize</title>
<polygon fill="white" stroke="none" points="-4,4 -4,-280 785,-280 785,4 -4,4"/>
<!-- Node1 -->
<g id="node1" class="node"><title>Node1</title>
<polygon fill="#bfbfbf" stroke="black" points="0,-122.5 0,-152.5 141,-152.5 141,-122.5 0,-122.5"/>
<text text-anchor="start" x="8" y="-140.5" font-family="Helvetica,sans-Serif" font-size="10.00">Ra::Engine::RadiumEngine</text>
<text text-anchor="middle" x="70.5" y="-129.5" font-family="Helvetica,sans-Serif" font-size="10.00">::initialize</text>
</g>
<!-- Node2 -->
<g id="node2" class="node"><title>Node2</title>
<g id="a_node2"><a xlink:href="classRa_1_1Engine_1_1BlinnPhongMaterial.html#afddfa0302459dcc502e9a62441d7a87b" target="_top" xlink:title="Register the material in the material library. ">
<polygon fill="white" stroke="black" points="177,-122.5 177,-152.5 341,-152.5 341,-122.5 177,-122.5"/>
<text text-anchor="start" x="185" y="-140.5" font-family="Helvetica,sans-Serif" font-size="10.00">Ra::Engine::BlinnPhongMaterial</text>
<text text-anchor="middle" x="259" y="-129.5" font-family="Helvetica,sans-Serif" font-size="10.00">::registerMaterial</text>
</a>
</g>
</g>
<!-- Node1&#45;&gt;Node2 -->
<g id="edge1" class="edge"><title>Node1&#45;&gt;Node2</title>
<path fill="none" stroke="midnightblue" d="M141.211,-137.5C149.54,-137.5 158.136,-137.5 166.711,-137.5"/>
<polygon fill="midnightblue" stroke="midnightblue" points="166.749,-141 176.749,-137.5 166.749,-134 166.749,-141"/>
</g>
<!-- Node3 -->
<g id="node3" class="node"><title>Node3</title>
<g id="a_node3"><a xlink:href="namespaceRa_1_1Engine_1_1EngineMaterialConverters.html#ac79f2e35d9ad3d13a9aa484bdfcf68fa" target="_top" xlink:title="register a new material converter ">
<polygon fill="white" stroke="black" points="377,-245.5 377,-275.5 574,-275.5 574,-245.5 377,-245.5"/>
<text text-anchor="start" x="385" y="-263.5" font-family="Helvetica,sans-Serif" font-size="10.00">Ra::Engine::EngineMaterial</text>
<text text-anchor="middle" x="475.5" y="-252.5" font-family="Helvetica,sans-Serif" font-size="10.00">Converters::registerMaterialConverter</text>
</a>
</g>
</g>
<!-- Node2&#45;&gt;Node3 -->
<g id="edge2" class="edge"><title>Node2&#45;&gt;Node3</title>
<path fill="none" stroke="midnightblue" d="M273.533,-152.74C293.826,-174.631 334.337,-214.732 377,-236.5 380.799,-238.439 384.763,-240.226 388.826,-241.873"/>
<polygon fill="midnightblue" stroke="midnightblue" points="387.859,-245.248 398.451,-245.468 390.307,-238.69 387.859,-245.248"/>
</g>
<!-- Node4 -->
<g id="node4" class="node"><title>Node4</title>
<g id="a_node4"><a xlink:href="namespaceRa_1_1Engine_1_1ShaderConfigurationFactory.html#a36842535508a390108fb1205210a5c49" target="_top" xlink:title="Add a configuration to the factory. ">
<polygon fill="white" stroke="black" points="390,-196.5 390,-226.5 561,-226.5 561,-196.5 390,-196.5"/>
<text text-anchor="start" x="398" y="-214.5" font-family="Helvetica,sans-Serif" font-size="10.00">Ra::Engine::ShaderConfiguration</text>
<text text-anchor="middle" x="475.5" y="-203.5" font-family="Helvetica,sans-Serif" font-size="10.00">Factory::addConfiguration</text>
</a>
</g>
</g>
<!-- Node2&#45;&gt;Node4 -->
<g id="edge3" class="edge"><title>Node2&#45;&gt;Node4</title>
<path fill="none" stroke="midnightblue" d="M291.736,-152.726C314.967,-163.46 347.46,-177.625 377,-187.5 383.498,-189.672 390.299,-191.743 397.157,-193.693"/>
<polygon fill="midnightblue" stroke="midnightblue" points="396.647,-197.182 407.217,-196.46 398.503,-190.433 396.647,-197.182"/>
</g>
<!-- Node5 -->
<g id="node5" class="node"><title>Node5</title>
<g id="a_node5"><a xlink:href="namespaceRa_1_1Engine_1_1EngineRenderTechniques.html#affc37bf84d5ff81342b5c09587eedc34" target="_top" xlink:title="register a new default builder for a technique ">
<polygon fill="white" stroke="black" points="378.5,-147.5 378.5,-177.5 572.5,-177.5 572.5,-147.5 378.5,-147.5"/>
<text text-anchor="start" x="386.5" y="-165.5" font-family="Helvetica,sans-Serif" font-size="10.00">Ra::Engine::EngineRender</text>
<text text-anchor="middle" x="475.5" y="-154.5" font-family="Helvetica,sans-Serif" font-size="10.00">Techniques::registerDefaultTechnique</text>
</a>
</g>
</g>
<!-- Node2&#45;&gt;Node5 -->
<g id="edge4" class="edge"><title>Node2&#45;&gt;Node5</title>
<path fill="none" stroke="midnightblue" d="M341.093,-146.951C349.885,-147.976 358.927,-149.03 367.963,-150.083"/>
<polygon fill="midnightblue" stroke="midnightblue" points="367.809,-153.589 378.147,-151.27 368.62,-146.636 367.809,-153.589"/>
</g>
<!-- Node6 -->
<g id="node6" class="node"><title>Node6</title>
<g id="a_node6"><a xlink:href="classRa_1_1Engine_1_1BlinnPhongMaterial.html#a1678c886bb86bbab2c951ec6228d0c75" target="_top" xlink:title="Test if material is transperent. ">
<polygon fill="white" stroke="black" points="393.5,-98.5 393.5,-128.5 557.5,-128.5 557.5,-98.5 393.5,-98.5"/>
<text text-anchor="start" x="401.5" y="-116.5" font-family="Helvetica,sans-Serif" font-size="10.00">Ra::Engine::BlinnPhongMaterial</text>
<text text-anchor="middle" x="475.5" y="-105.5" font-family="Helvetica,sans-Serif" font-size="10.00">::isTransparent</text>
</a>
</g>
</g>
<!-- Node2&#45;&gt;Node6 -->
<g id="edge5" class="edge"><title>Node2&#45;&gt;Node6</title>
<path fill="none" stroke="midnightblue" d="M341.093,-128.427C354.84,-126.888 369.198,-125.282 383.186,-123.717"/>
<polygon fill="midnightblue" stroke="midnightblue" points="383.743,-127.177 393.292,-122.586 382.965,-120.22 383.743,-127.177"/>
</g>
<!-- Node8 -->
<g id="node8" class="node"><title>Node8</title>
<g id="a_node8"><a xlink:href="namespaceRa_1_1Engine_1_1ShaderConfigurationFactory.html#a0bc60f21dbabd745961037f3d2f019c8" target="_top" xlink:title="Get a configuration from the factory. ">
<polygon fill="white" stroke="black" points="390,-49.5 390,-79.5 561,-79.5 561,-49.5 390,-49.5"/>
<text text-anchor="start" x="398" y="-67.5" font-family="Helvetica,sans-Serif" font-size="10.00">Ra::Engine::ShaderConfiguration</text>
<text text-anchor="middle" x="475.5" y="-56.5" font-family="Helvetica,sans-Serif" font-size="10.00">Factory::getConfiguration</text>
</a>
</g>
</g>
<!-- Node2&#45;&gt;Node8 -->
<g id="edge7" class="edge"><title>Node2&#45;&gt;Node8</title>
<path fill="none" stroke="midnightblue" d="M293.076,-122.495C316.259,-112.335 348.137,-99.07 377,-89.5 384.665,-86.9586 392.74,-84.5201 400.826,-82.2301"/>
<polygon fill="midnightblue" stroke="midnightblue" points="401.961,-85.5479 410.67,-79.5136 400.099,-78.8001 401.961,-85.5479"/>
</g>
<!-- Node10 -->
<g id="node10" class="node"><title>Node10</title>
<g id="a_node10"><a xlink:href="classRa_1_1Engine_1_1RenderTechnique.html#aaf860d7c30aef24f7c24016952cd8f00" target="_top" xlink:title="Ra::Engine::RenderTechnique\l::setConfiguration">
<polygon fill="white" stroke="black" points="399,-0.5 399,-30.5 552,-30.5 552,-0.5 399,-0.5"/>
<text text-anchor="start" x="407" y="-18.5" font-family="Helvetica,sans-Serif" font-size="10.00">Ra::Engine::RenderTechnique</text>
<text text-anchor="middle" x="475.5" y="-7.5" font-family="Helvetica,sans-Serif" font-size="10.00">::setConfiguration</text>
</a>
</g>
</g>
<!-- Node2&#45;&gt;Node10 -->
<g id="edge9" class="edge"><title>Node2&#45;&gt;Node10</title>
<path fill="none" stroke="midnightblue" d="M273.968,-122.276C294.488,-100.832 334.926,-61.9574 377,-40.5 381.601,-38.1536 386.439,-36.0158 391.398,-34.0697"/>
<polygon fill="midnightblue" stroke="midnightblue" points="392.851,-37.2655 401.053,-30.559 390.459,-30.6868 392.851,-37.2655"/>
</g>
<!-- Node7 -->
<g id="node7" class="node"><title>Node7</title>
<g id="a_node7"><a xlink:href="classRa_1_1Engine_1_1Material.html#aaee4ad66930200c441f908fe45a9f2a0" target="_top" xlink:title="Test if material is transperent. ">
<polygon fill="white" stroke="black" points="640,-98.5 640,-128.5 751,-128.5 751,-98.5 640,-98.5"/>
<text text-anchor="start" x="648" y="-116.5" font-family="Helvetica,sans-Serif" font-size="10.00">Ra::Engine::Material</text>
<text text-anchor="middle" x="695.5" y="-105.5" font-family="Helvetica,sans-Serif" font-size="10.00">::isTransparent</text>
</a>
</g>
</g>
<!-- Node6&#45;&gt;Node7 -->
<g id="edge6" class="edge"><title>Node6&#45;&gt;Node7</title>
<path fill="none" stroke="midnightblue" d="M557.675,-113.5C581.4,-113.5 607.01,-113.5 629.586,-113.5"/>
<polygon fill="midnightblue" stroke="midnightblue" points="629.727,-117 639.727,-113.5 629.727,-110 629.727,-117"/>
</g>
<!-- Node9 -->
<g id="node9" class="node"><title>Node9</title>
<g id="a_node9"><a xlink:href="classRa_1_1Engine_1_1ShaderConfiguration.html#a7e20a600c78e8627f0238b342f4b42f2" target="_top" xlink:title="Ra::Engine::ShaderConfiguration\l::getDefaultShaderConfig">
<polygon fill="white" stroke="black" points="610,-49.5 610,-79.5 781,-79.5 781,-49.5 610,-49.5"/>
<text text-anchor="start" x="618" y="-67.5" font-family="Helvetica,sans-Serif" font-size="10.00">Ra::Engine::ShaderConfiguration</text>
<text text-anchor="middle" x="695.5" y="-56.5" font-family="Helvetica,sans-Serif" font-size="10.00">::getDefaultShaderConfig</text>
</a>
</g>
</g>
<!-- Node8&#45;&gt;Node9 -->
<g id="edge8" class="edge"><title>Node8&#45;&gt;Node9</title>
<path fill="none" stroke="midnightblue" d="M561.097,-64.5C573.751,-64.5 586.869,-64.5 599.718,-64.5"/>
<polygon fill="midnightblue" stroke="midnightblue" points="599.951,-68.0001 609.951,-64.5 599.951,-61.0001 599.951,-68.0001"/>
</g>
</g>
</svg>
