<?xml version="1.0" encoding="UTF-8" standalone="no"?>
<!DOCTYPE svg PUBLIC "-//W3C//DTD SVG 1.1//EN"
 "http://www.w3.org/Graphics/SVG/1.1/DTD/svg11.dtd">
<!-- Generated by graphviz version 2.38.0 (20140413.2041)
 -->
<!-- Title: Ra::Engine::Component::~Component Pages: 1 -->
<svg width="663pt" height="183pt"
 viewBox="0.00 0.00 663.00 183.00" xmlns="http://www.w3.org/2000/svg" xmlns:xlink="http://www.w3.org/1999/xlink">
<g id="graph0" class="graph" transform="scale(1 1) rotate(0) translate(4 179)">
<title>Ra::Engine::Component::~Component</title>
<polygon fill="white" stroke="none" points="-4,4 -4,-179 659,-179 659,4 -4,4"/>
<!-- Node1 -->
<g id="node1" class="node"><title>Node1</title>
<polygon fill="#bfbfbf" stroke="black" points="0,-73.5 0,-103.5 129,-103.5 129,-73.5 0,-73.5"/>
<text text-anchor="start" x="8" y="-91.5" font-family="Helvetica,sans-Serif" font-size="10.00">Ra::Engine::Component</text>
<text text-anchor="middle" x="64.5" y="-80.5" font-family="Helvetica,sans-Serif" font-size="10.00">::~Component</text>
</g>
<!-- Node2 -->
<g id="node2" class="node"><title>Node2</title>
<g id="a_node2"><a xlink:href="classRa_1_1Engine_1_1Component.html#a10b0bc182b76165744ebea603ae32dfe" target="_top" xlink:title="Shortcut to access the render object manager. ">
<polygon fill="white" stroke="black" points="183,-144.5 183,-174.5 312,-174.5 312,-144.5 183,-144.5"/>
<text text-anchor="start" x="191" y="-162.5" font-family="Helvetica,sans-Serif" font-size="10.00">Ra::Engine::Component</text>
<text text-anchor="middle" x="247.5" y="-151.5" font-family="Helvetica,sans-Serif" font-size="10.00">::getRoMgr</text>
</a>
</g>
</g>
<!-- Node1&#45;&gt;Node2 -->
<g id="edge1" class="edge"><title>Node1&#45;&gt;Node2</title>
<path fill="none" stroke="midnightblue" d="M94.5863,-103.705C114.155,-113.567 140.719,-126.254 165,-135.5 170.169,-137.468 175.573,-139.375 181.031,-141.196"/>
<polygon fill="midnightblue" stroke="midnightblue" points="180.285,-144.633 190.877,-144.375 182.436,-137.972 180.285,-144.633"/>
</g>
<!-- Node3 -->
<g id="node3" class="node"><title>Node3</title>
<g id="a_node3"><a xlink:href="classRa_1_1Engine_1_1RenderObjectManager.html#a799b29b7dae9b6b86aaf96d4e5567d0b" target="_top" xlink:title="Ra::Engine::RenderObject\lManager::removeRenderObject">
<polygon fill="white" stroke="black" points="165,-95.5 165,-125.5 330,-125.5 330,-95.5 165,-95.5"/>
<text text-anchor="start" x="173" y="-113.5" font-family="Helvetica,sans-Serif" font-size="10.00">Ra::Engine::RenderObject</text>
<text text-anchor="middle" x="247.5" y="-102.5" font-family="Helvetica,sans-Serif" font-size="10.00">Manager::removeRenderObject</text>
</a>
</g>
</g>
<!-- Node1&#45;&gt;Node3 -->
<g id="edge2" class="edge"><title>Node1&#45;&gt;Node3</title>
<path fill="none" stroke="midnightblue" d="M129.059,-96.2254C137.406,-97.2399 146.088,-98.2953 154.786,-99.3524"/>
<polygon fill="midnightblue" stroke="midnightblue" points="154.635,-102.86 164.984,-100.592 155.479,-95.9109 154.635,-102.86"/>
</g>
<!-- Node6 -->
<g id="node6" class="node"><title>Node6</title>
<g id="a_node6"><a xlink:href="classRa_1_1Engine_1_1System.html#a509b1d1ca6c09f98d483f06a5db7737f" target="_top" xlink:title="Unregisters a component. ">
<polygon fill="white" stroke="black" points="183.5,-7.5 183.5,-37.5 311.5,-37.5 311.5,-7.5 183.5,-7.5"/>
<text text-anchor="start" x="191.5" y="-25.5" font-family="Helvetica,sans-Serif" font-size="10.00">Ra::Engine::System</text>
<text text-anchor="middle" x="247.5" y="-14.5" font-family="Helvetica,sans-Serif" font-size="10.00">::unregisterComponent</text>
</a>
</g>
</g>
<!-- Node1&#45;&gt;Node6 -->
<g id="edge5" class="edge"><title>Node1&#45;&gt;Node6</title>
<path fill="none" stroke="midnightblue" d="M107.025,-73.3583C133.353,-63.758 167.595,-51.2721 195.561,-41.0744"/>
<polygon fill="midnightblue" stroke="midnightblue" points="196.972,-44.2853 205.168,-37.5713 194.574,-37.7089 196.972,-44.2853"/>
</g>
<!-- Node7 -->
<g id="node7" class="node"><title>Node7</title>
<g id="a_node7"><a xlink:href="classRa_1_1Engine_1_1Component.html#a207c1dc2e97856c22e0767fb77162933" target="_top" xlink:title="Return the entity the component belongs to. ">
<polygon fill="white" stroke="black" points="370,-49.5 370,-79.5 499,-79.5 499,-49.5 370,-49.5"/>
<text text-anchor="start" x="378" y="-67.5" font-family="Helvetica,sans-Serif" font-size="10.00">Ra::Engine::Component</text>
<text text-anchor="middle" x="434.5" y="-56.5" font-family="Helvetica,sans-Serif" font-size="10.00">::getEntity</text>
</a>
</g>
</g>
<!-- Node1&#45;&gt;Node7 -->
<g id="edge8" class="edge"><title>Node1&#45;&gt;Node7</title>
<path fill="none" stroke="midnightblue" d="M129.181,-84.3469C193.361,-80.1613 292.319,-73.7074 359.842,-69.3038"/>
<polygon fill="midnightblue" stroke="midnightblue" points="360.232,-72.7859 369.983,-68.6424 359.777,-65.8007 360.232,-72.7859"/>
</g>
<!-- Node4 -->
<g id="node4" class="node"><title>Node4</title>
<g id="a_node4"><a xlink:href="classRa_1_1Engine_1_1RenderObjectManager.html#a088feae4339349a81b7b6635b38aead1" target="_top" xlink:title="Returns true if the index points to a valid render object. ">
<polygon fill="white" stroke="black" points="366,-98.5 366,-128.5 503,-128.5 503,-98.5 366,-98.5"/>
<text text-anchor="start" x="374" y="-116.5" font-family="Helvetica,sans-Serif" font-size="10.00">Ra::Engine::RenderObject</text>
<text text-anchor="middle" x="434.5" y="-105.5" font-family="Helvetica,sans-Serif" font-size="10.00">Manager::exists</text>
</a>
</g>
</g>
<!-- Node3&#45;&gt;Node4 -->
<g id="edge3" class="edge"><title>Node3&#45;&gt;Node4</title>
<path fill="none" stroke="midnightblue" d="M330.182,-111.825C338.646,-111.962 347.233,-112.101 355.654,-112.238"/>
<polygon fill="midnightblue" stroke="midnightblue" points="355.768,-115.74 365.823,-112.403 355.881,-108.741 355.768,-115.74"/>
</g>
<!-- Node5 -->
<g id="node5" class="node"><title>Node5</title>
<g id="a_node5"><a xlink:href="classRa_1_1Core_1_1Utils_1_1Index.html#ac7a1b710e6b95834a562c27e2f6c0f4b" target="_top" xlink:title="DESTRUCTOR: Must not be defined, we need it trivial to be constexpr. ">
<polygon fill="white" stroke="black" points="539,-98.5 539,-128.5 655,-128.5 655,-98.5 539,-98.5"/>
<text text-anchor="start" x="547" y="-116.5" font-family="Helvetica,sans-Serif" font-size="10.00">Ra::Core::Utils::Index</text>
<text text-anchor="middle" x="597" y="-105.5" font-family="Helvetica,sans-Serif" font-size="10.00">::isValid</text>
</a>
</g>
</g>
<!-- Node4&#45;&gt;Node5 -->
<g id="edge4" class="edge"><title>Node4&#45;&gt;Node5</title>
<path fill="none" stroke="midnightblue" d="M503.101,-113.5C511.567,-113.5 520.226,-113.5 528.688,-113.5"/>
<polygon fill="midnightblue" stroke="midnightblue" points="528.885,-117 538.885,-113.5 528.885,-110 528.885,-117"/>
</g>
<!-- Node6&#45;&gt;Node7 -->
<g id="edge6" class="edge"><title>Node6&#45;&gt;Node7</title>
<path fill="none" stroke="midnightblue" d="M311.649,-36.8365C327.165,-40.3592 343.911,-44.1608 359.873,-47.7847"/>
<polygon fill="midnightblue" stroke="midnightblue" points="359.166,-51.2132 369.693,-50.0141 360.716,-44.3869 359.166,-51.2132"/>
</g>
<!-- Node8 -->
<g id="node8" class="node"><title>Node8</title>
<g id="a_node8"><a xlink:href="classRa_1_1Engine_1_1Component.html#aa9416af3319ba92aa7b532952c75e477" target="_top" xlink:title="Set the system to which the component belongs. ">
<polygon fill="white" stroke="black" points="370,-0.5 370,-30.5 499,-30.5 499,-0.5 370,-0.5"/>
<text text-anchor="start" x="378" y="-18.5" font-family="Helvetica,sans-Serif" font-size="10.00">Ra::Engine::Component</text>
<text text-anchor="middle" x="434.5" y="-7.5" font-family="Helvetica,sans-Serif" font-size="10.00">::setSystem</text>
</a>
</g>
</g>
<!-- Node6&#45;&gt;Node8 -->
<g id="edge7" class="edge"><title>Node6&#45;&gt;Node8</title>
<path fill="none" stroke="midnightblue" d="M311.649,-20.1106C327.019,-19.529 343.595,-18.9018 359.421,-18.303"/>
<polygon fill="midnightblue" stroke="midnightblue" points="359.832,-21.79 369.693,-17.9143 359.568,-14.795 359.832,-21.79"/>
</g>
</g>
</svg>
