<?xml version="1.0" encoding="UTF-8" standalone="no"?>
<!DOCTYPE svg PUBLIC "-//W3C//DTD SVG 1.1//EN"
 "http://www.w3.org/Graphics/SVG/1.1/DTD/svg11.dtd">
<!-- Generated by graphviz version 2.38.0 (20140413.2041)
 -->
<!-- Title: Ra::IO::AssimpAnimationDataLoader Pages: 1 -->
<svg width="319pt" height="602pt"
 viewBox="0.00 0.00 319.00 602.00" xmlns="http://www.w3.org/2000/svg" xmlns:xlink="http://www.w3.org/1999/xlink">
<g id="graph0" class="graph" transform="scale(1 1) rotate(0) translate(4 598)">
<title>Ra::IO::AssimpAnimationDataLoader</title>
<polygon fill="white" stroke="none" points="-4,4 -4,-598 315,-598 315,4 -4,4"/>
<!-- Node1 -->
<g id="node1" class="node"><title>Node1</title>
<polygon fill="#bfbfbf" stroke="black" points="0,-0.5 0,-167.5 184,-167.5 184,-0.5 0,-0.5"/>
<text text-anchor="start" x="8" y="-155.5" font-family="Helvetica,sans-Serif" font-size="10.00">Ra::IO::AssimpAnimationData</text>
<text text-anchor="middle" x="92" y="-144.5" font-family="Helvetica,sans-Serif" font-size="10.00">Loader</text>
<polyline fill="none" stroke="black" points="0,-137.5 184,-137.5 "/>
<text text-anchor="middle" x="92" y="-125.5" font-family="Helvetica,sans-Serif" font-size="10.00"> </text>
<polyline fill="none" stroke="black" points="0,-118.5 184,-118.5 "/>
<text text-anchor="start" x="8" y="-106.5" font-family="Helvetica,sans-Serif" font-size="10.00">+ AssimpAnimationDataLoader()</text>
<text text-anchor="start" x="8" y="-95.5" font-family="Helvetica,sans-Serif" font-size="10.00">+ ~AssimpAnimationDataLoader()</text>
<text text-anchor="start" x="8" y="-84.5" font-family="Helvetica,sans-Serif" font-size="10.00">+ loadData()</text>
<text text-anchor="start" x="8" y="-73.5" font-family="Helvetica,sans-Serif" font-size="10.00"># sceneHasAnimation()</text>
<text text-anchor="start" x="8" y="-62.5" font-family="Helvetica,sans-Serif" font-size="10.00"># sceneAnimationSize()</text>
<text text-anchor="start" x="8" y="-51.5" font-family="Helvetica,sans-Serif" font-size="10.00"># fetchName()</text>
<text text-anchor="start" x="8" y="-40.5" font-family="Helvetica,sans-Serif" font-size="10.00"># fetchTime()</text>
<text text-anchor="start" x="8" y="-29.5" font-family="Helvetica,sans-Serif" font-size="10.00"># loadAnimationData()</text>
<text text-anchor="start" x="8" y="-18.5" font-family="Helvetica,sans-Serif" font-size="10.00"># fetchAnimation()</text>
<text text-anchor="start" x="8" y="-7.5" font-family="Helvetica,sans-Serif" font-size="10.00"># fetchHandleAnimation()</text>
</g>
<!-- Node2 -->
<g id="node2" class="node"><title>Node2</title>
<g id="a_node2"><a xlink:href="classRa_1_1Core_1_1Asset_1_1DataLoader.html" target="_top" xlink:title="{Ra::Core::Asset::DataLoader\l\&lt; Core::Asset::AnimationData \&gt;\n||+ DataLoader()\l+ ~DataLoader()\l+ loadData()\l+ isVerbose()\l+ setVerbose()\l}">
<polygon fill="white" stroke="black" points="5.5,-205.5 5.5,-317.5 178.5,-317.5 178.5,-205.5 5.5,-205.5"/>
<text text-anchor="start" x="13.5" y="-305.5" font-family="Helvetica,sans-Serif" font-size="10.00">Ra::Core::Asset::DataLoader</text>
<text text-anchor="middle" x="92" y="-294.5" font-family="Helvetica,sans-Serif" font-size="10.00">&lt; Core::Asset::AnimationData &gt;</text>
<polyline fill="none" stroke="black" points="5.5,-287.5 178.5,-287.5 "/>
<text text-anchor="middle" x="92" y="-275.5" font-family="Helvetica,sans-Serif" font-size="10.00"> </text>
<polyline fill="none" stroke="black" points="5.5,-268.5 178.5,-268.5 "/>
<text text-anchor="start" x="13.5" y="-256.5" font-family="Helvetica,sans-Serif" font-size="10.00">+ DataLoader()</text>
<text text-anchor="start" x="13.5" y="-245.5" font-family="Helvetica,sans-Serif" font-size="10.00">+ ~DataLoader()</text>
<text text-anchor="start" x="13.5" y="-234.5" font-family="Helvetica,sans-Serif" font-size="10.00">+ loadData()</text>
<text text-anchor="start" x="13.5" y="-223.5" font-family="Helvetica,sans-Serif" font-size="10.00">+ isVerbose()</text>
<text text-anchor="start" x="13.5" y="-212.5" font-family="Helvetica,sans-Serif" font-size="10.00">+ setVerbose()</text>
</a>
</g>
</g>
<!-- Node2&#45;&gt;Node1 -->
<g id="edge1" class="edge"><title>Node2&#45;&gt;Node1</title>
<path fill="none" stroke="midnightblue" d="M92,-195.449C92,-186.441 92,-177.09 92,-167.813"/>
<polygon fill="none" stroke="midnightblue" points="88.5001,-195.452 92,-205.452 95.5001,-195.452 88.5001,-195.452"/>
</g>
<!-- Node3 -->
<g id="node3" class="node"><title>Node3</title>
<g id="a_node3"><a xlink:href="classbool.html" target="_top" xlink:title="{bool\n||}">
<polygon fill="white" stroke="black" points="105.5,-536.5 105.5,-593.5 142.5,-593.5 142.5,-536.5 105.5,-536.5"/>
<text text-anchor="middle" x="124" y="-581.5" font-family="Helvetica,sans-Serif" font-size="10.00">bool</text>
<polyline fill="none" stroke="black" points="105.5,-574.5 142.5,-574.5 "/>
<text text-anchor="middle" x="124" y="-562.5" font-family="Helvetica,sans-Serif" font-size="10.00"> </text>
<polyline fill="none" stroke="black" points="105.5,-555.5 142.5,-555.5 "/>
<text text-anchor="middle" x="124" y="-543.5" font-family="Helvetica,sans-Serif" font-size="10.00"> </text>
</a>
</g>
</g>
<!-- Node3&#45;&gt;Node2 -->
<g id="edge2" class="edge"><title>Node3&#45;&gt;Node2</title>
<path fill="none" stroke="#404040" d="M105.599,-536.43C97.5742,-522.779 89.0776,-505.68 85,-489 72.2061,-436.665 75.1032,-375.507 80.565,-329.941"/>
<polygon fill="none" stroke="#404040" points="80.593,-329.723 77.39,-323.262 82.1218,-317.821 85.3248,-324.281 80.593,-329.723"/>
<text text-anchor="middle" x="117.5" y="-430" font-family="Helvetica,sans-Serif" font-size="10.00"> #m_verbose</text>
</g>
<!-- Node4 -->
<g id="node4" class="node"><title>Node4</title>
<g id="a_node4"><a xlink:href="classRa_1_1Core_1_1Asset_1_1DataLoader.html" target="_top" xlink:title="{Ra::Core::Asset::DataLoader\l\&lt; DATA \&gt;\n||+ DataLoader()\l+ ~DataLoader()\l+ loadData()\l+ isVerbose()\l+ setVerbose()\l}">
<polygon fill="white" stroke="black" points="159,-376.5 159,-488.5 311,-488.5 311,-376.5 159,-376.5"/>
<text text-anchor="start" x="167" y="-476.5" font-family="Helvetica,sans-Serif" font-size="10.00">Ra::Core::Asset::DataLoader</text>
<text text-anchor="middle" x="235" y="-465.5" font-family="Helvetica,sans-Serif" font-size="10.00">&lt; DATA &gt;</text>
<polyline fill="none" stroke="black" points="159,-458.5 311,-458.5 "/>
<text text-anchor="middle" x="235" y="-446.5" font-family="Helvetica,sans-Serif" font-size="10.00"> </text>
<polyline fill="none" stroke="black" points="159,-439.5 311,-439.5 "/>
<text text-anchor="start" x="167" y="-427.5" font-family="Helvetica,sans-Serif" font-size="10.00">+ DataLoader()</text>
<text text-anchor="start" x="167" y="-416.5" font-family="Helvetica,sans-Serif" font-size="10.00">+ ~DataLoader()</text>
<text text-anchor="start" x="167" y="-405.5" font-family="Helvetica,sans-Serif" font-size="10.00">+ loadData()</text>
<text text-anchor="start" x="167" y="-394.5" font-family="Helvetica,sans-Serif" font-size="10.00">+ isVerbose()</text>
<text text-anchor="start" x="167" y="-383.5" font-family="Helvetica,sans-Serif" font-size="10.00">+ setVerbose()</text>
</a>
</g>
</g>
<!-- Node3&#45;&gt;Node4 -->
<g id="edge4" class="edge"><title>Node3&#45;&gt;Node4</title>
<path fill="none" stroke="#404040" d="M142.579,-542.157C153,-529.905 166.6,-513.916 180.149,-497.987"/>
<polygon fill="none" stroke="#404040" points="180.321,-497.785 181.161,-490.623 188.096,-488.644 187.255,-495.806 180.321,-497.785"/>
<text text-anchor="middle" x="201.5" y="-510" font-family="Helvetica,sans-Serif" font-size="10.00"> #m_verbose</text>
</g>
<!-- Node4&#45;&gt;Node2 -->
<g id="edge3" class="edge"><title>Node4&#45;&gt;Node2</title>
<path fill="none" stroke="orange" d="M181.376,-368.126C167.341,-351.54 152.325,-333.793 138.684,-317.672"/>
<polygon fill="orange" stroke="orange" points="179.045,-370.79 188.176,-376.163 184.389,-366.268 179.045,-370.79"/>
<text text-anchor="start" x="172" y="-350" font-family="Helvetica,sans-Serif" font-size="10.00"> &lt; Core::Asset::Animation</text>
<text text-anchor="middle" x="234.5" y="-339" font-family="Helvetica,sans-Serif" font-size="10.00">Data &gt;</text>
</g>
</g>
</svg>
