<?xml version="1.0" encoding="UTF-8" standalone="no"?>
<!DOCTYPE svg PUBLIC "-//W3C//DTD SVG 1.1//EN"
 "http://www.w3.org/Graphics/SVG/1.1/DTD/svg11.dtd">
<!-- Generated by graphviz version 2.38.0 (20140413.2041)
 -->
<!-- Title: Ra::Engine::PointLight Pages: 1 -->
<svg width="712pt" height="1600pt"
 viewBox="0.00 0.00 711.50 1600.00" xmlns="http://www.w3.org/2000/svg" xmlns:xlink="http://www.w3.org/1999/xlink">
<g id="graph0" class="graph" transform="scale(1 1) rotate(0) translate(4 1596)">
<title>Ra::Engine::PointLight</title>
<polygon fill="white" stroke="none" points="-4,4 -4,-1596 707.5,-1596 707.5,4 -4,4"/>
<!-- Node1 -->
<g id="node1" class="node"><title>Node1</title>
<polygon fill="#bfbfbf" stroke="black" points="364,-0.5 364,-145.5 504,-145.5 504,-0.5 364,-0.5"/>
<text text-anchor="middle" x="434" y="-133.5" font-family="Helvetica,sans-Serif" font-size="10.00">Ra::Engine::PointLight</text>
<polyline fill="none" stroke="black" points="364,-126.5 504,-126.5 "/>
<text text-anchor="middle" x="434" y="-114.5" font-family="Helvetica,sans-Serif" font-size="10.00"> </text>
<polyline fill="none" stroke="black" points="364,-107.5 504,-107.5 "/>
<text text-anchor="start" x="372" y="-95.5" font-family="Helvetica,sans-Serif" font-size="10.00">+ PointLight()</text>
<text text-anchor="start" x="372" y="-84.5" font-family="Helvetica,sans-Serif" font-size="10.00">+ ~PointLight()</text>
<text text-anchor="start" x="372" y="-73.5" font-family="Helvetica,sans-Serif" font-size="10.00">+ getRenderParameters()</text>
<text text-anchor="start" x="372" y="-62.5" font-family="Helvetica,sans-Serif" font-size="10.00">+ setPosition()</text>
<text text-anchor="start" x="372" y="-51.5" font-family="Helvetica,sans-Serif" font-size="10.00">+ getPosition()</text>
<text text-anchor="start" x="372" y="-40.5" font-family="Helvetica,sans-Serif" font-size="10.00">+ setAttenuation()</text>
<text text-anchor="start" x="372" y="-29.5" font-family="Helvetica,sans-Serif" font-size="10.00">+ setAttenuation()</text>
<text text-anchor="start" x="372" y="-18.5" font-family="Helvetica,sans-Serif" font-size="10.00">+ getAttenuation()</text>
<text text-anchor="start" x="372" y="-7.5" font-family="Helvetica,sans-Serif" font-size="10.00">+ getShaderInclude()</text>
</g>
<!-- Node2 -->
<g id="node2" class="node"><title>Node2</title>
<g id="a_node2"><a xlink:href="classRa_1_1Engine_1_1Light.html" target="_top" xlink:title="Light base classe for rendering. ">
<polygon fill="white" stroke="black" points="364,-183.5 364,-339.5 504,-339.5 504,-183.5 364,-183.5"/>
<text text-anchor="middle" x="434" y="-327.5" font-family="Helvetica,sans-Serif" font-size="10.00">Ra::Engine::Light</text>
<polyline fill="none" stroke="black" points="364,-320.5 504,-320.5 "/>
<text text-anchor="middle" x="434" y="-308.5" font-family="Helvetica,sans-Serif" font-size="10.00"> </text>
<polyline fill="none" stroke="black" points="364,-301.5 504,-301.5 "/>
<text text-anchor="start" x="372" y="-289.5" font-family="Helvetica,sans-Serif" font-size="10.00">+ Light()</text>
<text text-anchor="start" x="372" y="-278.5" font-family="Helvetica,sans-Serif" font-size="10.00">+ ~Light()</text>
<text text-anchor="start" x="372" y="-267.5" font-family="Helvetica,sans-Serif" font-size="10.00">+ getColor()</text>
<text text-anchor="start" x="372" y="-256.5" font-family="Helvetica,sans-Serif" font-size="10.00">+ setColor()</text>
<text text-anchor="start" x="372" y="-245.5" font-family="Helvetica,sans-Serif" font-size="10.00">+ setDirection()</text>
<text text-anchor="start" x="372" y="-234.5" font-family="Helvetica,sans-Serif" font-size="10.00">+ setPosition()</text>
<text text-anchor="start" x="372" y="-223.5" font-family="Helvetica,sans-Serif" font-size="10.00">+ getType()</text>
<text text-anchor="start" x="372" y="-212.5" font-family="Helvetica,sans-Serif" font-size="10.00">+ getRenderParameters()</text>
<text text-anchor="start" x="372" y="-201.5" font-family="Helvetica,sans-Serif" font-size="10.00">+ getShaderInclude()</text>
<text text-anchor="start" x="372" y="-190.5" font-family="Helvetica,sans-Serif" font-size="10.00">+ initialize()</text>
</a>
</g>
</g>
<!-- Node2&#45;&gt;Node1 -->
<g id="edge1" class="edge"><title>Node2&#45;&gt;Node1</title>
<path fill="none" stroke="midnightblue" d="M434,-173.035C434,-163.901 434,-154.692 434,-145.762"/>
<polygon fill="none" stroke="midnightblue" points="430.5,-173.297 434,-183.297 437.5,-173.297 430.5,-173.297"/>
</g>
<!-- Node3 -->
<g id="node3" class="node"><title>Node3</title>
<g id="a_node3"><a xlink:href="classRa_1_1Engine_1_1Component.html" target="_top" xlink:title="A component is an element that can be updated by a system. ">
<polygon fill="white" stroke="black" points="353.5,-377.5 353.5,-599.5 514.5,-599.5 514.5,-377.5 353.5,-377.5"/>
<text text-anchor="middle" x="434" y="-587.5" font-family="Helvetica,sans-Serif" font-size="10.00">Ra::Engine::Component</text>
<polyline fill="none" stroke="black" points="353.5,-580.5 514.5,-580.5 "/>
<text text-anchor="middle" x="434" y="-568.5" font-family="Helvetica,sans-Serif" font-size="10.00"> </text>
<polyline fill="none" stroke="black" points="353.5,-561.5 514.5,-561.5 "/>
<text text-anchor="start" x="361.5" y="-549.5" font-family="Helvetica,sans-Serif" font-size="10.00">+ Component()</text>
<text text-anchor="start" x="361.5" y="-538.5" font-family="Helvetica,sans-Serif" font-size="10.00">+ ~Component()</text>
<text text-anchor="start" x="361.5" y="-527.5" font-family="Helvetica,sans-Serif" font-size="10.00">+ initialize()</text>
<text text-anchor="start" x="361.5" y="-516.5" font-family="Helvetica,sans-Serif" font-size="10.00">+ setEntity()</text>
<text text-anchor="start" x="361.5" y="-505.5" font-family="Helvetica,sans-Serif" font-size="10.00">+ getEntity()</text>
<text text-anchor="start" x="361.5" y="-494.5" font-family="Helvetica,sans-Serif" font-size="10.00">+ getName()</text>
<text text-anchor="start" x="361.5" y="-483.5" font-family="Helvetica,sans-Serif" font-size="10.00">+ setSystem()</text>
<text text-anchor="start" x="361.5" y="-472.5" font-family="Helvetica,sans-Serif" font-size="10.00">+ getSystem()</text>
<text text-anchor="start" x="361.5" y="-461.5" font-family="Helvetica,sans-Serif" font-size="10.00">+ addRenderObject()</text>
<text text-anchor="start" x="361.5" y="-450.5" font-family="Helvetica,sans-Serif" font-size="10.00">+ removeRenderObject()</text>
<text text-anchor="start" x="361.5" y="-439.5" font-family="Helvetica,sans-Serif" font-size="10.00">+ rayCastQuery()</text>
<text text-anchor="start" x="361.5" y="-428.5" font-family="Helvetica,sans-Serif" font-size="10.00">+ canEdit()</text>
<text text-anchor="start" x="361.5" y="-417.5" font-family="Helvetica,sans-Serif" font-size="10.00">+ getTransform()</text>
<text text-anchor="start" x="361.5" y="-406.5" font-family="Helvetica,sans-Serif" font-size="10.00">+ setTransform()</text>
<text text-anchor="start" x="361.5" y="-395.5" font-family="Helvetica,sans-Serif" font-size="10.00">+ notifyRenderObjectExpired()</text>
<text text-anchor="start" x="361.5" y="-384.5" font-family="Helvetica,sans-Serif" font-size="10.00"># getRoMgr()</text>
</a>
</g>
</g>
<!-- Node3&#45;&gt;Node2 -->
<g id="edge2" class="edge"><title>Node3&#45;&gt;Node2</title>
<path fill="none" stroke="midnightblue" d="M434,-367.196C434,-357.892 434,-348.661 434,-339.756"/>
<polygon fill="none" stroke="midnightblue" points="430.5,-367.307 434,-377.307 437.5,-367.307 430.5,-367.307"/>
</g>
<!-- Node4 -->
<g id="node4" class="node"><title>Node4</title>
<polygon fill="white" stroke="#bfbfbf" points="45.5,-956 45.5,-1035 156.5,-1035 156.5,-956 45.5,-956"/>
<text text-anchor="start" x="53.5" y="-1023" font-family="Helvetica,sans-Serif" font-size="10.00">std::vector&lt; Core::</text>
<text text-anchor="start" x="53.5" y="-1012" font-family="Helvetica,sans-Serif" font-size="10.00">Utils::Ra::Core::Utils</text>
<text text-anchor="middle" x="101" y="-1001" font-family="Helvetica,sans-Serif" font-size="10.00">::Index &gt;</text>
<polyline fill="none" stroke="#bfbfbf" points="45.5,-994 156.5,-994 "/>
<text text-anchor="middle" x="101" y="-982" font-family="Helvetica,sans-Serif" font-size="10.00"> </text>
<polyline fill="none" stroke="#bfbfbf" points="45.5,-975 156.5,-975 "/>
<text text-anchor="middle" x="101" y="-963" font-family="Helvetica,sans-Serif" font-size="10.00"> </text>
</g>
<!-- Node4&#45;&gt;Node3 -->
<g id="edge3" class="edge"><title>Node4&#45;&gt;Node3</title>
<path fill="none" stroke="#404040" d="M98.6563,-955.882C96.4582,-887.257 100.894,-742.335 168,-647 210.226,-587.011 283.195,-546.181 342.039,-521.153"/>
<polygon fill="none" stroke="#404040" points="342.145,-521.109 346.153,-515.115 353.228,-516.51 349.22,-522.504 342.145,-521.109"/>
<text text-anchor="middle" x="215" y="-767" font-family="Helvetica,sans-Serif" font-size="10.00"> +m_renderObjects</text>
</g>
<!-- Node5 -->
<g id="node5" class="node"><title>Node5</title>
<polygon fill="white" stroke="#bfbfbf" points="0,-1275.5 0,-1332.5 42,-1332.5 42,-1275.5 0,-1275.5"/>
<text text-anchor="middle" x="21" y="-1320.5" font-family="Helvetica,sans-Serif" font-size="10.00">Index</text>
<polyline fill="none" stroke="#bfbfbf" points="0,-1313.5 42,-1313.5 "/>
<text text-anchor="middle" x="21" y="-1301.5" font-family="Helvetica,sans-Serif" font-size="10.00"> </text>
<polyline fill="none" stroke="#bfbfbf" points="0,-1294.5 42,-1294.5 "/>
<text text-anchor="middle" x="21" y="-1282.5" font-family="Helvetica,sans-Serif" font-size="10.00"> </text>
</g>
<!-- Node5&#45;&gt;Node4 -->
<g id="edge4" class="edge"><title>Node5&#45;&gt;Node4</title>
<path fill="none" stroke="#404040" d="M17.603,-1275.18C13.2704,-1230.16 9.42234,-1139.38 38,-1070 41.6005,-1061.26 46.6604,-1052.81 52.3645,-1044.95"/>
<polygon fill="none" stroke="#404040" points="52.4911,-1044.79 53.0284,-1037.59 59.8729,-1035.32 59.3357,-1042.52 52.4911,-1044.79"/>
<text text-anchor="middle" x="66.5" y="-1084" font-family="Helvetica,sans-Serif" font-size="10.00"> +elements</text>
</g>
<!-- Node6 -->
<g id="node6" class="node"><title>Node6</title>
<g id="a_node6"><a xlink:title="STL class. ">
<polygon fill="white" stroke="#bfbfbf" points="115.5,-1275.5 115.5,-1332.5 210.5,-1332.5 210.5,-1275.5 115.5,-1275.5"/>
<text text-anchor="middle" x="163" y="-1320.5" font-family="Helvetica,sans-Serif" font-size="10.00">std::vector&lt; T &gt;</text>
<polyline fill="none" stroke="#bfbfbf" points="115.5,-1313.5 210.5,-1313.5 "/>
<text text-anchor="middle" x="163" y="-1301.5" font-family="Helvetica,sans-Serif" font-size="10.00"> </text>
<polyline fill="none" stroke="#bfbfbf" points="115.5,-1294.5 210.5,-1294.5 "/>
<text text-anchor="middle" x="163" y="-1282.5" font-family="Helvetica,sans-Serif" font-size="10.00"> </text>
</a>
</g>
</g>
<!-- Node6&#45;&gt;Node4 -->
<g id="edge5" class="edge"><title>Node6&#45;&gt;Node4</title>
<path fill="none" stroke="orange" d="M148.182,-1265.94C133.191,-1226.34 110.985,-1161.38 102,-1103 98.5684,-1080.7 98.1805,-1055.47 98.7145,-1035.17"/>
<polygon fill="orange" stroke="orange" points="144.977,-1267.35 151.825,-1275.44 151.512,-1264.85 144.977,-1267.35"/>
<text text-anchor="start" x="102" y="-1089.5" font-family="Helvetica,sans-Serif" font-size="10.00"> &lt; Core::Utils::Ra::</text>
<text text-anchor="middle" x="148.5" y="-1078.5" font-family="Helvetica,sans-Serif" font-size="10.00">Core::Utils::Index &gt;</text>
</g>
<!-- Node9 -->
<g id="node9" class="node"><title>Node9</title>
<polygon fill="white" stroke="#bfbfbf" points="262,-956 262,-1035 436,-1035 436,-956 262,-956"/>
<text text-anchor="start" x="270" y="-1023" font-family="Helvetica,sans-Serif" font-size="10.00">std::vector&lt; std::pair</text>
<text text-anchor="start" x="270" y="-1012" font-family="Helvetica,sans-Serif" font-size="10.00">&lt; const Ra::Engine::Entity</text>
<text text-anchor="middle" x="349" y="-1001" font-family="Helvetica,sans-Serif" font-size="10.00"> *, Ra::Engine::Component * &gt; &gt;</text>
<polyline fill="none" stroke="#bfbfbf" points="262,-994 436,-994 "/>
<text text-anchor="middle" x="349" y="-982" font-family="Helvetica,sans-Serif" font-size="10.00"> </text>
<polyline fill="none" stroke="#bfbfbf" points="262,-975 436,-975 "/>
<text text-anchor="middle" x="349" y="-963" font-family="Helvetica,sans-Serif" font-size="10.00"> </text>
</g>
<!-- Node6&#45;&gt;Node9 -->
<g id="edge10" class="edge"><title>Node6&#45;&gt;Node9</title>
<path fill="none" stroke="orange" d="M167.458,-1264.9C174.865,-1207.01 191.184,-1100.4 214,-1070 226.415,-1053.46 243.685,-1040.2 261.734,-1029.74"/>
<polygon fill="orange" stroke="orange" points="163.949,-1264.76 166.179,-1275.12 170.894,-1265.63 163.949,-1264.76"/>
<text text-anchor="start" x="214" y="-1095" font-family="Helvetica,sans-Serif" font-size="10.00"> &lt; std::pair&lt; const</text>
<text text-anchor="start" x="214" y="-1084" font-family="Helvetica,sans-Serif" font-size="10.00"> Ra::Engine::Entity</text>
<text text-anchor="middle" x="293" y="-1073" font-family="Helvetica,sans-Serif" font-size="10.00"> *, Ra::Engine::Component * &gt; &gt;</text>
</g>
<!-- Node7 -->
<g id="node7" class="node"><title>Node7</title>
<polygon fill="white" stroke="#bfbfbf" points="148.5,-1534.5 148.5,-1591.5 177.5,-1591.5 177.5,-1534.5 148.5,-1534.5"/>
<text text-anchor="middle" x="163" y="-1579.5" font-family="Helvetica,sans-Serif" font-size="10.00">T</text>
<polyline fill="none" stroke="#bfbfbf" points="148.5,-1572.5 177.5,-1572.5 "/>
<text text-anchor="middle" x="163" y="-1560.5" font-family="Helvetica,sans-Serif" font-size="10.00"> </text>
<polyline fill="none" stroke="#bfbfbf" points="148.5,-1553.5 177.5,-1553.5 "/>
<text text-anchor="middle" x="163" y="-1541.5" font-family="Helvetica,sans-Serif" font-size="10.00"> </text>
</g>
<!-- Node7&#45;&gt;Node6 -->
<g id="edge6" class="edge"><title>Node7&#45;&gt;Node6</title>
<path fill="none" stroke="#404040" d="M163,-1534.5C163,-1488.92 163,-1397.55 163,-1344.88"/>
<polygon fill="none" stroke="#404040" points="163,-1344.69 159,-1338.69 163,-1332.69 167,-1338.69 163,-1344.69"/>
<text text-anchor="middle" x="191.5" y="-1508" font-family="Helvetica,sans-Serif" font-size="10.00"> +elements</text>
</g>
<!-- Node8 -->
<g id="node8" class="node"><title>Node8</title>
<g id="a_node8"><a xlink:href="classRa_1_1Engine_1_1System.html" target="_top" xlink:title="Systems are responsible of updating a specific subset of the components of each entity. ">
<polygon fill="white" stroke="black" points="271.5,-702.5 271.5,-836.5 428.5,-836.5 428.5,-702.5 271.5,-702.5"/>
<text text-anchor="middle" x="350" y="-824.5" font-family="Helvetica,sans-Serif" font-size="10.00">Ra::Engine::System</text>
<polyline fill="none" stroke="black" points="271.5,-817.5 428.5,-817.5 "/>
<text text-anchor="middle" x="350" y="-805.5" font-family="Helvetica,sans-Serif" font-size="10.00"> </text>
<polyline fill="none" stroke="black" points="271.5,-798.5 428.5,-798.5 "/>
<text text-anchor="start" x="279.5" y="-786.5" font-family="Helvetica,sans-Serif" font-size="10.00">+ System()</text>
<text text-anchor="start" x="279.5" y="-775.5" font-family="Helvetica,sans-Serif" font-size="10.00">+ ~System()</text>
<text text-anchor="start" x="279.5" y="-764.5" font-family="Helvetica,sans-Serif" font-size="10.00">+ handleAssetLoading()</text>
<text text-anchor="start" x="279.5" y="-753.5" font-family="Helvetica,sans-Serif" font-size="10.00">+ generateTasks()</text>
<text text-anchor="start" x="279.5" y="-742.5" font-family="Helvetica,sans-Serif" font-size="10.00">+ getEntityComponents()</text>
<text text-anchor="start" x="279.5" y="-731.5" font-family="Helvetica,sans-Serif" font-size="10.00"># registerComponent()</text>
<text text-anchor="start" x="279.5" y="-720.5" font-family="Helvetica,sans-Serif" font-size="10.00"># unregisterComponent()</text>
<text text-anchor="start" x="279.5" y="-709.5" font-family="Helvetica,sans-Serif" font-size="10.00"># unregisterAllComponents()</text>
</a>
</g>
</g>
<!-- Node8&#45;&gt;Node3 -->
<g id="edge7" class="edge"><title>Node8&#45;&gt;Node3</title>
<path fill="none" stroke="#404040" d="M369.907,-702.381C378.102,-675.161 387.866,-642.73 397.272,-611.49"/>
<polygon fill="none" stroke="#404040" points="397.396,-611.079 395.295,-604.18 400.855,-599.588 402.956,-606.487 397.396,-611.079"/>
<text text-anchor="middle" x="426" y="-621" font-family="Helvetica,sans-Serif" font-size="10.00"> #m_system</text>
</g>
<!-- Node9&#45;&gt;Node8 -->
<g id="edge8" class="edge"><title>Node9&#45;&gt;Node8</title>
<path fill="none" stroke="#404040" d="M349.172,-955.993C349.303,-926.549 349.489,-884.971 349.651,-848.64"/>
<polygon fill="none" stroke="#404040" points="349.651,-848.545 345.678,-842.527 349.705,-836.545 353.678,-842.563 349.651,-848.545"/>
<text text-anchor="middle" x="393.5" y="-913" font-family="Helvetica,sans-Serif" font-size="10.00"> #m_components</text>
</g>
<!-- Node10 -->
<g id="node10" class="node"><title>Node10</title>
<polygon fill="white" stroke="#bfbfbf" points="335.5,-1264.5 335.5,-1343.5 460.5,-1343.5 460.5,-1264.5 335.5,-1264.5"/>
<text text-anchor="start" x="343.5" y="-1331.5" font-family="Helvetica,sans-Serif" font-size="10.00">pair&lt; const Ra::Engine</text>
<text text-anchor="start" x="343.5" y="-1320.5" font-family="Helvetica,sans-Serif" font-size="10.00">::Entity *, Ra::Engine</text>
<text text-anchor="middle" x="398" y="-1309.5" font-family="Helvetica,sans-Serif" font-size="10.00">::Component * &gt;</text>
<polyline fill="none" stroke="#bfbfbf" points="335.5,-1302.5 460.5,-1302.5 "/>
<text text-anchor="middle" x="398" y="-1290.5" font-family="Helvetica,sans-Serif" font-size="10.00"> </text>
<polyline fill="none" stroke="#bfbfbf" points="335.5,-1283.5 460.5,-1283.5 "/>
<text text-anchor="middle" x="398" y="-1271.5" font-family="Helvetica,sans-Serif" font-size="10.00"> </text>
</g>
<!-- Node10&#45;&gt;Node9 -->
<g id="edge9" class="edge"><title>Node10&#45;&gt;Node9</title>
<path fill="none" stroke="#404040" d="M397.381,-1264.18C395.942,-1217.53 391.237,-1137.16 376,-1070 374.262,-1062.34 371.934,-1054.4 369.37,-1046.68"/>
<polygon fill="none" stroke="#404040" points="369.322,-1046.55 363.559,-1042.21 365.343,-1035.22 371.106,-1039.56 369.322,-1046.55"/>
<text text-anchor="middle" x="411.5" y="-1084" font-family="Helvetica,sans-Serif" font-size="10.00"> +elements</text>
</g>
<!-- Node11 -->
<g id="node11" class="node"><title>Node11</title>
<g id="a_node11"><a xlink:href="classRa_1_1Engine_1_1Entity.html" target="_top" xlink:title="An entity is an scene element. It ties together components with a transform. ">
<polygon fill="white" stroke="black" points="448,-647.5 448,-891.5 588,-891.5 588,-647.5 448,-647.5"/>
<text text-anchor="middle" x="518" y="-879.5" font-family="Helvetica,sans-Serif" font-size="10.00">Ra::Engine::Entity</text>
<polyline fill="none" stroke="black" points="448,-872.5 588,-872.5 "/>
<text text-anchor="middle" x="518" y="-860.5" font-family="Helvetica,sans-Serif" font-size="10.00"> </text>
<polyline fill="none" stroke="black" points="448,-853.5 588,-853.5 "/>
<text text-anchor="start" x="456" y="-841.5" font-family="Helvetica,sans-Serif" font-size="10.00">+ Entity()</text>
<text text-anchor="start" x="456" y="-830.5" font-family="Helvetica,sans-Serif" font-size="10.00">+ Entity()</text>
<text text-anchor="start" x="456" y="-819.5" font-family="Helvetica,sans-Serif" font-size="10.00">+ operator=()</text>
<text text-anchor="start" x="456" y="-808.5" font-family="Helvetica,sans-Serif" font-size="10.00">+ ~Entity()</text>
<text text-anchor="start" x="456" y="-797.5" font-family="Helvetica,sans-Serif" font-size="10.00">+ getName()</text>
<text text-anchor="start" x="456" y="-786.5" font-family="Helvetica,sans-Serif" font-size="10.00">+ rename()</text>
<text text-anchor="start" x="456" y="-775.5" font-family="Helvetica,sans-Serif" font-size="10.00">+ setTransform()</text>
<text text-anchor="start" x="456" y="-764.5" font-family="Helvetica,sans-Serif" font-size="10.00">+ setTransform()</text>
<text text-anchor="start" x="456" y="-753.5" font-family="Helvetica,sans-Serif" font-size="10.00">+ getTransform()</text>
<text text-anchor="start" x="456" y="-742.5" font-family="Helvetica,sans-Serif" font-size="10.00">+ getTransformAsMatrix()</text>
<text text-anchor="start" x="456" y="-731.5" font-family="Helvetica,sans-Serif" font-size="10.00">+ swapTransformBuffers()</text>
<text text-anchor="start" x="456" y="-720.5" font-family="Helvetica,sans-Serif" font-size="10.00">+ addComponent()</text>
<text text-anchor="start" x="456" y="-709.5" font-family="Helvetica,sans-Serif" font-size="10.00">+ removeComponent()</text>
<text text-anchor="start" x="456" y="-698.5" font-family="Helvetica,sans-Serif" font-size="10.00">+ getComponent()</text>
<text text-anchor="start" x="456" y="-687.5" font-family="Helvetica,sans-Serif" font-size="10.00">+ getComponent()</text>
<text text-anchor="start" x="456" y="-676.5" font-family="Helvetica,sans-Serif" font-size="10.00">+ getComponents()</text>
<text text-anchor="start" x="456" y="-665.5" font-family="Helvetica,sans-Serif" font-size="10.00">+ getNumComponents()</text>
<text text-anchor="start" x="456" y="-654.5" font-family="Helvetica,sans-Serif" font-size="10.00">+ rayCastQuery()</text>
</a>
</g>
</g>
<!-- Node11&#45;&gt;Node3 -->
<g id="edge11" class="edge"><title>Node11&#45;&gt;Node3</title>
<path fill="none" stroke="#404040" d="M481.523,-647.344C477.937,-635.432 474.295,-623.339 470.707,-611.419"/>
<polygon fill="none" stroke="#404040" points="470.599,-611.062 465.039,-606.469 467.14,-599.571 472.7,-604.163 470.599,-611.062"/>
<text text-anchor="middle" x="503" y="-621" font-family="Helvetica,sans-Serif" font-size="10.00"> #m_entity</text>
</g>
<!-- Node12 -->
<g id="node12" class="node"><title>Node12</title>
<g id="a_node12"><a xlink:href="classRa_1_1Core_1_1Utils_1_1IndexedObject.html" target="_top" xlink:title="{Ra::Core::Utils::Indexed\lObject\n||+ IndexedObject()\l+ IndexedObject()\l+ ~IndexedObject()\l+ setIndex()\l+ getIndex()\l}">
<polygon fill="white" stroke="black" points="454,-939.5 454,-1051.5 582,-1051.5 582,-939.5 454,-939.5"/>
<text text-anchor="start" x="462" y="-1039.5" font-family="Helvetica,sans-Serif" font-size="10.00">Ra::Core::Utils::Indexed</text>
<text text-anchor="middle" x="518" y="-1028.5" font-family="Helvetica,sans-Serif" font-size="10.00">Object</text>
<polyline fill="none" stroke="black" points="454,-1021.5 582,-1021.5 "/>
<text text-anchor="middle" x="518" y="-1009.5" font-family="Helvetica,sans-Serif" font-size="10.00"> </text>
<polyline fill="none" stroke="black" points="454,-1002.5 582,-1002.5 "/>
<text text-anchor="start" x="462" y="-990.5" font-family="Helvetica,sans-Serif" font-size="10.00">+ IndexedObject()</text>
<text text-anchor="start" x="462" y="-979.5" font-family="Helvetica,sans-Serif" font-size="10.00">+ IndexedObject()</text>
<text text-anchor="start" x="462" y="-968.5" font-family="Helvetica,sans-Serif" font-size="10.00">+ ~IndexedObject()</text>
<text text-anchor="start" x="462" y="-957.5" font-family="Helvetica,sans-Serif" font-size="10.00">+ setIndex()</text>
<text text-anchor="start" x="462" y="-946.5" font-family="Helvetica,sans-Serif" font-size="10.00">+ getIndex()</text>
</a>
</g>
</g>
<!-- Node12&#45;&gt;Node11 -->
<g id="edge12" class="edge"><title>Node12&#45;&gt;Node11</title>
<path fill="none" stroke="midnightblue" d="M518,-929.213C518,-917.331 518,-904.595 518,-891.696"/>
<polygon fill="none" stroke="midnightblue" points="514.5,-929.417 518,-939.417 521.5,-929.417 514.5,-929.417"/>
</g>
<!-- Node13 -->
<g id="node13" class="node"><title>Node13</title>
<g id="a_node13"><a xlink:href="classRa_1_1Core_1_1Utils_1_1Index.html" target="_top" xlink:title="{Ra::Core::Utils::Index\n||+ Index()\l+ Index()\l+ isValid()\l+ isInvalid()\l+ setInvalid()\l+ getValue()\l+ setValue()\l+ operator int()\l+ operator=()\l+ operator++()\l+ operator&#45;&#45;()\l+ operator+()\l+ operator+()\l+ operator&#45;()\l+ operator&#45;()\l+ operator==()\l+ operator==()\l+ operator!=()\l+ operator!=()\l+ operator\&lt;()\l+ operator\&lt;()\l+ operator\&lt;=()\l+ operator\&lt;=()\l+ operator\&gt;()\l+ operator\&gt;()\l+ operator\&gt;=()\l+ operator\&gt;=()\l+ Invalid()\l+ Max()\l}">
<polygon fill="white" stroke="black" points="479,-1121.5 479,-1486.5 595,-1486.5 595,-1121.5 479,-1121.5"/>
<text text-anchor="middle" x="537" y="-1474.5" font-family="Helvetica,sans-Serif" font-size="10.00">Ra::Core::Utils::Index</text>
<polyline fill="none" stroke="black" points="479,-1467.5 595,-1467.5 "/>
<text text-anchor="middle" x="537" y="-1455.5" font-family="Helvetica,sans-Serif" font-size="10.00"> </text>
<polyline fill="none" stroke="black" points="479,-1448.5 595,-1448.5 "/>
<text text-anchor="start" x="487" y="-1436.5" font-family="Helvetica,sans-Serif" font-size="10.00">+ Index()</text>
<text text-anchor="start" x="487" y="-1425.5" font-family="Helvetica,sans-Serif" font-size="10.00">+ Index()</text>
<text text-anchor="start" x="487" y="-1414.5" font-family="Helvetica,sans-Serif" font-size="10.00">+ isValid()</text>
<text text-anchor="start" x="487" y="-1403.5" font-family="Helvetica,sans-Serif" font-size="10.00">+ isInvalid()</text>
<text text-anchor="start" x="487" y="-1392.5" font-family="Helvetica,sans-Serif" font-size="10.00">+ setInvalid()</text>
<text text-anchor="start" x="487" y="-1381.5" font-family="Helvetica,sans-Serif" font-size="10.00">+ getValue()</text>
<text text-anchor="start" x="487" y="-1370.5" font-family="Helvetica,sans-Serif" font-size="10.00">+ setValue()</text>
<text text-anchor="start" x="487" y="-1359.5" font-family="Helvetica,sans-Serif" font-size="10.00">+ operator int()</text>
<text text-anchor="start" x="487" y="-1348.5" font-family="Helvetica,sans-Serif" font-size="10.00">+ operator=()</text>
<text text-anchor="start" x="487" y="-1337.5" font-family="Helvetica,sans-Serif" font-size="10.00">+ operator++()</text>
<text text-anchor="start" x="487" y="-1326.5" font-family="Helvetica,sans-Serif" font-size="10.00">+ operator&#45;&#45;()</text>
<text text-anchor="start" x="487" y="-1315.5" font-family="Helvetica,sans-Serif" font-size="10.00">+ operator+()</text>
<text text-anchor="start" x="487" y="-1304.5" font-family="Helvetica,sans-Serif" font-size="10.00">+ operator+()</text>
<text text-anchor="start" x="487" y="-1293.5" font-family="Helvetica,sans-Serif" font-size="10.00">+ operator&#45;()</text>
<text text-anchor="start" x="487" y="-1282.5" font-family="Helvetica,sans-Serif" font-size="10.00">+ operator&#45;()</text>
<text text-anchor="start" x="487" y="-1271.5" font-family="Helvetica,sans-Serif" font-size="10.00">+ operator==()</text>
<text text-anchor="start" x="487" y="-1260.5" font-family="Helvetica,sans-Serif" font-size="10.00">+ operator==()</text>
<text text-anchor="start" x="487" y="-1249.5" font-family="Helvetica,sans-Serif" font-size="10.00">+ operator!=()</text>
<text text-anchor="start" x="487" y="-1238.5" font-family="Helvetica,sans-Serif" font-size="10.00">+ operator!=()</text>
<text text-anchor="start" x="487" y="-1227.5" font-family="Helvetica,sans-Serif" font-size="10.00">+ operator&lt;()</text>
<text text-anchor="start" x="487" y="-1216.5" font-family="Helvetica,sans-Serif" font-size="10.00">+ operator&lt;()</text>
<text text-anchor="start" x="487" y="-1205.5" font-family="Helvetica,sans-Serif" font-size="10.00">+ operator&lt;=()</text>
<text text-anchor="start" x="487" y="-1194.5" font-family="Helvetica,sans-Serif" font-size="10.00">+ operator&lt;=()</text>
<text text-anchor="start" x="487" y="-1183.5" font-family="Helvetica,sans-Serif" font-size="10.00">+ operator&gt;()</text>
<text text-anchor="start" x="487" y="-1172.5" font-family="Helvetica,sans-Serif" font-size="10.00">+ operator&gt;()</text>
<text text-anchor="start" x="487" y="-1161.5" font-family="Helvetica,sans-Serif" font-size="10.00">+ operator&gt;=()</text>
<text text-anchor="start" x="487" y="-1150.5" font-family="Helvetica,sans-Serif" font-size="10.00">+ operator&gt;=()</text>
<text text-anchor="start" x="487" y="-1139.5" font-family="Helvetica,sans-Serif" font-size="10.00">+ Invalid()</text>
<text text-anchor="start" x="487" y="-1128.5" font-family="Helvetica,sans-Serif" font-size="10.00">+ Max()</text>
</a>
</g>
</g>
<!-- Node13&#45;&gt;Node12 -->
<g id="edge13" class="edge"><title>Node13&#45;&gt;Node12</title>
<path fill="none" stroke="#404040" d="M525.728,-1121.17C524.468,-1100.84 523.251,-1081.21 522.17,-1063.78"/>
<polygon fill="none" stroke="#404040" points="522.17,-1063.76 517.806,-1058.02 521.427,-1051.78 525.791,-1057.52 522.17,-1063.76"/>
<text text-anchor="middle" x="545" y="-1084" font-family="Helvetica,sans-Serif" font-size="10.00"> #m_idx</text>
</g>
<!-- Node14 -->
<g id="node14" class="node"><title>Node14</title>
<polygon fill="white" stroke="#bfbfbf" points="522.5,-1534.5 522.5,-1591.5 551.5,-1591.5 551.5,-1534.5 522.5,-1534.5"/>
<text text-anchor="middle" x="537" y="-1579.5" font-family="Helvetica,sans-Serif" font-size="10.00">int</text>
<polyline fill="none" stroke="#bfbfbf" points="522.5,-1572.5 551.5,-1572.5 "/>
<text text-anchor="middle" x="537" y="-1560.5" font-family="Helvetica,sans-Serif" font-size="10.00"> </text>
<polyline fill="none" stroke="#bfbfbf" points="522.5,-1553.5 551.5,-1553.5 "/>
<text text-anchor="middle" x="537" y="-1541.5" font-family="Helvetica,sans-Serif" font-size="10.00"> </text>
</g>
<!-- Node14&#45;&gt;Node13 -->
<g id="edge14" class="edge"><title>Node14&#45;&gt;Node13</title>
<path fill="none" stroke="#404040" d="M537,-1534.5C537,-1524.53 537,-1512.38 537,-1498.92"/>
<polygon fill="none" stroke="#404040" points="537,-1498.77 533,-1492.77 537,-1486.77 541,-1492.77 537,-1498.77"/>
<text text-anchor="middle" x="557" y="-1508" font-family="Helvetica,sans-Serif" font-size="10.00"> #m_idx</text>
</g>
<!-- Node15 -->
<g id="node15" class="node"><title>Node15</title>
<g id="a_node15"><a xlink:title="STL class. ">
<polygon fill="white" stroke="#bfbfbf" points="613.5,-741 613.5,-798 678.5,-798 678.5,-741 613.5,-741"/>
<text text-anchor="middle" x="646" y="-786" font-family="Helvetica,sans-Serif" font-size="10.00">std::string</text>
<polyline fill="none" stroke="#bfbfbf" points="613.5,-779 678.5,-779 "/>
<text text-anchor="middle" x="646" y="-767" font-family="Helvetica,sans-Serif" font-size="10.00"> </text>
<polyline fill="none" stroke="#bfbfbf" points="613.5,-760 678.5,-760 "/>
<text text-anchor="middle" x="646" y="-748" font-family="Helvetica,sans-Serif" font-size="10.00"> </text>
</a>
</g>
</g>
<!-- Node15&#45;&gt;Node3 -->
<g id="edge15" class="edge"><title>Node15&#45;&gt;Node3</title>
<path fill="none" stroke="#404040" d="M638.487,-740.835C630.686,-715.106 616.827,-676.425 597,-647 576.651,-616.801 549.715,-587.855 523.612,-563.201"/>
<polygon fill="none" stroke="#404040" points="523.591,-563.181 516.473,-562.025 514.803,-555.009 521.921,-556.166 523.591,-563.181"/>
<text text-anchor="middle" x="610.5" y="-621" font-family="Helvetica,sans-Serif" font-size="10.00"> #m_name</text>
</g>
<!-- Node16 -->
<g id="node16" class="node"><title>Node16</title>
<g id="a_node16"><a xlink:title="STL class. ">
<polygon fill="white" stroke="#bfbfbf" points="600.5,-961.5 600.5,-1029.5 703.5,-1029.5 703.5,-961.5 600.5,-961.5"/>
<text text-anchor="start" x="608.5" y="-1017.5" font-family="Helvetica,sans-Serif" font-size="10.00">std::basic_string&lt;</text>
<text text-anchor="middle" x="652" y="-1006.5" font-family="Helvetica,sans-Serif" font-size="10.00"> char &gt;</text>
<polyline fill="none" stroke="#bfbfbf" points="600.5,-999.5 703.5,-999.5 "/>
<text text-anchor="middle" x="652" y="-987.5" font-family="Helvetica,sans-Serif" font-size="10.00"> </text>
<polyline fill="none" stroke="#bfbfbf" points="600.5,-980.5 703.5,-980.5 "/>
<text text-anchor="middle" x="652" y="-968.5" font-family="Helvetica,sans-Serif" font-size="10.00"> </text>
</a>
</g>
</g>
<!-- Node16&#45;&gt;Node15 -->
<g id="edge16" class="edge"><title>Node16&#45;&gt;Node15</title>
<path fill="none" stroke="midnightblue" d="M650.844,-951.346C649.632,-906.093 647.764,-836.343 646.738,-798.037"/>
<polygon fill="none" stroke="midnightblue" points="647.348,-951.545 651.115,-961.448 654.346,-951.358 647.348,-951.545"/>
</g>
</g>
</svg>
