<?xml version="1.0" encoding="UTF-8" standalone="no"?>
<!DOCTYPE svg PUBLIC "-//W3C//DTD SVG 1.1//EN"
 "http://www.w3.org/Graphics/SVG/1.1/DTD/svg11.dtd">
<!-- Generated by graphviz version 2.38.0 (20140413.2041)
 -->
<!-- Title: Ra::Core::Geometry::TriangleMesh::checkConsistency Pages: 1 -->
<svg width="484pt" height="176pt"
 viewBox="0.00 0.00 484.00 176.00" xmlns="http://www.w3.org/2000/svg" xmlns:xlink="http://www.w3.org/1999/xlink">
<g id="graph0" class="graph" transform="scale(1 1) rotate(0) translate(4 172)">
<title>Ra::Core::Geometry::TriangleMesh::checkConsistency</title>
<polygon fill="white" stroke="none" points="-4,4 -4,-172 480,-172 480,4 -4,4"/>
<!-- Node1 -->
<g id="node1" class="node"><title>Node1</title>
<polygon fill="#bfbfbf" stroke="black" points="0,-71.5 0,-101.5 176,-101.5 176,-71.5 0,-71.5"/>
<text text-anchor="start" x="8" y="-89.5" font-family="Helvetica,sans-Serif" font-size="10.00">Ra::Core::Geometry</text>
<text text-anchor="middle" x="88" y="-78.5" font-family="Helvetica,sans-Serif" font-size="10.00">::TriangleMesh::checkConsistency</text>
</g>
<!-- Node2 -->
<g id="node2" class="node"><title>Node2</title>
<g id="a_node2"><a xlink:href="classRa_1_1Core_1_1Geometry_1_1TriangleMesh.html#a6ef9dbd18c0501f2ffd1316be6be56ce" target="_top" xlink:title="Access the vertices positions. ">
<polygon fill="white" stroke="black" points="212.5,-137.5 212.5,-167.5 340.5,-167.5 340.5,-137.5 212.5,-137.5"/>
<text text-anchor="start" x="220.5" y="-155.5" font-family="Helvetica,sans-Serif" font-size="10.00">Ra::Core::Geometry</text>
<text text-anchor="middle" x="276.5" y="-144.5" font-family="Helvetica,sans-Serif" font-size="10.00">::TriangleMesh::vertices</text>
</a>
</g>
</g>
<!-- Node1&#45;&gt;Node2 -->
<g id="edge1" class="edge"><title>Node1&#45;&gt;Node2</title>
<path fill="none" stroke="midnightblue" d="M131.787,-101.642C159.033,-111.284 194.505,-123.837 223.39,-134.059"/>
<polygon fill="midnightblue" stroke="midnightblue" points="222.317,-137.392 232.912,-137.429 224.653,-130.793 222.317,-137.392"/>
</g>
<!-- Node3 -->
<g id="node3" class="node"><title>Node3</title>
<g id="a_node3"><a xlink:href="namespaceRa_1_1Core_1_1Geometry.html#aa04e6052d8911b1df1bd881474debb45" target="_top" xlink:title="Ra::Core::Geometry::t">
<polygon fill="white" stroke="black" points="216.5,-99 216.5,-118 336.5,-118 336.5,-99 216.5,-99"/>
<text text-anchor="middle" x="276.5" y="-106" font-family="Helvetica,sans-Serif" font-size="10.00">Ra::Core::Geometry::t</text>
</a>
</g>
</g>
<!-- Node1&#45;&gt;Node3 -->
<g id="edge2" class="edge"><title>Node1&#45;&gt;Node3</title>
<path fill="none" stroke="midnightblue" d="M176.243,-96.7915C186.305,-97.9783 196.46,-99.1763 206.238,-100.33"/>
<polygon fill="midnightblue" stroke="midnightblue" points="205.93,-103.818 216.271,-101.513 206.75,-96.8657 205.93,-103.818"/>
</g>
<!-- Node4 -->
<g id="node4" class="node"><title>Node4</title>
<g id="a_node4"><a xlink:href="namespaceRa_1_1Core_1_1Geometry.html#a178f2b7309fe2ea5bc31a3abcb25368e" target="_top" xlink:title="Ra::Core::Geometry\l::triangleArea">
<polygon fill="white" stroke="black" points="221,-49.5 221,-79.5 332,-79.5 332,-49.5 221,-49.5"/>
<text text-anchor="start" x="229" y="-67.5" font-family="Helvetica,sans-Serif" font-size="10.00">Ra::Core::Geometry</text>
<text text-anchor="middle" x="276.5" y="-56.5" font-family="Helvetica,sans-Serif" font-size="10.00">::triangleArea</text>
</a>
</g>
</g>
<!-- Node1&#45;&gt;Node4 -->
<g id="edge3" class="edge"><title>Node1&#45;&gt;Node4</title>
<path fill="none" stroke="midnightblue" d="M176.243,-76.2085C187.857,-74.8386 199.595,-73.454 210.733,-72.1401"/>
<polygon fill="midnightblue" stroke="midnightblue" points="211.251,-75.6033 220.773,-70.9558 210.431,-68.6515 211.251,-75.6033"/>
</g>
<!-- Node7 -->
<g id="node7" class="node"><title>Node7</title>
<g id="a_node7"><a xlink:href="classRa_1_1Core_1_1Geometry_1_1TriangleMesh.html#ad7d3f6272b902171740e50232ba56114" target="_top" xlink:title="Access the vertices normals. ">
<polygon fill="white" stroke="black" points="212,-0.5 212,-30.5 341,-30.5 341,-0.5 212,-0.5"/>
<text text-anchor="start" x="220" y="-18.5" font-family="Helvetica,sans-Serif" font-size="10.00">Ra::Core::Geometry</text>
<text text-anchor="middle" x="276.5" y="-7.5" font-family="Helvetica,sans-Serif" font-size="10.00">::TriangleMesh::normals</text>
</a>
</g>
</g>
<!-- Node1&#45;&gt;Node7 -->
<g id="edge6" class="edge"><title>Node1&#45;&gt;Node7</title>
<path fill="none" stroke="midnightblue" d="M128.552,-71.4427C157.111,-60.5704 195.863,-45.8175 226.402,-34.1915"/>
<polygon fill="midnightblue" stroke="midnightblue" points="227.905,-37.3645 236.005,-30.5356 225.414,-30.8225 227.905,-37.3645"/>
</g>
<!-- Node5 -->
<g id="node5" class="node"><title>Node5</title>
<g id="a_node5"><a xlink:href="namespaceOpenMesh.html#a71e7f1dd3eac016d2b8245ac408a291c" target="_top" xlink:title="OpenMesh::cross">
<polygon fill="white" stroke="black" points="377,-74 377,-93 476,-93 476,-74 377,-74"/>
<text text-anchor="middle" x="426.5" y="-81" font-family="Helvetica,sans-Serif" font-size="10.00">OpenMesh::cross</text>
</a>
</g>
</g>
<!-- Node4&#45;&gt;Node5 -->
<g id="edge4" class="edge"><title>Node4&#45;&gt;Node5</title>
<path fill="none" stroke="midnightblue" d="M332.189,-71.5209C343.411,-72.9616 355.27,-74.484 366.632,-75.9426"/>
<polygon fill="midnightblue" stroke="midnightblue" points="366.529,-79.4581 376.894,-77.26 367.421,-72.5151 366.529,-79.4581"/>
</g>
<!-- Node6 -->
<g id="node6" class="node"><title>Node6</title>
<g id="a_node6"><a xlink:href="namespaceOpenMesh.html#a8205f789ce08919bc11c58383574596c" target="_top" xlink:title="OpenMesh::norm">
<polygon fill="white" stroke="black" points="377,-36 377,-55 476,-55 476,-36 377,-36"/>
<text text-anchor="middle" x="426.5" y="-43" font-family="Helvetica,sans-Serif" font-size="10.00">OpenMesh::norm</text>
</a>
</g>
</g>
<!-- Node4&#45;&gt;Node6 -->
<g id="edge5" class="edge"><title>Node4&#45;&gt;Node6</title>
<path fill="none" stroke="midnightblue" d="M332.189,-57.4791C343.411,-56.0384 355.27,-54.516 366.632,-53.0574"/>
<polygon fill="midnightblue" stroke="midnightblue" points="367.421,-56.4849 376.894,-51.74 366.529,-49.5419 367.421,-56.4849"/>
</g>
</g>
</svg>
