<?xml version="1.0" encoding="UTF-8" standalone="no"?>
<!DOCTYPE svg PUBLIC "-//W3C//DTD SVG 1.1//EN"
 "http://www.w3.org/Graphics/SVG/1.1/DTD/svg11.dtd">
<!-- Generated by graphviz version 2.38.0 (20140413.2041)
 -->
<!-- Title: Ra::Core::Asset::AnimationData Pages: 1 -->
<svg width="893pt" height="1899pt"
 viewBox="0.00 0.00 893.00 1899.00" xmlns="http://www.w3.org/2000/svg" xmlns:xlink="http://www.w3.org/1999/xlink">
<g id="graph0" class="graph" transform="scale(1 1) rotate(0) translate(4 1895)">
<title>Ra::Core::Asset::AnimationData</title>
<polygon fill="white" stroke="none" points="-4,4 -4,-1895 889,-1895 889,4 -4,4"/>
<!-- Node1 -->
<g id="node1" class="node"><title>Node1</title>
<polygon fill="#bfbfbf" stroke="black" points="452,-0.5 452,-167.5 620,-167.5 620,-0.5 452,-0.5"/>
<text text-anchor="middle" x="536" y="-155.5" font-family="Helvetica,sans-Serif" font-size="10.00">Ra::Core::Asset::AnimationData</text>
<polyline fill="none" stroke="black" points="452,-148.5 620,-148.5 "/>
<text text-anchor="middle" x="536" y="-136.5" font-family="Helvetica,sans-Serif" font-size="10.00"> </text>
<polyline fill="none" stroke="black" points="452,-129.5 620,-129.5 "/>
<text text-anchor="start" x="460" y="-117.5" font-family="Helvetica,sans-Serif" font-size="10.00">+ AnimationData()</text>
<text text-anchor="start" x="460" y="-106.5" font-family="Helvetica,sans-Serif" font-size="10.00">+ ~AnimationData()</text>
<text text-anchor="start" x="460" y="-95.5" font-family="Helvetica,sans-Serif" font-size="10.00">+ setName()</text>
<text text-anchor="start" x="460" y="-84.5" font-family="Helvetica,sans-Serif" font-size="10.00">+ getTime()</text>
<text text-anchor="start" x="460" y="-73.5" font-family="Helvetica,sans-Serif" font-size="10.00">+ setTime()</text>
<text text-anchor="start" x="460" y="-62.5" font-family="Helvetica,sans-Serif" font-size="10.00">+ getTimeStep()</text>
<text text-anchor="start" x="460" y="-51.5" font-family="Helvetica,sans-Serif" font-size="10.00">+ setTimeStep()</text>
<text text-anchor="start" x="460" y="-40.5" font-family="Helvetica,sans-Serif" font-size="10.00">+ getFramesSize()</text>
<text text-anchor="start" x="460" y="-29.5" font-family="Helvetica,sans-Serif" font-size="10.00">+ getFrames()</text>
<text text-anchor="start" x="460" y="-18.5" font-family="Helvetica,sans-Serif" font-size="10.00">+ setFrames()</text>
<text text-anchor="start" x="460" y="-7.5" font-family="Helvetica,sans-Serif" font-size="10.00">+ displayInfo()</text>
</g>
<!-- Node2 -->
<g id="node2" class="node"><title>Node2</title>
<g id="a_node2"><a xlink:href="classRa_1_1Core_1_1Asset_1_1AssetData.html" target="_top" xlink:title="General interface of an asset data. ">
<polygon fill="white" stroke="black" points="422,-302.5 422,-392.5 568,-392.5 568,-302.5 422,-302.5"/>
<text text-anchor="middle" x="495" y="-380.5" font-family="Helvetica,sans-Serif" font-size="10.00">Ra::Core::Asset::AssetData</text>
<polyline fill="none" stroke="black" points="422,-373.5 568,-373.5 "/>
<text text-anchor="middle" x="495" y="-361.5" font-family="Helvetica,sans-Serif" font-size="10.00"> </text>
<polyline fill="none" stroke="black" points="422,-354.5 568,-354.5 "/>
<text text-anchor="start" x="430" y="-342.5" font-family="Helvetica,sans-Serif" font-size="10.00">+ AssetData()</text>
<text text-anchor="start" x="430" y="-331.5" font-family="Helvetica,sans-Serif" font-size="10.00">+ AssetData()</text>
<text text-anchor="start" x="430" y="-320.5" font-family="Helvetica,sans-Serif" font-size="10.00">+ ~AssetData()</text>
<text text-anchor="start" x="430" y="-309.5" font-family="Helvetica,sans-Serif" font-size="10.00">+ getName()</text>
</a>
</g>
</g>
<!-- Node2&#45;&gt;Node1 -->
<g id="edge1" class="edge"><title>Node2&#45;&gt;Node1</title>
<path fill="none" stroke="midnightblue" d="M503.522,-292.145C509.164,-256.16 516.671,-208.284 523.046,-167.623"/>
<polygon fill="none" stroke="midnightblue" points="500,-292.014 501.909,-302.436 506.916,-293.099 500,-292.014"/>
</g>
<!-- Node3 -->
<g id="node3" class="node"><title>Node3</title>
<g id="a_node3"><a xlink:title="STL class. ">
<polygon fill="white" stroke="#bfbfbf" points="462.5,-544 462.5,-601 527.5,-601 527.5,-544 462.5,-544"/>
<text text-anchor="middle" x="495" y="-589" font-family="Helvetica,sans-Serif" font-size="10.00">std::string</text>
<polyline fill="none" stroke="#bfbfbf" points="462.5,-582 527.5,-582 "/>
<text text-anchor="middle" x="495" y="-570" font-family="Helvetica,sans-Serif" font-size="10.00"> </text>
<polyline fill="none" stroke="#bfbfbf" points="462.5,-563 527.5,-563 "/>
<text text-anchor="middle" x="495" y="-551" font-family="Helvetica,sans-Serif" font-size="10.00"> </text>
</a>
</g>
</g>
<!-- Node3&#45;&gt;Node2 -->
<g id="edge2" class="edge"><title>Node3&#45;&gt;Node2</title>
<path fill="none" stroke="#404040" d="M494.072,-543.931C493.653,-530.139 493.207,-513.189 493,-498 492.582,-467.277 492.978,-433.003 493.525,-405.029"/>
<polygon fill="none" stroke="#404040" points="493.533,-404.653 489.659,-398.571 493.784,-392.656 497.658,-398.738 493.533,-404.653"/>
<text text-anchor="middle" x="520.5" y="-490" font-family="Helvetica,sans-Serif" font-size="10.00"> #m_name</text>
</g>
<!-- Node8 -->
<g id="node8" class="node"><title>Node8</title>
<g id="a_node8"><a xlink:href="structRa_1_1Core_1_1Asset_1_1HandleAnimation.html" target="_top" xlink:title="{Ra::Core::Asset::HandleAnimation\n||+ HandleAnimation()\l}">
<polygon fill="white" stroke="black" points="520.5,-411.5 520.5,-468.5 699.5,-468.5 699.5,-411.5 520.5,-411.5"/>
<text text-anchor="middle" x="610" y="-456.5" font-family="Helvetica,sans-Serif" font-size="10.00">Ra::Core::Asset::HandleAnimation</text>
<polyline fill="none" stroke="black" points="520.5,-449.5 699.5,-449.5 "/>
<text text-anchor="middle" x="610" y="-437.5" font-family="Helvetica,sans-Serif" font-size="10.00"> </text>
<polyline fill="none" stroke="black" points="520.5,-430.5 699.5,-430.5 "/>
<text text-anchor="start" x="528.5" y="-418.5" font-family="Helvetica,sans-Serif" font-size="10.00">+ HandleAnimation()</text>
</a>
</g>
</g>
<!-- Node3&#45;&gt;Node8 -->
<g id="edge24" class="edge"><title>Node3&#45;&gt;Node8</title>
<path fill="none" stroke="#404040" d="M515.079,-543.615C527.66,-526.712 544.557,-505.007 561,-487 564.009,-483.704 567.214,-480.366 570.487,-477.073"/>
<polygon fill="none" stroke="#404040" points="570.652,-476.911 572.141,-469.855 579.227,-468.516 577.738,-475.572 570.652,-476.911"/>
<text text-anchor="middle" x="588.5" y="-490" font-family="Helvetica,sans-Serif" font-size="10.00"> +m_name</text>
</g>
<!-- Node4 -->
<g id="node4" class="node"><title>Node4</title>
<g id="a_node4"><a xlink:title="STL class. ">
<polygon fill="white" stroke="#bfbfbf" points="423.5,-792 423.5,-860 526.5,-860 526.5,-792 423.5,-792"/>
<text text-anchor="start" x="431.5" y="-848" font-family="Helvetica,sans-Serif" font-size="10.00">std::basic_string&lt;</text>
<text text-anchor="middle" x="475" y="-837" font-family="Helvetica,sans-Serif" font-size="10.00"> char &gt;</text>
<polyline fill="none" stroke="#bfbfbf" points="423.5,-830 526.5,-830 "/>
<text text-anchor="middle" x="475" y="-818" font-family="Helvetica,sans-Serif" font-size="10.00"> </text>
<polyline fill="none" stroke="#bfbfbf" points="423.5,-811 526.5,-811 "/>
<text text-anchor="middle" x="475" y="-799" font-family="Helvetica,sans-Serif" font-size="10.00"> </text>
</a>
</g>
</g>
<!-- Node4&#45;&gt;Node3 -->
<g id="edge3" class="edge"><title>Node4&#45;&gt;Node3</title>
<path fill="none" stroke="midnightblue" d="M478.446,-781.668C482.56,-729.936 489.318,-644.948 492.79,-601.292"/>
<polygon fill="none" stroke="midnightblue" points="474.939,-781.616 477.635,-791.862 481.917,-782.171 474.939,-781.616"/>
</g>
<!-- Node5 -->
<g id="node5" class="node"><title>Node5</title>
<g id="a_node5"><a xlink:href="classRa_1_1Core_1_1Animation_1_1AnimationTime.html" target="_top" xlink:title="{Ra::Core::Animation\l::AnimationTime\n||+ AnimationTime()\l+ AnimationTime()\l+ ~AnimationTime()\l+ getStart()\l+ setStart()\l+ getEnd()\l+ setEnd()\l+ duration()\l+ merge()\l+ contain()\l+ intersect()\l+ isValid()\l+ operator==()\l+ operator!=()\l+ operator\&lt;()\l+ operator==()\l+ operator\&lt;()\l+ operator\&gt;()\l}">
<polygon fill="white" stroke="black" points="545,-1370.5 545,-1625.5 661,-1625.5 661,-1370.5 545,-1370.5"/>
<text text-anchor="start" x="553" y="-1613.5" font-family="Helvetica,sans-Serif" font-size="10.00">Ra::Core::Animation</text>
<text text-anchor="middle" x="603" y="-1602.5" font-family="Helvetica,sans-Serif" font-size="10.00">::AnimationTime</text>
<polyline fill="none" stroke="black" points="545,-1595.5 661,-1595.5 "/>
<text text-anchor="middle" x="603" y="-1583.5" font-family="Helvetica,sans-Serif" font-size="10.00"> </text>
<polyline fill="none" stroke="black" points="545,-1576.5 661,-1576.5 "/>
<text text-anchor="start" x="553" y="-1564.5" font-family="Helvetica,sans-Serif" font-size="10.00">+ AnimationTime()</text>
<text text-anchor="start" x="553" y="-1553.5" font-family="Helvetica,sans-Serif" font-size="10.00">+ AnimationTime()</text>
<text text-anchor="start" x="553" y="-1542.5" font-family="Helvetica,sans-Serif" font-size="10.00">+ ~AnimationTime()</text>
<text text-anchor="start" x="553" y="-1531.5" font-family="Helvetica,sans-Serif" font-size="10.00">+ getStart()</text>
<text text-anchor="start" x="553" y="-1520.5" font-family="Helvetica,sans-Serif" font-size="10.00">+ setStart()</text>
<text text-anchor="start" x="553" y="-1509.5" font-family="Helvetica,sans-Serif" font-size="10.00">+ getEnd()</text>
<text text-anchor="start" x="553" y="-1498.5" font-family="Helvetica,sans-Serif" font-size="10.00">+ setEnd()</text>
<text text-anchor="start" x="553" y="-1487.5" font-family="Helvetica,sans-Serif" font-size="10.00">+ duration()</text>
<text text-anchor="start" x="553" y="-1476.5" font-family="Helvetica,sans-Serif" font-size="10.00">+ merge()</text>
<text text-anchor="start" x="553" y="-1465.5" font-family="Helvetica,sans-Serif" font-size="10.00">+ contain()</text>
<text text-anchor="start" x="553" y="-1454.5" font-family="Helvetica,sans-Serif" font-size="10.00">+ intersect()</text>
<text text-anchor="start" x="553" y="-1443.5" font-family="Helvetica,sans-Serif" font-size="10.00">+ isValid()</text>
<text text-anchor="start" x="553" y="-1432.5" font-family="Helvetica,sans-Serif" font-size="10.00">+ operator==()</text>
<text text-anchor="start" x="553" y="-1421.5" font-family="Helvetica,sans-Serif" font-size="10.00">+ operator!=()</text>
<text text-anchor="start" x="553" y="-1410.5" font-family="Helvetica,sans-Serif" font-size="10.00">+ operator&lt;()</text>
<text text-anchor="start" x="553" y="-1399.5" font-family="Helvetica,sans-Serif" font-size="10.00">+ operator==()</text>
<text text-anchor="start" x="553" y="-1388.5" font-family="Helvetica,sans-Serif" font-size="10.00">+ operator&lt;()</text>
<text text-anchor="start" x="553" y="-1377.5" font-family="Helvetica,sans-Serif" font-size="10.00">+ operator&gt;()</text>
</a>
</g>
</g>
<!-- Node5&#45;&gt;Node1 -->
<g id="edge4" class="edge"><title>Node5&#45;&gt;Node1</title>
<path fill="none" stroke="#404040" d="M544.754,-1390.33C537.806,-1382.74 530.224,-1375.81 522,-1370 492.939,-1349.48 469.678,-1376.63 444,-1352 384.778,-1295.21 395,-1256.05 395,-1174 395,-1174 395,-1174 395,-248.5 395,-210.788 416.779,-177.465 443.218,-150.905"/>
<polygon fill="none" stroke="#404040" points="443.29,-150.836 444.846,-143.795 451.944,-142.523 450.388,-149.564 443.29,-150.836"/>
<text text-anchor="middle" x="419.5" y="-570" font-family="Helvetica,sans-Serif" font-size="10.00"> #m_time</text>
</g>
<!-- Node10 -->
<g id="node10" class="node"><title>Node10</title>
<g id="a_node10"><a xlink:href="classRa_1_1Core_1_1Animation_1_1KeyFrame.html" target="_top" xlink:title="{Ra::Core::Animation\l::KeyFrame\&lt; Core::Transform \&gt;\n||+ KeyFrame()\l+ KeyFrame()\l+ ~KeyFrame()\l+ getAnimationTime()\l+ setAnimationTime()\l+ getKeyFrame()\l+ getKeyFrame()\l+ at()\l+ setKeyFrame()\l+ setKeyFrame()\l+ insertKeyFrame()\l+ size()\l+ clear()\l+ empty()\l+ timeSchedule()\l+ reset()\l+ operator=()\l+ operator==()\l+ operator!=()\l# defaultFrame()\l# findRange()\l# interpolate()\l}">
<polygon fill="white" stroke="black" points="544.5,-676.5 544.5,-975.5 711.5,-975.5 711.5,-676.5 544.5,-676.5"/>
<text text-anchor="start" x="552.5" y="-963.5" font-family="Helvetica,sans-Serif" font-size="10.00">Ra::Core::Animation</text>
<text text-anchor="middle" x="628" y="-952.5" font-family="Helvetica,sans-Serif" font-size="10.00">::KeyFrame&lt; Core::Transform &gt;</text>
<polyline fill="none" stroke="black" points="544.5,-945.5 711.5,-945.5 "/>
<text text-anchor="middle" x="628" y="-933.5" font-family="Helvetica,sans-Serif" font-size="10.00"> </text>
<polyline fill="none" stroke="black" points="544.5,-926.5 711.5,-926.5 "/>
<text text-anchor="start" x="552.5" y="-914.5" font-family="Helvetica,sans-Serif" font-size="10.00">+ KeyFrame()</text>
<text text-anchor="start" x="552.5" y="-903.5" font-family="Helvetica,sans-Serif" font-size="10.00">+ KeyFrame()</text>
<text text-anchor="start" x="552.5" y="-892.5" font-family="Helvetica,sans-Serif" font-size="10.00">+ ~KeyFrame()</text>
<text text-anchor="start" x="552.5" y="-881.5" font-family="Helvetica,sans-Serif" font-size="10.00">+ getAnimationTime()</text>
<text text-anchor="start" x="552.5" y="-870.5" font-family="Helvetica,sans-Serif" font-size="10.00">+ setAnimationTime()</text>
<text text-anchor="start" x="552.5" y="-859.5" font-family="Helvetica,sans-Serif" font-size="10.00">+ getKeyFrame()</text>
<text text-anchor="start" x="552.5" y="-848.5" font-family="Helvetica,sans-Serif" font-size="10.00">+ getKeyFrame()</text>
<text text-anchor="start" x="552.5" y="-837.5" font-family="Helvetica,sans-Serif" font-size="10.00">+ at()</text>
<text text-anchor="start" x="552.5" y="-826.5" font-family="Helvetica,sans-Serif" font-size="10.00">+ setKeyFrame()</text>
<text text-anchor="start" x="552.5" y="-815.5" font-family="Helvetica,sans-Serif" font-size="10.00">+ setKeyFrame()</text>
<text text-anchor="start" x="552.5" y="-804.5" font-family="Helvetica,sans-Serif" font-size="10.00">+ insertKeyFrame()</text>
<text text-anchor="start" x="552.5" y="-793.5" font-family="Helvetica,sans-Serif" font-size="10.00">+ size()</text>
<text text-anchor="start" x="552.5" y="-782.5" font-family="Helvetica,sans-Serif" font-size="10.00">+ clear()</text>
<text text-anchor="start" x="552.5" y="-771.5" font-family="Helvetica,sans-Serif" font-size="10.00">+ empty()</text>
<text text-anchor="start" x="552.5" y="-760.5" font-family="Helvetica,sans-Serif" font-size="10.00">+ timeSchedule()</text>
<text text-anchor="start" x="552.5" y="-749.5" font-family="Helvetica,sans-Serif" font-size="10.00">+ reset()</text>
<text text-anchor="start" x="552.5" y="-738.5" font-family="Helvetica,sans-Serif" font-size="10.00">+ operator=()</text>
<text text-anchor="start" x="552.5" y="-727.5" font-family="Helvetica,sans-Serif" font-size="10.00">+ operator==()</text>
<text text-anchor="start" x="552.5" y="-716.5" font-family="Helvetica,sans-Serif" font-size="10.00">+ operator!=()</text>
<text text-anchor="start" x="552.5" y="-705.5" font-family="Helvetica,sans-Serif" font-size="10.00"># defaultFrame()</text>
<text text-anchor="start" x="552.5" y="-694.5" font-family="Helvetica,sans-Serif" font-size="10.00"># findRange()</text>
<text text-anchor="start" x="552.5" y="-683.5" font-family="Helvetica,sans-Serif" font-size="10.00"># interpolate()</text>
</a>
</g>
</g>
<!-- Node5&#45;&gt;Node10 -->
<g id="edge11" class="edge"><title>Node5&#45;&gt;Node10</title>
<path fill="none" stroke="#404040" d="M612.026,-1370.49C612.378,-1364.24 612.705,-1358.05 613,-1352 618.952,-1229.9 622.784,-1091.7 625.084,-987.751"/>
<polygon fill="none" stroke="#404040" points="625.088,-987.565 621.22,-981.479 625.35,-975.568 629.218,-981.654 625.088,-987.565"/>
<text text-anchor="middle" x="649.5" y="-1170.5" font-family="Helvetica,sans-Serif" font-size="10.00"> #m_time</text>
</g>
<!-- Node17 -->
<g id="node17" class="node"><title>Node17</title>
<g id="a_node17"><a xlink:href="classRa_1_1Core_1_1Animation_1_1KeyFrame.html" target="_top" xlink:title="{Ra::Core::Animation\l::KeyFrame\&lt; FRAME \&gt;\n||+ KeyFrame()\l+ KeyFrame()\l+ ~KeyFrame()\l+ getAnimationTime()\l+ setAnimationTime()\l+ getKeyFrame()\l+ getKeyFrame()\l+ at()\l+ setKeyFrame()\l+ setKeyFrame()\l+ insertKeyFrame()\l+ size()\l+ clear()\l+ empty()\l+ timeSchedule()\l+ reset()\l+ operator=()\l+ operator==()\l+ operator!=()\l# defaultFrame()\l# findRange()\l# interpolate()\l}">
<polygon fill="white" stroke="black" points="449.5,-1023.5 449.5,-1322.5 572.5,-1322.5 572.5,-1023.5 449.5,-1023.5"/>
<text text-anchor="start" x="457.5" y="-1310.5" font-family="Helvetica,sans-Serif" font-size="10.00">Ra::Core::Animation</text>
<text text-anchor="middle" x="511" y="-1299.5" font-family="Helvetica,sans-Serif" font-size="10.00">::KeyFrame&lt; FRAME &gt;</text>
<polyline fill="none" stroke="black" points="449.5,-1292.5 572.5,-1292.5 "/>
<text text-anchor="middle" x="511" y="-1280.5" font-family="Helvetica,sans-Serif" font-size="10.00"> </text>
<polyline fill="none" stroke="black" points="449.5,-1273.5 572.5,-1273.5 "/>
<text text-anchor="start" x="457.5" y="-1261.5" font-family="Helvetica,sans-Serif" font-size="10.00">+ KeyFrame()</text>
<text text-anchor="start" x="457.5" y="-1250.5" font-family="Helvetica,sans-Serif" font-size="10.00">+ KeyFrame()</text>
<text text-anchor="start" x="457.5" y="-1239.5" font-family="Helvetica,sans-Serif" font-size="10.00">+ ~KeyFrame()</text>
<text text-anchor="start" x="457.5" y="-1228.5" font-family="Helvetica,sans-Serif" font-size="10.00">+ getAnimationTime()</text>
<text text-anchor="start" x="457.5" y="-1217.5" font-family="Helvetica,sans-Serif" font-size="10.00">+ setAnimationTime()</text>
<text text-anchor="start" x="457.5" y="-1206.5" font-family="Helvetica,sans-Serif" font-size="10.00">+ getKeyFrame()</text>
<text text-anchor="start" x="457.5" y="-1195.5" font-family="Helvetica,sans-Serif" font-size="10.00">+ getKeyFrame()</text>
<text text-anchor="start" x="457.5" y="-1184.5" font-family="Helvetica,sans-Serif" font-size="10.00">+ at()</text>
<text text-anchor="start" x="457.5" y="-1173.5" font-family="Helvetica,sans-Serif" font-size="10.00">+ setKeyFrame()</text>
<text text-anchor="start" x="457.5" y="-1162.5" font-family="Helvetica,sans-Serif" font-size="10.00">+ setKeyFrame()</text>
<text text-anchor="start" x="457.5" y="-1151.5" font-family="Helvetica,sans-Serif" font-size="10.00">+ insertKeyFrame()</text>
<text text-anchor="start" x="457.5" y="-1140.5" font-family="Helvetica,sans-Serif" font-size="10.00">+ size()</text>
<text text-anchor="start" x="457.5" y="-1129.5" font-family="Helvetica,sans-Serif" font-size="10.00">+ clear()</text>
<text text-anchor="start" x="457.5" y="-1118.5" font-family="Helvetica,sans-Serif" font-size="10.00">+ empty()</text>
<text text-anchor="start" x="457.5" y="-1107.5" font-family="Helvetica,sans-Serif" font-size="10.00">+ timeSchedule()</text>
<text text-anchor="start" x="457.5" y="-1096.5" font-family="Helvetica,sans-Serif" font-size="10.00">+ reset()</text>
<text text-anchor="start" x="457.5" y="-1085.5" font-family="Helvetica,sans-Serif" font-size="10.00">+ operator=()</text>
<text text-anchor="start" x="457.5" y="-1074.5" font-family="Helvetica,sans-Serif" font-size="10.00">+ operator==()</text>
<text text-anchor="start" x="457.5" y="-1063.5" font-family="Helvetica,sans-Serif" font-size="10.00">+ operator!=()</text>
<text text-anchor="start" x="457.5" y="-1052.5" font-family="Helvetica,sans-Serif" font-size="10.00"># defaultFrame()</text>
<text text-anchor="start" x="457.5" y="-1041.5" font-family="Helvetica,sans-Serif" font-size="10.00"># findRange()</text>
<text text-anchor="start" x="457.5" y="-1030.5" font-family="Helvetica,sans-Serif" font-size="10.00"># interpolate()</text>
</a>
</g>
</g>
<!-- Node5&#45;&gt;Node17 -->
<g id="edge19" class="edge"><title>Node5&#45;&gt;Node17</title>
<path fill="none" stroke="#404040" d="M566.903,-1370.27C563.527,-1358.42 560.076,-1346.3 556.628,-1334.19"/>
<polygon fill="none" stroke="#404040" points="556.613,-1334.14 551.122,-1329.47 553.326,-1322.6 558.816,-1327.27 556.613,-1334.14"/>
<text text-anchor="middle" x="584.5" y="-1344" font-family="Helvetica,sans-Serif" font-size="10.00"> #m_time</text>
</g>
<!-- Node6 -->
<g id="node6" class="node"><title>Node6</title>
<polygon fill="white" stroke="#bfbfbf" points="678,-1728.5 678,-1785.5 716,-1785.5 716,-1728.5 678,-1728.5"/>
<text text-anchor="middle" x="697" y="-1773.5" font-family="Helvetica,sans-Serif" font-size="10.00">float</text>
<polyline fill="none" stroke="#bfbfbf" points="678,-1766.5 716,-1766.5 "/>
<text text-anchor="middle" x="697" y="-1754.5" font-family="Helvetica,sans-Serif" font-size="10.00"> </text>
<polyline fill="none" stroke="#bfbfbf" points="678,-1747.5 716,-1747.5 "/>
<text text-anchor="middle" x="697" y="-1735.5" font-family="Helvetica,sans-Serif" font-size="10.00"> </text>
</g>
<!-- Node6&#45;&gt;Node1 -->
<g id="edge6" class="edge"><title>Node6&#45;&gt;Node1</title>
<path fill="none" stroke="#404040" d="M716.168,-1729.31C719.692,-1723.22 722.912,-1716.6 725,-1710 753.359,-1620.4 739,-1592.98 739,-1499 739,-1499 739,-1499 739,-248.5 739,-188.065 683.754,-146.189 630.903,-119.956"/>
<polygon fill="none" stroke="#404040" points="630.858,-119.934 623.72,-120.954 620.033,-114.756 627.172,-113.737 630.858,-119.934"/>
<text text-anchor="middle" x="757.5" y="-650" font-family="Helvetica,sans-Serif" font-size="10.00"> #m_dt</text>
</g>
<!-- Node6&#45;&gt;Node5 -->
<g id="edge5" class="edge"><title>Node6&#45;&gt;Node5</title>
<path fill="none" stroke="#404040" d="M685.98,-1728.33C683.633,-1722.31 681.201,-1715.95 679,-1710 668.227,-1680.86 666.443,-1673.26 656,-1644 655.206,-1641.78 654.404,-1639.53 653.595,-1637.27"/>
<polygon fill="none" stroke="#404040" points="653.559,-1637.17 647.766,-1632.88 649.502,-1625.88 655.295,-1630.17 653.559,-1637.17"/>
<text text-anchor="middle" x="702" y="-1680" font-family="Helvetica,sans-Serif" font-size="10.00"> #m_end</text>
<text text-anchor="middle" x="702" y="-1669" font-family="Helvetica,sans-Serif" font-size="10.00">#m_start</text>
</g>
<!-- Node7 -->
<g id="node7" class="node"><title>Node7</title>
<polygon fill="white" stroke="#bfbfbf" points="535.5,-215.5 535.5,-283.5 684.5,-283.5 684.5,-215.5 535.5,-215.5"/>
<text text-anchor="start" x="543.5" y="-271.5" font-family="Helvetica,sans-Serif" font-size="10.00">std::vector&lt; Ra::Core</text>
<text text-anchor="middle" x="610" y="-260.5" font-family="Helvetica,sans-Serif" font-size="10.00">::Asset::HandleAnimation &gt;</text>
<polyline fill="none" stroke="#bfbfbf" points="535.5,-253.5 684.5,-253.5 "/>
<text text-anchor="middle" x="610" y="-241.5" font-family="Helvetica,sans-Serif" font-size="10.00"> </text>
<polyline fill="none" stroke="#bfbfbf" points="535.5,-234.5 684.5,-234.5 "/>
<text text-anchor="middle" x="610" y="-222.5" font-family="Helvetica,sans-Serif" font-size="10.00"> </text>
</g>
<!-- Node7&#45;&gt;Node1 -->
<g id="edge7" class="edge"><title>Node7&#45;&gt;Node1</title>
<path fill="none" stroke="#404040" d="M595.025,-215.413C590.109,-204.551 584.377,-191.887 578.455,-178.802"/>
<polygon fill="none" stroke="#404040" points="578.397,-178.674 572.279,-174.857 573.449,-167.742 579.567,-171.559 578.397,-178.674"/>
<text text-anchor="middle" x="623.5" y="-189" font-family="Helvetica,sans-Serif" font-size="10.00"> #m_keyFrame</text>
</g>
<!-- Node8&#45;&gt;Node7 -->
<g id="edge8" class="edge"><title>Node8&#45;&gt;Node7</title>
<path fill="none" stroke="#404040" d="M610,-411.186C610,-380.772 610,-331.577 610,-295.622"/>
<polygon fill="none" stroke="#404040" points="610,-295.509 606,-289.509 610,-283.509 614,-289.509 610,-295.509"/>
<text text-anchor="middle" x="638.5" y="-345" font-family="Helvetica,sans-Serif" font-size="10.00"> +elements</text>
</g>
<!-- Node9 -->
<g id="node9" class="node"><title>Node9</title>
<g id="a_node9"><a xlink:href="classRa_1_1Core_1_1Animation_1_1KeyTransform.html" target="_top" xlink:title="{Ra::Core::Animation\l::KeyTransform\n||+ KeyTransform()\l+ KeyTransform()\l+ ~KeyTransform()\l# defaultFrame()\l# interpolate()\l}">
<polygon fill="white" stroke="black" points="580,-516.5 580,-628.5 692,-628.5 692,-516.5 580,-516.5"/>
<text text-anchor="start" x="588" y="-616.5" font-family="Helvetica,sans-Serif" font-size="10.00">Ra::Core::Animation</text>
<text text-anchor="middle" x="636" y="-605.5" font-family="Helvetica,sans-Serif" font-size="10.00">::KeyTransform</text>
<polyline fill="none" stroke="black" points="580,-598.5 692,-598.5 "/>
<text text-anchor="middle" x="636" y="-586.5" font-family="Helvetica,sans-Serif" font-size="10.00"> </text>
<polyline fill="none" stroke="black" points="580,-579.5 692,-579.5 "/>
<text text-anchor="start" x="588" y="-567.5" font-family="Helvetica,sans-Serif" font-size="10.00">+ KeyTransform()</text>
<text text-anchor="start" x="588" y="-556.5" font-family="Helvetica,sans-Serif" font-size="10.00">+ KeyTransform()</text>
<text text-anchor="start" x="588" y="-545.5" font-family="Helvetica,sans-Serif" font-size="10.00">+ ~KeyTransform()</text>
<text text-anchor="start" x="588" y="-534.5" font-family="Helvetica,sans-Serif" font-size="10.00"># defaultFrame()</text>
<text text-anchor="start" x="588" y="-523.5" font-family="Helvetica,sans-Serif" font-size="10.00"># interpolate()</text>
</a>
</g>
</g>
<!-- Node9&#45;&gt;Node8 -->
<g id="edge9" class="edge"><title>Node9&#45;&gt;Node8</title>
<path fill="none" stroke="#404040" d="M624.974,-516.156C622.6,-504.245 620.137,-491.882 617.911,-480.706"/>
<polygon fill="none" stroke="#404040" points="617.86,-480.449 612.764,-475.347 615.515,-468.681 620.61,-473.783 617.86,-480.449"/>
<text text-anchor="middle" x="646.5" y="-490" font-family="Helvetica,sans-Serif" font-size="10.00"> +m_anim</text>
</g>
<!-- Node10&#45;&gt;Node9 -->
<g id="edge10" class="edge"><title>Node10&#45;&gt;Node9</title>
<path fill="none" stroke="midnightblue" d="M633.059,-665.963C633.479,-652.752 633.882,-640.069 634.249,-628.557"/>
<polygon fill="none" stroke="midnightblue" points="629.554,-666.051 632.735,-676.157 636.551,-666.274 629.554,-666.051"/>
</g>
<!-- Node11 -->
<g id="node11" class="node"><title>Node11</title>
<polygon fill="white" stroke="#bfbfbf" points="87,-1436.5 87,-1559.5 229,-1559.5 229,-1436.5 87,-1436.5"/>
<text text-anchor="start" x="95" y="-1547.5" font-family="Helvetica,sans-Serif" font-size="10.00">std::map&lt; Time, Core</text>
<text text-anchor="start" x="95" y="-1536.5" font-family="Helvetica,sans-Serif" font-size="10.00">::Transform, std::less</text>
<text text-anchor="start" x="95" y="-1525.5" font-family="Helvetica,sans-Serif" font-size="10.00">&lt; Time &gt;, Ra::Core::Ra</text>
<text text-anchor="start" x="95" y="-1514.5" font-family="Helvetica,sans-Serif" font-size="10.00">::Core::AlignedAllocator</text>
<text text-anchor="start" x="95" y="-1503.5" font-family="Helvetica,sans-Serif" font-size="10.00">&lt; std::pair&lt; const Time,</text>
<text text-anchor="start" x="95" y="-1492.5" font-family="Helvetica,sans-Serif" font-size="10.00"> Core::Transform &gt;, EIGEN</text>
<text text-anchor="middle" x="158" y="-1481.5" font-family="Helvetica,sans-Serif" font-size="10.00">_MAX_ALIGN_BYTES &gt; &gt;</text>
<polyline fill="none" stroke="#bfbfbf" points="87,-1474.5 229,-1474.5 "/>
<text text-anchor="middle" x="158" y="-1462.5" font-family="Helvetica,sans-Serif" font-size="10.00"> </text>
<polyline fill="none" stroke="#bfbfbf" points="87,-1455.5 229,-1455.5 "/>
<text text-anchor="middle" x="158" y="-1443.5" font-family="Helvetica,sans-Serif" font-size="10.00"> </text>
</g>
<!-- Node11&#45;&gt;Node10 -->
<g id="edge12" class="edge"><title>Node11&#45;&gt;Node10</title>
<path fill="none" stroke="#404040" d="M167.822,-1436.28C187.38,-1335.34 240.804,-1133.23 368,-1023 423.539,-974.871 468.883,-1017.82 534.444,-975.362"/>
<polygon fill="none" stroke="#404040" points="534.45,-975.358 537.058,-968.635 544.267,-968.457 541.659,-975.18 534.45,-975.358"/>
<text text-anchor="middle" x="404" y="-1170.5" font-family="Helvetica,sans-Serif" font-size="10.00"> #m_keyframe</text>
</g>
<!-- Node12 -->
<g id="node12" class="node"><title>Node12</title>
<g id="a_node12"><a xlink:href="classCore_1_1Transform.html" target="_top" xlink:title="{Transform\n||}">
<polygon fill="white" stroke="black" points="0,-1728.5 0,-1785.5 64,-1785.5 64,-1728.5 0,-1728.5"/>
<text text-anchor="middle" x="32" y="-1773.5" font-family="Helvetica,sans-Serif" font-size="10.00">Transform</text>
<polyline fill="none" stroke="black" points="0,-1766.5 64,-1766.5 "/>
<text text-anchor="middle" x="32" y="-1754.5" font-family="Helvetica,sans-Serif" font-size="10.00"> </text>
<polyline fill="none" stroke="black" points="0,-1747.5 64,-1747.5 "/>
<text text-anchor="middle" x="32" y="-1735.5" font-family="Helvetica,sans-Serif" font-size="10.00"> </text>
</a>
</g>
</g>
<!-- Node12&#45;&gt;Node11 -->
<g id="edge13" class="edge"><title>Node12&#45;&gt;Node11</title>
<path fill="none" stroke="#404040" d="M31.7856,-1728.28C32.5121,-1704.96 35.7238,-1671.18 47,-1644 58.0018,-1617.48 75.1108,-1591.58 92.6292,-1569.17"/>
<polygon fill="none" stroke="#404040" points="92.6411,-1569.16 93.272,-1561.98 100.146,-1559.8 99.5146,-1566.98 92.6411,-1569.16"/>
<text text-anchor="middle" x="75.5" y="-1674.5" font-family="Helvetica,sans-Serif" font-size="10.00"> +elements</text>
</g>
<!-- Node13 -->
<g id="node13" class="node"><title>Node13</title>
<polygon fill="white" stroke="#bfbfbf" points="120,-1728.5 120,-1785.5 160,-1785.5 160,-1728.5 120,-1728.5"/>
<text text-anchor="middle" x="140" y="-1773.5" font-family="Helvetica,sans-Serif" font-size="10.00">Time</text>
<polyline fill="none" stroke="#bfbfbf" points="120,-1766.5 160,-1766.5 "/>
<text text-anchor="middle" x="140" y="-1754.5" font-family="Helvetica,sans-Serif" font-size="10.00"> </text>
<polyline fill="none" stroke="#bfbfbf" points="120,-1747.5 160,-1747.5 "/>
<text text-anchor="middle" x="140" y="-1735.5" font-family="Helvetica,sans-Serif" font-size="10.00"> </text>
</g>
<!-- Node13&#45;&gt;Node11 -->
<g id="edge14" class="edge"><title>Node13&#45;&gt;Node11</title>
<path fill="none" stroke="#404040" d="M120.645,-1728.34C117.489,-1722.53 114.7,-1716.26 113,-1710 100.59,-1664.34 111.385,-1612.36 125.506,-1571.42"/>
<polygon fill="none" stroke="#404040" points="125.588,-1571.2 123.863,-1564.19 129.663,-1559.91 131.388,-1566.91 125.588,-1571.2"/>
<text text-anchor="middle" x="130" y="-1674.5" font-family="Helvetica,sans-Serif" font-size="10.00"> +keys</text>
</g>
<!-- Node18 -->
<g id="node18" class="node"><title>Node18</title>
<polygon fill="white" stroke="#bfbfbf" points="332.5,-1447.5 332.5,-1548.5 513.5,-1548.5 513.5,-1447.5 332.5,-1447.5"/>
<text text-anchor="start" x="340.5" y="-1536.5" font-family="Helvetica,sans-Serif" font-size="10.00">std::map&lt; Time, FRAME,</text>
<text text-anchor="start" x="340.5" y="-1525.5" font-family="Helvetica,sans-Serif" font-size="10.00"> std::less&lt; Time &gt;, Ra</text>
<text text-anchor="start" x="340.5" y="-1514.5" font-family="Helvetica,sans-Serif" font-size="10.00">::Core::Ra::Core::AlignedAllocator</text>
<text text-anchor="start" x="340.5" y="-1503.5" font-family="Helvetica,sans-Serif" font-size="10.00">&lt; std::pair&lt; const Time, FRAME</text>
<text text-anchor="middle" x="423" y="-1492.5" font-family="Helvetica,sans-Serif" font-size="10.00"> &gt;, EIGEN_MAX_ALIGN_BYTES &gt; &gt;</text>
<polyline fill="none" stroke="#bfbfbf" points="332.5,-1485.5 513.5,-1485.5 "/>
<text text-anchor="middle" x="423" y="-1473.5" font-family="Helvetica,sans-Serif" font-size="10.00"> </text>
<polyline fill="none" stroke="#bfbfbf" points="332.5,-1466.5 513.5,-1466.5 "/>
<text text-anchor="middle" x="423" y="-1454.5" font-family="Helvetica,sans-Serif" font-size="10.00"> </text>
</g>
<!-- Node13&#45;&gt;Node18 -->
<g id="edge22" class="edge"><title>Node13&#45;&gt;Node18</title>
<path fill="none" stroke="#404040" d="M144.174,-1728.31C149.122,-1699.13 158.204,-1655.76 170,-1644 192.139,-1621.93 209.585,-1639.04 238,-1626 278.111,-1607.6 318.948,-1580.61 352.015,-1556.24"/>
<polygon fill="none" stroke="#404040" points="352.401,-1555.96 354.817,-1549.16 362.018,-1548.78 359.602,-1555.57 352.401,-1555.96"/>
<text text-anchor="middle" x="187" y="-1674.5" font-family="Helvetica,sans-Serif" font-size="10.00"> +keys</text>
</g>
<!-- Node14 -->
<g id="node14" class="node"><title>Node14</title>
<g id="a_node14"><a xlink:title="STL class. ">
<polygon fill="white" stroke="#bfbfbf" points="360.5,-1728.5 360.5,-1785.5 459.5,-1785.5 459.5,-1728.5 360.5,-1728.5"/>
<text text-anchor="middle" x="410" y="-1773.5" font-family="Helvetica,sans-Serif" font-size="10.00">std::map&lt; K, T &gt;</text>
<polyline fill="none" stroke="#bfbfbf" points="360.5,-1766.5 459.5,-1766.5 "/>
<text text-anchor="middle" x="410" y="-1754.5" font-family="Helvetica,sans-Serif" font-size="10.00"> </text>
<polyline fill="none" stroke="#bfbfbf" points="360.5,-1747.5 459.5,-1747.5 "/>
<text text-anchor="middle" x="410" y="-1735.5" font-family="Helvetica,sans-Serif" font-size="10.00"> </text>
</a>
</g>
</g>
<!-- Node14&#45;&gt;Node11 -->
<g id="edge15" class="edge"><title>Node14&#45;&gt;Node11</title>
<path fill="none" stroke="orange" d="M350.208,-1752.15C315.818,-1747.07 273.849,-1735.6 245,-1710 221.698,-1689.32 194.196,-1614.43 176.447,-1559.74"/>
<polygon fill="orange" stroke="orange" points="349.775,-1755.62 360.15,-1753.48 350.701,-1748.69 349.775,-1755.62"/>
<text text-anchor="start" x="245" y="-1702" font-family="Helvetica,sans-Serif" font-size="10.00"> &lt; Time, Core::Transform,</text>
<text text-anchor="start" x="245" y="-1691" font-family="Helvetica,sans-Serif" font-size="10.00"> std::less&lt; Time &gt;, Ra</text>
<text text-anchor="start" x="245" y="-1680" font-family="Helvetica,sans-Serif" font-size="10.00">::Core::Ra::Core::AlignedAllocator</text>
<text text-anchor="start" x="245" y="-1669" font-family="Helvetica,sans-Serif" font-size="10.00">&lt; std::pair&lt; const Time, Core</text>
<text text-anchor="start" x="245" y="-1658" font-family="Helvetica,sans-Serif" font-size="10.00">::Transform &gt;, EIGEN_MAX_ALIGN</text>
<text text-anchor="middle" x="325.5" y="-1647" font-family="Helvetica,sans-Serif" font-size="10.00">_BYTES &gt; &gt;</text>
</g>
<!-- Node14&#45;&gt;Node18 -->
<g id="edge23" class="edge"><title>Node14&#45;&gt;Node18</title>
<path fill="none" stroke="orange" d="M409.646,-1718.23C409.615,-1696.51 409.869,-1668.71 411,-1644 412.456,-1612.21 415.385,-1576.58 417.985,-1548.6"/>
<polygon fill="orange" stroke="orange" points="406.146,-1718.38 409.681,-1728.37 413.146,-1718.36 406.146,-1718.38"/>
<text text-anchor="start" x="411" y="-1696.5" font-family="Helvetica,sans-Serif" font-size="10.00"> &lt; Time, FRAME, std</text>
<text text-anchor="start" x="411" y="-1685.5" font-family="Helvetica,sans-Serif" font-size="10.00">::less&lt; Time &gt;, Ra::</text>
<text text-anchor="start" x="411" y="-1674.5" font-family="Helvetica,sans-Serif" font-size="10.00">Core::Ra::Core::AlignedAllocator</text>
<text text-anchor="start" x="411" y="-1663.5" font-family="Helvetica,sans-Serif" font-size="10.00">&lt; std::pair&lt; const Time, FRAME</text>
<text text-anchor="middle" x="493.5" y="-1652.5" font-family="Helvetica,sans-Serif" font-size="10.00"> &gt;, EIGEN_MAX_ALIGN_BYTES &gt; &gt;</text>
</g>
<!-- Node15 -->
<g id="node15" class="node"><title>Node15</title>
<polygon fill="white" stroke="#bfbfbf" points="395.5,-1833.5 395.5,-1890.5 424.5,-1890.5 424.5,-1833.5 395.5,-1833.5"/>
<text text-anchor="middle" x="410" y="-1878.5" font-family="Helvetica,sans-Serif" font-size="10.00">K</text>
<polyline fill="none" stroke="#bfbfbf" points="395.5,-1871.5 424.5,-1871.5 "/>
<text text-anchor="middle" x="410" y="-1859.5" font-family="Helvetica,sans-Serif" font-size="10.00"> </text>
<polyline fill="none" stroke="#bfbfbf" points="395.5,-1852.5 424.5,-1852.5 "/>
<text text-anchor="middle" x="410" y="-1840.5" font-family="Helvetica,sans-Serif" font-size="10.00"> </text>
</g>
<!-- Node15&#45;&gt;Node14 -->
<g id="edge16" class="edge"><title>Node15&#45;&gt;Node14</title>
<path fill="none" stroke="#404040" d="M410,-1833.4C410,-1822.55 410,-1809.87 410,-1798.05"/>
<polygon fill="none" stroke="#404040" points="410,-1797.68 406,-1791.68 410,-1785.68 414,-1791.68 410,-1797.68"/>
<text text-anchor="middle" x="427" y="-1807" font-family="Helvetica,sans-Serif" font-size="10.00"> +keys</text>
</g>
<!-- Node16 -->
<g id="node16" class="node"><title>Node16</title>
<polygon fill="white" stroke="#bfbfbf" points="668.5,-1833.5 668.5,-1890.5 697.5,-1890.5 697.5,-1833.5 668.5,-1833.5"/>
<text text-anchor="middle" x="683" y="-1878.5" font-family="Helvetica,sans-Serif" font-size="10.00">T</text>
<polyline fill="none" stroke="#bfbfbf" points="668.5,-1871.5 697.5,-1871.5 "/>
<text text-anchor="middle" x="683" y="-1859.5" font-family="Helvetica,sans-Serif" font-size="10.00"> </text>
<polyline fill="none" stroke="#bfbfbf" points="668.5,-1852.5 697.5,-1852.5 "/>
<text text-anchor="middle" x="683" y="-1840.5" font-family="Helvetica,sans-Serif" font-size="10.00"> </text>
</g>
<!-- Node16&#45;&gt;Node14 -->
<g id="edge17" class="edge"><title>Node16&#45;&gt;Node14</title>
<path fill="none" stroke="#404040" d="M668.322,-1855.46C631.83,-1841.69 535.324,-1805.28 471.16,-1781.07"/>
<polygon fill="none" stroke="#404040" points="470.804,-1780.94 463.778,-1782.57 459.577,-1776.7 466.602,-1775.08 470.804,-1780.94"/>
<text text-anchor="middle" x="583.5" y="-1807" font-family="Helvetica,sans-Serif" font-size="10.00"> +elements</text>
</g>
<!-- Node20 -->
<g id="node20" class="node"><title>Node20</title>
<g id="a_node20"><a xlink:title="STL class. ">
<polygon fill="white" stroke="#bfbfbf" points="754.5,-1648.5 754.5,-1705.5 849.5,-1705.5 849.5,-1648.5 754.5,-1648.5"/>
<text text-anchor="middle" x="802" y="-1693.5" font-family="Helvetica,sans-Serif" font-size="10.00">std::vector&lt; T &gt;</text>
<polyline fill="none" stroke="#bfbfbf" points="754.5,-1686.5 849.5,-1686.5 "/>
<text text-anchor="middle" x="802" y="-1674.5" font-family="Helvetica,sans-Serif" font-size="10.00"> </text>
<polyline fill="none" stroke="#bfbfbf" points="754.5,-1667.5 849.5,-1667.5 "/>
<text text-anchor="middle" x="802" y="-1655.5" font-family="Helvetica,sans-Serif" font-size="10.00"> </text>
</a>
</g>
</g>
<!-- Node16&#45;&gt;Node20 -->
<g id="edge26" class="edge"><title>Node16&#45;&gt;Node20</title>
<path fill="none" stroke="#404040" d="M697.592,-1838.56C717.419,-1808.07 753.152,-1753.12 777.222,-1716.1"/>
<polygon fill="none" stroke="#404040" points="777.441,-1715.77 777.359,-1708.56 783.983,-1705.71 784.065,-1712.92 777.441,-1715.77"/>
<text text-anchor="middle" x="749.5" y="-1807" font-family="Helvetica,sans-Serif" font-size="10.00"> +elements</text>
</g>
<!-- Node17&#45;&gt;Node10 -->
<g id="edge18" class="edge"><title>Node17&#45;&gt;Node10</title>
<path fill="none" stroke="orange" d="M504.331,-1013.47C506.403,-1006.77 508.936,-1000.24 512,-994 517.718,-982.347 526.321,-985.652 535,-976 538.16,-972.485 541.279,-968.85 544.349,-965.122"/>
<polygon fill="orange" stroke="orange" points="500.875,-1012.84 501.618,-1023.41 507.628,-1014.68 500.875,-1012.84"/>
<text text-anchor="middle" x="563" y="-997" font-family="Helvetica,sans-Serif" font-size="10.00"> &lt; Core::Transform &gt;</text>
</g>
<!-- Node18&#45;&gt;Node17 -->
<g id="edge20" class="edge"><title>Node18&#45;&gt;Node17</title>
<path fill="none" stroke="#404040" d="M429.283,-1447.33C433.759,-1416.43 440.645,-1376.05 450,-1341 450.572,-1338.86 451.16,-1336.7 451.763,-1334.54"/>
<polygon fill="none" stroke="#404040" points="451.795,-1334.43 449.612,-1327.55 455.117,-1322.89 457.3,-1329.77 451.795,-1334.43"/>
<text text-anchor="middle" x="486" y="-1344" font-family="Helvetica,sans-Serif" font-size="10.00"> #m_keyframe</text>
</g>
<!-- Node19 -->
<g id="node19" class="node"><title>Node19</title>
<polygon fill="white" stroke="#bfbfbf" points="574,-1728.5 574,-1785.5 622,-1785.5 622,-1728.5 574,-1728.5"/>
<text text-anchor="middle" x="598" y="-1773.5" font-family="Helvetica,sans-Serif" font-size="10.00">FRAME</text>
<polyline fill="none" stroke="#bfbfbf" points="574,-1766.5 622,-1766.5 "/>
<text text-anchor="middle" x="598" y="-1754.5" font-family="Helvetica,sans-Serif" font-size="10.00"> </text>
<polyline fill="none" stroke="#bfbfbf" points="574,-1747.5 622,-1747.5 "/>
<text text-anchor="middle" x="598" y="-1735.5" font-family="Helvetica,sans-Serif" font-size="10.00"> </text>
</g>
<!-- Node19&#45;&gt;Node18 -->
<g id="edge21" class="edge"><title>Node19&#45;&gt;Node18</title>
<path fill="none" stroke="#404040" d="M595.49,-1728.46C592.365,-1699.63 586.164,-1656.8 576,-1644 563.879,-1628.73 551.715,-1637.54 536,-1626 510.177,-1607.04 485.937,-1581.33 466.58,-1558"/>
<polygon fill="none" stroke="#404040" points="466.438,-1557.82 459.549,-1555.69 458.866,-1548.51 465.755,-1550.64 466.438,-1557.82"/>
<text text-anchor="middle" x="621.5" y="-1674.5" font-family="Helvetica,sans-Serif" font-size="10.00"> +elements</text>
</g>
<!-- Node20&#45;&gt;Node7 -->
<g id="edge25" class="edge"><title>Node20&#45;&gt;Node7</title>
<path fill="none" stroke="orange" d="M799.901,-1638C796.709,-1576.84 791,-1452.74 791,-1347.5 791,-1347.5 791,-1347.5 791,-825 791,-586.515 809.137,-496.404 671,-302 666.344,-295.447 660.666,-289.22 654.669,-283.507"/>
<polygon fill="orange" stroke="orange" points="796.424,-1638.52 800.447,-1648.32 803.414,-1638.15 796.424,-1638.52"/>
<text text-anchor="start" x="791" y="-829" font-family="Helvetica,sans-Serif" font-size="10.00"> &lt; Ra::Core::Asset::</text>
<text text-anchor="middle" x="838" y="-818" font-family="Helvetica,sans-Serif" font-size="10.00">HandleAnimation &gt;</text>
</g>
</g>
</svg>
