<?xml version="1.0" encoding="UTF-8" standalone="no"?>
<!DOCTYPE svg PUBLIC "-//W3C//DTD SVG 1.1//EN"
 "http://www.w3.org/Graphics/SVG/1.1/DTD/svg11.dtd">
<!-- Generated by graphviz version 2.38.0 (20140413.2041)
 -->
<!-- Title: AnimationPlugin::AnimationPluginC::restoreFrame Pages: 1 -->
<svg width="527pt" height="57pt"
 viewBox="0.00 0.00 527.00 57.00" xmlns="http://www.w3.org/2000/svg" xmlns:xlink="http://www.w3.org/1999/xlink">
<g id="graph0" class="graph" transform="scale(1 1) rotate(0) translate(4 53)">
<title>AnimationPlugin::AnimationPluginC::restoreFrame</title>
<polygon fill="white" stroke="none" points="-4,4 -4,-53 523,-53 523,4 -4,4"/>
<!-- Node1 -->
<g id="node1" class="node"><title>Node1</title>
<polygon fill="#bfbfbf" stroke="black" points="0,-0.5 0,-30.5 149,-30.5 149,-0.5 0,-0.5"/>
<text text-anchor="start" x="8" y="-18.5" font-family="Helvetica,sans-Serif" font-size="10.00">AnimationPlugin::Animation</text>
<text text-anchor="middle" x="74.5" y="-7.5" font-family="Helvetica,sans-Serif" font-size="10.00">PluginC::restoreFrame</text>
</g>
<!-- Node2 -->
<g id="node2" class="node"><title>Node2</title>
<g id="a_node2"><a xlink:href="classAnimationPlugin_1_1AnimationSystem.html#ab310b648e38b02e175e83966a5a80a39" target="_top" xlink:title="Restores the state data related to the frameID &#45;th frame from the cache file. ">
<polygon fill="white" stroke="black" points="185,-0.5 185,-30.5 334,-30.5 334,-0.5 185,-0.5"/>
<text text-anchor="start" x="193" y="-18.5" font-family="Helvetica,sans-Serif" font-size="10.00">AnimationPlugin::Animation</text>
<text text-anchor="middle" x="259.5" y="-7.5" font-family="Helvetica,sans-Serif" font-size="10.00">System::restoreFrame</text>
</a>
</g>
</g>
<!-- Node1&#45;&gt;Node2 -->
<g id="edge1" class="edge"><title>Node1&#45;&gt;Node2</title>
<path fill="none" stroke="midnightblue" d="M149.142,-15.5C157.474,-15.5 166.011,-15.5 174.463,-15.5"/>
<polygon fill="midnightblue" stroke="midnightblue" points="174.711,-19.0001 184.711,-15.5 174.711,-12.0001 174.711,-19.0001"/>
</g>
<!-- Node3 -->
<g id="node3" class="node"><title>Node3</title>
<g id="a_node3"><a xlink:href="classAnimationPlugin_1_1AnimationSystem.html#abfbf09ff83a03cbbcb158d5c5bdcc065" target="_top" xlink:title="Saves all the state data related to the current frame into a cache file. ">
<polygon fill="white" stroke="black" points="370,-0.5 370,-30.5 519,-30.5 519,-0.5 370,-0.5"/>
<text text-anchor="start" x="378" y="-18.5" font-family="Helvetica,sans-Serif" font-size="10.00">AnimationPlugin::Animation</text>
<text text-anchor="middle" x="444.5" y="-7.5" font-family="Helvetica,sans-Serif" font-size="10.00">System::cacheFrame</text>
</a>
</g>
</g>
<!-- Node2&#45;&gt;Node3 -->
<g id="edge2" class="edge"><title>Node2&#45;&gt;Node3</title>
<path fill="none" stroke="midnightblue" d="M334.142,-15.5C342.474,-15.5 351.011,-15.5 359.463,-15.5"/>
<polygon fill="midnightblue" stroke="midnightblue" points="359.711,-19.0001 369.711,-15.5 359.711,-12.0001 359.711,-19.0001"/>
</g>
<!-- Node3&#45;&gt;Node3 -->
<g id="edge3" class="edge"><title>Node3&#45;&gt;Node3</title>
<path fill="none" stroke="midnightblue" d="M412.434,-30.659C404.702,-40.0566 415.391,-49 444.5,-49 462.239,-49 473.137,-45.679 477.195,-40.9579"/>
<polygon fill="midnightblue" stroke="midnightblue" points="480.669,-40.4271 476.566,-30.659 473.682,-40.8537 480.669,-40.4271"/>
</g>
</g>
</svg>
