<?xml version="1.0" encoding="UTF-8" standalone="no"?>
<!DOCTYPE svg PUBLIC "-//W3C//DTD SVG 1.1//EN"
 "http://www.w3.org/Graphics/SVG/1.1/DTD/svg11.dtd">
<!-- Generated by graphviz version 2.38.0 (20140413.2041)
 -->
<!-- Title: Ra::Core::Asset::FileLoaderInterface::~FileLoaderInterface Pages: 1 -->
<svg width="365pt" height="186pt"
 viewBox="0.00 0.00 365.00 186.00" xmlns="http://www.w3.org/2000/svg" xmlns:xlink="http://www.w3.org/1999/xlink">
<g id="graph0" class="graph" transform="scale(1 1) rotate(0) translate(4 182)">
<title>Ra::Core::Asset::FileLoaderInterface::~FileLoaderInterface</title>
<polygon fill="white" stroke="none" points="-4,4 -4,-182 361,-182 361,4 -4,4"/>
<!-- Node1 -->
<g id="node1" class="node"><title>Node1</title>
<polygon fill="#bfbfbf" stroke="black" points="0,-73.5 0,-103.5 163,-103.5 163,-73.5 0,-73.5"/>
<text text-anchor="start" x="8" y="-91.5" font-family="Helvetica,sans-Serif" font-size="10.00">Ra::Core::Asset::FileLoader</text>
<text text-anchor="middle" x="81.5" y="-80.5" font-family="Helvetica,sans-Serif" font-size="10.00">Interface::~FileLoaderInterface</text>
</g>
<!-- Node2 -->
<g id="node2" class="node"><title>Node2</title>
<g id="a_node2"><a xlink:href="classRa_1_1Core_1_1Asset_1_1FileLoaderInterface.html#a87155782e0258eeba232f60cc8d905a9" target="_top" xlink:title="Ra::Core::Asset::FileLoader\lInterface::getFileExtensions">
<polygon fill="white" stroke="black" points="204.5,-147.5 204.5,-177.5 351.5,-177.5 351.5,-147.5 204.5,-147.5"/>
<text text-anchor="start" x="212.5" y="-165.5" font-family="Helvetica,sans-Serif" font-size="10.00">Ra::Core::Asset::FileLoader</text>
<text text-anchor="middle" x="278" y="-154.5" font-family="Helvetica,sans-Serif" font-size="10.00">Interface::getFileExtensions</text>
</a>
</g>
</g>
<!-- Node1&#45;&gt;Node2 -->
<g id="edge1" class="edge"><title>Node1&#45;&gt;Node2</title>
<path fill="none" stroke="midnightblue" d="M115.015,-103.564C138.174,-114.019 170.178,-127.915 199,-138.5 204.237,-140.423 209.708,-142.323 215.217,-144.16"/>
<polygon fill="midnightblue" stroke="midnightblue" points="214.541,-147.621 225.133,-147.392 216.71,-140.965 214.541,-147.621"/>
</g>
<!-- Node3 -->
<g id="node3" class="node"><title>Node3</title>
<g id="a_node3"><a xlink:href="classRa_1_1Core_1_1Asset_1_1FileLoaderInterface.html#a0bd4215d6e780ef5a733dba508a7dafe" target="_top" xlink:title="Ra::Core::Asset::FileLoader\lInterface::handleFileExtension">
<polygon fill="white" stroke="black" points="199,-98.5 199,-128.5 357,-128.5 357,-98.5 199,-98.5"/>
<text text-anchor="start" x="207" y="-116.5" font-family="Helvetica,sans-Serif" font-size="10.00">Ra::Core::Asset::FileLoader</text>
<text text-anchor="middle" x="278" y="-105.5" font-family="Helvetica,sans-Serif" font-size="10.00">Interface::handleFileExtension</text>
</a>
</g>
</g>
<!-- Node1&#45;&gt;Node3 -->
<g id="edge2" class="edge"><title>Node1&#45;&gt;Node3</title>
<path fill="none" stroke="midnightblue" d="M163.015,-98.8489C171.503,-99.9399 180.166,-101.053 188.736,-102.155"/>
<polygon fill="midnightblue" stroke="midnightblue" points="188.372,-105.637 198.736,-103.44 189.264,-98.694 188.372,-105.637"/>
</g>
<!-- Node4 -->
<g id="node4" class="node"><title>Node4</title>
<g id="a_node4"><a xlink:href="classRa_1_1Core_1_1Asset_1_1FileLoaderInterface.html#a00cd047e34ff18ba46d469830ed33421" target="_top" xlink:title="Try to load file, returns nullptr in case of failure. ">
<polygon fill="white" stroke="black" points="206,-49.5 206,-79.5 350,-79.5 350,-49.5 206,-49.5"/>
<text text-anchor="start" x="214" y="-67.5" font-family="Helvetica,sans-Serif" font-size="10.00">Ra::Core::Asset::FileLoader</text>
<text text-anchor="middle" x="278" y="-56.5" font-family="Helvetica,sans-Serif" font-size="10.00">Interface::loadFile</text>
</a>
</g>
</g>
<!-- Node1&#45;&gt;Node4 -->
<g id="edge3" class="edge"><title>Node1&#45;&gt;Node4</title>
<path fill="none" stroke="midnightblue" d="M163.015,-78.565C173.785,-77.236 184.839,-75.8721 195.624,-74.5412"/>
<polygon fill="midnightblue" stroke="midnightblue" points="196.369,-77.976 205.865,-73.2776 195.512,-71.0287 196.369,-77.976"/>
</g>
<!-- Node5 -->
<g id="node5" class="node"><title>Node5</title>
<g id="a_node5"><a xlink:href="classRa_1_1Core_1_1Asset_1_1FileLoaderInterface.html#a8f1bc65a927da037686cc3ff889fb149" target="_top" xlink:title="Unique name of the loader. ">
<polygon fill="white" stroke="black" points="206,-0.5 206,-30.5 350,-30.5 350,-0.5 206,-0.5"/>
<text text-anchor="start" x="214" y="-18.5" font-family="Helvetica,sans-Serif" font-size="10.00">Ra::Core::Asset::FileLoader</text>
<text text-anchor="middle" x="278" y="-7.5" font-family="Helvetica,sans-Serif" font-size="10.00">Interface::name</text>
</a>
</g>
</g>
<!-- Node1&#45;&gt;Node5 -->
<g id="edge4" class="edge"><title>Node1&#45;&gt;Node5</title>
<path fill="none" stroke="midnightblue" d="M116.878,-73.4807C139.925,-63.6236 171.058,-50.7151 199,-40.5 205.281,-38.2036 211.887,-35.9072 218.487,-33.6883"/>
<polygon fill="midnightblue" stroke="midnightblue" points="219.719,-36.9672 228.112,-30.5018 217.519,-30.3219 219.719,-36.9672"/>
</g>
</g>
</svg>
