<?xml version="1.0" encoding="UTF-8" standalone="no"?>
<!DOCTYPE svg PUBLIC "-//W3C//DTD SVG 1.1//EN"
 "http://www.w3.org/Graphics/SVG/1.1/DTD/svg11.dtd">
<!-- Generated by graphviz version 2.38.0 (20140413.2041)
 -->
<!-- Title: MeshFeatureTrackingPlugin::MeshFeatureTrackingPluginC::onCurrentChanged Pages: 1 -->
<svg width="886pt" height="317pt"
 viewBox="0.00 0.00 886.00 316.50" xmlns="http://www.w3.org/2000/svg" xmlns:xlink="http://www.w3.org/1999/xlink">
<g id="graph0" class="graph" transform="scale(1 1) rotate(0) translate(4 312.5)">
<title>MeshFeatureTrackingPlugin::MeshFeatureTrackingPluginC::onCurrentChanged</title>
<polygon fill="white" stroke="none" points="-4,4 -4,-312.5 882,-312.5 882,4 -4,4"/>
<!-- Node1 -->
<g id="node1" class="node"><title>Node1</title>
<polygon fill="#bfbfbf" stroke="black" points="0,-120 0,-161 158,-161 158,-120 0,-120"/>
<text text-anchor="start" x="8" y="-149" font-family="Helvetica,sans-Serif" font-size="10.00">MeshFeatureTrackingPlugin</text>
<text text-anchor="start" x="8" y="-138" font-family="Helvetica,sans-Serif" font-size="10.00">::MeshFeatureTrackingPluginC</text>
<text text-anchor="middle" x="79" y="-127" font-family="Helvetica,sans-Serif" font-size="10.00">::onCurrentChanged</text>
</g>
<!-- Node2 -->
<g id="node2" class="node"><title>Node2</title>
<g id="a_node2"><a xlink:href="classMeshFeatureTrackingPlugin_1_1MeshFeatureTrackingComponent.html#a66368f335e3ec0d11c6f36957ffde923" target="_top" xlink:title="MeshFeatureTrackingPlugin\l::MeshFeatureTrackingComponent\l::setData">
<polygon fill="white" stroke="black" points="194,-147 194,-188 373,-188 373,-147 194,-147"/>
<text text-anchor="start" x="202" y="-176" font-family="Helvetica,sans-Serif" font-size="10.00">MeshFeatureTrackingPlugin</text>
<text text-anchor="start" x="202" y="-165" font-family="Helvetica,sans-Serif" font-size="10.00">::MeshFeatureTrackingComponent</text>
<text text-anchor="middle" x="283.5" y="-154" font-family="Helvetica,sans-Serif" font-size="10.00">::setData</text>
</a>
</g>
</g>
<!-- Node1&#45;&gt;Node2 -->
<g id="edge1" class="edge"><title>Node1&#45;&gt;Node2</title>
<path fill="none" stroke="midnightblue" d="M158.002,-150.9C166.411,-152.021 175.045,-153.173 183.656,-154.321"/>
<polygon fill="midnightblue" stroke="midnightblue" points="183.365,-157.813 193.74,-155.665 184.29,-150.874 183.365,-157.813"/>
</g>
<!-- Node8 -->
<g id="node8" class="node"><title>Node8</title>
<g id="a_node8"><a xlink:href="classRa_1_1Gui_1_1PickingManager.html#a93bbe7807a11b0aa423ddcc777dc1168" target="_top" xlink:title="Ra::Gui::PickingManager\l::getCurrent">
<polygon fill="white" stroke="black" points="218,-98.5 218,-128.5 349,-128.5 349,-98.5 218,-98.5"/>
<text text-anchor="start" x="226" y="-116.5" font-family="Helvetica,sans-Serif" font-size="10.00">Ra::Gui::PickingManager</text>
<text text-anchor="middle" x="283.5" y="-105.5" font-family="Helvetica,sans-Serif" font-size="10.00">::getCurrent</text>
</a>
</g>
</g>
<!-- Node1&#45;&gt;Node8 -->
<g id="edge7" class="edge"><title>Node1&#45;&gt;Node8</title>
<path fill="none" stroke="midnightblue" d="M158.002,-130.1C174.333,-127.922 191.517,-125.631 207.728,-123.47"/>
<polygon fill="midnightblue" stroke="midnightblue" points="208.229,-126.934 217.679,-122.143 207.304,-119.995 208.229,-126.934"/>
</g>
<!-- Node9 -->
<g id="node9" class="node"><title>Node9</title>
<g id="a_node9"><a xlink:href="classMeshFeatureTrackingUI.html#ab777ee63149b8a602fe1b2239aceb121" target="_top" xlink:title="MeshFeatureTrackingUI\l::setMaxV">
<polygon fill="white" stroke="black" points="220.5,-49.5 220.5,-79.5 346.5,-79.5 346.5,-49.5 220.5,-49.5"/>
<text text-anchor="start" x="228.5" y="-67.5" font-family="Helvetica,sans-Serif" font-size="10.00">MeshFeatureTrackingUI</text>
<text text-anchor="middle" x="283.5" y="-56.5" font-family="Helvetica,sans-Serif" font-size="10.00">::setMaxV</text>
</a>
</g>
</g>
<!-- Node1&#45;&gt;Node9 -->
<g id="edge8" class="edge"><title>Node1&#45;&gt;Node9</title>
<path fill="none" stroke="midnightblue" d="M121.895,-120C143.185,-110.035 169.643,-98.3355 194,-89.5 200.707,-87.067 207.769,-84.7216 214.858,-82.5074"/>
<polygon fill="midnightblue" stroke="midnightblue" points="215.961,-85.8305 224.511,-79.5735 213.925,-79.133 215.961,-85.8305"/>
</g>
<!-- Node10 -->
<g id="node10" class="node"><title>Node10</title>
<g id="a_node10"><a xlink:href="classMeshFeatureTrackingPlugin_1_1MeshFeatureTrackingComponent.html#a44ee75a33e55aef1afcd1ceb9d543109" target="_top" xlink:title="MeshFeatureTrackingPlugin\l::MeshFeatureTrackingComponent\l::getMaxV">
<polygon fill="white" stroke="black" points="194,-267 194,-308 373,-308 373,-267 194,-267"/>
<text text-anchor="start" x="202" y="-296" font-family="Helvetica,sans-Serif" font-size="10.00">MeshFeatureTrackingPlugin</text>
<text text-anchor="start" x="202" y="-285" font-family="Helvetica,sans-Serif" font-size="10.00">::MeshFeatureTrackingComponent</text>
<text text-anchor="middle" x="283.5" y="-274" font-family="Helvetica,sans-Serif" font-size="10.00">::getMaxV</text>
</a>
</g>
</g>
<!-- Node1&#45;&gt;Node10 -->
<g id="edge9" class="edge"><title>Node1&#45;&gt;Node10</title>
<path fill="none" stroke="midnightblue" d="M95.0923,-161.169C115.028,-187.099 152.499,-231.33 194,-257.5 196.745,-259.231 199.6,-260.874 202.534,-262.433"/>
<polygon fill="midnightblue" stroke="midnightblue" points="201.012,-265.585 211.53,-266.861 204.103,-259.305 201.012,-265.585"/>
</g>
<!-- Node11 -->
<g id="node11" class="node"><title>Node11</title>
<g id="a_node11"><a xlink:href="classMeshFeatureTrackingUI.html#a0ed36b5116dc2a6b219f4b037e635632" target="_top" xlink:title="MeshFeatureTrackingUI\l::setMaxT">
<polygon fill="white" stroke="black" points="220.5,-0.5 220.5,-30.5 346.5,-30.5 346.5,-0.5 220.5,-0.5"/>
<text text-anchor="start" x="228.5" y="-18.5" font-family="Helvetica,sans-Serif" font-size="10.00">MeshFeatureTrackingUI</text>
<text text-anchor="middle" x="283.5" y="-7.5" font-family="Helvetica,sans-Serif" font-size="10.00">::setMaxT</text>
</a>
</g>
</g>
<!-- Node1&#45;&gt;Node11 -->
<g id="edge12" class="edge"><title>Node1&#45;&gt;Node11</title>
<path fill="none" stroke="midnightblue" d="M97.6651,-119.971C118.467,-97.0636 155.14,-60.4731 194,-39.5 199.205,-36.6906 204.764,-34.1911 210.464,-31.9708"/>
<polygon fill="midnightblue" stroke="midnightblue" points="211.923,-35.1658 220.152,-28.4923 209.557,-28.5776 211.923,-35.1658"/>
</g>
<!-- Node12 -->
<g id="node12" class="node"><title>Node12</title>
<g id="a_node12"><a xlink:href="classMeshFeatureTrackingPlugin_1_1MeshFeatureTrackingComponent.html#a1898df5c97790eb875d473abade574d9" target="_top" xlink:title="MeshFeatureTrackingPlugin\l::MeshFeatureTrackingComponent\l::getMaxT">
<polygon fill="white" stroke="black" points="194,-207 194,-248 373,-248 373,-207 194,-207"/>
<text text-anchor="start" x="202" y="-236" font-family="Helvetica,sans-Serif" font-size="10.00">MeshFeatureTrackingPlugin</text>
<text text-anchor="start" x="202" y="-225" font-family="Helvetica,sans-Serif" font-size="10.00">::MeshFeatureTrackingComponent</text>
<text text-anchor="middle" x="283.5" y="-214" font-family="Helvetica,sans-Serif" font-size="10.00">::getMaxT</text>
</a>
</g>
</g>
<!-- Node1&#45;&gt;Node12 -->
<g id="edge13" class="edge"><title>Node1&#45;&gt;Node12</title>
<path fill="none" stroke="midnightblue" d="M117.911,-161.092C139.805,-172.567 168.064,-186.68 194,-197.5 198.744,-199.479 203.67,-201.428 208.66,-203.324"/>
<polygon fill="midnightblue" stroke="midnightblue" points="207.71,-206.705 218.303,-206.898 210.143,-200.141 207.71,-206.705"/>
</g>
<!-- Node3 -->
<g id="node3" class="node"><title>Node3</title>
<g id="a_node3"><a xlink:href="classRa_1_1Engine_1_1Component.html#a10b0bc182b76165744ebea603ae32dfe" target="_top" xlink:title="Shortcut to access the render object manager. ">
<polygon fill="white" stroke="black" points="416.5,-204.5 416.5,-234.5 545.5,-234.5 545.5,-204.5 416.5,-204.5"/>
<text text-anchor="start" x="424.5" y="-222.5" font-family="Helvetica,sans-Serif" font-size="10.00">Ra::Engine::Component</text>
<text text-anchor="middle" x="481" y="-211.5" font-family="Helvetica,sans-Serif" font-size="10.00">::getRoMgr</text>
</a>
</g>
</g>
<!-- Node2&#45;&gt;Node3 -->
<g id="edge2" class="edge"><title>Node2&#45;&gt;Node3</title>
<path fill="none" stroke="midnightblue" d="M361.767,-188.052C378.986,-192.632 397.093,-197.448 413.819,-201.897"/>
<polygon fill="midnightblue" stroke="midnightblue" points="412.927,-205.281 423.49,-204.469 414.726,-198.516 412.927,-205.281"/>
</g>
<!-- Node4 -->
<g id="node4" class="node"><title>Node4</title>
<g id="a_node4"><a xlink:href="classRa_1_1Engine_1_1RenderObjectManager.html#a13fc919e9fa01bfb36e67bc9011d325f" target="_top" xlink:title="Returns the render object corresponding to the given index. ">
<polygon fill="white" stroke="black" points="409,-253.5 409,-283.5 553,-283.5 553,-253.5 409,-253.5"/>
<text text-anchor="start" x="417" y="-271.5" font-family="Helvetica,sans-Serif" font-size="10.00">Ra::Engine::RenderObject</text>
<text text-anchor="middle" x="481" y="-260.5" font-family="Helvetica,sans-Serif" font-size="10.00">Manager::getRenderObject</text>
</a>
</g>
</g>
<!-- Node2&#45;&gt;Node4 -->
<g id="edge3" class="edge"><title>Node2&#45;&gt;Node4</title>
<path fill="none" stroke="midnightblue" d="M357.278,-188.122C362.805,-190.889 368.122,-194.003 373,-197.5 394.385,-212.831 387.609,-229.178 409,-244.5 411.083,-245.992 413.265,-247.396 415.519,-248.717"/>
<polygon fill="midnightblue" stroke="midnightblue" points="414.027,-251.887 424.511,-253.413 417.267,-245.682 414.027,-251.887"/>
</g>
<!-- Node7 -->
<g id="node7" class="node"><title>Node7</title>
<g id="a_node7"><a xlink:href="namespaceRa_1_1Core_1_1Geometry.html#aa04e6052d8911b1df1bd881474debb45" target="_top" xlink:title="Ra::Core::Geometry::t">
<polygon fill="white" stroke="black" points="421,-158 421,-177 541,-177 541,-158 421,-158"/>
<text text-anchor="middle" x="481" y="-165" font-family="Helvetica,sans-Serif" font-size="10.00">Ra::Core::Geometry::t</text>
</a>
</g>
</g>
<!-- Node2&#45;&gt;Node7 -->
<g id="edge6" class="edge"><title>Node2&#45;&gt;Node7</title>
<path fill="none" stroke="midnightblue" d="M373.098,-167.5C385.726,-167.5 398.561,-167.5 410.747,-167.5"/>
<polygon fill="midnightblue" stroke="midnightblue" points="410.813,-171 420.813,-167.5 410.813,-164 410.813,-171"/>
</g>
<!-- Node5 -->
<g id="node5" class="node"><title>Node5</title>
<g id="a_node5"><a xlink:href="classRa_1_1Engine_1_1RenderObjectManager.html#a088feae4339349a81b7b6635b38aead1" target="_top" xlink:title="Returns true if the index points to a valid render object. ">
<polygon fill="white" stroke="black" points="589,-253.5 589,-283.5 726,-283.5 726,-253.5 589,-253.5"/>
<text text-anchor="start" x="597" y="-271.5" font-family="Helvetica,sans-Serif" font-size="10.00">Ra::Engine::RenderObject</text>
<text text-anchor="middle" x="657.5" y="-260.5" font-family="Helvetica,sans-Serif" font-size="10.00">Manager::exists</text>
</a>
</g>
</g>
<!-- Node4&#45;&gt;Node5 -->
<g id="edge4" class="edge"><title>Node4&#45;&gt;Node5</title>
<path fill="none" stroke="midnightblue" d="M553.228,-268.5C561.602,-268.5 570.181,-268.5 578.641,-268.5"/>
<polygon fill="midnightblue" stroke="midnightblue" points="578.879,-272 588.879,-268.5 578.879,-265 578.879,-272"/>
</g>
<!-- Node6 -->
<g id="node6" class="node"><title>Node6</title>
<g id="a_node6"><a xlink:href="classRa_1_1Core_1_1Utils_1_1Index.html#ac7a1b710e6b95834a562c27e2f6c0f4b" target="_top" xlink:title="DESTRUCTOR: Must not be defined, we need it trivial to be constexpr. ">
<polygon fill="white" stroke="black" points="762,-253.5 762,-283.5 878,-283.5 878,-253.5 762,-253.5"/>
<text text-anchor="start" x="770" y="-271.5" font-family="Helvetica,sans-Serif" font-size="10.00">Ra::Core::Utils::Index</text>
<text text-anchor="middle" x="820" y="-260.5" font-family="Helvetica,sans-Serif" font-size="10.00">::isValid</text>
</a>
</g>
</g>
<!-- Node5&#45;&gt;Node6 -->
<g id="edge5" class="edge"><title>Node5&#45;&gt;Node6</title>
<path fill="none" stroke="midnightblue" d="M726.101,-268.5C734.567,-268.5 743.226,-268.5 751.688,-268.5"/>
<polygon fill="midnightblue" stroke="midnightblue" points="751.885,-272 761.885,-268.5 751.885,-265 751.885,-272"/>
</g>
<!-- Node10&#45;&gt;Node3 -->
<g id="edge10" class="edge"><title>Node10&#45;&gt;Node3</title>
<path fill="none" stroke="midnightblue" d="M345.969,-266.837C355.043,-263.737 364.272,-260.555 373,-257.5 389.056,-251.88 392.977,-250.214 409,-244.5 414.978,-242.368 421.242,-240.146 427.47,-237.944"/>
<polygon fill="midnightblue" stroke="midnightblue" points="428.915,-241.145 437.179,-234.516 426.585,-234.545 428.915,-241.145"/>
</g>
<!-- Node10&#45;&gt;Node4 -->
<g id="edge11" class="edge"><title>Node10&#45;&gt;Node4</title>
<path fill="none" stroke="midnightblue" d="M373.098,-278.889C381.645,-278.059 390.286,-277.219 398.757,-276.396"/>
<polygon fill="midnightblue" stroke="midnightblue" points="399.374,-279.852 408.988,-275.401 398.696,-272.885 399.374,-279.852"/>
</g>
<!-- Node12&#45;&gt;Node3 -->
<g id="edge14" class="edge"><title>Node12&#45;&gt;Node3</title>
<path fill="none" stroke="midnightblue" d="M373.098,-223.875C384.123,-223.423 395.304,-222.966 406.075,-222.525"/>
<polygon fill="midnightblue" stroke="midnightblue" points="406.408,-226.014 416.257,-222.108 406.122,-219.02 406.408,-226.014"/>
</g>
<!-- Node12&#45;&gt;Node4 -->
<g id="edge15" class="edge"><title>Node12&#45;&gt;Node4</title>
<path fill="none" stroke="midnightblue" d="M373.098,-246.081C381.739,-247.893 390.476,-249.725 399.037,-251.52"/>
<polygon fill="midnightblue" stroke="midnightblue" points="398.483,-254.98 408.988,-253.607 399.919,-248.129 398.483,-254.98"/>
</g>
</g>
</svg>
