<?xml version="1.0" encoding="UTF-8" standalone="no"?>
<!DOCTYPE svg PUBLIC "-//W3C//DTD SVG 1.1//EN"
 "http://www.w3.org/Graphics/SVG/1.1/DTD/svg11.dtd">
<!-- Generated by graphviz version 2.38.0 (20140413.2041)
 -->
<!-- Title: Ra::Gui::KeyMappingManager::reloadConfiguration Pages: 1 -->
<svg width="354pt" height="88pt"
 viewBox="0.00 0.00 354.00 88.00" xmlns="http://www.w3.org/2000/svg" xmlns:xlink="http://www.w3.org/1999/xlink">
<g id="graph0" class="graph" transform="scale(1 1) rotate(0) translate(4 84)">
<title>Ra::Gui::KeyMappingManager::reloadConfiguration</title>
<polygon fill="white" stroke="none" points="-4,4 -4,-84 350,-84 350,4 -4,4"/>
<!-- Node1 -->
<g id="node1" class="node"><title>Node1</title>
<polygon fill="#bfbfbf" stroke="black" points="0,-24.5 0,-54.5 155,-54.5 155,-24.5 0,-24.5"/>
<text text-anchor="start" x="8" y="-42.5" font-family="Helvetica,sans-Serif" font-size="10.00">Ra::Gui::KeyMappingManager</text>
<text text-anchor="middle" x="77.5" y="-31.5" font-family="Helvetica,sans-Serif" font-size="10.00">::reloadConfiguration</text>
</g>
<!-- Node2 -->
<g id="node2" class="node"><title>Node2</title>
<g id="a_node2"><a xlink:href="classRa_1_1Gui_1_1KeyMappingManager.html#aad32ca0767b840cfe9efea43335de826" target="_top" xlink:title="Ra::Gui::KeyMappingManager\l::loadConfiguration">
<polygon fill="white" stroke="black" points="191,-49.5 191,-79.5 346,-79.5 346,-49.5 191,-49.5"/>
<text text-anchor="start" x="199" y="-67.5" font-family="Helvetica,sans-Serif" font-size="10.00">Ra::Gui::KeyMappingManager</text>
<text text-anchor="middle" x="268.5" y="-56.5" font-family="Helvetica,sans-Serif" font-size="10.00">::loadConfiguration</text>
</a>
</g>
</g>
<!-- Node1&#45;&gt;Node2 -->
<g id="edge1" class="edge"><title>Node1&#45;&gt;Node2</title>
<path fill="none" stroke="midnightblue" d="M155.101,-49.6324C163.559,-50.7512 172.215,-51.8962 180.786,-53.0298"/>
<polygon fill="midnightblue" stroke="midnightblue" points="180.417,-56.5115 190.79,-54.3532 181.335,-49.572 180.417,-56.5115"/>
</g>
<!-- Node3 -->
<g id="node3" class="node"><title>Node3</title>
<g id="a_node3"><a xlink:href="namespaceRa_1_1Gui.html#ad6430f87946fe8122845adcb028aec0d" target="_top" xlink:title="Ra::Gui::RA_SINGLETON\l_IMPLEMENTATION">
<polygon fill="white" stroke="black" points="204,-0.5 204,-30.5 333,-30.5 333,-0.5 204,-0.5"/>
<text text-anchor="start" x="212" y="-18.5" font-family="Helvetica,sans-Serif" font-size="10.00">Ra::Gui::RA_SINGLETON</text>
<text text-anchor="middle" x="268.5" y="-7.5" font-family="Helvetica,sans-Serif" font-size="10.00">_IMPLEMENTATION</text>
</a>
</g>
</g>
<!-- Node1&#45;&gt;Node3 -->
<g id="edge2" class="edge"><title>Node1&#45;&gt;Node3</title>
<path fill="none" stroke="midnightblue" d="M155.101,-29.7729C167.858,-28.1529 181.067,-26.4756 193.751,-24.865"/>
<polygon fill="midnightblue" stroke="midnightblue" points="194.313,-28.3218 203.792,-23.5899 193.431,-21.3776 194.313,-28.3218"/>
</g>
</g>
</svg>
