<?xml version="1.0" encoding="UTF-8" standalone="no"?>
<!DOCTYPE svg PUBLIC "-//W3C//DTD SVG 1.1//EN"
 "http://www.w3.org/Graphics/SVG/1.1/DTD/svg11.dtd">
<!-- Generated by graphviz version 2.38.0 (20140413.2041)
 -->
<!-- Title: Ra::Core::Utils::Log&lt; T &gt; Pages: 1 -->
<svg width="143pt" height="628pt"
 viewBox="0.00 0.00 143.00 628.00" xmlns="http://www.w3.org/2000/svg" xmlns:xlink="http://www.w3.org/1999/xlink">
<g id="graph0" class="graph" transform="scale(1 1) rotate(0) translate(4 624)">
<title>Ra::Core::Utils::Log&lt; T &gt;</title>
<polygon fill="white" stroke="none" points="-4,4 -4,-624 139,-624 139,4 -4,4"/>
<!-- Node1 -->
<g id="node1" class="node"><title>Node1</title>
<polygon fill="#bfbfbf" stroke="black" points="0,-0.5 0,-112.5 135,-112.5 135,-0.5 0,-0.5"/>
<text text-anchor="middle" x="67.5" y="-100.5" font-family="Helvetica,sans-Serif" font-size="10.00">Ra::Core::Utils::Log&lt; T &gt;</text>
<polyline fill="none" stroke="black" points="0,-93.5 135,-93.5 "/>
<text text-anchor="middle" x="67.5" y="-81.5" font-family="Helvetica,sans-Serif" font-size="10.00"> </text>
<polyline fill="none" stroke="black" points="0,-74.5 135,-74.5 "/>
<text text-anchor="start" x="8" y="-62.5" font-family="Helvetica,sans-Serif" font-size="10.00">+ Log()</text>
<text text-anchor="start" x="8" y="-51.5" font-family="Helvetica,sans-Serif" font-size="10.00">+ ~Log()</text>
<text text-anchor="start" x="8" y="-40.5" font-family="Helvetica,sans-Serif" font-size="10.00">+ Get()</text>
<text text-anchor="start" x="8" y="-29.5" font-family="Helvetica,sans-Serif" font-size="10.00">+ ReportingLevel()</text>
<text text-anchor="start" x="8" y="-18.5" font-family="Helvetica,sans-Serif" font-size="10.00">+ ToString()</text>
<text text-anchor="start" x="8" y="-7.5" font-family="Helvetica,sans-Serif" font-size="10.00">+ FromString()</text>
</g>
<!-- Node2 -->
<g id="node2" class="node"><title>Node2</title>
<g id="a_node2"><a xlink:title="STL class. ">
<polygon fill="white" stroke="#bfbfbf" points="15,-160.5 15,-217.5 120,-217.5 120,-160.5 15,-160.5"/>
<text text-anchor="middle" x="67.5" y="-205.5" font-family="Helvetica,sans-Serif" font-size="10.00">std::ostringstream</text>
<polyline fill="none" stroke="#bfbfbf" points="15,-198.5 120,-198.5 "/>
<text text-anchor="middle" x="67.5" y="-186.5" font-family="Helvetica,sans-Serif" font-size="10.00"> </text>
<polyline fill="none" stroke="#bfbfbf" points="15,-179.5 120,-179.5 "/>
<text text-anchor="middle" x="67.5" y="-167.5" font-family="Helvetica,sans-Serif" font-size="10.00"> </text>
</a>
</g>
</g>
<!-- Node2&#45;&gt;Node1 -->
<g id="edge1" class="edge"><title>Node2&#45;&gt;Node1</title>
<path fill="none" stroke="#404040" d="M67.5,-160.324C67.5,-149.778 67.5,-137.246 67.5,-124.62"/>
<polygon fill="none" stroke="#404040" points="67.5001,-124.548 63.5,-118.548 67.5,-112.548 71.5,-118.548 67.5001,-124.548"/>
<text text-anchor="middle" x="79" y="-134" font-family="Helvetica,sans-Serif" font-size="10.00"> #os</text>
</g>
<!-- Node3 -->
<g id="node3" class="node"><title>Node3</title>
<g id="a_node3"><a xlink:title="STL class. ">
<polygon fill="white" stroke="#bfbfbf" points="0,-255.5 0,-323.5 135,-323.5 135,-255.5 0,-255.5"/>
<text text-anchor="start" x="8" y="-311.5" font-family="Helvetica,sans-Serif" font-size="10.00">std::basic_ostringstream</text>
<text text-anchor="middle" x="67.5" y="-300.5" font-family="Helvetica,sans-Serif" font-size="10.00">&lt; char &gt;</text>
<polyline fill="none" stroke="#bfbfbf" points="0,-293.5 135,-293.5 "/>
<text text-anchor="middle" x="67.5" y="-281.5" font-family="Helvetica,sans-Serif" font-size="10.00"> </text>
<polyline fill="none" stroke="#bfbfbf" points="0,-274.5 135,-274.5 "/>
<text text-anchor="middle" x="67.5" y="-262.5" font-family="Helvetica,sans-Serif" font-size="10.00"> </text>
</a>
</g>
</g>
<!-- Node3&#45;&gt;Node2 -->
<g id="edge2" class="edge"><title>Node3&#45;&gt;Node2</title>
<path fill="none" stroke="midnightblue" d="M67.5,-245.375C67.5,-235.94 67.5,-226.201 67.5,-217.571"/>
<polygon fill="none" stroke="midnightblue" points="64.0001,-245.427 67.5,-255.427 71.0001,-245.427 64.0001,-245.427"/>
</g>
<!-- Node4 -->
<g id="node4" class="node"><title>Node4</title>
<g id="a_node4"><a xlink:title="STL class. ">
<polygon fill="white" stroke="#bfbfbf" points="13.5,-361.5 13.5,-429.5 121.5,-429.5 121.5,-361.5 13.5,-361.5"/>
<text text-anchor="start" x="21.5" y="-417.5" font-family="Helvetica,sans-Serif" font-size="10.00">std::basic_ostream</text>
<text text-anchor="middle" x="67.5" y="-406.5" font-family="Helvetica,sans-Serif" font-size="10.00">&lt; Char &gt;</text>
<polyline fill="none" stroke="#bfbfbf" points="13.5,-399.5 121.5,-399.5 "/>
<text text-anchor="middle" x="67.5" y="-387.5" font-family="Helvetica,sans-Serif" font-size="10.00"> </text>
<polyline fill="none" stroke="#bfbfbf" points="13.5,-380.5 121.5,-380.5 "/>
<text text-anchor="middle" x="67.5" y="-368.5" font-family="Helvetica,sans-Serif" font-size="10.00"> </text>
</a>
</g>
</g>
<!-- Node4&#45;&gt;Node3 -->
<g id="edge3" class="edge"><title>Node4&#45;&gt;Node3</title>
<path fill="none" stroke="midnightblue" d="M67.5,-351.174C67.5,-342.002 67.5,-332.461 67.5,-323.734"/>
<polygon fill="none" stroke="midnightblue" points="64.0001,-351.308 67.5,-361.308 71.0001,-351.308 64.0001,-351.308"/>
</g>
<!-- Node5 -->
<g id="node5" class="node"><title>Node5</title>
<g id="a_node5"><a xlink:title="STL class. ">
<polygon fill="white" stroke="#bfbfbf" points="4.5,-467.5 4.5,-524.5 130.5,-524.5 130.5,-467.5 4.5,-467.5"/>
<text text-anchor="middle" x="67.5" y="-512.5" font-family="Helvetica,sans-Serif" font-size="10.00">std::basic_ios&lt; Char &gt;</text>
<polyline fill="none" stroke="#bfbfbf" points="4.5,-505.5 130.5,-505.5 "/>
<text text-anchor="middle" x="67.5" y="-493.5" font-family="Helvetica,sans-Serif" font-size="10.00"> </text>
<polyline fill="none" stroke="#bfbfbf" points="4.5,-486.5 130.5,-486.5 "/>
<text text-anchor="middle" x="67.5" y="-474.5" font-family="Helvetica,sans-Serif" font-size="10.00"> </text>
</a>
</g>
</g>
<!-- Node5&#45;&gt;Node4 -->
<g id="edge4" class="edge"><title>Node5&#45;&gt;Node4</title>
<path fill="none" stroke="midnightblue" d="M67.5,-457.007C67.5,-447.962 67.5,-438.383 67.5,-429.578"/>
<polygon fill="none" stroke="midnightblue" points="64.0001,-457.3 67.5,-467.3 71.0001,-457.3 64.0001,-457.3"/>
</g>
<!-- Node6 -->
<g id="node6" class="node"><title>Node6</title>
<g id="a_node6"><a xlink:title="STL class. ">
<polygon fill="white" stroke="#bfbfbf" points="27.5,-562.5 27.5,-619.5 107.5,-619.5 107.5,-562.5 27.5,-562.5"/>
<text text-anchor="middle" x="67.5" y="-607.5" font-family="Helvetica,sans-Serif" font-size="10.00">std::ios_base</text>
<polyline fill="none" stroke="#bfbfbf" points="27.5,-600.5 107.5,-600.5 "/>
<text text-anchor="middle" x="67.5" y="-588.5" font-family="Helvetica,sans-Serif" font-size="10.00"> </text>
<polyline fill="none" stroke="#bfbfbf" points="27.5,-581.5 107.5,-581.5 "/>
<text text-anchor="middle" x="67.5" y="-569.5" font-family="Helvetica,sans-Serif" font-size="10.00"> </text>
</a>
</g>
</g>
<!-- Node6&#45;&gt;Node5 -->
<g id="edge5" class="edge"><title>Node6&#45;&gt;Node5</title>
<path fill="none" stroke="midnightblue" d="M67.5,-552.235C67.5,-543.028 67.5,-533.346 67.5,-524.705"/>
<polygon fill="none" stroke="midnightblue" points="64.0001,-552.349 67.5,-562.349 71.0001,-552.349 64.0001,-552.349"/>
</g>
</g>
</svg>
