<?xml version="1.0" encoding="UTF-8" standalone="no"?>
<!DOCTYPE svg PUBLIC "-//W3C//DTD SVG 1.1//EN"
 "http://www.w3.org/Graphics/SVG/1.1/DTD/svg11.dtd">
<!-- Generated by graphviz version 2.38.0 (20140413.2041)
 -->
<!-- Title: QFrame Pages: 1 -->
<svg width="690pt" height="204pt"
 viewBox="0.00 0.00 690.00 204.00" xmlns="http://www.w3.org/2000/svg" xmlns:xlink="http://www.w3.org/1999/xlink">
<g id="graph0" class="graph" transform="scale(1 1) rotate(0) translate(4 200)">
<title>QFrame</title>
<polygon fill="white" stroke="none" points="-4,4 -4,-200 686,-200 686,4 -4,4"/>
<!-- Node1 -->
<g id="node1" class="node"><title>Node1</title>
<polygon fill="#bfbfbf" stroke="black" points="308,-138.5 308,-195.5 362,-195.5 362,-138.5 308,-138.5"/>
<text text-anchor="middle" x="335" y="-183.5" font-family="Helvetica,sans-Serif" font-size="10.00">QFrame</text>
<polyline fill="none" stroke="black" points="308,-176.5 362,-176.5 "/>
<text text-anchor="middle" x="335" y="-164.5" font-family="Helvetica,sans-Serif" font-size="10.00"> </text>
<polyline fill="none" stroke="black" points="308,-157.5 362,-157.5 "/>
<text text-anchor="middle" x="335" y="-145.5" font-family="Helvetica,sans-Serif" font-size="10.00"> </text>
</g>
<!-- Node2 -->
<g id="node2" class="node"><title>Node2</title>
<g id="a_node2"><a xlink:href="classAnimationUI.html" target="_top" xlink:title="{AnimationUI\n||+ AnimationUI()\l+ ~AnimationUI()\l}">
<polygon fill="white" stroke="black" points="0,-17 0,-85 102,-85 102,-17 0,-17"/>
<text text-anchor="middle" x="51" y="-73" font-family="Helvetica,sans-Serif" font-size="10.00">AnimationUI</text>
<polyline fill="none" stroke="black" points="0,-66 102,-66 "/>
<text text-anchor="middle" x="51" y="-54" font-family="Helvetica,sans-Serif" font-size="10.00"> </text>
<polyline fill="none" stroke="black" points="0,-47 102,-47 "/>
<text text-anchor="start" x="8" y="-35" font-family="Helvetica,sans-Serif" font-size="10.00">+ AnimationUI()</text>
<text text-anchor="start" x="8" y="-24" font-family="Helvetica,sans-Serif" font-size="10.00">+ ~AnimationUI()</text>
</a>
</g>
</g>
<!-- Node1&#45;&gt;Node2 -->
<g id="edge1" class="edge"><title>Node1&#45;&gt;Node2</title>
<path fill="none" stroke="midnightblue" d="M297.669,-160.237C251.698,-152.064 172.196,-134.368 111,-102 102.25,-97.372 93.6116,-91.3177 85.7324,-85.0268"/>
<polygon fill="none" stroke="midnightblue" points="297.328,-163.73 307.777,-161.976 298.515,-156.831 297.328,-163.73"/>
</g>
<!-- Node3 -->
<g id="node3" class="node"><title>Node3</title>
<g id="a_node3"><a xlink:href="classCameraManipUI.html" target="_top" xlink:title="{CameraManipUI\n|+ ui\l|+ CameraManipUI()\l+ ~CameraManipUI()\l}">
<polygon fill="white" stroke="black" points="120,-17 120,-85 240,-85 240,-17 120,-17"/>
<text text-anchor="middle" x="180" y="-73" font-family="Helvetica,sans-Serif" font-size="10.00">CameraManipUI</text>
<polyline fill="none" stroke="black" points="120,-66 240,-66 "/>
<text text-anchor="start" x="128" y="-54" font-family="Helvetica,sans-Serif" font-size="10.00">+ ui</text>
<polyline fill="none" stroke="black" points="120,-47 240,-47 "/>
<text text-anchor="start" x="128" y="-35" font-family="Helvetica,sans-Serif" font-size="10.00">+ CameraManipUI()</text>
<text text-anchor="start" x="128" y="-24" font-family="Helvetica,sans-Serif" font-size="10.00">+ ~CameraManipUI()</text>
</a>
</g>
</g>
<!-- Node1&#45;&gt;Node3 -->
<g id="edge2" class="edge"><title>Node1&#45;&gt;Node3</title>
<path fill="none" stroke="midnightblue" d="M299.509,-139.897C277.381,-123.622 248.704,-102.53 224.988,-85.0878"/>
<polygon fill="none" stroke="midnightblue" points="297.516,-142.776 307.646,-145.882 301.664,-137.137 297.516,-142.776"/>
</g>
<!-- Node4 -->
<g id="node4" class="node"><title>Node4</title>
<g id="a_node4"><a xlink:href="classMeshFeatureTrackingUI.html" target="_top" xlink:title="{MeshFeatureTrackingUI\n||+ MeshFeatureTrackingUI()\l+ ~MeshFeatureTrackingUI()\l+ updateTracking()\l+ setMaxV()\l+ setMaxT()\l}">
<polygon fill="white" stroke="black" points="258.5,-0.5 258.5,-101.5 411.5,-101.5 411.5,-0.5 258.5,-0.5"/>
<text text-anchor="middle" x="335" y="-89.5" font-family="Helvetica,sans-Serif" font-size="10.00">MeshFeatureTrackingUI</text>
<polyline fill="none" stroke="black" points="258.5,-82.5 411.5,-82.5 "/>
<text text-anchor="middle" x="335" y="-70.5" font-family="Helvetica,sans-Serif" font-size="10.00"> </text>
<polyline fill="none" stroke="black" points="258.5,-63.5 411.5,-63.5 "/>
<text text-anchor="start" x="266.5" y="-51.5" font-family="Helvetica,sans-Serif" font-size="10.00">+ MeshFeatureTrackingUI()</text>
<text text-anchor="start" x="266.5" y="-40.5" font-family="Helvetica,sans-Serif" font-size="10.00">+ ~MeshFeatureTrackingUI()</text>
<text text-anchor="start" x="266.5" y="-29.5" font-family="Helvetica,sans-Serif" font-size="10.00">+ updateTracking()</text>
<text text-anchor="start" x="266.5" y="-18.5" font-family="Helvetica,sans-Serif" font-size="10.00">+ setMaxV()</text>
<text text-anchor="start" x="266.5" y="-7.5" font-family="Helvetica,sans-Serif" font-size="10.00">+ setMaxT()</text>
</a>
</g>
</g>
<!-- Node1&#45;&gt;Node4 -->
<g id="edge3" class="edge"><title>Node1&#45;&gt;Node4</title>
<path fill="none" stroke="midnightblue" d="M335,-128.354C335,-119.796 335,-110.578 335,-101.608"/>
<polygon fill="none" stroke="midnightblue" points="331.5,-128.404 335,-138.404 338.5,-128.404 331.5,-128.404"/>
</g>
<!-- Node5 -->
<g id="node5" class="node"><title>Node5</title>
<g id="a_node5"><a xlink:href="classMeshPaintUI.html" target="_top" xlink:title="{MeshPaintUI\n||+ MeshPaintUI()\l+ ~MeshPaintUI()\l}">
<polygon fill="white" stroke="black" points="430,-17 430,-85 532,-85 532,-17 430,-17"/>
<text text-anchor="middle" x="481" y="-73" font-family="Helvetica,sans-Serif" font-size="10.00">MeshPaintUI</text>
<polyline fill="none" stroke="black" points="430,-66 532,-66 "/>
<text text-anchor="middle" x="481" y="-54" font-family="Helvetica,sans-Serif" font-size="10.00"> </text>
<polyline fill="none" stroke="black" points="430,-47 532,-47 "/>
<text text-anchor="start" x="438" y="-35" font-family="Helvetica,sans-Serif" font-size="10.00">+ MeshPaintUI()</text>
<text text-anchor="start" x="438" y="-24" font-family="Helvetica,sans-Serif" font-size="10.00">+ ~MeshPaintUI()</text>
</a>
</g>
</g>
<!-- Node1&#45;&gt;Node5 -->
<g id="edge4" class="edge"><title>Node1&#45;&gt;Node5</title>
<path fill="none" stroke="midnightblue" d="M370.386,-140.343C386.046,-128.816 404.594,-114.924 421,-102 427.817,-96.6297 434.975,-90.8196 441.878,-85.1252"/>
<polygon fill="none" stroke="midnightblue" points="368.009,-137.746 362.016,-146.482 372.149,-143.39 368.009,-137.746"/>
</g>
<!-- Node6 -->
<g id="node6" class="node"><title>Node6</title>
<g id="a_node6"><a xlink:href="classSkinningPlugin_1_1SkinningWidget.html" target="_top" xlink:title="{SkinningPlugin::Skinning\lWidget\n||+ SkinningWidget()\l+ setCurrent()\l}">
<polygon fill="white" stroke="black" points="550,-11.5 550,-90.5 682,-90.5 682,-11.5 550,-11.5"/>
<text text-anchor="start" x="558" y="-78.5" font-family="Helvetica,sans-Serif" font-size="10.00">SkinningPlugin::Skinning</text>
<text text-anchor="middle" x="616" y="-67.5" font-family="Helvetica,sans-Serif" font-size="10.00">Widget</text>
<polyline fill="none" stroke="black" points="550,-60.5 682,-60.5 "/>
<text text-anchor="middle" x="616" y="-48.5" font-family="Helvetica,sans-Serif" font-size="10.00"> </text>
<polyline fill="none" stroke="black" points="550,-41.5 682,-41.5 "/>
<text text-anchor="start" x="558" y="-29.5" font-family="Helvetica,sans-Serif" font-size="10.00">+ SkinningWidget()</text>
<text text-anchor="start" x="558" y="-18.5" font-family="Helvetica,sans-Serif" font-size="10.00">+ setCurrent()</text>
</a>
</g>
</g>
<!-- Node1&#45;&gt;Node6 -->
<g id="edge5" class="edge"><title>Node1&#45;&gt;Node6</title>
<path fill="none" stroke="midnightblue" d="M372.099,-157.881C414.288,-147.882 484.623,-128.86 541,-102 547.923,-98.7019 554.943,-94.8345 561.77,-90.7367"/>
<polygon fill="none" stroke="midnightblue" points="371.207,-154.495 362.261,-160.17 372.794,-161.313 371.207,-154.495"/>
</g>
</g>
</svg>
