<?xml version="1.0" encoding="UTF-8" standalone="no"?>
<!DOCTYPE svg PUBLIC "-//W3C//DTD SVG 1.1//EN"
 "http://www.w3.org/Graphics/SVG/1.1/DTD/svg11.dtd">
<!-- Generated by graphviz version 2.38.0 (20140413.2041)
 -->
<!-- Title: Ra::Engine::LightManager::unregisterComponent Pages: 1 -->
<svg width="475pt" height="88pt"
 viewBox="0.00 0.00 475.00 88.00" xmlns="http://www.w3.org/2000/svg" xmlns:xlink="http://www.w3.org/1999/xlink">
<g id="graph0" class="graph" transform="scale(1 1) rotate(0) translate(4 84)">
<title>Ra::Engine::LightManager::unregisterComponent</title>
<polygon fill="white" stroke="none" points="-4,4 -4,-84 471,-84 471,4 -4,4"/>
<!-- Node1 -->
<g id="node1" class="node"><title>Node1</title>
<polygon fill="#bfbfbf" stroke="black" points="0,-24.5 0,-54.5 138,-54.5 138,-24.5 0,-24.5"/>
<text text-anchor="start" x="8" y="-42.5" font-family="Helvetica,sans-Serif" font-size="10.00">Ra::Engine::LightManager</text>
<text text-anchor="middle" x="69" y="-31.5" font-family="Helvetica,sans-Serif" font-size="10.00">::unregisterComponent</text>
</g>
<!-- Node2 -->
<g id="node2" class="node"><title>Node2</title>
<g id="a_node2"><a xlink:href="classRa_1_1Engine_1_1System.html#a509b1d1ca6c09f98d483f06a5db7737f" target="_top" xlink:title="Unregisters a component. ">
<polygon fill="white" stroke="black" points="174,-24.5 174,-54.5 302,-54.5 302,-24.5 174,-24.5"/>
<text text-anchor="start" x="182" y="-42.5" font-family="Helvetica,sans-Serif" font-size="10.00">Ra::Engine::System</text>
<text text-anchor="middle" x="238" y="-31.5" font-family="Helvetica,sans-Serif" font-size="10.00">::unregisterComponent</text>
</a>
</g>
</g>
<!-- Node1&#45;&gt;Node2 -->
<g id="edge1" class="edge"><title>Node1&#45;&gt;Node2</title>
<path fill="none" stroke="midnightblue" d="M138.407,-39.5C146.732,-39.5 155.264,-39.5 163.657,-39.5"/>
<polygon fill="midnightblue" stroke="midnightblue" points="163.803,-43.0001 173.803,-39.5 163.803,-36.0001 163.803,-43.0001"/>
</g>
<!-- Node3 -->
<g id="node3" class="node"><title>Node3</title>
<g id="a_node3"><a xlink:href="classRa_1_1Engine_1_1Component.html#a207c1dc2e97856c22e0767fb77162933" target="_top" xlink:title="Return the entity the component belongs to. ">
<polygon fill="white" stroke="black" points="338,-49.5 338,-79.5 467,-79.5 467,-49.5 338,-49.5"/>
<text text-anchor="start" x="346" y="-67.5" font-family="Helvetica,sans-Serif" font-size="10.00">Ra::Engine::Component</text>
<text text-anchor="middle" x="402.5" y="-56.5" font-family="Helvetica,sans-Serif" font-size="10.00">::getEntity</text>
</a>
</g>
</g>
<!-- Node2&#45;&gt;Node3 -->
<g id="edge2" class="edge"><title>Node2&#45;&gt;Node3</title>
<path fill="none" stroke="midnightblue" d="M302.292,-49.2372C310.683,-50.5281 319.343,-51.8604 327.889,-53.1752"/>
<polygon fill="midnightblue" stroke="midnightblue" points="327.43,-56.6457 337.846,-54.7071 328.494,-49.7271 327.43,-56.6457"/>
</g>
<!-- Node4 -->
<g id="node4" class="node"><title>Node4</title>
<g id="a_node4"><a xlink:href="classRa_1_1Engine_1_1Component.html#aa9416af3319ba92aa7b532952c75e477" target="_top" xlink:title="Set the system to which the component belongs. ">
<polygon fill="white" stroke="black" points="338,-0.5 338,-30.5 467,-30.5 467,-0.5 338,-0.5"/>
<text text-anchor="start" x="346" y="-18.5" font-family="Helvetica,sans-Serif" font-size="10.00">Ra::Engine::Component</text>
<text text-anchor="middle" x="402.5" y="-7.5" font-family="Helvetica,sans-Serif" font-size="10.00">::setSystem</text>
</a>
</g>
</g>
<!-- Node2&#45;&gt;Node4 -->
<g id="edge3" class="edge"><title>Node2&#45;&gt;Node4</title>
<path fill="none" stroke="midnightblue" d="M302.292,-30.1523C310.683,-28.913 319.343,-27.634 327.889,-26.3718"/>
<polygon fill="midnightblue" stroke="midnightblue" points="328.465,-29.8248 337.846,-24.9012 327.442,-22.8999 328.465,-29.8248"/>
</g>
</g>
</svg>
