<?xml version="1.0" encoding="UTF-8" standalone="no"?>
<!DOCTYPE svg PUBLIC "-//W3C//DTD SVG 1.1//EN"
 "http://www.w3.org/Graphics/SVG/1.1/DTD/svg11.dtd">
<!-- Generated by graphviz version 2.38.0 (20140413.2041)
 -->
<!-- Title: Ra::Core::Grid::Iterator::operator&#45;= Pages: 1 -->
<svg width="452pt" height="176pt"
 viewBox="0.00 0.00 452.00 176.00" xmlns="http://www.w3.org/2000/svg" xmlns:xlink="http://www.w3.org/1999/xlink">
<g id="graph0" class="graph" transform="scale(1 1) rotate(0) translate(4 172)">
<title>Ra::Core::Grid::Iterator::operator&#45;=</title>
<polygon fill="white" stroke="none" points="-4,4 -4,-172 448,-172 448,4 -4,4"/>
<!-- Node1 -->
<g id="node1" class="node"><title>Node1</title>
<polygon fill="#bfbfbf" stroke="black" points="0,-66.5 0,-96.5 124,-96.5 124,-66.5 0,-66.5"/>
<text text-anchor="start" x="8" y="-84.5" font-family="Helvetica,sans-Serif" font-size="10.00">Ra::Core::Grid::Iterator</text>
<text text-anchor="middle" x="62" y="-73.5" font-family="Helvetica,sans-Serif" font-size="10.00">::operator&#45;=</text>
</g>
<!-- Node2 -->
<g id="node2" class="node"><title>Node2</title>
<g id="a_node2"><a xlink:href="classRa_1_1Core_1_1Grid_1_1Iterator.html#a99aa53eb59bfd42a83b704469d23091d" target="_top" xlink:title="Advance the iterator with an offset of i elements. ">
<polygon fill="white" stroke="black" points="160,-137.5 160,-167.5 284,-167.5 284,-137.5 160,-137.5"/>
<text text-anchor="start" x="168" y="-155.5" font-family="Helvetica,sans-Serif" font-size="10.00">Ra::Core::Grid::Iterator</text>
<text text-anchor="middle" x="222" y="-144.5" font-family="Helvetica,sans-Serif" font-size="10.00">::operator+=</text>
</a>
</g>
</g>
<!-- Node1&#45;&gt;Node2 -->
<g id="edge1" class="edge"><title>Node1&#45;&gt;Node2</title>
<path fill="none" stroke="midnightblue" d="M92.8726,-96.7054C111.913,-106.215 137.205,-118.51 160,-128.5 163.87,-130.196 167.9,-131.905 171.963,-133.587"/>
<polygon fill="midnightblue" stroke="midnightblue" points="170.86,-136.917 181.442,-137.445 173.499,-130.433 170.86,-136.917"/>
</g>
<!-- Node3 -->
<g id="node3" class="node"><title>Node3</title>
<g id="a_node3"><a xlink:href="classRa_1_1Core_1_1Grid_1_1Iterator.html#a64aec1d2f73f98c392a73c58e775f398" target="_top" xlink:title="Returns true if adding offset idx with current iterator will act as expected and false if it will put...">
<polygon fill="white" stroke="black" points="160,-88.5 160,-118.5 284,-118.5 284,-88.5 160,-88.5"/>
<text text-anchor="start" x="168" y="-106.5" font-family="Helvetica,sans-Serif" font-size="10.00">Ra::Core::Grid::Iterator</text>
<text text-anchor="middle" x="222" y="-95.5" font-family="Helvetica,sans-Serif" font-size="10.00">::isValidOffset</text>
</a>
</g>
</g>
<!-- Node1&#45;&gt;Node3 -->
<g id="edge2" class="edge"><title>Node1&#45;&gt;Node3</title>
<path fill="none" stroke="midnightblue" d="M124.087,-90.0058C132.513,-91.179 141.226,-92.3922 149.815,-93.5881"/>
<polygon fill="midnightblue" stroke="midnightblue" points="149.428,-97.0679 159.815,-94.9806 150.393,-90.1348 149.428,-97.0679"/>
</g>
<!-- Node4 -->
<g id="node4" class="node"><title>Node4</title>
<g id="a_node4"><a xlink:href="classRa_1_1Core_1_1Grid_1_1Iterator.html#a5aaf56df57c27b492a4372a73f12f094" target="_top" xlink:title="Get the current vector index. ">
<polygon fill="white" stroke="black" points="320,-66.5 320,-96.5 444,-96.5 444,-66.5 320,-66.5"/>
<text text-anchor="start" x="328" y="-84.5" font-family="Helvetica,sans-Serif" font-size="10.00">Ra::Core::Grid::Iterator</text>
<text text-anchor="middle" x="382" y="-73.5" font-family="Helvetica,sans-Serif" font-size="10.00">::getVector</text>
</a>
</g>
</g>
<!-- Node1&#45;&gt;Node4 -->
<g id="edge5" class="edge"><title>Node1&#45;&gt;Node4</title>
<path fill="none" stroke="midnightblue" d="M124.055,-80.0493C135.975,-79.8203 148.378,-79.6198 160,-79.5 215.108,-78.9319 228.892,-78.9319 284,-79.5 292.353,-79.5861 301.11,-79.7139 309.801,-79.864"/>
<polygon fill="midnightblue" stroke="midnightblue" points="309.883,-83.366 319.945,-80.0493 310.011,-76.3672 309.883,-83.366"/>
</g>
<!-- Node5 -->
<g id="node5" class="node"><title>Node5</title>
<g id="a_node5"><a xlink:href="classRa_1_1Core_1_1Grid_1_1Iterator.html#a57348c88771de4c988b0f0eabbc8238b" target="_top" xlink:title="Set an existing iterator to a vector index value. ">
<polygon fill="white" stroke="black" points="160,-0.5 160,-30.5 284,-30.5 284,-0.5 160,-0.5"/>
<text text-anchor="start" x="168" y="-18.5" font-family="Helvetica,sans-Serif" font-size="10.00">Ra::Core::Grid::Iterator</text>
<text text-anchor="middle" x="222" y="-7.5" font-family="Helvetica,sans-Serif" font-size="10.00">::setFromVector</text>
</a>
</g>
</g>
<!-- Node1&#45;&gt;Node5 -->
<g id="edge4" class="edge"><title>Node1&#45;&gt;Node5</title>
<path fill="none" stroke="midnightblue" d="M99.2484,-66.3583C121.93,-56.8837 151.339,-44.5987 175.572,-34.4763"/>
<polygon fill="midnightblue" stroke="midnightblue" points="177.042,-37.6553 184.92,-30.5713 174.344,-31.1962 177.042,-37.6553"/>
</g>
<!-- Node3&#45;&gt;Node4 -->
<g id="edge3" class="edge"><title>Node3&#45;&gt;Node4</title>
<path fill="none" stroke="midnightblue" d="M284.087,-94.9942C292.513,-93.821 301.226,-92.6078 309.815,-91.4119"/>
<polygon fill="midnightblue" stroke="midnightblue" points="310.393,-94.8652 319.815,-90.0194 309.428,-87.9321 310.393,-94.8652"/>
</g>
</g>
</svg>
