<?xml version="1.0" encoding="UTF-8" standalone="no"?>
<!DOCTYPE svg PUBLIC "-//W3C//DTD SVG 1.1//EN"
 "http://www.w3.org/Graphics/SVG/1.1/DTD/svg11.dtd">
<!-- Generated by graphviz version 2.38.0 (20140413.2041)
 -->
<!-- Title: Ra::Engine::LightManager Pages: 1 -->
<svg width="566pt" height="795pt"
 viewBox="0.00 0.00 565.50 795.00" xmlns="http://www.w3.org/2000/svg" xmlns:xlink="http://www.w3.org/1999/xlink">
<g id="graph0" class="graph" transform="scale(1 1) rotate(0) translate(4 791)">
<title>Ra::Engine::LightManager</title>
<polygon fill="white" stroke="none" points="-4,4 -4,-791 561.5,-791 561.5,4 -4,4"/>
<!-- Node1 -->
<g id="node1" class="node"><title>Node1</title>
<polygon fill="#bfbfbf" stroke="black" points="199,-0.5 199,-178.5 356,-178.5 356,-0.5 199,-0.5"/>
<text text-anchor="middle" x="277.5" y="-166.5" font-family="Helvetica,sans-Serif" font-size="10.00">Ra::Engine::LightManager</text>
<polyline fill="none" stroke="black" points="199,-159.5 356,-159.5 "/>
<text text-anchor="middle" x="277.5" y="-147.5" font-family="Helvetica,sans-Serif" font-size="10.00"> </text>
<polyline fill="none" stroke="black" points="199,-140.5 356,-140.5 "/>
<text text-anchor="start" x="207" y="-128.5" font-family="Helvetica,sans-Serif" font-size="10.00">+ LightManager()</text>
<text text-anchor="start" x="207" y="-117.5" font-family="Helvetica,sans-Serif" font-size="10.00">+ LightManager()</text>
<text text-anchor="start" x="207" y="-106.5" font-family="Helvetica,sans-Serif" font-size="10.00">+ operator=()</text>
<text text-anchor="start" x="207" y="-95.5" font-family="Helvetica,sans-Serif" font-size="10.00">+ ~LightManager()</text>
<text text-anchor="start" x="207" y="-84.5" font-family="Helvetica,sans-Serif" font-size="10.00">+ getLight()</text>
<text text-anchor="start" x="207" y="-73.5" font-family="Helvetica,sans-Serif" font-size="10.00">+ addLight()</text>
<text text-anchor="start" x="207" y="-62.5" font-family="Helvetica,sans-Serif" font-size="10.00">+ count()</text>
<text text-anchor="start" x="207" y="-51.5" font-family="Helvetica,sans-Serif" font-size="10.00">+ generateTasks()</text>
<text text-anchor="start" x="207" y="-40.5" font-family="Helvetica,sans-Serif" font-size="10.00">+ handleAssetLoading()</text>
<text text-anchor="start" x="207" y="-29.5" font-family="Helvetica,sans-Serif" font-size="10.00"># registerComponent()</text>
<text text-anchor="start" x="207" y="-18.5" font-family="Helvetica,sans-Serif" font-size="10.00"># unregisterComponent()</text>
<text text-anchor="start" x="207" y="-7.5" font-family="Helvetica,sans-Serif" font-size="10.00"># unregisterAllComponents()</text>
</g>
<!-- Node2 -->
<g id="node2" class="node"><title>Node2</title>
<g id="a_node2"><a xlink:href="classRa_1_1Engine_1_1System.html" target="_top" xlink:title="Systems are responsible of updating a specific subset of the components of each entity. ">
<polygon fill="white" stroke="black" points="113,-216.5 113,-350.5 270,-350.5 270,-216.5 113,-216.5"/>
<text text-anchor="middle" x="191.5" y="-338.5" font-family="Helvetica,sans-Serif" font-size="10.00">Ra::Engine::System</text>
<polyline fill="none" stroke="black" points="113,-331.5 270,-331.5 "/>
<text text-anchor="middle" x="191.5" y="-319.5" font-family="Helvetica,sans-Serif" font-size="10.00"> </text>
<polyline fill="none" stroke="black" points="113,-312.5 270,-312.5 "/>
<text text-anchor="start" x="121" y="-300.5" font-family="Helvetica,sans-Serif" font-size="10.00">+ System()</text>
<text text-anchor="start" x="121" y="-289.5" font-family="Helvetica,sans-Serif" font-size="10.00">+ ~System()</text>
<text text-anchor="start" x="121" y="-278.5" font-family="Helvetica,sans-Serif" font-size="10.00">+ handleAssetLoading()</text>
<text text-anchor="start" x="121" y="-267.5" font-family="Helvetica,sans-Serif" font-size="10.00">+ generateTasks()</text>
<text text-anchor="start" x="121" y="-256.5" font-family="Helvetica,sans-Serif" font-size="10.00">+ getEntityComponents()</text>
<text text-anchor="start" x="121" y="-245.5" font-family="Helvetica,sans-Serif" font-size="10.00"># registerComponent()</text>
<text text-anchor="start" x="121" y="-234.5" font-family="Helvetica,sans-Serif" font-size="10.00"># unregisterComponent()</text>
<text text-anchor="start" x="121" y="-223.5" font-family="Helvetica,sans-Serif" font-size="10.00"># unregisterAllComponents()</text>
</a>
</g>
</g>
<!-- Node2&#45;&gt;Node1 -->
<g id="edge1" class="edge"><title>Node2&#45;&gt;Node1</title>
<path fill="none" stroke="midnightblue" d="M225.231,-207.193C229.413,-197.857 233.718,-188.246 237.977,-178.738"/>
<polygon fill="none" stroke="midnightblue" points="221.99,-205.867 221.096,-216.424 228.378,-208.729 221.99,-205.867"/>
</g>
<!-- Node3 -->
<g id="node3" class="node"><title>Node3</title>
<polygon fill="white" stroke="#bfbfbf" points="55.5,-398.5 55.5,-477.5 229.5,-477.5 229.5,-398.5 55.5,-398.5"/>
<text text-anchor="start" x="63.5" y="-465.5" font-family="Helvetica,sans-Serif" font-size="10.00">std::vector&lt; std::pair</text>
<text text-anchor="start" x="63.5" y="-454.5" font-family="Helvetica,sans-Serif" font-size="10.00">&lt; const Ra::Engine::Entity</text>
<text text-anchor="middle" x="142.5" y="-443.5" font-family="Helvetica,sans-Serif" font-size="10.00"> *, Ra::Engine::Component * &gt; &gt;</text>
<polyline fill="none" stroke="#bfbfbf" points="55.5,-436.5 229.5,-436.5 "/>
<text text-anchor="middle" x="142.5" y="-424.5" font-family="Helvetica,sans-Serif" font-size="10.00"> </text>
<polyline fill="none" stroke="#bfbfbf" points="55.5,-417.5 229.5,-417.5 "/>
<text text-anchor="middle" x="142.5" y="-405.5" font-family="Helvetica,sans-Serif" font-size="10.00"> </text>
</g>
<!-- Node3&#45;&gt;Node2 -->
<g id="edge2" class="edge"><title>Node3&#45;&gt;Node2</title>
<path fill="none" stroke="#404040" d="M154.992,-398.123C158.552,-387.043 162.562,-374.564 166.586,-362.038"/>
<polygon fill="none" stroke="#404040" points="166.603,-361.985 164.63,-355.049 170.274,-350.561 172.247,-357.497 166.603,-361.985"/>
<text text-anchor="middle" x="208" y="-372" font-family="Helvetica,sans-Serif" font-size="10.00"> #m_components</text>
</g>
<!-- Node4 -->
<g id="node4" class="node"><title>Node4</title>
<polygon fill="white" stroke="#bfbfbf" points="0,-575 0,-654 125,-654 125,-575 0,-575"/>
<text text-anchor="start" x="8" y="-642" font-family="Helvetica,sans-Serif" font-size="10.00">pair&lt; const Ra::Engine</text>
<text text-anchor="start" x="8" y="-631" font-family="Helvetica,sans-Serif" font-size="10.00">::Entity *, Ra::Engine</text>
<text text-anchor="middle" x="62.5" y="-620" font-family="Helvetica,sans-Serif" font-size="10.00">::Component * &gt;</text>
<polyline fill="none" stroke="#bfbfbf" points="0,-613 125,-613 "/>
<text text-anchor="middle" x="62.5" y="-601" font-family="Helvetica,sans-Serif" font-size="10.00"> </text>
<polyline fill="none" stroke="#bfbfbf" points="0,-594 125,-594 "/>
<text text-anchor="middle" x="62.5" y="-582" font-family="Helvetica,sans-Serif" font-size="10.00"> </text>
</g>
<!-- Node4&#45;&gt;Node3 -->
<g id="edge3" class="edge"><title>Node4&#45;&gt;Node3</title>
<path fill="none" stroke="#404040" d="M67.6773,-574.808C71.9719,-551.057 79.543,-520.586 92.5,-496 94.0017,-493.151 95.6731,-490.325 97.4681,-487.545"/>
<polygon fill="none" stroke="#404040" points="97.4929,-487.51 97.6945,-480.302 104.426,-477.715 104.224,-484.924 97.4929,-487.51"/>
<text text-anchor="middle" x="121" y="-510" font-family="Helvetica,sans-Serif" font-size="10.00"> +elements</text>
</g>
<!-- Node5 -->
<g id="node5" class="node"><title>Node5</title>
<g id="a_node5"><a xlink:title="STL class. ">
<polygon fill="white" stroke="#bfbfbf" points="145,-586 145,-643 240,-643 240,-586 145,-586"/>
<text text-anchor="middle" x="192.5" y="-631" font-family="Helvetica,sans-Serif" font-size="10.00">std::vector&lt; T &gt;</text>
<polyline fill="none" stroke="#bfbfbf" points="145,-624 240,-624 "/>
<text text-anchor="middle" x="192.5" y="-612" font-family="Helvetica,sans-Serif" font-size="10.00"> </text>
<polyline fill="none" stroke="#bfbfbf" points="145,-605 240,-605 "/>
<text text-anchor="middle" x="192.5" y="-593" font-family="Helvetica,sans-Serif" font-size="10.00"> </text>
</a>
</g>
</g>
<!-- Node5&#45;&gt;Node3 -->
<g id="edge4" class="edge"><title>Node5&#45;&gt;Node3</title>
<path fill="none" stroke="orange" d="M176.816,-576.09C171.13,-561.566 165.004,-544.68 160.5,-529 155.749,-512.46 151.803,-493.857 148.829,-477.876"/>
<polygon fill="orange" stroke="orange" points="173.703,-577.732 180.657,-585.724 180.205,-575.139 173.703,-577.732"/>
<text text-anchor="start" x="160.5" y="-521" font-family="Helvetica,sans-Serif" font-size="10.00"> &lt; std::pair&lt; const</text>
<text text-anchor="start" x="160.5" y="-510" font-family="Helvetica,sans-Serif" font-size="10.00"> Ra::Engine::Entity</text>
<text text-anchor="middle" x="239.5" y="-499" font-family="Helvetica,sans-Serif" font-size="10.00"> *, Ra::Engine::Component * &gt; &gt;</text>
</g>
<!-- Node6 -->
<g id="node6" class="node"><title>Node6</title>
<polygon fill="white" stroke="#bfbfbf" points="248,-729.5 248,-786.5 277,-786.5 277,-729.5 248,-729.5"/>
<text text-anchor="middle" x="262.5" y="-774.5" font-family="Helvetica,sans-Serif" font-size="10.00">T</text>
<polyline fill="none" stroke="#bfbfbf" points="248,-767.5 277,-767.5 "/>
<text text-anchor="middle" x="262.5" y="-755.5" font-family="Helvetica,sans-Serif" font-size="10.00"> </text>
<polyline fill="none" stroke="#bfbfbf" points="248,-748.5 277,-748.5 "/>
<text text-anchor="middle" x="262.5" y="-736.5" font-family="Helvetica,sans-Serif" font-size="10.00"> </text>
</g>
<!-- Node6&#45;&gt;Node5 -->
<g id="edge5" class="edge"><title>Node6&#45;&gt;Node5</title>
<path fill="none" stroke="#404040" d="M247.85,-743.265C239.427,-734.681 229.217,-723.007 222.5,-711 212.78,-693.625 205.751,-672.675 200.952,-654.83"/>
<polygon fill="none" stroke="#404040" points="200.917,-654.689 195.57,-649.851 197.98,-643.054 203.327,-647.893 200.917,-654.689"/>
<text text-anchor="middle" x="251" y="-703" font-family="Helvetica,sans-Serif" font-size="10.00"> +elements</text>
</g>
<!-- Node9 -->
<g id="node9" class="node"><title>Node9</title>
<g id="a_node9"><a xlink:title="STL class. ">
<polygon fill="white" stroke="#bfbfbf" points="262.5,-586 262.5,-643 378.5,-643 378.5,-586 262.5,-586"/>
<text text-anchor="middle" x="320.5" y="-631" font-family="Helvetica,sans-Serif" font-size="10.00">std::unique_ptr&lt; T &gt;</text>
<polyline fill="none" stroke="#bfbfbf" points="262.5,-624 378.5,-624 "/>
<text text-anchor="middle" x="320.5" y="-612" font-family="Helvetica,sans-Serif" font-size="10.00"> </text>
<polyline fill="none" stroke="#bfbfbf" points="262.5,-605 378.5,-605 "/>
<text text-anchor="start" x="270.5" y="-593" font-family="Helvetica,sans-Serif" font-size="10.00">+ operator&#45;&gt;()</text>
</a>
</g>
</g>
<!-- Node6&#45;&gt;Node9 -->
<g id="edge9" class="edge"><title>Node6&#45;&gt;Node9</title>
<path fill="none" stroke="#404040" d="M273.821,-729.381C282.603,-707.955 294.884,-677.994 304.645,-654.181"/>
<polygon fill="none" stroke="#404040" points="304.657,-654.152 303.231,-647.083 309.208,-643.049 310.633,-650.118 304.657,-654.152"/>
<text text-anchor="middle" x="298" y="-703" font-family="Helvetica,sans-Serif" font-size="10.00"> +ptr</text>
</g>
<!-- Node7 -->
<g id="node7" class="node"><title>Node7</title>
<polygon fill="white" stroke="#bfbfbf" points="256.5,-404 256.5,-472 390.5,-472 390.5,-404 256.5,-404"/>
<text text-anchor="start" x="264.5" y="-460" font-family="Helvetica,sans-Serif" font-size="10.00">std::unique_ptr&lt; Ra</text>
<text text-anchor="middle" x="323.5" y="-449" font-family="Helvetica,sans-Serif" font-size="10.00">::Engine::LightStorage &gt;</text>
<polyline fill="none" stroke="#bfbfbf" points="256.5,-442 390.5,-442 "/>
<text text-anchor="middle" x="323.5" y="-430" font-family="Helvetica,sans-Serif" font-size="10.00"> </text>
<polyline fill="none" stroke="#bfbfbf" points="256.5,-423 390.5,-423 "/>
<text text-anchor="start" x="264.5" y="-411" font-family="Helvetica,sans-Serif" font-size="10.00">+ operator&#45;&gt;()</text>
</g>
<!-- Node7&#45;&gt;Node1 -->
<g id="edge6" class="edge"><title>Node7&#45;&gt;Node1</title>
<path fill="none" stroke="#404040" d="M319.089,-403.776C312.648,-355.259 300.398,-262.981 290.854,-191.09"/>
<polygon fill="none" stroke="#404040" points="290.806,-190.725 286.051,-185.304 289.226,-178.83 293.981,-184.251 290.806,-190.725"/>
<text text-anchor="middle" x="337" y="-281" font-family="Helvetica,sans-Serif" font-size="10.00"> #m_data</text>
</g>
<!-- Node8 -->
<g id="node8" class="node"><title>Node8</title>
<g id="a_node8"><a xlink:href="classRa_1_1Engine_1_1LightStorage.html" target="_top" xlink:title="Interface providing functions to access and store lights in an implementation&#45;defined way...">
<polygon fill="white" stroke="black" points="423.5,-547.5 423.5,-681.5 557.5,-681.5 557.5,-547.5 423.5,-547.5"/>
<text text-anchor="middle" x="490.5" y="-669.5" font-family="Helvetica,sans-Serif" font-size="10.00">Ra::Engine::LightStorage</text>
<polyline fill="none" stroke="black" points="423.5,-662.5 557.5,-662.5 "/>
<text text-anchor="middle" x="490.5" y="-650.5" font-family="Helvetica,sans-Serif" font-size="10.00"> </text>
<polyline fill="none" stroke="black" points="423.5,-643.5 557.5,-643.5 "/>
<text text-anchor="start" x="431.5" y="-631.5" font-family="Helvetica,sans-Serif" font-size="10.00">+ LightStorage()</text>
<text text-anchor="start" x="431.5" y="-620.5" font-family="Helvetica,sans-Serif" font-size="10.00">+ ~LightStorage()</text>
<text text-anchor="start" x="431.5" y="-609.5" font-family="Helvetica,sans-Serif" font-size="10.00">+ upload()</text>
<text text-anchor="start" x="431.5" y="-598.5" font-family="Helvetica,sans-Serif" font-size="10.00">+ size()</text>
<text text-anchor="start" x="431.5" y="-587.5" font-family="Helvetica,sans-Serif" font-size="10.00">+ add()</text>
<text text-anchor="start" x="431.5" y="-576.5" font-family="Helvetica,sans-Serif" font-size="10.00">+ remove()</text>
<text text-anchor="start" x="431.5" y="-565.5" font-family="Helvetica,sans-Serif" font-size="10.00">+ clear()</text>
<text text-anchor="start" x="431.5" y="-554.5" font-family="Helvetica,sans-Serif" font-size="10.00">+ operator[]()</text>
</a>
</g>
</g>
<!-- Node8&#45;&gt;Node7 -->
<g id="edge7" class="edge"><title>Node8&#45;&gt;Node7</title>
<path fill="none" stroke="#404040" d="M489.703,-547.212C486.581,-528.986 480.333,-510.318 468.5,-496 451.765,-475.751 426.859,-462.662 402.39,-454.215"/>
<polygon fill="none" stroke="#404040" points="402.267,-454.176 395.337,-456.171 390.831,-450.541 397.761,-448.547 402.267,-454.176"/>
<text text-anchor="middle" x="498" y="-510" font-family="Helvetica,sans-Serif" font-size="10.00"> +ptr</text>
</g>
<!-- Node9&#45;&gt;Node7 -->
<g id="edge8" class="edge"><title>Node9&#45;&gt;Node7</title>
<path fill="none" stroke="orange" d="M321.153,-575.496C321.683,-544.666 322.423,-501.639 322.93,-472.182"/>
<polygon fill="orange" stroke="orange" points="317.648,-575.791 320.975,-585.85 324.647,-575.912 317.648,-575.791"/>
<text text-anchor="middle" x="394.5" y="-510" font-family="Helvetica,sans-Serif" font-size="10.00"> &lt; Ra::Engine::LightStorage &gt;</text>
</g>
</g>
</svg>
