<?xml version="1.0" encoding="UTF-8" standalone="no"?>
<!DOCTYPE svg PUBLIC "-//W3C//DTD SVG 1.1//EN"
 "http://www.w3.org/Graphics/SVG/1.1/DTD/svg11.dtd">
<!-- Generated by graphviz version 2.38.0 (20140413.2041)
 -->
<!-- Title: Ra::Core::Geometry::TriangleMesh::operator= Pages: 1 -->
<svg width="536pt" height="88pt"
 viewBox="0.00 0.00 536.00 88.00" xmlns="http://www.w3.org/2000/svg" xmlns:xlink="http://www.w3.org/1999/xlink">
<g id="graph0" class="graph" transform="scale(1 1) rotate(0) translate(4 84)">
<title>Ra::Core::Geometry::TriangleMesh::operator=</title>
<polygon fill="white" stroke="none" points="-4,4 -4,-84 532,-84 532,4 -4,4"/>
<!-- Node1 -->
<g id="node1" class="node"><title>Node1</title>
<polygon fill="#bfbfbf" stroke="black" points="5.68434e-14,-24.5 5.68434e-14,-54.5 140,-54.5 140,-24.5 5.68434e-14,-24.5"/>
<text text-anchor="start" x="8" y="-42.5" font-family="Helvetica,sans-Serif" font-size="10.00">Ra::Core::Geometry</text>
<text text-anchor="middle" x="70" y="-31.5" font-family="Helvetica,sans-Serif" font-size="10.00">::TriangleMesh::operator=</text>
</g>
<!-- Node2 -->
<g id="node2" class="node"><title>Node2</title>
<g id="a_node2"><a xlink:href="classRa_1_1Core_1_1Utils_1_1AttribManager.html#ae99bb77d3d29e9d99b4bcc257919ecda" target="_top" xlink:title="clear all attribs, invalidate handles. ">
<polygon fill="white" stroke="black" points="176,-49.5 176,-79.5 334,-79.5 334,-49.5 176,-49.5"/>
<text text-anchor="start" x="184" y="-67.5" font-family="Helvetica,sans-Serif" font-size="10.00">Ra::Core::Utils::AttribManager</text>
<text text-anchor="middle" x="255" y="-56.5" font-family="Helvetica,sans-Serif" font-size="10.00">::clear</text>
</a>
</g>
</g>
<!-- Node1&#45;&gt;Node2 -->
<g id="edge1" class="edge"><title>Node1&#45;&gt;Node2</title>
<path fill="none" stroke="midnightblue" d="M140.184,-48.9514C148.551,-50.0943 157.182,-51.2735 165.774,-52.4473"/>
<polygon fill="midnightblue" stroke="midnightblue" points="165.444,-55.9346 175.825,-53.8204 166.391,-48.999 165.444,-55.9346"/>
</g>
<!-- Node3 -->
<g id="node3" class="node"><title>Node3</title>
<g id="a_node3"><a xlink:href="classRa_1_1Core_1_1Utils_1_1AttribManager.html#a406dc2c2d82a535130d7af3c388c7f8f" target="_top" xlink:title="Copy all attributes from m. ">
<polygon fill="white" stroke="black" points="176,-0.5 176,-30.5 334,-30.5 334,-0.5 176,-0.5"/>
<text text-anchor="start" x="184" y="-18.5" font-family="Helvetica,sans-Serif" font-size="10.00">Ra::Core::Utils::AttribManager</text>
<text text-anchor="middle" x="255" y="-7.5" font-family="Helvetica,sans-Serif" font-size="10.00">::copyAllAttributes</text>
</a>
</g>
</g>
<!-- Node1&#45;&gt;Node3 -->
<g id="edge2" class="edge"><title>Node1&#45;&gt;Node3</title>
<path fill="none" stroke="midnightblue" d="M140.184,-30.4266C148.551,-29.3294 157.182,-28.1975 165.774,-27.0706"/>
<polygon fill="midnightblue" stroke="midnightblue" points="166.366,-30.5231 175.825,-25.7524 165.455,-23.5825 166.366,-30.5231"/>
</g>
<!-- Node4 -->
<g id="node4" class="node"><title>Node4</title>
<g id="a_node4"><a xlink:href="classRa_1_1Core_1_1Utils_1_1AttribManager.html#a0a49a4d134669b24642856717a1e5c5b" target="_top" xlink:title="Get attribute by handle. ">
<polygon fill="white" stroke="black" points="370,-0.5 370,-30.5 528,-30.5 528,-0.5 370,-0.5"/>
<text text-anchor="start" x="378" y="-18.5" font-family="Helvetica,sans-Serif" font-size="10.00">Ra::Core::Utils::AttribManager</text>
<text text-anchor="middle" x="449" y="-7.5" font-family="Helvetica,sans-Serif" font-size="10.00">::getAttrib</text>
</a>
</g>
</g>
<!-- Node3&#45;&gt;Node4 -->
<g id="edge3" class="edge"><title>Node3&#45;&gt;Node4</title>
<path fill="none" stroke="midnightblue" d="M334.094,-15.5C342.601,-15.5 351.302,-15.5 359.918,-15.5"/>
<polygon fill="midnightblue" stroke="midnightblue" points="359.975,-19.0001 369.975,-15.5 359.975,-12.0001 359.975,-19.0001"/>
</g>
</g>
</svg>
