<?xml version="1.0" encoding="UTF-8" standalone="no"?>
<!DOCTYPE svg PUBLIC "-//W3C//DTD SVG 1.1//EN"
 "http://www.w3.org/Graphics/SVG/1.1/DTD/svg11.dtd">
<!-- Generated by graphviz version 2.38.0 (20140413.2041)
 -->
<!-- Title: Ra::IO::AssimpCameraDataLoader Pages: 1 -->
<svg width="319pt" height="569pt"
 viewBox="0.00 0.00 318.50 569.00" xmlns="http://www.w3.org/2000/svg" xmlns:xlink="http://www.w3.org/1999/xlink">
<g id="graph0" class="graph" transform="scale(1 1) rotate(0) translate(4 565)">
<title>Ra::IO::AssimpCameraDataLoader</title>
<polygon fill="white" stroke="none" points="-4,4 -4,-565 314.5,-565 314.5,4 -4,4"/>
<!-- Node1 -->
<g id="node1" class="node"><title>Node1</title>
<polygon fill="#bfbfbf" stroke="black" points="0,-0.5 0,-145.5 173,-145.5 173,-0.5 0,-0.5"/>
<text text-anchor="start" x="8" y="-133.5" font-family="Helvetica,sans-Serif" font-size="10.00">Ra::IO::AssimpCameraData</text>
<text text-anchor="middle" x="86.5" y="-122.5" font-family="Helvetica,sans-Serif" font-size="10.00">Loader</text>
<polyline fill="none" stroke="black" points="0,-115.5 173,-115.5 "/>
<text text-anchor="middle" x="86.5" y="-103.5" font-family="Helvetica,sans-Serif" font-size="10.00"> </text>
<polyline fill="none" stroke="black" points="0,-96.5 173,-96.5 "/>
<text text-anchor="start" x="8" y="-84.5" font-family="Helvetica,sans-Serif" font-size="10.00">+ AssimpCameraDataLoader()</text>
<text text-anchor="start" x="8" y="-73.5" font-family="Helvetica,sans-Serif" font-size="10.00">+ ~AssimpCameraDataLoader()</text>
<text text-anchor="start" x="8" y="-62.5" font-family="Helvetica,sans-Serif" font-size="10.00">+ loadData()</text>
<text text-anchor="start" x="8" y="-51.5" font-family="Helvetica,sans-Serif" font-size="10.00"># sceneHasCamera()</text>
<text text-anchor="start" x="8" y="-40.5" font-family="Helvetica,sans-Serif" font-size="10.00"># sceneCameraSize()</text>
<text text-anchor="start" x="8" y="-29.5" font-family="Helvetica,sans-Serif" font-size="10.00"># loadCameraData()</text>
<text text-anchor="start" x="8" y="-18.5" font-family="Helvetica,sans-Serif" font-size="10.00"># fetchName()</text>
<text text-anchor="start" x="8" y="-7.5" font-family="Helvetica,sans-Serif" font-size="10.00"># loadCameraFrame()</text>
</g>
<!-- Node2 -->
<g id="node2" class="node"><title>Node2</title>
<g id="a_node2"><a xlink:href="classRa_1_1Core_1_1Asset_1_1DataLoader.html" target="_top" xlink:title="{Ra::Core::Asset::DataLoader\l\&lt; Core::Asset::CameraData \&gt;\n||+ DataLoader()\l+ ~DataLoader()\l+ loadData()\l+ isVerbose()\l+ setVerbose()\l}">
<polygon fill="white" stroke="black" points="5.5,-183.5 5.5,-295.5 167.5,-295.5 167.5,-183.5 5.5,-183.5"/>
<text text-anchor="start" x="13.5" y="-283.5" font-family="Helvetica,sans-Serif" font-size="10.00">Ra::Core::Asset::DataLoader</text>
<text text-anchor="middle" x="86.5" y="-272.5" font-family="Helvetica,sans-Serif" font-size="10.00">&lt; Core::Asset::CameraData &gt;</text>
<polyline fill="none" stroke="black" points="5.5,-265.5 167.5,-265.5 "/>
<text text-anchor="middle" x="86.5" y="-253.5" font-family="Helvetica,sans-Serif" font-size="10.00"> </text>
<polyline fill="none" stroke="black" points="5.5,-246.5 167.5,-246.5 "/>
<text text-anchor="start" x="13.5" y="-234.5" font-family="Helvetica,sans-Serif" font-size="10.00">+ DataLoader()</text>
<text text-anchor="start" x="13.5" y="-223.5" font-family="Helvetica,sans-Serif" font-size="10.00">+ ~DataLoader()</text>
<text text-anchor="start" x="13.5" y="-212.5" font-family="Helvetica,sans-Serif" font-size="10.00">+ loadData()</text>
<text text-anchor="start" x="13.5" y="-201.5" font-family="Helvetica,sans-Serif" font-size="10.00">+ isVerbose()</text>
<text text-anchor="start" x="13.5" y="-190.5" font-family="Helvetica,sans-Serif" font-size="10.00">+ setVerbose()</text>
</a>
</g>
</g>
<!-- Node2&#45;&gt;Node1 -->
<g id="edge1" class="edge"><title>Node2&#45;&gt;Node1</title>
<path fill="none" stroke="midnightblue" d="M86.5,-173.219C86.5,-164.191 86.5,-154.877 86.5,-145.74"/>
<polygon fill="none" stroke="midnightblue" points="83.0001,-173.266 86.5,-183.266 90.0001,-173.266 83.0001,-173.266"/>
</g>
<!-- Node3 -->
<g id="node3" class="node"><title>Node3</title>
<g id="a_node3"><a xlink:href="classbool.html" target="_top" xlink:title="{bool\n||}">
<polygon fill="white" stroke="black" points="100,-503.5 100,-560.5 137,-560.5 137,-503.5 100,-503.5"/>
<text text-anchor="middle" x="118.5" y="-548.5" font-family="Helvetica,sans-Serif" font-size="10.00">bool</text>
<polyline fill="none" stroke="black" points="100,-541.5 137,-541.5 "/>
<text text-anchor="middle" x="118.5" y="-529.5" font-family="Helvetica,sans-Serif" font-size="10.00"> </text>
<polyline fill="none" stroke="black" points="100,-522.5 137,-522.5 "/>
<text text-anchor="middle" x="118.5" y="-510.5" font-family="Helvetica,sans-Serif" font-size="10.00"> </text>
</a>
</g>
</g>
<!-- Node3&#45;&gt;Node2 -->
<g id="edge2" class="edge"><title>Node3&#45;&gt;Node2</title>
<path fill="none" stroke="#404040" d="M100.099,-503.43C92.0742,-489.779 83.5776,-472.68 79.5,-456 67.6219,-407.411 70.051,-350.833 75.0876,-307.844"/>
<polygon fill="none" stroke="#404040" points="75.1032,-307.72 71.886,-301.266 76.6058,-295.814 79.823,-302.268 75.1032,-307.72"/>
<text text-anchor="middle" x="112" y="-397" font-family="Helvetica,sans-Serif" font-size="10.00"> #m_verbose</text>
</g>
<!-- Node4 -->
<g id="node4" class="node"><title>Node4</title>
<g id="a_node4"><a xlink:href="classRa_1_1Core_1_1Asset_1_1DataLoader.html" target="_top" xlink:title="{Ra::Core::Asset::DataLoader\l\&lt; DATA \&gt;\n||+ DataLoader()\l+ ~DataLoader()\l+ loadData()\l+ isVerbose()\l+ setVerbose()\l}">
<polygon fill="white" stroke="black" points="153.5,-343.5 153.5,-455.5 305.5,-455.5 305.5,-343.5 153.5,-343.5"/>
<text text-anchor="start" x="161.5" y="-443.5" font-family="Helvetica,sans-Serif" font-size="10.00">Ra::Core::Asset::DataLoader</text>
<text text-anchor="middle" x="229.5" y="-432.5" font-family="Helvetica,sans-Serif" font-size="10.00">&lt; DATA &gt;</text>
<polyline fill="none" stroke="black" points="153.5,-425.5 305.5,-425.5 "/>
<text text-anchor="middle" x="229.5" y="-413.5" font-family="Helvetica,sans-Serif" font-size="10.00"> </text>
<polyline fill="none" stroke="black" points="153.5,-406.5 305.5,-406.5 "/>
<text text-anchor="start" x="161.5" y="-394.5" font-family="Helvetica,sans-Serif" font-size="10.00">+ DataLoader()</text>
<text text-anchor="start" x="161.5" y="-383.5" font-family="Helvetica,sans-Serif" font-size="10.00">+ ~DataLoader()</text>
<text text-anchor="start" x="161.5" y="-372.5" font-family="Helvetica,sans-Serif" font-size="10.00">+ loadData()</text>
<text text-anchor="start" x="161.5" y="-361.5" font-family="Helvetica,sans-Serif" font-size="10.00">+ isVerbose()</text>
<text text-anchor="start" x="161.5" y="-350.5" font-family="Helvetica,sans-Serif" font-size="10.00">+ setVerbose()</text>
</a>
</g>
</g>
<!-- Node3&#45;&gt;Node4 -->
<g id="edge4" class="edge"><title>Node3&#45;&gt;Node4</title>
<path fill="none" stroke="#404040" d="M137.079,-509.157C147.5,-496.905 161.1,-480.916 174.649,-464.987"/>
<polygon fill="none" stroke="#404040" points="174.821,-464.785 175.661,-457.623 182.596,-455.644 181.755,-462.806 174.821,-464.785"/>
<text text-anchor="middle" x="196" y="-477" font-family="Helvetica,sans-Serif" font-size="10.00"> #m_verbose</text>
</g>
<!-- Node4&#45;&gt;Node2 -->
<g id="edge3" class="edge"><title>Node4&#45;&gt;Node2</title>
<path fill="none" stroke="orange" d="M172.541,-335.567C160.619,-322.393 148.132,-308.597 136.486,-295.73"/>
<polygon fill="orange" stroke="orange" points="170.18,-338.174 179.486,-343.239 175.37,-333.476 170.18,-338.174"/>
<text text-anchor="middle" x="236" y="-317" font-family="Helvetica,sans-Serif" font-size="10.00"> &lt; Core::Asset::CameraData &gt;</text>
</g>
</g>
</svg>
