<?xml version="1.0" encoding="UTF-8" standalone="no"?>
<!DOCTYPE svg PUBLIC "-//W3C//DTD SVG 1.1//EN"
 "http://www.w3.org/Graphics/SVG/1.1/DTD/svg11.dtd">
<!-- Generated by graphviz version 2.38.0 (20140413.2041)
 -->
<!-- Title: Ra::Core::Utils::Log::Get Pages: 1 -->
<svg width="465pt" height="78pt"
 viewBox="0.00 0.00 465.00 77.50" xmlns="http://www.w3.org/2000/svg" xmlns:xlink="http://www.w3.org/1999/xlink">
<g id="graph0" class="graph" transform="scale(1 1) rotate(0) translate(4 73.5)">
<title>Ra::Core::Utils::Log::Get</title>
<polygon fill="white" stroke="none" points="-4,4 -4,-73.5 461,-73.5 461,4 -4,4"/>
<!-- Node1 -->
<g id="node1" class="node"><title>Node1</title>
<polygon fill="#bfbfbf" stroke="black" points="0,-28 0,-47 131,-47 131,-28 0,-28"/>
<text text-anchor="middle" x="65.5" y="-35" font-family="Helvetica,sans-Serif" font-size="10.00">Ra::Core::Utils::Log::Get</text>
</g>
<!-- Node2 -->
<g id="node2" class="node"><title>Node2</title>
<g id="a_node2"><a xlink:href="namespaceRa_1_1Core_1_1Utils.html#ad7538d961d008c77173d308106df52c8" target="_top" xlink:title="Ra::Core::Utils::NowTime">
<polygon fill="white" stroke="black" points="167,-50 167,-69 301,-69 301,-50 167,-50"/>
<text text-anchor="middle" x="234" y="-57" font-family="Helvetica,sans-Serif" font-size="10.00">Ra::Core::Utils::NowTime</text>
</a>
</g>
</g>
<!-- Node1&#45;&gt;Node2 -->
<g id="edge1" class="edge"><title>Node1&#45;&gt;Node2</title>
<path fill="none" stroke="midnightblue" d="M131.35,-46.0688C139.75,-47.1787 148.414,-48.3235 156.975,-49.4547"/>
<polygon fill="midnightblue" stroke="midnightblue" points="156.583,-52.9332 166.956,-50.7734 157.5,-45.9936 156.583,-52.9332"/>
</g>
<!-- Node4 -->
<g id="node4" class="node"><title>Node4</title>
<g id="a_node4"><a xlink:href="classRa_1_1Core_1_1Utils_1_1Log.html#a4a5888c0bc0b64fd3e2676e458e97b25" target="_top" xlink:title="Ra::Core::Utils::Log\l::ToString">
<polygon fill="white" stroke="black" points="180.5,-0.5 180.5,-30.5 287.5,-30.5 287.5,-0.5 180.5,-0.5"/>
<text text-anchor="start" x="188.5" y="-18.5" font-family="Helvetica,sans-Serif" font-size="10.00">Ra::Core::Utils::Log</text>
<text text-anchor="middle" x="234" y="-7.5" font-family="Helvetica,sans-Serif" font-size="10.00">::ToString</text>
</a>
</g>
</g>
<!-- Node1&#45;&gt;Node4 -->
<g id="edge3" class="edge"><title>Node1&#45;&gt;Node4</title>
<path fill="none" stroke="midnightblue" d="M131.35,-28.9312C144.175,-27.2367 157.613,-25.4611 170.362,-23.7765"/>
<polygon fill="midnightblue" stroke="midnightblue" points="170.959,-27.2281 180.415,-22.4482 170.042,-20.2884 170.959,-27.2281"/>
</g>
<!-- Node3 -->
<g id="node3" class="node"><title>Node3</title>
<g id="a_node3"><a xlink:href="namespaceRa_1_1Core_1_1Geometry.html#aa04e6052d8911b1df1bd881474debb45" target="_top" xlink:title="Ra::Core::Geometry::t">
<polygon fill="white" stroke="black" points="337,-50 337,-69 457,-69 457,-50 337,-50"/>
<text text-anchor="middle" x="397" y="-57" font-family="Helvetica,sans-Serif" font-size="10.00">Ra::Core::Geometry::t</text>
</a>
</g>
</g>
<!-- Node2&#45;&gt;Node3 -->
<g id="edge2" class="edge"><title>Node2&#45;&gt;Node3</title>
<path fill="none" stroke="midnightblue" d="M301.414,-59.5C309.789,-59.5 318.374,-59.5 326.791,-59.5"/>
<polygon fill="midnightblue" stroke="midnightblue" points="326.95,-63.0001 336.949,-59.5 326.949,-56.0001 326.95,-63.0001"/>
</g>
</g>
</svg>
