<?xml version="1.0" encoding="UTF-8" standalone="no"?>
<!DOCTYPE svg PUBLIC "-//W3C//DTD SVG 1.1//EN"
 "http://www.w3.org/Graphics/SVG/1.1/DTD/svg11.dtd">
<!-- Generated by graphviz version 2.38.0 (20140413.2041)
 -->
<!-- Title: Ra::GuiBase::TreeItem Pages: 1 -->
<svg width="482pt" height="527pt"
 viewBox="0.00 0.00 482.00 527.00" xmlns="http://www.w3.org/2000/svg" xmlns:xlink="http://www.w3.org/1999/xlink">
<g id="graph0" class="graph" transform="scale(1 1) rotate(0) translate(4 523)">
<title>Ra::GuiBase::TreeItem</title>
<polygon fill="white" stroke="none" points="-4,4 -4,-523 478,-523 478,4 -4,4"/>
<!-- Node1 -->
<g id="node1" class="node"><title>Node1</title>
<polygon fill="#bfbfbf" stroke="black" points="0,-279.5 0,-413.5 122,-413.5 122,-279.5 0,-279.5"/>
<text text-anchor="middle" x="61" y="-401.5" font-family="Helvetica,sans-Serif" font-size="10.00">Ra::GuiBase::TreeItem</text>
<polyline fill="none" stroke="black" points="0,-394.5 122,-394.5 "/>
<text text-anchor="middle" x="61" y="-382.5" font-family="Helvetica,sans-Serif" font-size="10.00"> </text>
<polyline fill="none" stroke="black" points="0,-375.5 122,-375.5 "/>
<text text-anchor="start" x="8" y="-363.5" font-family="Helvetica,sans-Serif" font-size="10.00">+ TreeItem()</text>
<text text-anchor="start" x="8" y="-352.5" font-family="Helvetica,sans-Serif" font-size="10.00">+ ~TreeItem()</text>
<text text-anchor="start" x="8" y="-341.5" font-family="Helvetica,sans-Serif" font-size="10.00">+ TreeItem()</text>
<text text-anchor="start" x="8" y="-330.5" font-family="Helvetica,sans-Serif" font-size="10.00">+ operator=()</text>
<text text-anchor="start" x="8" y="-319.5" font-family="Helvetica,sans-Serif" font-size="10.00">+ getName()</text>
<text text-anchor="start" x="8" y="-308.5" font-family="Helvetica,sans-Serif" font-size="10.00">+ isValid()</text>
<text text-anchor="start" x="8" y="-297.5" font-family="Helvetica,sans-Serif" font-size="10.00">+ isSelectable()</text>
<text text-anchor="start" x="8" y="-286.5" font-family="Helvetica,sans-Serif" font-size="10.00">+ getIndexInParent()</text>
</g>
<!-- Node1&#45;&gt;Node1 -->
<g id="edge8" class="edge"><title>Node1&#45;&gt;Node1</title>
<path fill="none" stroke="#404040" d="M122.279,-362.253C132.747,-360.101 140,-354.85 140,-346.5 140,-341.673 137.576,-337.881 133.508,-335.125"/>
<polygon fill="none" stroke="#404040" points="133.459,-335.106 126.416,-336.653 122.279,-330.747 129.322,-329.2 133.459,-335.106"/>
<text text-anchor="middle" x="169" y="-344" font-family="Helvetica,sans-Serif" font-size="10.00"> +m_parent</text>
</g>
<!-- Node3 -->
<g id="node3" class="node"><title>Node3</title>
<polygon fill="white" stroke="#bfbfbf" points="136.5,-116.5 136.5,-184.5 257.5,-184.5 257.5,-116.5 136.5,-116.5"/>
<text text-anchor="start" x="144.5" y="-172.5" font-family="Helvetica,sans-Serif" font-size="10.00">std::unique_ptr&lt; Ra</text>
<text text-anchor="middle" x="197" y="-161.5" font-family="Helvetica,sans-Serif" font-size="10.00">::GuiBase::TreeItem &gt;</text>
<polyline fill="none" stroke="#bfbfbf" points="136.5,-154.5 257.5,-154.5 "/>
<text text-anchor="middle" x="197" y="-142.5" font-family="Helvetica,sans-Serif" font-size="10.00"> </text>
<polyline fill="none" stroke="#bfbfbf" points="136.5,-135.5 257.5,-135.5 "/>
<text text-anchor="start" x="144.5" y="-123.5" font-family="Helvetica,sans-Serif" font-size="10.00">+ operator&#45;&gt;()</text>
</g>
<!-- Node1&#45;&gt;Node3 -->
<g id="edge3" class="edge"><title>Node1&#45;&gt;Node3</title>
<path fill="none" stroke="#404040" d="M102.692,-279.288C118.543,-254.933 137.101,-227.362 155,-203 157.151,-200.073 159.408,-197.086 161.712,-194.1"/>
<polygon fill="none" stroke="#404040" points="161.741,-194.063 162.309,-186.874 169.163,-184.633 168.595,-191.822 161.741,-194.063"/>
<text text-anchor="middle" x="167.5" y="-229.5" font-family="Helvetica,sans-Serif" font-size="10.00"> +ptr</text>
</g>
<!-- Node2 -->
<g id="node2" class="node"><title>Node2</title>
<polygon fill="white" stroke="#bfbfbf" points="110,-0.5 110,-68.5 284,-68.5 284,-0.5 110,-0.5"/>
<text text-anchor="start" x="118" y="-56.5" font-family="Helvetica,sans-Serif" font-size="10.00">std::vector&lt; std::unique</text>
<text text-anchor="middle" x="197" y="-45.5" font-family="Helvetica,sans-Serif" font-size="10.00">_ptr&lt; Ra::GuiBase::TreeItem &gt; &gt;</text>
<polyline fill="none" stroke="#bfbfbf" points="110,-38.5 284,-38.5 "/>
<text text-anchor="middle" x="197" y="-26.5" font-family="Helvetica,sans-Serif" font-size="10.00"> </text>
<polyline fill="none" stroke="#bfbfbf" points="110,-19.5 284,-19.5 "/>
<text text-anchor="middle" x="197" y="-7.5" font-family="Helvetica,sans-Serif" font-size="10.00"> </text>
</g>
<!-- Node2&#45;&gt;Node1 -->
<g id="edge1" class="edge"><title>Node2&#45;&gt;Node1</title>
<path fill="none" stroke="#404040" d="M112.483,-68.6722C92.8472,-80.5537 74.3802,-96.0904 63,-116 37.0342,-161.427 37.1812,-220.638 43.4835,-267.538"/>
<polygon fill="none" stroke="#404040" points="43.4954,-267.619 48.3325,-272.967 45.2561,-279.489 40.4191,-274.141 43.4954,-267.619"/>
<text text-anchor="middle" x="95" y="-148" font-family="Helvetica,sans-Serif" font-size="10.00"> +m_children</text>
</g>
<!-- Node3&#45;&gt;Node2 -->
<g id="edge2" class="edge"><title>Node3&#45;&gt;Node2</title>
<path fill="none" stroke="#404040" d="M197,-116.22C197,-105.099 197,-92.5117 197,-80.6422"/>
<polygon fill="none" stroke="#404040" points="197,-80.6243 193,-74.6243 197,-68.6243 201,-74.6242 197,-80.6243"/>
<text text-anchor="middle" x="225.5" y="-90" font-family="Helvetica,sans-Serif" font-size="10.00"> +elements</text>
</g>
<!-- Node4 -->
<g id="node4" class="node"><title>Node4</title>
<g id="a_node4"><a xlink:title="STL class. ">
<polygon fill="white" stroke="#bfbfbf" points="219,-318 219,-375 335,-375 335,-318 219,-318"/>
<text text-anchor="middle" x="277" y="-363" font-family="Helvetica,sans-Serif" font-size="10.00">std::unique_ptr&lt; T &gt;</text>
<polyline fill="none" stroke="#bfbfbf" points="219,-356 335,-356 "/>
<text text-anchor="middle" x="277" y="-344" font-family="Helvetica,sans-Serif" font-size="10.00"> </text>
<polyline fill="none" stroke="#bfbfbf" points="219,-337 335,-337 "/>
<text text-anchor="start" x="227" y="-325" font-family="Helvetica,sans-Serif" font-size="10.00">+ operator&#45;&gt;()</text>
</a>
</g>
</g>
<!-- Node4&#45;&gt;Node3 -->
<g id="edge4" class="edge"><title>Node4&#45;&gt;Node3</title>
<path fill="none" stroke="orange" d="M240.392,-310.766C217.626,-288.964 192.406,-264.353 191,-261 180.912,-236.946 183.34,-207.278 187.777,-184.893"/>
<polygon fill="orange" stroke="orange" points="238.016,-313.337 247.664,-317.716 242.852,-308.276 238.016,-313.337"/>
<text text-anchor="middle" x="256.5" y="-229.5" font-family="Helvetica,sans-Serif" font-size="10.00"> &lt; Ra::GuiBase::TreeItem &gt;</text>
</g>
<!-- Node5 -->
<g id="node5" class="node"><title>Node5</title>
<polygon fill="white" stroke="#bfbfbf" points="316.5,-461.5 316.5,-518.5 345.5,-518.5 345.5,-461.5 316.5,-461.5"/>
<text text-anchor="middle" x="331" y="-506.5" font-family="Helvetica,sans-Serif" font-size="10.00">T</text>
<polyline fill="none" stroke="#bfbfbf" points="316.5,-499.5 345.5,-499.5 "/>
<text text-anchor="middle" x="331" y="-487.5" font-family="Helvetica,sans-Serif" font-size="10.00"> </text>
<polyline fill="none" stroke="#bfbfbf" points="316.5,-480.5 345.5,-480.5 "/>
<text text-anchor="middle" x="331" y="-468.5" font-family="Helvetica,sans-Serif" font-size="10.00"> </text>
</g>
<!-- Node5&#45;&gt;Node4 -->
<g id="edge5" class="edge"><title>Node5&#45;&gt;Node4</title>
<path fill="none" stroke="#404040" d="M320.46,-461.381C312.32,-440.052 300.953,-410.266 291.886,-386.506"/>
<polygon fill="none" stroke="#404040" points="291.792,-386.26 285.916,-382.081 287.513,-375.049 293.39,-379.228 291.792,-386.26"/>
<text text-anchor="middle" x="324.5" y="-435" font-family="Helvetica,sans-Serif" font-size="10.00"> +ptr</text>
</g>
<!-- Node6 -->
<g id="node6" class="node"><title>Node6</title>
<g id="a_node6"><a xlink:title="STL class. ">
<polygon fill="white" stroke="#bfbfbf" points="331.5,-203.5 331.5,-260.5 426.5,-260.5 426.5,-203.5 331.5,-203.5"/>
<text text-anchor="middle" x="379" y="-248.5" font-family="Helvetica,sans-Serif" font-size="10.00">std::vector&lt; T &gt;</text>
<polyline fill="none" stroke="#bfbfbf" points="331.5,-241.5 426.5,-241.5 "/>
<text text-anchor="middle" x="379" y="-229.5" font-family="Helvetica,sans-Serif" font-size="10.00"> </text>
<polyline fill="none" stroke="#bfbfbf" points="331.5,-222.5 426.5,-222.5 "/>
<text text-anchor="middle" x="379" y="-210.5" font-family="Helvetica,sans-Serif" font-size="10.00"> </text>
</a>
</g>
</g>
<!-- Node5&#45;&gt;Node6 -->
<g id="edge7" class="edge"><title>Node5&#45;&gt;Node6</title>
<path fill="none" stroke="#404040" d="M337.186,-461.302C338.485,-455.277 339.819,-448.931 341,-443 352.795,-383.762 364.977,-314.811 372.271,-272.539"/>
<polygon fill="none" stroke="#404040" points="372.294,-272.403 369.368,-265.812 374.327,-260.577 377.253,-267.168 372.294,-272.403"/>
<text text-anchor="middle" x="371.5" y="-435" font-family="Helvetica,sans-Serif" font-size="10.00"> +elements</text>
</g>
<!-- Node6&#45;&gt;Node2 -->
<g id="edge6" class="edge"><title>Node6&#45;&gt;Node2</title>
<path fill="none" stroke="orange" d="M351.693,-195.158C328.146,-165.1 292.573,-121.654 258,-87 251.833,-80.8186 245.007,-74.5606 238.22,-68.6382"/>
<polygon fill="orange" stroke="orange" points="349.099,-197.524 358.005,-203.263 354.622,-193.223 349.099,-197.524"/>
<text text-anchor="start" x="343" y="-153.5" font-family="Helvetica,sans-Serif" font-size="10.00"> &lt; std::unique_ptr&lt;</text>
<text text-anchor="middle" x="408.5" y="-142.5" font-family="Helvetica,sans-Serif" font-size="10.00"> Ra::GuiBase::TreeItem &gt; &gt;</text>
</g>
</g>
</svg>
