<?xml version="1.0" encoding="UTF-8" standalone="no"?>
<!DOCTYPE svg PUBLIC "-//W3C//DTD SVG 1.1//EN"
 "http://www.w3.org/Graphics/SVG/1.1/DTD/svg11.dtd">
<!-- Generated by graphviz version 2.38.0 (20140413.2041)
 -->
<!-- Title: Ra::Engine::Mesh Pages: 1 -->
<svg width="128pt" height="424pt"
 viewBox="0.00 0.00 128.00 424.00" xmlns="http://www.w3.org/2000/svg" xmlns:xlink="http://www.w3.org/1999/xlink">
<g id="graph0" class="graph" transform="scale(1 1) rotate(0) translate(4 420)">
<title>Ra::Engine::Mesh</title>
<polygon fill="white" stroke="none" points="-4,4 -4,-420 124,-420 124,4 -4,4"/>
<!-- Node1 -->
<g id="node1" class="node"><title>Node1</title>
<polygon fill="#bfbfbf" stroke="black" points="2,-0.5 2,-310.5 112,-310.5 112,-0.5 2,-0.5"/>
<text text-anchor="middle" x="57" y="-298.5" font-family="Helvetica,sans-Serif" font-size="10.00">Ra::Engine::Mesh</text>
<polyline fill="none" stroke="black" points="2,-291.5 112,-291.5 "/>
<text text-anchor="middle" x="57" y="-279.5" font-family="Helvetica,sans-Serif" font-size="10.00"> </text>
<polyline fill="none" stroke="black" points="2,-272.5 112,-272.5 "/>
<text text-anchor="start" x="10" y="-260.5" font-family="Helvetica,sans-Serif" font-size="10.00">+ Mesh()</text>
<text text-anchor="start" x="10" y="-249.5" font-family="Helvetica,sans-Serif" font-size="10.00">+ Mesh()</text>
<text text-anchor="start" x="10" y="-238.5" font-family="Helvetica,sans-Serif" font-size="10.00">+ operator=()</text>
<text text-anchor="start" x="10" y="-227.5" font-family="Helvetica,sans-Serif" font-size="10.00">+ ~Mesh()</text>
<text text-anchor="start" x="10" y="-216.5" font-family="Helvetica,sans-Serif" font-size="10.00">+ getName()</text>
<text text-anchor="start" x="10" y="-205.5" font-family="Helvetica,sans-Serif" font-size="10.00">+ setRenderMode()</text>
<text text-anchor="start" x="10" y="-194.5" font-family="Helvetica,sans-Serif" font-size="10.00">+ getRenderMode()</text>
<text text-anchor="start" x="10" y="-183.5" font-family="Helvetica,sans-Serif" font-size="10.00">+ getGeometry()</text>
<text text-anchor="start" x="10" y="-172.5" font-family="Helvetica,sans-Serif" font-size="10.00">+ getGeometry()</text>
<text text-anchor="start" x="10" y="-161.5" font-family="Helvetica,sans-Serif" font-size="10.00">+ loadGeometry()</text>
<text text-anchor="start" x="10" y="-150.5" font-family="Helvetica,sans-Serif" font-size="10.00">+ loadGeometry()</text>
<text text-anchor="start" x="10" y="-139.5" font-family="Helvetica,sans-Serif" font-size="10.00">+ addData()</text>
<text text-anchor="start" x="10" y="-128.5" font-family="Helvetica,sans-Serif" font-size="10.00">+ addData()</text>
<text text-anchor="start" x="10" y="-117.5" font-family="Helvetica,sans-Serif" font-size="10.00">+ getData()</text>
<text text-anchor="start" x="10" y="-106.5" font-family="Helvetica,sans-Serif" font-size="10.00">+ getData()</text>
<text text-anchor="start" x="10" y="-95.5" font-family="Helvetica,sans-Serif" font-size="10.00">+ setDirty()</text>
<text text-anchor="start" x="10" y="-84.5" font-family="Helvetica,sans-Serif" font-size="10.00">+ setDirty()</text>
<text text-anchor="start" x="10" y="-73.5" font-family="Helvetica,sans-Serif" font-size="10.00">+ setDirty()</text>
<text text-anchor="start" x="10" y="-62.5" font-family="Helvetica,sans-Serif" font-size="10.00">+ updateGL()</text>
<text text-anchor="start" x="10" y="-51.5" font-family="Helvetica,sans-Serif" font-size="10.00">+ render()</text>
<text text-anchor="start" x="10" y="-40.5" font-family="Helvetica,sans-Serif" font-size="10.00">+ colorize()</text>
<text text-anchor="start" x="10" y="-29.5" font-family="Helvetica,sans-Serif" font-size="10.00">* MeshData</text>
<text text-anchor="start" x="10" y="-18.5" font-family="Helvetica,sans-Serif" font-size="10.00">* Vec3Data</text>
<text text-anchor="start" x="10" y="-7.5" font-family="Helvetica,sans-Serif" font-size="10.00">* Vec4Data</text>
</g>
<!-- Node2 -->
<g id="node2" class="node"><title>Node2</title>
<polygon fill="white" stroke="#bfbfbf" points="0,-358.5 0,-415.5 114,-415.5 114,-358.5 0,-358.5"/>
<text text-anchor="middle" x="57" y="-403.5" font-family="Helvetica,sans-Serif" font-size="10.00">static constexpr uint</text>
<polyline fill="none" stroke="#bfbfbf" points="0,-396.5 114,-396.5 "/>
<text text-anchor="middle" x="57" y="-384.5" font-family="Helvetica,sans-Serif" font-size="10.00"> </text>
<polyline fill="none" stroke="#bfbfbf" points="0,-377.5 114,-377.5 "/>
<text text-anchor="middle" x="57" y="-365.5" font-family="Helvetica,sans-Serif" font-size="10.00"> </text>
</g>
<!-- Node2&#45;&gt;Node1 -->
<g id="edge1" class="edge"><title>Node2&#45;&gt;Node1</title>
<path fill="none" stroke="#404040" d="M57,-358.317C57,-348.266 57,-336.054 57,-322.664"/>
<polygon fill="none" stroke="#404040" points="57.0001,-322.618 53,-316.619 57,-310.618 61,-316.618 57.0001,-322.618"/>
<text text-anchor="middle" x="88.5" y="-332" font-family="Helvetica,sans-Serif" font-size="10.00"> +MAX_DATA</text>
</g>
</g>
</svg>
