<?xml version="1.0" encoding="UTF-8" standalone="no"?>
<!DOCTYPE svg PUBLIC "-//W3C//DTD SVG 1.1//EN"
 "http://www.w3.org/Graphics/SVG/1.1/DTD/svg11.dtd">
<!-- Generated by graphviz version 2.38.0 (20140413.2041)
 -->
<!-- Title: Ra::Core::Geometry::Curve2D Pages: 1 -->
<svg width="119pt" height="226pt"
 viewBox="0.00 0.00 119.00 226.00" xmlns="http://www.w3.org/2000/svg" xmlns:xlink="http://www.w3.org/1999/xlink">
<g id="graph0" class="graph" transform="scale(1 1) rotate(0) translate(4 222)">
<title>Ra::Core::Geometry::Curve2D</title>
<polygon fill="white" stroke="none" points="-4,4 -4,-222 115,-222 115,4 -4,4"/>
<!-- Node1 -->
<g id="node1" class="node"><title>Node1</title>
<polygon fill="#bfbfbf" stroke="black" points="-7.10543e-15,-0.5 -7.10543e-15,-112.5 111,-112.5 111,-0.5 -7.10543e-15,-0.5"/>
<text text-anchor="start" x="8" y="-100.5" font-family="Helvetica,sans-Serif" font-size="10.00">Ra::Core::Geometry</text>
<text text-anchor="middle" x="55.5" y="-89.5" font-family="Helvetica,sans-Serif" font-size="10.00">::Curve2D</text>
<polyline fill="none" stroke="black" points="-7.10543e-15,-82.5 111,-82.5 "/>
<text text-anchor="middle" x="55.5" y="-70.5" font-family="Helvetica,sans-Serif" font-size="10.00"> </text>
<polyline fill="none" stroke="black" points="-7.10543e-15,-63.5 111,-63.5 "/>
<text text-anchor="start" x="8" y="-51.5" font-family="Helvetica,sans-Serif" font-size="10.00">+ addPoint()</text>
<text text-anchor="start" x="8" y="-40.5" font-family="Helvetica,sans-Serif" font-size="10.00">+ ~Curve2D()</text>
<text text-anchor="start" x="8" y="-29.5" font-family="Helvetica,sans-Serif" font-size="10.00">+ f()</text>
<text text-anchor="start" x="8" y="-18.5" font-family="Helvetica,sans-Serif" font-size="10.00">+ df()</text>
<text text-anchor="start" x="8" y="-7.5" font-family="Helvetica,sans-Serif" font-size="10.00">+ fdf()</text>
</g>
<!-- Node2 -->
<g id="node2" class="node"><title>Node2</title>
<polygon fill="white" stroke="#bfbfbf" points="41,-160.5 41,-217.5 70,-217.5 70,-160.5 41,-160.5"/>
<text text-anchor="middle" x="55.5" y="-205.5" font-family="Helvetica,sans-Serif" font-size="10.00">int</text>
<polyline fill="none" stroke="#bfbfbf" points="41,-198.5 70,-198.5 "/>
<text text-anchor="middle" x="55.5" y="-186.5" font-family="Helvetica,sans-Serif" font-size="10.00"> </text>
<polyline fill="none" stroke="#bfbfbf" points="41,-179.5 70,-179.5 "/>
<text text-anchor="middle" x="55.5" y="-167.5" font-family="Helvetica,sans-Serif" font-size="10.00"> </text>
</g>
<!-- Node2&#45;&gt;Node1 -->
<g id="edge1" class="edge"><title>Node2&#45;&gt;Node1</title>
<path fill="none" stroke="#404040" d="M55.5,-160.324C55.5,-149.778 55.5,-137.246 55.5,-124.62"/>
<polygon fill="none" stroke="#404040" points="55.5001,-124.548 51.5,-118.548 55.5,-112.548 59.5,-118.548 55.5001,-124.548"/>
<text text-anchor="middle" x="71" y="-134" font-family="Helvetica,sans-Serif" font-size="10.00"> #size</text>
</g>
</g>
</svg>
