<?xml version="1.0" encoding="UTF-8" standalone="no"?>
<!DOCTYPE svg PUBLIC "-//W3C//DTD SVG 1.1//EN"
 "http://www.w3.org/Graphics/SVG/1.1/DTD/svg11.dtd">
<!-- Generated by graphviz version 2.38.0 (20140413.2041)
 -->
<!-- Title: Ra::IO::TinyPlyFileLoader::loadFile Pages: 1 -->
<svg width="309pt" height="137pt"
 viewBox="0.00 0.00 309.00 137.00" xmlns="http://www.w3.org/2000/svg" xmlns:xlink="http://www.w3.org/1999/xlink">
<g id="graph0" class="graph" transform="scale(1 1) rotate(0) translate(4 133)">
<title>Ra::IO::TinyPlyFileLoader::loadFile</title>
<polygon fill="white" stroke="none" points="-4,4 -4,-133 305,-133 305,4 -4,4"/>
<!-- Node1 -->
<g id="node1" class="node"><title>Node1</title>
<polygon fill="#bfbfbf" stroke="black" points="0,-49.5 0,-79.5 131,-79.5 131,-49.5 0,-49.5"/>
<text text-anchor="start" x="8" y="-67.5" font-family="Helvetica,sans-Serif" font-size="10.00">Ra::IO::TinyPlyFileLoader</text>
<text text-anchor="middle" x="65.5" y="-56.5" font-family="Helvetica,sans-Serif" font-size="10.00">::loadFile</text>
</g>
<!-- Node2 -->
<g id="node2" class="node"><title>Node2</title>
<g id="a_node2"><a xlink:href="classRa_1_1Core_1_1Asset_1_1FileData.html#acc1447314339f28e0cb9fd06ca1b8c0d" target="_top" xlink:title="QUERY. ">
<polygon fill="white" stroke="black" points="167,-98.5 167,-128.5 301,-128.5 301,-98.5 167,-98.5"/>
<text text-anchor="start" x="175" y="-116.5" font-family="Helvetica,sans-Serif" font-size="10.00">Ra::Core::Asset::FileData</text>
<text text-anchor="middle" x="234" y="-105.5" font-family="Helvetica,sans-Serif" font-size="10.00">::isInitialized</text>
</a>
</g>
</g>
<!-- Node1&#45;&gt;Node2 -->
<g id="edge1" class="edge"><title>Node1&#45;&gt;Node2</title>
<path fill="none" stroke="midnightblue" d="M117.814,-79.6014C134.986,-84.6551 154.295,-90.3376 172.125,-95.5848"/>
<polygon fill="midnightblue" stroke="midnightblue" points="171.274,-98.9828 181.855,-98.4484 173.25,-92.2675 171.274,-98.9828"/>
</g>
<!-- Node3 -->
<g id="node3" class="node"><title>Node3</title>
<g id="a_node3"><a xlink:href="classRa_1_1Core_1_1Asset_1_1FileData.html#a357a487c6b541407c948bce974f61c33" target="_top" xlink:title="Ra::Core::Asset::FileData\l::isVerbose">
<polygon fill="white" stroke="black" points="167,-49.5 167,-79.5 301,-79.5 301,-49.5 167,-49.5"/>
<text text-anchor="start" x="175" y="-67.5" font-family="Helvetica,sans-Serif" font-size="10.00">Ra::Core::Asset::FileData</text>
<text text-anchor="middle" x="234" y="-56.5" font-family="Helvetica,sans-Serif" font-size="10.00">::isVerbose</text>
</a>
</g>
</g>
<!-- Node1&#45;&gt;Node3 -->
<g id="edge2" class="edge"><title>Node1&#45;&gt;Node3</title>
<path fill="none" stroke="midnightblue" d="M131.35,-64.5C139.659,-64.5 148.226,-64.5 156.696,-64.5"/>
<polygon fill="midnightblue" stroke="midnightblue" points="156.956,-68.0001 166.956,-64.5 156.956,-61.0001 156.956,-68.0001"/>
</g>
<!-- Node4 -->
<g id="node4" class="node"><title>Node4</title>
<g id="a_node4"><a xlink:href="classRa_1_1Core_1_1Asset_1_1FileData.html#a25e5f21f50f30c8302b9dc37251f6c48" target="_top" xlink:title="Ra::Core::Asset::FileData\l::displayInfo">
<polygon fill="white" stroke="black" points="167,-0.5 167,-30.5 301,-30.5 301,-0.5 167,-0.5"/>
<text text-anchor="start" x="175" y="-18.5" font-family="Helvetica,sans-Serif" font-size="10.00">Ra::Core::Asset::FileData</text>
<text text-anchor="middle" x="234" y="-7.5" font-family="Helvetica,sans-Serif" font-size="10.00">::displayInfo</text>
</a>
</g>
</g>
<!-- Node1&#45;&gt;Node4 -->
<g id="edge3" class="edge"><title>Node1&#45;&gt;Node4</title>
<path fill="none" stroke="midnightblue" d="M117.814,-49.3986C134.986,-44.3449 154.295,-38.6624 172.125,-33.4152"/>
<polygon fill="midnightblue" stroke="midnightblue" points="173.25,-36.7325 181.855,-30.5516 171.274,-30.0172 173.25,-36.7325"/>
</g>
</g>
</svg>
