<?xml version="1.0" encoding="UTF-8" standalone="no"?>
<!DOCTYPE svg PUBLIC "-//W3C//DTD SVG 1.1//EN"
 "http://www.w3.org/Graphics/SVG/1.1/DTD/svg11.dtd">
<!-- Generated by graphviz version 2.38.0 (20140413.2041)
 -->
<!-- Title: AnimationPlugin::AnimationComponent::cacheFrame Pages: 1 -->
<svg width="318pt" height="78pt"
 viewBox="0.00 0.00 318.00 77.50" xmlns="http://www.w3.org/2000/svg" xmlns:xlink="http://www.w3.org/1999/xlink">
<g id="graph0" class="graph" transform="scale(1 1) rotate(0) translate(4 73.5)">
<title>AnimationPlugin::AnimationComponent::cacheFrame</title>
<polygon fill="white" stroke="none" points="-4,4 -4,-73.5 314,-73.5 314,4 -4,4"/>
<!-- Node1 -->
<g id="node1" class="node"><title>Node1</title>
<polygon fill="#bfbfbf" stroke="black" points="-2.84217e-14,-22.5 -2.84217e-14,-52.5 149,-52.5 149,-22.5 -2.84217e-14,-22.5"/>
<text text-anchor="start" x="8" y="-40.5" font-family="Helvetica,sans-Serif" font-size="10.00">AnimationPlugin::Animation</text>
<text text-anchor="middle" x="74.5" y="-29.5" font-family="Helvetica,sans-Serif" font-size="10.00">Component::cacheFrame</text>
</g>
<!-- Node2 -->
<g id="node2" class="node"><title>Node2</title>
<g id="a_node2"><a xlink:href="namespaceRa_1_1Core_1_1Vector.html#a9ee859e471c539559bec21b69ca4da7b" target="_top" xlink:title="Component&#45;wise trunc() function on a floating&#45;point vector. ">
<polygon fill="white" stroke="black" points="185,-50 185,-69 310,-69 310,-50 185,-50"/>
<text text-anchor="middle" x="247.5" y="-57" font-family="Helvetica,sans-Serif" font-size="10.00">Ra::Core::Vector::trunc</text>
</a>
</g>
</g>
<!-- Node1&#45;&gt;Node2 -->
<g id="edge1" class="edge"><title>Node1&#45;&gt;Node2</title>
<path fill="none" stroke="midnightblue" d="M149.012,-46.9577C157.6,-48.0626 166.353,-49.1887 174.914,-50.2902"/>
<polygon fill="midnightblue" stroke="midnightblue" points="174.491,-53.7644 184.856,-51.5692 175.384,-46.8216 174.491,-53.7644"/>
</g>
<!-- Node3 -->
<g id="node3" class="node"><title>Node3</title>
<g id="a_node3"><a xlink:href="classRa_1_1Core_1_1Animation_1_1Skeleton.html#acb6381c3f288f580800589eb718c1759" target="_top" xlink:title="Ra::Core::Animation\l::Skeleton::getPose">
<polygon fill="white" stroke="black" points="191.5,-0.5 191.5,-30.5 303.5,-30.5 303.5,-0.5 191.5,-0.5"/>
<text text-anchor="start" x="199.5" y="-18.5" font-family="Helvetica,sans-Serif" font-size="10.00">Ra::Core::Animation</text>
<text text-anchor="middle" x="247.5" y="-7.5" font-family="Helvetica,sans-Serif" font-size="10.00">::Skeleton::getPose</text>
</a>
</g>
</g>
<!-- Node1&#45;&gt;Node3 -->
<g id="edge2" class="edge"><title>Node1&#45;&gt;Node3</title>
<path fill="none" stroke="midnightblue" d="M149.012,-28.0423C159.782,-26.6567 170.81,-25.2378 181.396,-23.8759"/>
<polygon fill="midnightblue" stroke="midnightblue" points="181.915,-27.3381 191.387,-22.5906 181.022,-20.3953 181.915,-27.3381"/>
</g>
</g>
</svg>
