<?xml version="1.0" encoding="UTF-8" standalone="no"?>
<!DOCTYPE svg PUBLIC "-//W3C//DTD SVG 1.1//EN"
 "http://www.w3.org/Graphics/SVG/1.1/DTD/svg11.dtd">
<!-- Generated by graphviz version 2.38.0 (20140413.2041)
 -->
<!-- Title: AnimationPlugin::AnimationComponent Pages: 1 -->
<svg width="712pt" height="1604pt"
 viewBox="0.00 0.00 711.50 1604.00" xmlns="http://www.w3.org/2000/svg" xmlns:xlink="http://www.w3.org/1999/xlink">
<g id="graph0" class="graph" transform="scale(1 1) rotate(0) translate(4 1600)">
<title>AnimationPlugin::AnimationComponent</title>
<polygon fill="white" stroke="none" points="-4,4 -4,-1600 707.5,-1600 707.5,4 -4,4"/>
<!-- Node1 -->
<g id="node1" class="node"><title>Node1</title>
<polygon fill="#bfbfbf" stroke="black" points="354,-0.5 354,-343.5 514,-343.5 514,-0.5 354,-0.5"/>
<text text-anchor="start" x="362" y="-331.5" font-family="Helvetica,sans-Serif" font-size="10.00">AnimationPlugin::Animation</text>
<text text-anchor="middle" x="434" y="-320.5" font-family="Helvetica,sans-Serif" font-size="10.00">Component</text>
<polyline fill="none" stroke="black" points="354,-313.5 514,-313.5 "/>
<text text-anchor="middle" x="434" y="-301.5" font-family="Helvetica,sans-Serif" font-size="10.00"> </text>
<polyline fill="none" stroke="black" points="354,-294.5 514,-294.5 "/>
<text text-anchor="start" x="362" y="-282.5" font-family="Helvetica,sans-Serif" font-size="10.00">+ AnimationComponent()</text>
<text text-anchor="start" x="362" y="-271.5" font-family="Helvetica,sans-Serif" font-size="10.00">+ ~AnimationComponent()</text>
<text text-anchor="start" x="362" y="-260.5" font-family="Helvetica,sans-Serif" font-size="10.00">+ AnimationComponent()</text>
<text text-anchor="start" x="362" y="-249.5" font-family="Helvetica,sans-Serif" font-size="10.00">+ operator=()</text>
<text text-anchor="start" x="362" y="-238.5" font-family="Helvetica,sans-Serif" font-size="10.00">+ initialize()</text>
<text text-anchor="start" x="362" y="-227.5" font-family="Helvetica,sans-Serif" font-size="10.00">+ handleSkeletonLoading()</text>
<text text-anchor="start" x="362" y="-216.5" font-family="Helvetica,sans-Serif" font-size="10.00">+ handleAnimationLoading()</text>
<text text-anchor="start" x="362" y="-205.5" font-family="Helvetica,sans-Serif" font-size="10.00">+ setSkeleton()</text>
<text text-anchor="start" x="362" y="-194.5" font-family="Helvetica,sans-Serif" font-size="10.00">+ getSkeleton()</text>
<text text-anchor="start" x="362" y="-183.5" font-family="Helvetica,sans-Serif" font-size="10.00">+ update()</text>
<text text-anchor="start" x="362" y="-172.5" font-family="Helvetica,sans-Serif" font-size="10.00">+ reset()</text>
<text text-anchor="start" x="362" y="-161.5" font-family="Helvetica,sans-Serif" font-size="10.00">+ cacheFrame()</text>
<text text-anchor="start" x="362" y="-150.5" font-family="Helvetica,sans-Serif" font-size="10.00">+ restoreFrame()</text>
<text text-anchor="start" x="362" y="-139.5" font-family="Helvetica,sans-Serif" font-size="10.00">+ toggleAnimationTimeStep()</text>
<text text-anchor="start" x="362" y="-128.5" font-family="Helvetica,sans-Serif" font-size="10.00">+ setSpeed()</text>
<text text-anchor="start" x="362" y="-117.5" font-family="Helvetica,sans-Serif" font-size="10.00">+ toggleSlowMotion()</text>
<text text-anchor="start" x="362" y="-106.5" font-family="Helvetica,sans-Serif" font-size="10.00">+ setAnimation()</text>
<text text-anchor="start" x="362" y="-95.5" font-family="Helvetica,sans-Serif" font-size="10.00">+ getTime()</text>
<text text-anchor="start" x="362" y="-84.5" font-family="Helvetica,sans-Serif" font-size="10.00">+ getDuration()</text>
<text text-anchor="start" x="362" y="-73.5" font-family="Helvetica,sans-Serif" font-size="10.00">+ getMaxFrame()</text>
<text text-anchor="start" x="362" y="-62.5" font-family="Helvetica,sans-Serif" font-size="10.00">+ setXray()</text>
<text text-anchor="start" x="362" y="-51.5" font-family="Helvetica,sans-Serif" font-size="10.00">+ toggleSkeleton()</text>
<text text-anchor="start" x="362" y="-40.5" font-family="Helvetica,sans-Serif" font-size="10.00">+ getBoneIdx()</text>
<text text-anchor="start" x="362" y="-29.5" font-family="Helvetica,sans-Serif" font-size="10.00">+ canEdit()</text>
<text text-anchor="start" x="362" y="-18.5" font-family="Helvetica,sans-Serif" font-size="10.00">+ getTransform()</text>
<text text-anchor="start" x="362" y="-7.5" font-family="Helvetica,sans-Serif" font-size="10.00">+ setTransform()</text>
</g>
<!-- Node2 -->
<g id="node2" class="node"><title>Node2</title>
<g id="a_node2"><a xlink:href="classRa_1_1Engine_1_1Component.html" target="_top" xlink:title="A component is an element that can be updated by a system. ">
<polygon fill="white" stroke="black" points="353.5,-381.5 353.5,-603.5 514.5,-603.5 514.5,-381.5 353.5,-381.5"/>
<text text-anchor="middle" x="434" y="-591.5" font-family="Helvetica,sans-Serif" font-size="10.00">Ra::Engine::Component</text>
<polyline fill="none" stroke="black" points="353.5,-584.5 514.5,-584.5 "/>
<text text-anchor="middle" x="434" y="-572.5" font-family="Helvetica,sans-Serif" font-size="10.00"> </text>
<polyline fill="none" stroke="black" points="353.5,-565.5 514.5,-565.5 "/>
<text text-anchor="start" x="361.5" y="-553.5" font-family="Helvetica,sans-Serif" font-size="10.00">+ Component()</text>
<text text-anchor="start" x="361.5" y="-542.5" font-family="Helvetica,sans-Serif" font-size="10.00">+ ~Component()</text>
<text text-anchor="start" x="361.5" y="-531.5" font-family="Helvetica,sans-Serif" font-size="10.00">+ initialize()</text>
<text text-anchor="start" x="361.5" y="-520.5" font-family="Helvetica,sans-Serif" font-size="10.00">+ setEntity()</text>
<text text-anchor="start" x="361.5" y="-509.5" font-family="Helvetica,sans-Serif" font-size="10.00">+ getEntity()</text>
<text text-anchor="start" x="361.5" y="-498.5" font-family="Helvetica,sans-Serif" font-size="10.00">+ getName()</text>
<text text-anchor="start" x="361.5" y="-487.5" font-family="Helvetica,sans-Serif" font-size="10.00">+ setSystem()</text>
<text text-anchor="start" x="361.5" y="-476.5" font-family="Helvetica,sans-Serif" font-size="10.00">+ getSystem()</text>
<text text-anchor="start" x="361.5" y="-465.5" font-family="Helvetica,sans-Serif" font-size="10.00">+ addRenderObject()</text>
<text text-anchor="start" x="361.5" y="-454.5" font-family="Helvetica,sans-Serif" font-size="10.00">+ removeRenderObject()</text>
<text text-anchor="start" x="361.5" y="-443.5" font-family="Helvetica,sans-Serif" font-size="10.00">+ rayCastQuery()</text>
<text text-anchor="start" x="361.5" y="-432.5" font-family="Helvetica,sans-Serif" font-size="10.00">+ canEdit()</text>
<text text-anchor="start" x="361.5" y="-421.5" font-family="Helvetica,sans-Serif" font-size="10.00">+ getTransform()</text>
<text text-anchor="start" x="361.5" y="-410.5" font-family="Helvetica,sans-Serif" font-size="10.00">+ setTransform()</text>
<text text-anchor="start" x="361.5" y="-399.5" font-family="Helvetica,sans-Serif" font-size="10.00">+ notifyRenderObjectExpired()</text>
<text text-anchor="start" x="361.5" y="-388.5" font-family="Helvetica,sans-Serif" font-size="10.00"># getRoMgr()</text>
</a>
</g>
</g>
<!-- Node2&#45;&gt;Node1 -->
<g id="edge1" class="edge"><title>Node2&#45;&gt;Node1</title>
<path fill="none" stroke="midnightblue" d="M434,-371.25C434,-362.146 434,-352.862 434,-343.525"/>
<polygon fill="none" stroke="midnightblue" points="430.5,-371.444 434,-381.444 437.5,-371.444 430.5,-371.444"/>
</g>
<!-- Node3 -->
<g id="node3" class="node"><title>Node3</title>
<polygon fill="white" stroke="#bfbfbf" points="45.5,-960 45.5,-1039 156.5,-1039 156.5,-960 45.5,-960"/>
<text text-anchor="start" x="53.5" y="-1027" font-family="Helvetica,sans-Serif" font-size="10.00">std::vector&lt; Core::</text>
<text text-anchor="start" x="53.5" y="-1016" font-family="Helvetica,sans-Serif" font-size="10.00">Utils::Ra::Core::Utils</text>
<text text-anchor="middle" x="101" y="-1005" font-family="Helvetica,sans-Serif" font-size="10.00">::Index &gt;</text>
<polyline fill="none" stroke="#bfbfbf" points="45.5,-998 156.5,-998 "/>
<text text-anchor="middle" x="101" y="-986" font-family="Helvetica,sans-Serif" font-size="10.00"> </text>
<polyline fill="none" stroke="#bfbfbf" points="45.5,-979 156.5,-979 "/>
<text text-anchor="middle" x="101" y="-967" font-family="Helvetica,sans-Serif" font-size="10.00"> </text>
</g>
<!-- Node3&#45;&gt;Node2 -->
<g id="edge2" class="edge"><title>Node3&#45;&gt;Node2</title>
<path fill="none" stroke="#404040" d="M98.6563,-959.882C96.4582,-891.257 100.894,-746.335 168,-651 210.226,-591.011 283.195,-550.181 342.039,-525.153"/>
<polygon fill="none" stroke="#404040" points="342.145,-525.109 346.153,-519.115 353.228,-520.51 349.22,-526.504 342.145,-525.109"/>
<text text-anchor="middle" x="215" y="-771" font-family="Helvetica,sans-Serif" font-size="10.00"> +m_renderObjects</text>
</g>
<!-- Node4 -->
<g id="node4" class="node"><title>Node4</title>
<polygon fill="white" stroke="#bfbfbf" points="0,-1279.5 0,-1336.5 42,-1336.5 42,-1279.5 0,-1279.5"/>
<text text-anchor="middle" x="21" y="-1324.5" font-family="Helvetica,sans-Serif" font-size="10.00">Index</text>
<polyline fill="none" stroke="#bfbfbf" points="0,-1317.5 42,-1317.5 "/>
<text text-anchor="middle" x="21" y="-1305.5" font-family="Helvetica,sans-Serif" font-size="10.00"> </text>
<polyline fill="none" stroke="#bfbfbf" points="0,-1298.5 42,-1298.5 "/>
<text text-anchor="middle" x="21" y="-1286.5" font-family="Helvetica,sans-Serif" font-size="10.00"> </text>
</g>
<!-- Node4&#45;&gt;Node3 -->
<g id="edge3" class="edge"><title>Node4&#45;&gt;Node3</title>
<path fill="none" stroke="#404040" d="M17.603,-1279.18C13.2704,-1234.16 9.42234,-1143.38 38,-1074 41.6005,-1065.26 46.6604,-1056.81 52.3645,-1048.95"/>
<polygon fill="none" stroke="#404040" points="52.4911,-1048.79 53.0284,-1041.59 59.8729,-1039.32 59.3357,-1046.52 52.4911,-1048.79"/>
<text text-anchor="middle" x="66.5" y="-1088" font-family="Helvetica,sans-Serif" font-size="10.00"> +elements</text>
</g>
<!-- Node5 -->
<g id="node5" class="node"><title>Node5</title>
<g id="a_node5"><a xlink:title="STL class. ">
<polygon fill="white" stroke="#bfbfbf" points="115.5,-1279.5 115.5,-1336.5 210.5,-1336.5 210.5,-1279.5 115.5,-1279.5"/>
<text text-anchor="middle" x="163" y="-1324.5" font-family="Helvetica,sans-Serif" font-size="10.00">std::vector&lt; T &gt;</text>
<polyline fill="none" stroke="#bfbfbf" points="115.5,-1317.5 210.5,-1317.5 "/>
<text text-anchor="middle" x="163" y="-1305.5" font-family="Helvetica,sans-Serif" font-size="10.00"> </text>
<polyline fill="none" stroke="#bfbfbf" points="115.5,-1298.5 210.5,-1298.5 "/>
<text text-anchor="middle" x="163" y="-1286.5" font-family="Helvetica,sans-Serif" font-size="10.00"> </text>
</a>
</g>
</g>
<!-- Node5&#45;&gt;Node3 -->
<g id="edge4" class="edge"><title>Node5&#45;&gt;Node3</title>
<path fill="none" stroke="orange" d="M148.182,-1269.94C133.191,-1230.34 110.985,-1165.38 102,-1107 98.5684,-1084.7 98.1805,-1059.47 98.7145,-1039.17"/>
<polygon fill="orange" stroke="orange" points="144.977,-1271.35 151.825,-1279.44 151.512,-1268.85 144.977,-1271.35"/>
<text text-anchor="start" x="102" y="-1093.5" font-family="Helvetica,sans-Serif" font-size="10.00"> &lt; Core::Utils::Ra::</text>
<text text-anchor="middle" x="148.5" y="-1082.5" font-family="Helvetica,sans-Serif" font-size="10.00">Core::Utils::Index &gt;</text>
</g>
<!-- Node8 -->
<g id="node8" class="node"><title>Node8</title>
<polygon fill="white" stroke="#bfbfbf" points="262,-960 262,-1039 436,-1039 436,-960 262,-960"/>
<text text-anchor="start" x="270" y="-1027" font-family="Helvetica,sans-Serif" font-size="10.00">std::vector&lt; std::pair</text>
<text text-anchor="start" x="270" y="-1016" font-family="Helvetica,sans-Serif" font-size="10.00">&lt; const Ra::Engine::Entity</text>
<text text-anchor="middle" x="349" y="-1005" font-family="Helvetica,sans-Serif" font-size="10.00"> *, Ra::Engine::Component * &gt; &gt;</text>
<polyline fill="none" stroke="#bfbfbf" points="262,-998 436,-998 "/>
<text text-anchor="middle" x="349" y="-986" font-family="Helvetica,sans-Serif" font-size="10.00"> </text>
<polyline fill="none" stroke="#bfbfbf" points="262,-979 436,-979 "/>
<text text-anchor="middle" x="349" y="-967" font-family="Helvetica,sans-Serif" font-size="10.00"> </text>
</g>
<!-- Node5&#45;&gt;Node8 -->
<g id="edge9" class="edge"><title>Node5&#45;&gt;Node8</title>
<path fill="none" stroke="orange" d="M167.458,-1268.9C174.865,-1211.01 191.184,-1104.4 214,-1074 226.415,-1057.46 243.685,-1044.2 261.734,-1033.74"/>
<polygon fill="orange" stroke="orange" points="163.949,-1268.76 166.179,-1279.12 170.894,-1269.63 163.949,-1268.76"/>
<text text-anchor="start" x="214" y="-1099" font-family="Helvetica,sans-Serif" font-size="10.00"> &lt; std::pair&lt; const</text>
<text text-anchor="start" x="214" y="-1088" font-family="Helvetica,sans-Serif" font-size="10.00"> Ra::Engine::Entity</text>
<text text-anchor="middle" x="293" y="-1077" font-family="Helvetica,sans-Serif" font-size="10.00"> *, Ra::Engine::Component * &gt; &gt;</text>
</g>
<!-- Node6 -->
<g id="node6" class="node"><title>Node6</title>
<polygon fill="white" stroke="#bfbfbf" points="148.5,-1538.5 148.5,-1595.5 177.5,-1595.5 177.5,-1538.5 148.5,-1538.5"/>
<text text-anchor="middle" x="163" y="-1583.5" font-family="Helvetica,sans-Serif" font-size="10.00">T</text>
<polyline fill="none" stroke="#bfbfbf" points="148.5,-1576.5 177.5,-1576.5 "/>
<text text-anchor="middle" x="163" y="-1564.5" font-family="Helvetica,sans-Serif" font-size="10.00"> </text>
<polyline fill="none" stroke="#bfbfbf" points="148.5,-1557.5 177.5,-1557.5 "/>
<text text-anchor="middle" x="163" y="-1545.5" font-family="Helvetica,sans-Serif" font-size="10.00"> </text>
</g>
<!-- Node6&#45;&gt;Node5 -->
<g id="edge5" class="edge"><title>Node6&#45;&gt;Node5</title>
<path fill="none" stroke="#404040" d="M163,-1538.5C163,-1492.92 163,-1401.55 163,-1348.88"/>
<polygon fill="none" stroke="#404040" points="163,-1348.69 159,-1342.69 163,-1336.69 167,-1342.69 163,-1348.69"/>
<text text-anchor="middle" x="191.5" y="-1512" font-family="Helvetica,sans-Serif" font-size="10.00"> +elements</text>
</g>
<!-- Node7 -->
<g id="node7" class="node"><title>Node7</title>
<g id="a_node7"><a xlink:href="classRa_1_1Engine_1_1System.html" target="_top" xlink:title="Systems are responsible of updating a specific subset of the components of each entity. ">
<polygon fill="white" stroke="black" points="271.5,-706.5 271.5,-840.5 428.5,-840.5 428.5,-706.5 271.5,-706.5"/>
<text text-anchor="middle" x="350" y="-828.5" font-family="Helvetica,sans-Serif" font-size="10.00">Ra::Engine::System</text>
<polyline fill="none" stroke="black" points="271.5,-821.5 428.5,-821.5 "/>
<text text-anchor="middle" x="350" y="-809.5" font-family="Helvetica,sans-Serif" font-size="10.00"> </text>
<polyline fill="none" stroke="black" points="271.5,-802.5 428.5,-802.5 "/>
<text text-anchor="start" x="279.5" y="-790.5" font-family="Helvetica,sans-Serif" font-size="10.00">+ System()</text>
<text text-anchor="start" x="279.5" y="-779.5" font-family="Helvetica,sans-Serif" font-size="10.00">+ ~System()</text>
<text text-anchor="start" x="279.5" y="-768.5" font-family="Helvetica,sans-Serif" font-size="10.00">+ handleAssetLoading()</text>
<text text-anchor="start" x="279.5" y="-757.5" font-family="Helvetica,sans-Serif" font-size="10.00">+ generateTasks()</text>
<text text-anchor="start" x="279.5" y="-746.5" font-family="Helvetica,sans-Serif" font-size="10.00">+ getEntityComponents()</text>
<text text-anchor="start" x="279.5" y="-735.5" font-family="Helvetica,sans-Serif" font-size="10.00"># registerComponent()</text>
<text text-anchor="start" x="279.5" y="-724.5" font-family="Helvetica,sans-Serif" font-size="10.00"># unregisterComponent()</text>
<text text-anchor="start" x="279.5" y="-713.5" font-family="Helvetica,sans-Serif" font-size="10.00"># unregisterAllComponents()</text>
</a>
</g>
</g>
<!-- Node7&#45;&gt;Node2 -->
<g id="edge6" class="edge"><title>Node7&#45;&gt;Node2</title>
<path fill="none" stroke="#404040" d="M369.907,-706.381C378.102,-679.161 387.866,-646.73 397.272,-615.49"/>
<polygon fill="none" stroke="#404040" points="397.396,-615.079 395.295,-608.18 400.855,-603.588 402.956,-610.487 397.396,-615.079"/>
<text text-anchor="middle" x="426" y="-625" font-family="Helvetica,sans-Serif" font-size="10.00"> #m_system</text>
</g>
<!-- Node8&#45;&gt;Node7 -->
<g id="edge7" class="edge"><title>Node8&#45;&gt;Node7</title>
<path fill="none" stroke="#404040" d="M349.172,-959.993C349.303,-930.549 349.489,-888.971 349.651,-852.64"/>
<polygon fill="none" stroke="#404040" points="349.651,-852.545 345.678,-846.527 349.705,-840.545 353.678,-846.563 349.651,-852.545"/>
<text text-anchor="middle" x="393.5" y="-917" font-family="Helvetica,sans-Serif" font-size="10.00"> #m_components</text>
</g>
<!-- Node9 -->
<g id="node9" class="node"><title>Node9</title>
<polygon fill="white" stroke="#bfbfbf" points="335.5,-1268.5 335.5,-1347.5 460.5,-1347.5 460.5,-1268.5 335.5,-1268.5"/>
<text text-anchor="start" x="343.5" y="-1335.5" font-family="Helvetica,sans-Serif" font-size="10.00">pair&lt; const Ra::Engine</text>
<text text-anchor="start" x="343.5" y="-1324.5" font-family="Helvetica,sans-Serif" font-size="10.00">::Entity *, Ra::Engine</text>
<text text-anchor="middle" x="398" y="-1313.5" font-family="Helvetica,sans-Serif" font-size="10.00">::Component * &gt;</text>
<polyline fill="none" stroke="#bfbfbf" points="335.5,-1306.5 460.5,-1306.5 "/>
<text text-anchor="middle" x="398" y="-1294.5" font-family="Helvetica,sans-Serif" font-size="10.00"> </text>
<polyline fill="none" stroke="#bfbfbf" points="335.5,-1287.5 460.5,-1287.5 "/>
<text text-anchor="middle" x="398" y="-1275.5" font-family="Helvetica,sans-Serif" font-size="10.00"> </text>
</g>
<!-- Node9&#45;&gt;Node8 -->
<g id="edge8" class="edge"><title>Node9&#45;&gt;Node8</title>
<path fill="none" stroke="#404040" d="M397.381,-1268.18C395.942,-1221.53 391.237,-1141.16 376,-1074 374.262,-1066.34 371.934,-1058.4 369.37,-1050.68"/>
<polygon fill="none" stroke="#404040" points="369.322,-1050.55 363.559,-1046.21 365.343,-1039.22 371.106,-1043.56 369.322,-1050.55"/>
<text text-anchor="middle" x="411.5" y="-1088" font-family="Helvetica,sans-Serif" font-size="10.00"> +elements</text>
</g>
<!-- Node10 -->
<g id="node10" class="node"><title>Node10</title>
<g id="a_node10"><a xlink:href="classRa_1_1Engine_1_1Entity.html" target="_top" xlink:title="An entity is an scene element. It ties together components with a transform. ">
<polygon fill="white" stroke="black" points="448,-651.5 448,-895.5 588,-895.5 588,-651.5 448,-651.5"/>
<text text-anchor="middle" x="518" y="-883.5" font-family="Helvetica,sans-Serif" font-size="10.00">Ra::Engine::Entity</text>
<polyline fill="none" stroke="black" points="448,-876.5 588,-876.5 "/>
<text text-anchor="middle" x="518" y="-864.5" font-family="Helvetica,sans-Serif" font-size="10.00"> </text>
<polyline fill="none" stroke="black" points="448,-857.5 588,-857.5 "/>
<text text-anchor="start" x="456" y="-845.5" font-family="Helvetica,sans-Serif" font-size="10.00">+ Entity()</text>
<text text-anchor="start" x="456" y="-834.5" font-family="Helvetica,sans-Serif" font-size="10.00">+ Entity()</text>
<text text-anchor="start" x="456" y="-823.5" font-family="Helvetica,sans-Serif" font-size="10.00">+ operator=()</text>
<text text-anchor="start" x="456" y="-812.5" font-family="Helvetica,sans-Serif" font-size="10.00">+ ~Entity()</text>
<text text-anchor="start" x="456" y="-801.5" font-family="Helvetica,sans-Serif" font-size="10.00">+ getName()</text>
<text text-anchor="start" x="456" y="-790.5" font-family="Helvetica,sans-Serif" font-size="10.00">+ rename()</text>
<text text-anchor="start" x="456" y="-779.5" font-family="Helvetica,sans-Serif" font-size="10.00">+ setTransform()</text>
<text text-anchor="start" x="456" y="-768.5" font-family="Helvetica,sans-Serif" font-size="10.00">+ setTransform()</text>
<text text-anchor="start" x="456" y="-757.5" font-family="Helvetica,sans-Serif" font-size="10.00">+ getTransform()</text>
<text text-anchor="start" x="456" y="-746.5" font-family="Helvetica,sans-Serif" font-size="10.00">+ getTransformAsMatrix()</text>
<text text-anchor="start" x="456" y="-735.5" font-family="Helvetica,sans-Serif" font-size="10.00">+ swapTransformBuffers()</text>
<text text-anchor="start" x="456" y="-724.5" font-family="Helvetica,sans-Serif" font-size="10.00">+ addComponent()</text>
<text text-anchor="start" x="456" y="-713.5" font-family="Helvetica,sans-Serif" font-size="10.00">+ removeComponent()</text>
<text text-anchor="start" x="456" y="-702.5" font-family="Helvetica,sans-Serif" font-size="10.00">+ getComponent()</text>
<text text-anchor="start" x="456" y="-691.5" font-family="Helvetica,sans-Serif" font-size="10.00">+ getComponent()</text>
<text text-anchor="start" x="456" y="-680.5" font-family="Helvetica,sans-Serif" font-size="10.00">+ getComponents()</text>
<text text-anchor="start" x="456" y="-669.5" font-family="Helvetica,sans-Serif" font-size="10.00">+ getNumComponents()</text>
<text text-anchor="start" x="456" y="-658.5" font-family="Helvetica,sans-Serif" font-size="10.00">+ rayCastQuery()</text>
</a>
</g>
</g>
<!-- Node10&#45;&gt;Node2 -->
<g id="edge10" class="edge"><title>Node10&#45;&gt;Node2</title>
<path fill="none" stroke="#404040" d="M481.523,-651.344C477.937,-639.432 474.295,-627.339 470.707,-615.419"/>
<polygon fill="none" stroke="#404040" points="470.599,-615.062 465.039,-610.469 467.14,-603.571 472.7,-608.163 470.599,-615.062"/>
<text text-anchor="middle" x="503" y="-625" font-family="Helvetica,sans-Serif" font-size="10.00"> #m_entity</text>
</g>
<!-- Node11 -->
<g id="node11" class="node"><title>Node11</title>
<g id="a_node11"><a xlink:href="classRa_1_1Core_1_1Utils_1_1IndexedObject.html" target="_top" xlink:title="{Ra::Core::Utils::Indexed\lObject\n||+ IndexedObject()\l+ IndexedObject()\l+ ~IndexedObject()\l+ setIndex()\l+ getIndex()\l}">
<polygon fill="white" stroke="black" points="454,-943.5 454,-1055.5 582,-1055.5 582,-943.5 454,-943.5"/>
<text text-anchor="start" x="462" y="-1043.5" font-family="Helvetica,sans-Serif" font-size="10.00">Ra::Core::Utils::Indexed</text>
<text text-anchor="middle" x="518" y="-1032.5" font-family="Helvetica,sans-Serif" font-size="10.00">Object</text>
<polyline fill="none" stroke="black" points="454,-1025.5 582,-1025.5 "/>
<text text-anchor="middle" x="518" y="-1013.5" font-family="Helvetica,sans-Serif" font-size="10.00"> </text>
<polyline fill="none" stroke="black" points="454,-1006.5 582,-1006.5 "/>
<text text-anchor="start" x="462" y="-994.5" font-family="Helvetica,sans-Serif" font-size="10.00">+ IndexedObject()</text>
<text text-anchor="start" x="462" y="-983.5" font-family="Helvetica,sans-Serif" font-size="10.00">+ IndexedObject()</text>
<text text-anchor="start" x="462" y="-972.5" font-family="Helvetica,sans-Serif" font-size="10.00">+ ~IndexedObject()</text>
<text text-anchor="start" x="462" y="-961.5" font-family="Helvetica,sans-Serif" font-size="10.00">+ setIndex()</text>
<text text-anchor="start" x="462" y="-950.5" font-family="Helvetica,sans-Serif" font-size="10.00">+ getIndex()</text>
</a>
</g>
</g>
<!-- Node11&#45;&gt;Node10 -->
<g id="edge11" class="edge"><title>Node11&#45;&gt;Node10</title>
<path fill="none" stroke="midnightblue" d="M518,-933.213C518,-921.331 518,-908.595 518,-895.696"/>
<polygon fill="none" stroke="midnightblue" points="514.5,-933.417 518,-943.417 521.5,-933.417 514.5,-933.417"/>
</g>
<!-- Node12 -->
<g id="node12" class="node"><title>Node12</title>
<g id="a_node12"><a xlink:href="classRa_1_1Core_1_1Utils_1_1Index.html" target="_top" xlink:title="{Ra::Core::Utils::Index\n||+ Index()\l+ Index()\l+ isValid()\l+ isInvalid()\l+ setInvalid()\l+ getValue()\l+ setValue()\l+ operator int()\l+ operator=()\l+ operator++()\l+ operator&#45;&#45;()\l+ operator+()\l+ operator+()\l+ operator&#45;()\l+ operator&#45;()\l+ operator==()\l+ operator==()\l+ operator!=()\l+ operator!=()\l+ operator\&lt;()\l+ operator\&lt;()\l+ operator\&lt;=()\l+ operator\&lt;=()\l+ operator\&gt;()\l+ operator\&gt;()\l+ operator\&gt;=()\l+ operator\&gt;=()\l+ Invalid()\l+ Max()\l}">
<polygon fill="white" stroke="black" points="479,-1125.5 479,-1490.5 595,-1490.5 595,-1125.5 479,-1125.5"/>
<text text-anchor="middle" x="537" y="-1478.5" font-family="Helvetica,sans-Serif" font-size="10.00">Ra::Core::Utils::Index</text>
<polyline fill="none" stroke="black" points="479,-1471.5 595,-1471.5 "/>
<text text-anchor="middle" x="537" y="-1459.5" font-family="Helvetica,sans-Serif" font-size="10.00"> </text>
<polyline fill="none" stroke="black" points="479,-1452.5 595,-1452.5 "/>
<text text-anchor="start" x="487" y="-1440.5" font-family="Helvetica,sans-Serif" font-size="10.00">+ Index()</text>
<text text-anchor="start" x="487" y="-1429.5" font-family="Helvetica,sans-Serif" font-size="10.00">+ Index()</text>
<text text-anchor="start" x="487" y="-1418.5" font-family="Helvetica,sans-Serif" font-size="10.00">+ isValid()</text>
<text text-anchor="start" x="487" y="-1407.5" font-family="Helvetica,sans-Serif" font-size="10.00">+ isInvalid()</text>
<text text-anchor="start" x="487" y="-1396.5" font-family="Helvetica,sans-Serif" font-size="10.00">+ setInvalid()</text>
<text text-anchor="start" x="487" y="-1385.5" font-family="Helvetica,sans-Serif" font-size="10.00">+ getValue()</text>
<text text-anchor="start" x="487" y="-1374.5" font-family="Helvetica,sans-Serif" font-size="10.00">+ setValue()</text>
<text text-anchor="start" x="487" y="-1363.5" font-family="Helvetica,sans-Serif" font-size="10.00">+ operator int()</text>
<text text-anchor="start" x="487" y="-1352.5" font-family="Helvetica,sans-Serif" font-size="10.00">+ operator=()</text>
<text text-anchor="start" x="487" y="-1341.5" font-family="Helvetica,sans-Serif" font-size="10.00">+ operator++()</text>
<text text-anchor="start" x="487" y="-1330.5" font-family="Helvetica,sans-Serif" font-size="10.00">+ operator&#45;&#45;()</text>
<text text-anchor="start" x="487" y="-1319.5" font-family="Helvetica,sans-Serif" font-size="10.00">+ operator+()</text>
<text text-anchor="start" x="487" y="-1308.5" font-family="Helvetica,sans-Serif" font-size="10.00">+ operator+()</text>
<text text-anchor="start" x="487" y="-1297.5" font-family="Helvetica,sans-Serif" font-size="10.00">+ operator&#45;()</text>
<text text-anchor="start" x="487" y="-1286.5" font-family="Helvetica,sans-Serif" font-size="10.00">+ operator&#45;()</text>
<text text-anchor="start" x="487" y="-1275.5" font-family="Helvetica,sans-Serif" font-size="10.00">+ operator==()</text>
<text text-anchor="start" x="487" y="-1264.5" font-family="Helvetica,sans-Serif" font-size="10.00">+ operator==()</text>
<text text-anchor="start" x="487" y="-1253.5" font-family="Helvetica,sans-Serif" font-size="10.00">+ operator!=()</text>
<text text-anchor="start" x="487" y="-1242.5" font-family="Helvetica,sans-Serif" font-size="10.00">+ operator!=()</text>
<text text-anchor="start" x="487" y="-1231.5" font-family="Helvetica,sans-Serif" font-size="10.00">+ operator&lt;()</text>
<text text-anchor="start" x="487" y="-1220.5" font-family="Helvetica,sans-Serif" font-size="10.00">+ operator&lt;()</text>
<text text-anchor="start" x="487" y="-1209.5" font-family="Helvetica,sans-Serif" font-size="10.00">+ operator&lt;=()</text>
<text text-anchor="start" x="487" y="-1198.5" font-family="Helvetica,sans-Serif" font-size="10.00">+ operator&lt;=()</text>
<text text-anchor="start" x="487" y="-1187.5" font-family="Helvetica,sans-Serif" font-size="10.00">+ operator&gt;()</text>
<text text-anchor="start" x="487" y="-1176.5" font-family="Helvetica,sans-Serif" font-size="10.00">+ operator&gt;()</text>
<text text-anchor="start" x="487" y="-1165.5" font-family="Helvetica,sans-Serif" font-size="10.00">+ operator&gt;=()</text>
<text text-anchor="start" x="487" y="-1154.5" font-family="Helvetica,sans-Serif" font-size="10.00">+ operator&gt;=()</text>
<text text-anchor="start" x="487" y="-1143.5" font-family="Helvetica,sans-Serif" font-size="10.00">+ Invalid()</text>
<text text-anchor="start" x="487" y="-1132.5" font-family="Helvetica,sans-Serif" font-size="10.00">+ Max()</text>
</a>
</g>
</g>
<!-- Node12&#45;&gt;Node11 -->
<g id="edge12" class="edge"><title>Node12&#45;&gt;Node11</title>
<path fill="none" stroke="#404040" d="M525.728,-1125.17C524.468,-1104.84 523.251,-1085.21 522.17,-1067.78"/>
<polygon fill="none" stroke="#404040" points="522.17,-1067.76 517.806,-1062.02 521.427,-1055.78 525.791,-1061.52 522.17,-1067.76"/>
<text text-anchor="middle" x="545" y="-1088" font-family="Helvetica,sans-Serif" font-size="10.00"> #m_idx</text>
</g>
<!-- Node13 -->
<g id="node13" class="node"><title>Node13</title>
<polygon fill="white" stroke="#bfbfbf" points="522.5,-1538.5 522.5,-1595.5 551.5,-1595.5 551.5,-1538.5 522.5,-1538.5"/>
<text text-anchor="middle" x="537" y="-1583.5" font-family="Helvetica,sans-Serif" font-size="10.00">int</text>
<polyline fill="none" stroke="#bfbfbf" points="522.5,-1576.5 551.5,-1576.5 "/>
<text text-anchor="middle" x="537" y="-1564.5" font-family="Helvetica,sans-Serif" font-size="10.00"> </text>
<polyline fill="none" stroke="#bfbfbf" points="522.5,-1557.5 551.5,-1557.5 "/>
<text text-anchor="middle" x="537" y="-1545.5" font-family="Helvetica,sans-Serif" font-size="10.00"> </text>
</g>
<!-- Node13&#45;&gt;Node12 -->
<g id="edge13" class="edge"><title>Node13&#45;&gt;Node12</title>
<path fill="none" stroke="#404040" d="M537,-1538.5C537,-1528.53 537,-1516.38 537,-1502.92"/>
<polygon fill="none" stroke="#404040" points="537,-1502.77 533,-1496.77 537,-1490.77 541,-1496.77 537,-1502.77"/>
<text text-anchor="middle" x="557" y="-1512" font-family="Helvetica,sans-Serif" font-size="10.00"> #m_idx</text>
</g>
<!-- Node14 -->
<g id="node14" class="node"><title>Node14</title>
<g id="a_node14"><a xlink:title="STL class. ">
<polygon fill="white" stroke="#bfbfbf" points="613.5,-745 613.5,-802 678.5,-802 678.5,-745 613.5,-745"/>
<text text-anchor="middle" x="646" y="-790" font-family="Helvetica,sans-Serif" font-size="10.00">std::string</text>
<polyline fill="none" stroke="#bfbfbf" points="613.5,-783 678.5,-783 "/>
<text text-anchor="middle" x="646" y="-771" font-family="Helvetica,sans-Serif" font-size="10.00"> </text>
<polyline fill="none" stroke="#bfbfbf" points="613.5,-764 678.5,-764 "/>
<text text-anchor="middle" x="646" y="-752" font-family="Helvetica,sans-Serif" font-size="10.00"> </text>
</a>
</g>
</g>
<!-- Node14&#45;&gt;Node2 -->
<g id="edge14" class="edge"><title>Node14&#45;&gt;Node2</title>
<path fill="none" stroke="#404040" d="M638.487,-744.835C630.686,-719.106 616.827,-680.425 597,-651 576.651,-620.801 549.715,-591.855 523.612,-567.201"/>
<polygon fill="none" stroke="#404040" points="523.591,-567.181 516.473,-566.025 514.803,-559.009 521.921,-560.166 523.591,-567.181"/>
<text text-anchor="middle" x="610.5" y="-625" font-family="Helvetica,sans-Serif" font-size="10.00"> #m_name</text>
</g>
<!-- Node15 -->
<g id="node15" class="node"><title>Node15</title>
<g id="a_node15"><a xlink:title="STL class. ">
<polygon fill="white" stroke="#bfbfbf" points="600.5,-965.5 600.5,-1033.5 703.5,-1033.5 703.5,-965.5 600.5,-965.5"/>
<text text-anchor="start" x="608.5" y="-1021.5" font-family="Helvetica,sans-Serif" font-size="10.00">std::basic_string&lt;</text>
<text text-anchor="middle" x="652" y="-1010.5" font-family="Helvetica,sans-Serif" font-size="10.00"> char &gt;</text>
<polyline fill="none" stroke="#bfbfbf" points="600.5,-1003.5 703.5,-1003.5 "/>
<text text-anchor="middle" x="652" y="-991.5" font-family="Helvetica,sans-Serif" font-size="10.00"> </text>
<polyline fill="none" stroke="#bfbfbf" points="600.5,-984.5 703.5,-984.5 "/>
<text text-anchor="middle" x="652" y="-972.5" font-family="Helvetica,sans-Serif" font-size="10.00"> </text>
</a>
</g>
</g>
<!-- Node15&#45;&gt;Node14 -->
<g id="edge15" class="edge"><title>Node15&#45;&gt;Node14</title>
<path fill="none" stroke="midnightblue" d="M650.844,-955.346C649.632,-910.093 647.764,-840.343 646.738,-802.037"/>
<polygon fill="none" stroke="midnightblue" points="647.348,-955.545 651.115,-965.448 654.346,-955.358 647.348,-955.545"/>
</g>
</g>
</svg>
