<?xml version="1.0" encoding="UTF-8" standalone="no"?>
<!DOCTYPE svg PUBLIC "-//W3C//DTD SVG 1.1//EN"
 "http://www.w3.org/Graphics/SVG/1.1/DTD/svg11.dtd">
<!-- Generated by graphviz version 2.38.0 (20140413.2041)
 -->
<!-- Title: Ra::Core::Animation::KeyPose Pages: 1 -->
<svg width="826pt" height="1384pt"
 viewBox="0.00 0.00 825.50 1384.00" xmlns="http://www.w3.org/2000/svg" xmlns:xlink="http://www.w3.org/1999/xlink">
<g id="graph0" class="graph" transform="scale(1 1) rotate(0) translate(4 1380)">
<title>Ra::Core::Animation::KeyPose</title>
<polygon fill="white" stroke="none" points="-4,4 -4,-1380 821.5,-1380 821.5,4 -4,4"/>
<!-- Node1 -->
<g id="node1" class="node"><title>Node1</title>
<polygon fill="#bfbfbf" stroke="black" points="166,-0.5 166,-123.5 278,-123.5 278,-0.5 166,-0.5"/>
<text text-anchor="start" x="174" y="-111.5" font-family="Helvetica,sans-Serif" font-size="10.00">Ra::Core::Animation</text>
<text text-anchor="middle" x="222" y="-100.5" font-family="Helvetica,sans-Serif" font-size="10.00">::KeyPose</text>
<polyline fill="none" stroke="black" points="166,-93.5 278,-93.5 "/>
<text text-anchor="middle" x="222" y="-81.5" font-family="Helvetica,sans-Serif" font-size="10.00"> </text>
<polyline fill="none" stroke="black" points="166,-74.5 278,-74.5 "/>
<text text-anchor="start" x="174" y="-62.5" font-family="Helvetica,sans-Serif" font-size="10.00">+ KeyPose()</text>
<text text-anchor="start" x="174" y="-51.5" font-family="Helvetica,sans-Serif" font-size="10.00">+ KeyPose()</text>
<text text-anchor="start" x="174" y="-40.5" font-family="Helvetica,sans-Serif" font-size="10.00">+ ~KeyPose()</text>
<text text-anchor="start" x="174" y="-29.5" font-family="Helvetica,sans-Serif" font-size="10.00"># poseSize()</text>
<text text-anchor="start" x="174" y="-18.5" font-family="Helvetica,sans-Serif" font-size="10.00"># defaultFrame()</text>
<text text-anchor="start" x="174" y="-7.5" font-family="Helvetica,sans-Serif" font-size="10.00"># interpolate()</text>
</g>
<!-- Node2 -->
<g id="node2" class="node"><title>Node2</title>
<g id="a_node2"><a xlink:href="classRa_1_1Core_1_1Animation_1_1KeyFrame.html" target="_top" xlink:title="{Ra::Core::Animation\l::KeyFrame\&lt; Pose \&gt;\n||+ KeyFrame()\l+ KeyFrame()\l+ ~KeyFrame()\l+ getAnimationTime()\l+ setAnimationTime()\l+ getKeyFrame()\l+ getKeyFrame()\l+ at()\l+ setKeyFrame()\l+ setKeyFrame()\l+ insertKeyFrame()\l+ size()\l+ clear()\l+ empty()\l+ timeSchedule()\l+ reset()\l+ operator=()\l+ operator==()\l+ operator!=()\l# defaultFrame()\l# findRange()\l# interpolate()\l}">
<polygon fill="white" stroke="black" points="160.5,-161.5 160.5,-460.5 283.5,-460.5 283.5,-161.5 160.5,-161.5"/>
<text text-anchor="start" x="168.5" y="-448.5" font-family="Helvetica,sans-Serif" font-size="10.00">Ra::Core::Animation</text>
<text text-anchor="middle" x="222" y="-437.5" font-family="Helvetica,sans-Serif" font-size="10.00">::KeyFrame&lt; Pose &gt;</text>
<polyline fill="none" stroke="black" points="160.5,-430.5 283.5,-430.5 "/>
<text text-anchor="middle" x="222" y="-418.5" font-family="Helvetica,sans-Serif" font-size="10.00"> </text>
<polyline fill="none" stroke="black" points="160.5,-411.5 283.5,-411.5 "/>
<text text-anchor="start" x="168.5" y="-399.5" font-family="Helvetica,sans-Serif" font-size="10.00">+ KeyFrame()</text>
<text text-anchor="start" x="168.5" y="-388.5" font-family="Helvetica,sans-Serif" font-size="10.00">+ KeyFrame()</text>
<text text-anchor="start" x="168.5" y="-377.5" font-family="Helvetica,sans-Serif" font-size="10.00">+ ~KeyFrame()</text>
<text text-anchor="start" x="168.5" y="-366.5" font-family="Helvetica,sans-Serif" font-size="10.00">+ getAnimationTime()</text>
<text text-anchor="start" x="168.5" y="-355.5" font-family="Helvetica,sans-Serif" font-size="10.00">+ setAnimationTime()</text>
<text text-anchor="start" x="168.5" y="-344.5" font-family="Helvetica,sans-Serif" font-size="10.00">+ getKeyFrame()</text>
<text text-anchor="start" x="168.5" y="-333.5" font-family="Helvetica,sans-Serif" font-size="10.00">+ getKeyFrame()</text>
<text text-anchor="start" x="168.5" y="-322.5" font-family="Helvetica,sans-Serif" font-size="10.00">+ at()</text>
<text text-anchor="start" x="168.5" y="-311.5" font-family="Helvetica,sans-Serif" font-size="10.00">+ setKeyFrame()</text>
<text text-anchor="start" x="168.5" y="-300.5" font-family="Helvetica,sans-Serif" font-size="10.00">+ setKeyFrame()</text>
<text text-anchor="start" x="168.5" y="-289.5" font-family="Helvetica,sans-Serif" font-size="10.00">+ insertKeyFrame()</text>
<text text-anchor="start" x="168.5" y="-278.5" font-family="Helvetica,sans-Serif" font-size="10.00">+ size()</text>
<text text-anchor="start" x="168.5" y="-267.5" font-family="Helvetica,sans-Serif" font-size="10.00">+ clear()</text>
<text text-anchor="start" x="168.5" y="-256.5" font-family="Helvetica,sans-Serif" font-size="10.00">+ empty()</text>
<text text-anchor="start" x="168.5" y="-245.5" font-family="Helvetica,sans-Serif" font-size="10.00">+ timeSchedule()</text>
<text text-anchor="start" x="168.5" y="-234.5" font-family="Helvetica,sans-Serif" font-size="10.00">+ reset()</text>
<text text-anchor="start" x="168.5" y="-223.5" font-family="Helvetica,sans-Serif" font-size="10.00">+ operator=()</text>
<text text-anchor="start" x="168.5" y="-212.5" font-family="Helvetica,sans-Serif" font-size="10.00">+ operator==()</text>
<text text-anchor="start" x="168.5" y="-201.5" font-family="Helvetica,sans-Serif" font-size="10.00">+ operator!=()</text>
<text text-anchor="start" x="168.5" y="-190.5" font-family="Helvetica,sans-Serif" font-size="10.00"># defaultFrame()</text>
<text text-anchor="start" x="168.5" y="-179.5" font-family="Helvetica,sans-Serif" font-size="10.00"># findRange()</text>
<text text-anchor="start" x="168.5" y="-168.5" font-family="Helvetica,sans-Serif" font-size="10.00"># interpolate()</text>
</a>
</g>
</g>
<!-- Node2&#45;&gt;Node1 -->
<g id="edge1" class="edge"><title>Node2&#45;&gt;Node1</title>
<path fill="none" stroke="midnightblue" d="M222,-151.227C222,-141.629 222,-132.342 222,-123.624"/>
<polygon fill="none" stroke="midnightblue" points="218.5,-151.331 222,-161.331 225.5,-151.331 218.5,-151.331"/>
</g>
<!-- Node3 -->
<g id="node3" class="node"><title>Node3</title>
<g id="a_node3"><a xlink:href="classRa_1_1Core_1_1Animation_1_1AnimationTime.html" target="_top" xlink:title="{Ra::Core::Animation\l::AnimationTime\n||+ AnimationTime()\l+ AnimationTime()\l+ ~AnimationTime()\l+ getStart()\l+ setStart()\l+ getEnd()\l+ setEnd()\l+ duration()\l+ merge()\l+ contain()\l+ intersect()\l+ isValid()\l+ operator==()\l+ operator!=()\l+ operator\&lt;()\l+ operator==()\l+ operator\&lt;()\l+ operator\&gt;()\l}">
<polygon fill="white" stroke="black" points="0,-855.5 0,-1110.5 116,-1110.5 116,-855.5 0,-855.5"/>
<text text-anchor="start" x="8" y="-1098.5" font-family="Helvetica,sans-Serif" font-size="10.00">Ra::Core::Animation</text>
<text text-anchor="middle" x="58" y="-1087.5" font-family="Helvetica,sans-Serif" font-size="10.00">::AnimationTime</text>
<polyline fill="none" stroke="black" points="0,-1080.5 116,-1080.5 "/>
<text text-anchor="middle" x="58" y="-1068.5" font-family="Helvetica,sans-Serif" font-size="10.00"> </text>
<polyline fill="none" stroke="black" points="0,-1061.5 116,-1061.5 "/>
<text text-anchor="start" x="8" y="-1049.5" font-family="Helvetica,sans-Serif" font-size="10.00">+ AnimationTime()</text>
<text text-anchor="start" x="8" y="-1038.5" font-family="Helvetica,sans-Serif" font-size="10.00">+ AnimationTime()</text>
<text text-anchor="start" x="8" y="-1027.5" font-family="Helvetica,sans-Serif" font-size="10.00">+ ~AnimationTime()</text>
<text text-anchor="start" x="8" y="-1016.5" font-family="Helvetica,sans-Serif" font-size="10.00">+ getStart()</text>
<text text-anchor="start" x="8" y="-1005.5" font-family="Helvetica,sans-Serif" font-size="10.00">+ setStart()</text>
<text text-anchor="start" x="8" y="-994.5" font-family="Helvetica,sans-Serif" font-size="10.00">+ getEnd()</text>
<text text-anchor="start" x="8" y="-983.5" font-family="Helvetica,sans-Serif" font-size="10.00">+ setEnd()</text>
<text text-anchor="start" x="8" y="-972.5" font-family="Helvetica,sans-Serif" font-size="10.00">+ duration()</text>
<text text-anchor="start" x="8" y="-961.5" font-family="Helvetica,sans-Serif" font-size="10.00">+ merge()</text>
<text text-anchor="start" x="8" y="-950.5" font-family="Helvetica,sans-Serif" font-size="10.00">+ contain()</text>
<text text-anchor="start" x="8" y="-939.5" font-family="Helvetica,sans-Serif" font-size="10.00">+ intersect()</text>
<text text-anchor="start" x="8" y="-928.5" font-family="Helvetica,sans-Serif" font-size="10.00">+ isValid()</text>
<text text-anchor="start" x="8" y="-917.5" font-family="Helvetica,sans-Serif" font-size="10.00">+ operator==()</text>
<text text-anchor="start" x="8" y="-906.5" font-family="Helvetica,sans-Serif" font-size="10.00">+ operator!=()</text>
<text text-anchor="start" x="8" y="-895.5" font-family="Helvetica,sans-Serif" font-size="10.00">+ operator&lt;()</text>
<text text-anchor="start" x="8" y="-884.5" font-family="Helvetica,sans-Serif" font-size="10.00">+ operator==()</text>
<text text-anchor="start" x="8" y="-873.5" font-family="Helvetica,sans-Serif" font-size="10.00">+ operator&lt;()</text>
<text text-anchor="start" x="8" y="-862.5" font-family="Helvetica,sans-Serif" font-size="10.00">+ operator&gt;()</text>
</a>
</g>
</g>
<!-- Node3&#45;&gt;Node2 -->
<g id="edge2" class="edge"><title>Node3&#45;&gt;Node2</title>
<path fill="none" stroke="#404040" d="M54.3259,-855.318C55.146,-757.972 64.2913,-621.422 102,-508 113.988,-471.943 133.663,-435.589 153.648,-404.148"/>
<polygon fill="none" stroke="#404040" points="153.903,-403.753 153.807,-396.543 160.426,-393.681 160.522,-400.892 153.903,-403.753"/>
<text text-anchor="middle" x="126.5" y="-655.5" font-family="Helvetica,sans-Serif" font-size="10.00"> #m_time</text>
</g>
<!-- Node12 -->
<g id="node12" class="node"><title>Node12</title>
<g id="a_node12"><a xlink:href="classRa_1_1Core_1_1Animation_1_1KeyFrame.html" target="_top" xlink:title="{Ra::Core::Animation\l::KeyFrame\&lt; FRAME \&gt;\n||+ KeyFrame()\l+ KeyFrame()\l+ ~KeyFrame()\l+ getAnimationTime()\l+ setAnimationTime()\l+ getKeyFrame()\l+ getKeyFrame()\l+ at()\l+ setKeyFrame()\l+ setKeyFrame()\l+ insertKeyFrame()\l+ size()\l+ clear()\l+ empty()\l+ timeSchedule()\l+ reset()\l+ operator=()\l+ operator==()\l+ operator!=()\l# defaultFrame()\l# findRange()\l# interpolate()\l}">
<polygon fill="white" stroke="black" points="160.5,-508.5 160.5,-807.5 283.5,-807.5 283.5,-508.5 160.5,-508.5"/>
<text text-anchor="start" x="168.5" y="-795.5" font-family="Helvetica,sans-Serif" font-size="10.00">Ra::Core::Animation</text>
<text text-anchor="middle" x="222" y="-784.5" font-family="Helvetica,sans-Serif" font-size="10.00">::KeyFrame&lt; FRAME &gt;</text>
<polyline fill="none" stroke="black" points="160.5,-777.5 283.5,-777.5 "/>
<text text-anchor="middle" x="222" y="-765.5" font-family="Helvetica,sans-Serif" font-size="10.00"> </text>
<polyline fill="none" stroke="black" points="160.5,-758.5 283.5,-758.5 "/>
<text text-anchor="start" x="168.5" y="-746.5" font-family="Helvetica,sans-Serif" font-size="10.00">+ KeyFrame()</text>
<text text-anchor="start" x="168.5" y="-735.5" font-family="Helvetica,sans-Serif" font-size="10.00">+ KeyFrame()</text>
<text text-anchor="start" x="168.5" y="-724.5" font-family="Helvetica,sans-Serif" font-size="10.00">+ ~KeyFrame()</text>
<text text-anchor="start" x="168.5" y="-713.5" font-family="Helvetica,sans-Serif" font-size="10.00">+ getAnimationTime()</text>
<text text-anchor="start" x="168.5" y="-702.5" font-family="Helvetica,sans-Serif" font-size="10.00">+ setAnimationTime()</text>
<text text-anchor="start" x="168.5" y="-691.5" font-family="Helvetica,sans-Serif" font-size="10.00">+ getKeyFrame()</text>
<text text-anchor="start" x="168.5" y="-680.5" font-family="Helvetica,sans-Serif" font-size="10.00">+ getKeyFrame()</text>
<text text-anchor="start" x="168.5" y="-669.5" font-family="Helvetica,sans-Serif" font-size="10.00">+ at()</text>
<text text-anchor="start" x="168.5" y="-658.5" font-family="Helvetica,sans-Serif" font-size="10.00">+ setKeyFrame()</text>
<text text-anchor="start" x="168.5" y="-647.5" font-family="Helvetica,sans-Serif" font-size="10.00">+ setKeyFrame()</text>
<text text-anchor="start" x="168.5" y="-636.5" font-family="Helvetica,sans-Serif" font-size="10.00">+ insertKeyFrame()</text>
<text text-anchor="start" x="168.5" y="-625.5" font-family="Helvetica,sans-Serif" font-size="10.00">+ size()</text>
<text text-anchor="start" x="168.5" y="-614.5" font-family="Helvetica,sans-Serif" font-size="10.00">+ clear()</text>
<text text-anchor="start" x="168.5" y="-603.5" font-family="Helvetica,sans-Serif" font-size="10.00">+ empty()</text>
<text text-anchor="start" x="168.5" y="-592.5" font-family="Helvetica,sans-Serif" font-size="10.00">+ timeSchedule()</text>
<text text-anchor="start" x="168.5" y="-581.5" font-family="Helvetica,sans-Serif" font-size="10.00">+ reset()</text>
<text text-anchor="start" x="168.5" y="-570.5" font-family="Helvetica,sans-Serif" font-size="10.00">+ operator=()</text>
<text text-anchor="start" x="168.5" y="-559.5" font-family="Helvetica,sans-Serif" font-size="10.00">+ operator==()</text>
<text text-anchor="start" x="168.5" y="-548.5" font-family="Helvetica,sans-Serif" font-size="10.00">+ operator!=()</text>
<text text-anchor="start" x="168.5" y="-537.5" font-family="Helvetica,sans-Serif" font-size="10.00"># defaultFrame()</text>
<text text-anchor="start" x="168.5" y="-526.5" font-family="Helvetica,sans-Serif" font-size="10.00"># findRange()</text>
<text text-anchor="start" x="168.5" y="-515.5" font-family="Helvetica,sans-Serif" font-size="10.00"># interpolate()</text>
</a>
</g>
</g>
<!-- Node3&#45;&gt;Node12 -->
<g id="edge13" class="edge"><title>Node3&#45;&gt;Node12</title>
<path fill="none" stroke="#404040" d="M116.051,-867.668C128.629,-842.896 142.03,-816.501 154.923,-791.109"/>
<polygon fill="none" stroke="#404040" points="154.98,-790.996 154.13,-783.835 160.413,-780.296 161.263,-787.457 154.98,-790.996"/>
<text text-anchor="middle" x="160.5" y="-829" font-family="Helvetica,sans-Serif" font-size="10.00"> #m_time</text>
</g>
<!-- Node4 -->
<g id="node4" class="node"><title>Node4</title>
<polygon fill="white" stroke="#bfbfbf" points="39,-1208 39,-1265 77,-1265 77,-1208 39,-1208"/>
<text text-anchor="middle" x="58" y="-1253" font-family="Helvetica,sans-Serif" font-size="10.00">float</text>
<polyline fill="none" stroke="#bfbfbf" points="39,-1246 77,-1246 "/>
<text text-anchor="middle" x="58" y="-1234" font-family="Helvetica,sans-Serif" font-size="10.00"> </text>
<polyline fill="none" stroke="#bfbfbf" points="39,-1227 77,-1227 "/>
<text text-anchor="middle" x="58" y="-1215" font-family="Helvetica,sans-Serif" font-size="10.00"> </text>
</g>
<!-- Node4&#45;&gt;Node3 -->
<g id="edge3" class="edge"><title>Node4&#45;&gt;Node3</title>
<path fill="none" stroke="#404040" d="M58,-1207.62C58,-1186.36 58,-1155.33 58,-1123.11"/>
<polygon fill="none" stroke="#404040" points="58.0001,-1122.72 54,-1116.72 58,-1110.72 62,-1116.72 58.0001,-1122.72"/>
<text text-anchor="middle" x="81" y="-1159.5" font-family="Helvetica,sans-Serif" font-size="10.00"> #m_end</text>
<text text-anchor="middle" x="81" y="-1148.5" font-family="Helvetica,sans-Serif" font-size="10.00">#m_start</text>
</g>
<!-- Node5 -->
<g id="node5" class="node"><title>Node5</title>
<polygon fill="white" stroke="#bfbfbf" points="401.5,-607.5 401.5,-708.5 582.5,-708.5 582.5,-607.5 401.5,-607.5"/>
<text text-anchor="start" x="409.5" y="-696.5" font-family="Helvetica,sans-Serif" font-size="10.00">std::map&lt; Time, Pose,</text>
<text text-anchor="start" x="409.5" y="-685.5" font-family="Helvetica,sans-Serif" font-size="10.00"> std::less&lt; Time &gt;, Ra</text>
<text text-anchor="start" x="409.5" y="-674.5" font-family="Helvetica,sans-Serif" font-size="10.00">::Core::Ra::Core::AlignedAllocator</text>
<text text-anchor="start" x="409.5" y="-663.5" font-family="Helvetica,sans-Serif" font-size="10.00">&lt; std::pair&lt; const Time, Pose</text>
<text text-anchor="middle" x="492" y="-652.5" font-family="Helvetica,sans-Serif" font-size="10.00"> &gt;, EIGEN_MAX_ALIGN_BYTES &gt; &gt;</text>
<polyline fill="none" stroke="#bfbfbf" points="401.5,-645.5 582.5,-645.5 "/>
<text text-anchor="middle" x="492" y="-633.5" font-family="Helvetica,sans-Serif" font-size="10.00"> </text>
<polyline fill="none" stroke="#bfbfbf" points="401.5,-626.5 582.5,-626.5 "/>
<text text-anchor="middle" x="492" y="-614.5" font-family="Helvetica,sans-Serif" font-size="10.00"> </text>
</g>
<!-- Node5&#45;&gt;Node2 -->
<g id="edge4" class="edge"><title>Node5&#45;&gt;Node2</title>
<path fill="none" stroke="#404040" d="M453.028,-607.202C410.783,-553.223 342.527,-466.007 291.137,-400.342"/>
<polygon fill="none" stroke="#404040" points="291.078,-400.267 284.23,-398.007 283.683,-390.817 290.531,-393.076 291.078,-400.267"/>
<text text-anchor="middle" x="393" y="-482" font-family="Helvetica,sans-Serif" font-size="10.00"> #m_keyframe</text>
</g>
<!-- Node6 -->
<g id="node6" class="node"><title>Node6</title>
<g id="a_node6"><a xlink:href="structRa_1_1Core_1_1AlignedStdVector.html" target="_top" xlink:title="Shortcut for the ubiquitous aligned std::vector Uses Eigen&#39;s aligned allocator, as stated in http://e...">
<polygon fill="white" stroke="black" points="644.5,-954.5 644.5,-1011.5 817.5,-1011.5 817.5,-954.5 644.5,-954.5"/>
<text text-anchor="middle" x="731" y="-999.5" font-family="Helvetica,sans-Serif" font-size="10.00">Ra::Core::AlignedStdVector&lt; T &gt;</text>
<polyline fill="none" stroke="black" points="644.5,-992.5 817.5,-992.5 "/>
<text text-anchor="middle" x="731" y="-980.5" font-family="Helvetica,sans-Serif" font-size="10.00"> </text>
<polyline fill="none" stroke="black" points="644.5,-973.5 817.5,-973.5 "/>
<text text-anchor="middle" x="731" y="-961.5" font-family="Helvetica,sans-Serif" font-size="10.00"> </text>
</a>
</g>
</g>
<!-- Node6&#45;&gt;Node5 -->
<g id="edge5" class="edge"><title>Node6&#45;&gt;Node5</title>
<path fill="none" stroke="#404040" d="M710.623,-954.461C672.158,-902.478 588.062,-788.824 536.106,-718.608"/>
<polygon fill="none" stroke="#404040" points="535.821,-718.223 529.037,-715.779 528.683,-708.576 535.468,-711.02 535.821,-718.223"/>
<text text-anchor="middle" x="646.5" y="-829" font-family="Helvetica,sans-Serif" font-size="10.00"> +elements</text>
</g>
<!-- Node7 -->
<g id="node7" class="node"><title>Node7</title>
<g id="a_node7"><a xlink:title="STL class. ">
<polygon fill="white" stroke="#bfbfbf" points="538.5,-1202.5 538.5,-1270.5 681.5,-1270.5 681.5,-1202.5 538.5,-1202.5"/>
<text text-anchor="start" x="546.5" y="-1258.5" font-family="Helvetica,sans-Serif" font-size="10.00">std::vector&lt; T, Eigen</text>
<text text-anchor="middle" x="610" y="-1247.5" font-family="Helvetica,sans-Serif" font-size="10.00">::aligned_allocator&lt; T &gt; &gt;</text>
<polyline fill="none" stroke="#bfbfbf" points="538.5,-1240.5 681.5,-1240.5 "/>
<text text-anchor="middle" x="610" y="-1228.5" font-family="Helvetica,sans-Serif" font-size="10.00"> </text>
<polyline fill="none" stroke="#bfbfbf" points="538.5,-1221.5 681.5,-1221.5 "/>
<text text-anchor="middle" x="610" y="-1209.5" font-family="Helvetica,sans-Serif" font-size="10.00"> </text>
</a>
</g>
</g>
<!-- Node7&#45;&gt;Node6 -->
<g id="edge6" class="edge"><title>Node7&#45;&gt;Node6</title>
<path fill="none" stroke="midnightblue" d="M630.382,-1193.14C655.223,-1141.5 696.494,-1055.72 717.629,-1011.79"/>
<polygon fill="none" stroke="midnightblue" points="627.125,-1191.83 625.943,-1202.36 633.433,-1194.87 627.125,-1191.83"/>
</g>
<!-- Node8 -->
<g id="node8" class="node"><title>Node8</title>
<polygon fill="white" stroke="#bfbfbf" points="524.5,-1318.5 524.5,-1375.5 553.5,-1375.5 553.5,-1318.5 524.5,-1318.5"/>
<text text-anchor="middle" x="539" y="-1363.5" font-family="Helvetica,sans-Serif" font-size="10.00">T</text>
<polyline fill="none" stroke="#bfbfbf" points="524.5,-1356.5 553.5,-1356.5 "/>
<text text-anchor="middle" x="539" y="-1344.5" font-family="Helvetica,sans-Serif" font-size="10.00"> </text>
<polyline fill="none" stroke="#bfbfbf" points="524.5,-1337.5 553.5,-1337.5 "/>
<text text-anchor="middle" x="539" y="-1325.5" font-family="Helvetica,sans-Serif" font-size="10.00"> </text>
</g>
<!-- Node8&#45;&gt;Node7 -->
<g id="edge7" class="edge"><title>Node8&#45;&gt;Node7</title>
<path fill="none" stroke="#404040" d="M553.539,-1323.78C561.57,-1311.51 571.831,-1295.83 581.397,-1281.21"/>
<polygon fill="none" stroke="#404040" points="581.627,-1280.86 581.565,-1273.65 588.198,-1270.82 588.259,-1278.03 581.627,-1280.86"/>
<text text-anchor="middle" x="602.5" y="-1292" font-family="Helvetica,sans-Serif" font-size="10.00"> +elements</text>
</g>
<!-- Node10 -->
<g id="node10" class="node"><title>Node10</title>
<g id="a_node10"><a xlink:title="STL class. ">
<polygon fill="white" stroke="#bfbfbf" points="341.5,-1208 341.5,-1265 440.5,-1265 440.5,-1208 341.5,-1208"/>
<text text-anchor="middle" x="391" y="-1253" font-family="Helvetica,sans-Serif" font-size="10.00">std::map&lt; K, T &gt;</text>
<polyline fill="none" stroke="#bfbfbf" points="341.5,-1246 440.5,-1246 "/>
<text text-anchor="middle" x="391" y="-1234" font-family="Helvetica,sans-Serif" font-size="10.00"> </text>
<polyline fill="none" stroke="#bfbfbf" points="341.5,-1227 440.5,-1227 "/>
<text text-anchor="middle" x="391" y="-1215" font-family="Helvetica,sans-Serif" font-size="10.00"> </text>
</a>
</g>
</g>
<!-- Node8&#45;&gt;Node10 -->
<g id="edge11" class="edge"><title>Node8&#45;&gt;Node10</title>
<path fill="none" stroke="#404040" d="M524.268,-1335.2C504.43,-1320.66 468.192,-1294.09 438.506,-1272.33"/>
<polygon fill="none" stroke="#404040" points="438.402,-1272.25 431.198,-1271.93 428.724,-1265.16 435.928,-1265.48 438.402,-1272.25"/>
<text text-anchor="middle" x="502.5" y="-1292" font-family="Helvetica,sans-Serif" font-size="10.00"> +elements</text>
</g>
<!-- Node9 -->
<g id="node9" class="node"><title>Node9</title>
<polygon fill="white" stroke="#bfbfbf" points="473,-1208 473,-1265 513,-1265 513,-1208 473,-1208"/>
<text text-anchor="middle" x="493" y="-1253" font-family="Helvetica,sans-Serif" font-size="10.00">Time</text>
<polyline fill="none" stroke="#bfbfbf" points="473,-1246 513,-1246 "/>
<text text-anchor="middle" x="493" y="-1234" font-family="Helvetica,sans-Serif" font-size="10.00"> </text>
<polyline fill="none" stroke="#bfbfbf" points="473,-1227 513,-1227 "/>
<text text-anchor="middle" x="493" y="-1215" font-family="Helvetica,sans-Serif" font-size="10.00"> </text>
</g>
<!-- Node9&#45;&gt;Node5 -->
<g id="edge8" class="edge"><title>Node9&#45;&gt;Node5</title>
<path fill="none" stroke="#404040" d="M512.997,-1207.99C529.26,-1183.8 550.943,-1146.94 560,-1111 587.802,-1000.67 578.91,-967.195 560,-855 552.134,-808.329 534.426,-757.928 519.053,-719.924"/>
<polygon fill="none" stroke="#404040" points="518.938,-719.642 512.955,-715.616 514.371,-708.545 520.353,-712.572 518.938,-719.642"/>
<text text-anchor="middle" x="594" y="-980.5" font-family="Helvetica,sans-Serif" font-size="10.00"> +keys</text>
</g>
<!-- Node13 -->
<g id="node13" class="node"><title>Node13</title>
<polygon fill="white" stroke="#bfbfbf" points="134.5,-932.5 134.5,-1033.5 315.5,-1033.5 315.5,-932.5 134.5,-932.5"/>
<text text-anchor="start" x="142.5" y="-1021.5" font-family="Helvetica,sans-Serif" font-size="10.00">std::map&lt; Time, FRAME,</text>
<text text-anchor="start" x="142.5" y="-1010.5" font-family="Helvetica,sans-Serif" font-size="10.00"> std::less&lt; Time &gt;, Ra</text>
<text text-anchor="start" x="142.5" y="-999.5" font-family="Helvetica,sans-Serif" font-size="10.00">::Core::Ra::Core::AlignedAllocator</text>
<text text-anchor="start" x="142.5" y="-988.5" font-family="Helvetica,sans-Serif" font-size="10.00">&lt; std::pair&lt; const Time, FRAME</text>
<text text-anchor="middle" x="225" y="-977.5" font-family="Helvetica,sans-Serif" font-size="10.00"> &gt;, EIGEN_MAX_ALIGN_BYTES &gt; &gt;</text>
<polyline fill="none" stroke="#bfbfbf" points="134.5,-970.5 315.5,-970.5 "/>
<text text-anchor="middle" x="225" y="-958.5" font-family="Helvetica,sans-Serif" font-size="10.00"> </text>
<polyline fill="none" stroke="#bfbfbf" points="134.5,-951.5 315.5,-951.5 "/>
<text text-anchor="middle" x="225" y="-939.5" font-family="Helvetica,sans-Serif" font-size="10.00"> </text>
</g>
<!-- Node9&#45;&gt;Node13 -->
<g id="edge16" class="edge"><title>Node9&#45;&gt;Node13</title>
<path fill="none" stroke="#404040" d="M472.832,-1216.19C450.459,-1194.8 413.256,-1159.33 381,-1129 350.371,-1100.2 316.177,-1068.39 287.628,-1041.91"/>
<polygon fill="none" stroke="#404040" points="287.369,-1041.67 280.249,-1040.52 278.568,-1033.51 285.688,-1034.66 287.369,-1041.67"/>
<text text-anchor="middle" x="454" y="-1154" font-family="Helvetica,sans-Serif" font-size="10.00"> +keys</text>
</g>
<!-- Node10&#45;&gt;Node5 -->
<g id="edge9" class="edge"><title>Node10&#45;&gt;Node5</title>
<path fill="none" stroke="orange" d="M385.206,-1197.77C375.856,-1128.62 361.31,-977.433 391,-855 403.901,-801.802 433.904,-746.878 457.877,-708.757"/>
<polygon fill="orange" stroke="orange" points="381.751,-1198.33 386.599,-1207.75 388.684,-1197.36 381.751,-1198.33"/>
<text text-anchor="start" x="391" y="-1002.5" font-family="Helvetica,sans-Serif" font-size="10.00"> &lt; Time, Pose, std::</text>
<text text-anchor="start" x="391" y="-991.5" font-family="Helvetica,sans-Serif" font-size="10.00">less&lt; Time &gt;, Ra::Core</text>
<text text-anchor="start" x="391" y="-980.5" font-family="Helvetica,sans-Serif" font-size="10.00">::Ra::Core::AlignedAllocator</text>
<text text-anchor="start" x="391" y="-969.5" font-family="Helvetica,sans-Serif" font-size="10.00">&lt; std::pair&lt; const Time, Pose</text>
<text text-anchor="middle" x="473.5" y="-958.5" font-family="Helvetica,sans-Serif" font-size="10.00"> &gt;, EIGEN_MAX_ALIGN_BYTES &gt; &gt;</text>
</g>
<!-- Node10&#45;&gt;Node13 -->
<g id="edge17" class="edge"><title>Node10&#45;&gt;Node13</title>
<path fill="none" stroke="orange" d="M331.412,-1226.21C285.164,-1217.64 226.541,-1203.31 212,-1184 179.771,-1141.19 191.022,-1077.51 205.104,-1033.56"/>
<polygon fill="orange" stroke="orange" points="330.909,-1229.67 341.371,-1228 332.15,-1222.78 330.909,-1229.67"/>
<text text-anchor="start" x="212" y="-1176" font-family="Helvetica,sans-Serif" font-size="10.00"> &lt; Time, FRAME, std</text>
<text text-anchor="start" x="212" y="-1165" font-family="Helvetica,sans-Serif" font-size="10.00">::less&lt; Time &gt;, Ra::</text>
<text text-anchor="start" x="212" y="-1154" font-family="Helvetica,sans-Serif" font-size="10.00">Core::Ra::Core::AlignedAllocator</text>
<text text-anchor="start" x="212" y="-1143" font-family="Helvetica,sans-Serif" font-size="10.00">&lt; std::pair&lt; const Time, FRAME</text>
<text text-anchor="middle" x="294.5" y="-1132" font-family="Helvetica,sans-Serif" font-size="10.00"> &gt;, EIGEN_MAX_ALIGN_BYTES &gt; &gt;</text>
</g>
<!-- Node11 -->
<g id="node11" class="node"><title>Node11</title>
<polygon fill="white" stroke="#bfbfbf" points="376.5,-1318.5 376.5,-1375.5 405.5,-1375.5 405.5,-1318.5 376.5,-1318.5"/>
<text text-anchor="middle" x="391" y="-1363.5" font-family="Helvetica,sans-Serif" font-size="10.00">K</text>
<polyline fill="none" stroke="#bfbfbf" points="376.5,-1356.5 405.5,-1356.5 "/>
<text text-anchor="middle" x="391" y="-1344.5" font-family="Helvetica,sans-Serif" font-size="10.00"> </text>
<polyline fill="none" stroke="#bfbfbf" points="376.5,-1337.5 405.5,-1337.5 "/>
<text text-anchor="middle" x="391" y="-1325.5" font-family="Helvetica,sans-Serif" font-size="10.00"> </text>
</g>
<!-- Node11&#45;&gt;Node10 -->
<g id="edge10" class="edge"><title>Node11&#45;&gt;Node10</title>
<path fill="none" stroke="#404040" d="M391,-1318.34C391,-1305.84 391,-1290.84 391,-1277.18"/>
<polygon fill="none" stroke="#404040" points="391,-1277.11 387,-1271.11 391,-1265.11 395,-1271.11 391,-1277.11"/>
<text text-anchor="middle" x="408" y="-1292" font-family="Helvetica,sans-Serif" font-size="10.00"> +keys</text>
</g>
<!-- Node12&#45;&gt;Node2 -->
<g id="edge12" class="edge"><title>Node12&#45;&gt;Node2</title>
<path fill="none" stroke="orange" d="M222,-498.357C222,-485.756 222,-473.056 222,-460.528"/>
<polygon fill="orange" stroke="orange" points="218.5,-498.436 222,-508.436 225.5,-498.436 218.5,-498.436"/>
<text text-anchor="middle" x="246.5" y="-482" font-family="Helvetica,sans-Serif" font-size="10.00"> &lt; Pose &gt;</text>
</g>
<!-- Node13&#45;&gt;Node12 -->
<g id="edge14" class="edge"><title>Node13&#45;&gt;Node12</title>
<path fill="none" stroke="#404040" d="M224.538,-932.239C224.254,-901.718 223.874,-860.753 223.494,-819.844"/>
<polygon fill="none" stroke="#404040" points="223.493,-819.741 219.437,-813.778 223.382,-807.742 227.437,-813.704 223.493,-819.741"/>
<text text-anchor="middle" x="260" y="-829" font-family="Helvetica,sans-Serif" font-size="10.00"> #m_keyframe</text>
</g>
<!-- Node14 -->
<g id="node14" class="node"><title>Node14</title>
<polygon fill="white" stroke="#bfbfbf" points="107,-1208 107,-1265 155,-1265 155,-1208 107,-1208"/>
<text text-anchor="middle" x="131" y="-1253" font-family="Helvetica,sans-Serif" font-size="10.00">FRAME</text>
<polyline fill="none" stroke="#bfbfbf" points="107,-1246 155,-1246 "/>
<text text-anchor="middle" x="131" y="-1234" font-family="Helvetica,sans-Serif" font-size="10.00"> </text>
<polyline fill="none" stroke="#bfbfbf" points="107,-1227 155,-1227 "/>
<text text-anchor="middle" x="131" y="-1215" font-family="Helvetica,sans-Serif" font-size="10.00"> </text>
</g>
<!-- Node14&#45;&gt;Node13 -->
<g id="edge15" class="edge"><title>Node14&#45;&gt;Node13</title>
<path fill="none" stroke="#404040" d="M127.122,-1207.74C125.044,-1185.87 124.285,-1154.87 132,-1129 141.09,-1098.52 158.677,-1068.34 176.133,-1043.47"/>
<polygon fill="none" stroke="#404040" points="176.299,-1043.24 176.564,-1036.04 183.318,-1033.51 183.052,-1040.72 176.299,-1043.24"/>
<text text-anchor="middle" x="160.5" y="-1154" font-family="Helvetica,sans-Serif" font-size="10.00"> +elements</text>
</g>
</g>
</svg>
