<?xml version="1.0" encoding="UTF-8" standalone="no"?>
<!DOCTYPE svg PUBLIC "-//W3C//DTD SVG 1.1//EN"
 "http://www.w3.org/Graphics/SVG/1.1/DTD/svg11.dtd">
<!-- Generated by graphviz version 2.38.0 (20140413.2041)
 -->
<!-- Title: Ra::Gui::TrackballCamera::setTrackballCenter Pages: 1 -->
<svg width="461pt" height="39pt"
 viewBox="0.00 0.00 461.00 39.00" xmlns="http://www.w3.org/2000/svg" xmlns:xlink="http://www.w3.org/1999/xlink">
<g id="graph0" class="graph" transform="scale(1 1) rotate(0) translate(4 35)">
<title>Ra::Gui::TrackballCamera::setTrackballCenter</title>
<polygon fill="white" stroke="none" points="-4,4 -4,-35 457,-35 457,4 -4,4"/>
<!-- Node1 -->
<g id="node1" class="node"><title>Node1</title>
<polygon fill="#bfbfbf" stroke="black" points="0,-0.5 0,-30.5 135,-30.5 135,-0.5 0,-0.5"/>
<text text-anchor="start" x="8" y="-18.5" font-family="Helvetica,sans-Serif" font-size="10.00">Ra::Gui::TrackballCamera</text>
<text text-anchor="middle" x="67.5" y="-7.5" font-family="Helvetica,sans-Serif" font-size="10.00">::setTrackballCenter</text>
</g>
<!-- Node2 -->
<g id="node2" class="node"><title>Node2</title>
<g id="a_node2"><a xlink:href="classRa_1_1Gui_1_1TrackballCamera.html#a1f4216d79cee852ec5653a1a11fe4155" target="_top" xlink:title="Update the polar coordinates of the Camera w.r.t. the trackball center. ">
<polygon fill="white" stroke="black" points="171,-0.5 171,-30.5 306,-30.5 306,-0.5 171,-0.5"/>
<text text-anchor="start" x="179" y="-18.5" font-family="Helvetica,sans-Serif" font-size="10.00">Ra::Gui::TrackballCamera</text>
<text text-anchor="middle" x="238.5" y="-7.5" font-family="Helvetica,sans-Serif" font-size="10.00">::updatePhiTheta</text>
</a>
</g>
</g>
<!-- Node1&#45;&gt;Node2 -->
<g id="edge1" class="edge"><title>Node1&#45;&gt;Node2</title>
<path fill="none" stroke="midnightblue" d="M135.293,-15.5C143.624,-15.5 152.194,-15.5 160.661,-15.5"/>
<polygon fill="midnightblue" stroke="midnightblue" points="160.915,-19.0001 170.915,-15.5 160.915,-12.0001 160.915,-19.0001"/>
</g>
<!-- Node3 -->
<g id="node3" class="node"><title>Node3</title>
<g id="a_node3"><a xlink:href="classRa_1_1Engine_1_1Camera.html#a724a052e94817af7e602129467c8696f" target="_top" xlink:title="Return the position. ">
<polygon fill="white" stroke="black" points="342,-0.5 342,-30.5 453,-30.5 453,-0.5 342,-0.5"/>
<text text-anchor="start" x="350" y="-18.5" font-family="Helvetica,sans-Serif" font-size="10.00">Ra::Engine::Camera</text>
<text text-anchor="middle" x="397.5" y="-7.5" font-family="Helvetica,sans-Serif" font-size="10.00">::getPosition</text>
</a>
</g>
</g>
<!-- Node2&#45;&gt;Node3 -->
<g id="edge2" class="edge"><title>Node2&#45;&gt;Node3</title>
<path fill="none" stroke="midnightblue" d="M306.082,-15.5C314.519,-15.5 323.144,-15.5 331.556,-15.5"/>
<polygon fill="midnightblue" stroke="midnightblue" points="331.682,-19.0001 341.682,-15.5 331.682,-12.0001 331.682,-19.0001"/>
</g>
</g>
</svg>
