<?xml version="1.0" encoding="UTF-8" standalone="no"?>
<!DOCTYPE svg PUBLIC "-//W3C//DTD SVG 1.1//EN"
 "http://www.w3.org/Graphics/SVG/1.1/DTD/svg11.dtd">
<!-- Generated by graphviz version 2.38.0 (20140413.2041)
 -->
<!-- Title: Ra::Core::Grid::Iterator::Iterator Pages: 1 -->
<svg width="306pt" height="176pt"
 viewBox="0.00 0.00 306.00 176.00" xmlns="http://www.w3.org/2000/svg" xmlns:xlink="http://www.w3.org/1999/xlink">
<g id="graph0" class="graph" transform="scale(1 1) rotate(0) translate(4 172)">
<title>Ra::Core::Grid::Iterator::Iterator</title>
<polygon fill="white" stroke="none" points="-4,4 -4,-172 302,-172 302,4 -4,4"/>
<!-- Node1 -->
<g id="node1" class="node"><title>Node1</title>
<polygon fill="#bfbfbf" stroke="black" points="0,-66.5 0,-96.5 124,-96.5 124,-66.5 0,-66.5"/>
<text text-anchor="start" x="8" y="-84.5" font-family="Helvetica,sans-Serif" font-size="10.00">Ra::Core::Grid::Iterator</text>
<text text-anchor="middle" x="62" y="-73.5" font-family="Helvetica,sans-Serif" font-size="10.00">::Iterator</text>
</g>
<!-- Node2 -->
<g id="node2" class="node"><title>Node2</title>
<g id="a_node2"><a xlink:href="classRa_1_1Core_1_1Grid_1_1Iterator.html#a250062d7204bf6ef70867dec136906ee" target="_top" xlink:title="Set an existing iterator to a linear index value. ">
<polygon fill="white" stroke="black" points="167,-137.5 167,-167.5 291,-167.5 291,-137.5 167,-137.5"/>
<text text-anchor="start" x="175" y="-155.5" font-family="Helvetica,sans-Serif" font-size="10.00">Ra::Core::Grid::Iterator</text>
<text text-anchor="middle" x="229" y="-144.5" font-family="Helvetica,sans-Serif" font-size="10.00">::setFromLinear</text>
</a>
</g>
</g>
<!-- Node1&#45;&gt;Node2 -->
<g id="edge1" class="edge"><title>Node1&#45;&gt;Node2</title>
<path fill="none" stroke="midnightblue" d="M91.8996,-96.5551C110.985,-106.235 136.685,-118.773 160,-128.5 164.391,-130.332 168.976,-132.148 173.602,-133.914"/>
<polygon fill="midnightblue" stroke="midnightblue" points="172.511,-137.243 183.103,-137.456 174.956,-130.684 172.511,-137.243"/>
</g>
<!-- Node3 -->
<g id="node3" class="node"><title>Node3</title>
<g id="a_node3"><a xlink:href="classRa_1_1Core_1_1Grid_1_1Iterator.html#ab83d2a531ca68a242f6fd06d7a77235e" target="_top" xlink:title="Constructor from size and linear index. ">
<polygon fill="white" stroke="black" points="167,-88.5 167,-118.5 291,-118.5 291,-88.5 167,-88.5"/>
<text text-anchor="start" x="175" y="-106.5" font-family="Helvetica,sans-Serif" font-size="10.00">Ra::Core::Grid::Iterator</text>
<text text-anchor="middle" x="229" y="-95.5" font-family="Helvetica,sans-Serif" font-size="10.00">::Iterator</text>
</a>
</g>
</g>
<!-- Node1&#45;&gt;Node3 -->
<g id="edge2" class="edge"><title>Node1&#45;&gt;Node3</title>
<path fill="none" stroke="midnightblue" d="M124.44,-89.692C134.924,-91.0899 145.895,-92.5527 156.612,-93.9815"/>
<polygon fill="midnightblue" stroke="midnightblue" points="156.409,-97.4854 166.784,-95.3378 157.334,-90.5468 156.409,-97.4854"/>
</g>
<!-- Node4 -->
<g id="node4" class="node"><title>Node4</title>
<g id="a_node4"><a xlink:href="classRa_1_1Core_1_1Grid.html#a3413612b42d3ab6981527c291ff631a0" target="_top" xlink:title="Returns the size vector (a D&#45;dimensional vector with the size along each dimension). ">
<polygon fill="white" stroke="black" points="160,-50 160,-69 298,-69 298,-50 160,-50"/>
<text text-anchor="middle" x="229" y="-57" font-family="Helvetica,sans-Serif" font-size="10.00">Ra::Core::Grid::sizeVector</text>
</a>
</g>
</g>
<!-- Node1&#45;&gt;Node4 -->
<g id="edge3" class="edge"><title>Node1&#45;&gt;Node4</title>
<path fill="none" stroke="midnightblue" d="M124.44,-73.308C132.738,-72.2016 141.34,-71.0547 149.88,-69.916"/>
<polygon fill="midnightblue" stroke="midnightblue" points="150.404,-73.3772 159.854,-68.5862 149.479,-66.4386 150.404,-73.3772"/>
</g>
<!-- Node5 -->
<g id="node5" class="node"><title>Node5</title>
<g id="a_node5"><a xlink:href="classRa_1_1Core_1_1Grid_1_1Iterator.html#a57348c88771de4c988b0f0eabbc8238b" target="_top" xlink:title="Set an existing iterator to a vector index value. ">
<polygon fill="white" stroke="black" points="167,-0.5 167,-30.5 291,-30.5 291,-0.5 167,-0.5"/>
<text text-anchor="start" x="175" y="-18.5" font-family="Helvetica,sans-Serif" font-size="10.00">Ra::Core::Grid::Iterator</text>
<text text-anchor="middle" x="229" y="-7.5" font-family="Helvetica,sans-Serif" font-size="10.00">::setFromVector</text>
</a>
</g>
</g>
<!-- Node1&#45;&gt;Node5 -->
<g id="edge4" class="edge"><title>Node1&#45;&gt;Node5</title>
<path fill="none" stroke="midnightblue" d="M97.4039,-66.4877C115.874,-58.5473 139.084,-48.7598 160,-40.5 165.396,-38.369 171.055,-36.1944 176.707,-34.061"/>
<polygon fill="midnightblue" stroke="midnightblue" points="178.025,-37.3052 186.165,-30.5245 175.573,-30.7486 178.025,-37.3052"/>
</g>
</g>
</svg>
