<?xml version="1.0" encoding="UTF-8" standalone="no"?>
<!DOCTYPE svg PUBLIC "-//W3C//DTD SVG 1.1//EN"
 "http://www.w3.org/Graphics/SVG/1.1/DTD/svg11.dtd">
<!-- Generated by graphviz version 2.38.0 (20140413.2041)
 -->
<!-- Title: Ra::GuiBase::BaseApplication::createConnections Pages: 1 -->
<svg width="703pt" height="140pt"
 viewBox="0.00 0.00 703.00 139.50" xmlns="http://www.w3.org/2000/svg" xmlns:xlink="http://www.w3.org/1999/xlink">
<g id="graph0" class="graph" transform="scale(1 1) rotate(0) translate(4 135.5)">
<title>Ra::GuiBase::BaseApplication::createConnections</title>
<polygon fill="white" stroke="none" points="-4,4 -4,-135.5 699,-135.5 699,4 -4,4"/>
<!-- Node1 -->
<g id="node1" class="node"><title>Node1</title>
<polygon fill="#bfbfbf" stroke="black" points="0,-57 0,-87 157,-87 157,-57 0,-57"/>
<text text-anchor="start" x="8" y="-75" font-family="Helvetica,sans-Serif" font-size="10.00">Ra::GuiBase::BaseApplication</text>
<text text-anchor="middle" x="78.5" y="-64" font-family="Helvetica,sans-Serif" font-size="10.00">::createConnections</text>
</g>
<!-- Node2 -->
<g id="node2" class="node"><title>Node2</title>
<g id="a_node2"><a xlink:href="classRa_1_1GuiBase_1_1BaseApplication.html#aa19a984e0783e70237b8050feb1a3d2a" target="_top" xlink:title="Ra::GuiBase::BaseApplication\l::appNeedsToQuit">
<polygon fill="white" stroke="black" points="193,-82 193,-112 350,-112 350,-82 193,-82"/>
<text text-anchor="start" x="201" y="-100" font-family="Helvetica,sans-Serif" font-size="10.00">Ra::GuiBase::BaseApplication</text>
<text text-anchor="middle" x="271.5" y="-89" font-family="Helvetica,sans-Serif" font-size="10.00">::appNeedsToQuit</text>
</a>
</g>
</g>
<!-- Node1&#45;&gt;Node2 -->
<g id="edge1" class="edge"><title>Node1&#45;&gt;Node2</title>
<path fill="none" stroke="midnightblue" d="M157.187,-82.1685C165.65,-83.2761 174.306,-84.4091 182.876,-85.5309"/>
<polygon fill="midnightblue" stroke="midnightblue" points="182.512,-89.013 192.882,-86.8406 183.421,-82.0722 182.512,-89.013"/>
</g>
<!-- Node3 -->
<g id="node3" class="node"><title>Node3</title>
<g id="a_node3"><a xlink:href="classRa_1_1GuiBase_1_1BaseApplication.html#a525be12318745eae6c4730dd7570c7bf" target="_top" xlink:title="Ra::GuiBase::BaseApplication\l::initializeOpenGlPlugins">
<polygon fill="white" stroke="black" points="193,-33 193,-63 350,-63 350,-33 193,-33"/>
<text text-anchor="start" x="201" y="-51" font-family="Helvetica,sans-Serif" font-size="10.00">Ra::GuiBase::BaseApplication</text>
<text text-anchor="middle" x="271.5" y="-40" font-family="Helvetica,sans-Serif" font-size="10.00">::initializeOpenGlPlugins</text>
</a>
</g>
</g>
<!-- Node1&#45;&gt;Node3 -->
<g id="edge2" class="edge"><title>Node1&#45;&gt;Node3</title>
<path fill="none" stroke="midnightblue" d="M157.187,-62.2383C165.65,-61.1749 174.306,-60.0873 182.876,-59.0103"/>
<polygon fill="midnightblue" stroke="midnightblue" points="183.396,-62.4726 192.882,-57.7531 182.523,-55.5272 183.396,-62.4726"/>
</g>
<!-- Node4 -->
<g id="node4" class="node"><title>Node4</title>
<g id="a_node4"><a xlink:href="classRa_1_1Gui_1_1Viewer.html#a17094c0201376a4beedb86fa39cf3fa2" target="_top" xlink:title="Access to the feature picking manager. ">
<polygon fill="white" stroke="black" points="393,-77 393,-107 536,-107 536,-77 393,-77"/>
<text text-anchor="start" x="401" y="-95" font-family="Helvetica,sans-Serif" font-size="10.00">Ra::Gui::Viewer::getPicking</text>
<text text-anchor="middle" x="464.5" y="-84" font-family="Helvetica,sans-Serif" font-size="10.00">Manager</text>
</a>
</g>
</g>
<!-- Node3&#45;&gt;Node4 -->
<g id="edge3" class="edge"><title>Node3&#45;&gt;Node4</title>
<path fill="none" stroke="midnightblue" d="M337.697,-63.0192C354.048,-66.786 371.722,-70.8574 388.508,-74.7244"/>
<polygon fill="midnightblue" stroke="midnightblue" points="387.742,-78.1395 398.273,-76.9738 389.314,-71.3182 387.742,-78.1395"/>
</g>
<!-- Node7 -->
<g id="node7" class="node"><title>Node7</title>
<g id="a_node7"><a xlink:href="classRa_1_1Gui_1_1Viewer.html#a19d9e6da9d196e77f7d4bf8fee5ad227" target="_top" xlink:title="Make the OpenGL context associated with the viewer the current context. ">
<polygon fill="white" stroke="black" points="386,-38.5 386,-57.5 543,-57.5 543,-38.5 386,-38.5"/>
<text text-anchor="middle" x="464.5" y="-45.5" font-family="Helvetica,sans-Serif" font-size="10.00">Ra::Gui::Viewer::makeCurrent</text>
</a>
</g>
</g>
<!-- Node3&#45;&gt;Node7 -->
<g id="edge6" class="edge"><title>Node3&#45;&gt;Node7</title>
<path fill="none" stroke="midnightblue" d="M350.187,-48C358.65,-48 367.306,-48 375.876,-48"/>
<polygon fill="midnightblue" stroke="midnightblue" points="375.882,-51.5001 385.882,-48 375.882,-44.5001 375.882,-51.5001"/>
</g>
<!-- Node8 -->
<g id="node8" class="node"><title>Node8</title>
<g id="a_node8"><a xlink:href="classRa_1_1Gui_1_1Viewer.html#aaf6cf957403cdcbfa8f4dfd0c25c8e74" target="_top" xlink:title="Reset the current OpenGL context that is no more the one associated with the viewer. ">
<polygon fill="white" stroke="black" points="387.5,-0.5 387.5,-19.5 541.5,-19.5 541.5,-0.5 387.5,-0.5"/>
<text text-anchor="middle" x="464.5" y="-7.5" font-family="Helvetica,sans-Serif" font-size="10.00">Ra::Gui::Viewer::doneCurrent</text>
</a>
</g>
</g>
<!-- Node3&#45;&gt;Node8 -->
<g id="edge7" class="edge"><title>Node3&#45;&gt;Node8</title>
<path fill="none" stroke="midnightblue" d="M347.988,-32.9814C367.256,-29.148 387.662,-25.0883 405.874,-21.4648"/>
<polygon fill="midnightblue" stroke="midnightblue" points="406.621,-24.885 415.745,-19.5009 405.255,-18.0196 406.621,-24.885"/>
</g>
<!-- Node5 -->
<g id="node5" class="node"><title>Node5</title>
<g id="a_node5"><a xlink:href="classRa_1_1Engine_1_1Renderer.html#a3166160850c466595fe48a74116bc116" target="_top" xlink:title="Lock rendering. ">
<polygon fill="white" stroke="black" points="579,-101 579,-131 695,-131 695,-101 579,-101"/>
<text text-anchor="start" x="587" y="-119" font-family="Helvetica,sans-Serif" font-size="10.00">Ra::Engine::Renderer</text>
<text text-anchor="middle" x="637" y="-108" font-family="Helvetica,sans-Serif" font-size="10.00">::lockRendering</text>
</a>
</g>
</g>
<!-- Node4&#45;&gt;Node5 -->
<g id="edge4" class="edge"><title>Node4&#45;&gt;Node5</title>
<path fill="none" stroke="midnightblue" d="M536.326,-101.97C547.073,-103.482 558.135,-105.04 568.802,-106.541"/>
<polygon fill="midnightblue" stroke="midnightblue" points="568.494,-110.032 578.884,-107.96 569.47,-103.1 568.494,-110.032"/>
</g>
<!-- Node6 -->
<g id="node6" class="node"><title>Node6</title>
<g id="a_node6"><a xlink:href="classRa_1_1Engine_1_1Renderer.html#aa1773ee0f741df643e10d21d968fbcc3" target="_top" xlink:title="Unlock the rendering. ">
<polygon fill="white" stroke="black" points="579,-52 579,-82 695,-82 695,-52 579,-52"/>
<text text-anchor="start" x="587" y="-70" font-family="Helvetica,sans-Serif" font-size="10.00">Ra::Engine::Renderer</text>
<text text-anchor="middle" x="637" y="-59" font-family="Helvetica,sans-Serif" font-size="10.00">::unlockRendering</text>
</a>
</g>
</g>
<!-- Node4&#45;&gt;Node6 -->
<g id="edge5" class="edge"><title>Node4&#45;&gt;Node6</title>
<path fill="none" stroke="midnightblue" d="M536.326,-81.6149C547.073,-80.0391 558.135,-78.4172 568.802,-76.8531"/>
<polygon fill="midnightblue" stroke="midnightblue" points="569.498,-80.2886 578.884,-75.3747 568.482,-73.3626 569.498,-80.2886"/>
</g>
</g>
</svg>
