<?xml version="1.0" encoding="UTF-8" standalone="no"?>
<!DOCTYPE svg PUBLIC "-//W3C//DTD SVG 1.1//EN"
 "http://www.w3.org/Graphics/SVG/1.1/DTD/svg11.dtd">
<!-- Generated by graphviz version 2.38.0 (20140413.2041)
 -->
<!-- Title: SkinningPlugin::SkinningComponent Pages: 1 -->
<svg width="712pt" height="1472pt"
 viewBox="0.00 0.00 711.50 1472.00" xmlns="http://www.w3.org/2000/svg" xmlns:xlink="http://www.w3.org/1999/xlink">
<g id="graph0" class="graph" transform="scale(1 1) rotate(0) translate(4 1468)">
<title>SkinningPlugin::SkinningComponent</title>
<polygon fill="white" stroke="none" points="-4,4 -4,-1468 707.5,-1468 707.5,4 -4,4"/>
<!-- Node1 -->
<g id="node1" class="node"><title>Node1</title>
<polygon fill="#bfbfbf" stroke="black" points="363,-0.5 363,-211.5 505,-211.5 505,-0.5 363,-0.5"/>
<text text-anchor="start" x="371" y="-199.5" font-family="Helvetica,sans-Serif" font-size="10.00">SkinningPlugin::Skinning</text>
<text text-anchor="middle" x="434" y="-188.5" font-family="Helvetica,sans-Serif" font-size="10.00">Component</text>
<polyline fill="none" stroke="black" points="363,-181.5 505,-181.5 "/>
<text text-anchor="middle" x="434" y="-169.5" font-family="Helvetica,sans-Serif" font-size="10.00"> </text>
<polyline fill="none" stroke="black" points="363,-162.5 505,-162.5 "/>
<text text-anchor="start" x="371" y="-150.5" font-family="Helvetica,sans-Serif" font-size="10.00">+ SkinningComponent()</text>
<text text-anchor="start" x="371" y="-139.5" font-family="Helvetica,sans-Serif" font-size="10.00">+ ~SkinningComponent()</text>
<text text-anchor="start" x="371" y="-128.5" font-family="Helvetica,sans-Serif" font-size="10.00">+ initialize()</text>
<text text-anchor="start" x="371" y="-117.5" font-family="Helvetica,sans-Serif" font-size="10.00">+ skin()</text>
<text text-anchor="start" x="371" y="-106.5" font-family="Helvetica,sans-Serif" font-size="10.00">+ endSkinning()</text>
<text text-anchor="start" x="371" y="-95.5" font-family="Helvetica,sans-Serif" font-size="10.00">+ setSkinningType()</text>
<text text-anchor="start" x="371" y="-84.5" font-family="Helvetica,sans-Serif" font-size="10.00">+ getSkinningType()</text>
<text text-anchor="start" x="371" y="-73.5" font-family="Helvetica,sans-Serif" font-size="10.00">+ handleWeightsLoading()</text>
<text text-anchor="start" x="371" y="-62.5" font-family="Helvetica,sans-Serif" font-size="10.00">+ getRefData()</text>
<text text-anchor="start" x="371" y="-51.5" font-family="Helvetica,sans-Serif" font-size="10.00">+ getFrameData()</text>
<text text-anchor="start" x="371" y="-40.5" font-family="Helvetica,sans-Serif" font-size="10.00">+ getDQ()</text>
<text text-anchor="start" x="371" y="-29.5" font-family="Helvetica,sans-Serif" font-size="10.00">+ setupIO()</text>
<text text-anchor="start" x="371" y="-18.5" font-family="Helvetica,sans-Serif" font-size="10.00">+ setupSkinningType()</text>
<text text-anchor="start" x="371" y="-7.5" font-family="Helvetica,sans-Serif" font-size="10.00">+ setContentsName()</text>
</g>
<!-- Node2 -->
<g id="node2" class="node"><title>Node2</title>
<g id="a_node2"><a xlink:href="classRa_1_1Engine_1_1Component.html" target="_top" xlink:title="A component is an element that can be updated by a system. ">
<polygon fill="white" stroke="black" points="353.5,-249.5 353.5,-471.5 514.5,-471.5 514.5,-249.5 353.5,-249.5"/>
<text text-anchor="middle" x="434" y="-459.5" font-family="Helvetica,sans-Serif" font-size="10.00">Ra::Engine::Component</text>
<polyline fill="none" stroke="black" points="353.5,-452.5 514.5,-452.5 "/>
<text text-anchor="middle" x="434" y="-440.5" font-family="Helvetica,sans-Serif" font-size="10.00"> </text>
<polyline fill="none" stroke="black" points="353.5,-433.5 514.5,-433.5 "/>
<text text-anchor="start" x="361.5" y="-421.5" font-family="Helvetica,sans-Serif" font-size="10.00">+ Component()</text>
<text text-anchor="start" x="361.5" y="-410.5" font-family="Helvetica,sans-Serif" font-size="10.00">+ ~Component()</text>
<text text-anchor="start" x="361.5" y="-399.5" font-family="Helvetica,sans-Serif" font-size="10.00">+ initialize()</text>
<text text-anchor="start" x="361.5" y="-388.5" font-family="Helvetica,sans-Serif" font-size="10.00">+ setEntity()</text>
<text text-anchor="start" x="361.5" y="-377.5" font-family="Helvetica,sans-Serif" font-size="10.00">+ getEntity()</text>
<text text-anchor="start" x="361.5" y="-366.5" font-family="Helvetica,sans-Serif" font-size="10.00">+ getName()</text>
<text text-anchor="start" x="361.5" y="-355.5" font-family="Helvetica,sans-Serif" font-size="10.00">+ setSystem()</text>
<text text-anchor="start" x="361.5" y="-344.5" font-family="Helvetica,sans-Serif" font-size="10.00">+ getSystem()</text>
<text text-anchor="start" x="361.5" y="-333.5" font-family="Helvetica,sans-Serif" font-size="10.00">+ addRenderObject()</text>
<text text-anchor="start" x="361.5" y="-322.5" font-family="Helvetica,sans-Serif" font-size="10.00">+ removeRenderObject()</text>
<text text-anchor="start" x="361.5" y="-311.5" font-family="Helvetica,sans-Serif" font-size="10.00">+ rayCastQuery()</text>
<text text-anchor="start" x="361.5" y="-300.5" font-family="Helvetica,sans-Serif" font-size="10.00">+ canEdit()</text>
<text text-anchor="start" x="361.5" y="-289.5" font-family="Helvetica,sans-Serif" font-size="10.00">+ getTransform()</text>
<text text-anchor="start" x="361.5" y="-278.5" font-family="Helvetica,sans-Serif" font-size="10.00">+ setTransform()</text>
<text text-anchor="start" x="361.5" y="-267.5" font-family="Helvetica,sans-Serif" font-size="10.00">+ notifyRenderObjectExpired()</text>
<text text-anchor="start" x="361.5" y="-256.5" font-family="Helvetica,sans-Serif" font-size="10.00"># getRoMgr()</text>
</a>
</g>
</g>
<!-- Node2&#45;&gt;Node1 -->
<g id="edge1" class="edge"><title>Node2&#45;&gt;Node1</title>
<path fill="none" stroke="midnightblue" d="M434,-239.199C434,-230.064 434,-220.887 434,-211.861"/>
<polygon fill="none" stroke="midnightblue" points="430.5,-239.484 434,-249.484 437.5,-239.484 430.5,-239.484"/>
</g>
<!-- Node3 -->
<g id="node3" class="node"><title>Node3</title>
<polygon fill="white" stroke="#bfbfbf" points="45.5,-828 45.5,-907 156.5,-907 156.5,-828 45.5,-828"/>
<text text-anchor="start" x="53.5" y="-895" font-family="Helvetica,sans-Serif" font-size="10.00">std::vector&lt; Core::</text>
<text text-anchor="start" x="53.5" y="-884" font-family="Helvetica,sans-Serif" font-size="10.00">Utils::Ra::Core::Utils</text>
<text text-anchor="middle" x="101" y="-873" font-family="Helvetica,sans-Serif" font-size="10.00">::Index &gt;</text>
<polyline fill="none" stroke="#bfbfbf" points="45.5,-866 156.5,-866 "/>
<text text-anchor="middle" x="101" y="-854" font-family="Helvetica,sans-Serif" font-size="10.00"> </text>
<polyline fill="none" stroke="#bfbfbf" points="45.5,-847 156.5,-847 "/>
<text text-anchor="middle" x="101" y="-835" font-family="Helvetica,sans-Serif" font-size="10.00"> </text>
</g>
<!-- Node3&#45;&gt;Node2 -->
<g id="edge2" class="edge"><title>Node3&#45;&gt;Node2</title>
<path fill="none" stroke="#404040" d="M98.6563,-827.882C96.4582,-759.257 100.894,-614.335 168,-519 210.226,-459.011 283.195,-418.181 342.039,-393.153"/>
<polygon fill="none" stroke="#404040" points="342.145,-393.109 346.153,-387.115 353.228,-388.51 349.22,-394.504 342.145,-393.109"/>
<text text-anchor="middle" x="215" y="-639" font-family="Helvetica,sans-Serif" font-size="10.00"> +m_renderObjects</text>
</g>
<!-- Node4 -->
<g id="node4" class="node"><title>Node4</title>
<polygon fill="white" stroke="#bfbfbf" points="0,-1147.5 0,-1204.5 42,-1204.5 42,-1147.5 0,-1147.5"/>
<text text-anchor="middle" x="21" y="-1192.5" font-family="Helvetica,sans-Serif" font-size="10.00">Index</text>
<polyline fill="none" stroke="#bfbfbf" points="0,-1185.5 42,-1185.5 "/>
<text text-anchor="middle" x="21" y="-1173.5" font-family="Helvetica,sans-Serif" font-size="10.00"> </text>
<polyline fill="none" stroke="#bfbfbf" points="0,-1166.5 42,-1166.5 "/>
<text text-anchor="middle" x="21" y="-1154.5" font-family="Helvetica,sans-Serif" font-size="10.00"> </text>
</g>
<!-- Node4&#45;&gt;Node3 -->
<g id="edge3" class="edge"><title>Node4&#45;&gt;Node3</title>
<path fill="none" stroke="#404040" d="M17.603,-1147.18C13.2704,-1102.16 9.42234,-1011.38 38,-942 41.6005,-933.259 46.6604,-924.81 52.3645,-916.948"/>
<polygon fill="none" stroke="#404040" points="52.4911,-916.786 53.0284,-909.595 59.8729,-907.325 59.3357,-914.516 52.4911,-916.786"/>
<text text-anchor="middle" x="66.5" y="-956" font-family="Helvetica,sans-Serif" font-size="10.00"> +elements</text>
</g>
<!-- Node5 -->
<g id="node5" class="node"><title>Node5</title>
<g id="a_node5"><a xlink:title="STL class. ">
<polygon fill="white" stroke="#bfbfbf" points="115.5,-1147.5 115.5,-1204.5 210.5,-1204.5 210.5,-1147.5 115.5,-1147.5"/>
<text text-anchor="middle" x="163" y="-1192.5" font-family="Helvetica,sans-Serif" font-size="10.00">std::vector&lt; T &gt;</text>
<polyline fill="none" stroke="#bfbfbf" points="115.5,-1185.5 210.5,-1185.5 "/>
<text text-anchor="middle" x="163" y="-1173.5" font-family="Helvetica,sans-Serif" font-size="10.00"> </text>
<polyline fill="none" stroke="#bfbfbf" points="115.5,-1166.5 210.5,-1166.5 "/>
<text text-anchor="middle" x="163" y="-1154.5" font-family="Helvetica,sans-Serif" font-size="10.00"> </text>
</a>
</g>
</g>
<!-- Node5&#45;&gt;Node3 -->
<g id="edge4" class="edge"><title>Node5&#45;&gt;Node3</title>
<path fill="none" stroke="orange" d="M148.182,-1137.94C133.191,-1098.34 110.985,-1033.38 102,-975 98.5684,-952.704 98.1805,-927.472 98.7145,-907.165"/>
<polygon fill="orange" stroke="orange" points="144.977,-1139.35 151.825,-1147.44 151.512,-1136.85 144.977,-1139.35"/>
<text text-anchor="start" x="102" y="-961.5" font-family="Helvetica,sans-Serif" font-size="10.00"> &lt; Core::Utils::Ra::</text>
<text text-anchor="middle" x="148.5" y="-950.5" font-family="Helvetica,sans-Serif" font-size="10.00">Core::Utils::Index &gt;</text>
</g>
<!-- Node8 -->
<g id="node8" class="node"><title>Node8</title>
<polygon fill="white" stroke="#bfbfbf" points="262,-828 262,-907 436,-907 436,-828 262,-828"/>
<text text-anchor="start" x="270" y="-895" font-family="Helvetica,sans-Serif" font-size="10.00">std::vector&lt; std::pair</text>
<text text-anchor="start" x="270" y="-884" font-family="Helvetica,sans-Serif" font-size="10.00">&lt; const Ra::Engine::Entity</text>
<text text-anchor="middle" x="349" y="-873" font-family="Helvetica,sans-Serif" font-size="10.00"> *, Ra::Engine::Component * &gt; &gt;</text>
<polyline fill="none" stroke="#bfbfbf" points="262,-866 436,-866 "/>
<text text-anchor="middle" x="349" y="-854" font-family="Helvetica,sans-Serif" font-size="10.00"> </text>
<polyline fill="none" stroke="#bfbfbf" points="262,-847 436,-847 "/>
<text text-anchor="middle" x="349" y="-835" font-family="Helvetica,sans-Serif" font-size="10.00"> </text>
</g>
<!-- Node5&#45;&gt;Node8 -->
<g id="edge9" class="edge"><title>Node5&#45;&gt;Node8</title>
<path fill="none" stroke="orange" d="M167.458,-1136.9C174.865,-1079.01 191.184,-972.398 214,-942 226.415,-925.459 243.685,-912.197 261.734,-901.745"/>
<polygon fill="orange" stroke="orange" points="163.949,-1136.76 166.179,-1147.12 170.894,-1137.63 163.949,-1136.76"/>
<text text-anchor="start" x="214" y="-967" font-family="Helvetica,sans-Serif" font-size="10.00"> &lt; std::pair&lt; const</text>
<text text-anchor="start" x="214" y="-956" font-family="Helvetica,sans-Serif" font-size="10.00"> Ra::Engine::Entity</text>
<text text-anchor="middle" x="293" y="-945" font-family="Helvetica,sans-Serif" font-size="10.00"> *, Ra::Engine::Component * &gt; &gt;</text>
</g>
<!-- Node6 -->
<g id="node6" class="node"><title>Node6</title>
<polygon fill="white" stroke="#bfbfbf" points="148.5,-1406.5 148.5,-1463.5 177.5,-1463.5 177.5,-1406.5 148.5,-1406.5"/>
<text text-anchor="middle" x="163" y="-1451.5" font-family="Helvetica,sans-Serif" font-size="10.00">T</text>
<polyline fill="none" stroke="#bfbfbf" points="148.5,-1444.5 177.5,-1444.5 "/>
<text text-anchor="middle" x="163" y="-1432.5" font-family="Helvetica,sans-Serif" font-size="10.00"> </text>
<polyline fill="none" stroke="#bfbfbf" points="148.5,-1425.5 177.5,-1425.5 "/>
<text text-anchor="middle" x="163" y="-1413.5" font-family="Helvetica,sans-Serif" font-size="10.00"> </text>
</g>
<!-- Node6&#45;&gt;Node5 -->
<g id="edge5" class="edge"><title>Node6&#45;&gt;Node5</title>
<path fill="none" stroke="#404040" d="M163,-1406.5C163,-1360.92 163,-1269.55 163,-1216.88"/>
<polygon fill="none" stroke="#404040" points="163,-1216.69 159,-1210.69 163,-1204.69 167,-1210.69 163,-1216.69"/>
<text text-anchor="middle" x="191.5" y="-1380" font-family="Helvetica,sans-Serif" font-size="10.00"> +elements</text>
</g>
<!-- Node7 -->
<g id="node7" class="node"><title>Node7</title>
<g id="a_node7"><a xlink:href="classRa_1_1Engine_1_1System.html" target="_top" xlink:title="Systems are responsible of updating a specific subset of the components of each entity. ">
<polygon fill="white" stroke="black" points="271.5,-574.5 271.5,-708.5 428.5,-708.5 428.5,-574.5 271.5,-574.5"/>
<text text-anchor="middle" x="350" y="-696.5" font-family="Helvetica,sans-Serif" font-size="10.00">Ra::Engine::System</text>
<polyline fill="none" stroke="black" points="271.5,-689.5 428.5,-689.5 "/>
<text text-anchor="middle" x="350" y="-677.5" font-family="Helvetica,sans-Serif" font-size="10.00"> </text>
<polyline fill="none" stroke="black" points="271.5,-670.5 428.5,-670.5 "/>
<text text-anchor="start" x="279.5" y="-658.5" font-family="Helvetica,sans-Serif" font-size="10.00">+ System()</text>
<text text-anchor="start" x="279.5" y="-647.5" font-family="Helvetica,sans-Serif" font-size="10.00">+ ~System()</text>
<text text-anchor="start" x="279.5" y="-636.5" font-family="Helvetica,sans-Serif" font-size="10.00">+ handleAssetLoading()</text>
<text text-anchor="start" x="279.5" y="-625.5" font-family="Helvetica,sans-Serif" font-size="10.00">+ generateTasks()</text>
<text text-anchor="start" x="279.5" y="-614.5" font-family="Helvetica,sans-Serif" font-size="10.00">+ getEntityComponents()</text>
<text text-anchor="start" x="279.5" y="-603.5" font-family="Helvetica,sans-Serif" font-size="10.00"># registerComponent()</text>
<text text-anchor="start" x="279.5" y="-592.5" font-family="Helvetica,sans-Serif" font-size="10.00"># unregisterComponent()</text>
<text text-anchor="start" x="279.5" y="-581.5" font-family="Helvetica,sans-Serif" font-size="10.00"># unregisterAllComponents()</text>
</a>
</g>
</g>
<!-- Node7&#45;&gt;Node2 -->
<g id="edge6" class="edge"><title>Node7&#45;&gt;Node2</title>
<path fill="none" stroke="#404040" d="M369.907,-574.381C378.102,-547.161 387.866,-514.73 397.272,-483.49"/>
<polygon fill="none" stroke="#404040" points="397.396,-483.079 395.295,-476.18 400.855,-471.588 402.956,-478.487 397.396,-483.079"/>
<text text-anchor="middle" x="426" y="-493" font-family="Helvetica,sans-Serif" font-size="10.00"> #m_system</text>
</g>
<!-- Node8&#45;&gt;Node7 -->
<g id="edge7" class="edge"><title>Node8&#45;&gt;Node7</title>
<path fill="none" stroke="#404040" d="M349.172,-827.993C349.303,-798.549 349.489,-756.971 349.651,-720.64"/>
<polygon fill="none" stroke="#404040" points="349.651,-720.545 345.678,-714.527 349.705,-708.545 353.678,-714.563 349.651,-720.545"/>
<text text-anchor="middle" x="393.5" y="-785" font-family="Helvetica,sans-Serif" font-size="10.00"> #m_components</text>
</g>
<!-- Node9 -->
<g id="node9" class="node"><title>Node9</title>
<polygon fill="white" stroke="#bfbfbf" points="335.5,-1136.5 335.5,-1215.5 460.5,-1215.5 460.5,-1136.5 335.5,-1136.5"/>
<text text-anchor="start" x="343.5" y="-1203.5" font-family="Helvetica,sans-Serif" font-size="10.00">pair&lt; const Ra::Engine</text>
<text text-anchor="start" x="343.5" y="-1192.5" font-family="Helvetica,sans-Serif" font-size="10.00">::Entity *, Ra::Engine</text>
<text text-anchor="middle" x="398" y="-1181.5" font-family="Helvetica,sans-Serif" font-size="10.00">::Component * &gt;</text>
<polyline fill="none" stroke="#bfbfbf" points="335.5,-1174.5 460.5,-1174.5 "/>
<text text-anchor="middle" x="398" y="-1162.5" font-family="Helvetica,sans-Serif" font-size="10.00"> </text>
<polyline fill="none" stroke="#bfbfbf" points="335.5,-1155.5 460.5,-1155.5 "/>
<text text-anchor="middle" x="398" y="-1143.5" font-family="Helvetica,sans-Serif" font-size="10.00"> </text>
</g>
<!-- Node9&#45;&gt;Node8 -->
<g id="edge8" class="edge"><title>Node9&#45;&gt;Node8</title>
<path fill="none" stroke="#404040" d="M397.381,-1136.18C395.942,-1089.53 391.237,-1009.16 376,-942 374.262,-934.341 371.934,-926.395 369.37,-918.683"/>
<polygon fill="none" stroke="#404040" points="369.322,-918.545 363.559,-914.211 365.343,-907.224 371.106,-911.558 369.322,-918.545"/>
<text text-anchor="middle" x="411.5" y="-956" font-family="Helvetica,sans-Serif" font-size="10.00"> +elements</text>
</g>
<!-- Node10 -->
<g id="node10" class="node"><title>Node10</title>
<g id="a_node10"><a xlink:href="classRa_1_1Engine_1_1Entity.html" target="_top" xlink:title="An entity is an scene element. It ties together components with a transform. ">
<polygon fill="white" stroke="black" points="448,-519.5 448,-763.5 588,-763.5 588,-519.5 448,-519.5"/>
<text text-anchor="middle" x="518" y="-751.5" font-family="Helvetica,sans-Serif" font-size="10.00">Ra::Engine::Entity</text>
<polyline fill="none" stroke="black" points="448,-744.5 588,-744.5 "/>
<text text-anchor="middle" x="518" y="-732.5" font-family="Helvetica,sans-Serif" font-size="10.00"> </text>
<polyline fill="none" stroke="black" points="448,-725.5 588,-725.5 "/>
<text text-anchor="start" x="456" y="-713.5" font-family="Helvetica,sans-Serif" font-size="10.00">+ Entity()</text>
<text text-anchor="start" x="456" y="-702.5" font-family="Helvetica,sans-Serif" font-size="10.00">+ Entity()</text>
<text text-anchor="start" x="456" y="-691.5" font-family="Helvetica,sans-Serif" font-size="10.00">+ operator=()</text>
<text text-anchor="start" x="456" y="-680.5" font-family="Helvetica,sans-Serif" font-size="10.00">+ ~Entity()</text>
<text text-anchor="start" x="456" y="-669.5" font-family="Helvetica,sans-Serif" font-size="10.00">+ getName()</text>
<text text-anchor="start" x="456" y="-658.5" font-family="Helvetica,sans-Serif" font-size="10.00">+ rename()</text>
<text text-anchor="start" x="456" y="-647.5" font-family="Helvetica,sans-Serif" font-size="10.00">+ setTransform()</text>
<text text-anchor="start" x="456" y="-636.5" font-family="Helvetica,sans-Serif" font-size="10.00">+ setTransform()</text>
<text text-anchor="start" x="456" y="-625.5" font-family="Helvetica,sans-Serif" font-size="10.00">+ getTransform()</text>
<text text-anchor="start" x="456" y="-614.5" font-family="Helvetica,sans-Serif" font-size="10.00">+ getTransformAsMatrix()</text>
<text text-anchor="start" x="456" y="-603.5" font-family="Helvetica,sans-Serif" font-size="10.00">+ swapTransformBuffers()</text>
<text text-anchor="start" x="456" y="-592.5" font-family="Helvetica,sans-Serif" font-size="10.00">+ addComponent()</text>
<text text-anchor="start" x="456" y="-581.5" font-family="Helvetica,sans-Serif" font-size="10.00">+ removeComponent()</text>
<text text-anchor="start" x="456" y="-570.5" font-family="Helvetica,sans-Serif" font-size="10.00">+ getComponent()</text>
<text text-anchor="start" x="456" y="-559.5" font-family="Helvetica,sans-Serif" font-size="10.00">+ getComponent()</text>
<text text-anchor="start" x="456" y="-548.5" font-family="Helvetica,sans-Serif" font-size="10.00">+ getComponents()</text>
<text text-anchor="start" x="456" y="-537.5" font-family="Helvetica,sans-Serif" font-size="10.00">+ getNumComponents()</text>
<text text-anchor="start" x="456" y="-526.5" font-family="Helvetica,sans-Serif" font-size="10.00">+ rayCastQuery()</text>
</a>
</g>
</g>
<!-- Node10&#45;&gt;Node2 -->
<g id="edge10" class="edge"><title>Node10&#45;&gt;Node2</title>
<path fill="none" stroke="#404040" d="M481.523,-519.344C477.937,-507.432 474.295,-495.339 470.707,-483.419"/>
<polygon fill="none" stroke="#404040" points="470.599,-483.062 465.039,-478.469 467.14,-471.571 472.7,-476.163 470.599,-483.062"/>
<text text-anchor="middle" x="503" y="-493" font-family="Helvetica,sans-Serif" font-size="10.00"> #m_entity</text>
</g>
<!-- Node11 -->
<g id="node11" class="node"><title>Node11</title>
<g id="a_node11"><a xlink:href="classRa_1_1Core_1_1Utils_1_1IndexedObject.html" target="_top" xlink:title="{Ra::Core::Utils::Indexed\lObject\n||+ IndexedObject()\l+ IndexedObject()\l+ ~IndexedObject()\l+ setIndex()\l+ getIndex()\l}">
<polygon fill="white" stroke="black" points="454,-811.5 454,-923.5 582,-923.5 582,-811.5 454,-811.5"/>
<text text-anchor="start" x="462" y="-911.5" font-family="Helvetica,sans-Serif" font-size="10.00">Ra::Core::Utils::Indexed</text>
<text text-anchor="middle" x="518" y="-900.5" font-family="Helvetica,sans-Serif" font-size="10.00">Object</text>
<polyline fill="none" stroke="black" points="454,-893.5 582,-893.5 "/>
<text text-anchor="middle" x="518" y="-881.5" font-family="Helvetica,sans-Serif" font-size="10.00"> </text>
<polyline fill="none" stroke="black" points="454,-874.5 582,-874.5 "/>
<text text-anchor="start" x="462" y="-862.5" font-family="Helvetica,sans-Serif" font-size="10.00">+ IndexedObject()</text>
<text text-anchor="start" x="462" y="-851.5" font-family="Helvetica,sans-Serif" font-size="10.00">+ IndexedObject()</text>
<text text-anchor="start" x="462" y="-840.5" font-family="Helvetica,sans-Serif" font-size="10.00">+ ~IndexedObject()</text>
<text text-anchor="start" x="462" y="-829.5" font-family="Helvetica,sans-Serif" font-size="10.00">+ setIndex()</text>
<text text-anchor="start" x="462" y="-818.5" font-family="Helvetica,sans-Serif" font-size="10.00">+ getIndex()</text>
</a>
</g>
</g>
<!-- Node11&#45;&gt;Node10 -->
<g id="edge11" class="edge"><title>Node11&#45;&gt;Node10</title>
<path fill="none" stroke="midnightblue" d="M518,-801.213C518,-789.331 518,-776.595 518,-763.696"/>
<polygon fill="none" stroke="midnightblue" points="514.5,-801.417 518,-811.417 521.5,-801.417 514.5,-801.417"/>
</g>
<!-- Node12 -->
<g id="node12" class="node"><title>Node12</title>
<g id="a_node12"><a xlink:href="classRa_1_1Core_1_1Utils_1_1Index.html" target="_top" xlink:title="{Ra::Core::Utils::Index\n||+ Index()\l+ Index()\l+ isValid()\l+ isInvalid()\l+ setInvalid()\l+ getValue()\l+ setValue()\l+ operator int()\l+ operator=()\l+ operator++()\l+ operator&#45;&#45;()\l+ operator+()\l+ operator+()\l+ operator&#45;()\l+ operator&#45;()\l+ operator==()\l+ operator==()\l+ operator!=()\l+ operator!=()\l+ operator\&lt;()\l+ operator\&lt;()\l+ operator\&lt;=()\l+ operator\&lt;=()\l+ operator\&gt;()\l+ operator\&gt;()\l+ operator\&gt;=()\l+ operator\&gt;=()\l+ Invalid()\l+ Max()\l}">
<polygon fill="white" stroke="black" points="479,-993.5 479,-1358.5 595,-1358.5 595,-993.5 479,-993.5"/>
<text text-anchor="middle" x="537" y="-1346.5" font-family="Helvetica,sans-Serif" font-size="10.00">Ra::Core::Utils::Index</text>
<polyline fill="none" stroke="black" points="479,-1339.5 595,-1339.5 "/>
<text text-anchor="middle" x="537" y="-1327.5" font-family="Helvetica,sans-Serif" font-size="10.00"> </text>
<polyline fill="none" stroke="black" points="479,-1320.5 595,-1320.5 "/>
<text text-anchor="start" x="487" y="-1308.5" font-family="Helvetica,sans-Serif" font-size="10.00">+ Index()</text>
<text text-anchor="start" x="487" y="-1297.5" font-family="Helvetica,sans-Serif" font-size="10.00">+ Index()</text>
<text text-anchor="start" x="487" y="-1286.5" font-family="Helvetica,sans-Serif" font-size="10.00">+ isValid()</text>
<text text-anchor="start" x="487" y="-1275.5" font-family="Helvetica,sans-Serif" font-size="10.00">+ isInvalid()</text>
<text text-anchor="start" x="487" y="-1264.5" font-family="Helvetica,sans-Serif" font-size="10.00">+ setInvalid()</text>
<text text-anchor="start" x="487" y="-1253.5" font-family="Helvetica,sans-Serif" font-size="10.00">+ getValue()</text>
<text text-anchor="start" x="487" y="-1242.5" font-family="Helvetica,sans-Serif" font-size="10.00">+ setValue()</text>
<text text-anchor="start" x="487" y="-1231.5" font-family="Helvetica,sans-Serif" font-size="10.00">+ operator int()</text>
<text text-anchor="start" x="487" y="-1220.5" font-family="Helvetica,sans-Serif" font-size="10.00">+ operator=()</text>
<text text-anchor="start" x="487" y="-1209.5" font-family="Helvetica,sans-Serif" font-size="10.00">+ operator++()</text>
<text text-anchor="start" x="487" y="-1198.5" font-family="Helvetica,sans-Serif" font-size="10.00">+ operator&#45;&#45;()</text>
<text text-anchor="start" x="487" y="-1187.5" font-family="Helvetica,sans-Serif" font-size="10.00">+ operator+()</text>
<text text-anchor="start" x="487" y="-1176.5" font-family="Helvetica,sans-Serif" font-size="10.00">+ operator+()</text>
<text text-anchor="start" x="487" y="-1165.5" font-family="Helvetica,sans-Serif" font-size="10.00">+ operator&#45;()</text>
<text text-anchor="start" x="487" y="-1154.5" font-family="Helvetica,sans-Serif" font-size="10.00">+ operator&#45;()</text>
<text text-anchor="start" x="487" y="-1143.5" font-family="Helvetica,sans-Serif" font-size="10.00">+ operator==()</text>
<text text-anchor="start" x="487" y="-1132.5" font-family="Helvetica,sans-Serif" font-size="10.00">+ operator==()</text>
<text text-anchor="start" x="487" y="-1121.5" font-family="Helvetica,sans-Serif" font-size="10.00">+ operator!=()</text>
<text text-anchor="start" x="487" y="-1110.5" font-family="Helvetica,sans-Serif" font-size="10.00">+ operator!=()</text>
<text text-anchor="start" x="487" y="-1099.5" font-family="Helvetica,sans-Serif" font-size="10.00">+ operator&lt;()</text>
<text text-anchor="start" x="487" y="-1088.5" font-family="Helvetica,sans-Serif" font-size="10.00">+ operator&lt;()</text>
<text text-anchor="start" x="487" y="-1077.5" font-family="Helvetica,sans-Serif" font-size="10.00">+ operator&lt;=()</text>
<text text-anchor="start" x="487" y="-1066.5" font-family="Helvetica,sans-Serif" font-size="10.00">+ operator&lt;=()</text>
<text text-anchor="start" x="487" y="-1055.5" font-family="Helvetica,sans-Serif" font-size="10.00">+ operator&gt;()</text>
<text text-anchor="start" x="487" y="-1044.5" font-family="Helvetica,sans-Serif" font-size="10.00">+ operator&gt;()</text>
<text text-anchor="start" x="487" y="-1033.5" font-family="Helvetica,sans-Serif" font-size="10.00">+ operator&gt;=()</text>
<text text-anchor="start" x="487" y="-1022.5" font-family="Helvetica,sans-Serif" font-size="10.00">+ operator&gt;=()</text>
<text text-anchor="start" x="487" y="-1011.5" font-family="Helvetica,sans-Serif" font-size="10.00">+ Invalid()</text>
<text text-anchor="start" x="487" y="-1000.5" font-family="Helvetica,sans-Serif" font-size="10.00">+ Max()</text>
</a>
</g>
</g>
<!-- Node12&#45;&gt;Node11 -->
<g id="edge12" class="edge"><title>Node12&#45;&gt;Node11</title>
<path fill="none" stroke="#404040" d="M525.728,-993.165C524.468,-972.84 523.251,-953.21 522.17,-935.775"/>
<polygon fill="none" stroke="#404040" points="522.17,-935.76 517.806,-930.019 521.427,-923.783 525.791,-929.524 522.17,-935.76"/>
<text text-anchor="middle" x="545" y="-956" font-family="Helvetica,sans-Serif" font-size="10.00"> #m_idx</text>
</g>
<!-- Node13 -->
<g id="node13" class="node"><title>Node13</title>
<polygon fill="white" stroke="#bfbfbf" points="522.5,-1406.5 522.5,-1463.5 551.5,-1463.5 551.5,-1406.5 522.5,-1406.5"/>
<text text-anchor="middle" x="537" y="-1451.5" font-family="Helvetica,sans-Serif" font-size="10.00">int</text>
<polyline fill="none" stroke="#bfbfbf" points="522.5,-1444.5 551.5,-1444.5 "/>
<text text-anchor="middle" x="537" y="-1432.5" font-family="Helvetica,sans-Serif" font-size="10.00"> </text>
<polyline fill="none" stroke="#bfbfbf" points="522.5,-1425.5 551.5,-1425.5 "/>
<text text-anchor="middle" x="537" y="-1413.5" font-family="Helvetica,sans-Serif" font-size="10.00"> </text>
</g>
<!-- Node13&#45;&gt;Node12 -->
<g id="edge13" class="edge"><title>Node13&#45;&gt;Node12</title>
<path fill="none" stroke="#404040" d="M537,-1406.5C537,-1396.53 537,-1384.38 537,-1370.92"/>
<polygon fill="none" stroke="#404040" points="537,-1370.77 533,-1364.77 537,-1358.77 541,-1364.77 537,-1370.77"/>
<text text-anchor="middle" x="557" y="-1380" font-family="Helvetica,sans-Serif" font-size="10.00"> #m_idx</text>
</g>
<!-- Node14 -->
<g id="node14" class="node"><title>Node14</title>
<g id="a_node14"><a xlink:title="STL class. ">
<polygon fill="white" stroke="#bfbfbf" points="613.5,-613 613.5,-670 678.5,-670 678.5,-613 613.5,-613"/>
<text text-anchor="middle" x="646" y="-658" font-family="Helvetica,sans-Serif" font-size="10.00">std::string</text>
<polyline fill="none" stroke="#bfbfbf" points="613.5,-651 678.5,-651 "/>
<text text-anchor="middle" x="646" y="-639" font-family="Helvetica,sans-Serif" font-size="10.00"> </text>
<polyline fill="none" stroke="#bfbfbf" points="613.5,-632 678.5,-632 "/>
<text text-anchor="middle" x="646" y="-620" font-family="Helvetica,sans-Serif" font-size="10.00"> </text>
</a>
</g>
</g>
<!-- Node14&#45;&gt;Node2 -->
<g id="edge14" class="edge"><title>Node14&#45;&gt;Node2</title>
<path fill="none" stroke="#404040" d="M638.487,-612.835C630.686,-587.106 616.827,-548.425 597,-519 576.651,-488.801 549.715,-459.855 523.612,-435.201"/>
<polygon fill="none" stroke="#404040" points="523.591,-435.181 516.473,-434.025 514.803,-427.009 521.921,-428.166 523.591,-435.181"/>
<text text-anchor="middle" x="610.5" y="-493" font-family="Helvetica,sans-Serif" font-size="10.00"> #m_name</text>
</g>
<!-- Node15 -->
<g id="node15" class="node"><title>Node15</title>
<g id="a_node15"><a xlink:title="STL class. ">
<polygon fill="white" stroke="#bfbfbf" points="600.5,-833.5 600.5,-901.5 703.5,-901.5 703.5,-833.5 600.5,-833.5"/>
<text text-anchor="start" x="608.5" y="-889.5" font-family="Helvetica,sans-Serif" font-size="10.00">std::basic_string&lt;</text>
<text text-anchor="middle" x="652" y="-878.5" font-family="Helvetica,sans-Serif" font-size="10.00"> char &gt;</text>
<polyline fill="none" stroke="#bfbfbf" points="600.5,-871.5 703.5,-871.5 "/>
<text text-anchor="middle" x="652" y="-859.5" font-family="Helvetica,sans-Serif" font-size="10.00"> </text>
<polyline fill="none" stroke="#bfbfbf" points="600.5,-852.5 703.5,-852.5 "/>
<text text-anchor="middle" x="652" y="-840.5" font-family="Helvetica,sans-Serif" font-size="10.00"> </text>
</a>
</g>
</g>
<!-- Node15&#45;&gt;Node14 -->
<g id="edge15" class="edge"><title>Node15&#45;&gt;Node14</title>
<path fill="none" stroke="midnightblue" d="M650.844,-823.346C649.632,-778.093 647.764,-708.343 646.738,-670.037"/>
<polygon fill="none" stroke="midnightblue" points="647.348,-823.545 651.115,-833.448 654.346,-823.358 647.348,-823.545"/>
</g>
</g>
</svg>
