<?xml version="1.0" encoding="UTF-8" standalone="no"?>
<!DOCTYPE svg PUBLIC "-//W3C//DTD SVG 1.1//EN"
 "http://www.w3.org/Graphics/SVG/1.1/DTD/svg11.dtd">
<!-- Generated by graphviz version 2.38.0 (20140413.2041)
 -->
<!-- Title: Ra::GuiBase::TransformEditor::setEditable Pages: 1 -->
<svg width="1215pt" height="554pt"
 viewBox="0.00 0.00 1215.00 554.34" xmlns="http://www.w3.org/2000/svg" xmlns:xlink="http://www.w3.org/1999/xlink">
<g id="graph0" class="graph" transform="scale(1 1) rotate(0) translate(4 550.345)">
<title>Ra::GuiBase::TransformEditor::setEditable</title>
<polygon fill="white" stroke="none" points="-4,4 -4,-550.345 1211,-550.345 1211,4 -4,4"/>
<!-- Node1 -->
<g id="node1" class="node"><title>Node1</title>
<polygon fill="#bfbfbf" stroke="black" points="0,-110.5 0,-140.5 155,-140.5 155,-110.5 0,-110.5"/>
<text text-anchor="start" x="8" y="-128.5" font-family="Helvetica,sans-Serif" font-size="10.00">Ra::GuiBase::TransformEditor</text>
<text text-anchor="middle" x="77.5" y="-117.5" font-family="Helvetica,sans-Serif" font-size="10.00">::setEditable</text>
</g>
<!-- Node2 -->
<g id="node2" class="node"><title>Node2</title>
<g id="a_node2"><a xlink:href="classRa_1_1GuiBase_1_1TransformEditor.html#aecdcc853ebf6b4ae1dab2c9ee56c96ef" target="_top" xlink:title="Ra::GuiBase::TransformEditor\l::getTransform">
<polygon fill="white" stroke="black" points="191,-110.5 191,-140.5 346,-140.5 346,-110.5 191,-110.5"/>
<text text-anchor="start" x="199" y="-128.5" font-family="Helvetica,sans-Serif" font-size="10.00">Ra::GuiBase::TransformEditor</text>
<text text-anchor="middle" x="268.5" y="-117.5" font-family="Helvetica,sans-Serif" font-size="10.00">::getTransform</text>
</a>
</g>
</g>
<!-- Node1&#45;&gt;Node2 -->
<g id="edge1" class="edge"><title>Node1&#45;&gt;Node2</title>
<path fill="none" stroke="midnightblue" d="M155.101,-125.5C163.559,-125.5 172.215,-125.5 180.786,-125.5"/>
<polygon fill="midnightblue" stroke="midnightblue" points="180.79,-129 190.79,-125.5 180.79,-122 180.79,-129"/>
</g>
<!-- Node3 -->
<g id="node3" class="node"><title>Node3</title>
<g id="a_node3"><a xlink:href="classRa_1_1GuiBase_1_1TransformEditor.html#ad21b8c46ad2d5c62e309eb16b104ee2f" target="_top" xlink:title="Ra::GuiBase::TransformEditor\l::canEdit">
<polygon fill="white" stroke="black" points="382,-214.5 382,-244.5 537,-244.5 537,-214.5 382,-214.5"/>
<text text-anchor="start" x="390" y="-232.5" font-family="Helvetica,sans-Serif" font-size="10.00">Ra::GuiBase::TransformEditor</text>
<text text-anchor="middle" x="459.5" y="-221.5" font-family="Helvetica,sans-Serif" font-size="10.00">::canEdit</text>
</a>
</g>
</g>
<!-- Node2&#45;&gt;Node3 -->
<g id="edge2" class="edge"><title>Node2&#45;&gt;Node3</title>
<path fill="none" stroke="midnightblue" d="M289.856,-140.765C311.805,-156.769 348.161,-181.979 382,-199.5 389.558,-203.413 397.747,-207.132 405.864,-210.534"/>
<polygon fill="midnightblue" stroke="midnightblue" points="404.734,-213.853 415.316,-214.375 407.369,-207.368 404.734,-213.853"/>
</g>
<!-- Node10 -->
<g id="node10" class="node"><title>Node10</title>
<g id="a_node10"><a xlink:href="structRa_1_1Engine_1_1ItemEntry.html#a898047549069e5b64d3a9a65c058af56" target="_top" xlink:title="Returns true if the item represents a render object. ">
<polygon fill="white" stroke="black" points="750.5,-197.5 750.5,-227.5 869.5,-227.5 869.5,-197.5 750.5,-197.5"/>
<text text-anchor="start" x="758.5" y="-215.5" font-family="Helvetica,sans-Serif" font-size="10.00">Ra::Engine::ItemEntry</text>
<text text-anchor="middle" x="810" y="-204.5" font-family="Helvetica,sans-Serif" font-size="10.00">::isRoNode</text>
</a>
</g>
</g>
<!-- Node2&#45;&gt;Node10 -->
<g id="edge29" class="edge"><title>Node2&#45;&gt;Node10</title>
<path fill="none" stroke="midnightblue" d="M344.154,-140.556C356.769,-142.969 369.745,-145.37 382,-147.5 508.012,-169.402 655.661,-190.974 740.176,-202.932"/>
<polygon fill="midnightblue" stroke="midnightblue" points="739.773,-206.41 750.164,-204.342 740.751,-199.479 739.773,-206.41"/>
</g>
<!-- Node17 -->
<g id="node17" class="node"><title>Node17</title>
<g id="a_node17"><a xlink:href="structRa_1_1Engine_1_1ItemEntry.html#a4823dfa3c113db71733979f1719f3b28" target="_top" xlink:title="Returns true if the item represents an entity. ">
<polygon fill="white" stroke="black" points="578,-126.5 578,-156.5 697,-156.5 697,-126.5 578,-126.5"/>
<text text-anchor="start" x="586" y="-144.5" font-family="Helvetica,sans-Serif" font-size="10.00">Ra::Engine::ItemEntry</text>
<text text-anchor="middle" x="637.5" y="-133.5" font-family="Helvetica,sans-Serif" font-size="10.00">::isEntityNode</text>
</a>
</g>
</g>
<!-- Node2&#45;&gt;Node17 -->
<g id="edge24" class="edge"><title>Node2&#45;&gt;Node17</title>
<path fill="none" stroke="midnightblue" d="M346.435,-128.854C411.741,-131.701 504.605,-135.75 567.53,-138.493"/>
<polygon fill="midnightblue" stroke="midnightblue" points="567.608,-142 577.751,-138.939 567.913,-135.006 567.608,-142"/>
</g>
<!-- Node19 -->
<g id="node19" class="node"><title>Node19</title>
<g id="a_node19"><a xlink:href="classRa_1_1Engine_1_1Entity.html#adfcfb0c0eb4e1663cd66473e74d83aa3" target="_top" xlink:title="Ra::Engine::Entity\l::getTransform">
<polygon fill="white" stroke="black" points="409.5,-88.5 409.5,-118.5 509.5,-118.5 509.5,-88.5 409.5,-88.5"/>
<text text-anchor="start" x="417.5" y="-106.5" font-family="Helvetica,sans-Serif" font-size="10.00">Ra::Engine::Entity</text>
<text text-anchor="middle" x="459.5" y="-95.5" font-family="Helvetica,sans-Serif" font-size="10.00">::getTransform</text>
</a>
</g>
</g>
<!-- Node2&#45;&gt;Node19 -->
<g id="edge25" class="edge"><title>Node2&#45;&gt;Node19</title>
<path fill="none" stroke="midnightblue" d="M346.101,-116.583C363.811,-114.522 382.392,-112.359 399.231,-110.399"/>
<polygon fill="midnightblue" stroke="midnightblue" points="399.939,-113.84 409.467,-109.208 399.13,-106.887 399.939,-113.84"/>
</g>
<!-- Node20 -->
<g id="node20" class="node"><title>Node20</title>
<g id="a_node20"><a xlink:href="structRa_1_1Engine_1_1ItemEntry.html#ac78e7430338c62ed664a16da7e3ea206" target="_top" xlink:title="Returns true if the item represents a component. ">
<polygon fill="white" stroke="black" points="750.5,-60.5 750.5,-90.5 869.5,-90.5 869.5,-60.5 750.5,-60.5"/>
<text text-anchor="start" x="758.5" y="-78.5" font-family="Helvetica,sans-Serif" font-size="10.00">Ra::Engine::ItemEntry</text>
<text text-anchor="middle" x="810" y="-67.5" font-family="Helvetica,sans-Serif" font-size="10.00">::isComponentNode</text>
</a>
</g>
</g>
<!-- Node2&#45;&gt;Node20 -->
<g id="edge26" class="edge"><title>Node2&#45;&gt;Node20</title>
<path fill="none" stroke="midnightblue" d="M297.191,-110.348C319.387,-99.0993 351.72,-84.6815 382,-78.5 506.241,-53.1364 655.083,-60.327 740.186,-67.8925"/>
<polygon fill="midnightblue" stroke="midnightblue" points="739.965,-71.3868 750.243,-68.8148 740.604,-64.416 739.965,-71.3868"/>
</g>
<!-- Node21 -->
<g id="node21" class="node"><title>Node21</title>
<g id="a_node21"><a xlink:href="classRa_1_1Engine_1_1Component.html#a5c71a807c02d05f6155ce08d633265d7" target="_top" xlink:title="Get the transform associated with the given RO index key. ">
<polygon fill="white" stroke="black" points="395,-0.5 395,-30.5 524,-30.5 524,-0.5 395,-0.5"/>
<text text-anchor="start" x="403" y="-18.5" font-family="Helvetica,sans-Serif" font-size="10.00">Ra::Engine::Component</text>
<text text-anchor="middle" x="459.5" y="-7.5" font-family="Helvetica,sans-Serif" font-size="10.00">::getTransform</text>
</a>
</g>
</g>
<!-- Node2&#45;&gt;Node21 -->
<g id="edge30" class="edge"><title>Node2&#45;&gt;Node21</title>
<path fill="none" stroke="midnightblue" d="M287.688,-110.431C309.204,-93.1252 346.588,-64.6593 382,-45.5 389.395,-41.499 397.44,-37.7502 405.443,-34.3494"/>
<polygon fill="midnightblue" stroke="midnightblue" points="406.853,-37.5544 414.778,-30.5229 404.198,-31.0774 406.853,-37.5544"/>
</g>
<!-- Node4 -->
<g id="node4" class="node"><title>Node4</title>
<g id="a_node4"><a xlink:href="structRa_1_1Engine_1_1ItemEntry.html#aceafc81a73631955b64999dd39a639da" target="_top" xlink:title="Returns true if the item represents any valid object. ">
<polygon fill="white" stroke="black" points="578,-361.5 578,-391.5 697,-391.5 697,-361.5 578,-361.5"/>
<text text-anchor="start" x="586" y="-379.5" font-family="Helvetica,sans-Serif" font-size="10.00">Ra::Engine::ItemEntry</text>
<text text-anchor="middle" x="637.5" y="-368.5" font-family="Helvetica,sans-Serif" font-size="10.00">::isValid</text>
</a>
</g>
</g>
<!-- Node3&#45;&gt;Node4 -->
<g id="edge3" class="edge"><title>Node3&#45;&gt;Node4</title>
<path fill="none" stroke="midnightblue" d="M478.672,-244.678C509.976,-270.824 574.182,-324.45 610.31,-354.626"/>
<polygon fill="midnightblue" stroke="midnightblue" points="608.508,-357.68 618.427,-361.405 612.995,-352.308 608.508,-357.68"/>
</g>
<!-- Node14 -->
<g id="node14" class="node"><title>Node14</title>
<g id="a_node14"><a xlink:href="structRa_1_1Engine_1_1ItemEntry.html#a09e294208d0896596a42a7a6c7e78f75" target="_top" xlink:title="Returns true if the item can be selected. ">
<polygon fill="white" stroke="black" points="578,-263.5 578,-293.5 697,-293.5 697,-263.5 578,-263.5"/>
<text text-anchor="start" x="586" y="-281.5" font-family="Helvetica,sans-Serif" font-size="10.00">Ra::Engine::ItemEntry</text>
<text text-anchor="middle" x="637.5" y="-270.5" font-family="Helvetica,sans-Serif" font-size="10.00">::isSelectable</text>
</a>
</g>
</g>
<!-- Node3&#45;&gt;Node14 -->
<g id="edge15" class="edge"><title>Node3&#45;&gt;Node14</title>
<path fill="none" stroke="midnightblue" d="M514.742,-244.601C533.062,-249.702 553.683,-255.443 572.675,-260.73"/>
<polygon fill="midnightblue" stroke="midnightblue" points="571.865,-264.138 582.437,-263.448 573.742,-257.395 571.865,-264.138"/>
</g>
<!-- Node3&#45;&gt;Node17 -->
<g id="edge21" class="edge"><title>Node3&#45;&gt;Node17</title>
<path fill="none" stroke="midnightblue" d="M490.755,-214.372C520.186,-199.657 565.043,-177.229 597.216,-161.142"/>
<polygon fill="midnightblue" stroke="midnightblue" points="598.966,-164.18 606.345,-156.577 595.836,-157.919 598.966,-164.18"/>
</g>
<!-- Node18 -->
<g id="node18" class="node"><title>Node18</title>
<g id="a_node18"><a xlink:href="classRa_1_1Engine_1_1Component.html#a2c33ddf042a2c56f81f39477d9b616d0" target="_top" xlink:title="Returns true if a transform can be edited with the render object index given as a key...">
<polygon fill="white" stroke="black" points="573,-214.5 573,-244.5 702,-244.5 702,-214.5 573,-214.5"/>
<text text-anchor="start" x="581" y="-232.5" font-family="Helvetica,sans-Serif" font-size="10.00">Ra::Engine::Component</text>
<text text-anchor="middle" x="637.5" y="-221.5" font-family="Helvetica,sans-Serif" font-size="10.00">::canEdit</text>
</a>
</g>
</g>
<!-- Node3&#45;&gt;Node18 -->
<g id="edge23" class="edge"><title>Node3&#45;&gt;Node18</title>
<path fill="none" stroke="midnightblue" d="M537.184,-229.5C545.68,-229.5 554.318,-229.5 562.776,-229.5"/>
<polygon fill="midnightblue" stroke="midnightblue" points="562.981,-233 572.981,-229.5 562.981,-226 562.981,-233"/>
</g>
<!-- Node5 -->
<g id="node5" class="node"><title>Node5</title>
<g id="a_node5"><a xlink:href="structRa_1_1Engine_1_1ItemEntry.html#a1fb9fdd74413a1fa5878f53c1cfcf8fd" target="_top" xlink:title="Debug checks. ">
<polygon fill="white" stroke="black" points="927,-104.5 927,-134.5 1046,-134.5 1046,-104.5 927,-104.5"/>
<text text-anchor="start" x="935" y="-122.5" font-family="Helvetica,sans-Serif" font-size="10.00">Ra::Engine::ItemEntry</text>
<text text-anchor="middle" x="986.5" y="-111.5" font-family="Helvetica,sans-Serif" font-size="10.00">::checkConsistency</text>
</a>
</g>
</g>
<!-- Node4&#45;&gt;Node5 -->
<g id="edge4" class="edge"><title>Node4&#45;&gt;Node5</title>
<path fill="none" stroke="midnightblue" d="M697.19,-373.308C760.08,-368.75 854.58,-358.259 882,-335.5 917.705,-305.864 898.411,-279.564 918,-237.5 933.744,-203.691 955.771,-166.659 970.325,-143.266"/>
<polygon fill="midnightblue" stroke="midnightblue" points="973.343,-145.041 975.694,-134.71 967.414,-141.32 973.343,-145.041"/>
</g>
<!-- Node7 -->
<g id="node7" class="node"><title>Node7</title>
<g id="a_node7"><a xlink:href="classRa_1_1Engine_1_1RadiumEngine.html#a79f6626ce468268791bc5bdfe17b5586" target="_top" xlink:title="Get the entity manager attached to the engine. ">
<polygon fill="white" stroke="black" points="739.5,-481.5 739.5,-511.5 880.5,-511.5 880.5,-481.5 739.5,-481.5"/>
<text text-anchor="start" x="747.5" y="-499.5" font-family="Helvetica,sans-Serif" font-size="10.00">Ra::Engine::RadiumEngine</text>
<text text-anchor="middle" x="810" y="-488.5" font-family="Helvetica,sans-Serif" font-size="10.00">::getEntityManager</text>
</a>
</g>
</g>
<!-- Node4&#45;&gt;Node7 -->
<g id="edge6" class="edge"><title>Node4&#45;&gt;Node7</title>
<path fill="none" stroke="midnightblue" d="M650.417,-391.619C667.655,-412.551 701.502,-450.286 738,-472.5 740.779,-474.191 743.692,-475.781 746.687,-477.273"/>
<polygon fill="midnightblue" stroke="midnightblue" points="745.312,-480.493 755.863,-481.459 748.218,-474.124 745.312,-480.493"/>
</g>
<!-- Node8 -->
<g id="node8" class="node"><title>Node8</title>
<g id="a_node8"><a xlink:href="classRa_1_1Engine_1_1EntityManager.html#a5115cccae6aaef614ad4bd08e64d8185" target="_top" xlink:title="Check wether an entity with a given name exists or not. ">
<polygon fill="white" stroke="black" points="739,-432.5 739,-462.5 881,-462.5 881,-432.5 739,-432.5"/>
<text text-anchor="start" x="747" y="-450.5" font-family="Helvetica,sans-Serif" font-size="10.00">Ra::Engine::EntityManager</text>
<text text-anchor="middle" x="810" y="-439.5" font-family="Helvetica,sans-Serif" font-size="10.00">::entityExists</text>
</a>
</g>
</g>
<!-- Node4&#45;&gt;Node8 -->
<g id="edge7" class="edge"><title>Node4&#45;&gt;Node8</title>
<path fill="none" stroke="midnightblue" d="M668.144,-391.604C687.721,-401.304 714.084,-413.847 738,-423.5 742.513,-425.322 747.224,-427.123 751.977,-428.872"/>
<polygon fill="midnightblue" stroke="midnightblue" points="751.15,-432.294 761.745,-432.377 753.514,-425.705 751.15,-432.294"/>
</g>
<!-- Node9 -->
<g id="node9" class="node"><title>Node9</title>
<g id="a_node9"><a xlink:href="classRa_1_1Engine_1_1Entity.html#aaf256bea44bbc5bff6aa504aca05ca35" target="_top" xlink:title="Ra::Engine::Entity\l::getName">
<polygon fill="white" stroke="black" points="760,-383.5 760,-413.5 860,-413.5 860,-383.5 760,-383.5"/>
<text text-anchor="start" x="768" y="-401.5" font-family="Helvetica,sans-Serif" font-size="10.00">Ra::Engine::Entity</text>
<text text-anchor="middle" x="810" y="-390.5" font-family="Helvetica,sans-Serif" font-size="10.00">::getName</text>
</a>
</g>
</g>
<!-- Node4&#45;&gt;Node9 -->
<g id="edge8" class="edge"><title>Node4&#45;&gt;Node9</title>
<path fill="none" stroke="midnightblue" d="M697.176,-384.071C714.088,-386.253 732.55,-388.635 749.51,-390.824"/>
<polygon fill="midnightblue" stroke="midnightblue" points="749.483,-394.349 759.849,-392.158 750.379,-387.407 749.483,-394.349"/>
</g>
<!-- Node4&#45;&gt;Node10 -->
<g id="edge9" class="edge"><title>Node4&#45;&gt;Node10</title>
<path fill="none" stroke="midnightblue" d="M653.412,-361.359C666.992,-347.128 687.135,-324.876 702,-303.5 721.076,-276.068 712.552,-259.153 738,-237.5 740.003,-235.796 742.13,-234.205 744.349,-232.72"/>
<polygon fill="midnightblue" stroke="midnightblue" points="746.419,-235.564 753.296,-227.504 742.894,-229.517 746.419,-235.564"/>
</g>
<!-- Node12 -->
<g id="node12" class="node"><title>Node12</title>
<g id="a_node12"><a xlink:href="classRa_1_1Engine_1_1RadiumEngine.html#a58b27bc600ea769f68b0e2938abc7862" target="_top" xlink:title="Manager getters. ">
<polygon fill="white" stroke="black" points="738,-295.5 738,-325.5 882,-325.5 882,-295.5 738,-295.5"/>
<text text-anchor="start" x="746" y="-313.5" font-family="Helvetica,sans-Serif" font-size="10.00">Ra::Engine::RadiumEngine</text>
<text text-anchor="middle" x="810" y="-302.5" font-family="Helvetica,sans-Serif" font-size="10.00">::getRenderObjectManager</text>
</a>
</g>
</g>
<!-- Node4&#45;&gt;Node12 -->
<g id="edge12" class="edge"><title>Node4&#45;&gt;Node12</title>
<path fill="none" stroke="midnightblue" d="M677.616,-361.358C702.309,-351.8 734.391,-339.381 760.671,-329.208"/>
<polygon fill="midnightblue" stroke="midnightblue" points="762.004,-332.445 770.066,-325.571 759.477,-325.917 762.004,-332.445"/>
</g>
<!-- Node13 -->
<g id="node13" class="node"><title>Node13</title>
<g id="a_node13"><a xlink:href="classRa_1_1Engine_1_1RenderObjectManager.html#a088feae4339349a81b7b6635b38aead1" target="_top" xlink:title="Returns true if the index points to a valid render object. ">
<polygon fill="white" stroke="black" points="918,-246.5 918,-276.5 1055,-276.5 1055,-246.5 918,-246.5"/>
<text text-anchor="start" x="926" y="-264.5" font-family="Helvetica,sans-Serif" font-size="10.00">Ra::Engine::RenderObject</text>
<text text-anchor="middle" x="986.5" y="-253.5" font-family="Helvetica,sans-Serif" font-size="10.00">Manager::exists</text>
</a>
</g>
</g>
<!-- Node4&#45;&gt;Node13 -->
<g id="edge13" class="edge"><title>Node4&#45;&gt;Node13</title>
<path fill="none" stroke="midnightblue" d="M643.439,-391.59C654.548,-422.717 684.783,-493.476 738,-521.5 794.628,-551.32 829.033,-557.424 882,-521.5 961.747,-467.412 980.051,-341.072 984.25,-286.9"/>
<polygon fill="midnightblue" stroke="midnightblue" points="987.752,-286.991 984.933,-276.778 980.768,-286.52 987.752,-286.991"/>
</g>
<!-- Node6 -->
<g id="node6" class="node"><title>Node6</title>
<g id="a_node6"><a xlink:href="classRa_1_1Core_1_1Utils_1_1Index.html#ac7d6c68387fe147f7a13668ac30a4533" target="_top" xlink:title="INVALID. ">
<polygon fill="white" stroke="black" points="1091,-82.5 1091,-112.5 1207,-112.5 1207,-82.5 1091,-82.5"/>
<text text-anchor="start" x="1099" y="-100.5" font-family="Helvetica,sans-Serif" font-size="10.00">Ra::Core::Utils::Index</text>
<text text-anchor="middle" x="1149" y="-89.5" font-family="Helvetica,sans-Serif" font-size="10.00">::isInvalid</text>
</a>
</g>
</g>
<!-- Node5&#45;&gt;Node6 -->
<g id="edge5" class="edge"><title>Node5&#45;&gt;Node6</title>
<path fill="none" stroke="midnightblue" d="M1046.35,-111.433C1057.56,-109.896 1069.37,-108.277 1080.82,-106.709"/>
<polygon fill="midnightblue" stroke="midnightblue" points="1081.33,-110.172 1090.76,-105.346 1080.38,-103.236 1081.33,-110.172"/>
</g>
<!-- Node10&#45;&gt;Node5 -->
<g id="edge10" class="edge"><title>Node10&#45;&gt;Node5</title>
<path fill="none" stroke="midnightblue" d="M860.943,-197.472C868.133,-194.778 875.344,-191.773 882,-188.5 909.301,-175.076 937.897,-155.532 958.096,-140.668"/>
<polygon fill="midnightblue" stroke="midnightblue" points="960.286,-143.4 966.21,-134.616 956.101,-137.789 960.286,-143.4"/>
</g>
<!-- Node11 -->
<g id="node11" class="node"><title>Node11</title>
<g id="a_node11"><a xlink:href="classRa_1_1Core_1_1Utils_1_1Index.html#ac7a1b710e6b95834a562c27e2f6c0f4b" target="_top" xlink:title="DESTRUCTOR: Must not be defined, we need it trivial to be constexpr. ">
<polygon fill="white" stroke="black" points="1091,-222.5 1091,-252.5 1207,-252.5 1207,-222.5 1091,-222.5"/>
<text text-anchor="start" x="1099" y="-240.5" font-family="Helvetica,sans-Serif" font-size="10.00">Ra::Core::Utils::Index</text>
<text text-anchor="middle" x="1149" y="-229.5" font-family="Helvetica,sans-Serif" font-size="10.00">::isValid</text>
</a>
</g>
</g>
<!-- Node10&#45;&gt;Node11 -->
<g id="edge11" class="edge"><title>Node10&#45;&gt;Node11</title>
<path fill="none" stroke="midnightblue" d="M869.701,-216.855C928.561,-221.221 1019.08,-227.936 1080.79,-232.514"/>
<polygon fill="midnightblue" stroke="midnightblue" points="1080.58,-236.008 1090.81,-233.258 1081.1,-229.027 1080.58,-236.008"/>
</g>
<!-- Node13&#45;&gt;Node11 -->
<g id="edge14" class="edge"><title>Node13&#45;&gt;Node11</title>
<path fill="none" stroke="midnightblue" d="M1055.1,-251.391C1063.66,-250.112 1072.42,-248.802 1080.97,-247.524"/>
<polygon fill="midnightblue" stroke="midnightblue" points="1081.51,-250.981 1090.88,-246.041 1080.48,-244.058 1081.51,-250.981"/>
</g>
<!-- Node14&#45;&gt;Node10 -->
<g id="edge17" class="edge"><title>Node14&#45;&gt;Node10</title>
<path fill="none" stroke="midnightblue" d="M679.681,-263.484C687.15,-260.605 694.839,-257.538 702,-254.5 718.289,-247.589 721.634,-244.225 738,-237.5 743.343,-235.305 748.958,-233.122 754.591,-231.013"/>
<polygon fill="midnightblue" stroke="midnightblue" points="755.862,-234.275 764.044,-227.545 753.451,-227.703 755.862,-234.275"/>
</g>
<!-- Node14&#45;&gt;Node12 -->
<g id="edge18" class="edge"><title>Node14&#45;&gt;Node12</title>
<path fill="none" stroke="midnightblue" d="M697.176,-289.513C707.104,-291.376 717.566,-293.339 727.945,-295.287"/>
<polygon fill="midnightblue" stroke="midnightblue" points="727.376,-298.742 737.85,-297.146 728.667,-291.862 727.376,-298.742"/>
</g>
<!-- Node15 -->
<g id="node15" class="node"><title>Node15</title>
<g id="a_node15"><a xlink:href="classRa_1_1Core_1_1Utils_1_1IndexedObject.html#accf1e1447b2ed890b10080fb44a91e6c" target="_top" xlink:title="Ra::Core::Utils::Indexed\lObject::getIndex">
<polygon fill="white" stroke="black" points="746,-148.5 746,-178.5 874,-178.5 874,-148.5 746,-148.5"/>
<text text-anchor="start" x="754" y="-166.5" font-family="Helvetica,sans-Serif" font-size="10.00">Ra::Core::Utils::Indexed</text>
<text text-anchor="middle" x="810" y="-155.5" font-family="Helvetica,sans-Serif" font-size="10.00">Object::getIndex</text>
</a>
</g>
</g>
<!-- Node14&#45;&gt;Node15 -->
<g id="edge16" class="edge"><title>Node14&#45;&gt;Node15</title>
<path fill="none" stroke="midnightblue" d="M688.971,-263.389C693.647,-260.849 698.089,-257.905 702,-254.5 727.199,-232.558 712.552,-210.153 738,-188.5 740.003,-186.796 742.13,-185.205 744.349,-183.72"/>
<polygon fill="midnightblue" stroke="midnightblue" points="746.419,-186.564 753.296,-178.504 742.894,-180.517 746.419,-186.564"/>
</g>
<!-- Node16 -->
<g id="node16" class="node"><title>Node16</title>
<g id="a_node16"><a xlink:href="classRa_1_1Engine_1_1RenderObjectManager.html#a13fc919e9fa01bfb36e67bc9011d325f" target="_top" xlink:title="Returns the render object corresponding to the given index. ">
<polygon fill="white" stroke="black" points="738,-246.5 738,-276.5 882,-276.5 882,-246.5 738,-246.5"/>
<text text-anchor="start" x="746" y="-264.5" font-family="Helvetica,sans-Serif" font-size="10.00">Ra::Engine::RenderObject</text>
<text text-anchor="middle" x="810" y="-253.5" font-family="Helvetica,sans-Serif" font-size="10.00">Manager::getRenderObject</text>
</a>
</g>
</g>
<!-- Node14&#45;&gt;Node16 -->
<g id="edge19" class="edge"><title>Node14&#45;&gt;Node16</title>
<path fill="none" stroke="midnightblue" d="M697.176,-272.65C707.002,-271.67 717.35,-270.638 727.624,-269.614"/>
<polygon fill="midnightblue" stroke="midnightblue" points="728.247,-273.069 737.85,-268.594 727.552,-266.104 728.247,-273.069"/>
</g>
<!-- Node16&#45;&gt;Node13 -->
<g id="edge20" class="edge"><title>Node16&#45;&gt;Node13</title>
<path fill="none" stroke="midnightblue" d="M882.228,-261.5C890.602,-261.5 899.181,-261.5 907.641,-261.5"/>
<polygon fill="midnightblue" stroke="midnightblue" points="907.879,-265 917.879,-261.5 907.879,-258 907.879,-265"/>
</g>
<!-- Node17&#45;&gt;Node5 -->
<g id="edge22" class="edge"><title>Node17&#45;&gt;Node5</title>
<path fill="none" stroke="midnightblue" d="M697.364,-137.768C758.116,-133.916 852.811,-127.913 916.912,-123.849"/>
<polygon fill="midnightblue" stroke="midnightblue" points="917.169,-127.339 926.927,-123.214 916.726,-120.353 917.169,-127.339"/>
</g>
<!-- Node20&#45;&gt;Node5 -->
<g id="edge27" class="edge"><title>Node20&#45;&gt;Node5</title>
<path fill="none" stroke="midnightblue" d="M869.591,-90.2738C884.698,-94.083 901.095,-98.2174 916.671,-102.145"/>
<polygon fill="midnightblue" stroke="midnightblue" points="916.214,-105.639 926.766,-104.69 917.925,-98.8515 916.214,-105.639"/>
</g>
<!-- Node20&#45;&gt;Node6 -->
<g id="edge28" class="edge"><title>Node20&#45;&gt;Node6</title>
<path fill="none" stroke="midnightblue" d="M869.701,-79.3321C928.561,-83.1746 1019.08,-89.084 1080.79,-93.1122"/>
<polygon fill="midnightblue" stroke="midnightblue" points="1080.61,-96.6079 1090.81,-93.7668 1081.06,-89.6227 1080.61,-96.6079"/>
</g>
</g>
</svg>
