<?xml version="1.0" encoding="UTF-8" standalone="no"?>
<!DOCTYPE svg PUBLIC "-//W3C//DTD SVG 1.1//EN"
 "http://www.w3.org/Graphics/SVG/1.1/DTD/svg11.dtd">
<!-- Generated by graphviz version 2.38.0 (20140413.2041)
 -->
<!-- Title: /home/travis/build/STORM&#45;IRIT/Radium&#45;Engine/src/Engine/Managers/ComponentMessenger/ComponentMessenger.hpp Pages: 1 -->
<svg width="1043pt" height="352pt"
 viewBox="0.00 0.00 1043.18 352.00" xmlns="http://www.w3.org/2000/svg" xmlns:xlink="http://www.w3.org/1999/xlink">
<g id="graph0" class="graph" transform="scale(1 1) rotate(0) translate(4 348)">
<title>/home/travis/build/STORM&#45;IRIT/Radium&#45;Engine/src/Engine/Managers/ComponentMessenger/ComponentMessenger.hpp</title>
<polygon fill="white" stroke="none" points="-4,4 -4,-348 1039.18,-348 1039.18,4 -4,4"/>
<!-- Node1 -->
<g id="node1" class="node"><title>Node1</title>
<polygon fill="#bfbfbf" stroke="black" points="314.677,-291.5 314.677,-343.5 545.677,-343.5 545.677,-291.5 314.677,-291.5"/>
<text text-anchor="start" x="322.677" y="-331.5" font-family="Helvetica,sans-Serif" font-size="10.00">/home/travis/build</text>
<text text-anchor="start" x="322.677" y="-320.5" font-family="Helvetica,sans-Serif" font-size="10.00">/STORM&#45;IRIT/Radium&#45;Engine</text>
<text text-anchor="start" x="322.677" y="-309.5" font-family="Helvetica,sans-Serif" font-size="10.00">/src/Engine/Managers/ComponentMessenger</text>
<text text-anchor="middle" x="430.177" y="-298.5" font-family="Helvetica,sans-Serif" font-size="10.00">/ComponentMessenger.hpp</text>
</g>
<!-- Node2 -->
<g id="node2" class="node"><title>Node2</title>
<g id="a_node2"><a xlink:href="RaEngine_8hpp.html" target="_top" xlink:title="Engine/RaEngine.hpp">
<polygon fill="white" stroke="black" points="284.677,-168.5 284.677,-187.5 401.677,-187.5 401.677,-168.5 284.677,-168.5"/>
<text text-anchor="middle" x="343.177" y="-175.5" font-family="Helvetica,sans-Serif" font-size="10.00">Engine/RaEngine.hpp</text>
</a>
</g>
</g>
<!-- Node1&#45;&gt;Node2 -->
<g id="edge1" class="edge"><title>Node1&#45;&gt;Node2</title>
<path fill="none" stroke="midnightblue" d="M414.935,-291.222C403.591,-272.543 387.634,-246.549 373.177,-224 367.212,-214.696 360.39,-204.435 354.761,-196.064"/>
<polygon fill="midnightblue" stroke="midnightblue" points="357.518,-193.894 349.02,-187.567 351.718,-197.812 357.518,-193.894"/>
</g>
<!-- Node6 -->
<g id="node6" class="node"><title>Node6</title>
<polygon fill="white" stroke="#bfbfbf" points="400.677,-0.5 400.677,-19.5 459.677,-19.5 459.677,-0.5 400.677,-0.5"/>
<text text-anchor="middle" x="430.177" y="-7.5" font-family="Helvetica,sans-Serif" font-size="10.00">iostream</text>
</g>
<!-- Node1&#45;&gt;Node6 -->
<g id="edge9" class="edge"><title>Node1&#45;&gt;Node6</title>
<path fill="none" stroke="midnightblue" d="M430.177,-291.158C430.177,-263.569 430.177,-218.149 430.177,-179 430.177,-179 430.177,-179 430.177,-121 430.177,-88.948 430.177,-51.6426 430.177,-29.7489"/>
<polygon fill="midnightblue" stroke="midnightblue" points="433.677,-29.5577 430.177,-19.5578 426.677,-29.5578 433.677,-29.5577"/>
</g>
<!-- Node9 -->
<g id="node9" class="node"><title>Node9</title>
<polygon fill="white" stroke="#bfbfbf" points="22.677,-112.5 22.677,-131.5 85.677,-131.5 85.677,-112.5 22.677,-112.5"/>
<text text-anchor="middle" x="54.177" y="-119.5" font-family="Helvetica,sans-Serif" font-size="10.00">functional</text>
</g>
<!-- Node1&#45;&gt;Node9 -->
<g id="edge8" class="edge"><title>Node1&#45;&gt;Node9</title>
<path fill="none" stroke="midnightblue" d="M314.599,-315.842C204.411,-312.465 49.7194,-299.613 11.177,-255 -18.2541,-220.934 18.1539,-166.308 39.9925,-139.259"/>
<polygon fill="midnightblue" stroke="midnightblue" points="42.7435,-141.425 46.4692,-131.507 37.3716,-136.937 42.7435,-141.425"/>
</g>
<!-- Node10 -->
<g id="node10" class="node"><title>Node10</title>
<polygon fill="white" stroke="#bfbfbf" points="702.677,-230 702.677,-249 759.677,-249 759.677,-230 702.677,-230"/>
<text text-anchor="middle" x="731.177" y="-237" font-family="Helvetica,sans-Serif" font-size="10.00">memory</text>
</g>
<!-- Node1&#45;&gt;Node10 -->
<g id="edge10" class="edge"><title>Node1&#45;&gt;Node10</title>
<path fill="none" stroke="midnightblue" d="M545.968,-292.961C592.139,-282.659 645.538,-269.586 693.177,-255 695.599,-254.258 698.089,-253.44 700.579,-252.581"/>
<polygon fill="midnightblue" stroke="midnightblue" points="701.845,-255.845 710.049,-249.141 699.455,-249.265 701.845,-255.845"/>
</g>
<!-- Node11 -->
<g id="node11" class="node"><title>Node11</title>
<polygon fill="white" stroke="#bfbfbf" points="777.677,-230 777.677,-249 840.677,-249 840.677,-230 777.677,-230"/>
<text text-anchor="middle" x="809.177" y="-237" font-family="Helvetica,sans-Serif" font-size="10.00">typeindex</text>
</g>
<!-- Node1&#45;&gt;Node11 -->
<g id="edge11" class="edge"><title>Node1&#45;&gt;Node11</title>
<path fill="none" stroke="midnightblue" d="M545.783,-300.159C611.547,-289.698 695.118,-274.432 768.177,-255 771.146,-254.21 774.206,-253.305 777.255,-252.342"/>
<polygon fill="midnightblue" stroke="midnightblue" points="778.455,-255.631 786.823,-249.133 776.229,-248.994 778.455,-255.631"/>
</g>
<!-- Node12 -->
<g id="node12" class="node"><title>Node12</title>
<polygon fill="white" stroke="#bfbfbf" points="858.677,-230 858.677,-249 951.677,-249 951.677,-230 858.677,-230"/>
<text text-anchor="middle" x="905.177" y="-237" font-family="Helvetica,sans-Serif" font-size="10.00">unordered_map</text>
</g>
<!-- Node1&#45;&gt;Node12 -->
<g id="edge12" class="edge"><title>Node1&#45;&gt;Node12</title>
<path fill="none" stroke="midnightblue" d="M545.908,-302.916C630.365,-292.178 747.387,-275.586 849.177,-255 854.276,-253.969 859.604,-252.761 864.859,-251.491"/>
<polygon fill="midnightblue" stroke="midnightblue" points="865.949,-254.826 874.798,-249.001 864.247,-248.036 865.949,-254.826"/>
</g>
<!-- Node13 -->
<g id="node13" class="node"><title>Node13</title>
<polygon fill="white" stroke="#bfbfbf" points="458.677,-168.5 458.677,-187.5 505.677,-187.5 505.677,-168.5 458.677,-168.5"/>
<text text-anchor="middle" x="482.177" y="-175.5" font-family="Helvetica,sans-Serif" font-size="10.00">vector</text>
</g>
<!-- Node1&#45;&gt;Node13 -->
<g id="edge13" class="edge"><title>Node1&#45;&gt;Node13</title>
<path fill="none" stroke="midnightblue" d="M439.715,-291.28C450.033,-263.996 466.228,-221.173 475.346,-197.062"/>
<polygon fill="midnightblue" stroke="midnightblue" points="478.624,-198.291 478.887,-187.699 472.076,-195.814 478.624,-198.291"/>
</g>
<!-- Node14 -->
<g id="node14" class="node"><title>Node14</title>
<g id="a_node14"><a xlink:href="Singleton_8hpp.html" target="_top" xlink:title="Core/Utils/Singleton.hpp">
<polygon fill="white" stroke="black" points="232.177,-230 232.177,-249 364.177,-249 364.177,-230 232.177,-230"/>
<text text-anchor="middle" x="298.177" y="-237" font-family="Helvetica,sans-Serif" font-size="10.00">Core/Utils/Singleton.hpp</text>
</a>
</g>
</g>
<!-- Node1&#45;&gt;Node14 -->
<g id="edge14" class="edge"><title>Node1&#45;&gt;Node14</title>
<path fill="none" stroke="midnightblue" d="M386.589,-291.404C364.975,-278.959 339.721,-264.419 321.751,-254.073"/>
<polygon fill="midnightblue" stroke="midnightblue" points="323.488,-251.034 313.075,-249.078 319.995,-257.101 323.488,-251.034"/>
</g>
<!-- Node16 -->
<g id="node16" class="node"><title>Node16</title>
<g id="a_node16"><a xlink:href="Component_8hpp.html" target="_top" xlink:title="Engine/Component/Component.hpp">
<polygon fill="white" stroke="black" points="496.177,-230 496.177,-249 684.177,-249 684.177,-230 496.177,-230"/>
<text text-anchor="middle" x="590.177" y="-237" font-family="Helvetica,sans-Serif" font-size="10.00">Engine/Component/Component.hpp</text>
</a>
</g>
</g>
<!-- Node1&#45;&gt;Node16 -->
<g id="edge17" class="edge"><title>Node1&#45;&gt;Node16</title>
<path fill="none" stroke="midnightblue" d="M483.01,-291.404C509.691,-278.731 540.945,-263.885 562.792,-253.508"/>
<polygon fill="midnightblue" stroke="midnightblue" points="564.587,-256.53 572.118,-249.078 561.584,-250.207 564.587,-256.53"/>
</g>
<!-- Node23 -->
<g id="node23" class="node"><title>Node23</title>
<g id="a_node23"><a xlink:href="ComponentMessenger_8inl.html" target="_top" xlink:title="Engine/Managers/Component\lMessenger/ComponentMessenger.inl">
<polygon fill="white" stroke="black" points="20.177,-224.5 20.177,-254.5 214.177,-254.5 214.177,-224.5 20.177,-224.5"/>
<text text-anchor="start" x="28.177" y="-242.5" font-family="Helvetica,sans-Serif" font-size="10.00">Engine/Managers/Component</text>
<text text-anchor="middle" x="117.177" y="-231.5" font-family="Helvetica,sans-Serif" font-size="10.00">Messenger/ComponentMessenger.inl</text>
</a>
</g>
</g>
<!-- Node1&#45;&gt;Node23 -->
<g id="edge27" class="edge"><title>Node1&#45;&gt;Node23</title>
<path fill="none" stroke="midnightblue" d="M320.43,-291.404C273.324,-280.124 220.013,-267.123 179.784,-257.083"/>
<polygon fill="midnightblue" stroke="midnightblue" points="180.4,-253.629 169.85,-254.597 178.701,-260.42 180.4,-253.629"/>
</g>
<!-- Node3 -->
<g id="node3" class="node"><title>Node3</title>
<g id="a_node3"><a xlink:href="CoreMacros_8hpp.html" target="_top" xlink:title="Core/CoreMacros.hpp">
<polygon fill="white" stroke="black" points="225.177,-56.5 225.177,-75.5 345.177,-75.5 345.177,-56.5 225.177,-56.5"/>
<text text-anchor="middle" x="285.177" y="-63.5" font-family="Helvetica,sans-Serif" font-size="10.00">Core/CoreMacros.hpp</text>
</a>
</g>
</g>
<!-- Node2&#45;&gt;Node3 -->
<g id="edge2" class="edge"><title>Node2&#45;&gt;Node3</title>
<path fill="none" stroke="midnightblue" d="M339.826,-168.387C334.8,-155.75 324.764,-131.561 314.177,-112 309.034,-102.498 302.582,-92.3461 297.07,-84.0943"/>
<polygon fill="midnightblue" stroke="midnightblue" points="299.889,-82.0152 291.367,-75.7208 294.104,-85.956 299.889,-82.0152"/>
</g>
<!-- Node4 -->
<g id="node4" class="node"><title>Node4</title>
<polygon fill="white" stroke="#bfbfbf" points="192.177,-0.5 192.177,-19.5 244.177,-19.5 244.177,-0.5 192.177,-0.5"/>
<text text-anchor="middle" x="218.177" y="-7.5" font-family="Helvetica,sans-Serif" font-size="10.00">cassert</text>
</g>
<!-- Node3&#45;&gt;Node4 -->
<g id="edge3" class="edge"><title>Node3&#45;&gt;Node4</title>
<path fill="none" stroke="midnightblue" d="M274.412,-56.324C264.411,-48.2631 249.29,-36.0765 237.247,-26.3695"/>
<polygon fill="midnightblue" stroke="midnightblue" points="239.12,-23.3841 229.138,-19.8339 234.727,-28.8343 239.12,-23.3841"/>
</g>
<!-- Node5 -->
<g id="node5" class="node"><title>Node5</title>
<polygon fill="white" stroke="#bfbfbf" points="262.677,-0.5 262.677,-19.5 307.677,-19.5 307.677,-0.5 262.677,-0.5"/>
<text text-anchor="middle" x="285.177" y="-7.5" font-family="Helvetica,sans-Serif" font-size="10.00">cstdio</text>
</g>
<!-- Node3&#45;&gt;Node5 -->
<g id="edge4" class="edge"><title>Node3&#45;&gt;Node5</title>
<path fill="none" stroke="midnightblue" d="M285.177,-56.083C285.177,-49.0059 285.177,-38.8611 285.177,-29.9865"/>
<polygon fill="midnightblue" stroke="midnightblue" points="288.677,-29.751 285.177,-19.7511 281.677,-29.7511 288.677,-29.751"/>
</g>
<!-- Node3&#45;&gt;Node6 -->
<g id="edge5" class="edge"><title>Node3&#45;&gt;Node6</title>
<path fill="none" stroke="midnightblue" d="M308.153,-56.4435C332.334,-47.4381 370.595,-33.1891 397.823,-23.049"/>
<polygon fill="midnightblue" stroke="midnightblue" points="399.159,-26.2864 407.309,-19.5164 396.716,-19.7265 399.159,-26.2864"/>
</g>
<!-- Node7 -->
<g id="node7" class="node"><title>Node7</title>
<polygon fill="white" stroke="#bfbfbf" points="326.177,-0.5 326.177,-19.5 382.177,-19.5 382.177,-0.5 326.177,-0.5"/>
<text text-anchor="middle" x="354.177" y="-7.5" font-family="Helvetica,sans-Serif" font-size="10.00">sstream</text>
</g>
<!-- Node3&#45;&gt;Node7 -->
<g id="edge6" class="edge"><title>Node3&#45;&gt;Node7</title>
<path fill="none" stroke="midnightblue" d="M296.263,-56.324C306.663,-48.1849 322.438,-35.8395 334.899,-26.0874"/>
<polygon fill="midnightblue" stroke="midnightblue" points="337.171,-28.7533 342.889,-19.8339 332.857,-23.2407 337.171,-28.7533"/>
</g>
<!-- Node8 -->
<g id="node8" class="node"><title>Node8</title>
<polygon fill="white" stroke="#bfbfbf" points="126.177,-0.5 126.177,-19.5 174.177,-19.5 174.177,-0.5 126.177,-0.5"/>
<text text-anchor="middle" x="150.177" y="-7.5" font-family="Helvetica,sans-Serif" font-size="10.00">thread</text>
</g>
<!-- Node3&#45;&gt;Node8 -->
<g id="edge7" class="edge"><title>Node3&#45;&gt;Node8</title>
<path fill="none" stroke="midnightblue" d="M263.786,-56.4435C241.47,-47.5171 206.274,-33.4387 180.969,-23.3168"/>
<polygon fill="midnightblue" stroke="midnightblue" points="182.053,-19.9807 171.468,-19.5164 179.453,-26.4801 182.053,-19.9807"/>
</g>
<!-- Node15 -->
<g id="node15" class="node"><title>Node15</title>
<g id="a_node15"><a xlink:href="RaCore_8hpp.html" target="_top" xlink:title="Core/RaCore.hpp">
<polygon fill="white" stroke="black" points="207.177,-112.5 207.177,-131.5 305.177,-131.5 305.177,-112.5 207.177,-112.5"/>
<text text-anchor="middle" x="256.177" y="-119.5" font-family="Helvetica,sans-Serif" font-size="10.00">Core/RaCore.hpp</text>
</a>
</g>
</g>
<!-- Node14&#45;&gt;Node15 -->
<g id="edge15" class="edge"><title>Node14&#45;&gt;Node15</title>
<path fill="none" stroke="midnightblue" d="M293.714,-229.722C288.766,-219.774 280.749,-202.99 275.177,-188 269.417,-172.503 264.252,-154.418 260.766,-141.264"/>
<polygon fill="midnightblue" stroke="midnightblue" points="264.144,-140.348 258.257,-131.54 257.366,-142.097 264.144,-140.348"/>
</g>
<!-- Node15&#45;&gt;Node3 -->
<g id="edge16" class="edge"><title>Node15&#45;&gt;Node3</title>
<path fill="none" stroke="midnightblue" d="M260.966,-112.083C264.935,-104.691 270.702,-93.9533 275.612,-84.8111"/>
<polygon fill="midnightblue" stroke="midnightblue" points="278.83,-86.217 280.477,-75.7511 272.663,-82.9051 278.83,-86.217"/>
</g>
<!-- Node16&#45;&gt;Node2 -->
<g id="edge23" class="edge"><title>Node16&#45;&gt;Node2</title>
<path fill="none" stroke="midnightblue" d="M554.788,-229.975C510.951,-219.415 436.211,-201.411 388.297,-189.869"/>
<polygon fill="midnightblue" stroke="midnightblue" points="389.042,-186.448 378.5,-187.509 387.403,-193.254 389.042,-186.448"/>
</g>
<!-- Node16&#45;&gt;Node13 -->
<g id="edge24" class="edge"><title>Node16&#45;&gt;Node13</title>
<path fill="none" stroke="midnightblue" d="M574.703,-229.975C556.899,-220.166 527.436,-203.935 506.545,-192.425"/>
<polygon fill="midnightblue" stroke="midnightblue" points="508.07,-189.269 497.622,-187.509 504.692,-195.4 508.07,-189.269"/>
</g>
<!-- Node17 -->
<g id="node17" class="node"><title>Node17</title>
<g id="a_node17"><a xlink:href="Index_8hpp.html" target="_top" xlink:title="Core/Utils/Index.hpp">
<polygon fill="white" stroke="black" points="835.677,-168.5 835.677,-187.5 948.677,-187.5 948.677,-168.5 835.677,-168.5"/>
<text text-anchor="middle" x="892.177" y="-175.5" font-family="Helvetica,sans-Serif" font-size="10.00">Core/Utils/Index.hpp</text>
</a>
</g>
</g>
<!-- Node16&#45;&gt;Node17 -->
<g id="edge18" class="edge"><title>Node16&#45;&gt;Node17</title>
<path fill="none" stroke="midnightblue" d="M633.446,-229.975C687.605,-219.305 780.343,-201.034 838.838,-189.509"/>
<polygon fill="midnightblue" stroke="midnightblue" points="839.853,-192.876 848.988,-187.509 838.5,-186.008 839.853,-192.876"/>
</g>
<!-- Node20 -->
<g id="node20" class="node"><title>Node20</title>
<polygon fill="white" stroke="#bfbfbf" points="967.177,-168.5 967.177,-187.5 1035.18,-187.5 1035.18,-168.5 967.177,-168.5"/>
<text text-anchor="middle" x="1001.18" y="-175.5" font-family="Helvetica,sans-Serif" font-size="10.00">Eigen/Core</text>
</g>
<!-- Node16&#45;&gt;Node20 -->
<g id="edge21" class="edge"><title>Node16&#45;&gt;Node20</title>
<path fill="none" stroke="midnightblue" d="M650.354,-229.984C664.405,-228.008 679.314,-225.921 693.177,-224 810.475,-207.746 840.438,-207.876 957.177,-188 957.278,-187.983 957.379,-187.966 957.48,-187.948"/>
<polygon fill="midnightblue" stroke="midnightblue" points="957.895,-191.43 967.109,-186.2 956.645,-184.543 957.895,-191.43"/>
</g>
<!-- Node21 -->
<g id="node21" class="node"><title>Node21</title>
<polygon fill="white" stroke="#bfbfbf" points="524.177,-168.5 524.177,-187.5 618.177,-187.5 618.177,-168.5 524.177,-168.5"/>
<text text-anchor="middle" x="571.177" y="-175.5" font-family="Helvetica,sans-Serif" font-size="10.00">Eigen/Geometry</text>
</g>
<!-- Node16&#45;&gt;Node21 -->
<g id="edge22" class="edge"><title>Node16&#45;&gt;Node21</title>
<path fill="none" stroke="midnightblue" d="M587.455,-229.975C584.746,-221.492 580.503,-208.204 577.028,-197.322"/>
<polygon fill="midnightblue" stroke="midnightblue" points="580.27,-195.97 573.894,-187.509 573.602,-198.1 580.27,-195.97"/>
</g>
<!-- Node22 -->
<g id="node22" class="node"><title>Node22</title>
<g id="a_node22"><a xlink:href="Component_8inl.html" target="_top" xlink:title="Engine/Component/Component.inl">
<polygon fill="white" stroke="black" points="636.677,-168.5 636.677,-187.5 817.677,-187.5 817.677,-168.5 636.677,-168.5"/>
<text text-anchor="middle" x="727.177" y="-175.5" font-family="Helvetica,sans-Serif" font-size="10.00">Engine/Component/Component.inl</text>
</a>
</g>
</g>
<!-- Node16&#45;&gt;Node22 -->
<g id="edge25" class="edge"><title>Node16&#45;&gt;Node22</title>
<path fill="none" stroke="midnightblue" d="M604.905,-229.975C625.995,-219.857 664.797,-202.905 693.143,-191.351"/>
<polygon fill="midnightblue" stroke="midnightblue" points="694.718,-194.49 702.688,-187.509 692.104,-187.996 694.718,-194.49"/>
</g>
<!-- Node18 -->
<g id="node18" class="node"><title>Node18</title>
<polygon fill="white" stroke="#bfbfbf" points="825.177,-112.5 825.177,-131.5 867.177,-131.5 867.177,-112.5 825.177,-112.5"/>
<text text-anchor="middle" x="846.177" y="-119.5" font-family="Helvetica,sans-Serif" font-size="10.00">limits</text>
</g>
<!-- Node17&#45;&gt;Node18 -->
<g id="edge19" class="edge"><title>Node17&#45;&gt;Node18</title>
<path fill="none" stroke="midnightblue" d="M884.581,-168.083C877.95,-160.298 868.156,-148.801 860.119,-139.367"/>
<polygon fill="midnightblue" stroke="midnightblue" points="862.781,-137.094 853.632,-131.751 857.452,-141.633 862.781,-137.094"/>
</g>
<!-- Node19 -->
<g id="node19" class="node"><title>Node19</title>
<g id="a_node19"><a xlink:href="Index_8inl.html" target="_top" xlink:title="Core/Utils/Index.inl">
<polygon fill="white" stroke="black" points="885.677,-112.5 885.677,-131.5 990.677,-131.5 990.677,-112.5 885.677,-112.5"/>
<text text-anchor="middle" x="938.177" y="-119.5" font-family="Helvetica,sans-Serif" font-size="10.00">Core/Utils/Index.inl</text>
</a>
</g>
</g>
<!-- Node17&#45;&gt;Node19 -->
<g id="edge20" class="edge"><title>Node17&#45;&gt;Node19</title>
<path fill="none" stroke="midnightblue" d="M899.773,-168.083C906.405,-160.298 916.198,-148.801 924.235,-139.367"/>
<polygon fill="midnightblue" stroke="midnightblue" points="926.902,-141.633 930.722,-131.751 921.573,-137.094 926.902,-141.633"/>
</g>
<!-- Node22&#45;&gt;Node16 -->
<g id="edge26" class="edge"><title>Node22&#45;&gt;Node16</title>
<path fill="none" stroke="midnightblue" d="M712.482,-187.509C691.41,-197.62 652.612,-214.572 624.255,-226.131"/>
<polygon fill="midnightblue" stroke="midnightblue" points="622.676,-222.994 614.706,-229.975 625.29,-229.488 622.676,-222.994"/>
</g>
<!-- Node23&#45;&gt;Node1 -->
<g id="edge28" class="edge"><title>Node23&#45;&gt;Node1</title>
<path fill="none" stroke="midnightblue" d="M180.62,-254.597C221.63,-264.242 275.974,-277.346 323.495,-289.015"/>
<polygon fill="midnightblue" stroke="midnightblue" points="322.667,-292.415 333.213,-291.404 324.338,-285.617 322.667,-292.415"/>
</g>
<!-- Node24 -->
<g id="node24" class="node"><title>Node24</title>
<g id="a_node24"><a xlink:href="StdUtils_8hpp.html" target="_top" xlink:title="Core/Utils/StdUtils.hpp">
<polygon fill="white" stroke="black" points="54.677,-168.5 54.677,-187.5 179.677,-187.5 179.677,-168.5 54.677,-168.5"/>
<text text-anchor="middle" x="117.177" y="-175.5" font-family="Helvetica,sans-Serif" font-size="10.00">Core/Utils/StdUtils.hpp</text>
</a>
</g>
</g>
<!-- Node23&#45;&gt;Node24 -->
<g id="edge29" class="edge"><title>Node23&#45;&gt;Node24</title>
<path fill="none" stroke="midnightblue" d="M117.177,-224.399C117.177,-216.466 117.177,-206.458 117.177,-197.858"/>
<polygon fill="midnightblue" stroke="midnightblue" points="120.677,-197.658 117.177,-187.658 113.677,-197.658 120.677,-197.658"/>
</g>
<!-- Node24&#45;&gt;Node9 -->
<g id="edge31" class="edge"><title>Node24&#45;&gt;Node9</title>
<path fill="none" stroke="midnightblue" d="M107.055,-168.324C97.6507,-160.263 83.4329,-148.077 72.108,-138.369"/>
<polygon fill="midnightblue" stroke="midnightblue" points="74.3536,-135.684 64.4832,-131.834 69.798,-140.999 74.3536,-135.684"/>
</g>
<!-- Node24&#45;&gt;Node15 -->
<g id="edge30" class="edge"><title>Node24&#45;&gt;Node15</title>
<path fill="none" stroke="midnightblue" d="M139.202,-168.444C162.281,-159.478 198.739,-145.314 224.818,-135.183"/>
<polygon fill="midnightblue" stroke="midnightblue" points="226.201,-138.4 234.255,-131.516 223.666,-131.875 226.201,-138.4"/>
</g>
</g>
</svg>
