<?xml version="1.0" encoding="UTF-8" standalone="no"?>
<!DOCTYPE svg PUBLIC "-//W3C//DTD SVG 1.1//EN"
 "http://www.w3.org/Graphics/SVG/1.1/DTD/svg11.dtd">
<!-- Generated by graphviz version 2.38.0 (20140413.2041)
 -->
<!-- Title: /home/travis/build/STORM&#45;IRIT/Radium&#45;Engine/src/Engine/Managers/ComponentMessenger/ComponentMessenger.inl Pages: 1 -->
<svg width="986pt" height="341pt"
 viewBox="0.00 0.00 986.00 341.00" xmlns="http://www.w3.org/2000/svg" xmlns:xlink="http://www.w3.org/1999/xlink">
<g id="graph0" class="graph" transform="scale(1 1) rotate(0) translate(4 337)">
<title>/home/travis/build/STORM&#45;IRIT/Radium&#45;Engine/src/Engine/Managers/ComponentMessenger/ComponentMessenger.inl</title>
<polygon fill="white" stroke="none" points="-4,4 -4,-337 982,-337 982,4 -4,4"/>
<!-- Node1 -->
<g id="node1" class="node"><title>Node1</title>
<polygon fill="#bfbfbf" stroke="black" points="545,-280.5 545,-332.5 776,-332.5 776,-280.5 545,-280.5"/>
<text text-anchor="start" x="553" y="-320.5" font-family="Helvetica,sans-Serif" font-size="10.00">/home/travis/build</text>
<text text-anchor="start" x="553" y="-309.5" font-family="Helvetica,sans-Serif" font-size="10.00">/STORM&#45;IRIT/Radium&#45;Engine</text>
<text text-anchor="start" x="553" y="-298.5" font-family="Helvetica,sans-Serif" font-size="10.00">/src/Engine/Managers/ComponentMessenger</text>
<text text-anchor="middle" x="660.5" y="-287.5" font-family="Helvetica,sans-Serif" font-size="10.00">/ComponentMessenger.inl</text>
</g>
<!-- Node2 -->
<g id="node2" class="node"><title>Node2</title>
<g id="a_node2"><a xlink:href="ComponentMessenger_8hpp.html" target="_top" xlink:title="ComponentMessenger.hpp">
<polygon fill="white" stroke="black" points="587.5,-224.5 587.5,-243.5 733.5,-243.5 733.5,-224.5 587.5,-224.5"/>
<text text-anchor="middle" x="660.5" y="-231.5" font-family="Helvetica,sans-Serif" font-size="10.00">ComponentMessenger.hpp</text>
</a>
</g>
</g>
<!-- Node1&#45;&gt;Node2 -->
<g id="edge1" class="edge"><title>Node1&#45;&gt;Node2</title>
<path fill="none" stroke="midnightblue" d="M654.007,-280.446C653.55,-271.63 653.702,-261.883 654.462,-253.684"/>
<polygon fill="midnightblue" stroke="midnightblue" points="657.939,-254.087 655.875,-243.695 651.008,-253.106 657.939,-254.087"/>
</g>
<!-- Node24 -->
<g id="node24" class="node"><title>Node24</title>
<g id="a_node24"><a xlink:href="StdUtils_8hpp.html" target="_top" xlink:title="Core/Utils/StdUtils.hpp">
<polygon fill="white" stroke="black" points="853,-224.5 853,-243.5 978,-243.5 978,-224.5 853,-224.5"/>
<text text-anchor="middle" x="915.5" y="-231.5" font-family="Helvetica,sans-Serif" font-size="10.00">Core/Utils/StdUtils.hpp</text>
</a>
</g>
</g>
<!-- Node1&#45;&gt;Node24 -->
<g id="edge29" class="edge"><title>Node1&#45;&gt;Node24</title>
<path fill="none" stroke="midnightblue" d="M751.121,-280.446C793.414,-268.753 841.63,-255.423 874.852,-246.238"/>
<polygon fill="midnightblue" stroke="midnightblue" points="875.952,-249.565 884.658,-243.527 874.087,-242.818 875.952,-249.565"/>
</g>
<!-- Node2&#45;&gt;Node1 -->
<g id="edge28" class="edge"><title>Node2&#45;&gt;Node1</title>
<path fill="none" stroke="midnightblue" d="M665.125,-243.695C666.542,-250.475 667.251,-260.371 667.25,-270.266"/>
<polygon fill="midnightblue" stroke="midnightblue" points="663.747,-270.36 666.993,-280.446 670.744,-270.538 663.747,-270.36"/>
</g>
<!-- Node3 -->
<g id="node3" class="node"><title>Node3</title>
<g id="a_node3"><a xlink:href="RaEngine_8hpp.html" target="_top" xlink:title="Engine/RaEngine.hpp">
<polygon fill="white" stroke="black" points="594,-112.5 594,-131.5 711,-131.5 711,-112.5 594,-112.5"/>
<text text-anchor="middle" x="652.5" y="-119.5" font-family="Helvetica,sans-Serif" font-size="10.00">Engine/RaEngine.hpp</text>
</a>
</g>
</g>
<!-- Node2&#45;&gt;Node3 -->
<g id="edge2" class="edge"><title>Node2&#45;&gt;Node3</title>
<path fill="none" stroke="midnightblue" d="M587.354,-224.457C565.142,-218.044 543.052,-206.985 529.5,-188 509.772,-160.364 548.806,-143.478 588.012,-133.871"/>
<polygon fill="midnightblue" stroke="midnightblue" points="588.988,-137.237 597.948,-131.583 587.417,-130.416 588.988,-137.237"/>
</g>
<!-- Node7 -->
<g id="node7" class="node"><title>Node7</title>
<polygon fill="white" stroke="#bfbfbf" points="826,-0.5 826,-19.5 885,-19.5 885,-0.5 826,-0.5"/>
<text text-anchor="middle" x="855.5" y="-7.5" font-family="Helvetica,sans-Serif" font-size="10.00">iostream</text>
</g>
<!-- Node2&#45;&gt;Node7 -->
<g id="edge10" class="edge"><title>Node2&#45;&gt;Node7</title>
<path fill="none" stroke="midnightblue" d="M724.011,-224.477C768.179,-217.174 821.686,-205.106 836.5,-188 875.569,-142.886 866.509,-65.123 859.698,-29.6342"/>
<polygon fill="midnightblue" stroke="midnightblue" points="863.093,-28.7697 857.63,-19.6922 856.24,-30.1955 863.093,-28.7697"/>
</g>
<!-- Node10 -->
<g id="node10" class="node"><title>Node10</title>
<polygon fill="white" stroke="#bfbfbf" points="884,-168.5 884,-187.5 947,-187.5 947,-168.5 884,-168.5"/>
<text text-anchor="middle" x="915.5" y="-175.5" font-family="Helvetica,sans-Serif" font-size="10.00">functional</text>
</g>
<!-- Node2&#45;&gt;Node10 -->
<g id="edge9" class="edge"><title>Node2&#45;&gt;Node10</title>
<path fill="none" stroke="midnightblue" d="M700.906,-224.444C748.137,-214.442 825.913,-197.971 873.726,-187.846"/>
<polygon fill="midnightblue" stroke="midnightblue" points="874.685,-191.221 883.743,-185.725 873.235,-184.373 874.685,-191.221"/>
</g>
<!-- Node11 -->
<g id="node11" class="node"><title>Node11</title>
<polygon fill="white" stroke="#bfbfbf" points="689,-168.5 689,-187.5 746,-187.5 746,-168.5 689,-168.5"/>
<text text-anchor="middle" x="717.5" y="-175.5" font-family="Helvetica,sans-Serif" font-size="10.00">memory</text>
</g>
<!-- Node2&#45;&gt;Node11 -->
<g id="edge11" class="edge"><title>Node2&#45;&gt;Node11</title>
<path fill="none" stroke="midnightblue" d="M669.658,-224.324C678.001,-216.42 690.532,-204.548 700.677,-194.938"/>
<polygon fill="midnightblue" stroke="midnightblue" points="703.323,-197.252 708.175,-187.834 698.509,-192.171 703.323,-197.252"/>
</g>
<!-- Node12 -->
<g id="node12" class="node"><title>Node12</title>
<polygon fill="white" stroke="#bfbfbf" points="764,-168.5 764,-187.5 827,-187.5 827,-168.5 764,-168.5"/>
<text text-anchor="middle" x="795.5" y="-175.5" font-family="Helvetica,sans-Serif" font-size="10.00">typeindex</text>
</g>
<!-- Node2&#45;&gt;Node12 -->
<g id="edge12" class="edge"><title>Node2&#45;&gt;Node12</title>
<path fill="none" stroke="midnightblue" d="M681.891,-224.444C704.207,-215.517 739.403,-201.439 764.708,-191.317"/>
<polygon fill="midnightblue" stroke="midnightblue" points="766.224,-194.48 774.209,-187.516 763.624,-187.981 766.224,-194.48"/>
</g>
<!-- Node13 -->
<g id="node13" class="node"><title>Node13</title>
<polygon fill="white" stroke="#bfbfbf" points="111,-168.5 111,-187.5 204,-187.5 204,-168.5 111,-168.5"/>
<text text-anchor="middle" x="157.5" y="-175.5" font-family="Helvetica,sans-Serif" font-size="10.00">unordered_map</text>
</g>
<!-- Node2&#45;&gt;Node13 -->
<g id="edge13" class="edge"><title>Node2&#45;&gt;Node13</title>
<path fill="none" stroke="midnightblue" d="M587.26,-226.561C499.494,-218.61 348.045,-204.143 218.5,-188 217.039,-187.818 215.56,-187.63 214.067,-187.436"/>
<polygon fill="midnightblue" stroke="midnightblue" points="214.474,-183.959 204.097,-186.095 213.542,-190.897 214.474,-183.959"/>
</g>
<!-- Node14 -->
<g id="node14" class="node"><title>Node14</title>
<polygon fill="white" stroke="#bfbfbf" points="0,-112.5 0,-131.5 47,-131.5 47,-112.5 0,-112.5"/>
<text text-anchor="middle" x="23.5" y="-119.5" font-family="Helvetica,sans-Serif" font-size="10.00">vector</text>
</g>
<!-- Node2&#45;&gt;Node14 -->
<g id="edge14" class="edge"><title>Node2&#45;&gt;Node14</title>
<path fill="none" stroke="midnightblue" d="M587.253,-232.888C504.162,-230.953 365.415,-222.207 251.5,-188 232.843,-182.398 230.796,-174.685 212.5,-168 148.538,-144.629 127.323,-148.923 57.0359,-132.012"/>
<polygon fill="midnightblue" stroke="midnightblue" points="57.8108,-128.598 47.2636,-129.601 56.1343,-135.394 57.8108,-128.598"/>
</g>
<!-- Node15 -->
<g id="node15" class="node"><title>Node15</title>
<g id="a_node15"><a xlink:href="Singleton_8hpp.html" target="_top" xlink:title="Core/Utils/Singleton.hpp">
<polygon fill="white" stroke="black" points="538.5,-168.5 538.5,-187.5 670.5,-187.5 670.5,-168.5 538.5,-168.5"/>
<text text-anchor="middle" x="604.5" y="-175.5" font-family="Helvetica,sans-Serif" font-size="10.00">Core/Utils/Singleton.hpp</text>
</a>
</g>
</g>
<!-- Node2&#45;&gt;Node15 -->
<g id="edge15" class="edge"><title>Node2&#45;&gt;Node15</title>
<path fill="none" stroke="midnightblue" d="M651.503,-224.324C643.306,-216.42 630.994,-204.548 621.028,-194.938"/>
<polygon fill="midnightblue" stroke="midnightblue" points="623.289,-192.256 613.661,-187.834 618.43,-197.295 623.289,-192.256"/>
</g>
<!-- Node17 -->
<g id="node17" class="node"><title>Node17</title>
<g id="a_node17"><a xlink:href="Component_8hpp.html" target="_top" xlink:title="Engine/Component/Component.hpp">
<polygon fill="white" stroke="black" points="260.5,-168.5 260.5,-187.5 448.5,-187.5 448.5,-168.5 260.5,-168.5"/>
<text text-anchor="middle" x="354.5" y="-175.5" font-family="Helvetica,sans-Serif" font-size="10.00">Engine/Component/Component.hpp</text>
</a>
</g>
</g>
<!-- Node2&#45;&gt;Node17 -->
<g id="edge18" class="edge"><title>Node2&#45;&gt;Node17</title>
<path fill="none" stroke="midnightblue" d="M612.013,-224.444C557.961,-214.905 470.572,-199.483 412.827,-189.293"/>
<polygon fill="midnightblue" stroke="midnightblue" points="413.216,-185.808 402.76,-187.516 411.999,-192.701 413.216,-185.808"/>
</g>
<!-- Node4 -->
<g id="node4" class="node"><title>Node4</title>
<g id="a_node4"><a xlink:href="CoreMacros_8hpp.html" target="_top" xlink:title="Core/CoreMacros.hpp">
<polygon fill="white" stroke="black" points="658.5,-56.5 658.5,-75.5 778.5,-75.5 778.5,-56.5 658.5,-56.5"/>
<text text-anchor="middle" x="718.5" y="-63.5" font-family="Helvetica,sans-Serif" font-size="10.00">Core/CoreMacros.hpp</text>
</a>
</g>
</g>
<!-- Node3&#45;&gt;Node4 -->
<g id="edge3" class="edge"><title>Node3&#45;&gt;Node4</title>
<path fill="none" stroke="midnightblue" d="M663.104,-112.324C672.956,-104.263 687.851,-92.0765 699.715,-82.3695"/>
<polygon fill="midnightblue" stroke="midnightblue" points="702.18,-84.8752 707.703,-75.8339 697.747,-79.4575 702.18,-84.8752"/>
</g>
<!-- Node5 -->
<g id="node5" class="node"><title>Node5</title>
<polygon fill="white" stroke="#bfbfbf" points="692.5,-0.5 692.5,-19.5 744.5,-19.5 744.5,-0.5 692.5,-0.5"/>
<text text-anchor="middle" x="718.5" y="-7.5" font-family="Helvetica,sans-Serif" font-size="10.00">cassert</text>
</g>
<!-- Node4&#45;&gt;Node5 -->
<g id="edge4" class="edge"><title>Node4&#45;&gt;Node5</title>
<path fill="none" stroke="midnightblue" d="M718.5,-56.083C718.5,-49.0059 718.5,-38.8611 718.5,-29.9865"/>
<polygon fill="midnightblue" stroke="midnightblue" points="722,-29.751 718.5,-19.7511 715,-29.7511 722,-29.751"/>
</g>
<!-- Node6 -->
<g id="node6" class="node"><title>Node6</title>
<polygon fill="white" stroke="#bfbfbf" points="763,-0.5 763,-19.5 808,-19.5 808,-0.5 763,-0.5"/>
<text text-anchor="middle" x="785.5" y="-7.5" font-family="Helvetica,sans-Serif" font-size="10.00">cstdio</text>
</g>
<!-- Node4&#45;&gt;Node6 -->
<g id="edge5" class="edge"><title>Node4&#45;&gt;Node6</title>
<path fill="none" stroke="midnightblue" d="M729.265,-56.324C739.266,-48.2631 754.387,-36.0765 766.43,-26.3695"/>
<polygon fill="midnightblue" stroke="midnightblue" points="768.95,-28.8343 774.539,-19.8339 764.557,-23.3841 768.95,-28.8343"/>
</g>
<!-- Node4&#45;&gt;Node7 -->
<g id="edge6" class="edge"><title>Node4&#45;&gt;Node7</title>
<path fill="none" stroke="midnightblue" d="M740.208,-56.4435C762.855,-47.5171 798.572,-33.4387 824.252,-23.3168"/>
<polygon fill="midnightblue" stroke="midnightblue" points="825.874,-26.4397 833.894,-19.5164 823.307,-19.9273 825.874,-26.4397"/>
</g>
<!-- Node8 -->
<g id="node8" class="node"><title>Node8</title>
<polygon fill="white" stroke="#bfbfbf" points="552.5,-0.5 552.5,-19.5 608.5,-19.5 608.5,-0.5 552.5,-0.5"/>
<text text-anchor="middle" x="580.5" y="-7.5" font-family="Helvetica,sans-Serif" font-size="10.00">sstream</text>
</g>
<!-- Node4&#45;&gt;Node8 -->
<g id="edge7" class="edge"><title>Node4&#45;&gt;Node8</title>
<path fill="none" stroke="midnightblue" d="M696.633,-56.4435C673.721,-47.4776 637.525,-33.314 611.634,-23.1827"/>
<polygon fill="midnightblue" stroke="midnightblue" points="612.852,-19.9011 602.264,-19.5164 610.301,-26.4198 612.852,-19.9011"/>
</g>
<!-- Node9 -->
<g id="node9" class="node"><title>Node9</title>
<polygon fill="white" stroke="#bfbfbf" points="626.5,-0.5 626.5,-19.5 674.5,-19.5 674.5,-0.5 626.5,-0.5"/>
<text text-anchor="middle" x="650.5" y="-7.5" font-family="Helvetica,sans-Serif" font-size="10.00">thread</text>
</g>
<!-- Node4&#45;&gt;Node9 -->
<g id="edge8" class="edge"><title>Node4&#45;&gt;Node9</title>
<path fill="none" stroke="midnightblue" d="M707.575,-56.324C697.325,-48.1849 681.779,-35.8395 669.499,-26.0874"/>
<polygon fill="midnightblue" stroke="midnightblue" points="671.632,-23.3119 661.624,-19.8339 667.279,-28.7937 671.632,-23.3119"/>
</g>
<!-- Node16 -->
<g id="node16" class="node"><title>Node16</title>
<g id="a_node16"><a xlink:href="RaCore_8hpp.html" target="_top" xlink:title="Core/RaCore.hpp">
<polygon fill="white" stroke="black" points="729.5,-112.5 729.5,-131.5 827.5,-131.5 827.5,-112.5 729.5,-112.5"/>
<text text-anchor="middle" x="778.5" y="-119.5" font-family="Helvetica,sans-Serif" font-size="10.00">Core/RaCore.hpp</text>
</a>
</g>
</g>
<!-- Node15&#45;&gt;Node16 -->
<g id="edge16" class="edge"><title>Node15&#45;&gt;Node16</title>
<path fill="none" stroke="midnightblue" d="M632.071,-168.444C661.597,-159.28 708.618,-144.688 741.383,-134.519"/>
<polygon fill="midnightblue" stroke="midnightblue" points="742.545,-137.823 751.058,-131.516 740.47,-131.138 742.545,-137.823"/>
</g>
<!-- Node16&#45;&gt;Node4 -->
<g id="edge17" class="edge"><title>Node16&#45;&gt;Node4</title>
<path fill="none" stroke="midnightblue" d="M768.86,-112.324C759.99,-104.341 746.625,-92.3128 735.892,-82.6529"/>
<polygon fill="midnightblue" stroke="midnightblue" points="738.09,-79.922 728.315,-75.8339 733.407,-85.1251 738.09,-79.922"/>
</g>
<!-- Node17&#45;&gt;Node3 -->
<g id="edge24" class="edge"><title>Node17&#45;&gt;Node3</title>
<path fill="none" stroke="midnightblue" d="M401.719,-168.444C454.249,-158.925 539.11,-143.547 595.348,-133.356"/>
<polygon fill="midnightblue" stroke="midnightblue" points="596.286,-136.743 605.502,-131.516 595.038,-129.856 596.286,-136.743"/>
</g>
<!-- Node17&#45;&gt;Node14 -->
<g id="edge25" class="edge"><title>Node17&#45;&gt;Node14</title>
<path fill="none" stroke="midnightblue" d="M282.121,-168.466C223.821,-161.042 139.616,-149.085 57.0149,-131.889"/>
<polygon fill="midnightblue" stroke="midnightblue" points="57.7197,-128.461 47.2126,-129.822 56.2751,-135.31 57.7197,-128.461"/>
</g>
<!-- Node18 -->
<g id="node18" class="node"><title>Node18</title>
<g id="a_node18"><a xlink:href="Index_8hpp.html" target="_top" xlink:title="Core/Utils/Index.hpp">
<polygon fill="white" stroke="black" points="463,-112.5 463,-131.5 576,-131.5 576,-112.5 463,-112.5"/>
<text text-anchor="middle" x="519.5" y="-119.5" font-family="Helvetica,sans-Serif" font-size="10.00">Core/Utils/Index.hpp</text>
</a>
</g>
</g>
<!-- Node17&#45;&gt;Node18 -->
<g id="edge19" class="edge"><title>Node17&#45;&gt;Node18</title>
<path fill="none" stroke="midnightblue" d="M380.645,-168.444C408.523,-159.32 452.848,-144.813 483.9,-134.651"/>
<polygon fill="midnightblue" stroke="midnightblue" points="485.062,-137.953 493.478,-131.516 482.885,-131.3 485.062,-137.953"/>
</g>
<!-- Node21 -->
<g id="node21" class="node"><title>Node21</title>
<polygon fill="white" stroke="#bfbfbf" points="65.5,-112.5 65.5,-131.5 133.5,-131.5 133.5,-112.5 65.5,-112.5"/>
<text text-anchor="middle" x="99.5" y="-119.5" font-family="Helvetica,sans-Serif" font-size="10.00">Eigen/Core</text>
</g>
<!-- Node17&#45;&gt;Node21 -->
<g id="edge22" class="edge"><title>Node17&#45;&gt;Node21</title>
<path fill="none" stroke="midnightblue" d="M314.094,-168.444C267.55,-158.587 191.345,-142.45 143.381,-132.293"/>
<polygon fill="midnightblue" stroke="midnightblue" points="144.104,-128.868 133.596,-130.22 142.654,-135.716 144.104,-128.868"/>
</g>
<!-- Node22 -->
<g id="node22" class="node"><title>Node22</title>
<polygon fill="white" stroke="#bfbfbf" points="151.5,-112.5 151.5,-131.5 245.5,-131.5 245.5,-112.5 151.5,-112.5"/>
<text text-anchor="middle" x="198.5" y="-119.5" font-family="Helvetica,sans-Serif" font-size="10.00">Eigen/Geometry</text>
</g>
<!-- Node17&#45;&gt;Node22 -->
<g id="edge23" class="edge"><title>Node17&#45;&gt;Node22</title>
<path fill="none" stroke="midnightblue" d="M329.781,-168.444C303.652,-159.399 262.241,-145.064 232.924,-134.916"/>
<polygon fill="midnightblue" stroke="midnightblue" points="233.698,-131.48 223.103,-131.516 231.408,-138.095 233.698,-131.48"/>
</g>
<!-- Node23 -->
<g id="node23" class="node"><title>Node23</title>
<g id="a_node23"><a xlink:href="Component_8inl.html" target="_top" xlink:title="Engine/Component/Component.inl">
<polygon fill="white" stroke="black" points="264,-112.5 264,-131.5 445,-131.5 445,-112.5 264,-112.5"/>
<text text-anchor="middle" x="354.5" y="-119.5" font-family="Helvetica,sans-Serif" font-size="10.00">Engine/Component/Component.inl</text>
</a>
</g>
</g>
<!-- Node17&#45;&gt;Node23 -->
<g id="edge26" class="edge"><title>Node17&#45;&gt;Node23</title>
<path fill="none" stroke="midnightblue" d="M349.334,-168.083C347.824,-160.927 347.394,-150.635 348.042,-141.691"/>
<polygon fill="midnightblue" stroke="midnightblue" points="351.515,-142.126 349.369,-131.751 344.577,-141.2 351.515,-142.126"/>
</g>
<!-- Node19 -->
<g id="node19" class="node"><title>Node19</title>
<polygon fill="white" stroke="#bfbfbf" points="440.5,-56.5 440.5,-75.5 482.5,-75.5 482.5,-56.5 440.5,-56.5"/>
<text text-anchor="middle" x="461.5" y="-63.5" font-family="Helvetica,sans-Serif" font-size="10.00">limits</text>
</g>
<!-- Node18&#45;&gt;Node19 -->
<g id="edge20" class="edge"><title>Node18&#45;&gt;Node19</title>
<path fill="none" stroke="midnightblue" d="M510.181,-112.324C501.607,-104.341 488.688,-92.3128 478.312,-82.6529"/>
<polygon fill="midnightblue" stroke="midnightblue" points="480.692,-80.0865 470.988,-75.8339 475.922,-85.2098 480.692,-80.0865"/>
</g>
<!-- Node20 -->
<g id="node20" class="node"><title>Node20</title>
<g id="a_node20"><a xlink:href="Index_8inl.html" target="_top" xlink:title="Core/Utils/Index.inl">
<polygon fill="white" stroke="black" points="501,-56.5 501,-75.5 606,-75.5 606,-56.5 501,-56.5"/>
<text text-anchor="middle" x="553.5" y="-63.5" font-family="Helvetica,sans-Serif" font-size="10.00">Core/Utils/Index.inl</text>
</a>
</g>
</g>
<!-- Node18&#45;&gt;Node20 -->
<g id="edge21" class="edge"><title>Node18&#45;&gt;Node20</title>
<path fill="none" stroke="midnightblue" d="M525.114,-112.083C529.867,-104.534 536.818,-93.4948 542.652,-84.2298"/>
<polygon fill="midnightblue" stroke="midnightblue" points="545.624,-86.0783 547.99,-75.7511 539.7,-82.3486 545.624,-86.0783"/>
</g>
<!-- Node23&#45;&gt;Node17 -->
<g id="edge27" class="edge"><title>Node23&#45;&gt;Node17</title>
<path fill="none" stroke="midnightblue" d="M359.631,-131.751C361.157,-138.858 361.604,-149.136 360.972,-158.101"/>
<polygon fill="midnightblue" stroke="midnightblue" points="357.493,-157.713 359.666,-168.083 364.434,-158.622 357.493,-157.713"/>
</g>
<!-- Node24&#45;&gt;Node10 -->
<g id="edge31" class="edge"><title>Node24&#45;&gt;Node10</title>
<path fill="none" stroke="midnightblue" d="M915.5,-224.083C915.5,-217.006 915.5,-206.861 915.5,-197.986"/>
<polygon fill="midnightblue" stroke="midnightblue" points="919,-197.751 915.5,-187.751 912,-197.751 919,-197.751"/>
</g>
<!-- Node24&#45;&gt;Node16 -->
<g id="edge30" class="edge"><title>Node24&#45;&gt;Node16</title>
<path fill="none" stroke="midnightblue" d="M927.816,-224.438C944.698,-211.658 971.337,-187.054 956.5,-168 941.89,-149.236 883.838,-137.058 837.95,-130.163"/>
<polygon fill="midnightblue" stroke="midnightblue" points="838.169,-126.658 827.771,-128.689 837.166,-133.586 838.169,-126.658"/>
</g>
</g>
</svg>
