<?xml version="1.0" encoding="UTF-8" standalone="no"?>
<!DOCTYPE svg PUBLIC "-//W3C//DTD SVG 1.1//EN"
 "http://www.w3.org/Graphics/SVG/1.1/DTD/svg11.dtd">
<!-- Generated by graphviz version 2.38.0 (20140413.2041)
 -->
<!-- Title: /home/travis/build/STORM&#45;IRIT/Radium&#45;Engine/src/Engine/Managers/ComponentMessenger/ComponentMessenger.cpp Pages: 1 -->
<svg width="1043pt" height="419pt"
 viewBox="0.00 0.00 1043.42 419.00" xmlns="http://www.w3.org/2000/svg" xmlns:xlink="http://www.w3.org/1999/xlink">
<g id="graph0" class="graph" transform="scale(1 1) rotate(0) translate(4 415)">
<title>/home/travis/build/STORM&#45;IRIT/Radium&#45;Engine/src/Engine/Managers/ComponentMessenger/ComponentMessenger.cpp</title>
<polygon fill="white" stroke="none" points="-4,4 -4,-415 1039.42,-415 1039.42,4 -4,4"/>
<!-- Node1 -->
<g id="node1" class="node"><title>Node1</title>
<polygon fill="#bfbfbf" stroke="black" points="314.916,-358.5 314.916,-410.5 545.916,-410.5 545.916,-358.5 314.916,-358.5"/>
<text text-anchor="start" x="322.916" y="-398.5" font-family="Helvetica,sans-Serif" font-size="10.00">/home/travis/build</text>
<text text-anchor="start" x="322.916" y="-387.5" font-family="Helvetica,sans-Serif" font-size="10.00">/STORM&#45;IRIT/Radium&#45;Engine</text>
<text text-anchor="start" x="322.916" y="-376.5" font-family="Helvetica,sans-Serif" font-size="10.00">/src/Engine/Managers/ComponentMessenger</text>
<text text-anchor="middle" x="430.416" y="-365.5" font-family="Helvetica,sans-Serif" font-size="10.00">/ComponentMessenger.cpp</text>
</g>
<!-- Node2 -->
<g id="node2" class="node"><title>Node2</title>
<g id="a_node2"><a xlink:href="ComponentMessenger_8hpp.html" target="_top" xlink:title="Engine/Managers/Component\lMessenger/ComponentMessenger.hpp">
<polygon fill="white" stroke="black" points="329.916,-291.5 329.916,-321.5 530.916,-321.5 530.916,-291.5 329.916,-291.5"/>
<text text-anchor="start" x="337.916" y="-309.5" font-family="Helvetica,sans-Serif" font-size="10.00">Engine/Managers/Component</text>
<text text-anchor="middle" x="430.416" y="-298.5" font-family="Helvetica,sans-Serif" font-size="10.00">Messenger/ComponentMessenger.hpp</text>
</a>
</g>
</g>
<!-- Node1&#45;&gt;Node2 -->
<g id="edge1" class="edge"><title>Node1&#45;&gt;Node2</title>
<path fill="none" stroke="midnightblue" d="M430.416,-358.193C430.416,-349.786 430.416,-340.443 430.416,-332.091"/>
<polygon fill="midnightblue" stroke="midnightblue" points="433.916,-331.845 430.416,-321.845 426.916,-331.845 433.916,-331.845"/>
</g>
<!-- Node3 -->
<g id="node3" class="node"><title>Node3</title>
<g id="a_node3"><a xlink:href="RaEngine_8hpp.html" target="_top" xlink:title="Engine/RaEngine.hpp">
<polygon fill="white" stroke="black" points="284.916,-168.5 284.916,-187.5 401.916,-187.5 401.916,-168.5 284.916,-168.5"/>
<text text-anchor="middle" x="343.416" y="-175.5" font-family="Helvetica,sans-Serif" font-size="10.00">Engine/RaEngine.hpp</text>
</a>
</g>
</g>
<!-- Node2&#45;&gt;Node3 -->
<g id="edge2" class="edge"><title>Node2&#45;&gt;Node3</title>
<path fill="none" stroke="midnightblue" d="M420.773,-291.479C404.768,-268.206 372.758,-221.663 355.352,-196.355"/>
<polygon fill="midnightblue" stroke="midnightblue" points="358.011,-194.045 349.461,-187.789 352.243,-198.011 358.011,-194.045"/>
</g>
<!-- Node7 -->
<g id="node7" class="node"><title>Node7</title>
<polygon fill="white" stroke="#bfbfbf" points="400.916,-0.5 400.916,-19.5 459.916,-19.5 459.916,-0.5 400.916,-0.5"/>
<text text-anchor="middle" x="430.416" y="-7.5" font-family="Helvetica,sans-Serif" font-size="10.00">iostream</text>
</g>
<!-- Node2&#45;&gt;Node7 -->
<g id="edge10" class="edge"><title>Node2&#45;&gt;Node7</title>
<path fill="none" stroke="midnightblue" d="M430.416,-291.461C430.416,-268.118 430.416,-219.849 430.416,-179 430.416,-179 430.416,-179 430.416,-121 430.416,-88.948 430.416,-51.6426 430.416,-29.7489"/>
<polygon fill="midnightblue" stroke="midnightblue" points="433.916,-29.5577 430.416,-19.5578 426.916,-29.5578 433.916,-29.5577"/>
</g>
<!-- Node10 -->
<g id="node10" class="node"><title>Node10</title>
<polygon fill="white" stroke="#bfbfbf" points="22.9162,-112.5 22.9162,-131.5 85.9162,-131.5 85.9162,-112.5 22.9162,-112.5"/>
<text text-anchor="middle" x="54.4162" y="-119.5" font-family="Helvetica,sans-Serif" font-size="10.00">functional</text>
</g>
<!-- Node2&#45;&gt;Node10 -->
<g id="edge9" class="edge"><title>Node2&#45;&gt;Node10</title>
<path fill="none" stroke="midnightblue" d="M329.9,-300.277C212.693,-293.138 32.2278,-278.47 11.4162,-255 -18.4517,-221.316 18.1569,-166.514 40.136,-139.343"/>
<polygon fill="midnightblue" stroke="midnightblue" points="42.9209,-141.469 46.6552,-131.554 37.5529,-136.976 42.9209,-141.469"/>
</g>
<!-- Node11 -->
<g id="node11" class="node"><title>Node11</title>
<polygon fill="white" stroke="#bfbfbf" points="702.916,-230 702.916,-249 759.916,-249 759.916,-230 702.916,-230"/>
<text text-anchor="middle" x="731.416" y="-237" font-family="Helvetica,sans-Serif" font-size="10.00">memory</text>
</g>
<!-- Node2&#45;&gt;Node11 -->
<g id="edge11" class="edge"><title>Node2&#45;&gt;Node11</title>
<path fill="none" stroke="midnightblue" d="M524.77,-291.492C575.293,-282.964 638.299,-270.677 693.416,-255 696.001,-254.265 698.658,-253.428 701.307,-252.535"/>
<polygon fill="midnightblue" stroke="midnightblue" points="702.507,-255.823 710.731,-249.143 700.137,-249.236 702.507,-255.823"/>
</g>
<!-- Node12 -->
<g id="node12" class="node"><title>Node12</title>
<polygon fill="white" stroke="#bfbfbf" points="777.916,-230 777.916,-249 840.916,-249 840.916,-230 777.916,-230"/>
<text text-anchor="middle" x="809.416" y="-237" font-family="Helvetica,sans-Serif" font-size="10.00">typeindex</text>
</g>
<!-- Node2&#45;&gt;Node12 -->
<g id="edge12" class="edge"><title>Node2&#45;&gt;Node12</title>
<path fill="none" stroke="midnightblue" d="M531.235,-295.558C598.953,-287.633 689.829,-274.575 768.416,-255 771.468,-254.24 774.612,-253.343 777.738,-252.374"/>
<polygon fill="midnightblue" stroke="midnightblue" points="779.143,-255.596 787.524,-249.114 776.93,-248.955 779.143,-255.596"/>
</g>
<!-- Node13 -->
<g id="node13" class="node"><title>Node13</title>
<polygon fill="white" stroke="#bfbfbf" points="858.916,-230 858.916,-249 951.916,-249 951.916,-230 858.916,-230"/>
<text text-anchor="middle" x="905.416" y="-237" font-family="Helvetica,sans-Serif" font-size="10.00">unordered_map</text>
</g>
<!-- Node2&#45;&gt;Node13 -->
<g id="edge13" class="edge"><title>Node2&#45;&gt;Node13</title>
<path fill="none" stroke="midnightblue" d="M531.316,-297.146C616.548,-289.182 741.601,-275.361 849.416,-255 854.588,-254.023 859.989,-252.839 865.309,-251.573"/>
<polygon fill="midnightblue" stroke="midnightblue" points="866.499,-254.883 875.357,-249.07 864.808,-248.091 866.499,-254.883"/>
</g>
<!-- Node14 -->
<g id="node14" class="node"><title>Node14</title>
<polygon fill="white" stroke="#bfbfbf" points="458.916,-168.5 458.916,-187.5 505.916,-187.5 505.916,-168.5 458.916,-168.5"/>
<text text-anchor="middle" x="482.416" y="-175.5" font-family="Helvetica,sans-Serif" font-size="10.00">vector</text>
</g>
<!-- Node2&#45;&gt;Node14 -->
<g id="edge14" class="edge"><title>Node2&#45;&gt;Node14</title>
<path fill="none" stroke="midnightblue" d="M436.18,-291.479C445.62,-268.514 464.375,-222.889 474.865,-197.37"/>
<polygon fill="midnightblue" stroke="midnightblue" points="478.239,-198.368 478.804,-187.789 471.764,-195.707 478.239,-198.368"/>
</g>
<!-- Node15 -->
<g id="node15" class="node"><title>Node15</title>
<g id="a_node15"><a xlink:href="Singleton_8hpp.html" target="_top" xlink:title="Core/Utils/Singleton.hpp">
<polygon fill="white" stroke="black" points="232.416,-230 232.416,-249 364.416,-249 364.416,-230 232.416,-230"/>
<text text-anchor="middle" x="298.416" y="-237" font-family="Helvetica,sans-Serif" font-size="10.00">Core/Utils/Singleton.hpp</text>
</a>
</g>
</g>
<!-- Node2&#45;&gt;Node15 -->
<g id="edge15" class="edge"><title>Node2&#45;&gt;Node15</title>
<path fill="none" stroke="midnightblue" d="M401.774,-291.396C378.921,-280.142 347.157,-264.501 324.892,-253.538"/>
<polygon fill="midnightblue" stroke="midnightblue" points="326.209,-250.285 315.692,-249.007 323.117,-256.565 326.209,-250.285"/>
</g>
<!-- Node17 -->
<g id="node17" class="node"><title>Node17</title>
<g id="a_node17"><a xlink:href="Component_8hpp.html" target="_top" xlink:title="Engine/Component/Component.hpp">
<polygon fill="white" stroke="black" points="496.416,-230 496.416,-249 684.416,-249 684.416,-230 496.416,-230"/>
<text text-anchor="middle" x="590.416" y="-237" font-family="Helvetica,sans-Serif" font-size="10.00">Engine/Component/Component.hpp</text>
</a>
</g>
</g>
<!-- Node2&#45;&gt;Node17 -->
<g id="edge18" class="edge"><title>Node2&#45;&gt;Node17</title>
<path fill="none" stroke="midnightblue" d="M465.134,-291.396C493.456,-279.89 533.069,-263.797 560.122,-252.807"/>
<polygon fill="midnightblue" stroke="midnightblue" points="561.529,-256.013 569.476,-249.007 558.894,-249.528 561.529,-256.013"/>
</g>
<!-- Node24 -->
<g id="node24" class="node"><title>Node24</title>
<g id="a_node24"><a xlink:href="ComponentMessenger_8inl.html" target="_top" xlink:title="Engine/Managers/Component\lMessenger/ComponentMessenger.inl">
<polygon fill="white" stroke="black" points="20.4162,-224.5 20.4162,-254.5 214.416,-254.5 214.416,-224.5 20.4162,-224.5"/>
<text text-anchor="start" x="28.4162" y="-242.5" font-family="Helvetica,sans-Serif" font-size="10.00">Engine/Managers/Component</text>
<text text-anchor="middle" x="117.416" y="-231.5" font-family="Helvetica,sans-Serif" font-size="10.00">Messenger/ComponentMessenger.inl</text>
</a>
</g>
</g>
<!-- Node2&#45;&gt;Node24 -->
<g id="edge28" class="edge"><title>Node2&#45;&gt;Node24</title>
<path fill="none" stroke="midnightblue" d="M357.217,-291.476C306.585,-281.242 239.594,-267.348 189.259,-256.65"/>
<polygon fill="midnightblue" stroke="midnightblue" points="189.934,-253.215 179.424,-254.555 188.475,-260.061 189.934,-253.215"/>
</g>
<!-- Node4 -->
<g id="node4" class="node"><title>Node4</title>
<g id="a_node4"><a xlink:href="CoreMacros_8hpp.html" target="_top" xlink:title="Core/CoreMacros.hpp">
<polygon fill="white" stroke="black" points="225.416,-56.5 225.416,-75.5 345.416,-75.5 345.416,-56.5 225.416,-56.5"/>
<text text-anchor="middle" x="285.416" y="-63.5" font-family="Helvetica,sans-Serif" font-size="10.00">Core/CoreMacros.hpp</text>
</a>
</g>
</g>
<!-- Node3&#45;&gt;Node4 -->
<g id="edge3" class="edge"><title>Node3&#45;&gt;Node4</title>
<path fill="none" stroke="midnightblue" d="M340.065,-168.387C335.039,-155.75 325.003,-131.561 314.416,-112 309.274,-102.498 302.822,-92.3461 297.31,-84.0943"/>
<polygon fill="midnightblue" stroke="midnightblue" points="300.128,-82.0152 291.606,-75.7208 294.343,-85.956 300.128,-82.0152"/>
</g>
<!-- Node5 -->
<g id="node5" class="node"><title>Node5</title>
<polygon fill="white" stroke="#bfbfbf" points="192.416,-0.5 192.416,-19.5 244.416,-19.5 244.416,-0.5 192.416,-0.5"/>
<text text-anchor="middle" x="218.416" y="-7.5" font-family="Helvetica,sans-Serif" font-size="10.00">cassert</text>
</g>
<!-- Node4&#45;&gt;Node5 -->
<g id="edge4" class="edge"><title>Node4&#45;&gt;Node5</title>
<path fill="none" stroke="midnightblue" d="M274.652,-56.324C264.65,-48.2631 249.53,-36.0765 237.486,-26.3695"/>
<polygon fill="midnightblue" stroke="midnightblue" points="239.359,-23.3841 229.377,-19.8339 234.966,-28.8343 239.359,-23.3841"/>
</g>
<!-- Node6 -->
<g id="node6" class="node"><title>Node6</title>
<polygon fill="white" stroke="#bfbfbf" points="262.916,-0.5 262.916,-19.5 307.916,-19.5 307.916,-0.5 262.916,-0.5"/>
<text text-anchor="middle" x="285.416" y="-7.5" font-family="Helvetica,sans-Serif" font-size="10.00">cstdio</text>
</g>
<!-- Node4&#45;&gt;Node6 -->
<g id="edge5" class="edge"><title>Node4&#45;&gt;Node6</title>
<path fill="none" stroke="midnightblue" d="M285.416,-56.083C285.416,-49.0059 285.416,-38.8611 285.416,-29.9865"/>
<polygon fill="midnightblue" stroke="midnightblue" points="288.916,-29.751 285.416,-19.7511 281.916,-29.7511 288.916,-29.751"/>
</g>
<!-- Node4&#45;&gt;Node7 -->
<g id="edge6" class="edge"><title>Node4&#45;&gt;Node7</title>
<path fill="none" stroke="midnightblue" d="M308.392,-56.4435C332.573,-47.4381 370.834,-33.1891 398.062,-23.049"/>
<polygon fill="midnightblue" stroke="midnightblue" points="399.398,-26.2864 407.548,-19.5164 396.955,-19.7265 399.398,-26.2864"/>
</g>
<!-- Node8 -->
<g id="node8" class="node"><title>Node8</title>
<polygon fill="white" stroke="#bfbfbf" points="326.416,-0.5 326.416,-19.5 382.416,-19.5 382.416,-0.5 326.416,-0.5"/>
<text text-anchor="middle" x="354.416" y="-7.5" font-family="Helvetica,sans-Serif" font-size="10.00">sstream</text>
</g>
<!-- Node4&#45;&gt;Node8 -->
<g id="edge7" class="edge"><title>Node4&#45;&gt;Node8</title>
<path fill="none" stroke="midnightblue" d="M296.502,-56.324C306.902,-48.1849 322.677,-35.8395 335.138,-26.0874"/>
<polygon fill="midnightblue" stroke="midnightblue" points="337.41,-28.7533 343.128,-19.8339 333.096,-23.2407 337.41,-28.7533"/>
</g>
<!-- Node9 -->
<g id="node9" class="node"><title>Node9</title>
<polygon fill="white" stroke="#bfbfbf" points="126.416,-0.5 126.416,-19.5 174.416,-19.5 174.416,-0.5 126.416,-0.5"/>
<text text-anchor="middle" x="150.416" y="-7.5" font-family="Helvetica,sans-Serif" font-size="10.00">thread</text>
</g>
<!-- Node4&#45;&gt;Node9 -->
<g id="edge8" class="edge"><title>Node4&#45;&gt;Node9</title>
<path fill="none" stroke="midnightblue" d="M264.025,-56.4435C241.709,-47.5171 206.513,-33.4387 181.208,-23.3168"/>
<polygon fill="midnightblue" stroke="midnightblue" points="182.292,-19.9807 171.707,-19.5164 179.692,-26.4801 182.292,-19.9807"/>
</g>
<!-- Node16 -->
<g id="node16" class="node"><title>Node16</title>
<g id="a_node16"><a xlink:href="RaCore_8hpp.html" target="_top" xlink:title="Core/RaCore.hpp">
<polygon fill="white" stroke="black" points="207.416,-112.5 207.416,-131.5 305.416,-131.5 305.416,-112.5 207.416,-112.5"/>
<text text-anchor="middle" x="256.416" y="-119.5" font-family="Helvetica,sans-Serif" font-size="10.00">Core/RaCore.hpp</text>
</a>
</g>
</g>
<!-- Node15&#45;&gt;Node16 -->
<g id="edge16" class="edge"><title>Node15&#45;&gt;Node16</title>
<path fill="none" stroke="midnightblue" d="M293.953,-229.722C289.005,-219.774 280.988,-202.99 275.416,-188 269.656,-172.503 264.491,-154.418 261.005,-141.264"/>
<polygon fill="midnightblue" stroke="midnightblue" points="264.384,-140.348 258.496,-131.54 257.606,-142.097 264.384,-140.348"/>
</g>
<!-- Node16&#45;&gt;Node4 -->
<g id="edge17" class="edge"><title>Node16&#45;&gt;Node4</title>
<path fill="none" stroke="midnightblue" d="M261.205,-112.083C265.175,-104.691 270.941,-93.9533 275.851,-84.8111"/>
<polygon fill="midnightblue" stroke="midnightblue" points="279.069,-86.217 280.717,-75.7511 272.902,-82.9051 279.069,-86.217"/>
</g>
<!-- Node17&#45;&gt;Node3 -->
<g id="edge24" class="edge"><title>Node17&#45;&gt;Node3</title>
<path fill="none" stroke="midnightblue" d="M555.027,-229.975C511.191,-219.415 436.45,-201.411 388.536,-189.869"/>
<polygon fill="midnightblue" stroke="midnightblue" points="389.281,-186.448 378.74,-187.509 387.642,-193.254 389.281,-186.448"/>
</g>
<!-- Node17&#45;&gt;Node14 -->
<g id="edge25" class="edge"><title>Node17&#45;&gt;Node14</title>
<path fill="none" stroke="midnightblue" d="M574.942,-229.975C557.138,-220.166 527.676,-203.935 506.784,-192.425"/>
<polygon fill="midnightblue" stroke="midnightblue" points="508.309,-189.269 497.861,-187.509 504.931,-195.4 508.309,-189.269"/>
</g>
<!-- Node18 -->
<g id="node18" class="node"><title>Node18</title>
<g id="a_node18"><a xlink:href="Index_8hpp.html" target="_top" xlink:title="Core/Utils/Index.hpp">
<polygon fill="white" stroke="black" points="835.916,-168.5 835.916,-187.5 948.916,-187.5 948.916,-168.5 835.916,-168.5"/>
<text text-anchor="middle" x="892.416" y="-175.5" font-family="Helvetica,sans-Serif" font-size="10.00">Core/Utils/Index.hpp</text>
</a>
</g>
</g>
<!-- Node17&#45;&gt;Node18 -->
<g id="edge19" class="edge"><title>Node17&#45;&gt;Node18</title>
<path fill="none" stroke="midnightblue" d="M633.685,-229.975C687.844,-219.305 780.582,-201.034 839.077,-189.509"/>
<polygon fill="midnightblue" stroke="midnightblue" points="840.092,-192.876 849.227,-187.509 838.739,-186.008 840.092,-192.876"/>
</g>
<!-- Node21 -->
<g id="node21" class="node"><title>Node21</title>
<polygon fill="white" stroke="#bfbfbf" points="967.416,-168.5 967.416,-187.5 1035.42,-187.5 1035.42,-168.5 967.416,-168.5"/>
<text text-anchor="middle" x="1001.42" y="-175.5" font-family="Helvetica,sans-Serif" font-size="10.00">Eigen/Core</text>
</g>
<!-- Node17&#45;&gt;Node21 -->
<g id="edge22" class="edge"><title>Node17&#45;&gt;Node21</title>
<path fill="none" stroke="midnightblue" d="M650.593,-229.984C664.645,-228.008 679.554,-225.921 693.416,-224 810.715,-207.746 840.677,-207.876 957.416,-188 957.517,-187.983 957.618,-187.966 957.719,-187.948"/>
<polygon fill="midnightblue" stroke="midnightblue" points="958.134,-191.43 967.348,-186.2 956.884,-184.543 958.134,-191.43"/>
</g>
<!-- Node22 -->
<g id="node22" class="node"><title>Node22</title>
<polygon fill="white" stroke="#bfbfbf" points="524.416,-168.5 524.416,-187.5 618.416,-187.5 618.416,-168.5 524.416,-168.5"/>
<text text-anchor="middle" x="571.416" y="-175.5" font-family="Helvetica,sans-Serif" font-size="10.00">Eigen/Geometry</text>
</g>
<!-- Node17&#45;&gt;Node22 -->
<g id="edge23" class="edge"><title>Node17&#45;&gt;Node22</title>
<path fill="none" stroke="midnightblue" d="M587.694,-229.975C584.985,-221.492 580.742,-208.204 577.267,-197.322"/>
<polygon fill="midnightblue" stroke="midnightblue" points="580.51,-195.97 574.133,-187.509 573.841,-198.1 580.51,-195.97"/>
</g>
<!-- Node23 -->
<g id="node23" class="node"><title>Node23</title>
<g id="a_node23"><a xlink:href="Component_8inl.html" target="_top" xlink:title="Engine/Component/Component.inl">
<polygon fill="white" stroke="black" points="636.916,-168.5 636.916,-187.5 817.916,-187.5 817.916,-168.5 636.916,-168.5"/>
<text text-anchor="middle" x="727.416" y="-175.5" font-family="Helvetica,sans-Serif" font-size="10.00">Engine/Component/Component.inl</text>
</a>
</g>
</g>
<!-- Node17&#45;&gt;Node23 -->
<g id="edge26" class="edge"><title>Node17&#45;&gt;Node23</title>
<path fill="none" stroke="midnightblue" d="M605.144,-229.975C626.234,-219.857 665.036,-202.905 693.382,-191.351"/>
<polygon fill="midnightblue" stroke="midnightblue" points="694.957,-194.49 702.927,-187.509 692.343,-187.996 694.957,-194.49"/>
</g>
<!-- Node19 -->
<g id="node19" class="node"><title>Node19</title>
<polygon fill="white" stroke="#bfbfbf" points="825.416,-112.5 825.416,-131.5 867.416,-131.5 867.416,-112.5 825.416,-112.5"/>
<text text-anchor="middle" x="846.416" y="-119.5" font-family="Helvetica,sans-Serif" font-size="10.00">limits</text>
</g>
<!-- Node18&#45;&gt;Node19 -->
<g id="edge20" class="edge"><title>Node18&#45;&gt;Node19</title>
<path fill="none" stroke="midnightblue" d="M884.82,-168.083C878.189,-160.298 868.395,-148.801 860.358,-139.367"/>
<polygon fill="midnightblue" stroke="midnightblue" points="863.02,-137.094 853.871,-131.751 857.691,-141.633 863.02,-137.094"/>
</g>
<!-- Node20 -->
<g id="node20" class="node"><title>Node20</title>
<g id="a_node20"><a xlink:href="Index_8inl.html" target="_top" xlink:title="Core/Utils/Index.inl">
<polygon fill="white" stroke="black" points="885.916,-112.5 885.916,-131.5 990.916,-131.5 990.916,-112.5 885.916,-112.5"/>
<text text-anchor="middle" x="938.416" y="-119.5" font-family="Helvetica,sans-Serif" font-size="10.00">Core/Utils/Index.inl</text>
</a>
</g>
</g>
<!-- Node18&#45;&gt;Node20 -->
<g id="edge21" class="edge"><title>Node18&#45;&gt;Node20</title>
<path fill="none" stroke="midnightblue" d="M900.012,-168.083C906.644,-160.298 916.437,-148.801 924.474,-139.367"/>
<polygon fill="midnightblue" stroke="midnightblue" points="927.141,-141.633 930.962,-131.751 921.813,-137.094 927.141,-141.633"/>
</g>
<!-- Node23&#45;&gt;Node17 -->
<g id="edge27" class="edge"><title>Node23&#45;&gt;Node17</title>
<path fill="none" stroke="midnightblue" d="M712.721,-187.509C691.649,-197.62 652.852,-214.572 624.494,-226.131"/>
<polygon fill="midnightblue" stroke="midnightblue" points="622.915,-222.994 614.946,-229.975 625.529,-229.488 622.915,-222.994"/>
</g>
<!-- Node24&#45;&gt;Node2 -->
<g id="edge29" class="edge"><title>Node24&#45;&gt;Node2</title>
<path fill="none" stroke="midnightblue" d="M190.768,-254.555C241.433,-264.796 308.424,-278.691 358.725,-289.382"/>
<polygon fill="midnightblue" stroke="midnightblue" points="358.043,-292.816 368.553,-291.476 359.502,-285.969 358.043,-292.816"/>
</g>
<!-- Node25 -->
<g id="node25" class="node"><title>Node25</title>
<g id="a_node25"><a xlink:href="StdUtils_8hpp.html" target="_top" xlink:title="Core/Utils/StdUtils.hpp">
<polygon fill="white" stroke="black" points="54.9162,-168.5 54.9162,-187.5 179.916,-187.5 179.916,-168.5 54.9162,-168.5"/>
<text text-anchor="middle" x="117.416" y="-175.5" font-family="Helvetica,sans-Serif" font-size="10.00">Core/Utils/StdUtils.hpp</text>
</a>
</g>
</g>
<!-- Node24&#45;&gt;Node25 -->
<g id="edge30" class="edge"><title>Node24&#45;&gt;Node25</title>
<path fill="none" stroke="midnightblue" d="M117.416,-224.399C117.416,-216.466 117.416,-206.458 117.416,-197.858"/>
<polygon fill="midnightblue" stroke="midnightblue" points="120.916,-197.658 117.416,-187.658 113.916,-197.658 120.916,-197.658"/>
</g>
<!-- Node25&#45;&gt;Node10 -->
<g id="edge32" class="edge"><title>Node25&#45;&gt;Node10</title>
<path fill="none" stroke="midnightblue" d="M107.294,-168.324C97.8899,-160.263 83.6722,-148.077 72.3473,-138.369"/>
<polygon fill="midnightblue" stroke="midnightblue" points="74.5928,-135.684 64.7224,-131.834 70.0373,-140.999 74.5928,-135.684"/>
</g>
<!-- Node25&#45;&gt;Node16 -->
<g id="edge31" class="edge"><title>Node25&#45;&gt;Node16</title>
<path fill="none" stroke="midnightblue" d="M139.441,-168.444C162.52,-159.478 198.978,-145.314 225.057,-135.183"/>
<polygon fill="midnightblue" stroke="midnightblue" points="226.44,-138.4 234.494,-131.516 223.906,-131.875 226.44,-138.4"/>
</g>
</g>
</svg>
