<?xml version="1.0" encoding="UTF-8" standalone="no"?>
<!DOCTYPE svg PUBLIC "-//W3C//DTD SVG 1.1//EN"
 "http://www.w3.org/Graphics/SVG/1.1/DTD/svg11.dtd">
<!-- Generated by graphviz version 2.38.0 (20140413.2041)
 -->
<!-- Title: /home/travis/build/STORM&#45;IRIT/Radium&#45;Engine/src/Engine/Managers/LightManager/DefaultLightManager.cpp Pages: 1 -->
<svg width="1240pt" height="564pt"
 viewBox="0.00 0.00 1240.00 564.00" xmlns="http://www.w3.org/2000/svg" xmlns:xlink="http://www.w3.org/1999/xlink">
<g id="graph0" class="graph" transform="scale(1 1) rotate(0) translate(4 560)">
<title>/home/travis/build/STORM&#45;IRIT/Radium&#45;Engine/src/Engine/Managers/LightManager/DefaultLightManager.cpp</title>
<polygon fill="white" stroke="none" points="-4,4 -4,-560 1236,-560 1236,4 -4,4"/>
<!-- Node1 -->
<g id="node1" class="node"><title>Node1</title>
<polygon fill="#bfbfbf" stroke="black" points="216,-503.5 216,-555.5 404,-555.5 404,-503.5 216,-503.5"/>
<text text-anchor="start" x="224" y="-543.5" font-family="Helvetica,sans-Serif" font-size="10.00">/home/travis/build</text>
<text text-anchor="start" x="224" y="-532.5" font-family="Helvetica,sans-Serif" font-size="10.00">/STORM&#45;IRIT/Radium&#45;Engine</text>
<text text-anchor="start" x="224" y="-521.5" font-family="Helvetica,sans-Serif" font-size="10.00">/src/Engine/Managers/LightManager</text>
<text text-anchor="middle" x="310" y="-510.5" font-family="Helvetica,sans-Serif" font-size="10.00">/DefaultLightManager.cpp</text>
</g>
<!-- Node2 -->
<g id="node2" class="node"><title>Node2</title>
<g id="a_node2"><a xlink:href="DefaultLightManager_8hpp.html" target="_top" xlink:title="Engine/Managers/LightManager\l/DefaultLightManager.hpp">
<polygon fill="white" stroke="black" points="314.5,-436.5 314.5,-466.5 481.5,-466.5 481.5,-436.5 314.5,-436.5"/>
<text text-anchor="start" x="322.5" y="-454.5" font-family="Helvetica,sans-Serif" font-size="10.00">Engine/Managers/LightManager</text>
<text text-anchor="middle" x="398" y="-443.5" font-family="Helvetica,sans-Serif" font-size="10.00">/DefaultLightManager.hpp</text>
</a>
</g>
</g>
<!-- Node1&#45;&gt;Node2 -->
<g id="edge1" class="edge"><title>Node1&#45;&gt;Node2</title>
<path fill="none" stroke="midnightblue" d="M339.303,-503.193C350.538,-493.49 363.218,-482.539 373.911,-473.304"/>
<polygon fill="midnightblue" stroke="midnightblue" points="376.362,-475.812 381.643,-466.627 371.787,-470.514 376.362,-475.812"/>
</g>
<!-- Node3 -->
<g id="node3" class="node"><title>Node3</title>
<g id="a_node3"><a xlink:href="RadiumEngine_8hpp.html" target="_top" xlink:title="Engine/RadiumEngine.hpp">
<polygon fill="white" stroke="black" points="146.5,-308 146.5,-327 287.5,-327 287.5,-308 146.5,-308"/>
<text text-anchor="middle" x="217" y="-315" font-family="Helvetica,sans-Serif" font-size="10.00">Engine/RadiumEngine.hpp</text>
</a>
</g>
</g>
<!-- Node1&#45;&gt;Node3 -->
<g id="edge47" class="edge"><title>Node1&#45;&gt;Node3</title>
<path fill="none" stroke="midnightblue" d="M298.782,-503.169C279.787,-460.277 241.736,-374.356 225.099,-336.789"/>
<polygon fill="midnightblue" stroke="midnightblue" points="228.087,-334.891 220.837,-327.165 221.686,-337.726 228.087,-334.891"/>
</g>
<!-- Node2&#45;&gt;Node3 -->
<g id="edge2" class="edge"><title>Node2&#45;&gt;Node3</title>
<path fill="none" stroke="midnightblue" d="M366.004,-436.452C346.685,-427.306 322.016,-414.421 302,-400 274.773,-380.384 247.517,-352.418 231.462,-334.873"/>
<polygon fill="midnightblue" stroke="midnightblue" points="233.823,-332.266 224.529,-327.18 228.623,-336.952 233.823,-332.266"/>
</g>
<!-- Node14 -->
<g id="node14" class="node"><title>Node14</title>
<polygon fill="white" stroke="#bfbfbf" points="496.5,-241 496.5,-260 553.5,-260 553.5,-241 496.5,-241"/>
<text text-anchor="middle" x="525" y="-248" font-family="Helvetica,sans-Serif" font-size="10.00">memory</text>
</g>
<!-- Node2&#45;&gt;Node14 -->
<g id="edge45" class="edge"><title>Node2&#45;&gt;Node14</title>
<path fill="none" stroke="midnightblue" d="M481.826,-439.739C506.635,-432.435 531.536,-420.258 548,-400 575.562,-366.087 567.878,-344.055 556,-302 552.525,-289.696 545.118,-277.436 538.415,-268.078"/>
<polygon fill="midnightblue" stroke="midnightblue" points="541.188,-265.941 532.357,-260.088 535.61,-270.171 541.188,-265.941"/>
</g>
<!-- Node16 -->
<g id="node16" class="node"><title>Node16</title>
<polygon fill="white" stroke="#bfbfbf" points="326.5,-112.5 326.5,-131.5 373.5,-131.5 373.5,-112.5 326.5,-112.5"/>
<text text-anchor="middle" x="350" y="-119.5" font-family="Helvetica,sans-Serif" font-size="10.00">vector</text>
</g>
<!-- Node2&#45;&gt;Node16 -->
<g id="edge46" class="edge"><title>Node2&#45;&gt;Node16</title>
<path fill="none" stroke="midnightblue" d="M381.799,-436.465C357.902,-414.109 316,-367.871 316,-318.5 316,-318.5 316,-318.5 316,-249.5 316,-209.682 331.905,-165.157 341.958,-140.989"/>
<polygon fill="midnightblue" stroke="midnightblue" points="345.227,-142.247 345.966,-131.678 338.797,-139.479 345.227,-142.247"/>
</g>
<!-- Node17 -->
<g id="node17" class="node"><title>Node17</title>
<g id="a_node17"><a xlink:href="LightManager_8hpp.html" target="_top" xlink:title="Engine/Managers/LightManager\l/LightManager.hpp">
<polygon fill="white" stroke="black" points="372.5,-369.5 372.5,-399.5 539.5,-399.5 539.5,-369.5 372.5,-369.5"/>
<text text-anchor="start" x="380.5" y="-387.5" font-family="Helvetica,sans-Serif" font-size="10.00">Engine/Managers/LightManager</text>
<text text-anchor="middle" x="456" y="-376.5" font-family="Helvetica,sans-Serif" font-size="10.00">/LightManager.hpp</text>
</a>
</g>
</g>
<!-- Node2&#45;&gt;Node17 -->
<g id="edge17" class="edge"><title>Node2&#45;&gt;Node17</title>
<path fill="none" stroke="midnightblue" d="M410.585,-436.396C418.186,-427.878 428.029,-416.847 436.608,-407.233"/>
<polygon fill="midnightblue" stroke="midnightblue" points="439.393,-409.368 443.439,-399.577 434.17,-404.708 439.393,-409.368"/>
</g>
<!-- Node19 -->
<g id="node19" class="node"><title>Node19</title>
<g id="a_node19"><a xlink:href="Light_8hpp.html" target="_top" xlink:title="../../Renderer/Light\l/Light.hpp">
<polygon fill="white" stroke="black" points="685,-235.5 685,-265.5 789,-265.5 789,-235.5 685,-235.5"/>
<text text-anchor="start" x="693" y="-253.5" font-family="Helvetica,sans-Serif" font-size="10.00">../../Renderer/Light</text>
<text text-anchor="middle" x="737" y="-242.5" font-family="Helvetica,sans-Serif" font-size="10.00">/Light.hpp</text>
</a>
</g>
</g>
<!-- Node2&#45;&gt;Node19 -->
<g id="edge44" class="edge"><title>Node2&#45;&gt;Node19</title>
<path fill="none" stroke="midnightblue" d="M481.608,-437.917C587.544,-420.067 760.965,-383.82 799,-333 814.775,-311.923 791.554,-287.96 769.174,-271.502"/>
<polygon fill="midnightblue" stroke="midnightblue" points="770.92,-268.452 760.721,-265.584 766.905,-274.186 770.92,-268.452"/>
</g>
<!-- Node4 -->
<g id="node4" class="node"><title>Node4</title>
<g id="a_node4"><a xlink:href="RaEngine_8hpp.html" target="_top" xlink:title="Engine/RaEngine.hpp">
<polygon fill="white" stroke="black" points="417.5,-112.5 417.5,-131.5 534.5,-131.5 534.5,-112.5 417.5,-112.5"/>
<text text-anchor="middle" x="476" y="-119.5" font-family="Helvetica,sans-Serif" font-size="10.00">Engine/RaEngine.hpp</text>
</a>
</g>
</g>
<!-- Node3&#45;&gt;Node4 -->
<g id="edge3" class="edge"><title>Node3&#45;&gt;Node4</title>
<path fill="none" stroke="midnightblue" d="M228.673,-307.969C241.772,-298.242 263.481,-281.655 281,-266 326.696,-225.165 327.787,-203.132 378,-168 397.553,-154.32 421.93,-143.106 441.48,-135.295"/>
<polygon fill="midnightblue" stroke="midnightblue" points="442.871,-138.51 450.929,-131.631 440.34,-131.983 442.871,-138.51"/>
</g>
<!-- Node11 -->
<g id="node11" class="node"><title>Node11</title>
<g id="a_node11"><a xlink:href="Singleton_8hpp.html" target="_top" xlink:title="Core/Utils/Singleton.hpp">
<polygon fill="white" stroke="black" points="118,-241 118,-260 250,-260 250,-241 118,-241"/>
<text text-anchor="middle" x="184" y="-248" font-family="Helvetica,sans-Serif" font-size="10.00">Core/Utils/Singleton.hpp</text>
</a>
</g>
</g>
<!-- Node3&#45;&gt;Node11 -->
<g id="edge10" class="edge"><title>Node3&#45;&gt;Node11</title>
<path fill="none" stroke="midnightblue" d="M212.549,-307.734C207.552,-297.89 199.312,-281.66 192.966,-269.159"/>
<polygon fill="midnightblue" stroke="midnightblue" points="196.028,-267.46 188.38,-260.127 189.786,-270.628 196.028,-267.46"/>
</g>
<!-- Node13 -->
<g id="node13" class="node"><title>Node13</title>
<polygon fill="white" stroke="#bfbfbf" points="0,-241 0,-260 38,-260 38,-241 0,-241"/>
<text text-anchor="middle" x="19" y="-248" font-family="Helvetica,sans-Serif" font-size="10.00">map</text>
</g>
<!-- Node3&#45;&gt;Node13 -->
<g id="edge13" class="edge"><title>Node3&#45;&gt;Node13</title>
<path fill="none" stroke="midnightblue" d="M181.17,-307.962C146.298,-299.165 92.1161,-284.192 47,-266 45.8006,-265.516 44.584,-264.998 43.3638,-264.457"/>
<polygon fill="midnightblue" stroke="midnightblue" points="44.686,-261.209 34.1589,-260.012 41.6422,-267.512 44.686,-261.209"/>
</g>
<!-- Node3&#45;&gt;Node14 -->
<g id="edge14" class="edge"><title>Node3&#45;&gt;Node14</title>
<path fill="none" stroke="midnightblue" d="M257.582,-307.936C317.218,-295.35 427.773,-272.019 486.31,-259.665"/>
<polygon fill="midnightblue" stroke="midnightblue" points="487.207,-263.053 496.269,-257.563 485.762,-256.204 487.207,-263.053"/>
</g>
<!-- Node15 -->
<g id="node15" class="node"><title>Node15</title>
<polygon fill="white" stroke="#bfbfbf" points="56,-241 56,-260 100,-260 100,-241 56,-241"/>
<text text-anchor="middle" x="78" y="-248" font-family="Helvetica,sans-Serif" font-size="10.00">string</text>
</g>
<!-- Node3&#45;&gt;Node15 -->
<g id="edge15" class="edge"><title>Node3&#45;&gt;Node15</title>
<path fill="none" stroke="midnightblue" d="M198.542,-307.869C174.76,-296.748 133.208,-277.317 105.647,-264.429"/>
<polygon fill="midnightblue" stroke="midnightblue" points="107.076,-261.233 96.5345,-260.167 104.11,-267.574 107.076,-261.233"/>
</g>
<!-- Node3&#45;&gt;Node16 -->
<g id="edge16" class="edge"><title>Node3&#45;&gt;Node16</title>
<path fill="none" stroke="midnightblue" d="M225.565,-307.785C234.696,-298.159 249.167,-281.908 259,-266 284.008,-225.541 274.536,-206.833 302,-168 309.958,-156.747 321.077,-146.106 330.61,-137.999"/>
<polygon fill="midnightblue" stroke="midnightblue" points="332.937,-140.617 338.459,-131.575 328.504,-135.2 332.937,-140.617"/>
</g>
<!-- Node5 -->
<g id="node5" class="node"><title>Node5</title>
<g id="a_node5"><a xlink:href="CoreMacros_8hpp.html" target="_top" xlink:title="Core/CoreMacros.hpp">
<polygon fill="white" stroke="black" points="416,-56.5 416,-75.5 536,-75.5 536,-56.5 416,-56.5"/>
<text text-anchor="middle" x="476" y="-63.5" font-family="Helvetica,sans-Serif" font-size="10.00">Core/CoreMacros.hpp</text>
</a>
</g>
</g>
<!-- Node4&#45;&gt;Node5 -->
<g id="edge4" class="edge"><title>Node4&#45;&gt;Node5</title>
<path fill="none" stroke="midnightblue" d="M476,-112.083C476,-105.006 476,-94.8611 476,-85.9865"/>
<polygon fill="midnightblue" stroke="midnightblue" points="479.5,-85.751 476,-75.7511 472.5,-85.7511 479.5,-85.751"/>
</g>
<!-- Node6 -->
<g id="node6" class="node"><title>Node6</title>
<polygon fill="white" stroke="#bfbfbf" points="313,-0.5 313,-19.5 365,-19.5 365,-0.5 313,-0.5"/>
<text text-anchor="middle" x="339" y="-7.5" font-family="Helvetica,sans-Serif" font-size="10.00">cassert</text>
</g>
<!-- Node5&#45;&gt;Node6 -->
<g id="edge5" class="edge"><title>Node5&#45;&gt;Node6</title>
<path fill="none" stroke="midnightblue" d="M454.292,-56.4435C431.645,-47.5171 395.928,-33.4387 370.248,-23.3168"/>
<polygon fill="midnightblue" stroke="midnightblue" points="371.193,-19.9273 360.606,-19.5164 368.626,-26.4397 371.193,-19.9273"/>
</g>
<!-- Node7 -->
<g id="node7" class="node"><title>Node7</title>
<polygon fill="white" stroke="#bfbfbf" points="383.5,-0.5 383.5,-19.5 428.5,-19.5 428.5,-0.5 383.5,-0.5"/>
<text text-anchor="middle" x="406" y="-7.5" font-family="Helvetica,sans-Serif" font-size="10.00">cstdio</text>
</g>
<!-- Node5&#45;&gt;Node7 -->
<g id="edge6" class="edge"><title>Node5&#45;&gt;Node7</title>
<path fill="none" stroke="midnightblue" d="M464.753,-56.324C454.203,-48.1849 438.199,-35.8395 425.558,-26.0874"/>
<polygon fill="midnightblue" stroke="midnightblue" points="427.507,-23.1707 417.451,-19.8339 423.231,-28.7132 427.507,-23.1707"/>
</g>
<!-- Node8 -->
<g id="node8" class="node"><title>Node8</title>
<polygon fill="white" stroke="#bfbfbf" points="446.5,-0.5 446.5,-19.5 505.5,-19.5 505.5,-0.5 446.5,-0.5"/>
<text text-anchor="middle" x="476" y="-7.5" font-family="Helvetica,sans-Serif" font-size="10.00">iostream</text>
</g>
<!-- Node5&#45;&gt;Node8 -->
<g id="edge7" class="edge"><title>Node5&#45;&gt;Node8</title>
<path fill="none" stroke="midnightblue" d="M476,-56.083C476,-49.0059 476,-38.8611 476,-29.9865"/>
<polygon fill="midnightblue" stroke="midnightblue" points="479.5,-29.751 476,-19.7511 472.5,-29.7511 479.5,-29.751"/>
</g>
<!-- Node9 -->
<g id="node9" class="node"><title>Node9</title>
<polygon fill="white" stroke="#bfbfbf" points="524,-0.5 524,-19.5 580,-19.5 580,-0.5 524,-0.5"/>
<text text-anchor="middle" x="552" y="-7.5" font-family="Helvetica,sans-Serif" font-size="10.00">sstream</text>
</g>
<!-- Node5&#45;&gt;Node9 -->
<g id="edge8" class="edge"><title>Node5&#45;&gt;Node9</title>
<path fill="none" stroke="midnightblue" d="M488.211,-56.324C499.776,-48.1066 517.375,-35.6017 531.161,-25.8069"/>
<polygon fill="midnightblue" stroke="midnightblue" points="533.443,-28.4791 539.567,-19.8339 529.388,-22.7729 533.443,-28.4791"/>
</g>
<!-- Node10 -->
<g id="node10" class="node"><title>Node10</title>
<polygon fill="white" stroke="#bfbfbf" points="598,-0.5 598,-19.5 646,-19.5 646,-0.5 598,-0.5"/>
<text text-anchor="middle" x="622" y="-7.5" font-family="Helvetica,sans-Serif" font-size="10.00">thread</text>
</g>
<!-- Node5&#45;&gt;Node10 -->
<g id="edge9" class="edge"><title>Node5&#45;&gt;Node10</title>
<path fill="none" stroke="midnightblue" d="M499.134,-56.4435C523.482,-47.4381 562.007,-33.1891 589.423,-23.049"/>
<polygon fill="midnightblue" stroke="midnightblue" points="590.809,-26.2681 598.974,-19.5164 588.381,-19.7028 590.809,-26.2681"/>
</g>
<!-- Node12 -->
<g id="node12" class="node"><title>Node12</title>
<g id="a_node12"><a xlink:href="RaCore_8hpp.html" target="_top" xlink:title="Core/RaCore.hpp">
<polygon fill="white" stroke="black" points="144,-174 144,-193 242,-193 242,-174 144,-174"/>
<text text-anchor="middle" x="193" y="-181" font-family="Helvetica,sans-Serif" font-size="10.00">Core/RaCore.hpp</text>
</a>
</g>
</g>
<!-- Node11&#45;&gt;Node12 -->
<g id="edge11" class="edge"><title>Node11&#45;&gt;Node12</title>
<path fill="none" stroke="midnightblue" d="M185.214,-240.734C186.536,-231.183 188.691,-215.618 190.399,-203.283"/>
<polygon fill="midnightblue" stroke="midnightblue" points="193.901,-203.513 191.805,-193.127 186.967,-202.553 193.901,-203.513"/>
</g>
<!-- Node12&#45;&gt;Node5 -->
<g id="edge12" class="edge"><title>Node12&#45;&gt;Node5</title>
<path fill="none" stroke="midnightblue" d="M205.859,-173.793C227.808,-159.256 274.282,-129.879 317,-112 352.342,-97.2079 394.08,-85.6028 425.923,-77.885"/>
<polygon fill="midnightblue" stroke="midnightblue" points="426.973,-81.2331 435.894,-75.5167 425.355,-74.4226 426.973,-81.2331"/>
</g>
<!-- Node17&#45;&gt;Node4 -->
<g id="edge38" class="edge"><title>Node17&#45;&gt;Node4</title>
<path fill="none" stroke="midnightblue" d="M415.512,-369.498C398.942,-361.537 381.466,-349.736 372,-333 365.217,-321.008 368.416,-315.303 372,-302 389.709,-236.27 438.143,-169.817 462.144,-139.693"/>
<polygon fill="midnightblue" stroke="midnightblue" points="465.166,-141.522 468.747,-131.551 459.729,-137.113 465.166,-141.522"/>
</g>
<!-- Node17&#45;&gt;Node14 -->
<g id="edge43" class="edge"><title>Node17&#45;&gt;Node14</title>
<path fill="none" stroke="midnightblue" d="M496.019,-369.385C512.394,-361.401 529.66,-349.615 539,-333 550.173,-313.123 542.093,-286.539 534.35,-269.221"/>
<polygon fill="midnightblue" stroke="midnightblue" points="537.494,-267.683 529.977,-260.217 531.197,-270.741 537.494,-267.683"/>
</g>
<!-- Node18 -->
<g id="node18" class="node"><title>Node18</title>
<g id="a_node18"><a xlink:href="LightStorage_8hpp.html" target="_top" xlink:title="Engine/Managers/LightManager\l/LightStorage.hpp">
<polygon fill="white" stroke="black" points="623.5,-302.5 623.5,-332.5 790.5,-332.5 790.5,-302.5 623.5,-302.5"/>
<text text-anchor="start" x="631.5" y="-320.5" font-family="Helvetica,sans-Serif" font-size="10.00">Engine/Managers/LightManager</text>
<text text-anchor="middle" x="707" y="-309.5" font-family="Helvetica,sans-Serif" font-size="10.00">/LightStorage.hpp</text>
</a>
</g>
</g>
<!-- Node17&#45;&gt;Node18 -->
<g id="edge18" class="edge"><title>Node17&#45;&gt;Node18</title>
<path fill="none" stroke="midnightblue" d="M510.154,-369.476C549.031,-359.408 601.584,-345.799 642.611,-335.174"/>
<polygon fill="midnightblue" stroke="midnightblue" points="643.707,-338.506 652.51,-332.611 641.952,-331.73 643.707,-338.506"/>
</g>
<!-- Node30 -->
<g id="node30" class="node"><title>Node30</title>
<g id="a_node30"><a xlink:href="System_8hpp.html" target="_top" xlink:title="Engine/System/System.hpp">
<polygon fill="white" stroke="black" points="381.5,-308 381.5,-327 530.5,-327 530.5,-308 381.5,-308"/>
<text text-anchor="middle" x="456" y="-315" font-family="Helvetica,sans-Serif" font-size="10.00">Engine/System/System.hpp</text>
</a>
</g>
</g>
<!-- Node17&#45;&gt;Node30 -->
<g id="edge39" class="edge"><title>Node17&#45;&gt;Node30</title>
<path fill="none" stroke="midnightblue" d="M456,-369.396C456,-360.064 456,-347.714 456,-337.517"/>
<polygon fill="midnightblue" stroke="midnightblue" points="459.5,-337.195 456,-327.195 452.5,-337.195 459.5,-337.195"/>
</g>
<!-- Node18&#45;&gt;Node4 -->
<g id="edge19" class="edge"><title>Node18&#45;&gt;Node4</title>
<path fill="none" stroke="midnightblue" d="M681.163,-302.325C636.046,-277.243 545.286,-225.218 520,-199 503.678,-182.076 491.053,-157.962 483.595,-141.462"/>
<polygon fill="midnightblue" stroke="midnightblue" points="486.631,-139.664 479.453,-131.871 480.204,-142.439 486.631,-139.664"/>
</g>
<!-- Node18&#45;&gt;Node19 -->
<g id="edge20" class="edge"><title>Node18&#45;&gt;Node19</title>
<path fill="none" stroke="midnightblue" d="M713.51,-302.396C717.244,-294.304 722.026,-283.944 726.299,-274.685"/>
<polygon fill="midnightblue" stroke="midnightblue" points="729.49,-276.123 730.503,-265.577 723.135,-273.189 729.49,-276.123"/>
</g>
<!-- Node19&#45;&gt;Node4 -->
<g id="edge36" class="edge"><title>Node19&#45;&gt;Node4</title>
<path fill="none" stroke="midnightblue" d="M684.84,-240.556C649.02,-232.963 601.227,-219.895 563,-199 534.114,-183.211 506.504,-156.425 490.409,-139.235"/>
<polygon fill="midnightblue" stroke="midnightblue" points="492.809,-136.674 483.477,-131.657 487.644,-141.398 492.809,-136.674"/>
</g>
<!-- Node20 -->
<g id="node20" class="node"><title>Node20</title>
<g id="a_node20"><a xlink:href="Color_8hpp.html" target="_top" xlink:title="Core/Utils/Color.hpp">
<polygon fill="white" stroke="black" points="711.5,-174 711.5,-193 822.5,-193 822.5,-174 711.5,-174"/>
<text text-anchor="middle" x="767" y="-181" font-family="Helvetica,sans-Serif" font-size="10.00">Core/Utils/Color.hpp</text>
</a>
</g>
</g>
<!-- Node19&#45;&gt;Node20 -->
<g id="edge21" class="edge"><title>Node19&#45;&gt;Node20</title>
<path fill="none" stroke="midnightblue" d="M743.51,-235.396C747.956,-225.763 753.886,-212.914 758.675,-202.537"/>
<polygon fill="midnightblue" stroke="midnightblue" points="761.974,-203.741 762.987,-193.195 755.619,-200.807 761.974,-203.741"/>
</g>
<!-- Node24 -->
<g id="node24" class="node"><title>Node24</title>
<g id="a_node24"><a xlink:href="Component_8hpp.html" target="_top" xlink:title="Engine/Component/Component.hpp">
<polygon fill="white" stroke="black" points="841,-174 841,-193 1029,-193 1029,-174 841,-174"/>
<text text-anchor="middle" x="935" y="-181" font-family="Helvetica,sans-Serif" font-size="10.00">Engine/Component/Component.hpp</text>
</a>
</g>
</g>
<!-- Node19&#45;&gt;Node24 -->
<g id="edge26" class="edge"><title>Node19&#45;&gt;Node24</title>
<path fill="none" stroke="midnightblue" d="M779.963,-235.396C815.627,-223.688 865.757,-207.231 899.258,-196.234"/>
<polygon fill="midnightblue" stroke="midnightblue" points="900.677,-199.452 909.086,-193.007 898.494,-192.801 900.677,-199.452"/>
</g>
<!-- Node29 -->
<g id="node29" class="node"><title>Node29</title>
<g id="a_node29"><a xlink:href="Light_8inl.html" target="_top" xlink:title="Engine/Renderer/Light\l/Light.inl">
<polygon fill="white" stroke="black" points="572.5,-168.5 572.5,-198.5 693.5,-198.5 693.5,-168.5 572.5,-168.5"/>
<text text-anchor="start" x="580.5" y="-186.5" font-family="Helvetica,sans-Serif" font-size="10.00">Engine/Renderer/Light</text>
<text text-anchor="middle" x="633" y="-175.5" font-family="Helvetica,sans-Serif" font-size="10.00">/Light.inl</text>
</a>
</g>
</g>
<!-- Node19&#45;&gt;Node29 -->
<g id="edge37" class="edge"><title>Node19&#45;&gt;Node29</title>
<path fill="none" stroke="midnightblue" d="M714.434,-235.396C699.715,-226.197 680.305,-214.066 664.127,-203.955"/>
<polygon fill="midnightblue" stroke="midnightblue" points="665.857,-200.909 655.522,-198.577 662.147,-206.845 665.857,-200.909"/>
</g>
<!-- Node20&#45;&gt;Node5 -->
<g id="edge22" class="edge"><title>Node20&#45;&gt;Node5</title>
<path fill="none" stroke="midnightblue" d="M742.619,-173.897C715.122,-164.106 669.136,-147.463 630,-132 586.163,-114.68 535.96,-93.1725 505.116,-79.7632"/>
<polygon fill="midnightblue" stroke="midnightblue" points="506.38,-76.4962 495.814,-75.7097 503.583,-82.9133 506.38,-76.4962"/>
</g>
<!-- Node21 -->
<g id="node21" class="node"><title>Node21</title>
<polygon fill="white" stroke="#bfbfbf" points="823,-112.5 823,-131.5 891,-131.5 891,-112.5 823,-112.5"/>
<text text-anchor="middle" x="857" y="-119.5" font-family="Helvetica,sans-Serif" font-size="10.00">Eigen/Core</text>
</g>
<!-- Node20&#45;&gt;Node21 -->
<g id="edge23" class="edge"><title>Node20&#45;&gt;Node21</title>
<path fill="none" stroke="midnightblue" d="M779.895,-173.975C794.464,-164.343 818.402,-148.517 835.745,-137.052"/>
<polygon fill="midnightblue" stroke="midnightblue" points="837.717,-139.944 844.129,-131.509 833.857,-134.104 837.717,-139.944"/>
</g>
<!-- Node22 -->
<g id="node22" class="node"><title>Node22</title>
<polygon fill="white" stroke="#bfbfbf" points="711,-112.5 711,-131.5 805,-131.5 805,-112.5 711,-112.5"/>
<text text-anchor="middle" x="758" y="-119.5" font-family="Helvetica,sans-Serif" font-size="10.00">Eigen/Geometry</text>
</g>
<!-- Node20&#45;&gt;Node22 -->
<g id="edge24" class="edge"><title>Node20&#45;&gt;Node22</title>
<path fill="none" stroke="midnightblue" d="M765.711,-173.975C764.441,-165.58 762.459,-152.481 760.823,-141.663"/>
<polygon fill="midnightblue" stroke="midnightblue" points="764.243,-140.873 759.287,-131.509 757.322,-141.92 764.243,-140.873"/>
</g>
<!-- Node23 -->
<g id="node23" class="node"><title>Node23</title>
<polygon fill="white" stroke="#bfbfbf" points="639,-112.5 639,-131.5 693,-131.5 693,-112.5 639,-112.5"/>
<text text-anchor="middle" x="666" y="-119.5" font-family="Helvetica,sans-Serif" font-size="10.00">random</text>
</g>
<!-- Node20&#45;&gt;Node23 -->
<g id="edge25" class="edge"><title>Node20&#45;&gt;Node23</title>
<path fill="none" stroke="midnightblue" d="M752.529,-173.975C736.029,-164.255 708.822,-148.227 689.319,-136.737"/>
<polygon fill="midnightblue" stroke="midnightblue" points="690.837,-133.569 680.444,-131.509 687.284,-139.601 690.837,-133.569"/>
</g>
<!-- Node24&#45;&gt;Node4 -->
<g id="edge32" class="edge"><title>Node24&#45;&gt;Node4</title>
<path fill="none" stroke="midnightblue" d="M874.799,-173.977C860.45,-171.981 845.186,-169.888 831,-168 731.658,-154.779 616.552,-140.352 544.996,-131.488"/>
<polygon fill="midnightblue" stroke="midnightblue" points="545.116,-127.976 534.761,-130.221 544.256,-134.923 545.116,-127.976"/>
</g>
<!-- Node24&#45;&gt;Node16 -->
<g id="edge33" class="edge"><title>Node24&#45;&gt;Node16</title>
<path fill="none" stroke="midnightblue" d="M877.852,-173.971C862.646,-171.855 846.218,-169.707 831,-168 643.497,-146.965 595.336,-154.479 408,-132 400.121,-131.055 391.669,-129.852 383.72,-128.635"/>
<polygon fill="midnightblue" stroke="midnightblue" points="384.076,-125.148 373.653,-127.049 382.986,-132.063 384.076,-125.148"/>
</g>
<!-- Node24&#45;&gt;Node21 -->
<g id="edge30" class="edge"><title>Node24&#45;&gt;Node21</title>
<path fill="none" stroke="midnightblue" d="M923.825,-173.975C911.429,-164.52 891.21,-149.096 876.254,-137.687"/>
<polygon fill="midnightblue" stroke="midnightblue" points="878.228,-134.791 868.155,-131.509 873.983,-140.357 878.228,-134.791"/>
</g>
<!-- Node24&#45;&gt;Node22 -->
<g id="edge31" class="edge"><title>Node24&#45;&gt;Node22</title>
<path fill="none" stroke="midnightblue" d="M909.64,-173.975C879.016,-163.68 827.343,-146.31 792.954,-134.75"/>
<polygon fill="midnightblue" stroke="midnightblue" points="793.907,-131.378 783.313,-131.509 791.676,-138.013 793.907,-131.378"/>
</g>
<!-- Node25 -->
<g id="node25" class="node"><title>Node25</title>
<g id="a_node25"><a xlink:href="Index_8hpp.html" target="_top" xlink:title="Core/Utils/Index.hpp">
<polygon fill="white" stroke="black" points="1108.5,-112.5 1108.5,-131.5 1221.5,-131.5 1221.5,-112.5 1108.5,-112.5"/>
<text text-anchor="middle" x="1165" y="-119.5" font-family="Helvetica,sans-Serif" font-size="10.00">Core/Utils/Index.hpp</text>
</a>
</g>
</g>
<!-- Node24&#45;&gt;Node25 -->
<g id="edge27" class="edge"><title>Node24&#45;&gt;Node25</title>
<path fill="none" stroke="midnightblue" d="M967.953,-173.975C1008.6,-163.459 1077.79,-145.562 1122.42,-134.014"/>
<polygon fill="midnightblue" stroke="midnightblue" points="1123.3,-137.402 1132.11,-131.509 1121.55,-130.625 1123.3,-137.402"/>
</g>
<!-- Node28 -->
<g id="node28" class="node"><title>Node28</title>
<g id="a_node28"><a xlink:href="Component_8inl.html" target="_top" xlink:title="Engine/Component/Component.inl">
<polygon fill="white" stroke="black" points="909.5,-112.5 909.5,-131.5 1090.5,-131.5 1090.5,-112.5 909.5,-112.5"/>
<text text-anchor="middle" x="1000" y="-119.5" font-family="Helvetica,sans-Serif" font-size="10.00">Engine/Component/Component.inl</text>
</a>
</g>
</g>
<!-- Node24&#45;&gt;Node28 -->
<g id="edge34" class="edge"><title>Node24&#45;&gt;Node28</title>
<path fill="none" stroke="midnightblue" d="M939.412,-173.975C947.602,-164.608 963.883,-149.384 977.653,-138.008"/>
<polygon fill="midnightblue" stroke="midnightblue" points="980.169,-140.479 985.807,-131.509 975.806,-135.005 980.169,-140.479"/>
</g>
<!-- Node26 -->
<g id="node26" class="node"><title>Node26</title>
<polygon fill="white" stroke="#bfbfbf" points="1190,-56.5 1190,-75.5 1232,-75.5 1232,-56.5 1190,-56.5"/>
<text text-anchor="middle" x="1211" y="-63.5" font-family="Helvetica,sans-Serif" font-size="10.00">limits</text>
</g>
<!-- Node25&#45;&gt;Node26 -->
<g id="edge28" class="edge"><title>Node25&#45;&gt;Node26</title>
<path fill="none" stroke="midnightblue" d="M1172.6,-112.083C1179.23,-104.298 1189.02,-92.8015 1197.06,-83.3665"/>
<polygon fill="midnightblue" stroke="midnightblue" points="1199.73,-85.6332 1203.55,-75.7511 1194.4,-81.0939 1199.73,-85.6332"/>
</g>
<!-- Node27 -->
<g id="node27" class="node"><title>Node27</title>
<g id="a_node27"><a xlink:href="Index_8inl.html" target="_top" xlink:title="Core/Utils/Index.inl">
<polygon fill="white" stroke="black" points="1066.5,-56.5 1066.5,-75.5 1171.5,-75.5 1171.5,-56.5 1066.5,-56.5"/>
<text text-anchor="middle" x="1119" y="-63.5" font-family="Helvetica,sans-Serif" font-size="10.00">Core/Utils/Index.inl</text>
</a>
</g>
</g>
<!-- Node25&#45;&gt;Node27 -->
<g id="edge29" class="edge"><title>Node25&#45;&gt;Node27</title>
<path fill="none" stroke="midnightblue" d="M1157.4,-112.083C1150.77,-104.298 1140.98,-92.8015 1132.94,-83.3665"/>
<polygon fill="midnightblue" stroke="midnightblue" points="1135.6,-81.0939 1126.45,-75.7511 1130.27,-85.6332 1135.6,-81.0939"/>
</g>
<!-- Node28&#45;&gt;Node24 -->
<g id="edge35" class="edge"><title>Node28&#45;&gt;Node24</title>
<path fill="none" stroke="midnightblue" d="M995.601,-131.509C987.421,-140.869 971.143,-156.093 957.37,-167.473"/>
<polygon fill="midnightblue" stroke="midnightblue" points="954.851,-165.005 949.214,-173.975 959.215,-170.478 954.851,-165.005"/>
</g>
<!-- Node30&#45;&gt;Node4 -->
<g id="edge40" class="edge"><title>Node30&#45;&gt;Node4</title>
<path fill="none" stroke="midnightblue" d="M456.885,-307.936C459.898,-278.787 469.802,-182.968 474.044,-141.928"/>
<polygon fill="midnightblue" stroke="midnightblue" points="477.533,-142.214 475.079,-131.907 470.57,-141.494 477.533,-142.214"/>
</g>
<!-- Node30&#45;&gt;Node14 -->
<g id="edge41" class="edge"><title>Node30&#45;&gt;Node14</title>
<path fill="none" stroke="midnightblue" d="M465.306,-307.734C476.272,-297.403 494.707,-280.037 508.194,-267.332"/>
<polygon fill="midnightblue" stroke="midnightblue" points="510.963,-269.532 515.842,-260.127 506.163,-264.437 510.963,-269.532"/>
</g>
<!-- Node30&#45;&gt;Node16 -->
<g id="edge42" class="edge"><title>Node30&#45;&gt;Node16</title>
<path fill="none" stroke="midnightblue" d="M451.309,-307.936C435.204,-278.538 381.95,-181.325 359.799,-140.888"/>
<polygon fill="midnightblue" stroke="midnightblue" points="362.753,-138.996 354.879,-131.907 356.614,-142.359 362.753,-138.996"/>
</g>
</g>
</svg>
