<?xml version="1.0" encoding="UTF-8" standalone="no"?>
<!DOCTYPE svg PUBLIC "-//W3C//DTD SVG 1.1//EN"
 "http://www.w3.org/Graphics/SVG/1.1/DTD/svg11.dtd">
<!-- Generated by graphviz version 2.38.0 (20140413.2041)
 -->
<!-- Title: /home/travis/build/STORM&#45;IRIT/Radium&#45;Engine/src/Engine/Managers/LightManager/DefaultLightManager.hpp Pages: 1 -->
<svg width="1186pt" height="497pt"
 viewBox="0.00 0.00 1185.61 497.00" xmlns="http://www.w3.org/2000/svg" xmlns:xlink="http://www.w3.org/1999/xlink">
<g id="graph0" class="graph" transform="scale(1 1) rotate(0) translate(4 493)">
<title>/home/travis/build/STORM&#45;IRIT/Radium&#45;Engine/src/Engine/Managers/LightManager/DefaultLightManager.hpp</title>
<polygon fill="white" stroke="none" points="-4,4 -4,-493 1181.61,-493 1181.61,4 -4,4"/>
<!-- Node1 -->
<g id="node1" class="node"><title>Node1</title>
<polygon fill="#bfbfbf" stroke="black" points="222.11,-436.5 222.11,-488.5 410.11,-488.5 410.11,-436.5 222.11,-436.5"/>
<text text-anchor="start" x="230.11" y="-476.5" font-family="Helvetica,sans-Serif" font-size="10.00">/home/travis/build</text>
<text text-anchor="start" x="230.11" y="-465.5" font-family="Helvetica,sans-Serif" font-size="10.00">/STORM&#45;IRIT/Radium&#45;Engine</text>
<text text-anchor="start" x="230.11" y="-454.5" font-family="Helvetica,sans-Serif" font-size="10.00">/src/Engine/Managers/LightManager</text>
<text text-anchor="middle" x="316.11" y="-443.5" font-family="Helvetica,sans-Serif" font-size="10.00">/DefaultLightManager.hpp</text>
</g>
<!-- Node2 -->
<g id="node2" class="node"><title>Node2</title>
<g id="a_node2"><a xlink:href="RadiumEngine_8hpp.html" target="_top" xlink:title="Engine/RadiumEngine.hpp">
<polygon fill="white" stroke="black" points="146.61,-241 146.61,-260 287.61,-260 287.61,-241 146.61,-241"/>
<text text-anchor="middle" x="217.11" y="-248" font-family="Helvetica,sans-Serif" font-size="10.00">Engine/RadiumEngine.hpp</text>
</a>
</g>
</g>
<!-- Node1&#45;&gt;Node2 -->
<g id="edge1" class="edge"><title>Node1&#45;&gt;Node2</title>
<path fill="none" stroke="midnightblue" d="M304.169,-436.169C283.861,-393.093 243.094,-306.617 225.505,-269.308"/>
<polygon fill="midnightblue" stroke="midnightblue" points="228.625,-267.718 221.195,-260.165 222.294,-270.703 228.625,-267.718"/>
</g>
<!-- Node13 -->
<g id="node13" class="node"><title>Node13</title>
<polygon fill="white" stroke="#bfbfbf" points="374.61,-174 374.61,-193 431.61,-193 431.61,-174 374.61,-174"/>
<text text-anchor="middle" x="403.11" y="-181" font-family="Helvetica,sans-Serif" font-size="10.00">memory</text>
</g>
<!-- Node1&#45;&gt;Node13 -->
<g id="edge44" class="edge"><title>Node1&#45;&gt;Node13</title>
<path fill="none" stroke="midnightblue" d="M318.25,-436.304C322.635,-393.32 334.992,-303.795 366.11,-235 371.735,-222.566 380.743,-210.18 388.462,-200.787"/>
<polygon fill="midnightblue" stroke="midnightblue" points="391.211,-202.959 395.055,-193.086 385.893,-198.406 391.211,-202.959"/>
</g>
<!-- Node15 -->
<g id="node15" class="node"><title>Node15</title>
<polygon fill="white" stroke="#bfbfbf" points="290.61,-112.5 290.61,-131.5 337.61,-131.5 337.61,-112.5 290.61,-112.5"/>
<text text-anchor="middle" x="314.11" y="-119.5" font-family="Helvetica,sans-Serif" font-size="10.00">vector</text>
</g>
<!-- Node1&#45;&gt;Node15 -->
<g id="edge45" class="edge"><title>Node1&#45;&gt;Node15</title>
<path fill="none" stroke="midnightblue" d="M221.9,-457.252C129.409,-447.414 2.11026,-416.138 2.11026,-318.5 2.11026,-318.5 2.11026,-318.5 2.11026,-249.5 2.11026,-212.306 -6.33079,-193.107 21.1103,-168 63.333,-129.369 219.873,-142.606 276.11,-132 277.568,-131.725 279.053,-131.432 280.552,-131.124"/>
<polygon fill="midnightblue" stroke="midnightblue" points="281.444,-134.512 290.466,-128.956 279.949,-127.674 281.444,-134.512"/>
</g>
<!-- Node16 -->
<g id="node16" class="node"><title>Node16</title>
<g id="a_node16"><a xlink:href="LightManager_8hpp.html" target="_top" xlink:title="Engine/Managers/LightManager\l/LightManager.hpp">
<polygon fill="white" stroke="black" points="372.61,-369.5 372.61,-399.5 539.61,-399.5 539.61,-369.5 372.61,-369.5"/>
<text text-anchor="start" x="380.61" y="-387.5" font-family="Helvetica,sans-Serif" font-size="10.00">Engine/Managers/LightManager</text>
<text text-anchor="middle" x="456.11" y="-376.5" font-family="Helvetica,sans-Serif" font-size="10.00">/LightManager.hpp</text>
</a>
</g>
</g>
<!-- Node1&#45;&gt;Node16 -->
<g id="edge16" class="edge"><title>Node1&#45;&gt;Node16</title>
<path fill="none" stroke="midnightblue" d="M362.339,-436.404C381.466,-426.021 403.279,-414.18 421.051,-404.532"/>
<polygon fill="midnightblue" stroke="midnightblue" points="422.822,-407.554 429.94,-399.707 419.482,-401.402 422.822,-407.554"/>
</g>
<!-- Node18 -->
<g id="node18" class="node"><title>Node18</title>
<g id="a_node18"><a xlink:href="Light_8hpp.html" target="_top" xlink:title="../../Renderer/Light\l/Light.hpp">
<polygon fill="white" stroke="black" points="726.11,-235.5 726.11,-265.5 830.11,-265.5 830.11,-235.5 726.11,-235.5"/>
<text text-anchor="start" x="734.11" y="-253.5" font-family="Helvetica,sans-Serif" font-size="10.00">../../Renderer/Light</text>
<text text-anchor="middle" x="778.11" y="-242.5" font-family="Helvetica,sans-Serif" font-size="10.00">/Light.hpp</text>
</a>
</g>
</g>
<!-- Node1&#45;&gt;Node18 -->
<g id="edge43" class="edge"><title>Node1&#45;&gt;Node18</title>
<path fill="none" stroke="midnightblue" d="M410.334,-446.022C526.152,-425.067 713.151,-384.322 760.11,-333 774.271,-317.523 778.172,-293.486 778.889,-275.521"/>
<polygon fill="midnightblue" stroke="midnightblue" points="782.389,-275.539 778.992,-265.503 775.389,-275.467 782.389,-275.539"/>
</g>
<!-- Node3 -->
<g id="node3" class="node"><title>Node3</title>
<g id="a_node3"><a xlink:href="RaEngine_8hpp.html" target="_top" xlink:title="Engine/RaEngine.hpp">
<polygon fill="white" stroke="black" points="409.61,-112.5 409.61,-131.5 526.61,-131.5 526.61,-112.5 409.61,-112.5"/>
<text text-anchor="middle" x="468.11" y="-119.5" font-family="Helvetica,sans-Serif" font-size="10.00">Engine/RaEngine.hpp</text>
</a>
</g>
</g>
<!-- Node2&#45;&gt;Node3 -->
<g id="edge2" class="edge"><title>Node2&#45;&gt;Node3</title>
<path fill="none" stroke="midnightblue" d="M233.488,-240.88C252.304,-230.936 284.066,-214.024 311.11,-199 335.302,-185.561 340.394,-180.447 365.11,-168 388.883,-156.028 416.563,-144.039 437.238,-135.45"/>
<polygon fill="midnightblue" stroke="midnightblue" points="438.578,-138.683 446.491,-131.638 435.911,-132.211 438.578,-138.683"/>
</g>
<!-- Node10 -->
<g id="node10" class="node"><title>Node10</title>
<g id="a_node10"><a xlink:href="Singleton_8hpp.html" target="_top" xlink:title="Core/Utils/Singleton.hpp">
<polygon fill="white" stroke="black" points="148.11,-174 148.11,-193 280.11,-193 280.11,-174 148.11,-174"/>
<text text-anchor="middle" x="214.11" y="-181" font-family="Helvetica,sans-Serif" font-size="10.00">Core/Utils/Singleton.hpp</text>
</a>
</g>
</g>
<!-- Node2&#45;&gt;Node10 -->
<g id="edge9" class="edge"><title>Node2&#45;&gt;Node10</title>
<path fill="none" stroke="midnightblue" d="M216.706,-240.734C216.265,-231.183 215.546,-215.618 214.977,-203.283"/>
<polygon fill="midnightblue" stroke="midnightblue" points="218.466,-202.955 214.508,-193.127 211.473,-203.278 218.466,-202.955"/>
</g>
<!-- Node12 -->
<g id="node12" class="node"><title>Node12</title>
<polygon fill="white" stroke="#bfbfbf" points="30.1103,-174 30.1103,-193 68.1103,-193 68.1103,-174 30.1103,-174"/>
<text text-anchor="middle" x="49.1103" y="-181" font-family="Helvetica,sans-Serif" font-size="10.00">map</text>
</g>
<!-- Node2&#45;&gt;Node12 -->
<g id="edge12" class="edge"><title>Node2&#45;&gt;Node12</title>
<path fill="none" stroke="midnightblue" d="M190.123,-240.94C161.624,-231.63 115.584,-215.814 77.1103,-199 76.107,-198.562 75.0897,-198.103 74.0665,-197.631"/>
<polygon fill="midnightblue" stroke="midnightblue" points="75.4457,-194.409 64.9259,-193.15 72.3648,-200.694 75.4457,-194.409"/>
</g>
<!-- Node2&#45;&gt;Node13 -->
<g id="edge13" class="edge"><title>Node2&#45;&gt;Node13</title>
<path fill="none" stroke="midnightblue" d="M241.81,-240.869C274.418,-229.473 331.993,-209.353 368.809,-196.487"/>
<polygon fill="midnightblue" stroke="midnightblue" points="370.319,-199.667 378.605,-193.064 368.01,-193.059 370.319,-199.667"/>
</g>
<!-- Node14 -->
<g id="node14" class="node"><title>Node14</title>
<polygon fill="white" stroke="#bfbfbf" points="86.1103,-174 86.1103,-193 130.11,-193 130.11,-174 86.1103,-174"/>
<text text-anchor="middle" x="108.11" y="-181" font-family="Helvetica,sans-Serif" font-size="10.00">string</text>
</g>
<!-- Node2&#45;&gt;Node14 -->
<g id="edge14" class="edge"><title>Node2&#45;&gt;Node14</title>
<path fill="none" stroke="midnightblue" d="M202.41,-240.734C184.187,-229.867 152.911,-211.216 131.408,-198.393"/>
<polygon fill="midnightblue" stroke="midnightblue" points="132.959,-195.243 122.578,-193.127 129.374,-201.255 132.959,-195.243"/>
</g>
<!-- Node2&#45;&gt;Node15 -->
<g id="edge15" class="edge"><title>Node2&#45;&gt;Node15</title>
<path fill="none" stroke="midnightblue" d="M235.303,-240.995C251.587,-232.508 275.006,-218.004 289.11,-199 301.755,-181.963 308.211,-158.199 311.361,-141.802"/>
<polygon fill="midnightblue" stroke="midnightblue" points="314.836,-142.243 313.05,-131.8 307.934,-141.077 314.836,-142.243"/>
</g>
<!-- Node4 -->
<g id="node4" class="node"><title>Node4</title>
<g id="a_node4"><a xlink:href="CoreMacros_8hpp.html" target="_top" xlink:title="Core/CoreMacros.hpp">
<polygon fill="white" stroke="black" points="408.11,-56.5 408.11,-75.5 528.11,-75.5 528.11,-56.5 408.11,-56.5"/>
<text text-anchor="middle" x="468.11" y="-63.5" font-family="Helvetica,sans-Serif" font-size="10.00">Core/CoreMacros.hpp</text>
</a>
</g>
</g>
<!-- Node3&#45;&gt;Node4 -->
<g id="edge3" class="edge"><title>Node3&#45;&gt;Node4</title>
<path fill="none" stroke="midnightblue" d="M468.11,-112.083C468.11,-105.006 468.11,-94.8611 468.11,-85.9865"/>
<polygon fill="midnightblue" stroke="midnightblue" points="471.61,-85.751 468.11,-75.7511 464.61,-85.7511 471.61,-85.751"/>
</g>
<!-- Node5 -->
<g id="node5" class="node"><title>Node5</title>
<polygon fill="white" stroke="#bfbfbf" points="305.11,-0.5 305.11,-19.5 357.11,-19.5 357.11,-0.5 305.11,-0.5"/>
<text text-anchor="middle" x="331.11" y="-7.5" font-family="Helvetica,sans-Serif" font-size="10.00">cassert</text>
</g>
<!-- Node4&#45;&gt;Node5 -->
<g id="edge4" class="edge"><title>Node4&#45;&gt;Node5</title>
<path fill="none" stroke="midnightblue" d="M446.402,-56.4435C423.755,-47.5171 388.038,-33.4387 362.358,-23.3168"/>
<polygon fill="midnightblue" stroke="midnightblue" points="363.304,-19.9273 352.717,-19.5164 360.737,-26.4397 363.304,-19.9273"/>
</g>
<!-- Node6 -->
<g id="node6" class="node"><title>Node6</title>
<polygon fill="white" stroke="#bfbfbf" points="375.61,-0.5 375.61,-19.5 420.61,-19.5 420.61,-0.5 375.61,-0.5"/>
<text text-anchor="middle" x="398.11" y="-7.5" font-family="Helvetica,sans-Serif" font-size="10.00">cstdio</text>
</g>
<!-- Node4&#45;&gt;Node6 -->
<g id="edge5" class="edge"><title>Node4&#45;&gt;Node6</title>
<path fill="none" stroke="midnightblue" d="M456.864,-56.324C446.313,-48.1849 430.31,-35.8395 417.668,-26.0874"/>
<polygon fill="midnightblue" stroke="midnightblue" points="419.617,-23.1707 409.562,-19.8339 415.342,-28.7132 419.617,-23.1707"/>
</g>
<!-- Node7 -->
<g id="node7" class="node"><title>Node7</title>
<polygon fill="white" stroke="#bfbfbf" points="438.61,-0.5 438.61,-19.5 497.61,-19.5 497.61,-0.5 438.61,-0.5"/>
<text text-anchor="middle" x="468.11" y="-7.5" font-family="Helvetica,sans-Serif" font-size="10.00">iostream</text>
</g>
<!-- Node4&#45;&gt;Node7 -->
<g id="edge6" class="edge"><title>Node4&#45;&gt;Node7</title>
<path fill="none" stroke="midnightblue" d="M468.11,-56.083C468.11,-49.0059 468.11,-38.8611 468.11,-29.9865"/>
<polygon fill="midnightblue" stroke="midnightblue" points="471.61,-29.751 468.11,-19.7511 464.61,-29.7511 471.61,-29.751"/>
</g>
<!-- Node8 -->
<g id="node8" class="node"><title>Node8</title>
<polygon fill="white" stroke="#bfbfbf" points="516.11,-0.5 516.11,-19.5 572.11,-19.5 572.11,-0.5 516.11,-0.5"/>
<text text-anchor="middle" x="544.11" y="-7.5" font-family="Helvetica,sans-Serif" font-size="10.00">sstream</text>
</g>
<!-- Node4&#45;&gt;Node8 -->
<g id="edge7" class="edge"><title>Node4&#45;&gt;Node8</title>
<path fill="none" stroke="midnightblue" d="M480.321,-56.324C491.886,-48.1066 509.486,-35.6017 523.271,-25.8069"/>
<polygon fill="midnightblue" stroke="midnightblue" points="525.553,-28.4791 531.677,-19.8339 521.498,-22.7729 525.553,-28.4791"/>
</g>
<!-- Node9 -->
<g id="node9" class="node"><title>Node9</title>
<polygon fill="white" stroke="#bfbfbf" points="590.11,-0.5 590.11,-19.5 638.11,-19.5 638.11,-0.5 590.11,-0.5"/>
<text text-anchor="middle" x="614.11" y="-7.5" font-family="Helvetica,sans-Serif" font-size="10.00">thread</text>
</g>
<!-- Node4&#45;&gt;Node9 -->
<g id="edge8" class="edge"><title>Node4&#45;&gt;Node9</title>
<path fill="none" stroke="midnightblue" d="M491.244,-56.4435C515.592,-47.4381 554.117,-33.1891 581.533,-23.049"/>
<polygon fill="midnightblue" stroke="midnightblue" points="582.919,-26.2681 591.084,-19.5164 580.491,-19.7028 582.919,-26.2681"/>
</g>
<!-- Node11 -->
<g id="node11" class="node"><title>Node11</title>
<g id="a_node11"><a xlink:href="RaCore_8hpp.html" target="_top" xlink:title="Core/RaCore.hpp">
<polygon fill="white" stroke="black" points="169.11,-112.5 169.11,-131.5 267.11,-131.5 267.11,-112.5 169.11,-112.5"/>
<text text-anchor="middle" x="218.11" y="-119.5" font-family="Helvetica,sans-Serif" font-size="10.00">Core/RaCore.hpp</text>
</a>
</g>
</g>
<!-- Node10&#45;&gt;Node11 -->
<g id="edge10" class="edge"><title>Node10&#45;&gt;Node11</title>
<path fill="none" stroke="midnightblue" d="M214.683,-173.975C215.248,-165.58 216.128,-152.481 216.856,-141.663"/>
<polygon fill="midnightblue" stroke="midnightblue" points="220.359,-141.721 217.538,-131.509 213.375,-141.252 220.359,-141.721"/>
</g>
<!-- Node11&#45;&gt;Node4 -->
<g id="edge11" class="edge"><title>Node11&#45;&gt;Node4</title>
<path fill="none" stroke="midnightblue" d="M257.724,-112.444C301.335,-103.023 371.51,-87.8656 418.688,-77.6752"/>
<polygon fill="midnightblue" stroke="midnightblue" points="419.647,-81.0489 428.682,-75.5164 418.169,-74.2067 419.647,-81.0489"/>
</g>
<!-- Node16&#45;&gt;Node3 -->
<g id="edge37" class="edge"><title>Node16&#45;&gt;Node3</title>
<path fill="none" stroke="midnightblue" d="M470.783,-369.223C490.783,-348.626 525.654,-308.371 539.11,-266 554.62,-217.16 510.7,-164.283 485.098,-138.671"/>
<polygon fill="midnightblue" stroke="midnightblue" points="487.446,-136.073 477.827,-131.633 482.578,-141.103 487.446,-136.073"/>
</g>
<!-- Node16&#45;&gt;Node13 -->
<g id="edge42" class="edge"><title>Node16&#45;&gt;Node13</title>
<path fill="none" stroke="midnightblue" d="M441.264,-369.26C421.027,-348.707 385.74,-308.503 372.11,-266 367.903,-252.88 368.365,-248.259 372.11,-235 375.585,-222.696 382.993,-210.436 389.695,-201.078"/>
<polygon fill="midnightblue" stroke="midnightblue" points="392.501,-203.171 395.754,-193.088 386.923,-198.941 392.501,-203.171"/>
</g>
<!-- Node17 -->
<g id="node17" class="node"><title>Node17</title>
<g id="a_node17"><a xlink:href="LightStorage_8hpp.html" target="_top" xlink:title="Engine/Managers/LightManager\l/LightStorage.hpp">
<polygon fill="white" stroke="black" points="584.61,-302.5 584.61,-332.5 751.61,-332.5 751.61,-302.5 584.61,-302.5"/>
<text text-anchor="start" x="592.61" y="-320.5" font-family="Helvetica,sans-Serif" font-size="10.00">Engine/Managers/LightManager</text>
<text text-anchor="middle" x="668.11" y="-309.5" font-family="Helvetica,sans-Serif" font-size="10.00">/LightStorage.hpp</text>
</a>
</g>
</g>
<!-- Node16&#45;&gt;Node17 -->
<g id="edge17" class="edge"><title>Node16&#45;&gt;Node17</title>
<path fill="none" stroke="midnightblue" d="M501.85,-369.476C534.2,-359.557 577.763,-346.201 612.181,-335.648"/>
<polygon fill="midnightblue" stroke="midnightblue" points="613.552,-338.889 622.087,-332.611 611.5,-332.196 613.552,-338.889"/>
</g>
<!-- Node29 -->
<g id="node29" class="node"><title>Node29</title>
<g id="a_node29"><a xlink:href="System_8hpp.html" target="_top" xlink:title="Engine/System/System.hpp">
<polygon fill="white" stroke="black" points="381.61,-241 381.61,-260 530.61,-260 530.61,-241 381.61,-241"/>
<text text-anchor="middle" x="456.11" y="-248" font-family="Helvetica,sans-Serif" font-size="10.00">Engine/System/System.hpp</text>
</a>
</g>
</g>
<!-- Node16&#45;&gt;Node29 -->
<g id="edge38" class="edge"><title>Node16&#45;&gt;Node29</title>
<path fill="none" stroke="midnightblue" d="M456.11,-369.374C456.11,-345.504 456.11,-297.181 456.11,-270.415"/>
<polygon fill="midnightblue" stroke="midnightblue" points="459.61,-270.097 456.11,-260.097 452.61,-270.097 459.61,-270.097"/>
</g>
<!-- Node17&#45;&gt;Node3 -->
<g id="edge18" class="edge"><title>Node17&#45;&gt;Node3</title>
<path fill="none" stroke="midnightblue" d="M662.329,-302.26C649.908,-273.275 618.029,-206.884 572.11,-168 554.176,-152.813 530.335,-142.001 510.004,-134.788"/>
<polygon fill="midnightblue" stroke="midnightblue" points="510.941,-131.411 500.347,-131.533 508.705,-138.044 510.941,-131.411"/>
</g>
<!-- Node17&#45;&gt;Node18 -->
<g id="edge19" class="edge"><title>Node17&#45;&gt;Node18</title>
<path fill="none" stroke="midnightblue" d="M691.979,-302.396C707.691,-293.112 728.456,-280.841 745.662,-270.674"/>
<polygon fill="midnightblue" stroke="midnightblue" points="747.46,-273.677 754.288,-265.577 743.899,-267.651 747.46,-273.677"/>
</g>
<!-- Node18&#45;&gt;Node3 -->
<g id="edge35" class="edge"><title>Node18&#45;&gt;Node3</title>
<path fill="none" stroke="midnightblue" d="M748.902,-235.492C728.02,-225.434 699.276,-211.503 674.11,-199 646.875,-185.469 641.289,-179.437 613.11,-168 579.575,-154.389 540.299,-142.433 511.088,-134.272"/>
<polygon fill="midnightblue" stroke="midnightblue" points="511.772,-130.83 501.202,-131.548 509.912,-137.579 511.772,-130.83"/>
</g>
<!-- Node19 -->
<g id="node19" class="node"><title>Node19</title>
<g id="a_node19"><a xlink:href="Color_8hpp.html" target="_top" xlink:title="Core/Utils/Color.hpp">
<polygon fill="white" stroke="black" points="927.61,-174 927.61,-193 1038.61,-193 1038.61,-174 927.61,-174"/>
<text text-anchor="middle" x="983.11" y="-181" font-family="Helvetica,sans-Serif" font-size="10.00">Core/Utils/Color.hpp</text>
</a>
</g>
</g>
<!-- Node18&#45;&gt;Node19 -->
<g id="edge20" class="edge"><title>Node18&#45;&gt;Node19</title>
<path fill="none" stroke="midnightblue" d="M822.34,-235.476C859.406,-223.723 911.697,-207.143 946.461,-196.12"/>
<polygon fill="midnightblue" stroke="midnightblue" points="947.738,-199.387 956.212,-193.029 945.622,-192.715 947.738,-199.387"/>
</g>
<!-- Node23 -->
<g id="node23" class="node"><title>Node23</title>
<g id="a_node23"><a xlink:href="Component_8hpp.html" target="_top" xlink:title="Engine/Component/Component.hpp">
<polygon fill="white" stroke="black" points="683.11,-174 683.11,-193 871.11,-193 871.11,-174 683.11,-174"/>
<text text-anchor="middle" x="777.11" y="-181" font-family="Helvetica,sans-Serif" font-size="10.00">Engine/Component/Component.hpp</text>
</a>
</g>
</g>
<!-- Node18&#45;&gt;Node23 -->
<g id="edge25" class="edge"><title>Node18&#45;&gt;Node23</title>
<path fill="none" stroke="midnightblue" d="M777.893,-235.396C777.75,-226.064 777.56,-213.714 777.403,-203.517"/>
<polygon fill="midnightblue" stroke="midnightblue" points="780.898,-203.139 777.244,-193.195 773.898,-203.247 780.898,-203.139"/>
</g>
<!-- Node28 -->
<g id="node28" class="node"><title>Node28</title>
<g id="a_node28"><a xlink:href="Light_8inl.html" target="_top" xlink:title="Engine/Renderer/Light\l/Light.inl">
<polygon fill="white" stroke="black" points="1056.61,-168.5 1056.61,-198.5 1177.61,-198.5 1177.61,-168.5 1056.61,-168.5"/>
<text text-anchor="start" x="1064.61" y="-186.5" font-family="Helvetica,sans-Serif" font-size="10.00">Engine/Renderer/Light</text>
<text text-anchor="middle" x="1117.11" y="-175.5" font-family="Helvetica,sans-Serif" font-size="10.00">/Light.inl</text>
</a>
</g>
</g>
<!-- Node18&#45;&gt;Node28 -->
<g id="edge36" class="edge"><title>Node18&#45;&gt;Node28</title>
<path fill="none" stroke="midnightblue" d="M830.237,-240.012C882.351,-230.46 965.049,-215.12 1046.49,-199.101"/>
<polygon fill="midnightblue" stroke="midnightblue" points="1047.28,-202.513 1056.42,-197.144 1045.93,-195.645 1047.28,-202.513"/>
</g>
<!-- Node19&#45;&gt;Node4 -->
<g id="edge21" class="edge"><title>Node19&#45;&gt;Node4</title>
<path fill="none" stroke="midnightblue" d="M1006.58,-173.949C1037.89,-161.326 1086.86,-136.537 1064.11,-112 1046.47,-92.9757 692.521,-76.2074 538.593,-69.7845"/>
<polygon fill="midnightblue" stroke="midnightblue" points="538.442,-66.2753 528.305,-69.3582 538.152,-73.2693 538.442,-66.2753"/>
</g>
<!-- Node20 -->
<g id="node20" class="node"><title>Node20</title>
<polygon fill="white" stroke="#bfbfbf" points="987.11,-112.5 987.11,-131.5 1055.11,-131.5 1055.11,-112.5 987.11,-112.5"/>
<text text-anchor="middle" x="1021.11" y="-119.5" font-family="Helvetica,sans-Serif" font-size="10.00">Eigen/Core</text>
</g>
<!-- Node19&#45;&gt;Node20 -->
<g id="edge22" class="edge"><title>Node19&#45;&gt;Node20</title>
<path fill="none" stroke="midnightblue" d="M988.555,-173.975C994.198,-165.138 1003.17,-151.089 1010.27,-139.975"/>
<polygon fill="midnightblue" stroke="midnightblue" points="1013.24,-141.821 1015.68,-131.509 1007.34,-138.053 1013.24,-141.821"/>
</g>
<!-- Node21 -->
<g id="node21" class="node"><title>Node21</title>
<polygon fill="white" stroke="#bfbfbf" points="875.11,-112.5 875.11,-131.5 969.11,-131.5 969.11,-112.5 875.11,-112.5"/>
<text text-anchor="middle" x="922.11" y="-119.5" font-family="Helvetica,sans-Serif" font-size="10.00">Eigen/Geometry</text>
</g>
<!-- Node19&#45;&gt;Node21 -->
<g id="edge23" class="edge"><title>Node19&#45;&gt;Node21</title>
<path fill="none" stroke="midnightblue" d="M974.37,-173.975C964.949,-164.785 949.746,-149.956 938.161,-138.656"/>
<polygon fill="midnightblue" stroke="midnightblue" points="940.436,-135.986 930.834,-131.509 935.549,-140.997 940.436,-135.986"/>
</g>
<!-- Node22 -->
<g id="node22" class="node"><title>Node22</title>
<polygon fill="white" stroke="#bfbfbf" points="1111.11,-112.5 1111.11,-131.5 1165.11,-131.5 1165.11,-112.5 1111.11,-112.5"/>
<text text-anchor="middle" x="1138.11" y="-119.5" font-family="Helvetica,sans-Serif" font-size="10.00">random</text>
</g>
<!-- Node19&#45;&gt;Node22 -->
<g id="edge24" class="edge"><title>Node19&#45;&gt;Node22</title>
<path fill="none" stroke="midnightblue" d="M1005.32,-173.975C1031.79,-163.813 1076.22,-146.756 1106.33,-135.2"/>
<polygon fill="midnightblue" stroke="midnightblue" points="1107.86,-138.36 1115.94,-131.509 1105.35,-131.825 1107.86,-138.36"/>
</g>
<!-- Node23&#45;&gt;Node3 -->
<g id="edge31" class="edge"><title>Node23&#45;&gt;Node3</title>
<path fill="none" stroke="midnightblue" d="M732.838,-173.975C677.31,-163.283 582.143,-144.958 522.315,-133.437"/>
<polygon fill="midnightblue" stroke="midnightblue" points="522.782,-129.963 512.3,-131.509 521.458,-136.837 522.782,-129.963"/>
</g>
<!-- Node23&#45;&gt;Node15 -->
<g id="edge32" class="edge"><title>Node23&#45;&gt;Node15</title>
<path fill="none" stroke="midnightblue" d="M710.774,-173.975C610.472,-161.085 423.858,-137.104 347.743,-127.322"/>
<polygon fill="midnightblue" stroke="midnightblue" points="348.122,-123.842 337.757,-126.039 347.229,-130.785 348.122,-123.842"/>
</g>
<!-- Node23&#45;&gt;Node20 -->
<g id="edge29" class="edge"><title>Node23&#45;&gt;Node20</title>
<path fill="none" stroke="midnightblue" d="M812.07,-173.975C855.529,-163.377 929.735,-145.282 977.045,-133.745"/>
<polygon fill="midnightblue" stroke="midnightblue" points="978.116,-137.087 987.003,-131.317 976.458,-130.286 978.116,-137.087"/>
</g>
<!-- Node23&#45;&gt;Node21 -->
<g id="edge30" class="edge"><title>Node23&#45;&gt;Node21</title>
<path fill="none" stroke="midnightblue" d="M797.885,-173.975C822.543,-163.857 863.855,-146.905 892.012,-135.351"/>
<polygon fill="midnightblue" stroke="midnightblue" points="893.451,-138.543 901.374,-131.509 890.794,-132.067 893.451,-138.543"/>
</g>
<!-- Node24 -->
<g id="node24" class="node"><title>Node24</title>
<g id="a_node24"><a xlink:href="Index_8hpp.html" target="_top" xlink:title="Core/Utils/Index.hpp">
<polygon fill="white" stroke="black" points="743.61,-112.5 743.61,-131.5 856.61,-131.5 856.61,-112.5 743.61,-112.5"/>
<text text-anchor="middle" x="800.11" y="-119.5" font-family="Helvetica,sans-Serif" font-size="10.00">Core/Utils/Index.hpp</text>
</a>
</g>
</g>
<!-- Node23&#45;&gt;Node24 -->
<g id="edge26" class="edge"><title>Node23&#45;&gt;Node24</title>
<path fill="none" stroke="midnightblue" d="M780.406,-173.975C783.719,-165.404 788.928,-151.927 793.159,-140.983"/>
<polygon fill="midnightblue" stroke="midnightblue" points="796.48,-142.098 796.821,-131.509 789.951,-139.575 796.48,-142.098"/>
</g>
<!-- Node27 -->
<g id="node27" class="node"><title>Node27</title>
<g id="a_node27"><a xlink:href="Component_8inl.html" target="_top" xlink:title="Engine/Component/Component.inl">
<polygon fill="white" stroke="black" points="544.61,-112.5 544.61,-131.5 725.61,-131.5 725.61,-112.5 544.61,-112.5"/>
<text text-anchor="middle" x="635.11" y="-119.5" font-family="Helvetica,sans-Serif" font-size="10.00">Engine/Component/Component.inl</text>
</a>
</g>
</g>
<!-- Node23&#45;&gt;Node27 -->
<g id="edge33" class="edge"><title>Node23&#45;&gt;Node27</title>
<path fill="none" stroke="midnightblue" d="M751.865,-173.975C725.741,-163.945 685.53,-147.2 659.67,-135.655"/>
<polygon fill="midnightblue" stroke="midnightblue" points="661.074,-132.448 650.521,-131.509 658.185,-138.824 661.074,-132.448"/>
</g>
<!-- Node25 -->
<g id="node25" class="node"><title>Node25</title>
<polygon fill="white" stroke="#bfbfbf" points="733.11,-56.5 733.11,-75.5 775.11,-75.5 775.11,-56.5 733.11,-56.5"/>
<text text-anchor="middle" x="754.11" y="-63.5" font-family="Helvetica,sans-Serif" font-size="10.00">limits</text>
</g>
<!-- Node24&#45;&gt;Node25 -->
<g id="edge27" class="edge"><title>Node24&#45;&gt;Node25</title>
<path fill="none" stroke="midnightblue" d="M792.514,-112.083C785.883,-104.298 776.089,-92.8015 768.052,-83.3665"/>
<polygon fill="midnightblue" stroke="midnightblue" points="770.714,-81.0939 761.565,-75.7511 765.385,-85.6332 770.714,-81.0939"/>
</g>
<!-- Node26 -->
<g id="node26" class="node"><title>Node26</title>
<g id="a_node26"><a xlink:href="Index_8inl.html" target="_top" xlink:title="Core/Utils/Index.inl">
<polygon fill="white" stroke="black" points="793.61,-56.5 793.61,-75.5 898.61,-75.5 898.61,-56.5 793.61,-56.5"/>
<text text-anchor="middle" x="846.11" y="-63.5" font-family="Helvetica,sans-Serif" font-size="10.00">Core/Utils/Index.inl</text>
</a>
</g>
</g>
<!-- Node24&#45;&gt;Node26 -->
<g id="edge28" class="edge"><title>Node24&#45;&gt;Node26</title>
<path fill="none" stroke="midnightblue" d="M807.706,-112.083C814.338,-104.298 824.131,-92.8015 832.168,-83.3665"/>
<polygon fill="midnightblue" stroke="midnightblue" points="834.835,-85.6332 838.656,-75.7511 829.507,-81.0939 834.835,-85.6332"/>
</g>
<!-- Node27&#45;&gt;Node23 -->
<g id="edge34" class="edge"><title>Node27&#45;&gt;Node23</title>
<path fill="none" stroke="midnightblue" d="M660.315,-131.509C686.424,-141.532 726.634,-158.276 752.51,-169.827"/>
<polygon fill="midnightblue" stroke="midnightblue" points="751.113,-173.037 761.666,-173.975 754.001,-166.66 751.113,-173.037"/>
</g>
<!-- Node29&#45;&gt;Node3 -->
<g id="edge39" class="edge"><title>Node29&#45;&gt;Node3</title>
<path fill="none" stroke="midnightblue" d="M460.244,-240.809C464.691,-230.939 471.478,-214.225 474.11,-199 477.449,-179.69 474.918,-157.294 472.191,-141.841"/>
<polygon fill="midnightblue" stroke="midnightblue" points="475.612,-141.098 470.252,-131.959 468.743,-142.446 475.612,-141.098"/>
</g>
<!-- Node29&#45;&gt;Node13 -->
<g id="edge40" class="edge"><title>Node29&#45;&gt;Node13</title>
<path fill="none" stroke="midnightblue" d="M448.962,-240.734C440.698,-230.598 426.911,-213.69 416.609,-201.056"/>
<polygon fill="midnightblue" stroke="midnightblue" points="419.177,-198.666 410.145,-193.127 413.752,-203.089 419.177,-198.666"/>
</g>
<!-- Node29&#45;&gt;Node15 -->
<g id="edge41" class="edge"><title>Node29&#45;&gt;Node15</title>
<path fill="none" stroke="midnightblue" d="M456.997,-240.7C458.142,-224.334 458.173,-188.981 440.11,-168 416.962,-141.113 376.582,-130.29 347.773,-125.934"/>
<polygon fill="midnightblue" stroke="midnightblue" points="348.109,-122.448 337.736,-124.604 347.19,-129.388 348.109,-122.448"/>
</g>
</g>
</svg>
