<?xml version="1.0" encoding="UTF-8" standalone="no"?>
<!DOCTYPE svg PUBLIC "-//W3C//DTD SVG 1.1//EN"
 "http://www.w3.org/Graphics/SVG/1.1/DTD/svg11.dtd">
<!-- Generated by graphviz version 2.38.0 (20140413.2041)
 -->
<!-- Title: /home/travis/build/STORM&#45;IRIT/Radium&#45;Engine/src/Engine/Renderer/RenderObject Pages: 1 -->
<svg width="434pt" height="483pt"
 viewBox="0.00 0.00 433.50 483.00" xmlns="http://www.w3.org/2000/svg" xmlns:xlink="http://www.w3.org/1999/xlink">
<g id="graph0" class="graph" transform="scale(1 1) rotate(0) translate(4 479)">
<title>/home/travis/build/STORM&#45;IRIT/Radium&#45;Engine/src/Engine/Renderer/RenderObject</title>
<polygon fill="white" stroke="none" points="-4,4 -4,-479 429.5,-479 429.5,4 -4,4"/>
<g id="clust1" class="cluster"><title>clusterdir_54018506bb725509c19b38b6d9bcf0f6</title>
<g id="a_clust1"><a xlink:href="dir_54018506bb725509c19b38b6d9bcf0f6.html" target="_top" xlink:title="Renderer">
<polygon fill="#ddddee" stroke="black" points="56,-272 56,-359 250,-359 250,-272 56,-272"/>
<text text-anchor="middle" x="153" y="-347" font-family="Helvetica,sans-Serif" font-size="10.00">Renderer</text>
</a>
</g>
</g>
<g id="clust2" class="cluster"><title>clusterdir_652267079d823ee01f6c6cf98db9085b</title>
<g id="a_clust2"><a xlink:href="dir_652267079d823ee01f6c6cf98db9085b.html" target="_top">
<polygon fill="#eeeeff" stroke="black" points="64,-280 64,-332 242,-332 242,-280 64,-280"/>
</a>
</g>
</g>
<!-- dir_652267079d823ee01f6c6cf98db9085b -->
<g id="node1" class="node"><title>dir_652267079d823ee01f6c6cf98db9085b</title>
<text text-anchor="middle" x="194" y="-303.5" font-family="Helvetica,sans-Serif" font-size="10.00">RenderObject</text>
</g>
<!-- dir_7205f054df4e14abb60715afe3e7e90c -->
<g id="node4" class="node"><title>dir_7205f054df4e14abb60715afe3e7e90c</title>
<g id="a_node4"><a xlink:href="dir_7205f054df4e14abb60715afe3e7e90c.html" target="_top" xlink:title="Entity">
<polygon fill="none" stroke="black" points="291,-475 237,-475 237,-439 291,-439 291,-475"/>
<text text-anchor="middle" x="264" y="-454.5" font-family="Helvetica,sans-Serif" font-size="10.00">Entity</text>
</a>
</g>
</g>
<!-- dir_652267079d823ee01f6c6cf98db9085b&#45;&gt;dir_7205f054df4e14abb60715afe3e7e90c -->
<g id="edge1" class="edge"><title>dir_652267079d823ee01f6c6cf98db9085b&#45;&gt;dir_7205f054df4e14abb60715afe3e7e90c</title>
<path fill="none" stroke="black" d="M197.174,-324.016C201.298,-343.782 209.6,-377 223,-403 228.036,-412.772 234.941,-422.551 241.649,-431.001"/>
<polygon fill="black" stroke="black" points="239.151,-433.473 248.215,-438.959 244.55,-429.018 239.151,-433.473"/>
<g id="a_edge1&#45;headlabel"><a xlink:href="dir_000046_000030.html" target="_top" xlink:title="2">
<text text-anchor="middle" x="234.673" y="-430.007" font-family="Helvetica,sans-Serif" font-size="10.00">2</text>
</a>
</g>
</g>
<!-- dir_35f904a890c1431d13964486334c23a9 -->
<g id="node6" class="node"><title>dir_35f904a890c1431d13964486334c23a9</title>
<g id="a_node6"><a xlink:href="dir_35f904a890c1431d13964486334c23a9.html" target="_top" xlink:title="Camera">
<polygon fill="none" stroke="black" points="425.5,-324 370.5,-324 370.5,-288 425.5,-288 425.5,-324"/>
<text text-anchor="middle" x="398" y="-303.5" font-family="Helvetica,sans-Serif" font-size="10.00">Camera</text>
</a>
</g>
</g>
<!-- dir_652267079d823ee01f6c6cf98db9085b&#45;&gt;dir_35f904a890c1431d13964486334c23a9 -->
<g id="edge2" class="edge"><title>dir_652267079d823ee01f6c6cf98db9085b&#45;&gt;dir_35f904a890c1431d13964486334c23a9</title>
<path fill="none" stroke="black" d="M234.242,-306C276.289,-306 318.335,-306 360.381,-306"/>
<polygon fill="black" stroke="black" points="360.494,-309.5 370.494,-306 360.494,-302.5 360.494,-309.5"/>
<g id="a_edge2&#45;headlabel"><a xlink:href="dir_000046_000040.html" target="_top" xlink:title="1">
<text text-anchor="middle" x="356.899" y="-309.839" font-family="Helvetica,sans-Serif" font-size="10.00">1</text>
</a>
</g>
</g>
<!-- dir_06113b60808b1bbb52a01dfd2c3a8657 -->
<g id="node8" class="node"><title>dir_06113b60808b1bbb52a01dfd2c3a8657</title>
<g id="a_node8"><a xlink:href="dir_06113b60808b1bbb52a01dfd2c3a8657.html" target="_top" xlink:title="Managers">
<polygon fill="white" stroke="red" points="296,-403 232,-403 232,-367 296,-367 296,-403"/>
<text text-anchor="middle" x="264" y="-382.5" font-family="Helvetica,sans-Serif" font-size="10.00">Managers</text>
</a>
</g>
</g>
<!-- dir_652267079d823ee01f6c6cf98db9085b&#45;&gt;dir_06113b60808b1bbb52a01dfd2c3a8657 -->
<g id="edge3" class="edge"><title>dir_652267079d823ee01f6c6cf98db9085b&#45;&gt;dir_06113b60808b1bbb52a01dfd2c3a8657</title>
<path fill="none" stroke="black" d="M209.492,-324.041C218.909,-334.399 231.093,-347.803 241.554,-359.309"/>
<polygon fill="black" stroke="black" points="239.148,-361.866 248.465,-366.911 244.328,-357.157 239.148,-361.866"/>
<g id="a_edge3&#45;headlabel"><a xlink:href="dir_000046_000032.html" target="_top" xlink:title="2">
<text text-anchor="middle" x="234.629" y="-358.616" font-family="Helvetica,sans-Serif" font-size="10.00">2</text>
</a>
</g>
</g>
<!-- dir_d0f3276f03e9a9cb8f8ba3f2a5ea1262 -->
<g id="node9" class="node"><title>dir_d0f3276f03e9a9cb8f8ba3f2a5ea1262</title>
<g id="a_node9"><a xlink:href="dir_d0f3276f03e9a9cb8f8ba3f2a5ea1262.html" target="_top" xlink:title="Component">
<polygon fill="none" stroke="black" points="306.5,-252 233.5,-252 233.5,-216 306.5,-216 306.5,-252"/>
<text text-anchor="middle" x="270" y="-231.5" font-family="Helvetica,sans-Serif" font-size="10.00">Component</text>
</a>
</g>
</g>
<!-- dir_652267079d823ee01f6c6cf98db9085b&#45;&gt;dir_d0f3276f03e9a9cb8f8ba3f2a5ea1262 -->
<g id="edge4" class="edge"><title>dir_652267079d823ee01f6c6cf98db9085b&#45;&gt;dir_d0f3276f03e9a9cb8f8ba3f2a5ea1262</title>
<path fill="none" stroke="black" d="M206.871,-287.697C215.45,-278.965 226.923,-268.24 237.784,-258.75"/>
<polygon fill="black" stroke="black" points="240.221,-261.271 245.535,-252.104 235.665,-255.957 240.221,-261.271"/>
<g id="a_edge4&#45;headlabel"><a xlink:href="dir_000046_000029.html" target="_top" xlink:title="2">
<text text-anchor="middle" x="239.341" y="-263.266" font-family="Helvetica,sans-Serif" font-size="10.00">2</text>
</a>
</g>
</g>
<!-- dir_72da96c41019f509fc15d3101528a281 -->
<g id="node2" class="node"><title>dir_72da96c41019f509fc15d3101528a281</title>
<g id="a_node2"><a xlink:href="dir_72da96c41019f509fc15d3101528a281.html" target="_top" xlink:title="Primitives">
<polygon fill="white" stroke="black" points="135.5,-324 72.5,-324 72.5,-288 135.5,-288 135.5,-324"/>
<text text-anchor="middle" x="104" y="-303.5" font-family="Helvetica,sans-Serif" font-size="10.00">Primitives</text>
</a>
</g>
</g>
<!-- dir_a2f0e5642e47e7ed59fe0f0829eafb5f -->
<g id="node3" class="node"><title>dir_a2f0e5642e47e7ed59fe0f0829eafb5f</title>
<g id="a_node3"><a xlink:href="dir_a2f0e5642e47e7ed59fe0f0829eafb5f.html" target="_top" xlink:title="Core">
<polygon fill="white" stroke="red" points="179,-36 125,-36 125,-0 179,-0 179,-36"/>
<text text-anchor="middle" x="152" y="-15.5" font-family="Helvetica,sans-Serif" font-size="10.00">Core</text>
</a>
</g>
</g>
<!-- dir_72da96c41019f509fc15d3101528a281&#45;&gt;dir_a2f0e5642e47e7ed59fe0f0829eafb5f -->
<g id="edge8" class="edge"><title>dir_72da96c41019f509fc15d3101528a281&#45;&gt;dir_a2f0e5642e47e7ed59fe0f0829eafb5f</title>
<path fill="none" stroke="black" d="M103.217,-287.855C101.937,-248.629 101.627,-149.734 126,-72 128.852,-62.9051 133.063,-53.4236 137.269,-45.0367"/>
<polygon fill="black" stroke="black" points="140.404,-46.5941 141.944,-36.1117 134.203,-43.3463 140.404,-46.5941"/>
<g id="a_edge8&#45;headlabel"><a xlink:href="dir_000047_000020.html" target="_top" xlink:title="7">
<text text-anchor="middle" x="141.252" y="-48.5957" font-family="Helvetica,sans-Serif" font-size="10.00">7</text>
</a>
</g>
</g>
<!-- dir_f6a0a87962fcbf90fc709c1bf5ba5a00 -->
<g id="node5" class="node"><title>dir_f6a0a87962fcbf90fc709c1bf5ba5a00</title>
<g id="a_node5"><a xlink:href="dir_f6a0a87962fcbf90fc709c1bf5ba5a00.html" target="_top" xlink:title="Mesh">
<polygon fill="none" stroke="black" points="350,-180 296,-180 296,-144 350,-144 350,-180"/>
<text text-anchor="middle" x="323" y="-159.5" font-family="Helvetica,sans-Serif" font-size="10.00">Mesh</text>
</a>
</g>
</g>
<!-- dir_72da96c41019f509fc15d3101528a281&#45;&gt;dir_f6a0a87962fcbf90fc709c1bf5ba5a00 -->
<g id="edge9" class="edge"><title>dir_72da96c41019f509fc15d3101528a281&#45;&gt;dir_f6a0a87962fcbf90fc709c1bf5ba5a00</title>
<path fill="none" stroke="black" d="M124.663,-287.963C131.112,-282.756 138.294,-277.068 145,-272 179.335,-246.051 187.402,-238.645 224,-216 244.231,-203.482 267.67,-190.855 286.662,-181.068"/>
<polygon fill="black" stroke="black" points="288.281,-184.171 295.594,-176.504 285.096,-177.937 288.281,-184.171"/>
<g id="a_edge9&#45;headlabel"><a xlink:href="dir_000047_000043.html" target="_top" xlink:title="1">
<text text-anchor="middle" x="286.372" y="-185.835" font-family="Helvetica,sans-Serif" font-size="10.00">1</text>
</a>
</g>
</g>
<!-- dir_6bc97c5ccce2964f7b25f8377ac95818 -->
<g id="node7" class="node"><title>dir_6bc97c5ccce2964f7b25f8377ac95818</title>
<g id="a_node7"><a xlink:href="dir_6bc97c5ccce2964f7b25f8377ac95818.html" target="_top" xlink:title="RenderTechnique">
<polygon fill="none" stroke="black" points="239.5,-108 142.5,-108 142.5,-72 239.5,-72 239.5,-108"/>
<text text-anchor="middle" x="191" y="-87.5" font-family="Helvetica,sans-Serif" font-size="10.00">RenderTechnique</text>
</a>
</g>
</g>
<!-- dir_72da96c41019f509fc15d3101528a281&#45;&gt;dir_6bc97c5ccce2964f7b25f8377ac95818 -->
<g id="edge10" class="edge"><title>dir_72da96c41019f509fc15d3101528a281&#45;&gt;dir_6bc97c5ccce2964f7b25f8377ac95818</title>
<path fill="none" stroke="black" d="M104.281,-287.909C105.459,-257.237 111.083,-191.615 137,-144 142.877,-133.202 151.674,-123.216 160.47,-114.891"/>
<polygon fill="black" stroke="black" points="163.019,-117.307 168.127,-108.025 158.345,-112.096 163.019,-117.307"/>
<g id="a_edge10&#45;headlabel"><a xlink:href="dir_000047_000048.html" target="_top" xlink:title="2">
<text text-anchor="middle" x="162.239" y="-119.321" font-family="Helvetica,sans-Serif" font-size="10.00">2</text>
</a>
</g>
</g>
<!-- dir_909774b1a000bf73b2cf501716b773f3 -->
<g id="node10" class="node"><title>dir_909774b1a000bf73b2cf501716b773f3</title>
<g id="a_node10"><a xlink:href="dir_909774b1a000bf73b2cf501716b773f3.html" target="_top" xlink:title="Material">
<polygon fill="none" stroke="black" points="201.5,-180 146.5,-180 146.5,-144 201.5,-144 201.5,-180"/>
<text text-anchor="middle" x="174" y="-159.5" font-family="Helvetica,sans-Serif" font-size="10.00">Material</text>
</a>
</g>
</g>
<!-- dir_72da96c41019f509fc15d3101528a281&#45;&gt;dir_909774b1a000bf73b2cf501716b773f3 -->
<g id="edge11" class="edge"><title>dir_72da96c41019f509fc15d3101528a281&#45;&gt;dir_909774b1a000bf73b2cf501716b773f3</title>
<path fill="none" stroke="black" d="M112.444,-287.871C124.531,-263.35 146.871,-218.032 161.055,-189.259"/>
<polygon fill="black" stroke="black" points="164.244,-190.706 165.526,-180.189 157.966,-187.611 164.244,-190.706"/>
<g id="a_edge11&#45;headlabel"><a xlink:href="dir_000047_000042.html" target="_top" xlink:title="1">
<text text-anchor="middle" x="165.201" y="-192.686" font-family="Helvetica,sans-Serif" font-size="10.00">1</text>
</a>
</g>
</g>
<!-- dir_7205f054df4e14abb60715afe3e7e90c&#45;&gt;dir_a2f0e5642e47e7ed59fe0f0829eafb5f -->
<g id="edge5" class="edge"><title>dir_7205f054df4e14abb60715afe3e7e90c&#45;&gt;dir_a2f0e5642e47e7ed59fe0f0829eafb5f</title>
<path fill="none" stroke="black" d="M236.742,-453.461C169.29,-445.534 0,-414.89 0,-307 0,-307 0,-307 0,-161 0,-115.41 18.1708,-103.633 51,-72 69.3421,-54.3261 94.7507,-41.0324 115.494,-32.1792"/>
<polygon fill="black" stroke="black" points="117.023,-35.3352 124.952,-28.3073 114.371,-28.857 117.023,-35.3352"/>
<g id="a_edge5&#45;headlabel"><a xlink:href="dir_000030_000020.html" target="_top" xlink:title="2">
<text text-anchor="middle" x="114.772" y="-36.8246" font-family="Helvetica,sans-Serif" font-size="10.00">2</text>
</a>
</g>
</g>
<!-- dir_7205f054df4e14abb60715afe3e7e90c&#45;&gt;dir_06113b60808b1bbb52a01dfd2c3a8657 -->
<g id="edge6" class="edge"><title>dir_7205f054df4e14abb60715afe3e7e90c&#45;&gt;dir_06113b60808b1bbb52a01dfd2c3a8657</title>
<path fill="none" stroke="black" d="M258.084,-438.697C257.289,-430.983 257.062,-421.712 257.405,-413.112"/>
<polygon fill="black" stroke="black" points="260.898,-413.324 258.105,-403.104 253.915,-412.836 260.898,-413.324"/>
<g id="a_edge6&#45;headlabel"><a xlink:href="dir_000030_000032.html" target="_top" xlink:title="1">
<text text-anchor="middle" x="263.48" y="-414.608" font-family="Helvetica,sans-Serif" font-size="10.00">1</text>
</a>
</g>
</g>
<!-- dir_7205f054df4e14abb60715afe3e7e90c&#45;&gt;dir_d0f3276f03e9a9cb8f8ba3f2a5ea1262 -->
<g id="edge7" class="edge"><title>dir_7205f054df4e14abb60715afe3e7e90c&#45;&gt;dir_d0f3276f03e9a9cb8f8ba3f2a5ea1262</title>
<path fill="none" stroke="black" d="M274.143,-438.677C281.885,-429.097 291.412,-416.43 296,-403 306.591,-372.001 286.798,-289.147 281,-272 279.818,-268.505 278.323,-264.948 276.755,-261.489"/>
<polygon fill="black" stroke="black" points="279.773,-259.685 272.337,-252.138 273.444,-262.675 279.773,-259.685"/>
<g id="a_edge7&#45;headlabel"><a xlink:href="dir_000030_000029.html" target="_top" xlink:title="1">
<text text-anchor="middle" x="283.876" y="-259.222" font-family="Helvetica,sans-Serif" font-size="10.00">1</text>
</a>
</g>
</g>
<!-- dir_f6a0a87962fcbf90fc709c1bf5ba5a00&#45;&gt;dir_a2f0e5642e47e7ed59fe0f0829eafb5f -->
<g id="edge12" class="edge"><title>dir_f6a0a87962fcbf90fc709c1bf5ba5a00&#45;&gt;dir_a2f0e5642e47e7ed59fe0f0829eafb5f</title>
<path fill="none" stroke="black" d="M319.119,-143.683C313.857,-123.91 302.655,-91.754 282,-72 256.272,-47.3943 217.583,-33.6132 189.099,-26.3145"/>
<polygon fill="black" stroke="black" points="189.65,-22.8474 179.109,-23.9108 188.012,-29.6532 189.65,-22.8474"/>
<g id="a_edge12&#45;headlabel"><a xlink:href="dir_000043_000020.html" target="_top" xlink:title="4">
<text text-anchor="middle" x="193.809" y="-18.4278" font-family="Helvetica,sans-Serif" font-size="10.00">4</text>
</a>
</g>
</g>
<!-- dir_35f904a890c1431d13964486334c23a9&#45;&gt;dir_652267079d823ee01f6c6cf98db9085b -->
<g id="edge13" class="edge"><title>dir_35f904a890c1431d13964486334c23a9&#45;&gt;dir_652267079d823ee01f6c6cf98db9085b</title>
<path fill="none" stroke="black" d="M370.494,-306C328.447,-306 286.401,-306 244.355,-306"/>
<polygon fill="black" stroke="black" points="244.242,-302.5 234.242,-306 244.242,-309.5 244.242,-302.5"/>
<g id="a_edge13&#45;headlabel"><a xlink:href="dir_000040_000046.html" target="_top" xlink:title="1">
<text text-anchor="middle" x="247.837" y="-297.161" font-family="Helvetica,sans-Serif" font-size="10.00">1</text>
</a>
</g>
</g>
<!-- dir_35f904a890c1431d13964486334c23a9&#45;&gt;dir_a2f0e5642e47e7ed59fe0f0829eafb5f -->
<g id="edge14" class="edge"><title>dir_35f904a890c1431d13964486334c23a9&#45;&gt;dir_a2f0e5642e47e7ed59fe0f0829eafb5f</title>
<path fill="none" stroke="black" d="M401.182,-287.605C405.94,-256.453 411.723,-190.094 385,-144 343.254,-71.9939 243.762,-39.2819 189.263,-26.3236"/>
<polygon fill="black" stroke="black" points="189.842,-22.8659 179.314,-24.0591 188.288,-29.6913 189.842,-22.8659"/>
<g id="a_edge14&#45;headlabel"><a xlink:href="dir_000040_000020.html" target="_top" xlink:title="3">
<text text-anchor="middle" x="193.977" y="-18.3951" font-family="Helvetica,sans-Serif" font-size="10.00">3</text>
</a>
</g>
</g>
<!-- dir_35f904a890c1431d13964486334c23a9&#45;&gt;dir_7205f054df4e14abb60715afe3e7e90c -->
<g id="edge15" class="edge"><title>dir_35f904a890c1431d13964486334c23a9&#45;&gt;dir_7205f054df4e14abb60715afe3e7e90c</title>
<path fill="none" stroke="black" d="M394.047,-324.058C388.52,-344.777 376.752,-379.825 356,-403 340.853,-419.917 318.98,-432.825 300.362,-441.666"/>
<polygon fill="black" stroke="black" points="298.913,-438.479 291.252,-445.798 301.805,-444.854 298.913,-438.479"/>
<g id="a_edge15&#45;headlabel"><a xlink:href="dir_000040_000030.html" target="_top" xlink:title="1">
<text text-anchor="middle" x="301.014" y="-431.909" font-family="Helvetica,sans-Serif" font-size="10.00">1</text>
</a>
</g>
</g>
<!-- dir_35f904a890c1431d13964486334c23a9&#45;&gt;dir_f6a0a87962fcbf90fc709c1bf5ba5a00 -->
<g id="edge16" class="edge"><title>dir_35f904a890c1431d13964486334c23a9&#45;&gt;dir_f6a0a87962fcbf90fc709c1bf5ba5a00</title>
<path fill="none" stroke="black" d="M386.041,-287.705C379.221,-277.523 370.721,-264.273 364,-252 352.762,-231.479 341.765,-207.32 333.994,-189.355"/>
<polygon fill="black" stroke="black" points="337.176,-187.894 330.028,-180.074 330.739,-190.645 337.176,-187.894"/>
<g id="a_edge16&#45;headlabel"><a xlink:href="dir_000040_000043.html" target="_top" xlink:title="1">
<text text-anchor="middle" x="341.199" y="-187.583" font-family="Helvetica,sans-Serif" font-size="10.00">1</text>
</a>
</g>
</g>
<!-- dir_35f904a890c1431d13964486334c23a9&#45;&gt;dir_6bc97c5ccce2964f7b25f8377ac95818 -->
<g id="edge17" class="edge"><title>dir_35f904a890c1431d13964486334c23a9&#45;&gt;dir_6bc97c5ccce2964f7b25f8377ac95818</title>
<path fill="none" stroke="black" d="M398.961,-287.917C399.817,-255.471 396.893,-184.559 359,-144 330.945,-113.972 286.059,-100.865 249.738,-95.188"/>
<polygon fill="black" stroke="black" points="250.133,-91.7092 239.742,-93.7761 249.154,-98.6404 250.133,-91.7092"/>
<g id="a_edge17&#45;headlabel"><a xlink:href="dir_000040_000048.html" target="_top" xlink:title="1">
<text text-anchor="middle" x="254.089" y="-86.9004" font-family="Helvetica,sans-Serif" font-size="10.00">1</text>
</a>
</g>
</g>
<!-- dir_35f904a890c1431d13964486334c23a9&#45;&gt;dir_d0f3276f03e9a9cb8f8ba3f2a5ea1262 -->
<g id="edge18" class="edge"><title>dir_35f904a890c1431d13964486334c23a9&#45;&gt;dir_d0f3276f03e9a9cb8f8ba3f2a5ea1262</title>
<path fill="none" stroke="black" d="M378.258,-287.77C371.473,-282.325 363.653,-276.547 356,-272 343.519,-264.584 329.278,-257.839 316.025,-252.199"/>
<polygon fill="black" stroke="black" points="317.167,-248.884 306.588,-248.294 314.49,-255.352 317.167,-248.884"/>
<g id="a_edge18&#45;headlabel"><a xlink:href="dir_000040_000029.html" target="_top" xlink:title="1">
<text text-anchor="middle" x="321.574" y="-245.135" font-family="Helvetica,sans-Serif" font-size="10.00">1</text>
</a>
</g>
</g>
<!-- dir_6bc97c5ccce2964f7b25f8377ac95818&#45;&gt;dir_a2f0e5642e47e7ed59fe0f0829eafb5f -->
<g id="edge19" class="edge"><title>dir_6bc97c5ccce2964f7b25f8377ac95818&#45;&gt;dir_a2f0e5642e47e7ed59fe0f0829eafb5f</title>
<path fill="none" stroke="black" d="M181.36,-71.6966C176.873,-63.6436 171.441,-53.8945 166.476,-44.9824"/>
<polygon fill="black" stroke="black" points="169.454,-43.1366 161.53,-36.1043 163.339,-46.5435 169.454,-43.1366"/>
<g id="a_edge19&#45;headlabel"><a xlink:href="dir_000048_000020.html" target="_top" xlink:title="13">
<text text-anchor="middle" x="173.684" y="-42.3948" font-family="Helvetica,sans-Serif" font-size="10.00">13</text>
</a>
</g>
</g>
<!-- dir_6bc97c5ccce2964f7b25f8377ac95818&#45;&gt;dir_909774b1a000bf73b2cf501716b773f3 -->
<g id="edge20" class="edge"><title>dir_6bc97c5ccce2964f7b25f8377ac95818&#45;&gt;dir_909774b1a000bf73b2cf501716b773f3</title>
<path fill="none" stroke="black" d="M192.741,-108.104C191.668,-115.876 189.622,-125.257 187.162,-133.949"/>
<polygon fill="black" stroke="black" points="183.758,-133.108 184.118,-143.697 190.44,-135.195 183.758,-133.108"/>
<g id="a_edge20&#45;headlabel"><a xlink:href="dir_000048_000042.html" target="_top" xlink:title="1">
<text text-anchor="middle" x="182.12" y="-126.33" font-family="Helvetica,sans-Serif" font-size="10.00">1</text>
</a>
</g>
</g>
<!-- dir_06113b60808b1bbb52a01dfd2c3a8657&#45;&gt;dir_72da96c41019f509fc15d3101528a281 -->
<g id="edge23" class="edge"><title>dir_06113b60808b1bbb52a01dfd2c3a8657&#45;&gt;dir_72da96c41019f509fc15d3101528a281</title>
<path fill="none" stroke="black" d="M231.994,-383.158C206.696,-381.171 171.373,-375.355 145,-359 134.528,-352.506 125.637,-342.333 118.84,-332.702"/>
<polygon fill="black" stroke="black" points="121.62,-330.56 113.2,-324.13 115.772,-334.407 121.62,-330.56"/>
<g id="a_edge23&#45;headlabel"><a xlink:href="dir_000032_000047.html" target="_top" xlink:title="1">
<text text-anchor="middle" x="125.968" y="-329.503" font-family="Helvetica,sans-Serif" font-size="10.00">1</text>
</a>
</g>
</g>
<!-- dir_06113b60808b1bbb52a01dfd2c3a8657&#45;&gt;dir_a2f0e5642e47e7ed59fe0f0829eafb5f -->
<g id="edge21" class="edge"><title>dir_06113b60808b1bbb52a01dfd2c3a8657&#45;&gt;dir_a2f0e5642e47e7ed59fe0f0829eafb5f</title>
<path fill="none" stroke="black" d="M231.986,-384.535C180.862,-384.681 84.0855,-381.827 60,-359 19.3746,-320.498 38,-290.972 38,-235 38,-235 38,-235 38,-161 38,-109.997 83.2736,-66.8836 116.759,-41.971"/>
<polygon fill="black" stroke="black" points="118.923,-44.7258 124.984,-36.0357 114.826,-39.0495 118.923,-44.7258"/>
<g id="a_edge21&#45;headlabel"><a xlink:href="dir_000032_000020.html" target="_top" xlink:title="15">
<text text-anchor="middle" x="117.669" y="-46.6316" font-family="Helvetica,sans-Serif" font-size="10.00">15</text>
</a>
</g>
</g>
<!-- dir_06113b60808b1bbb52a01dfd2c3a8657&#45;&gt;dir_7205f054df4e14abb60715afe3e7e90c -->
<g id="edge22" class="edge"><title>dir_06113b60808b1bbb52a01dfd2c3a8657&#45;&gt;dir_7205f054df4e14abb60715afe3e7e90c</title>
<path fill="none" stroke="black" d="M269.895,-403.104C270.701,-410.791 270.937,-420.054 270.604,-428.665"/>
<polygon fill="black" stroke="black" points="267.109,-428.48 269.916,-438.697 274.092,-428.96 267.109,-428.48"/>
<g id="a_edge22&#45;headlabel"><a xlink:href="dir_000032_000030.html" target="_top" xlink:title="3">
<text text-anchor="middle" x="264.522" y="-422.2" font-family="Helvetica,sans-Serif" font-size="10.00">3</text>
</a>
</g>
</g>
<!-- dir_06113b60808b1bbb52a01dfd2c3a8657&#45;&gt;dir_35f904a890c1431d13964486334c23a9 -->
<g id="edge24" class="edge"><title>dir_06113b60808b1bbb52a01dfd2c3a8657&#45;&gt;dir_35f904a890c1431d13964486334c23a9</title>
<path fill="none" stroke="black" d="M293.739,-366.911C313.709,-355.436 340.155,-340.239 361.414,-328.023"/>
<polygon fill="black" stroke="black" points="363.247,-331.007 370.174,-322.99 359.76,-324.937 363.247,-331.007"/>
<g id="a_edge24&#45;headlabel"><a xlink:href="dir_000032_000040.html" target="_top" xlink:title="2">
<text text-anchor="middle" x="361.545" y="-332.759" font-family="Helvetica,sans-Serif" font-size="10.00">2</text>
</a>
</g>
</g>
<!-- dir_06113b60808b1bbb52a01dfd2c3a8657&#45;&gt;dir_d0f3276f03e9a9cb8f8ba3f2a5ea1262 -->
<g id="edge25" class="edge"><title>dir_06113b60808b1bbb52a01dfd2c3a8657&#45;&gt;dir_d0f3276f03e9a9cb8f8ba3f2a5ea1262</title>
<path fill="none" stroke="black" d="M260.194,-366.908C258.541,-341.334 260.203,-292.861 263.535,-262.334"/>
<polygon fill="black" stroke="black" points="267.015,-262.708 264.78,-252.352 260.069,-261.842 267.015,-262.708"/>
<g id="a_edge25&#45;headlabel"><a xlink:href="dir_000032_000029.html" target="_top" xlink:title="2">
<text text-anchor="middle" x="269.388" y="-264.127" font-family="Helvetica,sans-Serif" font-size="10.00">2</text>
</a>
</g>
</g>
<!-- dir_d0f3276f03e9a9cb8f8ba3f2a5ea1262&#45;&gt;dir_652267079d823ee01f6c6cf98db9085b -->
<g id="edge26" class="edge"><title>dir_d0f3276f03e9a9cb8f8ba3f2a5ea1262&#45;&gt;dir_652267079d823ee01f6c6cf98db9085b</title>
<path fill="none" stroke="black" d="M257.325,-252.104C248.79,-260.805 237.335,-271.524 226.464,-281.033"/>
<polygon fill="black" stroke="black" points="224.01,-278.527 218.702,-287.697 228.57,-283.838 224.01,-278.527"/>
<g id="a_edge26&#45;headlabel"><a xlink:href="dir_000029_000046.html" target="_top" xlink:title="6">
<text text-anchor="middle" x="224.888" y="-271.531" font-family="Helvetica,sans-Serif" font-size="10.00">6</text>
</a>
</g>
</g>
<!-- dir_d0f3276f03e9a9cb8f8ba3f2a5ea1262&#45;&gt;dir_72da96c41019f509fc15d3101528a281 -->
<g id="edge29" class="edge"><title>dir_d0f3276f03e9a9cb8f8ba3f2a5ea1262&#45;&gt;dir_72da96c41019f509fc15d3101528a281</title>
<path fill="none" stroke="black" d="M233.446,-246.673C227.62,-248.486 221.651,-250.315 216,-252 184.583,-261.368 174.137,-256.974 145,-272 139.924,-274.618 134.883,-277.924 130.162,-281.427"/>
<polygon fill="black" stroke="black" points="127.736,-278.884 122.072,-287.838 132.084,-284.37 127.736,-278.884"/>
<g id="a_edge29&#45;headlabel"><a xlink:href="dir_000029_000047.html" target="_top" xlink:title="1">
<text text-anchor="middle" x="128.79" y="-271.926" font-family="Helvetica,sans-Serif" font-size="10.00">1</text>
</a>
</g>
</g>
<!-- dir_d0f3276f03e9a9cb8f8ba3f2a5ea1262&#45;&gt;dir_a2f0e5642e47e7ed59fe0f0829eafb5f -->
<g id="edge27" class="edge"><title>dir_d0f3276f03e9a9cb8f8ba3f2a5ea1262&#45;&gt;dir_a2f0e5642e47e7ed59fe0f0829eafb5f</title>
<path fill="none" stroke="black" d="M272.359,-215.727C275.721,-184.188 278.473,-116.439 248,-72 234.058,-51.6683 209.658,-38.3446 188.947,-30.1413"/>
<polygon fill="black" stroke="black" points="190.033,-26.8116 179.44,-26.6216 187.603,-33.3761 190.033,-26.8116"/>
<g id="a_edge27&#45;headlabel"><a xlink:href="dir_000029_000020.html" target="_top" xlink:title="9">
<text text-anchor="middle" x="194.39" y="-22.897" font-family="Helvetica,sans-Serif" font-size="10.00">9</text>
</a>
</g>
</g>
<!-- dir_d0f3276f03e9a9cb8f8ba3f2a5ea1262&#45;&gt;dir_7205f054df4e14abb60715afe3e7e90c -->
<g id="edge28" class="edge"><title>dir_d0f3276f03e9a9cb8f8ba3f2a5ea1262&#45;&gt;dir_7205f054df4e14abb60715afe3e7e90c</title>
<path fill="none" stroke="black" d="M289.327,-252.138C293.24,-258.21 296.708,-265.221 299,-272 304.798,-289.147 324.591,-372.001 314,-403 310.523,-413.178 304.21,-422.917 297.139,-431.206"/>
<polygon fill="black" stroke="black" points="294.439,-428.97 290.195,-438.677 299.566,-433.735 294.439,-428.97"/>
<g id="a_edge28&#45;headlabel"><a xlink:href="dir_000029_000030.html" target="_top" xlink:title="1">
<text text-anchor="middle" x="294.807" y="-421.904" font-family="Helvetica,sans-Serif" font-size="10.00">1</text>
</a>
</g>
</g>
<!-- dir_d0f3276f03e9a9cb8f8ba3f2a5ea1262&#45;&gt;dir_f6a0a87962fcbf90fc709c1bf5ba5a00 -->
<g id="edge30" class="edge"><title>dir_d0f3276f03e9a9cb8f8ba3f2a5ea1262&#45;&gt;dir_f6a0a87962fcbf90fc709c1bf5ba5a00</title>
<path fill="none" stroke="black" d="M283.101,-215.697C289.391,-207.389 297.047,-197.277 303.965,-188.141"/>
<polygon fill="black" stroke="black" points="306.804,-190.19 310.05,-180.104 301.223,-185.964 306.804,-190.19"/>
<g id="a_edge30&#45;headlabel"><a xlink:href="dir_000029_000043.html" target="_top" xlink:title="2">
<text text-anchor="middle" x="306.897" y="-192.269" font-family="Helvetica,sans-Serif" font-size="10.00">2</text>
</a>
</g>
</g>
<!-- dir_d0f3276f03e9a9cb8f8ba3f2a5ea1262&#45;&gt;dir_6bc97c5ccce2964f7b25f8377ac95818 -->
<g id="edge31" class="edge"><title>dir_d0f3276f03e9a9cb8f8ba3f2a5ea1262&#45;&gt;dir_6bc97c5ccce2964f7b25f8377ac95818</title>
<path fill="none" stroke="black" d="M260.471,-215.871C246.829,-191.35 221.616,-146.032 205.609,-117.259"/>
<polygon fill="black" stroke="black" points="208.483,-115.226 200.563,-108.189 202.366,-118.63 208.483,-115.226"/>
<g id="a_edge31&#45;headlabel"><a xlink:href="dir_000029_000048.html" target="_top" xlink:title="4">
<text text-anchor="middle" x="212.712" y="-114.487" font-family="Helvetica,sans-Serif" font-size="10.00">4</text>
</a>
</g>
</g>
<!-- dir_d0f3276f03e9a9cb8f8ba3f2a5ea1262&#45;&gt;dir_06113b60808b1bbb52a01dfd2c3a8657 -->
<g id="edge32" class="edge"><title>dir_d0f3276f03e9a9cb8f8ba3f2a5ea1262&#45;&gt;dir_06113b60808b1bbb52a01dfd2c3a8657</title>
<path fill="none" stroke="black" d="M273.822,-252.352C275.453,-278.079 273.774,-326.569 270.431,-356.974"/>
<polygon fill="black" stroke="black" points="266.957,-356.549 269.182,-366.908 273.903,-357.423 266.957,-356.549"/>
<g id="a_edge32&#45;headlabel"><a xlink:href="dir_000029_000032.html" target="_top" xlink:title="2">
<text text-anchor="middle" x="264.589" y="-350.128" font-family="Helvetica,sans-Serif" font-size="10.00">2</text>
</a>
</g>
</g>
<!-- dir_d0f3276f03e9a9cb8f8ba3f2a5ea1262&#45;&gt;dir_909774b1a000bf73b2cf501716b773f3 -->
<g id="edge33" class="edge"><title>dir_d0f3276f03e9a9cb8f8ba3f2a5ea1262&#45;&gt;dir_909774b1a000bf73b2cf501716b773f3</title>
<path fill="none" stroke="black" d="M246.27,-215.697C234.063,-206.796 219.015,-195.823 205.816,-186.199"/>
<polygon fill="black" stroke="black" points="207.6,-183.168 197.457,-180.104 203.475,-188.824 207.6,-183.168"/>
<g id="a_edge33&#45;headlabel"><a xlink:href="dir_000029_000042.html" target="_top" xlink:title="3">
<text text-anchor="middle" x="212.177" y="-180.492" font-family="Helvetica,sans-Serif" font-size="10.00">3</text>
</a>
</g>
</g>
<!-- dir_909774b1a000bf73b2cf501716b773f3&#45;&gt;dir_a2f0e5642e47e7ed59fe0f0829eafb5f -->
<g id="edge34" class="edge"><title>dir_909774b1a000bf73b2cf501716b773f3&#45;&gt;dir_a2f0e5642e47e7ed59fe0f0829eafb5f</title>
<path fill="none" stroke="black" d="M155.831,-143.677C147.115,-134.097 137.588,-121.43 133,-108 125.975,-87.4376 131.982,-63.2818 139.046,-45.3282"/>
<polygon fill="black" stroke="black" points="142.297,-46.6256 143.003,-36.0543 135.859,-43.8783 142.297,-46.6256"/>
<g id="a_edge34&#45;headlabel"><a xlink:href="dir_000042_000020.html" target="_top" xlink:title="4">
<text text-anchor="middle" x="143.498" y="-48.5461" font-family="Helvetica,sans-Serif" font-size="10.00">4</text>
</a>
</g>
</g>
<!-- dir_909774b1a000bf73b2cf501716b773f3&#45;&gt;dir_6bc97c5ccce2964f7b25f8377ac95818 -->
<g id="edge35" class="edge"><title>dir_909774b1a000bf73b2cf501716b773f3&#45;&gt;dir_6bc97c5ccce2964f7b25f8377ac95818</title>
<path fill="none" stroke="black" d="M172.287,-143.697C173.376,-135.898 175.434,-126.509 177.901,-117.829"/>
<polygon fill="black" stroke="black" points="181.298,-118.694 180.951,-108.104 174.618,-116.598 181.298,-118.694"/>
<g id="a_edge35&#45;headlabel"><a xlink:href="dir_000042_000048.html" target="_top" xlink:title="3">
<text text-anchor="middle" x="182.931" y="-120.473" font-family="Helvetica,sans-Serif" font-size="10.00">3</text>
</a>
</g>
</g>
</g>
</svg>
