<?xml version="1.0" encoding="UTF-8" standalone="no"?>
<!DOCTYPE svg PUBLIC "-//W3C//DTD SVG 1.1//EN"
 "http://www.w3.org/Graphics/SVG/1.1/DTD/svg11.dtd">
<!-- Generated by graphviz version 2.38.0 (20140413.2041)
 -->
<!-- Title: /home/travis/build/STORM&#45;IRIT/Radium&#45;Engine/src Pages: 1 -->
<svg width="188pt" height="220pt"
 viewBox="0.00 0.00 188.00 220.00" xmlns="http://www.w3.org/2000/svg" xmlns:xlink="http://www.w3.org/1999/xlink">
<g id="graph0" class="graph" transform="scale(1 1) rotate(0) translate(4 216)">
<title>/home/travis/build/STORM&#45;IRIT/Radium&#45;Engine/src</title>
<polygon fill="white" stroke="none" points="-4,4 -4,-216 184,-216 184,4 -4,4"/>
<g id="clust1" class="cluster"><title>clusterdir_68267d1309a1af8e8297ef4c3efbcdba</title>
<g id="a_clust1"><a xlink:href="dir_68267d1309a1af8e8297ef4c3efbcdba.html" target="_top">
<polygon fill="#eeeeff" stroke="black" points="8,-8 8,-204 172,-204 172,-8 8,-8"/>
</a>
</g>
</g>
<!-- dir_68267d1309a1af8e8297ef4c3efbcdba -->
<g id="node1" class="node"><title>dir_68267d1309a1af8e8297ef4c3efbcdba</title>
<text text-anchor="middle" x="137" y="-175.5" font-family="Helvetica,sans-Serif" font-size="10.00">src</text>
</g>
<!-- dir_a2f0e5642e47e7ed59fe0f0829eafb5f -->
<g id="node2" class="node"><title>dir_a2f0e5642e47e7ed59fe0f0829eafb5f</title>
<g id="a_node2"><a xlink:href="dir_a2f0e5642e47e7ed59fe0f0829eafb5f.html" target="_top" xlink:title="Core">
<polygon fill="white" stroke="red" points="76,-52 22,-52 22,-16 76,-16 76,-52"/>
<text text-anchor="middle" x="49" y="-31.5" font-family="Helvetica,sans-Serif" font-size="10.00">Core</text>
</a>
</g>
</g>
<!-- dir_3072bc1f55ed1280fe4fbe6b21c78379 -->
<g id="node3" class="node"><title>dir_3072bc1f55ed1280fe4fbe6b21c78379</title>
<g id="a_node3"><a xlink:href="dir_3072bc1f55ed1280fe4fbe6b21c78379.html" target="_top" xlink:title="Engine">
<polygon fill="white" stroke="red" points="92,-196 38,-196 38,-160 92,-160 92,-196"/>
<text text-anchor="middle" x="65" y="-175.5" font-family="Helvetica,sans-Serif" font-size="10.00">Engine</text>
</a>
</g>
</g>
<!-- dir_3072bc1f55ed1280fe4fbe6b21c78379&#45;&gt;dir_a2f0e5642e47e7ed59fe0f0829eafb5f -->
<g id="edge5" class="edge"><title>dir_3072bc1f55ed1280fe4fbe6b21c78379&#45;&gt;dir_a2f0e5642e47e7ed59fe0f0829eafb5f</title>
<path fill="none" stroke="black" d="M71.887,-159.725C78.1332,-141.635 85.4538,-112.503 79,-88 76.5082,-78.5392 71.8983,-68.9933 67.027,-60.6599"/>
<polygon fill="black" stroke="black" points="69.986,-58.7903 61.7265,-52.1546 64.0452,-62.4926 69.986,-58.7903"/>
<g id="a_edge5&#45;headlabel"><a xlink:href="dir_000028_000020.html" target="_top" xlink:title="90">
<text text-anchor="middle" x="74.2968" y="-57.8393" font-family="Helvetica,sans-Serif" font-size="10.00">90</text>
</a>
</g>
</g>
<!-- dir_cb59203ea3f84fc4d67c89730003fed4 -->
<g id="node4" class="node"><title>dir_cb59203ea3f84fc4d67c89730003fed4</title>
<g id="a_node4"><a xlink:href="dir_cb59203ea3f84fc4d67c89730003fed4.html" target="_top" xlink:title="GuiBase">
<polygon fill="white" stroke="red" points="164,-124 108,-124 108,-88 164,-88 164,-124"/>
<text text-anchor="middle" x="136" y="-103.5" font-family="Helvetica,sans-Serif" font-size="10.00">GuiBase</text>
</a>
</g>
</g>
<!-- dir_3072bc1f55ed1280fe4fbe6b21c78379&#45;&gt;dir_cb59203ea3f84fc4d67c89730003fed4 -->
<g id="edge6" class="edge"><title>dir_3072bc1f55ed1280fe4fbe6b21c78379&#45;&gt;dir_cb59203ea3f84fc4d67c89730003fed4</title>
<path fill="none" stroke="black" d="M76.6348,-159.697C84.5128,-151.05 95.0892,-140.449 105.184,-131.027"/>
<polygon fill="black" stroke="black" points="107.737,-133.435 112.756,-124.104 103.014,-128.268 107.737,-133.435"/>
<g id="a_edge6&#45;headlabel"><a xlink:href="dir_000028_000051.html" target="_top" xlink:title="1">
<text text-anchor="middle" x="107" y="-135.456" font-family="Helvetica,sans-Serif" font-size="10.00">1</text>
</a>
</g>
</g>
<!-- dir_cb59203ea3f84fc4d67c89730003fed4&#45;&gt;dir_a2f0e5642e47e7ed59fe0f0829eafb5f -->
<g id="edge2" class="edge"><title>dir_cb59203ea3f84fc4d67c89730003fed4&#45;&gt;dir_a2f0e5642e47e7ed59fe0f0829eafb5f</title>
<path fill="none" stroke="black" d="M114.494,-87.6966C103.537,-78.8807 90.0541,-68.0321 78.1751,-58.4742"/>
<polygon fill="black" stroke="black" points="80.2435,-55.6462 70.2582,-52.1043 75.8554,-61.1001 80.2435,-55.6462"/>
<g id="a_edge2&#45;headlabel"><a xlink:href="dir_000051_000020.html" target="_top" xlink:title="47">
<text text-anchor="middle" x="84.824" y="-53.1874" font-family="Helvetica,sans-Serif" font-size="10.00">47</text>
</a>
</g>
</g>
<!-- dir_cb59203ea3f84fc4d67c89730003fed4&#45;&gt;dir_3072bc1f55ed1280fe4fbe6b21c78379 -->
<g id="edge3" class="edge"><title>dir_cb59203ea3f84fc4d67c89730003fed4&#45;&gt;dir_3072bc1f55ed1280fe4fbe6b21c78379</title>
<path fill="none" stroke="black" d="M124.546,-124.104C116.71,-132.72 106.151,-143.316 96.0492,-152.755"/>
<polygon fill="black" stroke="black" points="93.4794,-150.363 88.4663,-159.697 98.2059,-155.526 93.4794,-150.363"/>
<g id="a_edge3&#45;headlabel"><a xlink:href="dir_000051_000028.html" target="_top" xlink:title="75">
<text text-anchor="middle" x="94.2138" y="-143.341" font-family="Helvetica,sans-Serif" font-size="10.00">75</text>
</a>
</g>
</g>
<!-- dir_1b07f77798358fd74e92420363fd4633 -->
<g id="node6" class="node"><title>dir_1b07f77798358fd74e92420363fd4633</title>
<g id="a_node6"><a xlink:href="dir_1b07f77798358fd74e92420363fd4633.html" target="_top" xlink:title="PluginBase">
<polygon fill="white" stroke="black" points="163.5,-52 94.5,-52 94.5,-16 163.5,-16 163.5,-52"/>
<text text-anchor="middle" x="129" y="-31.5" font-family="Helvetica,sans-Serif" font-size="10.00">PluginBase</text>
</a>
</g>
</g>
<!-- dir_cb59203ea3f84fc4d67c89730003fed4&#45;&gt;dir_1b07f77798358fd74e92420363fd4633 -->
<g id="edge4" class="edge"><title>dir_cb59203ea3f84fc4d67c89730003fed4&#45;&gt;dir_1b07f77798358fd74e92420363fd4633</title>
<path fill="none" stroke="black" d="M134.27,-87.6966C133.498,-79.9827 132.571,-70.7125 131.711,-62.1124"/>
<polygon fill="black" stroke="black" points="135.188,-61.7064 130.71,-52.1043 128.223,-62.403 135.188,-61.7064"/>
<g id="a_edge4&#45;headlabel"><a xlink:href="dir_000051_000065.html" target="_top" xlink:title="1">
<text text-anchor="middle" x="138.371" y="-62.5007" font-family="Helvetica,sans-Serif" font-size="10.00">1</text>
</a>
</g>
</g>
<!-- dir_fae119eb913a40fe8ed97cde8b98911e -->
<g id="node5" class="node"><title>dir_fae119eb913a40fe8ed97cde8b98911e</title>
<g id="a_node5"><a xlink:href="dir_fae119eb913a40fe8ed97cde8b98911e.html" target="_top" xlink:title="IO">
<polygon fill="white" stroke="red" points="70,-124 16,-124 16,-88 70,-88 70,-124"/>
<text text-anchor="middle" x="43" y="-103.5" font-family="Helvetica,sans-Serif" font-size="10.00">IO</text>
</a>
</g>
</g>
<!-- dir_fae119eb913a40fe8ed97cde8b98911e&#45;&gt;dir_a2f0e5642e47e7ed59fe0f0829eafb5f -->
<g id="edge1" class="edge"><title>dir_fae119eb913a40fe8ed97cde8b98911e&#45;&gt;dir_a2f0e5642e47e7ed59fe0f0829eafb5f</title>
<path fill="none" stroke="black" d="M44.4831,-87.6966C45.1443,-79.9827 45.9389,-70.7125 46.6761,-62.1124"/>
<polygon fill="black" stroke="black" points="50.167,-62.3667 47.5339,-52.1043 43.1926,-61.7689 50.167,-62.3667"/>
<g id="a_edge1&#45;headlabel"><a xlink:href="dir_000060_000020.html" target="_top" xlink:title="38">
<text text-anchor="middle" x="52.689" y="-63.6907" font-family="Helvetica,sans-Serif" font-size="10.00">38</text>
</a>
</g>
</g>
</g>
</svg>
