<?xml version="1.0" encoding="UTF-8" standalone="no"?>
<!DOCTYPE svg PUBLIC "-//W3C//DTD SVG 1.1//EN"
 "http://www.w3.org/Graphics/SVG/1.1/DTD/svg11.dtd">
<!-- Generated by graphviz version 2.38.0 (20140413.2041)
 -->
<!-- Title: /home/travis/build/STORM&#45;IRIT/Radium&#45;Engine/src/Engine/Renderer/Renderers Pages: 1 -->
<svg width="500pt" height="583pt"
 viewBox="0.00 0.00 500.00 583.00" xmlns="http://www.w3.org/2000/svg" xmlns:xlink="http://www.w3.org/1999/xlink">
<g id="graph0" class="graph" transform="scale(1 1) rotate(0) translate(4 579)">
<title>/home/travis/build/STORM&#45;IRIT/Radium&#45;Engine/src/Engine/Renderer/Renderers</title>
<polygon fill="white" stroke="none" points="-4,4 -4,-579 496,-579 496,4 -4,4"/>
<g id="clust1" class="cluster"><title>clusterdir_54018506bb725509c19b38b6d9bcf0f6</title>
<g id="a_clust1"><a xlink:href="dir_54018506bb725509c19b38b6d9bcf0f6.html" target="_top" xlink:title="Renderer">
<polygon fill="#ddddee" stroke="black" points="222,-496 222,-567 304,-567 304,-496 222,-496"/>
<text text-anchor="middle" x="263" y="-555" font-family="Helvetica,sans-Serif" font-size="10.00">Renderer</text>
</a>
</g>
</g>
<!-- dir_ac53bbf7aa3921b9bb37792f08d5cbd9 -->
<g id="node1" class="node"><title>dir_ac53bbf7aa3921b9bb37792f08d5cbd9</title>
<g id="a_node1"><a xlink:href="dir_ac53bbf7aa3921b9bb37792f08d5cbd9.html" target="_top" xlink:title="Renderers">
<polygon fill="#eeeeff" stroke="black" points="295.5,-540 230.5,-540 230.5,-504 295.5,-504 295.5,-540"/>
<text text-anchor="middle" x="263" y="-519.5" font-family="Helvetica,sans-Serif" font-size="10.00">Renderers</text>
</a>
</g>
</g>
<!-- dir_b3c92c43cc8feb1052f624d79df8b6af -->
<g id="node2" class="node"><title>dir_b3c92c43cc8feb1052f624d79df8b6af</title>
<g id="a_node2"><a xlink:href="dir_b3c92c43cc8feb1052f624d79df8b6af.html" target="_top" xlink:title="Light">
<polygon fill="none" stroke="black" points="82,-324 28,-324 28,-288 82,-288 82,-324"/>
<text text-anchor="middle" x="55" y="-303.5" font-family="Helvetica,sans-Serif" font-size="10.00">Light</text>
</a>
</g>
</g>
<!-- dir_ac53bbf7aa3921b9bb37792f08d5cbd9&#45;&gt;dir_b3c92c43cc8feb1052f624d79df8b6af -->
<g id="edge10" class="edge"><title>dir_ac53bbf7aa3921b9bb37792f08d5cbd9&#45;&gt;dir_b3c92c43cc8feb1052f624d79df8b6af</title>
<path fill="none" stroke="black" d="M230.151,-518.223C189.261,-513.455 118.643,-500.808 68,-468 33.2779,-445.506 22.9233,-434.958 9,-396 3.61532,-380.933 3.4025,-374.989 9,-360 12.8761,-349.621 19.8029,-339.927 27.124,-331.743"/>
<polygon fill="black" stroke="black" points="29.784,-334.026 34.1772,-324.385 24.7306,-329.182 29.784,-334.026"/>
<g id="a_edge10&#45;headlabel"><a xlink:href="dir_000045_000041.html" target="_top" xlink:title="2">
<text text-anchor="middle" x="29.3463" y="-336.085" font-family="Helvetica,sans-Serif" font-size="10.00">2</text>
</a>
</g>
</g>
<!-- dir_652267079d823ee01f6c6cf98db9085b -->
<g id="node3" class="node"><title>dir_652267079d823ee01f6c6cf98db9085b</title>
<g id="a_node3"><a xlink:href="dir_652267079d823ee01f6c6cf98db9085b.html" target="_top" xlink:title="RenderObject">
<polygon fill="white" stroke="red" points="188,-468 108,-468 108,-432 188,-432 188,-468"/>
<text text-anchor="middle" x="148" y="-447.5" font-family="Helvetica,sans-Serif" font-size="10.00">RenderObject</text>
</a>
</g>
</g>
<!-- dir_ac53bbf7aa3921b9bb37792f08d5cbd9&#45;&gt;dir_652267079d823ee01f6c6cf98db9085b -->
<g id="edge11" class="edge"><title>dir_ac53bbf7aa3921b9bb37792f08d5cbd9&#45;&gt;dir_652267079d823ee01f6c6cf98db9085b</title>
<path fill="none" stroke="black" d="M234.868,-503.876C219.832,-494.724 201.133,-483.342 184.94,-473.485"/>
<polygon fill="black" stroke="black" points="186.602,-470.4 176.24,-468.19 182.962,-476.379 186.602,-470.4"/>
<g id="a_edge11&#45;headlabel"><a xlink:href="dir_000045_000046.html" target="_top" xlink:title="2">
<text text-anchor="middle" x="191.149" y="-467.343" font-family="Helvetica,sans-Serif" font-size="10.00">2</text>
</a>
</g>
</g>
<!-- dir_8efb2e226a329d96dc3bcfc9eaf1a998 -->
<g id="node4" class="node"><title>dir_8efb2e226a329d96dc3bcfc9eaf1a998</title>
<g id="a_node4"><a xlink:href="dir_8efb2e226a329d96dc3bcfc9eaf1a998.html" target="_top" xlink:title="Texture">
<polygon fill="none" stroke="black" points="298,-108 244,-108 244,-72 298,-72 298,-108"/>
<text text-anchor="middle" x="271" y="-87.5" font-family="Helvetica,sans-Serif" font-size="10.00">Texture</text>
</a>
</g>
</g>
<!-- dir_ac53bbf7aa3921b9bb37792f08d5cbd9&#45;&gt;dir_8efb2e226a329d96dc3bcfc9eaf1a998 -->
<g id="edge12" class="edge"><title>dir_ac53bbf7aa3921b9bb37792f08d5cbd9&#45;&gt;dir_8efb2e226a329d96dc3bcfc9eaf1a998</title>
<path fill="none" stroke="black" d="M290.545,-503.819C324.567,-480.225 378,-434.357 378,-379 378,-379 378,-379 378,-305 378,-229.889 324.615,-154.117 293.262,-116.092"/>
<polygon fill="black" stroke="black" points="295.676,-113.526 286.559,-108.129 290.321,-118.034 295.676,-113.526"/>
<g id="a_edge12&#45;headlabel"><a xlink:href="dir_000045_000049.html" target="_top" xlink:title="1">
<text text-anchor="middle" x="300.163" y="-111.947" font-family="Helvetica,sans-Serif" font-size="10.00">1</text>
</a>
</g>
</g>
<!-- dir_a2f0e5642e47e7ed59fe0f0829eafb5f -->
<g id="node5" class="node"><title>dir_a2f0e5642e47e7ed59fe0f0829eafb5f</title>
<g id="a_node5"><a xlink:href="dir_a2f0e5642e47e7ed59fe0f0829eafb5f.html" target="_top" xlink:title="Core">
<polygon fill="white" stroke="red" points="224,-36 170,-36 170,-0 224,-0 224,-36"/>
<text text-anchor="middle" x="197" y="-15.5" font-family="Helvetica,sans-Serif" font-size="10.00">Core</text>
</a>
</g>
</g>
<!-- dir_ac53bbf7aa3921b9bb37792f08d5cbd9&#45;&gt;dir_a2f0e5642e47e7ed59fe0f0829eafb5f -->
<g id="edge13" class="edge"><title>dir_ac53bbf7aa3921b9bb37792f08d5cbd9&#45;&gt;dir_a2f0e5642e47e7ed59fe0f0829eafb5f</title>
<path fill="none" stroke="black" d="M295.834,-512.834C350.444,-497.063 454,-456.888 454,-379 454,-379 454,-379 454,-233 454,-142.952 402.82,-126.318 331,-72 301.944,-50.025 262.587,-35.9012 234.049,-27.8069"/>
<polygon fill="black" stroke="black" points="234.632,-24.3383 224.064,-25.0942 232.796,-31.0935 234.632,-24.3383"/>
<g id="a_edge13&#45;headlabel"><a xlink:href="dir_000045_000020.html" target="_top" xlink:title="8">
<text text-anchor="middle" x="238.845" y="-20.0407" font-family="Helvetica,sans-Serif" font-size="10.00">8</text>
</a>
</g>
</g>
<!-- dir_745a441f70a5ddf403f2f793490dcc6d -->
<g id="node6" class="node"><title>dir_745a441f70a5ddf403f2f793490dcc6d</title>
<g id="a_node6"><a xlink:href="dir_745a441f70a5ddf403f2f793490dcc6d.html" target="_top" xlink:title="OpenGL">
<polygon fill="none" stroke="black" points="429.5,-36 374.5,-36 374.5,-0 429.5,-0 429.5,-36"/>
<text text-anchor="middle" x="402" y="-15.5" font-family="Helvetica,sans-Serif" font-size="10.00">OpenGL</text>
</a>
</g>
</g>
<!-- dir_ac53bbf7aa3921b9bb37792f08d5cbd9&#45;&gt;dir_745a441f70a5ddf403f2f793490dcc6d -->
<g id="edge14" class="edge"><title>dir_ac53bbf7aa3921b9bb37792f08d5cbd9&#45;&gt;dir_745a441f70a5ddf403f2f793490dcc6d</title>
<path fill="none" stroke="black" d="M295.81,-516.193C359.131,-504.863 492,-470.221 492,-379 492,-379 492,-379 492,-161 492,-113.714 455.956,-69.4078 429.488,-43.2473"/>
<polygon fill="black" stroke="black" points="431.615,-40.4379 421.974,-36.0452 426.772,-45.4915 431.615,-40.4379"/>
<g id="a_edge14&#45;headlabel"><a xlink:href="dir_000045_000044.html" target="_top" xlink:title="2">
<text text-anchor="middle" x="436.175" y="-38.3754" font-family="Helvetica,sans-Serif" font-size="10.00">2</text>
</a>
</g>
</g>
<!-- dir_f6a0a87962fcbf90fc709c1bf5ba5a00 -->
<g id="node7" class="node"><title>dir_f6a0a87962fcbf90fc709c1bf5ba5a00</title>
<g id="a_node7"><a xlink:href="dir_f6a0a87962fcbf90fc709c1bf5ba5a00.html" target="_top" xlink:title="Mesh">
<polygon fill="none" stroke="black" points="348,-396 294,-396 294,-360 348,-360 348,-396"/>
<text text-anchor="middle" x="321" y="-375.5" font-family="Helvetica,sans-Serif" font-size="10.00">Mesh</text>
</a>
</g>
</g>
<!-- dir_ac53bbf7aa3921b9bb37792f08d5cbd9&#45;&gt;dir_f6a0a87962fcbf90fc709c1bf5ba5a00 -->
<g id="edge15" class="edge"><title>dir_ac53bbf7aa3921b9bb37792f08d5cbd9&#45;&gt;dir_f6a0a87962fcbf90fc709c1bf5ba5a00</title>
<path fill="none" stroke="black" d="M269.996,-503.871C279.968,-479.457 298.361,-434.426 310.121,-405.635"/>
<polygon fill="black" stroke="black" points="313.438,-406.77 313.979,-396.189 306.958,-404.123 313.438,-406.77"/>
<g id="a_edge15&#45;headlabel"><a xlink:href="dir_000045_000043.html" target="_top" xlink:title="2">
<text text-anchor="middle" x="314.707" y="-408.672" font-family="Helvetica,sans-Serif" font-size="10.00">2</text>
</a>
</g>
</g>
<!-- dir_6bc97c5ccce2964f7b25f8377ac95818 -->
<g id="node8" class="node"><title>dir_6bc97c5ccce2964f7b25f8377ac95818</title>
<g id="a_node8"><a xlink:href="dir_6bc97c5ccce2964f7b25f8377ac95818.html" target="_top" xlink:title="RenderTechnique">
<polygon fill="none" stroke="black" points="311.5,-252 214.5,-252 214.5,-216 311.5,-216 311.5,-252"/>
<text text-anchor="middle" x="263" y="-231.5" font-family="Helvetica,sans-Serif" font-size="10.00">RenderTechnique</text>
</a>
</g>
</g>
<!-- dir_ac53bbf7aa3921b9bb37792f08d5cbd9&#45;&gt;dir_6bc97c5ccce2964f7b25f8377ac95818 -->
<g id="edge16" class="edge"><title>dir_ac53bbf7aa3921b9bb37792f08d5cbd9&#45;&gt;dir_6bc97c5ccce2964f7b25f8377ac95818</title>
<path fill="none" stroke="black" d="M263,-503.966C263,-456.291 263,-321.185 263,-262.63"/>
<polygon fill="black" stroke="black" points="266.5,-262.306 263,-252.306 259.5,-262.306 266.5,-262.306"/>
<g id="a_edge16&#45;headlabel"><a xlink:href="dir_000045_000048.html" target="_top" xlink:title="4">
<text text-anchor="middle" x="269.339" y="-263.401" font-family="Helvetica,sans-Serif" font-size="10.00">4</text>
</a>
</g>
</g>
<!-- dir_06113b60808b1bbb52a01dfd2c3a8657 -->
<g id="node9" class="node"><title>dir_06113b60808b1bbb52a01dfd2c3a8657</title>
<g id="a_node9"><a xlink:href="dir_06113b60808b1bbb52a01dfd2c3a8657.html" target="_top" xlink:title="Managers">
<polygon fill="white" stroke="red" points="82,-396 18,-396 18,-360 82,-360 82,-396"/>
<text text-anchor="middle" x="50" y="-375.5" font-family="Helvetica,sans-Serif" font-size="10.00">Managers</text>
</a>
</g>
</g>
<!-- dir_ac53bbf7aa3921b9bb37792f08d5cbd9&#45;&gt;dir_06113b60808b1bbb52a01dfd2c3a8657 -->
<g id="edge17" class="edge"><title>dir_ac53bbf7aa3921b9bb37792f08d5cbd9&#45;&gt;dir_06113b60808b1bbb52a01dfd2c3a8657</title>
<path fill="none" stroke="black" d="M230.323,-517.631C194.545,-512.439 137.191,-499.524 99,-468 79.3336,-451.767 66.2523,-425.484 58.5906,-405.679"/>
<polygon fill="black" stroke="black" points="61.8767,-404.474 55.1658,-396.276 55.2994,-406.87 61.8767,-404.474"/>
<g id="a_edge17&#45;headlabel"><a xlink:href="dir_000045_000032.html" target="_top" xlink:title="2">
<text text-anchor="middle" x="65.7747" y="-404.38" font-family="Helvetica,sans-Serif" font-size="10.00">2</text>
</a>
</g>
</g>
<!-- dir_909774b1a000bf73b2cf501716b773f3 -->
<g id="node10" class="node"><title>dir_909774b1a000bf73b2cf501716b773f3</title>
<g id="a_node10"><a xlink:href="dir_909774b1a000bf73b2cf501716b773f3.html" target="_top" xlink:title="Material">
<polygon fill="none" stroke="black" points="196.5,-180 141.5,-180 141.5,-144 196.5,-144 196.5,-180"/>
<text text-anchor="middle" x="169" y="-159.5" font-family="Helvetica,sans-Serif" font-size="10.00">Material</text>
</a>
</g>
</g>
<!-- dir_ac53bbf7aa3921b9bb37792f08d5cbd9&#45;&gt;dir_909774b1a000bf73b2cf501716b773f3 -->
<g id="edge18" class="edge"><title>dir_ac53bbf7aa3921b9bb37792f08d5cbd9&#45;&gt;dir_909774b1a000bf73b2cf501716b773f3</title>
<path fill="none" stroke="black" d="M258.466,-503.733C243.327,-446.075 194.441,-259.894 176.068,-189.918"/>
<polygon fill="black" stroke="black" points="179.413,-188.877 173.488,-180.094 172.643,-190.655 179.413,-188.877"/>
<g id="a_edge18&#45;headlabel"><a xlink:href="dir_000045_000042.html" target="_top" xlink:title="1">
<text text-anchor="middle" x="183.072" y="-189.133" font-family="Helvetica,sans-Serif" font-size="10.00">1</text>
</a>
</g>
</g>
<!-- dir_b3c92c43cc8feb1052f624d79df8b6af&#45;&gt;dir_a2f0e5642e47e7ed59fe0f0829eafb5f -->
<g id="edge1" class="edge"><title>dir_b3c92c43cc8feb1052f624d79df8b6af&#45;&gt;dir_a2f0e5642e47e7ed59fe0f0829eafb5f</title>
<path fill="none" stroke="black" d="M53.2205,-287.832C49.8557,-246.389 46.8202,-139.329 96,-72 111.497,-50.7835 138.061,-37.3226 160.057,-29.2773"/>
<polygon fill="black" stroke="black" points="161.454,-32.4986 169.786,-25.9534 159.191,-25.8745 161.454,-32.4986"/>
<g id="a_edge1&#45;headlabel"><a xlink:href="dir_000041_000020.html" target="_top" xlink:title="2">
<text text-anchor="middle" x="158.971" y="-33.8474" font-family="Helvetica,sans-Serif" font-size="10.00">2</text>
</a>
</g>
</g>
<!-- dir_b3c92c43cc8feb1052f624d79df8b6af&#45;&gt;dir_6bc97c5ccce2964f7b25f8377ac95818 -->
<g id="edge2" class="edge"><title>dir_b3c92c43cc8feb1052f624d79df8b6af&#45;&gt;dir_6bc97c5ccce2964f7b25f8377ac95818</title>
<path fill="none" stroke="black" d="M82.1924,-295.849C113.119,-285.441 164.518,-268.143 204.626,-254.645"/>
<polygon fill="black" stroke="black" points="205.938,-257.897 214.299,-251.39 203.705,-251.262 205.938,-257.897"/>
<g id="a_edge2&#45;headlabel"><a xlink:href="dir_000041_000048.html" target="_top" xlink:title="4">
<text text-anchor="middle" x="203.436" y="-259.234" font-family="Helvetica,sans-Serif" font-size="10.00">4</text>
</a>
</g>
</g>
<!-- dir_652267079d823ee01f6c6cf98db9085b&#45;&gt;dir_a2f0e5642e47e7ed59fe0f0829eafb5f -->
<g id="edge3" class="edge"><title>dir_652267079d823ee01f6c6cf98db9085b&#45;&gt;dir_a2f0e5642e47e7ed59fe0f0829eafb5f</title>
<path fill="none" stroke="black" d="M140.31,-431.907C129.206,-405.623 110,-353.447 110,-307 110,-307 110,-307 110,-161 110,-114.161 144.843,-69.7355 170.428,-43.4277"/>
<polygon fill="black" stroke="black" points="173.084,-45.7221 177.692,-36.1818 168.14,-40.7663 173.084,-45.7221"/>
<g id="a_edge3&#45;headlabel"><a xlink:href="dir_000046_000020.html" target="_top" xlink:title="12">
<text text-anchor="middle" x="172.544" y="-47.7708" font-family="Helvetica,sans-Serif" font-size="10.00">12</text>
</a>
</g>
</g>
<!-- dir_652267079d823ee01f6c6cf98db9085b&#45;&gt;dir_f6a0a87962fcbf90fc709c1bf5ba5a00 -->
<g id="edge4" class="edge"><title>dir_652267079d823ee01f6c6cf98db9085b&#45;&gt;dir_f6a0a87962fcbf90fc709c1bf5ba5a00</title>
<path fill="none" stroke="black" d="M188.125,-432.765C217.143,-421.023 256.049,-405.281 284.257,-393.867"/>
<polygon fill="black" stroke="black" points="285.798,-397.02 293.755,-390.024 283.172,-390.531 285.798,-397.02"/>
<g id="a_edge4&#45;headlabel"><a xlink:href="dir_000046_000043.html" target="_top" xlink:title="3">
<text text-anchor="middle" x="283.53" y="-398.5" font-family="Helvetica,sans-Serif" font-size="10.00">3</text>
</a>
</g>
</g>
<!-- dir_652267079d823ee01f6c6cf98db9085b&#45;&gt;dir_6bc97c5ccce2964f7b25f8377ac95818 -->
<g id="edge5" class="edge"><title>dir_652267079d823ee01f6c6cf98db9085b&#45;&gt;dir_6bc97c5ccce2964f7b25f8377ac95818</title>
<path fill="none" stroke="black" d="M157.217,-431.849C177.277,-394.519 225.01,-305.695 248.889,-261.259"/>
<polygon fill="black" stroke="black" points="252.089,-262.698 253.74,-252.232 245.923,-259.384 252.089,-262.698"/>
<g id="a_edge5&#45;headlabel"><a xlink:href="dir_000046_000048.html" target="_top" xlink:title="4">
<text text-anchor="middle" x="252.888" y="-264.708" font-family="Helvetica,sans-Serif" font-size="10.00">4</text>
</a>
</g>
</g>
<!-- dir_652267079d823ee01f6c6cf98db9085b&#45;&gt;dir_06113b60808b1bbb52a01dfd2c3a8657 -->
<g id="edge6" class="edge"><title>dir_652267079d823ee01f6c6cf98db9085b&#45;&gt;dir_06113b60808b1bbb52a01dfd2c3a8657</title>
<path fill="none" stroke="black" d="M118.129,-431.876C104.741,-422.978 89.1644,-411.972 76.2302,-402.31"/>
<polygon fill="black" stroke="black" points="78.2442,-399.445 68.1617,-396.19 74.0139,-405.022 78.2442,-399.445"/>
<g id="a_edge6&#45;headlabel"><a xlink:href="dir_000046_000032.html" target="_top" xlink:title="2">
<text text-anchor="middle" x="82.824" y="-396.855" font-family="Helvetica,sans-Serif" font-size="10.00">2</text>
</a>
</g>
</g>
<!-- dir_652267079d823ee01f6c6cf98db9085b&#45;&gt;dir_909774b1a000bf73b2cf501716b773f3 -->
<g id="edge7" class="edge"><title>dir_652267079d823ee01f6c6cf98db9085b&#45;&gt;dir_909774b1a000bf73b2cf501716b773f3</title>
<path fill="none" stroke="black" d="M149.251,-431.966C152.751,-384.291 162.672,-249.185 166.971,-190.63"/>
<polygon fill="black" stroke="black" points="170.487,-190.536 167.729,-180.306 163.506,-190.023 170.487,-190.536"/>
<g id="a_edge7&#45;headlabel"><a xlink:href="dir_000046_000042.html" target="_top" xlink:title="2">
<text text-anchor="middle" x="173.056" y="-191.829" font-family="Helvetica,sans-Serif" font-size="10.00">2</text>
</a>
</g>
</g>
<!-- dir_8efb2e226a329d96dc3bcfc9eaf1a998&#45;&gt;dir_a2f0e5642e47e7ed59fe0f0829eafb5f -->
<g id="edge8" class="edge"><title>dir_8efb2e226a329d96dc3bcfc9eaf1a998&#45;&gt;dir_a2f0e5642e47e7ed59fe0f0829eafb5f</title>
<path fill="none" stroke="black" d="M252.708,-71.6966C243.567,-63.0503 232.36,-52.4486 222.4,-43.027"/>
<polygon fill="black" stroke="black" points="224.752,-40.4337 215.082,-36.1043 219.941,-45.519 224.752,-40.4337"/>
<g id="a_edge8&#45;headlabel"><a xlink:href="dir_000049_000020.html" target="_top" xlink:title="3">
<text text-anchor="middle" x="229.314" y="-38.3413" font-family="Helvetica,sans-Serif" font-size="10.00">3</text>
</a>
</g>
</g>
<!-- dir_8efb2e226a329d96dc3bcfc9eaf1a998&#45;&gt;dir_745a441f70a5ddf403f2f793490dcc6d -->
<g id="edge9" class="edge"><title>dir_8efb2e226a329d96dc3bcfc9eaf1a998&#45;&gt;dir_745a441f70a5ddf403f2f793490dcc6d</title>
<path fill="none" stroke="black" d="M298.143,-74.496C317.597,-64.1006 344.022,-49.9809 365.347,-38.5854"/>
<polygon fill="black" stroke="black" points="367.27,-41.5262 374.441,-33.7263 363.971,-35.3523 367.27,-41.5262"/>
<g id="a_edge9&#45;headlabel"><a xlink:href="dir_000049_000044.html" target="_top" xlink:title="2">
<text text-anchor="middle" x="365.438" y="-43.2244" font-family="Helvetica,sans-Serif" font-size="10.00">2</text>
</a>
</g>
</g>
<!-- dir_f6a0a87962fcbf90fc709c1bf5ba5a00&#45;&gt;dir_a2f0e5642e47e7ed59fe0f0829eafb5f -->
<g id="edge19" class="edge"><title>dir_f6a0a87962fcbf90fc709c1bf5ba5a00&#45;&gt;dir_a2f0e5642e47e7ed59fe0f0829eafb5f</title>
<path fill="none" stroke="black" d="M325.947,-359.859C339.204,-310.121 370.396,-163.499 307,-72 290.129,-47.6498 258.898,-34.0909 234.013,-26.7979"/>
<polygon fill="black" stroke="black" points="234.709,-23.3606 224.142,-24.1284 232.882,-30.1178 234.709,-23.3606"/>
<g id="a_edge19&#45;headlabel"><a xlink:href="dir_000043_000020.html" target="_top" xlink:title="4">
<text text-anchor="middle" x="238.921" y="-19.0581" font-family="Helvetica,sans-Serif" font-size="10.00">4</text>
</a>
</g>
</g>
<!-- dir_f6a0a87962fcbf90fc709c1bf5ba5a00&#45;&gt;dir_745a441f70a5ddf403f2f793490dcc6d -->
<g id="edge20" class="edge"><title>dir_f6a0a87962fcbf90fc709c1bf5ba5a00&#45;&gt;dir_745a441f70a5ddf403f2f793490dcc6d</title>
<path fill="none" stroke="black" d="M333.731,-359.593C340.551,-349.592 348.629,-336.557 354,-324 395.023,-228.097 401.415,-101.763 402.121,-46.6736"/>
<polygon fill="black" stroke="black" points="405.623,-46.3604 402.195,-36.3354 398.623,-46.3099 405.623,-46.3604"/>
<g id="a_edge20&#45;headlabel"><a xlink:href="dir_000043_000044.html" target="_top" xlink:title="1">
<text text-anchor="middle" x="408.436" y="-47.4753" font-family="Helvetica,sans-Serif" font-size="10.00">1</text>
</a>
</g>
</g>
<!-- dir_6bc97c5ccce2964f7b25f8377ac95818&#45;&gt;dir_8efb2e226a329d96dc3bcfc9eaf1a998 -->
<g id="edge21" class="edge"><title>dir_6bc97c5ccce2964f7b25f8377ac95818&#45;&gt;dir_8efb2e226a329d96dc3bcfc9eaf1a998</title>
<path fill="none" stroke="black" d="M263.965,-215.871C265.328,-191.67 267.833,-147.211 269.457,-118.393"/>
<polygon fill="black" stroke="black" points="272.963,-118.37 270.032,-108.189 265.975,-117.977 272.963,-118.37"/>
<g id="a_edge21&#45;headlabel"><a xlink:href="dir_000048_000049.html" target="_top" xlink:title="1">
<text text-anchor="middle" x="275.596" y="-119.619" font-family="Helvetica,sans-Serif" font-size="10.00">1</text>
</a>
</g>
</g>
<!-- dir_6bc97c5ccce2964f7b25f8377ac95818&#45;&gt;dir_a2f0e5642e47e7ed59fe0f0829eafb5f -->
<g id="edge22" class="edge"><title>dir_6bc97c5ccce2964f7b25f8377ac95818&#45;&gt;dir_a2f0e5642e47e7ed59fe0f0829eafb5f</title>
<path fill="none" stroke="black" d="M257.711,-215.849C246.246,-178.675 219.033,-90.4388 205.272,-45.8204"/>
<polygon fill="black" stroke="black" points="208.606,-44.7568 202.315,-36.2325 201.917,-46.8198 208.606,-44.7568"/>
<g id="a_edge22&#45;headlabel"><a xlink:href="dir_000048_000020.html" target="_top" xlink:title="13">
<text text-anchor="middle" x="212.379" y="-44.855" font-family="Helvetica,sans-Serif" font-size="10.00">13</text>
</a>
</g>
</g>
<!-- dir_6bc97c5ccce2964f7b25f8377ac95818&#45;&gt;dir_745a441f70a5ddf403f2f793490dcc6d -->
<g id="edge23" class="edge"><title>dir_6bc97c5ccce2964f7b25f8377ac95818&#45;&gt;dir_745a441f70a5ddf403f2f793490dcc6d</title>
<path fill="none" stroke="black" d="M274.14,-215.849C298.489,-178.362 356.566,-88.9491 385.305,-44.7025"/>
<polygon fill="black" stroke="black" points="388.295,-46.5252 390.807,-36.2325 382.425,-42.7122 388.295,-46.5252"/>
<g id="a_edge23&#45;headlabel"><a xlink:href="dir_000048_000044.html" target="_top" xlink:title="1">
<text text-anchor="middle" x="388.718" y="-48.5863" font-family="Helvetica,sans-Serif" font-size="10.00">1</text>
</a>
</g>
</g>
<!-- dir_6bc97c5ccce2964f7b25f8377ac95818&#45;&gt;dir_909774b1a000bf73b2cf501716b773f3 -->
<g id="edge24" class="edge"><title>dir_6bc97c5ccce2964f7b25f8377ac95818&#45;&gt;dir_909774b1a000bf73b2cf501716b773f3</title>
<path fill="none" stroke="black" d="M234.108,-215.876C221.351,-207.063 206.565,-196.182 194.253,-186.586"/>
<polygon fill="black" stroke="black" points="196.191,-183.657 186.179,-180.19 191.844,-189.143 196.191,-183.657"/>
<g id="a_edge24&#45;headlabel"><a xlink:href="dir_000048_000042.html" target="_top" xlink:title="1">
<text text-anchor="middle" x="200.772" y="-181.163" font-family="Helvetica,sans-Serif" font-size="10.00">1</text>
</a>
</g>
</g>
<!-- dir_06113b60808b1bbb52a01dfd2c3a8657&#45;&gt;dir_b3c92c43cc8feb1052f624d79df8b6af -->
<g id="edge25" class="edge"><title>dir_06113b60808b1bbb52a01dfd2c3a8657&#45;&gt;dir_b3c92c43cc8feb1052f624d79df8b6af</title>
<path fill="none" stroke="black" d="M51.236,-359.697C51.7869,-351.983 52.4491,-342.712 53.0634,-334.112"/>
<polygon fill="black" stroke="black" points="56.5568,-334.328 53.7783,-324.104 49.5746,-333.83 56.5568,-334.328"/>
<g id="a_edge25&#45;headlabel"><a xlink:href="dir_000032_000041.html" target="_top" xlink:title="5">
<text text-anchor="middle" x="59.1328" y="-335.616" font-family="Helvetica,sans-Serif" font-size="10.00">5</text>
</a>
</g>
</g>
<!-- dir_06113b60808b1bbb52a01dfd2c3a8657&#45;&gt;dir_652267079d823ee01f6c6cf98db9085b -->
<g id="edge26" class="edge"><title>dir_06113b60808b1bbb52a01dfd2c3a8657&#45;&gt;dir_652267079d823ee01f6c6cf98db9085b</title>
<path fill="none" stroke="black" d="M79.8411,-396.104C93.1879,-404.974 108.713,-415.941 121.629,-425.585"/>
<polygon fill="black" stroke="black" points="119.608,-428.445 129.691,-431.697 123.836,-422.866 119.608,-428.445"/>
<g id="a_edge26&#45;headlabel"><a xlink:href="dir_000032_000046.html" target="_top" xlink:title="2">
<text text-anchor="middle" x="115.028" y="-426.036" font-family="Helvetica,sans-Serif" font-size="10.00">2</text>
</a>
</g>
</g>
<!-- dir_06113b60808b1bbb52a01dfd2c3a8657&#45;&gt;dir_a2f0e5642e47e7ed59fe0f0829eafb5f -->
<g id="edge27" class="edge"><title>dir_06113b60808b1bbb52a01dfd2c3a8657&#45;&gt;dir_a2f0e5642e47e7ed59fe0f0829eafb5f</title>
<path fill="none" stroke="black" d="M37.8921,-359.567C31.4399,-349.558 23.8543,-336.523 19,-324 4.38184,-286.287 0,-275.447 0,-235 0,-235 0,-235 0,-161 0,-83.0462 102.767,-43.6226 159.852,-27.7369"/>
<polygon fill="black" stroke="black" points="160.852,-31.0924 169.608,-25.1268 159.043,-24.3302 160.852,-31.0924"/>
<g id="a_edge27&#45;headlabel"><a xlink:href="dir_000032_000020.html" target="_top" xlink:title="15">
<text text-anchor="middle" x="158.114" y="-32.2641" font-family="Helvetica,sans-Serif" font-size="10.00">15</text>
</a>
</g>
</g>
<!-- dir_909774b1a000bf73b2cf501716b773f3&#45;&gt;dir_8efb2e226a329d96dc3bcfc9eaf1a998 -->
<g id="edge28" class="edge"><title>dir_909774b1a000bf73b2cf501716b773f3&#45;&gt;dir_8efb2e226a329d96dc3bcfc9eaf1a998</title>
<path fill="none" stroke="black" d="M193.952,-143.876C207.042,-134.893 223.26,-123.763 237.436,-114.034"/>
<polygon fill="black" stroke="black" points="239.687,-116.734 245.952,-108.19 235.726,-110.962 239.687,-116.734"/>
<g id="a_edge28&#45;headlabel"><a xlink:href="dir_000042_000049.html" target="_top" xlink:title="3">
<text text-anchor="middle" x="238.33" y="-118.609" font-family="Helvetica,sans-Serif" font-size="10.00">3</text>
</a>
</g>
</g>
<!-- dir_909774b1a000bf73b2cf501716b773f3&#45;&gt;dir_a2f0e5642e47e7ed59fe0f0829eafb5f -->
<g id="edge29" class="edge"><title>dir_909774b1a000bf73b2cf501716b773f3&#45;&gt;dir_a2f0e5642e47e7ed59fe0f0829eafb5f</title>
<path fill="none" stroke="black" d="M172.377,-143.871C177.171,-119.564 185.993,-74.8187 191.673,-46.0132"/>
<polygon fill="black" stroke="black" points="195.11,-46.6775 193.611,-36.1893 188.242,-45.3232 195.11,-46.6775"/>
<g id="a_edge29&#45;headlabel"><a xlink:href="dir_000042_000020.html" target="_top" xlink:title="4">
<text text-anchor="middle" x="197.2" y="-48.2534" font-family="Helvetica,sans-Serif" font-size="10.00">4</text>
</a>
</g>
</g>
<!-- dir_909774b1a000bf73b2cf501716b773f3&#45;&gt;dir_6bc97c5ccce2964f7b25f8377ac95818 -->
<g id="edge30" class="edge"><title>dir_909774b1a000bf73b2cf501716b773f3&#45;&gt;dir_6bc97c5ccce2964f7b25f8377ac95818</title>
<path fill="none" stroke="black" d="M196.817,-179.383C209.826,-188.331 225.118,-199.57 237.785,-209.443"/>
<polygon fill="black" stroke="black" points="235.668,-212.231 245.68,-215.697 240.014,-206.744 235.668,-212.231"/>
<g id="a_edge30&#45;headlabel"><a xlink:href="dir_000042_000048.html" target="_top" xlink:title="3">
<text text-anchor="middle" x="231.087" y="-209.725" font-family="Helvetica,sans-Serif" font-size="10.00">3</text>
</a>
</g>
</g>
</g>
</svg>
