<?xml version="1.0" encoding="UTF-8" standalone="no"?>
<!DOCTYPE svg PUBLIC "-//W3C//DTD SVG 1.1//EN"
 "http://www.w3.org/Graphics/SVG/1.1/DTD/svg11.dtd">
<!-- Generated by graphviz version 2.38.0 (20140413.2041)
 -->
<!-- Title: /home/travis/build/STORM&#45;IRIT/Radium&#45;Engine/Plugins/Animation/src Pages: 1 -->
<svg width="184pt" height="231pt"
 viewBox="0.00 0.00 184.00 231.00" xmlns="http://www.w3.org/2000/svg" xmlns:xlink="http://www.w3.org/1999/xlink">
<g id="graph0" class="graph" transform="scale(1 1) rotate(0) translate(4 227)">
<title>/home/travis/build/STORM&#45;IRIT/Radium&#45;Engine/Plugins/Animation/src</title>
<polygon fill="white" stroke="none" points="-4,4 -4,-227 180,-227 180,4 -4,4"/>
<g id="clust1" class="cluster"><title>clusterdir_6f0e341094b93fe10adaef3ab2c0441b</title>
<g id="a_clust1"><a xlink:href="dir_6f0e341094b93fe10adaef3ab2c0441b.html" target="_top" xlink:title="Animation">
<polygon fill="#ddddee" stroke="black" points="8,-56 8,-215 168,-215 168,-56 8,-56"/>
<text text-anchor="middle" x="88" y="-203" font-family="Helvetica,sans-Serif" font-size="10.00">Animation</text>
</a>
</g>
</g>
<g id="clust2" class="cluster"><title>clusterdir_06f320542461db1a542778f2d704f091</title>
<g id="a_clust2"><a xlink:href="dir_06f320542461db1a542778f2d704f091.html" target="_top">
<polygon fill="#eeeeff" stroke="black" points="16,-64 16,-188 160,-188 160,-64 16,-64"/>
</a>
</g>
</g>
<!-- dir_06f320542461db1a542778f2d704f091 -->
<g id="node1" class="node"><title>dir_06f320542461db1a542778f2d704f091</title>
<text text-anchor="middle" x="88" y="-159.5" font-family="Helvetica,sans-Serif" font-size="10.00">src</text>
</g>
<!-- dir_563c824e39d5ea58ac78a93bd0a815cc -->
<g id="node2" class="node"><title>dir_563c824e39d5ea58ac78a93bd0a815cc</title>
<g id="a_node2"><a xlink:href="dir_563c824e39d5ea58ac78a93bd0a815cc.html" target="_top" xlink:title="Drawing">
<polygon fill="white" stroke="black" points="79.5,-108 24.5,-108 24.5,-72 79.5,-72 79.5,-108"/>
<text text-anchor="middle" x="52" y="-87.5" font-family="Helvetica,sans-Serif" font-size="10.00">Drawing</text>
</a>
</g>
</g>
<!-- dir_06f320542461db1a542778f2d704f091&#45;&gt;dir_563c824e39d5ea58ac78a93bd0a815cc -->
<g id="edge3" class="edge"><title>dir_06f320542461db1a542778f2d704f091&#45;&gt;dir_563c824e39d5ea58ac78a93bd0a815cc</title>
<path fill="none" stroke="black" d="M79.1011,-143.697C75.0032,-135.728 70.0512,-126.1 65.5073,-117.264"/>
<polygon fill="black" stroke="black" points="68.4826,-115.396 60.7965,-108.104 62.2575,-118.598 68.4826,-115.396"/>
<g id="a_edge3&#45;headlabel"><a xlink:href="dir_000002_000003.html" target="_top" xlink:title="2">
<text text-anchor="middle" x="72.6514" y="-114.795" font-family="Helvetica,sans-Serif" font-size="10.00">2</text>
</a>
</g>
</g>
<!-- dir_1dd79e68875984ab6bfd40c664984d26 -->
<g id="node3" class="node"><title>dir_1dd79e68875984ab6bfd40c664984d26</title>
<g id="a_node3"><a xlink:href="dir_1dd79e68875984ab6bfd40c664984d26.html" target="_top" xlink:title="UI">
<polygon fill="white" stroke="black" points="152,-108 98,-108 98,-72 152,-72 152,-108"/>
<text text-anchor="middle" x="125" y="-87.5" font-family="Helvetica,sans-Serif" font-size="10.00">UI</text>
</a>
</g>
</g>
<!-- dir_06f320542461db1a542778f2d704f091&#45;&gt;dir_1dd79e68875984ab6bfd40c664984d26 -->
<g id="edge2" class="edge"><title>dir_06f320542461db1a542778f2d704f091&#45;&gt;dir_1dd79e68875984ab6bfd40c664984d26</title>
<path fill="none" stroke="black" d="M97.1461,-143.697C101.403,-135.644 106.556,-125.894 111.266,-116.982"/>
<polygon fill="black" stroke="black" points="114.38,-118.581 115.959,-108.104 108.192,-115.31 114.38,-118.581"/>
<g id="a_edge2&#45;headlabel"><a xlink:href="dir_000002_000004.html" target="_top" xlink:title="2">
<text text-anchor="middle" x="115.211" y="-120.586" font-family="Helvetica,sans-Serif" font-size="10.00">2</text>
</a>
</g>
</g>
<!-- dir_68267d1309a1af8e8297ef4c3efbcdba -->
<g id="node4" class="node"><title>dir_68267d1309a1af8e8297ef4c3efbcdba</title>
<g id="a_node4"><a xlink:href="dir_68267d1309a1af8e8297ef4c3efbcdba.html" target="_top" xlink:title="src">
<polygon fill="white" stroke="red" points="79,-36 25,-36 25,-0 79,-0 79,-36"/>
<text text-anchor="middle" x="52" y="-15.5" font-family="Helvetica,sans-Serif" font-size="10.00">src</text>
</a>
</g>
</g>
<!-- dir_563c824e39d5ea58ac78a93bd0a815cc&#45;&gt;dir_68267d1309a1af8e8297ef4c3efbcdba -->
<g id="edge1" class="edge"><title>dir_563c824e39d5ea58ac78a93bd0a815cc&#45;&gt;dir_68267d1309a1af8e8297ef4c3efbcdba</title>
<path fill="none" stroke="black" d="M52,-71.6966C52,-63.9827 52,-54.7125 52,-46.1124"/>
<polygon fill="black" stroke="black" points="55.5001,-46.1043 52,-36.1043 48.5001,-46.1044 55.5001,-46.1043"/>
<g id="a_edge1&#45;headlabel"><a xlink:href="dir_000003_000019.html" target="_top" xlink:title="12">
<text text-anchor="middle" x="58.3393" y="-47.199" font-family="Helvetica,sans-Serif" font-size="10.00">12</text>
</a>
</g>
</g>
</g>
</svg>
