<?xml version="1.0" encoding="UTF-8" standalone="no"?>
<!DOCTYPE svg PUBLIC "-//W3C//DTD SVG 1.1//EN"
 "http://www.w3.org/Graphics/SVG/1.1/DTD/svg11.dtd">
<!-- Generated by graphviz version 2.38.0 (20140413.2041)
 -->
<!-- Title: /home/travis/build/STORM&#45;IRIT/Radium&#45;Engine/src/Engine/Managers/LightManager Pages: 1 -->
<svg width="328pt" height="439pt"
 viewBox="0.00 0.00 328.13 439.00" xmlns="http://www.w3.org/2000/svg" xmlns:xlink="http://www.w3.org/1999/xlink">
<g id="graph0" class="graph" transform="scale(1 1) rotate(0) translate(4 435)">
<title>/home/travis/build/STORM&#45;IRIT/Radium&#45;Engine/src/Engine/Managers/LightManager</title>
<polygon fill="white" stroke="none" points="-4,4 -4,-435 324.134,-435 324.134,4 -4,4"/>
<g id="clust1" class="cluster"><title>clusterdir_06113b60808b1bbb52a01dfd2c3a8657</title>
<g id="a_clust1"><a xlink:href="dir_06113b60808b1bbb52a01dfd2c3a8657.html" target="_top" xlink:title="Managers">
<polygon fill="#ddddee" stroke="black" points="61.1342,-352 61.1342,-423 159.134,-423 159.134,-352 61.1342,-352"/>
<text text-anchor="middle" x="110.134" y="-411" font-family="Helvetica,sans-Serif" font-size="10.00">Managers</text>
</a>
</g>
</g>
<!-- dir_aea4ed3fab8ecf600219166580b8618e -->
<g id="node1" class="node"><title>dir_aea4ed3fab8ecf600219166580b8618e</title>
<g id="a_node1"><a xlink:href="dir_aea4ed3fab8ecf600219166580b8618e.html" target="_top" xlink:title="LightManager">
<polygon fill="#eeeeff" stroke="black" points="151.134,-396 69.1342,-396 69.1342,-360 151.134,-360 151.134,-396"/>
<text text-anchor="middle" x="110.134" y="-375.5" font-family="Helvetica,sans-Serif" font-size="10.00">LightManager</text>
</a>
</g>
</g>
<!-- dir_a2f0e5642e47e7ed59fe0f0829eafb5f -->
<g id="node2" class="node"><title>dir_a2f0e5642e47e7ed59fe0f0829eafb5f</title>
<g id="a_node2"><a xlink:href="dir_a2f0e5642e47e7ed59fe0f0829eafb5f.html" target="_top" xlink:title="Core">
<polygon fill="white" stroke="red" points="230.134,-36 176.134,-36 176.134,-0 230.134,-0 230.134,-36"/>
<text text-anchor="middle" x="203.134" y="-15.5" font-family="Helvetica,sans-Serif" font-size="10.00">Core</text>
</a>
</g>
</g>
<!-- dir_aea4ed3fab8ecf600219166580b8618e&#45;&gt;dir_a2f0e5642e47e7ed59fe0f0829eafb5f -->
<g id="edge6" class="edge"><title>dir_aea4ed3fab8ecf600219166580b8618e&#45;&gt;dir_a2f0e5642e47e7ed59fe0f0829eafb5f</title>
<path fill="none" stroke="black" d="M84.813,-359.832C52.8915,-335.922 2.13421,-289.357 2.13421,-235 2.13421,-235 2.13421,-235 2.13421,-161 2.13421,-120.553 -6.40264,-101.626 21.1342,-72 58.4406,-31.8639 124.211,-21.5169 165.636,-19.1877"/>
<polygon fill="black" stroke="black" points="166.026,-22.6742 175.866,-18.7473 165.725,-15.6807 166.026,-22.6742"/>
<g id="a_edge6&#45;headlabel"><a xlink:href="dir_000036_000020.html" target="_top" xlink:title="4">
<text text-anchor="middle" x="162.557" y="-23.1654" font-family="Helvetica,sans-Serif" font-size="10.00">4</text>
</a>
</g>
</g>
<!-- dir_7205f054df4e14abb60715afe3e7e90c -->
<g id="node3" class="node"><title>dir_7205f054df4e14abb60715afe3e7e90c</title>
<g id="a_node3"><a xlink:href="dir_7205f054df4e14abb60715afe3e7e90c.html" target="_top" xlink:title="Entity">
<polygon fill="none" stroke="black" points="204.134,-252 150.134,-252 150.134,-216 204.134,-216 204.134,-252"/>
<text text-anchor="middle" x="177.134" y="-231.5" font-family="Helvetica,sans-Serif" font-size="10.00">Entity</text>
</a>
</g>
</g>
<!-- dir_aea4ed3fab8ecf600219166580b8618e&#45;&gt;dir_7205f054df4e14abb60715afe3e7e90c -->
<g id="edge7" class="edge"><title>dir_aea4ed3fab8ecf600219166580b8618e&#45;&gt;dir_7205f054df4e14abb60715afe3e7e90c</title>
<path fill="none" stroke="black" d="M118.216,-359.871C129.786,-335.35 151.168,-290.032 164.744,-261.259"/>
<polygon fill="black" stroke="black" points="167.922,-262.727 169.024,-252.189 161.591,-259.74 167.922,-262.727"/>
<g id="a_edge7&#45;headlabel"><a xlink:href="dir_000036_000030.html" target="_top" xlink:title="1">
<text text-anchor="middle" x="168.956" y="-264.689" font-family="Helvetica,sans-Serif" font-size="10.00">1</text>
</a>
</g>
</g>
<!-- dir_eecdbbfa89a6d9af25d920c499e6f44e -->
<g id="node4" class="node"><title>dir_eecdbbfa89a6d9af25d920c499e6f44e</title>
<g id="a_node4"><a xlink:href="dir_eecdbbfa89a6d9af25d920c499e6f44e.html" target="_top" xlink:title="System">
<polygon fill="none" stroke="black" points="194.134,-180 140.134,-180 140.134,-144 194.134,-144 194.134,-180"/>
<text text-anchor="middle" x="167.134" y="-159.5" font-family="Helvetica,sans-Serif" font-size="10.00">System</text>
</a>
</g>
</g>
<!-- dir_aea4ed3fab8ecf600219166580b8618e&#45;&gt;dir_eecdbbfa89a6d9af25d920c499e6f44e -->
<g id="edge8" class="edge"><title>dir_aea4ed3fab8ecf600219166580b8618e&#45;&gt;dir_eecdbbfa89a6d9af25d920c499e6f44e</title>
<path fill="none" stroke="black" d="M111.937,-359.697C115.388,-329.786 124.141,-266.744 141.134,-216 144.161,-206.962 148.42,-197.496 152.616,-189.106"/>
<polygon fill="black" stroke="black" points="155.754,-190.658 157.259,-180.17 149.542,-187.431 155.754,-190.658"/>
<g id="a_edge8&#45;headlabel"><a xlink:href="dir_000036_000050.html" target="_top" xlink:title="1">
<text text-anchor="middle" x="156.616" y="-192.657" font-family="Helvetica,sans-Serif" font-size="10.00">1</text>
</a>
</g>
</g>
<!-- dir_54018506bb725509c19b38b6d9bcf0f6 -->
<g id="node5" class="node"><title>dir_54018506bb725509c19b38b6d9bcf0f6</title>
<g id="a_node5"><a xlink:href="dir_54018506bb725509c19b38b6d9bcf0f6.html" target="_top" xlink:title="Renderer">
<polygon fill="white" stroke="red" points="239.634,-396 180.634,-396 180.634,-360 239.634,-360 239.634,-396"/>
<text text-anchor="middle" x="210.134" y="-375.5" font-family="Helvetica,sans-Serif" font-size="10.00">Renderer</text>
</a>
</g>
</g>
<!-- dir_aea4ed3fab8ecf600219166580b8618e&#45;&gt;dir_54018506bb725509c19b38b6d9bcf0f6 -->
<g id="edge9" class="edge"><title>dir_aea4ed3fab8ecf600219166580b8618e&#45;&gt;dir_54018506bb725509c19b38b6d9bcf0f6</title>
<path fill="none" stroke="black" d="M151.15,-378C157.349,-378 163.549,-378 169.748,-378"/>
<polygon fill="black" stroke="black" points="170.181,-381.5 180.181,-378 170.181,-374.5 170.181,-381.5"/>
<g id="a_edge9&#45;headlabel"><a xlink:href="dir_000036_000039.html" target="_top" xlink:title="5">
<text text-anchor="middle" x="166.587" y="-381.839" font-family="Helvetica,sans-Serif" font-size="10.00">5</text>
</a>
</g>
</g>
<!-- dir_5a1bd30bc9919aca01fcd3709dbd4eb3 -->
<g id="node6" class="node"><title>dir_5a1bd30bc9919aca01fcd3709dbd4eb3</title>
<g id="a_node6"><a xlink:href="dir_5a1bd30bc9919aca01fcd3709dbd4eb3.html" target="_top" xlink:title="SystemDisplay">
<polygon fill="none" stroke="black" points="254.134,-324 166.134,-324 166.134,-288 254.134,-288 254.134,-324"/>
<text text-anchor="middle" x="210.134" y="-303.5" font-family="Helvetica,sans-Serif" font-size="10.00">SystemDisplay</text>
</a>
</g>
</g>
<!-- dir_aea4ed3fab8ecf600219166580b8618e&#45;&gt;dir_5a1bd30bc9919aca01fcd3709dbd4eb3 -->
<g id="edge10" class="edge"><title>dir_aea4ed3fab8ecf600219166580b8618e&#45;&gt;dir_5a1bd30bc9919aca01fcd3709dbd4eb3</title>
<path fill="none" stroke="black" d="M134.597,-359.876C147.43,-350.893 163.331,-339.763 177.228,-330.034"/>
<polygon fill="black" stroke="black" points="179.392,-332.792 185.577,-324.19 175.378,-327.057 179.392,-332.792"/>
<g id="a_edge10&#45;headlabel"><a xlink:href="dir_000036_000038.html" target="_top" xlink:title="1">
<text text-anchor="middle" x="178.076" y="-334.679" font-family="Helvetica,sans-Serif" font-size="10.00">1</text>
</a>
</g>
</g>
<!-- dir_f60fd3cff26f751d5a136115ec0dccfa -->
<g id="node7" class="node"><title>dir_f60fd3cff26f751d5a136115ec0dccfa</title>
<g id="a_node7"><a xlink:href="dir_f60fd3cff26f751d5a136115ec0dccfa.html" target="_top" xlink:title="ComponentMessenger">
<polygon fill="none" stroke="black" points="155.634,-108 30.6342,-108 30.6342,-72 155.634,-72 155.634,-108"/>
<text text-anchor="middle" x="93.1342" y="-87.5" font-family="Helvetica,sans-Serif" font-size="10.00">ComponentMessenger</text>
</a>
</g>
</g>
<!-- dir_aea4ed3fab8ecf600219166580b8618e&#45;&gt;dir_f60fd3cff26f751d5a136115ec0dccfa -->
<g id="edge11" class="edge"><title>dir_aea4ed3fab8ecf600219166580b8618e&#45;&gt;dir_f60fd3cff26f751d5a136115ec0dccfa</title>
<path fill="none" stroke="black" d="M109.122,-359.966C106.288,-312.291 98.2571,-177.185 94.7766,-118.63"/>
<polygon fill="black" stroke="black" points="98.2502,-118.081 94.1629,-108.306 91.2625,-118.497 98.2502,-118.081"/>
<g id="a_edge11&#45;headlabel"><a xlink:href="dir_000036_000034.html" target="_top" xlink:title="1">
<text text-anchor="middle" x="101.298" y="-119.001" font-family="Helvetica,sans-Serif" font-size="10.00">1</text>
</a>
</g>
</g>
<!-- dir_7205f054df4e14abb60715afe3e7e90c&#45;&gt;dir_a2f0e5642e47e7ed59fe0f0829eafb5f -->
<g id="edge1" class="edge"><title>dir_7205f054df4e14abb60715afe3e7e90c&#45;&gt;dir_a2f0e5642e47e7ed59fe0f0829eafb5f</title>
<path fill="none" stroke="black" d="M188.18,-215.611C193.871,-205.615 200.215,-192.579 203.134,-180 213.807,-134.011 210.396,-78.6209 206.84,-46.2556"/>
<polygon fill="black" stroke="black" points="210.302,-45.7273 205.649,-36.209 203.351,-46.5517 210.302,-45.7273"/>
<g id="a_edge1&#45;headlabel"><a xlink:href="dir_000030_000020.html" target="_top" xlink:title="2">
<text text-anchor="middle" x="213.545" y="-46.4625" font-family="Helvetica,sans-Serif" font-size="10.00">2</text>
</a>
</g>
</g>
<!-- dir_7205f054df4e14abb60715afe3e7e90c&#45;&gt;dir_eecdbbfa89a6d9af25d920c499e6f44e -->
<g id="edge2" class="edge"><title>dir_7205f054df4e14abb60715afe3e7e90c&#45;&gt;dir_eecdbbfa89a6d9af25d920c499e6f44e</title>
<path fill="none" stroke="black" d="M168.747,-215.697C166.849,-207.983 165.298,-198.712 164.412,-190.112"/>
<polygon fill="black" stroke="black" points="167.9,-189.823 163.683,-180.104 160.919,-190.332 167.9,-189.823"/>
<g id="a_edge2&#45;headlabel"><a xlink:href="dir_000030_000050.html" target="_top" xlink:title="1">
<text text-anchor="middle" x="170.993" y="-190.702" font-family="Helvetica,sans-Serif" font-size="10.00">1</text>
</a>
</g>
</g>
<!-- dir_eecdbbfa89a6d9af25d920c499e6f44e&#45;&gt;dir_a2f0e5642e47e7ed59fe0f0829eafb5f -->
<g id="edge3" class="edge"><title>dir_eecdbbfa89a6d9af25d920c499e6f44e&#45;&gt;dir_a2f0e5642e47e7ed59fe0f0829eafb5f</title>
<path fill="none" stroke="black" d="M171.477,-143.871C177.639,-119.564 188.983,-74.8187 196.286,-46.0132"/>
<polygon fill="black" stroke="black" points="199.712,-46.7427 198.776,-36.1893 192.926,-45.0225 199.712,-46.7427"/>
<g id="a_edge3&#45;headlabel"><a xlink:href="dir_000050_000020.html" target="_top" xlink:title="4">
<text text-anchor="middle" x="201.58" y="-48.4248" font-family="Helvetica,sans-Serif" font-size="10.00">4</text>
</a>
</g>
</g>
<!-- dir_eecdbbfa89a6d9af25d920c499e6f44e&#45;&gt;dir_7205f054df4e14abb60715afe3e7e90c -->
<g id="edge4" class="edge"><title>dir_eecdbbfa89a6d9af25d920c499e6f44e&#45;&gt;dir_7205f054df4e14abb60715afe3e7e90c</title>
<path fill="none" stroke="black" d="M175.473,-180.104C177.376,-187.791 178.936,-197.054 179.833,-205.665"/>
<polygon fill="black" stroke="black" points="176.347,-205.983 180.578,-215.697 183.328,-205.465 176.347,-205.983"/>
<g id="a_edge4&#45;headlabel"><a xlink:href="dir_000050_000030.html" target="_top" xlink:title="2">
<text text-anchor="middle" x="173.25" y="-200.109" font-family="Helvetica,sans-Serif" font-size="10.00">2</text>
</a>
</g>
</g>
<!-- dir_eecdbbfa89a6d9af25d920c499e6f44e&#45;&gt;dir_f60fd3cff26f751d5a136115ec0dccfa -->
<g id="edge5" class="edge"><title>dir_eecdbbfa89a6d9af25d920c499e6f44e&#45;&gt;dir_f60fd3cff26f751d5a136115ec0dccfa</title>
<path fill="none" stroke="black" d="M148.842,-143.697C139.702,-135.05 128.494,-124.449 118.534,-115.027"/>
<polygon fill="black" stroke="black" points="120.886,-112.434 111.216,-108.104 116.075,-117.519 120.886,-112.434"/>
<g id="a_edge5&#45;headlabel"><a xlink:href="dir_000050_000034.html" target="_top" xlink:title="1">
<text text-anchor="middle" x="125.448" y="-110.341" font-family="Helvetica,sans-Serif" font-size="10.00">1</text>
</a>
</g>
</g>
<!-- dir_54018506bb725509c19b38b6d9bcf0f6&#45;&gt;dir_aea4ed3fab8ecf600219166580b8618e -->
<g id="edge14" class="edge"><title>dir_54018506bb725509c19b38b6d9bcf0f6&#45;&gt;dir_aea4ed3fab8ecf600219166580b8618e</title>
<path fill="none" stroke="black" d="M180.181,-378C173.982,-378 167.782,-378 161.583,-378"/>
<polygon fill="black" stroke="black" points="161.15,-374.5 151.15,-378 161.15,-381.5 161.15,-374.5"/>
<g id="a_edge14&#45;headlabel"><a xlink:href="dir_000039_000036.html" target="_top" xlink:title="2">
<text text-anchor="middle" x="164.744" y="-369.161" font-family="Helvetica,sans-Serif" font-size="10.00">2</text>
</a>
</g>
</g>
<!-- dir_54018506bb725509c19b38b6d9bcf0f6&#45;&gt;dir_a2f0e5642e47e7ed59fe0f0829eafb5f -->
<g id="edge12" class="edge"><title>dir_54018506bb725509c19b38b6d9bcf0f6&#45;&gt;dir_a2f0e5642e47e7ed59fe0f0829eafb5f</title>
<path fill="none" stroke="black" d="M239.11,-359.901C252.913,-350.639 268.833,-338.189 280.134,-324 307.152,-290.077 320.134,-278.367 320.134,-235 320.134,-235 320.134,-235 320.134,-161 320.134,-109.172 273.137,-66.0006 238.715,-41.3312"/>
<polygon fill="black" stroke="black" points="240.48,-38.2958 230.27,-35.4639 236.486,-44.0444 240.48,-38.2958"/>
<g id="a_edge12&#45;headlabel"><a xlink:href="dir_000039_000020.html" target="_top" xlink:title="54">
<text text-anchor="middle" x="245.052" y="-35.5152" font-family="Helvetica,sans-Serif" font-size="10.00">54</text>
</a>
</g>
</g>
<!-- dir_54018506bb725509c19b38b6d9bcf0f6&#45;&gt;dir_7205f054df4e14abb60715afe3e7e90c -->
<g id="edge13" class="edge"><title>dir_54018506bb725509c19b38b6d9bcf0f6&#45;&gt;dir_7205f054df4e14abb60715afe3e7e90c</title>
<path fill="none" stroke="black" d="M234.611,-359.768C245.538,-350.555 257.258,-338.186 263.134,-324 269.257,-309.218 270.935,-301.97 263.134,-288 252.504,-268.962 231.915,-255.915 213.547,-247.53"/>
<polygon fill="black" stroke="black" points="214.782,-244.252 204.209,-243.564 212.045,-250.695 214.782,-244.252"/>
<g id="a_edge13&#45;headlabel"><a xlink:href="dir_000039_000030.html" target="_top" xlink:title="3">
<text text-anchor="middle" x="219.2" y="-240.544" font-family="Helvetica,sans-Serif" font-size="10.00">3</text>
</a>
</g>
</g>
<!-- dir_54018506bb725509c19b38b6d9bcf0f6&#45;&gt;dir_5a1bd30bc9919aca01fcd3709dbd4eb3 -->
<g id="edge15" class="edge"><title>dir_54018506bb725509c19b38b6d9bcf0f6&#45;&gt;dir_5a1bd30bc9919aca01fcd3709dbd4eb3</title>
<path fill="none" stroke="black" d="M204.218,-359.697C203.423,-351.983 203.196,-342.712 203.539,-334.112"/>
<polygon fill="black" stroke="black" points="207.033,-334.324 204.239,-324.104 200.05,-333.836 207.033,-334.324"/>
<g id="a_edge15&#45;headlabel"><a xlink:href="dir_000039_000038.html" target="_top" xlink:title="1">
<text text-anchor="middle" x="209.614" y="-335.608" font-family="Helvetica,sans-Serif" font-size="10.00">1</text>
</a>
</g>
</g>
<!-- dir_5a1bd30bc9919aca01fcd3709dbd4eb3&#45;&gt;dir_a2f0e5642e47e7ed59fe0f0829eafb5f -->
<g id="edge16" class="edge"><title>dir_5a1bd30bc9919aca01fcd3709dbd4eb3&#45;&gt;dir_a2f0e5642e47e7ed59fe0f0829eafb5f</title>
<path fill="none" stroke="black" d="M214.033,-287.858C222.238,-249.042 239.331,-151.611 224.134,-72 222.427,-63.0559 219.234,-53.6954 215.845,-45.373"/>
<polygon fill="black" stroke="black" points="219.042,-43.9489 211.853,-36.1671 212.62,-46.7341 219.042,-43.9489"/>
<g id="a_edge16&#45;headlabel"><a xlink:href="dir_000038_000020.html" target="_top" xlink:title="2">
<text text-anchor="middle" x="223.077" y="-43.6171" font-family="Helvetica,sans-Serif" font-size="10.00">2</text>
</a>
</g>
</g>
<!-- dir_5a1bd30bc9919aca01fcd3709dbd4eb3&#45;&gt;dir_7205f054df4e14abb60715afe3e7e90c -->
<g id="edge17" class="edge"><title>dir_5a1bd30bc9919aca01fcd3709dbd4eb3&#45;&gt;dir_7205f054df4e14abb60715afe3e7e90c</title>
<path fill="none" stroke="black" d="M201.977,-287.697C198.22,-279.728 193.681,-270.1 189.516,-261.264"/>
<polygon fill="black" stroke="black" points="192.628,-259.657 185.198,-252.104 186.296,-262.642 192.628,-259.657"/>
<g id="a_edge17&#45;headlabel"><a xlink:href="dir_000038_000030.html" target="_top" xlink:title="1">
<text text-anchor="middle" x="196.729" y="-259.198" font-family="Helvetica,sans-Serif" font-size="10.00">1</text>
</a>
</g>
</g>
<!-- dir_5a1bd30bc9919aca01fcd3709dbd4eb3&#45;&gt;dir_54018506bb725509c19b38b6d9bcf0f6 -->
<g id="edge18" class="edge"><title>dir_5a1bd30bc9919aca01fcd3709dbd4eb3&#45;&gt;dir_54018506bb725509c19b38b6d9bcf0f6</title>
<path fill="none" stroke="black" d="M216.029,-324.104C216.835,-331.791 217.071,-341.054 216.738,-349.665"/>
<polygon fill="black" stroke="black" points="213.243,-349.48 216.05,-359.697 220.226,-349.96 213.243,-349.48"/>
<g id="a_edge18&#45;headlabel"><a xlink:href="dir_000038_000039.html" target="_top" xlink:title="2">
<text text-anchor="middle" x="210.656" y="-343.2" font-family="Helvetica,sans-Serif" font-size="10.00">2</text>
</a>
</g>
</g>
<!-- dir_f60fd3cff26f751d5a136115ec0dccfa&#45;&gt;dir_a2f0e5642e47e7ed59fe0f0829eafb5f -->
<g id="edge19" class="edge"><title>dir_f60fd3cff26f751d5a136115ec0dccfa&#45;&gt;dir_a2f0e5642e47e7ed59fe0f0829eafb5f</title>
<path fill="none" stroke="black" d="M120.043,-71.8761C134.293,-62.8083 151.981,-51.5523 167.37,-41.7592"/>
<polygon fill="black" stroke="black" points="169.564,-44.5114 176.122,-36.1898 165.806,-38.6057 169.564,-44.5114"/>
<g id="a_edge19&#45;headlabel"><a xlink:href="dir_000034_000020.html" target="_top" xlink:title="2">
<text text-anchor="middle" x="168.056" y="-46.3366" font-family="Helvetica,sans-Serif" font-size="10.00">2</text>
</a>
</g>
</g>
</g>
</svg>
