<?xml version="1.0" encoding="UTF-8" standalone="no"?>
<!DOCTYPE svg PUBLIC "-//W3C//DTD SVG 1.1//EN"
 "http://www.w3.org/Graphics/SVG/1.1/DTD/svg11.dtd">
<!-- Generated by graphviz version 2.38.0 (20140413.2041)
 -->
<!-- Title: /home/travis/build/STORM&#45;IRIT/Radium&#45;Engine/src/GuiBase Pages: 1 -->
<svg width="479pt" height="375pt"
 viewBox="0.00 0.00 478.62 375.00" xmlns="http://www.w3.org/2000/svg" xmlns:xlink="http://www.w3.org/1999/xlink">
<g id="graph0" class="graph" transform="scale(1 1) rotate(0) translate(4 371)">
<title>/home/travis/build/STORM&#45;IRIT/Radium&#45;Engine/src/GuiBase</title>
<polygon fill="white" stroke="none" points="-4,4 -4,-371 474.617,-371 474.617,4 -4,4"/>
<g id="clust1" class="cluster"><title>clusterdir_68267d1309a1af8e8297ef4c3efbcdba</title>
<g id="a_clust1"><a xlink:href="dir_68267d1309a1af8e8297ef4c3efbcdba.html" target="_top" xlink:title="src">
<polygon fill="#ddddee" stroke="black" points="83.2618,-128 83.2618,-359 351.262,-359 351.262,-128 83.2618,-128"/>
<text text-anchor="middle" x="217.262" y="-347" font-family="Helvetica,sans-Serif" font-size="10.00">src</text>
</a>
</g>
</g>
<g id="clust2" class="cluster"><title>clusterdir_cb59203ea3f84fc4d67c89730003fed4</title>
<g id="a_clust2"><a xlink:href="dir_cb59203ea3f84fc4d67c89730003fed4.html" target="_top">
<polygon fill="#eeeeff" stroke="black" points="91.2618,-136 91.2618,-332 343.262,-332 343.262,-136 91.2618,-136"/>
</a>
</g>
</g>
<!-- dir_cb59203ea3f84fc4d67c89730003fed4 -->
<g id="node1" class="node"><title>dir_cb59203ea3f84fc4d67c89730003fed4</title>
<text text-anchor="middle" x="185.262" y="-303.5" font-family="Helvetica,sans-Serif" font-size="10.00">GuiBase</text>
</g>
<!-- dir_fde802d0fe976469e8430b6df93e1b9e -->
<g id="node4" class="node"><title>dir_fde802d0fe976469e8430b6df93e1b9e</title>
<g id="a_node4"><a xlink:href="dir_fde802d0fe976469e8430b6df93e1b9e.html" target="_top" xlink:title="TimerData">
<polygon fill="white" stroke="black" points="168.762,-252 101.762,-252 101.762,-216 168.762,-216 168.762,-252"/>
<text text-anchor="middle" x="135.262" y="-231.5" font-family="Helvetica,sans-Serif" font-size="10.00">TimerData</text>
</a>
</g>
</g>
<!-- dir_cb59203ea3f84fc4d67c89730003fed4&#45;&gt;dir_fde802d0fe976469e8430b6df93e1b9e -->
<g id="edge11" class="edge"><title>dir_cb59203ea3f84fc4d67c89730003fed4&#45;&gt;dir_fde802d0fe976469e8430b6df93e1b9e</title>
<path fill="none" stroke="black" d="M172.902,-287.697C167.029,-279.474 159.893,-269.483 153.419,-260.421"/>
<polygon fill="black" stroke="black" points="156.14,-258.207 147.479,-252.104 150.443,-262.276 156.14,-258.207"/>
<g id="a_edge11&#45;headlabel"><a xlink:href="dir_000051_000054.html" target="_top" xlink:title="1">
<text text-anchor="middle" x="160.539" y="-256.982" font-family="Helvetica,sans-Serif" font-size="10.00">1</text>
</a>
</g>
</g>
<!-- dir_796a1a15fb9cc23998586ef6281d84e1 -->
<g id="node8" class="node"><title>dir_796a1a15fb9cc23998586ef6281d84e1</title>
<g id="a_node8"><a xlink:href="dir_796a1a15fb9cc23998586ef6281d84e1.html" target="_top" xlink:title="Viewer">
<polygon fill="white" stroke="red" points="241.262,-252 187.262,-252 187.262,-216 241.262,-216 241.262,-252"/>
<text text-anchor="middle" x="214.262" y="-231.5" font-family="Helvetica,sans-Serif" font-size="10.00">Viewer</text>
</a>
</g>
</g>
<!-- dir_cb59203ea3f84fc4d67c89730003fed4&#45;&gt;dir_796a1a15fb9cc23998586ef6281d84e1 -->
<g id="edge10" class="edge"><title>dir_cb59203ea3f84fc4d67c89730003fed4&#45;&gt;dir_796a1a15fb9cc23998586ef6281d84e1</title>
<path fill="none" stroke="black" d="M192.43,-287.697C195.696,-279.813 199.636,-270.304 203.264,-261.546"/>
<polygon fill="black" stroke="black" points="206.582,-262.683 207.176,-252.104 200.115,-260.003 206.582,-262.683"/>
<g id="a_edge10&#45;headlabel"><a xlink:href="dir_000051_000058.html" target="_top" xlink:title="3">
<text text-anchor="middle" x="207.829" y="-264.59" font-family="Helvetica,sans-Serif" font-size="10.00">3</text>
</a>
</g>
</g>
<!-- dir_1b07f77798358fd74e92420363fd4633 -->
<g id="node11" class="node"><title>dir_1b07f77798358fd74e92420363fd4633</title>
<g id="a_node11"><a xlink:href="dir_1b07f77798358fd74e92420363fd4633.html" target="_top" xlink:title="PluginBase">
<polygon fill="none" stroke="black" points="428.762,-252 359.762,-252 359.762,-216 428.762,-216 428.762,-252"/>
<text text-anchor="middle" x="394.262" y="-231.5" font-family="Helvetica,sans-Serif" font-size="10.00">PluginBase</text>
</a>
</g>
</g>
<!-- dir_cb59203ea3f84fc4d67c89730003fed4&#45;&gt;dir_1b07f77798358fd74e92420363fd4633 -->
<g id="edge12" class="edge"><title>dir_cb59203ea3f84fc4d67c89730003fed4&#45;&gt;dir_1b07f77798358fd74e92420363fd4633</title>
<path fill="none" stroke="black" d="M213.359,-291.562C216.339,-290.296 219.346,-289.083 222.262,-288 276.459,-267.875 292.27,-269.842 347.262,-252 348.146,-251.713 349.039,-251.42 349.938,-251.123"/>
<polygon fill="black" stroke="black" points="351.364,-254.334 359.701,-247.796 349.106,-247.709 351.364,-254.334"/>
<g id="a_edge12&#45;headlabel"><a xlink:href="dir_000051_000065.html" target="_top" xlink:title="1">
<text text-anchor="middle" x="348.877" y="-255.681" font-family="Helvetica,sans-Serif" font-size="10.00">1</text>
</a>
</g>
</g>
<!-- dir_96ea24c08bff679823a21bf9a36ca41b -->
<g id="node2" class="node"><title>dir_96ea24c08bff679823a21bf9a36ca41b</title>
<g id="a_node2"><a xlink:href="dir_96ea24c08bff679823a21bf9a36ca41b.html" target="_top" xlink:title="Event">
<polygon fill="white" stroke="black" points="335.262,-180 281.262,-180 281.262,-144 335.262,-144 335.262,-180"/>
<text text-anchor="middle" x="308.262" y="-159.5" font-family="Helvetica,sans-Serif" font-size="10.00">Event</text>
</a>
</g>
</g>
<!-- dir_0a0d8c554334a5684cc8b98421956a17 -->
<g id="node3" class="node"><title>dir_0a0d8c554334a5684cc8b98421956a17</title>
<g id="a_node3"><a xlink:href="dir_0a0d8c554334a5684cc8b98421956a17.html" target="_top" xlink:title="SelectionManager">
<polygon fill="white" stroke="black" points="334.762,-324 231.762,-324 231.762,-288 334.762,-288 334.762,-324"/>
<text text-anchor="middle" x="283.262" y="-303.5" font-family="Helvetica,sans-Serif" font-size="10.00">SelectionManager</text>
</a>
</g>
</g>
<!-- dir_e89aeb6b59063c7bef233057991cda67 -->
<g id="node6" class="node"><title>dir_e89aeb6b59063c7bef233057991cda67</title>
<g id="a_node6"><a xlink:href="dir_e89aeb6b59063c7bef233057991cda67.html" target="_top" xlink:title="TreeModel">
<polygon fill="white" stroke="black" points="324.762,-252 259.762,-252 259.762,-216 324.762,-216 324.762,-252"/>
<text text-anchor="middle" x="292.262" y="-231.5" font-family="Helvetica,sans-Serif" font-size="10.00">TreeModel</text>
</a>
</g>
</g>
<!-- dir_0a0d8c554334a5684cc8b98421956a17&#45;&gt;dir_e89aeb6b59063c7bef233057991cda67 -->
<g id="edge18" class="edge"><title>dir_0a0d8c554334a5684cc8b98421956a17&#45;&gt;dir_e89aeb6b59063c7bef233057991cda67</title>
<path fill="none" stroke="black" d="M285.486,-287.697C286.478,-279.983 287.67,-270.712 288.776,-262.112"/>
<polygon fill="black" stroke="black" points="292.259,-262.469 290.063,-252.104 285.316,-261.576 292.259,-262.469"/>
<g id="a_edge18&#45;headlabel"><a xlink:href="dir_000053_000056.html" target="_top" xlink:title="1">
<text text-anchor="middle" x="294.617" y="-263.896" font-family="Helvetica,sans-Serif" font-size="10.00">1</text>
</a>
</g>
</g>
<!-- dir_a2f0e5642e47e7ed59fe0f0829eafb5f -->
<g id="node9" class="node"><title>dir_a2f0e5642e47e7ed59fe0f0829eafb5f</title>
<g id="a_node9"><a xlink:href="dir_a2f0e5642e47e7ed59fe0f0829eafb5f.html" target="_top" xlink:title="Core">
<polygon fill="white" stroke="red" points="153.262,-36 99.2618,-36 99.2618,-0 153.262,-0 153.262,-36"/>
<text text-anchor="middle" x="126.262" y="-15.5" font-family="Helvetica,sans-Serif" font-size="10.00">Core</text>
</a>
</g>
</g>
<!-- dir_0a0d8c554334a5684cc8b98421956a17&#45;&gt;dir_a2f0e5642e47e7ed59fe0f0829eafb5f -->
<g id="edge17" class="edge"><title>dir_0a0d8c554334a5684cc8b98421956a17&#45;&gt;dir_a2f0e5642e47e7ed59fe0f0829eafb5f</title>
<path fill="none" stroke="black" d="M334.774,-304.746C375.27,-301.481 429.348,-289.682 457.262,-252 467.857,-237.697 480.648,-172.66 456.262,-128 434.581,-88.2943 412.969,-89.5253 371.262,-72 301.178,-42.5509 212.665,-28.614 163.504,-22.7315"/>
<polygon fill="black" stroke="black" points="163.675,-19.2282 153.341,-21.5637 162.876,-26.1824 163.675,-19.2282"/>
<g id="a_edge17&#45;headlabel"><a xlink:href="dir_000053_000020.html" target="_top" xlink:title="1">
<text text-anchor="middle" x="167.57" y="-14.3177" font-family="Helvetica,sans-Serif" font-size="10.00">1</text>
</a>
</g>
</g>
<!-- dir_3072bc1f55ed1280fe4fbe6b21c78379 -->
<g id="node10" class="node"><title>dir_3072bc1f55ed1280fe4fbe6b21c78379</title>
<g id="a_node10"><a xlink:href="dir_3072bc1f55ed1280fe4fbe6b21c78379.html" target="_top" xlink:title="Engine">
<polygon fill="white" stroke="red" points="362.262,-108 308.262,-108 308.262,-72 362.262,-72 362.262,-108"/>
<text text-anchor="middle" x="335.262" y="-87.5" font-family="Helvetica,sans-Serif" font-size="10.00">Engine</text>
</a>
</g>
</g>
<!-- dir_0a0d8c554334a5684cc8b98421956a17&#45;&gt;dir_3072bc1f55ed1280fe4fbe6b21c78379 -->
<g id="edge19" class="edge"><title>dir_0a0d8c554334a5684cc8b98421956a17&#45;&gt;dir_3072bc1f55ed1280fe4fbe6b21c78379</title>
<path fill="none" stroke="black" d="M334.929,-302.119C370.056,-297.146 414.19,-284.34 437.262,-252 449.872,-234.323 460.561,-164.559 434.262,-128 420.109,-108.326 394.207,-99.1044 372.446,-94.7862"/>
<polygon fill="black" stroke="black" points="372.93,-91.3181 362.483,-93.0815 371.749,-98.2178 372.93,-91.3181"/>
<g id="a_edge19&#45;headlabel"><a xlink:href="dir_000053_000028.html" target="_top" xlink:title="2">
<text text-anchor="middle" x="376.952" y="-86.6256" font-family="Helvetica,sans-Serif" font-size="10.00">2</text>
</a>
</g>
</g>
<!-- dir_fde802d0fe976469e8430b6df93e1b9e&#45;&gt;dir_a2f0e5642e47e7ed59fe0f0829eafb5f -->
<g id="edge13" class="edge"><title>dir_fde802d0fe976469e8430b6df93e1b9e&#45;&gt;dir_a2f0e5642e47e7ed59fe0f0829eafb5f</title>
<path fill="none" stroke="black" d="M101.575,-227.699C74.2,-221.424 37.2749,-208.034 19.2618,-180 -6.68546,-139.618 -6.04976,-112.784 19.2618,-72 34.4422,-47.5401 64.6383,-34.0214 89.0927,-26.7712"/>
<polygon fill="black" stroke="black" points="90.0922,-30.1265 98.8193,-24.1192 88.2508,-23.373 90.0922,-30.1265"/>
<g id="a_edge13&#45;headlabel"><a xlink:href="dir_000054_000020.html" target="_top" xlink:title="3">
<text text-anchor="middle" x="87.3711" y="-31.3113" font-family="Helvetica,sans-Serif" font-size="10.00">3</text>
</a>
</g>
</g>
<!-- dir_fde802d0fe976469e8430b6df93e1b9e&#45;&gt;dir_3072bc1f55ed1280fe4fbe6b21c78379 -->
<g id="edge14" class="edge"><title>dir_fde802d0fe976469e8430b6df93e1b9e&#45;&gt;dir_3072bc1f55ed1280fe4fbe6b21c78379</title>
<path fill="none" stroke="black" d="M168.879,-219.109C172.027,-217.991 175.189,-216.934 178.262,-216 250.493,-194.049 296.874,-238.767 344.262,-180 358.208,-162.705 353.756,-136.945 347.114,-117.583"/>
<polygon fill="black" stroke="black" points="350.344,-116.23 343.527,-108.12 343.799,-118.711 350.344,-116.23"/>
<g id="a_edge14&#45;headlabel"><a xlink:href="dir_000054_000028.html" target="_top" xlink:title="1">
<text text-anchor="middle" x="354.273" y="-116.085" font-family="Helvetica,sans-Serif" font-size="10.00">1</text>
</a>
</g>
</g>
<!-- dir_db76f3c94886d731af6b7e364cea8b12 -->
<g id="node5" class="node"><title>dir_db76f3c94886d731af6b7e364cea8b12</title>
<g id="a_node5"><a xlink:href="dir_db76f3c94886d731af6b7e364cea8b12.html" target="_top" xlink:title="TransformEditor">
<polygon fill="white" stroke="black" points="263.262,-180 171.262,-180 171.262,-144 263.262,-144 263.262,-180"/>
<text text-anchor="middle" x="217.262" y="-159.5" font-family="Helvetica,sans-Serif" font-size="10.00">TransformEditor</text>
</a>
</g>
</g>
<!-- dir_db76f3c94886d731af6b7e364cea8b12&#45;&gt;dir_a2f0e5642e47e7ed59fe0f0829eafb5f -->
<g id="edge15" class="edge"><title>dir_db76f3c94886d731af6b7e364cea8b12&#45;&gt;dir_a2f0e5642e47e7ed59fe0f0829eafb5f</title>
<path fill="none" stroke="black" d="M206.285,-143.871C190.502,-119.244 161.276,-73.6377 142.85,-44.8845"/>
<polygon fill="black" stroke="black" points="145.62,-42.7203 137.277,-36.1893 139.726,-46.4972 145.62,-42.7203"/>
<g id="a_edge15&#45;headlabel"><a xlink:href="dir_000055_000020.html" target="_top" xlink:title="1">
<text text-anchor="middle" x="149.95" y="-41.7148" font-family="Helvetica,sans-Serif" font-size="10.00">1</text>
</a>
</g>
</g>
<!-- dir_db76f3c94886d731af6b7e364cea8b12&#45;&gt;dir_3072bc1f55ed1280fe4fbe6b21c78379 -->
<g id="edge16" class="edge"><title>dir_db76f3c94886d731af6b7e364cea8b12&#45;&gt;dir_3072bc1f55ed1280fe4fbe6b21c78379</title>
<path fill="none" stroke="black" d="M245.494,-143.991C254.08,-138.838 263.548,-133.173 272.262,-128 281.097,-122.755 290.648,-117.125 299.577,-111.879"/>
<polygon fill="black" stroke="black" points="301.398,-114.869 308.25,-106.789 297.854,-108.832 301.398,-114.869"/>
<g id="a_edge16&#45;headlabel"><a xlink:href="dir_000055_000028.html" target="_top" xlink:title="3">
<text text-anchor="middle" x="299.735" y="-116.637" font-family="Helvetica,sans-Serif" font-size="10.00">3</text>
</a>
</g>
</g>
<!-- dir_e89aeb6b59063c7bef233057991cda67&#45;&gt;dir_a2f0e5642e47e7ed59fe0f0829eafb5f -->
<g id="edge1" class="edge"><title>dir_e89aeb6b59063c7bef233057991cda67&#45;&gt;dir_a2f0e5642e47e7ed59fe0f0829eafb5f</title>
<path fill="none" stroke="black" d="M259.432,-219.12C256.355,-217.999 253.265,-216.939 250.262,-216 180.692,-194.254 135.795,-236.917 90.2618,-180 58.7266,-140.581 87.6779,-79.1262 108.776,-44.6624"/>
<polygon fill="black" stroke="black" points="111.802,-46.4257 114.196,-36.1047 105.888,-42.6806 111.802,-46.4257"/>
<g id="a_edge1&#45;headlabel"><a xlink:href="dir_000056_000020.html" target="_top" xlink:title="1">
<text text-anchor="middle" x="112.278" y="-48.4816" font-family="Helvetica,sans-Serif" font-size="10.00">1</text>
</a>
</g>
</g>
<!-- dir_e89aeb6b59063c7bef233057991cda67&#45;&gt;dir_3072bc1f55ed1280fe4fbe6b21c78379 -->
<g id="edge2" class="edge"><title>dir_e89aeb6b59063c7bef233057991cda67&#45;&gt;dir_3072bc1f55ed1280fe4fbe6b21c78379</title>
<path fill="none" stroke="black" d="M325.042,-223.366C357.828,-212.989 404.845,-195.831 415.262,-180 427.965,-160.693 427.71,-147.472 415.262,-128 405.706,-113.052 388.397,-104.055 372.318,-98.6839"/>
<polygon fill="black" stroke="black" points="373.128,-95.2735 362.546,-95.7877 371.139,-101.985 373.128,-95.2735"/>
<g id="a_edge2&#45;headlabel"><a xlink:href="dir_000056_000028.html" target="_top" xlink:title="5">
<text text-anchor="middle" x="377.381" y="-91.0726" font-family="Helvetica,sans-Serif" font-size="10.00">5</text>
</a>
</g>
</g>
<!-- dir_2cea9413440cac76c0711bd520597573 -->
<g id="node7" class="node"><title>dir_2cea9413440cac76c0711bd520597573</title>
<g id="a_node7"><a xlink:href="dir_2cea9413440cac76c0711bd520597573.html" target="_top" xlink:title="Utils">
<polygon fill="white" stroke="black" points="153.262,-180 99.2618,-180 99.2618,-144 153.262,-144 153.262,-180"/>
<text text-anchor="middle" x="126.262" y="-159.5" font-family="Helvetica,sans-Serif" font-size="10.00">Utils</text>
</a>
</g>
</g>
<!-- dir_2cea9413440cac76c0711bd520597573&#45;&gt;dir_a2f0e5642e47e7ed59fe0f0829eafb5f -->
<g id="edge8" class="edge"><title>dir_2cea9413440cac76c0711bd520597573&#45;&gt;dir_a2f0e5642e47e7ed59fe0f0829eafb5f</title>
<path fill="none" stroke="black" d="M126.262,-143.871C126.262,-119.67 126.262,-75.2108 126.262,-46.3932"/>
<polygon fill="black" stroke="black" points="129.762,-46.1892 126.262,-36.1893 122.762,-46.1893 129.762,-46.1892"/>
<g id="a_edge8&#45;headlabel"><a xlink:href="dir_000057_000020.html" target="_top" xlink:title="5">
<text text-anchor="middle" x="132.601" y="-47.2839" font-family="Helvetica,sans-Serif" font-size="10.00">5</text>
</a>
</g>
</g>
<!-- dir_2cea9413440cac76c0711bd520597573&#45;&gt;dir_3072bc1f55ed1280fe4fbe6b21c78379 -->
<g id="edge9" class="edge"><title>dir_2cea9413440cac76c0711bd520597573&#45;&gt;dir_3072bc1f55ed1280fe4fbe6b21c78379</title>
<path fill="none" stroke="black" d="M141.327,-143.847C147.3,-138.01 154.576,-131.965 162.262,-128 205.488,-105.697 261.439,-96.829 297.828,-93.3083"/>
<polygon fill="black" stroke="black" points="298.347,-96.7764 308.002,-92.4143 297.734,-89.8033 298.347,-96.7764"/>
<g id="a_edge9&#45;headlabel"><a xlink:href="dir_000057_000028.html" target="_top" xlink:title="1">
<text text-anchor="middle" x="295.014" y="-97.4193" font-family="Helvetica,sans-Serif" font-size="10.00">1</text>
</a>
</g>
</g>
<!-- dir_796a1a15fb9cc23998586ef6281d84e1&#45;&gt;dir_96ea24c08bff679823a21bf9a36ca41b -->
<g id="edge4" class="edge"><title>dir_796a1a15fb9cc23998586ef6281d84e1&#45;&gt;dir_96ea24c08bff679823a21bf9a36ca41b</title>
<path fill="none" stroke="black" d="M237.498,-215.697C249.45,-206.796 264.185,-195.823 277.109,-186.199"/>
<polygon fill="black" stroke="black" points="279.363,-188.884 285.293,-180.104 275.182,-183.27 279.363,-188.884"/>
<g id="a_edge4&#45;headlabel"><a xlink:href="dir_000058_000052.html" target="_top" xlink:title="2">
<text text-anchor="middle" x="278.176" y="-190.808" font-family="Helvetica,sans-Serif" font-size="10.00">2</text>
</a>
</g>
</g>
<!-- dir_796a1a15fb9cc23998586ef6281d84e1&#45;&gt;dir_db76f3c94886d731af6b7e364cea8b12 -->
<g id="edge6" class="edge"><title>dir_796a1a15fb9cc23998586ef6281d84e1&#45;&gt;dir_db76f3c94886d731af6b7e364cea8b12</title>
<path fill="none" stroke="black" d="M215.003,-215.697C215.334,-207.983 215.731,-198.712 216.1,-190.112"/>
<polygon fill="black" stroke="black" points="219.597,-190.245 216.529,-180.104 212.604,-189.945 219.597,-190.245"/>
<g id="a_edge6&#45;headlabel"><a xlink:href="dir_000058_000055.html" target="_top" xlink:title="1">
<text text-anchor="middle" x="222.28" y="-191.458" font-family="Helvetica,sans-Serif" font-size="10.00">1</text>
</a>
</g>
</g>
<!-- dir_796a1a15fb9cc23998586ef6281d84e1&#45;&gt;dir_2cea9413440cac76c0711bd520597573 -->
<g id="edge5" class="edge"><title>dir_796a1a15fb9cc23998586ef6281d84e1&#45;&gt;dir_2cea9413440cac76c0711bd520597573</title>
<path fill="none" stroke="black" d="M192.509,-215.697C181.426,-206.881 167.788,-196.032 155.772,-186.474"/>
<polygon fill="black" stroke="black" points="157.769,-183.59 147.764,-180.104 153.412,-189.069 157.769,-183.59"/>
<g id="a_edge5&#45;headlabel"><a xlink:href="dir_000058_000057.html" target="_top" xlink:title="6">
<text text-anchor="middle" x="162.35" y="-181.106" font-family="Helvetica,sans-Serif" font-size="10.00">6</text>
</a>
</g>
</g>
<!-- dir_796a1a15fb9cc23998586ef6281d84e1&#45;&gt;dir_a2f0e5642e47e7ed59fe0f0829eafb5f -->
<g id="edge3" class="edge"><title>dir_796a1a15fb9cc23998586ef6281d84e1&#45;&gt;dir_a2f0e5642e47e7ed59fe0f0829eafb5f</title>
<path fill="none" stroke="black" d="M186.963,-219.943C183.721,-218.546 180.436,-217.199 177.262,-216 125.171,-196.329 90.4998,-224.673 57.2618,-180 28.6091,-141.49 36.0426,-115.055 57.2618,-72 64.3691,-57.5787 77.4941,-45.9874 90.4043,-37.3659"/>
<polygon fill="black" stroke="black" points="92.5899,-40.1282 99.2311,-31.8733 88.8915,-34.1849 92.5899,-40.1282"/>
<g id="a_edge3&#45;headlabel"><a xlink:href="dir_000058_000020.html" target="_top" xlink:title="26">
<text text-anchor="middle" x="91.0379" y="-41.938" font-family="Helvetica,sans-Serif" font-size="10.00">26</text>
</a>
</g>
</g>
<!-- dir_796a1a15fb9cc23998586ef6281d84e1&#45;&gt;dir_3072bc1f55ed1280fe4fbe6b21c78379 -->
<g id="edge7" class="edge"><title>dir_796a1a15fb9cc23998586ef6281d84e1&#45;&gt;dir_3072bc1f55ed1280fe4fbe6b21c78379</title>
<path fill="none" stroke="black" d="M241.578,-219.53C244.482,-218.27 247.414,-217.068 250.262,-216 305.196,-195.404 341.883,-226.801 377.262,-180 391.198,-161.564 386.776,-149.062 377.262,-128 375.219,-123.478 372.32,-119.288 368.988,-115.477"/>
<polygon fill="black" stroke="black" points="371.233,-112.774 361.675,-108.203 366.297,-117.737 371.233,-112.774"/>
<g id="a_edge7&#45;headlabel"><a xlink:href="dir_000058_000028.html" target="_top" xlink:title="51">
<text text-anchor="middle" x="375.784" y="-110.796" font-family="Helvetica,sans-Serif" font-size="10.00">51</text>
</a>
</g>
</g>
<!-- dir_3072bc1f55ed1280fe4fbe6b21c78379&#45;&gt;dir_96ea24c08bff679823a21bf9a36ca41b -->
<g id="edge21" class="edge"><title>dir_3072bc1f55ed1280fe4fbe6b21c78379&#45;&gt;dir_96ea24c08bff679823a21bf9a36ca41b</title>
<path fill="none" stroke="black" d="M328.664,-108.104C325.634,-115.96 321.969,-125.462 318.587,-134.232"/>
<polygon fill="black" stroke="black" points="315.269,-133.107 314.936,-143.697 321.8,-135.626 315.269,-133.107"/>
<g id="a_edge21&#45;headlabel"><a xlink:href="dir_000028_000052.html" target="_top" xlink:title="1">
<text text-anchor="middle" x="313.914" y="-126.231" font-family="Helvetica,sans-Serif" font-size="10.00">1</text>
</a>
</g>
</g>
<!-- dir_3072bc1f55ed1280fe4fbe6b21c78379&#45;&gt;dir_a2f0e5642e47e7ed59fe0f0829eafb5f -->
<g id="edge20" class="edge"><title>dir_3072bc1f55ed1280fe4fbe6b21c78379&#45;&gt;dir_a2f0e5642e47e7ed59fe0f0829eafb5f</title>
<path fill="none" stroke="black" d="M307.939,-79.8487C270.935,-67.4552 204.761,-45.2916 163.31,-31.4086"/>
<polygon fill="black" stroke="black" points="164.185,-28.0107 153.592,-28.1535 161.962,-34.6483 164.185,-28.0107"/>
<g id="a_edge20&#45;headlabel"><a xlink:href="dir_000028_000020.html" target="_top" xlink:title="90">
<text text-anchor="middle" x="168.496" y="-23.9599" font-family="Helvetica,sans-Serif" font-size="10.00">90</text>
</a>
</g>
</g>
</g>
</svg>
