<?xml version="1.0" encoding="UTF-8" standalone="no"?>
<!DOCTYPE svg PUBLIC "-//W3C//DTD SVG 1.1//EN"
 "http://www.w3.org/Graphics/SVG/1.1/DTD/svg11.dtd">
<!-- Generated by graphviz version 2.38.0 (20140413.2041)
 -->
<!-- Title: /home/travis/build/STORM&#45;IRIT/Radium&#45;Engine/src/Engine/Managers/CameraManager Pages: 1 -->
<svg width="277pt" height="439pt"
 viewBox="0.00 0.00 276.79 439.00" xmlns="http://www.w3.org/2000/svg" xmlns:xlink="http://www.w3.org/1999/xlink">
<g id="graph0" class="graph" transform="scale(1 1) rotate(0) translate(4 435)">
<title>/home/travis/build/STORM&#45;IRIT/Radium&#45;Engine/src/Engine/Managers/CameraManager</title>
<polygon fill="white" stroke="none" points="-4,4 -4,-435 272.793,-435 272.793,4 -4,4"/>
<g id="clust1" class="cluster"><title>clusterdir_06113b60808b1bbb52a01dfd2c3a8657</title>
<g id="a_clust1"><a xlink:href="dir_06113b60808b1bbb52a01dfd2c3a8657.html" target="_top" xlink:title="Managers">
<polygon fill="#ddddee" stroke="black" points="61.2929,-352 61.2929,-423 173.293,-423 173.293,-352 61.2929,-352"/>
<text text-anchor="middle" x="117.293" y="-411" font-family="Helvetica,sans-Serif" font-size="10.00">Managers</text>
</a>
</g>
</g>
<!-- dir_9c9d2b16f43d35e4f1c4dc94ebe4380d -->
<g id="node1" class="node"><title>dir_9c9d2b16f43d35e4f1c4dc94ebe4380d</title>
<g id="a_node1"><a xlink:href="dir_9c9d2b16f43d35e4f1c4dc94ebe4380d.html" target="_top" xlink:title="CameraManager">
<polygon fill="#eeeeff" stroke="black" points="165.793,-396 68.7929,-396 68.7929,-360 165.793,-360 165.793,-396"/>
<text text-anchor="middle" x="117.293" y="-375.5" font-family="Helvetica,sans-Serif" font-size="10.00">CameraManager</text>
</a>
</g>
</g>
<!-- dir_a2f0e5642e47e7ed59fe0f0829eafb5f -->
<g id="node2" class="node"><title>dir_a2f0e5642e47e7ed59fe0f0829eafb5f</title>
<g id="a_node2"><a xlink:href="dir_a2f0e5642e47e7ed59fe0f0829eafb5f.html" target="_top" xlink:title="Core">
<polygon fill="white" stroke="red" points="104.293,-36 50.2929,-36 50.2929,-0 104.293,-0 104.293,-36"/>
<text text-anchor="middle" x="77.2929" y="-15.5" font-family="Helvetica,sans-Serif" font-size="10.00">Core</text>
</a>
</g>
</g>
<!-- dir_9c9d2b16f43d35e4f1c4dc94ebe4380d&#45;&gt;dir_a2f0e5642e47e7ed59fe0f0829eafb5f -->
<g id="edge1" class="edge"><title>dir_9c9d2b16f43d35e4f1c4dc94ebe4380d&#45;&gt;dir_a2f0e5642e47e7ed59fe0f0829eafb5f</title>
<path fill="none" stroke="black" d="M68.6815,-360.415C50.9928,-352.087 32.3921,-340.233 20.2929,-324 -3.87884,-291.57 1.29295,-275.447 1.29295,-235 1.29295,-235 1.29295,-235 1.29295,-161 1.29295,-115.641 31.8095,-70.7492 54.168,-43.9457"/>
<polygon fill="black" stroke="black" points="56.9379,-46.0926 60.8021,-36.2276 51.6294,-41.5297 56.9379,-46.0926"/>
<g id="a_edge1&#45;headlabel"><a xlink:href="dir_000033_000020.html" target="_top" xlink:title="4">
<text text-anchor="middle" x="56.7479" y="-48.1693" font-family="Helvetica,sans-Serif" font-size="10.00">4</text>
</a>
</g>
</g>
<!-- dir_7205f054df4e14abb60715afe3e7e90c -->
<g id="node3" class="node"><title>dir_7205f054df4e14abb60715afe3e7e90c</title>
<g id="a_node3"><a xlink:href="dir_7205f054df4e14abb60715afe3e7e90c.html" target="_top" xlink:title="Entity">
<polygon fill="none" stroke="black" points="127.293,-252 73.2929,-252 73.2929,-216 127.293,-216 127.293,-252"/>
<text text-anchor="middle" x="100.293" y="-231.5" font-family="Helvetica,sans-Serif" font-size="10.00">Entity</text>
</a>
</g>
</g>
<!-- dir_9c9d2b16f43d35e4f1c4dc94ebe4380d&#45;&gt;dir_7205f054df4e14abb60715afe3e7e90c -->
<g id="edge2" class="edge"><title>dir_9c9d2b16f43d35e4f1c4dc94ebe4380d&#45;&gt;dir_7205f054df4e14abb60715afe3e7e90c</title>
<path fill="none" stroke="black" d="M115.242,-359.871C112.345,-335.67 107.022,-291.211 103.572,-262.393"/>
<polygon fill="black" stroke="black" points="107.015,-261.702 102.351,-252.189 100.064,-262.534 107.015,-261.702"/>
<g id="a_edge2&#45;headlabel"><a xlink:href="dir_000033_000030.html" target="_top" xlink:title="1">
<text text-anchor="middle" x="110.261" y="-262.434" font-family="Helvetica,sans-Serif" font-size="10.00">1</text>
</a>
</g>
</g>
<!-- dir_eecdbbfa89a6d9af25d920c499e6f44e -->
<g id="node4" class="node"><title>dir_eecdbbfa89a6d9af25d920c499e6f44e</title>
<g id="a_node4"><a xlink:href="dir_eecdbbfa89a6d9af25d920c499e6f44e.html" target="_top" xlink:title="System">
<polygon fill="none" stroke="black" points="159.293,-180 105.293,-180 105.293,-144 159.293,-144 159.293,-180"/>
<text text-anchor="middle" x="132.293" y="-159.5" font-family="Helvetica,sans-Serif" font-size="10.00">System</text>
</a>
</g>
</g>
<!-- dir_9c9d2b16f43d35e4f1c4dc94ebe4380d&#45;&gt;dir_eecdbbfa89a6d9af25d920c499e6f44e -->
<g id="edge3" class="edge"><title>dir_9c9d2b16f43d35e4f1c4dc94ebe4380d&#45;&gt;dir_eecdbbfa89a6d9af25d920c499e6f44e</title>
<path fill="none" stroke="black" d="M120.768,-359.704C125.403,-335.667 133.365,-290.742 136.293,-252 137.499,-236.045 136.895,-231.989 136.293,-216 135.979,-207.665 135.388,-198.608 134.755,-190.379"/>
<polygon fill="black" stroke="black" points="138.223,-189.848 133.918,-180.167 131.246,-190.42 138.223,-189.848"/>
<g id="a_edge3&#45;headlabel"><a xlink:href="dir_000033_000050.html" target="_top" xlink:title="1">
<text text-anchor="middle" x="141.346" y="-190.699" font-family="Helvetica,sans-Serif" font-size="10.00">1</text>
</a>
</g>
</g>
<!-- dir_54018506bb725509c19b38b6d9bcf0f6 -->
<g id="node5" class="node"><title>dir_54018506bb725509c19b38b6d9bcf0f6</title>
<g id="a_node5"><a xlink:href="dir_54018506bb725509c19b38b6d9bcf0f6.html" target="_top" xlink:title="Renderer">
<polygon fill="white" stroke="red" points="88.7929,-324 29.7929,-324 29.7929,-288 88.7929,-288 88.7929,-324"/>
<text text-anchor="middle" x="59.2929" y="-303.5" font-family="Helvetica,sans-Serif" font-size="10.00">Renderer</text>
</a>
</g>
</g>
<!-- dir_9c9d2b16f43d35e4f1c4dc94ebe4380d&#45;&gt;dir_54018506bb725509c19b38b6d9bcf0f6 -->
<g id="edge4" class="edge"><title>dir_9c9d2b16f43d35e4f1c4dc94ebe4380d&#45;&gt;dir_54018506bb725509c19b38b6d9bcf0f6</title>
<path fill="none" stroke="black" d="M102.956,-359.697C96.0024,-351.305 87.5228,-341.07 79.8923,-331.861"/>
<polygon fill="black" stroke="black" points="82.5404,-329.571 73.4651,-324.104 77.1502,-334.038 82.5404,-329.571"/>
<g id="a_edge4&#45;headlabel"><a xlink:href="dir_000033_000039.html" target="_top" xlink:title="2">
<text text-anchor="middle" x="87.0201" y="-328.028" font-family="Helvetica,sans-Serif" font-size="10.00">2</text>
</a>
</g>
</g>
<!-- dir_f60fd3cff26f751d5a136115ec0dccfa -->
<g id="node6" class="node"><title>dir_f60fd3cff26f751d5a136115ec0dccfa</title>
<g id="a_node6"><a xlink:href="dir_f60fd3cff26f751d5a136115ec0dccfa.html" target="_top" xlink:title="ComponentMessenger">
<polygon fill="none" stroke="black" points="268.793,-108 143.793,-108 143.793,-72 268.793,-72 268.793,-108"/>
<text text-anchor="middle" x="206.293" y="-87.5" font-family="Helvetica,sans-Serif" font-size="10.00">ComponentMessenger</text>
</a>
</g>
</g>
<!-- dir_9c9d2b16f43d35e4f1c4dc94ebe4380d&#45;&gt;dir_f60fd3cff26f751d5a136115ec0dccfa -->
<g id="edge5" class="edge"><title>dir_9c9d2b16f43d35e4f1c4dc94ebe4380d&#45;&gt;dir_f60fd3cff26f751d5a136115ec0dccfa</title>
<path fill="none" stroke="black" d="M127.249,-359.758C132.817,-349.594 139.567,-336.344 144.293,-324 172.013,-251.59 192.078,-161.984 201.053,-117.974"/>
<polygon fill="black" stroke="black" points="204.508,-118.547 203.045,-108.053 197.645,-117.169 204.508,-118.547"/>
<g id="a_edge5&#45;headlabel"><a xlink:href="dir_000033_000034.html" target="_top" xlink:title="1">
<text text-anchor="middle" x="206.584" y="-120.13" font-family="Helvetica,sans-Serif" font-size="10.00">1</text>
</a>
</g>
</g>
<!-- dir_7205f054df4e14abb60715afe3e7e90c&#45;&gt;dir_a2f0e5642e47e7ed59fe0f0829eafb5f -->
<g id="edge6" class="edge"><title>dir_7205f054df4e14abb60715afe3e7e90c&#45;&gt;dir_a2f0e5642e47e7ed59fe0f0829eafb5f</title>
<path fill="none" stroke="black" d="M98.4496,-215.849C94.4711,-178.832 85.0507,-91.1809 80.2363,-46.3863"/>
<polygon fill="black" stroke="black" points="83.6937,-45.8011 79.145,-36.2325 76.7338,-46.5492 83.6937,-45.8011"/>
<g id="a_edge6&#45;headlabel"><a xlink:href="dir_000030_000020.html" target="_top" xlink:title="2">
<text text-anchor="middle" x="86.9007" y="-46.5718" font-family="Helvetica,sans-Serif" font-size="10.00">2</text>
</a>
</g>
</g>
<!-- dir_7205f054df4e14abb60715afe3e7e90c&#45;&gt;dir_eecdbbfa89a6d9af25d920c499e6f44e -->
<g id="edge7" class="edge"><title>dir_7205f054df4e14abb60715afe3e7e90c&#45;&gt;dir_eecdbbfa89a6d9af25d920c499e6f44e</title>
<path fill="none" stroke="black" d="M102.287,-215.697C105.138,-207.644 109.384,-197.894 113.868,-188.982"/>
<polygon fill="black" stroke="black" points="116.984,-190.578 118.579,-180.104 110.8,-187.298 116.984,-190.578"/>
<g id="a_edge7&#45;headlabel"><a xlink:href="dir_000030_000050.html" target="_top" xlink:title="1">
<text text-anchor="middle" x="117.807" y="-192.584" font-family="Helvetica,sans-Serif" font-size="10.00">1</text>
</a>
</g>
</g>
<!-- dir_eecdbbfa89a6d9af25d920c499e6f44e&#45;&gt;dir_a2f0e5642e47e7ed59fe0f0829eafb5f -->
<g id="edge8" class="edge"><title>dir_eecdbbfa89a6d9af25d920c499e6f44e&#45;&gt;dir_a2f0e5642e47e7ed59fe0f0829eafb5f</title>
<path fill="none" stroke="black" d="M125.659,-143.871C116.202,-119.457 98.7607,-74.4258 87.6094,-45.6351"/>
<polygon fill="black" stroke="black" points="90.8263,-44.2501 83.9508,-36.1893 84.2989,-46.7784 90.8263,-44.2501"/>
<g id="a_edge8&#45;headlabel"><a xlink:href="dir_000050_000020.html" target="_top" xlink:title="4">
<text text-anchor="middle" x="94.7722" y="-44.0766" font-family="Helvetica,sans-Serif" font-size="10.00">4</text>
</a>
</g>
</g>
<!-- dir_eecdbbfa89a6d9af25d920c499e6f44e&#45;&gt;dir_7205f054df4e14abb60715afe3e7e90c -->
<g id="edge9" class="edge"><title>dir_eecdbbfa89a6d9af25d920c499e6f44e&#45;&gt;dir_7205f054df4e14abb60715afe3e7e90c</title>
<path fill="none" stroke="black" d="M130.369,-180.104C127.541,-188.129 123.308,-197.871 118.828,-206.797"/>
<polygon fill="black" stroke="black" points="115.703,-205.221 114.119,-215.697 121.89,-208.495 115.703,-205.221"/>
<g id="a_edge9&#45;headlabel"><a xlink:href="dir_000050_000030.html" target="_top" xlink:title="2">
<text text-anchor="middle" x="114.874" y="-198.216" font-family="Helvetica,sans-Serif" font-size="10.00">2</text>
</a>
</g>
</g>
<!-- dir_eecdbbfa89a6d9af25d920c499e6f44e&#45;&gt;dir_f60fd3cff26f751d5a136115ec0dccfa -->
<g id="edge10" class="edge"><title>dir_eecdbbfa89a6d9af25d920c499e6f44e&#45;&gt;dir_f60fd3cff26f751d5a136115ec0dccfa</title>
<path fill="none" stroke="black" d="M150.585,-143.697C159.726,-135.05 170.933,-124.449 180.893,-115.027"/>
<polygon fill="black" stroke="black" points="183.352,-117.519 188.211,-108.104 178.541,-112.434 183.352,-117.519"/>
<g id="a_edge10&#45;headlabel"><a xlink:href="dir_000050_000034.html" target="_top" xlink:title="1">
<text text-anchor="middle" x="182.692" y="-119.552" font-family="Helvetica,sans-Serif" font-size="10.00">1</text>
</a>
</g>
</g>
<!-- dir_54018506bb725509c19b38b6d9bcf0f6&#45;&gt;dir_a2f0e5642e47e7ed59fe0f0829eafb5f -->
<g id="edge11" class="edge"><title>dir_54018506bb725509c19b38b6d9bcf0f6&#45;&gt;dir_a2f0e5642e47e7ed59fe0f0829eafb5f</title>
<path fill="none" stroke="black" d="M60.202,-287.935C61.1682,-270.017 62.7644,-241.024 64.2929,-216 67.9924,-155.436 72.7918,-84.4313 75.4009,-46.3859"/>
<polygon fill="black" stroke="black" points="78.9122,-46.341 76.1064,-36.1245 71.9287,-45.8609 78.9122,-46.341"/>
<g id="a_edge11&#45;headlabel"><a xlink:href="dir_000039_000020.html" target="_top" xlink:title="54">
<text text-anchor="middle" x="81.4983" y="-47.6219" font-family="Helvetica,sans-Serif" font-size="10.00">54</text>
</a>
</g>
</g>
<!-- dir_54018506bb725509c19b38b6d9bcf0f6&#45;&gt;dir_7205f054df4e14abb60715afe3e7e90c -->
<g id="edge12" class="edge"><title>dir_54018506bb725509c19b38b6d9bcf0f6&#45;&gt;dir_7205f054df4e14abb60715afe3e7e90c</title>
<path fill="none" stroke="black" d="M69.4278,-287.697C74.1445,-279.644 79.8547,-269.894 85.0747,-260.982"/>
<polygon fill="black" stroke="black" points="88.2407,-262.502 90.2747,-252.104 82.2005,-258.964 88.2407,-262.502"/>
<g id="a_edge12&#45;headlabel"><a xlink:href="dir_000039_000030.html" target="_top" xlink:title="3">
<text text-anchor="middle" x="88.874" y="-264.539" font-family="Helvetica,sans-Serif" font-size="10.00">3</text>
</a>
</g>
</g>
<!-- dir_f60fd3cff26f751d5a136115ec0dccfa&#45;&gt;dir_a2f0e5642e47e7ed59fe0f0829eafb5f -->
<g id="edge13" class="edge"><title>dir_f60fd3cff26f751d5a136115ec0dccfa&#45;&gt;dir_a2f0e5642e47e7ed59fe0f0829eafb5f</title>
<path fill="none" stroke="black" d="M174.736,-71.8761C156.191,-61.8129 132.679,-49.0546 113.398,-38.5917"/>
<polygon fill="black" stroke="black" points="115.05,-35.5063 104.591,-33.8131 111.711,-41.6588 115.05,-35.5063"/>
<g id="a_edge13&#45;headlabel"><a xlink:href="dir_000034_000020.html" target="_top" xlink:title="2">
<text text-anchor="middle" x="119.564" y="-32.2251" font-family="Helvetica,sans-Serif" font-size="10.00">2</text>
</a>
</g>
</g>
</g>
</svg>
