<?xml version="1.0" encoding="UTF-8" standalone="no"?>
<!DOCTYPE svg PUBLIC "-//W3C//DTD SVG 1.1//EN"
 "http://www.w3.org/Graphics/SVG/1.1/DTD/svg11.dtd">
<!-- Generated by graphviz version 2.38.0 (20140413.2041)
 -->
<!-- Title: /home/travis/build/STORM&#45;IRIT/Radium&#45;Engine/src/Core/Containers Pages: 1 -->
<svg width="176pt" height="151pt"
 viewBox="0.00 0.00 175.50 151.00" xmlns="http://www.w3.org/2000/svg" xmlns:xlink="http://www.w3.org/1999/xlink">
<g id="graph0" class="graph" transform="scale(1 1) rotate(0) translate(4 147)">
<title>/home/travis/build/STORM&#45;IRIT/Radium&#45;Engine/src/Core/Containers</title>
<polygon fill="white" stroke="none" points="-4,4 -4,-147 171.5,-147 171.5,4 -4,4"/>
<g id="clust1" class="cluster"><title>clusterdir_a2f0e5642e47e7ed59fe0f0829eafb5f</title>
<g id="a_clust1"><a xlink:href="dir_a2f0e5642e47e7ed59fe0f0829eafb5f.html" target="_top" xlink:title="Core">
<polygon fill="#ddddee" stroke="black" points="75.5,-64 75.5,-135 159.5,-135 159.5,-64 75.5,-64"/>
<text text-anchor="middle" x="117.5" y="-123" font-family="Helvetica,sans-Serif" font-size="10.00">Core</text>
</a>
</g>
</g>
<!-- dir_1456dd235032e023892318efbecb420b -->
<g id="node1" class="node"><title>dir_1456dd235032e023892318efbecb420b</title>
<g id="a_node1"><a xlink:href="dir_1456dd235032e023892318efbecb420b.html" target="_top" xlink:title="Containers">
<polygon fill="#eeeeff" stroke="black" points="151.5,-108 83.5,-108 83.5,-72 151.5,-72 151.5,-108"/>
<text text-anchor="middle" x="117.5" y="-87.5" font-family="Helvetica,sans-Serif" font-size="10.00">Containers</text>
</a>
</g>
</g>
<!-- dir_a1f42069ba95676f6b9abbd5065ccf6d -->
<g id="node2" class="node"><title>dir_a1f42069ba95676f6b9abbd5065ccf6d</title>
<g id="a_node2"><a xlink:href="dir_a1f42069ba95676f6b9abbd5065ccf6d.html" target="_top" xlink:title="Math">
<polygon fill="none" stroke="black" points="65.5,-36 11.5,-36 11.5,-0 65.5,-0 65.5,-36"/>
<text text-anchor="middle" x="38.5" y="-15.5" font-family="Helvetica,sans-Serif" font-size="10.00">Math</text>
</a>
</g>
</g>
<!-- dir_1456dd235032e023892318efbecb420b&#45;&gt;dir_a1f42069ba95676f6b9abbd5065ccf6d -->
<g id="edge1" class="edge"><title>dir_1456dd235032e023892318efbecb420b&#45;&gt;dir_a1f42069ba95676f6b9abbd5065ccf6d</title>
<path fill="none" stroke="black" d="M97.9719,-71.6966C88.1182,-62.9655 76.0143,-52.2405 65.3039,-42.7503"/>
<polygon fill="black" stroke="black" points="67.6092,-40.1166 57.8035,-36.1043 62.9669,-45.3558 67.6092,-40.1166"/>
<g id="a_edge1&#45;headlabel"><a xlink:href="dir_000023_000025.html" target="_top" xlink:title="3">
<text text-anchor="middle" x="72.1825" y="-37.8755" font-family="Helvetica,sans-Serif" font-size="10.00">3</text>
</a>
</g>
</g>
<!-- dir_cb2b5dfd43482fb277f6333d539f1f06 -->
<g id="node3" class="node"><title>dir_cb2b5dfd43482fb277f6333d539f1f06</title>
<g id="a_node3"><a xlink:href="dir_cb2b5dfd43482fb277f6333d539f1f06.html" target="_top" xlink:title="Geometry">
<polygon fill="none" stroke="black" points="65,-108 0,-108 0,-72 65,-72 65,-108"/>
<text text-anchor="middle" x="32.5" y="-87.5" font-family="Helvetica,sans-Serif" font-size="10.00">Geometry</text>
</a>
</g>
</g>
<!-- dir_1456dd235032e023892318efbecb420b&#45;&gt;dir_cb2b5dfd43482fb277f6333d539f1f06 -->
<g id="edge2" class="edge"><title>dir_1456dd235032e023892318efbecb420b&#45;&gt;dir_cb2b5dfd43482fb277f6333d539f1f06</title>
<path fill="none" stroke="black" d="M83.4824,-90C80.6967,-90 77.9109,-90 75.1252,-90"/>
<polygon fill="black" stroke="black" points="75.0391,-86.5001 65.0391,-90 75.039,-93.5001 75.0391,-86.5001"/>
<g id="a_edge2&#45;headlabel"><a xlink:href="dir_000023_000024.html" target="_top" xlink:title="1">
<text text-anchor="middle" x="78.6337" y="-81.1607" font-family="Helvetica,sans-Serif" font-size="10.00">1</text>
</a>
</g>
</g>
<!-- dir_ff87cf903db18af0fdb6c342683ece25 -->
<g id="node4" class="node"><title>dir_ff87cf903db18af0fdb6c342683ece25</title>
<g id="a_node4"><a xlink:href="dir_ff87cf903db18af0fdb6c342683ece25.html" target="_top" xlink:title="Utils">
<polygon fill="none" stroke="black" points="140.5,-36 86.5,-36 86.5,-0 140.5,-0 140.5,-36"/>
<text text-anchor="middle" x="113.5" y="-15.5" font-family="Helvetica,sans-Serif" font-size="10.00">Utils</text>
</a>
</g>
</g>
<!-- dir_1456dd235032e023892318efbecb420b&#45;&gt;dir_ff87cf903db18af0fdb6c342683ece25 -->
<g id="edge3" class="edge"><title>dir_1456dd235032e023892318efbecb420b&#45;&gt;dir_ff87cf903db18af0fdb6c342683ece25</title>
<path fill="none" stroke="black" d="M110.596,-71.6966C109.359,-63.9827 108.603,-54.7125 108.454,-46.1124"/>
<polygon fill="black" stroke="black" points="111.954,-46.1484 108.582,-36.1043 104.954,-46.0586 111.954,-46.1484"/>
<g id="a_edge3&#45;headlabel"><a xlink:href="dir_000023_000027.html" target="_top" xlink:title="1">
<text text-anchor="middle" x="114.747" y="-47.2791" font-family="Helvetica,sans-Serif" font-size="10.00">1</text>
</a>
</g>
</g>
<!-- dir_cb2b5dfd43482fb277f6333d539f1f06&#45;&gt;dir_1456dd235032e023892318efbecb420b -->
<g id="edge4" class="edge"><title>dir_cb2b5dfd43482fb277f6333d539f1f06&#45;&gt;dir_1456dd235032e023892318efbecb420b</title>
<path fill="none" stroke="black" d="M65.0391,-90C67.8248,-90 70.6105,-90 73.3962,-90"/>
<polygon fill="black" stroke="black" points="73.4824,-93.5001 83.4824,-90 73.4823,-86.5001 73.4824,-93.5001"/>
<g id="a_edge4&#45;headlabel"><a xlink:href="dir_000024_000023.html" target="_top" xlink:title="12">
<text text-anchor="middle" x="69.8877" y="-93.8393" font-family="Helvetica,sans-Serif" font-size="10.00">12</text>
</a>
</g>
</g>
<!-- dir_cb2b5dfd43482fb277f6333d539f1f06&#45;&gt;dir_a1f42069ba95676f6b9abbd5065ccf6d -->
<g id="edge5" class="edge"><title>dir_cb2b5dfd43482fb277f6333d539f1f06&#45;&gt;dir_a1f42069ba95676f6b9abbd5065ccf6d</title>
<path fill="none" stroke="black" d="M33.9831,-71.6966C34.6443,-63.9827 35.4389,-54.7125 36.1761,-46.1124"/>
<polygon fill="black" stroke="black" points="39.667,-46.3667 37.0339,-36.1043 32.6926,-45.7689 39.667,-46.3667"/>
<g id="a_edge5&#45;headlabel"><a xlink:href="dir_000024_000025.html" target="_top" xlink:title="24">
<text text-anchor="middle" x="42.189" y="-47.6907" font-family="Helvetica,sans-Serif" font-size="10.00">24</text>
</a>
</g>
</g>
<!-- dir_cb2b5dfd43482fb277f6333d539f1f06&#45;&gt;dir_ff87cf903db18af0fdb6c342683ece25 -->
<g id="edge6" class="edge"><title>dir_cb2b5dfd43482fb277f6333d539f1f06&#45;&gt;dir_ff87cf903db18af0fdb6c342683ece25</title>
<path fill="none" stroke="black" d="M52.5225,-71.6966C62.6256,-62.9655 75.036,-52.2405 86.0175,-42.7503"/>
<polygon fill="black" stroke="black" points="88.4302,-45.2912 93.7078,-36.1043 83.8532,-39.9948 88.4302,-45.2912"/>
<g id="a_edge6&#45;headlabel"><a xlink:href="dir_000024_000027.html" target="_top" xlink:title="7">
<text text-anchor="middle" x="87.567" y="-47.2897" font-family="Helvetica,sans-Serif" font-size="10.00">7</text>
</a>
</g>
</g>
<!-- dir_ff87cf903db18af0fdb6c342683ece25&#45;&gt;dir_1456dd235032e023892318efbecb420b -->
<g id="edge7" class="edge"><title>dir_ff87cf903db18af0fdb6c342683ece25&#45;&gt;dir_1456dd235032e023892318efbecb420b</title>
<path fill="none" stroke="black" d="M120.372,-36.1043C121.617,-43.7913 122.383,-53.0537 122.542,-61.6651"/>
<polygon fill="black" stroke="black" points="119.042,-61.6571 122.427,-71.6966 126.042,-61.7375 119.042,-61.6571"/>
<g id="a_edge7&#45;headlabel"><a xlink:href="dir_000027_000023.html" target="_top" xlink:title="1">
<text text-anchor="middle" x="116.244" y="-55.5302" font-family="Helvetica,sans-Serif" font-size="10.00">1</text>
</a>
</g>
</g>
</g>
</svg>
