<?xml version="1.0" encoding="UTF-8" standalone="no"?>
<!DOCTYPE svg PUBLIC "-//W3C//DTD SVG 1.1//EN"
 "http://www.w3.org/Graphics/SVG/1.1/DTD/svg11.dtd">
<!-- Generated by graphviz version 2.38.0 (20140413.2041)
 -->
<!-- Title: /home/travis/build/STORM&#45;IRIT/Radium&#45;Engine/src/GuiBase/Viewer Pages: 1 -->
<svg width="230pt" height="375pt"
 viewBox="0.00 0.00 229.62 375.00" xmlns="http://www.w3.org/2000/svg" xmlns:xlink="http://www.w3.org/1999/xlink">
<g id="graph0" class="graph" transform="scale(1 1) rotate(0) translate(4 371)">
<title>/home/travis/build/STORM&#45;IRIT/Radium&#45;Engine/src/GuiBase/Viewer</title>
<polygon fill="white" stroke="none" points="-4,4 -4,-371 225.62,-371 225.62,4 -4,4"/>
<g id="clust1" class="cluster"><title>clusterdir_cb59203ea3f84fc4d67c89730003fed4</title>
<g id="a_clust1"><a xlink:href="dir_cb59203ea3f84fc4d67c89730003fed4.html" target="_top" xlink:title="GuiBase">
<polygon fill="#ddddee" stroke="black" points="94.62,-200 94.62,-359 180.62,-359 180.62,-200 94.62,-200"/>
<text text-anchor="middle" x="137.62" y="-347" font-family="Helvetica,sans-Serif" font-size="10.00">GuiBase</text>
</a>
</g>
</g>
<g id="clust2" class="cluster"><title>clusterdir_796a1a15fb9cc23998586ef6281d84e1</title>
<g id="a_clust2"><a xlink:href="dir_796a1a15fb9cc23998586ef6281d84e1.html" target="_top">
<polygon fill="#eeeeff" stroke="black" points="102.62,-208 102.62,-332 172.62,-332 172.62,-208 102.62,-208"/>
</a>
</g>
</g>
<!-- dir_796a1a15fb9cc23998586ef6281d84e1 -->
<g id="node1" class="node"><title>dir_796a1a15fb9cc23998586ef6281d84e1</title>
<text text-anchor="middle" x="137.62" y="-303.5" font-family="Helvetica,sans-Serif" font-size="10.00">Viewer</text>
</g>
<!-- dir_2c8f14969c5db5f42892fe1e101a5e81 -->
<g id="node2" class="node"><title>dir_2c8f14969c5db5f42892fe1e101a5e81</title>
<g id="a_node2"><a xlink:href="dir_2c8f14969c5db5f42892fe1e101a5e81.html" target="_top" xlink:title="Gizmo">
<polygon fill="white" stroke="black" points="164.62,-252 110.62,-252 110.62,-216 164.62,-216 164.62,-252"/>
<text text-anchor="middle" x="137.62" y="-231.5" font-family="Helvetica,sans-Serif" font-size="10.00">Gizmo</text>
</a>
</g>
</g>
<!-- dir_796a1a15fb9cc23998586ef6281d84e1&#45;&gt;dir_2c8f14969c5db5f42892fe1e101a5e81 -->
<g id="edge2" class="edge"><title>dir_796a1a15fb9cc23998586ef6281d84e1&#45;&gt;dir_2c8f14969c5db5f42892fe1e101a5e81</title>
<path fill="none" stroke="black" d="M137.62,-287.697C137.62,-279.983 137.62,-270.712 137.62,-262.112"/>
<polygon fill="black" stroke="black" points="141.12,-262.104 137.62,-252.104 134.12,-262.104 141.12,-262.104"/>
<g id="a_edge2&#45;headlabel"><a xlink:href="dir_000058_000059.html" target="_top" xlink:title="1">
<text text-anchor="middle" x="143.959" y="-263.199" font-family="Helvetica,sans-Serif" font-size="10.00">1</text>
</a>
</g>
</g>
<!-- dir_96ea24c08bff679823a21bf9a36ca41b -->
<g id="node4" class="node"><title>dir_96ea24c08bff679823a21bf9a36ca41b</title>
<g id="a_node4"><a xlink:href="dir_96ea24c08bff679823a21bf9a36ca41b.html" target="_top" xlink:title="Event">
<polygon fill="none" stroke="black" points="221.62,-36 167.62,-36 167.62,-0 221.62,-0 221.62,-36"/>
<text text-anchor="middle" x="194.62" y="-15.5" font-family="Helvetica,sans-Serif" font-size="10.00">Event</text>
</a>
</g>
</g>
<!-- dir_796a1a15fb9cc23998586ef6281d84e1&#45;&gt;dir_96ea24c08bff679823a21bf9a36ca41b -->
<g id="edge1" class="edge"><title>dir_796a1a15fb9cc23998586ef6281d84e1&#45;&gt;dir_96ea24c08bff679823a21bf9a36ca41b</title>
<path fill="none" stroke="black" d="M151.968,-287.795C169.944,-264.916 199.608,-222.411 209.62,-180 220.514,-133.852 210.503,-78.5132 202.43,-46.2006"/>
<polygon fill="black" stroke="black" points="205.722,-44.9566 199.799,-36.1718 198.951,-46.7326 205.722,-44.9566"/>
<g id="a_edge1&#45;headlabel"><a xlink:href="dir_000058_000052.html" target="_top" xlink:title="2">
<text text-anchor="middle" x="209.38" y="-45.2133" font-family="Helvetica,sans-Serif" font-size="10.00">2</text>
</a>
</g>
</g>
<!-- dir_a2f0e5642e47e7ed59fe0f0829eafb5f -->
<g id="node3" class="node"><title>dir_a2f0e5642e47e7ed59fe0f0829eafb5f</title>
<g id="a_node3"><a xlink:href="dir_a2f0e5642e47e7ed59fe0f0829eafb5f.html" target="_top" xlink:title="Core">
<polygon fill="white" stroke="red" points="92.62,-36 38.62,-36 38.62,-0 92.62,-0 92.62,-36"/>
<text text-anchor="middle" x="65.62" y="-15.5" font-family="Helvetica,sans-Serif" font-size="10.00">Core</text>
</a>
</g>
</g>
<!-- dir_2c8f14969c5db5f42892fe1e101a5e81&#45;&gt;dir_a2f0e5642e47e7ed59fe0f0829eafb5f -->
<g id="edge7" class="edge"><title>dir_2c8f14969c5db5f42892fe1e101a5e81&#45;&gt;dir_a2f0e5642e47e7ed59fe0f0829eafb5f</title>
<path fill="none" stroke="black" d="M110.536,-230.318C80.3308,-225.716 32.8089,-213.303 10.62,-180 -18.0663,-136.945 18.2494,-77.4368 44.0469,-44.1459"/>
<polygon fill="black" stroke="black" points="46.8286,-46.2715 50.333,-36.273 41.3583,-41.9038 46.8286,-46.2715"/>
<g id="a_edge7&#45;headlabel"><a xlink:href="dir_000059_000020.html" target="_top" xlink:title="12">
<text text-anchor="middle" x="46.8045" y="-48.3521" font-family="Helvetica,sans-Serif" font-size="10.00">12</text>
</a>
</g>
</g>
<!-- dir_2cea9413440cac76c0711bd520597573 -->
<g id="node5" class="node"><title>dir_2cea9413440cac76c0711bd520597573</title>
<g id="a_node5"><a xlink:href="dir_2cea9413440cac76c0711bd520597573.html" target="_top" xlink:title="Utils">
<polygon fill="none" stroke="black" points="73.62,-180 19.62,-180 19.62,-144 73.62,-144 73.62,-180"/>
<text text-anchor="middle" x="46.62" y="-159.5" font-family="Helvetica,sans-Serif" font-size="10.00">Utils</text>
</a>
</g>
</g>
<!-- dir_2c8f14969c5db5f42892fe1e101a5e81&#45;&gt;dir_2cea9413440cac76c0711bd520597573 -->
<g id="edge8" class="edge"><title>dir_2c8f14969c5db5f42892fe1e101a5e81&#45;&gt;dir_2cea9413440cac76c0711bd520597573</title>
<path fill="none" stroke="black" d="M115.126,-215.697C103.665,-206.881 89.5616,-196.032 77.1365,-186.474"/>
<polygon fill="black" stroke="black" points="78.9159,-183.427 68.8556,-180.104 74.6479,-188.976 78.9159,-183.427"/>
<g id="a_edge8&#45;headlabel"><a xlink:href="dir_000059_000057.html" target="_top" xlink:title="2">
<text text-anchor="middle" x="83.4962" y="-180.868" font-family="Helvetica,sans-Serif" font-size="10.00">2</text>
</a>
</g>
</g>
<!-- dir_db76f3c94886d731af6b7e364cea8b12 -->
<g id="node6" class="node"><title>dir_db76f3c94886d731af6b7e364cea8b12</title>
<g id="a_node6"><a xlink:href="dir_db76f3c94886d731af6b7e364cea8b12.html" target="_top" xlink:title="TransformEditor">
<polygon fill="none" stroke="black" points="183.62,-180 91.62,-180 91.62,-144 183.62,-144 183.62,-180"/>
<text text-anchor="middle" x="137.62" y="-159.5" font-family="Helvetica,sans-Serif" font-size="10.00">TransformEditor</text>
</a>
</g>
</g>
<!-- dir_2c8f14969c5db5f42892fe1e101a5e81&#45;&gt;dir_db76f3c94886d731af6b7e364cea8b12 -->
<g id="edge9" class="edge"><title>dir_2c8f14969c5db5f42892fe1e101a5e81&#45;&gt;dir_db76f3c94886d731af6b7e364cea8b12</title>
<path fill="none" stroke="black" d="M137.62,-215.697C137.62,-207.983 137.62,-198.712 137.62,-190.112"/>
<polygon fill="black" stroke="black" points="141.12,-190.104 137.62,-180.104 134.12,-190.104 141.12,-190.104"/>
<g id="a_edge9&#45;headlabel"><a xlink:href="dir_000059_000055.html" target="_top" xlink:title="1">
<text text-anchor="middle" x="143.959" y="-191.199" font-family="Helvetica,sans-Serif" font-size="10.00">1</text>
</a>
</g>
</g>
<!-- dir_3072bc1f55ed1280fe4fbe6b21c78379 -->
<g id="node7" class="node"><title>dir_3072bc1f55ed1280fe4fbe6b21c78379</title>
<g id="a_node7"><a xlink:href="dir_3072bc1f55ed1280fe4fbe6b21c78379.html" target="_top" xlink:title="Engine">
<polygon fill="white" stroke="red" points="166.62,-108 112.62,-108 112.62,-72 166.62,-72 166.62,-108"/>
<text text-anchor="middle" x="139.62" y="-87.5" font-family="Helvetica,sans-Serif" font-size="10.00">Engine</text>
</a>
</g>
</g>
<!-- dir_2c8f14969c5db5f42892fe1e101a5e81&#45;&gt;dir_3072bc1f55ed1280fe4fbe6b21c78379 -->
<g id="edge10" class="edge"><title>dir_2c8f14969c5db5f42892fe1e101a5e81&#45;&gt;dir_3072bc1f55ed1280fe4fbe6b21c78379</title>
<path fill="none" stroke="black" d="M162.999,-215.955C174.335,-206.786 186.498,-194.4 192.62,-180 198.88,-165.275 198.743,-158.782 192.62,-144 188.075,-133.028 180.035,-123.143 171.569,-114.964"/>
<polygon fill="black" stroke="black" points="173.869,-112.326 164.097,-108.232 169.183,-117.526 173.869,-112.326"/>
<g id="a_edge10&#45;headlabel"><a xlink:href="dir_000059_000028.html" target="_top" xlink:title="35">
<text text-anchor="middle" x="178.44" y="-110.122" font-family="Helvetica,sans-Serif" font-size="10.00">35</text>
</a>
</g>
</g>
<!-- dir_2cea9413440cac76c0711bd520597573&#45;&gt;dir_a2f0e5642e47e7ed59fe0f0829eafb5f -->
<g id="edge3" class="edge"><title>dir_2cea9413440cac76c0711bd520597573&#45;&gt;dir_a2f0e5642e47e7ed59fe0f0829eafb5f</title>
<path fill="none" stroke="black" d="M48.9118,-143.871C52.15,-119.67 58.0988,-75.2108 61.9547,-46.3932"/>
<polygon fill="black" stroke="black" points="65.4628,-46.5651 63.32,-36.1893 58.5246,-45.6367 65.4628,-46.5651"/>
<g id="a_edge3&#45;headlabel"><a xlink:href="dir_000057_000020.html" target="_top" xlink:title="5">
<text text-anchor="middle" x="67.8004" y="-48.0045" font-family="Helvetica,sans-Serif" font-size="10.00">5</text>
</a>
</g>
</g>
<!-- dir_2cea9413440cac76c0711bd520597573&#45;&gt;dir_3072bc1f55ed1280fe4fbe6b21c78379 -->
<g id="edge4" class="edge"><title>dir_2cea9413440cac76c0711bd520597573&#45;&gt;dir_3072bc1f55ed1280fe4fbe6b21c78379</title>
<path fill="none" stroke="black" d="M69.6088,-143.697C81.4339,-134.796 96.012,-123.823 108.799,-114.199"/>
<polygon fill="black" stroke="black" points="111.011,-116.915 116.896,-108.104 106.801,-111.322 111.011,-116.915"/>
<g id="a_edge4&#45;headlabel"><a xlink:href="dir_000057_000028.html" target="_top" xlink:title="1">
<text text-anchor="middle" x="109.846" y="-118.845" font-family="Helvetica,sans-Serif" font-size="10.00">1</text>
</a>
</g>
</g>
<!-- dir_db76f3c94886d731af6b7e364cea8b12&#45;&gt;dir_a2f0e5642e47e7ed59fe0f0829eafb5f -->
<g id="edge5" class="edge"><title>dir_db76f3c94886d731af6b7e364cea8b12&#45;&gt;dir_a2f0e5642e47e7ed59fe0f0829eafb5f</title>
<path fill="none" stroke="black" d="M125.531,-143.775C118.668,-133.616 110.168,-120.366 103.62,-108 92.8576,-87.674 82.7393,-63.6368 75.6538,-45.6696"/>
<polygon fill="black" stroke="black" points="78.8288,-44.1769 71.9476,-36.1208 72.3031,-46.7097 78.8288,-44.1769"/>
<g id="a_edge5&#45;headlabel"><a xlink:href="dir_000055_000020.html" target="_top" xlink:title="1">
<text text-anchor="middle" x="82.7763" y="-44.0006" font-family="Helvetica,sans-Serif" font-size="10.00">1</text>
</a>
</g>
</g>
<!-- dir_db76f3c94886d731af6b7e364cea8b12&#45;&gt;dir_3072bc1f55ed1280fe4fbe6b21c78379 -->
<g id="edge6" class="edge"><title>dir_db76f3c94886d731af6b7e364cea8b12&#45;&gt;dir_3072bc1f55ed1280fe4fbe6b21c78379</title>
<path fill="none" stroke="black" d="M138.114,-143.697C138.335,-135.983 138.6,-126.712 138.845,-118.112"/>
<polygon fill="black" stroke="black" points="142.344,-118.2 139.131,-108.104 135.347,-118 142.344,-118.2"/>
<g id="a_edge6&#45;headlabel"><a xlink:href="dir_000055_000028.html" target="_top" xlink:title="3">
<text text-anchor="middle" x="145.08" y="-119.374" font-family="Helvetica,sans-Serif" font-size="10.00">3</text>
</a>
</g>
</g>
<!-- dir_3072bc1f55ed1280fe4fbe6b21c78379&#45;&gt;dir_a2f0e5642e47e7ed59fe0f0829eafb5f -->
<g id="edge11" class="edge"><title>dir_3072bc1f55ed1280fe4fbe6b21c78379&#45;&gt;dir_a2f0e5642e47e7ed59fe0f0829eafb5f</title>
<path fill="none" stroke="black" d="M121.328,-71.6966C112.187,-63.0503 100.98,-52.4486 91.02,-43.027"/>
<polygon fill="black" stroke="black" points="93.3716,-40.4337 83.7017,-36.1043 88.5612,-45.519 93.3716,-40.4337"/>
<g id="a_edge11&#45;headlabel"><a xlink:href="dir_000028_000020.html" target="_top" xlink:title="90">
<text text-anchor="middle" x="97.9341" y="-38.3413" font-family="Helvetica,sans-Serif" font-size="10.00">90</text>
</a>
</g>
</g>
<!-- dir_3072bc1f55ed1280fe4fbe6b21c78379&#45;&gt;dir_96ea24c08bff679823a21bf9a36ca41b -->
<g id="edge12" class="edge"><title>dir_3072bc1f55ed1280fe4fbe6b21c78379&#45;&gt;dir_96ea24c08bff679823a21bf9a36ca41b</title>
<path fill="none" stroke="black" d="M153.215,-71.6966C159.743,-63.3893 167.688,-53.2771 174.867,-44.1407"/>
<polygon fill="black" stroke="black" points="177.755,-46.1299 181.181,-36.1043 172.25,-41.8051 177.755,-46.1299"/>
<g id="a_edge12&#45;headlabel"><a xlink:href="dir_000028_000052.html" target="_top" xlink:title="1">
<text text-anchor="middle" x="177.767" y="-48.2106" font-family="Helvetica,sans-Serif" font-size="10.00">1</text>
</a>
</g>
</g>
</g>
</svg>
