<?xml version="1.0" encoding="UTF-8" standalone="no"?>
<!DOCTYPE svg PUBLIC "-//W3C//DTD SVG 1.1//EN"
 "http://www.w3.org/Graphics/SVG/1.1/DTD/svg11.dtd">
<!-- Generated by graphviz version 2.38.0 (20140413.2041)
 -->
<!-- Title: /home/travis/build/STORM&#45;IRIT/Radium&#45;Engine/src/Engine/Component Pages: 1 -->
<svg width="294pt" height="332pt"
 viewBox="0.00 0.00 293.56 332.00" xmlns="http://www.w3.org/2000/svg" xmlns:xlink="http://www.w3.org/1999/xlink">
<g id="graph0" class="graph" transform="scale(1 1) rotate(0) translate(4 328)">
<title>/home/travis/build/STORM&#45;IRIT/Radium&#45;Engine/src/Engine/Component</title>
<polygon fill="white" stroke="none" points="-4,4 -4,-328 289.564,-328 289.564,4 -4,4"/>
<g id="clust1" class="cluster"><title>clusterdir_3072bc1f55ed1280fe4fbe6b21c78379</title>
<g id="a_clust1"><a xlink:href="dir_3072bc1f55ed1280fe4fbe6b21c78379.html" target="_top" xlink:title="Engine">
<polygon fill="#ddddee" stroke="black" points="187.564,-208 187.564,-279 277.564,-279 277.564,-208 187.564,-208"/>
<text text-anchor="middle" x="232.564" y="-267" font-family="Helvetica,sans-Serif" font-size="10.00">Engine</text>
</a>
</g>
</g>
<!-- dir_d0f3276f03e9a9cb8f8ba3f2a5ea1262 -->
<g id="node1" class="node"><title>dir_d0f3276f03e9a9cb8f8ba3f2a5ea1262</title>
<g id="a_node1"><a xlink:href="dir_d0f3276f03e9a9cb8f8ba3f2a5ea1262.html" target="_top" xlink:title="Component">
<polygon fill="#eeeeff" stroke="black" points="269.064,-252 196.064,-252 196.064,-216 269.064,-216 269.064,-252"/>
<text text-anchor="middle" x="232.564" y="-231.5" font-family="Helvetica,sans-Serif" font-size="10.00">Component</text>
</a>
</g>
</g>
<!-- dir_a2f0e5642e47e7ed59fe0f0829eafb5f -->
<g id="node2" class="node"><title>dir_a2f0e5642e47e7ed59fe0f0829eafb5f</title>
<g id="a_node2"><a xlink:href="dir_a2f0e5642e47e7ed59fe0f0829eafb5f.html" target="_top" xlink:title="Core">
<polygon fill="white" stroke="red" points="123.564,-36 69.5637,-36 69.5637,-0 123.564,-0 123.564,-36"/>
<text text-anchor="middle" x="96.5637" y="-15.5" font-family="Helvetica,sans-Serif" font-size="10.00">Core</text>
</a>
</g>
</g>
<!-- dir_d0f3276f03e9a9cb8f8ba3f2a5ea1262&#45;&gt;dir_a2f0e5642e47e7ed59fe0f0829eafb5f -->
<g id="edge16" class="edge"><title>dir_d0f3276f03e9a9cb8f8ba3f2a5ea1262&#45;&gt;dir_a2f0e5642e47e7ed59fe0f0829eafb5f</title>
<path fill="none" stroke="black" d="M232.623,-215.819C231.875,-184.133 226.159,-115.742 192.564,-72 177.648,-52.5786 153.485,-39.2935 133.133,-30.8815"/>
<polygon fill="black" stroke="black" points="134.39,-27.6152 123.802,-27.2464 131.849,-34.1377 134.39,-27.6152"/>
<g id="a_edge16&#45;headlabel"><a xlink:href="dir_000029_000020.html" target="_top" xlink:title="9">
<text text-anchor="middle" x="138.77" y="-23.7744" font-family="Helvetica,sans-Serif" font-size="10.00">9</text>
</a>
</g>
</g>
<!-- dir_7205f054df4e14abb60715afe3e7e90c -->
<g id="node3" class="node"><title>dir_7205f054df4e14abb60715afe3e7e90c</title>
<g id="a_node3"><a xlink:href="dir_7205f054df4e14abb60715afe3e7e90c.html" target="_top" xlink:title="Entity">
<polygon fill="none" stroke="black" points="147.564,-324 93.5637,-324 93.5637,-288 147.564,-288 147.564,-324"/>
<text text-anchor="middle" x="120.564" y="-303.5" font-family="Helvetica,sans-Serif" font-size="10.00">Entity</text>
</a>
</g>
</g>
<!-- dir_d0f3276f03e9a9cb8f8ba3f2a5ea1262&#45;&gt;dir_7205f054df4e14abb60715afe3e7e90c -->
<g id="edge17" class="edge"><title>dir_d0f3276f03e9a9cb8f8ba3f2a5ea1262&#45;&gt;dir_7205f054df4e14abb60715afe3e7e90c</title>
<path fill="none" stroke="black" d="M207.453,-252.128C197.02,-260.937 184.77,-271.392 172.564,-279 167.557,-282.121 162.11,-285.034 156.672,-287.698"/>
<polygon fill="black" stroke="black" points="155.183,-284.53 147.608,-291.938 158.149,-290.871 155.183,-284.53"/>
<g id="a_edge17&#45;headlabel"><a xlink:href="dir_000029_000030.html" target="_top" xlink:title="1">
<text text-anchor="middle" x="157.236" y="-277.936" font-family="Helvetica,sans-Serif" font-size="10.00">1</text>
</a>
</g>
</g>
<!-- dir_eecdbbfa89a6d9af25d920c499e6f44e -->
<g id="node4" class="node"><title>dir_eecdbbfa89a6d9af25d920c499e6f44e</title>
<g id="a_node4"><a xlink:href="dir_eecdbbfa89a6d9af25d920c499e6f44e.html" target="_top" xlink:title="System">
<polygon fill="none" stroke="black" points="83.5637,-252 29.5637,-252 29.5637,-216 83.5637,-216 83.5637,-252"/>
<text text-anchor="middle" x="56.5637" y="-231.5" font-family="Helvetica,sans-Serif" font-size="10.00">System</text>
</a>
</g>
</g>
<!-- dir_d0f3276f03e9a9cb8f8ba3f2a5ea1262&#45;&gt;dir_eecdbbfa89a6d9af25d920c499e6f44e -->
<g id="edge18" class="edge"><title>dir_d0f3276f03e9a9cb8f8ba3f2a5ea1262&#45;&gt;dir_eecdbbfa89a6d9af25d920c499e6f44e</title>
<path fill="none" stroke="black" d="M195.934,-234C161.89,-234 127.846,-234 93.8017,-234"/>
<polygon fill="black" stroke="black" points="93.72,-230.5 83.72,-234 93.7199,-237.5 93.72,-230.5"/>
<g id="a_edge18&#45;headlabel"><a xlink:href="dir_000029_000050.html" target="_top" xlink:title="1">
<text text-anchor="middle" x="97.3146" y="-225.161" font-family="Helvetica,sans-Serif" font-size="10.00">1</text>
</a>
</g>
</g>
<!-- dir_06113b60808b1bbb52a01dfd2c3a8657 -->
<g id="node5" class="node"><title>dir_06113b60808b1bbb52a01dfd2c3a8657</title>
<g id="a_node5"><a xlink:href="dir_06113b60808b1bbb52a01dfd2c3a8657.html" target="_top" xlink:title="Managers">
<polygon fill="white" stroke="red" points="139.564,-180 75.5637,-180 75.5637,-144 139.564,-144 139.564,-180"/>
<text text-anchor="middle" x="107.564" y="-159.5" font-family="Helvetica,sans-Serif" font-size="10.00">Managers</text>
</a>
</g>
</g>
<!-- dir_d0f3276f03e9a9cb8f8ba3f2a5ea1262&#45;&gt;dir_06113b60808b1bbb52a01dfd2c3a8657 -->
<g id="edge19" class="edge"><title>dir_d0f3276f03e9a9cb8f8ba3f2a5ea1262&#45;&gt;dir_06113b60808b1bbb52a01dfd2c3a8657</title>
<path fill="none" stroke="black" d="M201.985,-215.876C185.49,-206.639 164.94,-195.131 147.227,-185.212"/>
<polygon fill="black" stroke="black" points="148.695,-182.022 138.26,-180.19 145.275,-188.13 148.695,-182.022"/>
<g id="a_edge19&#45;headlabel"><a xlink:href="dir_000029_000032.html" target="_top" xlink:title="2">
<text text-anchor="middle" x="153.218" y="-178.801" font-family="Helvetica,sans-Serif" font-size="10.00">2</text>
</a>
</g>
</g>
<!-- dir_54018506bb725509c19b38b6d9bcf0f6 -->
<g id="node6" class="node"><title>dir_54018506bb725509c19b38b6d9bcf0f6</title>
<g id="a_node6"><a xlink:href="dir_54018506bb725509c19b38b6d9bcf0f6.html" target="_top" xlink:title="Renderer">
<polygon fill="white" stroke="red" points="184.064,-108 125.064,-108 125.064,-72 184.064,-72 184.064,-108"/>
<text text-anchor="middle" x="154.564" y="-87.5" font-family="Helvetica,sans-Serif" font-size="10.00">Renderer</text>
</a>
</g>
</g>
<!-- dir_d0f3276f03e9a9cb8f8ba3f2a5ea1262&#45;&gt;dir_54018506bb725509c19b38b6d9bcf0f6 -->
<g id="edge20" class="edge"><title>dir_d0f3276f03e9a9cb8f8ba3f2a5ea1262&#45;&gt;dir_54018506bb725509c19b38b6d9bcf0f6</title>
<path fill="none" stroke="black" d="M223.155,-215.871C209.686,-191.35 184.793,-146.032 168.988,-117.259"/>
<polygon fill="black" stroke="black" points="171.888,-115.269 164.006,-108.189 165.753,-118.639 171.888,-115.269"/>
<g id="a_edge20&#45;headlabel"><a xlink:href="dir_000029_000039.html" target="_top" xlink:title="15">
<text text-anchor="middle" x="176.107" y="-114.553" font-family="Helvetica,sans-Serif" font-size="10.00">15</text>
</a>
</g>
</g>
<!-- dir_7205f054df4e14abb60715afe3e7e90c&#45;&gt;dir_d0f3276f03e9a9cb8f8ba3f2a5ea1262 -->
<g id="edge4" class="edge"><title>dir_7205f054df4e14abb60715afe3e7e90c&#45;&gt;dir_d0f3276f03e9a9cb8f8ba3f2a5ea1262</title>
<path fill="none" stroke="black" d="M147.71,-298.473C161.373,-293.901 177.472,-287.16 190.564,-279 199.455,-273.458 208.369,-266.406 215.816,-259.579"/>
<polygon fill="black" stroke="black" points="218.526,-261.826 223.25,-252.343 213.643,-256.81 218.526,-261.826"/>
<g id="a_edge4&#45;headlabel"><a xlink:href="dir_000030_000029.html" target="_top" xlink:title="1">
<text text-anchor="middle" x="217.931" y="-263.868" font-family="Helvetica,sans-Serif" font-size="10.00">1</text>
</a>
</g>
</g>
<!-- dir_7205f054df4e14abb60715afe3e7e90c&#45;&gt;dir_a2f0e5642e47e7ed59fe0f0829eafb5f -->
<g id="edge1" class="edge"><title>dir_7205f054df4e14abb60715afe3e7e90c&#45;&gt;dir_a2f0e5642e47e7ed59fe0f0829eafb5f</title>
<path fill="none" stroke="black" d="M93.1205,-301.635C66.6719,-297.762 29.397,-290.424 20.5637,-279 -35.4558,-206.553 37.727,-93.8788 75.9635,-44.098"/>
<polygon fill="black" stroke="black" points="78.8087,-46.1415 82.2169,-36.1098 73.2967,-41.8265 78.8087,-46.1415"/>
<g id="a_edge1&#45;headlabel"><a xlink:href="dir_000030_000020.html" target="_top" xlink:title="2">
<text text-anchor="middle" x="78.8286" y="-48.2221" font-family="Helvetica,sans-Serif" font-size="10.00">2</text>
</a>
</g>
</g>
<!-- dir_7205f054df4e14abb60715afe3e7e90c&#45;&gt;dir_eecdbbfa89a6d9af25d920c499e6f44e -->
<g id="edge2" class="edge"><title>dir_7205f054df4e14abb60715afe3e7e90c&#45;&gt;dir_eecdbbfa89a6d9af25d920c499e6f44e</title>
<path fill="none" stroke="black" d="M98.8278,-287.697C90.2894,-279.305 80.7405,-269.07 72.8024,-259.861"/>
<polygon fill="black" stroke="black" points="75.4105,-257.524 66.3069,-252.104 70.0436,-262.018 75.4105,-257.524"/>
<g id="a_edge2&#45;headlabel"><a xlink:href="dir_000030_000050.html" target="_top" xlink:title="1">
<text text-anchor="middle" x="79.8951" y="-255.957" font-family="Helvetica,sans-Serif" font-size="10.00">1</text>
</a>
</g>
</g>
<!-- dir_7205f054df4e14abb60715afe3e7e90c&#45;&gt;dir_06113b60808b1bbb52a01dfd2c3a8657 -->
<g id="edge3" class="edge"><title>dir_7205f054df4e14abb60715afe3e7e90c&#45;&gt;dir_06113b60808b1bbb52a01dfd2c3a8657</title>
<path fill="none" stroke="black" d="M114.411,-287.871C109.637,-263.67 105.275,-219.211 104.613,-190.393"/>
<polygon fill="black" stroke="black" points="108.111,-190.166 104.546,-180.189 101.111,-190.212 108.111,-190.166"/>
<g id="a_edge3&#45;headlabel"><a xlink:href="dir_000030_000032.html" target="_top" xlink:title="1">
<text text-anchor="middle" x="110.974" y="-191.243" font-family="Helvetica,sans-Serif" font-size="10.00">1</text>
</a>
</g>
</g>
<!-- dir_eecdbbfa89a6d9af25d920c499e6f44e&#45;&gt;dir_d0f3276f03e9a9cb8f8ba3f2a5ea1262 -->
<g id="edge8" class="edge"><title>dir_eecdbbfa89a6d9af25d920c499e6f44e&#45;&gt;dir_d0f3276f03e9a9cb8f8ba3f2a5ea1262</title>
<path fill="none" stroke="black" d="M83.72,-234C117.764,-234 151.808,-234 185.852,-234"/>
<polygon fill="black" stroke="black" points="185.934,-237.5 195.934,-234 185.934,-230.5 185.934,-237.5"/>
<g id="a_edge8&#45;headlabel"><a xlink:href="dir_000050_000029.html" target="_top" xlink:title="2">
<text text-anchor="middle" x="182.34" y="-237.839" font-family="Helvetica,sans-Serif" font-size="10.00">2</text>
</a>
</g>
</g>
<!-- dir_eecdbbfa89a6d9af25d920c499e6f44e&#45;&gt;dir_a2f0e5642e47e7ed59fe0f0829eafb5f -->
<g id="edge5" class="edge"><title>dir_eecdbbfa89a6d9af25d920c499e6f44e&#45;&gt;dir_a2f0e5642e47e7ed59fe0f0829eafb5f</title>
<path fill="none" stroke="black" d="M57.8574,-215.848C59.3619,-197.86 62.21,-168.81 66.5637,-144 72.538,-109.956 82.2637,-71.3536 89.0151,-46.1686"/>
<polygon fill="black" stroke="black" points="92.4658,-46.8165 91.7069,-36.2489 85.7101,-44.9833 92.4658,-46.8165"/>
<g id="a_edge5&#45;headlabel"><a xlink:href="dir_000050_000020.html" target="_top" xlink:title="4">
<text text-anchor="middle" x="94.2647" y="-48.5292" font-family="Helvetica,sans-Serif" font-size="10.00">4</text>
</a>
</g>
</g>
<!-- dir_eecdbbfa89a6d9af25d920c499e6f44e&#45;&gt;dir_7205f054df4e14abb60715afe3e7e90c -->
<g id="edge6" class="edge"><title>dir_eecdbbfa89a6d9af25d920c499e6f44e&#45;&gt;dir_7205f054df4e14abb60715afe3e7e90c</title>
<path fill="none" stroke="black" d="M78.097,-252.104C86.6192,-260.467 96.1727,-270.694 104.136,-279.92"/>
<polygon fill="black" stroke="black" points="101.551,-282.284 110.659,-287.697 106.914,-277.786 101.551,-282.284"/>
<g id="a_edge6&#45;headlabel"><a xlink:href="dir_000050_000030.html" target="_top" xlink:title="2">
<text text-anchor="middle" x="97.0658" y="-278.855" font-family="Helvetica,sans-Serif" font-size="10.00">2</text>
</a>
</g>
</g>
<!-- dir_eecdbbfa89a6d9af25d920c499e6f44e&#45;&gt;dir_06113b60808b1bbb52a01dfd2c3a8657 -->
<g id="edge7" class="edge"><title>dir_eecdbbfa89a6d9af25d920c499e6f44e&#45;&gt;dir_06113b60808b1bbb52a01dfd2c3a8657</title>
<path fill="none" stroke="black" d="M63.2547,-215.697C68.4503,-207.389 75.621,-197.277 82.7408,-188.141"/>
<polygon fill="black" stroke="black" points="85.665,-190.09 89.207,-180.104 80.2112,-185.701 85.665,-190.09"/>
<g id="a_edge7&#45;headlabel"><a xlink:href="dir_000050_000032.html" target="_top" xlink:title="1">
<text text-anchor="middle" x="85.6238" y="-192.17" font-family="Helvetica,sans-Serif" font-size="10.00">1</text>
</a>
</g>
</g>
<!-- dir_06113b60808b1bbb52a01dfd2c3a8657&#45;&gt;dir_a2f0e5642e47e7ed59fe0f0829eafb5f -->
<g id="edge9" class="edge"><title>dir_06113b60808b1bbb52a01dfd2c3a8657&#45;&gt;dir_a2f0e5642e47e7ed59fe0f0829eafb5f</title>
<path fill="none" stroke="black" d="M106.237,-143.871C104.362,-119.67 100.918,-75.2108 98.6857,-46.3932"/>
<polygon fill="black" stroke="black" points="102.157,-45.889 97.8953,-36.1893 95.1782,-46.4297 102.157,-45.889"/>
<g id="a_edge9&#45;headlabel"><a xlink:href="dir_000032_000020.html" target="_top" xlink:title="15">
<text text-anchor="middle" x="105.266" y="-46.7537" font-family="Helvetica,sans-Serif" font-size="10.00">15</text>
</a>
</g>
</g>
<!-- dir_06113b60808b1bbb52a01dfd2c3a8657&#45;&gt;dir_7205f054df4e14abb60715afe3e7e90c -->
<g id="edge10" class="edge"><title>dir_06113b60808b1bbb52a01dfd2c3a8657&#45;&gt;dir_7205f054df4e14abb60715afe3e7e90c</title>
<path fill="none" stroke="black" d="M113.728,-180.189C118.502,-204.424 122.86,-248.888 123.517,-277.679"/>
<polygon fill="black" stroke="black" points="120.018,-277.894 123.58,-287.871 127.018,-277.85 120.018,-277.894"/>
<g id="a_edge10&#45;headlabel"><a xlink:href="dir_000032_000030.html" target="_top" xlink:title="3">
<text text-anchor="middle" x="117.156" y="-271.817" font-family="Helvetica,sans-Serif" font-size="10.00">3</text>
</a>
</g>
</g>
<!-- dir_06113b60808b1bbb52a01dfd2c3a8657&#45;&gt;dir_eecdbbfa89a6d9af25d920c499e6f44e -->
<g id="edge11" class="edge"><title>dir_06113b60808b1bbb52a01dfd2c3a8657&#45;&gt;dir_eecdbbfa89a6d9af25d920c499e6f44e</title>
<path fill="none" stroke="black" d="M100.997,-180.104C95.8332,-188.383 88.678,-198.488 81.5575,-207.64"/>
<polygon fill="black" stroke="black" points="78.6197,-205.708 75.0862,-215.697 84.0772,-210.092 78.6197,-205.708"/>
<g id="a_edge11&#45;headlabel"><a xlink:href="dir_000032_000050.html" target="_top" xlink:title="2">
<text text-anchor="middle" x="78.657" y="-198.628" font-family="Helvetica,sans-Serif" font-size="10.00">2</text>
</a>
</g>
</g>
<!-- dir_06113b60808b1bbb52a01dfd2c3a8657&#45;&gt;dir_54018506bb725509c19b38b6d9bcf0f6 -->
<g id="edge12" class="edge"><title>dir_06113b60808b1bbb52a01dfd2c3a8657&#45;&gt;dir_54018506bb725509c19b38b6d9bcf0f6</title>
<path fill="none" stroke="black" d="M113.266,-143.697C117.987,-135.389 124.58,-125.277 131.177,-116.141"/>
<polygon fill="black" stroke="black" points="134.001,-118.21 137.184,-108.104 128.394,-114.019 134.001,-118.21"/>
<g id="a_edge12&#45;headlabel"><a xlink:href="dir_000032_000039.html" target="_top" xlink:title="9">
<text text-anchor="middle" x="134.123" y="-120.289" font-family="Helvetica,sans-Serif" font-size="10.00">9</text>
</a>
</g>
</g>
<!-- dir_54018506bb725509c19b38b6d9bcf0f6&#45;&gt;dir_a2f0e5642e47e7ed59fe0f0829eafb5f -->
<g id="edge13" class="edge"><title>dir_54018506bb725509c19b38b6d9bcf0f6&#45;&gt;dir_a2f0e5642e47e7ed59fe0f0829eafb5f</title>
<path fill="none" stroke="black" d="M140.227,-71.6966C133.273,-63.3046 124.794,-53.0705 117.163,-43.8613"/>
<polygon fill="black" stroke="black" points="119.811,-41.5715 110.736,-36.1043 114.421,-46.0376 119.811,-41.5715"/>
<g id="a_edge13&#45;headlabel"><a xlink:href="dir_000039_000020.html" target="_top" xlink:title="54">
<text text-anchor="middle" x="124.291" y="-40.0279" font-family="Helvetica,sans-Serif" font-size="10.00">54</text>
</a>
</g>
</g>
<!-- dir_54018506bb725509c19b38b6d9bcf0f6&#45;&gt;dir_7205f054df4e14abb60715afe3e7e90c -->
<g id="edge14" class="edge"><title>dir_54018506bb725509c19b38b6d9bcf0f6&#45;&gt;dir_7205f054df4e14abb60715afe3e7e90c</title>
<path fill="none" stroke="black" d="M156.07,-108.248C158.288,-140.564 160.338,-212.228 137.749,-278.091"/>
<polygon fill="black" stroke="black" points="134.361,-277.167 134.234,-287.761 140.94,-279.558 134.361,-277.167"/>
<g id="a_edge14&#45;headlabel"><a xlink:href="dir_000039_000030.html" target="_top" xlink:title="3">
<text text-anchor="middle" x="132.92" y="-270.319" font-family="Helvetica,sans-Serif" font-size="10.00">3</text>
</a>
</g>
</g>
<!-- dir_54018506bb725509c19b38b6d9bcf0f6&#45;&gt;dir_06113b60808b1bbb52a01dfd2c3a8657 -->
<g id="edge15" class="edge"><title>dir_54018506bb725509c19b38b6d9bcf0f6&#45;&gt;dir_06113b60808b1bbb52a01dfd2c3a8657</title>
<path fill="none" stroke="black" d="M148.974,-108.104C144.284,-116.383 137.706,-126.488 131.108,-135.64"/>
<polygon fill="black" stroke="black" points="128.272,-133.589 125.097,-143.697 133.883,-137.774 128.272,-133.589"/>
<g id="a_edge15&#45;headlabel"><a xlink:href="dir_000039_000032.html" target="_top" xlink:title="5">
<text text-anchor="middle" x="128.146" y="-126.51" font-family="Helvetica,sans-Serif" font-size="10.00">5</text>
</a>
</g>
</g>
</g>
</svg>
