<?xml version="1.0" encoding="UTF-8" standalone="no"?>
<!DOCTYPE svg PUBLIC "-//W3C//DTD SVG 1.1//EN"
 "http://www.w3.org/Graphics/SVG/1.1/DTD/svg11.dtd">
<!-- Generated by graphviz version 2.38.0 (20140413.2041)
 -->
<!-- Title: /home/travis/build/STORM&#45;IRIT/Radium&#45;Engine/src/Engine/Renderer/Light Pages: 1 -->
<svg width="155pt" height="295pt"
 viewBox="0.00 0.00 155.07 295.00" xmlns="http://www.w3.org/2000/svg" xmlns:xlink="http://www.w3.org/1999/xlink">
<g id="graph0" class="graph" transform="scale(1 1) rotate(0) translate(4 291)">
<title>/home/travis/build/STORM&#45;IRIT/Radium&#45;Engine/src/Engine/Renderer/Light</title>
<polygon fill="white" stroke="none" points="-4,4 -4,-291 151.073,-291 151.073,4 -4,4"/>
<g id="clust1" class="cluster"><title>clusterdir_54018506bb725509c19b38b6d9bcf0f6</title>
<g id="a_clust1"><a xlink:href="dir_54018506bb725509c19b38b6d9bcf0f6.html" target="_top" xlink:title="Renderer">
<polygon fill="#ddddee" stroke="black" points="10.5729,-208 10.5729,-279 80.5729,-279 80.5729,-208 10.5729,-208"/>
<text text-anchor="middle" x="45.5729" y="-267" font-family="Helvetica,sans-Serif" font-size="10.00">Renderer</text>
</a>
</g>
</g>
<!-- dir_b3c92c43cc8feb1052f624d79df8b6af -->
<g id="node1" class="node"><title>dir_b3c92c43cc8feb1052f624d79df8b6af</title>
<g id="a_node1"><a xlink:href="dir_b3c92c43cc8feb1052f624d79df8b6af.html" target="_top" xlink:title="Light">
<polygon fill="#eeeeff" stroke="black" points="72.5729,-252 18.5729,-252 18.5729,-216 72.5729,-216 72.5729,-252"/>
<text text-anchor="middle" x="45.5729" y="-231.5" font-family="Helvetica,sans-Serif" font-size="10.00">Light</text>
</a>
</g>
</g>
<!-- dir_a2f0e5642e47e7ed59fe0f0829eafb5f -->
<g id="node2" class="node"><title>dir_a2f0e5642e47e7ed59fe0f0829eafb5f</title>
<g id="a_node2"><a xlink:href="dir_a2f0e5642e47e7ed59fe0f0829eafb5f.html" target="_top" xlink:title="Core">
<polygon fill="white" stroke="red" points="92.5729,-36 38.5729,-36 38.5729,-0 92.5729,-0 92.5729,-36"/>
<text text-anchor="middle" x="65.5729" y="-15.5" font-family="Helvetica,sans-Serif" font-size="10.00">Core</text>
</a>
</g>
</g>
<!-- dir_b3c92c43cc8feb1052f624d79df8b6af&#45;&gt;dir_a2f0e5642e47e7ed59fe0f0829eafb5f -->
<g id="edge1" class="edge"><title>dir_b3c92c43cc8feb1052f624d79df8b6af&#45;&gt;dir_a2f0e5642e47e7ed59fe0f0829eafb5f</title>
<path fill="none" stroke="black" d="M34.6275,-215.895C16.8244,-185.752 -14.3223,-121.668 7.57293,-72 12.6023,-60.5912 21.4345,-50.5727 30.7127,-42.4061"/>
<polygon fill="black" stroke="black" points="33.0227,-45.0382 38.5376,-35.9919 28.585,-39.6246 33.0227,-45.0382"/>
<g id="a_edge1&#45;headlabel"><a xlink:href="dir_000041_000020.html" target="_top" xlink:title="2">
<text text-anchor="middle" x="32.0426" y="-47.0128" font-family="Helvetica,sans-Serif" font-size="10.00">2</text>
</a>
</g>
</g>
<!-- dir_6bc97c5ccce2964f7b25f8377ac95818 -->
<g id="node3" class="node"><title>dir_6bc97c5ccce2964f7b25f8377ac95818</title>
<g id="a_node3"><a xlink:href="dir_6bc97c5ccce2964f7b25f8377ac95818.html" target="_top" xlink:title="RenderTechnique">
<polygon fill="none" stroke="black" points="114.073,-108 17.0729,-108 17.0729,-72 114.073,-72 114.073,-108"/>
<text text-anchor="middle" x="65.5729" y="-87.5" font-family="Helvetica,sans-Serif" font-size="10.00">RenderTechnique</text>
</a>
</g>
</g>
<!-- dir_b3c92c43cc8feb1052f624d79df8b6af&#45;&gt;dir_6bc97c5ccce2964f7b25f8377ac95818 -->
<g id="edge2" class="edge"><title>dir_b3c92c43cc8feb1052f624d79df8b6af&#45;&gt;dir_6bc97c5ccce2964f7b25f8377ac95818</title>
<path fill="none" stroke="black" d="M47.9854,-215.871C51.394,-191.67 57.6559,-147.211 61.7147,-118.393"/>
<polygon fill="black" stroke="black" points="65.2229,-118.58 63.1519,-108.189 58.2913,-117.603 65.2229,-118.58"/>
<g id="a_edge2&#45;headlabel"><a xlink:href="dir_000041_000048.html" target="_top" xlink:title="4">
<text text-anchor="middle" x="67.5332" y="-120.035" font-family="Helvetica,sans-Serif" font-size="10.00">4</text>
</a>
</g>
</g>
<!-- dir_d0f3276f03e9a9cb8f8ba3f2a5ea1262 -->
<g id="node4" class="node"><title>dir_d0f3276f03e9a9cb8f8ba3f2a5ea1262</title>
<g id="a_node4"><a xlink:href="dir_d0f3276f03e9a9cb8f8ba3f2a5ea1262.html" target="_top" xlink:title="Component">
<polygon fill="none" stroke="black" points="147.073,-180 74.0729,-180 74.0729,-144 147.073,-144 147.073,-180"/>
<text text-anchor="middle" x="110.573" y="-159.5" font-family="Helvetica,sans-Serif" font-size="10.00">Component</text>
</a>
</g>
</g>
<!-- dir_b3c92c43cc8feb1052f624d79df8b6af&#45;&gt;dir_d0f3276f03e9a9cb8f8ba3f2a5ea1262 -->
<g id="edge3" class="edge"><title>dir_b3c92c43cc8feb1052f624d79df8b6af&#45;&gt;dir_d0f3276f03e9a9cb8f8ba3f2a5ea1262</title>
<path fill="none" stroke="black" d="M61.6403,-215.697C69.5117,-207.22 79.1282,-196.864 87.7462,-187.583"/>
<polygon fill="black" stroke="black" points="90.4506,-189.814 94.6903,-180.104 85.321,-185.051 90.4506,-189.814"/>
<g id="a_edge3&#45;headlabel"><a xlink:href="dir_000041_000029.html" target="_top" xlink:title="1">
<text text-anchor="middle" x="90.0852" y="-191.88" font-family="Helvetica,sans-Serif" font-size="10.00">1</text>
</a>
</g>
</g>
<!-- dir_6bc97c5ccce2964f7b25f8377ac95818&#45;&gt;dir_a2f0e5642e47e7ed59fe0f0829eafb5f -->
<g id="edge4" class="edge"><title>dir_6bc97c5ccce2964f7b25f8377ac95818&#45;&gt;dir_a2f0e5642e47e7ed59fe0f0829eafb5f</title>
<path fill="none" stroke="black" d="M65.5729,-71.6966C65.5729,-63.9827 65.5729,-54.7125 65.5729,-46.1124"/>
<polygon fill="black" stroke="black" points="69.073,-46.1043 65.5729,-36.1043 62.073,-46.1044 69.073,-46.1043"/>
<g id="a_edge4&#45;headlabel"><a xlink:href="dir_000048_000020.html" target="_top" xlink:title="13">
<text text-anchor="middle" x="71.9122" y="-47.199" font-family="Helvetica,sans-Serif" font-size="10.00">13</text>
</a>
</g>
</g>
<!-- dir_d0f3276f03e9a9cb8f8ba3f2a5ea1262&#45;&gt;dir_a2f0e5642e47e7ed59fe0f0829eafb5f -->
<g id="edge5" class="edge"><title>dir_d0f3276f03e9a9cb8f8ba3f2a5ea1262&#45;&gt;dir_a2f0e5642e47e7ed59fe0f0829eafb5f</title>
<path fill="none" stroke="black" d="M118.065,-143.861C124.989,-125.374 132.786,-95.4415 122.573,-72 117.64,-60.6765 108.962,-50.6824 99.8438,-42.5119"/>
<polygon fill="black" stroke="black" points="102.072,-39.8124 92.1528,-36.0884 97.5844,-45.185 102.072,-39.8124"/>
<g id="a_edge5&#45;headlabel"><a xlink:href="dir_000029_000020.html" target="_top" xlink:title="9">
<text text-anchor="middle" x="106.651" y="-37.4374" font-family="Helvetica,sans-Serif" font-size="10.00">9</text>
</a>
</g>
</g>
<!-- dir_d0f3276f03e9a9cb8f8ba3f2a5ea1262&#45;&gt;dir_6bc97c5ccce2964f7b25f8377ac95818 -->
<g id="edge6" class="edge"><title>dir_d0f3276f03e9a9cb8f8ba3f2a5ea1262&#45;&gt;dir_6bc97c5ccce2964f7b25f8377ac95818</title>
<path fill="none" stroke="black" d="M99.4493,-143.697C94.2179,-135.559 87.873,-125.689 82.0952,-116.701"/>
<polygon fill="black" stroke="black" points="84.9203,-114.623 76.5686,-108.104 79.0321,-118.409 84.9203,-114.623"/>
<g id="a_edge6&#45;headlabel"><a xlink:href="dir_000029_000048.html" target="_top" xlink:title="4">
<text text-anchor="middle" x="89.2524" y="-113.612" font-family="Helvetica,sans-Serif" font-size="10.00">4</text>
</a>
</g>
</g>
</g>
</svg>
