<?xml version="1.0" encoding="UTF-8" standalone="no"?>
<!DOCTYPE svg PUBLIC "-//W3C//DTD SVG 1.1//EN"
 "http://www.w3.org/Graphics/SVG/1.1/DTD/svg11.dtd">
<!-- Generated by graphviz version 2.38.0 (20140413.2041)
 -->
<!-- Title: /home/travis/build/STORM&#45;IRIT/Radium&#45;Engine/src/Core/Geometry Pages: 1 -->
<svg width="176pt" height="151pt"
 viewBox="0.00 0.00 176.00 151.00" xmlns="http://www.w3.org/2000/svg" xmlns:xlink="http://www.w3.org/1999/xlink">
<g id="graph0" class="graph" transform="scale(1 1) rotate(0) translate(4 147)">
<title>/home/travis/build/STORM&#45;IRIT/Radium&#45;Engine/src/Core/Geometry</title>
<polygon fill="white" stroke="none" points="-4,4 -4,-147 172,-147 172,4 -4,4"/>
<g id="clust1" class="cluster"><title>clusterdir_a2f0e5642e47e7ed59fe0f0829eafb5f</title>
<g id="a_clust1"><a xlink:href="dir_a2f0e5642e47e7ed59fe0f0829eafb5f.html" target="_top" xlink:title="Core">
<polygon fill="#ddddee" stroke="black" points="8,-64 8,-135 90,-135 90,-64 8,-64"/>
<text text-anchor="middle" x="49" y="-123" font-family="Helvetica,sans-Serif" font-size="10.00">Core</text>
</a>
</g>
</g>
<!-- dir_cb2b5dfd43482fb277f6333d539f1f06 -->
<g id="node1" class="node"><title>dir_cb2b5dfd43482fb277f6333d539f1f06</title>
<g id="a_node1"><a xlink:href="dir_cb2b5dfd43482fb277f6333d539f1f06.html" target="_top" xlink:title="Geometry">
<polygon fill="#eeeeff" stroke="black" points="81.5,-108 16.5,-108 16.5,-72 81.5,-72 81.5,-108"/>
<text text-anchor="middle" x="49" y="-87.5" font-family="Helvetica,sans-Serif" font-size="10.00">Geometry</text>
</a>
</g>
</g>
<!-- dir_1456dd235032e023892318efbecb420b -->
<g id="node2" class="node"><title>dir_1456dd235032e023892318efbecb420b</title>
<g id="a_node2"><a xlink:href="dir_1456dd235032e023892318efbecb420b.html" target="_top" xlink:title="Containers">
<polygon fill="none" stroke="black" points="168,-108 100,-108 100,-72 168,-72 168,-108"/>
<text text-anchor="middle" x="134" y="-87.5" font-family="Helvetica,sans-Serif" font-size="10.00">Containers</text>
</a>
</g>
</g>
<!-- dir_cb2b5dfd43482fb277f6333d539f1f06&#45;&gt;dir_1456dd235032e023892318efbecb420b -->
<g id="edge4" class="edge"><title>dir_cb2b5dfd43482fb277f6333d539f1f06&#45;&gt;dir_1456dd235032e023892318efbecb420b</title>
<path fill="none" stroke="black" d="M81.5391,-90C84.3248,-90 87.1105,-90 89.8962,-90"/>
<polygon fill="black" stroke="black" points="89.9824,-93.5001 99.9824,-90 89.9823,-86.5001 89.9824,-93.5001"/>
<g id="a_edge4&#45;headlabel"><a xlink:href="dir_000024_000023.html" target="_top" xlink:title="12">
<text text-anchor="middle" x="86.3877" y="-93.8393" font-family="Helvetica,sans-Serif" font-size="10.00">12</text>
</a>
</g>
</g>
<!-- dir_a1f42069ba95676f6b9abbd5065ccf6d -->
<g id="node3" class="node"><title>dir_a1f42069ba95676f6b9abbd5065ccf6d</title>
<g id="a_node3"><a xlink:href="dir_a1f42069ba95676f6b9abbd5065ccf6d.html" target="_top" xlink:title="Math">
<polygon fill="none" stroke="black" points="83,-36 29,-36 29,-0 83,-0 83,-36"/>
<text text-anchor="middle" x="56" y="-15.5" font-family="Helvetica,sans-Serif" font-size="10.00">Math</text>
</a>
</g>
</g>
<!-- dir_cb2b5dfd43482fb277f6333d539f1f06&#45;&gt;dir_a1f42069ba95676f6b9abbd5065ccf6d -->
<g id="edge5" class="edge"><title>dir_cb2b5dfd43482fb277f6333d539f1f06&#45;&gt;dir_a1f42069ba95676f6b9abbd5065ccf6d</title>
<path fill="none" stroke="black" d="M50.7303,-71.6966C51.5017,-63.9827 52.4288,-54.7125 53.2888,-46.1124"/>
<polygon fill="black" stroke="black" points="56.7771,-46.403 54.2896,-36.1043 49.8118,-45.7064 56.7771,-46.403"/>
<g id="a_edge5&#45;headlabel"><a xlink:href="dir_000024_000025.html" target="_top" xlink:title="24">
<text text-anchor="middle" x="59.2447" y="-47.7623" font-family="Helvetica,sans-Serif" font-size="10.00">24</text>
</a>
</g>
</g>
<!-- dir_ff87cf903db18af0fdb6c342683ece25 -->
<g id="node4" class="node"><title>dir_ff87cf903db18af0fdb6c342683ece25</title>
<g id="a_node4"><a xlink:href="dir_ff87cf903db18af0fdb6c342683ece25.html" target="_top" xlink:title="Utils">
<polygon fill="none" stroke="black" points="161,-36 107,-36 107,-0 161,-0 161,-36"/>
<text text-anchor="middle" x="134" y="-15.5" font-family="Helvetica,sans-Serif" font-size="10.00">Utils</text>
</a>
</g>
</g>
<!-- dir_cb2b5dfd43482fb277f6333d539f1f06&#45;&gt;dir_ff87cf903db18af0fdb6c342683ece25 -->
<g id="edge6" class="edge"><title>dir_cb2b5dfd43482fb277f6333d539f1f06&#45;&gt;dir_ff87cf903db18af0fdb6c342683ece25</title>
<path fill="none" stroke="black" d="M70.0112,-71.6966C80.7163,-62.8807 93.8897,-52.0321 105.496,-42.4742"/>
<polygon fill="black" stroke="black" points="107.736,-45.1632 113.23,-36.1043 103.286,-39.7597 107.736,-45.1632"/>
<g id="a_edge6&#45;headlabel"><a xlink:href="dir_000024_000027.html" target="_top" xlink:title="7">
<text text-anchor="middle" x="106.766" y="-47.14" font-family="Helvetica,sans-Serif" font-size="10.00">7</text>
</a>
</g>
</g>
<!-- dir_1456dd235032e023892318efbecb420b&#45;&gt;dir_cb2b5dfd43482fb277f6333d539f1f06 -->
<g id="edge2" class="edge"><title>dir_1456dd235032e023892318efbecb420b&#45;&gt;dir_cb2b5dfd43482fb277f6333d539f1f06</title>
<path fill="none" stroke="black" d="M99.9824,-90C97.1967,-90 94.4109,-90 91.6252,-90"/>
<polygon fill="black" stroke="black" points="91.5391,-86.5001 81.5391,-90 91.539,-93.5001 91.5391,-86.5001"/>
<g id="a_edge2&#45;headlabel"><a xlink:href="dir_000023_000024.html" target="_top" xlink:title="1">
<text text-anchor="middle" x="95.1337" y="-81.1607" font-family="Helvetica,sans-Serif" font-size="10.00">1</text>
</a>
</g>
</g>
<!-- dir_1456dd235032e023892318efbecb420b&#45;&gt;dir_a1f42069ba95676f6b9abbd5065ccf6d -->
<g id="edge1" class="edge"><title>dir_1456dd235032e023892318efbecb420b&#45;&gt;dir_a1f42069ba95676f6b9abbd5065ccf6d</title>
<path fill="none" stroke="black" d="M114.719,-71.6966C105.085,-63.0503 93.2712,-52.4486 82.773,-43.027"/>
<polygon fill="black" stroke="black" points="84.8393,-40.1786 75.0591,-36.1043 80.1639,-45.3883 84.8393,-40.1786"/>
<g id="a_edge1&#45;headlabel"><a xlink:href="dir_000023_000025.html" target="_top" xlink:title="3">
<text text-anchor="middle" x="89.4109" y="-37.9664" font-family="Helvetica,sans-Serif" font-size="10.00">3</text>
</a>
</g>
</g>
<!-- dir_1456dd235032e023892318efbecb420b&#45;&gt;dir_ff87cf903db18af0fdb6c342683ece25 -->
<g id="edge3" class="edge"><title>dir_1456dd235032e023892318efbecb420b&#45;&gt;dir_ff87cf903db18af0fdb6c342683ece25</title>
<path fill="none" stroke="black" d="M128.084,-71.6966C127.289,-63.9827 127.062,-54.7125 127.405,-46.1124"/>
<polygon fill="black" stroke="black" points="130.898,-46.3243 128.105,-36.1043 123.915,-45.8356 130.898,-46.3243"/>
<g id="a_edge3&#45;headlabel"><a xlink:href="dir_000023_000027.html" target="_top" xlink:title="1">
<text text-anchor="middle" x="133.48" y="-47.6083" font-family="Helvetica,sans-Serif" font-size="10.00">1</text>
</a>
</g>
</g>
<!-- dir_ff87cf903db18af0fdb6c342683ece25&#45;&gt;dir_1456dd235032e023892318efbecb420b -->
<g id="edge7" class="edge"><title>dir_ff87cf903db18af0fdb6c342683ece25&#45;&gt;dir_1456dd235032e023892318efbecb420b</title>
<path fill="none" stroke="black" d="M139.895,-36.1043C140.701,-43.7913 140.937,-53.0537 140.604,-61.6651"/>
<polygon fill="black" stroke="black" points="137.109,-61.4805 139.916,-71.6966 144.092,-61.9597 137.109,-61.4805"/>
<g id="a_edge7&#45;headlabel"><a xlink:href="dir_000027_000023.html" target="_top" xlink:title="1">
<text text-anchor="middle" x="134.522" y="-55.2" font-family="Helvetica,sans-Serif" font-size="10.00">1</text>
</a>
</g>
</g>
</g>
</svg>
