<?xml version="1.0" encoding="UTF-8" standalone="no"?>
<!DOCTYPE svg PUBLIC "-//W3C//DTD SVG 1.1//EN"
 "http://www.w3.org/Graphics/SVG/1.1/DTD/svg11.dtd">
<!-- Generated by graphviz version 2.38.0 (20140413.2041)
 -->
<!-- Title: /home/travis/build/STORM&#45;IRIT/Radium&#45;Engine/src/Core/Geometry/DistanceQueries.hpp Pages: 1 -->
<svg width="1409pt" height="453pt"
 viewBox="0.00 0.00 1409.00 453.00" xmlns="http://www.w3.org/2000/svg" xmlns:xlink="http://www.w3.org/1999/xlink">
<g id="graph0" class="graph" transform="scale(1 1) rotate(0) translate(4 449)">
<title>/home/travis/build/STORM&#45;IRIT/Radium&#45;Engine/src/Core/Geometry/DistanceQueries.hpp</title>
<polygon fill="white" stroke="none" points="-4,4 -4,-449 1405,-449 1405,4 -4,4"/>
<!-- Node1 -->
<g id="node1" class="node"><title>Node1</title>
<polygon fill="#bfbfbf" stroke="black" points="546,-403.5 546,-444.5 759,-444.5 759,-403.5 546,-403.5"/>
<text text-anchor="start" x="554" y="-432.5" font-family="Helvetica,sans-Serif" font-size="10.00">/home/travis/build</text>
<text text-anchor="start" x="554" y="-421.5" font-family="Helvetica,sans-Serif" font-size="10.00">/STORM&#45;IRIT/Radium&#45;Engine</text>
<text text-anchor="middle" x="652.5" y="-410.5" font-family="Helvetica,sans-Serif" font-size="10.00">/src/Core/Geometry/DistanceQueries.hpp</text>
</g>
<!-- Node2 -->
<g id="node2" class="node"><title>Node2</title>
<g id="a_node2"><a xlink:href="TriangleMesh_8hpp.html" target="_top" xlink:title="Core/Geometry/TriangleMesh.hpp">
<polygon fill="white" stroke="black" points="357.5,-347.5 357.5,-366.5 533.5,-366.5 533.5,-347.5 357.5,-347.5"/>
<text text-anchor="middle" x="445.5" y="-354.5" font-family="Helvetica,sans-Serif" font-size="10.00">Core/Geometry/TriangleMesh.hpp</text>
</a>
</g>
</g>
<!-- Node1&#45;&gt;Node2 -->
<g id="edge1" class="edge"><title>Node1&#45;&gt;Node2</title>
<path fill="none" stroke="midnightblue" d="M590.393,-403.498C555.192,-392.444 512.344,-378.99 482.41,-369.59"/>
<polygon fill="midnightblue" stroke="midnightblue" points="483.372,-366.224 472.783,-366.567 481.275,-372.902 483.372,-366.224"/>
</g>
<!-- Node5 -->
<g id="node5" class="node"><title>Node5</title>
<g id="a_node5"><a xlink:href="RaCore_8hpp.html" target="_top" xlink:title="Core/RaCore.hpp">
<polygon fill="white" stroke="black" points="358.5,-112.5 358.5,-131.5 456.5,-131.5 456.5,-112.5 358.5,-112.5"/>
<text text-anchor="middle" x="407.5" y="-119.5" font-family="Helvetica,sans-Serif" font-size="10.00">Core/RaCore.hpp</text>
</a>
</g>
</g>
<!-- Node1&#45;&gt;Node5 -->
<g id="edge31" class="edge"><title>Node1&#45;&gt;Node5</title>
<path fill="none" stroke="midnightblue" d="M645.514,-403.311C627.987,-356.48 577.865,-237.203 499.5,-168 483.232,-153.634 461.562,-142.737 443.339,-135.267"/>
<polygon fill="midnightblue" stroke="midnightblue" points="444.487,-131.958 433.9,-131.571 441.935,-138.476 444.487,-131.958"/>
</g>
<!-- Node14 -->
<g id="node14" class="node"><title>Node14</title>
<g id="a_node14"><a xlink:href="Types_8hpp.html" target="_top" xlink:title="Core/Math/Types.hpp">
<polygon fill="white" stroke="black" points="546.5,-174 546.5,-193 662.5,-193 662.5,-174 546.5,-174"/>
<text text-anchor="middle" x="604.5" y="-181" font-family="Helvetica,sans-Serif" font-size="10.00">Core/Math/Types.hpp</text>
</a>
</g>
</g>
<!-- Node1&#45;&gt;Node14 -->
<g id="edge30" class="edge"><title>Node1&#45;&gt;Node14</title>
<path fill="none" stroke="midnightblue" d="M656.145,-403.229C661.743,-368.03 669.642,-292.775 647.5,-235 642.349,-221.559 631.976,-209.204 622.709,-200.079"/>
<polygon fill="midnightblue" stroke="midnightblue" points="625.033,-197.461 615.324,-193.221 620.27,-202.59 625.033,-197.461"/>
</g>
<!-- Node20 -->
<g id="node20" class="node"><title>Node20</title>
<polygon fill="white" stroke="#bfbfbf" points="448.5,-174 448.5,-193 490.5,-193 490.5,-174 448.5,-174"/>
<text text-anchor="middle" x="469.5" y="-181" font-family="Helvetica,sans-Serif" font-size="10.00">limits</text>
</g>
<!-- Node1&#45;&gt;Node20 -->
<g id="edge32" class="edge"><title>Node1&#45;&gt;Node20</title>
<path fill="none" stroke="midnightblue" d="M637.524,-403.483C602.459,-357.783 515.503,-244.455 482.493,-201.433"/>
<polygon fill="midnightblue" stroke="midnightblue" points="485.17,-199.172 476.305,-193.369 479.616,-203.434 485.17,-199.172"/>
</g>
<!-- Node23 -->
<g id="node23" class="node"><title>Node23</title>
<g id="a_node23"><a xlink:href="DistanceQueries_8inl.html" target="_top" xlink:title="Core/Geometry/DistanceQueries.inl">
<polygon fill="white" stroke="black" points="699,-347.5 699,-366.5 884,-366.5 884,-347.5 699,-347.5"/>
<text text-anchor="middle" x="791.5" y="-354.5" font-family="Helvetica,sans-Serif" font-size="10.00">Core/Geometry/DistanceQueries.inl</text>
</a>
</g>
</g>
<!-- Node1&#45;&gt;Node23 -->
<g id="edge33" class="edge"><title>Node1&#45;&gt;Node23</title>
<path fill="none" stroke="midnightblue" d="M687.959,-403.498C709.835,-392.861 737.591,-380.001 758.926,-370.67"/>
<polygon fill="midnightblue" stroke="midnightblue" points="760.439,-373.83 768.233,-366.652 757.664,-367.403 760.439,-373.83"/>
</g>
<!-- Node3 -->
<g id="node3" class="node"><title>Node3</title>
<g id="a_node3"><a xlink:href="VectorArray_8hpp.html" target="_top" xlink:title="Core/Containers/VectorArray.hpp">
<polygon fill="white" stroke="black" points="57,-235.5 57,-254.5 230,-254.5 230,-235.5 57,-235.5"/>
<text text-anchor="middle" x="143.5" y="-242.5" font-family="Helvetica,sans-Serif" font-size="10.00">Core/Containers/VectorArray.hpp</text>
</a>
</g>
</g>
<!-- Node2&#45;&gt;Node3 -->
<g id="edge2" class="edge"><title>Node2&#45;&gt;Node3</title>
<path fill="none" stroke="midnightblue" d="M357.29,-348.98C291.915,-342.315 209.506,-330.379 181.5,-311 165.411,-299.868 155.146,-279.534 149.394,-264.564"/>
<polygon fill="midnightblue" stroke="midnightblue" points="152.591,-263.102 145.985,-254.819 145.984,-265.414 152.591,-263.102"/>
</g>
<!-- Node2&#45;&gt;Node5 -->
<g id="edge21" class="edge"><title>Node2&#45;&gt;Node5</title>
<path fill="none" stroke="midnightblue" d="M357.398,-350.251C300.068,-344.462 232.688,-333.073 214.5,-311 208.847,-304.14 211.924,-299.507 214.5,-291 220.072,-272.595 227.897,-271.043 238.5,-255 263.988,-216.435 259.743,-197.297 295.5,-168 314.547,-152.395 339.705,-141.634 361.351,-134.559"/>
<polygon fill="midnightblue" stroke="midnightblue" points="362.5,-137.867 371.015,-131.563 360.427,-131.181 362.5,-137.867"/>
</g>
<!-- Node2&#45;&gt;Node14 -->
<g id="edge20" class="edge"><title>Node2&#45;&gt;Node14</title>
<path fill="none" stroke="midnightblue" d="M474.379,-347.426C494.353,-340.305 520.477,-328.486 538.5,-311 570.689,-279.77 590.36,-229.44 599.119,-202.647"/>
<polygon fill="midnightblue" stroke="midnightblue" points="602.483,-203.614 602.122,-193.025 595.801,-201.528 602.483,-203.614"/>
</g>
<!-- Node18 -->
<g id="node18" class="node"><title>Node18</title>
<g id="a_node18"><a xlink:href="Attribs_8hpp.html" target="_top" xlink:title="Core/Utils/Attribs.hpp">
<polygon fill="white" stroke="black" points="224,-291.5 224,-310.5 343,-310.5 343,-291.5 224,-291.5"/>
<text text-anchor="middle" x="283.5" y="-298.5" font-family="Helvetica,sans-Serif" font-size="10.00">Core/Utils/Attribs.hpp</text>
</a>
</g>
</g>
<!-- Node2&#45;&gt;Node18 -->
<g id="edge22" class="edge"><title>Node2&#45;&gt;Node18</title>
<path fill="none" stroke="midnightblue" d="M419.831,-347.444C392.577,-338.359 349.316,-323.939 318.849,-313.783"/>
<polygon fill="midnightblue" stroke="midnightblue" points="319.643,-310.358 309.049,-310.516 317.429,-316.999 319.643,-310.358"/>
</g>
<!-- Node22 -->
<g id="node22" class="node"><title>Node22</title>
<g id="a_node22"><a xlink:href="TriangleMesh_8inl.html" target="_top" xlink:title="Core/Geometry/TriangleMesh.inl">
<polygon fill="white" stroke="black" points="361.5,-291.5 361.5,-310.5 529.5,-310.5 529.5,-291.5 361.5,-291.5"/>
<text text-anchor="middle" x="445.5" y="-298.5" font-family="Helvetica,sans-Serif" font-size="10.00">Core/Geometry/TriangleMesh.inl</text>
</a>
</g>
</g>
<!-- Node2&#45;&gt;Node22 -->
<g id="edge28" class="edge"><title>Node2&#45;&gt;Node22</title>
<path fill="none" stroke="midnightblue" d="M440.334,-347.083C438.824,-339.927 438.394,-329.635 439.042,-320.691"/>
<polygon fill="midnightblue" stroke="midnightblue" points="442.515,-321.126 440.369,-310.751 435.577,-320.2 442.515,-321.126"/>
</g>
<!-- Node4 -->
<g id="node4" class="node"><title>Node4</title>
<g id="a_node4"><a xlink:href="AlignedStdVector_8hpp.html" target="_top" xlink:title="Core/Containers/AlignedStd\lVector.hpp">
<polygon fill="white" stroke="black" points="44,-168.5 44,-198.5 193,-198.5 193,-168.5 44,-168.5"/>
<text text-anchor="start" x="52" y="-186.5" font-family="Helvetica,sans-Serif" font-size="10.00">Core/Containers/AlignedStd</text>
<text text-anchor="middle" x="118.5" y="-175.5" font-family="Helvetica,sans-Serif" font-size="10.00">Vector.hpp</text>
</a>
</g>
</g>
<!-- Node3&#45;&gt;Node4 -->
<g id="edge3" class="edge"><title>Node3&#45;&gt;Node4</title>
<path fill="none" stroke="midnightblue" d="M139.918,-235.475C136.88,-228.245 132.376,-217.525 128.281,-207.779"/>
<polygon fill="midnightblue" stroke="midnightblue" points="131.492,-206.386 124.392,-198.523 125.039,-209.098 131.492,-206.386"/>
</g>
<!-- Node3&#45;&gt;Node5 -->
<g id="edge18" class="edge"><title>Node3&#45;&gt;Node5</title>
<path fill="none" stroke="midnightblue" d="M154.798,-235.32C180.111,-215.898 239.553,-170.434 244.5,-168 277.183,-151.92 316.473,-140.857 348.289,-133.724"/>
<polygon fill="midnightblue" stroke="midnightblue" points="349.308,-137.085 358.339,-131.545 347.824,-130.244 349.308,-137.085"/>
</g>
<!-- Node13 -->
<g id="node13" class="node"><title>Node13</title>
<polygon fill="white" stroke="#bfbfbf" points="0,-112.5 0,-131.5 47,-131.5 47,-112.5 0,-112.5"/>
<text text-anchor="middle" x="23.5" y="-119.5" font-family="Helvetica,sans-Serif" font-size="10.00">vector</text>
</g>
<!-- Node3&#45;&gt;Node13 -->
<g id="edge19" class="edge"><title>Node3&#45;&gt;Node13</title>
<path fill="none" stroke="midnightblue" d="M95.5636,-235.487C73.6582,-229.112 49.3403,-218.062 34.5,-199 21.8569,-182.76 20.462,-158.47 21.3469,-141.743"/>
<polygon fill="midnightblue" stroke="midnightblue" points="24.8526,-141.825 22.2136,-131.564 17.8778,-141.231 24.8526,-141.825"/>
</g>
<!-- Node3&#45;&gt;Node14 -->
<g id="edge13" class="edge"><title>Node3&#45;&gt;Node14</title>
<path fill="none" stroke="midnightblue" d="M212.776,-235.482C284.538,-226.603 399.913,-212.17 499.5,-199 511.401,-197.426 524.055,-195.713 536.305,-194.033"/>
<polygon fill="midnightblue" stroke="midnightblue" points="537.045,-197.465 546.475,-192.634 536.091,-190.53 537.045,-197.465"/>
</g>
<!-- Node4&#45;&gt;Node5 -->
<g id="edge4" class="edge"><title>Node4&#45;&gt;Node5</title>
<path fill="none" stroke="midnightblue" d="M186.623,-168.475C238.55,-157.784 308.943,-143.291 356.176,-133.567"/>
<polygon fill="midnightblue" stroke="midnightblue" points="357.095,-136.951 366.183,-131.506 355.683,-130.095 357.095,-136.951"/>
</g>
<!-- Node12 -->
<g id="node12" class="node"><title>Node12</title>
<polygon fill="white" stroke="#bfbfbf" points="72,-112.5 72,-131.5 165,-131.5 165,-112.5 72,-112.5"/>
<text text-anchor="middle" x="118.5" y="-119.5" font-family="Helvetica,sans-Serif" font-size="10.00">Eigen/StdVector</text>
</g>
<!-- Node4&#45;&gt;Node12 -->
<g id="edge11" class="edge"><title>Node4&#45;&gt;Node12</title>
<path fill="none" stroke="midnightblue" d="M118.5,-168.399C118.5,-160.466 118.5,-150.458 118.5,-141.858"/>
<polygon fill="midnightblue" stroke="midnightblue" points="122,-141.658 118.5,-131.658 115,-141.658 122,-141.658"/>
</g>
<!-- Node4&#45;&gt;Node13 -->
<g id="edge12" class="edge"><title>Node4&#45;&gt;Node13</title>
<path fill="none" stroke="midnightblue" d="M95.9863,-168.399C80.9009,-158.951 61.115,-146.559 46.0268,-137.109"/>
<polygon fill="midnightblue" stroke="midnightblue" points="47.6561,-134 37.3233,-131.658 43.9405,-139.932 47.6561,-134"/>
</g>
<!-- Node6 -->
<g id="node6" class="node"><title>Node6</title>
<g id="a_node6"><a xlink:href="CoreMacros_8hpp.html" target="_top" xlink:title="Core/CoreMacros.hpp">
<polygon fill="white" stroke="black" points="347.5,-56.5 347.5,-75.5 467.5,-75.5 467.5,-56.5 347.5,-56.5"/>
<text text-anchor="middle" x="407.5" y="-63.5" font-family="Helvetica,sans-Serif" font-size="10.00">Core/CoreMacros.hpp</text>
</a>
</g>
</g>
<!-- Node5&#45;&gt;Node6 -->
<g id="edge5" class="edge"><title>Node5&#45;&gt;Node6</title>
<path fill="none" stroke="midnightblue" d="M407.5,-112.083C407.5,-105.006 407.5,-94.8611 407.5,-85.9865"/>
<polygon fill="midnightblue" stroke="midnightblue" points="411,-85.751 407.5,-75.7511 404,-85.7511 411,-85.751"/>
</g>
<!-- Node7 -->
<g id="node7" class="node"><title>Node7</title>
<polygon fill="white" stroke="#bfbfbf" points="244.5,-0.5 244.5,-19.5 296.5,-19.5 296.5,-0.5 244.5,-0.5"/>
<text text-anchor="middle" x="270.5" y="-7.5" font-family="Helvetica,sans-Serif" font-size="10.00">cassert</text>
</g>
<!-- Node6&#45;&gt;Node7 -->
<g id="edge6" class="edge"><title>Node6&#45;&gt;Node7</title>
<path fill="none" stroke="midnightblue" d="M385.792,-56.4435C363.145,-47.5171 327.428,-33.4387 301.748,-23.3168"/>
<polygon fill="midnightblue" stroke="midnightblue" points="302.693,-19.9273 292.106,-19.5164 300.126,-26.4397 302.693,-19.9273"/>
</g>
<!-- Node8 -->
<g id="node8" class="node"><title>Node8</title>
<polygon fill="white" stroke="#bfbfbf" points="315,-0.5 315,-19.5 360,-19.5 360,-0.5 315,-0.5"/>
<text text-anchor="middle" x="337.5" y="-7.5" font-family="Helvetica,sans-Serif" font-size="10.00">cstdio</text>
</g>
<!-- Node6&#45;&gt;Node8 -->
<g id="edge7" class="edge"><title>Node6&#45;&gt;Node8</title>
<path fill="none" stroke="midnightblue" d="M396.253,-56.324C385.703,-48.1849 369.699,-35.8395 357.058,-26.0874"/>
<polygon fill="midnightblue" stroke="midnightblue" points="359.007,-23.1707 348.951,-19.8339 354.731,-28.7132 359.007,-23.1707"/>
</g>
<!-- Node9 -->
<g id="node9" class="node"><title>Node9</title>
<polygon fill="white" stroke="#bfbfbf" points="378,-0.5 378,-19.5 437,-19.5 437,-0.5 378,-0.5"/>
<text text-anchor="middle" x="407.5" y="-7.5" font-family="Helvetica,sans-Serif" font-size="10.00">iostream</text>
</g>
<!-- Node6&#45;&gt;Node9 -->
<g id="edge8" class="edge"><title>Node6&#45;&gt;Node9</title>
<path fill="none" stroke="midnightblue" d="M407.5,-56.083C407.5,-49.0059 407.5,-38.8611 407.5,-29.9865"/>
<polygon fill="midnightblue" stroke="midnightblue" points="411,-29.751 407.5,-19.7511 404,-29.7511 411,-29.751"/>
</g>
<!-- Node10 -->
<g id="node10" class="node"><title>Node10</title>
<polygon fill="white" stroke="#bfbfbf" points="455.5,-0.5 455.5,-19.5 511.5,-19.5 511.5,-0.5 455.5,-0.5"/>
<text text-anchor="middle" x="483.5" y="-7.5" font-family="Helvetica,sans-Serif" font-size="10.00">sstream</text>
</g>
<!-- Node6&#45;&gt;Node10 -->
<g id="edge9" class="edge"><title>Node6&#45;&gt;Node10</title>
<path fill="none" stroke="midnightblue" d="M419.711,-56.324C431.276,-48.1066 448.875,-35.6017 462.661,-25.8069"/>
<polygon fill="midnightblue" stroke="midnightblue" points="464.943,-28.4791 471.067,-19.8339 460.888,-22.7729 464.943,-28.4791"/>
</g>
<!-- Node11 -->
<g id="node11" class="node"><title>Node11</title>
<polygon fill="white" stroke="#bfbfbf" points="529.5,-0.5 529.5,-19.5 577.5,-19.5 577.5,-0.5 529.5,-0.5"/>
<text text-anchor="middle" x="553.5" y="-7.5" font-family="Helvetica,sans-Serif" font-size="10.00">thread</text>
</g>
<!-- Node6&#45;&gt;Node11 -->
<g id="edge10" class="edge"><title>Node6&#45;&gt;Node11</title>
<path fill="none" stroke="midnightblue" d="M430.634,-56.4435C454.982,-47.4381 493.507,-33.1891 520.923,-23.049"/>
<polygon fill="midnightblue" stroke="midnightblue" points="522.309,-26.2681 530.474,-19.5164 519.881,-19.7028 522.309,-26.2681"/>
</g>
<!-- Node14&#45;&gt;Node5 -->
<g id="edge14" class="edge"><title>Node14&#45;&gt;Node5</title>
<path fill="none" stroke="midnightblue" d="M576.275,-173.975C541.897,-163.592 483.69,-146.012 445.423,-134.454"/>
<polygon fill="midnightblue" stroke="midnightblue" points="446.258,-131.05 435.673,-131.509 444.234,-137.751 446.258,-131.05"/>
</g>
<!-- Node15 -->
<g id="node15" class="node"><title>Node15</title>
<polygon fill="white" stroke="#bfbfbf" points="623.5,-112.5 623.5,-131.5 691.5,-131.5 691.5,-112.5 623.5,-112.5"/>
<text text-anchor="middle" x="657.5" y="-119.5" font-family="Helvetica,sans-Serif" font-size="10.00">Eigen/Core</text>
</g>
<!-- Node14&#45;&gt;Node15 -->
<g id="edge15" class="edge"><title>Node14&#45;&gt;Node15</title>
<path fill="none" stroke="midnightblue" d="M612.094,-173.975C620.201,-164.873 633.235,-150.241 643.263,-138.983"/>
<polygon fill="midnightblue" stroke="midnightblue" points="645.883,-141.304 649.92,-131.509 640.656,-136.648 645.883,-141.304"/>
</g>
<!-- Node16 -->
<g id="node16" class="node"><title>Node16</title>
<polygon fill="white" stroke="#bfbfbf" points="762.5,-112.5 762.5,-131.5 856.5,-131.5 856.5,-112.5 762.5,-112.5"/>
<text text-anchor="middle" x="809.5" y="-119.5" font-family="Helvetica,sans-Serif" font-size="10.00">Eigen/Geometry</text>
</g>
<!-- Node14&#45;&gt;Node16 -->
<g id="edge16" class="edge"><title>Node14&#45;&gt;Node16</title>
<path fill="none" stroke="midnightblue" d="M633.872,-173.975C669.797,-163.548 730.732,-145.862 770.544,-134.307"/>
<polygon fill="midnightblue" stroke="midnightblue" points="771.555,-137.658 780.183,-131.509 769.604,-130.935 771.555,-137.658"/>
</g>
<!-- Node17 -->
<g id="node17" class="node"><title>Node17</title>
<polygon fill="white" stroke="#bfbfbf" points="991.5,-112.5 991.5,-131.5 1071.5,-131.5 1071.5,-112.5 991.5,-112.5"/>
<text text-anchor="middle" x="1031.5" y="-119.5" font-family="Helvetica,sans-Serif" font-size="10.00">Eigen/Sparse</text>
</g>
<!-- Node14&#45;&gt;Node17 -->
<g id="edge17" class="edge"><title>Node14&#45;&gt;Node17</title>
<path fill="none" stroke="midnightblue" d="M662.532,-174.414C746.768,-162.676 901.527,-141.111 981.19,-130.01"/>
<polygon fill="midnightblue" stroke="midnightblue" points="982.032,-133.427 991.453,-128.58 981.066,-126.494 982.032,-133.427"/>
</g>
<!-- Node18&#45;&gt;Node3 -->
<g id="edge23" class="edge"><title>Node18&#45;&gt;Node3</title>
<path fill="none" stroke="midnightblue" d="M261.317,-291.444C238.072,-282.478 201.351,-268.314 175.085,-258.183"/>
<polygon fill="midnightblue" stroke="midnightblue" points="176.169,-254.85 165.58,-254.516 173.65,-261.381 176.169,-254.85"/>
</g>
<!-- Node18&#45;&gt;Node5 -->
<g id="edge24" class="edge"><title>Node18&#45;&gt;Node5</title>
<path fill="none" stroke="midnightblue" d="M283.203,-291.194C282.894,-268.265 285.075,-205.867 315.5,-168 327.904,-152.563 346.928,-142.04 364.465,-135.078"/>
<polygon fill="midnightblue" stroke="midnightblue" points="365.827,-138.306 374.003,-131.568 363.409,-131.737 365.827,-138.306"/>
</g>
<!-- Node19 -->
<g id="node19" class="node"><title>Node19</title>
<g id="a_node19"><a xlink:href="Index_8hpp.html" target="_top" xlink:title="Core/Utils/Index.hpp">
<polygon fill="white" stroke="black" points="325,-235.5 325,-254.5 438,-254.5 438,-235.5 325,-235.5"/>
<text text-anchor="middle" x="381.5" y="-242.5" font-family="Helvetica,sans-Serif" font-size="10.00">Core/Utils/Index.hpp</text>
</a>
</g>
</g>
<!-- Node18&#45;&gt;Node19 -->
<g id="edge25" class="edge"><title>Node18&#45;&gt;Node19</title>
<path fill="none" stroke="midnightblue" d="M299.245,-291.324C314.819,-282.743 338.877,-269.486 356.959,-259.522"/>
<polygon fill="midnightblue" stroke="midnightblue" points="358.724,-262.546 365.794,-254.655 355.346,-256.415 358.724,-262.546"/>
</g>
<!-- Node19&#45;&gt;Node20 -->
<g id="edge26" class="edge"><title>Node19&#45;&gt;Node20</title>
<path fill="none" stroke="midnightblue" d="M394.108,-235.475C408.223,-225.931 431.331,-210.307 448.249,-198.868"/>
<polygon fill="midnightblue" stroke="midnightblue" points="450.591,-201.51 456.915,-193.009 446.671,-195.711 450.591,-201.51"/>
</g>
<!-- Node21 -->
<g id="node21" class="node"><title>Node21</title>
<g id="a_node21"><a xlink:href="Index_8inl.html" target="_top" xlink:title="Core/Utils/Index.inl">
<polygon fill="white" stroke="black" points="325,-174 325,-193 430,-193 430,-174 325,-174"/>
<text text-anchor="middle" x="377.5" y="-181" font-family="Helvetica,sans-Serif" font-size="10.00">Core/Utils/Index.inl</text>
</a>
</g>
</g>
<!-- Node19&#45;&gt;Node21 -->
<g id="edge27" class="edge"><title>Node19&#45;&gt;Node21</title>
<path fill="none" stroke="midnightblue" d="M380.927,-235.475C380.363,-227.08 379.482,-213.981 378.755,-203.163"/>
<polygon fill="midnightblue" stroke="midnightblue" points="382.235,-202.752 378.072,-193.009 375.251,-203.221 382.235,-202.752"/>
</g>
<!-- Node22&#45;&gt;Node2 -->
<g id="edge29" class="edge"><title>Node22&#45;&gt;Node2</title>
<path fill="none" stroke="midnightblue" d="M450.631,-310.751C452.157,-317.858 452.604,-328.136 451.972,-337.101"/>
<polygon fill="midnightblue" stroke="midnightblue" points="448.493,-336.713 450.666,-347.083 455.434,-337.622 448.493,-336.713"/>
</g>
<!-- Node23&#45;&gt;Node1 -->
<g id="edge34" class="edge"><title>Node23&#45;&gt;Node1</title>
<path fill="none" stroke="midnightblue" d="M777.761,-366.652C761.784,-374.95 734.766,-387.859 709.863,-399.228"/>
<polygon fill="midnightblue" stroke="midnightblue" points="708.111,-396.18 700.45,-403.498 711.003,-402.555 708.111,-396.18"/>
</g>
<!-- Node24 -->
<g id="node24" class="node"><title>Node24</title>
<g id="a_node24"><a xlink:href="LinearAlgebra_8hpp.html" target="_top" xlink:title="Core/Math/LinearAlgebra.hpp">
<polygon fill="white" stroke="black" points="832.5,-235.5 832.5,-254.5 988.5,-254.5 988.5,-235.5 832.5,-235.5"/>
<text text-anchor="middle" x="910.5" y="-242.5" font-family="Helvetica,sans-Serif" font-size="10.00">Core/Math/LinearAlgebra.hpp</text>
</a>
</g>
</g>
<!-- Node23&#45;&gt;Node24 -->
<g id="edge35" class="edge"><title>Node23&#45;&gt;Node24</title>
<path fill="none" stroke="midnightblue" d="M800.838,-347.368C820.911,-328.814 868.403,-284.913 893.799,-261.438"/>
<polygon fill="midnightblue" stroke="midnightblue" points="896.238,-263.95 901.206,-254.591 891.487,-258.809 896.238,-263.95"/>
</g>
<!-- Node24&#45;&gt;Node5 -->
<g id="edge36" class="edge"><title>Node24&#45;&gt;Node5</title>
<path fill="none" stroke="midnightblue" d="M832.252,-236.947C792.257,-230.909 743.856,-219.721 704.5,-199 686.694,-189.625 689.518,-176.961 671.5,-168 606.443,-135.646 522.436,-126.024 466.858,-123.437"/>
<polygon fill="midnightblue" stroke="midnightblue" points="466.955,-119.938 456.822,-123.032 466.672,-126.932 466.955,-119.938"/>
</g>
<!-- Node24&#45;&gt;Node14 -->
<g id="edge48" class="edge"><title>Node24&#45;&gt;Node14</title>
<path fill="none" stroke="midnightblue" d="M865.618,-235.49C818.496,-226.526 742.257,-211.944 676.5,-199 670.178,-197.756 663.547,-196.437 656.974,-195.123"/>
<polygon fill="midnightblue" stroke="midnightblue" points="657.241,-191.607 646.748,-193.072 655.864,-198.47 657.241,-191.607"/>
</g>
<!-- Node24&#45;&gt;Node15 -->
<g id="edge37" class="edge"><title>Node24&#45;&gt;Node15</title>
<path fill="none" stroke="midnightblue" d="M857.691,-235.432C824.683,-228.649 782.037,-217.214 747.5,-199 731.7,-190.668 695.558,-158.32 674.191,-138.611"/>
<polygon fill="midnightblue" stroke="midnightblue" points="676.51,-135.988 666.799,-131.752 671.749,-141.12 676.51,-135.988"/>
</g>
<!-- Node24&#45;&gt;Node16 -->
<g id="edge38" class="edge"><title>Node24&#45;&gt;Node16</title>
<path fill="none" stroke="midnightblue" d="M988.731,-243.715C1079.66,-240.737 1211.07,-226.625 1159.5,-168 1140.51,-146.413 961.188,-132.289 866.872,-126.29"/>
<polygon fill="midnightblue" stroke="midnightblue" points="866.835,-122.781 856.636,-125.649 866.398,-129.767 866.835,-122.781"/>
</g>
<!-- Node24&#45;&gt;Node17 -->
<g id="edge39" class="edge"><title>Node24&#45;&gt;Node17</title>
<path fill="none" stroke="midnightblue" d="M988.672,-241.719C1058.9,-237.826 1154.54,-227.318 1178.5,-199 1209.88,-161.911 1135.66,-140.66 1081.66,-130.506"/>
<polygon fill="midnightblue" stroke="midnightblue" points="1081.97,-127.005 1071.51,-128.679 1080.73,-133.894 1081.97,-127.005"/>
</g>
<!-- Node25 -->
<g id="node25" class="node"><title>Node25</title>
<polygon fill="white" stroke="#bfbfbf" points="757,-174 757,-193 820,-193 820,-174 757,-174"/>
<text text-anchor="middle" x="788.5" y="-181" font-family="Helvetica,sans-Serif" font-size="10.00">functional</text>
</g>
<!-- Node24&#45;&gt;Node25 -->
<g id="edge40" class="edge"><title>Node24&#45;&gt;Node25</title>
<path fill="none" stroke="midnightblue" d="M893.02,-235.475C872.637,-225.534 838.725,-208.995 815.075,-197.461"/>
<polygon fill="midnightblue" stroke="midnightblue" points="816.469,-194.247 805.947,-193.009 813.401,-200.538 816.469,-194.247"/>
</g>
<!-- Node26 -->
<g id="node26" class="node"><title>Node26</title>
<polygon fill="white" stroke="#bfbfbf" points="838,-168.5 838,-198.5 983,-198.5 983,-168.5 838,-168.5"/>
<text text-anchor="start" x="846" y="-186.5" font-family="Helvetica,sans-Serif" font-size="10.00">unsupported/Eigen/Aligned</text>
<text text-anchor="middle" x="910.5" y="-175.5" font-family="Helvetica,sans-Serif" font-size="10.00">Vector3</text>
</g>
<!-- Node24&#45;&gt;Node26 -->
<g id="edge41" class="edge"><title>Node24&#45;&gt;Node26</title>
<path fill="none" stroke="midnightblue" d="M910.5,-235.475C910.5,-228.471 910.5,-218.192 910.5,-208.696"/>
<polygon fill="midnightblue" stroke="midnightblue" points="914,-208.523 910.5,-198.523 907,-208.523 914,-208.523"/>
</g>
<!-- Node27 -->
<g id="node27" class="node"><title>Node27</title>
<g id="a_node27"><a xlink:href="Math_8hpp.html" target="_top" xlink:title="Core/Math/Math.hpp">
<polygon fill="white" stroke="black" points="1243.5,-174 1243.5,-193 1357.5,-193 1357.5,-174 1243.5,-174"/>
<text text-anchor="middle" x="1300.5" y="-181" font-family="Helvetica,sans-Serif" font-size="10.00">Core/Math/Math.hpp</text>
</a>
</g>
</g>
<!-- Node24&#45;&gt;Node27 -->
<g id="edge42" class="edge"><title>Node24&#45;&gt;Node27</title>
<path fill="none" stroke="midnightblue" d="M979.763,-235.474C1044.51,-227.21 1143.79,-213.782 1229.5,-199 1236.33,-197.822 1243.51,-196.479 1250.57,-195.098"/>
<polygon fill="midnightblue" stroke="midnightblue" points="1251.66,-198.45 1260.78,-193.06 1250.28,-191.586 1251.66,-198.45"/>
</g>
<!-- Node31 -->
<g id="node31" class="node"><title>Node31</title>
<g id="a_node31"><a xlink:href="LinearAlgebra_8inl.html" target="_top" xlink:title="Core/Math/LinearAlgebra.inl">
<polygon fill="white" stroke="black" points="1001,-174 1001,-193 1150,-193 1150,-174 1001,-174"/>
<text text-anchor="middle" x="1075.5" y="-181" font-family="Helvetica,sans-Serif" font-size="10.00">Core/Math/LinearAlgebra.inl</text>
</a>
</g>
</g>
<!-- Node24&#45;&gt;Node31 -->
<g id="edge49" class="edge"><title>Node24&#45;&gt;Node31</title>
<path fill="none" stroke="midnightblue" d="M929.24,-235.475C955.543,-225.18 1003.51,-207.81 1037.41,-196.25"/>
<polygon fill="midnightblue" stroke="midnightblue" points="1038.65,-199.526 1047.01,-193.009 1036.41,-192.894 1038.65,-199.526"/>
</g>
<!-- Node27&#45;&gt;Node5 -->
<g id="edge43" class="edge"><title>Node27&#45;&gt;Node5</title>
<path fill="none" stroke="midnightblue" d="M1243.27,-176.054C1217.66,-173.315 1187.09,-170.243 1159.5,-168 902.107,-147.074 594.41,-131.658 467.125,-125.701"/>
<polygon fill="midnightblue" stroke="midnightblue" points="466.975,-122.19 456.823,-125.221 466.649,-129.183 466.975,-122.19"/>
</g>
<!-- Node28 -->
<g id="node28" class="node"><title>Node28</title>
<polygon fill="white" stroke="#bfbfbf" points="1148.5,-112.5 1148.5,-131.5 1210.5,-131.5 1210.5,-112.5 1148.5,-112.5"/>
<text text-anchor="middle" x="1179.5" y="-119.5" font-family="Helvetica,sans-Serif" font-size="10.00">algorithm</text>
</g>
<!-- Node27&#45;&gt;Node28 -->
<g id="edge44" class="edge"><title>Node27&#45;&gt;Node28</title>
<path fill="none" stroke="midnightblue" d="M1283.16,-173.975C1262.95,-164.034 1229.31,-147.495 1205.86,-135.961"/>
<polygon fill="midnightblue" stroke="midnightblue" points="1207.32,-132.781 1196.8,-131.509 1204.23,-139.063 1207.32,-132.781"/>
</g>
<!-- Node29 -->
<g id="node29" class="node"><title>Node29</title>
<polygon fill="white" stroke="#bfbfbf" points="1229,-112.5 1229,-131.5 1276,-131.5 1276,-112.5 1229,-112.5"/>
<text text-anchor="middle" x="1252.5" y="-119.5" font-family="Helvetica,sans-Serif" font-size="10.00">cmath</text>
</g>
<!-- Node27&#45;&gt;Node29 -->
<g id="edge45" class="edge"><title>Node27&#45;&gt;Node29</title>
<path fill="none" stroke="midnightblue" d="M1293.62,-173.975C1286.35,-164.962 1274.7,-150.525 1265.66,-139.312"/>
<polygon fill="midnightblue" stroke="midnightblue" points="1268.37,-137.095 1259.36,-131.509 1262.92,-141.49 1268.37,-137.095"/>
</g>
<!-- Node30 -->
<g id="node30" class="node"><title>Node30</title>
<g id="a_node30"><a xlink:href="Math_8inl.html" target="_top" xlink:title="Core/Math/Math.inl">
<polygon fill="white" stroke="black" points="1294,-112.5 1294,-131.5 1401,-131.5 1401,-112.5 1294,-112.5"/>
<text text-anchor="middle" x="1347.5" y="-119.5" font-family="Helvetica,sans-Serif" font-size="10.00">Core/Math/Math.inl</text>
</a>
</g>
</g>
<!-- Node27&#45;&gt;Node30 -->
<g id="edge46" class="edge"><title>Node27&#45;&gt;Node30</title>
<path fill="none" stroke="midnightblue" d="M1302.33,-173.975C1307.54,-164.873 1318.71,-150.241 1328.81,-138.983"/>
<polygon fill="midnightblue" stroke="midnightblue" points="1331.55,-141.18 1335.88,-131.509 1326.47,-136.37 1331.55,-141.18"/>
</g>
<!-- Node30&#45;&gt;Node27 -->
<g id="edge47" class="edge"><title>Node30&#45;&gt;Node27</title>
<path fill="none" stroke="midnightblue" d="M1345.68,-131.509C1340.48,-140.604 1329.31,-155.236 1319.2,-166.497"/>
<polygon fill="midnightblue" stroke="midnightblue" points="1316.46,-164.304 1312.13,-173.975 1321.55,-169.113 1316.46,-164.304"/>
</g>
<!-- Node31&#45;&gt;Node24 -->
<g id="edge50" class="edge"><title>Node31&#45;&gt;Node24</title>
<path fill="none" stroke="midnightblue" d="M1056.8,-193.009C1030.52,-203.297 982.555,-220.666 948.64,-232.232"/>
<polygon fill="midnightblue" stroke="midnightblue" points="947.395,-228.958 939.041,-235.475 949.635,-235.59 947.395,-228.958"/>
</g>
</g>
</svg>
