<?xml version="1.0" encoding="UTF-8" standalone="no"?>
<!DOCTYPE svg PUBLIC "-//W3C//DTD SVG 1.1//EN"
 "http://www.w3.org/Graphics/SVG/1.1/DTD/svg11.dtd">
<!-- Generated by graphviz version 2.38.0 (20140413.2041)
 -->
<!-- Title: /home/travis/build/STORM&#45;IRIT/Radium&#45;Engine/src/Engine/Renderer/RenderObject/Primitives/DrawPrimitives.hpp Pages: 1 -->
<svg width="1083pt" height="408pt"
 viewBox="0.00 0.00 1082.50 408.00" xmlns="http://www.w3.org/2000/svg" xmlns:xlink="http://www.w3.org/1999/xlink">
<g id="graph0" class="graph" transform="scale(1 1) rotate(0) translate(4 404)">
<title>/home/travis/build/STORM&#45;IRIT/Radium&#45;Engine/src/Engine/Renderer/RenderObject/Primitives/DrawPrimitives.hpp</title>
<polygon fill="white" stroke="none" points="-4,4 -4,-404 1078.5,-404 1078.5,4 -4,4"/>
<!-- Node1 -->
<g id="node1" class="node"><title>Node1</title>
<polygon fill="#bfbfbf" stroke="black" points="592.5,-347.5 592.5,-399.5 774.5,-399.5 774.5,-347.5 592.5,-347.5"/>
<text text-anchor="start" x="600.5" y="-387.5" font-family="Helvetica,sans-Serif" font-size="10.00">/home/travis/build</text>
<text text-anchor="start" x="600.5" y="-376.5" font-family="Helvetica,sans-Serif" font-size="10.00">/STORM&#45;IRIT/Radium&#45;Engine</text>
<text text-anchor="start" x="600.5" y="-365.5" font-family="Helvetica,sans-Serif" font-size="10.00">/src/Engine/Renderer/RenderObject</text>
<text text-anchor="middle" x="683.5" y="-354.5" font-family="Helvetica,sans-Serif" font-size="10.00">/Primitives/DrawPrimitives.hpp</text>
</g>
<!-- Node2 -->
<g id="node2" class="node"><title>Node2</title>
<g id="a_node2"><a xlink:href="RaEngine_8hpp.html" target="_top" xlink:title="Engine/RaEngine.hpp">
<polygon fill="white" stroke="black" points="0,-235.5 0,-254.5 117,-254.5 117,-235.5 0,-235.5"/>
<text text-anchor="middle" x="58.5" y="-242.5" font-family="Helvetica,sans-Serif" font-size="10.00">Engine/RaEngine.hpp</text>
</a>
</g>
</g>
<!-- Node1&#45;&gt;Node2 -->
<g id="edge1" class="edge"><title>Node1&#45;&gt;Node2</title>
<path fill="none" stroke="midnightblue" d="M592.285,-354.038C459.355,-327.133 216.708,-278.021 110.554,-256.536"/>
<polygon fill="midnightblue" stroke="midnightblue" points="111.211,-253.098 100.715,-254.544 109.822,-259.959 111.211,-253.098"/>
</g>
<!-- Node9 -->
<g id="node9" class="node"><title>Node9</title>
<g id="a_node9"><a xlink:href="Obb_8hpp.html" target="_top" xlink:title="Core/Geometry/Obb.hpp">
<polygon fill="white" stroke="black" points="740.5,-174 740.5,-193 874.5,-193 874.5,-174 740.5,-174"/>
<text text-anchor="middle" x="807.5" y="-181" font-family="Helvetica,sans-Serif" font-size="10.00">Core/Geometry/Obb.hpp</text>
</a>
</g>
</g>
<!-- Node1&#45;&gt;Node9 -->
<g id="edge8" class="edge"><title>Node1&#45;&gt;Node9</title>
<path fill="none" stroke="midnightblue" d="M686.065,-347.239C690.186,-317.652 700.644,-268.439 726.5,-235 739.295,-218.452 759.165,-205.945 776.023,-197.517"/>
<polygon fill="midnightblue" stroke="midnightblue" points="777.978,-200.465 785.524,-193.027 774.987,-194.136 777.978,-200.465"/>
</g>
<!-- Node13 -->
<g id="node13" class="node"><title>Node13</title>
<g id="a_node13"><a xlink:href="Spline_8hpp.html" target="_top" xlink:title="Core/Geometry/Spline.hpp">
<polygon fill="white" stroke="black" points="402,-291.5 402,-310.5 545,-310.5 545,-291.5 402,-291.5"/>
<text text-anchor="middle" x="473.5" y="-298.5" font-family="Helvetica,sans-Serif" font-size="10.00">Core/Geometry/Spline.hpp</text>
</a>
</g>
</g>
<!-- Node1&#45;&gt;Node13 -->
<g id="edge13" class="edge"><title>Node1&#45;&gt;Node13</title>
<path fill="none" stroke="midnightblue" d="M608.871,-347.446C574.642,-335.955 535.702,-322.882 508.401,-313.717"/>
<polygon fill="midnightblue" stroke="midnightblue" points="509.493,-310.392 498.899,-310.527 507.266,-317.028 509.493,-310.392"/>
</g>
<!-- Node18 -->
<g id="node18" class="node"><title>Node18</title>
<g id="a_node18"><a xlink:href="Types_8hpp.html" target="_top" xlink:title="Core/Math/Types.hpp">
<polygon fill="white" stroke="black" points="606.5,-174 606.5,-193 722.5,-193 722.5,-174 606.5,-174"/>
<text text-anchor="middle" x="664.5" y="-181" font-family="Helvetica,sans-Serif" font-size="10.00">Core/Math/Types.hpp</text>
</a>
</g>
</g>
<!-- Node1&#45;&gt;Node18 -->
<g id="edge36" class="edge"><title>Node1&#45;&gt;Node18</title>
<path fill="none" stroke="midnightblue" d="M680.938,-347.145C677.078,-308.952 669.858,-237.514 666.418,-203.475"/>
<polygon fill="midnightblue" stroke="midnightblue" points="669.858,-202.708 665.37,-193.111 662.894,-203.412 669.858,-202.708"/>
</g>
<!-- Node25 -->
<g id="node25" class="node"><title>Node25</title>
<g id="a_node25"><a xlink:href="Color_8hpp.html" target="_top" xlink:title="Core/Utils/Color.hpp">
<polygon fill="white" stroke="black" points="893,-174 893,-193 1004,-193 1004,-174 893,-174"/>
<text text-anchor="middle" x="948.5" y="-181" font-family="Helvetica,sans-Serif" font-size="10.00">Core/Utils/Color.hpp</text>
</a>
</g>
</g>
<!-- Node1&#45;&gt;Node25 -->
<g id="edge37" class="edge"><title>Node1&#45;&gt;Node25</title>
<path fill="none" stroke="midnightblue" d="M703.371,-347.411C717.777,-330.229 738.367,-307.63 759.5,-291 811.394,-250.162 880.86,-215.307 919.486,-197.395"/>
<polygon fill="midnightblue" stroke="midnightblue" points="921.433,-200.353 929.067,-193.007 918.518,-193.989 921.433,-200.353"/>
</g>
<!-- Node27 -->
<g id="node27" class="node"><title>Node27</title>
<polygon fill="white" stroke="#bfbfbf" points="769,-291.5 769,-310.5 826,-310.5 826,-291.5 769,-291.5"/>
<text text-anchor="middle" x="797.5" y="-298.5" font-family="Helvetica,sans-Serif" font-size="10.00">memory</text>
</g>
<!-- Node1&#45;&gt;Node27 -->
<g id="edge42" class="edge"><title>Node1&#45;&gt;Node27</title>
<path fill="none" stroke="midnightblue" d="M724.013,-347.446C741.128,-336.862 760.412,-324.936 774.93,-315.958"/>
<polygon fill="midnightblue" stroke="midnightblue" points="777.048,-318.763 783.712,-310.527 773.366,-312.81 777.048,-318.763"/>
</g>
<!-- Node3 -->
<g id="node3" class="node"><title>Node3</title>
<g id="a_node3"><a xlink:href="CoreMacros_8hpp.html" target="_top" xlink:title="Core/CoreMacros.hpp">
<polygon fill="white" stroke="black" points="288.5,-56.5 288.5,-75.5 408.5,-75.5 408.5,-56.5 288.5,-56.5"/>
<text text-anchor="middle" x="348.5" y="-63.5" font-family="Helvetica,sans-Serif" font-size="10.00">Core/CoreMacros.hpp</text>
</a>
</g>
</g>
<!-- Node2&#45;&gt;Node3 -->
<g id="edge2" class="edge"><title>Node2&#45;&gt;Node3</title>
<path fill="none" stroke="midnightblue" d="M59.4208,-235.251C62.4304,-211.347 74.2309,-144.549 114.5,-112 139.249,-91.9952 218.765,-79.7825 278.282,-73.2213"/>
<polygon fill="midnightblue" stroke="midnightblue" points="278.826,-76.6832 288.396,-72.1389 278.081,-69.723 278.826,-76.6832"/>
</g>
<!-- Node4 -->
<g id="node4" class="node"><title>Node4</title>
<polygon fill="white" stroke="#bfbfbf" points="185.5,-0.5 185.5,-19.5 237.5,-19.5 237.5,-0.5 185.5,-0.5"/>
<text text-anchor="middle" x="211.5" y="-7.5" font-family="Helvetica,sans-Serif" font-size="10.00">cassert</text>
</g>
<!-- Node3&#45;&gt;Node4 -->
<g id="edge3" class="edge"><title>Node3&#45;&gt;Node4</title>
<path fill="none" stroke="midnightblue" d="M326.792,-56.4435C304.145,-47.5171 268.428,-33.4387 242.748,-23.3168"/>
<polygon fill="midnightblue" stroke="midnightblue" points="243.693,-19.9273 233.106,-19.5164 241.126,-26.4397 243.693,-19.9273"/>
</g>
<!-- Node5 -->
<g id="node5" class="node"><title>Node5</title>
<polygon fill="white" stroke="#bfbfbf" points="256,-0.5 256,-19.5 301,-19.5 301,-0.5 256,-0.5"/>
<text text-anchor="middle" x="278.5" y="-7.5" font-family="Helvetica,sans-Serif" font-size="10.00">cstdio</text>
</g>
<!-- Node3&#45;&gt;Node5 -->
<g id="edge4" class="edge"><title>Node3&#45;&gt;Node5</title>
<path fill="none" stroke="midnightblue" d="M337.253,-56.324C326.703,-48.1849 310.699,-35.8395 298.058,-26.0874"/>
<polygon fill="midnightblue" stroke="midnightblue" points="300.007,-23.1707 289.951,-19.8339 295.731,-28.7132 300.007,-23.1707"/>
</g>
<!-- Node6 -->
<g id="node6" class="node"><title>Node6</title>
<polygon fill="white" stroke="#bfbfbf" points="319,-0.5 319,-19.5 378,-19.5 378,-0.5 319,-0.5"/>
<text text-anchor="middle" x="348.5" y="-7.5" font-family="Helvetica,sans-Serif" font-size="10.00">iostream</text>
</g>
<!-- Node3&#45;&gt;Node6 -->
<g id="edge5" class="edge"><title>Node3&#45;&gt;Node6</title>
<path fill="none" stroke="midnightblue" d="M348.5,-56.083C348.5,-49.0059 348.5,-38.8611 348.5,-29.9865"/>
<polygon fill="midnightblue" stroke="midnightblue" points="352,-29.751 348.5,-19.7511 345,-29.7511 352,-29.751"/>
</g>
<!-- Node7 -->
<g id="node7" class="node"><title>Node7</title>
<polygon fill="white" stroke="#bfbfbf" points="396.5,-0.5 396.5,-19.5 452.5,-19.5 452.5,-0.5 396.5,-0.5"/>
<text text-anchor="middle" x="424.5" y="-7.5" font-family="Helvetica,sans-Serif" font-size="10.00">sstream</text>
</g>
<!-- Node3&#45;&gt;Node7 -->
<g id="edge6" class="edge"><title>Node3&#45;&gt;Node7</title>
<path fill="none" stroke="midnightblue" d="M360.711,-56.324C372.276,-48.1066 389.875,-35.6017 403.661,-25.8069"/>
<polygon fill="midnightblue" stroke="midnightblue" points="405.943,-28.4791 412.067,-19.8339 401.888,-22.7729 405.943,-28.4791"/>
</g>
<!-- Node8 -->
<g id="node8" class="node"><title>Node8</title>
<polygon fill="white" stroke="#bfbfbf" points="470.5,-0.5 470.5,-19.5 518.5,-19.5 518.5,-0.5 470.5,-0.5"/>
<text text-anchor="middle" x="494.5" y="-7.5" font-family="Helvetica,sans-Serif" font-size="10.00">thread</text>
</g>
<!-- Node3&#45;&gt;Node8 -->
<g id="edge7" class="edge"><title>Node3&#45;&gt;Node8</title>
<path fill="none" stroke="midnightblue" d="M371.634,-56.4435C395.982,-47.4381 434.507,-33.1891 461.923,-23.049"/>
<polygon fill="midnightblue" stroke="midnightblue" points="463.309,-26.2681 471.474,-19.5164 460.881,-19.7028 463.309,-26.2681"/>
</g>
<!-- Node10 -->
<g id="node10" class="node"><title>Node10</title>
<g id="a_node10"><a xlink:href="RaCore_8hpp.html" target="_top" xlink:title="Core/RaCore.hpp">
<polygon fill="white" stroke="black" points="299.5,-112.5 299.5,-131.5 397.5,-131.5 397.5,-112.5 299.5,-112.5"/>
<text text-anchor="middle" x="348.5" y="-119.5" font-family="Helvetica,sans-Serif" font-size="10.00">Core/RaCore.hpp</text>
</a>
</g>
</g>
<!-- Node9&#45;&gt;Node10 -->
<g id="edge9" class="edge"><title>Node9&#45;&gt;Node10</title>
<path fill="none" stroke="midnightblue" d="M765.788,-173.934C754.676,-171.818 742.658,-169.68 731.5,-168 591.019,-146.852 552.287,-150.945 407.665,-132.097"/>
<polygon fill="midnightblue" stroke="midnightblue" points="407.898,-128.598 397.526,-130.761 406.983,-135.538 407.898,-128.598"/>
</g>
<!-- Node11 -->
<g id="node11" class="node"><title>Node11</title>
<polygon fill="white" stroke="#bfbfbf" points="784.5,-112.5 784.5,-131.5 852.5,-131.5 852.5,-112.5 784.5,-112.5"/>
<text text-anchor="middle" x="818.5" y="-119.5" font-family="Helvetica,sans-Serif" font-size="10.00">Eigen/Core</text>
</g>
<!-- Node9&#45;&gt;Node11 -->
<g id="edge11" class="edge"><title>Node9&#45;&gt;Node11</title>
<path fill="none" stroke="midnightblue" d="M809.076,-173.975C810.628,-165.58 813.05,-152.481 815.05,-141.663"/>
<polygon fill="midnightblue" stroke="midnightblue" points="818.551,-141.979 816.927,-131.509 811.667,-140.706 818.551,-141.979"/>
</g>
<!-- Node12 -->
<g id="node12" class="node"><title>Node12</title>
<polygon fill="white" stroke="#bfbfbf" points="870.5,-112.5 870.5,-131.5 964.5,-131.5 964.5,-112.5 870.5,-112.5"/>
<text text-anchor="middle" x="917.5" y="-119.5" font-family="Helvetica,sans-Serif" font-size="10.00">Eigen/Geometry</text>
</g>
<!-- Node9&#45;&gt;Node12 -->
<g id="edge12" class="edge"><title>Node9&#45;&gt;Node12</title>
<path fill="none" stroke="midnightblue" d="M823.26,-173.975C841.476,-164.122 871.673,-147.788 892.968,-136.27"/>
<polygon fill="midnightblue" stroke="midnightblue" points="894.638,-139.345 901.769,-131.509 891.308,-133.188 894.638,-139.345"/>
</g>
<!-- Node10&#45;&gt;Node3 -->
<g id="edge10" class="edge"><title>Node10&#45;&gt;Node3</title>
<path fill="none" stroke="midnightblue" d="M348.5,-112.083C348.5,-105.006 348.5,-94.8611 348.5,-85.9865"/>
<polygon fill="midnightblue" stroke="midnightblue" points="352,-85.751 348.5,-75.7511 345,-85.7511 352,-85.751"/>
</g>
<!-- Node13&#45;&gt;Node10 -->
<g id="edge26" class="edge"><title>Node13&#45;&gt;Node10</title>
<path fill="none" stroke="midnightblue" d="M468.11,-291.497C454.584,-270.276 417.899,-213.427 384.5,-168 377.462,-158.428 369.207,-148.053 362.379,-139.681"/>
<polygon fill="midnightblue" stroke="midnightblue" points="364.948,-137.294 355.89,-131.797 359.543,-141.743 364.948,-137.294"/>
</g>
<!-- Node14 -->
<g id="node14" class="node"><title>Node14</title>
<g id="a_node14"><a xlink:href="VectorArray_8hpp.html" target="_top" xlink:title="Core/Containers/VectorArray.hpp">
<polygon fill="white" stroke="black" points="224,-235.5 224,-254.5 397,-254.5 397,-235.5 224,-235.5"/>
<text text-anchor="middle" x="310.5" y="-242.5" font-family="Helvetica,sans-Serif" font-size="10.00">Core/Containers/VectorArray.hpp</text>
</a>
</g>
</g>
<!-- Node13&#45;&gt;Node14 -->
<g id="edge14" class="edge"><title>Node13&#45;&gt;Node14</title>
<path fill="none" stroke="midnightblue" d="M447.672,-291.444C420.251,-282.359 376.723,-267.939 346.068,-257.783"/>
<polygon fill="midnightblue" stroke="midnightblue" points="346.8,-254.339 336.207,-254.516 344.599,-260.984 346.8,-254.339"/>
</g>
<!-- Node17 -->
<g id="node17" class="node"><title>Node17</title>
<polygon fill="white" stroke="#bfbfbf" points="124,-112.5 124,-131.5 171,-131.5 171,-112.5 124,-112.5"/>
<text text-anchor="middle" x="147.5" y="-119.5" font-family="Helvetica,sans-Serif" font-size="10.00">vector</text>
</g>
<!-- Node13&#45;&gt;Node17 -->
<g id="edge27" class="edge"><title>Node13&#45;&gt;Node17</title>
<path fill="none" stroke="midnightblue" d="M401.991,-293.36C336.568,-286.256 245.405,-273.459 214.5,-255 173.415,-230.46 156.65,-171.78 150.563,-141.61"/>
<polygon fill="midnightblue" stroke="midnightblue" points="153.969,-140.779 148.724,-131.574 147.084,-142.041 153.969,-140.779"/>
</g>
<!-- Node20 -->
<g id="node20" class="node"><title>Node20</title>
<g id="a_node20"><a xlink:href="Spline_8inl.html" target="_top" xlink:title="Core/Geometry/Spline.inl">
<polygon fill="white" stroke="black" points="453.5,-235.5 453.5,-254.5 589.5,-254.5 589.5,-235.5 453.5,-235.5"/>
<text text-anchor="middle" x="521.5" y="-242.5" font-family="Helvetica,sans-Serif" font-size="10.00">Core/Geometry/Spline.inl</text>
</a>
</g>
</g>
<!-- Node13&#45;&gt;Node20 -->
<g id="edge28" class="edge"><title>Node13&#45;&gt;Node20</title>
<path fill="none" stroke="midnightblue" d="M476.26,-291.083C481.644,-283.141 491.792,-271.335 501.253,-261.797"/>
<polygon fill="midnightblue" stroke="midnightblue" points="503.802,-264.202 508.59,-254.751 498.953,-259.154 503.802,-264.202"/>
</g>
<!-- Node14&#45;&gt;Node10 -->
<g id="edge24" class="edge"><title>Node14&#45;&gt;Node10</title>
<path fill="none" stroke="midnightblue" d="M328.889,-235.471C342.601,-227.997 360.315,-215.71 368.5,-199 377.744,-180.127 368.624,-156.451 359.892,-140.585"/>
<polygon fill="midnightblue" stroke="midnightblue" points="362.799,-138.626 354.672,-131.828 356.785,-142.21 362.799,-138.626"/>
</g>
<!-- Node15 -->
<g id="node15" class="node"><title>Node15</title>
<g id="a_node15"><a xlink:href="AlignedStdVector_8hpp.html" target="_top" xlink:title="Core/Containers/AlignedStd\lVector.hpp">
<polygon fill="white" stroke="black" points="211,-168.5 211,-198.5 360,-198.5 360,-168.5 211,-168.5"/>
<text text-anchor="start" x="219" y="-186.5" font-family="Helvetica,sans-Serif" font-size="10.00">Core/Containers/AlignedStd</text>
<text text-anchor="middle" x="285.5" y="-175.5" font-family="Helvetica,sans-Serif" font-size="10.00">Vector.hpp</text>
</a>
</g>
</g>
<!-- Node14&#45;&gt;Node15 -->
<g id="edge15" class="edge"><title>Node14&#45;&gt;Node15</title>
<path fill="none" stroke="midnightblue" d="M306.918,-235.475C303.88,-228.245 299.376,-217.525 295.281,-207.779"/>
<polygon fill="midnightblue" stroke="midnightblue" points="298.492,-206.386 291.392,-198.523 292.039,-209.098 298.492,-206.386"/>
</g>
<!-- Node14&#45;&gt;Node17 -->
<g id="edge25" class="edge"><title>Node14&#45;&gt;Node17</title>
<path fill="none" stroke="midnightblue" d="M276.96,-235.499C253.986,-228.466 223.765,-216.722 201.5,-199 181.386,-182.99 165.445,-157.592 156.24,-140.617"/>
<polygon fill="midnightblue" stroke="midnightblue" points="159.338,-138.988 151.619,-131.731 153.128,-142.218 159.338,-138.988"/>
</g>
<!-- Node14&#45;&gt;Node18 -->
<g id="edge19" class="edge"><title>Node14&#45;&gt;Node18</title>
<path fill="none" stroke="midnightblue" d="M365.023,-235.476C420.741,-226.679 509.738,-212.391 586.5,-199 593.953,-197.7 601.799,-196.29 609.526,-194.877"/>
<polygon fill="midnightblue" stroke="midnightblue" points="610.371,-198.281 619.572,-193.028 609.104,-191.396 610.371,-198.281"/>
</g>
<!-- Node15&#45;&gt;Node10 -->
<g id="edge16" class="edge"><title>Node15&#45;&gt;Node10</title>
<path fill="none" stroke="midnightblue" d="M300.43,-168.399C309.868,-159.486 322.08,-147.952 331.833,-138.741"/>
<polygon fill="midnightblue" stroke="midnightblue" points="334.466,-141.069 339.333,-131.658 329.66,-135.979 334.466,-141.069"/>
</g>
<!-- Node16 -->
<g id="node16" class="node"><title>Node16</title>
<polygon fill="white" stroke="#bfbfbf" points="189,-112.5 189,-131.5 282,-131.5 282,-112.5 189,-112.5"/>
<text text-anchor="middle" x="235.5" y="-119.5" font-family="Helvetica,sans-Serif" font-size="10.00">Eigen/StdVector</text>
</g>
<!-- Node15&#45;&gt;Node16 -->
<g id="edge17" class="edge"><title>Node15&#45;&gt;Node16</title>
<path fill="none" stroke="midnightblue" d="M273.651,-168.399C266.385,-159.753 257.048,-148.642 249.429,-139.576"/>
<polygon fill="midnightblue" stroke="midnightblue" points="251.888,-137.062 242.775,-131.658 246.529,-141.565 251.888,-137.062"/>
</g>
<!-- Node15&#45;&gt;Node17 -->
<g id="edge18" class="edge"><title>Node15&#45;&gt;Node17</title>
<path fill="none" stroke="midnightblue" d="M252.796,-168.399C229.745,-158.461 199.14,-145.265 176.868,-135.662"/>
<polygon fill="midnightblue" stroke="midnightblue" points="178.149,-132.403 167.58,-131.658 175.377,-138.831 178.149,-132.403"/>
</g>
<!-- Node18&#45;&gt;Node10 -->
<g id="edge20" class="edge"><title>Node18&#45;&gt;Node10</title>
<path fill="none" stroke="midnightblue" d="M619.225,-173.975C562.321,-163.261 464.714,-144.882 403.553,-133.366"/>
<polygon fill="midnightblue" stroke="midnightblue" points="404.166,-129.92 393.691,-131.509 402.871,-136.799 404.166,-129.92"/>
</g>
<!-- Node18&#45;&gt;Node11 -->
<g id="edge21" class="edge"><title>Node18&#45;&gt;Node11</title>
<path fill="none" stroke="midnightblue" d="M686.564,-173.975C712.867,-163.813 757.013,-146.756 786.925,-135.2"/>
<polygon fill="midnightblue" stroke="midnightblue" points="788.41,-138.378 796.476,-131.509 785.887,-131.848 788.41,-138.378"/>
</g>
<!-- Node18&#45;&gt;Node12 -->
<g id="edge22" class="edge"><title>Node18&#45;&gt;Node12</title>
<path fill="none" stroke="midnightblue" d="M700.749,-173.975C745.65,-163.415 822.206,-145.411 871.284,-133.869"/>
<polygon fill="midnightblue" stroke="midnightblue" points="872.385,-137.206 881.319,-131.509 870.783,-130.391 872.385,-137.206"/>
</g>
<!-- Node19 -->
<g id="node19" class="node"><title>Node19</title>
<polygon fill="white" stroke="#bfbfbf" points="686.5,-112.5 686.5,-131.5 766.5,-131.5 766.5,-112.5 686.5,-112.5"/>
<text text-anchor="middle" x="726.5" y="-119.5" font-family="Helvetica,sans-Serif" font-size="10.00">Eigen/Sparse</text>
</g>
<!-- Node18&#45;&gt;Node19 -->
<g id="edge23" class="edge"><title>Node18&#45;&gt;Node19</title>
<path fill="none" stroke="midnightblue" d="M673.383,-173.975C682.959,-164.785 698.411,-149.956 710.186,-138.656"/>
<polygon fill="midnightblue" stroke="midnightblue" points="712.842,-140.958 717.633,-131.509 707.995,-135.908 712.842,-140.958"/>
</g>
<!-- Node20&#45;&gt;Node13 -->
<g id="edge29" class="edge"><title>Node20&#45;&gt;Node13</title>
<path fill="none" stroke="midnightblue" d="M518.796,-254.834C513.417,-262.791 503.205,-274.673 493.696,-284.253"/>
<polygon fill="midnightblue" stroke="midnightblue" points="491.12,-281.875 486.327,-291.324 495.966,-286.926 491.12,-281.875"/>
</g>
<!-- Node21 -->
<g id="node21" class="node"><title>Node21</title>
<g id="a_node21"><a xlink:href="Math_8hpp.html" target="_top" xlink:title="Core/Math/Math.hpp">
<polygon fill="white" stroke="black" points="463.5,-174 463.5,-193 577.5,-193 577.5,-174 463.5,-174"/>
<text text-anchor="middle" x="520.5" y="-181" font-family="Helvetica,sans-Serif" font-size="10.00">Core/Math/Math.hpp</text>
</a>
</g>
</g>
<!-- Node20&#45;&gt;Node21 -->
<g id="edge30" class="edge"><title>Node20&#45;&gt;Node21</title>
<path fill="none" stroke="midnightblue" d="M521.357,-235.475C521.216,-227.08 520.995,-213.981 520.814,-203.163"/>
<polygon fill="midnightblue" stroke="midnightblue" points="524.311,-202.949 520.643,-193.009 517.312,-203.067 524.311,-202.949"/>
</g>
<!-- Node21&#45;&gt;Node10 -->
<g id="edge31" class="edge"><title>Node21&#45;&gt;Node10</title>
<path fill="none" stroke="midnightblue" d="M495.857,-173.975C466.225,-163.725 416.315,-146.459 382.898,-134.899"/>
<polygon fill="midnightblue" stroke="midnightblue" points="383.692,-131.471 373.098,-131.509 381.404,-138.086 383.692,-131.471"/>
</g>
<!-- Node22 -->
<g id="node22" class="node"><title>Node22</title>
<polygon fill="white" stroke="#bfbfbf" points="415.5,-112.5 415.5,-131.5 477.5,-131.5 477.5,-112.5 415.5,-112.5"/>
<text text-anchor="middle" x="446.5" y="-119.5" font-family="Helvetica,sans-Serif" font-size="10.00">algorithm</text>
</g>
<!-- Node21&#45;&gt;Node22 -->
<g id="edge32" class="edge"><title>Node21&#45;&gt;Node22</title>
<path fill="none" stroke="midnightblue" d="M509.898,-173.975C498.248,-164.608 479.314,-149.384 465.165,-138.008"/>
<polygon fill="midnightblue" stroke="midnightblue" points="467.069,-135.048 457.083,-131.509 462.683,-140.503 467.069,-135.048"/>
</g>
<!-- Node23 -->
<g id="node23" class="node"><title>Node23</title>
<polygon fill="white" stroke="#bfbfbf" points="496,-112.5 496,-131.5 543,-131.5 543,-112.5 496,-112.5"/>
<text text-anchor="middle" x="519.5" y="-119.5" font-family="Helvetica,sans-Serif" font-size="10.00">cmath</text>
</g>
<!-- Node21&#45;&gt;Node23 -->
<g id="edge33" class="edge"><title>Node21&#45;&gt;Node23</title>
<path fill="none" stroke="midnightblue" d="M520.357,-173.975C520.216,-165.58 519.995,-152.481 519.814,-141.663"/>
<polygon fill="midnightblue" stroke="midnightblue" points="523.311,-141.449 519.643,-131.509 516.312,-141.567 523.311,-141.449"/>
</g>
<!-- Node24 -->
<g id="node24" class="node"><title>Node24</title>
<g id="a_node24"><a xlink:href="Math_8inl.html" target="_top" xlink:title="Core/Math/Math.inl">
<polygon fill="white" stroke="black" points="561,-112.5 561,-131.5 668,-131.5 668,-112.5 561,-112.5"/>
<text text-anchor="middle" x="614.5" y="-119.5" font-family="Helvetica,sans-Serif" font-size="10.00">Core/Math/Math.inl</text>
</a>
</g>
</g>
<!-- Node21&#45;&gt;Node24 -->
<g id="edge34" class="edge"><title>Node21&#45;&gt;Node24</title>
<path fill="none" stroke="midnightblue" d="M529.067,-173.975C542.364,-164.211 567.556,-148.081 587.273,-136.581"/>
<polygon fill="midnightblue" stroke="midnightblue" points="589.21,-139.506 596.16,-131.509 585.74,-133.426 589.21,-139.506"/>
</g>
<!-- Node24&#45;&gt;Node21 -->
<g id="edge35" class="edge"><title>Node24&#45;&gt;Node21</title>
<path fill="none" stroke="midnightblue" d="M605.954,-131.509C592.67,-141.267 567.482,-157.396 547.759,-168.901"/>
<polygon fill="midnightblue" stroke="midnightblue" points="545.818,-165.978 538.868,-173.975 549.288,-172.058 545.818,-165.978"/>
</g>
<!-- Node25&#45;&gt;Node3 -->
<g id="edge38" class="edge"><title>Node25&#45;&gt;Node3</title>
<path fill="none" stroke="midnightblue" d="M956.776,-173.535C969.302,-158.887 989.955,-129.683 973.5,-112 936.371,-72.1018 574.391,-67.0933 418.895,-66.7998"/>
<polygon fill="midnightblue" stroke="midnightblue" points="418.514,-63.2994 408.51,-66.7867 418.505,-70.2994 418.514,-63.2994"/>
</g>
<!-- Node25&#45;&gt;Node11 -->
<g id="edge39" class="edge"><title>Node25&#45;&gt;Node11</title>
<path fill="none" stroke="midnightblue" d="M929.874,-173.975C908.057,-163.99 871.696,-147.348 846.483,-135.807"/>
<polygon fill="midnightblue" stroke="midnightblue" points="847.641,-132.488 837.091,-131.509 844.728,-138.853 847.641,-132.488"/>
</g>
<!-- Node25&#45;&gt;Node12 -->
<g id="edge40" class="edge"><title>Node25&#45;&gt;Node12</title>
<path fill="none" stroke="midnightblue" d="M944.058,-173.975C939.547,-165.315 932.426,-151.649 926.693,-140.645"/>
<polygon fill="midnightblue" stroke="midnightblue" points="929.658,-138.76 921.933,-131.509 923.45,-141.995 929.658,-138.76"/>
</g>
<!-- Node26 -->
<g id="node26" class="node"><title>Node26</title>
<polygon fill="white" stroke="#bfbfbf" points="1020.5,-112.5 1020.5,-131.5 1074.5,-131.5 1074.5,-112.5 1020.5,-112.5"/>
<text text-anchor="middle" x="1047.5" y="-119.5" font-family="Helvetica,sans-Serif" font-size="10.00">random</text>
</g>
<!-- Node25&#45;&gt;Node26 -->
<g id="edge41" class="edge"><title>Node25&#45;&gt;Node26</title>
<path fill="none" stroke="midnightblue" d="M962.684,-173.975C978.858,-164.255 1005.53,-148.227 1024.64,-136.737"/>
<polygon fill="midnightblue" stroke="midnightblue" points="1026.57,-139.66 1033.34,-131.509 1022.97,-133.661 1026.57,-139.66"/>
</g>
</g>
</svg>
