<?xml version="1.0" encoding="UTF-8" standalone="no"?>
<!DOCTYPE svg PUBLIC "-//W3C//DTD SVG 1.1//EN"
 "http://www.w3.org/Graphics/SVG/1.1/DTD/svg11.dtd">
<!-- Generated by graphviz version 2.38.0 (20140413.2041)
 -->
<!-- Title: /home/travis/build/STORM&#45;IRIT/Radium&#45;Engine/src/Core/Math/DualQuaternion.hpp Pages: 1 -->
<svg width="979pt" height="397pt"
 viewBox="0.00 0.00 978.50 397.00" xmlns="http://www.w3.org/2000/svg" xmlns:xlink="http://www.w3.org/1999/xlink">
<g id="graph0" class="graph" transform="scale(1 1) rotate(0) translate(4 393)">
<title>/home/travis/build/STORM&#45;IRIT/Radium&#45;Engine/src/Core/Math/DualQuaternion.hpp</title>
<polygon fill="white" stroke="none" points="-4,4 -4,-393 974.5,-393 974.5,4 -4,4"/>
<!-- Node1 -->
<g id="node1" class="node"><title>Node1</title>
<polygon fill="#bfbfbf" stroke="black" points="379.5,-347.5 379.5,-388.5 564.5,-388.5 564.5,-347.5 379.5,-347.5"/>
<text text-anchor="start" x="387.5" y="-376.5" font-family="Helvetica,sans-Serif" font-size="10.00">/home/travis/build</text>
<text text-anchor="start" x="387.5" y="-365.5" font-family="Helvetica,sans-Serif" font-size="10.00">/STORM&#45;IRIT/Radium&#45;Engine</text>
<text text-anchor="middle" x="472" y="-354.5" font-family="Helvetica,sans-Serif" font-size="10.00">/src/Core/Math/DualQuaternion.hpp</text>
</g>
<!-- Node2 -->
<g id="node2" class="node"><title>Node2</title>
<g id="a_node2"><a xlink:href="Types_8hpp.html" target="_top" xlink:title="Core/Math/Types.hpp">
<polygon fill="white" stroke="black" points="19,-174 19,-193 135,-193 135,-174 19,-174"/>
<text text-anchor="middle" x="77" y="-181" font-family="Helvetica,sans-Serif" font-size="10.00">Core/Math/Types.hpp</text>
</a>
</g>
</g>
<!-- Node1&#45;&gt;Node2 -->
<g id="edge1" class="edge"><title>Node1&#45;&gt;Node2</title>
<path fill="none" stroke="midnightblue" d="M429.728,-347.469C348.54,-309.958 172.808,-228.766 104.728,-197.311"/>
<polygon fill="midnightblue" stroke="midnightblue" points="106.035,-194.059 95.489,-193.042 103.099,-200.414 106.035,-194.059"/>
</g>
<!-- Node3 -->
<g id="node3" class="node"><title>Node3</title>
<g id="a_node3"><a xlink:href="RaCore_8hpp.html" target="_top" xlink:title="Core/RaCore.hpp">
<polygon fill="white" stroke="black" points="602,-112.5 602,-131.5 700,-131.5 700,-112.5 602,-112.5"/>
<text text-anchor="middle" x="651" y="-119.5" font-family="Helvetica,sans-Serif" font-size="10.00">Core/RaCore.hpp</text>
</a>
</g>
</g>
<!-- Node1&#45;&gt;Node3 -->
<g id="edge12" class="edge"><title>Node1&#45;&gt;Node3</title>
<path fill="none" stroke="midnightblue" d="M510.562,-347.359C526.985,-337.816 545.625,-325.308 560,-311 601.94,-269.253 608.512,-253.315 632,-199 640.08,-180.316 645.206,-157.501 648.071,-141.772"/>
<polygon fill="midnightblue" stroke="midnightblue" points="651.553,-142.175 649.767,-131.731 644.65,-141.009 651.553,-142.175"/>
</g>
<!-- Node13 -->
<g id="node13" class="node"><title>Node13</title>
<g id="a_node13"><a xlink:href="DualQuaternion_8inl.html" target="_top" xlink:title="Core/Math/DualQuaternion.inl">
<polygon fill="white" stroke="black" points="393,-291.5 393,-310.5 551,-310.5 551,-291.5 393,-291.5"/>
<text text-anchor="middle" x="472" y="-298.5" font-family="Helvetica,sans-Serif" font-size="10.00">Core/Math/DualQuaternion.inl</text>
</a>
</g>
</g>
<!-- Node1&#45;&gt;Node13 -->
<g id="edge13" class="edge"><title>Node1&#45;&gt;Node13</title>
<path fill="none" stroke="midnightblue" d="M465.755,-347.498C465.057,-338.969 465.083,-329.011 465.833,-320.59"/>
<polygon fill="midnightblue" stroke="midnightblue" points="469.303,-321.044 467.236,-310.652 462.372,-320.065 469.303,-321.044"/>
</g>
<!-- Node2&#45;&gt;Node3 -->
<g id="edge2" class="edge"><title>Node2&#45;&gt;Node3</title>
<path fill="none" stroke="midnightblue" d="M112.314,-173.995C122.493,-171.779 133.646,-169.574 144,-168 228.91,-155.095 477.186,-135.843 591.782,-127.323"/>
<polygon fill="midnightblue" stroke="midnightblue" points="592.07,-130.811 601.784,-126.581 591.553,-123.831 592.07,-130.811"/>
</g>
<!-- Node10 -->
<g id="node10" class="node"><title>Node10</title>
<polygon fill="white" stroke="#bfbfbf" points="0,-112.5 0,-131.5 68,-131.5 68,-112.5 0,-112.5"/>
<text text-anchor="middle" x="34" y="-119.5" font-family="Helvetica,sans-Serif" font-size="10.00">Eigen/Core</text>
</g>
<!-- Node2&#45;&gt;Node10 -->
<g id="edge9" class="edge"><title>Node2&#45;&gt;Node10</title>
<path fill="none" stroke="midnightblue" d="M70.8391,-173.975C64.3891,-165.05 54.0959,-150.807 46.0274,-139.643"/>
<polygon fill="midnightblue" stroke="midnightblue" points="48.8436,-137.564 40.1494,-131.509 43.1701,-141.664 48.8436,-137.564"/>
</g>
<!-- Node11 -->
<g id="node11" class="node"><title>Node11</title>
<polygon fill="white" stroke="#bfbfbf" points="164,-112.5 164,-131.5 258,-131.5 258,-112.5 164,-112.5"/>
<text text-anchor="middle" x="211" y="-119.5" font-family="Helvetica,sans-Serif" font-size="10.00">Eigen/Geometry</text>
</g>
<!-- Node2&#45;&gt;Node11 -->
<g id="edge10" class="edge"><title>Node2&#45;&gt;Node11</title>
<path fill="none" stroke="midnightblue" d="M96.1989,-173.975C118.787,-163.945 156.499,-147.2 182.501,-135.655"/>
<polygon fill="midnightblue" stroke="midnightblue" points="184.118,-138.766 191.837,-131.509 181.277,-132.369 184.118,-138.766"/>
</g>
<!-- Node12 -->
<g id="node12" class="node"><title>Node12</title>
<polygon fill="white" stroke="#bfbfbf" points="428,-112.5 428,-131.5 508,-131.5 508,-112.5 428,-112.5"/>
<text text-anchor="middle" x="468" y="-119.5" font-family="Helvetica,sans-Serif" font-size="10.00">Eigen/Sparse</text>
</g>
<!-- Node2&#45;&gt;Node12 -->
<g id="edge11" class="edge"><title>Node2&#45;&gt;Node12</title>
<path fill="none" stroke="midnightblue" d="M114.113,-173.948C123.812,-171.856 134.274,-169.725 144,-168 240.402,-150.899 353.905,-136.422 417.754,-128.791"/>
<polygon fill="midnightblue" stroke="midnightblue" points="418.427,-132.236 427.944,-127.581 417.601,-125.285 418.427,-132.236"/>
</g>
<!-- Node4 -->
<g id="node4" class="node"><title>Node4</title>
<g id="a_node4"><a xlink:href="CoreMacros_8hpp.html" target="_top" xlink:title="Core/CoreMacros.hpp">
<polygon fill="white" stroke="black" points="591,-56.5 591,-75.5 711,-75.5 711,-56.5 591,-56.5"/>
<text text-anchor="middle" x="651" y="-63.5" font-family="Helvetica,sans-Serif" font-size="10.00">Core/CoreMacros.hpp</text>
</a>
</g>
</g>
<!-- Node3&#45;&gt;Node4 -->
<g id="edge3" class="edge"><title>Node3&#45;&gt;Node4</title>
<path fill="none" stroke="midnightblue" d="M651,-112.083C651,-105.006 651,-94.8611 651,-85.9865"/>
<polygon fill="midnightblue" stroke="midnightblue" points="654.5,-85.751 651,-75.7511 647.5,-85.7511 654.5,-85.751"/>
</g>
<!-- Node5 -->
<g id="node5" class="node"><title>Node5</title>
<polygon fill="white" stroke="#bfbfbf" points="488,-0.5 488,-19.5 540,-19.5 540,-0.5 488,-0.5"/>
<text text-anchor="middle" x="514" y="-7.5" font-family="Helvetica,sans-Serif" font-size="10.00">cassert</text>
</g>
<!-- Node4&#45;&gt;Node5 -->
<g id="edge4" class="edge"><title>Node4&#45;&gt;Node5</title>
<path fill="none" stroke="midnightblue" d="M629.292,-56.4435C606.645,-47.5171 570.928,-33.4387 545.248,-23.3168"/>
<polygon fill="midnightblue" stroke="midnightblue" points="546.193,-19.9273 535.606,-19.5164 543.626,-26.4397 546.193,-19.9273"/>
</g>
<!-- Node6 -->
<g id="node6" class="node"><title>Node6</title>
<polygon fill="white" stroke="#bfbfbf" points="558.5,-0.5 558.5,-19.5 603.5,-19.5 603.5,-0.5 558.5,-0.5"/>
<text text-anchor="middle" x="581" y="-7.5" font-family="Helvetica,sans-Serif" font-size="10.00">cstdio</text>
</g>
<!-- Node4&#45;&gt;Node6 -->
<g id="edge5" class="edge"><title>Node4&#45;&gt;Node6</title>
<path fill="none" stroke="midnightblue" d="M639.753,-56.324C629.203,-48.1849 613.199,-35.8395 600.558,-26.0874"/>
<polygon fill="midnightblue" stroke="midnightblue" points="602.507,-23.1707 592.451,-19.8339 598.231,-28.7132 602.507,-23.1707"/>
</g>
<!-- Node7 -->
<g id="node7" class="node"><title>Node7</title>
<polygon fill="white" stroke="#bfbfbf" points="621.5,-0.5 621.5,-19.5 680.5,-19.5 680.5,-0.5 621.5,-0.5"/>
<text text-anchor="middle" x="651" y="-7.5" font-family="Helvetica,sans-Serif" font-size="10.00">iostream</text>
</g>
<!-- Node4&#45;&gt;Node7 -->
<g id="edge6" class="edge"><title>Node4&#45;&gt;Node7</title>
<path fill="none" stroke="midnightblue" d="M651,-56.083C651,-49.0059 651,-38.8611 651,-29.9865"/>
<polygon fill="midnightblue" stroke="midnightblue" points="654.5,-29.751 651,-19.7511 647.5,-29.7511 654.5,-29.751"/>
</g>
<!-- Node8 -->
<g id="node8" class="node"><title>Node8</title>
<polygon fill="white" stroke="#bfbfbf" points="699,-0.5 699,-19.5 755,-19.5 755,-0.5 699,-0.5"/>
<text text-anchor="middle" x="727" y="-7.5" font-family="Helvetica,sans-Serif" font-size="10.00">sstream</text>
</g>
<!-- Node4&#45;&gt;Node8 -->
<g id="edge7" class="edge"><title>Node4&#45;&gt;Node8</title>
<path fill="none" stroke="midnightblue" d="M663.211,-56.324C674.776,-48.1066 692.375,-35.6017 706.161,-25.8069"/>
<polygon fill="midnightblue" stroke="midnightblue" points="708.443,-28.4791 714.567,-19.8339 704.388,-22.7729 708.443,-28.4791"/>
</g>
<!-- Node9 -->
<g id="node9" class="node"><title>Node9</title>
<polygon fill="white" stroke="#bfbfbf" points="773,-0.5 773,-19.5 821,-19.5 821,-0.5 773,-0.5"/>
<text text-anchor="middle" x="797" y="-7.5" font-family="Helvetica,sans-Serif" font-size="10.00">thread</text>
</g>
<!-- Node4&#45;&gt;Node9 -->
<g id="edge8" class="edge"><title>Node4&#45;&gt;Node9</title>
<path fill="none" stroke="midnightblue" d="M674.134,-56.4435C698.482,-47.4381 737.007,-33.1891 764.423,-23.049"/>
<polygon fill="midnightblue" stroke="midnightblue" points="765.809,-26.2681 773.974,-19.5164 763.381,-19.7028 765.809,-26.2681"/>
</g>
<!-- Node13&#45;&gt;Node1 -->
<g id="edge14" class="edge"><title>Node13&#45;&gt;Node1</title>
<path fill="none" stroke="midnightblue" d="M476.764,-310.652C478.227,-317.524 478.881,-327.559 478.728,-337.263"/>
<polygon fill="midnightblue" stroke="midnightblue" points="475.221,-337.344 478.245,-347.498 482.213,-337.674 475.221,-337.344"/>
</g>
<!-- Node14 -->
<g id="node14" class="node"><title>Node14</title>
<g id="a_node14"><a xlink:href="LinearAlgebra_8hpp.html" target="_top" xlink:title="Core/Math/LinearAlgebra.hpp">
<polygon fill="white" stroke="black" points="394,-235.5 394,-254.5 550,-254.5 550,-235.5 394,-235.5"/>
<text text-anchor="middle" x="472" y="-242.5" font-family="Helvetica,sans-Serif" font-size="10.00">Core/Math/LinearAlgebra.hpp</text>
</a>
</g>
</g>
<!-- Node13&#45;&gt;Node14 -->
<g id="edge15" class="edge"><title>Node13&#45;&gt;Node14</title>
<path fill="none" stroke="midnightblue" d="M472,-291.083C472,-284.006 472,-273.861 472,-264.986"/>
<polygon fill="midnightblue" stroke="midnightblue" points="475.5,-264.751 472,-254.751 468.5,-264.751 475.5,-264.751"/>
</g>
<!-- Node14&#45;&gt;Node2 -->
<g id="edge28" class="edge"><title>Node14&#45;&gt;Node2</title>
<path fill="none" stroke="midnightblue" d="M397.82,-235.472C331.174,-227.419 230.743,-214.314 144,-199 137.616,-197.873 130.916,-196.569 124.323,-195.215"/>
<polygon fill="midnightblue" stroke="midnightblue" points="124.618,-191.7 114.111,-193.063 123.174,-198.55 124.618,-191.7"/>
</g>
<!-- Node14&#45;&gt;Node3 -->
<g id="edge16" class="edge"><title>Node14&#45;&gt;Node3</title>
<path fill="none" stroke="midnightblue" d="M523.138,-235.459C549.745,-228.98 581.523,-217.845 605,-199 624.024,-183.729 637.1,-158.316 644.316,-141.123"/>
<polygon fill="midnightblue" stroke="midnightblue" points="647.641,-142.231 648.052,-131.644 641.129,-139.664 647.641,-142.231"/>
</g>
<!-- Node14&#45;&gt;Node10 -->
<g id="edge17" class="edge"><title>Node14&#45;&gt;Node10</title>
<path fill="none" stroke="midnightblue" d="M393.918,-242.004C268.909,-237.992 35.2482,-226.827 10,-199 -4.90536,-182.572 8.26903,-156.916 20.2001,-140.031"/>
<polygon fill="midnightblue" stroke="midnightblue" points="23.2823,-141.757 26.5143,-131.668 17.6956,-137.54 23.2823,-141.757"/>
</g>
<!-- Node14&#45;&gt;Node11 -->
<g id="edge18" class="edge"><title>Node14&#45;&gt;Node11</title>
<path fill="none" stroke="midnightblue" d="M504.185,-235.488C522.539,-228.801 544.016,-217.45 555,-199 562.048,-187.161 564.089,-178.355 555,-168 536.402,-146.811 361.001,-132.545 268.108,-126.41"/>
<polygon fill="midnightblue" stroke="midnightblue" points="268.227,-122.911 258.021,-125.754 267.773,-129.896 268.227,-122.911"/>
</g>
<!-- Node14&#45;&gt;Node12 -->
<g id="edge19" class="edge"><title>Node14&#45;&gt;Node12</title>
<path fill="none" stroke="midnightblue" d="M530.571,-235.483C552.325,-229.164 574.881,-218.16 588,-199 595.784,-187.632 595.848,-179.324 588,-168 572.224,-145.236 543.419,-133.97 517.985,-128.403"/>
<polygon fill="midnightblue" stroke="midnightblue" points="518.557,-124.949 508.073,-126.473 517.22,-131.82 518.557,-124.949"/>
</g>
<!-- Node15 -->
<g id="node15" class="node"><title>Node15</title>
<polygon fill="white" stroke="#bfbfbf" points="153.5,-174 153.5,-193 216.5,-193 216.5,-174 153.5,-174"/>
<text text-anchor="middle" x="185" y="-181" font-family="Helvetica,sans-Serif" font-size="10.00">functional</text>
</g>
<!-- Node14&#45;&gt;Node15 -->
<g id="edge20" class="edge"><title>Node14&#45;&gt;Node15</title>
<path fill="none" stroke="midnightblue" d="M408.923,-235.489C358.624,-227.991 286.644,-215.662 225,-199 222.192,-198.241 219.302,-197.373 216.421,-196.446"/>
<polygon fill="midnightblue" stroke="midnightblue" points="217.389,-193.078 206.795,-193.148 215.121,-199.7 217.389,-193.078"/>
</g>
<!-- Node16 -->
<g id="node16" class="node"><title>Node16</title>
<polygon fill="white" stroke="#bfbfbf" points="234.5,-168.5 234.5,-198.5 379.5,-198.5 379.5,-168.5 234.5,-168.5"/>
<text text-anchor="start" x="242.5" y="-186.5" font-family="Helvetica,sans-Serif" font-size="10.00">unsupported/Eigen/Aligned</text>
<text text-anchor="middle" x="307" y="-175.5" font-family="Helvetica,sans-Serif" font-size="10.00">Vector3</text>
</g>
<!-- Node14&#45;&gt;Node16 -->
<g id="edge21" class="edge"><title>Node14&#45;&gt;Node16</title>
<path fill="none" stroke="midnightblue" d="M448.36,-235.475C424.237,-226.776 386.107,-213.026 355.524,-201.998"/>
<polygon fill="midnightblue" stroke="midnightblue" points="356.482,-198.623 345.887,-198.523 354.107,-205.208 356.482,-198.623"/>
</g>
<!-- Node17 -->
<g id="node17" class="node"><title>Node17</title>
<g id="a_node17"><a xlink:href="Math_8hpp.html" target="_top" xlink:title="Core/Math/Math.hpp">
<polygon fill="white" stroke="black" points="716,-174 716,-193 830,-193 830,-174 716,-174"/>
<text text-anchor="middle" x="773" y="-181" font-family="Helvetica,sans-Serif" font-size="10.00">Core/Math/Math.hpp</text>
</a>
</g>
</g>
<!-- Node14&#45;&gt;Node17 -->
<g id="edge22" class="edge"><title>Node14&#45;&gt;Node17</title>
<path fill="none" stroke="midnightblue" d="M515.126,-235.475C569.105,-224.805 661.536,-206.534 719.837,-195.009"/>
<polygon fill="midnightblue" stroke="midnightblue" points="720.823,-198.382 729.954,-193.009 719.465,-191.515 720.823,-198.382"/>
</g>
<!-- Node21 -->
<g id="node21" class="node"><title>Node21</title>
<g id="a_node21"><a xlink:href="LinearAlgebra_8inl.html" target="_top" xlink:title="Core/Math/LinearAlgebra.inl">
<polygon fill="white" stroke="black" points="397.5,-174 397.5,-193 546.5,-193 546.5,-174 397.5,-174"/>
<text text-anchor="middle" x="472" y="-181" font-family="Helvetica,sans-Serif" font-size="10.00">Core/Math/LinearAlgebra.inl</text>
</a>
</g>
</g>
<!-- Node14&#45;&gt;Node21 -->
<g id="edge29" class="edge"><title>Node14&#45;&gt;Node21</title>
<path fill="none" stroke="midnightblue" d="M467.099,-235.475C465.268,-227.08 464.797,-213.981 465.685,-203.163"/>
<polygon fill="midnightblue" stroke="midnightblue" points="469.186,-203.397 467.103,-193.009 462.254,-202.429 469.186,-203.397"/>
</g>
<!-- Node17&#45;&gt;Node3 -->
<g id="edge23" class="edge"><title>Node17&#45;&gt;Node3</title>
<path fill="none" stroke="midnightblue" d="M755.52,-173.975C735.137,-164.034 701.225,-147.495 677.575,-135.961"/>
<polygon fill="midnightblue" stroke="midnightblue" points="678.969,-132.747 668.447,-131.509 675.901,-139.038 678.969,-132.747"/>
</g>
<!-- Node18 -->
<g id="node18" class="node"><title>Node18</title>
<polygon fill="white" stroke="#bfbfbf" points="843,-112.5 843,-131.5 905,-131.5 905,-112.5 843,-112.5"/>
<text text-anchor="middle" x="874" y="-119.5" font-family="Helvetica,sans-Serif" font-size="10.00">algorithm</text>
</g>
<!-- Node17&#45;&gt;Node18 -->
<g id="edge24" class="edge"><title>Node17&#45;&gt;Node18</title>
<path fill="none" stroke="midnightblue" d="M787.471,-173.975C803.971,-164.255 831.178,-148.227 850.681,-136.737"/>
<polygon fill="midnightblue" stroke="midnightblue" points="852.716,-139.601 859.556,-131.509 849.163,-133.569 852.716,-139.601"/>
</g>
<!-- Node19 -->
<g id="node19" class="node"><title>Node19</title>
<polygon fill="white" stroke="#bfbfbf" points="923.5,-112.5 923.5,-131.5 970.5,-131.5 970.5,-112.5 923.5,-112.5"/>
<text text-anchor="middle" x="947" y="-119.5" font-family="Helvetica,sans-Serif" font-size="10.00">cmath</text>
</g>
<!-- Node17&#45;&gt;Node19 -->
<g id="edge25" class="edge"><title>Node17&#45;&gt;Node19</title>
<path fill="none" stroke="midnightblue" d="M797.93,-173.975C828.247,-163.608 879.547,-146.066 913.348,-134.508"/>
<polygon fill="midnightblue" stroke="midnightblue" points="914.904,-137.674 923.233,-131.127 912.639,-131.051 914.904,-137.674"/>
</g>
<!-- Node20 -->
<g id="node20" class="node"><title>Node20</title>
<g id="a_node20"><a xlink:href="Math_8inl.html" target="_top" xlink:title="Core/Math/Math.inl">
<polygon fill="white" stroke="black" points="718.5,-112.5 718.5,-131.5 825.5,-131.5 825.5,-112.5 718.5,-112.5"/>
<text text-anchor="middle" x="772" y="-119.5" font-family="Helvetica,sans-Serif" font-size="10.00">Core/Math/Math.inl</text>
</a>
</g>
</g>
<!-- Node17&#45;&gt;Node20 -->
<g id="edge26" class="edge"><title>Node17&#45;&gt;Node20</title>
<path fill="none" stroke="midnightblue" d="M767.956,-173.975C765.984,-165.58 765.292,-152.481 765.999,-141.663"/>
<polygon fill="midnightblue" stroke="midnightblue" points="769.501,-141.861 767.246,-131.509 762.553,-141.008 769.501,-141.861"/>
</g>
<!-- Node20&#45;&gt;Node17 -->
<g id="edge27" class="edge"><title>Node20&#45;&gt;Node17</title>
<path fill="none" stroke="midnightblue" d="M777.04,-131.509C779.014,-139.898 779.707,-152.996 779.003,-163.817"/>
<polygon fill="midnightblue" stroke="midnightblue" points="775.5,-163.624 777.757,-173.975 782.448,-164.475 775.5,-163.624"/>
</g>
<!-- Node21&#45;&gt;Node14 -->
<g id="edge30" class="edge"><title>Node21&#45;&gt;Node14</title>
<path fill="none" stroke="midnightblue" d="M476.897,-193.009C478.73,-201.398 479.203,-214.496 478.317,-225.317"/>
<polygon fill="midnightblue" stroke="midnightblue" points="474.815,-225.088 476.901,-235.475 481.748,-226.054 474.815,-225.088"/>
</g>
</g>
</svg>
