<?xml version="1.0" encoding="UTF-8" standalone="no"?>
<!DOCTYPE svg PUBLIC "-//W3C//DTD SVG 1.1//EN"
 "http://www.w3.org/Graphics/SVG/1.1/DTD/svg11.dtd">
<!-- Generated by graphviz version 2.38.0 (20140413.2041)
 -->
<!-- Title: /home/travis/build/STORM&#45;IRIT/Radium&#45;Engine/Plugins/Dummy/src/DummyTask.cpp Pages: 1 -->
<svg width="564pt" height="330pt"
 viewBox="0.00 0.00 563.50 330.00" xmlns="http://www.w3.org/2000/svg" xmlns:xlink="http://www.w3.org/1999/xlink">
<g id="graph0" class="graph" transform="scale(1 1) rotate(0) translate(4 326)">
<title>/home/travis/build/STORM&#45;IRIT/Radium&#45;Engine/Plugins/Dummy/src/DummyTask.cpp</title>
<polygon fill="white" stroke="none" points="-4,4 -4,-326 559.5,-326 559.5,4 -4,4"/>
<!-- Node1 -->
<g id="node1" class="node"><title>Node1</title>
<polygon fill="#bfbfbf" stroke="black" points="141,-280.5 141,-321.5 335,-321.5 335,-280.5 141,-280.5"/>
<text text-anchor="start" x="149" y="-309.5" font-family="Helvetica,sans-Serif" font-size="10.00">/home/travis/build</text>
<text text-anchor="start" x="149" y="-298.5" font-family="Helvetica,sans-Serif" font-size="10.00">/STORM&#45;IRIT/Radium&#45;Engine</text>
<text text-anchor="middle" x="238" y="-287.5" font-family="Helvetica,sans-Serif" font-size="10.00">/Plugins/Dummy/src/DummyTask.cpp</text>
</g>
<!-- Node2 -->
<g id="node2" class="node"><title>Node2</title>
<g id="a_node2"><a xlink:href="DummyTask_8hpp.html" target="_top" xlink:title="DummyTask.hpp">
<polygon fill="white" stroke="black" points="100,-224.5 100,-243.5 196,-243.5 196,-224.5 100,-224.5"/>
<text text-anchor="middle" x="148" y="-231.5" font-family="Helvetica,sans-Serif" font-size="10.00">DummyTask.hpp</text>
</a>
</g>
</g>
<!-- Node1&#45;&gt;Node2 -->
<g id="edge1" class="edge"><title>Node1&#45;&gt;Node2</title>
<path fill="none" stroke="midnightblue" d="M210.997,-280.498C197.331,-270.628 181.014,-258.843 168.41,-249.741"/>
<polygon fill="midnightblue" stroke="midnightblue" points="170.136,-246.67 159.98,-243.652 166.038,-252.345 170.136,-246.67"/>
</g>
<!-- Node13 -->
<g id="node13" class="node"><title>Node13</title>
<polygon fill="white" stroke="#bfbfbf" points="214.5,-224.5 214.5,-243.5 261.5,-243.5 261.5,-224.5 214.5,-224.5"/>
<text text-anchor="middle" x="238" y="-231.5" font-family="Helvetica,sans-Serif" font-size="10.00">mutex</text>
</g>
<!-- Node1&#45;&gt;Node13 -->
<g id="edge12" class="edge"><title>Node1&#45;&gt;Node13</title>
<path fill="none" stroke="midnightblue" d="M238,-280.498C238,-272.065 238,-262.235 238,-253.874"/>
<polygon fill="midnightblue" stroke="midnightblue" points="241.5,-253.652 238,-243.652 234.5,-253.653 241.5,-253.652"/>
</g>
<!-- Node14 -->
<g id="node14" class="node"><title>Node14</title>
<g id="a_node14"><a xlink:href="DummySystem_8hpp.html" target="_top" xlink:title="DummySystem.hpp">
<polygon fill="white" stroke="black" points="279.5,-224.5 279.5,-243.5 392.5,-243.5 392.5,-224.5 279.5,-224.5"/>
<text text-anchor="middle" x="336" y="-231.5" font-family="Helvetica,sans-Serif" font-size="10.00">DummySystem.hpp</text>
</a>
</g>
</g>
<!-- Node1&#45;&gt;Node14 -->
<g id="edge13" class="edge"><title>Node1&#45;&gt;Node14</title>
<path fill="none" stroke="midnightblue" d="M267.403,-280.498C282.573,-270.436 300.743,-258.385 314.57,-249.214"/>
<polygon fill="midnightblue" stroke="midnightblue" points="316.556,-252.097 322.955,-243.652 312.687,-246.263 316.556,-252.097"/>
</g>
<!-- Node3 -->
<g id="node3" class="node"><title>Node3</title>
<g id="a_node3"><a xlink:href="Task_8hpp.html" target="_top" xlink:title="Core/Tasks/Task.hpp">
<polygon fill="white" stroke="black" points="92,-168.5 92,-187.5 204,-187.5 204,-168.5 92,-168.5"/>
<text text-anchor="middle" x="148" y="-175.5" font-family="Helvetica,sans-Serif" font-size="10.00">Core/Tasks/Task.hpp</text>
</a>
</g>
</g>
<!-- Node2&#45;&gt;Node3 -->
<g id="edge2" class="edge"><title>Node2&#45;&gt;Node3</title>
<path fill="none" stroke="midnightblue" d="M148,-224.083C148,-217.006 148,-206.861 148,-197.986"/>
<polygon fill="midnightblue" stroke="midnightblue" points="151.5,-197.751 148,-187.751 144.5,-197.751 151.5,-197.751"/>
</g>
<!-- Node4 -->
<g id="node4" class="node"><title>Node4</title>
<g id="a_node4"><a xlink:href="RaCore_8hpp.html" target="_top" xlink:title="Core/RaCore.hpp">
<polygon fill="white" stroke="black" points="0,-112.5 0,-131.5 98,-131.5 98,-112.5 0,-112.5"/>
<text text-anchor="middle" x="49" y="-119.5" font-family="Helvetica,sans-Serif" font-size="10.00">Core/RaCore.hpp</text>
</a>
</g>
</g>
<!-- Node3&#45;&gt;Node4 -->
<g id="edge3" class="edge"><title>Node3&#45;&gt;Node4</title>
<path fill="none" stroke="midnightblue" d="M132.094,-168.324C116.362,-159.743 92.0577,-146.486 73.7911,-136.522"/>
<polygon fill="midnightblue" stroke="midnightblue" points="75.3216,-133.37 64.8666,-131.655 71.9696,-139.516 75.3216,-133.37"/>
</g>
<!-- Node11 -->
<g id="node11" class="node"><title>Node11</title>
<polygon fill="white" stroke="#bfbfbf" points="116.5,-112.5 116.5,-131.5 179.5,-131.5 179.5,-112.5 116.5,-112.5"/>
<text text-anchor="middle" x="148" y="-119.5" font-family="Helvetica,sans-Serif" font-size="10.00">functional</text>
</g>
<!-- Node3&#45;&gt;Node11 -->
<g id="edge10" class="edge"><title>Node3&#45;&gt;Node11</title>
<path fill="none" stroke="midnightblue" d="M148,-168.083C148,-161.006 148,-150.861 148,-141.986"/>
<polygon fill="midnightblue" stroke="midnightblue" points="151.5,-141.751 148,-131.751 144.5,-141.751 151.5,-141.751"/>
</g>
<!-- Node12 -->
<g id="node12" class="node"><title>Node12</title>
<polygon fill="white" stroke="#bfbfbf" points="198,-112.5 198,-131.5 242,-131.5 242,-112.5 198,-112.5"/>
<text text-anchor="middle" x="220" y="-119.5" font-family="Helvetica,sans-Serif" font-size="10.00">string</text>
</g>
<!-- Node3&#45;&gt;Node12 -->
<g id="edge11" class="edge"><title>Node3&#45;&gt;Node12</title>
<path fill="none" stroke="midnightblue" d="M159.568,-168.324C170.42,-160.185 186.881,-147.839 199.883,-138.087"/>
<polygon fill="midnightblue" stroke="midnightblue" points="202.321,-140.634 208.221,-131.834 198.121,-135.034 202.321,-140.634"/>
</g>
<!-- Node5 -->
<g id="node5" class="node"><title>Node5</title>
<g id="a_node5"><a xlink:href="CoreMacros_8hpp.html" target="_top" xlink:title="Core/CoreMacros.hpp">
<polygon fill="white" stroke="black" points="210,-56.5 210,-75.5 330,-75.5 330,-56.5 210,-56.5"/>
<text text-anchor="middle" x="270" y="-63.5" font-family="Helvetica,sans-Serif" font-size="10.00">Core/CoreMacros.hpp</text>
</a>
</g>
</g>
<!-- Node4&#45;&gt;Node5 -->
<g id="edge4" class="edge"><title>Node4&#45;&gt;Node5</title>
<path fill="none" stroke="midnightblue" d="M84.0181,-112.444C122.248,-103.102 183.567,-88.1194 225.257,-77.9326"/>
<polygon fill="midnightblue" stroke="midnightblue" points="226.262,-81.2901 235.146,-75.5164 224.601,-74.4901 226.262,-81.2901"/>
</g>
<!-- Node6 -->
<g id="node6" class="node"><title>Node6</title>
<polygon fill="white" stroke="#bfbfbf" points="107,-0.5 107,-19.5 159,-19.5 159,-0.5 107,-0.5"/>
<text text-anchor="middle" x="133" y="-7.5" font-family="Helvetica,sans-Serif" font-size="10.00">cassert</text>
</g>
<!-- Node5&#45;&gt;Node6 -->
<g id="edge5" class="edge"><title>Node5&#45;&gt;Node6</title>
<path fill="none" stroke="midnightblue" d="M248.292,-56.4435C225.645,-47.5171 189.928,-33.4387 164.248,-23.3168"/>
<polygon fill="midnightblue" stroke="midnightblue" points="165.193,-19.9273 154.606,-19.5164 162.626,-26.4397 165.193,-19.9273"/>
</g>
<!-- Node7 -->
<g id="node7" class="node"><title>Node7</title>
<polygon fill="white" stroke="#bfbfbf" points="177.5,-0.5 177.5,-19.5 222.5,-19.5 222.5,-0.5 177.5,-0.5"/>
<text text-anchor="middle" x="200" y="-7.5" font-family="Helvetica,sans-Serif" font-size="10.00">cstdio</text>
</g>
<!-- Node5&#45;&gt;Node7 -->
<g id="edge6" class="edge"><title>Node5&#45;&gt;Node7</title>
<path fill="none" stroke="midnightblue" d="M258.753,-56.324C248.203,-48.1849 232.199,-35.8395 219.558,-26.0874"/>
<polygon fill="midnightblue" stroke="midnightblue" points="221.507,-23.1707 211.451,-19.8339 217.231,-28.7132 221.507,-23.1707"/>
</g>
<!-- Node8 -->
<g id="node8" class="node"><title>Node8</title>
<polygon fill="white" stroke="#bfbfbf" points="240.5,-0.5 240.5,-19.5 299.5,-19.5 299.5,-0.5 240.5,-0.5"/>
<text text-anchor="middle" x="270" y="-7.5" font-family="Helvetica,sans-Serif" font-size="10.00">iostream</text>
</g>
<!-- Node5&#45;&gt;Node8 -->
<g id="edge7" class="edge"><title>Node5&#45;&gt;Node8</title>
<path fill="none" stroke="midnightblue" d="M270,-56.083C270,-49.0059 270,-38.8611 270,-29.9865"/>
<polygon fill="midnightblue" stroke="midnightblue" points="273.5,-29.751 270,-19.7511 266.5,-29.7511 273.5,-29.751"/>
</g>
<!-- Node9 -->
<g id="node9" class="node"><title>Node9</title>
<polygon fill="white" stroke="#bfbfbf" points="318,-0.5 318,-19.5 374,-19.5 374,-0.5 318,-0.5"/>
<text text-anchor="middle" x="346" y="-7.5" font-family="Helvetica,sans-Serif" font-size="10.00">sstream</text>
</g>
<!-- Node5&#45;&gt;Node9 -->
<g id="edge8" class="edge"><title>Node5&#45;&gt;Node9</title>
<path fill="none" stroke="midnightblue" d="M282.211,-56.324C293.776,-48.1066 311.375,-35.6017 325.161,-25.8069"/>
<polygon fill="midnightblue" stroke="midnightblue" points="327.443,-28.4791 333.567,-19.8339 323.388,-22.7729 327.443,-28.4791"/>
</g>
<!-- Node10 -->
<g id="node10" class="node"><title>Node10</title>
<polygon fill="white" stroke="#bfbfbf" points="392,-0.5 392,-19.5 440,-19.5 440,-0.5 392,-0.5"/>
<text text-anchor="middle" x="416" y="-7.5" font-family="Helvetica,sans-Serif" font-size="10.00">thread</text>
</g>
<!-- Node5&#45;&gt;Node10 -->
<g id="edge9" class="edge"><title>Node5&#45;&gt;Node10</title>
<path fill="none" stroke="midnightblue" d="M293.134,-56.4435C317.482,-47.4381 356.007,-33.1891 383.423,-23.049"/>
<polygon fill="midnightblue" stroke="midnightblue" points="384.809,-26.2681 392.974,-19.5164 382.381,-19.7028 384.809,-26.2681"/>
</g>
<!-- Node15 -->
<g id="node15" class="node"><title>Node15</title>
<g id="a_node15"><a xlink:href="DummyPluginMacros_8hpp.html" target="_top" xlink:title="DummyPluginMacros.hpp">
<polygon fill="white" stroke="black" points="226.5,-168.5 226.5,-187.5 365.5,-187.5 365.5,-168.5 226.5,-168.5"/>
<text text-anchor="middle" x="296" y="-175.5" font-family="Helvetica,sans-Serif" font-size="10.00">DummyPluginMacros.hpp</text>
</a>
</g>
</g>
<!-- Node14&#45;&gt;Node15 -->
<g id="edge14" class="edge"><title>Node14&#45;&gt;Node15</title>
<path fill="none" stroke="midnightblue" d="M329.395,-224.083C323.745,-216.455 315.455,-205.264 308.549,-195.941"/>
<polygon fill="midnightblue" stroke="midnightblue" points="311.247,-193.703 302.482,-187.751 305.622,-197.87 311.247,-193.703"/>
</g>
<!-- Node16 -->
<g id="node16" class="node"><title>Node16</title>
<g id="a_node16"><a xlink:href="System_8hpp.html" target="_top" xlink:title="Engine/System/System.hpp">
<polygon fill="white" stroke="black" points="385.5,-168.5 385.5,-187.5 534.5,-187.5 534.5,-168.5 385.5,-168.5"/>
<text text-anchor="middle" x="460" y="-175.5" font-family="Helvetica,sans-Serif" font-size="10.00">Engine/System/System.hpp</text>
</a>
</g>
</g>
<!-- Node14&#45;&gt;Node16 -->
<g id="edge16" class="edge"><title>Node14&#45;&gt;Node16</title>
<path fill="none" stroke="midnightblue" d="M355.648,-224.444C375.965,-215.596 407.903,-201.687 431.098,-191.586"/>
<polygon fill="midnightblue" stroke="midnightblue" points="432.673,-194.718 440.444,-187.516 429.878,-188.3 432.673,-194.718"/>
</g>
<!-- Node15&#45;&gt;Node5 -->
<g id="edge15" class="edge"><title>Node15&#45;&gt;Node5</title>
<path fill="none" stroke="midnightblue" d="M293.96,-168.368C289.764,-150.617 280.085,-109.666 274.396,-85.5974"/>
<polygon fill="midnightblue" stroke="midnightblue" points="277.737,-84.5182 272.031,-75.5914 270.925,-86.1284 277.737,-84.5182"/>
</g>
<!-- Node17 -->
<g id="node17" class="node"><title>Node17</title>
<g id="a_node17"><a xlink:href="RaEngine_8hpp.html" target="_top" xlink:title="Engine/RaEngine.hpp">
<polygon fill="white" stroke="black" points="298.5,-112.5 298.5,-131.5 415.5,-131.5 415.5,-112.5 298.5,-112.5"/>
<text text-anchor="middle" x="357" y="-119.5" font-family="Helvetica,sans-Serif" font-size="10.00">Engine/RaEngine.hpp</text>
</a>
</g>
</g>
<!-- Node16&#45;&gt;Node17 -->
<g id="edge17" class="edge"><title>Node16&#45;&gt;Node17</title>
<path fill="none" stroke="midnightblue" d="M443.451,-168.324C427.008,-159.703 401.565,-146.364 382.532,-136.386"/>
<polygon fill="midnightblue" stroke="midnightblue" points="383.989,-133.198 373.508,-131.655 380.739,-139.398 383.989,-133.198"/>
</g>
<!-- Node18 -->
<g id="node18" class="node"><title>Node18</title>
<polygon fill="white" stroke="#bfbfbf" points="433.5,-112.5 433.5,-131.5 490.5,-131.5 490.5,-112.5 433.5,-112.5"/>
<text text-anchor="middle" x="462" y="-119.5" font-family="Helvetica,sans-Serif" font-size="10.00">memory</text>
</g>
<!-- Node16&#45;&gt;Node18 -->
<g id="edge19" class="edge"><title>Node16&#45;&gt;Node18</title>
<path fill="none" stroke="midnightblue" d="M460.33,-168.083C460.592,-161.006 460.968,-150.861 461.297,-141.986"/>
<polygon fill="midnightblue" stroke="midnightblue" points="464.803,-141.874 461.676,-131.751 457.808,-141.615 464.803,-141.874"/>
</g>
<!-- Node19 -->
<g id="node19" class="node"><title>Node19</title>
<polygon fill="white" stroke="#bfbfbf" points="508.5,-112.5 508.5,-131.5 555.5,-131.5 555.5,-112.5 508.5,-112.5"/>
<text text-anchor="middle" x="532" y="-119.5" font-family="Helvetica,sans-Serif" font-size="10.00">vector</text>
</g>
<!-- Node16&#45;&gt;Node19 -->
<g id="edge20" class="edge"><title>Node16&#45;&gt;Node19</title>
<path fill="none" stroke="midnightblue" d="M471.568,-168.324C482.42,-160.185 498.881,-147.839 511.883,-138.087"/>
<polygon fill="midnightblue" stroke="midnightblue" points="514.321,-140.634 520.221,-131.834 510.121,-135.034 514.321,-140.634"/>
</g>
<!-- Node17&#45;&gt;Node5 -->
<g id="edge18" class="edge"><title>Node17&#45;&gt;Node5</title>
<path fill="none" stroke="midnightblue" d="M343.022,-112.324C329.45,-103.9 308.62,-90.9709 292.675,-81.0741"/>
<polygon fill="midnightblue" stroke="midnightblue" points="294.286,-77.9544 283.943,-75.6545 290.594,-83.9019 294.286,-77.9544"/>
</g>
</g>
</svg>
