<?xml version="1.0" encoding="UTF-8" standalone="no"?>
<!DOCTYPE svg PUBLIC "-//W3C//DTD SVG 1.1//EN"
 "http://www.w3.org/Graphics/SVG/1.1/DTD/svg11.dtd">
<!-- Generated by graphviz version 2.38.0 (20140413.2041)
 -->
<!-- Title: /home/travis/build/STORM&#45;IRIT/Radium&#45;Engine/Plugins/Dummy/src/DummyPlugin.cpp Pages: 1 -->
<svg width="1245pt" height="330pt"
 viewBox="0.00 0.00 1245.00 330.00" xmlns="http://www.w3.org/2000/svg" xmlns:xlink="http://www.w3.org/1999/xlink">
<g id="graph0" class="graph" transform="scale(1 1) rotate(0) translate(4 326)">
<title>/home/travis/build/STORM&#45;IRIT/Radium&#45;Engine/Plugins/Dummy/src/DummyPlugin.cpp</title>
<polygon fill="white" stroke="none" points="-4,4 -4,-326 1241,-326 1241,4 -4,4"/>
<!-- Node1 -->
<g id="node1" class="node"><title>Node1</title>
<polygon fill="#bfbfbf" stroke="black" points="373,-280.5 373,-321.5 575,-321.5 575,-280.5 373,-280.5"/>
<text text-anchor="start" x="381" y="-309.5" font-family="Helvetica,sans-Serif" font-size="10.00">/home/travis/build</text>
<text text-anchor="start" x="381" y="-298.5" font-family="Helvetica,sans-Serif" font-size="10.00">/STORM&#45;IRIT/Radium&#45;Engine</text>
<text text-anchor="middle" x="474" y="-287.5" font-family="Helvetica,sans-Serif" font-size="10.00">/Plugins/Dummy/src/DummyPlugin.cpp</text>
</g>
<!-- Node2 -->
<g id="node2" class="node"><title>Node2</title>
<g id="a_node2"><a xlink:href="DummyPlugin_8hpp.html" target="_top" xlink:title="DummyPlugin.hpp">
<polygon fill="white" stroke="black" points="0,-224.5 0,-243.5 104,-243.5 104,-224.5 0,-224.5"/>
<text text-anchor="middle" x="52" y="-231.5" font-family="Helvetica,sans-Serif" font-size="10.00">DummyPlugin.hpp</text>
</a>
</g>
</g>
<!-- Node1&#45;&gt;Node2 -->
<g id="edge1" class="edge"><title>Node1&#45;&gt;Node2</title>
<path fill="none" stroke="midnightblue" d="M372.92,-284.431C292.44,-272.035 182.359,-255.079 114.286,-244.594"/>
<polygon fill="midnightblue" stroke="midnightblue" points="114.56,-241.095 104.144,-243.032 113.494,-248.013 114.56,-241.095"/>
</g>
<!-- Node15 -->
<g id="node15" class="node"><title>Node15</title>
<polygon fill="white" stroke="#bfbfbf" points="122,-224.5 122,-243.5 176,-243.5 176,-224.5 122,-224.5"/>
<text text-anchor="middle" x="149" y="-231.5" font-family="Helvetica,sans-Serif" font-size="10.00">QAction</text>
</g>
<!-- Node1&#45;&gt;Node15 -->
<g id="edge15" class="edge"><title>Node1&#45;&gt;Node15</title>
<path fill="none" stroke="midnightblue" d="M372.747,-281.754C319.776,-271.88 253.655,-259.043 186.071,-244.15"/>
<polygon fill="midnightblue" stroke="midnightblue" points="186.61,-240.685 176.09,-241.938 185.096,-247.519 186.61,-240.685"/>
</g>
<!-- Node16 -->
<g id="node16" class="node"><title>Node16</title>
<polygon fill="white" stroke="#bfbfbf" points="194,-224.5 194,-243.5 244,-243.5 244,-224.5 194,-224.5"/>
<text text-anchor="middle" x="219" y="-231.5" font-family="Helvetica,sans-Serif" font-size="10.00">QLabel</text>
</g>
<!-- Node1&#45;&gt;Node16 -->
<g id="edge16" class="edge"><title>Node1&#45;&gt;Node16</title>
<path fill="none" stroke="midnightblue" d="M395.961,-280.44C356.113,-270.401 306.615,-257.854 254.085,-244.263"/>
<polygon fill="midnightblue" stroke="midnightblue" points="254.801,-240.833 244.243,-241.714 253.046,-247.61 254.801,-240.833"/>
</g>
<!-- Node17 -->
<g id="node17" class="node"><title>Node17</title>
<polygon fill="white" stroke="#bfbfbf" points="262,-224.5 262,-243.5 312,-243.5 312,-224.5 262,-224.5"/>
<text text-anchor="middle" x="287" y="-231.5" font-family="Helvetica,sans-Serif" font-size="10.00">QMenu</text>
</g>
<!-- Node1&#45;&gt;Node17 -->
<g id="edge17" class="edge"><title>Node1&#45;&gt;Node17</title>
<path fill="none" stroke="midnightblue" d="M417.894,-280.498C386.604,-269.622 348.625,-256.421 321.654,-247.045"/>
<polygon fill="midnightblue" stroke="midnightblue" points="322.487,-243.63 311.893,-243.652 320.189,-250.242 322.487,-243.63"/>
</g>
<!-- Node18 -->
<g id="node18" class="node"><title>Node18</title>
<polygon fill="white" stroke="#bfbfbf" points="330.5,-224.5 330.5,-243.5 415.5,-243.5 415.5,-224.5 330.5,-224.5"/>
<text text-anchor="middle" x="373" y="-231.5" font-family="Helvetica,sans-Serif" font-size="10.00">QMessageBox</text>
</g>
<!-- Node1&#45;&gt;Node18 -->
<g id="edge18" class="edge"><title>Node1&#45;&gt;Node18</title>
<path fill="none" stroke="midnightblue" d="M443.697,-280.498C428.063,-270.436 409.336,-258.385 395.086,-249.214"/>
<polygon fill="midnightblue" stroke="midnightblue" points="396.748,-246.121 386.445,-243.652 392.96,-252.008 396.748,-246.121"/>
</g>
<!-- Node19 -->
<g id="node19" class="node"><title>Node19</title>
<polygon fill="white" stroke="#bfbfbf" points="434,-224.5 434,-243.5 514,-243.5 514,-224.5 434,-224.5"/>
<text text-anchor="middle" x="474" y="-231.5" font-family="Helvetica,sans-Serif" font-size="10.00">QPushButton</text>
</g>
<!-- Node1&#45;&gt;Node19 -->
<g id="edge19" class="edge"><title>Node1&#45;&gt;Node19</title>
<path fill="none" stroke="midnightblue" d="M474,-280.498C474,-272.065 474,-262.235 474,-253.874"/>
<polygon fill="midnightblue" stroke="midnightblue" points="477.5,-253.652 474,-243.652 470.5,-253.653 477.5,-253.652"/>
</g>
<!-- Node20 -->
<g id="node20" class="node"><title>Node20</title>
<polygon fill="white" stroke="#bfbfbf" points="532.5,-224.5 532.5,-243.5 613.5,-243.5 613.5,-224.5 532.5,-224.5"/>
<text text-anchor="middle" x="573" y="-231.5" font-family="Helvetica,sans-Serif" font-size="10.00">QVBoxLayout</text>
</g>
<!-- Node1&#45;&gt;Node20 -->
<g id="edge20" class="edge"><title>Node1&#45;&gt;Node20</title>
<path fill="none" stroke="midnightblue" d="M503.703,-280.498C519.028,-270.436 537.383,-258.385 551.352,-249.214"/>
<polygon fill="midnightblue" stroke="midnightblue" points="553.383,-252.067 559.822,-243.652 549.541,-246.215 553.383,-252.067"/>
</g>
<!-- Node21 -->
<g id="node21" class="node"><title>Node21</title>
<polygon fill="white" stroke="#bfbfbf" points="632,-224.5 632,-243.5 688,-243.5 688,-224.5 632,-224.5"/>
<text text-anchor="middle" x="660" y="-231.5" font-family="Helvetica,sans-Serif" font-size="10.00">QWidget</text>
</g>
<!-- Node1&#45;&gt;Node21 -->
<g id="edge21" class="edge"><title>Node1&#45;&gt;Node21</title>
<path fill="none" stroke="midnightblue" d="M529.806,-280.498C560.928,-269.622 598.704,-256.421 625.531,-247.045"/>
<polygon fill="midnightblue" stroke="midnightblue" points="626.955,-250.256 635.241,-243.652 624.646,-243.647 626.955,-250.256"/>
</g>
<!-- Node22 -->
<g id="node22" class="node"><title>Node22</title>
<polygon fill="white" stroke="#bfbfbf" points="706.5,-224.5 706.5,-243.5 807.5,-243.5 807.5,-224.5 706.5,-224.5"/>
<text text-anchor="middle" x="757" y="-231.5" font-family="Helvetica,sans-Serif" font-size="10.00">Core/Log/Log.hpp</text>
</g>
<!-- Node1&#45;&gt;Node22 -->
<g id="edge22" class="edge"><title>Node1&#45;&gt;Node22</title>
<path fill="none" stroke="midnightblue" d="M558.909,-280.498C608.29,-269.156 668.678,-255.286 709.705,-245.863"/>
<polygon fill="midnightblue" stroke="midnightblue" points="710.738,-249.217 719.7,-243.567 709.171,-242.394 710.738,-249.217"/>
</g>
<!-- Node23 -->
<g id="node23" class="node"><title>Node23</title>
<g id="a_node23"><a xlink:href="RadiumEngine_8hpp.html" target="_top" xlink:title="Engine/RadiumEngine.hpp">
<polygon fill="white" stroke="black" points="956.5,-224.5 956.5,-243.5 1097.5,-243.5 1097.5,-224.5 956.5,-224.5"/>
<text text-anchor="middle" x="1027" y="-231.5" font-family="Helvetica,sans-Serif" font-size="10.00">Engine/RadiumEngine.hpp</text>
</a>
</g>
</g>
<!-- Node1&#45;&gt;Node23 -->
<g id="edge23" class="edge"><title>Node1&#45;&gt;Node23</title>
<path fill="none" stroke="midnightblue" d="M575.107,-288.116C681.818,-275.573 847.889,-256.053 946.21,-244.496"/>
<polygon fill="midnightblue" stroke="midnightblue" points="946.866,-247.943 956.389,-243.3 946.048,-240.991 946.866,-247.943"/>
</g>
<!-- Node29 -->
<g id="node29" class="node"><title>Node29</title>
<g id="a_node29"><a xlink:href="DummySystem_8hpp.html" target="_top" xlink:title="DummySystem.hpp">
<polygon fill="white" stroke="black" points="825.5,-224.5 825.5,-243.5 938.5,-243.5 938.5,-224.5 825.5,-224.5"/>
<text text-anchor="middle" x="882" y="-231.5" font-family="Helvetica,sans-Serif" font-size="10.00">DummySystem.hpp</text>
</a>
</g>
</g>
<!-- Node1&#45;&gt;Node29 -->
<g id="edge33" class="edge"><title>Node1&#45;&gt;Node29</title>
<path fill="none" stroke="midnightblue" d="M575.116,-283.891C651.279,-271.757 753.358,-255.494 818.42,-245.129"/>
<polygon fill="midnightblue" stroke="midnightblue" points="819.21,-248.547 828.535,-243.518 818.109,-241.635 819.21,-248.547"/>
</g>
<!-- Node3 -->
<g id="node3" class="node"><title>Node3</title>
<g id="a_node3"><a xlink:href="DummyPluginMacros_8hpp.html" target="_top" xlink:title="DummyPluginMacros.hpp">
<polygon fill="white" stroke="black" points="549.5,-168.5 549.5,-187.5 688.5,-187.5 688.5,-168.5 549.5,-168.5"/>
<text text-anchor="middle" x="619" y="-175.5" font-family="Helvetica,sans-Serif" font-size="10.00">DummyPluginMacros.hpp</text>
</a>
</g>
</g>
<!-- Node2&#45;&gt;Node3 -->
<g id="edge2" class="edge"><title>Node2&#45;&gt;Node3</title>
<path fill="none" stroke="midnightblue" d="M104.217,-225.093C107.186,-224.707 110.13,-224.339 113,-224 263.301,-206.244 439.47,-192.072 539.288,-184.658"/>
<polygon fill="midnightblue" stroke="midnightblue" points="539.583,-188.146 549.298,-183.918 539.067,-181.165 539.583,-188.146"/>
</g>
<!-- Node10 -->
<g id="node10" class="node"><title>Node10</title>
<polygon fill="white" stroke="#bfbfbf" points="80.5,-168.5 80.5,-187.5 135.5,-187.5 135.5,-168.5 80.5,-168.5"/>
<text text-anchor="middle" x="108" y="-175.5" font-family="Helvetica,sans-Serif" font-size="10.00">QObject</text>
</g>
<!-- Node2&#45;&gt;Node10 -->
<g id="edge9" class="edge"><title>Node2&#45;&gt;Node10</title>
<path fill="none" stroke="midnightblue" d="M60.9974,-224.324C69.1944,-216.42 81.5055,-204.548 91.472,-194.938"/>
<polygon fill="midnightblue" stroke="midnightblue" points="94.0699,-197.295 98.8389,-187.834 89.211,-192.256 94.0699,-197.295"/>
</g>
<!-- Node11 -->
<g id="node11" class="node"><title>Node11</title>
<polygon fill="white" stroke="#bfbfbf" points="213,-112.5 213,-131.5 269,-131.5 269,-112.5 213,-112.5"/>
<text text-anchor="middle" x="241" y="-119.5" font-family="Helvetica,sans-Serif" font-size="10.00">QtPlugin</text>
</g>
<!-- Node2&#45;&gt;Node11 -->
<g id="edge10" class="edge"><title>Node2&#45;&gt;Node11</title>
<path fill="none" stroke="midnightblue" d="M51.9872,-224.051C52.4707,-210.073 55.5087,-183.1 71,-168 106.172,-133.718 164.273,-124.752 202.595,-122.822"/>
<polygon fill="midnightblue" stroke="midnightblue" points="202.978,-126.31 212.844,-122.449 202.724,-119.315 202.978,-126.31"/>
</g>
<!-- Node12 -->
<g id="node12" class="node"><title>Node12</title>
<g id="a_node12"><a xlink:href="RadiumPluginInterface_8hpp.html" target="_top" xlink:title="PluginBase/RadiumPluginInterface.hpp">
<polygon fill="white" stroke="black" points="243,-168.5 243,-187.5 443,-187.5 443,-168.5 243,-168.5"/>
<text text-anchor="middle" x="343" y="-175.5" font-family="Helvetica,sans-Serif" font-size="10.00">PluginBase/RadiumPluginInterface.hpp</text>
</a>
</g>
</g>
<!-- Node2&#45;&gt;Node12 -->
<g id="edge11" class="edge"><title>Node2&#45;&gt;Node12</title>
<path fill="none" stroke="midnightblue" d="M98.1098,-224.444C149.406,-214.925 232.273,-199.547 287.191,-189.356"/>
<polygon fill="midnightblue" stroke="midnightblue" points="287.912,-192.782 297.106,-187.516 286.635,-185.9 287.912,-192.782"/>
</g>
<!-- Node4 -->
<g id="node4" class="node"><title>Node4</title>
<g id="a_node4"><a xlink:href="CoreMacros_8hpp.html" target="_top" xlink:title="Core/CoreMacros.hpp">
<polygon fill="white" stroke="black" points="922,-56.5 922,-75.5 1042,-75.5 1042,-56.5 922,-56.5"/>
<text text-anchor="middle" x="982" y="-63.5" font-family="Helvetica,sans-Serif" font-size="10.00">Core/CoreMacros.hpp</text>
</a>
</g>
</g>
<!-- Node3&#45;&gt;Node4 -->
<g id="edge3" class="edge"><title>Node3&#45;&gt;Node4</title>
<path fill="none" stroke="midnightblue" d="M624.341,-168.073C633.517,-153.615 653.748,-125.353 679,-112 718.256,-91.2419 835.24,-78.4167 911.834,-72.0081"/>
<polygon fill="midnightblue" stroke="midnightblue" points="912.215,-75.4887 921.896,-71.1836 911.644,-68.5121 912.215,-75.4887"/>
</g>
<!-- Node5 -->
<g id="node5" class="node"><title>Node5</title>
<polygon fill="white" stroke="#bfbfbf" points="819,-0.5 819,-19.5 871,-19.5 871,-0.5 819,-0.5"/>
<text text-anchor="middle" x="845" y="-7.5" font-family="Helvetica,sans-Serif" font-size="10.00">cassert</text>
</g>
<!-- Node4&#45;&gt;Node5 -->
<g id="edge4" class="edge"><title>Node4&#45;&gt;Node5</title>
<path fill="none" stroke="midnightblue" d="M960.292,-56.4435C937.645,-47.5171 901.928,-33.4387 876.248,-23.3168"/>
<polygon fill="midnightblue" stroke="midnightblue" points="877.193,-19.9273 866.606,-19.5164 874.626,-26.4397 877.193,-19.9273"/>
</g>
<!-- Node6 -->
<g id="node6" class="node"><title>Node6</title>
<polygon fill="white" stroke="#bfbfbf" points="889.5,-0.5 889.5,-19.5 934.5,-19.5 934.5,-0.5 889.5,-0.5"/>
<text text-anchor="middle" x="912" y="-7.5" font-family="Helvetica,sans-Serif" font-size="10.00">cstdio</text>
</g>
<!-- Node4&#45;&gt;Node6 -->
<g id="edge5" class="edge"><title>Node4&#45;&gt;Node6</title>
<path fill="none" stroke="midnightblue" d="M970.753,-56.324C960.203,-48.1849 944.199,-35.8395 931.558,-26.0874"/>
<polygon fill="midnightblue" stroke="midnightblue" points="933.507,-23.1707 923.451,-19.8339 929.231,-28.7132 933.507,-23.1707"/>
</g>
<!-- Node7 -->
<g id="node7" class="node"><title>Node7</title>
<polygon fill="white" stroke="#bfbfbf" points="952.5,-0.5 952.5,-19.5 1011.5,-19.5 1011.5,-0.5 952.5,-0.5"/>
<text text-anchor="middle" x="982" y="-7.5" font-family="Helvetica,sans-Serif" font-size="10.00">iostream</text>
</g>
<!-- Node4&#45;&gt;Node7 -->
<g id="edge6" class="edge"><title>Node4&#45;&gt;Node7</title>
<path fill="none" stroke="midnightblue" d="M982,-56.083C982,-49.0059 982,-38.8611 982,-29.9865"/>
<polygon fill="midnightblue" stroke="midnightblue" points="985.5,-29.751 982,-19.7511 978.5,-29.7511 985.5,-29.751"/>
</g>
<!-- Node8 -->
<g id="node8" class="node"><title>Node8</title>
<polygon fill="white" stroke="#bfbfbf" points="1030,-0.5 1030,-19.5 1086,-19.5 1086,-0.5 1030,-0.5"/>
<text text-anchor="middle" x="1058" y="-7.5" font-family="Helvetica,sans-Serif" font-size="10.00">sstream</text>
</g>
<!-- Node4&#45;&gt;Node8 -->
<g id="edge7" class="edge"><title>Node4&#45;&gt;Node8</title>
<path fill="none" stroke="midnightblue" d="M994.211,-56.324C1005.78,-48.1066 1023.38,-35.6017 1037.16,-25.8069"/>
<polygon fill="midnightblue" stroke="midnightblue" points="1039.44,-28.4791 1045.57,-19.8339 1035.39,-22.7729 1039.44,-28.4791"/>
</g>
<!-- Node9 -->
<g id="node9" class="node"><title>Node9</title>
<polygon fill="white" stroke="#bfbfbf" points="1104,-0.5 1104,-19.5 1152,-19.5 1152,-0.5 1104,-0.5"/>
<text text-anchor="middle" x="1128" y="-7.5" font-family="Helvetica,sans-Serif" font-size="10.00">thread</text>
</g>
<!-- Node4&#45;&gt;Node9 -->
<g id="edge8" class="edge"><title>Node4&#45;&gt;Node9</title>
<path fill="none" stroke="midnightblue" d="M1005.13,-56.4435C1029.48,-47.4381 1068.01,-33.1891 1095.42,-23.049"/>
<polygon fill="midnightblue" stroke="midnightblue" points="1096.81,-26.2681 1104.97,-19.5164 1094.38,-19.7028 1096.81,-26.2681"/>
</g>
<!-- Node12&#45;&gt;Node11 -->
<g id="edge14" class="edge"><title>Node12&#45;&gt;Node11</title>
<path fill="none" stroke="midnightblue" d="M326.612,-168.324C310.329,-159.703 285.133,-146.364 266.284,-136.386"/>
<polygon fill="midnightblue" stroke="midnightblue" points="267.823,-133.24 257.347,-131.655 264.548,-139.427 267.823,-133.24"/>
</g>
<!-- Node13 -->
<g id="node13" class="node"><title>Node13</title>
<polygon fill="white" stroke="#bfbfbf" points="688.5,-112.5 688.5,-131.5 745.5,-131.5 745.5,-112.5 688.5,-112.5"/>
<text text-anchor="middle" x="717" y="-119.5" font-family="Helvetica,sans-Serif" font-size="10.00">memory</text>
</g>
<!-- Node12&#45;&gt;Node13 -->
<g id="edge12" class="edge"><title>Node12&#45;&gt;Node13</title>
<path fill="none" stroke="midnightblue" d="M402.261,-168.444C479.685,-157.265 613.067,-138.006 678.513,-128.557"/>
<polygon fill="midnightblue" stroke="midnightblue" points="679.017,-132.021 688.414,-127.127 678.016,-125.092 679.017,-132.021"/>
</g>
<!-- Node14 -->
<g id="node14" class="node"><title>Node14</title>
<polygon fill="white" stroke="#bfbfbf" points="795.5,-112.5 795.5,-131.5 842.5,-131.5 842.5,-112.5 795.5,-112.5"/>
<text text-anchor="middle" x="819" y="-119.5" font-family="Helvetica,sans-Serif" font-size="10.00">vector</text>
</g>
<!-- Node12&#45;&gt;Node14 -->
<g id="edge13" class="edge"><title>Node12&#45;&gt;Node14</title>
<path fill="none" stroke="midnightblue" d="M427.307,-168.48C510.445,-159.91 641.092,-145.995 754,-132 764.153,-130.742 775.182,-129.258 785.222,-127.863"/>
<polygon fill="midnightblue" stroke="midnightblue" points="785.834,-131.312 795.25,-126.454 784.86,-124.38 785.834,-131.312"/>
</g>
<!-- Node23&#45;&gt;Node13 -->
<g id="edge30" class="edge"><title>Node23&#45;&gt;Node13</title>
<path fill="none" stroke="midnightblue" d="M959.601,-224.482C875.997,-213.642 743.361,-195.434 735,-188 722.03,-176.468 718.045,-156.5 716.988,-141.731"/>
<polygon fill="midnightblue" stroke="midnightblue" points="720.484,-141.553 716.651,-131.676 713.488,-141.788 720.484,-141.553"/>
</g>
<!-- Node23&#45;&gt;Node14 -->
<g id="edge32" class="edge"><title>Node23&#45;&gt;Node14</title>
<path fill="none" stroke="midnightblue" d="M1019.88,-224.127C1008.3,-210.254 984.061,-183.421 958,-168 924.852,-148.385 882.121,-136.207 852.84,-129.544"/>
<polygon fill="midnightblue" stroke="midnightblue" points="853.219,-126.045 842.703,-127.336 851.728,-132.884 853.219,-126.045"/>
</g>
<!-- Node24 -->
<g id="node24" class="node"><title>Node24</title>
<g id="a_node24"><a xlink:href="RaEngine_8hpp.html" target="_top" xlink:title="Engine/RaEngine.hpp">
<polygon fill="white" stroke="black" points="923.5,-112.5 923.5,-131.5 1040.5,-131.5 1040.5,-112.5 923.5,-112.5"/>
<text text-anchor="middle" x="982" y="-119.5" font-family="Helvetica,sans-Serif" font-size="10.00">Engine/RaEngine.hpp</text>
</a>
</g>
</g>
<!-- Node23&#45;&gt;Node24 -->
<g id="edge24" class="edge"><title>Node23&#45;&gt;Node24</title>
<path fill="none" stroke="midnightblue" d="M1036.52,-224.385C1049.29,-211.743 1069.14,-187.551 1058,-168 1049.59,-153.247 1034.23,-142.838 1019.52,-135.774"/>
<polygon fill="midnightblue" stroke="midnightblue" points="1020.58,-132.418 1010.02,-131.603 1017.76,-138.827 1020.58,-132.418"/>
</g>
<!-- Node25 -->
<g id="node25" class="node"><title>Node25</title>
<g id="a_node25"><a xlink:href="Singleton_8hpp.html" target="_top" xlink:title="Core/Utils/Singleton.hpp">
<polygon fill="white" stroke="black" points="1105,-168.5 1105,-187.5 1237,-187.5 1237,-168.5 1105,-168.5"/>
<text text-anchor="middle" x="1171" y="-175.5" font-family="Helvetica,sans-Serif" font-size="10.00">Core/Utils/Singleton.hpp</text>
</a>
</g>
</g>
<!-- Node23&#45;&gt;Node25 -->
<g id="edge26" class="edge"><title>Node23&#45;&gt;Node25</title>
<path fill="none" stroke="midnightblue" d="M1049.82,-224.444C1073.83,-215.438 1111.83,-201.189 1138.87,-191.049"/>
<polygon fill="midnightblue" stroke="midnightblue" points="1140.16,-194.305 1148.29,-187.516 1137.7,-187.751 1140.16,-194.305"/>
</g>
<!-- Node27 -->
<g id="node27" class="node"><title>Node27</title>
<polygon fill="white" stroke="#bfbfbf" points="911,-168.5 911,-187.5 949,-187.5 949,-168.5 911,-168.5"/>
<text text-anchor="middle" x="930" y="-175.5" font-family="Helvetica,sans-Serif" font-size="10.00">map</text>
</g>
<!-- Node23&#45;&gt;Node27 -->
<g id="edge29" class="edge"><title>Node23&#45;&gt;Node27</title>
<path fill="none" stroke="midnightblue" d="M1011.42,-224.324C996.001,-215.743 972.188,-202.486 954.29,-192.522"/>
<polygon fill="midnightblue" stroke="midnightblue" points="955.986,-189.461 945.546,-187.655 952.581,-195.577 955.986,-189.461"/>
</g>
<!-- Node28 -->
<g id="node28" class="node"><title>Node28</title>
<polygon fill="white" stroke="#bfbfbf" points="1005,-168.5 1005,-187.5 1049,-187.5 1049,-168.5 1005,-168.5"/>
<text text-anchor="middle" x="1027" y="-175.5" font-family="Helvetica,sans-Serif" font-size="10.00">string</text>
</g>
<!-- Node23&#45;&gt;Node28 -->
<g id="edge31" class="edge"><title>Node23&#45;&gt;Node28</title>
<path fill="none" stroke="midnightblue" d="M1027,-224.083C1027,-217.006 1027,-206.861 1027,-197.986"/>
<polygon fill="midnightblue" stroke="midnightblue" points="1030.5,-197.751 1027,-187.751 1023.5,-197.751 1030.5,-197.751"/>
</g>
<!-- Node24&#45;&gt;Node4 -->
<g id="edge25" class="edge"><title>Node24&#45;&gt;Node4</title>
<path fill="none" stroke="midnightblue" d="M982,-112.083C982,-105.006 982,-94.8611 982,-85.9865"/>
<polygon fill="midnightblue" stroke="midnightblue" points="985.5,-85.751 982,-75.7511 978.5,-85.7511 985.5,-85.751"/>
</g>
<!-- Node26 -->
<g id="node26" class="node"><title>Node26</title>
<g id="a_node26"><a xlink:href="RaCore_8hpp.html" target="_top" xlink:title="Core/RaCore.hpp">
<polygon fill="white" stroke="black" points="1090,-112.5 1090,-131.5 1188,-131.5 1188,-112.5 1090,-112.5"/>
<text text-anchor="middle" x="1139" y="-119.5" font-family="Helvetica,sans-Serif" font-size="10.00">Core/RaCore.hpp</text>
</a>
</g>
</g>
<!-- Node25&#45;&gt;Node26 -->
<g id="edge27" class="edge"><title>Node25&#45;&gt;Node26</title>
<path fill="none" stroke="midnightblue" d="M1165.72,-168.083C1161.29,-160.613 1154.84,-149.724 1149.38,-140.52"/>
<polygon fill="midnightblue" stroke="midnightblue" points="1152.29,-138.57 1144.19,-131.751 1146.27,-142.138 1152.29,-138.57"/>
</g>
<!-- Node26&#45;&gt;Node4 -->
<g id="edge28" class="edge"><title>Node26&#45;&gt;Node4</title>
<path fill="none" stroke="midnightblue" d="M1114.12,-112.444C1087.71,-103.359 1045.78,-88.9388 1016.26,-78.7831"/>
<polygon fill="midnightblue" stroke="midnightblue" points="1017.36,-75.4593 1006.76,-75.5164 1015.08,-82.0787 1017.36,-75.4593"/>
</g>
<!-- Node29&#45;&gt;Node3 -->
<g id="edge34" class="edge"><title>Node29&#45;&gt;Node3</title>
<path fill="none" stroke="midnightblue" d="M840.327,-224.444C794.255,-214.984 720.004,-199.738 670.369,-189.547"/>
<polygon fill="midnightblue" stroke="midnightblue" points="670.978,-186.099 660.478,-187.516 669.57,-192.956 670.978,-186.099"/>
</g>
<!-- Node30 -->
<g id="node30" class="node"><title>Node30</title>
<g id="a_node30"><a xlink:href="System_8hpp.html" target="_top" xlink:title="Engine/System/System.hpp">
<polygon fill="white" stroke="black" points="744.5,-168.5 744.5,-187.5 893.5,-187.5 893.5,-168.5 744.5,-168.5"/>
<text text-anchor="middle" x="819" y="-175.5" font-family="Helvetica,sans-Serif" font-size="10.00">Engine/System/System.hpp</text>
</a>
</g>
</g>
<!-- Node29&#45;&gt;Node30 -->
<g id="edge35" class="edge"><title>Node29&#45;&gt;Node30</title>
<path fill="none" stroke="midnightblue" d="M871.878,-224.324C862.474,-216.263 848.256,-204.077 836.931,-194.369"/>
<polygon fill="midnightblue" stroke="midnightblue" points="839.177,-191.684 829.306,-187.834 834.621,-196.999 839.177,-191.684"/>
</g>
<!-- Node30&#45;&gt;Node13 -->
<g id="edge37" class="edge"><title>Node30&#45;&gt;Node13</title>
<path fill="none" stroke="midnightblue" d="M802.612,-168.324C786.329,-159.703 761.133,-146.364 742.284,-136.386"/>
<polygon fill="midnightblue" stroke="midnightblue" points="743.823,-133.24 733.347,-131.655 740.548,-139.427 743.823,-133.24"/>
</g>
<!-- Node30&#45;&gt;Node14 -->
<g id="edge38" class="edge"><title>Node30&#45;&gt;Node14</title>
<path fill="none" stroke="midnightblue" d="M819,-168.083C819,-161.006 819,-150.861 819,-141.986"/>
<polygon fill="midnightblue" stroke="midnightblue" points="822.5,-141.751 819,-131.751 815.5,-141.751 822.5,-141.751"/>
</g>
<!-- Node30&#45;&gt;Node24 -->
<g id="edge36" class="edge"><title>Node30&#45;&gt;Node24</title>
<path fill="none" stroke="midnightblue" d="M844.828,-168.444C872.249,-159.359 915.777,-144.939 946.432,-134.783"/>
<polygon fill="midnightblue" stroke="midnightblue" points="947.901,-137.984 956.293,-131.516 945.7,-131.339 947.901,-137.984"/>
</g>
</g>
</svg>
