<?xml version="1.0" encoding="UTF-8" standalone="no"?>
<!DOCTYPE svg PUBLIC "-//W3C//DTD SVG 1.1//EN"
 "http://www.w3.org/Graphics/SVG/1.1/DTD/svg11.dtd">
<!-- Generated by graphviz version 2.38.0 (20140413.2041)
 -->
<!-- Title: /home/travis/build/STORM&#45;IRIT/Radium&#45;Engine/Plugins/Dummy/src/DummyPluginMacros.hpp Pages: 1 -->
<svg width="905pt" height="206pt"
 viewBox="0.00 0.00 904.50 206.00" xmlns="http://www.w3.org/2000/svg" xmlns:xlink="http://www.w3.org/1999/xlink">
<g id="graph0" class="graph" transform="scale(1 1) rotate(0) translate(4 202)">
<title>/home/travis/build/STORM&#45;IRIT/Radium&#45;Engine/Plugins/Dummy/src/DummyPluginMacros.hpp</title>
<polygon fill="white" stroke="none" points="-4,4 -4,-202 900.5,-202 900.5,4 -4,4"/>
<!-- Node1 -->
<g id="node1" class="node"><title>Node1</title>
<polygon fill="#bfbfbf" stroke="black" points="451.5,-156.5 451.5,-197.5 688.5,-197.5 688.5,-156.5 451.5,-156.5"/>
<text text-anchor="start" x="459.5" y="-185.5" font-family="Helvetica,sans-Serif" font-size="10.00">/home/travis/build</text>
<text text-anchor="start" x="459.5" y="-174.5" font-family="Helvetica,sans-Serif" font-size="10.00">/STORM&#45;IRIT/Radium&#45;Engine</text>
<text text-anchor="middle" x="570" y="-163.5" font-family="Helvetica,sans-Serif" font-size="10.00">/Plugins/Dummy/src/DummyPluginMacros.hpp</text>
</g>
<!-- Node2 -->
<g id="node2" class="node"><title>Node2</title>
<g id="a_node2"><a xlink:href="DummyComponent_8hpp.html" target="_top" xlink:title="/home/travis/build\l/STORM&#45;IRIT/Radium&#45;Engine\l/Plugins/Dummy/src/DummyComponent.hpp">
<polygon fill="white" stroke="black" points="216,-78.5 216,-119.5 446,-119.5 446,-78.5 216,-78.5"/>
<text text-anchor="start" x="224" y="-107.5" font-family="Helvetica,sans-Serif" font-size="10.00">/home/travis/build</text>
<text text-anchor="start" x="224" y="-96.5" font-family="Helvetica,sans-Serif" font-size="10.00">/STORM&#45;IRIT/Radium&#45;Engine</text>
<text text-anchor="middle" x="331" y="-85.5" font-family="Helvetica,sans-Serif" font-size="10.00">/Plugins/Dummy/src/DummyComponent.hpp</text>
</a>
</g>
</g>
<!-- Node1&#45;&gt;Node2 -->
<g id="edge1" class="edge"><title>Node1&#45;&gt;Node2</title>
<path fill="none" stroke="midnightblue" d="M498.627,-153.304C464.795,-142.546 424.785,-129.823 392.34,-119.506"/>
<polygon fill="midnightblue" stroke="midnightblue" points="497.861,-156.733 508.452,-156.428 499.982,-150.062 497.861,-156.733"/>
</g>
<!-- Node5 -->
<g id="node5" class="node"><title>Node5</title>
<g id="a_node5"><a xlink:href="DummyPlugin_8hpp.html" target="_top" xlink:title="/home/travis/build\l/STORM&#45;IRIT/Radium&#45;Engine\l/Plugins/Dummy/src/DummyPlugin.hpp">
<polygon fill="white" stroke="black" points="693.5,-78.5 693.5,-119.5 896.5,-119.5 896.5,-78.5 693.5,-78.5"/>
<text text-anchor="start" x="701.5" y="-107.5" font-family="Helvetica,sans-Serif" font-size="10.00">/home/travis/build</text>
<text text-anchor="start" x="701.5" y="-96.5" font-family="Helvetica,sans-Serif" font-size="10.00">/STORM&#45;IRIT/Radium&#45;Engine</text>
<text text-anchor="middle" x="795" y="-85.5" font-family="Helvetica,sans-Serif" font-size="10.00">/Plugins/Dummy/src/DummyPlugin.hpp</text>
</a>
</g>
</g>
<!-- Node1&#45;&gt;Node5 -->
<g id="edge4" class="edge"><title>Node1&#45;&gt;Node5</title>
<path fill="none" stroke="midnightblue" d="M637.603,-153.165C669.365,-142.437 706.84,-129.779 737.253,-119.506"/>
<polygon fill="midnightblue" stroke="midnightblue" points="636.297,-149.912 627.943,-156.428 638.537,-156.544 636.297,-149.912"/>
</g>
<!-- Node7 -->
<g id="node7" class="node"><title>Node7</title>
<g id="a_node7"><a xlink:href="DummySystem_8hpp.html" target="_top" xlink:title="/home/travis/build\l/STORM&#45;IRIT/Radium&#45;Engine\l/Plugins/Dummy/src/DummySystem.hpp">
<polygon fill="white" stroke="black" points="464.5,-78.5 464.5,-119.5 675.5,-119.5 675.5,-78.5 464.5,-78.5"/>
<text text-anchor="start" x="472.5" y="-107.5" font-family="Helvetica,sans-Serif" font-size="10.00">/home/travis/build</text>
<text text-anchor="start" x="472.5" y="-96.5" font-family="Helvetica,sans-Serif" font-size="10.00">/STORM&#45;IRIT/Radium&#45;Engine</text>
<text text-anchor="middle" x="570" y="-85.5" font-family="Helvetica,sans-Serif" font-size="10.00">/Plugins/Dummy/src/DummySystem.hpp</text>
</a>
</g>
</g>
<!-- Node1&#45;&gt;Node7 -->
<g id="edge6" class="edge"><title>Node1&#45;&gt;Node7</title>
<path fill="none" stroke="midnightblue" d="M570,-146.297C570,-137.301 570,-127.653 570,-119.506"/>
<polygon fill="midnightblue" stroke="midnightblue" points="566.5,-146.428 570,-156.428 573.5,-146.428 566.5,-146.428"/>
</g>
<!-- Node3 -->
<g id="node3" class="node"><title>Node3</title>
<g id="a_node3"><a xlink:href="DummyComponent_8cpp.html" target="_top" xlink:title="/home/travis/build\l/STORM&#45;IRIT/Radium&#45;Engine\l/Plugins/Dummy/src/DummyComponent.cpp">
<polygon fill="white" stroke="black" points="0,-0.5 0,-41.5 230,-41.5 230,-0.5 0,-0.5"/>
<text text-anchor="start" x="8" y="-29.5" font-family="Helvetica,sans-Serif" font-size="10.00">/home/travis/build</text>
<text text-anchor="start" x="8" y="-18.5" font-family="Helvetica,sans-Serif" font-size="10.00">/STORM&#45;IRIT/Radium&#45;Engine</text>
<text text-anchor="middle" x="115" y="-7.5" font-family="Helvetica,sans-Serif" font-size="10.00">/Plugins/Dummy/src/DummyComponent.cpp</text>
</a>
</g>
</g>
<!-- Node2&#45;&gt;Node3 -->
<g id="edge2" class="edge"><title>Node2&#45;&gt;Node3</title>
<path fill="none" stroke="midnightblue" d="M265.707,-75.0264C235.299,-64.3275 199.508,-51.7343 170.437,-41.5056"/>
<polygon fill="midnightblue" stroke="midnightblue" points="264.78,-78.4106 275.375,-78.4281 267.103,-71.8074 264.78,-78.4106"/>
</g>
<!-- Node4 -->
<g id="node4" class="node"><title>Node4</title>
<g id="a_node4"><a xlink:href="DummySystem_8cpp.html" target="_top" xlink:title="/home/travis/build\l/STORM&#45;IRIT/Radium&#45;Engine\l/Plugins/Dummy/src/DummySystem.cpp">
<polygon fill="white" stroke="black" points="248,-0.5 248,-41.5 458,-41.5 458,-0.5 248,-0.5"/>
<text text-anchor="start" x="256" y="-29.5" font-family="Helvetica,sans-Serif" font-size="10.00">/home/travis/build</text>
<text text-anchor="start" x="256" y="-18.5" font-family="Helvetica,sans-Serif" font-size="10.00">/STORM&#45;IRIT/Radium&#45;Engine</text>
<text text-anchor="middle" x="353" y="-7.5" font-family="Helvetica,sans-Serif" font-size="10.00">/Plugins/Dummy/src/DummySystem.cpp</text>
</a>
</g>
</g>
<!-- Node2&#45;&gt;Node4 -->
<g id="edge3" class="edge"><title>Node2&#45;&gt;Node4</title>
<path fill="none" stroke="midnightblue" d="M339.514,-68.5896C342.142,-59.5108 344.97,-49.7417 347.354,-41.5056"/>
<polygon fill="midnightblue" stroke="midnightblue" points="336.084,-67.8492 336.666,-78.4281 342.808,-69.7957 336.084,-67.8492"/>
</g>
<!-- Node6 -->
<g id="node6" class="node"><title>Node6</title>
<g id="a_node6"><a xlink:href="DummyPlugin_8cpp.html" target="_top" xlink:title="/home/travis/build\l/STORM&#45;IRIT/Radium&#45;Engine\l/Plugins/Dummy/src/DummyPlugin.cpp">
<polygon fill="white" stroke="black" points="690,-0.5 690,-41.5 892,-41.5 892,-0.5 690,-0.5"/>
<text text-anchor="start" x="698" y="-29.5" font-family="Helvetica,sans-Serif" font-size="10.00">/home/travis/build</text>
<text text-anchor="start" x="698" y="-18.5" font-family="Helvetica,sans-Serif" font-size="10.00">/STORM&#45;IRIT/Radium&#45;Engine</text>
<text text-anchor="middle" x="791" y="-7.5" font-family="Helvetica,sans-Serif" font-size="10.00">/Plugins/Dummy/src/DummyPlugin.cpp</text>
</a>
</g>
</g>
<!-- Node5&#45;&gt;Node6 -->
<g id="edge5" class="edge"><title>Node5&#45;&gt;Node6</title>
<path fill="none" stroke="midnightblue" d="M793.437,-68.2965C792.963,-59.3009 792.455,-49.6532 792.027,-41.5056"/>
<polygon fill="midnightblue" stroke="midnightblue" points="789.949,-68.6259 793.97,-78.4281 796.939,-68.2579 789.949,-68.6259"/>
</g>
<!-- Node7&#45;&gt;Node4 -->
<g id="edge8" class="edge"><title>Node7&#45;&gt;Node4</title>
<path fill="none" stroke="midnightblue" d="M504.404,-75.0264C473.856,-64.3275 437.899,-51.7343 408.694,-41.5056"/>
<polygon fill="midnightblue" stroke="midnightblue" points="503.522,-78.4259 514.117,-78.4281 505.836,-71.8193 503.522,-78.4259"/>
</g>
<!-- Node7&#45;&gt;Node6 -->
<g id="edge7" class="edge"><title>Node7&#45;&gt;Node6</title>
<path fill="none" stroke="midnightblue" d="M636.401,-75.1652C667.599,-64.4366 704.407,-51.7786 734.28,-41.5056"/>
<polygon fill="midnightblue" stroke="midnightblue" points="635.231,-71.8663 626.913,-78.4281 637.508,-78.4858 635.231,-71.8663"/>
</g>
<!-- Node8 -->
<g id="node8" class="node"><title>Node8</title>
<g id="a_node8"><a xlink:href="DummyTask_8cpp.html" target="_top" xlink:title="/home/travis/build\l/STORM&#45;IRIT/Radium&#45;Engine\l/Plugins/Dummy/src/DummyTask.cpp">
<polygon fill="white" stroke="black" points="476,-0.5 476,-41.5 670,-41.5 670,-0.5 476,-0.5"/>
<text text-anchor="start" x="484" y="-29.5" font-family="Helvetica,sans-Serif" font-size="10.00">/home/travis/build</text>
<text text-anchor="start" x="484" y="-18.5" font-family="Helvetica,sans-Serif" font-size="10.00">/STORM&#45;IRIT/Radium&#45;Engine</text>
<text text-anchor="middle" x="573" y="-7.5" font-family="Helvetica,sans-Serif" font-size="10.00">/Plugins/Dummy/src/DummyTask.cpp</text>
</a>
</g>
</g>
<!-- Node7&#45;&gt;Node8 -->
<g id="edge9" class="edge"><title>Node7&#45;&gt;Node8</title>
<path fill="none" stroke="midnightblue" d="M571.173,-68.2965C571.528,-59.3009 571.908,-49.6532 572.23,-41.5056"/>
<polygon fill="midnightblue" stroke="midnightblue" points="567.67,-68.2978 570.773,-78.4281 574.664,-68.574 567.67,-68.2978"/>
</g>
</g>
</svg>
