<?xml version="1.0" encoding="UTF-8" standalone="no"?>
<!DOCTYPE svg PUBLIC "-//W3C//DTD SVG 1.1//EN"
 "http://www.w3.org/Graphics/SVG/1.1/DTD/svg11.dtd">
<!-- Generated by graphviz version 2.38.0 (20140413.2041)
 -->
<!-- Title: /home/travis/build/STORM&#45;IRIT/Radium&#45;Engine/Plugins/Dummy/src/DummyComponent.hpp Pages: 1 -->
<svg width="818pt" height="274pt"
 viewBox="0.00 0.00 817.50 274.00" xmlns="http://www.w3.org/2000/svg" xmlns:xlink="http://www.w3.org/1999/xlink">
<g id="graph0" class="graph" transform="scale(1 1) rotate(0) translate(4 270)">
<title>/home/travis/build/STORM&#45;IRIT/Radium&#45;Engine/Plugins/Dummy/src/DummyComponent.hpp</title>
<polygon fill="white" stroke="none" points="-4,4 -4,-270 813.5,-270 813.5,4 -4,4"/>
<!-- Node1 -->
<g id="node1" class="node"><title>Node1</title>
<polygon fill="#bfbfbf" stroke="black" points="130.5,-224.5 130.5,-265.5 360.5,-265.5 360.5,-224.5 130.5,-224.5"/>
<text text-anchor="start" x="138.5" y="-253.5" font-family="Helvetica,sans-Serif" font-size="10.00">/home/travis/build</text>
<text text-anchor="start" x="138.5" y="-242.5" font-family="Helvetica,sans-Serif" font-size="10.00">/STORM&#45;IRIT/Radium&#45;Engine</text>
<text text-anchor="middle" x="245.5" y="-231.5" font-family="Helvetica,sans-Serif" font-size="10.00">/Plugins/Dummy/src/DummyComponent.hpp</text>
</g>
<!-- Node2 -->
<g id="node2" class="node"><title>Node2</title>
<g id="a_node2"><a xlink:href="DummyPluginMacros_8hpp.html" target="_top" xlink:title="DummyPluginMacros.hpp">
<polygon fill="white" stroke="black" points="0,-168.5 0,-187.5 139,-187.5 139,-168.5 0,-168.5"/>
<text text-anchor="middle" x="69.5" y="-175.5" font-family="Helvetica,sans-Serif" font-size="10.00">DummyPluginMacros.hpp</text>
</a>
</g>
</g>
<!-- Node1&#45;&gt;Node2 -->
<g id="edge1" class="edge"><title>Node1&#45;&gt;Node2</title>
<path fill="none" stroke="midnightblue" d="M192.694,-224.498C163.375,-213.67 127.815,-200.537 102.451,-191.17"/>
<polygon fill="midnightblue" stroke="midnightblue" points="103.522,-187.834 92.9283,-187.652 101.096,-194.4 103.522,-187.834"/>
</g>
<!-- Node9 -->
<g id="node9" class="node"><title>Node9</title>
<polygon fill="white" stroke="#bfbfbf" points="162.5,-168.5 162.5,-187.5 328.5,-187.5 328.5,-168.5 162.5,-168.5"/>
<text text-anchor="middle" x="245.5" y="-175.5" font-family="Helvetica,sans-Serif" font-size="10.00">Core/Geometry/MeshTypes.hpp</text>
</g>
<!-- Node1&#45;&gt;Node9 -->
<g id="edge8" class="edge"><title>Node1&#45;&gt;Node9</title>
<path fill="none" stroke="midnightblue" d="M245.5,-224.498C245.5,-216.065 245.5,-206.235 245.5,-197.874"/>
<polygon fill="midnightblue" stroke="midnightblue" points="249,-197.652 245.5,-187.652 242,-197.653 249,-197.652"/>
</g>
<!-- Node10 -->
<g id="node10" class="node"><title>Node10</title>
<g id="a_node10"><a xlink:href="Component_8hpp.html" target="_top" xlink:title="Engine/Component/Component.hpp">
<polygon fill="white" stroke="black" points="348.5,-168.5 348.5,-187.5 536.5,-187.5 536.5,-168.5 348.5,-168.5"/>
<text text-anchor="middle" x="442.5" y="-175.5" font-family="Helvetica,sans-Serif" font-size="10.00">Engine/Component/Component.hpp</text>
</a>
</g>
</g>
<!-- Node1&#45;&gt;Node10 -->
<g id="edge9" class="edge"><title>Node1&#45;&gt;Node10</title>
<path fill="none" stroke="midnightblue" d="M304.606,-224.498C337.961,-213.493 378.531,-200.106 407.001,-190.713"/>
<polygon fill="midnightblue" stroke="midnightblue" points="408.135,-194.024 416.535,-187.567 405.942,-187.377 408.135,-194.024"/>
</g>
<!-- Node3 -->
<g id="node3" class="node"><title>Node3</title>
<g id="a_node3"><a xlink:href="CoreMacros_8hpp.html" target="_top" xlink:title="Core/CoreMacros.hpp">
<polygon fill="white" stroke="black" points="142.5,-56.5 142.5,-75.5 262.5,-75.5 262.5,-56.5 142.5,-56.5"/>
<text text-anchor="middle" x="202.5" y="-63.5" font-family="Helvetica,sans-Serif" font-size="10.00">Core/CoreMacros.hpp</text>
</a>
</g>
</g>
<!-- Node2&#45;&gt;Node3 -->
<g id="edge2" class="edge"><title>Node2&#45;&gt;Node3</title>
<path fill="none" stroke="midnightblue" d="M68.2688,-168.324C66.8452,-154.72 66.1866,-128.251 79.5,-112 92.998,-95.5236 113.086,-85.0799 133.134,-78.4601"/>
<polygon fill="midnightblue" stroke="midnightblue" points="134.377,-81.7413 142.944,-75.5078 132.36,-75.0382 134.377,-81.7413"/>
</g>
<!-- Node4 -->
<g id="node4" class="node"><title>Node4</title>
<polygon fill="white" stroke="#bfbfbf" points="39.5,-0.5 39.5,-19.5 91.5,-19.5 91.5,-0.5 39.5,-0.5"/>
<text text-anchor="middle" x="65.5" y="-7.5" font-family="Helvetica,sans-Serif" font-size="10.00">cassert</text>
</g>
<!-- Node3&#45;&gt;Node4 -->
<g id="edge3" class="edge"><title>Node3&#45;&gt;Node4</title>
<path fill="none" stroke="midnightblue" d="M180.792,-56.4435C158.145,-47.5171 122.428,-33.4387 96.7482,-23.3168"/>
<polygon fill="midnightblue" stroke="midnightblue" points="97.6934,-19.9273 87.1065,-19.5164 95.1264,-26.4397 97.6934,-19.9273"/>
</g>
<!-- Node5 -->
<g id="node5" class="node"><title>Node5</title>
<polygon fill="white" stroke="#bfbfbf" points="110,-0.5 110,-19.5 155,-19.5 155,-0.5 110,-0.5"/>
<text text-anchor="middle" x="132.5" y="-7.5" font-family="Helvetica,sans-Serif" font-size="10.00">cstdio</text>
</g>
<!-- Node3&#45;&gt;Node5 -->
<g id="edge4" class="edge"><title>Node3&#45;&gt;Node5</title>
<path fill="none" stroke="midnightblue" d="M191.253,-56.324C180.703,-48.1849 164.699,-35.8395 152.058,-26.0874"/>
<polygon fill="midnightblue" stroke="midnightblue" points="154.007,-23.1707 143.951,-19.8339 149.731,-28.7132 154.007,-23.1707"/>
</g>
<!-- Node6 -->
<g id="node6" class="node"><title>Node6</title>
<polygon fill="white" stroke="#bfbfbf" points="173,-0.5 173,-19.5 232,-19.5 232,-0.5 173,-0.5"/>
<text text-anchor="middle" x="202.5" y="-7.5" font-family="Helvetica,sans-Serif" font-size="10.00">iostream</text>
</g>
<!-- Node3&#45;&gt;Node6 -->
<g id="edge5" class="edge"><title>Node3&#45;&gt;Node6</title>
<path fill="none" stroke="midnightblue" d="M202.5,-56.083C202.5,-49.0059 202.5,-38.8611 202.5,-29.9865"/>
<polygon fill="midnightblue" stroke="midnightblue" points="206,-29.751 202.5,-19.7511 199,-29.7511 206,-29.751"/>
</g>
<!-- Node7 -->
<g id="node7" class="node"><title>Node7</title>
<polygon fill="white" stroke="#bfbfbf" points="250.5,-0.5 250.5,-19.5 306.5,-19.5 306.5,-0.5 250.5,-0.5"/>
<text text-anchor="middle" x="278.5" y="-7.5" font-family="Helvetica,sans-Serif" font-size="10.00">sstream</text>
</g>
<!-- Node3&#45;&gt;Node7 -->
<g id="edge6" class="edge"><title>Node3&#45;&gt;Node7</title>
<path fill="none" stroke="midnightblue" d="M214.711,-56.324C226.276,-48.1066 243.875,-35.6017 257.661,-25.8069"/>
<polygon fill="midnightblue" stroke="midnightblue" points="259.943,-28.4791 266.067,-19.8339 255.888,-22.7729 259.943,-28.4791"/>
</g>
<!-- Node8 -->
<g id="node8" class="node"><title>Node8</title>
<polygon fill="white" stroke="#bfbfbf" points="324.5,-0.5 324.5,-19.5 372.5,-19.5 372.5,-0.5 324.5,-0.5"/>
<text text-anchor="middle" x="348.5" y="-7.5" font-family="Helvetica,sans-Serif" font-size="10.00">thread</text>
</g>
<!-- Node3&#45;&gt;Node8 -->
<g id="edge7" class="edge"><title>Node3&#45;&gt;Node8</title>
<path fill="none" stroke="midnightblue" d="M225.634,-56.4435C249.982,-47.4381 288.507,-33.1891 315.923,-23.049"/>
<polygon fill="midnightblue" stroke="midnightblue" points="317.309,-26.2681 325.474,-19.5164 314.881,-19.7028 317.309,-26.2681"/>
</g>
<!-- Node11 -->
<g id="node11" class="node"><title>Node11</title>
<g id="a_node11"><a xlink:href="Index_8hpp.html" target="_top" xlink:title="Core/Utils/Index.hpp">
<polygon fill="white" stroke="black" points="686,-112.5 686,-131.5 799,-131.5 799,-112.5 686,-112.5"/>
<text text-anchor="middle" x="742.5" y="-119.5" font-family="Helvetica,sans-Serif" font-size="10.00">Core/Utils/Index.hpp</text>
</a>
</g>
</g>
<!-- Node10&#45;&gt;Node11 -->
<g id="edge10" class="edge"><title>Node10&#45;&gt;Node11</title>
<path fill="none" stroke="midnightblue" d="M490.036,-168.444C543.028,-158.905 628.703,-143.483 685.317,-133.293"/>
<polygon fill="midnightblue" stroke="midnightblue" points="685.965,-136.733 695.187,-131.516 684.725,-129.843 685.965,-136.733"/>
</g>
<!-- Node14 -->
<g id="node14" class="node"><title>Node14</title>
<polygon fill="white" stroke="#bfbfbf" points="88.5,-112.5 88.5,-131.5 156.5,-131.5 156.5,-112.5 88.5,-112.5"/>
<text text-anchor="middle" x="122.5" y="-119.5" font-family="Helvetica,sans-Serif" font-size="10.00">Eigen/Core</text>
</g>
<!-- Node10&#45;&gt;Node14 -->
<g id="edge13" class="edge"><title>Node10&#45;&gt;Node14</title>
<path fill="none" stroke="midnightblue" d="M385.339,-168.487C331.43,-160.284 248.125,-147.158 166.663,-132.151"/>
<polygon fill="midnightblue" stroke="midnightblue" points="167.21,-128.693 156.74,-130.312 165.935,-135.576 167.21,-128.693"/>
</g>
<!-- Node15 -->
<g id="node15" class="node"><title>Node15</title>
<polygon fill="white" stroke="#bfbfbf" points="174.5,-112.5 174.5,-131.5 268.5,-131.5 268.5,-112.5 174.5,-112.5"/>
<text text-anchor="middle" x="221.5" y="-119.5" font-family="Helvetica,sans-Serif" font-size="10.00">Eigen/Geometry</text>
</g>
<!-- Node10&#45;&gt;Node15 -->
<g id="edge14" class="edge"><title>Node10&#45;&gt;Node15</title>
<path fill="none" stroke="midnightblue" d="M407.482,-168.444C369.252,-159.102 307.933,-144.119 266.243,-133.933"/>
<polygon fill="midnightblue" stroke="midnightblue" points="266.899,-130.49 256.354,-131.516 265.238,-137.29 266.899,-130.49"/>
</g>
<!-- Node16 -->
<g id="node16" class="node"><title>Node16</title>
<g id="a_node16"><a xlink:href="RaEngine_8hpp.html" target="_top" xlink:title="Engine/RaEngine.hpp">
<polygon fill="white" stroke="black" points="287,-112.5 287,-131.5 404,-131.5 404,-112.5 287,-112.5"/>
<text text-anchor="middle" x="345.5" y="-119.5" font-family="Helvetica,sans-Serif" font-size="10.00">Engine/RaEngine.hpp</text>
</a>
</g>
</g>
<!-- Node10&#45;&gt;Node16 -->
<g id="edge15" class="edge"><title>Node10&#45;&gt;Node16</title>
<path fill="none" stroke="midnightblue" d="M426.915,-168.324C411.501,-159.743 387.688,-146.486 369.79,-136.522"/>
<polygon fill="midnightblue" stroke="midnightblue" points="371.486,-133.461 361.046,-131.655 368.081,-139.577 371.486,-133.461"/>
</g>
<!-- Node17 -->
<g id="node17" class="node"><title>Node17</title>
<polygon fill="white" stroke="#bfbfbf" points="422,-112.5 422,-131.5 469,-131.5 469,-112.5 422,-112.5"/>
<text text-anchor="middle" x="445.5" y="-119.5" font-family="Helvetica,sans-Serif" font-size="10.00">vector</text>
</g>
<!-- Node10&#45;&gt;Node17 -->
<g id="edge17" class="edge"><title>Node10&#45;&gt;Node17</title>
<path fill="none" stroke="midnightblue" d="M442.995,-168.083C443.389,-161.006 443.952,-150.861 444.445,-141.986"/>
<polygon fill="midnightblue" stroke="midnightblue" points="447.954,-141.93 445.014,-131.751 440.964,-141.542 447.954,-141.93"/>
</g>
<!-- Node18 -->
<g id="node18" class="node"><title>Node18</title>
<g id="a_node18"><a xlink:href="Component_8inl.html" target="_top" xlink:title="Engine/Component/Component.inl">
<polygon fill="white" stroke="black" points="487,-112.5 487,-131.5 668,-131.5 668,-112.5 487,-112.5"/>
<text text-anchor="middle" x="577.5" y="-119.5" font-family="Helvetica,sans-Serif" font-size="10.00">Engine/Component/Component.inl</text>
</a>
</g>
</g>
<!-- Node10&#45;&gt;Node18 -->
<g id="edge18" class="edge"><title>Node10&#45;&gt;Node18</title>
<path fill="none" stroke="midnightblue" d="M458.802,-168.444C479.341,-159.438 514.749,-145.189 541.647,-135.049"/>
<polygon fill="midnightblue" stroke="midnightblue" points="542.98,-138.288 551.129,-131.516 540.536,-131.728 542.98,-138.288"/>
</g>
<!-- Node12 -->
<g id="node12" class="node"><title>Node12</title>
<polygon fill="white" stroke="#bfbfbf" points="767.5,-56.5 767.5,-75.5 809.5,-75.5 809.5,-56.5 767.5,-56.5"/>
<text text-anchor="middle" x="788.5" y="-63.5" font-family="Helvetica,sans-Serif" font-size="10.00">limits</text>
</g>
<!-- Node11&#45;&gt;Node12 -->
<g id="edge11" class="edge"><title>Node11&#45;&gt;Node12</title>
<path fill="none" stroke="midnightblue" d="M750.096,-112.083C756.727,-104.298 766.521,-92.8015 774.558,-83.3665"/>
<polygon fill="midnightblue" stroke="midnightblue" points="777.225,-85.6332 781.045,-75.7511 771.896,-81.0939 777.225,-85.6332"/>
</g>
<!-- Node13 -->
<g id="node13" class="node"><title>Node13</title>
<g id="a_node13"><a xlink:href="Index_8inl.html" target="_top" xlink:title="Core/Utils/Index.inl">
<polygon fill="white" stroke="black" points="644,-56.5 644,-75.5 749,-75.5 749,-56.5 644,-56.5"/>
<text text-anchor="middle" x="696.5" y="-63.5" font-family="Helvetica,sans-Serif" font-size="10.00">Core/Utils/Index.inl</text>
</a>
</g>
</g>
<!-- Node11&#45;&gt;Node13 -->
<g id="edge12" class="edge"><title>Node11&#45;&gt;Node13</title>
<path fill="none" stroke="midnightblue" d="M734.904,-112.083C728.273,-104.298 718.479,-92.8015 710.442,-83.3665"/>
<polygon fill="midnightblue" stroke="midnightblue" points="713.104,-81.0939 703.955,-75.7511 707.775,-85.6332 713.104,-81.0939"/>
</g>
<!-- Node16&#45;&gt;Node3 -->
<g id="edge16" class="edge"><title>Node16&#45;&gt;Node3</title>
<path fill="none" stroke="midnightblue" d="M322.841,-112.444C299.098,-103.478 261.591,-89.314 234.762,-79.1827"/>
<polygon fill="midnightblue" stroke="midnightblue" points="235.644,-75.7749 225.053,-75.5164 233.171,-82.3235 235.644,-75.7749"/>
</g>
<!-- Node18&#45;&gt;Node10 -->
<g id="edge19" class="edge"><title>Node18&#45;&gt;Node10</title>
<path fill="none" stroke="midnightblue" d="M561.289,-131.516C540.795,-140.506 505.396,-154.754 478.472,-164.906"/>
<polygon fill="midnightblue" stroke="midnightblue" points="477.128,-161.672 468.98,-168.444 479.573,-168.231 477.128,-161.672"/>
</g>
</g>
</svg>
