<?xml version="1.0" encoding="UTF-8" standalone="no"?>
<!DOCTYPE svg PUBLIC "-//W3C//DTD SVG 1.1//EN"
 "http://www.w3.org/Graphics/SVG/1.1/DTD/svg11.dtd">
<!-- Generated by graphviz version 2.38.0 (20140413.2041)
 -->
<!-- Title: /home/travis/build/STORM&#45;IRIT/Radium&#45;Engine/src/GuiBase/TreeModel/EntityTreeModel.cpp Pages: 1 -->
<svg width="2105pt" height="419pt"
 viewBox="0.00 0.00 2104.93 419.00" xmlns="http://www.w3.org/2000/svg" xmlns:xlink="http://www.w3.org/1999/xlink">
<g id="graph0" class="graph" transform="scale(1 1) rotate(0) translate(4 415)">
<title>/home/travis/build/STORM&#45;IRIT/Radium&#45;Engine/src/GuiBase/TreeModel/EntityTreeModel.cpp</title>
<polygon fill="white" stroke="none" points="-4,4 -4,-415 2100.93,-415 2100.93,4 -4,4"/>
<!-- Node1 -->
<g id="node1" class="node"><title>Node1</title>
<polygon fill="#bfbfbf" stroke="black" points="1166.5,-358.5 1166.5,-410.5 1343.5,-410.5 1343.5,-358.5 1166.5,-358.5"/>
<text text-anchor="start" x="1174.5" y="-398.5" font-family="Helvetica,sans-Serif" font-size="10.00">/home/travis/build</text>
<text text-anchor="start" x="1174.5" y="-387.5" font-family="Helvetica,sans-Serif" font-size="10.00">/STORM&#45;IRIT/Radium&#45;Engine</text>
<text text-anchor="start" x="1174.5" y="-376.5" font-family="Helvetica,sans-Serif" font-size="10.00">/src/GuiBase/TreeModel/EntityTree</text>
<text text-anchor="middle" x="1255" y="-365.5" font-family="Helvetica,sans-Serif" font-size="10.00">Model.cpp</text>
</g>
<!-- Node2 -->
<g id="node2" class="node"><title>Node2</title>
<g id="a_node2"><a xlink:href="EntityTreeModel_8hpp.html" target="_top" xlink:title="GuiBase/TreeModel/Entity\lTreeModel.hpp">
<polygon fill="white" stroke="black" points="757.5,-291.5 757.5,-321.5 894.5,-321.5 894.5,-291.5 757.5,-291.5"/>
<text text-anchor="start" x="765.5" y="-309.5" font-family="Helvetica,sans-Serif" font-size="10.00">GuiBase/TreeModel/Entity</text>
<text text-anchor="middle" x="826" y="-298.5" font-family="Helvetica,sans-Serif" font-size="10.00">TreeModel.hpp</text>
</a>
</g>
</g>
<!-- Node1&#45;&gt;Node2 -->
<g id="edge1" class="edge"><title>Node1&#45;&gt;Node2</title>
<path fill="none" stroke="midnightblue" d="M1166.37,-367.799C1089.39,-354.162 978.947,-334.596 904.956,-321.487"/>
<polygon fill="midnightblue" stroke="midnightblue" points="905.222,-317.98 894.764,-319.682 904,-324.873 905.222,-317.98"/>
</g>
<!-- Node26 -->
<g id="node26" class="node"><title>Node26</title>
<polygon fill="white" stroke="#bfbfbf" points="1321,-297 1321,-316 1363,-316 1363,-297 1321,-297"/>
<text text-anchor="middle" x="1342" y="-304" font-family="Helvetica,sans-Serif" font-size="10.00">stack</text>
</g>
<!-- Node1&#45;&gt;Node26 -->
<g id="edge33" class="edge"><title>Node1&#45;&gt;Node26</title>
<path fill="none" stroke="midnightblue" d="M1283.97,-358.193C1297.33,-346.518 1312.77,-333.037 1324.36,-322.913"/>
<polygon fill="midnightblue" stroke="midnightblue" points="1326.8,-325.424 1332.03,-316.209 1322.2,-320.152 1326.8,-325.424"/>
</g>
<!-- Node27 -->
<g id="node27" class="node"><title>Node27</title>
<g id="a_node27"><a xlink:href="Component_8hpp.html" target="_top" xlink:title="Engine/Component/Component.hpp">
<polygon fill="white" stroke="black" points="1694,-230 1694,-249 1882,-249 1882,-230 1694,-230"/>
<text text-anchor="middle" x="1788" y="-237" font-family="Helvetica,sans-Serif" font-size="10.00">Engine/Component/Component.hpp</text>
</a>
</g>
</g>
<!-- Node1&#45;&gt;Node27 -->
<g id="edge34" class="edge"><title>Node1&#45;&gt;Node27</title>
<path fill="none" stroke="midnightblue" d="M1263.4,-358.098C1271.99,-336.418 1287.58,-306.382 1312,-291 1342.71,-271.656 1553.18,-255.196 1683.76,-246.692"/>
<polygon fill="midnightblue" stroke="midnightblue" points="1684.04,-250.181 1693.8,-246.043 1683.59,-243.195 1684.04,-250.181"/>
</g>
<!-- Node31 -->
<g id="node31" class="node"><title>Node31</title>
<g id="a_node31"><a xlink:href="Entity_8hpp.html" target="_top" xlink:title="Engine/Entity/Entity.hpp">
<polygon fill="white" stroke="black" points="1349,-230 1349,-249 1477,-249 1477,-230 1349,-230"/>
<text text-anchor="middle" x="1413" y="-237" font-family="Helvetica,sans-Serif" font-size="10.00">Engine/Entity/Entity.hpp</text>
</a>
</g>
</g>
<!-- Node1&#45;&gt;Node31 -->
<g id="edge42" class="edge"><title>Node1&#45;&gt;Node31</title>
<path fill="none" stroke="midnightblue" d="M1255.41,-358.166C1257.06,-337.705 1262.48,-309.386 1279,-291 1296.83,-271.167 1323.24,-259.088 1347.91,-251.747"/>
<polygon fill="midnightblue" stroke="midnightblue" points="1348.91,-255.102 1357.62,-249.067 1347.05,-248.354 1348.91,-255.102"/>
</g>
<!-- Node37 -->
<g id="node37" class="node"><title>Node37</title>
<g id="a_node37"><a xlink:href="EntityManager_8hpp.html" target="_top" xlink:title="Engine/Managers/EntityManager\l/EntityManager.hpp">
<polygon fill="white" stroke="black" points="566.5,-224.5 566.5,-254.5 737.5,-254.5 737.5,-224.5 566.5,-224.5"/>
<text text-anchor="start" x="574.5" y="-242.5" font-family="Helvetica,sans-Serif" font-size="10.00">Engine/Managers/EntityManager</text>
<text text-anchor="middle" x="652" y="-231.5" font-family="Helvetica,sans-Serif" font-size="10.00">/EntityManager.hpp</text>
</a>
</g>
</g>
<!-- Node1&#45;&gt;Node37 -->
<g id="edge58" class="edge"><title>Node1&#45;&gt;Node37</title>
<path fill="none" stroke="midnightblue" d="M1166.39,-358.679C1095.42,-339.173 993.177,-311.901 903,-291 848.209,-278.301 786.261,-265.818 737.617,-256.44"/>
<polygon fill="midnightblue" stroke="midnightblue" points="738.24,-252.996 727.76,-254.547 736.92,-259.87 738.24,-252.996"/>
</g>
<!-- Node3 -->
<g id="node3" class="node"><title>Node3</title>
<g id="a_node3"><a xlink:href="RaGuiBase_8hpp.html" target="_top" xlink:title="GuiBase/RaGuiBase.hpp">
<polygon fill="white" stroke="black" points="0,-168.5 0,-187.5 132,-187.5 132,-168.5 0,-168.5"/>
<text text-anchor="middle" x="66" y="-175.5" font-family="Helvetica,sans-Serif" font-size="10.00">GuiBase/RaGuiBase.hpp</text>
</a>
</g>
</g>
<!-- Node2&#45;&gt;Node3 -->
<g id="edge2" class="edge"><title>Node2&#45;&gt;Node3</title>
<path fill="none" stroke="midnightblue" d="M757.205,-306.107C648.229,-305.592 429.916,-298.537 251,-255 191.481,-240.517 126.14,-209.904 91.2654,-192.269"/>
<polygon fill="midnightblue" stroke="midnightblue" points="92.7635,-189.104 82.2671,-187.664 89.5743,-195.336 92.7635,-189.104"/>
</g>
<!-- Node10 -->
<g id="node10" class="node"><title>Node10</title>
<g id="a_node10"><a xlink:href="ItemEntry_8hpp.html" target="_top" xlink:title="Engine/ItemModel/ItemEntry.hpp">
<polygon fill="white" stroke="black" points="915.5,-230 915.5,-249 1086.5,-249 1086.5,-230 915.5,-230"/>
<text text-anchor="middle" x="1001" y="-237" font-family="Helvetica,sans-Serif" font-size="10.00">Engine/ItemModel/ItemEntry.hpp</text>
</a>
</g>
</g>
<!-- Node2&#45;&gt;Node10 -->
<g id="edge9" class="edge"><title>Node2&#45;&gt;Node10</title>
<path fill="none" stroke="midnightblue" d="M863.972,-291.396C895.222,-279.789 939.037,-263.515 968.641,-252.519"/>
<polygon fill="midnightblue" stroke="midnightblue" points="969.941,-255.77 978.097,-249.007 967.504,-249.208 969.941,-255.77"/>
</g>
<!-- Node18 -->
<g id="node18" class="node"><title>Node18</title>
<g id="a_node18"><a xlink:href="RadiumEngine_8hpp.html" target="_top" xlink:title="Engine/RadiumEngine.hpp">
<polygon fill="white" stroke="black" points="755.5,-230 755.5,-249 896.5,-249 896.5,-230 755.5,-230"/>
<text text-anchor="middle" x="826" y="-237" font-family="Helvetica,sans-Serif" font-size="10.00">Engine/RadiumEngine.hpp</text>
</a>
</g>
</g>
<!-- Node2&#45;&gt;Node18 -->
<g id="edge18" class="edge"><title>Node2&#45;&gt;Node18</title>
<path fill="none" stroke="midnightblue" d="M826,-291.396C826,-282.064 826,-269.714 826,-259.517"/>
<polygon fill="midnightblue" stroke="midnightblue" points="829.5,-259.195 826,-249.195 822.5,-259.195 829.5,-259.195"/>
</g>
<!-- Node23 -->
<g id="node23" class="node"><title>Node23</title>
<g id="a_node23"><a xlink:href="TreeModel_8hpp.html" target="_top" xlink:title="GuiBase/TreeModel/TreeModel.hpp">
<polygon fill="white" stroke="black" points="260.5,-230 260.5,-249 439.5,-249 439.5,-230 260.5,-230"/>
<text text-anchor="middle" x="350" y="-237" font-family="Helvetica,sans-Serif" font-size="10.00">GuiBase/TreeModel/TreeModel.hpp</text>
</a>
</g>
</g>
<!-- Node2&#45;&gt;Node23 -->
<g id="edge27" class="edge"><title>Node2&#45;&gt;Node23</title>
<path fill="none" stroke="midnightblue" d="M757.294,-296.118C668.206,-283.952 513.502,-262.827 422.565,-250.409"/>
<polygon fill="midnightblue" stroke="midnightblue" points="422.995,-246.935 412.614,-249.05 422.048,-253.871 422.995,-246.935"/>
</g>
<!-- Node4 -->
<g id="node4" class="node"><title>Node4</title>
<g id="a_node4"><a xlink:href="CoreMacros_8hpp.html" target="_top" xlink:title="Core/CoreMacros.hpp">
<polygon fill="white" stroke="black" points="1110,-56.5 1110,-75.5 1230,-75.5 1230,-56.5 1110,-56.5"/>
<text text-anchor="middle" x="1170" y="-63.5" font-family="Helvetica,sans-Serif" font-size="10.00">Core/CoreMacros.hpp</text>
</a>
</g>
</g>
<!-- Node3&#45;&gt;Node4 -->
<g id="edge3" class="edge"><title>Node3&#45;&gt;Node4</title>
<path fill="none" stroke="midnightblue" d="M88.8079,-168.469C128.858,-153.923 214.729,-124.67 290,-112 445.197,-85.8773 919.389,-72.6765 1099.55,-68.5011"/>
<polygon fill="midnightblue" stroke="midnightblue" points="1099.78,-71.9966 1109.7,-68.2681 1099.62,-64.9985 1099.78,-71.9966"/>
</g>
<!-- Node5 -->
<g id="node5" class="node"><title>Node5</title>
<polygon fill="white" stroke="#bfbfbf" points="1254,-0.5 1254,-19.5 1306,-19.5 1306,-0.5 1254,-0.5"/>
<text text-anchor="middle" x="1280" y="-7.5" font-family="Helvetica,sans-Serif" font-size="10.00">cassert</text>
</g>
<!-- Node4&#45;&gt;Node5 -->
<g id="edge4" class="edge"><title>Node4&#45;&gt;Node5</title>
<path fill="none" stroke="midnightblue" d="M1187.67,-56.324C1205.39,-47.6247 1232.9,-34.1202 1253.29,-24.113"/>
<polygon fill="midnightblue" stroke="midnightblue" points="1254.94,-27.2031 1262.37,-19.6545 1251.85,-20.9195 1254.94,-27.2031"/>
</g>
<!-- Node6 -->
<g id="node6" class="node"><title>Node6</title>
<polygon fill="white" stroke="#bfbfbf" points="1039.5,-0.5 1039.5,-19.5 1084.5,-19.5 1084.5,-0.5 1039.5,-0.5"/>
<text text-anchor="middle" x="1062" y="-7.5" font-family="Helvetica,sans-Serif" font-size="10.00">cstdio</text>
</g>
<!-- Node4&#45;&gt;Node6 -->
<g id="edge5" class="edge"><title>Node4&#45;&gt;Node6</title>
<path fill="none" stroke="midnightblue" d="M1152.65,-56.324C1135.33,-47.6641 1108.48,-34.2424 1088.5,-24.249"/>
<polygon fill="midnightblue" stroke="midnightblue" points="1089.82,-20.9962 1079.31,-19.6545 1086.69,-27.2572 1089.82,-20.9962"/>
</g>
<!-- Node7 -->
<g id="node7" class="node"><title>Node7</title>
<polygon fill="white" stroke="#bfbfbf" points="1102.5,-0.5 1102.5,-19.5 1161.5,-19.5 1161.5,-0.5 1102.5,-0.5"/>
<text text-anchor="middle" x="1132" y="-7.5" font-family="Helvetica,sans-Serif" font-size="10.00">iostream</text>
</g>
<!-- Node4&#45;&gt;Node7 -->
<g id="edge6" class="edge"><title>Node4&#45;&gt;Node7</title>
<path fill="none" stroke="midnightblue" d="M1163.73,-56.083C1158.36,-48.4554 1150.48,-37.2645 1143.92,-27.9408"/>
<polygon fill="midnightblue" stroke="midnightblue" points="1146.78,-25.9149 1138.16,-19.7511 1141.05,-29.9434 1146.78,-25.9149"/>
</g>
<!-- Node8 -->
<g id="node8" class="node"><title>Node8</title>
<polygon fill="white" stroke="#bfbfbf" points="1180,-0.5 1180,-19.5 1236,-19.5 1236,-0.5 1180,-0.5"/>
<text text-anchor="middle" x="1208" y="-7.5" font-family="Helvetica,sans-Serif" font-size="10.00">sstream</text>
</g>
<!-- Node4&#45;&gt;Node8 -->
<g id="edge7" class="edge"><title>Node4&#45;&gt;Node8</title>
<path fill="none" stroke="midnightblue" d="M1176.27,-56.083C1181.64,-48.4554 1189.52,-37.2645 1196.08,-27.9408"/>
<polygon fill="midnightblue" stroke="midnightblue" points="1198.95,-29.9434 1201.84,-19.7511 1193.22,-25.9149 1198.95,-29.9434"/>
</g>
<!-- Node9 -->
<g id="node9" class="node"><title>Node9</title>
<polygon fill="white" stroke="#bfbfbf" points="1471,-0.5 1471,-19.5 1519,-19.5 1519,-0.5 1471,-0.5"/>
<text text-anchor="middle" x="1495" y="-7.5" font-family="Helvetica,sans-Serif" font-size="10.00">thread</text>
</g>
<!-- Node4&#45;&gt;Node9 -->
<g id="edge8" class="edge"><title>Node4&#45;&gt;Node9</title>
<path fill="none" stroke="midnightblue" d="M1221.5,-56.4435C1288.56,-45.3008 1403.94,-26.1303 1461,-16.6486"/>
<polygon fill="midnightblue" stroke="midnightblue" points="1461.66,-20.0869 1470.96,-14.9951 1460.52,-13.1816 1461.66,-20.0869"/>
</g>
<!-- Node11 -->
<g id="node11" class="node"><title>Node11</title>
<g id="a_node11"><a xlink:href="RaEngine_8hpp.html" target="_top" xlink:title="Engine/RaEngine.hpp">
<polygon fill="white" stroke="black" points="1102.5,-168.5 1102.5,-187.5 1219.5,-187.5 1219.5,-168.5 1102.5,-168.5"/>
<text text-anchor="middle" x="1161" y="-175.5" font-family="Helvetica,sans-Serif" font-size="10.00">Engine/RaEngine.hpp</text>
</a>
</g>
</g>
<!-- Node10&#45;&gt;Node11 -->
<g id="edge10" class="edge"><title>Node10&#45;&gt;Node11</title>
<path fill="none" stroke="midnightblue" d="M1023.92,-229.975C1051.37,-219.769 1097.52,-202.608 1128.6,-191.049"/>
<polygon fill="midnightblue" stroke="midnightblue" points="1129.97,-194.275 1138.12,-187.509 1127.53,-187.714 1129.97,-194.275"/>
</g>
<!-- Node12 -->
<g id="node12" class="node"><title>Node12</title>
<g id="a_node12"><a xlink:href="Index_8hpp.html" target="_top" xlink:title="Core/Utils/Index.hpp">
<polygon fill="white" stroke="black" points="1297.5,-112.5 1297.5,-131.5 1410.5,-131.5 1410.5,-112.5 1297.5,-112.5"/>
<text text-anchor="middle" x="1354" y="-119.5" font-family="Helvetica,sans-Serif" font-size="10.00">Core/Utils/Index.hpp</text>
</a>
</g>
</g>
<!-- Node10&#45;&gt;Node12 -->
<g id="edge12" class="edge"><title>Node10&#45;&gt;Node12</title>
<path fill="none" stroke="midnightblue" d="M1058.12,-229.987C1104.73,-222.052 1171.82,-208.353 1228,-188 1229.31,-187.525 1291.96,-155.122 1328.41,-136.253"/>
<polygon fill="midnightblue" stroke="midnightblue" points="1330.22,-139.256 1337.49,-131.55 1327,-133.04 1330.22,-139.256"/>
</g>
<!-- Node15 -->
<g id="node15" class="node"><title>Node15</title>
<polygon fill="white" stroke="#bfbfbf" points="792,-168.5 792,-187.5 836,-187.5 836,-168.5 792,-168.5"/>
<text text-anchor="middle" x="814" y="-175.5" font-family="Helvetica,sans-Serif" font-size="10.00">string</text>
</g>
<!-- Node10&#45;&gt;Node15 -->
<g id="edge15" class="edge"><title>Node10&#45;&gt;Node15</title>
<path fill="none" stroke="midnightblue" d="M974.207,-229.975C940.237,-219.166 881.753,-200.558 845.628,-189.063"/>
<polygon fill="midnightblue" stroke="midnightblue" points="846.661,-185.719 836.07,-186.022 844.538,-192.39 846.661,-185.719"/>
</g>
<!-- Node16 -->
<g id="node16" class="node"><title>Node16</title>
<polygon fill="white" stroke="#bfbfbf" points="854.5,-168.5 854.5,-187.5 901.5,-187.5 901.5,-168.5 854.5,-168.5"/>
<text text-anchor="middle" x="878" y="-175.5" font-family="Helvetica,sans-Serif" font-size="10.00">vector</text>
</g>
<!-- Node10&#45;&gt;Node16 -->
<g id="edge16" class="edge"><title>Node10&#45;&gt;Node16</title>
<path fill="none" stroke="midnightblue" d="M983.377,-229.975C962.826,-220.034 928.636,-203.495 904.793,-191.961"/>
<polygon fill="midnightblue" stroke="midnightblue" points="906.116,-188.713 895.59,-187.509 903.068,-195.015 906.116,-188.713"/>
</g>
<!-- Node17 -->
<g id="node17" class="node"><title>Node17</title>
<g id="a_node17"><a xlink:href="ItemEntry_8inl.html" target="_top" xlink:title="Engine/ItemModel/ItemEntry.inl">
<polygon fill="white" stroke="black" points="920,-168.5 920,-187.5 1084,-187.5 1084,-168.5 920,-168.5"/>
<text text-anchor="middle" x="1002" y="-175.5" font-family="Helvetica,sans-Serif" font-size="10.00">Engine/ItemModel/ItemEntry.inl</text>
</a>
</g>
</g>
<!-- Node10&#45;&gt;Node17 -->
<g id="edge17" class="edge"><title>Node10&#45;&gt;Node17</title>
<path fill="none" stroke="midnightblue" d="M1001.14,-229.975C1001.28,-221.58 1001.5,-208.481 1001.69,-197.663"/>
<polygon fill="midnightblue" stroke="midnightblue" points="1005.19,-197.567 1001.86,-187.509 998.189,-197.449 1005.19,-197.567"/>
</g>
<!-- Node11&#45;&gt;Node4 -->
<g id="edge11" class="edge"><title>Node11&#45;&gt;Node4</title>
<path fill="none" stroke="midnightblue" d="M1161.71,-168.368C1163.16,-150.617 1166.51,-109.666 1168.48,-85.5974"/>
<polygon fill="midnightblue" stroke="midnightblue" points="1171.97,-85.8436 1169.3,-75.5914 1164.99,-85.2727 1171.97,-85.8436"/>
</g>
<!-- Node13 -->
<g id="node13" class="node"><title>Node13</title>
<polygon fill="white" stroke="#bfbfbf" points="1407,-56.5 1407,-75.5 1449,-75.5 1449,-56.5 1407,-56.5"/>
<text text-anchor="middle" x="1428" y="-63.5" font-family="Helvetica,sans-Serif" font-size="10.00">limits</text>
</g>
<!-- Node12&#45;&gt;Node13 -->
<g id="edge13" class="edge"><title>Node12&#45;&gt;Node13</title>
<path fill="none" stroke="midnightblue" d="M1365.89,-112.324C1377.15,-104.107 1394.29,-91.6017 1407.71,-81.8069"/>
<polygon fill="midnightblue" stroke="midnightblue" points="1409.88,-84.5559 1415.89,-75.8339 1405.75,-78.9014 1409.88,-84.5559"/>
</g>
<!-- Node14 -->
<g id="node14" class="node"><title>Node14</title>
<g id="a_node14"><a xlink:href="Index_8inl.html" target="_top" xlink:title="Core/Utils/Index.inl">
<polygon fill="white" stroke="black" points="1283.5,-56.5 1283.5,-75.5 1388.5,-75.5 1388.5,-56.5 1283.5,-56.5"/>
<text text-anchor="middle" x="1336" y="-63.5" font-family="Helvetica,sans-Serif" font-size="10.00">Core/Utils/Index.inl</text>
</a>
</g>
</g>
<!-- Node12&#45;&gt;Node14 -->
<g id="edge14" class="edge"><title>Node12&#45;&gt;Node14</title>
<path fill="none" stroke="midnightblue" d="M1351.03,-112.083C1348.62,-104.849 1345.14,-94.4087 1342.13,-85.3968"/>
<polygon fill="midnightblue" stroke="midnightblue" points="1345.4,-84.1311 1338.92,-75.7511 1338.76,-86.3447 1345.4,-84.1311"/>
</g>
<!-- Node18&#45;&gt;Node11 -->
<g id="edge19" class="edge"><title>Node18&#45;&gt;Node11</title>
<path fill="none" stroke="midnightblue" d="M872.949,-229.953C883.801,-227.988 895.301,-225.914 906,-224 973.209,-211.979 1050.42,-198.383 1102.12,-189.312"/>
<polygon fill="midnightblue" stroke="midnightblue" points="1102.86,-192.735 1112.1,-187.56 1101.65,-185.84 1102.86,-192.735"/>
</g>
<!-- Node18&#45;&gt;Node15 -->
<g id="edge25" class="edge"><title>Node18&#45;&gt;Node15</title>
<path fill="none" stroke="midnightblue" d="M824.281,-229.975C822.57,-221.492 819.89,-208.204 817.695,-197.322"/>
<polygon fill="midnightblue" stroke="midnightblue" points="821.124,-196.62 815.716,-187.509 814.262,-198.004 821.124,-196.62"/>
</g>
<!-- Node18&#45;&gt;Node16 -->
<g id="edge26" class="edge"><title>Node18&#45;&gt;Node16</title>
<path fill="none" stroke="midnightblue" d="M833.45,-229.975C841.328,-220.962 853.945,-206.525 863.744,-195.312"/>
<polygon fill="midnightblue" stroke="midnightblue" points="866.618,-197.342 870.563,-187.509 861.347,-192.736 866.618,-197.342"/>
</g>
<!-- Node19 -->
<g id="node19" class="node"><title>Node19</title>
<g id="a_node19"><a xlink:href="Singleton_8hpp.html" target="_top" xlink:title="Core/Utils/Singleton.hpp">
<polygon fill="white" stroke="black" points="586,-168.5 586,-187.5 718,-187.5 718,-168.5 586,-168.5"/>
<text text-anchor="middle" x="652" y="-175.5" font-family="Helvetica,sans-Serif" font-size="10.00">Core/Utils/Singleton.hpp</text>
</a>
</g>
</g>
<!-- Node18&#45;&gt;Node19 -->
<g id="edge20" class="edge"><title>Node18&#45;&gt;Node19</title>
<path fill="none" stroke="midnightblue" d="M801.07,-229.975C770.964,-219.68 720.168,-202.31 686.362,-190.75"/>
<polygon fill="midnightblue" stroke="midnightblue" points="687.478,-187.433 676.884,-187.509 685.213,-194.056 687.478,-187.433"/>
</g>
<!-- Node21 -->
<g id="node21" class="node"><title>Node21</title>
<polygon fill="white" stroke="#bfbfbf" points="736,-168.5 736,-187.5 774,-187.5 774,-168.5 736,-168.5"/>
<text text-anchor="middle" x="755" y="-175.5" font-family="Helvetica,sans-Serif" font-size="10.00">map</text>
</g>
<!-- Node18&#45;&gt;Node21 -->
<g id="edge23" class="edge"><title>Node18&#45;&gt;Node21</title>
<path fill="none" stroke="midnightblue" d="M815.827,-229.975C804.65,-220.608 786.483,-205.384 772.909,-194.008"/>
<polygon fill="midnightblue" stroke="midnightblue" points="775.066,-191.25 765.154,-187.509 770.57,-196.615 775.066,-191.25"/>
</g>
<!-- Node22 -->
<g id="node22" class="node"><title>Node22</title>
<polygon fill="white" stroke="#bfbfbf" points="359.5,-168.5 359.5,-187.5 416.5,-187.5 416.5,-168.5 359.5,-168.5"/>
<text text-anchor="middle" x="388" y="-175.5" font-family="Helvetica,sans-Serif" font-size="10.00">memory</text>
</g>
<!-- Node18&#45;&gt;Node22 -->
<g id="edge24" class="edge"><title>Node18&#45;&gt;Node22</title>
<path fill="none" stroke="midnightblue" d="M782.075,-229.987C770.377,-227.871 757.731,-225.719 746,-224 607.146,-203.654 568.106,-212.59 426.531,-188.082"/>
<polygon fill="midnightblue" stroke="midnightblue" points="427.062,-184.621 416.607,-186.338 425.851,-191.516 427.062,-184.621"/>
</g>
<!-- Node20 -->
<g id="node20" class="node"><title>Node20</title>
<g id="a_node20"><a xlink:href="RaCore_8hpp.html" target="_top" xlink:title="Core/RaCore.hpp">
<polygon fill="white" stroke="black" points="1181,-112.5 1181,-131.5 1279,-131.5 1279,-112.5 1181,-112.5"/>
<text text-anchor="middle" x="1230" y="-119.5" font-family="Helvetica,sans-Serif" font-size="10.00">Core/RaCore.hpp</text>
</a>
</g>
</g>
<!-- Node19&#45;&gt;Node20 -->
<g id="edge21" class="edge"><title>Node19&#45;&gt;Node20</title>
<path fill="none" stroke="midnightblue" d="M718.241,-168.941C721.2,-168.616 724.131,-168.3 727,-168 887.111,-151.235 1076.31,-135.369 1170.5,-127.737"/>
<polygon fill="midnightblue" stroke="midnightblue" points="1171,-131.209 1180.69,-126.914 1170.44,-124.231 1171,-131.209"/>
</g>
<!-- Node20&#45;&gt;Node4 -->
<g id="edge22" class="edge"><title>Node20&#45;&gt;Node4</title>
<path fill="none" stroke="midnightblue" d="M1220.36,-112.324C1211.49,-104.341 1198.13,-92.3128 1187.39,-82.6529"/>
<polygon fill="midnightblue" stroke="midnightblue" points="1189.59,-79.922 1179.82,-75.8339 1184.91,-85.1251 1189.59,-79.922"/>
</g>
<!-- Node23&#45;&gt;Node3 -->
<g id="edge28" class="edge"><title>Node23&#45;&gt;Node3</title>
<path fill="none" stroke="midnightblue" d="M309.31,-229.975C258.485,-219.327 171.529,-201.109 116.502,-189.581"/>
<polygon fill="midnightblue" stroke="midnightblue" points="117.12,-186.134 106.615,-187.509 115.685,-192.985 117.12,-186.134"/>
</g>
<!-- Node23&#45;&gt;Node16 -->
<g id="edge30" class="edge"><title>Node23&#45;&gt;Node16</title>
<path fill="none" stroke="midnightblue" d="M439.571,-231.144C556.024,-221.285 754.18,-203.423 844.378,-187.761"/>
<polygon fill="midnightblue" stroke="midnightblue" points="845.099,-191.188 854.315,-185.961 843.851,-184.3 845.099,-191.188"/>
</g>
<!-- Node23&#45;&gt;Node22 -->
<g id="edge29" class="edge"><title>Node23&#45;&gt;Node22</title>
<path fill="none" stroke="midnightblue" d="M355.444,-229.975C361.088,-221.138 370.061,-207.089 377.159,-195.975"/>
<polygon fill="midnightblue" stroke="midnightblue" points="380.133,-197.821 382.566,-187.509 374.233,-194.053 380.133,-197.821"/>
</g>
<!-- Node24 -->
<g id="node24" class="node"><title>Node24</title>
<polygon fill="white" stroke="#bfbfbf" points="150.5,-168.5 150.5,-187.5 265.5,-187.5 265.5,-168.5 150.5,-168.5"/>
<text text-anchor="middle" x="208" y="-175.5" font-family="Helvetica,sans-Serif" font-size="10.00">QAbstractItemModel</text>
</g>
<!-- Node23&#45;&gt;Node24 -->
<g id="edge31" class="edge"><title>Node23&#45;&gt;Node24</title>
<path fill="none" stroke="midnightblue" d="M329.655,-229.975C305.613,-219.901 265.403,-203.053 237.837,-191.502"/>
<polygon fill="midnightblue" stroke="midnightblue" points="238.883,-188.146 228.307,-187.509 236.178,-194.602 238.883,-188.146"/>
</g>
<!-- Node25 -->
<g id="node25" class="node"><title>Node25</title>
<polygon fill="white" stroke="#bfbfbf" points="283,-168.5 283,-187.5 341,-187.5 341,-168.5 283,-168.5"/>
<text text-anchor="middle" x="312" y="-175.5" font-family="Helvetica,sans-Serif" font-size="10.00">QVariant</text>
</g>
<!-- Node23&#45;&gt;Node25 -->
<g id="edge32" class="edge"><title>Node23&#45;&gt;Node25</title>
<path fill="none" stroke="midnightblue" d="M344.556,-229.975C338.912,-221.138 329.939,-207.089 322.841,-195.975"/>
<polygon fill="midnightblue" stroke="midnightblue" points="325.767,-194.053 317.434,-187.509 319.867,-197.821 325.767,-194.053"/>
</g>
<!-- Node27&#45;&gt;Node11 -->
<g id="edge38" class="edge"><title>Node27&#45;&gt;Node11</title>
<path fill="none" stroke="midnightblue" d="M1698.17,-229.975C1571.62,-217.966 1343.62,-196.33 1229.69,-185.518"/>
<polygon fill="midnightblue" stroke="midnightblue" points="1229.98,-182.03 1219.69,-184.57 1229.32,-188.999 1229.98,-182.03"/>
</g>
<!-- Node27&#45;&gt;Node12 -->
<g id="edge35" class="edge"><title>Node27&#45;&gt;Node12</title>
<path fill="none" stroke="midnightblue" d="M1773.89,-229.783C1748.76,-214.686 1694.19,-183.779 1644,-168 1569.57,-144.599 1480.41,-133.092 1420.78,-127.623"/>
<polygon fill="midnightblue" stroke="midnightblue" points="1421.01,-124.129 1410.74,-126.733 1420.39,-131.102 1421.01,-124.129"/>
</g>
<!-- Node27&#45;&gt;Node16 -->
<g id="edge39" class="edge"><title>Node27&#45;&gt;Node16</title>
<path fill="none" stroke="midnightblue" d="M1693.69,-233.599C1485.48,-222.711 998.706,-196.855 911.67,-187.388"/>
<polygon fill="midnightblue" stroke="midnightblue" points="912.03,-183.905 901.663,-186.089 911.129,-190.847 912.03,-183.905"/>
</g>
<!-- Node28 -->
<g id="node28" class="node"><title>Node28</title>
<polygon fill="white" stroke="#bfbfbf" points="1840,-112.5 1840,-131.5 1908,-131.5 1908,-112.5 1840,-112.5"/>
<text text-anchor="middle" x="1874" y="-119.5" font-family="Helvetica,sans-Serif" font-size="10.00">Eigen/Core</text>
</g>
<!-- Node27&#45;&gt;Node28 -->
<g id="edge36" class="edge"><title>Node27&#45;&gt;Node28</title>
<path fill="none" stroke="midnightblue" d="M1804.77,-229.961C1820.03,-221.357 1842.08,-206.694 1855,-188 1864.5,-174.247 1869.31,-155.719 1871.71,-141.964"/>
<polygon fill="midnightblue" stroke="midnightblue" points="1875.22,-142.142 1873.2,-131.741 1868.29,-141.129 1875.22,-142.142"/>
</g>
<!-- Node29 -->
<g id="node29" class="node"><title>Node29</title>
<polygon fill="white" stroke="#bfbfbf" points="1995,-112.5 1995,-131.5 2089,-131.5 2089,-112.5 1995,-112.5"/>
<text text-anchor="middle" x="2042" y="-119.5" font-family="Helvetica,sans-Serif" font-size="10.00">Eigen/Geometry</text>
</g>
<!-- Node27&#45;&gt;Node29 -->
<g id="edge37" class="edge"><title>Node27&#45;&gt;Node29</title>
<path fill="none" stroke="midnightblue" d="M1882.02,-235.783C1961.1,-231.279 2065.41,-219.375 2092,-188 2106.37,-171.047 2084.63,-150.602 2065.47,-137.226"/>
<polygon fill="midnightblue" stroke="midnightblue" points="2067.26,-134.213 2056.98,-131.616 2063.39,-140.052 2067.26,-134.213"/>
</g>
<!-- Node30 -->
<g id="node30" class="node"><title>Node30</title>
<g id="a_node30"><a xlink:href="Component_8inl.html" target="_top" xlink:title="Engine/Component/Component.inl">
<polygon fill="white" stroke="black" points="1902.5,-168.5 1902.5,-187.5 2083.5,-187.5 2083.5,-168.5 1902.5,-168.5"/>
<text text-anchor="middle" x="1993" y="-175.5" font-family="Helvetica,sans-Serif" font-size="10.00">Engine/Component/Component.inl</text>
</a>
</g>
</g>
<!-- Node27&#45;&gt;Node30 -->
<g id="edge40" class="edge"><title>Node27&#45;&gt;Node30</title>
<path fill="none" stroke="midnightblue" d="M1812.47,-229.975C1846.27,-219.504 1907.4,-201.712 1949.14,-190.16"/>
<polygon fill="midnightblue" stroke="midnightblue" points="1950.07,-193.535 1958.79,-187.509 1948.22,-186.785 1950.07,-193.535"/>
</g>
<!-- Node30&#45;&gt;Node27 -->
<g id="edge41" class="edge"><title>Node30&#45;&gt;Node27</title>
<path fill="none" stroke="midnightblue" d="M1968.58,-187.509C1934.81,-197.973 1873.69,-215.764 1831.92,-227.322"/>
<polygon fill="midnightblue" stroke="midnightblue" points="1830.99,-223.949 1822.27,-229.975 1832.84,-230.699 1830.99,-223.949"/>
</g>
<!-- Node31&#45;&gt;Node9 -->
<g id="edge46" class="edge"><title>Node31&#45;&gt;Node9</title>
<path fill="none" stroke="midnightblue" d="M1477.12,-233.344C1538.05,-226.955 1623.37,-213.622 1644,-188 1694.02,-125.867 1576.79,-53.6255 1521.68,-24.3431"/>
<polygon fill="midnightblue" stroke="midnightblue" points="1522.96,-21.0636 1512.47,-19.5447 1519.72,-27.2709 1522.96,-21.0636"/>
</g>
<!-- Node31&#45;&gt;Node11 -->
<g id="edge43" class="edge"><title>Node31&#45;&gt;Node11</title>
<path fill="none" stroke="midnightblue" d="M1376.89,-229.975C1332.17,-219.415 1255.92,-201.411 1207.03,-189.869"/>
<polygon fill="midnightblue" stroke="midnightblue" points="1207.58,-186.401 1197.04,-187.509 1205.97,-193.213 1207.58,-186.401"/>
</g>
<!-- Node31&#45;&gt;Node15 -->
<g id="edge45" class="edge"><title>Node31&#45;&gt;Node15</title>
<path fill="none" stroke="midnightblue" d="M1348.99,-236.845C1245.09,-233.277 1033.35,-222.332 846.245,-187.884"/>
<polygon fill="midnightblue" stroke="midnightblue" points="846.699,-184.408 836.226,-186.012 845.413,-191.289 846.699,-184.408"/>
</g>
<!-- Node31&#45;&gt;Node16 -->
<g id="edge47" class="edge"><title>Node31&#45;&gt;Node16</title>
<path fill="none" stroke="midnightblue" d="M1348.73,-235.454C1254.74,-230.246 1074.27,-217.393 911.861,-187.843"/>
<polygon fill="midnightblue" stroke="midnightblue" points="912.153,-184.338 901.684,-185.965 910.883,-191.222 912.153,-184.338"/>
</g>
<!-- Node32 -->
<g id="node32" class="node"><title>Node32</title>
<polygon fill="white" stroke="#bfbfbf" points="1449.5,-168.5 1449.5,-187.5 1496.5,-187.5 1496.5,-168.5 1449.5,-168.5"/>
<text text-anchor="middle" x="1473" y="-175.5" font-family="Helvetica,sans-Serif" font-size="10.00">mutex</text>
</g>
<!-- Node31&#45;&gt;Node32 -->
<g id="edge44" class="edge"><title>Node31&#45;&gt;Node32</title>
<path fill="none" stroke="midnightblue" d="M1421.6,-229.975C1430.86,-220.785 1445.82,-205.956 1457.21,-194.656"/>
<polygon fill="midnightblue" stroke="midnightblue" points="1459.78,-197.036 1464.42,-187.509 1454.85,-192.065 1459.78,-197.036"/>
</g>
<!-- Node33 -->
<g id="node33" class="node"><title>Node33</title>
<g id="a_node33"><a xlink:href="Types_8hpp.html" target="_top" xlink:title="Core/Math/Types.hpp">
<polygon fill="white" stroke="black" points="1730,-168.5 1730,-187.5 1846,-187.5 1846,-168.5 1730,-168.5"/>
<text text-anchor="middle" x="1788" y="-175.5" font-family="Helvetica,sans-Serif" font-size="10.00">Core/Math/Types.hpp</text>
</a>
</g>
</g>
<!-- Node31&#45;&gt;Node33 -->
<g id="edge48" class="edge"><title>Node31&#45;&gt;Node33</title>
<path fill="none" stroke="midnightblue" d="M1466.73,-229.975C1534.81,-219.172 1652,-200.578 1724.45,-189.083"/>
<polygon fill="midnightblue" stroke="midnightblue" points="1725.04,-192.533 1734.37,-187.509 1723.95,-185.619 1725.04,-192.533"/>
</g>
<!-- Node35 -->
<g id="node35" class="node"><title>Node35</title>
<g id="a_node35"><a xlink:href="IndexedObject_8hpp.html" target="_top" xlink:title="Core/Utils/IndexedObject.hpp">
<polygon fill="white" stroke="black" points="1276.5,-168.5 1276.5,-187.5 1431.5,-187.5 1431.5,-168.5 1276.5,-168.5"/>
<text text-anchor="middle" x="1354" y="-175.5" font-family="Helvetica,sans-Serif" font-size="10.00">Core/Utils/IndexedObject.hpp</text>
</a>
</g>
</g>
<!-- Node31&#45;&gt;Node35 -->
<g id="edge53" class="edge"><title>Node31&#45;&gt;Node35</title>
<path fill="none" stroke="midnightblue" d="M1404.55,-229.975C1395.43,-220.785 1380.73,-205.956 1369.52,-194.656"/>
<polygon fill="midnightblue" stroke="midnightblue" points="1371.96,-192.146 1362.44,-187.509 1366.99,-197.074 1371.96,-192.146"/>
</g>
<!-- Node36 -->
<g id="node36" class="node"><title>Node36</title>
<g id="a_node36"><a xlink:href="Entity_8inl.html" target="_top" xlink:title="Engine/Entity/Entity.inl">
<polygon fill="white" stroke="black" points="1514.5,-168.5 1514.5,-187.5 1635.5,-187.5 1635.5,-168.5 1514.5,-168.5"/>
<text text-anchor="middle" x="1575" y="-175.5" font-family="Helvetica,sans-Serif" font-size="10.00">Engine/Entity/Entity.inl</text>
</a>
</g>
</g>
<!-- Node31&#45;&gt;Node36 -->
<g id="edge56" class="edge"><title>Node31&#45;&gt;Node36</title>
<path fill="none" stroke="midnightblue" d="M1431.31,-229.975C1456.98,-219.725 1503.78,-202.459 1537.08,-190.899"/>
<polygon fill="midnightblue" stroke="midnightblue" points="1538.62,-194.071 1546.94,-187.509 1536.34,-187.451 1538.62,-194.071"/>
</g>
<!-- Node33&#45;&gt;Node20 -->
<g id="edge49" class="edge"><title>Node33&#45;&gt;Node20</title>
<path fill="none" stroke="midnightblue" d="M1729.75,-172.977C1638.27,-166.39 1455.1,-152.12 1289.4,-132.098"/>
<polygon fill="midnightblue" stroke="midnightblue" points="1289.37,-128.568 1279.02,-130.832 1288.52,-135.516 1289.37,-128.568"/>
</g>
<!-- Node33&#45;&gt;Node28 -->
<g id="edge50" class="edge"><title>Node33&#45;&gt;Node28</title>
<path fill="none" stroke="midnightblue" d="M1801.82,-168.324C1815.23,-159.9 1835.82,-146.971 1851.59,-137.074"/>
<polygon fill="midnightblue" stroke="midnightblue" points="1853.61,-139.936 1860.22,-131.655 1849.89,-134.008 1853.61,-139.936"/>
</g>
<!-- Node33&#45;&gt;Node29 -->
<g id="edge51" class="edge"><title>Node33&#45;&gt;Node29</title>
<path fill="none" stroke="midnightblue" d="M1828.25,-168.444C1872.65,-159.004 1944.15,-143.802 1992.09,-133.611"/>
<polygon fill="midnightblue" stroke="midnightblue" points="1992.89,-137.02 2001.94,-131.516 1991.43,-130.173 1992.89,-137.02"/>
</g>
<!-- Node34 -->
<g id="node34" class="node"><title>Node34</title>
<polygon fill="white" stroke="#bfbfbf" points="1742,-112.5 1742,-131.5 1822,-131.5 1822,-112.5 1742,-112.5"/>
<text text-anchor="middle" x="1782" y="-119.5" font-family="Helvetica,sans-Serif" font-size="10.00">Eigen/Sparse</text>
</g>
<!-- Node33&#45;&gt;Node34 -->
<g id="edge52" class="edge"><title>Node33&#45;&gt;Node34</title>
<path fill="none" stroke="midnightblue" d="M1787.01,-168.083C1786.21,-160.927 1785.07,-150.635 1784.08,-141.691"/>
<polygon fill="midnightblue" stroke="midnightblue" points="1787.56,-141.303 1782.97,-131.751 1780.6,-142.076 1787.56,-141.303"/>
</g>
<!-- Node35&#45;&gt;Node12 -->
<g id="edge55" class="edge"><title>Node35&#45;&gt;Node12</title>
<path fill="none" stroke="midnightblue" d="M1354,-168.083C1354,-161.006 1354,-150.861 1354,-141.986"/>
<polygon fill="midnightblue" stroke="midnightblue" points="1357.5,-141.751 1354,-131.751 1350.5,-141.751 1357.5,-141.751"/>
</g>
<!-- Node35&#45;&gt;Node20 -->
<g id="edge54" class="edge"><title>Node35&#45;&gt;Node20</title>
<path fill="none" stroke="midnightblue" d="M1334.35,-168.444C1314.04,-159.596 1282.1,-145.687 1258.9,-135.586"/>
<polygon fill="midnightblue" stroke="midnightblue" points="1260.12,-132.3 1249.56,-131.516 1257.33,-138.718 1260.12,-132.3"/>
</g>
<!-- Node36&#45;&gt;Node31 -->
<g id="edge57" class="edge"><title>Node36&#45;&gt;Node31</title>
<path fill="none" stroke="midnightblue" d="M1556.73,-187.509C1531.08,-197.752 1484.28,-215.017 1450.98,-226.583"/>
<polygon fill="midnightblue" stroke="midnightblue" points="1449.43,-223.413 1441.11,-229.975 1451.71,-230.033 1449.43,-223.413"/>
</g>
<!-- Node37&#45;&gt;Node11 -->
<g id="edge59" class="edge"><title>Node37&#45;&gt;Node11</title>
<path fill="none" stroke="midnightblue" d="M737.532,-225.122C740.387,-224.734 743.216,-224.359 746,-224 896.474,-204.601 937.28,-206.098 1092.05,-188.077"/>
<polygon fill="midnightblue" stroke="midnightblue" points="1092.88,-191.503 1102.41,-186.862 1092.07,-184.551 1092.88,-191.503"/>
</g>
<!-- Node37&#45;&gt;Node15 -->
<g id="edge62" class="edge"><title>Node37&#45;&gt;Node15</title>
<path fill="none" stroke="midnightblue" d="M690.392,-224.399C718.434,-214.1 756.002,-200.302 782.334,-190.63"/>
<polygon fill="midnightblue" stroke="midnightblue" points="783.653,-193.875 791.833,-187.142 781.239,-187.304 783.653,-193.875"/>
</g>
<!-- Node37&#45;&gt;Node16 -->
<g id="edge63" class="edge"><title>Node37&#45;&gt;Node16</title>
<path fill="none" stroke="midnightblue" d="M706.529,-224.392C742.94,-214.935 792.147,-202.085 844.421,-188.135"/>
<polygon fill="midnightblue" stroke="midnightblue" points="845.457,-191.481 854.215,-185.518 843.65,-184.718 845.457,-191.481"/>
</g>
<!-- Node37&#45;&gt;Node19 -->
<g id="edge72" class="edge"><title>Node37&#45;&gt;Node19</title>
<path fill="none" stroke="midnightblue" d="M652,-224.399C652,-216.466 652,-206.458 652,-197.858"/>
<polygon fill="midnightblue" stroke="midnightblue" points="655.5,-197.658 652,-187.658 648.5,-197.658 655.5,-197.658"/>
</g>
<!-- Node37&#45;&gt;Node21 -->
<g id="edge60" class="edge"><title>Node37&#45;&gt;Node21</title>
<path fill="none" stroke="midnightblue" d="M676.41,-224.399C692.92,-214.862 714.623,-202.325 731.038,-192.842"/>
<polygon fill="midnightblue" stroke="midnightblue" points="733.104,-195.691 740.013,-187.658 729.603,-189.629 733.104,-195.691"/>
</g>
<!-- Node37&#45;&gt;Node22 -->
<g id="edge61" class="edge"><title>Node37&#45;&gt;Node22</title>
<path fill="none" stroke="midnightblue" d="M587.345,-224.471C544.28,-215.045 486.173,-202.17 426.626,-188.349"/>
<polygon fill="midnightblue" stroke="midnightblue" points="427.203,-184.89 416.67,-186.033 425.617,-191.708 427.203,-184.89"/>
</g>
<!-- Node38 -->
<g id="node38" class="node"><title>Node38</title>
<g id="a_node38"><a xlink:href="IndexMap_8hpp.html" target="_top" xlink:title="Core/Utils/IndexMap.hpp">
<polygon fill="white" stroke="black" points="434.5,-168.5 434.5,-187.5 567.5,-187.5 567.5,-168.5 434.5,-168.5"/>
<text text-anchor="middle" x="501" y="-175.5" font-family="Helvetica,sans-Serif" font-size="10.00">Core/Utils/IndexMap.hpp</text>
</a>
</g>
</g>
<!-- Node37&#45;&gt;Node38 -->
<g id="edge64" class="edge"><title>Node37&#45;&gt;Node38</title>
<path fill="none" stroke="midnightblue" d="M616.215,-224.399C590.767,-214.372 556.903,-201.028 532.482,-191.405"/>
<polygon fill="midnightblue" stroke="midnightblue" points="533.559,-188.068 522.972,-187.658 530.992,-194.58 533.559,-188.068"/>
</g>
<!-- Node38&#45;&gt;Node12 -->
<g id="edge69" class="edge"><title>Node38&#45;&gt;Node12</title>
<path fill="none" stroke="midnightblue" d="M567.702,-168.844C570.844,-168.541 573.955,-168.257 577,-168 888.896,-141.666 971.204,-160.977 1286.79,-132.024"/>
<polygon fill="midnightblue" stroke="midnightblue" points="1287.52,-135.472 1297.15,-131.064 1286.87,-128.501 1287.52,-135.472"/>
</g>
<!-- Node38&#45;&gt;Node20 -->
<g id="edge65" class="edge"><title>Node38&#45;&gt;Node20</title>
<path fill="none" stroke="midnightblue" d="M567.708,-168.913C570.848,-168.591 573.957,-168.285 577,-168 795.337,-147.561 1055.56,-132.366 1170.45,-126.123"/>
<polygon fill="midnightblue" stroke="midnightblue" points="1170.99,-129.599 1180.78,-125.565 1170.61,-122.61 1170.99,-129.599"/>
</g>
<!-- Node39 -->
<g id="node39" class="node"><title>Node39</title>
<polygon fill="white" stroke="#bfbfbf" points="581,-112.5 581,-131.5 643,-131.5 643,-112.5 581,-112.5"/>
<text text-anchor="middle" x="612" y="-119.5" font-family="Helvetica,sans-Serif" font-size="10.00">algorithm</text>
</g>
<!-- Node38&#45;&gt;Node39 -->
<g id="edge66" class="edge"><title>Node38&#45;&gt;Node39</title>
<path fill="none" stroke="midnightblue" d="M518.834,-168.324C536.716,-159.625 564.475,-146.12 585.046,-136.113"/>
<polygon fill="midnightblue" stroke="midnightblue" points="586.749,-139.177 594.21,-131.655 583.687,-132.882 586.749,-139.177"/>
</g>
<!-- Node40 -->
<g id="node40" class="node"><title>Node40</title>
<polygon fill="white" stroke="#bfbfbf" points="299,-112.5 299,-131.5 355,-131.5 355,-112.5 299,-112.5"/>
<text text-anchor="middle" x="327" y="-119.5" font-family="Helvetica,sans-Serif" font-size="10.00">assert.h</text>
</g>
<!-- Node38&#45;&gt;Node40 -->
<g id="edge67" class="edge"><title>Node38&#45;&gt;Node40</title>
<path fill="none" stroke="midnightblue" d="M473.429,-168.444C443.903,-159.28 396.882,-144.688 364.117,-134.519"/>
<polygon fill="midnightblue" stroke="midnightblue" points="365.03,-131.138 354.442,-131.516 362.955,-137.823 365.03,-131.138"/>
</g>
<!-- Node41 -->
<g id="node41" class="node"><title>Node41</title>
<polygon fill="white" stroke="#bfbfbf" points="373.5,-112.5 373.5,-131.5 420.5,-131.5 420.5,-112.5 373.5,-112.5"/>
<text text-anchor="middle" x="397" y="-119.5" font-family="Helvetica,sans-Serif" font-size="10.00">deque</text>
</g>
<!-- Node38&#45;&gt;Node41 -->
<g id="edge68" class="edge"><title>Node38&#45;&gt;Node41</title>
<path fill="none" stroke="midnightblue" d="M484.291,-168.324C467.688,-159.703 441.998,-146.364 422.78,-136.386"/>
<polygon fill="midnightblue" stroke="midnightblue" points="424.156,-133.156 413.668,-131.655 420.93,-139.369 424.156,-133.156"/>
</g>
<!-- Node42 -->
<g id="node42" class="node"><title>Node42</title>
<g id="a_node42"><a xlink:href="IndexMap_8inl.html" target="_top" xlink:title="Core/Utils/IndexMap.inl">
<polygon fill="white" stroke="black" points="438.5,-112.5 438.5,-131.5 563.5,-131.5 563.5,-112.5 438.5,-112.5"/>
<text text-anchor="middle" x="501" y="-119.5" font-family="Helvetica,sans-Serif" font-size="10.00">Core/Utils/IndexMap.inl</text>
</a>
</g>
</g>
<!-- Node38&#45;&gt;Node42 -->
<g id="edge70" class="edge"><title>Node38&#45;&gt;Node42</title>
<path fill="none" stroke="midnightblue" d="M495.834,-168.083C494.324,-160.927 493.894,-150.635 494.542,-141.691"/>
<polygon fill="midnightblue" stroke="midnightblue" points="498.015,-142.126 495.869,-131.751 491.077,-141.2 498.015,-142.126"/>
</g>
<!-- Node42&#45;&gt;Node38 -->
<g id="edge71" class="edge"><title>Node42&#45;&gt;Node38</title>
<path fill="none" stroke="midnightblue" d="M506.131,-131.751C507.657,-138.858 508.104,-149.136 507.472,-158.101"/>
<polygon fill="midnightblue" stroke="midnightblue" points="503.993,-157.713 506.166,-168.083 510.934,-158.622 503.993,-157.713"/>
</g>
</g>
</svg>
