<?xml version="1.0" encoding="UTF-8" standalone="no"?>
<!DOCTYPE svg PUBLIC "-//W3C//DTD SVG 1.1//EN"
 "http://www.w3.org/Graphics/SVG/1.1/DTD/svg11.dtd">
<!-- Generated by graphviz version 2.38.0 (20140413.2041)
 -->
<!-- Title: /home/travis/build/STORM&#45;IRIT/Radium&#45;Engine/src/GuiBase/Event/EventEnums.hpp Pages: 1 -->
<svg width="2644pt" height="484pt"
 viewBox="0.00 0.00 2643.50 484.00" xmlns="http://www.w3.org/2000/svg" xmlns:xlink="http://www.w3.org/1999/xlink">
<g id="graph0" class="graph" transform="scale(1 1) rotate(0) translate(4 480)">
<title>/home/travis/build/STORM&#45;IRIT/Radium&#45;Engine/src/GuiBase/Event/EventEnums.hpp</title>
<polygon fill="white" stroke="none" points="-4,4 -4,-480 2639.5,-480 2639.5,4 -4,4"/>
<!-- Node1 -->
<g id="node1" class="node"><title>Node1</title>
<polygon fill="#bfbfbf" stroke="black" points="2233.5,-434.5 2233.5,-475.5 2424.5,-475.5 2424.5,-434.5 2233.5,-434.5"/>
<text text-anchor="start" x="2241.5" y="-463.5" font-family="Helvetica,sans-Serif" font-size="10.00">/home/travis/build</text>
<text text-anchor="start" x="2241.5" y="-452.5" font-family="Helvetica,sans-Serif" font-size="10.00">/STORM&#45;IRIT/Radium&#45;Engine</text>
<text text-anchor="middle" x="2329" y="-441.5" font-family="Helvetica,sans-Serif" font-size="10.00">/src/GuiBase/Event/EventEnums.hpp</text>
</g>
<!-- Node2 -->
<g id="node2" class="node"><title>Node2</title>
<g id="a_node2"><a xlink:href="Renderer_8hpp.html" target="_top" xlink:title="/home/travis/build\l/STORM&#45;IRIT/Radium&#45;Engine\l/src/Engine/Renderer/Renderer.hpp">
<polygon fill="white" stroke="black" points="1299.5,-356.5 1299.5,-397.5 1480.5,-397.5 1480.5,-356.5 1299.5,-356.5"/>
<text text-anchor="start" x="1307.5" y="-385.5" font-family="Helvetica,sans-Serif" font-size="10.00">/home/travis/build</text>
<text text-anchor="start" x="1307.5" y="-374.5" font-family="Helvetica,sans-Serif" font-size="10.00">/STORM&#45;IRIT/Radium&#45;Engine</text>
<text text-anchor="middle" x="1390" y="-363.5" font-family="Helvetica,sans-Serif" font-size="10.00">/src/Engine/Renderer/Renderer.hpp</text>
</a>
</g>
</g>
<!-- Node1&#45;&gt;Node2 -->
<g id="edge1" class="edge"><title>Node1&#45;&gt;Node2</title>
<path fill="none" stroke="midnightblue" d="M2223.3,-445.445C2037.39,-430.398 1655.06,-399.453 1480.5,-385.325"/>
<polygon fill="midnightblue" stroke="midnightblue" points="2223.11,-448.941 2233.36,-446.259 2223.68,-441.964 2223.11,-448.941"/>
</g>
<!-- Node33 -->
<g id="node33" class="node"><title>Node33</title>
<g id="a_node33"><a xlink:href="KeyEvent_8hpp.html" target="_top" xlink:title="/home/travis/build\l/STORM&#45;IRIT/Radium&#45;Engine\l/src/GuiBase/Event/KeyEvent.hpp">
<polygon fill="white" stroke="black" points="2442,-356.5 2442,-397.5 2616,-397.5 2616,-356.5 2442,-356.5"/>
<text text-anchor="start" x="2450" y="-385.5" font-family="Helvetica,sans-Serif" font-size="10.00">/home/travis/build</text>
<text text-anchor="start" x="2450" y="-374.5" font-family="Helvetica,sans-Serif" font-size="10.00">/STORM&#45;IRIT/Radium&#45;Engine</text>
<text text-anchor="middle" x="2529" y="-363.5" font-family="Helvetica,sans-Serif" font-size="10.00">/src/GuiBase/Event/KeyEvent.hpp</text>
</a>
</g>
</g>
<!-- Node1&#45;&gt;Node33 -->
<g id="edge47" class="edge"><title>Node1&#45;&gt;Node33</title>
<path fill="none" stroke="midnightblue" d="M2390.19,-430.748C2418.19,-420.11 2450.98,-407.646 2477.67,-397.506"/>
<polygon fill="midnightblue" stroke="midnightblue" points="2388.61,-427.604 2380.5,-434.428 2391.1,-434.148 2388.61,-427.604"/>
</g>
<!-- Node35 -->
<g id="node35" class="node"><title>Node35</title>
<g id="a_node35"><a xlink:href="MouseEvent_8hpp.html" target="_top" xlink:title="/home/travis/build\l/STORM&#45;IRIT/Radium&#45;Engine\l/src/GuiBase/Event/MouseEvent.hpp">
<polygon fill="white" stroke="black" points="2234.5,-356.5 2234.5,-397.5 2423.5,-397.5 2423.5,-356.5 2234.5,-356.5"/>
<text text-anchor="start" x="2242.5" y="-385.5" font-family="Helvetica,sans-Serif" font-size="10.00">/home/travis/build</text>
<text text-anchor="start" x="2242.5" y="-374.5" font-family="Helvetica,sans-Serif" font-size="10.00">/STORM&#45;IRIT/Radium&#45;Engine</text>
<text text-anchor="middle" x="2329" y="-363.5" font-family="Helvetica,sans-Serif" font-size="10.00">/src/GuiBase/Event/MouseEvent.hpp</text>
</a>
</g>
</g>
<!-- Node1&#45;&gt;Node35 -->
<g id="edge49" class="edge"><title>Node1&#45;&gt;Node35</title>
<path fill="none" stroke="midnightblue" d="M2329,-424.297C2329,-415.301 2329,-405.653 2329,-397.506"/>
<polygon fill="midnightblue" stroke="midnightblue" points="2325.5,-424.428 2329,-434.428 2332.5,-424.428 2325.5,-424.428"/>
</g>
<!-- Node3 -->
<g id="node3" class="node"><title>Node3</title>
<g id="a_node3"><a xlink:href="Renderer_8cpp.html" target="_top" xlink:title="/home/travis/build\l/STORM&#45;IRIT/Radium&#45;Engine\l/src/Engine/Renderer/Renderer.cpp">
<polygon fill="white" stroke="black" points="2224,-273 2224,-314 2404,-314 2404,-273 2224,-273"/>
<text text-anchor="start" x="2232" y="-302" font-family="Helvetica,sans-Serif" font-size="10.00">/home/travis/build</text>
<text text-anchor="start" x="2232" y="-291" font-family="Helvetica,sans-Serif" font-size="10.00">/STORM&#45;IRIT/Radium&#45;Engine</text>
<text text-anchor="middle" x="2314" y="-280" font-family="Helvetica,sans-Serif" font-size="10.00">/src/Engine/Renderer/Renderer.cpp</text>
</a>
</g>
</g>
<!-- Node2&#45;&gt;Node3 -->
<g id="edge2" class="edge"><title>Node2&#45;&gt;Node3</title>
<path fill="none" stroke="midnightblue" d="M1490.71,-375.125C1646.81,-372.432 1956.19,-361.75 2215,-320 2224.72,-318.431 2234.89,-316.344 2244.84,-314.037"/>
<polygon fill="midnightblue" stroke="midnightblue" points="1490.59,-371.627 1480.65,-375.291 1490.71,-378.626 1490.59,-371.627"/>
</g>
<!-- Node4 -->
<g id="node4" class="node"><title>Node4</title>
<g id="a_node4"><a xlink:href="ForwardRenderer_8hpp.html" target="_top" xlink:title="/home/travis/build\l/STORM&#45;IRIT/Radium&#45;Engine\l/src/Engine/Renderer/Renderers\l/ForwardRenderer.hpp">
<polygon fill="white" stroke="black" points="184,-267.5 184,-319.5 350,-319.5 350,-267.5 184,-267.5"/>
<text text-anchor="start" x="192" y="-307.5" font-family="Helvetica,sans-Serif" font-size="10.00">/home/travis/build</text>
<text text-anchor="start" x="192" y="-296.5" font-family="Helvetica,sans-Serif" font-size="10.00">/STORM&#45;IRIT/Radium&#45;Engine</text>
<text text-anchor="start" x="192" y="-285.5" font-family="Helvetica,sans-Serif" font-size="10.00">/src/Engine/Renderer/Renderers</text>
<text text-anchor="middle" x="267" y="-274.5" font-family="Helvetica,sans-Serif" font-size="10.00">/ForwardRenderer.hpp</text>
</a>
</g>
</g>
<!-- Node2&#45;&gt;Node4 -->
<g id="edge3" class="edge"><title>Node2&#45;&gt;Node4</title>
<path fill="none" stroke="midnightblue" d="M1289.24,-376.167C1106.49,-375.198 708.585,-367.238 377,-320 368.267,-318.756 359.205,-317.161 350.199,-315.378"/>
<polygon fill="midnightblue" stroke="midnightblue" points="1289.35,-379.667 1299.37,-376.215 1289.38,-372.667 1289.35,-379.667"/>
</g>
<!-- Node6 -->
<g id="node6" class="node"><title>Node6</title>
<g id="a_node6"><a xlink:href="Viewer_8cpp.html" target="_top" xlink:title="/home/travis/build\l/STORM&#45;IRIT/Radium&#45;Engine\l/src/GuiBase/Viewer/Viewer.cpp">
<polygon fill="white" stroke="black" points="184.5,-184 184.5,-225 349.5,-225 349.5,-184 184.5,-184"/>
<text text-anchor="start" x="192.5" y="-213" font-family="Helvetica,sans-Serif" font-size="10.00">/home/travis/build</text>
<text text-anchor="start" x="192.5" y="-202" font-family="Helvetica,sans-Serif" font-size="10.00">/STORM&#45;IRIT/Radium&#45;Engine</text>
<text text-anchor="middle" x="267" y="-191" font-family="Helvetica,sans-Serif" font-size="10.00">/src/GuiBase/Viewer/Viewer.cpp</text>
</a>
</g>
</g>
<!-- Node2&#45;&gt;Node6 -->
<g id="edge35" class="edge"><title>Node2&#45;&gt;Node6</title>
<path fill="none" stroke="midnightblue" d="M1289.07,-373.76C1057.32,-368.102 500.941,-351.401 422,-320 388.001,-306.476 388.254,-288.979 359,-267 339.339,-252.229 316.339,-236.854 298.254,-225.171"/>
<polygon fill="midnightblue" stroke="midnightblue" points="1289.1,-377.261 1299.19,-374.005 1289.27,-370.264 1289.1,-377.261"/>
</g>
<!-- Node7 -->
<g id="node7" class="node"><title>Node7</title>
<g id="a_node7"><a xlink:href="BaseApplication_8cpp.html" target="_top" xlink:title="/home/travis/build\l/STORM&#45;IRIT/Radium&#45;Engine\l/src/GuiBase/BaseApplication.cpp">
<polygon fill="white" stroke="black" points="497,-95 497,-136 673,-136 673,-95 497,-95"/>
<text text-anchor="start" x="505" y="-124" font-family="Helvetica,sans-Serif" font-size="10.00">/home/travis/build</text>
<text text-anchor="start" x="505" y="-113" font-family="Helvetica,sans-Serif" font-size="10.00">/STORM&#45;IRIT/Radium&#45;Engine</text>
<text text-anchor="middle" x="585" y="-102" font-family="Helvetica,sans-Serif" font-size="10.00">/src/GuiBase/BaseApplication.cpp</text>
</a>
</g>
</g>
<!-- Node2&#45;&gt;Node7 -->
<g id="edge6" class="edge"><title>Node2&#45;&gt;Node7</title>
<path fill="none" stroke="midnightblue" d="M1289.01,-364.948C1115.5,-344.462 769.613,-296.631 668,-231 643.653,-215.274 647.002,-201.474 630,-178 619.833,-163.964 608.288,-148.189 599.437,-136.13"/>
<polygon fill="midnightblue" stroke="midnightblue" points="1288.83,-368.451 1299.17,-366.139 1289.65,-361.498 1288.83,-368.451"/>
</g>
<!-- Node8 -->
<g id="node8" class="node"><title>Node8</title>
<g id="a_node8"><a xlink:href="FrameTimerData_8hpp.html" target="_top" xlink:title="/home/travis/build\l/STORM&#45;IRIT/Radium&#45;Engine\l/src/GuiBase/TimerData/FrameTimer\lData.hpp">
<polygon fill="white" stroke="black" points="1402,-267.5 1402,-319.5 1592,-319.5 1592,-267.5 1402,-267.5"/>
<text text-anchor="start" x="1410" y="-307.5" font-family="Helvetica,sans-Serif" font-size="10.00">/home/travis/build</text>
<text text-anchor="start" x="1410" y="-296.5" font-family="Helvetica,sans-Serif" font-size="10.00">/STORM&#45;IRIT/Radium&#45;Engine</text>
<text text-anchor="start" x="1410" y="-285.5" font-family="Helvetica,sans-Serif" font-size="10.00">/src/GuiBase/TimerData/FrameTimer</text>
<text text-anchor="middle" x="1497" y="-274.5" font-family="Helvetica,sans-Serif" font-size="10.00">Data.hpp</text>
</a>
</g>
</g>
<!-- Node2&#45;&gt;Node8 -->
<g id="edge7" class="edge"><title>Node2&#45;&gt;Node8</title>
<path fill="none" stroke="midnightblue" d="M1423.76,-350.289C1436.56,-340.533 1451.13,-329.439 1463.88,-319.728"/>
<polygon fill="midnightblue" stroke="midnightblue" points="1421.46,-347.635 1415.63,-356.479 1425.71,-353.204 1421.46,-347.635"/>
</g>
<!-- Node11 -->
<g id="node11" class="node"><title>Node11</title>
<g id="a_node11"><a xlink:href="PickingManager_8hpp.html" target="_top" xlink:title="/home/travis/build\l/STORM&#45;IRIT/Radium&#45;Engine\l/src/GuiBase/Utils/PickingManager.hpp">
<polygon fill="white" stroke="black" points="1184.5,-273 1184.5,-314 1383.5,-314 1383.5,-273 1184.5,-273"/>
<text text-anchor="start" x="1192.5" y="-302" font-family="Helvetica,sans-Serif" font-size="10.00">/home/travis/build</text>
<text text-anchor="start" x="1192.5" y="-291" font-family="Helvetica,sans-Serif" font-size="10.00">/STORM&#45;IRIT/Radium&#45;Engine</text>
<text text-anchor="middle" x="1284" y="-280" font-family="Helvetica,sans-Serif" font-size="10.00">/src/GuiBase/Utils/PickingManager.hpp</text>
</a>
</g>
</g>
<!-- Node2&#45;&gt;Node11 -->
<g id="edge11" class="edge"><title>Node2&#45;&gt;Node11</title>
<path fill="none" stroke="midnightblue" d="M1356.47,-350.22C1341.29,-338.548 1323.63,-324.973 1309.55,-314.144"/>
<polygon fill="midnightblue" stroke="midnightblue" points="1354.55,-353.158 1364.61,-356.479 1358.82,-347.609 1354.55,-353.158"/>
</g>
<!-- Node27 -->
<g id="node27" class="node"><title>Node27</title>
<g id="a_node27"><a xlink:href="Viewer_8hpp.html" target="_top" xlink:title="/home/travis/build\l/STORM&#45;IRIT/Radium&#45;Engine\l/src/GuiBase/Viewer/Viewer.hpp">
<polygon fill="white" stroke="black" points="431,-273 431,-314 597,-314 597,-273 431,-273"/>
<text text-anchor="start" x="439" y="-302" font-family="Helvetica,sans-Serif" font-size="10.00">/home/travis/build</text>
<text text-anchor="start" x="439" y="-291" font-family="Helvetica,sans-Serif" font-size="10.00">/STORM&#45;IRIT/Radium&#45;Engine</text>
<text text-anchor="middle" x="514" y="-280" font-family="Helvetica,sans-Serif" font-size="10.00">/src/GuiBase/Viewer/Viewer.hpp</text>
</a>
</g>
</g>
<!-- Node2&#45;&gt;Node27 -->
<g id="edge36" class="edge"><title>Node2&#45;&gt;Node27</title>
<path fill="none" stroke="midnightblue" d="M1289.13,-372.738C1144.08,-367.089 868.442,-352.778 636,-320 623.358,-318.217 610.064,-315.902 597.088,-313.394"/>
<polygon fill="midnightblue" stroke="midnightblue" points="1289.22,-376.243 1299.35,-373.129 1289.49,-369.249 1289.22,-376.243"/>
</g>
<!-- Node29 -->
<g id="node29" class="node"><title>Node29</title>
<g id="a_node29"><a xlink:href="MeshPaintComponent_8hpp.html" target="_top" xlink:title="/home/travis/build\l/STORM&#45;IRIT/Radium&#45;Engine\l/Plugins/MeshPaint/src/MeshPaint\lComponent.hpp">
<polygon fill="white" stroke="black" points="2032,-267.5 2032,-319.5 2206,-319.5 2206,-267.5 2032,-267.5"/>
<text text-anchor="start" x="2040" y="-307.5" font-family="Helvetica,sans-Serif" font-size="10.00">/home/travis/build</text>
<text text-anchor="start" x="2040" y="-296.5" font-family="Helvetica,sans-Serif" font-size="10.00">/STORM&#45;IRIT/Radium&#45;Engine</text>
<text text-anchor="start" x="2040" y="-285.5" font-family="Helvetica,sans-Serif" font-size="10.00">/Plugins/MeshPaint/src/MeshPaint</text>
<text text-anchor="middle" x="2119" y="-274.5" font-family="Helvetica,sans-Serif" font-size="10.00">Component.hpp</text>
</a>
</g>
</g>
<!-- Node2&#45;&gt;Node29 -->
<g id="edge41" class="edge"><title>Node2&#45;&gt;Node29</title>
<path fill="none" stroke="midnightblue" d="M1490.88,-372.407C1616.38,-366.717 1836.85,-352.707 2023,-320 2025.89,-319.493 2028.81,-318.94 2031.76,-318.351"/>
<polygon fill="midnightblue" stroke="midnightblue" points="1490.36,-368.927 1480.52,-372.868 1490.67,-375.92 1490.36,-368.927"/>
</g>
<!-- Node32 -->
<g id="node32" class="node"><title>Node32</title>
<g id="a_node32"><a xlink:href="MeshPaintSystem_8hpp.html" target="_top" xlink:title="/home/travis/build\l/STORM&#45;IRIT/Radium&#45;Engine\l/Plugins/MeshPaint/src/MeshPaint\lSystem.hpp">
<polygon fill="white" stroke="black" points="1840,-267.5 1840,-319.5 2014,-319.5 2014,-267.5 1840,-267.5"/>
<text text-anchor="start" x="1848" y="-307.5" font-family="Helvetica,sans-Serif" font-size="10.00">/home/travis/build</text>
<text text-anchor="start" x="1848" y="-296.5" font-family="Helvetica,sans-Serif" font-size="10.00">/STORM&#45;IRIT/Radium&#45;Engine</text>
<text text-anchor="start" x="1848" y="-285.5" font-family="Helvetica,sans-Serif" font-size="10.00">/Plugins/MeshPaint/src/MeshPaint</text>
<text text-anchor="middle" x="1927" y="-274.5" font-family="Helvetica,sans-Serif" font-size="10.00">System.hpp</text>
</a>
</g>
</g>
<!-- Node2&#45;&gt;Node32 -->
<g id="edge44" class="edge"><title>Node2&#45;&gt;Node32</title>
<path fill="none" stroke="midnightblue" d="M1490.96,-360.677C1591.54,-345.412 1744.36,-322.218 1839.81,-307.733"/>
<polygon fill="midnightblue" stroke="midnightblue" points="1490.15,-357.26 1480.79,-362.221 1491.2,-364.181 1490.15,-357.26"/>
</g>
<!-- Node5 -->
<g id="node5" class="node"><title>Node5</title>
<g id="a_node5"><a xlink:href="ForwardRenderer_8cpp.html" target="_top" xlink:title="/home/travis/build\l/STORM&#45;IRIT/Radium&#45;Engine\l/src/Engine/Renderer/Renderers\l/ForwardRenderer.cpp">
<polygon fill="white" stroke="black" points="0,-178.5 0,-230.5 166,-230.5 166,-178.5 0,-178.5"/>
<text text-anchor="start" x="8" y="-218.5" font-family="Helvetica,sans-Serif" font-size="10.00">/home/travis/build</text>
<text text-anchor="start" x="8" y="-207.5" font-family="Helvetica,sans-Serif" font-size="10.00">/STORM&#45;IRIT/Radium&#45;Engine</text>
<text text-anchor="start" x="8" y="-196.5" font-family="Helvetica,sans-Serif" font-size="10.00">/src/Engine/Renderer/Renderers</text>
<text text-anchor="middle" x="83" y="-185.5" font-family="Helvetica,sans-Serif" font-size="10.00">/ForwardRenderer.cpp</text>
</a>
</g>
</g>
<!-- Node4&#45;&gt;Node5 -->
<g id="edge4" class="edge"><title>Node4&#45;&gt;Node5</title>
<path fill="none" stroke="midnightblue" d="M204.731,-263.058C182.442,-252.519 157.543,-240.746 136.101,-230.607"/>
<polygon fill="midnightblue" stroke="midnightblue" points="203.243,-266.226 213.78,-267.336 206.235,-259.897 203.243,-266.226"/>
</g>
<!-- Node4&#45;&gt;Node6 -->
<g id="edge5" class="edge"><title>Node4&#45;&gt;Node6</title>
<path fill="none" stroke="midnightblue" d="M267,-257.155C267,-246.21 267,-234.549 267,-225.082"/>
<polygon fill="midnightblue" stroke="midnightblue" points="263.5,-257.336 267,-267.336 270.5,-257.336 263.5,-257.336"/>
</g>
<!-- Node9 -->
<g id="node9" class="node"><title>Node9</title>
<g id="a_node9"><a xlink:href="BaseApplication_8hpp.html" target="_top" xlink:title="/home/travis/build\l/STORM&#45;IRIT/Radium&#45;Engine\l/src/GuiBase/BaseApplication.hpp">
<polygon fill="white" stroke="black" points="677.5,-184 677.5,-225 854.5,-225 854.5,-184 677.5,-184"/>
<text text-anchor="start" x="685.5" y="-213" font-family="Helvetica,sans-Serif" font-size="10.00">/home/travis/build</text>
<text text-anchor="start" x="685.5" y="-202" font-family="Helvetica,sans-Serif" font-size="10.00">/STORM&#45;IRIT/Radium&#45;Engine</text>
<text text-anchor="middle" x="766" y="-191" font-family="Helvetica,sans-Serif" font-size="10.00">/src/GuiBase/BaseApplication.hpp</text>
</a>
</g>
</g>
<!-- Node8&#45;&gt;Node9 -->
<g id="edge8" class="edge"><title>Node8&#45;&gt;Node9</title>
<path fill="none" stroke="midnightblue" d="M1391.67,-267.096C1157.71,-232.167 1092.87,-268.244 864,-231 854.37,-229.433 844.309,-227.347 834.457,-225.04"/>
<polygon fill="midnightblue" stroke="midnightblue" points="1391.44,-270.602 1401.85,-268.645 1392.49,-263.681 1391.44,-270.602"/>
</g>
<!-- Node10 -->
<g id="node10" class="node"><title>Node10</title>
<g id="a_node10"><a xlink:href="FrameTimerData_8cpp.html" target="_top" xlink:title="/home/travis/build\l/STORM&#45;IRIT/Radium&#45;Engine\l/src/GuiBase/TimerData/FrameTimer\lData.cpp">
<polygon fill="white" stroke="black" points="1975,-178.5 1975,-230.5 2165,-230.5 2165,-178.5 1975,-178.5"/>
<text text-anchor="start" x="1983" y="-218.5" font-family="Helvetica,sans-Serif" font-size="10.00">/home/travis/build</text>
<text text-anchor="start" x="1983" y="-207.5" font-family="Helvetica,sans-Serif" font-size="10.00">/STORM&#45;IRIT/Radium&#45;Engine</text>
<text text-anchor="start" x="1983" y="-196.5" font-family="Helvetica,sans-Serif" font-size="10.00">/src/GuiBase/TimerData/FrameTimer</text>
<text text-anchor="middle" x="2070" y="-185.5" font-family="Helvetica,sans-Serif" font-size="10.00">Data.cpp</text>
</a>
</g>
</g>
<!-- Node8&#45;&gt;Node10 -->
<g id="edge10" class="edge"><title>Node8&#45;&gt;Node10</title>
<path fill="none" stroke="midnightblue" d="M1602.48,-282.024C1697.88,-271.755 1841.98,-254.262 1966,-231 1968.92,-230.452 1971.89,-229.872 1974.88,-229.268"/>
<polygon fill="midnightblue" stroke="midnightblue" points="1601.82,-278.575 1592.25,-283.118 1602.57,-285.535 1601.82,-278.575"/>
</g>
<!-- Node9&#45;&gt;Node7 -->
<g id="edge9" class="edge"><title>Node9&#45;&gt;Node7</title>
<path fill="none" stroke="midnightblue" d="M716.028,-179.481C687.63,-165.831 652.522,-148.955 625.797,-136.11"/>
<polygon fill="midnightblue" stroke="midnightblue" points="714.851,-182.798 725.38,-183.976 717.883,-176.489 714.851,-182.798"/>
</g>
<!-- Node11&#45;&gt;Node6 -->
<g id="edge13" class="edge"><title>Node11&#45;&gt;Node6</title>
<path fill="none" stroke="midnightblue" d="M1174.41,-289.289C1006.45,-283.379 675.564,-267.832 397,-231 381.609,-228.965 365.297,-226.23 349.619,-223.306"/>
<polygon fill="midnightblue" stroke="midnightblue" points="1174.38,-292.79 1184.49,-289.639 1174.62,-285.794 1174.38,-292.79"/>
</g>
<!-- Node12 -->
<g id="node12" class="node"><title>Node12</title>
<g id="a_node12"><a xlink:href="PickingManager_8cpp.html" target="_top" xlink:title="/home/travis/build\l/STORM&#45;IRIT/Radium&#45;Engine\l/src/GuiBase/Utils/PickingManager.cpp">
<polygon fill="white" stroke="black" points="873,-184 873,-225 1071,-225 1071,-184 873,-184"/>
<text text-anchor="start" x="881" y="-213" font-family="Helvetica,sans-Serif" font-size="10.00">/home/travis/build</text>
<text text-anchor="start" x="881" y="-202" font-family="Helvetica,sans-Serif" font-size="10.00">/STORM&#45;IRIT/Radium&#45;Engine</text>
<text text-anchor="middle" x="972" y="-191" font-family="Helvetica,sans-Serif" font-size="10.00">/src/GuiBase/Utils/PickingManager.cpp</text>
</a>
</g>
</g>
<!-- Node11&#45;&gt;Node12 -->
<g id="edge12" class="edge"><title>Node11&#45;&gt;Node12</title>
<path fill="none" stroke="midnightblue" d="M1204.16,-270.237C1154.09,-256.275 1090.15,-238.446 1042.05,-225.034"/>
<polygon fill="midnightblue" stroke="midnightblue" points="1203.41,-273.661 1213.98,-272.976 1205.29,-266.918 1203.41,-273.661"/>
</g>
<!-- Node13 -->
<g id="node13" class="node"><title>Node13</title>
<g id="a_node13"><a xlink:href="CameraManipUI_8h.html" target="_top" xlink:title="/home/travis/build\l/STORM&#45;IRIT/Radium&#45;Engine\l/Plugins/CameraManip/src\l/UI/CameraManipUI.h">
<polygon fill="white" stroke="black" points="1089,-178.5 1089,-230.5 1237,-230.5 1237,-178.5 1089,-178.5"/>
<text text-anchor="start" x="1097" y="-218.5" font-family="Helvetica,sans-Serif" font-size="10.00">/home/travis/build</text>
<text text-anchor="start" x="1097" y="-207.5" font-family="Helvetica,sans-Serif" font-size="10.00">/STORM&#45;IRIT/Radium&#45;Engine</text>
<text text-anchor="start" x="1097" y="-196.5" font-family="Helvetica,sans-Serif" font-size="10.00">/Plugins/CameraManip/src</text>
<text text-anchor="middle" x="1163" y="-185.5" font-family="Helvetica,sans-Serif" font-size="10.00">/UI/CameraManipUI.h</text>
</a>
</g>
</g>
<!-- Node11&#45;&gt;Node13 -->
<g id="edge14" class="edge"><title>Node11&#45;&gt;Node13</title>
<path fill="none" stroke="midnightblue" d="M1248.32,-266.848C1232.4,-255.402 1213.71,-241.963 1197.89,-230.585"/>
<polygon fill="midnightblue" stroke="midnightblue" points="1246.68,-269.979 1256.85,-272.976 1250.77,-264.296 1246.68,-269.979"/>
</g>
<!-- Node17 -->
<g id="node17" class="node"><title>Node17</title>
<g id="a_node17"><a xlink:href="MeshFeatureTrackingComponent_8hpp.html" target="_top" xlink:title="/home/travis/build\l/STORM&#45;IRIT/Radium&#45;Engine\l/Plugins/MeshFeatureTracking\l/src/MeshFeatureTrackingComponent.hpp">
<polygon fill="white" stroke="black" points="1061,-89.5 1061,-141.5 1275,-141.5 1275,-89.5 1061,-89.5"/>
<text text-anchor="start" x="1069" y="-129.5" font-family="Helvetica,sans-Serif" font-size="10.00">/home/travis/build</text>
<text text-anchor="start" x="1069" y="-118.5" font-family="Helvetica,sans-Serif" font-size="10.00">/STORM&#45;IRIT/Radium&#45;Engine</text>
<text text-anchor="start" x="1069" y="-107.5" font-family="Helvetica,sans-Serif" font-size="10.00">/Plugins/MeshFeatureTracking</text>
<text text-anchor="middle" x="1168" y="-96.5" font-family="Helvetica,sans-Serif" font-size="10.00">/src/MeshFeatureTrackingComponent.hpp</text>
</a>
</g>
</g>
<!-- Node11&#45;&gt;Node17 -->
<g id="edge19" class="edge"><title>Node11&#45;&gt;Node17</title>
<path fill="none" stroke="midnightblue" d="M1279.02,-262.58C1273.85,-238.124 1263.92,-203.54 1246,-178 1236.19,-164.024 1222.31,-151.661 1208.96,-141.752"/>
<polygon fill="midnightblue" stroke="midnightblue" points="1275.65,-263.575 1281.02,-272.71 1282.52,-262.223 1275.65,-263.575"/>
</g>
<!-- Node19 -->
<g id="node19" class="node"><title>Node19</title>
<g id="a_node19"><a xlink:href="MeshFeatureTrackingPlugin_8cpp.html" target="_top" xlink:title="/home/travis/build\l/STORM&#45;IRIT/Radium&#45;Engine\l/Plugins/MeshFeatureTracking\l/src/MeshFeatureTrackingPlugin.cpp">
<polygon fill="white" stroke="black" points="1251.5,-0.5 1251.5,-52.5 1436.5,-52.5 1436.5,-0.5 1251.5,-0.5"/>
<text text-anchor="start" x="1259.5" y="-40.5" font-family="Helvetica,sans-Serif" font-size="10.00">/home/travis/build</text>
<text text-anchor="start" x="1259.5" y="-29.5" font-family="Helvetica,sans-Serif" font-size="10.00">/STORM&#45;IRIT/Radium&#45;Engine</text>
<text text-anchor="start" x="1259.5" y="-18.5" font-family="Helvetica,sans-Serif" font-size="10.00">/Plugins/MeshFeatureTracking</text>
<text text-anchor="middle" x="1344" y="-7.5" font-family="Helvetica,sans-Serif" font-size="10.00">/src/MeshFeatureTrackingPlugin.cpp</text>
</a>
</g>
</g>
<!-- Node11&#45;&gt;Node19 -->
<g id="edge22" class="edge"><title>Node11&#45;&gt;Node19</title>
<path fill="none" stroke="midnightblue" d="M1290.79,-262.522C1302.72,-209.842 1327.22,-101.606 1338.32,-52.5966"/>
<polygon fill="midnightblue" stroke="midnightblue" points="1287.3,-262.056 1288.51,-272.582 1294.13,-263.602 1287.3,-262.056"/>
</g>
<!-- Node20 -->
<g id="node20" class="node"><title>Node20</title>
<g id="a_node20"><a xlink:href="MeshFeatureTrackingUI_8h.html" target="_top" xlink:title="/home/travis/build\l/STORM&#45;IRIT/Radium&#45;Engine\l/Plugins/MeshFeatureTracking\l/src/UI/MeshFeatureTrackingUI.h">
<polygon fill="white" stroke="black" points="1331,-178.5 1331,-230.5 1499,-230.5 1499,-178.5 1331,-178.5"/>
<text text-anchor="start" x="1339" y="-218.5" font-family="Helvetica,sans-Serif" font-size="10.00">/home/travis/build</text>
<text text-anchor="start" x="1339" y="-207.5" font-family="Helvetica,sans-Serif" font-size="10.00">/STORM&#45;IRIT/Radium&#45;Engine</text>
<text text-anchor="start" x="1339" y="-196.5" font-family="Helvetica,sans-Serif" font-size="10.00">/Plugins/MeshFeatureTracking</text>
<text text-anchor="middle" x="1415" y="-185.5" font-family="Helvetica,sans-Serif" font-size="10.00">/src/UI/MeshFeatureTrackingUI.h</text>
</a>
</g>
</g>
<!-- Node11&#45;&gt;Node20 -->
<g id="edge23" class="edge"><title>Node11&#45;&gt;Node20</title>
<path fill="none" stroke="midnightblue" d="M1322.15,-267.165C1339.48,-255.652 1359.94,-242.068 1377.23,-230.585"/>
<polygon fill="midnightblue" stroke="midnightblue" points="1319.79,-264.528 1313.4,-272.976 1323.67,-270.359 1319.79,-264.528"/>
</g>
<!-- Node23 -->
<g id="node23" class="node"><title>Node23</title>
<g id="a_node23"><a xlink:href="MeshPaintPlugin_8cpp.html" target="_top" xlink:title="/home/travis/build\l/STORM&#45;IRIT/Radium&#45;Engine\l/Plugins/MeshPaint/src/MeshPaint\lPlugin.cpp">
<polygon fill="white" stroke="black" points="1955,-0.5 1955,-52.5 2129,-52.5 2129,-0.5 1955,-0.5"/>
<text text-anchor="start" x="1963" y="-40.5" font-family="Helvetica,sans-Serif" font-size="10.00">/home/travis/build</text>
<text text-anchor="start" x="1963" y="-29.5" font-family="Helvetica,sans-Serif" font-size="10.00">/STORM&#45;IRIT/Radium&#45;Engine</text>
<text text-anchor="start" x="1963" y="-18.5" font-family="Helvetica,sans-Serif" font-size="10.00">/Plugins/MeshPaint/src/MeshPaint</text>
<text text-anchor="middle" x="2042" y="-7.5" font-family="Helvetica,sans-Serif" font-size="10.00">Plugin.cpp</text>
</a>
</g>
</g>
<!-- Node11&#45;&gt;Node23 -->
<g id="edge29" class="edge"><title>Node11&#45;&gt;Node23</title>
<path fill="none" stroke="midnightblue" d="M1370.2,-270.325C1412,-259.192 1462.83,-245.097 1508,-231 1622.19,-195.366 1666.26,-213.713 1762,-142 1785.2,-124.623 1776.06,-105.337 1800,-89 1845.65,-57.8461 1905.86,-42.4693 1954.8,-34.8818"/>
<polygon fill="midnightblue" stroke="midnightblue" points="1369.09,-266.997 1360.33,-272.944 1370.89,-273.763 1369.09,-266.997"/>
</g>
<!-- Node24 -->
<g id="node24" class="node"><title>Node24</title>
<g id="a_node24"><a xlink:href="MeshPaintUI_8h.html" target="_top" xlink:title="/home/travis/build\l/STORM&#45;IRIT/Radium&#45;Engine\l/Plugins/MeshPaint/src/UI\l/MeshPaintUI.h">
<polygon fill="white" stroke="black" points="1809,-178.5 1809,-230.5 1957,-230.5 1957,-178.5 1809,-178.5"/>
<text text-anchor="start" x="1817" y="-218.5" font-family="Helvetica,sans-Serif" font-size="10.00">/home/travis/build</text>
<text text-anchor="start" x="1817" y="-207.5" font-family="Helvetica,sans-Serif" font-size="10.00">/STORM&#45;IRIT/Radium&#45;Engine</text>
<text text-anchor="start" x="1817" y="-196.5" font-family="Helvetica,sans-Serif" font-size="10.00">/Plugins/MeshPaint/src/UI</text>
<text text-anchor="middle" x="1883" y="-185.5" font-family="Helvetica,sans-Serif" font-size="10.00">/MeshPaintUI.h</text>
</a>
</g>
</g>
<!-- Node11&#45;&gt;Node24 -->
<g id="edge30" class="edge"><title>Node11&#45;&gt;Node24</title>
<path fill="none" stroke="midnightblue" d="M1371.37,-270.926C1378.66,-269.472 1385.94,-268.136 1393,-267 1570.1,-238.499 1618.7,-264.117 1795,-231 1799.53,-230.148 1804.17,-229.163 1808.83,-228.084"/>
<polygon fill="midnightblue" stroke="midnightblue" points="1370.52,-267.527 1361.44,-272.977 1371.94,-274.383 1370.52,-267.527"/>
</g>
<!-- Node14 -->
<g id="node14" class="node"><title>Node14</title>
<g id="a_node14"><a xlink:href="CameraManipPlugin_8cpp.html" target="_top" xlink:title="/home/travis/build\l/STORM&#45;IRIT/Radium&#45;Engine\l/Plugins/CameraManip/src\l/CameraManipPlugin.cpp">
<polygon fill="white" stroke="black" points="854,-0.5 854,-52.5 1002,-52.5 1002,-0.5 854,-0.5"/>
<text text-anchor="start" x="862" y="-40.5" font-family="Helvetica,sans-Serif" font-size="10.00">/home/travis/build</text>
<text text-anchor="start" x="862" y="-29.5" font-family="Helvetica,sans-Serif" font-size="10.00">/STORM&#45;IRIT/Radium&#45;Engine</text>
<text text-anchor="start" x="862" y="-18.5" font-family="Helvetica,sans-Serif" font-size="10.00">/Plugins/CameraManip/src</text>
<text text-anchor="middle" x="928" y="-7.5" font-family="Helvetica,sans-Serif" font-size="10.00">/CameraManipPlugin.cpp</text>
</a>
</g>
</g>
<!-- Node13&#45;&gt;Node14 -->
<g id="edge15" class="edge"><title>Node13&#45;&gt;Node14</title>
<path fill="none" stroke="midnightblue" d="M1097.28,-173.373C1081.54,-164.51 1065.41,-153.939 1052,-142 1030.35,-122.728 1034.51,-109.482 1014,-89 1000.49,-75.5099 983.767,-62.8306 968.667,-52.5297"/>
<polygon fill="midnightblue" stroke="midnightblue" points="1096.03,-176.678 1106.49,-178.392 1099.38,-170.532 1096.03,-176.678"/>
</g>
<!-- Node15 -->
<g id="node15" class="node"><title>Node15</title>
<g id="a_node15"><a xlink:href="CameraManipPlugin_8hpp.html" target="_top" xlink:title="/home/travis/build\l/STORM&#45;IRIT/Radium&#45;Engine\l/Plugins/CameraManip/src\l/CameraManipPlugin.hpp">
<polygon fill="white" stroke="black" points="857,-89.5 857,-141.5 1005,-141.5 1005,-89.5 857,-89.5"/>
<text text-anchor="start" x="865" y="-129.5" font-family="Helvetica,sans-Serif" font-size="10.00">/home/travis/build</text>
<text text-anchor="start" x="865" y="-118.5" font-family="Helvetica,sans-Serif" font-size="10.00">/STORM&#45;IRIT/Radium&#45;Engine</text>
<text text-anchor="start" x="865" y="-107.5" font-family="Helvetica,sans-Serif" font-size="10.00">/Plugins/CameraManip/src</text>
<text text-anchor="middle" x="931" y="-96.5" font-family="Helvetica,sans-Serif" font-size="10.00">/CameraManipPlugin.hpp</text>
</a>
</g>
</g>
<!-- Node13&#45;&gt;Node15 -->
<g id="edge16" class="edge"><title>Node13&#45;&gt;Node15</title>
<path fill="none" stroke="midnightblue" d="M1086.62,-174.858C1057.9,-164.087 1025.5,-151.936 997.723,-141.521"/>
<polygon fill="midnightblue" stroke="midnightblue" points="1085.61,-178.219 1096.21,-178.453 1088.07,-171.664 1085.61,-178.219"/>
</g>
<!-- Node16 -->
<g id="node16" class="node"><title>Node16</title>
<g id="a_node16"><a xlink:href="CameraManipUI_8cpp.html" target="_top" xlink:title="/home/travis/build\l/STORM&#45;IRIT/Radium&#45;Engine\l/Plugins/CameraManip/src\l/UI/CameraManipUI.cpp">
<polygon fill="white" stroke="black" points="691,-89.5 691,-141.5 839,-141.5 839,-89.5 691,-89.5"/>
<text text-anchor="start" x="699" y="-129.5" font-family="Helvetica,sans-Serif" font-size="10.00">/home/travis/build</text>
<text text-anchor="start" x="699" y="-118.5" font-family="Helvetica,sans-Serif" font-size="10.00">/STORM&#45;IRIT/Radium&#45;Engine</text>
<text text-anchor="start" x="699" y="-107.5" font-family="Helvetica,sans-Serif" font-size="10.00">/Plugins/CameraManip/src</text>
<text text-anchor="middle" x="765" y="-96.5" font-family="Helvetica,sans-Serif" font-size="10.00">/UI/CameraManipUI.cpp</text>
</a>
</g>
</g>
<!-- Node13&#45;&gt;Node16 -->
<g id="edge18" class="edge"><title>Node13&#45;&gt;Node16</title>
<path fill="none" stroke="midnightblue" d="M1079.11,-177.943C976.509,-155.238 946.613,-164.675 848,-142 845.062,-141.324 842.076,-140.599 839.068,-139.835"/>
<polygon fill="midnightblue" stroke="midnightblue" points="1078.41,-181.373 1088.93,-180.165 1079.95,-174.545 1078.41,-181.373"/>
</g>
<!-- Node15&#45;&gt;Node14 -->
<g id="edge17" class="edge"><title>Node15&#45;&gt;Node14</title>
<path fill="none" stroke="midnightblue" d="M929.782,-79.1908C929.475,-70.2824 929.152,-60.8986 928.866,-52.6075"/>
<polygon fill="midnightblue" stroke="midnightblue" points="926.29,-79.4626 930.132,-89.336 933.285,-79.2213 926.29,-79.4626"/>
</g>
<!-- Node18 -->
<g id="node18" class="node"><title>Node18</title>
<g id="a_node18"><a xlink:href="MeshFeatureTrackingComponent_8cpp.html" target="_top" xlink:title="/home/travis/build\l/STORM&#45;IRIT/Radium&#45;Engine\l/Plugins/MeshFeatureTracking\l/src/MeshFeatureTrackingComponent.cpp">
<polygon fill="white" stroke="black" points="1020.5,-0.5 1020.5,-52.5 1233.5,-52.5 1233.5,-0.5 1020.5,-0.5"/>
<text text-anchor="start" x="1028.5" y="-40.5" font-family="Helvetica,sans-Serif" font-size="10.00">/home/travis/build</text>
<text text-anchor="start" x="1028.5" y="-29.5" font-family="Helvetica,sans-Serif" font-size="10.00">/STORM&#45;IRIT/Radium&#45;Engine</text>
<text text-anchor="start" x="1028.5" y="-18.5" font-family="Helvetica,sans-Serif" font-size="10.00">/Plugins/MeshFeatureTracking</text>
<text text-anchor="middle" x="1127" y="-7.5" font-family="Helvetica,sans-Serif" font-size="10.00">/src/MeshFeatureTrackingComponent.cpp</text>
</a>
</g>
</g>
<!-- Node17&#45;&gt;Node18 -->
<g id="edge20" class="edge"><title>Node17&#45;&gt;Node18</title>
<path fill="none" stroke="midnightblue" d="M1151.77,-80.0607C1147.45,-70.8956 1142.87,-61.169 1138.83,-52.6075"/>
<polygon fill="midnightblue" stroke="midnightblue" points="1148.71,-81.7822 1156.14,-89.336 1155.04,-78.7981 1148.71,-81.7822"/>
</g>
<!-- Node17&#45;&gt;Node19 -->
<g id="edge21" class="edge"><title>Node17&#45;&gt;Node19</title>
<path fill="none" stroke="midnightblue" d="M1228.13,-84.7763C1249.31,-74.3094 1272.88,-62.656 1293.21,-52.6075"/>
<polygon fill="midnightblue" stroke="midnightblue" points="1226.32,-81.767 1218.91,-89.336 1229.42,-88.0422 1226.32,-81.767"/>
</g>
<!-- Node20&#45;&gt;Node17 -->
<g id="edge24" class="edge"><title>Node20&#45;&gt;Node17</title>
<path fill="none" stroke="midnightblue" d="M1334.08,-174.998C1303.4,-164.193 1268.74,-151.982 1239.04,-141.521"/>
<polygon fill="midnightblue" stroke="midnightblue" points="1333.29,-178.432 1343.89,-178.453 1335.62,-171.829 1333.29,-178.432"/>
</g>
<!-- Node20&#45;&gt;Node19 -->
<g id="edge25" class="edge"><title>Node20&#45;&gt;Node19</title>
<path fill="none" stroke="midnightblue" d="M1379.49,-170.882C1371.93,-162.207 1364.8,-152.347 1360,-142 1346.74,-113.412 1343.73,-76.8242 1343.38,-52.8009"/>
<polygon fill="midnightblue" stroke="midnightblue" points="1377.14,-173.502 1386.48,-178.496 1382.29,-168.765 1377.14,-173.502"/>
</g>
<!-- Node21 -->
<g id="node21" class="node"><title>Node21</title>
<g id="a_node21"><a xlink:href="MeshFeatureTrackingPlugin_8hpp.html" target="_top" xlink:title="/home/travis/build\l/STORM&#45;IRIT/Radium&#45;Engine\l/Plugins/MeshFeatureTracking\l/src/MeshFeatureTrackingPlugin.hpp">
<polygon fill="white" stroke="black" points="1567,-89.5 1567,-141.5 1753,-141.5 1753,-89.5 1567,-89.5"/>
<text text-anchor="start" x="1575" y="-129.5" font-family="Helvetica,sans-Serif" font-size="10.00">/home/travis/build</text>
<text text-anchor="start" x="1575" y="-118.5" font-family="Helvetica,sans-Serif" font-size="10.00">/STORM&#45;IRIT/Radium&#45;Engine</text>
<text text-anchor="start" x="1575" y="-107.5" font-family="Helvetica,sans-Serif" font-size="10.00">/Plugins/MeshFeatureTracking</text>
<text text-anchor="middle" x="1660" y="-96.5" font-family="Helvetica,sans-Serif" font-size="10.00">/src/MeshFeatureTrackingPlugin.hpp</text>
</a>
</g>
</g>
<!-- Node20&#45;&gt;Node21 -->
<g id="edge26" class="edge"><title>Node20&#45;&gt;Node21</title>
<path fill="none" stroke="midnightblue" d="M1495.26,-174.998C1525.69,-164.193 1560.08,-151.982 1589.54,-141.521"/>
<polygon fill="midnightblue" stroke="midnightblue" points="1493.79,-171.808 1485.54,-178.453 1496.13,-178.405 1493.79,-171.808"/>
</g>
<!-- Node22 -->
<g id="node22" class="node"><title>Node22</title>
<g id="a_node22"><a xlink:href="MeshFeatureTrackingUI_8cpp.html" target="_top" xlink:title="/home/travis/build\l/STORM&#45;IRIT/Radium&#45;Engine\l/Plugins/MeshFeatureTracking\l/src/UI/MeshFeatureTrackingUI.cpp">
<polygon fill="white" stroke="black" points="1369.5,-89.5 1369.5,-141.5 1548.5,-141.5 1548.5,-89.5 1369.5,-89.5"/>
<text text-anchor="start" x="1377.5" y="-129.5" font-family="Helvetica,sans-Serif" font-size="10.00">/home/travis/build</text>
<text text-anchor="start" x="1377.5" y="-118.5" font-family="Helvetica,sans-Serif" font-size="10.00">/STORM&#45;IRIT/Radium&#45;Engine</text>
<text text-anchor="start" x="1377.5" y="-107.5" font-family="Helvetica,sans-Serif" font-size="10.00">/Plugins/MeshFeatureTracking</text>
<text text-anchor="middle" x="1459" y="-96.5" font-family="Helvetica,sans-Serif" font-size="10.00">/src/UI/MeshFeatureTrackingUI.cpp</text>
</a>
</g>
</g>
<!-- Node20&#45;&gt;Node22 -->
<g id="edge28" class="edge"><title>Node20&#45;&gt;Node22</title>
<path fill="none" stroke="midnightblue" d="M1432.27,-169.35C1436.95,-160.1 1441.93,-150.259 1446.3,-141.607"/>
<polygon fill="midnightblue" stroke="midnightblue" points="1429.12,-167.833 1427.73,-178.336 1435.36,-170.992 1429.12,-167.833"/>
</g>
<!-- Node21&#45;&gt;Node19 -->
<g id="edge27" class="edge"><title>Node21&#45;&gt;Node19</title>
<path fill="none" stroke="midnightblue" d="M1559.27,-86.7674C1519.35,-75.7757 1473.78,-63.2306 1434.88,-52.5211"/>
<polygon fill="midnightblue" stroke="midnightblue" points="1558.45,-90.1727 1569.02,-89.4527 1560.31,-83.4238 1558.45,-90.1727"/>
</g>
<!-- Node24&#45;&gt;Node23 -->
<g id="edge31" class="edge"><title>Node24&#45;&gt;Node23</title>
<path fill="none" stroke="midnightblue" d="M1931.14,-172.213C1943.22,-163.224 1955.67,-152.884 1966,-142 1979.96,-127.294 2008.9,-81.6272 2026.76,-52.6046"/>
<polygon fill="midnightblue" stroke="midnightblue" points="1928.91,-169.506 1922.87,-178.21 1933.02,-175.172 1928.91,-169.506"/>
</g>
<!-- Node25 -->
<g id="node25" class="node"><title>Node25</title>
<g id="a_node25"><a xlink:href="MeshPaintPlugin_8hpp.html" target="_top" xlink:title="/home/travis/build\l/STORM&#45;IRIT/Radium&#45;Engine\l/Plugins/MeshPaint/src/MeshPaint\lPlugin.hpp">
<polygon fill="white" stroke="black" points="2013,-89.5 2013,-141.5 2187,-141.5 2187,-89.5 2013,-89.5"/>
<text text-anchor="start" x="2021" y="-129.5" font-family="Helvetica,sans-Serif" font-size="10.00">/home/travis/build</text>
<text text-anchor="start" x="2021" y="-118.5" font-family="Helvetica,sans-Serif" font-size="10.00">/STORM&#45;IRIT/Radium&#45;Engine</text>
<text text-anchor="start" x="2021" y="-107.5" font-family="Helvetica,sans-Serif" font-size="10.00">/Plugins/MeshPaint/src/MeshPaint</text>
<text text-anchor="middle" x="2100" y="-96.5" font-family="Helvetica,sans-Serif" font-size="10.00">Plugin.hpp</text>
</a>
</g>
</g>
<!-- Node24&#45;&gt;Node25 -->
<g id="edge32" class="edge"><title>Node24&#45;&gt;Node25</title>
<path fill="none" stroke="midnightblue" d="M1954.79,-174.717C1981.57,-163.982 2011.73,-151.891 2037.59,-141.521"/>
<polygon fill="midnightblue" stroke="midnightblue" points="1953.45,-171.483 1945.47,-178.453 1956.06,-177.98 1953.45,-171.483"/>
</g>
<!-- Node26 -->
<g id="node26" class="node"><title>Node26</title>
<g id="a_node26"><a xlink:href="MeshPaintUI_8cpp.html" target="_top" xlink:title="/home/travis/build\l/STORM&#45;IRIT/Radium&#45;Engine\l/Plugins/MeshPaint/src/UI\l/MeshPaintUI.cpp">
<polygon fill="white" stroke="black" points="1809,-89.5 1809,-141.5 1957,-141.5 1957,-89.5 1809,-89.5"/>
<text text-anchor="start" x="1817" y="-129.5" font-family="Helvetica,sans-Serif" font-size="10.00">/home/travis/build</text>
<text text-anchor="start" x="1817" y="-118.5" font-family="Helvetica,sans-Serif" font-size="10.00">/STORM&#45;IRIT/Radium&#45;Engine</text>
<text text-anchor="start" x="1817" y="-107.5" font-family="Helvetica,sans-Serif" font-size="10.00">/Plugins/MeshPaint/src/UI</text>
<text text-anchor="middle" x="1883" y="-96.5" font-family="Helvetica,sans-Serif" font-size="10.00">/MeshPaintUI.cpp</text>
</a>
</g>
</g>
<!-- Node24&#45;&gt;Node26 -->
<g id="edge34" class="edge"><title>Node24&#45;&gt;Node26</title>
<path fill="none" stroke="midnightblue" d="M1883,-168.191C1883,-159.282 1883,-149.899 1883,-141.607"/>
<polygon fill="midnightblue" stroke="midnightblue" points="1879.5,-168.336 1883,-178.336 1886.5,-168.336 1879.5,-168.336"/>
</g>
<!-- Node25&#45;&gt;Node23 -->
<g id="edge33" class="edge"><title>Node25&#45;&gt;Node23</title>
<path fill="none" stroke="midnightblue" d="M2077.62,-80.9272C2071.34,-71.511 2064.63,-61.4393 2058.74,-52.6075"/>
<polygon fill="midnightblue" stroke="midnightblue" points="2074.76,-82.9569 2083.22,-89.336 2080.59,-79.074 2074.76,-82.9569"/>
</g>
<!-- Node27&#45;&gt;Node6 -->
<g id="edge39" class="edge"><title>Node27&#45;&gt;Node6</title>
<path fill="none" stroke="midnightblue" d="M448.821,-269.542C409.561,-255.714 360.095,-238.291 322.673,-225.11"/>
<polygon fill="midnightblue" stroke="midnightblue" points="447.974,-272.954 458.568,-272.976 450.299,-266.352 447.974,-272.954"/>
</g>
<!-- Node27&#45;&gt;Node9 -->
<g id="edge37" class="edge"><title>Node27&#45;&gt;Node9</title>
<path fill="none" stroke="midnightblue" d="M580.244,-269.63C620.339,-255.788 670.939,-238.319 709.2,-225.11"/>
<polygon fill="midnightblue" stroke="midnightblue" points="578.864,-266.404 570.554,-272.976 581.148,-273.02 578.864,-266.404"/>
</g>
<!-- Node27&#45;&gt;Node14 -->
<g id="edge40" class="edge"><title>Node27&#45;&gt;Node14</title>
<path fill="none" stroke="midnightblue" d="M438.968,-268.297C422.331,-259.283 406.761,-247.159 397,-231 358.241,-166.84 420.72,-122.048 488,-89 550.827,-58.1397 745.737,-40.1248 853.86,-32.2532"/>
<polygon fill="midnightblue" stroke="midnightblue" points="437.785,-271.62 448.291,-272.991 440.933,-265.368 437.785,-271.62"/>
</g>
<!-- Node28 -->
<g id="node28" class="node"><title>Node28</title>
<g id="a_node28"><a xlink:href="CameraInterface_8cpp.html" target="_top" xlink:title="/home/travis/build\l/STORM&#45;IRIT/Radium&#45;Engine\l/src/GuiBase/Viewer/CameraInterface.cpp">
<polygon fill="white" stroke="black" points="406.5,-184 406.5,-225 621.5,-225 621.5,-184 406.5,-184"/>
<text text-anchor="start" x="414.5" y="-213" font-family="Helvetica,sans-Serif" font-size="10.00">/home/travis/build</text>
<text text-anchor="start" x="414.5" y="-202" font-family="Helvetica,sans-Serif" font-size="10.00">/STORM&#45;IRIT/Radium&#45;Engine</text>
<text text-anchor="middle" x="514" y="-191" font-family="Helvetica,sans-Serif" font-size="10.00">/src/GuiBase/Viewer/CameraInterface.cpp</text>
</a>
</g>
</g>
<!-- Node27&#45;&gt;Node28 -->
<g id="edge38" class="edge"><title>Node27&#45;&gt;Node28</title>
<path fill="none" stroke="midnightblue" d="M514,-262.441C514,-250.101 514,-236.162 514,-225.164"/>
<polygon fill="midnightblue" stroke="midnightblue" points="510.5,-262.758 514,-272.758 517.5,-262.758 510.5,-262.758"/>
</g>
<!-- Node30 -->
<g id="node30" class="node"><title>Node30</title>
<g id="a_node30"><a xlink:href="MeshPaintComponent_8cpp.html" target="_top" xlink:title="/home/travis/build\l/STORM&#45;IRIT/Radium&#45;Engine\l/Plugins/MeshPaint/src/MeshPaint\lComponent.cpp">
<polygon fill="white" stroke="black" points="2424,-178.5 2424,-230.5 2598,-230.5 2598,-178.5 2424,-178.5"/>
<text text-anchor="start" x="2432" y="-218.5" font-family="Helvetica,sans-Serif" font-size="10.00">/home/travis/build</text>
<text text-anchor="start" x="2432" y="-207.5" font-family="Helvetica,sans-Serif" font-size="10.00">/STORM&#45;IRIT/Radium&#45;Engine</text>
<text text-anchor="start" x="2432" y="-196.5" font-family="Helvetica,sans-Serif" font-size="10.00">/Plugins/MeshPaint/src/MeshPaint</text>
<text text-anchor="middle" x="2511" y="-185.5" font-family="Helvetica,sans-Serif" font-size="10.00">Component.cpp</text>
</a>
</g>
</g>
<!-- Node29&#45;&gt;Node30 -->
<g id="edge42" class="edge"><title>Node29&#45;&gt;Node30</title>
<path fill="none" stroke="midnightblue" d="M2216.02,-266.853C2304.91,-247.589 2329.94,-249.92 2415,-231 2417.95,-230.345 2420.94,-229.66 2423.96,-228.953"/>
<polygon fill="midnightblue" stroke="midnightblue" points="2215.06,-263.481 2206.04,-269.047 2216.56,-270.318 2215.06,-263.481"/>
</g>
<!-- Node31 -->
<g id="node31" class="node"><title>Node31</title>
<g id="a_node31"><a xlink:href="MeshPaintSystem_8cpp.html" target="_top" xlink:title="/home/travis/build\l/STORM&#45;IRIT/Radium&#45;Engine\l/Plugins/MeshPaint/src/MeshPaint\lSystem.cpp">
<polygon fill="white" stroke="black" points="2232,-178.5 2232,-230.5 2406,-230.5 2406,-178.5 2232,-178.5"/>
<text text-anchor="start" x="2240" y="-218.5" font-family="Helvetica,sans-Serif" font-size="10.00">/home/travis/build</text>
<text text-anchor="start" x="2240" y="-207.5" font-family="Helvetica,sans-Serif" font-size="10.00">/STORM&#45;IRIT/Radium&#45;Engine</text>
<text text-anchor="start" x="2240" y="-196.5" font-family="Helvetica,sans-Serif" font-size="10.00">/Plugins/MeshPaint/src/MeshPaint</text>
<text text-anchor="middle" x="2319" y="-185.5" font-family="Helvetica,sans-Serif" font-size="10.00">System.cpp</text>
</a>
</g>
</g>
<!-- Node29&#45;&gt;Node31 -->
<g id="edge43" class="edge"><title>Node29&#45;&gt;Node31</title>
<path fill="none" stroke="midnightblue" d="M2185.81,-263.436C2210.33,-252.771 2237.85,-240.8 2261.48,-230.521"/>
<polygon fill="midnightblue" stroke="midnightblue" points="2184.35,-260.254 2176.58,-267.453 2187.15,-266.673 2184.35,-260.254"/>
</g>
<!-- Node32&#45;&gt;Node23 -->
<g id="edge45" class="edge"><title>Node32&#45;&gt;Node23</title>
<path fill="none" stroke="midnightblue" d="M2024.07,-266.967C2093.08,-252.63 2127.21,-277.4 2174,-231 2219.35,-186.029 2231.82,-141.874 2196,-89 2180.5,-66.1185 2154.97,-51.7497 2129.11,-42.7268"/>
<polygon fill="midnightblue" stroke="midnightblue" points="2023.06,-263.609 2014.1,-269.261 2024.63,-270.431 2023.06,-263.609"/>
</g>
<!-- Node32&#45;&gt;Node31 -->
<g id="edge46" class="edge"><title>Node32&#45;&gt;Node31</title>
<path fill="none" stroke="midnightblue" d="M2024.06,-266.836C2110.72,-247.799 2135.01,-249.118 2218,-231 2222.51,-230.016 2227.12,-228.976 2231.76,-227.899"/>
<polygon fill="midnightblue" stroke="midnightblue" points="2023.05,-263.476 2014.05,-269.064 2024.57,-270.309 2023.05,-263.476"/>
</g>
<!-- Node34 -->
<g id="node34" class="node"><title>Node34</title>
<g id="a_node34"><a xlink:href="TrackballCamera_8cpp.html" target="_top" xlink:title="/home/travis/build\l/STORM&#45;IRIT/Radium&#45;Engine\l/src/GuiBase/Viewer/TrackballCamera.cpp">
<polygon fill="white" stroke="black" points="2422.5,-273 2422.5,-314 2635.5,-314 2635.5,-273 2422.5,-273"/>
<text text-anchor="start" x="2430.5" y="-302" font-family="Helvetica,sans-Serif" font-size="10.00">/home/travis/build</text>
<text text-anchor="start" x="2430.5" y="-291" font-family="Helvetica,sans-Serif" font-size="10.00">/STORM&#45;IRIT/Radium&#45;Engine</text>
<text text-anchor="middle" x="2529" y="-280" font-family="Helvetica,sans-Serif" font-size="10.00">/src/GuiBase/Viewer/TrackballCamera.cpp</text>
</a>
</g>
</g>
<!-- Node33&#45;&gt;Node34 -->
<g id="edge48" class="edge"><title>Node33&#45;&gt;Node34</title>
<path fill="none" stroke="midnightblue" d="M2529,-346.065C2529,-335.382 2529,-323.63 2529,-314.047"/>
<polygon fill="midnightblue" stroke="midnightblue" points="2525.5,-346.271 2529,-356.271 2532.5,-346.271 2525.5,-346.271"/>
</g>
<!-- Node35&#45;&gt;Node34 -->
<g id="edge50" class="edge"><title>Node35&#45;&gt;Node34</title>
<path fill="none" stroke="midnightblue" d="M2386.4,-352.608C2416.4,-340.385 2452.68,-325.6 2481.14,-314.003"/>
<polygon fill="midnightblue" stroke="midnightblue" points="2384.84,-349.464 2376.9,-356.479 2387.49,-355.946 2384.84,-349.464"/>
</g>
</g>
</svg>
