<?xml version="1.0" encoding="UTF-8" standalone="no"?>
<!DOCTYPE svg PUBLIC "-//W3C//DTD SVG 1.1//EN"
 "http://www.w3.org/Graphics/SVG/1.1/DTD/svg11.dtd">
<!-- Generated by graphviz version 2.38.0 (20140413.2041)
 -->
<!-- Title: /home/travis/build/STORM&#45;IRIT/Radium&#45;Engine/src/Core/Asset/FileLoaderInterface.hpp Pages: 1 -->
<svg width="371pt" height="218pt"
 viewBox="0.00 0.00 370.50 218.00" xmlns="http://www.w3.org/2000/svg" xmlns:xlink="http://www.w3.org/1999/xlink">
<g id="graph0" class="graph" transform="scale(1 1) rotate(0) translate(4 214)">
<title>/home/travis/build/STORM&#45;IRIT/Radium&#45;Engine/src/Core/Asset/FileLoaderInterface.hpp</title>
<polygon fill="white" stroke="none" points="-4,4 -4,-214 366.5,-214 366.5,4 -4,4"/>
<!-- Node1 -->
<g id="node1" class="node"><title>Node1</title>
<polygon fill="#bfbfbf" stroke="black" points="-1.42109e-14,-168.5 -1.42109e-14,-209.5 203,-209.5 203,-168.5 -1.42109e-14,-168.5"/>
<text text-anchor="start" x="8" y="-197.5" font-family="Helvetica,sans-Serif" font-size="10.00">/home/travis/build</text>
<text text-anchor="start" x="8" y="-186.5" font-family="Helvetica,sans-Serif" font-size="10.00">/STORM&#45;IRIT/Radium&#45;Engine</text>
<text text-anchor="middle" x="101.5" y="-175.5" font-family="Helvetica,sans-Serif" font-size="10.00">/src/Core/Asset/FileLoaderInterface.hpp</text>
</g>
<!-- Node2 -->
<g id="node2" class="node"><title>Node2</title>
<polygon fill="white" stroke="#bfbfbf" points="15.5,-112.5 15.5,-131.5 59.5,-131.5 59.5,-112.5 15.5,-112.5"/>
<text text-anchor="middle" x="37.5" y="-119.5" font-family="Helvetica,sans-Serif" font-size="10.00">string</text>
</g>
<!-- Node1&#45;&gt;Node2 -->
<g id="edge1" class="edge"><title>Node1&#45;&gt;Node2</title>
<path fill="none" stroke="midnightblue" d="M82.2979,-168.498C72.9572,-159.011 61.8748,-147.756 53.0698,-138.813"/>
<polygon fill="midnightblue" stroke="midnightblue" points="55.5294,-136.323 46.0194,-131.652 50.5415,-141.234 55.5294,-136.323"/>
</g>
<!-- Node3 -->
<g id="node3" class="node"><title>Node3</title>
<polygon fill="white" stroke="#bfbfbf" points="78,-112.5 78,-131.5 125,-131.5 125,-112.5 78,-112.5"/>
<text text-anchor="middle" x="101.5" y="-119.5" font-family="Helvetica,sans-Serif" font-size="10.00">vector</text>
</g>
<!-- Node1&#45;&gt;Node3 -->
<g id="edge2" class="edge"><title>Node1&#45;&gt;Node3</title>
<path fill="none" stroke="midnightblue" d="M101.5,-168.498C101.5,-160.065 101.5,-150.235 101.5,-141.874"/>
<polygon fill="midnightblue" stroke="midnightblue" points="105,-141.652 101.5,-131.652 98.0001,-141.653 105,-141.652"/>
</g>
<!-- Node4 -->
<g id="node4" class="node"><title>Node4</title>
<g id="a_node4"><a xlink:href="RaCore_8hpp.html" target="_top" xlink:title="Core/RaCore.hpp">
<polygon fill="white" stroke="black" points="143.5,-112.5 143.5,-131.5 241.5,-131.5 241.5,-112.5 143.5,-112.5"/>
<text text-anchor="middle" x="192.5" y="-119.5" font-family="Helvetica,sans-Serif" font-size="10.00">Core/RaCore.hpp</text>
</a>
</g>
</g>
<!-- Node1&#45;&gt;Node4 -->
<g id="edge3" class="edge"><title>Node1&#45;&gt;Node4</title>
<path fill="none" stroke="midnightblue" d="M128.803,-168.498C142.755,-158.532 159.44,-146.614 172.233,-137.476"/>
<polygon fill="midnightblue" stroke="midnightblue" points="174.284,-140.313 180.387,-131.652 170.215,-134.617 174.284,-140.313"/>
</g>
<!-- Node5 -->
<g id="node5" class="node"><title>Node5</title>
<g id="a_node5"><a xlink:href="CoreMacros_8hpp.html" target="_top" xlink:title="Core/CoreMacros.hpp">
<polygon fill="white" stroke="black" points="132.5,-56.5 132.5,-75.5 252.5,-75.5 252.5,-56.5 132.5,-56.5"/>
<text text-anchor="middle" x="192.5" y="-63.5" font-family="Helvetica,sans-Serif" font-size="10.00">Core/CoreMacros.hpp</text>
</a>
</g>
</g>
<!-- Node4&#45;&gt;Node5 -->
<g id="edge4" class="edge"><title>Node4&#45;&gt;Node5</title>
<path fill="none" stroke="midnightblue" d="M192.5,-112.083C192.5,-105.006 192.5,-94.8611 192.5,-85.9865"/>
<polygon fill="midnightblue" stroke="midnightblue" points="196,-85.751 192.5,-75.7511 189,-85.7511 196,-85.751"/>
</g>
<!-- Node6 -->
<g id="node6" class="node"><title>Node6</title>
<polygon fill="white" stroke="#bfbfbf" points="29.5,-0.5 29.5,-19.5 81.5,-19.5 81.5,-0.5 29.5,-0.5"/>
<text text-anchor="middle" x="55.5" y="-7.5" font-family="Helvetica,sans-Serif" font-size="10.00">cassert</text>
</g>
<!-- Node5&#45;&gt;Node6 -->
<g id="edge5" class="edge"><title>Node5&#45;&gt;Node6</title>
<path fill="none" stroke="midnightblue" d="M170.792,-56.4435C148.145,-47.5171 112.428,-33.4387 86.7482,-23.3168"/>
<polygon fill="midnightblue" stroke="midnightblue" points="87.6934,-19.9273 77.1065,-19.5164 85.1264,-26.4397 87.6934,-19.9273"/>
</g>
<!-- Node7 -->
<g id="node7" class="node"><title>Node7</title>
<polygon fill="white" stroke="#bfbfbf" points="100,-0.5 100,-19.5 145,-19.5 145,-0.5 100,-0.5"/>
<text text-anchor="middle" x="122.5" y="-7.5" font-family="Helvetica,sans-Serif" font-size="10.00">cstdio</text>
</g>
<!-- Node5&#45;&gt;Node7 -->
<g id="edge6" class="edge"><title>Node5&#45;&gt;Node7</title>
<path fill="none" stroke="midnightblue" d="M181.253,-56.324C170.703,-48.1849 154.699,-35.8395 142.058,-26.0874"/>
<polygon fill="midnightblue" stroke="midnightblue" points="144.007,-23.1707 133.951,-19.8339 139.731,-28.7132 144.007,-23.1707"/>
</g>
<!-- Node8 -->
<g id="node8" class="node"><title>Node8</title>
<polygon fill="white" stroke="#bfbfbf" points="163,-0.5 163,-19.5 222,-19.5 222,-0.5 163,-0.5"/>
<text text-anchor="middle" x="192.5" y="-7.5" font-family="Helvetica,sans-Serif" font-size="10.00">iostream</text>
</g>
<!-- Node5&#45;&gt;Node8 -->
<g id="edge7" class="edge"><title>Node5&#45;&gt;Node8</title>
<path fill="none" stroke="midnightblue" d="M192.5,-56.083C192.5,-49.0059 192.5,-38.8611 192.5,-29.9865"/>
<polygon fill="midnightblue" stroke="midnightblue" points="196,-29.751 192.5,-19.7511 189,-29.7511 196,-29.751"/>
</g>
<!-- Node9 -->
<g id="node9" class="node"><title>Node9</title>
<polygon fill="white" stroke="#bfbfbf" points="240.5,-0.5 240.5,-19.5 296.5,-19.5 296.5,-0.5 240.5,-0.5"/>
<text text-anchor="middle" x="268.5" y="-7.5" font-family="Helvetica,sans-Serif" font-size="10.00">sstream</text>
</g>
<!-- Node5&#45;&gt;Node9 -->
<g id="edge8" class="edge"><title>Node5&#45;&gt;Node9</title>
<path fill="none" stroke="midnightblue" d="M204.711,-56.324C216.276,-48.1066 233.875,-35.6017 247.661,-25.8069"/>
<polygon fill="midnightblue" stroke="midnightblue" points="249.943,-28.4791 256.067,-19.8339 245.888,-22.7729 249.943,-28.4791"/>
</g>
<!-- Node10 -->
<g id="node10" class="node"><title>Node10</title>
<polygon fill="white" stroke="#bfbfbf" points="314.5,-0.5 314.5,-19.5 362.5,-19.5 362.5,-0.5 314.5,-0.5"/>
<text text-anchor="middle" x="338.5" y="-7.5" font-family="Helvetica,sans-Serif" font-size="10.00">thread</text>
</g>
<!-- Node5&#45;&gt;Node10 -->
<g id="edge9" class="edge"><title>Node5&#45;&gt;Node10</title>
<path fill="none" stroke="midnightblue" d="M215.634,-56.4435C239.982,-47.4381 278.507,-33.1891 305.923,-23.049"/>
<polygon fill="midnightblue" stroke="midnightblue" points="307.309,-26.2681 315.474,-19.5164 304.881,-19.7028 307.309,-26.2681"/>
</g>
</g>
</svg>
