<?xml version="1.0" encoding="UTF-8" standalone="no"?>
<!DOCTYPE svg PUBLIC "-//W3C//DTD SVG 1.1//EN"
 "http://www.w3.org/Graphics/SVG/1.1/DTD/svg11.dtd">
<!-- Generated by graphviz version 2.38.0 (20140413.2041)
 -->
<!-- Title: /home/travis/build/STORM&#45;IRIT/Radium&#45;Engine/src/IO/deprecated/FileManager.hpp Pages: 1 -->
<svg width="300pt" height="106pt"
 viewBox="0.00 0.00 299.50 106.00" xmlns="http://www.w3.org/2000/svg" xmlns:xlink="http://www.w3.org/1999/xlink">
<g id="graph0" class="graph" transform="scale(1 1) rotate(0) translate(4 102)">
<title>/home/travis/build/STORM&#45;IRIT/Radium&#45;Engine/src/IO/deprecated/FileManager.hpp</title>
<polygon fill="white" stroke="none" points="-4,4 -4,-102 295.5,-102 295.5,4 -4,4"/>
<!-- Node1 -->
<g id="node1" class="node"><title>Node1</title>
<polygon fill="#bfbfbf" stroke="black" points="60.5,-56.5 60.5,-97.5 245.5,-97.5 245.5,-56.5 60.5,-56.5"/>
<text text-anchor="start" x="68.5" y="-85.5" font-family="Helvetica,sans-Serif" font-size="10.00">/home/travis/build</text>
<text text-anchor="start" x="68.5" y="-74.5" font-family="Helvetica,sans-Serif" font-size="10.00">/STORM&#45;IRIT/Radium&#45;Engine</text>
<text text-anchor="middle" x="153" y="-63.5" font-family="Helvetica,sans-Serif" font-size="10.00">/src/IO/deprecated/FileManager.hpp</text>
</g>
<!-- Node2 -->
<g id="node2" class="node"><title>Node2</title>
<polygon fill="white" stroke="#bfbfbf" points="0,-0.5 0,-19.5 54,-19.5 54,-0.5 0,-0.5"/>
<text text-anchor="middle" x="27" y="-7.5" font-family="Helvetica,sans-Serif" font-size="10.00">fstream</text>
</g>
<!-- Node1&#45;&gt;Node2 -->
<g id="edge1" class="edge"><title>Node1&#45;&gt;Node2</title>
<path fill="none" stroke="midnightblue" d="M115.196,-56.4979C95.1347,-46.1488 70.9926,-33.6946 53.0425,-24.4346"/>
<polygon fill="midnightblue" stroke="midnightblue" points="54.2643,-21.1267 43.7725,-19.6525 51.055,-27.3477 54.2643,-21.1267"/>
</g>
<!-- Node3 -->
<g id="node3" class="node"><title>Node3</title>
<polygon fill="white" stroke="#bfbfbf" points="72,-0.5 72,-19.5 116,-19.5 116,-0.5 72,-0.5"/>
<text text-anchor="middle" x="94" y="-7.5" font-family="Helvetica,sans-Serif" font-size="10.00">string</text>
</g>
<!-- Node1&#45;&gt;Node3 -->
<g id="edge2" class="edge"><title>Node1&#45;&gt;Node3</title>
<path fill="none" stroke="midnightblue" d="M135.298,-56.4979C126.774,-47.1071 116.677,-35.9829 108.6,-27.0848"/>
<polygon fill="midnightblue" stroke="midnightblue" points="111.166,-24.7047 101.854,-19.6525 105.983,-29.4095 111.166,-24.7047"/>
</g>
<!-- Node4 -->
<g id="node4" class="node"><title>Node4</title>
<g id="a_node4"><a xlink:href="FileManager_8inl.html" target="_top" xlink:title="IO/deprecated/FileManager.inl">
<polygon fill="white" stroke="black" points="134.5,-0.5 134.5,-19.5 291.5,-19.5 291.5,-0.5 134.5,-0.5"/>
<text text-anchor="middle" x="213" y="-7.5" font-family="Helvetica,sans-Serif" font-size="10.00">IO/deprecated/FileManager.inl</text>
</a>
</g>
</g>
<!-- Node1&#45;&gt;Node4 -->
<g id="edge3" class="edge"><title>Node1&#45;&gt;Node4</title>
<path fill="none" stroke="midnightblue" d="M164.757,-56.4979C172.818,-46.9154 183.459,-35.5281 192.797,-26.5428"/>
<polygon fill="midnightblue" stroke="midnightblue" points="195.282,-29.0113 200.249,-19.6525 190.53,-23.8717 195.282,-29.0113"/>
</g>
<!-- Node4&#45;&gt;Node1 -->
<g id="edge4" class="edge"><title>Node4&#45;&gt;Node1</title>
<path fill="none" stroke="midnightblue" d="M209.778,-19.6525C204.377,-27.2552 194.414,-38.7301 184.257,-49.3448"/>
<polygon fill="midnightblue" stroke="midnightblue" points="181.747,-46.9058 177.247,-56.4979 186.746,-51.8051 181.747,-46.9058"/>
</g>
</g>
</svg>
