<?xml version="1.0" encoding="UTF-8" standalone="no"?>
<!DOCTYPE svg PUBLIC "-//W3C//DTD SVG 1.1//EN"
 "http://www.w3.org/Graphics/SVG/1.1/DTD/svg11.dtd">
<!-- Generated by graphviz version 2.38.0 (20140413.2041)
 -->
<!-- Title: /home/travis/build/STORM&#45;IRIT/Radium&#45;Engine/src/GuiBase/TimerData/FrameTimerData.hpp Pages: 1 -->
<svg width="1488pt" height="341pt"
 viewBox="0.00 0.00 1487.77 341.00" xmlns="http://www.w3.org/2000/svg" xmlns:xlink="http://www.w3.org/1999/xlink">
<g id="graph0" class="graph" transform="scale(1 1) rotate(0) translate(4 337)">
<title>/home/travis/build/STORM&#45;IRIT/Radium&#45;Engine/src/GuiBase/TimerData/FrameTimerData.hpp</title>
<polygon fill="white" stroke="none" points="-4,4 -4,-337 1483.77,-337 1483.77,4 -4,4"/>
<!-- Node1 -->
<g id="node1" class="node"><title>Node1</title>
<polygon fill="#bfbfbf" stroke="black" points="442,-280.5 442,-332.5 632,-332.5 632,-280.5 442,-280.5"/>
<text text-anchor="start" x="450" y="-320.5" font-family="Helvetica,sans-Serif" font-size="10.00">/home/travis/build</text>
<text text-anchor="start" x="450" y="-309.5" font-family="Helvetica,sans-Serif" font-size="10.00">/STORM&#45;IRIT/Radium&#45;Engine</text>
<text text-anchor="start" x="450" y="-298.5" font-family="Helvetica,sans-Serif" font-size="10.00">/src/GuiBase/TimerData/FrameTimer</text>
<text text-anchor="middle" x="537" y="-287.5" font-family="Helvetica,sans-Serif" font-size="10.00">Data.hpp</text>
</g>
<!-- Node2 -->
<g id="node2" class="node"><title>Node2</title>
<g id="a_node2"><a xlink:href="RaGuiBase_8hpp.html" target="_top" xlink:title="GuiBase/RaGuiBase.hpp">
<polygon fill="white" stroke="black" points="97,-224.5 97,-243.5 229,-243.5 229,-224.5 97,-224.5"/>
<text text-anchor="middle" x="163" y="-231.5" font-family="Helvetica,sans-Serif" font-size="10.00">GuiBase/RaGuiBase.hpp</text>
</a>
</g>
</g>
<!-- Node1&#45;&gt;Node2 -->
<g id="edge1" class="edge"><title>Node1&#45;&gt;Node2</title>
<path fill="none" stroke="midnightblue" d="M441.656,-287.527C371.016,-274.212 277.194,-256.526 218.455,-245.454"/>
<polygon fill="midnightblue" stroke="midnightblue" points="218.743,-241.946 208.267,-243.533 217.446,-248.825 218.743,-241.946"/>
</g>
<!-- Node6 -->
<g id="node6" class="node"><title>Node6</title>
<polygon fill="white" stroke="#bfbfbf" points="166.5,-0.5 166.5,-19.5 225.5,-19.5 225.5,-0.5 166.5,-0.5"/>
<text text-anchor="middle" x="196" y="-7.5" font-family="Helvetica,sans-Serif" font-size="10.00">iostream</text>
</g>
<!-- Node1&#45;&gt;Node6 -->
<g id="edge9" class="edge"><title>Node1&#45;&gt;Node6</title>
<path fill="none" stroke="midnightblue" d="M441.923,-302.448C287.685,-294.879 0,-268.735 0,-179 0,-179 0,-179 0,-121 0,-50.1032 98.729,-24.4327 156.045,-15.5035"/>
<polygon fill="midnightblue" stroke="midnightblue" points="156.839,-18.925 166.232,-14.0239 155.833,-11.9977 156.839,-18.925"/>
</g>
<!-- Node9 -->
<g id="node9" class="node"><title>Node9</title>
<polygon fill="white" stroke="#bfbfbf" points="1225.5,-224.5 1225.5,-243.5 1280.5,-243.5 1280.5,-224.5 1225.5,-224.5"/>
<text text-anchor="middle" x="1253" y="-231.5" font-family="Helvetica,sans-Serif" font-size="10.00">iomanip</text>
</g>
<!-- Node1&#45;&gt;Node9 -->
<g id="edge8" class="edge"><title>Node1&#45;&gt;Node9</title>
<path fill="none" stroke="midnightblue" d="M632.03,-301.344C761.79,-294.676 1001.68,-278.808 1215.07,-243.904"/>
<polygon fill="midnightblue" stroke="midnightblue" points="1215.92,-247.312 1225.21,-242.228 1214.77,-240.406 1215.92,-247.312"/>
</g>
<!-- Node10 -->
<g id="node10" class="node"><title>Node10</title>
<g id="a_node10"><a xlink:href="TaskQueue_8hpp.html" target="_top" xlink:title="Core/Tasks/TaskQueue.hpp">
<polygon fill="white" stroke="black" points="465.5,-224.5 465.5,-243.5 608.5,-243.5 608.5,-224.5 465.5,-224.5"/>
<text text-anchor="middle" x="537" y="-231.5" font-family="Helvetica,sans-Serif" font-size="10.00">Core/Tasks/TaskQueue.hpp</text>
</a>
</g>
</g>
<!-- Node1&#45;&gt;Node10 -->
<g id="edge10" class="edge"><title>Node1&#45;&gt;Node10</title>
<path fill="none" stroke="midnightblue" d="M537,-280.446C537,-271.73 537,-262.104 537,-253.964"/>
<polygon fill="midnightblue" stroke="midnightblue" points="540.5,-253.695 537,-243.695 533.5,-253.696 540.5,-253.695"/>
</g>
<!-- Node21 -->
<g id="node21" class="node"><title>Node21</title>
<g id="a_node21"><a xlink:href="Timer_8hpp.html" target="_top" xlink:title="Core/Utils/Timer.hpp">
<polygon fill="white" stroke="black" points="235.5,-168.5 235.5,-187.5 348.5,-187.5 348.5,-168.5 235.5,-168.5"/>
<text text-anchor="middle" x="292" y="-175.5" font-family="Helvetica,sans-Serif" font-size="10.00">Core/Utils/Timer.hpp</text>
</a>
</g>
</g>
<!-- Node1&#45;&gt;Node21 -->
<g id="edge32" class="edge"><title>Node1&#45;&gt;Node21</title>
<path fill="none" stroke="midnightblue" d="M488.303,-280.356C436.884,-253.808 357.808,-212.978 317.511,-192.172"/>
<polygon fill="midnightblue" stroke="midnightblue" points="319.093,-189.05 308.601,-187.572 315.881,-195.27 319.093,-189.05"/>
</g>
<!-- Node23 -->
<g id="node23" class="node"><title>Node23</title>
<g id="a_node23"><a xlink:href="Log_8hpp.html" target="_top" xlink:title="Core/Utils/Log.hpp">
<polygon fill="white" stroke="black" points="1103,-224.5 1103,-243.5 1207,-243.5 1207,-224.5 1103,-224.5"/>
<text text-anchor="middle" x="1155" y="-231.5" font-family="Helvetica,sans-Serif" font-size="10.00">Core/Utils/Log.hpp</text>
</a>
</g>
</g>
<!-- Node1&#45;&gt;Node23 -->
<g id="edge26" class="edge"><title>Node1&#45;&gt;Node23</title>
<path fill="none" stroke="midnightblue" d="M632.208,-294.639C760.293,-280.027 984.504,-254.45 1092.87,-242.088"/>
<polygon fill="midnightblue" stroke="midnightblue" points="1093.45,-245.544 1102.99,-240.933 1092.66,-238.589 1093.45,-245.544"/>
</g>
<!-- Node26 -->
<g id="node26" class="node"><title>Node26</title>
<g id="a_node26"><a xlink:href="Renderer_8hpp.html" target="_top" xlink:title="Engine/Renderer/Renderer.hpp">
<polygon fill="white" stroke="black" points="700.5,-224.5 700.5,-243.5 861.5,-243.5 861.5,-224.5 700.5,-224.5"/>
<text text-anchor="middle" x="781" y="-231.5" font-family="Helvetica,sans-Serif" font-size="10.00">Engine/Renderer/Renderer.hpp</text>
</a>
</g>
</g>
<!-- Node1&#45;&gt;Node26 -->
<g id="edge33" class="edge"><title>Node1&#45;&gt;Node26</title>
<path fill="none" stroke="midnightblue" d="M623.712,-280.446C664.006,-268.804 709.919,-255.538 741.694,-246.357"/>
<polygon fill="midnightblue" stroke="midnightblue" points="742.853,-249.665 751.488,-243.527 740.91,-242.94 742.853,-249.665"/>
</g>
<!-- Node3 -->
<g id="node3" class="node"><title>Node3</title>
<g id="a_node3"><a xlink:href="CoreMacros_8hpp.html" target="_top" xlink:title="Core/CoreMacros.hpp">
<polygon fill="white" stroke="black" points="453,-56.5 453,-75.5 573,-75.5 573,-56.5 453,-56.5"/>
<text text-anchor="middle" x="513" y="-63.5" font-family="Helvetica,sans-Serif" font-size="10.00">Core/CoreMacros.hpp</text>
</a>
</g>
</g>
<!-- Node2&#45;&gt;Node3 -->
<g id="edge2" class="edge"><title>Node2&#45;&gt;Node3</title>
<path fill="none" stroke="midnightblue" d="M139.546,-224.408C123.839,-217.28 104.381,-205.458 95,-188 87.2009,-173.487 78.1324,-132.279 97,-112 120.063,-87.2125 330.155,-74.6624 442.64,-69.6719"/>
<polygon fill="midnightblue" stroke="midnightblue" points="443.043,-73.1578 452.881,-69.2265 442.738,-66.1644 443.043,-73.1578"/>
</g>
<!-- Node4 -->
<g id="node4" class="node"><title>Node4</title>
<polygon fill="white" stroke="#bfbfbf" points="521,-0.5 521,-19.5 573,-19.5 573,-0.5 521,-0.5"/>
<text text-anchor="middle" x="547" y="-7.5" font-family="Helvetica,sans-Serif" font-size="10.00">cassert</text>
</g>
<!-- Node3&#45;&gt;Node4 -->
<g id="edge3" class="edge"><title>Node3&#45;&gt;Node4</title>
<path fill="none" stroke="midnightblue" d="M518.614,-56.083C523.367,-48.5341 530.318,-37.4948 536.152,-28.2298"/>
<polygon fill="midnightblue" stroke="midnightblue" points="539.124,-30.0783 541.49,-19.7511 533.2,-26.3486 539.124,-30.0783"/>
</g>
<!-- Node5 -->
<g id="node5" class="node"><title>Node5</title>
<polygon fill="white" stroke="#bfbfbf" points="457.5,-0.5 457.5,-19.5 502.5,-19.5 502.5,-0.5 457.5,-0.5"/>
<text text-anchor="middle" x="480" y="-7.5" font-family="Helvetica,sans-Serif" font-size="10.00">cstdio</text>
</g>
<!-- Node3&#45;&gt;Node5 -->
<g id="edge4" class="edge"><title>Node3&#45;&gt;Node5</title>
<path fill="none" stroke="midnightblue" d="M507.551,-56.083C502.986,-48.6127 496.332,-37.7244 490.707,-28.5199"/>
<polygon fill="midnightblue" stroke="midnightblue" points="493.549,-26.4588 485.348,-19.7511 487.576,-30.109 493.549,-26.4588"/>
</g>
<!-- Node3&#45;&gt;Node6 -->
<g id="edge5" class="edge"><title>Node3&#45;&gt;Node6</title>
<path fill="none" stroke="midnightblue" d="M462.77,-56.4435C399.824,-45.7208 293.236,-27.5639 235.69,-17.761"/>
<polygon fill="midnightblue" stroke="midnightblue" points="235.983,-14.2606 225.537,-16.0315 234.807,-21.1612 235.983,-14.2606"/>
</g>
<!-- Node7 -->
<g id="node7" class="node"><title>Node7</title>
<polygon fill="white" stroke="#bfbfbf" points="1029,-0.5 1029,-19.5 1085,-19.5 1085,-0.5 1029,-0.5"/>
<text text-anchor="middle" x="1057" y="-7.5" font-family="Helvetica,sans-Serif" font-size="10.00">sstream</text>
</g>
<!-- Node3&#45;&gt;Node7 -->
<g id="edge6" class="edge"><title>Node3&#45;&gt;Node7</title>
<path fill="none" stroke="midnightblue" d="M573.035,-59.0407C685.582,-47.8687 925.337,-24.0695 1018.68,-14.8034"/>
<polygon fill="midnightblue" stroke="midnightblue" points="1019.2,-18.2692 1028.81,-13.7984 1018.51,-11.3034 1019.2,-18.2692"/>
</g>
<!-- Node8 -->
<g id="node8" class="node"><title>Node8</title>
<polygon fill="white" stroke="#bfbfbf" points="342,-0.5 342,-19.5 390,-19.5 390,-0.5 342,-0.5"/>
<text text-anchor="middle" x="366" y="-7.5" font-family="Helvetica,sans-Serif" font-size="10.00">thread</text>
</g>
<!-- Node3&#45;&gt;Node8 -->
<g id="edge7" class="edge"><title>Node3&#45;&gt;Node8</title>
<path fill="none" stroke="midnightblue" d="M489.707,-56.4435C465.193,-47.4381 426.404,-33.1891 398.8,-23.049"/>
<polygon fill="midnightblue" stroke="midnightblue" points="399.777,-19.6793 389.184,-19.5164 397.363,-26.25 399.777,-19.6793"/>
</g>
<!-- Node10&#45;&gt;Node8 -->
<g id="edge18" class="edge"><title>Node10&#45;&gt;Node8</title>
<path fill="none" stroke="midnightblue" d="M465.153,-230.856C346.284,-226.56 119.301,-214.901 95,-188 85.696,-177.701 73.9161,-144.086 97,-112 151.989,-35.5672 272.126,-16.9375 331.449,-12.4242"/>
<polygon fill="midnightblue" stroke="midnightblue" points="332.044,-15.8924 341.789,-11.7349 331.578,-8.90789 332.044,-15.8924"/>
</g>
<!-- Node11 -->
<g id="node11" class="node"><title>Node11</title>
<g id="a_node11"><a xlink:href="RaCore_8hpp.html" target="_top" xlink:title="Core/RaCore.hpp">
<polygon fill="white" stroke="black" points="514,-112.5 514,-131.5 612,-131.5 612,-112.5 514,-112.5"/>
<text text-anchor="middle" x="563" y="-119.5" font-family="Helvetica,sans-Serif" font-size="10.00">Core/RaCore.hpp</text>
</a>
</g>
</g>
<!-- Node10&#45;&gt;Node11 -->
<g id="edge11" class="edge"><title>Node10&#45;&gt;Node11</title>
<path fill="none" stroke="midnightblue" d="M539.04,-224.368C543.236,-206.617 552.915,-165.666 558.604,-141.597"/>
<polygon fill="midnightblue" stroke="midnightblue" points="562.075,-142.128 560.969,-131.591 555.263,-140.518 562.075,-142.128"/>
</g>
<!-- Node12 -->
<g id="node12" class="node"><title>Node12</title>
<polygon fill="white" stroke="#bfbfbf" points="366.5,-168.5 366.5,-187.5 469.5,-187.5 469.5,-168.5 366.5,-168.5"/>
<text text-anchor="middle" x="418" y="-175.5" font-family="Helvetica,sans-Serif" font-size="10.00">condition_variable</text>
</g>
<!-- Node10&#45;&gt;Node12 -->
<g id="edge13" class="edge"><title>Node10&#45;&gt;Node12</title>
<path fill="none" stroke="midnightblue" d="M518.144,-224.444C498.734,-215.636 468.27,-201.812 446.035,-191.722"/>
<polygon fill="midnightblue" stroke="midnightblue" points="447.32,-188.462 436.768,-187.516 444.428,-194.836 447.32,-188.462"/>
</g>
<!-- Node13 -->
<g id="node13" class="node"><title>Node13</title>
<polygon fill="white" stroke="#bfbfbf" points="487.5,-168.5 487.5,-187.5 534.5,-187.5 534.5,-168.5 487.5,-168.5"/>
<text text-anchor="middle" x="511" y="-175.5" font-family="Helvetica,sans-Serif" font-size="10.00">deque</text>
</g>
<!-- Node10&#45;&gt;Node13 -->
<g id="edge14" class="edge"><title>Node10&#45;&gt;Node13</title>
<path fill="none" stroke="midnightblue" d="M532.707,-224.083C529.148,-216.691 523.978,-205.953 519.576,-196.811"/>
<polygon fill="midnightblue" stroke="midnightblue" points="522.705,-195.243 515.213,-187.751 516.398,-198.279 522.705,-195.243"/>
</g>
<!-- Node14 -->
<g id="node14" class="node"><title>Node14</title>
<polygon fill="white" stroke="#bfbfbf" points="591.5,-168.5 591.5,-187.5 648.5,-187.5 648.5,-168.5 591.5,-168.5"/>
<text text-anchor="middle" x="620" y="-175.5" font-family="Helvetica,sans-Serif" font-size="10.00">memory</text>
</g>
<!-- Node10&#45;&gt;Node14 -->
<g id="edge15" class="edge"><title>Node10&#45;&gt;Node14</title>
<path fill="none" stroke="midnightblue" d="M550.335,-224.324C563.162,-215.979 582.785,-203.212 597.94,-193.352"/>
<polygon fill="midnightblue" stroke="midnightblue" points="600.224,-196.042 606.698,-187.655 596.407,-190.174 600.224,-196.042"/>
</g>
<!-- Node15 -->
<g id="node15" class="node"><title>Node15</title>
<polygon fill="white" stroke="#bfbfbf" points="666.5,-168.5 666.5,-187.5 713.5,-187.5 713.5,-168.5 666.5,-168.5"/>
<text text-anchor="middle" x="690" y="-175.5" font-family="Helvetica,sans-Serif" font-size="10.00">mutex</text>
</g>
<!-- Node10&#45;&gt;Node15 -->
<g id="edge16" class="edge"><title>Node10&#45;&gt;Node15</title>
<path fill="none" stroke="midnightblue" d="M561.243,-224.444C587.021,-215.345 627.964,-200.895 656.745,-190.737"/>
<polygon fill="midnightblue" stroke="midnightblue" points="658.108,-193.968 666.373,-187.339 655.778,-187.367 658.108,-193.968"/>
</g>
<!-- Node16 -->
<g id="node16" class="node"><title>Node16</title>
<polygon fill="white" stroke="#bfbfbf" points="1083,-168.5 1083,-187.5 1127,-187.5 1127,-168.5 1083,-168.5"/>
<text text-anchor="middle" x="1105" y="-175.5" font-family="Helvetica,sans-Serif" font-size="10.00">string</text>
</g>
<!-- Node10&#45;&gt;Node16 -->
<g id="edge17" class="edge"><title>Node10&#45;&gt;Node16</title>
<path fill="none" stroke="midnightblue" d="M608.742,-228.765C729.65,-221.342 970.068,-205.274 1072.7,-187.828"/>
<polygon fill="midnightblue" stroke="midnightblue" points="1073.55,-191.232 1082.78,-186.026 1072.32,-184.341 1073.55,-191.232"/>
</g>
<!-- Node17 -->
<g id="node17" class="node"><title>Node17</title>
<polygon fill="white" stroke="#bfbfbf" points="731.5,-168.5 731.5,-187.5 778.5,-187.5 778.5,-168.5 731.5,-168.5"/>
<text text-anchor="middle" x="755" y="-175.5" font-family="Helvetica,sans-Serif" font-size="10.00">vector</text>
</g>
<!-- Node10&#45;&gt;Node17 -->
<g id="edge19" class="edge"><title>Node10&#45;&gt;Node17</title>
<path fill="none" stroke="midnightblue" d="M573.232,-224.5C608.54,-216.147 663.986,-202.847 721.271,-188.134"/>
<polygon fill="midnightblue" stroke="midnightblue" points="722.418,-191.453 731.228,-185.568 720.671,-184.675 722.418,-191.453"/>
</g>
<!-- Node18 -->
<g id="node18" class="node"><title>Node18</title>
<g id="a_node18"><a xlink:href="Index_8hpp.html" target="_top" xlink:title="Core/Utils/Index.hpp">
<polygon fill="white" stroke="black" points="104.5,-168.5 104.5,-187.5 217.5,-187.5 217.5,-168.5 104.5,-168.5"/>
<text text-anchor="middle" x="161" y="-175.5" font-family="Helvetica,sans-Serif" font-size="10.00">Core/Utils/Index.hpp</text>
</a>
</g>
</g>
<!-- Node10&#45;&gt;Node18 -->
<g id="edge20" class="edge"><title>Node10&#45;&gt;Node18</title>
<path fill="none" stroke="midnightblue" d="M477.422,-224.444C409.429,-214.679 298.507,-198.748 227.682,-188.577"/>
<polygon fill="midnightblue" stroke="midnightblue" points="227.929,-185.076 217.533,-187.119 226.934,-192.005 227.929,-185.076"/>
</g>
<!-- Node10&#45;&gt;Node21 -->
<g id="edge23" class="edge"><title>Node10&#45;&gt;Node21</title>
<path fill="none" stroke="midnightblue" d="M498.179,-224.444C455.439,-215.023 386.668,-199.866 340.434,-189.675"/>
<polygon fill="midnightblue" stroke="midnightblue" points="341.158,-186.251 330.639,-187.516 339.652,-193.087 341.158,-186.251"/>
</g>
<!-- Node11&#45;&gt;Node3 -->
<g id="edge12" class="edge"><title>Node11&#45;&gt;Node3</title>
<path fill="none" stroke="midnightblue" d="M554.744,-112.083C547.535,-104.298 536.89,-92.8015 528.154,-83.3665"/>
<polygon fill="midnightblue" stroke="midnightblue" points="530.465,-80.7108 521.103,-75.7511 525.329,-85.4666 530.465,-80.7108"/>
</g>
<!-- Node19 -->
<g id="node19" class="node"><title>Node19</title>
<polygon fill="white" stroke="#bfbfbf" points="230,-112.5 230,-131.5 272,-131.5 272,-112.5 230,-112.5"/>
<text text-anchor="middle" x="251" y="-119.5" font-family="Helvetica,sans-Serif" font-size="10.00">limits</text>
</g>
<!-- Node18&#45;&gt;Node19 -->
<g id="edge21" class="edge"><title>Node18&#45;&gt;Node19</title>
<path fill="none" stroke="midnightblue" d="M175.46,-168.324C189.5,-159.9 211.048,-146.971 227.543,-137.074"/>
<polygon fill="midnightblue" stroke="midnightblue" points="229.802,-139.801 236.576,-131.655 226.2,-133.798 229.802,-139.801"/>
</g>
<!-- Node20 -->
<g id="node20" class="node"><title>Node20</title>
<g id="a_node20"><a xlink:href="Index_8inl.html" target="_top" xlink:title="Core/Utils/Index.inl">
<polygon fill="white" stroke="black" points="106.5,-112.5 106.5,-131.5 211.5,-131.5 211.5,-112.5 106.5,-112.5"/>
<text text-anchor="middle" x="159" y="-119.5" font-family="Helvetica,sans-Serif" font-size="10.00">Core/Utils/Index.inl</text>
</a>
</g>
</g>
<!-- Node18&#45;&gt;Node20 -->
<g id="edge22" class="edge"><title>Node18&#45;&gt;Node20</title>
<path fill="none" stroke="midnightblue" d="M160.67,-168.083C160.408,-161.006 160.032,-150.861 159.703,-141.986"/>
<polygon fill="midnightblue" stroke="midnightblue" points="163.192,-141.615 159.324,-131.751 156.197,-141.874 163.192,-141.615"/>
</g>
<!-- Node21&#45;&gt;Node11 -->
<g id="edge24" class="edge"><title>Node21&#45;&gt;Node11</title>
<path fill="none" stroke="midnightblue" d="M334.941,-168.444C382.513,-158.964 459.244,-143.675 510.389,-133.483"/>
<polygon fill="midnightblue" stroke="midnightblue" points="511.137,-136.903 520.26,-131.516 509.769,-130.038 511.137,-136.903"/>
</g>
<!-- Node22 -->
<g id="node22" class="node"><title>Node22</title>
<polygon fill="white" stroke="#bfbfbf" points="367,-112.5 367,-131.5 417,-131.5 417,-112.5 367,-112.5"/>
<text text-anchor="middle" x="392" y="-119.5" font-family="Helvetica,sans-Serif" font-size="10.00">chrono</text>
</g>
<!-- Node21&#45;&gt;Node22 -->
<g id="edge25" class="edge"><title>Node21&#45;&gt;Node22</title>
<path fill="none" stroke="midnightblue" d="M308.067,-168.324C323.958,-159.743 348.507,-146.486 366.958,-136.522"/>
<polygon fill="midnightblue" stroke="midnightblue" points="368.837,-139.486 375.973,-131.655 365.511,-133.326 368.837,-139.486"/>
</g>
<!-- Node23&#45;&gt;Node7 -->
<g id="edge29" class="edge"><title>Node23&#45;&gt;Node7</title>
<path fill="none" stroke="midnightblue" d="M1207.09,-225.415C1210.44,-224.934 1213.77,-224.459 1217,-224 1274.53,-215.826 1437.84,-231.826 1476,-188 1481.84,-181.296 1479.4,-176.212 1476,-168 1462.53,-135.481 1450.4,-129.745 1420,-112 1312.53,-49.2642 1164.33,-23.9943 1095.28,-15.1511"/>
<polygon fill="midnightblue" stroke="midnightblue" points="1095.64,-11.6693 1085.29,-13.9162 1094.79,-18.6164 1095.64,-11.6693"/>
</g>
<!-- Node23&#45;&gt;Node11 -->
<g id="edge27" class="edge"><title>Node23&#45;&gt;Node11</title>
<path fill="none" stroke="midnightblue" d="M1155.32,-224.171C1155.31,-209.855 1152.97,-181.791 1136,-168 1096.76,-136.114 760.494,-126.511 622.115,-123.894"/>
<polygon fill="midnightblue" stroke="midnightblue" points="622.168,-120.394 612.106,-123.71 622.04,-127.393 622.168,-120.394"/>
</g>
<!-- Node23&#45;&gt;Node16 -->
<g id="edge31" class="edge"><title>Node23&#45;&gt;Node16</title>
<path fill="none" stroke="midnightblue" d="M1146.74,-224.083C1139.54,-216.298 1128.89,-204.801 1120.15,-195.367"/>
<polygon fill="midnightblue" stroke="midnightblue" points="1122.47,-192.711 1113.1,-187.751 1117.33,-197.467 1122.47,-192.711"/>
</g>
<!-- Node24 -->
<g id="node24" class="node"><title>Node24</title>
<polygon fill="white" stroke="#bfbfbf" points="1355,-168.5 1355,-187.5 1399,-187.5 1399,-168.5 1355,-168.5"/>
<text text-anchor="middle" x="1377" y="-175.5" font-family="Helvetica,sans-Serif" font-size="10.00">ctime</text>
</g>
<!-- Node23&#45;&gt;Node24 -->
<g id="edge28" class="edge"><title>Node23&#45;&gt;Node24</title>
<path fill="none" stroke="midnightblue" d="M1190.68,-224.454C1228.13,-215.461 1288.74,-200.855 1341,-188 1342.27,-187.688 1343.56,-187.37 1344.86,-187.047"/>
<polygon fill="midnightblue" stroke="midnightblue" points="1346.06,-190.356 1354.92,-184.548 1344.37,-183.563 1346.06,-190.356"/>
</g>
<!-- Node25 -->
<g id="node25" class="node"><title>Node25</title>
<polygon fill="white" stroke="#bfbfbf" points="1417.5,-168.5 1417.5,-187.5 1466.5,-187.5 1466.5,-168.5 1417.5,-168.5"/>
<text text-anchor="middle" x="1442" y="-175.5" font-family="Helvetica,sans-Serif" font-size="10.00">stdio.h</text>
</g>
<!-- Node23&#45;&gt;Node25 -->
<g id="edge30" class="edge"><title>Node23&#45;&gt;Node25</title>
<path fill="none" stroke="midnightblue" d="M1207.1,-225.027C1256.22,-217.218 1332.09,-204.412 1407.08,-188.05"/>
<polygon fill="midnightblue" stroke="midnightblue" points="1408.16,-191.396 1417.18,-185.825 1406.66,-184.56 1408.16,-191.396"/>
</g>
<!-- Node26&#45;&gt;Node14 -->
<g id="edge38" class="edge"><title>Node26&#45;&gt;Node14</title>
<path fill="none" stroke="midnightblue" d="M755.489,-224.444C728.404,-215.359 685.41,-200.939 655.131,-190.783"/>
<polygon fill="midnightblue" stroke="midnightblue" points="655.986,-187.378 645.392,-187.516 653.76,-194.015 655.986,-187.378"/>
</g>
<!-- Node26&#45;&gt;Node15 -->
<g id="edge39" class="edge"><title>Node26&#45;&gt;Node15</title>
<path fill="none" stroke="midnightblue" d="M766.379,-224.324C752.051,-215.822 729.987,-202.729 713.251,-192.797"/>
<polygon fill="midnightblue" stroke="midnightblue" points="714.97,-189.748 704.584,-187.655 711.398,-195.768 714.97,-189.748"/>
</g>
<!-- Node26&#45;&gt;Node17 -->
<g id="edge40" class="edge"><title>Node26&#45;&gt;Node17</title>
<path fill="none" stroke="midnightblue" d="M776.707,-224.083C773.148,-216.691 767.978,-205.953 763.576,-196.811"/>
<polygon fill="midnightblue" stroke="midnightblue" points="766.705,-195.243 759.213,-187.751 760.398,-198.279 766.705,-195.243"/>
</g>
<!-- Node26&#45;&gt;Node21 -->
<g id="edge46" class="edge"><title>Node26&#45;&gt;Node21</title>
<path fill="none" stroke="midnightblue" d="M700.418,-225.219C617.31,-217.018 483.676,-203.343 358.829,-188.194"/>
<polygon fill="midnightblue" stroke="midnightblue" points="359.056,-184.696 348.706,-186.96 358.209,-191.644 359.056,-184.696"/>
</g>
<!-- Node26&#45;&gt;Node22 -->
<g id="edge37" class="edge"><title>Node26&#45;&gt;Node22</title>
<path fill="none" stroke="midnightblue" d="M785.452,-224.159C791.711,-210.33 800.885,-183.557 787,-168 775.051,-154.613 521.795,-133.276 427.214,-125.743"/>
<polygon fill="midnightblue" stroke="midnightblue" points="427.253,-122.235 417.008,-124.934 426.701,-129.213 427.253,-122.235"/>
</g>
<!-- Node27 -->
<g id="node27" class="node"><title>Node27</title>
<g id="a_node27"><a xlink:href="RaEngine_8hpp.html" target="_top" xlink:title="Engine/RaEngine.hpp">
<polygon fill="white" stroke="black" points="1293.5,-112.5 1293.5,-131.5 1410.5,-131.5 1410.5,-112.5 1293.5,-112.5"/>
<text text-anchor="middle" x="1352" y="-119.5" font-family="Helvetica,sans-Serif" font-size="10.00">Engine/RaEngine.hpp</text>
</a>
</g>
</g>
<!-- Node26&#45;&gt;Node27 -->
<g id="edge34" class="edge"><title>Node26&#45;&gt;Node27</title>
<path fill="none" stroke="midnightblue" d="M861.612,-229.923C999.737,-224.092 1270.48,-210.009 1308,-188 1325.95,-177.469 1338.15,-156.364 1345.06,-141.052"/>
<polygon fill="midnightblue" stroke="midnightblue" points="1348.4,-142.155 1349.01,-131.579 1341.93,-139.461 1348.4,-142.155"/>
</g>
<!-- Node28 -->
<g id="node28" class="node"><title>Node28</title>
<polygon fill="white" stroke="#bfbfbf" points="1023.5,-168.5 1023.5,-187.5 1064.5,-187.5 1064.5,-168.5 1023.5,-168.5"/>
<text text-anchor="middle" x="1044" y="-175.5" font-family="Helvetica,sans-Serif" font-size="10.00">array</text>
</g>
<!-- Node26&#45;&gt;Node28 -->
<g id="edge36" class="edge"><title>Node26&#45;&gt;Node28</title>
<path fill="none" stroke="midnightblue" d="M833.149,-224.477C878.363,-216.738 945.711,-204.377 1013.43,-187.928"/>
<polygon fill="midnightblue" stroke="midnightblue" points="1014.54,-191.258 1023.42,-185.472 1012.87,-184.461 1014.54,-191.258"/>
</g>
<!-- Node29 -->
<g id="node29" class="node"><title>Node29</title>
<g id="a_node29"><a xlink:href="Types_8hpp.html" target="_top" xlink:title="Core/Math/Types.hpp">
<polygon fill="white" stroke="black" points="1183,-168.5 1183,-187.5 1299,-187.5 1299,-168.5 1183,-168.5"/>
<text text-anchor="middle" x="1241" y="-175.5" font-family="Helvetica,sans-Serif" font-size="10.00">Core/Math/Types.hpp</text>
</a>
</g>
</g>
<!-- Node26&#45;&gt;Node29 -->
<g id="edge41" class="edge"><title>Node26&#45;&gt;Node29</title>
<path fill="none" stroke="midnightblue" d="M853.635,-224.473C941.217,-214.192 1087.29,-197.045 1172.82,-187.003"/>
<polygon fill="midnightblue" stroke="midnightblue" points="1173.42,-190.457 1182.95,-185.815 1172.61,-183.505 1173.42,-190.457"/>
</g>
<!-- Node33 -->
<g id="node33" class="node"><title>Node33</title>
<g id="a_node33"><a xlink:href="EventEnums_8hpp.html" target="_top" xlink:title="GuiBase/Event/EventEnums.hpp">
<polygon fill="white" stroke="black" points="835,-168.5 835,-187.5 1005,-187.5 1005,-168.5 835,-168.5"/>
<text text-anchor="middle" x="920" y="-175.5" font-family="Helvetica,sans-Serif" font-size="10.00">GuiBase/Event/EventEnums.hpp</text>
</a>
</g>
</g>
<!-- Node26&#45;&gt;Node33 -->
<g id="edge47" class="edge"><title>Node26&#45;&gt;Node33</title>
<path fill="none" stroke="midnightblue" d="M803.025,-224.444C826.104,-215.478 862.562,-201.314 888.641,-191.183"/>
<polygon fill="midnightblue" stroke="midnightblue" points="890.024,-194.4 898.078,-187.516 887.489,-187.875 890.024,-194.4"/>
</g>
<!-- Node27&#45;&gt;Node3 -->
<g id="edge35" class="edge"><title>Node27&#45;&gt;Node3</title>
<path fill="none" stroke="midnightblue" d="M1293.43,-112.97C1290.24,-112.62 1287.08,-112.294 1284,-112 1026.42,-87.471 719.077,-74.3523 583.351,-69.3794"/>
<polygon fill="midnightblue" stroke="midnightblue" points="583.217,-65.8723 573.097,-69.0073 582.963,-72.8677 583.217,-65.8723"/>
</g>
<!-- Node29&#45;&gt;Node11 -->
<g id="edge42" class="edge"><title>Node29&#45;&gt;Node11</title>
<path fill="none" stroke="midnightblue" d="M1182.87,-169.479C1178.18,-168.95 1173.51,-168.449 1169,-168 968.908,-148.078 730.841,-132.876 622.264,-126.409"/>
<polygon fill="midnightblue" stroke="midnightblue" points="622.356,-122.909 612.166,-125.811 621.942,-129.897 622.356,-122.909"/>
</g>
<!-- Node30 -->
<g id="node30" class="node"><title>Node30</title>
<polygon fill="white" stroke="#bfbfbf" points="1207,-112.5 1207,-131.5 1275,-131.5 1275,-112.5 1207,-112.5"/>
<text text-anchor="middle" x="1241" y="-119.5" font-family="Helvetica,sans-Serif" font-size="10.00">Eigen/Core</text>
</g>
<!-- Node29&#45;&gt;Node30 -->
<g id="edge43" class="edge"><title>Node29&#45;&gt;Node30</title>
<path fill="none" stroke="midnightblue" d="M1241,-168.083C1241,-161.006 1241,-150.861 1241,-141.986"/>
<polygon fill="midnightblue" stroke="midnightblue" points="1244.5,-141.751 1241,-131.751 1237.5,-141.751 1244.5,-141.751"/>
</g>
<!-- Node31 -->
<g id="node31" class="node"><title>Node31</title>
<polygon fill="white" stroke="#bfbfbf" points="997,-112.5 997,-131.5 1091,-131.5 1091,-112.5 997,-112.5"/>
<text text-anchor="middle" x="1044" y="-119.5" font-family="Helvetica,sans-Serif" font-size="10.00">Eigen/Geometry</text>
</g>
<!-- Node29&#45;&gt;Node31 -->
<g id="edge44" class="edge"><title>Node29&#45;&gt;Node31</title>
<path fill="none" stroke="midnightblue" d="M1209.78,-168.444C1176.07,-159.201 1122.2,-144.436 1085.07,-134.257"/>
<polygon fill="midnightblue" stroke="midnightblue" points="1085.64,-130.785 1075.07,-131.516 1083.79,-137.536 1085.64,-130.785"/>
</g>
<!-- Node32 -->
<g id="node32" class="node"><title>Node32</title>
<polygon fill="white" stroke="#bfbfbf" points="1109,-112.5 1109,-131.5 1189,-131.5 1189,-112.5 1109,-112.5"/>
<text text-anchor="middle" x="1149" y="-119.5" font-family="Helvetica,sans-Serif" font-size="10.00">Eigen/Sparse</text>
</g>
<!-- Node29&#45;&gt;Node32 -->
<g id="edge45" class="edge"><title>Node29&#45;&gt;Node32</title>
<path fill="none" stroke="midnightblue" d="M1226.22,-168.324C1211.73,-159.822 1189.43,-146.729 1172.51,-136.797"/>
<polygon fill="midnightblue" stroke="midnightblue" points="1174.14,-133.698 1163.74,-131.655 1170.6,-139.735 1174.14,-133.698"/>
</g>
</g>
</svg>
