<?xml version="1.0" encoding="UTF-8" standalone="no"?>
<!DOCTYPE svg PUBLIC "-//W3C//DTD SVG 1.1//EN"
 "http://www.w3.org/Graphics/SVG/1.1/DTD/svg11.dtd">
<!-- Generated by graphviz version 2.38.0 (20140413.2041)
 -->
<!-- Title: /home/travis/build/STORM&#45;IRIT/Radium&#45;Engine/src/Core/Containers/Grid.hpp Pages: 1 -->
<svg width="554pt" height="206pt"
 viewBox="0.00 0.00 554.00 206.00" xmlns="http://www.w3.org/2000/svg" xmlns:xlink="http://www.w3.org/1999/xlink">
<g id="graph0" class="graph" transform="scale(1 1) rotate(0) translate(4 202)">
<title>/home/travis/build/STORM&#45;IRIT/Radium&#45;Engine/src/Core/Containers/Grid.hpp</title>
<polygon fill="white" stroke="none" points="-4,4 -4,-202 550,-202 550,4 -4,4"/>
<!-- Node1 -->
<g id="node1" class="node"><title>Node1</title>
<polygon fill="#bfbfbf" stroke="black" points="81,-156.5 81,-197.5 239,-197.5 239,-156.5 81,-156.5"/>
<text text-anchor="start" x="89" y="-185.5" font-family="Helvetica,sans-Serif" font-size="10.00">/home/travis/build</text>
<text text-anchor="start" x="89" y="-174.5" font-family="Helvetica,sans-Serif" font-size="10.00">/STORM&#45;IRIT/Radium&#45;Engine</text>
<text text-anchor="middle" x="160" y="-163.5" font-family="Helvetica,sans-Serif" font-size="10.00">/src/Core/Containers/Grid.hpp</text>
</g>
<!-- Node2 -->
<g id="node2" class="node"><title>Node2</title>
<g id="a_node2"><a xlink:href="Grid_8inl.html" target="_top" xlink:title="/home/travis/build\l/STORM&#45;IRIT/Radium&#45;Engine\l/src/Core/Containers/Grid.inl">
<polygon fill="white" stroke="black" points="-1.42109e-14,-78.5 -1.42109e-14,-119.5 150,-119.5 150,-78.5 -1.42109e-14,-78.5"/>
<text text-anchor="start" x="8" y="-107.5" font-family="Helvetica,sans-Serif" font-size="10.00">/home/travis/build</text>
<text text-anchor="start" x="8" y="-96.5" font-family="Helvetica,sans-Serif" font-size="10.00">/STORM&#45;IRIT/Radium&#45;Engine</text>
<text text-anchor="middle" x="75" y="-85.5" font-family="Helvetica,sans-Serif" font-size="10.00">/src/Core/Containers/Grid.inl</text>
</a>
</g>
</g>
<!-- Node1&#45;&gt;Node2 -->
<g id="edge1" class="edge"><title>Node1&#45;&gt;Node2</title>
<path fill="none" stroke="midnightblue" d="M124.22,-149.779C112.592,-139.843 100.304,-128.716 90.8332,-119.506"/>
<polygon fill="midnightblue" stroke="midnightblue" points="122.217,-152.667 132.122,-156.428 126.724,-147.311 122.217,-152.667"/>
</g>
<!-- Node3 -->
<g id="node3" class="node"><title>Node3</title>
<g id="a_node3"><a xlink:href="Tex_8hpp.html" target="_top" xlink:title="/home/travis/build\l/STORM&#45;IRIT/Radium&#45;Engine\l/src/Core/Containers/Tex.hpp">
<polygon fill="white" stroke="black" points="168.5,-78.5 168.5,-119.5 321.5,-119.5 321.5,-78.5 168.5,-78.5"/>
<text text-anchor="start" x="176.5" y="-107.5" font-family="Helvetica,sans-Serif" font-size="10.00">/home/travis/build</text>
<text text-anchor="start" x="176.5" y="-96.5" font-family="Helvetica,sans-Serif" font-size="10.00">/STORM&#45;IRIT/Radium&#45;Engine</text>
<text text-anchor="middle" x="245" y="-85.5" font-family="Helvetica,sans-Serif" font-size="10.00">/src/Core/Containers/Tex.hpp</text>
</a>
</g>
</g>
<!-- Node1&#45;&gt;Node3 -->
<g id="edge3" class="edge"><title>Node1&#45;&gt;Node3</title>
<path fill="none" stroke="midnightblue" d="M189.648,-149.492C200.678,-139.629 212.983,-128.627 223.185,-119.506"/>
<polygon fill="midnightblue" stroke="midnightblue" points="187.011,-147.154 181.89,-156.428 191.677,-152.372 187.011,-147.154"/>
</g>
<!-- Node5 -->
<g id="node5" class="node"><title>Node5</title>
<g id="a_node5"><a xlink:href="MeshPrimitives_8cpp.html" target="_top" xlink:title="/home/travis/build\l/STORM&#45;IRIT/Radium&#45;Engine\l/src/Core/Geometry/MeshPrimitives.cpp">
<polygon fill="white" stroke="black" points="340,-78.5 340,-119.5 546,-119.5 546,-78.5 340,-78.5"/>
<text text-anchor="start" x="348" y="-107.5" font-family="Helvetica,sans-Serif" font-size="10.00">/home/travis/build</text>
<text text-anchor="start" x="348" y="-96.5" font-family="Helvetica,sans-Serif" font-size="10.00">/STORM&#45;IRIT/Radium&#45;Engine</text>
<text text-anchor="middle" x="443" y="-85.5" font-family="Helvetica,sans-Serif" font-size="10.00">/src/Core/Geometry/MeshPrimitives.cpp</text>
</a>
</g>
</g>
<!-- Node1&#45;&gt;Node5 -->
<g id="edge6" class="edge"><title>Node1&#45;&gt;Node5</title>
<path fill="none" stroke="midnightblue" d="M242.713,-153.787C283.148,-142.929 331.372,-129.978 370.367,-119.506"/>
<polygon fill="midnightblue" stroke="midnightblue" points="241.63,-150.454 232.88,-156.428 243.445,-157.215 241.63,-150.454"/>
</g>
<!-- Node2&#45;&gt;Node1 -->
<g id="edge2" class="edge"><title>Node2&#45;&gt;Node1</title>
<path fill="none" stroke="midnightblue" d="M110.696,-126.15C122.321,-136.08 134.614,-147.209 144.099,-156.428"/>
<polygon fill="midnightblue" stroke="midnightblue" points="112.703,-123.265 102.798,-119.506 108.197,-128.621 112.703,-123.265"/>
</g>
<!-- Node4 -->
<g id="node4" class="node"><title>Node4</title>
<g id="a_node4"><a xlink:href="Tex_8inl.html" target="_top" xlink:title="/home/travis/build\l/STORM&#45;IRIT/Radium&#45;Engine\l/src/Core/Containers/Tex.inl">
<polygon fill="white" stroke="black" points="171,-0.5 171,-41.5 319,-41.5 319,-0.5 171,-0.5"/>
<text text-anchor="start" x="179" y="-29.5" font-family="Helvetica,sans-Serif" font-size="10.00">/home/travis/build</text>
<text text-anchor="start" x="179" y="-18.5" font-family="Helvetica,sans-Serif" font-size="10.00">/STORM&#45;IRIT/Radium&#45;Engine</text>
<text text-anchor="middle" x="245" y="-7.5" font-family="Helvetica,sans-Serif" font-size="10.00">/src/Core/Containers/Tex.inl</text>
</a>
</g>
</g>
<!-- Node3&#45;&gt;Node4 -->
<g id="edge4" class="edge"><title>Node3&#45;&gt;Node4</title>
<path fill="none" stroke="midnightblue" d="M238.395,-68.2965C238.076,-59.3009 238.283,-49.6532 239.018,-41.5056"/>
<polygon fill="midnightblue" stroke="midnightblue" points="234.911,-68.6593 239.012,-78.4281 241.898,-68.2339 234.911,-68.6593"/>
</g>
<!-- Node4&#45;&gt;Node3 -->
<g id="edge5" class="edge"><title>Node4&#45;&gt;Node3</title>
<path fill="none" stroke="midnightblue" d="M251.602,-51.6303C251.924,-60.6224 251.72,-70.2724 250.988,-78.4281"/>
<polygon fill="midnightblue" stroke="midnightblue" points="255.087,-51.2729 250.982,-41.5056 248.1,-51.7008 255.087,-51.2729"/>
</g>
</g>
</svg>
