<?xml version="1.0" encoding="UTF-8" standalone="no"?>
<!DOCTYPE svg PUBLIC "-//W3C//DTD SVG 1.1//EN"
 "http://www.w3.org/Graphics/SVG/1.1/DTD/svg11.dtd">
<!-- Generated by graphviz version 2.38.0 (20140413.2041)
 -->
<!-- Title: /home/travis/build/STORM&#45;IRIT/Radium&#45;Engine/src/Core/Asset/HandleData.hpp Pages: 1 -->
<svg width="3256pt" height="395pt"
 viewBox="0.00 0.00 3255.50 395.00" xmlns="http://www.w3.org/2000/svg" xmlns:xlink="http://www.w3.org/1999/xlink">
<g id="graph0" class="graph" transform="scale(1 1) rotate(0) translate(4 391)">
<title>/home/travis/build/STORM&#45;IRIT/Radium&#45;Engine/src/Core/Asset/HandleData.hpp</title>
<polygon fill="white" stroke="none" points="-4,4 -4,-391 3251.5,-391 3251.5,4 -4,4"/>
<!-- Node1 -->
<g id="node1" class="node"><title>Node1</title>
<polygon fill="#bfbfbf" stroke="black" points="2140.5,-345.5 2140.5,-386.5 2310.5,-386.5 2310.5,-345.5 2140.5,-345.5"/>
<text text-anchor="start" x="2148.5" y="-374.5" font-family="Helvetica,sans-Serif" font-size="10.00">/home/travis/build</text>
<text text-anchor="start" x="2148.5" y="-363.5" font-family="Helvetica,sans-Serif" font-size="10.00">/STORM&#45;IRIT/Radium&#45;Engine</text>
<text text-anchor="middle" x="2225.5" y="-352.5" font-family="Helvetica,sans-Serif" font-size="10.00">/src/Core/Asset/HandleData.hpp</text>
</g>
<!-- Node2 -->
<g id="node2" class="node"><title>Node2</title>
<g id="a_node2"><a xlink:href="FileData_8inl.html" target="_top" xlink:title="/home/travis/build\l/STORM&#45;IRIT/Radium&#45;Engine\l/src/Core/Asset/FileData.inl">
<polygon fill="white" stroke="black" points="1508.5,-262 1508.5,-303 1656.5,-303 1656.5,-262 1508.5,-262"/>
<text text-anchor="start" x="1516.5" y="-291" font-family="Helvetica,sans-Serif" font-size="10.00">/home/travis/build</text>
<text text-anchor="start" x="1516.5" y="-280" font-family="Helvetica,sans-Serif" font-size="10.00">/STORM&#45;IRIT/Radium&#45;Engine</text>
<text text-anchor="middle" x="1582.5" y="-269" font-family="Helvetica,sans-Serif" font-size="10.00">/src/Core/Asset/FileData.inl</text>
</a>
</g>
</g>
<!-- Node1&#45;&gt;Node2 -->
<g id="edge1" class="edge"><title>Node1&#45;&gt;Node2</title>
<path fill="none" stroke="midnightblue" d="M2130,-358.529C2022.97,-350.451 1844.51,-334.505 1692.5,-309 1680.8,-307.037 1668.49,-304.578 1656.51,-301.967"/>
<polygon fill="midnightblue" stroke="midnightblue" points="2129.9,-362.031 2140.14,-359.286 2130.42,-355.05 2129.9,-362.031"/>
</g>
<!-- Node17 -->
<g id="node17" class="node"><title>Node17</title>
<g id="a_node17"><a xlink:href="SkinningSystem_8hpp.html" target="_top" xlink:title="/home/travis/build\l/STORM&#45;IRIT/Radium&#45;Engine\l/Plugins/Skinning/src/SkinningSystem.hpp">
<polygon fill="white" stroke="black" points="2466,-84 2466,-125 2681,-125 2681,-84 2466,-84"/>
<text text-anchor="start" x="2474" y="-113" font-family="Helvetica,sans-Serif" font-size="10.00">/home/travis/build</text>
<text text-anchor="start" x="2474" y="-102" font-family="Helvetica,sans-Serif" font-size="10.00">/STORM&#45;IRIT/Radium&#45;Engine</text>
<text text-anchor="middle" x="2573.5" y="-91" font-family="Helvetica,sans-Serif" font-size="10.00">/Plugins/Skinning/src/SkinningSystem.hpp</text>
</a>
</g>
</g>
<!-- Node1&#45;&gt;Node17 -->
<g id="edge33" class="edge"><title>Node1&#45;&gt;Node17</title>
<path fill="none" stroke="midnightblue" d="M2321.01,-361.387C2462.21,-355.049 2713.05,-339.593 2740.5,-309 2799.1,-243.683 2675.86,-161.873 2610.58,-125.05"/>
<polygon fill="midnightblue" stroke="midnightblue" points="2320.45,-357.908 2310.62,-361.845 2320.76,-364.901 2320.45,-357.908"/>
</g>
<!-- Node19 -->
<g id="node19" class="node"><title>Node19</title>
<g id="a_node19"><a xlink:href="HandleData_8cpp.html" target="_top" xlink:title="/home/travis/build\l/STORM&#45;IRIT/Radium&#45;Engine\l/src/Core/Asset/HandleData.cpp">
<polygon fill="white" stroke="black" points="1955.5,-262 1955.5,-303 2125.5,-303 2125.5,-262 1955.5,-262"/>
<text text-anchor="start" x="1963.5" y="-291" font-family="Helvetica,sans-Serif" font-size="10.00">/home/travis/build</text>
<text text-anchor="start" x="1963.5" y="-280" font-family="Helvetica,sans-Serif" font-size="10.00">/STORM&#45;IRIT/Radium&#45;Engine</text>
<text text-anchor="middle" x="2040.5" y="-269" font-family="Helvetica,sans-Serif" font-size="10.00">/src/Core/Asset/HandleData.cpp</text>
</a>
</g>
</g>
<!-- Node1&#45;&gt;Node19 -->
<g id="edge18" class="edge"><title>Node1&#45;&gt;Node19</title>
<path fill="none" stroke="midnightblue" d="M2171.68,-341.29C2144.08,-329.129 2110.87,-314.5 2084.77,-303.003"/>
<polygon fill="midnightblue" stroke="midnightblue" points="2170.63,-344.65 2181.19,-345.479 2173.45,-338.244 2170.63,-344.65"/>
</g>
<!-- Node20 -->
<g id="node20" class="node"><title>Node20</title>
<g id="a_node20"><a xlink:href="HandleData_8inl.html" target="_top" xlink:title="/home/travis/build\l/STORM&#45;IRIT/Radium&#45;Engine\l/src/Core/Asset/HandleData.inl">
<polygon fill="white" stroke="black" points="2144,-262 2144,-303 2307,-303 2307,-262 2144,-262"/>
<text text-anchor="start" x="2152" y="-291" font-family="Helvetica,sans-Serif" font-size="10.00">/home/travis/build</text>
<text text-anchor="start" x="2152" y="-280" font-family="Helvetica,sans-Serif" font-size="10.00">/STORM&#45;IRIT/Radium&#45;Engine</text>
<text text-anchor="middle" x="2225.5" y="-269" font-family="Helvetica,sans-Serif" font-size="10.00">/src/Core/Asset/HandleData.inl</text>
</a>
</g>
</g>
<!-- Node1&#45;&gt;Node20 -->
<g id="edge19" class="edge"><title>Node1&#45;&gt;Node20</title>
<path fill="none" stroke="midnightblue" d="M2218.97,-335.065C2218.53,-324.382 2218.75,-312.63 2219.64,-303.047"/>
<polygon fill="midnightblue" stroke="midnightblue" points="2215.49,-335.516 2219.62,-345.271 2222.47,-335.067 2215.49,-335.516"/>
</g>
<!-- Node21 -->
<g id="node21" class="node"><title>Node21</title>
<g id="a_node21"><a xlink:href="HandleToSkeleton_8cpp.html" target="_top" xlink:title="/home/travis/build\l/STORM&#45;IRIT/Radium&#45;Engine\l/src/Core/Asset/HandleToSkeleton.cpp">
<polygon fill="white" stroke="black" points="2325.5,-262 2325.5,-303 2523.5,-303 2523.5,-262 2325.5,-262"/>
<text text-anchor="start" x="2333.5" y="-291" font-family="Helvetica,sans-Serif" font-size="10.00">/home/travis/build</text>
<text text-anchor="start" x="2333.5" y="-280" font-family="Helvetica,sans-Serif" font-size="10.00">/STORM&#45;IRIT/Radium&#45;Engine</text>
<text text-anchor="middle" x="2424.5" y="-269" font-family="Helvetica,sans-Serif" font-size="10.00">/src/Core/Asset/HandleToSkeleton.cpp</text>
</a>
</g>
</g>
<!-- Node1&#45;&gt;Node21 -->
<g id="edge21" class="edge"><title>Node1&#45;&gt;Node21</title>
<path fill="none" stroke="midnightblue" d="M2282.62,-341.608C2312.46,-329.385 2348.56,-314.6 2376.88,-303.003"/>
<polygon fill="midnightblue" stroke="midnightblue" points="2281.09,-338.45 2273.17,-345.479 2283.75,-344.928 2281.09,-338.45"/>
</g>
<!-- Node22 -->
<g id="node22" class="node"><title>Node22</title>
<g id="a_node22"><a xlink:href="AssimpHandleDataLoader_8cpp.html" target="_top" xlink:title="/home/travis/build\l/STORM&#45;IRIT/Radium&#45;Engine\l/src/IO/AssimpLoader/AssimpHandle\lDataLoader.cpp">
<polygon fill="white" stroke="black" points="2541.5,-256.5 2541.5,-308.5 2731.5,-308.5 2731.5,-256.5 2541.5,-256.5"/>
<text text-anchor="start" x="2549.5" y="-296.5" font-family="Helvetica,sans-Serif" font-size="10.00">/home/travis/build</text>
<text text-anchor="start" x="2549.5" y="-285.5" font-family="Helvetica,sans-Serif" font-size="10.00">/STORM&#45;IRIT/Radium&#45;Engine</text>
<text text-anchor="start" x="2549.5" y="-274.5" font-family="Helvetica,sans-Serif" font-size="10.00">/src/IO/AssimpLoader/AssimpHandle</text>
<text text-anchor="middle" x="2636.5" y="-263.5" font-family="Helvetica,sans-Serif" font-size="10.00">DataLoader.cpp</text>
</a>
</g>
</g>
<!-- Node1&#45;&gt;Node22 -->
<g id="edge22" class="edge"><title>Node1&#45;&gt;Node22</title>
<path fill="none" stroke="midnightblue" d="M2320.76,-349.141C2381.53,-338.651 2461.86,-324.089 2532.5,-309 2535.41,-308.379 2538.36,-307.735 2541.34,-307.075"/>
<polygon fill="midnightblue" stroke="midnightblue" points="2320.06,-345.71 2310.8,-350.855 2321.25,-352.609 2320.06,-345.71"/>
</g>
<!-- Node23 -->
<g id="node23" class="node"><title>Node23</title>
<g id="a_node23"><a xlink:href="AnimationComponent_8hpp.html" target="_top" xlink:title="/home/travis/build\l/STORM&#45;IRIT/Radium&#45;Engine\l/Plugins/Animation/src/Animation\lComponent.hpp">
<polygon fill="white" stroke="black" points="2827.5,-256.5 2827.5,-308.5 3001.5,-308.5 3001.5,-256.5 2827.5,-256.5"/>
<text text-anchor="start" x="2835.5" y="-296.5" font-family="Helvetica,sans-Serif" font-size="10.00">/home/travis/build</text>
<text text-anchor="start" x="2835.5" y="-285.5" font-family="Helvetica,sans-Serif" font-size="10.00">/STORM&#45;IRIT/Radium&#45;Engine</text>
<text text-anchor="start" x="2835.5" y="-274.5" font-family="Helvetica,sans-Serif" font-size="10.00">/Plugins/Animation/src/Animation</text>
<text text-anchor="middle" x="2914.5" y="-263.5" font-family="Helvetica,sans-Serif" font-size="10.00">Component.hpp</text>
</a>
</g>
</g>
<!-- Node1&#45;&gt;Node23 -->
<g id="edge23" class="edge"><title>Node1&#45;&gt;Node23</title>
<path fill="none" stroke="midnightblue" d="M2320.74,-357.509C2430.26,-348.376 2615.33,-331.351 2773.5,-309 2790.99,-306.529 2809.62,-303.467 2827.42,-300.332"/>
<polygon fill="midnightblue" stroke="midnightblue" points="2320.38,-354.027 2310.71,-358.341 2320.96,-361.003 2320.38,-354.027"/>
</g>
<!-- Node27 -->
<g id="node27" class="node"><title>Node27</title>
<g id="a_node27"><a xlink:href="SkinningComponent_8hpp.html" target="_top" xlink:title="/home/travis/build\l/STORM&#45;IRIT/Radium&#45;Engine\l/Plugins/Skinning/src/SkinningComponent.hpp">
<polygon fill="white" stroke="black" points="1702,-262 1702,-303 1937,-303 1937,-262 1702,-262"/>
<text text-anchor="start" x="1710" y="-291" font-family="Helvetica,sans-Serif" font-size="10.00">/home/travis/build</text>
<text text-anchor="start" x="1710" y="-280" font-family="Helvetica,sans-Serif" font-size="10.00">/STORM&#45;IRIT/Radium&#45;Engine</text>
<text text-anchor="middle" x="1819.5" y="-269" font-family="Helvetica,sans-Serif" font-size="10.00">/Plugins/Skinning/src/SkinningComponent.hpp</text>
</a>
</g>
</g>
<!-- Node1&#45;&gt;Node27 -->
<g id="edge30" class="edge"><title>Node1&#45;&gt;Node27</title>
<path fill="none" stroke="midnightblue" d="M2130.27,-345.883C2066.08,-332.997 1981.64,-316.047 1916.98,-303.068"/>
<polygon fill="midnightblue" stroke="midnightblue" points="2129.9,-349.378 2140.39,-347.915 2131.27,-342.515 2129.9,-349.378"/>
</g>
<!-- Node3 -->
<g id="node3" class="node"><title>Node3</title>
<g id="a_node3"><a xlink:href="FileData_8hpp.html" target="_top" xlink:title="/home/travis/build\l/STORM&#45;IRIT/Radium&#45;Engine\l/src/Core/Asset/FileData.hpp">
<polygon fill="white" stroke="black" points="1491.5,-173 1491.5,-214 1643.5,-214 1643.5,-173 1491.5,-173"/>
<text text-anchor="start" x="1499.5" y="-202" font-family="Helvetica,sans-Serif" font-size="10.00">/home/travis/build</text>
<text text-anchor="start" x="1499.5" y="-191" font-family="Helvetica,sans-Serif" font-size="10.00">/STORM&#45;IRIT/Radium&#45;Engine</text>
<text text-anchor="middle" x="1567.5" y="-180" font-family="Helvetica,sans-Serif" font-size="10.00">/src/Core/Asset/FileData.hpp</text>
</a>
</g>
</g>
<!-- Node2&#45;&gt;Node3 -->
<g id="edge2" class="edge"><title>Node2&#45;&gt;Node3</title>
<path fill="none" stroke="midnightblue" d="M1577.38,-251.814C1575.24,-239.383 1572.81,-225.273 1570.89,-214.164"/>
<polygon fill="midnightblue" stroke="midnightblue" points="1573.95,-252.498 1579.1,-261.758 1580.85,-251.309 1573.95,-252.498"/>
</g>
<!-- Node4 -->
<g id="node4" class="node"><title>Node4</title>
<g id="a_node4"><a xlink:href="FileData_8cpp.html" target="_top" xlink:title="/home/travis/build\l/STORM&#45;IRIT/Radium&#45;Engine\l/src/Core/Asset/FileData.cpp">
<polygon fill="white" stroke="black" points="0,-84 0,-125 151,-125 151,-84 0,-84"/>
<text text-anchor="start" x="8" y="-113" font-family="Helvetica,sans-Serif" font-size="10.00">/home/travis/build</text>
<text text-anchor="start" x="8" y="-102" font-family="Helvetica,sans-Serif" font-size="10.00">/STORM&#45;IRIT/Radium&#45;Engine</text>
<text text-anchor="middle" x="75.5" y="-91" font-family="Helvetica,sans-Serif" font-size="10.00">/src/Core/Asset/FileData.cpp</text>
</a>
</g>
</g>
<!-- Node3&#45;&gt;Node4 -->
<g id="edge3" class="edge"><title>Node3&#45;&gt;Node4</title>
<path fill="none" stroke="midnightblue" d="M1480.83,-191.519C1215.42,-188.073 416.392,-174.286 160.5,-131 151.841,-129.535 142.824,-127.459 134.038,-125.115"/>
<polygon fill="midnightblue" stroke="midnightblue" points="1481.13,-195.023 1491.18,-191.652 1481.22,-188.024 1481.13,-195.023"/>
</g>
<!-- Node5 -->
<g id="node5" class="node"><title>Node5</title>
<g id="a_node5"><a xlink:href="GeometryComponent_8cpp.html" target="_top" xlink:title="/home/travis/build\l/STORM&#45;IRIT/Radium&#45;Engine\l/src/Engine/Component/GeometryComponent.cpp">
<polygon fill="white" stroke="black" points="169.5,-84 169.5,-125 425.5,-125 425.5,-84 169.5,-84"/>
<text text-anchor="start" x="177.5" y="-113" font-family="Helvetica,sans-Serif" font-size="10.00">/home/travis/build</text>
<text text-anchor="start" x="177.5" y="-102" font-family="Helvetica,sans-Serif" font-size="10.00">/STORM&#45;IRIT/Radium&#45;Engine</text>
<text text-anchor="middle" x="297.5" y="-91" font-family="Helvetica,sans-Serif" font-size="10.00">/src/Engine/Component/GeometryComponent.cpp</text>
</a>
</g>
</g>
<!-- Node3&#45;&gt;Node5 -->
<g id="edge4" class="edge"><title>Node3&#45;&gt;Node5</title>
<path fill="none" stroke="midnightblue" d="M1481.09,-191.628C1291.14,-188.877 823.184,-177.523 434.5,-131 421.288,-129.419 407.429,-127.34 393.812,-125.05"/>
<polygon fill="midnightblue" stroke="midnightblue" points="1481.24,-195.131 1491.29,-191.772 1481.34,-188.131 1481.24,-195.131"/>
</g>
<!-- Node6 -->
<g id="node6" class="node"><title>Node6</title>
<g id="a_node6"><a xlink:href="CameraManager_8cpp.html" target="_top" xlink:title="/home/travis/build\l/STORM&#45;IRIT/Radium&#45;Engine\l/src/Engine/Managers/CameraManager\l/CameraManager.cpp">
<polygon fill="white" stroke="black" points="444,-78.5 444,-130.5 647,-130.5 647,-78.5 444,-78.5"/>
<text text-anchor="start" x="452" y="-118.5" font-family="Helvetica,sans-Serif" font-size="10.00">/home/travis/build</text>
<text text-anchor="start" x="452" y="-107.5" font-family="Helvetica,sans-Serif" font-size="10.00">/STORM&#45;IRIT/Radium&#45;Engine</text>
<text text-anchor="start" x="452" y="-96.5" font-family="Helvetica,sans-Serif" font-size="10.00">/src/Engine/Managers/CameraManager</text>
<text text-anchor="middle" x="545.5" y="-85.5" font-family="Helvetica,sans-Serif" font-size="10.00">/CameraManager.cpp</text>
</a>
</g>
</g>
<!-- Node3&#45;&gt;Node6 -->
<g id="edge5" class="edge"><title>Node3&#45;&gt;Node6</title>
<path fill="none" stroke="midnightblue" d="M1481.08,-191.216C1318.69,-187.797 957.262,-175.413 656.5,-131 653.37,-130.538 650.198,-130.034 647.001,-129.495"/>
<polygon fill="midnightblue" stroke="midnightblue" points="1481.41,-194.723 1491.48,-191.428 1481.56,-187.725 1481.41,-194.723"/>
</g>
<!-- Node7 -->
<g id="node7" class="node"><title>Node7</title>
<g id="a_node7"><a xlink:href="LightManager_8cpp.html" target="_top" xlink:title="/home/travis/build\l/STORM&#45;IRIT/Radium&#45;Engine\l/src/Engine/Managers/LightManager\l/LightManager.cpp">
<polygon fill="white" stroke="black" points="665.5,-78.5 665.5,-130.5 853.5,-130.5 853.5,-78.5 665.5,-78.5"/>
<text text-anchor="start" x="673.5" y="-118.5" font-family="Helvetica,sans-Serif" font-size="10.00">/home/travis/build</text>
<text text-anchor="start" x="673.5" y="-107.5" font-family="Helvetica,sans-Serif" font-size="10.00">/STORM&#45;IRIT/Radium&#45;Engine</text>
<text text-anchor="start" x="673.5" y="-96.5" font-family="Helvetica,sans-Serif" font-size="10.00">/src/Engine/Managers/LightManager</text>
<text text-anchor="middle" x="759.5" y="-85.5" font-family="Helvetica,sans-Serif" font-size="10.00">/LightManager.cpp</text>
</a>
</g>
</g>
<!-- Node3&#45;&gt;Node7 -->
<g id="edge6" class="edge"><title>Node3&#45;&gt;Node7</title>
<path fill="none" stroke="midnightblue" d="M1481.21,-189.302C1347.78,-183.383 1083.68,-167.795 862.5,-131 859.592,-130.516 856.646,-129.993 853.677,-129.438"/>
<polygon fill="midnightblue" stroke="midnightblue" points="1481.23,-192.805 1491.37,-189.745 1481.54,-185.812 1481.23,-192.805"/>
</g>
<!-- Node8 -->
<g id="node8" class="node"><title>Node8</title>
<g id="a_node8"><a xlink:href="RadiumEngine_8cpp.html" target="_top" xlink:title="/home/travis/build\l/STORM&#45;IRIT/Radium&#45;Engine\l/src/Engine/RadiumEngine.cpp">
<polygon fill="white" stroke="black" points="872,-84 872,-125 1033,-125 1033,-84 872,-84"/>
<text text-anchor="start" x="880" y="-113" font-family="Helvetica,sans-Serif" font-size="10.00">/home/travis/build</text>
<text text-anchor="start" x="880" y="-102" font-family="Helvetica,sans-Serif" font-size="10.00">/STORM&#45;IRIT/Radium&#45;Engine</text>
<text text-anchor="middle" x="952.5" y="-91" font-family="Helvetica,sans-Serif" font-size="10.00">/src/Engine/RadiumEngine.cpp</text>
</a>
</g>
</g>
<!-- Node3&#45;&gt;Node8 -->
<g id="edge7" class="edge"><title>Node3&#45;&gt;Node8</title>
<path fill="none" stroke="midnightblue" d="M1481.08,-186.624C1376.49,-178.538 1195.37,-161.408 1042.5,-131 1034.06,-129.321 1025.25,-127.244 1016.6,-125.006"/>
<polygon fill="midnightblue" stroke="midnightblue" points="1481.03,-190.13 1491.27,-187.402 1481.56,-183.151 1481.03,-190.13"/>
</g>
<!-- Node9 -->
<g id="node9" class="node"><title>Node9</title>
<g id="a_node9"><a xlink:href="Renderer_8cpp.html" target="_top" xlink:title="/home/travis/build\l/STORM&#45;IRIT/Radium&#45;Engine\l/src/Engine/Renderer/Renderer.cpp">
<polygon fill="white" stroke="black" points="1051.5,-84 1051.5,-125 1231.5,-125 1231.5,-84 1051.5,-84"/>
<text text-anchor="start" x="1059.5" y="-113" font-family="Helvetica,sans-Serif" font-size="10.00">/home/travis/build</text>
<text text-anchor="start" x="1059.5" y="-102" font-family="Helvetica,sans-Serif" font-size="10.00">/STORM&#45;IRIT/Radium&#45;Engine</text>
<text text-anchor="middle" x="1141.5" y="-91" font-family="Helvetica,sans-Serif" font-size="10.00">/src/Engine/Renderer/Renderer.cpp</text>
</a>
</g>
</g>
<!-- Node3&#45;&gt;Node9 -->
<g id="edge8" class="edge"><title>Node3&#45;&gt;Node9</title>
<path fill="none" stroke="midnightblue" d="M1481.26,-177.887C1415.14,-166.296 1321.75,-149.085 1240.5,-131 1232.27,-129.168 1223.69,-127.139 1215.16,-125.047"/>
<polygon fill="midnightblue" stroke="midnightblue" points="1480.77,-181.355 1491.22,-179.628 1481.98,-174.459 1480.77,-181.355"/>
</g>
<!-- Node10 -->
<g id="node10" class="node"><title>Node10</title>
<g id="a_node10"><a xlink:href="GeometrySystem_8cpp.html" target="_top" xlink:title="/home/travis/build\l/STORM&#45;IRIT/Radium&#45;Engine\l/src/Engine/System/GeometrySystem.cpp">
<polygon fill="white" stroke="black" points="1250,-84 1250,-125 1467,-125 1467,-84 1250,-84"/>
<text text-anchor="start" x="1258" y="-113" font-family="Helvetica,sans-Serif" font-size="10.00">/home/travis/build</text>
<text text-anchor="start" x="1258" y="-102" font-family="Helvetica,sans-Serif" font-size="10.00">/STORM&#45;IRIT/Radium&#45;Engine</text>
<text text-anchor="middle" x="1358.5" y="-91" font-family="Helvetica,sans-Serif" font-size="10.00">/src/Engine/System/GeometrySystem.cpp</text>
</a>
</g>
</g>
<!-- Node3&#45;&gt;Node10 -->
<g id="edge9" class="edge"><title>Node3&#45;&gt;Node10</title>
<path fill="none" stroke="midnightblue" d="M1511.08,-169.013C1478.07,-155.272 1436.87,-138.123 1405.61,-125.11"/>
<polygon fill="midnightblue" stroke="midnightblue" points="1510.02,-172.364 1520.6,-172.976 1512.71,-165.901 1510.02,-172.364"/>
</g>
<!-- Node11 -->
<g id="node11" class="node"><title>Node11</title>
<g id="a_node11"><a xlink:href="Viewer_8cpp.html" target="_top" xlink:title="/home/travis/build\l/STORM&#45;IRIT/Radium&#45;Engine\l/src/GuiBase/Viewer/Viewer.cpp">
<polygon fill="white" stroke="black" points="1485,-84 1485,-125 1650,-125 1650,-84 1485,-84"/>
<text text-anchor="start" x="1493" y="-113" font-family="Helvetica,sans-Serif" font-size="10.00">/home/travis/build</text>
<text text-anchor="start" x="1493" y="-102" font-family="Helvetica,sans-Serif" font-size="10.00">/STORM&#45;IRIT/Radium&#45;Engine</text>
<text text-anchor="middle" x="1567.5" y="-91" font-family="Helvetica,sans-Serif" font-size="10.00">/src/GuiBase/Viewer/Viewer.cpp</text>
</a>
</g>
</g>
<!-- Node3&#45;&gt;Node11 -->
<g id="edge10" class="edge"><title>Node3&#45;&gt;Node11</title>
<path fill="none" stroke="midnightblue" d="M1567.5,-162.441C1567.5,-150.101 1567.5,-136.162 1567.5,-125.164"/>
<polygon fill="midnightblue" stroke="midnightblue" points="1564,-162.758 1567.5,-172.758 1571,-162.758 1564,-162.758"/>
</g>
<!-- Node12 -->
<g id="node12" class="node"><title>Node12</title>
<g id="a_node12"><a xlink:href="AssimpFileLoader_8cpp.html" target="_top" xlink:title="/home/travis/build\l/STORM&#45;IRIT/Radium&#45;Engine\l/src/IO/AssimpLoader/AssimpFile\lLoader.cpp">
<polygon fill="white" stroke="black" points="1668,-78.5 1668,-130.5 1839,-130.5 1839,-78.5 1668,-78.5"/>
<text text-anchor="start" x="1676" y="-118.5" font-family="Helvetica,sans-Serif" font-size="10.00">/home/travis/build</text>
<text text-anchor="start" x="1676" y="-107.5" font-family="Helvetica,sans-Serif" font-size="10.00">/STORM&#45;IRIT/Radium&#45;Engine</text>
<text text-anchor="start" x="1676" y="-96.5" font-family="Helvetica,sans-Serif" font-size="10.00">/src/IO/AssimpLoader/AssimpFile</text>
<text text-anchor="middle" x="1753.5" y="-85.5" font-family="Helvetica,sans-Serif" font-size="10.00">Loader.cpp</text>
</a>
</g>
</g>
<!-- Node3&#45;&gt;Node12 -->
<g id="edge11" class="edge"><title>Node3&#45;&gt;Node12</title>
<path fill="none" stroke="midnightblue" d="M1618.31,-168.736C1643.61,-156.902 1674.19,-142.595 1699.87,-130.585"/>
<polygon fill="midnightblue" stroke="midnightblue" points="1616.82,-165.568 1609.24,-172.976 1619.78,-171.909 1616.82,-165.568"/>
</g>
<!-- Node13 -->
<g id="node13" class="node"><title>Node13</title>
<g id="a_node13"><a xlink:href="CameraLoader_8cpp.html" target="_top" xlink:title="/home/travis/build\l/STORM&#45;IRIT/Radium&#45;Engine\l/src/IO/CameraLoader/CameraLoader.cpp">
<polygon fill="white" stroke="black" points="1857,-84 1857,-125 2072,-125 2072,-84 1857,-84"/>
<text text-anchor="start" x="1865" y="-113" font-family="Helvetica,sans-Serif" font-size="10.00">/home/travis/build</text>
<text text-anchor="start" x="1865" y="-102" font-family="Helvetica,sans-Serif" font-size="10.00">/STORM&#45;IRIT/Radium&#45;Engine</text>
<text text-anchor="middle" x="1964.5" y="-91" font-family="Helvetica,sans-Serif" font-size="10.00">/src/IO/CameraLoader/CameraLoader.cpp</text>
</a>
</g>
</g>
<!-- Node3&#45;&gt;Node13 -->
<g id="edge12" class="edge"><title>Node3&#45;&gt;Node13</title>
<path fill="none" stroke="midnightblue" d="M1653.48,-173.658C1719.08,-159.282 1809.17,-139.54 1875.5,-125.003"/>
<polygon fill="midnightblue" stroke="midnightblue" points="1652.59,-170.269 1643.58,-175.828 1654.09,-177.107 1652.59,-170.269"/>
</g>
<!-- Node14 -->
<g id="node14" class="node"><title>Node14</title>
<g id="a_node14"><a xlink:href="TinyPlyFileLoader_8cpp.html" target="_top" xlink:title="/home/travis/build\l/STORM&#45;IRIT/Radium&#45;Engine\l/src/IO/TinyPlyLoader/TinyPlyFile\lLoader.cpp">
<polygon fill="white" stroke="black" points="2090,-78.5 2090,-130.5 2255,-130.5 2255,-78.5 2090,-78.5"/>
<text text-anchor="start" x="2098" y="-118.5" font-family="Helvetica,sans-Serif" font-size="10.00">/home/travis/build</text>
<text text-anchor="start" x="2098" y="-107.5" font-family="Helvetica,sans-Serif" font-size="10.00">/STORM&#45;IRIT/Radium&#45;Engine</text>
<text text-anchor="start" x="2098" y="-96.5" font-family="Helvetica,sans-Serif" font-size="10.00">/src/IO/TinyPlyLoader/TinyPlyFile</text>
<text text-anchor="middle" x="2172.5" y="-85.5" font-family="Helvetica,sans-Serif" font-size="10.00">Loader.cpp</text>
</a>
</g>
</g>
<!-- Node3&#45;&gt;Node14 -->
<g id="edge13" class="edge"><title>Node3&#45;&gt;Node14</title>
<path fill="none" stroke="midnightblue" d="M1653.66,-173.792C1666.96,-171.272 1680.57,-168.905 1693.5,-167 1864.4,-141.831 1910.6,-162.193 2080.5,-131 2083.6,-130.431 2086.74,-129.807 2089.91,-129.137"/>
<polygon fill="midnightblue" stroke="midnightblue" points="1652.72,-170.409 1643.56,-175.743 1654.04,-177.282 1652.72,-170.409"/>
</g>
<!-- Node15 -->
<g id="node15" class="node"><title>Node15</title>
<g id="a_node15"><a xlink:href="AnimationSystem_8cpp.html" target="_top" xlink:title="/home/travis/build\l/STORM&#45;IRIT/Radium&#45;Engine\l/Plugins/Animation/src/Animation\lSystem.cpp">
<polygon fill="white" stroke="black" points="2699.5,-78.5 2699.5,-130.5 2873.5,-130.5 2873.5,-78.5 2699.5,-78.5"/>
<text text-anchor="start" x="2707.5" y="-118.5" font-family="Helvetica,sans-Serif" font-size="10.00">/home/travis/build</text>
<text text-anchor="start" x="2707.5" y="-107.5" font-family="Helvetica,sans-Serif" font-size="10.00">/STORM&#45;IRIT/Radium&#45;Engine</text>
<text text-anchor="start" x="2707.5" y="-96.5" font-family="Helvetica,sans-Serif" font-size="10.00">/Plugins/Animation/src/Animation</text>
<text text-anchor="middle" x="2786.5" y="-85.5" font-family="Helvetica,sans-Serif" font-size="10.00">System.cpp</text>
</a>
</g>
</g>
<!-- Node3&#45;&gt;Node15 -->
<g id="edge14" class="edge"><title>Node3&#45;&gt;Node15</title>
<path fill="none" stroke="midnightblue" d="M1653.84,-173.087C1667.07,-170.677 1680.61,-168.527 1693.5,-167 2133.82,-114.849 2251.94,-196.323 2690.5,-131 2693.4,-130.568 2696.34,-130.081 2699.3,-129.548"/>
<polygon fill="midnightblue" stroke="midnightblue" points="1652.98,-169.687 1643.8,-174.976 1654.28,-176.566 1652.98,-169.687"/>
</g>
<!-- Node16 -->
<g id="node16" class="node"><title>Node16</title>
<g id="a_node16"><a xlink:href="MeshPaintSystem_8cpp.html" target="_top" xlink:title="/home/travis/build\l/STORM&#45;IRIT/Radium&#45;Engine\l/Plugins/MeshPaint/src/MeshPaint\lSystem.cpp">
<polygon fill="white" stroke="black" points="2273.5,-78.5 2273.5,-130.5 2447.5,-130.5 2447.5,-78.5 2273.5,-78.5"/>
<text text-anchor="start" x="2281.5" y="-118.5" font-family="Helvetica,sans-Serif" font-size="10.00">/home/travis/build</text>
<text text-anchor="start" x="2281.5" y="-107.5" font-family="Helvetica,sans-Serif" font-size="10.00">/STORM&#45;IRIT/Radium&#45;Engine</text>
<text text-anchor="start" x="2281.5" y="-96.5" font-family="Helvetica,sans-Serif" font-size="10.00">/Plugins/MeshPaint/src/MeshPaint</text>
<text text-anchor="middle" x="2360.5" y="-85.5" font-family="Helvetica,sans-Serif" font-size="10.00">System.cpp</text>
</a>
</g>
</g>
<!-- Node3&#45;&gt;Node16 -->
<g id="edge15" class="edge"><title>Node3&#45;&gt;Node16</title>
<path fill="none" stroke="midnightblue" d="M1653.61,-173.448C1666.92,-170.975 1680.54,-168.712 1693.5,-167 1945.59,-133.703 2013.52,-171.837 2264.5,-131 2267.39,-130.529 2270.33,-130.008 2273.28,-129.447"/>
<polygon fill="midnightblue" stroke="midnightblue" points="1652.68,-170.062 1643.51,-175.374 1653.99,-176.938 1652.68,-170.062"/>
</g>
<!-- Node3&#45;&gt;Node17 -->
<g id="edge16" class="edge"><title>Node3&#45;&gt;Node17</title>
<path fill="none" stroke="midnightblue" d="M1653.86,-173.215C1667.08,-170.787 1680.62,-168.598 1693.5,-167 2030.41,-125.208 2119.91,-175.302 2456.5,-131 2468.15,-129.467 2480.35,-127.369 2492.3,-125.029"/>
<polygon fill="midnightblue" stroke="midnightblue" points="1653,-169.816 1643.82,-175.113 1654.3,-176.694 1653,-169.816"/>
</g>
<!-- Node18 -->
<g id="node18" class="node"><title>Node18</title>
<g id="a_node18"><a xlink:href="SkinningPlugin_8cpp.html" target="_top" xlink:title="/home/travis/build\l/STORM&#45;IRIT/Radium&#45;Engine\l/Plugins/Skinning/src/SkinningPlugin.cpp">
<polygon fill="white" stroke="black" points="2470.5,-0.5 2470.5,-41.5 2676.5,-41.5 2676.5,-0.5 2470.5,-0.5"/>
<text text-anchor="start" x="2478.5" y="-29.5" font-family="Helvetica,sans-Serif" font-size="10.00">/home/travis/build</text>
<text text-anchor="start" x="2478.5" y="-18.5" font-family="Helvetica,sans-Serif" font-size="10.00">/STORM&#45;IRIT/Radium&#45;Engine</text>
<text text-anchor="middle" x="2573.5" y="-7.5" font-family="Helvetica,sans-Serif" font-size="10.00">/Plugins/Skinning/src/SkinningPlugin.cpp</text>
</a>
</g>
</g>
<!-- Node17&#45;&gt;Node18 -->
<g id="edge17" class="edge"><title>Node17&#45;&gt;Node18</title>
<path fill="none" stroke="midnightblue" d="M2573.5,-73.5646C2573.5,-62.8819 2573.5,-51.1303 2573.5,-41.5472"/>
<polygon fill="midnightblue" stroke="midnightblue" points="2570,-73.7711 2573.5,-83.7711 2577,-73.7712 2570,-73.7711"/>
</g>
<!-- Node20&#45;&gt;Node1 -->
<g id="edge20" class="edge"><title>Node20&#45;&gt;Node1</title>
<path fill="none" stroke="midnightblue" d="M2232.03,-313.233C2232.47,-323.902 2232.25,-335.661 2231.38,-345.271"/>
<polygon fill="midnightblue" stroke="midnightblue" points="2235.5,-312.798 2231.36,-303.047 2228.52,-313.254 2235.5,-312.798"/>
</g>
<!-- Node23&#45;&gt;Node15 -->
<g id="edge25" class="edge"><title>Node23&#45;&gt;Node15</title>
<path fill="none" stroke="midnightblue" d="M2885.46,-248.585C2877.78,-239.496 2869.64,-229.513 2862.5,-220 2840.16,-190.234 2816.82,-154.227 2802,-130.639"/>
<polygon fill="midnightblue" stroke="midnightblue" points="2882.9,-250.979 2892.06,-256.309 2888.23,-246.432 2882.9,-250.979"/>
</g>
<!-- Node24 -->
<g id="node24" class="node"><title>Node24</title>
<g id="a_node24"><a xlink:href="AnimationComponent_8cpp.html" target="_top" xlink:title="/home/travis/build\l/STORM&#45;IRIT/Radium&#45;Engine\l/Plugins/Animation/src/Animation\lComponent.cpp">
<polygon fill="white" stroke="black" points="3073.5,-78.5 3073.5,-130.5 3247.5,-130.5 3247.5,-78.5 3073.5,-78.5"/>
<text text-anchor="start" x="3081.5" y="-118.5" font-family="Helvetica,sans-Serif" font-size="10.00">/home/travis/build</text>
<text text-anchor="start" x="3081.5" y="-107.5" font-family="Helvetica,sans-Serif" font-size="10.00">/STORM&#45;IRIT/Radium&#45;Engine</text>
<text text-anchor="start" x="3081.5" y="-96.5" font-family="Helvetica,sans-Serif" font-size="10.00">/Plugins/Animation/src/Animation</text>
<text text-anchor="middle" x="3160.5" y="-85.5" font-family="Helvetica,sans-Serif" font-size="10.00">Component.cpp</text>
</a>
</g>
</g>
<!-- Node23&#45;&gt;Node24 -->
<g id="edge24" class="edge"><title>Node23&#45;&gt;Node24</title>
<path fill="none" stroke="midnightblue" d="M2987.69,-252.145C3006.9,-243.051 3027.09,-232.176 3044.5,-220 3081.6,-194.049 3117.64,-155.81 3139.45,-130.78"/>
<polygon fill="midnightblue" stroke="midnightblue" points="2985.96,-249.088 2978.36,-256.465 2988.9,-255.441 2985.96,-249.088"/>
</g>
<!-- Node25 -->
<g id="node25" class="node"><title>Node25</title>
<g id="a_node25"><a xlink:href="SkeletonBoneDrawable_8hpp.html" target="_top" xlink:title="/home/travis/build\l/STORM&#45;IRIT/Radium&#45;Engine\l/Plugins/Animation/src/Drawing\l/SkeletonBoneDrawable.hpp">
<polygon fill="white" stroke="black" points="2871.5,-167.5 2871.5,-219.5 3035.5,-219.5 3035.5,-167.5 2871.5,-167.5"/>
<text text-anchor="start" x="2879.5" y="-207.5" font-family="Helvetica,sans-Serif" font-size="10.00">/home/travis/build</text>
<text text-anchor="start" x="2879.5" y="-196.5" font-family="Helvetica,sans-Serif" font-size="10.00">/STORM&#45;IRIT/Radium&#45;Engine</text>
<text text-anchor="start" x="2879.5" y="-185.5" font-family="Helvetica,sans-Serif" font-size="10.00">/Plugins/Animation/src/Drawing</text>
<text text-anchor="middle" x="2953.5" y="-174.5" font-family="Helvetica,sans-Serif" font-size="10.00">/SkeletonBoneDrawable.hpp</text>
</a>
</g>
</g>
<!-- Node23&#45;&gt;Node25 -->
<g id="edge26" class="edge"><title>Node23&#45;&gt;Node25</title>
<path fill="none" stroke="midnightblue" d="M2929.94,-247.061C2934.05,-237.896 2938.41,-228.169 2942.24,-219.607"/>
<polygon fill="midnightblue" stroke="midnightblue" points="2926.68,-245.779 2925.78,-256.336 2933.06,-248.643 2926.68,-245.779"/>
</g>
<!-- Node25&#45;&gt;Node15 -->
<g id="edge28" class="edge"><title>Node25&#45;&gt;Node15</title>
<path fill="none" stroke="midnightblue" d="M2896.17,-162.635C2876.15,-152.205 2853.9,-140.611 2834.69,-130.607"/>
<polygon fill="midnightblue" stroke="midnightblue" points="2894.71,-165.82 2905.2,-167.336 2897.95,-159.612 2894.71,-165.82"/>
</g>
<!-- Node25&#45;&gt;Node24 -->
<g id="edge27" class="edge"><title>Node25&#45;&gt;Node24</title>
<path fill="none" stroke="midnightblue" d="M3022.32,-163.576C3047.78,-152.876 3076.4,-140.846 3100.97,-130.521"/>
<polygon fill="midnightblue" stroke="midnightblue" points="3020.96,-160.351 3013.1,-167.453 3023.67,-166.805 3020.96,-160.351"/>
</g>
<!-- Node26 -->
<g id="node26" class="node"><title>Node26</title>
<g id="a_node26"><a xlink:href="SkeletonBoneDrawable_8cpp.html" target="_top" xlink:title="/home/travis/build\l/STORM&#45;IRIT/Radium&#45;Engine\l/Plugins/Animation/src/Drawing\l/SkeletonBoneDrawable.cpp">
<polygon fill="white" stroke="black" points="2891.5,-78.5 2891.5,-130.5 3055.5,-130.5 3055.5,-78.5 2891.5,-78.5"/>
<text text-anchor="start" x="2899.5" y="-118.5" font-family="Helvetica,sans-Serif" font-size="10.00">/home/travis/build</text>
<text text-anchor="start" x="2899.5" y="-107.5" font-family="Helvetica,sans-Serif" font-size="10.00">/STORM&#45;IRIT/Radium&#45;Engine</text>
<text text-anchor="start" x="2899.5" y="-96.5" font-family="Helvetica,sans-Serif" font-size="10.00">/Plugins/Animation/src/Drawing</text>
<text text-anchor="middle" x="2973.5" y="-85.5" font-family="Helvetica,sans-Serif" font-size="10.00">/SkeletonBoneDrawable.cpp</text>
</a>
</g>
</g>
<!-- Node25&#45;&gt;Node26 -->
<g id="edge29" class="edge"><title>Node25&#45;&gt;Node26</title>
<path fill="none" stroke="midnightblue" d="M2961.55,-157.481C2963.62,-148.487 2965.8,-138.989 2967.73,-130.607"/>
<polygon fill="midnightblue" stroke="midnightblue" points="2958.11,-156.806 2959.28,-167.336 2964.94,-158.374 2958.11,-156.806"/>
</g>
<!-- Node27&#45;&gt;Node17 -->
<g id="edge32" class="edge"><title>Node27&#45;&gt;Node17</title>
<path fill="none" stroke="midnightblue" d="M1913.07,-259.659C2061.35,-225.047 2348.01,-158.134 2489.84,-125.028"/>
<polygon fill="midnightblue" stroke="midnightblue" points="1912.01,-256.311 1903.07,-261.992 1913.61,-263.128 1912.01,-256.311"/>
</g>
<!-- Node28 -->
<g id="node28" class="node"><title>Node28</title>
<g id="a_node28"><a xlink:href="SkinningComponent_8cpp.html" target="_top" xlink:title="/home/travis/build\l/STORM&#45;IRIT/Radium&#45;Engine\l/Plugins/Skinning/src/SkinningComponent.cpp">
<polygon fill="white" stroke="black" points="1702.5,-173 1702.5,-214 1936.5,-214 1936.5,-173 1702.5,-173"/>
<text text-anchor="start" x="1710.5" y="-202" font-family="Helvetica,sans-Serif" font-size="10.00">/home/travis/build</text>
<text text-anchor="start" x="1710.5" y="-191" font-family="Helvetica,sans-Serif" font-size="10.00">/STORM&#45;IRIT/Radium&#45;Engine</text>
<text text-anchor="middle" x="1819.5" y="-180" font-family="Helvetica,sans-Serif" font-size="10.00">/Plugins/Skinning/src/SkinningComponent.cpp</text>
</a>
</g>
</g>
<!-- Node27&#45;&gt;Node28 -->
<g id="edge31" class="edge"><title>Node27&#45;&gt;Node28</title>
<path fill="none" stroke="midnightblue" d="M1819.5,-251.441C1819.5,-239.101 1819.5,-225.162 1819.5,-214.164"/>
<polygon fill="midnightblue" stroke="midnightblue" points="1816,-251.758 1819.5,-261.758 1823,-251.758 1816,-251.758"/>
</g>
</g>
</svg>
