<?xml version="1.0" encoding="UTF-8" standalone="no"?>
<!DOCTYPE svg PUBLIC "-//W3C//DTD SVG 1.1//EN"
 "http://www.w3.org/Graphics/SVG/1.1/DTD/svg11.dtd">
<!-- Generated by graphviz version 2.38.0 (20140413.2041)
 -->
<!-- Title: /home/travis/build/STORM&#45;IRIT/Radium&#45;Engine/src/Core/Asset/HandleToSkeleton.cpp Pages: 1 -->
<svg width="1347pt" height="475pt"
 viewBox="0.00 0.00 1347.43 475.00" xmlns="http://www.w3.org/2000/svg" xmlns:xlink="http://www.w3.org/1999/xlink">
<g id="graph0" class="graph" transform="scale(1 1) rotate(0) translate(4 471)">
<title>/home/travis/build/STORM&#45;IRIT/Radium&#45;Engine/src/Core/Asset/HandleToSkeleton.cpp</title>
<polygon fill="white" stroke="none" points="-4,4 -4,-471 1343.43,-471 1343.43,4 -4,4"/>
<!-- Node1 -->
<g id="node1" class="node"><title>Node1</title>
<polygon fill="#bfbfbf" stroke="black" points="361.5,-425.5 361.5,-466.5 559.5,-466.5 559.5,-425.5 361.5,-425.5"/>
<text text-anchor="start" x="369.5" y="-454.5" font-family="Helvetica,sans-Serif" font-size="10.00">/home/travis/build</text>
<text text-anchor="start" x="369.5" y="-443.5" font-family="Helvetica,sans-Serif" font-size="10.00">/STORM&#45;IRIT/Radium&#45;Engine</text>
<text text-anchor="middle" x="460.5" y="-432.5" font-family="Helvetica,sans-Serif" font-size="10.00">/src/Core/Asset/HandleToSkeleton.cpp</text>
</g>
<!-- Node2 -->
<g id="node2" class="node"><title>Node2</title>
<g id="a_node2"><a xlink:href="HandleToSkeleton_8hpp.html" target="_top" xlink:title="Core/Asset/HandleToSkeleton.hpp">
<polygon fill="white" stroke="black" points="0,-308 0,-327 179,-327 179,-308 0,-308"/>
<text text-anchor="middle" x="89.5" y="-315" font-family="Helvetica,sans-Serif" font-size="10.00">Core/Asset/HandleToSkeleton.hpp</text>
</a>
</g>
</g>
<!-- Node1&#45;&gt;Node2 -->
<g id="edge1" class="edge"><title>Node1&#45;&gt;Node2</title>
<path fill="none" stroke="midnightblue" d="M402.938,-425.373C324.888,-398.76 187.92,-352.058 124.078,-330.29"/>
<polygon fill="midnightblue" stroke="midnightblue" points="125.074,-326.932 114.48,-327.017 122.815,-333.557 125.074,-326.932"/>
</g>
<!-- Node11 -->
<g id="node11" class="node"><title>Node11</title>
<g id="a_node11"><a xlink:href="Skeleton_8hpp.html" target="_top" xlink:title="Core/Animation/Skeleton.hpp">
<polygon fill="white" stroke="black" points="446,-369.5 446,-388.5 603,-388.5 603,-369.5 446,-369.5"/>
<text text-anchor="middle" x="524.5" y="-376.5" font-family="Helvetica,sans-Serif" font-size="10.00">Core/Animation/Skeleton.hpp</text>
</a>
</g>
</g>
<!-- Node1&#45;&gt;Node11 -->
<g id="edge10" class="edge"><title>Node1&#45;&gt;Node11</title>
<path fill="none" stroke="midnightblue" d="M479.702,-425.498C489.043,-416.011 500.125,-404.756 508.93,-395.813"/>
<polygon fill="midnightblue" stroke="midnightblue" points="511.459,-398.234 515.981,-388.652 506.471,-393.323 511.459,-398.234"/>
</g>
<!-- Node25 -->
<g id="node25" class="node"><title>Node25</title>
<g id="a_node25"><a xlink:href="HandleData_8hpp.html" target="_top" xlink:title="Core/Asset/HandleData.hpp">
<polygon fill="white" stroke="black" points="280.5,-308 280.5,-327 430.5,-327 430.5,-308 280.5,-308"/>
<text text-anchor="middle" x="355.5" y="-315" font-family="Helvetica,sans-Serif" font-size="10.00">Core/Asset/HandleData.hpp</text>
</a>
</g>
</g>
<!-- Node1&#45;&gt;Node25 -->
<g id="edge36" class="edge"><title>Node1&#45;&gt;Node25</title>
<path fill="none" stroke="midnightblue" d="M444.094,-425.234C423.534,-400.464 388.66,-358.449 369.368,-335.208"/>
<polygon fill="midnightblue" stroke="midnightblue" points="371.88,-332.754 362.8,-327.295 366.494,-337.225 371.88,-332.754"/>
</g>
<!-- Node32 -->
<g id="node32" class="node"><title>Node32</title>
<polygon fill="white" stroke="#bfbfbf" points="621.5,-369.5 621.5,-388.5 653.5,-388.5 653.5,-369.5 621.5,-369.5"/>
<text text-anchor="middle" x="637.5" y="-376.5" font-family="Helvetica,sans-Serif" font-size="10.00">set</text>
</g>
<!-- Node1&#45;&gt;Node32 -->
<g id="edge54" class="edge"><title>Node1&#45;&gt;Node32</title>
<path fill="none" stroke="midnightblue" d="M513.606,-425.498C546.004,-413.6 585.979,-398.92 611.604,-389.51"/>
<polygon fill="midnightblue" stroke="midnightblue" points="613.14,-392.674 621.321,-385.942 610.727,-386.103 613.14,-392.674"/>
</g>
<!-- Node3 -->
<g id="node3" class="node"><title>Node3</title>
<polygon fill="white" stroke="#bfbfbf" points="70.5,-241 70.5,-260 108.5,-260 108.5,-241 70.5,-241"/>
<text text-anchor="middle" x="89.5" y="-248" font-family="Helvetica,sans-Serif" font-size="10.00">map</text>
</g>
<!-- Node2&#45;&gt;Node3 -->
<g id="edge2" class="edge"><title>Node2&#45;&gt;Node3</title>
<path fill="none" stroke="midnightblue" d="M89.5,-307.734C89.5,-298.183 89.5,-282.618 89.5,-270.283"/>
<polygon fill="midnightblue" stroke="midnightblue" points="93.0001,-270.127 89.5,-260.127 86.0001,-270.127 93.0001,-270.127"/>
</g>
<!-- Node4 -->
<g id="node4" class="node"><title>Node4</title>
<g id="a_node4"><a xlink:href="RaCore_8hpp.html" target="_top" xlink:title="Core/RaCore.hpp">
<polygon fill="white" stroke="black" points="401.5,-112.5 401.5,-131.5 499.5,-131.5 499.5,-112.5 401.5,-112.5"/>
<text text-anchor="middle" x="450.5" y="-119.5" font-family="Helvetica,sans-Serif" font-size="10.00">Core/RaCore.hpp</text>
</a>
</g>
</g>
<!-- Node2&#45;&gt;Node4 -->
<g id="edge3" class="edge"><title>Node2&#45;&gt;Node4</title>
<path fill="none" stroke="midnightblue" d="M81.5283,-307.775C67.6588,-291.535 42.3177,-256.382 61.5,-235 110.909,-179.926 328.058,-235.354 392.5,-199 415.81,-185.85 432.767,-159.113 442.125,-141.122"/>
<polygon fill="midnightblue" stroke="midnightblue" points="445.369,-142.457 446.642,-131.939 439.088,-139.368 445.369,-142.457"/>
</g>
<!-- Node5 -->
<g id="node5" class="node"><title>Node5</title>
<g id="a_node5"><a xlink:href="CoreMacros_8hpp.html" target="_top" xlink:title="Core/CoreMacros.hpp">
<polygon fill="white" stroke="black" points="390.5,-56.5 390.5,-75.5 510.5,-75.5 510.5,-56.5 390.5,-56.5"/>
<text text-anchor="middle" x="450.5" y="-63.5" font-family="Helvetica,sans-Serif" font-size="10.00">Core/CoreMacros.hpp</text>
</a>
</g>
</g>
<!-- Node4&#45;&gt;Node5 -->
<g id="edge4" class="edge"><title>Node4&#45;&gt;Node5</title>
<path fill="none" stroke="midnightblue" d="M450.5,-112.083C450.5,-105.006 450.5,-94.8611 450.5,-85.9865"/>
<polygon fill="midnightblue" stroke="midnightblue" points="454,-85.751 450.5,-75.7511 447,-85.7511 454,-85.751"/>
</g>
<!-- Node6 -->
<g id="node6" class="node"><title>Node6</title>
<polygon fill="white" stroke="#bfbfbf" points="492.5,-0.5 492.5,-19.5 544.5,-19.5 544.5,-0.5 492.5,-0.5"/>
<text text-anchor="middle" x="518.5" y="-7.5" font-family="Helvetica,sans-Serif" font-size="10.00">cassert</text>
</g>
<!-- Node5&#45;&gt;Node6 -->
<g id="edge5" class="edge"><title>Node5&#45;&gt;Node6</title>
<path fill="none" stroke="midnightblue" d="M461.425,-56.324C471.675,-48.1849 487.221,-35.8395 499.501,-26.0874"/>
<polygon fill="midnightblue" stroke="midnightblue" points="501.721,-28.7937 507.376,-19.8339 497.368,-23.3119 501.721,-28.7937"/>
</g>
<!-- Node7 -->
<g id="node7" class="node"><title>Node7</title>
<polygon fill="white" stroke="#bfbfbf" points="363,-0.5 363,-19.5 408,-19.5 408,-0.5 363,-0.5"/>
<text text-anchor="middle" x="385.5" y="-7.5" font-family="Helvetica,sans-Serif" font-size="10.00">cstdio</text>
</g>
<!-- Node5&#45;&gt;Node7 -->
<g id="edge6" class="edge"><title>Node5&#45;&gt;Node7</title>
<path fill="none" stroke="midnightblue" d="M440.057,-56.324C430.354,-48.2631 415.685,-36.0765 404,-26.3695"/>
<polygon fill="midnightblue" stroke="midnightblue" points="406.062,-23.532 396.133,-19.8339 401.589,-28.9163 406.062,-23.532"/>
</g>
<!-- Node8 -->
<g id="node8" class="node"><title>Node8</title>
<polygon fill="white" stroke="#bfbfbf" points="840,-0.5 840,-19.5 899,-19.5 899,-0.5 840,-0.5"/>
<text text-anchor="middle" x="869.5" y="-7.5" font-family="Helvetica,sans-Serif" font-size="10.00">iostream</text>
</g>
<!-- Node5&#45;&gt;Node8 -->
<g id="edge7" class="edge"><title>Node5&#45;&gt;Node8</title>
<path fill="none" stroke="midnightblue" d="M510.532,-57.2631C597.342,-46.0752 755.595,-25.6799 829.492,-16.1562"/>
<polygon fill="midnightblue" stroke="midnightblue" points="830.293,-19.5819 839.764,-14.8323 829.399,-12.6393 830.293,-19.5819"/>
</g>
<!-- Node9 -->
<g id="node9" class="node"><title>Node9</title>
<polygon fill="white" stroke="#bfbfbf" points="171.5,-0.5 171.5,-19.5 227.5,-19.5 227.5,-0.5 171.5,-0.5"/>
<text text-anchor="middle" x="199.5" y="-7.5" font-family="Helvetica,sans-Serif" font-size="10.00">sstream</text>
</g>
<!-- Node5&#45;&gt;Node9 -->
<g id="edge8" class="edge"><title>Node5&#45;&gt;Node9</title>
<path fill="none" stroke="midnightblue" d="M410.728,-56.4435C363.307,-46.2413 284.604,-29.3093 237.829,-19.246"/>
<polygon fill="midnightblue" stroke="midnightblue" points="238.303,-15.7681 227.791,-17.0865 236.831,-22.6115 238.303,-15.7681"/>
</g>
<!-- Node10 -->
<g id="node10" class="node"><title>Node10</title>
<polygon fill="white" stroke="#bfbfbf" points="426.5,-0.5 426.5,-19.5 474.5,-19.5 474.5,-0.5 426.5,-0.5"/>
<text text-anchor="middle" x="450.5" y="-7.5" font-family="Helvetica,sans-Serif" font-size="10.00">thread</text>
</g>
<!-- Node5&#45;&gt;Node10 -->
<g id="edge9" class="edge"><title>Node5&#45;&gt;Node10</title>
<path fill="none" stroke="midnightblue" d="M450.5,-56.083C450.5,-49.0059 450.5,-38.8611 450.5,-29.9865"/>
<polygon fill="midnightblue" stroke="midnightblue" points="454,-29.751 450.5,-19.7511 447,-29.7511 454,-29.751"/>
</g>
<!-- Node12 -->
<g id="node12" class="node"><title>Node12</title>
<g id="a_node12"><a xlink:href="Handle_8hpp.html" target="_top" xlink:title="Core/Animation/Handle.hpp">
<polygon fill="white" stroke="black" points="520,-308 520,-327 669,-327 669,-308 520,-308"/>
<text text-anchor="middle" x="594.5" y="-315" font-family="Helvetica,sans-Serif" font-size="10.00">Core/Animation/Handle.hpp</text>
</a>
</g>
</g>
<!-- Node11&#45;&gt;Node12 -->
<g id="edge11" class="edge"><title>Node11&#45;&gt;Node12</title>
<path fill="none" stroke="midnightblue" d="M534.529,-369.475C545.549,-360.108 563.46,-344.884 576.843,-333.508"/>
<polygon fill="midnightblue" stroke="midnightblue" points="579.137,-336.152 584.489,-327.009 574.603,-330.819 579.137,-336.152"/>
</g>
<!-- Node22 -->
<g id="node22" class="node"><title>Node22</title>
<g id="a_node22"><a xlink:href="AdjacencyList_8hpp.html" target="_top" xlink:title="Core/Containers/Adjacency\lList.hpp">
<polygon fill="white" stroke="black" points="1074.5,-302.5 1074.5,-332.5 1220.5,-332.5 1220.5,-302.5 1074.5,-302.5"/>
<text text-anchor="start" x="1082.5" y="-320.5" font-family="Helvetica,sans-Serif" font-size="10.00">Core/Containers/Adjacency</text>
<text text-anchor="middle" x="1147.5" y="-309.5" font-family="Helvetica,sans-Serif" font-size="10.00">List.hpp</text>
</a>
</g>
</g>
<!-- Node11&#45;&gt;Node22 -->
<g id="edge25" class="edge"><title>Node11&#45;&gt;Node22</title>
<path fill="none" stroke="midnightblue" d="M603.179,-369.923C606.327,-369.609 609.443,-369.301 612.5,-369 772.217,-353.295 958.856,-335.894 1064.12,-326.168"/>
<polygon fill="midnightblue" stroke="midnightblue" points="1064.72,-329.627 1074.36,-325.222 1064.08,-322.656 1064.72,-329.627"/>
</g>
<!-- Node12&#45;&gt;Node4 -->
<g id="edge22" class="edge"><title>Node12&#45;&gt;Node4</title>
<path fill="none" stroke="midnightblue" d="M587.498,-307.771C572.032,-288.423 533.914,-240.368 503.5,-199 488.823,-179.037 472.621,-155.583 462.042,-140.066"/>
<polygon fill="midnightblue" stroke="midnightblue" points="464.76,-137.838 456.246,-131.532 458.969,-141.771 464.76,-137.838"/>
</g>
<!-- Node13 -->
<g id="node13" class="node"><title>Node13</title>
<g id="a_node13"><a xlink:href="Pose_8hpp.html" target="_top" xlink:title="Core/Animation/Pose.hpp">
<polygon fill="white" stroke="black" points="943.5,-241 943.5,-260 1081.5,-260 1081.5,-241 943.5,-241"/>
<text text-anchor="middle" x="1012.5" y="-248" font-family="Helvetica,sans-Serif" font-size="10.00">Core/Animation/Pose.hpp</text>
</a>
</g>
</g>
<!-- Node12&#45;&gt;Node13 -->
<g id="edge12" class="edge"><title>Node12&#45;&gt;Node13</title>
<path fill="none" stroke="midnightblue" d="M655.839,-307.995C723.817,-298.423 836.648,-282.098 933.5,-266 941.238,-264.714 949.389,-263.293 957.399,-261.859"/>
<polygon fill="midnightblue" stroke="midnightblue" points="958.21,-265.269 967.427,-260.043 956.963,-258.381 958.21,-265.269"/>
</g>
<!-- Node17 -->
<g id="node17" class="node"><title>Node17</title>
<g id="a_node17"><a xlink:href="Types_8hpp.html" target="_top" xlink:title="Core/Math/Types.hpp">
<polygon fill="white" stroke="black" points="554.5,-174 554.5,-193 670.5,-193 670.5,-174 554.5,-174"/>
<text text-anchor="middle" x="612.5" y="-181" font-family="Helvetica,sans-Serif" font-size="10.00">Core/Math/Types.hpp</text>
</a>
</g>
</g>
<!-- Node12&#45;&gt;Node17 -->
<g id="edge17" class="edge"><title>Node12&#45;&gt;Node17</title>
<path fill="none" stroke="midnightblue" d="M591.12,-307.794C585.758,-292.732 576.583,-260.935 583.5,-235 586.705,-222.985 593.524,-210.857 599.746,-201.499"/>
<polygon fill="midnightblue" stroke="midnightblue" points="602.714,-203.362 605.611,-193.171 596.992,-199.332 602.714,-203.362"/>
</g>
<!-- Node21 -->
<g id="node21" class="node"><title>Node21</title>
<g id="a_node21"><a xlink:href="Handle_8inl.html" target="_top" xlink:title="Core/Animation/Handle.inl">
<polygon fill="white" stroke="black" points="593,-241 593,-260 734,-260 734,-241 593,-241"/>
<text text-anchor="middle" x="663.5" y="-248" font-family="Helvetica,sans-Serif" font-size="10.00">Core/Animation/Handle.inl</text>
</a>
</g>
</g>
<!-- Node12&#45;&gt;Node21 -->
<g id="edge23" class="edge"><title>Node12&#45;&gt;Node21</title>
<path fill="none" stroke="midnightblue" d="M599.017,-307.734C607.976,-297.208 626.563,-279.379 641.646,-266.617"/>
<polygon fill="midnightblue" stroke="midnightblue" points="644.057,-269.167 649.583,-260.127 639.626,-263.748 644.057,-269.167"/>
</g>
<!-- Node14 -->
<g id="node14" class="node"><title>Node14</title>
<g id="a_node14"><a xlink:href="AlignedStdVector_8hpp.html" target="_top" xlink:title="Core/Containers/AlignedStd\lVector.hpp">
<polygon fill="white" stroke="black" points="779,-168.5 779,-198.5 928,-198.5 928,-168.5 779,-168.5"/>
<text text-anchor="start" x="787" y="-186.5" font-family="Helvetica,sans-Serif" font-size="10.00">Core/Containers/AlignedStd</text>
<text text-anchor="middle" x="853.5" y="-175.5" font-family="Helvetica,sans-Serif" font-size="10.00">Vector.hpp</text>
</a>
</g>
</g>
<!-- Node13&#45;&gt;Node14 -->
<g id="edge13" class="edge"><title>Node13&#45;&gt;Node14</title>
<path fill="none" stroke="midnightblue" d="M991.386,-240.869C967.527,-231.115 928.033,-214.97 897.413,-202.452"/>
<polygon fill="midnightblue" stroke="midnightblue" points="898.396,-199.072 887.815,-198.528 895.747,-205.552 898.396,-199.072"/>
</g>
<!-- Node14&#45;&gt;Node4 -->
<g id="edge14" class="edge"><title>Node14&#45;&gt;Node4</title>
<path fill="none" stroke="midnightblue" d="M778.771,-171.75C711.194,-161.986 608.662,-147.065 509.723,-132.174"/>
<polygon fill="midnightblue" stroke="midnightblue" points="509.953,-128.67 499.543,-130.64 508.91,-135.591 509.953,-128.67"/>
</g>
<!-- Node15 -->
<g id="node15" class="node"><title>Node15</title>
<polygon fill="white" stroke="#bfbfbf" points="880,-112.5 880,-131.5 973,-131.5 973,-112.5 880,-112.5"/>
<text text-anchor="middle" x="926.5" y="-119.5" font-family="Helvetica,sans-Serif" font-size="10.00">Eigen/StdVector</text>
</g>
<!-- Node14&#45;&gt;Node15 -->
<g id="edge15" class="edge"><title>Node14&#45;&gt;Node15</title>
<path fill="none" stroke="midnightblue" d="M870.8,-168.399C881.955,-159.308 896.454,-147.49 907.862,-138.191"/>
<polygon fill="midnightblue" stroke="midnightblue" points="910.338,-140.689 915.878,-131.658 905.915,-135.263 910.338,-140.689"/>
</g>
<!-- Node16 -->
<g id="node16" class="node"><title>Node16</title>
<polygon fill="white" stroke="#bfbfbf" points="728,-112.5 728,-131.5 775,-131.5 775,-112.5 728,-112.5"/>
<text text-anchor="middle" x="751.5" y="-119.5" font-family="Helvetica,sans-Serif" font-size="10.00">vector</text>
</g>
<!-- Node14&#45;&gt;Node16 -->
<g id="edge16" class="edge"><title>Node14&#45;&gt;Node16</title>
<path fill="none" stroke="midnightblue" d="M829.327,-168.399C812.978,-158.862 791.485,-146.325 775.23,-136.842"/>
<polygon fill="midnightblue" stroke="midnightblue" points="776.743,-133.673 766.342,-131.658 773.216,-139.72 776.743,-133.673"/>
</g>
<!-- Node17&#45;&gt;Node4 -->
<g id="edge18" class="edge"><title>Node17&#45;&gt;Node4</title>
<path fill="none" stroke="midnightblue" d="M589.289,-173.975C561.501,-163.769 514.777,-146.608 483.306,-135.049"/>
<polygon fill="midnightblue" stroke="midnightblue" points="484.261,-131.671 473.668,-131.509 481.848,-138.242 484.261,-131.671"/>
</g>
<!-- Node18 -->
<g id="node18" class="node"><title>Node18</title>
<polygon fill="white" stroke="#bfbfbf" points="793.5,-112.5 793.5,-131.5 861.5,-131.5 861.5,-112.5 793.5,-112.5"/>
<text text-anchor="middle" x="827.5" y="-119.5" font-family="Helvetica,sans-Serif" font-size="10.00">Eigen/Core</text>
</g>
<!-- Node17&#45;&gt;Node18 -->
<g id="edge19" class="edge"><title>Node17&#45;&gt;Node18</title>
<path fill="none" stroke="midnightblue" d="M643.304,-173.975C681.062,-163.526 745.161,-145.787 786.909,-134.233"/>
<polygon fill="midnightblue" stroke="midnightblue" points="788.049,-137.55 796.753,-131.509 786.182,-130.803 788.049,-137.55"/>
</g>
<!-- Node19 -->
<g id="node19" class="node"><title>Node19</title>
<polygon fill="white" stroke="#bfbfbf" points="615.5,-112.5 615.5,-131.5 709.5,-131.5 709.5,-112.5 615.5,-112.5"/>
<text text-anchor="middle" x="662.5" y="-119.5" font-family="Helvetica,sans-Serif" font-size="10.00">Eigen/Geometry</text>
</g>
<!-- Node17&#45;&gt;Node19 -->
<g id="edge20" class="edge"><title>Node17&#45;&gt;Node19</title>
<path fill="none" stroke="midnightblue" d="M619.664,-173.975C627.238,-164.962 639.37,-150.525 648.793,-139.312"/>
<polygon fill="midnightblue" stroke="midnightblue" points="651.596,-141.417 655.35,-131.509 646.237,-136.913 651.596,-141.417"/>
</g>
<!-- Node20 -->
<g id="node20" class="node"><title>Node20</title>
<polygon fill="white" stroke="#bfbfbf" points="517.5,-112.5 517.5,-131.5 597.5,-131.5 597.5,-112.5 517.5,-112.5"/>
<text text-anchor="middle" x="557.5" y="-119.5" font-family="Helvetica,sans-Serif" font-size="10.00">Eigen/Sparse</text>
</g>
<!-- Node17&#45;&gt;Node20 -->
<g id="edge21" class="edge"><title>Node17&#45;&gt;Node20</title>
<path fill="none" stroke="midnightblue" d="M604.62,-173.975C596.206,-164.873 582.681,-150.241 572.274,-138.983"/>
<polygon fill="midnightblue" stroke="midnightblue" points="574.724,-136.477 565.366,-131.509 569.583,-141.228 574.724,-136.477"/>
</g>
<!-- Node21&#45;&gt;Node12 -->
<g id="edge24" class="edge"><title>Node21&#45;&gt;Node12</title>
<path fill="none" stroke="midnightblue" d="M659.101,-260.127C650.227,-270.588 631.668,-288.407 616.553,-301.213"/>
<polygon fill="midnightblue" stroke="midnightblue" points="614.112,-298.689 608.594,-307.734 618.548,-304.104 614.112,-298.689"/>
</g>
<!-- Node22&#45;&gt;Node8 -->
<g id="edge26" class="edge"><title>Node22&#45;&gt;Node8</title>
<path fill="none" stroke="midnightblue" d="M1147.5,-302.241C1147.5,-278.034 1147.5,-227.354 1147.5,-184.5 1147.5,-184.5 1147.5,-184.5 1147.5,-121 1147.5,-70.4354 986.471,-33.1217 909.525,-18.1779"/>
<polygon fill="midnightblue" stroke="midnightblue" points="909.73,-14.6539 899.251,-16.2187 908.418,-21.53 909.73,-14.6539"/>
</g>
<!-- Node22&#45;&gt;Node14 -->
<g id="edge28" class="edge"><title>Node22&#45;&gt;Node14</title>
<path fill="none" stroke="midnightblue" d="M1141.56,-302.199C1133.08,-283.647 1115.69,-251.691 1090.5,-235 1045.56,-205.224 986.236,-192.603 938.181,-187.425"/>
<polygon fill="midnightblue" stroke="midnightblue" points="938.403,-183.93 928.107,-186.429 937.714,-190.896 938.403,-183.93"/>
</g>
<!-- Node22&#45;&gt;Node18 -->
<g id="edge27" class="edge"><title>Node22&#45;&gt;Node18</title>
<path fill="none" stroke="midnightblue" d="M1220.7,-308.938C1285.62,-299.265 1365.2,-278.278 1330.5,-235 1326.85,-230.443 994.182,-158.737 871.924,-132.512"/>
<polygon fill="midnightblue" stroke="midnightblue" points="872.295,-129.012 861.784,-130.337 870.828,-135.856 872.295,-129.012"/>
</g>
<!-- Node23 -->
<g id="node23" class="node"><title>Node23</title>
<g id="a_node23"><a xlink:href="VectorArray_8hpp.html" target="_top" xlink:title="Core/Containers/VectorArray.hpp">
<polygon fill="white" stroke="black" points="752,-241 752,-260 925,-260 925,-241 752,-241"/>
<text text-anchor="middle" x="838.5" y="-248" font-family="Helvetica,sans-Serif" font-size="10.00">Core/Containers/VectorArray.hpp</text>
</a>
</g>
</g>
<!-- Node22&#45;&gt;Node23 -->
<g id="edge29" class="edge"><title>Node22&#45;&gt;Node23</title>
<path fill="none" stroke="midnightblue" d="M1080.83,-302.476C1023.28,-290.37 941.386,-273.143 889.092,-262.142"/>
<polygon fill="midnightblue" stroke="midnightblue" points="889.55,-258.662 879.044,-260.029 888.109,-265.512 889.55,-258.662"/>
</g>
<!-- Node24 -->
<g id="node24" class="node"><title>Node24</title>
<g id="a_node24"><a xlink:href="AdjacencyList_8inl.html" target="_top" xlink:title="Core/Containers/Adjacency\lList.inl">
<polygon fill="white" stroke="black" points="1175.5,-235.5 1175.5,-265.5 1321.5,-265.5 1321.5,-235.5 1175.5,-235.5"/>
<text text-anchor="start" x="1183.5" y="-253.5" font-family="Helvetica,sans-Serif" font-size="10.00">Core/Containers/Adjacency</text>
<text text-anchor="middle" x="1248.5" y="-242.5" font-family="Helvetica,sans-Serif" font-size="10.00">List.inl</text>
</a>
</g>
</g>
<!-- Node22&#45;&gt;Node24 -->
<g id="edge34" class="edge"><title>Node22&#45;&gt;Node24</title>
<path fill="none" stroke="midnightblue" d="M1163.74,-302.396C1176.82,-293.197 1195.49,-281.066 1212.03,-270.955"/>
<polygon fill="midnightblue" stroke="midnightblue" points="1214.19,-273.736 1220.95,-265.577 1210.58,-267.741 1214.19,-273.736"/>
</g>
<!-- Node23&#45;&gt;Node4 -->
<g id="edge32" class="edge"><title>Node23&#45;&gt;Node4</title>
<path fill="none" stroke="midnightblue" d="M784.908,-240.972C703.353,-227.893 556.342,-203.877 545.5,-199 536.847,-195.108 493.538,-159.237 468.486,-138.196"/>
<polygon fill="midnightblue" stroke="midnightblue" points="470.67,-135.46 460.766,-131.697 466.162,-140.815 470.67,-135.46"/>
</g>
<!-- Node23&#45;&gt;Node14 -->
<g id="edge30" class="edge"><title>Node23&#45;&gt;Node14</title>
<path fill="none" stroke="midnightblue" d="M840.523,-240.734C842.433,-232.456 845.386,-219.662 847.992,-208.367"/>
<polygon fill="midnightblue" stroke="midnightblue" points="851.41,-209.12 850.249,-198.589 844.59,-207.546 851.41,-209.12"/>
</g>
<!-- Node23&#45;&gt;Node16 -->
<g id="edge33" class="edge"><title>Node23&#45;&gt;Node16</title>
<path fill="none" stroke="midnightblue" d="M820.386,-240.91C804.541,-232.455 782.139,-218.05 769.5,-199 758.16,-181.907 753.936,-158.476 752.379,-142.166"/>
<polygon fill="midnightblue" stroke="midnightblue" points="755.839,-141.474 751.652,-131.742 748.856,-141.961 755.839,-141.474"/>
</g>
<!-- Node23&#45;&gt;Node17 -->
<g id="edge31" class="edge"><title>Node23&#45;&gt;Node17</title>
<path fill="none" stroke="midnightblue" d="M808.489,-240.869C768.191,-229.278 696.511,-208.662 651.906,-195.834"/>
<polygon fill="midnightblue" stroke="midnightblue" points="652.853,-192.464 642.275,-193.064 650.918,-199.191 652.853,-192.464"/>
</g>
<!-- Node24&#45;&gt;Node22 -->
<g id="edge35" class="edge"><title>Node24&#45;&gt;Node22</title>
<path fill="none" stroke="midnightblue" d="M1232.3,-265.577C1219.23,-274.77 1200.57,-286.9 1184.02,-297.015"/>
<polygon fill="midnightblue" stroke="midnightblue" points="1181.85,-294.236 1175.09,-302.396 1185.47,-300.231 1181.85,-294.236"/>
</g>
<!-- Node25&#45;&gt;Node3 -->
<g id="edge37" class="edge"><title>Node25&#45;&gt;Node3</title>
<path fill="none" stroke="midnightblue" d="M293.098,-307.964C244.339,-300.179 175.369,-286.696 117.5,-266 116.253,-265.554 114.992,-265.063 113.73,-264.539"/>
<polygon fill="midnightblue" stroke="midnightblue" points="114.818,-261.183 104.279,-260.093 111.838,-267.517 114.818,-261.183"/>
</g>
<!-- Node25&#45;&gt;Node4 -->
<g id="edge42" class="edge"><title>Node25&#45;&gt;Node4</title>
<path fill="none" stroke="midnightblue" d="M359.185,-307.574C365.714,-292.182 380.171,-259.901 396.5,-235 407.921,-217.583 416.509,-217.275 426.5,-199 436.434,-180.829 442.956,-157.927 446.66,-142.037"/>
<polygon fill="midnightblue" stroke="midnightblue" points="450.165,-142.389 448.867,-131.874 443.324,-140.904 450.165,-142.389"/>
</g>
<!-- Node25&#45;&gt;Node14 -->
<g id="edge40" class="edge"><title>Node25&#45;&gt;Node14</title>
<path fill="none" stroke="midnightblue" d="M375.899,-307.97C415.364,-291.746 505.183,-256.178 583.5,-235 644.695,-218.452 715.139,-205.473 768.727,-196.818"/>
<polygon fill="midnightblue" stroke="midnightblue" points="769.547,-200.232 778.871,-195.199 768.444,-193.319 769.547,-200.232"/>
</g>
<!-- Node25&#45;&gt;Node16 -->
<g id="edge39" class="edge"><title>Node25&#45;&gt;Node16</title>
<path fill="none" stroke="midnightblue" d="M368.635,-307.802C398.926,-287.8 472.042,-239.875 484.5,-235 566.571,-202.883 602.052,-241.058 679.5,-199 705.615,-184.819 727.741,-157.751 740.321,-140.042"/>
<polygon fill="midnightblue" stroke="midnightblue" points="743.236,-141.98 746,-131.752 737.461,-138.024 743.236,-141.98"/>
</g>
<!-- Node25&#45;&gt;Node17 -->
<g id="edge41" class="edge"><title>Node25&#45;&gt;Node17</title>
<path fill="none" stroke="midnightblue" d="M361.59,-307.94C373.847,-291.344 403.186,-254.696 436.5,-235 470.122,-215.121 512.014,-202.691 546.491,-195.139"/>
<polygon fill="midnightblue" stroke="midnightblue" points="547.403,-198.524 556.47,-193.043 545.964,-191.674 547.403,-198.524"/>
</g>
<!-- Node26 -->
<g id="node26" class="node"><title>Node26</title>
<polygon fill="white" stroke="#bfbfbf" points="240.5,-112.5 240.5,-131.5 284.5,-131.5 284.5,-112.5 240.5,-112.5"/>
<text text-anchor="middle" x="262.5" y="-119.5" font-family="Helvetica,sans-Serif" font-size="10.00">string</text>
</g>
<!-- Node25&#45;&gt;Node26 -->
<g id="edge38" class="edge"><title>Node25&#45;&gt;Node26</title>
<path fill="none" stroke="midnightblue" d="M348.262,-307.98C335.078,-292.664 305.968,-259.766 278.5,-235 258.958,-217.38 243.148,-222.594 231.5,-199 221.6,-178.947 235.489,-154.919 247.72,-139.325"/>
<polygon fill="midnightblue" stroke="midnightblue" points="250.445,-141.522 254.182,-131.609 245.078,-137.028 250.445,-141.522"/>
</g>
<!-- Node27 -->
<g id="node27" class="node"><title>Node27</title>
<g id="a_node27"><a xlink:href="AssetData_8hpp.html" target="_top" xlink:title="Core/Asset/AssetData.hpp">
<polygon fill="white" stroke="black" points="241,-174 241,-193 384,-193 384,-174 241,-174"/>
<text text-anchor="middle" x="312.5" y="-181" font-family="Helvetica,sans-Serif" font-size="10.00">Core/Asset/AssetData.hpp</text>
</a>
</g>
</g>
<!-- Node25&#45;&gt;Node27 -->
<g id="edge43" class="edge"><title>Node25&#45;&gt;Node27</title>
<path fill="none" stroke="midnightblue" d="M352.679,-307.839C345.753,-286.58 327.799,-231.463 318.413,-202.651"/>
<polygon fill="midnightblue" stroke="midnightblue" points="321.701,-201.445 315.276,-193.021 315.045,-203.614 321.701,-201.445"/>
</g>
<!-- Node28 -->
<g id="node28" class="node"><title>Node28</title>
<g id="a_node28"><a xlink:href="HandleData_8inl.html" target="_top" xlink:title="Core/Asset/HandleData.inl">
<polygon fill="white" stroke="black" points="127,-241 127,-260 270,-260 270,-241 127,-241"/>
<text text-anchor="middle" x="198.5" y="-248" font-family="Helvetica,sans-Serif" font-size="10.00">Core/Asset/HandleData.inl</text>
</a>
</g>
</g>
<!-- Node25&#45;&gt;Node28 -->
<g id="edge46" class="edge"><title>Node25&#45;&gt;Node28</title>
<path fill="none" stroke="midnightblue" d="M329.892,-307.869C300.531,-296.699 253.061,-277.147 223.829,-264.26"/>
<polygon fill="midnightblue" stroke="midnightblue" points="225.225,-261.05 214.667,-260.167 222.37,-267.442 225.225,-261.05"/>
</g>
<!-- Node27&#45;&gt;Node4 -->
<g id="edge44" class="edge"><title>Node27&#45;&gt;Node4</title>
<path fill="none" stroke="midnightblue" d="M332.272,-173.975C355.636,-163.901 394.714,-147.053 421.503,-135.502"/>
<polygon fill="midnightblue" stroke="midnightblue" points="422.968,-138.682 430.765,-131.509 420.196,-132.254 422.968,-138.682"/>
</g>
<!-- Node27&#45;&gt;Node26 -->
<g id="edge45" class="edge"><title>Node27&#45;&gt;Node26</title>
<path fill="none" stroke="midnightblue" d="M305.336,-173.975C297.762,-164.962 285.63,-150.525 276.207,-139.312"/>
<polygon fill="midnightblue" stroke="midnightblue" points="278.763,-136.913 269.65,-131.509 273.404,-141.417 278.763,-136.913"/>
</g>
<!-- Node28&#45;&gt;Node25 -->
<g id="edge47" class="edge"><title>Node28&#45;&gt;Node25</title>
<path fill="none" stroke="midnightblue" d="M223.93,-260.064C253.298,-271.23 300.951,-290.856 330.237,-303.769"/>
<polygon fill="midnightblue" stroke="midnightblue" points="328.854,-306.984 339.412,-307.869 331.71,-300.593 328.854,-306.984"/>
</g>
<!-- Node29 -->
<g id="node29" class="node"><title>Node29</title>
<g id="a_node29"><a xlink:href="Log_8hpp.html" target="_top" xlink:title="Core/Utils/Log.hpp">
<polygon fill="white" stroke="black" points="80.5,-174 80.5,-193 184.5,-193 184.5,-174 80.5,-174"/>
<text text-anchor="middle" x="132.5" y="-181" font-family="Helvetica,sans-Serif" font-size="10.00">Core/Utils/Log.hpp</text>
</a>
</g>
</g>
<!-- Node28&#45;&gt;Node29 -->
<g id="edge48" class="edge"><title>Node28&#45;&gt;Node29</title>
<path fill="none" stroke="midnightblue" d="M189.599,-240.734C179.109,-230.403 161.476,-213.037 148.575,-200.332"/>
<polygon fill="midnightblue" stroke="midnightblue" points="150.841,-197.651 141.26,-193.127 145.929,-202.638 150.841,-197.651"/>
</g>
<!-- Node29&#45;&gt;Node4 -->
<g id="edge49" class="edge"><title>Node29&#45;&gt;Node4</title>
<path fill="none" stroke="midnightblue" d="M178.062,-173.975C235.326,-163.261 333.55,-144.882 395.098,-133.366"/>
<polygon fill="midnightblue" stroke="midnightblue" points="395.837,-136.789 405.023,-131.509 394.55,-129.908 395.837,-136.789"/>
</g>
<!-- Node29&#45;&gt;Node9 -->
<g id="edge51" class="edge"><title>Node29&#45;&gt;Node9</title>
<path fill="none" stroke="midnightblue" d="M123.935,-173.886C111.883,-160.671 92.3573,-134.552 101.5,-112 116.802,-74.2545 153.731,-42.8394 177.632,-25.5159"/>
<polygon fill="midnightblue" stroke="midnightblue" points="179.91,-28.1935 186.083,-19.5826 175.887,-22.4646 179.91,-28.1935"/>
</g>
<!-- Node29&#45;&gt;Node26 -->
<g id="edge53" class="edge"><title>Node29&#45;&gt;Node26</title>
<path fill="none" stroke="midnightblue" d="M151.126,-173.975C172.943,-163.99 209.304,-147.348 234.517,-135.807"/>
<polygon fill="midnightblue" stroke="midnightblue" points="236.272,-138.853 243.909,-131.509 233.359,-132.488 236.272,-138.853"/>
</g>
<!-- Node30 -->
<g id="node30" class="node"><title>Node30</title>
<polygon fill="white" stroke="#bfbfbf" points="110.5,-112.5 110.5,-131.5 154.5,-131.5 154.5,-112.5 110.5,-112.5"/>
<text text-anchor="middle" x="132.5" y="-119.5" font-family="Helvetica,sans-Serif" font-size="10.00">ctime</text>
</g>
<!-- Node29&#45;&gt;Node30 -->
<g id="edge50" class="edge"><title>Node29&#45;&gt;Node30</title>
<path fill="none" stroke="midnightblue" d="M132.5,-173.975C132.5,-165.58 132.5,-152.481 132.5,-141.663"/>
<polygon fill="midnightblue" stroke="midnightblue" points="136,-141.509 132.5,-131.509 129,-141.509 136,-141.509"/>
</g>
<!-- Node31 -->
<g id="node31" class="node"><title>Node31</title>
<polygon fill="white" stroke="#bfbfbf" points="173,-112.5 173,-131.5 222,-131.5 222,-112.5 173,-112.5"/>
<text text-anchor="middle" x="197.5" y="-119.5" font-family="Helvetica,sans-Serif" font-size="10.00">stdio.h</text>
</g>
<!-- Node29&#45;&gt;Node31 -->
<g id="edge52" class="edge"><title>Node29&#45;&gt;Node31</title>
<path fill="none" stroke="midnightblue" d="M141.813,-173.975C151.949,-164.697 168.364,-149.671 180.752,-138.331"/>
<polygon fill="midnightblue" stroke="midnightblue" points="183.191,-140.843 188.204,-131.509 178.465,-135.68 183.191,-140.843"/>
</g>
</g>
</svg>
