<?xml version="1.0" encoding="UTF-8" standalone="no"?>
<!DOCTYPE svg PUBLIC "-//W3C//DTD SVG 1.1//EN"
 "http://www.w3.org/Graphics/SVG/1.1/DTD/svg11.dtd">
<!-- Generated by graphviz version 2.38.0 (20140413.2041)
 -->
<!-- Title: Graphical Class Hierarchy Pages: 1 -->
<svg width="325pt" height="104pt"
 viewBox="0.00 0.00 325.00 104.00" xmlns="http://www.w3.org/2000/svg" xmlns:xlink="http://www.w3.org/1999/xlink">
<g id="graph0" class="graph" transform="scale(1 1) rotate(0) translate(4 100)">
<title>Graphical Class Hierarchy</title>
<polygon fill="white" stroke="none" points="-4,4 -4,-100 321,-100 321,4 -4,4"/>
<!-- Node1 -->
<g id="node1" class="node"><title>Node1</title>
<g id="a_node1"><a xlink:href="classRa_1_1Core_1_1Asset_1_1FileLoaderInterface.html" target="_top" xlink:title="Ra::Core::Asset::FileLoader\lInterface">
<polygon fill="white" stroke="black" points="0,-33 0,-63 144,-63 144,-33 0,-33"/>
<text text-anchor="start" x="8" y="-51" font-family="Helvetica,sans-Serif" font-size="10.00">Ra::Core::Asset::FileLoader</text>
<text text-anchor="middle" x="72" y="-40" font-family="Helvetica,sans-Serif" font-size="10.00">Interface</text>
</a>
</g>
</g>
<!-- Node2 -->
<g id="node2" class="node"><title>Node2</title>
<g id="a_node2"><a xlink:href="classRa_1_1IO_1_1AssimpFileLoader.html" target="_top" xlink:title="This class loads scenes containing MESHES only (not point&#45;clouds) ">
<polygon fill="white" stroke="black" points="181.5,-76.5 181.5,-95.5 315.5,-95.5 315.5,-76.5 181.5,-76.5"/>
<text text-anchor="middle" x="248.5" y="-83.5" font-family="Helvetica,sans-Serif" font-size="10.00">Ra::IO::AssimpFileLoader</text>
</a>
</g>
</g>
<!-- Node1&#45;&gt;Node2 -->
<g id="edge1" class="edge"><title>Node1&#45;&gt;Node2</title>
<path fill="none" stroke="midnightblue" d="M151.834,-65.1673C169.718,-69.0618 188.078,-73.06 203.871,-76.4991"/>
<polygon fill="midnightblue" stroke="midnightblue" points="152.483,-61.7266 141.967,-63.0186 150.993,-68.5663 152.483,-61.7266"/>
</g>
<!-- Node3 -->
<g id="node3" class="node"><title>Node3</title>
<g id="a_node3"><a xlink:href="classRa_1_1IO_1_1CameraFileLoader.html" target="_top" xlink:title="Ra::IO::CameraFileLoader">
<polygon fill="white" stroke="black" points="180,-38.5 180,-57.5 317,-57.5 317,-38.5 180,-38.5"/>
<text text-anchor="middle" x="248.5" y="-45.5" font-family="Helvetica,sans-Serif" font-size="10.00">Ra::IO::CameraFileLoader</text>
</a>
</g>
</g>
<!-- Node1&#45;&gt;Node3 -->
<g id="edge2" class="edge"><title>Node1&#45;&gt;Node3</title>
<path fill="none" stroke="midnightblue" d="M154.243,-48C162.822,-48 171.478,-48 179.879,-48"/>
<polygon fill="midnightblue" stroke="midnightblue" points="154.228,-44.5001 144.228,-48 154.227,-51.5001 154.228,-44.5001"/>
</g>
<!-- Node4 -->
<g id="node4" class="node"><title>Node4</title>
<g id="a_node4"><a xlink:href="classRa_1_1IO_1_1TinyPlyFileLoader.html" target="_top" xlink:title="Ra::IO::TinyPlyFileLoader">
<polygon fill="white" stroke="black" points="183,-0.5 183,-19.5 314,-19.5 314,-0.5 183,-0.5"/>
<text text-anchor="middle" x="248.5" y="-7.5" font-family="Helvetica,sans-Serif" font-size="10.00">Ra::IO::TinyPlyFileLoader</text>
</a>
</g>
</g>
<!-- Node1&#45;&gt;Node4 -->
<g id="edge3" class="edge"><title>Node1&#45;&gt;Node4</title>
<path fill="none" stroke="midnightblue" d="M151.834,-30.8327C169.718,-26.9382 188.078,-22.94 203.871,-19.5009"/>
<polygon fill="midnightblue" stroke="midnightblue" points="150.993,-27.4337 141.967,-32.9814 152.483,-34.2734 150.993,-27.4337"/>
</g>
</g>
</svg>
