<?xml version="1.0" encoding="UTF-8" standalone="no"?>
<!DOCTYPE svg PUBLIC "-//W3C//DTD SVG 1.1//EN"
 "http://www.w3.org/Graphics/SVG/1.1/DTD/svg11.dtd">
<!-- Generated by graphviz version 2.38.0 (20140413.2041)
 -->
<!-- Title: Graphical Class Hierarchy Pages: 1 -->
<svg width="250pt" height="88pt"
 viewBox="0.00 0.00 250.00 88.00" xmlns="http://www.w3.org/2000/svg" xmlns:xlink="http://www.w3.org/1999/xlink">
<g id="graph0" class="graph" transform="scale(1 1) rotate(0) translate(4 84)">
<title>Graphical Class Hierarchy</title>
<polygon fill="white" stroke="none" points="-4,4 -4,-84 246,-84 246,4 -4,4"/>
<!-- Node1 -->
<g id="node1" class="node"><title>Node1</title>
<polygon fill="white" stroke="#bfbfbf" points="0,-30 0,-49 72,-49 72,-30 0,-30"/>
<text text-anchor="middle" x="36" y="-37" font-family="Helvetica,sans-Serif" font-size="10.00">SubdividerT</text>
</g>
<!-- Node2 -->
<g id="node2" class="node"><title>Node2</title>
<g id="a_node2"><a xlink:href="classRa_1_1Core_1_1Geometry_1_1CatmullClarkSubdivider.html" target="_top" xlink:title="This class implements the Catmull&#45;Clark subdivision algorithm. ">
<polygon fill="white" stroke="black" points="108,-49.5 108,-79.5 242,-79.5 242,-49.5 108,-49.5"/>
<text text-anchor="start" x="116" y="-67.5" font-family="Helvetica,sans-Serif" font-size="10.00">Ra::Core::Geometry</text>
<text text-anchor="middle" x="175" y="-56.5" font-family="Helvetica,sans-Serif" font-size="10.00">::CatmullClarkSubdivider</text>
</a>
</g>
</g>
<!-- Node1&#45;&gt;Node2 -->
<g id="edge1" class="edge"><title>Node1&#45;&gt;Node2</title>
<path fill="none" stroke="midnightblue" d="M82.3777,-47.7806C90.5942,-49.28 99.3135,-50.8711 107.98,-52.4525"/>
<polygon fill="midnightblue" stroke="midnightblue" points="82.7468,-44.2902 72.2809,-45.9381 81.4901,-51.1765 82.7468,-44.2902"/>
</g>
<!-- Node3 -->
<g id="node3" class="node"><title>Node3</title>
<g id="a_node3"><a xlink:href="classRa_1_1Core_1_1Geometry_1_1LoopSubdivider.html" target="_top" xlink:title="This class implements the Loop subdivision algorithm. ">
<polygon fill="white" stroke="black" points="119.5,-0.5 119.5,-30.5 230.5,-30.5 230.5,-0.5 119.5,-0.5"/>
<text text-anchor="start" x="127.5" y="-18.5" font-family="Helvetica,sans-Serif" font-size="10.00">Ra::Core::Geometry</text>
<text text-anchor="middle" x="175" y="-7.5" font-family="Helvetica,sans-Serif" font-size="10.00">::LoopSubdivider</text>
</a>
</g>
</g>
<!-- Node1&#45;&gt;Node3 -->
<g id="edge2" class="edge"><title>Node1&#45;&gt;Node3</title>
<path fill="none" stroke="midnightblue" d="M82.3876,-31.5489C94.2426,-29.4721 107.144,-27.212 119.422,-25.0611"/>
<polygon fill="midnightblue" stroke="midnightblue" points="81.5269,-28.1463 72.2809,-33.3194 82.7349,-35.0413 81.5269,-28.1463"/>
</g>
</g>
</svg>
