<?xml version="1.0" encoding="UTF-8" standalone="no"?>
<!DOCTYPE svg PUBLIC "-//W3C//DTD SVG 1.1//EN"
 "http://www.w3.org/Graphics/SVG/1.1/DTD/svg11.dtd">
<!-- Generated by graphviz version 2.38.0 (20140413.2041)
 -->
<!-- Title: Graphical Class Hierarchy Pages: 1 -->
<svg width="540pt" height="465pt"
 viewBox="0.00 0.00 540.00 465.00" xmlns="http://www.w3.org/2000/svg" xmlns:xlink="http://www.w3.org/1999/xlink">
<g id="graph0" class="graph" transform="scale(1 1) rotate(0) translate(4 461)">
<title>Graphical Class Hierarchy</title>
<polygon fill="white" stroke="none" points="-4,4 -4,-461 536,-461 536,4 -4,4"/>
<!-- Node1 -->
<g id="node1" class="node"><title>Node1</title>
<g id="a_node1"><a xlink:href="classRa_1_1Engine_1_1Component.html" target="_top" xlink:title="A component is an element that can be updated by a system. ">
<polygon fill="white" stroke="black" points="0,-213 0,-232 129,-232 129,-213 0,-213"/>
<text text-anchor="middle" x="64.5" y="-220" font-family="Helvetica,sans-Serif" font-size="10.00">Ra::Engine::Component</text>
</a>
</g>
</g>
<!-- Node2 -->
<g id="node2" class="node"><title>Node2</title>
<g id="a_node2"><a xlink:href="classAnimationPlugin_1_1AnimationComponent.html" target="_top" xlink:title="The AnimationComponent is responsible for the management of skeleton&#45;based character animations...">
<polygon fill="white" stroke="black" points="182.5,-426.5 182.5,-456.5 331.5,-456.5 331.5,-426.5 182.5,-426.5"/>
<text text-anchor="start" x="190.5" y="-444.5" font-family="Helvetica,sans-Serif" font-size="10.00">AnimationPlugin::Animation</text>
<text text-anchor="middle" x="257" y="-433.5" font-family="Helvetica,sans-Serif" font-size="10.00">Component</text>
</a>
</g>
</g>
<!-- Node1&#45;&gt;Node2 -->
<g id="edge1" class="edge"><title>Node1&#45;&gt;Node2</title>
<path fill="none" stroke="midnightblue" d="M69.9703,-242.25C79.9178,-281.578 107.666,-369.899 165,-416.5 170.213,-420.737 176.09,-424.258 182.285,-427.184"/>
<polygon fill="midnightblue" stroke="midnightblue" points="73.3246,-241.229 67.58,-232.326 66.5192,-242.868 73.3246,-241.229"/>
</g>
<!-- Node3 -->
<g id="node3" class="node"><title>Node3</title>
<g id="a_node3"><a xlink:href="classDummyPlugin_1_1DummyComponent.html" target="_top" xlink:title="DummyPlugin::DummyComponent">
<polygon fill="white" stroke="black" points="165,-388 165,-407 349,-407 349,-388 165,-388"/>
<text text-anchor="middle" x="257" y="-395" font-family="Helvetica,sans-Serif" font-size="10.00">DummyPlugin::DummyComponent</text>
</a>
</g>
</g>
<!-- Node1&#45;&gt;Node3 -->
<g id="edge2" class="edge"><title>Node1&#45;&gt;Node3</title>
<path fill="none" stroke="midnightblue" d="M72.016,-241.612C84.4593,-275.053 114.914,-343.907 165,-378.5 170.578,-382.352 176.774,-385.452 183.237,-387.942"/>
<polygon fill="midnightblue" stroke="midnightblue" points="75.272,-240.323 68.6068,-232.087 68.6815,-242.682 75.272,-240.323"/>
</g>
<!-- Node4 -->
<g id="node4" class="node"><title>Node4</title>
<g id="a_node4"><a xlink:href="classMeshFeatureTrackingPlugin_1_1MeshFeatureTrackingComponent.html" target="_top" xlink:title="MeshFeatureTrackingPlugin\l::MeshFeatureTrackingComponent">
<polygon fill="white" stroke="black" points="167.5,-338.5 167.5,-368.5 346.5,-368.5 346.5,-338.5 167.5,-338.5"/>
<text text-anchor="start" x="175.5" y="-356.5" font-family="Helvetica,sans-Serif" font-size="10.00">MeshFeatureTrackingPlugin</text>
<text text-anchor="middle" x="257" y="-345.5" font-family="Helvetica,sans-Serif" font-size="10.00">::MeshFeatureTrackingComponent</text>
</a>
</g>
</g>
<!-- Node1&#45;&gt;Node4 -->
<g id="edge3" class="edge"><title>Node1&#45;&gt;Node4</title>
<path fill="none" stroke="midnightblue" d="M77.4484,-240.726C94.1533,-264.737 126.772,-306.596 165,-329.5 170.746,-332.943 176.986,-335.899 183.414,-338.435"/>
<polygon fill="midnightblue" stroke="midnightblue" points="80.1711,-238.505 71.6614,-232.193 74.3778,-242.434 80.1711,-238.505"/>
</g>
<!-- Node5 -->
<g id="node5" class="node"><title>Node5</title>
<g id="a_node5"><a xlink:href="classMeshPaintPlugin_1_1MeshPaintComponent.html" target="_top" xlink:title="MeshPaintPlugin::MeshPaint\lComponent">
<polygon fill="white" stroke="black" points="182.5,-289.5 182.5,-319.5 331.5,-319.5 331.5,-289.5 182.5,-289.5"/>
<text text-anchor="start" x="190.5" y="-307.5" font-family="Helvetica,sans-Serif" font-size="10.00">MeshPaintPlugin::MeshPaint</text>
<text text-anchor="middle" x="257" y="-296.5" font-family="Helvetica,sans-Serif" font-size="10.00">Component</text>
</a>
</g>
</g>
<!-- Node1&#45;&gt;Node5 -->
<g id="edge4" class="edge"><title>Node1&#45;&gt;Node5</title>
<path fill="none" stroke="midnightblue" d="M88.2858,-237.773C107.924,-250.384 137.389,-268.016 165,-279.5 173.925,-283.212 183.57,-286.541 193.129,-289.467"/>
<polygon fill="midnightblue" stroke="midnightblue" points="90.0303,-234.732 79.7416,-232.203 86.2077,-240.596 90.0303,-234.732"/>
</g>
<!-- Node6 -->
<g id="node6" class="node"><title>Node6</title>
<g id="a_node6"><a xlink:href="classRa_1_1Engine_1_1Camera.html" target="_top" xlink:title="A Camera is an Engine Component storing a Camera object. ">
<polygon fill="white" stroke="black" points="201.5,-251 201.5,-270 312.5,-270 312.5,-251 201.5,-251"/>
<text text-anchor="middle" x="257" y="-258" font-family="Helvetica,sans-Serif" font-size="10.00">Ra::Engine::Camera</text>
</a>
</g>
</g>
<!-- Node1&#45;&gt;Node6 -->
<g id="edge5" class="edge"><title>Node1&#45;&gt;Node6</title>
<path fill="none" stroke="midnightblue" d="M123.7,-234.11C150.794,-239.514 182.625,-245.864 208.274,-250.98"/>
<polygon fill="midnightblue" stroke="midnightblue" points="124.063,-230.613 113.571,-232.089 122.693,-237.478 124.063,-230.613"/>
</g>
<!-- Node7 -->
<g id="node7" class="node"><title>Node7</title>
<g id="a_node7"><a xlink:href="classRa_1_1Engine_1_1DebugComponent.html" target="_top" xlink:title="Component for debug drawing. ">
<polygon fill="white" stroke="black" points="176.5,-213 176.5,-232 337.5,-232 337.5,-213 176.5,-213"/>
<text text-anchor="middle" x="257" y="-220" font-family="Helvetica,sans-Serif" font-size="10.00">Ra::Engine::DebugComponent</text>
</a>
</g>
</g>
<!-- Node1&#45;&gt;Node7 -->
<g id="edge6" class="edge"><title>Node1&#45;&gt;Node7</title>
<path fill="none" stroke="midnightblue" d="M139.29,-222.5C151.463,-222.5 164.13,-222.5 176.437,-222.5"/>
<polygon fill="midnightblue" stroke="midnightblue" points="139.199,-219 129.199,-222.5 139.199,-226 139.199,-219"/>
</g>
<!-- Node8 -->
<g id="node8" class="node"><title>Node8</title>
<g id="a_node8"><a xlink:href="classRa_1_1Engine_1_1GeometryComponent.html" target="_top" xlink:title="Main class to convert Ra::Core::Asset::GeometryData to Ra::Engine::Mesh. ">
<polygon fill="white" stroke="black" points="168.5,-175 168.5,-194 345.5,-194 345.5,-175 168.5,-175"/>
<text text-anchor="middle" x="257" y="-182" font-family="Helvetica,sans-Serif" font-size="10.00">Ra::Engine::GeometryComponent</text>
</a>
</g>
</g>
<!-- Node1&#45;&gt;Node8 -->
<g id="edge7" class="edge"><title>Node1&#45;&gt;Node8</title>
<path fill="none" stroke="midnightblue" d="M123.7,-210.89C150.794,-205.486 182.625,-199.136 208.274,-194.02"/>
<polygon fill="midnightblue" stroke="midnightblue" points="122.693,-207.522 113.571,-212.911 124.063,-214.387 122.693,-207.522"/>
</g>
<!-- Node9 -->
<g id="node9" class="node"><title>Node9</title>
<g id="a_node9"><a xlink:href="classRa_1_1Engine_1_1Light.html" target="_top" xlink:title="Light base classe for rendering. ">
<polygon fill="white" stroke="black" points="209,-137 209,-156 305,-156 305,-137 209,-137"/>
<text text-anchor="middle" x="257" y="-144" font-family="Helvetica,sans-Serif" font-size="10.00">Ra::Engine::Light</text>
</a>
</g>
</g>
<!-- Node1&#45;&gt;Node9 -->
<g id="edge8" class="edge"><title>Node1&#45;&gt;Node9</title>
<path fill="none" stroke="midnightblue" d="M87.44,-207.226C106.963,-194.311 136.724,-176.241 165,-165.5 178.88,-160.227 194.537,-156.29 208.9,-153.41"/>
<polygon fill="midnightblue" stroke="midnightblue" points="85.3191,-204.435 78.9813,-212.925 89.2304,-210.24 85.3191,-204.435"/>
</g>
<!-- Node13 -->
<g id="node13" class="node"><title>Node13</title>
<g id="a_node13"><a xlink:href="classRa_1_1Engine_1_1UiComponent.html" target="_top" xlink:title="Component for UI drawing. ">
<polygon fill="white" stroke="black" points="187.5,-99 187.5,-118 326.5,-118 326.5,-99 187.5,-99"/>
<text text-anchor="middle" x="257" y="-106" font-family="Helvetica,sans-Serif" font-size="10.00">Ra::Engine::UiComponent</text>
</a>
</g>
</g>
<!-- Node1&#45;&gt;Node13 -->
<g id="edge12" class="edge"><title>Node1&#45;&gt;Node13</title>
<path fill="none" stroke="midnightblue" d="M78.7834,-204.803C96.1225,-183.042 128.584,-146.647 165,-127.5 172.428,-123.594 180.593,-120.492 188.89,-118.026"/>
<polygon fill="midnightblue" stroke="midnightblue" points="75.8789,-202.837 72.507,-212.881 81.4064,-207.132 75.8789,-202.837"/>
</g>
<!-- Node14 -->
<g id="node14" class="node"><title>Node14</title>
<g id="a_node14"><a xlink:href="classSkinningPlugin_1_1SkinningComponent.html" target="_top" xlink:title="The SkinningComponent class is responsible for applying Geometric Skinning Methods on an animated obj...">
<polygon fill="white" stroke="black" points="191,-49.5 191,-79.5 323,-79.5 323,-49.5 191,-49.5"/>
<text text-anchor="start" x="199" y="-67.5" font-family="Helvetica,sans-Serif" font-size="10.00">SkinningPlugin::Skinning</text>
<text text-anchor="middle" x="257" y="-56.5" font-family="Helvetica,sans-Serif" font-size="10.00">Component</text>
</a>
</g>
</g>
<!-- Node1&#45;&gt;Node14 -->
<g id="edge13" class="edge"><title>Node1&#45;&gt;Node14</title>
<path fill="none" stroke="midnightblue" d="M74.4295,-203.654C89.1542,-174.643 121.305,-119.285 165,-89.5 172.852,-84.1477 181.817,-79.9374 190.988,-76.6263"/>
<polygon fill="midnightblue" stroke="midnightblue" points="71.2371,-202.215 69.9576,-212.732 77.5165,-205.308 71.2371,-202.215"/>
</g>
<!-- Node15 -->
<g id="node15" class="node"><title>Node15</title>
<g id="a_node15"><a xlink:href="classSkinningPlugin_1_1SkinningDisplayComponent.html" target="_top" xlink:title="SkinningPlugin::Skinning\lDisplayComponent">
<polygon fill="white" stroke="black" points="191,-0.5 191,-30.5 323,-30.5 323,-0.5 191,-0.5"/>
<text text-anchor="start" x="199" y="-18.5" font-family="Helvetica,sans-Serif" font-size="10.00">SkinningPlugin::Skinning</text>
<text text-anchor="middle" x="257" y="-7.5" font-family="Helvetica,sans-Serif" font-size="10.00">DisplayComponent</text>
</a>
</g>
</g>
<!-- Node1&#45;&gt;Node15 -->
<g id="edge14" class="edge"><title>Node1&#45;&gt;Node15</title>
<path fill="none" stroke="midnightblue" d="M70.5635,-203.194C81.3614,-165.898 110.25,-83.8139 165,-40.5 172.581,-34.5025 181.501,-29.9416 190.741,-26.4737"/>
<polygon fill="midnightblue" stroke="midnightblue" points="67.1856,-202.277 67.8871,-212.848 73.9313,-204.147 67.1856,-202.277"/>
</g>
<!-- Node10 -->
<g id="node10" class="node"><title>Node10</title>
<g id="a_node10"><a xlink:href="classRa_1_1Engine_1_1DirectionalLight.html" target="_top" xlink:title="Directional light for rendering. ">
<polygon fill="white" stroke="black" points="385,-175 385,-194 532,-194 532,-175 385,-175"/>
<text text-anchor="middle" x="458.5" y="-182" font-family="Helvetica,sans-Serif" font-size="10.00">Ra::Engine::DirectionalLight</text>
</a>
</g>
</g>
<!-- Node9&#45;&gt;Node10 -->
<g id="edge9" class="edge"><title>Node9&#45;&gt;Node10</title>
<path fill="none" stroke="midnightblue" d="M315.05,-157.367C344.154,-162.91 379.236,-169.593 407.302,-174.938"/>
<polygon fill="midnightblue" stroke="midnightblue" points="315.504,-153.89 305.026,-155.457 314.195,-160.767 315.504,-153.89"/>
</g>
<!-- Node11 -->
<g id="node11" class="node"><title>Node11</title>
<g id="a_node11"><a xlink:href="classRa_1_1Engine_1_1PointLight.html" target="_top" xlink:title="Point light for rendering. ">
<polygon fill="white" stroke="black" points="398.5,-137 398.5,-156 518.5,-156 518.5,-137 398.5,-137"/>
<text text-anchor="middle" x="458.5" y="-144" font-family="Helvetica,sans-Serif" font-size="10.00">Ra::Engine::PointLight</text>
</a>
</g>
</g>
<!-- Node9&#45;&gt;Node11 -->
<g id="edge10" class="edge"><title>Node9&#45;&gt;Node11</title>
<path fill="none" stroke="midnightblue" d="M315.123,-146.5C341.165,-146.5 371.982,-146.5 398.273,-146.5"/>
<polygon fill="midnightblue" stroke="midnightblue" points="315.026,-143 305.026,-146.5 315.026,-150 315.026,-143"/>
</g>
<!-- Node12 -->
<g id="node12" class="node"><title>Node12</title>
<g id="a_node12"><a xlink:href="classRa_1_1Engine_1_1SpotLight.html" target="_top" xlink:title="Spot light for rendering. ">
<polygon fill="white" stroke="black" points="399,-99 399,-118 518,-118 518,-99 399,-99"/>
<text text-anchor="middle" x="458.5" y="-106" font-family="Helvetica,sans-Serif" font-size="10.00">Ra::Engine::SpotLight</text>
</a>
</g>
</g>
<!-- Node9&#45;&gt;Node12 -->
<g id="edge11" class="edge"><title>Node9&#45;&gt;Node12</title>
<path fill="none" stroke="midnightblue" d="M315.05,-135.633C344.154,-130.09 379.236,-123.407 407.302,-118.062"/>
<polygon fill="midnightblue" stroke="midnightblue" points="314.195,-132.233 305.026,-137.543 315.504,-139.11 314.195,-132.233"/>
</g>
</g>
</svg>
