<?xml version="1.0" encoding="UTF-8" standalone="no"?>
<!DOCTYPE svg PUBLIC "-//W3C//DTD SVG 1.1//EN"
 "http://www.w3.org/Graphics/SVG/1.1/DTD/svg11.dtd">
<!-- Generated by graphviz version 2.38.0 (20140413.2041)
 -->
<!-- Title: std::begin Pages: 1 -->
<svg width="172pt" height="46pt"
 viewBox="0.00 0.00 172.00 46.00" xmlns="http://www.w3.org/2000/svg" xmlns:xlink="http://www.w3.org/1999/xlink">
<g id="graph0" class="graph" transform="scale(1 1) rotate(0) translate(4 42)">
<title>std::begin</title>
<polygon fill="white" stroke="none" points="-4,4 -4,-42 168,-42 168,4 -4,4"/>
<!-- Node1 -->
<g id="node1" class="node"><title>Node1</title>
<polygon fill="#bfbfbf" stroke="black" points="0,-0.5 0,-19.5 64,-19.5 64,-0.5 0,-0.5"/>
<text text-anchor="middle" x="32" y="-7.5" font-family="Helvetica,sans-Serif" font-size="10.00">std::begin</text>
</g>
<!-- Node2 -->
<g id="node2" class="node"><title>Node2</title>
<g id="a_node2"><a xlink:href="Iterators_8hpp.html#a2ec0457efd375f5ced912c33ac72d2b8" target="_top" xlink:title="std::begin">
<polygon fill="white" stroke="black" points="100,-0.5 100,-19.5 164,-19.5 164,-0.5 100,-0.5"/>
<text text-anchor="middle" x="132" y="-7.5" font-family="Helvetica,sans-Serif" font-size="10.00">std::begin</text>
</a>
</g>
</g>
<!-- Node1&#45;&gt;Node2 -->
<g id="edge1" class="edge"><title>Node1&#45;&gt;Node2</title>
<path fill="none" stroke="midnightblue" d="M64.0078,-10C72.1406,-10 81.0413,-10 89.6223,-10"/>
<polygon fill="midnightblue" stroke="midnightblue" points="89.8576,-13.5001 99.8575,-10 89.8575,-6.5001 89.8576,-13.5001"/>
</g>
<!-- Node2&#45;&gt;Node2 -->
<g id="edge2" class="edge"><title>Node2&#45;&gt;Node2</title>
<path fill="none" stroke="midnightblue" d="M116.587,-19.7571C109.089,-28.5653 114.227,-38 132,-38 143.108,-38 149.281,-34.3146 150.518,-29.4"/>
<polygon fill="midnightblue" stroke="midnightblue" points="153.809,-28.2032 147.413,-19.7571 147.146,-30.3485 153.809,-28.2032"/>
</g>
</g>
</svg>
