<?xml version="1.0" encoding="UTF-8" standalone="no"?>
<!DOCTYPE svg PUBLIC "-//W3C//DTD SVG 1.1//EN"
 "http://www.w3.org/Graphics/SVG/1.1/DTD/svg11.dtd">
<!-- Generated by graphviz version 2.38.0 (20140413.2041)
 -->
<!-- Title: /home/travis/build/STORM&#45;IRIT/Radium&#45;Engine/src/Core/Animation/KeyFrame.hpp Pages: 1 -->
<svg width="869pt" height="285pt"
 viewBox="0.00 0.00 869.00 285.00" xmlns="http://www.w3.org/2000/svg" xmlns:xlink="http://www.w3.org/1999/xlink">
<g id="graph0" class="graph" transform="scale(1 1) rotate(0) translate(4 281)">
<title>/home/travis/build/STORM&#45;IRIT/Radium&#45;Engine/src/Core/Animation/KeyFrame.hpp</title>
<polygon fill="white" stroke="none" points="-4,4 -4,-281 865,-281 865,4 -4,4"/>
<!-- Node1 -->
<g id="node1" class="node"><title>Node1</title>
<polygon fill="#bfbfbf" stroke="black" points="170,-235.5 170,-276.5 352,-276.5 352,-235.5 170,-235.5"/>
<text text-anchor="start" x="178" y="-264.5" font-family="Helvetica,sans-Serif" font-size="10.00">/home/travis/build</text>
<text text-anchor="start" x="178" y="-253.5" font-family="Helvetica,sans-Serif" font-size="10.00">/STORM&#45;IRIT/Radium&#45;Engine</text>
<text text-anchor="middle" x="261" y="-242.5" font-family="Helvetica,sans-Serif" font-size="10.00">/src/Core/Animation/KeyFrame.hpp</text>
</g>
<!-- Node2 -->
<g id="node2" class="node"><title>Node2</title>
<polygon fill="white" stroke="#bfbfbf" points="58,-174 58,-193 96,-193 96,-174 58,-174"/>
<text text-anchor="middle" x="77" y="-181" font-family="Helvetica,sans-Serif" font-size="10.00">map</text>
</g>
<!-- Node1&#45;&gt;Node2 -->
<g id="edge1" class="edge"><title>Node1&#45;&gt;Node2</title>
<path fill="none" stroke="midnightblue" d="M200.638,-235.431C171.399,-225.422 135.992,-212.516 105,-199 103.971,-198.551 102.928,-198.082 101.879,-197.597"/>
<polygon fill="midnightblue" stroke="midnightblue" points="103.039,-194.268 92.5194,-193.003 99.954,-200.551 103.039,-194.268"/>
</g>
<!-- Node3 -->
<g id="node3" class="node"><title>Node3</title>
<polygon fill="white" stroke="#bfbfbf" points="114,-174 114,-193 146,-193 146,-174 114,-174"/>
<text text-anchor="middle" x="130" y="-181" font-family="Helvetica,sans-Serif" font-size="10.00">set</text>
</g>
<!-- Node1&#45;&gt;Node3 -->
<g id="edge2" class="edge"><title>Node1&#45;&gt;Node3</title>
<path fill="none" stroke="midnightblue" d="M223.03,-235.404C202.739,-224.816 177.395,-211.404 155,-199 154.465,-198.704 153.924,-198.403 153.38,-198.098"/>
<polygon fill="midnightblue" stroke="midnightblue" points="154.908,-194.941 144.486,-193.032 151.443,-201.023 154.908,-194.941"/>
</g>
<!-- Node4 -->
<g id="node4" class="node"><title>Node4</title>
<g id="a_node4"><a xlink:href="AlignedAllocator_8hpp.html" target="_top" xlink:title="Core/Containers/AlignedAllocator.hpp">
<polygon fill="white" stroke="black" points="164,-174 164,-193 358,-193 358,-174 164,-174"/>
<text text-anchor="middle" x="261" y="-181" font-family="Helvetica,sans-Serif" font-size="10.00">Core/Containers/AlignedAllocator.hpp</text>
</a>
</g>
</g>
<!-- Node1&#45;&gt;Node4 -->
<g id="edge3" class="edge"><title>Node1&#45;&gt;Node4</title>
<path fill="none" stroke="midnightblue" d="M261,-235.362C261,-225.297 261,-213.104 261,-203.18"/>
<polygon fill="midnightblue" stroke="midnightblue" points="264.5,-203.173 261,-193.173 257.5,-203.173 264.5,-203.173"/>
</g>
<!-- Node16 -->
<g id="node16" class="node"><title>Node16</title>
<g id="a_node16"><a xlink:href="Types_8hpp.html" target="_top" xlink:title="Core/Math/Types.hpp">
<polygon fill="white" stroke="black" points="395,-174 395,-193 511,-193 511,-174 395,-174"/>
<text text-anchor="middle" x="453" y="-181" font-family="Helvetica,sans-Serif" font-size="10.00">Core/Math/Types.hpp</text>
</a>
</g>
</g>
<!-- Node1&#45;&gt;Node16 -->
<g id="edge15" class="edge"><title>Node1&#45;&gt;Node16</title>
<path fill="none" stroke="midnightblue" d="M314.228,-235.455C348.18,-222.989 391.103,-207.228 420.156,-196.56"/>
<polygon fill="midnightblue" stroke="midnightblue" points="421.635,-199.745 429.816,-193.013 419.222,-193.174 421.635,-199.745"/>
</g>
<!-- Node20 -->
<g id="node20" class="node"><title>Node20</title>
<g id="a_node20"><a xlink:href="AnimationTime_8hpp.html" target="_top" xlink:title="Core/Animation/Animation\lTime.hpp">
<polygon fill="white" stroke="black" points="679.5,-168.5 679.5,-198.5 822.5,-198.5 822.5,-168.5 679.5,-168.5"/>
<text text-anchor="start" x="687.5" y="-186.5" font-family="Helvetica,sans-Serif" font-size="10.00">Core/Animation/Animation</text>
<text text-anchor="middle" x="751" y="-175.5" font-family="Helvetica,sans-Serif" font-size="10.00">Time.hpp</text>
</a>
</g>
</g>
<!-- Node1&#45;&gt;Node20 -->
<g id="edge20" class="edge"><title>Node1&#45;&gt;Node20</title>
<path fill="none" stroke="midnightblue" d="M352.017,-241.905C442.933,-228.824 581.423,-208.898 669.018,-196.295"/>
<polygon fill="midnightblue" stroke="midnightblue" points="669.777,-199.722 679.177,-194.834 668.78,-192.794 669.777,-199.722"/>
</g>
<!-- Node5 -->
<g id="node5" class="node"><title>Node5</title>
<g id="a_node5"><a xlink:href="RaCore_8hpp.html" target="_top" xlink:title="Core/RaCore.hpp">
<polygon fill="white" stroke="black" points="303,-112.5 303,-131.5 401,-131.5 401,-112.5 303,-112.5"/>
<text text-anchor="middle" x="352" y="-119.5" font-family="Helvetica,sans-Serif" font-size="10.00">Core/RaCore.hpp</text>
</a>
</g>
</g>
<!-- Node4&#45;&gt;Node5 -->
<g id="edge4" class="edge"><title>Node4&#45;&gt;Node5</title>
<path fill="none" stroke="midnightblue" d="M274.038,-173.975C288.769,-164.343 312.973,-148.517 330.509,-137.052"/>
<polygon fill="midnightblue" stroke="midnightblue" points="332.532,-139.911 338.986,-131.509 328.701,-134.052 332.532,-139.911"/>
</g>
<!-- Node12 -->
<g id="node12" class="node"><title>Node12</title>
<polygon fill="white" stroke="#bfbfbf" points="0,-112.5 0,-131.5 82,-131.5 82,-112.5 0,-112.5"/>
<text text-anchor="middle" x="41" y="-119.5" font-family="Helvetica,sans-Serif" font-size="10.00">mm_malloc.h</text>
</g>
<!-- Node4&#45;&gt;Node12 -->
<g id="edge11" class="edge"><title>Node4&#45;&gt;Node12</title>
<path fill="none" stroke="midnightblue" d="M229.479,-173.975C190.761,-163.504 124.976,-145.712 82.2641,-134.16"/>
<polygon fill="midnightblue" stroke="midnightblue" points="83.0291,-130.741 72.4622,-131.509 81.2016,-137.499 83.0291,-130.741"/>
</g>
<!-- Node13 -->
<g id="node13" class="node"><title>Node13</title>
<polygon fill="white" stroke="#bfbfbf" points="100,-112.5 100,-131.5 152,-131.5 152,-112.5 100,-112.5"/>
<text text-anchor="middle" x="126" y="-119.5" font-family="Helvetica,sans-Serif" font-size="10.00">cstddef</text>
</g>
<!-- Node4&#45;&gt;Node13 -->
<g id="edge12" class="edge"><title>Node4&#45;&gt;Node13</title>
<path fill="none" stroke="midnightblue" d="M241.658,-173.975C218.901,-163.945 180.908,-147.2 154.712,-135.655"/>
<polygon fill="midnightblue" stroke="midnightblue" points="155.869,-132.339 145.306,-131.509 153.045,-138.745 155.869,-132.339"/>
</g>
<!-- Node14 -->
<g id="node14" class="node"><title>Node14</title>
<polygon fill="white" stroke="#bfbfbf" points="170.5,-112.5 170.5,-131.5 219.5,-131.5 219.5,-112.5 170.5,-112.5"/>
<text text-anchor="middle" x="195" y="-119.5" font-family="Helvetica,sans-Serif" font-size="10.00">cstdint</text>
</g>
<!-- Node4&#45;&gt;Node14 -->
<g id="edge13" class="edge"><title>Node4&#45;&gt;Node14</title>
<path fill="none" stroke="midnightblue" d="M251.544,-173.975C241.252,-164.697 224.584,-149.671 212.006,-138.331"/>
<polygon fill="midnightblue" stroke="midnightblue" points="214.21,-135.605 204.439,-131.509 209.522,-140.805 214.21,-135.605"/>
</g>
<!-- Node15 -->
<g id="node15" class="node"><title>Node15</title>
<polygon fill="white" stroke="#bfbfbf" points="237.5,-112.5 237.5,-131.5 284.5,-131.5 284.5,-112.5 237.5,-112.5"/>
<text text-anchor="middle" x="261" y="-119.5" font-family="Helvetica,sans-Serif" font-size="10.00">cstdlib</text>
</g>
<!-- Node4&#45;&gt;Node15 -->
<g id="edge14" class="edge"><title>Node4&#45;&gt;Node15</title>
<path fill="none" stroke="midnightblue" d="M261,-173.975C261,-165.58 261,-152.481 261,-141.663"/>
<polygon fill="midnightblue" stroke="midnightblue" points="264.5,-141.509 261,-131.509 257.5,-141.509 264.5,-141.509"/>
</g>
<!-- Node6 -->
<g id="node6" class="node"><title>Node6</title>
<g id="a_node6"><a xlink:href="CoreMacros_8hpp.html" target="_top" xlink:title="Core/CoreMacros.hpp">
<polygon fill="white" stroke="black" points="478,-56.5 478,-75.5 598,-75.5 598,-56.5 478,-56.5"/>
<text text-anchor="middle" x="538" y="-63.5" font-family="Helvetica,sans-Serif" font-size="10.00">Core/CoreMacros.hpp</text>
</a>
</g>
</g>
<!-- Node5&#45;&gt;Node6 -->
<g id="edge5" class="edge"><title>Node5&#45;&gt;Node6</title>
<path fill="none" stroke="midnightblue" d="M381.472,-112.444C413.171,-103.241 463.732,-88.5617 498.775,-78.3879"/>
<polygon fill="midnightblue" stroke="midnightblue" points="500.038,-81.6658 508.666,-75.5164 498.086,-74.9434 500.038,-81.6658"/>
</g>
<!-- Node7 -->
<g id="node7" class="node"><title>Node7</title>
<polygon fill="white" stroke="#bfbfbf" points="375,-0.5 375,-19.5 427,-19.5 427,-0.5 375,-0.5"/>
<text text-anchor="middle" x="401" y="-7.5" font-family="Helvetica,sans-Serif" font-size="10.00">cassert</text>
</g>
<!-- Node6&#45;&gt;Node7 -->
<g id="edge6" class="edge"><title>Node6&#45;&gt;Node7</title>
<path fill="none" stroke="midnightblue" d="M516.292,-56.4435C493.645,-47.5171 457.928,-33.4387 432.248,-23.3168"/>
<polygon fill="midnightblue" stroke="midnightblue" points="433.193,-19.9273 422.606,-19.5164 430.626,-26.4397 433.193,-19.9273"/>
</g>
<!-- Node8 -->
<g id="node8" class="node"><title>Node8</title>
<polygon fill="white" stroke="#bfbfbf" points="445.5,-0.5 445.5,-19.5 490.5,-19.5 490.5,-0.5 445.5,-0.5"/>
<text text-anchor="middle" x="468" y="-7.5" font-family="Helvetica,sans-Serif" font-size="10.00">cstdio</text>
</g>
<!-- Node6&#45;&gt;Node8 -->
<g id="edge7" class="edge"><title>Node6&#45;&gt;Node8</title>
<path fill="none" stroke="midnightblue" d="M526.753,-56.324C516.203,-48.1849 500.199,-35.8395 487.558,-26.0874"/>
<polygon fill="midnightblue" stroke="midnightblue" points="489.507,-23.1707 479.451,-19.8339 485.231,-28.7132 489.507,-23.1707"/>
</g>
<!-- Node9 -->
<g id="node9" class="node"><title>Node9</title>
<polygon fill="white" stroke="#bfbfbf" points="508.5,-0.5 508.5,-19.5 567.5,-19.5 567.5,-0.5 508.5,-0.5"/>
<text text-anchor="middle" x="538" y="-7.5" font-family="Helvetica,sans-Serif" font-size="10.00">iostream</text>
</g>
<!-- Node6&#45;&gt;Node9 -->
<g id="edge8" class="edge"><title>Node6&#45;&gt;Node9</title>
<path fill="none" stroke="midnightblue" d="M538,-56.083C538,-49.0059 538,-38.8611 538,-29.9865"/>
<polygon fill="midnightblue" stroke="midnightblue" points="541.5,-29.751 538,-19.7511 534.5,-29.7511 541.5,-29.751"/>
</g>
<!-- Node10 -->
<g id="node10" class="node"><title>Node10</title>
<polygon fill="white" stroke="#bfbfbf" points="586,-0.5 586,-19.5 642,-19.5 642,-0.5 586,-0.5"/>
<text text-anchor="middle" x="614" y="-7.5" font-family="Helvetica,sans-Serif" font-size="10.00">sstream</text>
</g>
<!-- Node6&#45;&gt;Node10 -->
<g id="edge9" class="edge"><title>Node6&#45;&gt;Node10</title>
<path fill="none" stroke="midnightblue" d="M550.211,-56.324C561.776,-48.1066 579.375,-35.6017 593.161,-25.8069"/>
<polygon fill="midnightblue" stroke="midnightblue" points="595.443,-28.4791 601.567,-19.8339 591.388,-22.7729 595.443,-28.4791"/>
</g>
<!-- Node11 -->
<g id="node11" class="node"><title>Node11</title>
<polygon fill="white" stroke="#bfbfbf" points="660,-0.5 660,-19.5 708,-19.5 708,-0.5 660,-0.5"/>
<text text-anchor="middle" x="684" y="-7.5" font-family="Helvetica,sans-Serif" font-size="10.00">thread</text>
</g>
<!-- Node6&#45;&gt;Node11 -->
<g id="edge10" class="edge"><title>Node6&#45;&gt;Node11</title>
<path fill="none" stroke="midnightblue" d="M561.134,-56.4435C585.482,-47.4381 624.007,-33.1891 651.423,-23.049"/>
<polygon fill="midnightblue" stroke="midnightblue" points="652.809,-26.2681 660.974,-19.5164 650.381,-19.7028 652.809,-26.2681"/>
</g>
<!-- Node16&#45;&gt;Node5 -->
<g id="edge16" class="edge"><title>Node16&#45;&gt;Node5</title>
<path fill="none" stroke="midnightblue" d="M438.529,-173.975C422.029,-164.255 394.822,-148.227 375.319,-136.737"/>
<polygon fill="midnightblue" stroke="midnightblue" points="376.837,-133.569 366.444,-131.509 373.284,-139.601 376.837,-133.569"/>
</g>
<!-- Node17 -->
<g id="node17" class="node"><title>Node17</title>
<polygon fill="white" stroke="#bfbfbf" points="419,-112.5 419,-131.5 487,-131.5 487,-112.5 419,-112.5"/>
<text text-anchor="middle" x="453" y="-119.5" font-family="Helvetica,sans-Serif" font-size="10.00">Eigen/Core</text>
</g>
<!-- Node16&#45;&gt;Node17 -->
<g id="edge17" class="edge"><title>Node16&#45;&gt;Node17</title>
<path fill="none" stroke="midnightblue" d="M453,-173.975C453,-165.58 453,-152.481 453,-141.663"/>
<polygon fill="midnightblue" stroke="midnightblue" points="456.5,-141.509 453,-131.509 449.5,-141.509 456.5,-141.509"/>
</g>
<!-- Node18 -->
<g id="node18" class="node"><title>Node18</title>
<polygon fill="white" stroke="#bfbfbf" points="505,-112.5 505,-131.5 599,-131.5 599,-112.5 505,-112.5"/>
<text text-anchor="middle" x="552" y="-119.5" font-family="Helvetica,sans-Serif" font-size="10.00">Eigen/Geometry</text>
</g>
<!-- Node16&#45;&gt;Node18 -->
<g id="edge18" class="edge"><title>Node16&#45;&gt;Node18</title>
<path fill="none" stroke="midnightblue" d="M467.184,-173.975C483.358,-164.255 510.026,-148.227 529.143,-136.737"/>
<polygon fill="midnightblue" stroke="midnightblue" points="531.074,-139.66 537.842,-131.509 527.468,-133.661 531.074,-139.66"/>
</g>
<!-- Node19 -->
<g id="node19" class="node"><title>Node19</title>
<polygon fill="white" stroke="#bfbfbf" points="617,-112.5 617,-131.5 697,-131.5 697,-112.5 617,-112.5"/>
<text text-anchor="middle" x="657" y="-119.5" font-family="Helvetica,sans-Serif" font-size="10.00">Eigen/Sparse</text>
</g>
<!-- Node16&#45;&gt;Node19 -->
<g id="edge19" class="edge"><title>Node16&#45;&gt;Node19</title>
<path fill="none" stroke="midnightblue" d="M482.228,-173.975C517.903,-163.57 578.36,-145.937 617.982,-134.38"/>
<polygon fill="midnightblue" stroke="midnightblue" points="619.206,-137.669 627.826,-131.509 617.246,-130.949 619.206,-137.669"/>
</g>
<!-- Node20&#45;&gt;Node6 -->
<g id="edge21" class="edge"><title>Node20&#45;&gt;Node6</title>
<path fill="none" stroke="midnightblue" d="M745.68,-168.346C738.91,-152.272 725.68,-126.415 706,-112 677.755,-91.311 640.632,-80.1318 608.466,-74.0921"/>
<polygon fill="midnightblue" stroke="midnightblue" points="608.667,-70.5745 598.215,-72.3062 607.466,-77.4706 608.667,-70.5745"/>
</g>
<!-- Node21 -->
<g id="node21" class="node"><title>Node21</title>
<polygon fill="white" stroke="#bfbfbf" points="753.5,-112.5 753.5,-131.5 800.5,-131.5 800.5,-112.5 753.5,-112.5"/>
<text text-anchor="middle" x="777" y="-119.5" font-family="Helvetica,sans-Serif" font-size="10.00">cmath</text>
</g>
<!-- Node20&#45;&gt;Node21 -->
<g id="edge22" class="edge"><title>Node20&#45;&gt;Node21</title>
<path fill="none" stroke="midnightblue" d="M757.162,-168.399C760.745,-160.199 765.297,-149.781 769.137,-140.994"/>
<polygon fill="midnightblue" stroke="midnightblue" points="772.42,-142.223 773.217,-131.658 766.005,-139.42 772.42,-142.223"/>
</g>
<!-- Node22 -->
<g id="node22" class="node"><title>Node22</title>
<polygon fill="white" stroke="#bfbfbf" points="819,-112.5 819,-131.5 861,-131.5 861,-112.5 819,-112.5"/>
<text text-anchor="middle" x="840" y="-119.5" font-family="Helvetica,sans-Serif" font-size="10.00">limits</text>
</g>
<!-- Node20&#45;&gt;Node22 -->
<g id="edge23" class="edge"><title>Node20&#45;&gt;Node22</title>
<path fill="none" stroke="midnightblue" d="M772.092,-168.399C786.091,-159.04 804.411,-146.792 818.495,-137.377"/>
<polygon fill="midnightblue" stroke="midnightblue" points="820.682,-140.125 827.05,-131.658 816.791,-134.306 820.682,-140.125"/>
</g>
</g>
</svg>
