<?xml version="1.0" encoding="UTF-8" standalone="no"?>
<!DOCTYPE svg PUBLIC "-//W3C//DTD SVG 1.1//EN"
 "http://www.w3.org/Graphics/SVG/1.1/DTD/svg11.dtd">
<!-- Generated by graphviz version 2.38.0 (20140413.2041)
 -->
<!-- Title: /home/travis/build/STORM&#45;IRIT/Radium&#45;Engine/src/Core/Animation/KeyTranslation.hpp Pages: 1 -->
<svg width="869pt" height="341pt"
 viewBox="0.00 0.00 869.00 341.00" xmlns="http://www.w3.org/2000/svg" xmlns:xlink="http://www.w3.org/1999/xlink">
<g id="graph0" class="graph" transform="scale(1 1) rotate(0) translate(4 337)">
<title>/home/travis/build/STORM&#45;IRIT/Radium&#45;Engine/src/Core/Animation/KeyTranslation.hpp</title>
<polygon fill="white" stroke="none" points="-4,4 -4,-337 865,-337 865,4 -4,4"/>
<!-- Node1 -->
<g id="node1" class="node"><title>Node1</title>
<polygon fill="#bfbfbf" stroke="black" points="222.5,-291.5 222.5,-332.5 425.5,-332.5 425.5,-291.5 222.5,-291.5"/>
<text text-anchor="start" x="230.5" y="-320.5" font-family="Helvetica,sans-Serif" font-size="10.00">/home/travis/build</text>
<text text-anchor="start" x="230.5" y="-309.5" font-family="Helvetica,sans-Serif" font-size="10.00">/STORM&#45;IRIT/Radium&#45;Engine</text>
<text text-anchor="middle" x="324" y="-298.5" font-family="Helvetica,sans-Serif" font-size="10.00">/src/Core/Animation/KeyTranslation.hpp</text>
</g>
<!-- Node2 -->
<g id="node2" class="node"><title>Node2</title>
<g id="a_node2"><a xlink:href="Interpolation_8hpp.html" target="_top" xlink:title="Core/Animation/Interpolation.hpp">
<polygon fill="white" stroke="black" points="143.5,-235.5 143.5,-254.5 318.5,-254.5 318.5,-235.5 143.5,-235.5"/>
<text text-anchor="middle" x="231" y="-242.5" font-family="Helvetica,sans-Serif" font-size="10.00">Core/Animation/Interpolation.hpp</text>
</a>
</g>
</g>
<!-- Node1&#45;&gt;Node2 -->
<g id="edge1" class="edge"><title>Node1&#45;&gt;Node2</title>
<path fill="none" stroke="midnightblue" d="M296.097,-291.498C281.838,-281.532 264.787,-269.614 251.712,-260.476"/>
<polygon fill="midnightblue" stroke="midnightblue" points="253.581,-257.512 243.38,-254.652 249.571,-263.25 253.581,-257.512"/>
</g>
<!-- Node14 -->
<g id="node14" class="node"><title>Node14</title>
<g id="a_node14"><a xlink:href="KeyFrame_8hpp.html" target="_top" xlink:title="Core/Animation/KeyFrame.hpp">
<polygon fill="white" stroke="black" points="336.5,-235.5 336.5,-254.5 497.5,-254.5 497.5,-235.5 336.5,-235.5"/>
<text text-anchor="middle" x="417" y="-242.5" font-family="Helvetica,sans-Serif" font-size="10.00">Core/Animation/KeyFrame.hpp</text>
</a>
</g>
</g>
<!-- Node1&#45;&gt;Node14 -->
<g id="edge13" class="edge"><title>Node1&#45;&gt;Node14</title>
<path fill="none" stroke="midnightblue" d="M351.903,-291.498C366.162,-281.532 383.213,-269.614 396.288,-260.476"/>
<polygon fill="midnightblue" stroke="midnightblue" points="398.429,-263.25 404.62,-254.652 394.419,-257.512 398.429,-263.25"/>
</g>
<!-- Node3 -->
<g id="node3" class="node"><title>Node3</title>
<g id="a_node3"><a xlink:href="Types_8hpp.html" target="_top" xlink:title="Core/Math/Types.hpp">
<polygon fill="white" stroke="black" points="177,-174 177,-193 293,-193 293,-174 177,-174"/>
<text text-anchor="middle" x="235" y="-181" font-family="Helvetica,sans-Serif" font-size="10.00">Core/Math/Types.hpp</text>
</a>
</g>
</g>
<!-- Node2&#45;&gt;Node3 -->
<g id="edge2" class="edge"><title>Node2&#45;&gt;Node3</title>
<path fill="none" stroke="midnightblue" d="M231.573,-235.475C232.137,-227.08 233.018,-213.981 233.745,-203.163"/>
<polygon fill="midnightblue" stroke="midnightblue" points="237.249,-203.221 234.428,-193.009 230.265,-202.752 237.249,-203.221"/>
</g>
<!-- Node4 -->
<g id="node4" class="node"><title>Node4</title>
<g id="a_node4"><a xlink:href="RaCore_8hpp.html" target="_top" xlink:title="Core/RaCore.hpp">
<polygon fill="white" stroke="black" points="296,-112.5 296,-131.5 394,-131.5 394,-112.5 296,-112.5"/>
<text text-anchor="middle" x="345" y="-119.5" font-family="Helvetica,sans-Serif" font-size="10.00">Core/RaCore.hpp</text>
</a>
</g>
</g>
<!-- Node3&#45;&gt;Node4 -->
<g id="edge3" class="edge"><title>Node3&#45;&gt;Node4</title>
<path fill="none" stroke="midnightblue" d="M250.76,-173.975C268.976,-164.122 299.173,-147.788 320.468,-136.27"/>
<polygon fill="midnightblue" stroke="midnightblue" points="322.138,-139.345 329.269,-131.509 318.808,-133.188 322.138,-139.345"/>
</g>
<!-- Node11 -->
<g id="node11" class="node"><title>Node11</title>
<polygon fill="white" stroke="#bfbfbf" points="0,-112.5 0,-131.5 68,-131.5 68,-112.5 0,-112.5"/>
<text text-anchor="middle" x="34" y="-119.5" font-family="Helvetica,sans-Serif" font-size="10.00">Eigen/Core</text>
</g>
<!-- Node3&#45;&gt;Node11 -->
<g id="edge10" class="edge"><title>Node3&#45;&gt;Node11</title>
<path fill="none" stroke="midnightblue" d="M206.202,-173.975C171.126,-163.592 111.737,-146.012 72.6928,-134.454"/>
<polygon fill="midnightblue" stroke="midnightblue" points="73.3272,-130.992 62.745,-131.509 71.3402,-137.704 73.3272,-130.992"/>
</g>
<!-- Node12 -->
<g id="node12" class="node"><title>Node12</title>
<polygon fill="white" stroke="#bfbfbf" points="86,-112.5 86,-131.5 180,-131.5 180,-112.5 86,-112.5"/>
<text text-anchor="middle" x="133" y="-119.5" font-family="Helvetica,sans-Serif" font-size="10.00">Eigen/Geometry</text>
</g>
<!-- Node3&#45;&gt;Node12 -->
<g id="edge11" class="edge"><title>Node3&#45;&gt;Node12</title>
<path fill="none" stroke="midnightblue" d="M220.386,-173.975C203.647,-164.211 175.996,-148.081 156.281,-136.581"/>
<polygon fill="midnightblue" stroke="midnightblue" points="157.988,-133.525 147.587,-131.509 154.461,-139.571 157.988,-133.525"/>
</g>
<!-- Node13 -->
<g id="node13" class="node"><title>Node13</title>
<polygon fill="white" stroke="#bfbfbf" points="198,-112.5 198,-131.5 278,-131.5 278,-112.5 198,-112.5"/>
<text text-anchor="middle" x="238" y="-119.5" font-family="Helvetica,sans-Serif" font-size="10.00">Eigen/Sparse</text>
</g>
<!-- Node3&#45;&gt;Node13 -->
<g id="edge12" class="edge"><title>Node3&#45;&gt;Node13</title>
<path fill="none" stroke="midnightblue" d="M235.43,-173.975C235.853,-165.58 236.514,-152.481 237.059,-141.663"/>
<polygon fill="midnightblue" stroke="midnightblue" points="240.563,-141.673 237.571,-131.509 233.572,-141.32 240.563,-141.673"/>
</g>
<!-- Node5 -->
<g id="node5" class="node"><title>Node5</title>
<g id="a_node5"><a xlink:href="CoreMacros_8hpp.html" target="_top" xlink:title="Core/CoreMacros.hpp">
<polygon fill="white" stroke="black" points="475,-56.5 475,-75.5 595,-75.5 595,-56.5 475,-56.5"/>
<text text-anchor="middle" x="535" y="-63.5" font-family="Helvetica,sans-Serif" font-size="10.00">Core/CoreMacros.hpp</text>
</a>
</g>
</g>
<!-- Node4&#45;&gt;Node5 -->
<g id="edge4" class="edge"><title>Node4&#45;&gt;Node5</title>
<path fill="none" stroke="midnightblue" d="M375.106,-112.444C407.626,-103.201 459.579,-88.4356 495.391,-78.2572"/>
<polygon fill="midnightblue" stroke="midnightblue" points="496.373,-81.617 505.035,-75.5164 494.459,-74.8837 496.373,-81.617"/>
</g>
<!-- Node6 -->
<g id="node6" class="node"><title>Node6</title>
<polygon fill="white" stroke="#bfbfbf" points="372,-0.5 372,-19.5 424,-19.5 424,-0.5 372,-0.5"/>
<text text-anchor="middle" x="398" y="-7.5" font-family="Helvetica,sans-Serif" font-size="10.00">cassert</text>
</g>
<!-- Node5&#45;&gt;Node6 -->
<g id="edge5" class="edge"><title>Node5&#45;&gt;Node6</title>
<path fill="none" stroke="midnightblue" d="M513.292,-56.4435C490.645,-47.5171 454.928,-33.4387 429.248,-23.3168"/>
<polygon fill="midnightblue" stroke="midnightblue" points="430.193,-19.9273 419.606,-19.5164 427.626,-26.4397 430.193,-19.9273"/>
</g>
<!-- Node7 -->
<g id="node7" class="node"><title>Node7</title>
<polygon fill="white" stroke="#bfbfbf" points="442.5,-0.5 442.5,-19.5 487.5,-19.5 487.5,-0.5 442.5,-0.5"/>
<text text-anchor="middle" x="465" y="-7.5" font-family="Helvetica,sans-Serif" font-size="10.00">cstdio</text>
</g>
<!-- Node5&#45;&gt;Node7 -->
<g id="edge6" class="edge"><title>Node5&#45;&gt;Node7</title>
<path fill="none" stroke="midnightblue" d="M523.753,-56.324C513.203,-48.1849 497.199,-35.8395 484.558,-26.0874"/>
<polygon fill="midnightblue" stroke="midnightblue" points="486.507,-23.1707 476.451,-19.8339 482.231,-28.7132 486.507,-23.1707"/>
</g>
<!-- Node8 -->
<g id="node8" class="node"><title>Node8</title>
<polygon fill="white" stroke="#bfbfbf" points="505.5,-0.5 505.5,-19.5 564.5,-19.5 564.5,-0.5 505.5,-0.5"/>
<text text-anchor="middle" x="535" y="-7.5" font-family="Helvetica,sans-Serif" font-size="10.00">iostream</text>
</g>
<!-- Node5&#45;&gt;Node8 -->
<g id="edge7" class="edge"><title>Node5&#45;&gt;Node8</title>
<path fill="none" stroke="midnightblue" d="M535,-56.083C535,-49.0059 535,-38.8611 535,-29.9865"/>
<polygon fill="midnightblue" stroke="midnightblue" points="538.5,-29.751 535,-19.7511 531.5,-29.7511 538.5,-29.751"/>
</g>
<!-- Node9 -->
<g id="node9" class="node"><title>Node9</title>
<polygon fill="white" stroke="#bfbfbf" points="583,-0.5 583,-19.5 639,-19.5 639,-0.5 583,-0.5"/>
<text text-anchor="middle" x="611" y="-7.5" font-family="Helvetica,sans-Serif" font-size="10.00">sstream</text>
</g>
<!-- Node5&#45;&gt;Node9 -->
<g id="edge8" class="edge"><title>Node5&#45;&gt;Node9</title>
<path fill="none" stroke="midnightblue" d="M547.211,-56.324C558.776,-48.1066 576.375,-35.6017 590.161,-25.8069"/>
<polygon fill="midnightblue" stroke="midnightblue" points="592.443,-28.4791 598.567,-19.8339 588.388,-22.7729 592.443,-28.4791"/>
</g>
<!-- Node10 -->
<g id="node10" class="node"><title>Node10</title>
<polygon fill="white" stroke="#bfbfbf" points="657,-0.5 657,-19.5 705,-19.5 705,-0.5 657,-0.5"/>
<text text-anchor="middle" x="681" y="-7.5" font-family="Helvetica,sans-Serif" font-size="10.00">thread</text>
</g>
<!-- Node5&#45;&gt;Node10 -->
<g id="edge9" class="edge"><title>Node5&#45;&gt;Node10</title>
<path fill="none" stroke="midnightblue" d="M558.134,-56.4435C582.482,-47.4381 621.007,-33.1891 648.423,-23.049"/>
<polygon fill="midnightblue" stroke="midnightblue" points="649.809,-26.2681 657.974,-19.5164 647.381,-19.7028 649.809,-26.2681"/>
</g>
<!-- Node14&#45;&gt;Node3 -->
<g id="edge22" class="edge"><title>Node14&#45;&gt;Node3</title>
<path fill="none" stroke="midnightblue" d="M390.924,-235.475C359.434,-225.18 306.302,-207.81 270.942,-196.25"/>
<polygon fill="midnightblue" stroke="midnightblue" points="271.62,-192.79 261.028,-193.009 269.445,-199.443 271.62,-192.79"/>
</g>
<!-- Node15 -->
<g id="node15" class="node"><title>Node15</title>
<polygon fill="white" stroke="#bfbfbf" points="337,-174 337,-193 375,-193 375,-174 337,-174"/>
<text text-anchor="middle" x="356" y="-181" font-family="Helvetica,sans-Serif" font-size="10.00">map</text>
</g>
<!-- Node14&#45;&gt;Node15 -->
<g id="edge14" class="edge"><title>Node14&#45;&gt;Node15</title>
<path fill="none" stroke="midnightblue" d="M408.26,-235.475C398.838,-226.285 383.636,-211.456 372.051,-200.156"/>
<polygon fill="midnightblue" stroke="midnightblue" points="374.326,-197.486 364.724,-193.009 369.438,-202.497 374.326,-197.486"/>
</g>
<!-- Node16 -->
<g id="node16" class="node"><title>Node16</title>
<polygon fill="white" stroke="#bfbfbf" points="393,-174 393,-193 425,-193 425,-174 393,-174"/>
<text text-anchor="middle" x="409" y="-181" font-family="Helvetica,sans-Serif" font-size="10.00">set</text>
</g>
<!-- Node14&#45;&gt;Node16 -->
<g id="edge15" class="edge"><title>Node14&#45;&gt;Node16</title>
<path fill="none" stroke="midnightblue" d="M415.854,-235.475C414.725,-227.08 412.964,-213.981 411.509,-203.163"/>
<polygon fill="midnightblue" stroke="midnightblue" points="414.945,-202.453 410.144,-193.009 408.008,-203.386 414.945,-202.453"/>
</g>
<!-- Node17 -->
<g id="node17" class="node"><title>Node17</title>
<g id="a_node17"><a xlink:href="AlignedAllocator_8hpp.html" target="_top" xlink:title="Core/Containers/AlignedAllocator.hpp">
<polygon fill="white" stroke="black" points="443,-174 443,-193 637,-193 637,-174 443,-174"/>
<text text-anchor="middle" x="540" y="-181" font-family="Helvetica,sans-Serif" font-size="10.00">Core/Containers/AlignedAllocator.hpp</text>
</a>
</g>
</g>
<!-- Node14&#45;&gt;Node17 -->
<g id="edge16" class="edge"><title>Node14&#45;&gt;Node17</title>
<path fill="none" stroke="midnightblue" d="M434.623,-235.475C455.174,-225.534 489.364,-208.995 513.207,-197.461"/>
<polygon fill="midnightblue" stroke="midnightblue" points="514.932,-200.515 522.41,-193.009 511.884,-194.213 514.932,-200.515"/>
</g>
<!-- Node22 -->
<g id="node22" class="node"><title>Node22</title>
<g id="a_node22"><a xlink:href="AnimationTime_8hpp.html" target="_top" xlink:title="Core/Animation/Animation\lTime.hpp">
<polygon fill="white" stroke="black" points="679.5,-168.5 679.5,-198.5 822.5,-198.5 822.5,-168.5 679.5,-168.5"/>
<text text-anchor="start" x="687.5" y="-186.5" font-family="Helvetica,sans-Serif" font-size="10.00">Core/Animation/Animation</text>
<text text-anchor="middle" x="751" y="-175.5" font-family="Helvetica,sans-Serif" font-size="10.00">Time.hpp</text>
</a>
</g>
</g>
<!-- Node14&#45;&gt;Node22 -->
<g id="edge23" class="edge"><title>Node14&#45;&gt;Node22</title>
<path fill="none" stroke="midnightblue" d="M464.854,-235.475C518.103,-225.989 605.074,-210.496 669.179,-199.076"/>
<polygon fill="midnightblue" stroke="midnightblue" points="670.031,-202.479 679.262,-197.28 668.803,-195.588 670.031,-202.479"/>
</g>
<!-- Node17&#45;&gt;Node4 -->
<g id="edge17" class="edge"><title>Node17&#45;&gt;Node4</title>
<path fill="none" stroke="midnightblue" d="M512.061,-173.975C478.033,-163.592 420.416,-146.012 382.538,-134.454"/>
<polygon fill="midnightblue" stroke="midnightblue" points="383.473,-131.08 372.887,-131.509 381.43,-137.775 383.473,-131.08"/>
</g>
<!-- Node18 -->
<g id="node18" class="node"><title>Node18</title>
<polygon fill="white" stroke="#bfbfbf" points="412,-112.5 412,-131.5 494,-131.5 494,-112.5 412,-112.5"/>
<text text-anchor="middle" x="453" y="-119.5" font-family="Helvetica,sans-Serif" font-size="10.00">mm_malloc.h</text>
</g>
<!-- Node17&#45;&gt;Node18 -->
<g id="edge18" class="edge"><title>Node17&#45;&gt;Node18</title>
<path fill="none" stroke="midnightblue" d="M527.535,-173.975C513.581,-164.431 490.735,-148.807 474.009,-137.368"/>
<polygon fill="midnightblue" stroke="midnightblue" points="475.672,-134.265 465.442,-131.509 471.72,-140.043 475.672,-134.265"/>
</g>
<!-- Node19 -->
<g id="node19" class="node"><title>Node19</title>
<polygon fill="white" stroke="#bfbfbf" points="512,-112.5 512,-131.5 564,-131.5 564,-112.5 512,-112.5"/>
<text text-anchor="middle" x="538" y="-119.5" font-family="Helvetica,sans-Serif" font-size="10.00">cstddef</text>
</g>
<!-- Node17&#45;&gt;Node19 -->
<g id="edge19" class="edge"><title>Node17&#45;&gt;Node19</title>
<path fill="none" stroke="midnightblue" d="M539.713,-173.975C539.431,-165.58 538.991,-152.481 538.627,-141.663"/>
<polygon fill="midnightblue" stroke="midnightblue" points="542.12,-141.386 538.286,-131.509 535.124,-141.621 542.12,-141.386"/>
</g>
<!-- Node20 -->
<g id="node20" class="node"><title>Node20</title>
<polygon fill="white" stroke="#bfbfbf" points="582.5,-112.5 582.5,-131.5 631.5,-131.5 631.5,-112.5 582.5,-112.5"/>
<text text-anchor="middle" x="607" y="-119.5" font-family="Helvetica,sans-Serif" font-size="10.00">cstdint</text>
</g>
<!-- Node17&#45;&gt;Node20 -->
<g id="edge20" class="edge"><title>Node17&#45;&gt;Node20</title>
<path fill="none" stroke="midnightblue" d="M549.599,-173.975C560.048,-164.697 576.968,-149.671 589.736,-138.331"/>
<polygon fill="midnightblue" stroke="midnightblue" points="592.265,-140.766 597.418,-131.509 587.617,-135.532 592.265,-140.766"/>
</g>
<!-- Node21 -->
<g id="node21" class="node"><title>Node21</title>
<polygon fill="white" stroke="#bfbfbf" points="649.5,-112.5 649.5,-131.5 696.5,-131.5 696.5,-112.5 649.5,-112.5"/>
<text text-anchor="middle" x="673" y="-119.5" font-family="Helvetica,sans-Serif" font-size="10.00">cstdlib</text>
</g>
<!-- Node17&#45;&gt;Node21 -->
<g id="edge21" class="edge"><title>Node17&#45;&gt;Node21</title>
<path fill="none" stroke="midnightblue" d="M559.056,-173.975C581.475,-163.945 618.905,-147.2 644.713,-135.655"/>
<polygon fill="midnightblue" stroke="midnightblue" points="646.281,-138.788 653.98,-131.509 643.422,-132.398 646.281,-138.788"/>
</g>
<!-- Node22&#45;&gt;Node5 -->
<g id="edge24" class="edge"><title>Node22&#45;&gt;Node5</title>
<path fill="none" stroke="midnightblue" d="M745.485,-168.333C738.492,-152.248 724.901,-126.38 705,-112 675.958,-91.0148 637.816,-79.8129 605.021,-73.8347"/>
<polygon fill="midnightblue" stroke="midnightblue" points="605.476,-70.3619 595.031,-72.1421 604.306,-77.2635 605.476,-70.3619"/>
</g>
<!-- Node23 -->
<g id="node23" class="node"><title>Node23</title>
<polygon fill="white" stroke="#bfbfbf" points="753.5,-112.5 753.5,-131.5 800.5,-131.5 800.5,-112.5 753.5,-112.5"/>
<text text-anchor="middle" x="777" y="-119.5" font-family="Helvetica,sans-Serif" font-size="10.00">cmath</text>
</g>
<!-- Node22&#45;&gt;Node23 -->
<g id="edge25" class="edge"><title>Node22&#45;&gt;Node23</title>
<path fill="none" stroke="midnightblue" d="M757.162,-168.399C760.745,-160.199 765.297,-149.781 769.137,-140.994"/>
<polygon fill="midnightblue" stroke="midnightblue" points="772.42,-142.223 773.217,-131.658 766.005,-139.42 772.42,-142.223"/>
</g>
<!-- Node24 -->
<g id="node24" class="node"><title>Node24</title>
<polygon fill="white" stroke="#bfbfbf" points="819,-112.5 819,-131.5 861,-131.5 861,-112.5 819,-112.5"/>
<text text-anchor="middle" x="840" y="-119.5" font-family="Helvetica,sans-Serif" font-size="10.00">limits</text>
</g>
<!-- Node22&#45;&gt;Node24 -->
<g id="edge26" class="edge"><title>Node22&#45;&gt;Node24</title>
<path fill="none" stroke="midnightblue" d="M772.092,-168.399C786.091,-159.04 804.411,-146.792 818.495,-137.377"/>
<polygon fill="midnightblue" stroke="midnightblue" points="820.682,-140.125 827.05,-131.658 816.791,-134.306 820.682,-140.125"/>
</g>
</g>
</svg>
