<?xml version="1.0" encoding="UTF-8" standalone="no"?>
<!DOCTYPE svg PUBLIC "-//W3C//DTD SVG 1.1//EN"
 "http://www.w3.org/Graphics/SVG/1.1/DTD/svg11.dtd">
<!-- Generated by graphviz version 2.38.0 (20140413.2041)
 -->
<!-- Title: /home/travis/build/STORM&#45;IRIT/Radium&#45;Engine/src/Core/Geometry/Laplacian.cpp Pages: 1 -->
<svg width="1144pt" height="453pt"
 viewBox="0.00 0.00 1144.00 453.00" xmlns="http://www.w3.org/2000/svg" xmlns:xlink="http://www.w3.org/1999/xlink">
<g id="graph0" class="graph" transform="scale(1 1) rotate(0) translate(4 449)">
<title>/home/travis/build/STORM&#45;IRIT/Radium&#45;Engine/src/Core/Geometry/Laplacian.cpp</title>
<polygon fill="white" stroke="none" points="-4,4 -4,-449 1140,-449 1140,4 -4,4"/>
<!-- Node1 -->
<g id="node1" class="node"><title>Node1</title>
<polygon fill="#bfbfbf" stroke="black" points="283,-403.5 283,-444.5 462,-444.5 462,-403.5 283,-403.5"/>
<text text-anchor="start" x="291" y="-432.5" font-family="Helvetica,sans-Serif" font-size="10.00">/home/travis/build</text>
<text text-anchor="start" x="291" y="-421.5" font-family="Helvetica,sans-Serif" font-size="10.00">/STORM&#45;IRIT/Radium&#45;Engine</text>
<text text-anchor="middle" x="372.5" y="-410.5" font-family="Helvetica,sans-Serif" font-size="10.00">/src/Core/Geometry/Laplacian.cpp</text>
</g>
<!-- Node2 -->
<g id="node2" class="node"><title>Node2</title>
<g id="a_node2"><a xlink:href="Laplacian_8hpp.html" target="_top" xlink:title="Core/Geometry/Laplacian.hpp">
<polygon fill="white" stroke="black" points="166,-347.5 166,-366.5 325,-366.5 325,-347.5 166,-347.5"/>
<text text-anchor="middle" x="245.5" y="-354.5" font-family="Helvetica,sans-Serif" font-size="10.00">Core/Geometry/Laplacian.hpp</text>
</a>
</g>
</g>
<!-- Node1&#45;&gt;Node2 -->
<g id="edge1" class="edge"><title>Node1&#45;&gt;Node2</title>
<path fill="none" stroke="midnightblue" d="M334.396,-403.498C314.175,-393.149 289.842,-380.695 271.749,-371.435"/>
<polygon fill="midnightblue" stroke="midnightblue" points="272.902,-368.093 262.406,-366.652 269.713,-374.324 272.902,-368.093"/>
</g>
<!-- Node19 -->
<g id="node19" class="node"><title>Node19</title>
<g id="a_node19"><a xlink:href="LinearAlgebra_8hpp.html" target="_top" xlink:title="Core/Math/LinearAlgebra.hpp">
<polygon fill="white" stroke="black" points="612.5,-235.5 612.5,-254.5 768.5,-254.5 768.5,-235.5 612.5,-235.5"/>
<text text-anchor="middle" x="690.5" y="-242.5" font-family="Helvetica,sans-Serif" font-size="10.00">Core/Math/LinearAlgebra.hpp</text>
</a>
</g>
</g>
<!-- Node1&#45;&gt;Node19 -->
<g id="edge25" class="edge"><title>Node1&#45;&gt;Node19</title>
<path fill="none" stroke="midnightblue" d="M375.087,-403.332C380.054,-373.964 393.804,-319.103 429.5,-291 455.906,-270.211 537.256,-258.491 602.193,-252.261"/>
<polygon fill="midnightblue" stroke="midnightblue" points="602.83,-255.717 612.464,-251.308 602.183,-248.747 602.83,-255.717"/>
</g>
<!-- Node27 -->
<g id="node27" class="node"><title>Node27</title>
<g id="a_node27"><a xlink:href="CircularIndex_8hpp.html" target="_top" xlink:title="Core/Utils/CircularIndex.hpp">
<polygon fill="white" stroke="black" points="417,-347.5 417,-366.5 566,-366.5 566,-347.5 417,-347.5"/>
<text text-anchor="middle" x="491.5" y="-354.5" font-family="Helvetica,sans-Serif" font-size="10.00">Core/Utils/CircularIndex.hpp</text>
</a>
</g>
</g>
<!-- Node1&#45;&gt;Node27 -->
<g id="edge41" class="edge"><title>Node1&#45;&gt;Node27</title>
<path fill="none" stroke="midnightblue" d="M408.204,-403.498C426.975,-393.245 449.53,-380.925 466.432,-371.693"/>
<polygon fill="midnightblue" stroke="midnightblue" points="468.561,-374.518 475.659,-366.652 465.205,-368.375 468.561,-374.518"/>
</g>
<!-- Node3 -->
<g id="node3" class="node"><title>Node3</title>
<g id="a_node3"><a xlink:href="VectorArray_8hpp.html" target="_top" xlink:title="Core/Containers/VectorArray.hpp">
<polygon fill="white" stroke="black" points="95,-235.5 95,-254.5 268,-254.5 268,-235.5 95,-235.5"/>
<text text-anchor="middle" x="181.5" y="-242.5" font-family="Helvetica,sans-Serif" font-size="10.00">Core/Containers/VectorArray.hpp</text>
</a>
</g>
</g>
<!-- Node2&#45;&gt;Node3 -->
<g id="edge2" class="edge"><title>Node2&#45;&gt;Node3</title>
<path fill="none" stroke="midnightblue" d="M192.181,-347.431C170.844,-341.1 148.323,-330.101 135.5,-311 123.754,-293.504 142.305,-273.799 159.237,-260.718"/>
<polygon fill="midnightblue" stroke="midnightblue" points="161.733,-263.231 167.775,-254.528 157.624,-257.564 161.733,-263.231"/>
</g>
<!-- Node14 -->
<g id="node14" class="node"><title>Node14</title>
<g id="a_node14"><a xlink:href="Types_8hpp.html" target="_top" xlink:title="Core/Math/Types.hpp">
<polygon fill="white" stroke="black" points="280.5,-174 280.5,-193 396.5,-193 396.5,-174 280.5,-174"/>
<text text-anchor="middle" x="338.5" y="-181" font-family="Helvetica,sans-Serif" font-size="10.00">Core/Math/Types.hpp</text>
</a>
</g>
</g>
<!-- Node2&#45;&gt;Node14 -->
<g id="edge20" class="edge"><title>Node2&#45;&gt;Node14</title>
<path fill="none" stroke="midnightblue" d="M267.311,-347.369C282.922,-340.042 303.118,-327.992 314.5,-311 336.715,-277.835 339.616,-229.386 339.338,-203.113"/>
<polygon fill="midnightblue" stroke="midnightblue" points="342.834,-202.927 339.058,-193.028 335.837,-203.121 342.834,-202.927"/>
</g>
<!-- Node18 -->
<g id="node18" class="node"><title>Node18</title>
<g id="a_node18"><a xlink:href="Adjacency_8hpp.html" target="_top" xlink:title="Core/Geometry/Adjacency.hpp">
<polygon fill="white" stroke="black" points="145,-291.5 145,-310.5 306,-310.5 306,-291.5 145,-291.5"/>
<text text-anchor="middle" x="225.5" y="-298.5" font-family="Helvetica,sans-Serif" font-size="10.00">Core/Geometry/Adjacency.hpp</text>
</a>
</g>
</g>
<!-- Node2&#45;&gt;Node18 -->
<g id="edge21" class="edge"><title>Node2&#45;&gt;Node18</title>
<path fill="none" stroke="midnightblue" d="M242.197,-347.083C239.518,-339.849 235.651,-329.409 232.314,-320.397"/>
<polygon fill="midnightblue" stroke="midnightblue" points="235.496,-318.913 228.741,-310.751 228.932,-321.344 235.496,-318.913"/>
</g>
<!-- Node4 -->
<g id="node4" class="node"><title>Node4</title>
<g id="a_node4"><a xlink:href="AlignedStdVector_8hpp.html" target="_top" xlink:title="Core/Containers/AlignedStd\lVector.hpp">
<polygon fill="white" stroke="black" points="0,-168.5 0,-198.5 149,-198.5 149,-168.5 0,-168.5"/>
<text text-anchor="start" x="8" y="-186.5" font-family="Helvetica,sans-Serif" font-size="10.00">Core/Containers/AlignedStd</text>
<text text-anchor="middle" x="74.5" y="-175.5" font-family="Helvetica,sans-Serif" font-size="10.00">Vector.hpp</text>
</a>
</g>
</g>
<!-- Node3&#45;&gt;Node4 -->
<g id="edge3" class="edge"><title>Node3&#45;&gt;Node4</title>
<path fill="none" stroke="midnightblue" d="M166.17,-235.475C151.204,-227.153 127.923,-214.207 108.569,-203.445"/>
<polygon fill="midnightblue" stroke="midnightblue" points="110.158,-200.324 99.7178,-198.523 106.756,-206.442 110.158,-200.324"/>
</g>
<!-- Node5 -->
<g id="node5" class="node"><title>Node5</title>
<g id="a_node5"><a xlink:href="RaCore_8hpp.html" target="_top" xlink:title="Core/RaCore.hpp">
<polygon fill="white" stroke="black" points="247.5,-112.5 247.5,-131.5 345.5,-131.5 345.5,-112.5 247.5,-112.5"/>
<text text-anchor="middle" x="296.5" y="-119.5" font-family="Helvetica,sans-Serif" font-size="10.00">Core/RaCore.hpp</text>
</a>
</g>
</g>
<!-- Node3&#45;&gt;Node5 -->
<g id="edge18" class="edge"><title>Node3&#45;&gt;Node5</title>
<path fill="none" stroke="midnightblue" d="M186.826,-235.44C196.207,-220.73 216.755,-190.104 238.5,-168 249.611,-156.706 263.608,-145.769 275.067,-137.506"/>
<polygon fill="midnightblue" stroke="midnightblue" points="277.085,-140.366 283.247,-131.747 273.055,-134.643 277.085,-140.366"/>
</g>
<!-- Node13 -->
<g id="node13" class="node"><title>Node13</title>
<polygon fill="white" stroke="#bfbfbf" points="146,-112.5 146,-131.5 193,-131.5 193,-112.5 146,-112.5"/>
<text text-anchor="middle" x="169.5" y="-119.5" font-family="Helvetica,sans-Serif" font-size="10.00">vector</text>
</g>
<!-- Node3&#45;&gt;Node13 -->
<g id="edge19" class="edge"><title>Node3&#45;&gt;Node13</title>
<path fill="none" stroke="midnightblue" d="M180.637,-235.298C178.708,-215.85 174.011,-168.49 171.375,-141.904"/>
<polygon fill="midnightblue" stroke="midnightblue" points="174.825,-141.229 170.355,-131.623 167.859,-141.92 174.825,-141.229"/>
</g>
<!-- Node3&#45;&gt;Node14 -->
<g id="edge13" class="edge"><title>Node3&#45;&gt;Node14</title>
<path fill="none" stroke="midnightblue" d="M203.994,-235.475C230.809,-225.313 275.815,-208.256 306.309,-196.7"/>
<polygon fill="midnightblue" stroke="midnightblue" points="307.937,-199.826 316.047,-193.009 305.456,-193.28 307.937,-199.826"/>
</g>
<!-- Node4&#45;&gt;Node5 -->
<g id="edge4" class="edge"><title>Node4&#45;&gt;Node5</title>
<path fill="none" stroke="midnightblue" d="M126.83,-168.475C165.966,-157.986 218.756,-143.837 255.002,-134.122"/>
<polygon fill="midnightblue" stroke="midnightblue" points="256.009,-137.476 264.762,-131.506 254.197,-130.715 256.009,-137.476"/>
</g>
<!-- Node12 -->
<g id="node12" class="node"><title>Node12</title>
<polygon fill="white" stroke="#bfbfbf" points="28,-112.5 28,-131.5 121,-131.5 121,-112.5 28,-112.5"/>
<text text-anchor="middle" x="74.5" y="-119.5" font-family="Helvetica,sans-Serif" font-size="10.00">Eigen/StdVector</text>
</g>
<!-- Node4&#45;&gt;Node12 -->
<g id="edge11" class="edge"><title>Node4&#45;&gt;Node12</title>
<path fill="none" stroke="midnightblue" d="M74.5,-168.399C74.5,-160.466 74.5,-150.458 74.5,-141.858"/>
<polygon fill="midnightblue" stroke="midnightblue" points="78.0001,-141.658 74.5,-131.658 71.0001,-141.658 78.0001,-141.658"/>
</g>
<!-- Node4&#45;&gt;Node13 -->
<g id="edge12" class="edge"><title>Node4&#45;&gt;Node13</title>
<path fill="none" stroke="midnightblue" d="M97.0137,-168.399C112.099,-158.951 131.885,-146.559 146.973,-137.109"/>
<polygon fill="midnightblue" stroke="midnightblue" points="149.059,-139.932 155.677,-131.658 145.344,-134 149.059,-139.932"/>
</g>
<!-- Node6 -->
<g id="node6" class="node"><title>Node6</title>
<g id="a_node6"><a xlink:href="CoreMacros_8hpp.html" target="_top" xlink:title="Core/CoreMacros.hpp">
<polygon fill="white" stroke="black" points="236.5,-56.5 236.5,-75.5 356.5,-75.5 356.5,-56.5 236.5,-56.5"/>
<text text-anchor="middle" x="296.5" y="-63.5" font-family="Helvetica,sans-Serif" font-size="10.00">Core/CoreMacros.hpp</text>
</a>
</g>
</g>
<!-- Node5&#45;&gt;Node6 -->
<g id="edge5" class="edge"><title>Node5&#45;&gt;Node6</title>
<path fill="none" stroke="midnightblue" d="M296.5,-112.083C296.5,-105.006 296.5,-94.8611 296.5,-85.9865"/>
<polygon fill="midnightblue" stroke="midnightblue" points="300,-85.751 296.5,-75.7511 293,-85.7511 300,-85.751"/>
</g>
<!-- Node7 -->
<g id="node7" class="node"><title>Node7</title>
<polygon fill="white" stroke="#bfbfbf" points="133.5,-0.5 133.5,-19.5 185.5,-19.5 185.5,-0.5 133.5,-0.5"/>
<text text-anchor="middle" x="159.5" y="-7.5" font-family="Helvetica,sans-Serif" font-size="10.00">cassert</text>
</g>
<!-- Node6&#45;&gt;Node7 -->
<g id="edge6" class="edge"><title>Node6&#45;&gt;Node7</title>
<path fill="none" stroke="midnightblue" d="M274.792,-56.4435C252.145,-47.5171 216.428,-33.4387 190.748,-23.3168"/>
<polygon fill="midnightblue" stroke="midnightblue" points="191.693,-19.9273 181.106,-19.5164 189.126,-26.4397 191.693,-19.9273"/>
</g>
<!-- Node8 -->
<g id="node8" class="node"><title>Node8</title>
<polygon fill="white" stroke="#bfbfbf" points="204,-0.5 204,-19.5 249,-19.5 249,-0.5 204,-0.5"/>
<text text-anchor="middle" x="226.5" y="-7.5" font-family="Helvetica,sans-Serif" font-size="10.00">cstdio</text>
</g>
<!-- Node6&#45;&gt;Node8 -->
<g id="edge7" class="edge"><title>Node6&#45;&gt;Node8</title>
<path fill="none" stroke="midnightblue" d="M285.253,-56.324C274.703,-48.1849 258.699,-35.8395 246.058,-26.0874"/>
<polygon fill="midnightblue" stroke="midnightblue" points="248.007,-23.1707 237.951,-19.8339 243.731,-28.7132 248.007,-23.1707"/>
</g>
<!-- Node9 -->
<g id="node9" class="node"><title>Node9</title>
<polygon fill="white" stroke="#bfbfbf" points="267,-0.5 267,-19.5 326,-19.5 326,-0.5 267,-0.5"/>
<text text-anchor="middle" x="296.5" y="-7.5" font-family="Helvetica,sans-Serif" font-size="10.00">iostream</text>
</g>
<!-- Node6&#45;&gt;Node9 -->
<g id="edge8" class="edge"><title>Node6&#45;&gt;Node9</title>
<path fill="none" stroke="midnightblue" d="M296.5,-56.083C296.5,-49.0059 296.5,-38.8611 296.5,-29.9865"/>
<polygon fill="midnightblue" stroke="midnightblue" points="300,-29.751 296.5,-19.7511 293,-29.7511 300,-29.751"/>
</g>
<!-- Node10 -->
<g id="node10" class="node"><title>Node10</title>
<polygon fill="white" stroke="#bfbfbf" points="344.5,-0.5 344.5,-19.5 400.5,-19.5 400.5,-0.5 344.5,-0.5"/>
<text text-anchor="middle" x="372.5" y="-7.5" font-family="Helvetica,sans-Serif" font-size="10.00">sstream</text>
</g>
<!-- Node6&#45;&gt;Node10 -->
<g id="edge9" class="edge"><title>Node6&#45;&gt;Node10</title>
<path fill="none" stroke="midnightblue" d="M308.711,-56.324C320.276,-48.1066 337.875,-35.6017 351.661,-25.8069"/>
<polygon fill="midnightblue" stroke="midnightblue" points="353.943,-28.4791 360.067,-19.8339 349.888,-22.7729 353.943,-28.4791"/>
</g>
<!-- Node11 -->
<g id="node11" class="node"><title>Node11</title>
<polygon fill="white" stroke="#bfbfbf" points="418.5,-0.5 418.5,-19.5 466.5,-19.5 466.5,-0.5 418.5,-0.5"/>
<text text-anchor="middle" x="442.5" y="-7.5" font-family="Helvetica,sans-Serif" font-size="10.00">thread</text>
</g>
<!-- Node6&#45;&gt;Node11 -->
<g id="edge10" class="edge"><title>Node6&#45;&gt;Node11</title>
<path fill="none" stroke="midnightblue" d="M319.634,-56.4435C343.982,-47.4381 382.507,-33.1891 409.923,-23.049"/>
<polygon fill="midnightblue" stroke="midnightblue" points="411.309,-26.2681 419.474,-19.5164 408.881,-19.7028 411.309,-26.2681"/>
</g>
<!-- Node14&#45;&gt;Node5 -->
<g id="edge14" class="edge"><title>Node14&#45;&gt;Node5</title>
<path fill="none" stroke="midnightblue" d="M332.482,-173.975C326.245,-165.138 316.327,-151.089 308.482,-139.975"/>
<polygon fill="midnightblue" stroke="midnightblue" points="311.133,-137.66 302.506,-131.509 305.414,-141.697 311.133,-137.66"/>
</g>
<!-- Node15 -->
<g id="node15" class="node"><title>Node15</title>
<polygon fill="white" stroke="#bfbfbf" points="433.5,-112.5 433.5,-131.5 501.5,-131.5 501.5,-112.5 433.5,-112.5"/>
<text text-anchor="middle" x="467.5" y="-119.5" font-family="Helvetica,sans-Serif" font-size="10.00">Eigen/Core</text>
</g>
<!-- Node14&#45;&gt;Node15 -->
<g id="edge15" class="edge"><title>Node14&#45;&gt;Node15</title>
<path fill="none" stroke="midnightblue" d="M356.983,-173.975C378.632,-163.99 414.713,-147.348 439.732,-135.807"/>
<polygon fill="midnightblue" stroke="midnightblue" points="441.437,-138.876 449.052,-131.509 438.505,-132.519 441.437,-138.876"/>
</g>
<!-- Node16 -->
<g id="node16" class="node"><title>Node16</title>
<polygon fill="white" stroke="#bfbfbf" points="607.5,-112.5 607.5,-131.5 701.5,-131.5 701.5,-112.5 607.5,-112.5"/>
<text text-anchor="middle" x="654.5" y="-119.5" font-family="Helvetica,sans-Serif" font-size="10.00">Eigen/Geometry</text>
</g>
<!-- Node14&#45;&gt;Node16 -->
<g id="edge16" class="edge"><title>Node14&#45;&gt;Node16</title>
<path fill="none" stroke="midnightblue" d="M383.775,-173.975C440.679,-163.261 538.286,-144.882 599.447,-133.366"/>
<polygon fill="midnightblue" stroke="midnightblue" points="600.129,-136.799 609.309,-131.509 598.834,-129.92 600.129,-136.799"/>
</g>
<!-- Node17 -->
<g id="node17" class="node"><title>Node17</title>
<polygon fill="white" stroke="#bfbfbf" points="763.5,-112.5 763.5,-131.5 843.5,-131.5 843.5,-112.5 763.5,-112.5"/>
<text text-anchor="middle" x="803.5" y="-119.5" font-family="Helvetica,sans-Serif" font-size="10.00">Eigen/Sparse</text>
</g>
<!-- Node14&#45;&gt;Node17 -->
<g id="edge17" class="edge"><title>Node14&#45;&gt;Node17</title>
<path fill="none" stroke="midnightblue" d="M396.523,-174.351C411.798,-172.243 428.265,-170.004 443.5,-168 553.834,-153.486 683.346,-137.572 753.011,-129.103"/>
<polygon fill="midnightblue" stroke="midnightblue" points="753.751,-132.539 763.256,-127.859 752.907,-125.59 753.751,-132.539"/>
</g>
<!-- Node18&#45;&gt;Node3 -->
<g id="edge23" class="edge"><title>Node18&#45;&gt;Node3</title>
<path fill="none" stroke="midnightblue" d="M218.234,-291.083C211.955,-283.377 202.712,-272.033 195.069,-262.653"/>
<polygon fill="midnightblue" stroke="midnightblue" points="197.661,-260.293 188.631,-254.751 192.234,-264.714 197.661,-260.293"/>
</g>
<!-- Node18&#45;&gt;Node4 -->
<g id="edge22" class="edge"><title>Node18&#45;&gt;Node4</title>
<path fill="none" stroke="midnightblue" d="M149.919,-291.468C126.084,-285.07 101.757,-274.018 85.5,-255 74.748,-242.422 72.2217,-223.776 72.2642,-208.818"/>
<polygon fill="midnightblue" stroke="midnightblue" points="75.7657,-208.85 72.6684,-198.718 68.7713,-208.57 75.7657,-208.85"/>
</g>
<!-- Node18&#45;&gt;Node14 -->
<g id="edge24" class="edge"><title>Node18&#45;&gt;Node14</title>
<path fill="none" stroke="midnightblue" d="M236.005,-291.402C246.567,-282.606 263.152,-268.37 276.5,-255 294.047,-237.424 312.671,-215.794 324.873,-201.163"/>
<polygon fill="midnightblue" stroke="midnightblue" points="327.901,-202.994 331.574,-193.057 322.505,-198.534 327.901,-202.994"/>
</g>
<!-- Node19&#45;&gt;Node5 -->
<g id="edge26" class="edge"><title>Node19&#45;&gt;Node5</title>
<path fill="none" stroke="midnightblue" d="M612.372,-239.809C562.211,-234.734 496.733,-223.559 443.5,-199 423.709,-189.869 424.218,-179.167 405.5,-168 382.478,-154.265 354.489,-142.807 332.638,-134.891"/>
<polygon fill="midnightblue" stroke="midnightblue" points="333.665,-131.542 323.07,-131.507 331.331,-138.141 333.665,-131.542"/>
</g>
<!-- Node19&#45;&gt;Node14 -->
<g id="edge38" class="edge"><title>Node19&#45;&gt;Node14</title>
<path fill="none" stroke="midnightblue" d="M633.276,-235.478C576.607,-226.88 487.411,-212.919 410.5,-199 403.756,-197.779 396.67,-196.432 389.683,-195.065"/>
<polygon fill="midnightblue" stroke="midnightblue" points="390.057,-191.572 379.568,-193.061 388.697,-198.438 390.057,-191.572"/>
</g>
<!-- Node19&#45;&gt;Node15 -->
<g id="edge27" class="edge"><title>Node19&#45;&gt;Node15</title>
<path fill="none" stroke="midnightblue" d="M722.685,-235.488C741.039,-228.801 762.516,-217.45 773.5,-199 780.548,-187.161 782.506,-178.427 773.5,-168 756.642,-148.481 592.74,-132.914 511.997,-126.361"/>
<polygon fill="midnightblue" stroke="midnightblue" points="511.893,-122.842 501.645,-125.533 511.335,-129.819 511.893,-122.842"/>
</g>
<!-- Node19&#45;&gt;Node16 -->
<g id="edge28" class="edge"><title>Node19&#45;&gt;Node16</title>
<path fill="none" stroke="midnightblue" d="M749.071,-235.483C770.825,-229.164 793.381,-218.16 806.5,-199 814.284,-187.632 814.744,-179.039 806.5,-168 784.785,-138.925 745.114,-127.863 711.745,-123.971"/>
<polygon fill="midnightblue" stroke="midnightblue" points="711.911,-120.471 701.618,-122.982 711.231,-127.438 711.911,-120.471"/>
</g>
<!-- Node19&#45;&gt;Node17 -->
<g id="edge29" class="edge"><title>Node19&#45;&gt;Node17</title>
<path fill="none" stroke="midnightblue" d="M768.509,-239.975C830.81,-234.935 910.968,-223.721 931.5,-199 958.191,-166.864 900.146,-145.011 853.73,-133.267"/>
<polygon fill="midnightblue" stroke="midnightblue" points="854.282,-129.799 843.738,-130.845 852.632,-136.602 854.282,-129.799"/>
</g>
<!-- Node20 -->
<g id="node20" class="node"><title>Node20</title>
<polygon fill="white" stroke="#bfbfbf" points="859,-174 859,-193 922,-193 922,-174 859,-174"/>
<text text-anchor="middle" x="890.5" y="-181" font-family="Helvetica,sans-Serif" font-size="10.00">functional</text>
</g>
<!-- Node19&#45;&gt;Node20 -->
<g id="edge30" class="edge"><title>Node19&#45;&gt;Node20</title>
<path fill="none" stroke="midnightblue" d="M720.366,-235.475C751.432,-226.56 801.456,-212.071 844.5,-199 847.625,-198.051 850.865,-197.055 854.113,-196.048"/>
<polygon fill="midnightblue" stroke="midnightblue" points="855.272,-199.352 863.773,-193.029 853.184,-192.671 855.272,-199.352"/>
</g>
<!-- Node21 -->
<g id="node21" class="node"><title>Node21</title>
<polygon fill="white" stroke="#bfbfbf" points="453,-168.5 453,-198.5 598,-198.5 598,-168.5 453,-168.5"/>
<text text-anchor="start" x="461" y="-186.5" font-family="Helvetica,sans-Serif" font-size="10.00">unsupported/Eigen/Aligned</text>
<text text-anchor="middle" x="525.5" y="-175.5" font-family="Helvetica,sans-Serif" font-size="10.00">Vector3</text>
</g>
<!-- Node19&#45;&gt;Node21 -->
<g id="edge31" class="edge"><title>Node19&#45;&gt;Node21</title>
<path fill="none" stroke="midnightblue" d="M666.86,-235.475C642.737,-226.776 604.607,-213.026 574.024,-201.998"/>
<polygon fill="midnightblue" stroke="midnightblue" points="574.982,-198.623 564.387,-198.523 572.607,-205.208 574.982,-198.623"/>
</g>
<!-- Node22 -->
<g id="node22" class="node"><title>Node22</title>
<g id="a_node22"><a xlink:href="Math_8hpp.html" target="_top" xlink:title="Core/Math/Math.hpp">
<polygon fill="white" stroke="black" points="978.5,-174 978.5,-193 1092.5,-193 1092.5,-174 978.5,-174"/>
<text text-anchor="middle" x="1035.5" y="-181" font-family="Helvetica,sans-Serif" font-size="10.00">Core/Math/Math.hpp</text>
</a>
</g>
</g>
<!-- Node19&#45;&gt;Node22 -->
<g id="edge32" class="edge"><title>Node19&#45;&gt;Node22</title>
<path fill="none" stroke="midnightblue" d="M746.236,-235.493C801.678,-226.879 889.119,-212.882 964.5,-199 971.15,-197.775 978.138,-196.426 985.028,-195.058"/>
<polygon fill="midnightblue" stroke="midnightblue" points="985.889,-198.455 995.003,-193.052 984.509,-191.592 985.889,-198.455"/>
</g>
<!-- Node26 -->
<g id="node26" class="node"><title>Node26</title>
<g id="a_node26"><a xlink:href="LinearAlgebra_8inl.html" target="_top" xlink:title="Core/Math/LinearAlgebra.inl">
<polygon fill="white" stroke="black" points="616,-174 616,-193 765,-193 765,-174 616,-174"/>
<text text-anchor="middle" x="690.5" y="-181" font-family="Helvetica,sans-Serif" font-size="10.00">Core/Math/LinearAlgebra.inl</text>
</a>
</g>
</g>
<!-- Node19&#45;&gt;Node26 -->
<g id="edge39" class="edge"><title>Node19&#45;&gt;Node26</title>
<path fill="none" stroke="midnightblue" d="M685.599,-235.475C683.768,-227.08 683.297,-213.981 684.185,-203.163"/>
<polygon fill="midnightblue" stroke="midnightblue" points="687.686,-203.397 685.603,-193.009 680.754,-202.429 687.686,-203.397"/>
</g>
<!-- Node22&#45;&gt;Node5 -->
<g id="edge33" class="edge"><title>Node22&#45;&gt;Node5</title>
<path fill="none" stroke="midnightblue" d="M979.452,-173.976C963.945,-171.811 947.092,-169.638 931.5,-168 924.382,-167.252 512.654,-138.225 356.064,-127.195"/>
<polygon fill="midnightblue" stroke="midnightblue" points="355.903,-123.675 345.682,-126.463 355.411,-130.657 355.903,-123.675"/>
</g>
<!-- Node23 -->
<g id="node23" class="node"><title>Node23</title>
<polygon fill="white" stroke="#bfbfbf" points="883.5,-112.5 883.5,-131.5 945.5,-131.5 945.5,-112.5 883.5,-112.5"/>
<text text-anchor="middle" x="914.5" y="-119.5" font-family="Helvetica,sans-Serif" font-size="10.00">algorithm</text>
</g>
<!-- Node22&#45;&gt;Node23 -->
<g id="edge34" class="edge"><title>Node22&#45;&gt;Node23</title>
<path fill="none" stroke="midnightblue" d="M1018.16,-173.975C997.947,-164.034 964.313,-147.495 940.858,-135.961"/>
<polygon fill="midnightblue" stroke="midnightblue" points="942.322,-132.781 931.804,-131.509 939.233,-139.063 942.322,-132.781"/>
</g>
<!-- Node24 -->
<g id="node24" class="node"><title>Node24</title>
<polygon fill="white" stroke="#bfbfbf" points="964,-112.5 964,-131.5 1011,-131.5 1011,-112.5 964,-112.5"/>
<text text-anchor="middle" x="987.5" y="-119.5" font-family="Helvetica,sans-Serif" font-size="10.00">cmath</text>
</g>
<!-- Node22&#45;&gt;Node24 -->
<g id="edge35" class="edge"><title>Node22&#45;&gt;Node24</title>
<path fill="none" stroke="midnightblue" d="M1028.62,-173.975C1021.35,-164.962 1009.7,-150.525 1000.66,-139.312"/>
<polygon fill="midnightblue" stroke="midnightblue" points="1003.37,-137.095 994.364,-131.509 997.919,-141.49 1003.37,-137.095"/>
</g>
<!-- Node25 -->
<g id="node25" class="node"><title>Node25</title>
<g id="a_node25"><a xlink:href="Math_8inl.html" target="_top" xlink:title="Core/Math/Math.inl">
<polygon fill="white" stroke="black" points="1029,-112.5 1029,-131.5 1136,-131.5 1136,-112.5 1029,-112.5"/>
<text text-anchor="middle" x="1082.5" y="-119.5" font-family="Helvetica,sans-Serif" font-size="10.00">Core/Math/Math.inl</text>
</a>
</g>
</g>
<!-- Node22&#45;&gt;Node25 -->
<g id="edge36" class="edge"><title>Node22&#45;&gt;Node25</title>
<path fill="none" stroke="midnightblue" d="M1037.33,-173.975C1042.54,-164.873 1053.71,-150.241 1063.81,-138.983"/>
<polygon fill="midnightblue" stroke="midnightblue" points="1066.55,-141.18 1070.88,-131.509 1061.47,-136.37 1066.55,-141.18"/>
</g>
<!-- Node25&#45;&gt;Node22 -->
<g id="edge37" class="edge"><title>Node25&#45;&gt;Node22</title>
<path fill="none" stroke="midnightblue" d="M1080.68,-131.509C1075.48,-140.604 1064.31,-155.236 1054.2,-166.497"/>
<polygon fill="midnightblue" stroke="midnightblue" points="1051.46,-164.304 1047.13,-173.975 1056.55,-169.113 1051.46,-164.304"/>
</g>
<!-- Node26&#45;&gt;Node19 -->
<g id="edge40" class="edge"><title>Node26&#45;&gt;Node19</title>
<path fill="none" stroke="midnightblue" d="M695.397,-193.009C697.23,-201.398 697.703,-214.496 696.817,-225.317"/>
<polygon fill="midnightblue" stroke="midnightblue" points="693.315,-225.088 695.401,-235.475 700.248,-226.054 693.315,-225.088"/>
</g>
<!-- Node27&#45;&gt;Node5 -->
<g id="edge42" class="edge"><title>Node27&#45;&gt;Node5</title>
<path fill="none" stroke="midnightblue" d="M467.114,-347.362C419.109,-328.862 313.386,-280.349 271.5,-199 261.614,-179.799 272.959,-155.886 283.392,-140.069"/>
<polygon fill="midnightblue" stroke="midnightblue" points="286.334,-141.97 289.262,-131.787 280.623,-137.922 286.334,-141.97"/>
</g>
<!-- Node28 -->
<g id="node28" class="node"><title>Node28</title>
<g id="a_node28"><a xlink:href="CircularIndex_8inl.html" target="_top" xlink:title="Core/Utils/CircularIndex.inl">
<polygon fill="white" stroke="black" points="439,-291.5 439,-310.5 580,-310.5 580,-291.5 439,-291.5"/>
<text text-anchor="middle" x="509.5" y="-298.5" font-family="Helvetica,sans-Serif" font-size="10.00">Core/Utils/CircularIndex.inl</text>
</a>
</g>
</g>
<!-- Node27&#45;&gt;Node28 -->
<g id="edge43" class="edge"><title>Node27&#45;&gt;Node28</title>
<path fill="none" stroke="midnightblue" d="M489.306,-347.083C490.211,-339.691 493.382,-328.953 497.173,-319.811"/>
<polygon fill="midnightblue" stroke="midnightblue" points="500.346,-321.288 501.452,-310.751 494.017,-318.299 500.346,-321.288"/>
</g>
<!-- Node28&#45;&gt;Node27 -->
<g id="edge44" class="edge"><title>Node28&#45;&gt;Node27</title>
<path fill="none" stroke="midnightblue" d="M511.714,-310.751C510.844,-318.092 507.694,-328.817 503.912,-337.983"/>
<polygon fill="midnightblue" stroke="midnightblue" points="500.721,-336.544 499.639,-347.083 507.057,-339.519 500.721,-336.544"/>
</g>
</g>
</svg>
