<?xml version="1.0" encoding="UTF-8" standalone="no"?>
<!DOCTYPE svg PUBLIC "-//W3C//DTD SVG 1.1//EN"
 "http://www.w3.org/Graphics/SVG/1.1/DTD/svg11.dtd">
<!-- Generated by graphviz version 2.38.0 (20140413.2041)
 -->
<!-- Title: /home/travis/build/STORM&#45;IRIT/Radium&#45;Engine/src/Core/Asset/LightData.inl Pages: 1 -->
<svg width="2895pt" height="473pt"
 viewBox="0.00 0.00 2895.00 473.00" xmlns="http://www.w3.org/2000/svg" xmlns:xlink="http://www.w3.org/1999/xlink">
<g id="graph0" class="graph" transform="scale(1 1) rotate(0) translate(4 469)">
<title>/home/travis/build/STORM&#45;IRIT/Radium&#45;Engine/src/Core/Asset/LightData.inl</title>
<polygon fill="white" stroke="none" points="-4,4 -4,-469 2891,-469 2891,4 -4,4"/>
<!-- Node1 -->
<g id="node1" class="node"><title>Node1</title>
<polygon fill="#bfbfbf" stroke="black" points="2308.5,-423.5 2308.5,-464.5 2460.5,-464.5 2460.5,-423.5 2308.5,-423.5"/>
<text text-anchor="start" x="2316.5" y="-452.5" font-family="Helvetica,sans-Serif" font-size="10.00">/home/travis/build</text>
<text text-anchor="start" x="2316.5" y="-441.5" font-family="Helvetica,sans-Serif" font-size="10.00">/STORM&#45;IRIT/Radium&#45;Engine</text>
<text text-anchor="middle" x="2384.5" y="-430.5" font-family="Helvetica,sans-Serif" font-size="10.00">/src/Core/Asset/LightData.inl</text>
</g>
<!-- Node2 -->
<g id="node2" class="node"><title>Node2</title>
<g id="a_node2"><a xlink:href="LightData_8hpp.html" target="_top" xlink:title="/home/travis/build\l/STORM&#45;IRIT/Radium&#45;Engine\l/src/Core/Asset/LightData.hpp">
<polygon fill="white" stroke="black" points="2304.5,-345.5 2304.5,-386.5 2464.5,-386.5 2464.5,-345.5 2304.5,-345.5"/>
<text text-anchor="start" x="2312.5" y="-374.5" font-family="Helvetica,sans-Serif" font-size="10.00">/home/travis/build</text>
<text text-anchor="start" x="2312.5" y="-363.5" font-family="Helvetica,sans-Serif" font-size="10.00">/STORM&#45;IRIT/Radium&#45;Engine</text>
<text text-anchor="middle" x="2384.5" y="-352.5" font-family="Helvetica,sans-Serif" font-size="10.00">/src/Core/Asset/LightData.hpp</text>
</a>
</g>
</g>
<!-- Node1&#45;&gt;Node2 -->
<g id="edge1" class="edge"><title>Node1&#45;&gt;Node2</title>
<path fill="none" stroke="midnightblue" d="M2377.9,-413.297C2377.58,-404.301 2377.78,-394.653 2378.52,-386.506"/>
<polygon fill="midnightblue" stroke="midnightblue" points="2374.41,-413.659 2378.51,-423.428 2381.4,-413.234 2374.41,-413.659"/>
</g>
<!-- Node2&#45;&gt;Node1 -->
<g id="edge20" class="edge"><title>Node2&#45;&gt;Node1</title>
<path fill="none" stroke="midnightblue" d="M2391.1,-396.63C2391.42,-405.622 2391.22,-415.272 2390.49,-423.428"/>
<polygon fill="midnightblue" stroke="midnightblue" points="2394.59,-396.273 2390.48,-386.506 2387.6,-396.701 2394.59,-396.273"/>
</g>
<!-- Node3 -->
<g id="node3" class="node"><title>Node3</title>
<g id="a_node3"><a xlink:href="FileData_8inl.html" target="_top" xlink:title="/home/travis/build\l/STORM&#45;IRIT/Radium&#45;Engine\l/src/Core/Asset/FileData.inl">
<polygon fill="white" stroke="black" points="1923.5,-262 1923.5,-303 2071.5,-303 2071.5,-262 1923.5,-262"/>
<text text-anchor="start" x="1931.5" y="-291" font-family="Helvetica,sans-Serif" font-size="10.00">/home/travis/build</text>
<text text-anchor="start" x="1931.5" y="-280" font-family="Helvetica,sans-Serif" font-size="10.00">/STORM&#45;IRIT/Radium&#45;Engine</text>
<text text-anchor="middle" x="1997.5" y="-269" font-family="Helvetica,sans-Serif" font-size="10.00">/src/Core/Asset/FileData.inl</text>
</a>
</g>
</g>
<!-- Node2&#45;&gt;Node3 -->
<g id="edge2" class="edge"><title>Node2&#45;&gt;Node3</title>
<path fill="none" stroke="midnightblue" d="M2294.51,-346.048C2226.82,-331.794 2135.19,-312.497 2071.68,-299.123"/>
<polygon fill="midnightblue" stroke="midnightblue" points="2293.81,-349.477 2304.31,-348.113 2295.25,-342.627 2293.81,-349.477"/>
</g>
<!-- Node20 -->
<g id="node20" class="node"><title>Node20</title>
<g id="a_node20"><a xlink:href="LightData_8cpp.html" target="_top" xlink:title="/home/travis/build\l/STORM&#45;IRIT/Radium&#45;Engine\l/src/Core/Asset/LightData.cpp">
<polygon fill="white" stroke="black" points="2305,-262 2305,-303 2464,-303 2464,-262 2305,-262"/>
<text text-anchor="start" x="2313" y="-291" font-family="Helvetica,sans-Serif" font-size="10.00">/home/travis/build</text>
<text text-anchor="start" x="2313" y="-280" font-family="Helvetica,sans-Serif" font-size="10.00">/STORM&#45;IRIT/Radium&#45;Engine</text>
<text text-anchor="middle" x="2384.5" y="-269" font-family="Helvetica,sans-Serif" font-size="10.00">/src/Core/Asset/LightData.cpp</text>
</a>
</g>
</g>
<!-- Node2&#45;&gt;Node20 -->
<g id="edge19" class="edge"><title>Node2&#45;&gt;Node20</title>
<path fill="none" stroke="midnightblue" d="M2384.5,-335.065C2384.5,-324.382 2384.5,-312.63 2384.5,-303.047"/>
<polygon fill="midnightblue" stroke="midnightblue" points="2381,-335.271 2384.5,-345.271 2388,-335.271 2381,-335.271"/>
</g>
<!-- Node21 -->
<g id="node21" class="node"><title>Node21</title>
<g id="a_node21"><a xlink:href="AssimpLightDataLoader_8hpp.html" target="_top" xlink:title="/home/travis/build\l/STORM&#45;IRIT/Radium&#45;Engine\l/src/IO/AssimpLoader/AssimpLight\lDataLoader.hpp">
<polygon fill="white" stroke="black" points="2590,-256.5 2590,-308.5 2769,-308.5 2769,-256.5 2590,-256.5"/>
<text text-anchor="start" x="2598" y="-296.5" font-family="Helvetica,sans-Serif" font-size="10.00">/home/travis/build</text>
<text text-anchor="start" x="2598" y="-285.5" font-family="Helvetica,sans-Serif" font-size="10.00">/STORM&#45;IRIT/Radium&#45;Engine</text>
<text text-anchor="start" x="2598" y="-274.5" font-family="Helvetica,sans-Serif" font-size="10.00">/src/IO/AssimpLoader/AssimpLight</text>
<text text-anchor="middle" x="2679.5" y="-263.5" font-family="Helvetica,sans-Serif" font-size="10.00">DataLoader.hpp</text>
</a>
</g>
</g>
<!-- Node2&#45;&gt;Node21 -->
<g id="edge21" class="edge"><title>Node2&#45;&gt;Node21</title>
<path fill="none" stroke="midnightblue" d="M2464.81,-342.811C2503.49,-332.127 2550,-319.277 2589.83,-308.274"/>
<polygon fill="midnightblue" stroke="midnightblue" points="2463.87,-339.442 2455.16,-345.479 2465.73,-346.189 2463.87,-339.442"/>
</g>
<!-- Node4 -->
<g id="node4" class="node"><title>Node4</title>
<g id="a_node4"><a xlink:href="FileData_8hpp.html" target="_top" xlink:title="/home/travis/build\l/STORM&#45;IRIT/Radium&#45;Engine\l/src/Core/Asset/FileData.hpp">
<polygon fill="white" stroke="black" points="1491.5,-173 1491.5,-214 1643.5,-214 1643.5,-173 1491.5,-173"/>
<text text-anchor="start" x="1499.5" y="-202" font-family="Helvetica,sans-Serif" font-size="10.00">/home/travis/build</text>
<text text-anchor="start" x="1499.5" y="-191" font-family="Helvetica,sans-Serif" font-size="10.00">/STORM&#45;IRIT/Radium&#45;Engine</text>
<text text-anchor="middle" x="1567.5" y="-180" font-family="Helvetica,sans-Serif" font-size="10.00">/src/Core/Asset/FileData.hpp</text>
</a>
</g>
</g>
<!-- Node3&#45;&gt;Node4 -->
<g id="edge3" class="edge"><title>Node3&#45;&gt;Node4</title>
<path fill="none" stroke="midnightblue" d="M1913.25,-264.453C1834.88,-248.597 1719.14,-225.18 1643.53,-209.882"/>
<polygon fill="midnightblue" stroke="midnightblue" points="1912.6,-267.892 1923.09,-266.445 1913.98,-261.031 1912.6,-267.892"/>
</g>
<!-- Node5 -->
<g id="node5" class="node"><title>Node5</title>
<g id="a_node5"><a xlink:href="FileData_8cpp.html" target="_top" xlink:title="/home/travis/build\l/STORM&#45;IRIT/Radium&#45;Engine\l/src/Core/Asset/FileData.cpp">
<polygon fill="white" stroke="black" points="0,-84 0,-125 151,-125 151,-84 0,-84"/>
<text text-anchor="start" x="8" y="-113" font-family="Helvetica,sans-Serif" font-size="10.00">/home/travis/build</text>
<text text-anchor="start" x="8" y="-102" font-family="Helvetica,sans-Serif" font-size="10.00">/STORM&#45;IRIT/Radium&#45;Engine</text>
<text text-anchor="middle" x="75.5" y="-91" font-family="Helvetica,sans-Serif" font-size="10.00">/src/Core/Asset/FileData.cpp</text>
</a>
</g>
</g>
<!-- Node4&#45;&gt;Node5 -->
<g id="edge4" class="edge"><title>Node4&#45;&gt;Node5</title>
<path fill="none" stroke="midnightblue" d="M1480.83,-191.519C1215.42,-188.073 416.392,-174.286 160.5,-131 151.841,-129.535 142.824,-127.459 134.038,-125.115"/>
<polygon fill="midnightblue" stroke="midnightblue" points="1481.13,-195.023 1491.18,-191.652 1481.22,-188.024 1481.13,-195.023"/>
</g>
<!-- Node6 -->
<g id="node6" class="node"><title>Node6</title>
<g id="a_node6"><a xlink:href="GeometryComponent_8cpp.html" target="_top" xlink:title="/home/travis/build\l/STORM&#45;IRIT/Radium&#45;Engine\l/src/Engine/Component/GeometryComponent.cpp">
<polygon fill="white" stroke="black" points="169.5,-84 169.5,-125 425.5,-125 425.5,-84 169.5,-84"/>
<text text-anchor="start" x="177.5" y="-113" font-family="Helvetica,sans-Serif" font-size="10.00">/home/travis/build</text>
<text text-anchor="start" x="177.5" y="-102" font-family="Helvetica,sans-Serif" font-size="10.00">/STORM&#45;IRIT/Radium&#45;Engine</text>
<text text-anchor="middle" x="297.5" y="-91" font-family="Helvetica,sans-Serif" font-size="10.00">/src/Engine/Component/GeometryComponent.cpp</text>
</a>
</g>
</g>
<!-- Node4&#45;&gt;Node6 -->
<g id="edge5" class="edge"><title>Node4&#45;&gt;Node6</title>
<path fill="none" stroke="midnightblue" d="M1481.17,-191.586C1291.39,-188.749 823.871,-177.238 435.5,-131 422.194,-129.416 408.235,-127.335 394.519,-125.045"/>
<polygon fill="midnightblue" stroke="midnightblue" points="1481.31,-195.088 1491.36,-191.733 1481.41,-188.089 1481.31,-195.088"/>
</g>
<!-- Node7 -->
<g id="node7" class="node"><title>Node7</title>
<g id="a_node7"><a xlink:href="CameraManager_8cpp.html" target="_top" xlink:title="/home/travis/build\l/STORM&#45;IRIT/Radium&#45;Engine\l/src/Engine/Managers/CameraManager\l/CameraManager.cpp">
<polygon fill="white" stroke="black" points="444,-78.5 444,-130.5 647,-130.5 647,-78.5 444,-78.5"/>
<text text-anchor="start" x="452" y="-118.5" font-family="Helvetica,sans-Serif" font-size="10.00">/home/travis/build</text>
<text text-anchor="start" x="452" y="-107.5" font-family="Helvetica,sans-Serif" font-size="10.00">/STORM&#45;IRIT/Radium&#45;Engine</text>
<text text-anchor="start" x="452" y="-96.5" font-family="Helvetica,sans-Serif" font-size="10.00">/src/Engine/Managers/CameraManager</text>
<text text-anchor="middle" x="545.5" y="-85.5" font-family="Helvetica,sans-Serif" font-size="10.00">/CameraManager.cpp</text>
</a>
</g>
</g>
<!-- Node4&#45;&gt;Node7 -->
<g id="edge6" class="edge"><title>Node4&#45;&gt;Node7</title>
<path fill="none" stroke="midnightblue" d="M1481.08,-191.216C1318.69,-187.797 957.262,-175.413 656.5,-131 653.37,-130.538 650.198,-130.034 647.001,-129.495"/>
<polygon fill="midnightblue" stroke="midnightblue" points="1481.41,-194.723 1491.48,-191.428 1481.56,-187.725 1481.41,-194.723"/>
</g>
<!-- Node8 -->
<g id="node8" class="node"><title>Node8</title>
<g id="a_node8"><a xlink:href="LightManager_8cpp.html" target="_top" xlink:title="/home/travis/build\l/STORM&#45;IRIT/Radium&#45;Engine\l/src/Engine/Managers/LightManager\l/LightManager.cpp">
<polygon fill="white" stroke="black" points="665.5,-78.5 665.5,-130.5 853.5,-130.5 853.5,-78.5 665.5,-78.5"/>
<text text-anchor="start" x="673.5" y="-118.5" font-family="Helvetica,sans-Serif" font-size="10.00">/home/travis/build</text>
<text text-anchor="start" x="673.5" y="-107.5" font-family="Helvetica,sans-Serif" font-size="10.00">/STORM&#45;IRIT/Radium&#45;Engine</text>
<text text-anchor="start" x="673.5" y="-96.5" font-family="Helvetica,sans-Serif" font-size="10.00">/src/Engine/Managers/LightManager</text>
<text text-anchor="middle" x="759.5" y="-85.5" font-family="Helvetica,sans-Serif" font-size="10.00">/LightManager.cpp</text>
</a>
</g>
</g>
<!-- Node4&#45;&gt;Node8 -->
<g id="edge7" class="edge"><title>Node4&#45;&gt;Node8</title>
<path fill="none" stroke="midnightblue" d="M1481.35,-189.231C1348.12,-183.219 1084.4,-167.509 863.5,-131 860.29,-130.47 857.033,-129.892 853.751,-129.277"/>
<polygon fill="midnightblue" stroke="midnightblue" points="1481.35,-192.734 1491.49,-189.681 1481.66,-185.741 1481.35,-192.734"/>
</g>
<!-- Node9 -->
<g id="node9" class="node"><title>Node9</title>
<g id="a_node9"><a xlink:href="RadiumEngine_8cpp.html" target="_top" xlink:title="/home/travis/build\l/STORM&#45;IRIT/Radium&#45;Engine\l/src/Engine/RadiumEngine.cpp">
<polygon fill="white" stroke="black" points="872,-84 872,-125 1033,-125 1033,-84 872,-84"/>
<text text-anchor="start" x="880" y="-113" font-family="Helvetica,sans-Serif" font-size="10.00">/home/travis/build</text>
<text text-anchor="start" x="880" y="-102" font-family="Helvetica,sans-Serif" font-size="10.00">/STORM&#45;IRIT/Radium&#45;Engine</text>
<text text-anchor="middle" x="952.5" y="-91" font-family="Helvetica,sans-Serif" font-size="10.00">/src/Engine/RadiumEngine.cpp</text>
</a>
</g>
</g>
<!-- Node4&#45;&gt;Node9 -->
<g id="edge8" class="edge"><title>Node4&#45;&gt;Node9</title>
<path fill="none" stroke="midnightblue" d="M1481.08,-186.624C1376.49,-178.538 1195.37,-161.408 1042.5,-131 1034.06,-129.321 1025.25,-127.244 1016.6,-125.006"/>
<polygon fill="midnightblue" stroke="midnightblue" points="1481.03,-190.13 1491.27,-187.402 1481.56,-183.151 1481.03,-190.13"/>
</g>
<!-- Node10 -->
<g id="node10" class="node"><title>Node10</title>
<g id="a_node10"><a xlink:href="Renderer_8cpp.html" target="_top" xlink:title="/home/travis/build\l/STORM&#45;IRIT/Radium&#45;Engine\l/src/Engine/Renderer/Renderer.cpp">
<polygon fill="white" stroke="black" points="1051.5,-84 1051.5,-125 1231.5,-125 1231.5,-84 1051.5,-84"/>
<text text-anchor="start" x="1059.5" y="-113" font-family="Helvetica,sans-Serif" font-size="10.00">/home/travis/build</text>
<text text-anchor="start" x="1059.5" y="-102" font-family="Helvetica,sans-Serif" font-size="10.00">/STORM&#45;IRIT/Radium&#45;Engine</text>
<text text-anchor="middle" x="1141.5" y="-91" font-family="Helvetica,sans-Serif" font-size="10.00">/src/Engine/Renderer/Renderer.cpp</text>
</a>
</g>
</g>
<!-- Node4&#45;&gt;Node10 -->
<g id="edge9" class="edge"><title>Node4&#45;&gt;Node10</title>
<path fill="none" stroke="midnightblue" d="M1481.54,-177.814C1415.63,-166.184 1322.53,-148.956 1241.5,-131 1233.19,-129.159 1224.52,-127.123 1215.91,-125.028"/>
<polygon fill="midnightblue" stroke="midnightblue" points="1481.02,-181.275 1491.47,-179.56 1482.23,-174.381 1481.02,-181.275"/>
</g>
<!-- Node11 -->
<g id="node11" class="node"><title>Node11</title>
<g id="a_node11"><a xlink:href="GeometrySystem_8cpp.html" target="_top" xlink:title="/home/travis/build\l/STORM&#45;IRIT/Radium&#45;Engine\l/src/Engine/System/GeometrySystem.cpp">
<polygon fill="white" stroke="black" points="1250,-84 1250,-125 1467,-125 1467,-84 1250,-84"/>
<text text-anchor="start" x="1258" y="-113" font-family="Helvetica,sans-Serif" font-size="10.00">/home/travis/build</text>
<text text-anchor="start" x="1258" y="-102" font-family="Helvetica,sans-Serif" font-size="10.00">/STORM&#45;IRIT/Radium&#45;Engine</text>
<text text-anchor="middle" x="1358.5" y="-91" font-family="Helvetica,sans-Serif" font-size="10.00">/src/Engine/System/GeometrySystem.cpp</text>
</a>
</g>
</g>
<!-- Node4&#45;&gt;Node11 -->
<g id="edge10" class="edge"><title>Node4&#45;&gt;Node11</title>
<path fill="none" stroke="midnightblue" d="M1511.08,-169.013C1478.07,-155.272 1436.87,-138.123 1405.61,-125.11"/>
<polygon fill="midnightblue" stroke="midnightblue" points="1510.02,-172.364 1520.6,-172.976 1512.71,-165.901 1510.02,-172.364"/>
</g>
<!-- Node12 -->
<g id="node12" class="node"><title>Node12</title>
<g id="a_node12"><a xlink:href="Viewer_8cpp.html" target="_top" xlink:title="/home/travis/build\l/STORM&#45;IRIT/Radium&#45;Engine\l/src/GuiBase/Viewer/Viewer.cpp">
<polygon fill="white" stroke="black" points="1485,-84 1485,-125 1650,-125 1650,-84 1485,-84"/>
<text text-anchor="start" x="1493" y="-113" font-family="Helvetica,sans-Serif" font-size="10.00">/home/travis/build</text>
<text text-anchor="start" x="1493" y="-102" font-family="Helvetica,sans-Serif" font-size="10.00">/STORM&#45;IRIT/Radium&#45;Engine</text>
<text text-anchor="middle" x="1567.5" y="-91" font-family="Helvetica,sans-Serif" font-size="10.00">/src/GuiBase/Viewer/Viewer.cpp</text>
</a>
</g>
</g>
<!-- Node4&#45;&gt;Node12 -->
<g id="edge11" class="edge"><title>Node4&#45;&gt;Node12</title>
<path fill="none" stroke="midnightblue" d="M1567.5,-162.441C1567.5,-150.101 1567.5,-136.162 1567.5,-125.164"/>
<polygon fill="midnightblue" stroke="midnightblue" points="1564,-162.758 1567.5,-172.758 1571,-162.758 1564,-162.758"/>
</g>
<!-- Node13 -->
<g id="node13" class="node"><title>Node13</title>
<g id="a_node13"><a xlink:href="AssimpFileLoader_8cpp.html" target="_top" xlink:title="/home/travis/build\l/STORM&#45;IRIT/Radium&#45;Engine\l/src/IO/AssimpLoader/AssimpFile\lLoader.cpp">
<polygon fill="white" stroke="black" points="2702,-78.5 2702,-130.5 2873,-130.5 2873,-78.5 2702,-78.5"/>
<text text-anchor="start" x="2710" y="-118.5" font-family="Helvetica,sans-Serif" font-size="10.00">/home/travis/build</text>
<text text-anchor="start" x="2710" y="-107.5" font-family="Helvetica,sans-Serif" font-size="10.00">/STORM&#45;IRIT/Radium&#45;Engine</text>
<text text-anchor="start" x="2710" y="-96.5" font-family="Helvetica,sans-Serif" font-size="10.00">/src/IO/AssimpLoader/AssimpFile</text>
<text text-anchor="middle" x="2787.5" y="-85.5" font-family="Helvetica,sans-Serif" font-size="10.00">Loader.cpp</text>
</a>
</g>
</g>
<!-- Node4&#45;&gt;Node13 -->
<g id="edge12" class="edge"><title>Node4&#45;&gt;Node13</title>
<path fill="none" stroke="midnightblue" d="M1654.07,-190.128C1881.77,-183.513 2493.62,-163.201 2693.5,-131 2696.25,-130.556 2699.04,-130.064 2701.85,-129.531"/>
<polygon fill="midnightblue" stroke="midnightblue" points="1653.74,-186.636 1643.84,-190.424 1653.94,-193.633 1653.74,-186.636"/>
</g>
<!-- Node14 -->
<g id="node14" class="node"><title>Node14</title>
<g id="a_node14"><a xlink:href="CameraLoader_8cpp.html" target="_top" xlink:title="/home/travis/build\l/STORM&#45;IRIT/Radium&#45;Engine\l/src/IO/CameraLoader/CameraLoader.cpp">
<polygon fill="white" stroke="black" points="1668,-84 1668,-125 1883,-125 1883,-84 1668,-84"/>
<text text-anchor="start" x="1676" y="-113" font-family="Helvetica,sans-Serif" font-size="10.00">/home/travis/build</text>
<text text-anchor="start" x="1676" y="-102" font-family="Helvetica,sans-Serif" font-size="10.00">/STORM&#45;IRIT/Radium&#45;Engine</text>
<text text-anchor="middle" x="1775.5" y="-91" font-family="Helvetica,sans-Serif" font-size="10.00">/src/IO/CameraLoader/CameraLoader.cpp</text>
</a>
</g>
</g>
<!-- Node4&#45;&gt;Node14 -->
<g id="edge13" class="edge"><title>Node4&#45;&gt;Node14</title>
<path fill="none" stroke="midnightblue" d="M1623.65,-169.013C1656.51,-155.272 1697.5,-138.123 1728.62,-125.11"/>
<polygon fill="midnightblue" stroke="midnightblue" points="1622.05,-165.888 1614.18,-172.976 1624.76,-172.346 1622.05,-165.888"/>
</g>
<!-- Node15 -->
<g id="node15" class="node"><title>Node15</title>
<g id="a_node15"><a xlink:href="TinyPlyFileLoader_8cpp.html" target="_top" xlink:title="/home/travis/build\l/STORM&#45;IRIT/Radium&#45;Engine\l/src/IO/TinyPlyLoader/TinyPlyFile\lLoader.cpp">
<polygon fill="white" stroke="black" points="1901,-78.5 1901,-130.5 2066,-130.5 2066,-78.5 1901,-78.5"/>
<text text-anchor="start" x="1909" y="-118.5" font-family="Helvetica,sans-Serif" font-size="10.00">/home/travis/build</text>
<text text-anchor="start" x="1909" y="-107.5" font-family="Helvetica,sans-Serif" font-size="10.00">/STORM&#45;IRIT/Radium&#45;Engine</text>
<text text-anchor="start" x="1909" y="-96.5" font-family="Helvetica,sans-Serif" font-size="10.00">/src/IO/TinyPlyLoader/TinyPlyFile</text>
<text text-anchor="middle" x="1983.5" y="-85.5" font-family="Helvetica,sans-Serif" font-size="10.00">Loader.cpp</text>
</a>
</g>
</g>
<!-- Node4&#45;&gt;Node15 -->
<g id="edge14" class="edge"><title>Node4&#45;&gt;Node15</title>
<path fill="none" stroke="midnightblue" d="M1653.64,-178.284C1719.39,-166.93 1812.06,-149.844 1892.5,-131 1895.22,-130.364 1897.97,-129.7 1900.75,-129.014"/>
<polygon fill="midnightblue" stroke="midnightblue" points="1653,-174.844 1643.74,-179.987 1654.18,-181.742 1653,-174.844"/>
</g>
<!-- Node16 -->
<g id="node16" class="node"><title>Node16</title>
<g id="a_node16"><a xlink:href="AnimationSystem_8cpp.html" target="_top" xlink:title="/home/travis/build\l/STORM&#45;IRIT/Radium&#45;Engine\l/Plugins/Animation/src/Animation\lSystem.cpp">
<polygon fill="white" stroke="black" points="2084.5,-78.5 2084.5,-130.5 2258.5,-130.5 2258.5,-78.5 2084.5,-78.5"/>
<text text-anchor="start" x="2092.5" y="-118.5" font-family="Helvetica,sans-Serif" font-size="10.00">/home/travis/build</text>
<text text-anchor="start" x="2092.5" y="-107.5" font-family="Helvetica,sans-Serif" font-size="10.00">/STORM&#45;IRIT/Radium&#45;Engine</text>
<text text-anchor="start" x="2092.5" y="-96.5" font-family="Helvetica,sans-Serif" font-size="10.00">/Plugins/Animation/src/Animation</text>
<text text-anchor="middle" x="2171.5" y="-85.5" font-family="Helvetica,sans-Serif" font-size="10.00">System.cpp</text>
</a>
</g>
</g>
<!-- Node4&#45;&gt;Node16 -->
<g id="edge15" class="edge"><title>Node4&#45;&gt;Node16</title>
<path fill="none" stroke="midnightblue" d="M1653.95,-185.725C1755.5,-176.917 1928.74,-159.232 2075.5,-131 2078.38,-130.446 2081.3,-129.853 2084.24,-129.229"/>
<polygon fill="midnightblue" stroke="midnightblue" points="1653.41,-182.258 1643.75,-186.601 1654.01,-189.232 1653.41,-182.258"/>
</g>
<!-- Node17 -->
<g id="node17" class="node"><title>Node17</title>
<g id="a_node17"><a xlink:href="MeshPaintSystem_8cpp.html" target="_top" xlink:title="/home/travis/build\l/STORM&#45;IRIT/Radium&#45;Engine\l/Plugins/MeshPaint/src/MeshPaint\lSystem.cpp">
<polygon fill="white" stroke="black" points="2276.5,-78.5 2276.5,-130.5 2450.5,-130.5 2450.5,-78.5 2276.5,-78.5"/>
<text text-anchor="start" x="2284.5" y="-118.5" font-family="Helvetica,sans-Serif" font-size="10.00">/home/travis/build</text>
<text text-anchor="start" x="2284.5" y="-107.5" font-family="Helvetica,sans-Serif" font-size="10.00">/STORM&#45;IRIT/Radium&#45;Engine</text>
<text text-anchor="start" x="2284.5" y="-96.5" font-family="Helvetica,sans-Serif" font-size="10.00">/Plugins/MeshPaint/src/MeshPaint</text>
<text text-anchor="middle" x="2363.5" y="-85.5" font-family="Helvetica,sans-Serif" font-size="10.00">System.cpp</text>
</a>
</g>
</g>
<!-- Node4&#45;&gt;Node17 -->
<g id="edge16" class="edge"><title>Node4&#45;&gt;Node17</title>
<path fill="none" stroke="midnightblue" d="M1653.78,-189.692C1786.54,-184.301 2048.5,-169.411 2267.5,-131 2270.39,-130.494 2273.31,-129.942 2276.26,-129.353"/>
<polygon fill="midnightblue" stroke="midnightblue" points="1653.53,-186.2 1643.67,-190.095 1653.81,-193.194 1653.53,-186.2"/>
</g>
<!-- Node18 -->
<g id="node18" class="node"><title>Node18</title>
<g id="a_node18"><a xlink:href="SkinningSystem_8hpp.html" target="_top" xlink:title="/home/travis/build\l/STORM&#45;IRIT/Radium&#45;Engine\l/Plugins/Skinning/src/SkinningSystem.hpp">
<polygon fill="white" stroke="black" points="2469,-84 2469,-125 2684,-125 2684,-84 2469,-84"/>
<text text-anchor="start" x="2477" y="-113" font-family="Helvetica,sans-Serif" font-size="10.00">/home/travis/build</text>
<text text-anchor="start" x="2477" y="-102" font-family="Helvetica,sans-Serif" font-size="10.00">/STORM&#45;IRIT/Radium&#45;Engine</text>
<text text-anchor="middle" x="2576.5" y="-91" font-family="Helvetica,sans-Serif" font-size="10.00">/Plugins/Skinning/src/SkinningSystem.hpp</text>
</a>
</g>
</g>
<!-- Node4&#45;&gt;Node18 -->
<g id="edge17" class="edge"><title>Node4&#45;&gt;Node18</title>
<path fill="none" stroke="midnightblue" d="M1653.91,-190.722C1813.71,-186.507 2165.9,-172.888 2459.5,-131 2470.72,-129.4 2482.46,-127.325 2494,-125.051"/>
<polygon fill="midnightblue" stroke="midnightblue" points="1653.57,-187.229 1643.66,-190.986 1653.75,-194.227 1653.57,-187.229"/>
</g>
<!-- Node19 -->
<g id="node19" class="node"><title>Node19</title>
<g id="a_node19"><a xlink:href="SkinningPlugin_8cpp.html" target="_top" xlink:title="/home/travis/build\l/STORM&#45;IRIT/Radium&#45;Engine\l/Plugins/Skinning/src/SkinningPlugin.cpp">
<polygon fill="white" stroke="black" points="2473.5,-0.5 2473.5,-41.5 2679.5,-41.5 2679.5,-0.5 2473.5,-0.5"/>
<text text-anchor="start" x="2481.5" y="-29.5" font-family="Helvetica,sans-Serif" font-size="10.00">/home/travis/build</text>
<text text-anchor="start" x="2481.5" y="-18.5" font-family="Helvetica,sans-Serif" font-size="10.00">/STORM&#45;IRIT/Radium&#45;Engine</text>
<text text-anchor="middle" x="2576.5" y="-7.5" font-family="Helvetica,sans-Serif" font-size="10.00">/Plugins/Skinning/src/SkinningPlugin.cpp</text>
</a>
</g>
</g>
<!-- Node18&#45;&gt;Node19 -->
<g id="edge18" class="edge"><title>Node18&#45;&gt;Node19</title>
<path fill="none" stroke="midnightblue" d="M2576.5,-73.5646C2576.5,-62.8819 2576.5,-51.1303 2576.5,-41.5472"/>
<polygon fill="midnightblue" stroke="midnightblue" points="2573,-73.7711 2576.5,-83.7711 2580,-73.7712 2573,-73.7711"/>
</g>
<!-- Node21&#45;&gt;Node13 -->
<g id="edge22" class="edge"><title>Node21&#45;&gt;Node13</title>
<path fill="none" stroke="midnightblue" d="M2678.79,-246.181C2679.87,-222.158 2684.49,-190.577 2699.5,-167 2708.81,-152.377 2722.97,-140.262 2737.22,-130.763"/>
<polygon fill="midnightblue" stroke="midnightblue" points="2675.28,-246.209 2678.52,-256.299 2682.28,-246.396 2675.28,-246.209"/>
</g>
<!-- Node22 -->
<g id="node22" class="node"><title>Node22</title>
<g id="a_node22"><a xlink:href="AssimpLightDataLoader_8cpp.html" target="_top" xlink:title="/home/travis/build\l/STORM&#45;IRIT/Radium&#45;Engine\l/src/IO/AssimpLoader/AssimpLight\lDataLoader.cpp">
<polygon fill="white" stroke="black" points="2708,-167.5 2708,-219.5 2887,-219.5 2887,-167.5 2708,-167.5"/>
<text text-anchor="start" x="2716" y="-207.5" font-family="Helvetica,sans-Serif" font-size="10.00">/home/travis/build</text>
<text text-anchor="start" x="2716" y="-196.5" font-family="Helvetica,sans-Serif" font-size="10.00">/STORM&#45;IRIT/Radium&#45;Engine</text>
<text text-anchor="start" x="2716" y="-185.5" font-family="Helvetica,sans-Serif" font-size="10.00">/src/IO/AssimpLoader/AssimpLight</text>
<text text-anchor="middle" x="2797.5" y="-174.5" font-family="Helvetica,sans-Serif" font-size="10.00">DataLoader.cpp</text>
</a>
</g>
</g>
<!-- Node21&#45;&gt;Node22 -->
<g id="edge23" class="edge"><title>Node21&#45;&gt;Node22</title>
<path fill="none" stroke="midnightblue" d="M2721.93,-250.219C2735.57,-240.164 2750.49,-229.16 2763.45,-219.607"/>
<polygon fill="midnightblue" stroke="midnightblue" points="2719.6,-247.585 2713.63,-256.336 2723.76,-253.219 2719.6,-247.585"/>
</g>
</g>
</svg>
