<?xml version="1.0" encoding="UTF-8" standalone="no"?>
<!DOCTYPE svg PUBLIC "-//W3C//DTD SVG 1.1//EN"
 "http://www.w3.org/Graphics/SVG/1.1/DTD/svg11.dtd">
<!-- Generated by graphviz version 2.38.0 (20140413.2041)
 -->
<!-- Title: /home/travis/build/STORM&#45;IRIT/Radium&#45;Engine/src/Engine/Renderer/Light/Light.cpp Pages: 1 -->
<svg width="1800pt" height="497pt"
 viewBox="0.00 0.00 1800.00 497.00" xmlns="http://www.w3.org/2000/svg" xmlns:xlink="http://www.w3.org/1999/xlink">
<g id="graph0" class="graph" transform="scale(1 1) rotate(0) translate(4 493)">
<title>/home/travis/build/STORM&#45;IRIT/Radium&#45;Engine/src/Engine/Renderer/Light/Light.cpp</title>
<polygon fill="white" stroke="none" points="-4,4 -4,-493 1796,-493 1796,4 -4,4"/>
<!-- Node1 -->
<g id="node1" class="node"><title>Node1</title>
<polygon fill="#bfbfbf" stroke="black" points="617,-436.5 617,-488.5 765,-488.5 765,-436.5 617,-436.5"/>
<text text-anchor="start" x="625" y="-476.5" font-family="Helvetica,sans-Serif" font-size="10.00">/home/travis/build</text>
<text text-anchor="start" x="625" y="-465.5" font-family="Helvetica,sans-Serif" font-size="10.00">/STORM&#45;IRIT/Radium&#45;Engine</text>
<text text-anchor="start" x="625" y="-454.5" font-family="Helvetica,sans-Serif" font-size="10.00">/src/Engine/Renderer/Light</text>
<text text-anchor="middle" x="691" y="-443.5" font-family="Helvetica,sans-Serif" font-size="10.00">/Light.cpp</text>
</g>
<!-- Node2 -->
<g id="node2" class="node"><title>Node2</title>
<g id="a_node2"><a xlink:href="Light_8hpp.html" target="_top" xlink:title="Engine/Renderer/Light\l/Light.hpp">
<polygon fill="white" stroke="black" points="331.5,-235.5 331.5,-265.5 452.5,-265.5 452.5,-235.5 331.5,-235.5"/>
<text text-anchor="start" x="339.5" y="-253.5" font-family="Helvetica,sans-Serif" font-size="10.00">Engine/Renderer/Light</text>
<text text-anchor="middle" x="392" y="-242.5" font-family="Helvetica,sans-Serif" font-size="10.00">/Light.hpp</text>
</a>
</g>
</g>
<!-- Node1&#45;&gt;Node2 -->
<g id="edge1" class="edge"><title>Node1&#45;&gt;Node2</title>
<path fill="none" stroke="midnightblue" d="M655.231,-436.378C595.052,-394.112 474.788,-309.645 420.16,-271.278"/>
<polygon fill="midnightblue" stroke="midnightblue" points="422.171,-268.413 411.976,-265.53 418.147,-274.141 422.171,-268.413"/>
</g>
<!-- Node21 -->
<g id="node21" class="node"><title>Node21</title>
<g id="a_node21"><a xlink:href="RadiumEngine_8hpp.html" target="_top" xlink:title="Engine/RadiumEngine.hpp">
<polygon fill="white" stroke="black" points="620.5,-241 620.5,-260 761.5,-260 761.5,-241 620.5,-241"/>
<text text-anchor="middle" x="691" y="-248" font-family="Helvetica,sans-Serif" font-size="10.00">Engine/RadiumEngine.hpp</text>
</a>
</g>
</g>
<!-- Node1&#45;&gt;Node21 -->
<g id="edge25" class="edge"><title>Node1&#45;&gt;Node21</title>
<path fill="none" stroke="midnightblue" d="M691,-436.169C691,-393.461 691,-308.092 691,-270.275"/>
<polygon fill="midnightblue" stroke="midnightblue" points="694.5,-270.165 691,-260.165 687.5,-270.165 694.5,-270.165"/>
</g>
<!-- Node27 -->
<g id="node27" class="node"><title>Node27</title>
<g id="a_node27"><a xlink:href="RenderParameters_8hpp.html" target="_top" xlink:title="Engine/Renderer/RenderTechnique\l/RenderParameters.hpp">
<polygon fill="white" stroke="black" points="883,-369.5 883,-399.5 1061,-399.5 1061,-369.5 883,-369.5"/>
<text text-anchor="start" x="891" y="-387.5" font-family="Helvetica,sans-Serif" font-size="10.00">Engine/Renderer/RenderTechnique</text>
<text text-anchor="middle" x="972" y="-376.5" font-family="Helvetica,sans-Serif" font-size="10.00">/RenderParameters.hpp</text>
</a>
</g>
</g>
<!-- Node1&#45;&gt;Node27 -->
<g id="edge34" class="edge"><title>Node1&#45;&gt;Node27</title>
<path fill="none" stroke="midnightblue" d="M765.197,-441.432C810.452,-429.193 867.616,-413.732 910.368,-402.169"/>
<polygon fill="midnightblue" stroke="midnightblue" points="911.345,-405.531 920.084,-399.541 909.517,-398.774 911.345,-405.531"/>
</g>
<!-- Node3 -->
<g id="node3" class="node"><title>Node3</title>
<g id="a_node3"><a xlink:href="Color_8hpp.html" target="_top" xlink:title="Core/Utils/Color.hpp">
<polygon fill="white" stroke="black" points="29.5,-174 29.5,-193 140.5,-193 140.5,-174 29.5,-174"/>
<text text-anchor="middle" x="85" y="-181" font-family="Helvetica,sans-Serif" font-size="10.00">Core/Utils/Color.hpp</text>
</a>
</g>
</g>
<!-- Node2&#45;&gt;Node3 -->
<g id="edge2" class="edge"><title>Node2&#45;&gt;Node3</title>
<path fill="none" stroke="midnightblue" d="M331.269,-237.193C282.075,-227.148 211.003,-212.465 149,-199 143.573,-197.821 137.891,-196.566 132.25,-195.305"/>
<polygon fill="midnightblue" stroke="midnightblue" points="132.726,-191.825 122.201,-193.047 131.19,-198.655 132.726,-191.825"/>
</g>
<!-- Node13 -->
<g id="node13" class="node"><title>Node13</title>
<g id="a_node13"><a xlink:href="Component_8hpp.html" target="_top" xlink:title="Engine/Component/Component.hpp">
<polygon fill="white" stroke="black" points="298,-174 298,-193 486,-193 486,-174 298,-174"/>
<text text-anchor="middle" x="392" y="-181" font-family="Helvetica,sans-Serif" font-size="10.00">Engine/Component/Component.hpp</text>
</a>
</g>
</g>
<!-- Node2&#45;&gt;Node13 -->
<g id="edge12" class="edge"><title>Node2&#45;&gt;Node13</title>
<path fill="none" stroke="midnightblue" d="M392,-235.396C392,-226.064 392,-213.714 392,-203.517"/>
<polygon fill="midnightblue" stroke="midnightblue" points="395.5,-203.195 392,-193.195 388.5,-203.195 395.5,-203.195"/>
</g>
<!-- Node17 -->
<g id="node17" class="node"><title>Node17</title>
<g id="a_node17"><a xlink:href="RaEngine_8hpp.html" target="_top" xlink:title="Engine/RaEngine.hpp">
<polygon fill="white" stroke="black" points="639.5,-112.5 639.5,-131.5 756.5,-131.5 756.5,-112.5 639.5,-112.5"/>
<text text-anchor="middle" x="698" y="-119.5" font-family="Helvetica,sans-Serif" font-size="10.00">Engine/RaEngine.hpp</text>
</a>
</g>
</g>
<!-- Node2&#45;&gt;Node17 -->
<g id="edge23" class="edge"><title>Node2&#45;&gt;Node17</title>
<path fill="none" stroke="midnightblue" d="M424.288,-235.376C444.966,-225.919 472.114,-212.726 495,-199 515.204,-186.882 516.78,-178.235 538,-168 570.833,-152.164 610.224,-140.999 641.705,-133.752"/>
<polygon fill="midnightblue" stroke="midnightblue" points="642.633,-137.131 651.63,-131.535 641.107,-130.299 642.633,-137.131"/>
</g>
<!-- Node20 -->
<g id="node20" class="node"><title>Node20</title>
<g id="a_node20"><a xlink:href="Light_8inl.html" target="_top" xlink:title="Engine/Renderer/Light\l/Light.inl">
<polygon fill="white" stroke="black" points="158.5,-168.5 158.5,-198.5 279.5,-198.5 279.5,-168.5 158.5,-168.5"/>
<text text-anchor="start" x="166.5" y="-186.5" font-family="Helvetica,sans-Serif" font-size="10.00">Engine/Renderer/Light</text>
<text text-anchor="middle" x="219" y="-175.5" font-family="Helvetica,sans-Serif" font-size="10.00">/Light.inl</text>
</a>
</g>
</g>
<!-- Node2&#45;&gt;Node20 -->
<g id="edge24" class="edge"><title>Node2&#45;&gt;Node20</title>
<path fill="none" stroke="midnightblue" d="M354.462,-235.396C328.504,-225.643 293.776,-212.595 265.981,-202.152"/>
<polygon fill="midnightblue" stroke="midnightblue" points="267.057,-198.817 256.465,-198.577 264.595,-205.37 267.057,-198.817"/>
</g>
<!-- Node4 -->
<g id="node4" class="node"><title>Node4</title>
<g id="a_node4"><a xlink:href="CoreMacros_8hpp.html" target="_top" xlink:title="Core/CoreMacros.hpp">
<polygon fill="white" stroke="black" points="802,-56.5 802,-75.5 922,-75.5 922,-56.5 802,-56.5"/>
<text text-anchor="middle" x="862" y="-63.5" font-family="Helvetica,sans-Serif" font-size="10.00">Core/CoreMacros.hpp</text>
</a>
</g>
</g>
<!-- Node3&#45;&gt;Node4 -->
<g id="edge3" class="edge"><title>Node3&#45;&gt;Node4</title>
<path fill="none" stroke="midnightblue" d="M120.445,-173.963C129.709,-171.871 139.705,-169.736 149,-168 256.755,-147.875 288.612,-165.458 393,-132 411.55,-126.054 413.329,-117.553 432,-112 554.889,-75.4539 705.216,-67.6431 791.661,-66.4918"/>
<polygon fill="midnightblue" stroke="midnightblue" points="791.918,-69.9893 801.88,-66.3829 791.843,-62.9897 791.918,-69.9893"/>
</g>
<!-- Node10 -->
<g id="node10" class="node"><title>Node10</title>
<polygon fill="white" stroke="#bfbfbf" points="441,-112.5 441,-131.5 509,-131.5 509,-112.5 441,-112.5"/>
<text text-anchor="middle" x="475" y="-119.5" font-family="Helvetica,sans-Serif" font-size="10.00">Eigen/Core</text>
</g>
<!-- Node3&#45;&gt;Node10 -->
<g id="edge9" class="edge"><title>Node3&#45;&gt;Node10</title>
<path fill="none" stroke="midnightblue" d="M120.09,-173.925C129.448,-171.81 139.578,-169.674 149,-168 271.667,-146.211 303.946,-151.488 427,-132 428.272,-131.799 429.562,-131.589 430.863,-131.374"/>
<polygon fill="midnightblue" stroke="midnightblue" points="431.695,-134.782 440.953,-129.63 430.503,-127.884 431.695,-134.782"/>
</g>
<!-- Node11 -->
<g id="node11" class="node"><title>Node11</title>
<polygon fill="white" stroke="#bfbfbf" points="527,-112.5 527,-131.5 621,-131.5 621,-112.5 527,-112.5"/>
<text text-anchor="middle" x="574" y="-119.5" font-family="Helvetica,sans-Serif" font-size="10.00">Eigen/Geometry</text>
</g>
<!-- Node3&#45;&gt;Node11 -->
<g id="edge10" class="edge"><title>Node3&#45;&gt;Node11</title>
<path fill="none" stroke="midnightblue" d="M119.056,-173.951C128.689,-171.76 139.215,-169.579 149,-168 308.496,-142.256 352.854,-152.655 517.022,-132.044"/>
<polygon fill="midnightblue" stroke="midnightblue" points="517.5,-135.511 526.977,-130.774 516.615,-128.567 517.5,-135.511"/>
</g>
<!-- Node12 -->
<g id="node12" class="node"><title>Node12</title>
<polygon fill="white" stroke="#bfbfbf" points="0,-112.5 0,-131.5 54,-131.5 54,-112.5 0,-112.5"/>
<text text-anchor="middle" x="27" y="-119.5" font-family="Helvetica,sans-Serif" font-size="10.00">random</text>
</g>
<!-- Node3&#45;&gt;Node12 -->
<g id="edge11" class="edge"><title>Node3&#45;&gt;Node12</title>
<path fill="none" stroke="midnightblue" d="M76.69,-173.975C67.8177,-164.873 53.5542,-150.241 42.58,-138.983"/>
<polygon fill="midnightblue" stroke="midnightblue" points="44.7811,-136.227 35.2946,-131.509 39.7686,-141.113 44.7811,-136.227"/>
</g>
<!-- Node5 -->
<g id="node5" class="node"><title>Node5</title>
<polygon fill="white" stroke="#bfbfbf" points="940,-0.5 940,-19.5 992,-19.5 992,-0.5 940,-0.5"/>
<text text-anchor="middle" x="966" y="-7.5" font-family="Helvetica,sans-Serif" font-size="10.00">cassert</text>
</g>
<!-- Node4&#45;&gt;Node5 -->
<g id="edge4" class="edge"><title>Node4&#45;&gt;Node5</title>
<path fill="none" stroke="midnightblue" d="M878.709,-56.324C895.312,-47.7034 921.002,-34.3643 940.22,-24.3855"/>
<polygon fill="midnightblue" stroke="midnightblue" points="942.07,-27.3689 949.332,-19.6545 938.844,-21.1565 942.07,-27.3689"/>
</g>
<!-- Node6 -->
<g id="node6" class="node"><title>Node6</title>
<polygon fill="white" stroke="#bfbfbf" points="733.5,-0.5 733.5,-19.5 778.5,-19.5 778.5,-0.5 733.5,-0.5"/>
<text text-anchor="middle" x="756" y="-7.5" font-family="Helvetica,sans-Serif" font-size="10.00">cstdio</text>
</g>
<!-- Node4&#45;&gt;Node6 -->
<g id="edge5" class="edge"><title>Node4&#45;&gt;Node6</title>
<path fill="none" stroke="midnightblue" d="M844.969,-56.324C827.97,-47.6641 801.624,-34.2424 782.007,-24.249"/>
<polygon fill="midnightblue" stroke="midnightblue" points="783.488,-21.0752 772.988,-19.6545 780.31,-27.3125 783.488,-21.0752"/>
</g>
<!-- Node7 -->
<g id="node7" class="node"><title>Node7</title>
<polygon fill="white" stroke="#bfbfbf" points="796.5,-0.5 796.5,-19.5 855.5,-19.5 855.5,-0.5 796.5,-0.5"/>
<text text-anchor="middle" x="826" y="-7.5" font-family="Helvetica,sans-Serif" font-size="10.00">iostream</text>
</g>
<!-- Node4&#45;&gt;Node7 -->
<g id="edge6" class="edge"><title>Node4&#45;&gt;Node7</title>
<path fill="none" stroke="midnightblue" d="M856.055,-56.083C851.023,-48.5341 843.663,-37.4948 837.487,-28.2298"/>
<polygon fill="midnightblue" stroke="midnightblue" points="840.293,-26.1301 831.834,-19.7511 834.469,-30.0131 840.293,-26.1301"/>
</g>
<!-- Node8 -->
<g id="node8" class="node"><title>Node8</title>
<polygon fill="white" stroke="#bfbfbf" points="1447,-0.5 1447,-19.5 1503,-19.5 1503,-0.5 1447,-0.5"/>
<text text-anchor="middle" x="1475" y="-7.5" font-family="Helvetica,sans-Serif" font-size="10.00">sstream</text>
</g>
<!-- Node4&#45;&gt;Node8 -->
<g id="edge7" class="edge"><title>Node4&#45;&gt;Node8</title>
<path fill="none" stroke="midnightblue" d="M922.174,-59.6992C1047.58,-48.652 1333.8,-23.4383 1437.01,-14.3465"/>
<polygon fill="midnightblue" stroke="midnightblue" points="1437.33,-17.8321 1446.98,-13.468 1436.71,-10.8591 1437.33,-17.8321"/>
</g>
<!-- Node9 -->
<g id="node9" class="node"><title>Node9</title>
<polygon fill="white" stroke="#bfbfbf" points="874,-0.5 874,-19.5 922,-19.5 922,-0.5 874,-0.5"/>
<text text-anchor="middle" x="898" y="-7.5" font-family="Helvetica,sans-Serif" font-size="10.00">thread</text>
</g>
<!-- Node4&#45;&gt;Node9 -->
<g id="edge8" class="edge"><title>Node4&#45;&gt;Node9</title>
<path fill="none" stroke="midnightblue" d="M867.945,-56.083C872.977,-48.5341 880.337,-37.4948 886.513,-28.2298"/>
<polygon fill="midnightblue" stroke="midnightblue" points="889.531,-30.0131 892.166,-19.7511 883.707,-26.1301 889.531,-30.0131"/>
</g>
<!-- Node13&#45;&gt;Node10 -->
<g id="edge16" class="edge"><title>Node13&#45;&gt;Node10</title>
<path fill="none" stroke="midnightblue" d="M403.892,-173.975C417.205,-164.431 439,-148.807 454.957,-137.368"/>
<polygon fill="midnightblue" stroke="midnightblue" points="457.042,-140.18 463.13,-131.509 452.964,-134.491 457.042,-140.18"/>
</g>
<!-- Node13&#45;&gt;Node11 -->
<g id="edge17" class="edge"><title>Node13&#45;&gt;Node11</title>
<path fill="none" stroke="midnightblue" d="M418.076,-173.975C449.566,-163.68 502.698,-146.31 538.058,-134.75"/>
<polygon fill="midnightblue" stroke="midnightblue" points="539.555,-137.943 547.972,-131.509 537.38,-131.29 539.555,-137.943"/>
</g>
<!-- Node14 -->
<g id="node14" class="node"><title>Node14</title>
<g id="a_node14"><a xlink:href="Index_8hpp.html" target="_top" xlink:title="Core/Utils/Index.hpp">
<polygon fill="white" stroke="black" points="271.5,-112.5 271.5,-131.5 384.5,-131.5 384.5,-112.5 271.5,-112.5"/>
<text text-anchor="middle" x="328" y="-119.5" font-family="Helvetica,sans-Serif" font-size="10.00">Core/Utils/Index.hpp</text>
</a>
</g>
</g>
<!-- Node13&#45;&gt;Node14 -->
<g id="edge13" class="edge"><title>Node13&#45;&gt;Node14</title>
<path fill="none" stroke="midnightblue" d="M382.83,-173.975C372.85,-164.697 356.688,-149.671 344.491,-138.331"/>
<polygon fill="midnightblue" stroke="midnightblue" points="346.86,-135.755 337.153,-131.509 342.093,-140.881 346.86,-135.755"/>
</g>
<!-- Node13&#45;&gt;Node17 -->
<g id="edge18" class="edge"><title>Node13&#45;&gt;Node17</title>
<path fill="none" stroke="midnightblue" d="M435.842,-173.975C490.832,-163.283 585.074,-144.958 644.322,-133.437"/>
<polygon fill="midnightblue" stroke="midnightblue" points="645.091,-136.854 654.239,-131.509 643.755,-129.982 645.091,-136.854"/>
</g>
<!-- Node18 -->
<g id="node18" class="node"><title>Node18</title>
<polygon fill="white" stroke="#bfbfbf" points="774.5,-112.5 774.5,-131.5 821.5,-131.5 821.5,-112.5 774.5,-112.5"/>
<text text-anchor="middle" x="798" y="-119.5" font-family="Helvetica,sans-Serif" font-size="10.00">vector</text>
</g>
<!-- Node13&#45;&gt;Node18 -->
<g id="edge20" class="edge"><title>Node13&#45;&gt;Node18</title>
<path fill="none" stroke="midnightblue" d="M479.217,-173.978C552.785,-166.033 660.964,-152.582 764.312,-131.891"/>
<polygon fill="midnightblue" stroke="midnightblue" points="765.192,-135.284 774.297,-129.866 763.8,-128.423 765.192,-135.284"/>
</g>
<!-- Node19 -->
<g id="node19" class="node"><title>Node19</title>
<g id="a_node19"><a xlink:href="Component_8inl.html" target="_top" xlink:title="Engine/Component/Component.inl">
<polygon fill="white" stroke="black" points="72.5,-112.5 72.5,-131.5 253.5,-131.5 253.5,-112.5 72.5,-112.5"/>
<text text-anchor="middle" x="163" y="-119.5" font-family="Helvetica,sans-Serif" font-size="10.00">Engine/Component/Component.inl</text>
</a>
</g>
</g>
<!-- Node13&#45;&gt;Node19 -->
<g id="edge21" class="edge"><title>Node13&#45;&gt;Node19</title>
<path fill="none" stroke="midnightblue" d="M354.289,-173.975C311.703,-163.504 243.059,-145.712 200.546,-134.16"/>
<polygon fill="midnightblue" stroke="midnightblue" points="201.421,-130.771 190.852,-131.509 199.575,-137.523 201.421,-130.771"/>
</g>
<!-- Node15 -->
<g id="node15" class="node"><title>Node15</title>
<polygon fill="white" stroke="#bfbfbf" points="261,-56.5 261,-75.5 303,-75.5 303,-56.5 261,-56.5"/>
<text text-anchor="middle" x="282" y="-63.5" font-family="Helvetica,sans-Serif" font-size="10.00">limits</text>
</g>
<!-- Node14&#45;&gt;Node15 -->
<g id="edge14" class="edge"><title>Node14&#45;&gt;Node15</title>
<path fill="none" stroke="midnightblue" d="M320.404,-112.083C313.773,-104.298 303.979,-92.8015 295.942,-83.3665"/>
<polygon fill="midnightblue" stroke="midnightblue" points="298.604,-81.0939 289.455,-75.7511 293.275,-85.6332 298.604,-81.0939"/>
</g>
<!-- Node16 -->
<g id="node16" class="node"><title>Node16</title>
<g id="a_node16"><a xlink:href="Index_8inl.html" target="_top" xlink:title="Core/Utils/Index.inl">
<polygon fill="white" stroke="black" points="321.5,-56.5 321.5,-75.5 426.5,-75.5 426.5,-56.5 321.5,-56.5"/>
<text text-anchor="middle" x="374" y="-63.5" font-family="Helvetica,sans-Serif" font-size="10.00">Core/Utils/Index.inl</text>
</a>
</g>
</g>
<!-- Node14&#45;&gt;Node16 -->
<g id="edge15" class="edge"><title>Node14&#45;&gt;Node16</title>
<path fill="none" stroke="midnightblue" d="M335.596,-112.083C342.227,-104.298 352.021,-92.8015 360.058,-83.3665"/>
<polygon fill="midnightblue" stroke="midnightblue" points="362.725,-85.6332 366.545,-75.7511 357.396,-81.0939 362.725,-85.6332"/>
</g>
<!-- Node17&#45;&gt;Node4 -->
<g id="edge19" class="edge"><title>Node17&#45;&gt;Node4</title>
<path fill="none" stroke="midnightblue" d="M723.986,-112.444C751.696,-103.32 795.752,-88.8133 826.616,-78.6509"/>
<polygon fill="midnightblue" stroke="midnightblue" points="827.732,-81.9684 836.135,-75.5164 825.542,-75.3196 827.732,-81.9684"/>
</g>
<!-- Node19&#45;&gt;Node13 -->
<g id="edge22" class="edge"><title>Node19&#45;&gt;Node13</title>
<path fill="none" stroke="midnightblue" d="M200.646,-131.509C243.206,-141.973 311.851,-159.764 354.39,-171.322"/>
<polygon fill="midnightblue" stroke="midnightblue" points="353.521,-174.713 364.09,-173.975 355.368,-167.961 353.521,-174.713"/>
</g>
<!-- Node21&#45;&gt;Node17 -->
<g id="edge26" class="edge"><title>Node21&#45;&gt;Node17</title>
<path fill="none" stroke="midnightblue" d="M663.989,-240.869C644.879,-233.184 620.659,-219.873 609,-199 602.281,-186.971 601.783,-179.736 609,-168 618.553,-152.465 635.311,-142.096 651.728,-135.272"/>
<polygon fill="midnightblue" stroke="midnightblue" points="653.183,-138.463 661.298,-131.651 650.706,-131.916 653.183,-138.463"/>
</g>
<!-- Node21&#45;&gt;Node18 -->
<g id="edge33" class="edge"><title>Node21&#45;&gt;Node18</title>
<path fill="none" stroke="midnightblue" d="M689.811,-240.904C688.08,-224.878 686.661,-190.069 703,-168 710.922,-157.3 740.67,-144.18 764.794,-134.874"/>
<polygon fill="midnightblue" stroke="midnightblue" points="766.252,-138.065 774.373,-131.261 763.781,-131.515 766.252,-138.065"/>
</g>
<!-- Node22 -->
<g id="node22" class="node"><title>Node22</title>
<g id="a_node22"><a xlink:href="Singleton_8hpp.html" target="_top" xlink:title="Core/Utils/Singleton.hpp">
<polygon fill="white" stroke="black" points="960,-174 960,-193 1092,-193 1092,-174 960,-174"/>
<text text-anchor="middle" x="1026" y="-181" font-family="Helvetica,sans-Serif" font-size="10.00">Core/Utils/Singleton.hpp</text>
</a>
</g>
</g>
<!-- Node21&#45;&gt;Node22 -->
<g id="edge27" class="edge"><title>Node21&#45;&gt;Node22</title>
<path fill="none" stroke="midnightblue" d="M735.14,-240.936C796.106,-229.106 905.998,-207.784 971.852,-195.006"/>
<polygon fill="midnightblue" stroke="midnightblue" points="972.879,-198.373 982.029,-193.032 971.545,-191.501 972.879,-198.373"/>
</g>
<!-- Node24 -->
<g id="node24" class="node"><title>Node24</title>
<polygon fill="white" stroke="#bfbfbf" points="618,-174 618,-193 656,-193 656,-174 618,-174"/>
<text text-anchor="middle" x="637" y="-181" font-family="Helvetica,sans-Serif" font-size="10.00">map</text>
</g>
<!-- Node21&#45;&gt;Node24 -->
<g id="edge30" class="edge"><title>Node21&#45;&gt;Node24</title>
<path fill="none" stroke="midnightblue" d="M683.717,-240.734C675.297,-230.598 661.25,-213.69 650.754,-201.056"/>
<polygon fill="midnightblue" stroke="midnightblue" points="653.25,-198.583 644.167,-193.127 647.865,-203.056 653.25,-198.583"/>
</g>
<!-- Node25 -->
<g id="node25" class="node"><title>Node25</title>
<polygon fill="white" stroke="#bfbfbf" points="712.5,-174 712.5,-193 769.5,-193 769.5,-174 712.5,-174"/>
<text text-anchor="middle" x="741" y="-181" font-family="Helvetica,sans-Serif" font-size="10.00">memory</text>
</g>
<!-- Node21&#45;&gt;Node25 -->
<g id="edge31" class="edge"><title>Node21&#45;&gt;Node25</title>
<path fill="none" stroke="midnightblue" d="M697.743,-240.734C705.54,-230.598 718.546,-213.69 728.265,-201.056"/>
<polygon fill="midnightblue" stroke="midnightblue" points="731.041,-203.188 734.364,-193.127 725.492,-198.92 731.041,-203.188"/>
</g>
<!-- Node26 -->
<g id="node26" class="node"><title>Node26</title>
<polygon fill="white" stroke="#bfbfbf" points="1569,-112.5 1569,-131.5 1613,-131.5 1613,-112.5 1569,-112.5"/>
<text text-anchor="middle" x="1591" y="-119.5" font-family="Helvetica,sans-Serif" font-size="10.00">string</text>
</g>
<!-- Node21&#45;&gt;Node26 -->
<g id="edge32" class="edge"><title>Node21&#45;&gt;Node26</title>
<path fill="none" stroke="midnightblue" d="M761.691,-245.48C969.503,-233.653 1564,-199.758 1565,-199 1582.58,-185.654 1588.36,-159.767 1590.21,-141.943"/>
<polygon fill="midnightblue" stroke="midnightblue" points="1593.71,-142.064 1590.94,-131.839 1586.73,-141.563 1593.71,-142.064"/>
</g>
<!-- Node23 -->
<g id="node23" class="node"><title>Node23</title>
<g id="a_node23"><a xlink:href="RaCore_8hpp.html" target="_top" xlink:title="Core/RaCore.hpp">
<polygon fill="white" stroke="black" points="977,-112.5 977,-131.5 1075,-131.5 1075,-112.5 977,-112.5"/>
<text text-anchor="middle" x="1026" y="-119.5" font-family="Helvetica,sans-Serif" font-size="10.00">Core/RaCore.hpp</text>
</a>
</g>
</g>
<!-- Node22&#45;&gt;Node23 -->
<g id="edge28" class="edge"><title>Node22&#45;&gt;Node23</title>
<path fill="none" stroke="midnightblue" d="M1026,-173.975C1026,-165.58 1026,-152.481 1026,-141.663"/>
<polygon fill="midnightblue" stroke="midnightblue" points="1029.5,-141.509 1026,-131.509 1022.5,-141.509 1029.5,-141.509"/>
</g>
<!-- Node23&#45;&gt;Node4 -->
<g id="edge29" class="edge"><title>Node23&#45;&gt;Node4</title>
<path fill="none" stroke="midnightblue" d="M1000.01,-112.444C972.304,-103.32 928.248,-88.8133 897.384,-78.6509"/>
<polygon fill="midnightblue" stroke="midnightblue" points="898.458,-75.3196 887.865,-75.5164 896.268,-81.9684 898.458,-75.3196"/>
</g>
<!-- Node27&#45;&gt;Node17 -->
<g id="edge35" class="edge"><title>Node27&#45;&gt;Node17</title>
<path fill="none" stroke="midnightblue" d="M882.827,-379.682C799.679,-371.086 678.62,-344.763 611,-266 582.45,-232.745 576.342,-204.896 600,-168 610.274,-151.976 627.846,-141.582 645.297,-134.874"/>
<polygon fill="midnightblue" stroke="midnightblue" points="646.643,-138.111 654.933,-131.514 644.338,-131.502 646.643,-138.111"/>
</g>
<!-- Node27&#45;&gt;Node18 -->
<g id="edge37" class="edge"><title>Node27&#45;&gt;Node18</title>
<path fill="none" stroke="midnightblue" d="M951.053,-369.482C937.853,-360.067 920.923,-346.881 908,-333 858.946,-280.309 846.406,-264.711 817,-199 808.685,-180.419 803.598,-157.587 800.807,-141.825"/>
<polygon fill="midnightblue" stroke="midnightblue" points="804.23,-141.067 799.167,-131.76 797.321,-142.193 804.23,-141.067"/>
</g>
<!-- Node28 -->
<g id="node28" class="node"><title>Node28</title>
<polygon fill="white" stroke="#bfbfbf" points="1513,-112.5 1513,-131.5 1545,-131.5 1545,-112.5 1513,-112.5"/>
<text text-anchor="middle" x="1529" y="-119.5" font-family="Helvetica,sans-Serif" font-size="10.00">set</text>
</g>
<!-- Node27&#45;&gt;Node28 -->
<g id="edge36" class="edge"><title>Node27&#45;&gt;Node28</title>
<path fill="none" stroke="midnightblue" d="M1061.18,-378.305C1166.03,-371.232 1333.1,-356.672 1391,-333 1481.35,-296.062 1521.91,-286.58 1565,-199 1571.08,-186.638 1569.56,-181.001 1565,-168 1561.21,-157.209 1553.63,-147.084 1546.4,-139.181"/>
<polygon fill="midnightblue" stroke="midnightblue" points="1548.67,-136.494 1539.16,-131.815 1543.67,-141.4 1548.67,-136.494"/>
</g>
<!-- Node29 -->
<g id="node29" class="node"><title>Node29</title>
<g id="a_node29"><a xlink:href="AlignedAllocator_8hpp.html" target="_top" xlink:title="Core/Containers/AlignedAllocator.hpp">
<polygon fill="white" stroke="black" points="934,-308 934,-327 1128,-327 1128,-308 934,-308"/>
<text text-anchor="middle" x="1031" y="-315" font-family="Helvetica,sans-Serif" font-size="10.00">Core/Containers/AlignedAllocator.hpp</text>
</a>
</g>
</g>
<!-- Node27&#45;&gt;Node29 -->
<g id="edge38" class="edge"><title>Node27&#45;&gt;Node29</title>
<path fill="none" stroke="midnightblue" d="M984.802,-369.396C994.093,-359.161 1006.68,-345.296 1016.37,-334.622"/>
<polygon fill="midnightblue" stroke="midnightblue" points="1018.98,-336.951 1023.11,-327.195 1013.8,-332.247 1018.98,-336.951"/>
</g>
<!-- Node34 -->
<g id="node34" class="node"><title>Node34</title>
<g id="a_node34"><a xlink:href="Types_8hpp.html" target="_top" xlink:title="Core/Math/Types.hpp">
<polygon fill="white" stroke="black" points="826,-174 826,-193 942,-193 942,-174 826,-174"/>
<text text-anchor="middle" x="884" y="-181" font-family="Helvetica,sans-Serif" font-size="10.00">Core/Math/Types.hpp</text>
</a>
</g>
</g>
<!-- Node27&#45;&gt;Node34 -->
<g id="edge44" class="edge"><title>Node27&#45;&gt;Node34</title>
<path fill="none" stroke="midnightblue" d="M955.028,-369.148C944.965,-359.797 932.71,-346.802 925,-333 901.048,-290.125 890.363,-232.354 886.235,-203.116"/>
<polygon fill="midnightblue" stroke="midnightblue" points="889.69,-202.543 884.922,-193.082 882.749,-203.452 889.69,-202.543"/>
</g>
<!-- Node36 -->
<g id="node36" class="node"><title>Node36</title>
<g id="a_node36"><a xlink:href="Log_8hpp.html" target="_top" xlink:title="Core/Utils/Log.hpp">
<polygon fill="white" stroke="black" points="1688,-174 1688,-193 1792,-193 1792,-174 1688,-174"/>
<text text-anchor="middle" x="1740" y="-181" font-family="Helvetica,sans-Serif" font-size="10.00">Core/Utils/Log.hpp</text>
</a>
</g>
</g>
<!-- Node27&#45;&gt;Node36 -->
<g id="edge49" class="edge"><title>Node27&#45;&gt;Node36</title>
<path fill="none" stroke="midnightblue" d="M1061.19,-382.155C1239.04,-378.745 1624.97,-367.429 1674,-333 1717.79,-302.254 1732.92,-235.569 1737.82,-203.064"/>
<polygon fill="midnightblue" stroke="midnightblue" points="1741.3,-203.483 1739.16,-193.106 1734.36,-202.551 1741.3,-203.483"/>
</g>
<!-- Node39 -->
<g id="node39" class="node"><title>Node39</title>
<g id="a_node39"><a xlink:href="RenderParameters_8inl.html" target="_top" xlink:title="Engine/Renderer/RenderTechnique\l/RenderParameters.inl">
<polygon fill="white" stroke="black" points="1204,-302.5 1204,-332.5 1382,-332.5 1382,-302.5 1204,-302.5"/>
<text text-anchor="start" x="1212" y="-320.5" font-family="Helvetica,sans-Serif" font-size="10.00">Engine/Renderer/RenderTechnique</text>
<text text-anchor="middle" x="1293" y="-309.5" font-family="Helvetica,sans-Serif" font-size="10.00">/RenderParameters.inl</text>
</a>
</g>
</g>
<!-- Node27&#45;&gt;Node39 -->
<g id="edge55" class="edge"><title>Node27&#45;&gt;Node39</title>
<path fill="none" stroke="midnightblue" d="M1041.26,-369.476C1091.9,-359.221 1160.7,-345.29 1213.57,-334.583"/>
<polygon fill="midnightblue" stroke="midnightblue" points="1214.48,-337.97 1223.59,-332.555 1213.09,-331.109 1214.48,-337.97"/>
</g>
<!-- Node29&#45;&gt;Node23 -->
<g id="edge39" class="edge"><title>Node29&#45;&gt;Node23</title>
<path fill="none" stroke="midnightblue" d="M1003.99,-307.869C984.879,-300.184 960.659,-286.873 949,-266 942.281,-253.971 940.454,-245.807 949,-235 992.064,-180.546 1057.94,-253.454 1101,-199 1109.55,-188.193 1107.79,-179.989 1101,-168 1092.65,-153.258 1077.34,-142.819 1062.71,-135.732"/>
<polygon fill="midnightblue" stroke="midnightblue" points="1063.84,-132.404 1053.28,-131.547 1061,-138.803 1063.84,-132.404"/>
</g>
<!-- Node30 -->
<g id="node30" class="node"><title>Node30</title>
<polygon fill="white" stroke="#bfbfbf" points="1161,-241 1161,-260 1243,-260 1243,-241 1161,-241"/>
<text text-anchor="middle" x="1202" y="-248" font-family="Helvetica,sans-Serif" font-size="10.00">mm_malloc.h</text>
</g>
<!-- Node29&#45;&gt;Node30 -->
<g id="edge40" class="edge"><title>Node29&#45;&gt;Node30</title>
<path fill="none" stroke="midnightblue" d="M1053.71,-307.869C1083.56,-296.522 1136.17,-276.525 1170.03,-263.652"/>
<polygon fill="midnightblue" stroke="midnightblue" points="1171.37,-266.888 1179.47,-260.064 1168.88,-260.345 1171.37,-266.888"/>
</g>
<!-- Node31 -->
<g id="node31" class="node"><title>Node31</title>
<polygon fill="white" stroke="#bfbfbf" points="958,-241 958,-260 1010,-260 1010,-241 958,-241"/>
<text text-anchor="middle" x="984" y="-248" font-family="Helvetica,sans-Serif" font-size="10.00">cstddef</text>
</g>
<!-- Node29&#45;&gt;Node31 -->
<g id="edge41" class="edge"><title>Node29&#45;&gt;Node31</title>
<path fill="none" stroke="midnightblue" d="M1024.66,-307.734C1017.4,-297.695 1005.34,-281.014 996.235,-268.421"/>
<polygon fill="midnightblue" stroke="midnightblue" points="998.934,-266.18 990.238,-260.127 993.261,-270.282 998.934,-266.18"/>
</g>
<!-- Node32 -->
<g id="node32" class="node"><title>Node32</title>
<polygon fill="white" stroke="#bfbfbf" points="1028.5,-241 1028.5,-260 1077.5,-260 1077.5,-241 1028.5,-241"/>
<text text-anchor="middle" x="1053" y="-248" font-family="Helvetica,sans-Serif" font-size="10.00">cstdint</text>
</g>
<!-- Node29&#45;&gt;Node32 -->
<g id="edge42" class="edge"><title>Node29&#45;&gt;Node32</title>
<path fill="none" stroke="midnightblue" d="M1033.97,-307.734C1037.23,-298.085 1042.58,-282.3 1046.77,-269.906"/>
<polygon fill="midnightblue" stroke="midnightblue" points="1050.19,-270.722 1050.08,-260.127 1043.56,-268.477 1050.19,-270.722"/>
</g>
<!-- Node33 -->
<g id="node33" class="node"><title>Node33</title>
<polygon fill="white" stroke="#bfbfbf" points="1095.5,-241 1095.5,-260 1142.5,-260 1142.5,-241 1095.5,-241"/>
<text text-anchor="middle" x="1119" y="-248" font-family="Helvetica,sans-Serif" font-size="10.00">cstdlib</text>
</g>
<!-- Node29&#45;&gt;Node33 -->
<g id="edge43" class="edge"><title>Node29&#45;&gt;Node33</title>
<path fill="none" stroke="midnightblue" d="M1042.87,-307.734C1057.25,-297.111 1081.7,-279.049 1099.01,-266.264"/>
<polygon fill="midnightblue" stroke="midnightblue" points="1101.36,-268.884 1107.32,-260.127 1097.2,-263.253 1101.36,-268.884"/>
</g>
<!-- Node34&#45;&gt;Node10 -->
<g id="edge46" class="edge"><title>Node34&#45;&gt;Node10</title>
<path fill="none" stroke="midnightblue" d="M825.859,-174.53C734.616,-162.016 564.2,-138.616 519.258,-131.948"/>
<polygon fill="midnightblue" stroke="midnightblue" points="519.646,-128.466 509.227,-130.387 518.569,-135.383 519.646,-128.466"/>
</g>
<!-- Node34&#45;&gt;Node11 -->
<g id="edge47" class="edge"><title>Node34&#45;&gt;Node11</title>
<path fill="none" stroke="midnightblue" d="M839.585,-173.975C783.876,-163.283 688.402,-144.958 628.38,-133.437"/>
<polygon fill="midnightblue" stroke="midnightblue" points="628.814,-129.957 618.333,-131.509 627.494,-136.831 628.814,-129.957"/>
</g>
<!-- Node34&#45;&gt;Node23 -->
<g id="edge45" class="edge"><title>Node34&#45;&gt;Node23</title>
<path fill="none" stroke="midnightblue" d="M904.345,-173.975C928.387,-163.901 968.597,-147.053 996.163,-135.502"/>
<polygon fill="midnightblue" stroke="midnightblue" points="997.822,-138.602 1005.69,-131.509 995.117,-132.146 997.822,-138.602"/>
</g>
<!-- Node35 -->
<g id="node35" class="node"><title>Node35</title>
<polygon fill="white" stroke="#bfbfbf" points="844,-112.5 844,-131.5 924,-131.5 924,-112.5 844,-112.5"/>
<text text-anchor="middle" x="884" y="-119.5" font-family="Helvetica,sans-Serif" font-size="10.00">Eigen/Sparse</text>
</g>
<!-- Node34&#45;&gt;Node35 -->
<g id="edge48" class="edge"><title>Node34&#45;&gt;Node35</title>
<path fill="none" stroke="midnightblue" d="M884,-173.975C884,-165.58 884,-152.481 884,-141.663"/>
<polygon fill="midnightblue" stroke="midnightblue" points="887.5,-141.509 884,-131.509 880.5,-141.509 887.5,-141.509"/>
</g>
<!-- Node36&#45;&gt;Node8 -->
<g id="edge52" class="edge"><title>Node36&#45;&gt;Node8</title>
<path fill="none" stroke="midnightblue" d="M1747.72,-173.986C1759.45,-159.984 1778.99,-131.689 1765,-112 1706.93,-30.2855 1577.71,-14.1211 1513.19,-11.2979"/>
<polygon fill="midnightblue" stroke="midnightblue" points="1513.16,-7.79461 1503.04,-10.9414 1512.91,-14.7903 1513.16,-7.79461"/>
</g>
<!-- Node36&#45;&gt;Node23 -->
<g id="edge50" class="edge"><title>Node36&#45;&gt;Node23</title>
<path fill="none" stroke="midnightblue" d="M1687.94,-178.09C1653.14,-175.166 1606.33,-171.278 1565,-168 1353.95,-151.259 1300.49,-154.753 1090,-132 1088.5,-131.838 1086.98,-131.668 1085.45,-131.492"/>
<polygon fill="midnightblue" stroke="midnightblue" points="1085.58,-127.981 1075.23,-130.247 1084.73,-134.93 1085.58,-127.981"/>
</g>
<!-- Node36&#45;&gt;Node26 -->
<g id="edge54" class="edge"><title>Node36&#45;&gt;Node26</title>
<path fill="none" stroke="midnightblue" d="M1718.65,-173.975C1693.31,-163.857 1650.86,-146.905 1621.93,-135.351"/>
<polygon fill="midnightblue" stroke="midnightblue" points="1622.89,-131.967 1612.31,-131.509 1620.3,-138.468 1622.89,-131.967"/>
</g>
<!-- Node37 -->
<g id="node37" class="node"><title>Node37</title>
<polygon fill="white" stroke="#bfbfbf" points="1645,-112.5 1645,-131.5 1689,-131.5 1689,-112.5 1645,-112.5"/>
<text text-anchor="middle" x="1667" y="-119.5" font-family="Helvetica,sans-Serif" font-size="10.00">ctime</text>
</g>
<!-- Node36&#45;&gt;Node37 -->
<g id="edge51" class="edge"><title>Node36&#45;&gt;Node37</title>
<path fill="none" stroke="midnightblue" d="M1729.54,-173.975C1718.05,-164.608 1699.37,-149.384 1685.41,-138.008"/>
<polygon fill="midnightblue" stroke="midnightblue" points="1687.4,-135.114 1677.44,-131.509 1682.98,-140.54 1687.4,-135.114"/>
</g>
<!-- Node38 -->
<g id="node38" class="node"><title>Node38</title>
<polygon fill="white" stroke="#bfbfbf" points="1707.5,-112.5 1707.5,-131.5 1756.5,-131.5 1756.5,-112.5 1707.5,-112.5"/>
<text text-anchor="middle" x="1732" y="-119.5" font-family="Helvetica,sans-Serif" font-size="10.00">stdio.h</text>
</g>
<!-- Node36&#45;&gt;Node38 -->
<g id="edge53" class="edge"><title>Node36&#45;&gt;Node38</title>
<path fill="none" stroke="midnightblue" d="M1738.85,-173.975C1737.73,-165.58 1735.96,-152.481 1734.51,-141.663"/>
<polygon fill="midnightblue" stroke="midnightblue" points="1737.95,-140.953 1733.14,-131.509 1731.01,-141.886 1737.95,-140.953"/>
</g>
<!-- Node40 -->
<g id="node40" class="node"><title>Node40</title>
<g id="a_node40"><a xlink:href="ShaderProgram_8hpp.html" target="_top" xlink:title="Engine/Renderer/RenderTechnique\l/ShaderProgram.hpp">
<polygon fill="white" stroke="black" points="1261,-235.5 1261,-265.5 1439,-265.5 1439,-235.5 1261,-235.5"/>
<text text-anchor="start" x="1269" y="-253.5" font-family="Helvetica,sans-Serif" font-size="10.00">Engine/Renderer/RenderTechnique</text>
<text text-anchor="middle" x="1350" y="-242.5" font-family="Helvetica,sans-Serif" font-size="10.00">/ShaderProgram.hpp</text>
</a>
</g>
</g>
<!-- Node39&#45;&gt;Node40 -->
<g id="edge56" class="edge"><title>Node39&#45;&gt;Node40</title>
<path fill="none" stroke="midnightblue" d="M1305.37,-302.396C1312.84,-293.878 1322.51,-282.847 1330.94,-273.233"/>
<polygon fill="midnightblue" stroke="midnightblue" points="1333.69,-275.403 1337.66,-265.577 1328.43,-270.787 1333.69,-275.403"/>
</g>
<!-- Node40&#45;&gt;Node17 -->
<g id="edge57" class="edge"><title>Node40&#45;&gt;Node17</title>
<path fill="none" stroke="midnightblue" d="M1296.55,-235.433C1262.13,-225.999 1216.59,-212.81 1177,-199 1142.56,-186.984 1136.37,-176.92 1101,-168 958.499,-132.066 915.927,-149.22 766.794,-132.165"/>
<polygon fill="midnightblue" stroke="midnightblue" points="767.155,-128.683 756.815,-130.991 766.337,-135.635 767.155,-128.683"/>
</g>
<!-- Node40&#45;&gt;Node25 -->
<g id="edge70" class="edge"><title>Node40&#45;&gt;Node25</title>
<path fill="none" stroke="midnightblue" d="M1260.83,-236.059C1257.86,-235.689 1254.9,-235.335 1252,-235 1059.28,-212.791 1009.21,-225.215 817,-199 804.853,-197.343 791.708,-195.025 779.82,-192.727"/>
<polygon fill="midnightblue" stroke="midnightblue" points="780.243,-189.243 769.753,-190.731 778.881,-196.109 780.243,-189.243"/>
</g>
<!-- Node40&#45;&gt;Node26 -->
<g id="edge71" class="edge"><title>Node40&#45;&gt;Node26</title>
<path fill="none" stroke="midnightblue" d="M1439.05,-243.063C1501.75,-236.461 1577.95,-223.543 1598,-199 1611.19,-182.854 1605.52,-157.845 1599.19,-140.968"/>
<polygon fill="midnightblue" stroke="midnightblue" points="1602.4,-139.557 1595.33,-131.662 1595.93,-142.24 1602.4,-139.557"/>
</g>
<!-- Node40&#45;&gt;Node34 -->
<g id="edge58" class="edge"><title>Node40&#45;&gt;Node34</title>
<path fill="none" stroke="midnightblue" d="M1260.82,-236.197C1257.84,-235.788 1254.9,-235.388 1252,-235 1118.46,-217.138 1083.88,-221.274 951,-199 944.297,-197.876 937.25,-196.532 930.347,-195.122"/>
<polygon fill="midnightblue" stroke="midnightblue" points="930.898,-191.662 920.391,-193.027 929.456,-198.512 930.898,-191.662"/>
</g>
<!-- Node41 -->
<g id="node41" class="node"><title>Node41</title>
<g id="a_node41"><a xlink:href="OpenGL_8hpp.html" target="_top" xlink:title="Engine/Renderer/OpenGL\l/OpenGL.hpp">
<polygon fill="white" stroke="black" points="1186,-168.5 1186,-198.5 1322,-198.5 1322,-168.5 1186,-168.5"/>
<text text-anchor="start" x="1194" y="-186.5" font-family="Helvetica,sans-Serif" font-size="10.00">Engine/Renderer/OpenGL</text>
<text text-anchor="middle" x="1254" y="-175.5" font-family="Helvetica,sans-Serif" font-size="10.00">/OpenGL.hpp</text>
</a>
</g>
</g>
<!-- Node40&#45;&gt;Node41 -->
<g id="edge59" class="edge"><title>Node40&#45;&gt;Node41</title>
<path fill="none" stroke="midnightblue" d="M1329.17,-235.396C1315.71,-226.282 1298,-214.29 1283.15,-204.236"/>
<polygon fill="midnightblue" stroke="midnightblue" points="1285.03,-201.285 1274.79,-198.577 1281.11,-207.081 1285.03,-201.285"/>
</g>
<!-- Node44 -->
<g id="node44" class="node"><title>Node44</title>
<g id="a_node44"><a xlink:href="ShaderConfiguration_8hpp.html" target="_top" xlink:title="Engine/Renderer/RenderTechnique\l/ShaderConfiguration.hpp">
<polygon fill="white" stroke="black" points="1378,-168.5 1378,-198.5 1556,-198.5 1556,-168.5 1378,-168.5"/>
<text text-anchor="start" x="1386" y="-186.5" font-family="Helvetica,sans-Serif" font-size="10.00">Engine/Renderer/RenderTechnique</text>
<text text-anchor="middle" x="1467" y="-175.5" font-family="Helvetica,sans-Serif" font-size="10.00">/ShaderConfiguration.hpp</text>
</a>
</g>
</g>
<!-- Node40&#45;&gt;Node44 -->
<g id="edge62" class="edge"><title>Node40&#45;&gt;Node44</title>
<path fill="none" stroke="midnightblue" d="M1375.39,-235.396C1392.18,-226.069 1414.39,-213.728 1432.74,-203.534"/>
<polygon fill="midnightblue" stroke="midnightblue" points="1434.62,-206.493 1441.66,-198.577 1431.22,-200.373 1434.62,-206.493"/>
</g>
<!-- Node45 -->
<g id="node45" class="node"><title>Node45</title>
<polygon fill="white" stroke="#bfbfbf" points="1387.5,-112.5 1387.5,-131.5 1428.5,-131.5 1428.5,-112.5 1387.5,-112.5"/>
<text text-anchor="middle" x="1408" y="-119.5" font-family="Helvetica,sans-Serif" font-size="10.00">array</text>
</g>
<!-- Node40&#45;&gt;Node45 -->
<g id="edge69" class="edge"><title>Node40&#45;&gt;Node45</title>
<path fill="none" stroke="midnightblue" d="M1351.23,-235.238C1353.14,-218.386 1357.85,-189.874 1369,-168 1374.49,-157.224 1383.11,-146.899 1390.85,-138.863"/>
<polygon fill="midnightblue" stroke="midnightblue" points="1393.49,-141.174 1398.15,-131.658 1388.57,-136.193 1393.49,-141.174"/>
</g>
<!-- Node42 -->
<g id="node42" class="node"><title>Node42</title>
<polygon fill="white" stroke="#bfbfbf" points="1099,-112.5 1099,-131.5 1223,-131.5 1223,-112.5 1099,-112.5"/>
<text text-anchor="middle" x="1161" y="-119.5" font-family="Helvetica,sans-Serif" font-size="10.00">glbinding/gl45core/gl.h</text>
</g>
<!-- Node41&#45;&gt;Node42 -->
<g id="edge60" class="edge"><title>Node41&#45;&gt;Node42</title>
<path fill="none" stroke="midnightblue" d="M1231.96,-168.399C1217.19,-158.951 1197.82,-146.559 1183.05,-137.109"/>
<polygon fill="midnightblue" stroke="midnightblue" points="1184.84,-134.099 1174.53,-131.658 1181.07,-139.995 1184.84,-134.099"/>
</g>
<!-- Node43 -->
<g id="node43" class="node"><title>Node43</title>
<polygon fill="white" stroke="#bfbfbf" points="1241,-112.5 1241,-131.5 1359,-131.5 1359,-112.5 1241,-112.5"/>
<text text-anchor="middle" x="1300" y="-119.5" font-family="Helvetica,sans-Serif" font-size="10.00">glbinding/gl45ext/gl.h</text>
</g>
<!-- Node41&#45;&gt;Node43 -->
<g id="edge61" class="edge"><title>Node41&#45;&gt;Node43</title>
<path fill="none" stroke="midnightblue" d="M1264.9,-168.399C1271.59,-159.753 1280.18,-148.642 1287.18,-139.576"/>
<polygon fill="midnightblue" stroke="midnightblue" points="1289.96,-141.71 1293.31,-131.658 1284.42,-137.428 1289.96,-141.71"/>
</g>
<!-- Node44&#45;&gt;Node17 -->
<g id="edge63" class="edge"><title>Node44&#45;&gt;Node17</title>
<path fill="none" stroke="midnightblue" d="M1377.8,-172.439C1362.21,-170.838 1346.14,-169.288 1331,-168 1083.15,-146.915 1017.56,-156.532 766.943,-132.132"/>
<polygon fill="midnightblue" stroke="midnightblue" points="767.093,-128.63 756.799,-131.135 766.409,-135.596 767.093,-128.63"/>
</g>
<!-- Node44&#45;&gt;Node18 -->
<g id="edge68" class="edge"><title>Node44&#45;&gt;Node18</title>
<path fill="none" stroke="midnightblue" d="M1377.79,-172.554C1362.2,-170.94 1346.14,-169.356 1331,-168 1110.86,-148.281 1053.36,-166.238 835,-132 833.922,-131.831 832.83,-131.646 831.729,-131.449"/>
<polygon fill="midnightblue" stroke="midnightblue" points="832.267,-127.986 821.767,-129.397 830.855,-134.843 832.267,-127.986"/>
</g>
<!-- Node44&#45;&gt;Node26 -->
<g id="edge67" class="edge"><title>Node44&#45;&gt;Node26</title>
<path fill="none" stroke="midnightblue" d="M1496.39,-168.399C1516.82,-158.595 1543.86,-145.619 1563.8,-136.052"/>
<polygon fill="midnightblue" stroke="midnightblue" points="1565.46,-139.139 1572.96,-131.658 1562.43,-132.828 1565.46,-139.139"/>
</g>
<!-- Node44&#45;&gt;Node28 -->
<g id="edge66" class="edge"><title>Node44&#45;&gt;Node28</title>
<path fill="none" stroke="midnightblue" d="M1481.69,-168.399C1490.98,-159.486 1503,-147.952 1512.6,-138.741"/>
<polygon fill="midnightblue" stroke="midnightblue" points="1515.19,-141.107 1519.98,-131.658 1510.34,-136.057 1515.19,-141.107"/>
</g>
<!-- Node44&#45;&gt;Node45 -->
<g id="edge64" class="edge"><title>Node44&#45;&gt;Node45</title>
<path fill="none" stroke="midnightblue" d="M1453.02,-168.399C1444.27,-159.575 1432.97,-148.183 1423.88,-139.018"/>
<polygon fill="midnightblue" stroke="midnightblue" points="1426.11,-136.294 1416.59,-131.658 1421.14,-141.223 1426.11,-136.294"/>
</g>
<!-- Node46 -->
<g id="node46" class="node"><title>Node46</title>
<polygon fill="white" stroke="#bfbfbf" points="1452,-112.5 1452,-131.5 1482,-131.5 1482,-112.5 1452,-112.5"/>
<text text-anchor="middle" x="1467" y="-119.5" font-family="Helvetica,sans-Serif" font-size="10.00">list</text>
</g>
<!-- Node44&#45;&gt;Node46 -->
<g id="edge65" class="edge"><title>Node44&#45;&gt;Node46</title>
<path fill="none" stroke="midnightblue" d="M1467,-168.399C1467,-160.466 1467,-150.458 1467,-141.858"/>
<polygon fill="midnightblue" stroke="midnightblue" points="1470.5,-141.658 1467,-131.658 1463.5,-141.658 1470.5,-141.658"/>
</g>
</g>
</svg>
