<?xml version="1.0" encoding="UTF-8" standalone="no"?>
<!DOCTYPE svg PUBLIC "-//W3C//DTD SVG 1.1//EN"
 "http://www.w3.org/Graphics/SVG/1.1/DTD/svg11.dtd">
<!-- Generated by graphviz version 2.38.0 (20140413.2041)
 -->
<!-- Title: /home/travis/build/STORM&#45;IRIT/Radium&#45;Engine/src/Core/Math/LinearAlgebra.hpp Pages: 1 -->
<svg width="3168pt" height="473pt"
 viewBox="0.00 0.00 3168.00 473.00" xmlns="http://www.w3.org/2000/svg" xmlns:xlink="http://www.w3.org/1999/xlink">
<g id="graph0" class="graph" transform="scale(1 1) rotate(0) translate(4 469)">
<title>/home/travis/build/STORM&#45;IRIT/Radium&#45;Engine/src/Core/Math/LinearAlgebra.hpp</title>
<polygon fill="white" stroke="none" points="-4,4 -4,-469 3164,-469 3164,4 -4,4"/>
<!-- Node1 -->
<g id="node1" class="node"><title>Node1</title>
<polygon fill="#bfbfbf" stroke="black" points="1368.5,-423.5 1368.5,-464.5 1544.5,-464.5 1544.5,-423.5 1368.5,-423.5"/>
<text text-anchor="start" x="1376.5" y="-452.5" font-family="Helvetica,sans-Serif" font-size="10.00">/home/travis/build</text>
<text text-anchor="start" x="1376.5" y="-441.5" font-family="Helvetica,sans-Serif" font-size="10.00">/STORM&#45;IRIT/Radium&#45;Engine</text>
<text text-anchor="middle" x="1456.5" y="-430.5" font-family="Helvetica,sans-Serif" font-size="10.00">/src/Core/Math/LinearAlgebra.hpp</text>
</g>
<!-- Node2 -->
<g id="node2" class="node"><title>Node2</title>
<g id="a_node2"><a xlink:href="HandleWeightOperation_8cpp.html" target="_top" xlink:title="/home/travis/build\l/STORM&#45;IRIT/Radium&#45;Engine\l/src/Core/Animation/HandleWeight\lOperation.cpp">
<polygon fill="white" stroke="black" points="0,-334.5 0,-386.5 179,-386.5 179,-334.5 0,-334.5"/>
<text text-anchor="start" x="8" y="-374.5" font-family="Helvetica,sans-Serif" font-size="10.00">/home/travis/build</text>
<text text-anchor="start" x="8" y="-363.5" font-family="Helvetica,sans-Serif" font-size="10.00">/STORM&#45;IRIT/Radium&#45;Engine</text>
<text text-anchor="start" x="8" y="-352.5" font-family="Helvetica,sans-Serif" font-size="10.00">/src/Core/Animation/HandleWeight</text>
<text text-anchor="middle" x="89.5" y="-341.5" font-family="Helvetica,sans-Serif" font-size="10.00">Operation.cpp</text>
</a>
</g>
</g>
<!-- Node1&#45;&gt;Node2 -->
<g id="edge1" class="edge"><title>Node1&#45;&gt;Node2</title>
<path fill="none" stroke="midnightblue" d="M1358.28,-441.303C1101.33,-436.439 413.649,-420.594 188.5,-387 185.428,-386.542 182.313,-386.027 179.176,-385.465"/>
<polygon fill="midnightblue" stroke="midnightblue" points="1358.28,-444.803 1368.34,-441.492 1358.41,-437.804 1358.28,-444.803"/>
</g>
<!-- Node3 -->
<g id="node3" class="node"><title>Node3</title>
<g id="a_node3"><a xlink:href="Skeleton_8cpp.html" target="_top" xlink:title="/home/travis/build\l/STORM&#45;IRIT/Radium&#45;Engine\l/src/Core/Animation/Skeleton.cpp">
<polygon fill="white" stroke="black" points="197.5,-340 197.5,-381 373.5,-381 373.5,-340 197.5,-340"/>
<text text-anchor="start" x="205.5" y="-369" font-family="Helvetica,sans-Serif" font-size="10.00">/home/travis/build</text>
<text text-anchor="start" x="205.5" y="-358" font-family="Helvetica,sans-Serif" font-size="10.00">/STORM&#45;IRIT/Radium&#45;Engine</text>
<text text-anchor="middle" x="285.5" y="-347" font-family="Helvetica,sans-Serif" font-size="10.00">/src/Core/Animation/Skeleton.cpp</text>
</a>
</g>
</g>
<!-- Node1&#45;&gt;Node3 -->
<g id="edge2" class="edge"><title>Node1&#45;&gt;Node3</title>
<path fill="none" stroke="midnightblue" d="M1357.82,-440.442C1129.23,-434.097 568.735,-416.02 382.5,-387 372.693,-385.472 362.445,-383.36 352.437,-381"/>
<polygon fill="midnightblue" stroke="midnightblue" points="1358.03,-443.949 1368.12,-440.726 1358.22,-436.952 1358.03,-443.949"/>
</g>
<!-- Node4 -->
<g id="node4" class="node"><title>Node4</title>
<g id="a_node4"><a xlink:href="Tex_8inl.html" target="_top" xlink:title="/home/travis/build\l/STORM&#45;IRIT/Radium&#45;Engine\l/src/Core/Containers/Tex.inl">
<polygon fill="white" stroke="black" points="391.5,-340 391.5,-381 539.5,-381 539.5,-340 391.5,-340"/>
<text text-anchor="start" x="399.5" y="-369" font-family="Helvetica,sans-Serif" font-size="10.00">/home/travis/build</text>
<text text-anchor="start" x="399.5" y="-358" font-family="Helvetica,sans-Serif" font-size="10.00">/STORM&#45;IRIT/Radium&#45;Engine</text>
<text text-anchor="middle" x="465.5" y="-347" font-family="Helvetica,sans-Serif" font-size="10.00">/src/Core/Containers/Tex.inl</text>
</a>
</g>
</g>
<!-- Node1&#45;&gt;Node4 -->
<g id="edge3" class="edge"><title>Node1&#45;&gt;Node4</title>
<path fill="none" stroke="midnightblue" d="M1358.2,-439.874C1156.41,-432.974 701.503,-414.816 548.5,-387 540.194,-385.49 531.551,-383.42 523.115,-381.108"/>
<polygon fill="midnightblue" stroke="midnightblue" points="1358.09,-443.372 1368.21,-440.214 1358.33,-436.376 1358.09,-443.372"/>
</g>
<!-- Node6 -->
<g id="node6" class="node"><title>Node6</title>
<g id="a_node6"><a xlink:href="Adjacency_8cpp.html" target="_top" xlink:title="/home/travis/build\l/STORM&#45;IRIT/Radium&#45;Engine\l/src/Core/Geometry/Adjacency.cpp">
<polygon fill="white" stroke="black" points="558,-340 558,-381 739,-381 739,-340 558,-340"/>
<text text-anchor="start" x="566" y="-369" font-family="Helvetica,sans-Serif" font-size="10.00">/home/travis/build</text>
<text text-anchor="start" x="566" y="-358" font-family="Helvetica,sans-Serif" font-size="10.00">/STORM&#45;IRIT/Radium&#45;Engine</text>
<text text-anchor="middle" x="648.5" y="-347" font-family="Helvetica,sans-Serif" font-size="10.00">/src/Core/Geometry/Adjacency.cpp</text>
</a>
</g>
</g>
<!-- Node1&#45;&gt;Node6 -->
<g id="edge6" class="edge"><title>Node1&#45;&gt;Node6</title>
<path fill="none" stroke="midnightblue" d="M1358.36,-440.525C1221.09,-435.866 964.332,-422.785 748.5,-387 738.867,-385.403 728.803,-383.33 718.929,-381.056"/>
<polygon fill="midnightblue" stroke="midnightblue" points="1358.33,-444.026 1368.44,-440.86 1358.56,-437.03 1358.33,-444.026"/>
</g>
<!-- Node7 -->
<g id="node7" class="node"><title>Node7</title>
<g id="a_node7"><a xlink:href="Area_8cpp.html" target="_top" xlink:title="/home/travis/build\l/STORM&#45;IRIT/Radium&#45;Engine\l/src/Core/Geometry/Area.cpp">
<polygon fill="white" stroke="black" points="757.5,-340 757.5,-381 913.5,-381 913.5,-340 757.5,-340"/>
<text text-anchor="start" x="765.5" y="-369" font-family="Helvetica,sans-Serif" font-size="10.00">/home/travis/build</text>
<text text-anchor="start" x="765.5" y="-358" font-family="Helvetica,sans-Serif" font-size="10.00">/STORM&#45;IRIT/Radium&#45;Engine</text>
<text text-anchor="middle" x="835.5" y="-347" font-family="Helvetica,sans-Serif" font-size="10.00">/src/Core/Geometry/Area.cpp</text>
</a>
</g>
</g>
<!-- Node1&#45;&gt;Node7 -->
<g id="edge7" class="edge"><title>Node1&#45;&gt;Node7</title>
<path fill="none" stroke="midnightblue" d="M1358.16,-438.021C1250.42,-431.332 1072.89,-416.673 922.5,-387 914.161,-385.355 905.47,-383.269 896.945,-381.002"/>
<polygon fill="midnightblue" stroke="midnightblue" points="1358.17,-441.528 1368.36,-438.644 1358.6,-434.541 1358.17,-441.528"/>
</g>
<!-- Node8 -->
<g id="node8" class="node"><title>Node8</title>
<g id="a_node8"><a xlink:href="DistanceQueries_8inl.html" target="_top" xlink:title="/home/travis/build\l/STORM&#45;IRIT/Radium&#45;Engine\l/src/Core/Geometry/DistanceQueries.inl">
<polygon fill="white" stroke="black" points="931.5,-340 931.5,-381 1137.5,-381 1137.5,-340 931.5,-340"/>
<text text-anchor="start" x="939.5" y="-369" font-family="Helvetica,sans-Serif" font-size="10.00">/home/travis/build</text>
<text text-anchor="start" x="939.5" y="-358" font-family="Helvetica,sans-Serif" font-size="10.00">/STORM&#45;IRIT/Radium&#45;Engine</text>
<text text-anchor="middle" x="1034.5" y="-347" font-family="Helvetica,sans-Serif" font-size="10.00">/src/Core/Geometry/DistanceQueries.inl</text>
</a>
</g>
</g>
<!-- Node1&#45;&gt;Node8 -->
<g id="edge8" class="edge"><title>Node1&#45;&gt;Node8</title>
<path fill="none" stroke="midnightblue" d="M1358.42,-426.449C1297.33,-415.851 1217.18,-401.423 1146.5,-387 1137.41,-385.146 1127.93,-383.124 1118.5,-381.057"/>
<polygon fill="midnightblue" stroke="midnightblue" points="1357.99,-429.926 1368.44,-428.182 1359.18,-423.029 1357.99,-429.926"/>
</g>
<!-- Node14 -->
<g id="node14" class="node"><title>Node14</title>
<g id="a_node14"><a xlink:href="Laplacian_8cpp.html" target="_top" xlink:title="/home/travis/build\l/STORM&#45;IRIT/Radium&#45;Engine\l/src/Core/Geometry/Laplacian.cpp">
<polygon fill="white" stroke="black" points="1156,-340 1156,-381 1335,-381 1335,-340 1156,-340"/>
<text text-anchor="start" x="1164" y="-369" font-family="Helvetica,sans-Serif" font-size="10.00">/home/travis/build</text>
<text text-anchor="start" x="1164" y="-358" font-family="Helvetica,sans-Serif" font-size="10.00">/STORM&#45;IRIT/Radium&#45;Engine</text>
<text text-anchor="middle" x="1245.5" y="-347" font-family="Helvetica,sans-Serif" font-size="10.00">/src/Core/Geometry/Laplacian.cpp</text>
</a>
</g>
</g>
<!-- Node1&#45;&gt;Node14 -->
<g id="edge16" class="edge"><title>Node1&#45;&gt;Node14</title>
<path fill="none" stroke="midnightblue" d="M1396.35,-419.766C1364.63,-407.513 1326.15,-392.651 1295.99,-381.003"/>
<polygon fill="midnightblue" stroke="midnightblue" points="1395.37,-423.14 1405.96,-423.479 1397.89,-416.611 1395.37,-423.14"/>
</g>
<!-- Node15 -->
<g id="node15" class="node"><title>Node15</title>
<g id="a_node15"><a xlink:href="LoopSubdivider_8hpp.html" target="_top" xlink:title="/home/travis/build\l/STORM&#45;IRIT/Radium&#45;Engine\l/src/Core/Geometry/LoopSubdivider.hpp">
<polygon fill="white" stroke="black" points="1353,-340 1353,-381 1560,-381 1560,-340 1353,-340"/>
<text text-anchor="start" x="1361" y="-369" font-family="Helvetica,sans-Serif" font-size="10.00">/home/travis/build</text>
<text text-anchor="start" x="1361" y="-358" font-family="Helvetica,sans-Serif" font-size="10.00">/STORM&#45;IRIT/Radium&#45;Engine</text>
<text text-anchor="middle" x="1456.5" y="-347" font-family="Helvetica,sans-Serif" font-size="10.00">/src/Core/Geometry/LoopSubdivider.hpp</text>
</a>
</g>
</g>
<!-- Node1&#45;&gt;Node15 -->
<g id="edge17" class="edge"><title>Node1&#45;&gt;Node15</title>
<path fill="none" stroke="midnightblue" d="M1456.5,-413.065C1456.5,-402.382 1456.5,-390.63 1456.5,-381.047"/>
<polygon fill="midnightblue" stroke="midnightblue" points="1453,-413.271 1456.5,-423.271 1460,-413.271 1453,-413.271"/>
</g>
<!-- Node17 -->
<g id="node17" class="node"><title>Node17</title>
<g id="a_node17"><a xlink:href="MeshPrimitives_8inl.html" target="_top" xlink:title="/home/travis/build\l/STORM&#45;IRIT/Radium&#45;Engine\l/src/Core/Geometry/MeshPrimitives.inl">
<polygon fill="white" stroke="black" points="1578,-340 1578,-381 1777,-381 1777,-340 1578,-340"/>
<text text-anchor="start" x="1586" y="-369" font-family="Helvetica,sans-Serif" font-size="10.00">/home/travis/build</text>
<text text-anchor="start" x="1586" y="-358" font-family="Helvetica,sans-Serif" font-size="10.00">/STORM&#45;IRIT/Radium&#45;Engine</text>
<text text-anchor="middle" x="1677.5" y="-347" font-family="Helvetica,sans-Serif" font-size="10.00">/src/Core/Geometry/MeshPrimitives.inl</text>
</a>
</g>
</g>
<!-- Node1&#45;&gt;Node17 -->
<g id="edge19" class="edge"><title>Node1&#45;&gt;Node17</title>
<path fill="none" stroke="midnightblue" d="M1519.07,-419.925C1552.38,-407.641 1592.89,-392.701 1624.61,-381.003"/>
<polygon fill="midnightblue" stroke="midnightblue" points="1517.61,-416.735 1509.44,-423.479 1520.03,-423.302 1517.61,-416.735"/>
</g>
<!-- Node27 -->
<g id="node27" class="node"><title>Node27</title>
<g id="a_node27"><a xlink:href="Normal_8cpp.html" target="_top" xlink:title="/home/travis/build\l/STORM&#45;IRIT/Radium&#45;Engine\l/src/Core/Geometry/Normal.cpp">
<polygon fill="white" stroke="black" points="1795,-340 1795,-381 1964,-381 1964,-340 1795,-340"/>
<text text-anchor="start" x="1803" y="-369" font-family="Helvetica,sans-Serif" font-size="10.00">/home/travis/build</text>
<text text-anchor="start" x="1803" y="-358" font-family="Helvetica,sans-Serif" font-size="10.00">/STORM&#45;IRIT/Radium&#45;Engine</text>
<text text-anchor="middle" x="1879.5" y="-347" font-family="Helvetica,sans-Serif" font-size="10.00">/src/Core/Geometry/Normal.cpp</text>
</a>
</g>
</g>
<!-- Node1&#45;&gt;Node27 -->
<g id="edge30" class="edge"><title>Node1&#45;&gt;Node27</title>
<path fill="none" stroke="midnightblue" d="M1554.47,-428.991C1620.38,-418.925 1709.06,-404.143 1786.5,-387 1794.59,-385.209 1803.03,-383.157 1811.38,-381.012"/>
<polygon fill="midnightblue" stroke="midnightblue" points="1553.87,-425.542 1544.51,-430.503 1554.92,-432.463 1553.87,-425.542"/>
</g>
<!-- Node28 -->
<g id="node28" class="node"><title>Node28</title>
<g id="a_node28"><a xlink:href="RayCast_8cpp.html" target="_top" xlink:title="/home/travis/build\l/STORM&#45;IRIT/Radium&#45;Engine\l/src/Core/Geometry/RayCast.cpp">
<polygon fill="white" stroke="black" points="1982,-340 1982,-381 2155,-381 2155,-340 1982,-340"/>
<text text-anchor="start" x="1990" y="-369" font-family="Helvetica,sans-Serif" font-size="10.00">/home/travis/build</text>
<text text-anchor="start" x="1990" y="-358" font-family="Helvetica,sans-Serif" font-size="10.00">/STORM&#45;IRIT/Radium&#45;Engine</text>
<text text-anchor="middle" x="2068.5" y="-347" font-family="Helvetica,sans-Serif" font-size="10.00">/src/Core/Geometry/RayCast.cpp</text>
</a>
</g>
</g>
<!-- Node1&#45;&gt;Node28 -->
<g id="edge31" class="edge"><title>Node1&#45;&gt;Node28</title>
<path fill="none" stroke="midnightblue" d="M1555.15,-436.862C1659.67,-429.3 1829.22,-414.011 1973.5,-387 1982.4,-385.335 1991.68,-383.266 2000.81,-381.032"/>
<polygon fill="midnightblue" stroke="midnightblue" points="1554.65,-433.388 1544.92,-437.592 1555.15,-440.37 1554.65,-433.388"/>
</g>
<!-- Node29 -->
<g id="node29" class="node"><title>Node29</title>
<g id="a_node29"><a xlink:href="TriangleOperation_8cpp.html" target="_top" xlink:title="/home/travis/build\l/STORM&#45;IRIT/Radium&#45;Engine\l/src/Core/Geometry/TriangleOperation.cpp">
<polygon fill="white" stroke="black" points="2173,-340 2173,-381 2390,-381 2390,-340 2173,-340"/>
<text text-anchor="start" x="2181" y="-369" font-family="Helvetica,sans-Serif" font-size="10.00">/home/travis/build</text>
<text text-anchor="start" x="2181" y="-358" font-family="Helvetica,sans-Serif" font-size="10.00">/STORM&#45;IRIT/Radium&#45;Engine</text>
<text text-anchor="middle" x="2281.5" y="-347" font-family="Helvetica,sans-Serif" font-size="10.00">/src/Core/Geometry/TriangleOperation.cpp</text>
</a>
</g>
</g>
<!-- Node1&#45;&gt;Node29 -->
<g id="edge32" class="edge"><title>Node1&#45;&gt;Node29</title>
<path fill="none" stroke="midnightblue" d="M1554.75,-439.442C1691.89,-433.519 1948.22,-418.971 2164.5,-387 2175.61,-385.358 2187.23,-383.275 2198.67,-381.008"/>
<polygon fill="midnightblue" stroke="midnightblue" points="1554.52,-435.948 1544.68,-439.87 1554.82,-442.942 1554.52,-435.948"/>
</g>
<!-- Node30 -->
<g id="node30" class="node"><title>Node30</title>
<g id="a_node30"><a xlink:href="DualQuaternion_8inl.html" target="_top" xlink:title="/home/travis/build\l/STORM&#45;IRIT/Radium&#45;Engine\l/src/Core/Math/DualQuaternion.inl">
<polygon fill="white" stroke="black" points="2408.5,-340 2408.5,-381 2586.5,-381 2586.5,-340 2408.5,-340"/>
<text text-anchor="start" x="2416.5" y="-369" font-family="Helvetica,sans-Serif" font-size="10.00">/home/travis/build</text>
<text text-anchor="start" x="2416.5" y="-358" font-family="Helvetica,sans-Serif" font-size="10.00">/STORM&#45;IRIT/Radium&#45;Engine</text>
<text text-anchor="middle" x="2497.5" y="-347" font-family="Helvetica,sans-Serif" font-size="10.00">/src/Core/Math/DualQuaternion.inl</text>
</a>
</g>
</g>
<!-- Node1&#45;&gt;Node30 -->
<g id="edge33" class="edge"><title>Node1&#45;&gt;Node30</title>
<path fill="none" stroke="midnightblue" d="M1554.6,-443.452C1726.74,-442.851 2093.96,-435.348 2399.5,-387 2409.22,-385.461 2419.38,-383.376 2429.32,-381.056"/>
<polygon fill="midnightblue" stroke="midnightblue" points="1554.54,-439.952 1544.55,-443.48 1554.56,-446.952 1554.54,-439.952"/>
</g>
<!-- Node39 -->
<g id="node39" class="node"><title>Node39</title>
<g id="a_node39"><a xlink:href="LinearAlgebra_8inl.html" target="_top" xlink:title="/home/travis/build\l/STORM&#45;IRIT/Radium&#45;Engine\l/src/Core/Math/LinearAlgebra.inl">
<polygon fill="white" stroke="black" points="2604,-340 2604,-381 2773,-381 2773,-340 2604,-340"/>
<text text-anchor="start" x="2612" y="-369" font-family="Helvetica,sans-Serif" font-size="10.00">/home/travis/build</text>
<text text-anchor="start" x="2612" y="-358" font-family="Helvetica,sans-Serif" font-size="10.00">/STORM&#45;IRIT/Radium&#45;Engine</text>
<text text-anchor="middle" x="2688.5" y="-347" font-family="Helvetica,sans-Serif" font-size="10.00">/src/Core/Math/LinearAlgebra.inl</text>
</a>
</g>
</g>
<!-- Node1&#45;&gt;Node39 -->
<g id="edge44" class="edge"><title>Node1&#45;&gt;Node39</title>
<path fill="none" stroke="midnightblue" d="M1554.93,-440.816C1791.87,-435.231 2388.68,-418.593 2586.5,-387 2595.92,-385.495 2605.76,-383.396 2615.46,-381.042"/>
<polygon fill="midnightblue" stroke="midnightblue" points="1554.52,-437.325 1544.6,-441.058 1554.68,-444.323 1554.52,-437.325"/>
</g>
<!-- Node5 -->
<g id="node5" class="node"><title>Node5</title>
<g id="a_node5"><a xlink:href="Tex_8hpp.html" target="_top" xlink:title="/home/travis/build\l/STORM&#45;IRIT/Radium&#45;Engine\l/src/Core/Containers/Tex.hpp">
<polygon fill="white" stroke="black" points="389,-256.5 389,-297.5 542,-297.5 542,-256.5 389,-256.5"/>
<text text-anchor="start" x="397" y="-285.5" font-family="Helvetica,sans-Serif" font-size="10.00">/home/travis/build</text>
<text text-anchor="start" x="397" y="-274.5" font-family="Helvetica,sans-Serif" font-size="10.00">/STORM&#45;IRIT/Radium&#45;Engine</text>
<text text-anchor="middle" x="465.5" y="-263.5" font-family="Helvetica,sans-Serif" font-size="10.00">/src/Core/Containers/Tex.hpp</text>
</a>
</g>
</g>
<!-- Node4&#45;&gt;Node5 -->
<g id="edge4" class="edge"><title>Node4&#45;&gt;Node5</title>
<path fill="none" stroke="midnightblue" d="M458.966,-329.565C458.53,-318.882 458.754,-307.13 459.638,-297.547"/>
<polygon fill="midnightblue" stroke="midnightblue" points="455.488,-330.016 459.622,-339.771 462.473,-329.567 455.488,-330.016"/>
</g>
<!-- Node5&#45;&gt;Node4 -->
<g id="edge5" class="edge"><title>Node5&#45;&gt;Node4</title>
<path fill="none" stroke="midnightblue" d="M472.026,-307.733C472.47,-318.402 472.254,-330.161 471.378,-339.771"/>
<polygon fill="midnightblue" stroke="midnightblue" points="475.505,-307.298 471.362,-297.547 468.52,-307.754 475.505,-307.298"/>
</g>
<!-- Node9 -->
<g id="node9" class="node"><title>Node9</title>
<g id="a_node9"><a xlink:href="DistanceQueries_8hpp.html" target="_top" xlink:title="/home/travis/build\l/STORM&#45;IRIT/Radium&#45;Engine\l/src/Core/Geometry/DistanceQueries.hpp">
<polygon fill="white" stroke="black" points="834,-256.5 834,-297.5 1047,-297.5 1047,-256.5 834,-256.5"/>
<text text-anchor="start" x="842" y="-285.5" font-family="Helvetica,sans-Serif" font-size="10.00">/home/travis/build</text>
<text text-anchor="start" x="842" y="-274.5" font-family="Helvetica,sans-Serif" font-size="10.00">/STORM&#45;IRIT/Radium&#45;Engine</text>
<text text-anchor="middle" x="940.5" y="-263.5" font-family="Helvetica,sans-Serif" font-size="10.00">/src/Core/Geometry/DistanceQueries.hpp</text>
</a>
</g>
</g>
<!-- Node8&#45;&gt;Node9 -->
<g id="edge9" class="edge"><title>Node8&#45;&gt;Node9</title>
<path fill="none" stroke="midnightblue" d="M998.045,-333.395C984.001,-321.797 968.677,-308.373 957.287,-297.644"/>
<polygon fill="midnightblue" stroke="midnightblue" points="996.162,-336.376 1006.13,-339.979 1000.58,-330.949 996.162,-336.376"/>
</g>
<!-- Node9&#45;&gt;Node8 -->
<g id="edge11" class="edge"><title>Node9&#45;&gt;Node8</title>
<path fill="none" stroke="midnightblue" d="M976.966,-304.114C990.969,-315.679 1006.25,-329.06 1017.62,-339.771"/>
<polygon fill="midnightblue" stroke="midnightblue" points="978.87,-301.15 968.907,-297.547 974.448,-306.577 978.87,-301.15"/>
</g>
<!-- Node10 -->
<g id="node10" class="node"><title>Node10</title>
<g id="a_node10"><a xlink:href="BulgeCorrection_8cpp.html" target="_top" xlink:title="/home/travis/build\l/STORM&#45;IRIT/Radium&#45;Engine\l/src/Core/Animation/BulgeCorrection.cpp">
<polygon fill="white" stroke="black" points="531,-173 531,-214 742,-214 742,-173 531,-173"/>
<text text-anchor="start" x="539" y="-202" font-family="Helvetica,sans-Serif" font-size="10.00">/home/travis/build</text>
<text text-anchor="start" x="539" y="-191" font-family="Helvetica,sans-Serif" font-size="10.00">/STORM&#45;IRIT/Radium&#45;Engine</text>
<text text-anchor="middle" x="636.5" y="-180" font-family="Helvetica,sans-Serif" font-size="10.00">/src/Core/Animation/BulgeCorrection.cpp</text>
</a>
</g>
</g>
<!-- Node9&#45;&gt;Node10 -->
<g id="edge10" class="edge"><title>Node9&#45;&gt;Node10</title>
<path fill="none" stroke="midnightblue" d="M857.947,-253.868C811.488,-241.413 754.004,-226.002 709.248,-214.003"/>
<polygon fill="midnightblue" stroke="midnightblue" points="857.119,-257.27 867.684,-256.479 858.932,-250.509 857.119,-257.27"/>
</g>
<!-- Node11 -->
<g id="node11" class="node"><title>Node11</title>
<g id="a_node11"><a xlink:href="PolyLine_8hpp.html" target="_top" xlink:title="/home/travis/build\l/STORM&#45;IRIT/Radium&#45;Engine\l/src/Core/Geometry/PolyLine.hpp">
<polygon fill="white" stroke="black" points="760,-173 760,-214 933,-214 933,-173 760,-173"/>
<text text-anchor="start" x="768" y="-202" font-family="Helvetica,sans-Serif" font-size="10.00">/home/travis/build</text>
<text text-anchor="start" x="768" y="-191" font-family="Helvetica,sans-Serif" font-size="10.00">/STORM&#45;IRIT/Radium&#45;Engine</text>
<text text-anchor="middle" x="846.5" y="-180" font-family="Helvetica,sans-Serif" font-size="10.00">/src/Core/Geometry/PolyLine.hpp</text>
</a>
</g>
</g>
<!-- Node9&#45;&gt;Node11 -->
<g id="edge12" class="edge"><title>Node9&#45;&gt;Node11</title>
<path fill="none" stroke="midnightblue" d="M910.155,-249.69C896.791,-238.103 881.365,-224.728 869.045,-214.047"/>
<polygon fill="midnightblue" stroke="midnightblue" points="907.897,-252.365 917.745,-256.271 912.482,-247.076 907.897,-252.365"/>
</g>
<!-- Node12 -->
<g id="node12" class="node"><title>Node12</title>
<g id="a_node12"><a xlink:href="PolyLine_8cpp.html" target="_top" xlink:title="/home/travis/build\l/STORM&#45;IRIT/Radium&#45;Engine\l/src/Core/Geometry/PolyLine.cpp">
<polygon fill="white" stroke="black" points="572,-84 572,-125 745,-125 745,-84 572,-84"/>
<text text-anchor="start" x="580" y="-113" font-family="Helvetica,sans-Serif" font-size="10.00">/home/travis/build</text>
<text text-anchor="start" x="580" y="-102" font-family="Helvetica,sans-Serif" font-size="10.00">/STORM&#45;IRIT/Radium&#45;Engine</text>
<text text-anchor="middle" x="658.5" y="-91" font-family="Helvetica,sans-Serif" font-size="10.00">/src/Core/Geometry/PolyLine.cpp</text>
</a>
</g>
</g>
<!-- Node11&#45;&gt;Node12 -->
<g id="edge13" class="edge"><title>Node11&#45;&gt;Node12</title>
<path fill="none" stroke="midnightblue" d="M794.98,-168.658C765.417,-154.977 728.754,-138.011 700.875,-125.11"/>
<polygon fill="midnightblue" stroke="midnightblue" points="793.764,-171.952 804.309,-172.976 796.704,-165.599 793.764,-171.952"/>
</g>
<!-- Node13 -->
<g id="node13" class="node"><title>Node13</title>
<g id="a_node13"><a xlink:href="PolyLine_8inl.html" target="_top" xlink:title="/home/travis/build\l/STORM&#45;IRIT/Radium&#45;Engine\l/src/Core/Geometry/PolyLine.inl">
<polygon fill="white" stroke="black" points="763.5,-84 763.5,-125 929.5,-125 929.5,-84 763.5,-84"/>
<text text-anchor="start" x="771.5" y="-113" font-family="Helvetica,sans-Serif" font-size="10.00">/home/travis/build</text>
<text text-anchor="start" x="771.5" y="-102" font-family="Helvetica,sans-Serif" font-size="10.00">/STORM&#45;IRIT/Radium&#45;Engine</text>
<text text-anchor="middle" x="846.5" y="-91" font-family="Helvetica,sans-Serif" font-size="10.00">/src/Core/Geometry/PolyLine.inl</text>
</a>
</g>
</g>
<!-- Node11&#45;&gt;Node13 -->
<g id="edge14" class="edge"><title>Node11&#45;&gt;Node13</title>
<path fill="none" stroke="midnightblue" d="M840.045,-162.441C839.487,-150.101 839.721,-136.162 840.746,-125.164"/>
<polygon fill="midnightblue" stroke="midnightblue" points="836.576,-163.016 840.739,-172.758 843.56,-162.546 836.576,-163.016"/>
</g>
<!-- Node13&#45;&gt;Node11 -->
<g id="edge15" class="edge"><title>Node13&#45;&gt;Node11</title>
<path fill="none" stroke="midnightblue" d="M852.951,-135.472C853.513,-147.803 853.283,-161.746 852.261,-172.758"/>
<polygon fill="midnightblue" stroke="midnightblue" points="856.421,-134.904 852.254,-125.164 849.437,-135.377 856.421,-134.904"/>
</g>
<!-- Node16 -->
<g id="node16" class="node"><title>Node16</title>
<g id="a_node16"><a xlink:href="LoopSubdivider_8cpp.html" target="_top" xlink:title="/home/travis/build\l/STORM&#45;IRIT/Radium&#45;Engine\l/src/Core/Geometry/LoopSubdivider.cpp">
<polygon fill="white" stroke="black" points="1350.5,-256.5 1350.5,-297.5 1556.5,-297.5 1556.5,-256.5 1350.5,-256.5"/>
<text text-anchor="start" x="1358.5" y="-285.5" font-family="Helvetica,sans-Serif" font-size="10.00">/home/travis/build</text>
<text text-anchor="start" x="1358.5" y="-274.5" font-family="Helvetica,sans-Serif" font-size="10.00">/STORM&#45;IRIT/Radium&#45;Engine</text>
<text text-anchor="middle" x="1453.5" y="-263.5" font-family="Helvetica,sans-Serif" font-size="10.00">/src/Core/Geometry/LoopSubdivider.cpp</text>
</a>
</g>
</g>
<!-- Node15&#45;&gt;Node16 -->
<g id="edge18" class="edge"><title>Node15&#45;&gt;Node16</title>
<path fill="none" stroke="midnightblue" d="M1455.4,-329.565C1455,-318.882 1454.57,-307.13 1454.22,-297.547"/>
<polygon fill="midnightblue" stroke="midnightblue" points="1451.91,-329.907 1455.77,-339.771 1458.9,-329.649 1451.91,-329.907"/>
</g>
<!-- Node18 -->
<g id="node18" class="node"><title>Node18</title>
<g id="a_node18"><a xlink:href="MeshPrimitives_8hpp.html" target="_top" xlink:title="/home/travis/build\l/STORM&#45;IRIT/Radium&#45;Engine\l/src/Core/Geometry/MeshPrimitives.hpp">
<polygon fill="white" stroke="black" points="1574.5,-256.5 1574.5,-297.5 1780.5,-297.5 1780.5,-256.5 1574.5,-256.5"/>
<text text-anchor="start" x="1582.5" y="-285.5" font-family="Helvetica,sans-Serif" font-size="10.00">/home/travis/build</text>
<text text-anchor="start" x="1582.5" y="-274.5" font-family="Helvetica,sans-Serif" font-size="10.00">/STORM&#45;IRIT/Radium&#45;Engine</text>
<text text-anchor="middle" x="1677.5" y="-263.5" font-family="Helvetica,sans-Serif" font-size="10.00">/src/Core/Geometry/MeshPrimitives.hpp</text>
</a>
</g>
</g>
<!-- Node17&#45;&gt;Node18 -->
<g id="edge20" class="edge"><title>Node17&#45;&gt;Node18</title>
<path fill="none" stroke="midnightblue" d="M1670.97,-329.565C1670.53,-318.882 1670.75,-307.13 1671.64,-297.547"/>
<polygon fill="midnightblue" stroke="midnightblue" points="1667.49,-330.016 1671.62,-339.771 1674.47,-329.567 1667.49,-330.016"/>
</g>
<!-- Node18&#45;&gt;Node17 -->
<g id="edge22" class="edge"><title>Node18&#45;&gt;Node17</title>
<path fill="none" stroke="midnightblue" d="M1684.03,-307.733C1684.47,-318.402 1684.25,-330.161 1683.38,-339.771"/>
<polygon fill="midnightblue" stroke="midnightblue" points="1687.5,-307.298 1683.36,-297.547 1680.52,-307.754 1687.5,-307.298"/>
</g>
<!-- Node19 -->
<g id="node19" class="node"><title>Node19</title>
<g id="a_node19"><a xlink:href="MeshPrimitives_8cpp.html" target="_top" xlink:title="/home/travis/build\l/STORM&#45;IRIT/Radium&#45;Engine\l/src/Core/Geometry/MeshPrimitives.cpp">
<polygon fill="white" stroke="black" points="951.5,-173 951.5,-214 1157.5,-214 1157.5,-173 951.5,-173"/>
<text text-anchor="start" x="959.5" y="-202" font-family="Helvetica,sans-Serif" font-size="10.00">/home/travis/build</text>
<text text-anchor="start" x="959.5" y="-191" font-family="Helvetica,sans-Serif" font-size="10.00">/STORM&#45;IRIT/Radium&#45;Engine</text>
<text text-anchor="middle" x="1054.5" y="-180" font-family="Helvetica,sans-Serif" font-size="10.00">/src/Core/Geometry/MeshPrimitives.cpp</text>
</a>
</g>
</g>
<!-- Node18&#45;&gt;Node19 -->
<g id="edge21" class="edge"><title>Node18&#45;&gt;Node19</title>
<path fill="none" stroke="midnightblue" d="M1564.5,-255.934C1387.3,-232.874 1339.19,-247.323 1166.5,-220 1156.06,-218.348 1145.14,-216.287 1134.39,-214.058"/>
<polygon fill="midnightblue" stroke="midnightblue" points="1564.04,-259.403 1574.42,-257.245 1564.96,-252.464 1564.04,-259.403"/>
</g>
<!-- Node20 -->
<g id="node20" class="node"><title>Node20</title>
<g id="a_node20"><a xlink:href="Renderer_8cpp.html" target="_top" xlink:title="/home/travis/build\l/STORM&#45;IRIT/Radium&#45;Engine\l/src/Engine/Renderer/Renderer.cpp">
<polygon fill="white" stroke="black" points="1175.5,-173 1175.5,-214 1355.5,-214 1355.5,-173 1175.5,-173"/>
<text text-anchor="start" x="1183.5" y="-202" font-family="Helvetica,sans-Serif" font-size="10.00">/home/travis/build</text>
<text text-anchor="start" x="1183.5" y="-191" font-family="Helvetica,sans-Serif" font-size="10.00">/STORM&#45;IRIT/Radium&#45;Engine</text>
<text text-anchor="middle" x="1265.5" y="-180" font-family="Helvetica,sans-Serif" font-size="10.00">/src/Engine/Renderer/Renderer.cpp</text>
</a>
</g>
</g>
<!-- Node18&#45;&gt;Node20 -->
<g id="edge23" class="edge"><title>Node18&#45;&gt;Node20</title>
<path fill="none" stroke="midnightblue" d="M1564.37,-255.785C1475.26,-239.857 1365.78,-220.278 1364.5,-220 1356.18,-218.186 1347.49,-216.156 1338.88,-214.054"/>
<polygon fill="midnightblue" stroke="midnightblue" points="1563.84,-259.245 1574.3,-257.56 1565.07,-252.355 1563.84,-259.245"/>
</g>
<!-- Node21 -->
<g id="node21" class="node"><title>Node21</title>
<g id="a_node21"><a xlink:href="DebugRender_8cpp.html" target="_top" xlink:title="/home/travis/build\l/STORM&#45;IRIT/Radium&#45;Engine\l/src/Engine/Renderer/Renderers\l/DebugRender.cpp">
<polygon fill="white" stroke="black" points="1373.5,-167.5 1373.5,-219.5 1539.5,-219.5 1539.5,-167.5 1373.5,-167.5"/>
<text text-anchor="start" x="1381.5" y="-207.5" font-family="Helvetica,sans-Serif" font-size="10.00">/home/travis/build</text>
<text text-anchor="start" x="1381.5" y="-196.5" font-family="Helvetica,sans-Serif" font-size="10.00">/STORM&#45;IRIT/Radium&#45;Engine</text>
<text text-anchor="start" x="1381.5" y="-185.5" font-family="Helvetica,sans-Serif" font-size="10.00">/src/Engine/Renderer/Renderers</text>
<text text-anchor="middle" x="1456.5" y="-174.5" font-family="Helvetica,sans-Serif" font-size="10.00">/DebugRender.cpp</text>
</a>
</g>
</g>
<!-- Node18&#45;&gt;Node21 -->
<g id="edge24" class="edge"><title>Node18&#45;&gt;Node21</title>
<path fill="none" stroke="midnightblue" d="M1614.82,-252.886C1586.63,-242.49 1553.29,-230.195 1524.5,-219.576"/>
<polygon fill="midnightblue" stroke="midnightblue" points="1613.97,-256.302 1624.56,-256.479 1616.39,-249.735 1613.97,-256.302"/>
</g>
<!-- Node22 -->
<g id="node22" class="node"><title>Node22</title>
<g id="a_node22"><a xlink:href="DrawPrimitives_8cpp.html" target="_top" xlink:title="/home/travis/build\l/STORM&#45;IRIT/Radium&#45;Engine\l/src/Engine/Renderer/RenderObject\l/Primitives/DrawPrimitives.cpp">
<polygon fill="white" stroke="black" points="1557.5,-167.5 1557.5,-219.5 1739.5,-219.5 1739.5,-167.5 1557.5,-167.5"/>
<text text-anchor="start" x="1565.5" y="-207.5" font-family="Helvetica,sans-Serif" font-size="10.00">/home/travis/build</text>
<text text-anchor="start" x="1565.5" y="-196.5" font-family="Helvetica,sans-Serif" font-size="10.00">/STORM&#45;IRIT/Radium&#45;Engine</text>
<text text-anchor="start" x="1565.5" y="-185.5" font-family="Helvetica,sans-Serif" font-size="10.00">/src/Engine/Renderer/RenderObject</text>
<text text-anchor="middle" x="1648.5" y="-174.5" font-family="Helvetica,sans-Serif" font-size="10.00">/Primitives/DrawPrimitives.cpp</text>
</a>
</g>
</g>
<!-- Node18&#45;&gt;Node22 -->
<g id="edge25" class="edge"><title>Node18&#45;&gt;Node22</title>
<path fill="none" stroke="midnightblue" d="M1667.07,-246.694C1663.92,-237.827 1660.48,-228.174 1657.43,-219.607"/>
<polygon fill="midnightblue" stroke="midnightblue" points="1663.83,-248.023 1670.48,-256.271 1670.42,-245.676 1663.83,-248.023"/>
</g>
<!-- Node23 -->
<g id="node23" class="node"><title>Node23</title>
<g id="a_node23"><a xlink:href="RotateGizmo_8cpp.html" target="_top" xlink:title="/home/travis/build\l/STORM&#45;IRIT/Radium&#45;Engine\l/src/GuiBase/Viewer/Gizmo\l/RotateGizmo.cpp">
<polygon fill="white" stroke="black" points="1757.5,-167.5 1757.5,-219.5 1905.5,-219.5 1905.5,-167.5 1757.5,-167.5"/>
<text text-anchor="start" x="1765.5" y="-207.5" font-family="Helvetica,sans-Serif" font-size="10.00">/home/travis/build</text>
<text text-anchor="start" x="1765.5" y="-196.5" font-family="Helvetica,sans-Serif" font-size="10.00">/STORM&#45;IRIT/Radium&#45;Engine</text>
<text text-anchor="start" x="1765.5" y="-185.5" font-family="Helvetica,sans-Serif" font-size="10.00">/src/GuiBase/Viewer/Gizmo</text>
<text text-anchor="middle" x="1831.5" y="-174.5" font-family="Helvetica,sans-Serif" font-size="10.00">/RotateGizmo.cpp</text>
</a>
</g>
</g>
<!-- Node18&#45;&gt;Node23 -->
<g id="edge26" class="edge"><title>Node18&#45;&gt;Node23</title>
<path fill="none" stroke="midnightblue" d="M1723.25,-251.79C1742.44,-241.633 1764.75,-229.824 1784.12,-219.576"/>
<polygon fill="midnightblue" stroke="midnightblue" points="1721.59,-248.708 1714.39,-256.479 1724.86,-254.895 1721.59,-248.708"/>
</g>
<!-- Node24 -->
<g id="node24" class="node"><title>Node24</title>
<g id="a_node24"><a xlink:href="ScaleGizmo_8cpp.html" target="_top" xlink:title="/home/travis/build\l/STORM&#45;IRIT/Radium&#45;Engine\l/src/GuiBase/Viewer/Gizmo\l/ScaleGizmo.cpp">
<polygon fill="white" stroke="black" points="1923.5,-167.5 1923.5,-219.5 2071.5,-219.5 2071.5,-167.5 1923.5,-167.5"/>
<text text-anchor="start" x="1931.5" y="-207.5" font-family="Helvetica,sans-Serif" font-size="10.00">/home/travis/build</text>
<text text-anchor="start" x="1931.5" y="-196.5" font-family="Helvetica,sans-Serif" font-size="10.00">/STORM&#45;IRIT/Radium&#45;Engine</text>
<text text-anchor="start" x="1931.5" y="-185.5" font-family="Helvetica,sans-Serif" font-size="10.00">/src/GuiBase/Viewer/Gizmo</text>
<text text-anchor="middle" x="1997.5" y="-174.5" font-family="Helvetica,sans-Serif" font-size="10.00">/ScaleGizmo.cpp</text>
</a>
</g>
</g>
<!-- Node18&#45;&gt;Node24 -->
<g id="edge27" class="edge"><title>Node18&#45;&gt;Node24</title>
<path fill="none" stroke="midnightblue" d="M1776.3,-254.189C1818.97,-244.374 1869.36,-232.253 1914.5,-220 1917.41,-219.21 1920.37,-218.388 1923.36,-217.544"/>
<polygon fill="midnightblue" stroke="midnightblue" points="1775.45,-250.795 1766.48,-256.44 1777.01,-257.618 1775.45,-250.795"/>
</g>
<!-- Node25 -->
<g id="node25" class="node"><title>Node25</title>
<g id="a_node25"><a xlink:href="TranslateGizmo_8cpp.html" target="_top" xlink:title="/home/travis/build\l/STORM&#45;IRIT/Radium&#45;Engine\l/src/GuiBase/Viewer/Gizmo\l/TranslateGizmo.cpp">
<polygon fill="white" stroke="black" points="2089.5,-167.5 2089.5,-219.5 2237.5,-219.5 2237.5,-167.5 2089.5,-167.5"/>
<text text-anchor="start" x="2097.5" y="-207.5" font-family="Helvetica,sans-Serif" font-size="10.00">/home/travis/build</text>
<text text-anchor="start" x="2097.5" y="-196.5" font-family="Helvetica,sans-Serif" font-size="10.00">/STORM&#45;IRIT/Radium&#45;Engine</text>
<text text-anchor="start" x="2097.5" y="-185.5" font-family="Helvetica,sans-Serif" font-size="10.00">/src/GuiBase/Viewer/Gizmo</text>
<text text-anchor="middle" x="2163.5" y="-174.5" font-family="Helvetica,sans-Serif" font-size="10.00">/TranslateGizmo.cpp</text>
</a>
</g>
</g>
<!-- Node18&#45;&gt;Node25 -->
<g id="edge28" class="edge"><title>Node18&#45;&gt;Node25</title>
<path fill="none" stroke="midnightblue" d="M1790.84,-265.153C1872.07,-256.191 1983.78,-241.434 2080.5,-220 2083.44,-219.348 2086.43,-218.642 2089.45,-217.894"/>
<polygon fill="midnightblue" stroke="midnightblue" points="1790.15,-261.708 1780.59,-266.271 1790.91,-268.666 1790.15,-261.708"/>
</g>
<!-- Node26 -->
<g id="node26" class="node"><title>Node26</title>
<g id="a_node26"><a xlink:href="MeshFeatureTrackingComponent_8cpp.html" target="_top" xlink:title="/home/travis/build\l/STORM&#45;IRIT/Radium&#45;Engine\l/Plugins/MeshFeatureTracking\l/src/MeshFeatureTrackingComponent.cpp">
<polygon fill="white" stroke="black" points="2256,-167.5 2256,-219.5 2469,-219.5 2469,-167.5 2256,-167.5"/>
<text text-anchor="start" x="2264" y="-207.5" font-family="Helvetica,sans-Serif" font-size="10.00">/home/travis/build</text>
<text text-anchor="start" x="2264" y="-196.5" font-family="Helvetica,sans-Serif" font-size="10.00">/STORM&#45;IRIT/Radium&#45;Engine</text>
<text text-anchor="start" x="2264" y="-185.5" font-family="Helvetica,sans-Serif" font-size="10.00">/Plugins/MeshFeatureTracking</text>
<text text-anchor="middle" x="2362.5" y="-174.5" font-family="Helvetica,sans-Serif" font-size="10.00">/src/MeshFeatureTrackingComponent.cpp</text>
</a>
</g>
</g>
<!-- Node18&#45;&gt;Node26 -->
<g id="edge29" class="edge"><title>Node18&#45;&gt;Node26</title>
<path fill="none" stroke="midnightblue" d="M1791,-268.799C1906.21,-260.56 2089.48,-244.896 2246.5,-220 2249.55,-219.516 2252.65,-219.001 2255.77,-218.46"/>
<polygon fill="midnightblue" stroke="midnightblue" points="1790.49,-265.327 1780.76,-269.525 1790.98,-272.309 1790.49,-265.327"/>
</g>
<!-- Node31 -->
<g id="node31" class="node"><title>Node31</title>
<g id="a_node31"><a xlink:href="DualQuaternion_8hpp.html" target="_top" xlink:title="/home/travis/build\l/STORM&#45;IRIT/Radium&#45;Engine\l/src/Core/Math/DualQuaternion.hpp">
<polygon fill="white" stroke="black" points="2461,-256.5 2461,-297.5 2646,-297.5 2646,-256.5 2461,-256.5"/>
<text text-anchor="start" x="2469" y="-285.5" font-family="Helvetica,sans-Serif" font-size="10.00">/home/travis/build</text>
<text text-anchor="start" x="2469" y="-274.5" font-family="Helvetica,sans-Serif" font-size="10.00">/STORM&#45;IRIT/Radium&#45;Engine</text>
<text text-anchor="middle" x="2553.5" y="-263.5" font-family="Helvetica,sans-Serif" font-size="10.00">/src/Core/Math/DualQuaternion.hpp</text>
</a>
</g>
</g>
<!-- Node30&#45;&gt;Node31 -->
<g id="edge34" class="edge"><title>Node30&#45;&gt;Node31</title>
<path fill="none" stroke="midnightblue" d="M2510.47,-331.225C2517.57,-320.112 2526.35,-307.629 2534.21,-297.547"/>
<polygon fill="midnightblue" stroke="midnightblue" points="2507.46,-329.426 2505.18,-339.771 2513.42,-333.11 2507.46,-329.426"/>
</g>
<!-- Node31&#45;&gt;Node30 -->
<g id="edge39" class="edge"><title>Node31&#45;&gt;Node30</title>
<path fill="none" stroke="midnightblue" d="M2540.66,-306.076C2533.58,-317.172 2524.8,-329.66 2516.93,-339.771"/>
<polygon fill="midnightblue" stroke="midnightblue" points="2543.65,-307.894 2545.93,-297.547 2537.7,-304.214 2543.65,-307.894"/>
</g>
<!-- Node32 -->
<g id="node32" class="node"><title>Node32</title>
<g id="a_node32"><a xlink:href="DualQuaternionSkinning_8hpp.html" target="_top" xlink:title="/home/travis/build\l/STORM&#45;IRIT/Radium&#45;Engine\l/src/Core/Animation/DualQuaternion\lSkinning.hpp">
<polygon fill="white" stroke="black" points="2487,-167.5 2487,-219.5 2676,-219.5 2676,-167.5 2487,-167.5"/>
<text text-anchor="start" x="2495" y="-207.5" font-family="Helvetica,sans-Serif" font-size="10.00">/home/travis/build</text>
<text text-anchor="start" x="2495" y="-196.5" font-family="Helvetica,sans-Serif" font-size="10.00">/STORM&#45;IRIT/Radium&#45;Engine</text>
<text text-anchor="start" x="2495" y="-185.5" font-family="Helvetica,sans-Serif" font-size="10.00">/src/Core/Animation/DualQuaternion</text>
<text text-anchor="middle" x="2581.5" y="-174.5" font-family="Helvetica,sans-Serif" font-size="10.00">Skinning.hpp</text>
</a>
</g>
</g>
<!-- Node31&#45;&gt;Node32 -->
<g id="edge35" class="edge"><title>Node31&#45;&gt;Node32</title>
<path fill="none" stroke="midnightblue" d="M2563.57,-246.694C2566.61,-237.827 2569.93,-228.174 2572.87,-219.607"/>
<polygon fill="midnightblue" stroke="midnightblue" points="2560.22,-245.676 2560.28,-256.271 2566.84,-247.951 2560.22,-245.676"/>
</g>
<!-- Node36 -->
<g id="node36" class="node"><title>Node36</title>
<g id="a_node36"><a xlink:href="SkinningComponent_8hpp.html" target="_top" xlink:title="/home/travis/build\l/STORM&#45;IRIT/Radium&#45;Engine\l/Plugins/Skinning/src/SkinningComponent.hpp">
<polygon fill="white" stroke="black" points="2694,-173 2694,-214 2929,-214 2929,-173 2694,-173"/>
<text text-anchor="start" x="2702" y="-202" font-family="Helvetica,sans-Serif" font-size="10.00">/home/travis/build</text>
<text text-anchor="start" x="2702" y="-191" font-family="Helvetica,sans-Serif" font-size="10.00">/STORM&#45;IRIT/Radium&#45;Engine</text>
<text text-anchor="middle" x="2811.5" y="-180" font-family="Helvetica,sans-Serif" font-size="10.00">/Plugins/Skinning/src/SkinningComponent.hpp</text>
</a>
</g>
</g>
<!-- Node31&#45;&gt;Node36 -->
<g id="edge40" class="edge"><title>Node31&#45;&gt;Node36</title>
<path fill="none" stroke="midnightblue" d="M2625.05,-253.398C2664.21,-241.027 2712.25,-225.851 2749.76,-214.003"/>
<polygon fill="midnightblue" stroke="midnightblue" points="2623.78,-250.129 2615.3,-256.479 2625.89,-256.804 2623.78,-250.129"/>
</g>
<!-- Node33 -->
<g id="node33" class="node"><title>Node33</title>
<g id="a_node33"><a xlink:href="DualQuaternionSkinning_8cpp.html" target="_top" xlink:title="/home/travis/build\l/STORM&#45;IRIT/Radium&#45;Engine\l/src/Core/Animation/DualQuaternion\lSkinning.cpp">
<polygon fill="white" stroke="black" points="2282,-78.5 2282,-130.5 2471,-130.5 2471,-78.5 2282,-78.5"/>
<text text-anchor="start" x="2290" y="-118.5" font-family="Helvetica,sans-Serif" font-size="10.00">/home/travis/build</text>
<text text-anchor="start" x="2290" y="-107.5" font-family="Helvetica,sans-Serif" font-size="10.00">/STORM&#45;IRIT/Radium&#45;Engine</text>
<text text-anchor="start" x="2290" y="-96.5" font-family="Helvetica,sans-Serif" font-size="10.00">/src/Core/Animation/DualQuaternion</text>
<text text-anchor="middle" x="2376.5" y="-85.5" font-family="Helvetica,sans-Serif" font-size="10.00">Skinning.cpp</text>
</a>
</g>
</g>
<!-- Node32&#45;&gt;Node33 -->
<g id="edge36" class="edge"><title>Node32&#45;&gt;Node33</title>
<path fill="none" stroke="midnightblue" d="M2513.01,-163.436C2487.89,-152.771 2459.68,-140.8 2435.46,-130.521"/>
<polygon fill="midnightblue" stroke="midnightblue" points="2511.91,-166.768 2522.48,-167.453 2514.64,-160.324 2511.91,-166.768"/>
</g>
<!-- Node34 -->
<g id="node34" class="node"><title>Node34</title>
<g id="a_node34"><a xlink:href="RotationCenterSkinning_8cpp.html" target="_top" xlink:title="/home/travis/build\l/STORM&#45;IRIT/Radium&#45;Engine\l/src/Core/Animation/RotationCenter\lSkinning.cpp">
<polygon fill="white" stroke="black" points="2489,-78.5 2489,-130.5 2674,-130.5 2674,-78.5 2489,-78.5"/>
<text text-anchor="start" x="2497" y="-118.5" font-family="Helvetica,sans-Serif" font-size="10.00">/home/travis/build</text>
<text text-anchor="start" x="2497" y="-107.5" font-family="Helvetica,sans-Serif" font-size="10.00">/STORM&#45;IRIT/Radium&#45;Engine</text>
<text text-anchor="start" x="2497" y="-96.5" font-family="Helvetica,sans-Serif" font-size="10.00">/src/Core/Animation/RotationCenter</text>
<text text-anchor="middle" x="2581.5" y="-85.5" font-family="Helvetica,sans-Serif" font-size="10.00">Skinning.cpp</text>
</a>
</g>
</g>
<!-- Node32&#45;&gt;Node34 -->
<g id="edge37" class="edge"><title>Node32&#45;&gt;Node34</title>
<path fill="none" stroke="midnightblue" d="M2581.5,-157.191C2581.5,-148.282 2581.5,-138.899 2581.5,-130.607"/>
<polygon fill="midnightblue" stroke="midnightblue" points="2578,-157.336 2581.5,-167.336 2585,-157.336 2578,-157.336"/>
</g>
<!-- Node35 -->
<g id="node35" class="node"><title>Node35</title>
<g id="a_node35"><a xlink:href="SkinningComponent_8cpp.html" target="_top" xlink:title="/home/travis/build\l/STORM&#45;IRIT/Radium&#45;Engine\l/Plugins/Skinning/src/SkinningComponent.cpp">
<polygon fill="white" stroke="black" points="2692.5,-84 2692.5,-125 2926.5,-125 2926.5,-84 2692.5,-84"/>
<text text-anchor="start" x="2700.5" y="-113" font-family="Helvetica,sans-Serif" font-size="10.00">/home/travis/build</text>
<text text-anchor="start" x="2700.5" y="-102" font-family="Helvetica,sans-Serif" font-size="10.00">/STORM&#45;IRIT/Radium&#45;Engine</text>
<text text-anchor="middle" x="2809.5" y="-91" font-family="Helvetica,sans-Serif" font-size="10.00">/Plugins/Skinning/src/SkinningComponent.cpp</text>
</a>
</g>
</g>
<!-- Node32&#45;&gt;Node35 -->
<g id="edge38" class="edge"><title>Node32&#45;&gt;Node35</title>
<path fill="none" stroke="midnightblue" d="M2656.81,-163.762C2690.01,-151.094 2728.18,-136.531 2758.05,-125.134"/>
<polygon fill="midnightblue" stroke="midnightblue" points="2655.24,-160.618 2647.14,-167.453 2657.73,-167.158 2655.24,-160.618"/>
</g>
<!-- Node36&#45;&gt;Node35 -->
<g id="edge41" class="edge"><title>Node36&#45;&gt;Node35</title>
<path fill="none" stroke="midnightblue" d="M2810.81,-162.441C2810.53,-150.101 2810.2,-136.162 2809.95,-125.164"/>
<polygon fill="midnightblue" stroke="midnightblue" points="2807.32,-162.841 2811.05,-172.758 2814.32,-162.681 2807.32,-162.841"/>
</g>
<!-- Node37 -->
<g id="node37" class="node"><title>Node37</title>
<g id="a_node37"><a xlink:href="SkinningSystem_8hpp.html" target="_top" xlink:title="/home/travis/build\l/STORM&#45;IRIT/Radium&#45;Engine\l/Plugins/Skinning/src/SkinningSystem.hpp">
<polygon fill="white" stroke="black" points="2945,-84 2945,-125 3160,-125 3160,-84 2945,-84"/>
<text text-anchor="start" x="2953" y="-113" font-family="Helvetica,sans-Serif" font-size="10.00">/home/travis/build</text>
<text text-anchor="start" x="2953" y="-102" font-family="Helvetica,sans-Serif" font-size="10.00">/STORM&#45;IRIT/Radium&#45;Engine</text>
<text text-anchor="middle" x="3052.5" y="-91" font-family="Helvetica,sans-Serif" font-size="10.00">/Plugins/Skinning/src/SkinningSystem.hpp</text>
</a>
</g>
</g>
<!-- Node36&#45;&gt;Node37 -->
<g id="edge42" class="edge"><title>Node36&#45;&gt;Node37</title>
<path fill="none" stroke="midnightblue" d="M2875.1,-169.542C2913.4,-155.714 2961.67,-138.291 2998.18,-125.11"/>
<polygon fill="midnightblue" stroke="midnightblue" points="2873.8,-166.288 2865.59,-172.976 2876.18,-172.872 2873.8,-166.288"/>
</g>
<!-- Node38 -->
<g id="node38" class="node"><title>Node38</title>
<g id="a_node38"><a xlink:href="SkinningPlugin_8cpp.html" target="_top" xlink:title="/home/travis/build\l/STORM&#45;IRIT/Radium&#45;Engine\l/Plugins/Skinning/src/SkinningPlugin.cpp">
<polygon fill="white" stroke="black" points="2949.5,-0.5 2949.5,-41.5 3155.5,-41.5 3155.5,-0.5 2949.5,-0.5"/>
<text text-anchor="start" x="2957.5" y="-29.5" font-family="Helvetica,sans-Serif" font-size="10.00">/home/travis/build</text>
<text text-anchor="start" x="2957.5" y="-18.5" font-family="Helvetica,sans-Serif" font-size="10.00">/STORM&#45;IRIT/Radium&#45;Engine</text>
<text text-anchor="middle" x="3052.5" y="-7.5" font-family="Helvetica,sans-Serif" font-size="10.00">/Plugins/Skinning/src/SkinningPlugin.cpp</text>
</a>
</g>
</g>
<!-- Node37&#45;&gt;Node38 -->
<g id="edge43" class="edge"><title>Node37&#45;&gt;Node38</title>
<path fill="none" stroke="midnightblue" d="M3052.5,-73.5646C3052.5,-62.8819 3052.5,-51.1303 3052.5,-41.5472"/>
<polygon fill="midnightblue" stroke="midnightblue" points="3049,-73.7711 3052.5,-83.7711 3056,-73.7712 3049,-73.7711"/>
</g>
<!-- Node39&#45;&gt;Node1 -->
<g id="edge45" class="edge"><title>Node39&#45;&gt;Node1</title>
<path fill="none" stroke="midnightblue" d="M2623.38,-383.365C2617.05,-384.769 2610.68,-386.012 2604.5,-387 2401.3,-419.453 1777.09,-436.126 1544.76,-441.248"/>
<polygon fill="midnightblue" stroke="midnightblue" points="2624.33,-386.737 2633.26,-381.042 2622.73,-379.923 2624.33,-386.737"/>
</g>
</g>
</svg>
