<?xml version="1.0" encoding="UTF-8" standalone="no"?>
<!DOCTYPE svg PUBLIC "-//W3C//DTD SVG 1.1//EN"
 "http://www.w3.org/Graphics/SVG/1.1/DTD/svg11.dtd">
<!-- Generated by graphviz version 2.38.0 (20140413.2041)
 -->
<!-- Title: /home/travis/build/STORM&#45;IRIT/Radium&#45;Engine/src/Core/Animation/LinearBlendSkinning.cpp Pages: 1 -->
<svg width="698pt" height="419pt"
 viewBox="0.00 0.00 698.00 419.00" xmlns="http://www.w3.org/2000/svg" xmlns:xlink="http://www.w3.org/1999/xlink">
<g id="graph0" class="graph" transform="scale(1 1) rotate(0) translate(4 415)">
<title>/home/travis/build/STORM&#45;IRIT/Radium&#45;Engine/src/Core/Animation/LinearBlendSkinning.cpp</title>
<polygon fill="white" stroke="none" points="-4,4 -4,-415 694,-415 694,4 -4,4"/>
<!-- Node1 -->
<g id="node1" class="node"><title>Node1</title>
<polygon fill="#bfbfbf" stroke="black" points="264,-358.5 264,-410.5 434,-410.5 434,-358.5 264,-358.5"/>
<text text-anchor="start" x="272" y="-398.5" font-family="Helvetica,sans-Serif" font-size="10.00">/home/travis/build</text>
<text text-anchor="start" x="272" y="-387.5" font-family="Helvetica,sans-Serif" font-size="10.00">/STORM&#45;IRIT/Radium&#45;Engine</text>
<text text-anchor="start" x="272" y="-376.5" font-family="Helvetica,sans-Serif" font-size="10.00">/src/Core/Animation/LinearBlend</text>
<text text-anchor="middle" x="349" y="-365.5" font-family="Helvetica,sans-Serif" font-size="10.00">Skinning.cpp</text>
</g>
<!-- Node2 -->
<g id="node2" class="node"><title>Node2</title>
<g id="a_node2"><a xlink:href="LinearBlendSkinning_8hpp.html" target="_top" xlink:title="Core/Animation/LinearBlend\lSkinning.hpp">
<polygon fill="white" stroke="black" points="274,-291.5 274,-321.5 424,-321.5 424,-291.5 274,-291.5"/>
<text text-anchor="start" x="282" y="-309.5" font-family="Helvetica,sans-Serif" font-size="10.00">Core/Animation/LinearBlend</text>
<text text-anchor="middle" x="349" y="-298.5" font-family="Helvetica,sans-Serif" font-size="10.00">Skinning.hpp</text>
</a>
</g>
</g>
<!-- Node1&#45;&gt;Node2 -->
<g id="edge1" class="edge"><title>Node1&#45;&gt;Node2</title>
<path fill="none" stroke="midnightblue" d="M349,-358.193C349,-349.786 349,-340.443 349,-332.091"/>
<polygon fill="midnightblue" stroke="midnightblue" points="352.5,-331.845 349,-321.845 345.5,-331.845 352.5,-331.845"/>
</g>
<!-- Node3 -->
<g id="node3" class="node"><title>Node3</title>
<g id="a_node3"><a xlink:href="HandleWeight_8hpp.html" target="_top" xlink:title="Core/Animation/HandleWeight.hpp">
<polygon fill="white" stroke="black" points="162,-235.5 162,-254.5 342,-254.5 342,-235.5 162,-235.5"/>
<text text-anchor="middle" x="252" y="-242.5" font-family="Helvetica,sans-Serif" font-size="10.00">Core/Animation/HandleWeight.hpp</text>
</a>
</g>
</g>
<!-- Node2&#45;&gt;Node3 -->
<g id="edge2" class="edge"><title>Node2&#45;&gt;Node3</title>
<path fill="none" stroke="midnightblue" d="M326.012,-291.399C310.609,-281.951 290.407,-269.559 275.001,-260.109"/>
<polygon fill="midnightblue" stroke="midnightblue" points="276.469,-256.903 266.114,-254.658 272.808,-262.87 276.469,-256.903"/>
</g>
<!-- Node14 -->
<g id="node14" class="node"><title>Node14</title>
<g id="a_node14"><a xlink:href="Types_8hpp.html" target="_top" xlink:title="Core/Math/Types.hpp">
<polygon fill="white" stroke="black" points="122,-174 122,-193 238,-193 238,-174 122,-174"/>
<text text-anchor="middle" x="180" y="-181" font-family="Helvetica,sans-Serif" font-size="10.00">Core/Math/Types.hpp</text>
</a>
</g>
</g>
<!-- Node2&#45;&gt;Node14 -->
<g id="edge26" class="edge"><title>Node2&#45;&gt;Node14</title>
<path fill="none" stroke="midnightblue" d="M273.761,-295.723C225.069,-287.675 168.041,-274.407 153,-255 140.517,-238.893 153.157,-216.345 165.008,-201.121"/>
<polygon fill="midnightblue" stroke="midnightblue" points="167.975,-203.028 171.698,-193.109 162.602,-198.542 167.975,-203.028"/>
</g>
<!-- Node19 -->
<g id="node19" class="node"><title>Node19</title>
<g id="a_node19"><a xlink:href="Pose_8hpp.html" target="_top" xlink:title="Core/Animation/Pose.hpp">
<polygon fill="white" stroke="black" points="552,-235.5 552,-254.5 690,-254.5 690,-235.5 552,-235.5"/>
<text text-anchor="middle" x="621" y="-242.5" font-family="Helvetica,sans-Serif" font-size="10.00">Core/Animation/Pose.hpp</text>
</a>
</g>
</g>
<!-- Node2&#45;&gt;Node19 -->
<g id="edge19" class="edge"><title>Node2&#45;&gt;Node19</title>
<path fill="none" stroke="midnightblue" d="M413.116,-291.475C461.783,-280.829 527.685,-266.413 572.135,-256.689"/>
<polygon fill="midnightblue" stroke="midnightblue" points="573.093,-260.063 582.114,-254.506 571.597,-253.224 573.093,-260.063"/>
</g>
<!-- Node20 -->
<g id="node20" class="node"><title>Node20</title>
<g id="a_node20"><a xlink:href="VectorArray_8hpp.html" target="_top" xlink:title="Core/Containers/VectorArray.hpp">
<polygon fill="white" stroke="black" points="360.5,-235.5 360.5,-254.5 533.5,-254.5 533.5,-235.5 360.5,-235.5"/>
<text text-anchor="middle" x="447" y="-242.5" font-family="Helvetica,sans-Serif" font-size="10.00">Core/Containers/VectorArray.hpp</text>
</a>
</g>
</g>
<!-- Node2&#45;&gt;Node20 -->
<g id="edge21" class="edge"><title>Node2&#45;&gt;Node20</title>
<path fill="none" stroke="midnightblue" d="M372.225,-291.399C387.786,-281.951 408.197,-269.559 423.762,-260.109"/>
<polygon fill="midnightblue" stroke="midnightblue" points="426.009,-262.839 432.74,-254.658 422.376,-256.856 426.009,-262.839"/>
</g>
<!-- Node4 -->
<g id="node4" class="node"><title>Node4</title>
<g id="a_node4"><a xlink:href="AlignedStdVector_8hpp.html" target="_top" xlink:title="Core/Containers/AlignedStd\lVector.hpp">
<polygon fill="white" stroke="black" points="372.5,-168.5 372.5,-198.5 521.5,-198.5 521.5,-168.5 372.5,-168.5"/>
<text text-anchor="start" x="380.5" y="-186.5" font-family="Helvetica,sans-Serif" font-size="10.00">Core/Containers/AlignedStd</text>
<text text-anchor="middle" x="447" y="-175.5" font-family="Helvetica,sans-Serif" font-size="10.00">Vector.hpp</text>
</a>
</g>
</g>
<!-- Node3&#45;&gt;Node4 -->
<g id="edge3" class="edge"><title>Node3&#45;&gt;Node4</title>
<path fill="none" stroke="midnightblue" d="M279.939,-235.475C308.817,-226.664 354.683,-212.668 391.057,-201.57"/>
<polygon fill="midnightblue" stroke="midnightblue" points="392.499,-204.789 401.042,-198.523 390.456,-198.094 392.499,-204.789"/>
</g>
<!-- Node3&#45;&gt;Node14 -->
<g id="edge13" class="edge"><title>Node3&#45;&gt;Node14</title>
<path fill="none" stroke="midnightblue" d="M241.684,-235.475C230.349,-226.108 211.927,-210.884 198.161,-199.508"/>
<polygon fill="midnightblue" stroke="midnightblue" points="200.235,-196.681 190.297,-193.009 195.776,-202.077 200.235,-196.681"/>
</g>
<!-- Node18 -->
<g id="node18" class="node"><title>Node18</title>
<polygon fill="white" stroke="#bfbfbf" points="256,-174 256,-193 294,-193 294,-174 256,-174"/>
<text text-anchor="middle" x="275" y="-181" font-family="Helvetica,sans-Serif" font-size="10.00">map</text>
</g>
<!-- Node3&#45;&gt;Node18 -->
<g id="edge18" class="edge"><title>Node3&#45;&gt;Node18</title>
<path fill="none" stroke="midnightblue" d="M255.295,-235.475C258.609,-226.904 263.818,-213.427 268.049,-202.483"/>
<polygon fill="midnightblue" stroke="midnightblue" points="271.37,-203.598 271.711,-193.009 264.841,-201.075 271.37,-203.598"/>
</g>
<!-- Node5 -->
<g id="node5" class="node"><title>Node5</title>
<g id="a_node5"><a xlink:href="RaCore_8hpp.html" target="_top" xlink:title="Core/RaCore.hpp">
<polygon fill="white" stroke="black" points="296,-112.5 296,-131.5 394,-131.5 394,-112.5 296,-112.5"/>
<text text-anchor="middle" x="345" y="-119.5" font-family="Helvetica,sans-Serif" font-size="10.00">Core/RaCore.hpp</text>
</a>
</g>
</g>
<!-- Node4&#45;&gt;Node5 -->
<g id="edge4" class="edge"><title>Node4&#45;&gt;Node5</title>
<path fill="none" stroke="midnightblue" d="M422.827,-168.399C406.478,-158.862 384.985,-146.325 368.73,-136.842"/>
<polygon fill="midnightblue" stroke="midnightblue" points="370.243,-133.673 359.842,-131.658 366.716,-139.72 370.243,-133.673"/>
</g>
<!-- Node12 -->
<g id="node12" class="node"><title>Node12</title>
<polygon fill="white" stroke="#bfbfbf" points="411.5,-112.5 411.5,-131.5 504.5,-131.5 504.5,-112.5 411.5,-112.5"/>
<text text-anchor="middle" x="458" y="-119.5" font-family="Helvetica,sans-Serif" font-size="10.00">Eigen/StdVector</text>
</g>
<!-- Node4&#45;&gt;Node12 -->
<g id="edge11" class="edge"><title>Node4&#45;&gt;Node12</title>
<path fill="none" stroke="midnightblue" d="M449.607,-168.399C451.09,-160.377 452.965,-150.233 454.567,-141.569"/>
<polygon fill="midnightblue" stroke="midnightblue" points="458.023,-142.127 456.399,-131.658 451.14,-140.855 458.023,-142.127"/>
</g>
<!-- Node13 -->
<g id="node13" class="node"><title>Node13</title>
<polygon fill="white" stroke="#bfbfbf" points="523.5,-112.5 523.5,-131.5 570.5,-131.5 570.5,-112.5 523.5,-112.5"/>
<text text-anchor="middle" x="547" y="-119.5" font-family="Helvetica,sans-Serif" font-size="10.00">vector</text>
</g>
<!-- Node4&#45;&gt;Node13 -->
<g id="edge12" class="edge"><title>Node4&#45;&gt;Node13</title>
<path fill="none" stroke="midnightblue" d="M470.699,-168.399C486.728,-158.862 507.799,-146.325 523.736,-136.842"/>
<polygon fill="midnightblue" stroke="midnightblue" points="525.645,-139.779 532.449,-131.658 522.066,-133.763 525.645,-139.779"/>
</g>
<!-- Node6 -->
<g id="node6" class="node"><title>Node6</title>
<g id="a_node6"><a xlink:href="CoreMacros_8hpp.html" target="_top" xlink:title="Core/CoreMacros.hpp">
<polygon fill="white" stroke="black" points="285,-56.5 285,-75.5 405,-75.5 405,-56.5 285,-56.5"/>
<text text-anchor="middle" x="345" y="-63.5" font-family="Helvetica,sans-Serif" font-size="10.00">Core/CoreMacros.hpp</text>
</a>
</g>
</g>
<!-- Node5&#45;&gt;Node6 -->
<g id="edge5" class="edge"><title>Node5&#45;&gt;Node6</title>
<path fill="none" stroke="midnightblue" d="M345,-112.083C345,-105.006 345,-94.8611 345,-85.9865"/>
<polygon fill="midnightblue" stroke="midnightblue" points="348.5,-85.751 345,-75.7511 341.5,-85.7511 348.5,-85.751"/>
</g>
<!-- Node7 -->
<g id="node7" class="node"><title>Node7</title>
<polygon fill="white" stroke="#bfbfbf" points="182,-0.5 182,-19.5 234,-19.5 234,-0.5 182,-0.5"/>
<text text-anchor="middle" x="208" y="-7.5" font-family="Helvetica,sans-Serif" font-size="10.00">cassert</text>
</g>
<!-- Node6&#45;&gt;Node7 -->
<g id="edge6" class="edge"><title>Node6&#45;&gt;Node7</title>
<path fill="none" stroke="midnightblue" d="M323.292,-56.4435C300.645,-47.5171 264.928,-33.4387 239.248,-23.3168"/>
<polygon fill="midnightblue" stroke="midnightblue" points="240.193,-19.9273 229.606,-19.5164 237.626,-26.4397 240.193,-19.9273"/>
</g>
<!-- Node8 -->
<g id="node8" class="node"><title>Node8</title>
<polygon fill="white" stroke="#bfbfbf" points="252.5,-0.5 252.5,-19.5 297.5,-19.5 297.5,-0.5 252.5,-0.5"/>
<text text-anchor="middle" x="275" y="-7.5" font-family="Helvetica,sans-Serif" font-size="10.00">cstdio</text>
</g>
<!-- Node6&#45;&gt;Node8 -->
<g id="edge7" class="edge"><title>Node6&#45;&gt;Node8</title>
<path fill="none" stroke="midnightblue" d="M333.753,-56.324C323.203,-48.1849 307.199,-35.8395 294.558,-26.0874"/>
<polygon fill="midnightblue" stroke="midnightblue" points="296.507,-23.1707 286.451,-19.8339 292.231,-28.7132 296.507,-23.1707"/>
</g>
<!-- Node9 -->
<g id="node9" class="node"><title>Node9</title>
<polygon fill="white" stroke="#bfbfbf" points="315.5,-0.5 315.5,-19.5 374.5,-19.5 374.5,-0.5 315.5,-0.5"/>
<text text-anchor="middle" x="345" y="-7.5" font-family="Helvetica,sans-Serif" font-size="10.00">iostream</text>
</g>
<!-- Node6&#45;&gt;Node9 -->
<g id="edge8" class="edge"><title>Node6&#45;&gt;Node9</title>
<path fill="none" stroke="midnightblue" d="M345,-56.083C345,-49.0059 345,-38.8611 345,-29.9865"/>
<polygon fill="midnightblue" stroke="midnightblue" points="348.5,-29.751 345,-19.7511 341.5,-29.7511 348.5,-29.751"/>
</g>
<!-- Node10 -->
<g id="node10" class="node"><title>Node10</title>
<polygon fill="white" stroke="#bfbfbf" points="393,-0.5 393,-19.5 449,-19.5 449,-0.5 393,-0.5"/>
<text text-anchor="middle" x="421" y="-7.5" font-family="Helvetica,sans-Serif" font-size="10.00">sstream</text>
</g>
<!-- Node6&#45;&gt;Node10 -->
<g id="edge9" class="edge"><title>Node6&#45;&gt;Node10</title>
<path fill="none" stroke="midnightblue" d="M357.211,-56.324C368.776,-48.1066 386.375,-35.6017 400.161,-25.8069"/>
<polygon fill="midnightblue" stroke="midnightblue" points="402.443,-28.4791 408.567,-19.8339 398.388,-22.7729 402.443,-28.4791"/>
</g>
<!-- Node11 -->
<g id="node11" class="node"><title>Node11</title>
<polygon fill="white" stroke="#bfbfbf" points="467,-0.5 467,-19.5 515,-19.5 515,-0.5 467,-0.5"/>
<text text-anchor="middle" x="491" y="-7.5" font-family="Helvetica,sans-Serif" font-size="10.00">thread</text>
</g>
<!-- Node6&#45;&gt;Node11 -->
<g id="edge10" class="edge"><title>Node6&#45;&gt;Node11</title>
<path fill="none" stroke="midnightblue" d="M368.134,-56.4435C392.482,-47.4381 431.007,-33.1891 458.423,-23.049"/>
<polygon fill="midnightblue" stroke="midnightblue" points="459.809,-26.2681 467.974,-19.5164 457.381,-19.7028 459.809,-26.2681"/>
</g>
<!-- Node14&#45;&gt;Node5 -->
<g id="edge14" class="edge"><title>Node14&#45;&gt;Node5</title>
<path fill="none" stroke="midnightblue" d="M203.64,-173.975C231.944,-163.769 279.533,-146.608 311.586,-135.049"/>
<polygon fill="midnightblue" stroke="midnightblue" points="313.184,-138.194 321.403,-131.509 310.809,-131.609 313.184,-138.194"/>
</g>
<!-- Node15 -->
<g id="node15" class="node"><title>Node15</title>
<polygon fill="white" stroke="#bfbfbf" points="0,-112.5 0,-131.5 68,-131.5 68,-112.5 0,-112.5"/>
<text text-anchor="middle" x="34" y="-119.5" font-family="Helvetica,sans-Serif" font-size="10.00">Eigen/Core</text>
</g>
<!-- Node14&#45;&gt;Node15 -->
<g id="edge15" class="edge"><title>Node14&#45;&gt;Node15</title>
<path fill="none" stroke="midnightblue" d="M159.082,-173.975C134.254,-163.857 92.6567,-146.905 64.3058,-135.351"/>
<polygon fill="midnightblue" stroke="midnightblue" points="65.4609,-132.042 54.8794,-131.509 62.819,-138.524 65.4609,-132.042"/>
</g>
<!-- Node16 -->
<g id="node16" class="node"><title>Node16</title>
<polygon fill="white" stroke="#bfbfbf" points="86,-112.5 86,-131.5 180,-131.5 180,-112.5 86,-112.5"/>
<text text-anchor="middle" x="133" y="-119.5" font-family="Helvetica,sans-Serif" font-size="10.00">Eigen/Geometry</text>
</g>
<!-- Node14&#45;&gt;Node16 -->
<g id="edge16" class="edge"><title>Node14&#45;&gt;Node16</title>
<path fill="none" stroke="midnightblue" d="M173.266,-173.975C166.216,-165.05 154.965,-150.807 146.146,-139.643"/>
<polygon fill="midnightblue" stroke="midnightblue" points="148.667,-137.187 139.721,-131.509 143.174,-141.526 148.667,-137.187"/>
</g>
<!-- Node17 -->
<g id="node17" class="node"><title>Node17</title>
<polygon fill="white" stroke="#bfbfbf" points="198,-112.5 198,-131.5 278,-131.5 278,-112.5 198,-112.5"/>
<text text-anchor="middle" x="238" y="-119.5" font-family="Helvetica,sans-Serif" font-size="10.00">Eigen/Sparse</text>
</g>
<!-- Node14&#45;&gt;Node17 -->
<g id="edge17" class="edge"><title>Node14&#45;&gt;Node17</title>
<path fill="none" stroke="midnightblue" d="M188.31,-173.975C197.182,-164.873 211.446,-150.241 222.42,-138.983"/>
<polygon fill="midnightblue" stroke="midnightblue" points="225.231,-141.113 229.705,-131.509 220.219,-136.227 225.231,-141.113"/>
</g>
<!-- Node19&#45;&gt;Node4 -->
<g id="edge20" class="edge"><title>Node19&#45;&gt;Node4</title>
<path fill="none" stroke="midnightblue" d="M596.07,-235.475C570.522,-226.739 530.073,-212.907 497.753,-201.855"/>
<polygon fill="midnightblue" stroke="midnightblue" points="498.603,-198.447 488.008,-198.523 496.338,-205.07 498.603,-198.447"/>
</g>
<!-- Node20&#45;&gt;Node4 -->
<g id="edge22" class="edge"><title>Node20&#45;&gt;Node4</title>
<path fill="none" stroke="midnightblue" d="M447,-235.475C447,-228.471 447,-218.192 447,-208.696"/>
<polygon fill="midnightblue" stroke="midnightblue" points="450.5,-208.523 447,-198.523 443.5,-208.523 450.5,-208.523"/>
</g>
<!-- Node20&#45;&gt;Node5 -->
<g id="edge24" class="edge"><title>Node20&#45;&gt;Node5</title>
<path fill="none" stroke="midnightblue" d="M417.976,-235.362C399.569,-228.419 376.72,-216.833 363,-199 350.37,-182.584 346.404,-158.7 345.259,-142.105"/>
<polygon fill="midnightblue" stroke="midnightblue" points="348.75,-141.811 344.845,-131.962 341.756,-142.096 348.75,-141.811"/>
</g>
<!-- Node20&#45;&gt;Node13 -->
<g id="edge25" class="edge"><title>Node20&#45;&gt;Node13</title>
<path fill="none" stroke="midnightblue" d="M475.355,-235.484C493.644,-228.545 516.463,-216.917 530,-199 542.45,-182.522 546.095,-158.65 547.01,-142.074"/>
<polygon fill="midnightblue" stroke="midnightblue" points="550.512,-142.036 547.282,-131.945 543.515,-141.848 550.512,-142.036"/>
</g>
<!-- Node20&#45;&gt;Node14 -->
<g id="edge23" class="edge"><title>Node20&#45;&gt;Node14</title>
<path fill="none" stroke="midnightblue" d="M408.745,-235.475C361.161,-224.871 279.89,-206.76 228.125,-195.224"/>
<polygon fill="midnightblue" stroke="midnightblue" points="228.706,-191.768 218.184,-193.009 227.183,-198.6 228.706,-191.768"/>
</g>
</g>
</svg>
