<?xml version="1.0" encoding="UTF-8" standalone="no"?>
<!DOCTYPE svg PUBLIC "-//W3C//DTD SVG 1.1//EN"
 "http://www.w3.org/Graphics/SVG/1.1/DTD/svg11.dtd">
<!-- Generated by graphviz version 2.38.0 (20140413.2041)
 -->
<!-- Title: /home/travis/build/STORM&#45;IRIT/Radium&#45;Engine/src/Core/Geometry/LoopSubdivider.cpp Pages: 1 -->
<svg width="1925pt" height="587pt"
 viewBox="0.00 0.00 1925.00 587.00" xmlns="http://www.w3.org/2000/svg" xmlns:xlink="http://www.w3.org/1999/xlink">
<g id="graph0" class="graph" transform="scale(1 1) rotate(0) translate(4 583)">
<title>/home/travis/build/STORM&#45;IRIT/Radium&#45;Engine/src/Core/Geometry/LoopSubdivider.cpp</title>
<polygon fill="white" stroke="none" points="-4,4 -4,-583 1921,-583 1921,4 -4,4"/>
<!-- Node1 -->
<g id="node1" class="node"><title>Node1</title>
<polygon fill="#bfbfbf" stroke="black" points="1318.5,-537.5 1318.5,-578.5 1524.5,-578.5 1524.5,-537.5 1318.5,-537.5"/>
<text text-anchor="start" x="1326.5" y="-566.5" font-family="Helvetica,sans-Serif" font-size="10.00">/home/travis/build</text>
<text text-anchor="start" x="1326.5" y="-555.5" font-family="Helvetica,sans-Serif" font-size="10.00">/STORM&#45;IRIT/Radium&#45;Engine</text>
<text text-anchor="middle" x="1421.5" y="-544.5" font-family="Helvetica,sans-Serif" font-size="10.00">/src/Core/Geometry/LoopSubdivider.cpp</text>
</g>
<!-- Node2 -->
<g id="node2" class="node"><title>Node2</title>
<g id="a_node2"><a xlink:href="LoopSubdivider_8hpp.html" target="_top" xlink:title="Core/Geometry/LoopSubdivider.hpp">
<polygon fill="white" stroke="black" points="1328,-481.5 1328,-500.5 1515,-500.5 1515,-481.5 1328,-481.5"/>
<text text-anchor="middle" x="1421.5" y="-488.5" font-family="Helvetica,sans-Serif" font-size="10.00">Core/Geometry/LoopSubdivider.hpp</text>
</a>
</g>
</g>
<!-- Node1&#45;&gt;Node2 -->
<g id="edge1" class="edge"><title>Node1&#45;&gt;Node2</title>
<path fill="none" stroke="midnightblue" d="M1421.5,-537.498C1421.5,-529.065 1421.5,-519.235 1421.5,-510.874"/>
<polygon fill="midnightblue" stroke="midnightblue" points="1425,-510.652 1421.5,-500.652 1418,-510.653 1425,-510.652"/>
</g>
<!-- Node3 -->
<g id="node3" class="node"><title>Node3</title>
<g id="a_node3"><a xlink:href="TopologicalMesh_8hpp.html" target="_top" xlink:title="Core/Geometry/Topological\lMesh.hpp">
<polygon fill="white" stroke="black" points="794,-414.5 794,-444.5 939,-444.5 939,-414.5 794,-414.5"/>
<text text-anchor="start" x="802" y="-432.5" font-family="Helvetica,sans-Serif" font-size="10.00">Core/Geometry/Topological</text>
<text text-anchor="middle" x="866.5" y="-421.5" font-family="Helvetica,sans-Serif" font-size="10.00">Mesh.hpp</text>
</a>
</g>
</g>
<!-- Node2&#45;&gt;Node3 -->
<g id="edge2" class="edge"><title>Node2&#45;&gt;Node3</title>
<path fill="none" stroke="midnightblue" d="M1341.98,-481.475C1237.6,-470.284 1055.22,-450.732 949.253,-439.372"/>
<polygon fill="midnightblue" stroke="midnightblue" points="949.558,-435.884 939.241,-438.298 948.811,-442.845 949.558,-435.884"/>
</g>
<!-- Node31 -->
<g id="node31" class="node"><title>Node31</title>
<g id="a_node31"><a xlink:href="LinearAlgebra_8hpp.html" target="_top" xlink:title="Core/Math/LinearAlgebra.hpp">
<polygon fill="white" stroke="black" points="1343.5,-235.5 1343.5,-254.5 1499.5,-254.5 1499.5,-235.5 1343.5,-235.5"/>
<text text-anchor="middle" x="1421.5" y="-242.5" font-family="Helvetica,sans-Serif" font-size="10.00">Core/Math/LinearAlgebra.hpp</text>
</a>
</g>
</g>
<!-- Node2&#45;&gt;Node31 -->
<g id="edge50" class="edge"><title>Node2&#45;&gt;Node31</title>
<path fill="none" stroke="midnightblue" d="M1421.5,-481.316C1421.5,-446.185 1421.5,-314.119 1421.5,-264.763"/>
<polygon fill="midnightblue" stroke="midnightblue" points="1425,-264.58 1421.5,-254.58 1418,-264.58 1425,-264.58"/>
</g>
<!-- Node39 -->
<g id="node39" class="node"><title>Node39</title>
<polygon fill="white" stroke="#bfbfbf" points="1450,-414.5 1450,-444.5 1597,-444.5 1597,-414.5 1450,-414.5"/>
<text text-anchor="start" x="1458" y="-432.5" font-family="Helvetica,sans-Serif" font-size="10.00">OpenMesh/Tools/Subdivider</text>
<text text-anchor="middle" x="1523.5" y="-421.5" font-family="Helvetica,sans-Serif" font-size="10.00">/Uniform/SubdividerT.hh</text>
</g>
<!-- Node2&#45;&gt;Node39 -->
<g id="edge66" class="edge"><title>Node2&#45;&gt;Node39</title>
<path fill="none" stroke="midnightblue" d="M1436.11,-481.475C1450.32,-473.191 1472.37,-460.325 1490.77,-449.591"/>
<polygon fill="midnightblue" stroke="midnightblue" points="1492.59,-452.585 1499.46,-444.523 1489.06,-446.539 1492.59,-452.585"/>
</g>
<!-- Node4 -->
<g id="node4" class="node"><title>Node4</title>
<g id="a_node4"><a xlink:href="OpenMesh_8h.html" target="_top" xlink:title="Core/Geometry/OpenMesh.h">
<polygon fill="white" stroke="black" points="795,-235.5 795,-254.5 948,-254.5 948,-235.5 795,-235.5"/>
<text text-anchor="middle" x="871.5" y="-242.5" font-family="Helvetica,sans-Serif" font-size="10.00">Core/Geometry/OpenMesh.h</text>
</a>
</g>
</g>
<!-- Node3&#45;&gt;Node4 -->
<g id="edge3" class="edge"><title>Node3&#45;&gt;Node4</title>
<path fill="none" stroke="midnightblue" d="M853.888,-414.188C846.359,-404.656 837.505,-391.451 833.5,-378 821.304,-337.04 844.806,-288.74 860.002,-263.449"/>
<polygon fill="midnightblue" stroke="midnightblue" points="863.163,-264.996 865.512,-254.665 857.233,-261.276 863.163,-264.996"/>
</g>
<!-- Node5 -->
<g id="node5" class="node"><title>Node5</title>
<g id="a_node5"><a xlink:href="RaCore_8hpp.html" target="_top" xlink:title="Core/RaCore.hpp">
<polygon fill="white" stroke="black" points="361.5,-112.5 361.5,-131.5 459.5,-131.5 459.5,-112.5 361.5,-112.5"/>
<text text-anchor="middle" x="410.5" y="-119.5" font-family="Helvetica,sans-Serif" font-size="10.00">Core/RaCore.hpp</text>
</a>
</g>
</g>
<!-- Node3&#45;&gt;Node5 -->
<g id="edge40" class="edge"><title>Node3&#45;&gt;Node5</title>
<path fill="none" stroke="midnightblue" d="M793.544,-427.628C673.174,-423.445 428.224,-403.192 246.5,-311 206.486,-290.7 183.672,-294.56 162.5,-255 158.306,-247.163 157.679,-242.468 162.5,-235 186.58,-197.703 308.973,-154.803 372.345,-134.63"/>
<polygon fill="midnightblue" stroke="midnightblue" points="373.499,-137.935 381.985,-131.591 371.395,-131.259 373.499,-137.935"/>
</g>
<!-- Node12 -->
<g id="node12" class="node"><title>Node12</title>
<polygon fill="white" stroke="#bfbfbf" points="1068.5,-112.5 1068.5,-131.5 1136.5,-131.5 1136.5,-112.5 1068.5,-112.5"/>
<text text-anchor="middle" x="1102.5" y="-119.5" font-family="Helvetica,sans-Serif" font-size="10.00">Eigen/Core</text>
</g>
<!-- Node3&#45;&gt;Node12 -->
<g id="edge46" class="edge"><title>Node3&#45;&gt;Node12</title>
<path fill="none" stroke="midnightblue" d="M870.27,-414.366C875.524,-396.858 886.485,-366.912 904.5,-347 990.87,-251.532 1089.84,-310.897 1153.5,-199 1160.31,-187.025 1159.17,-180.558 1153.5,-168 1147.88,-155.555 1136.94,-145.172 1126.62,-137.527"/>
<polygon fill="midnightblue" stroke="midnightblue" points="1128.46,-134.543 1118.23,-131.764 1124.49,-140.312 1128.46,-134.543"/>
</g>
<!-- Node13 -->
<g id="node13" class="node"><title>Node13</title>
<polygon fill="white" stroke="#bfbfbf" points="1170.5,-112.5 1170.5,-131.5 1264.5,-131.5 1264.5,-112.5 1170.5,-112.5"/>
<text text-anchor="middle" x="1217.5" y="-119.5" font-family="Helvetica,sans-Serif" font-size="10.00">Eigen/Geometry</text>
</g>
<!-- Node3&#45;&gt;Node13 -->
<g id="edge47" class="edge"><title>Node3&#45;&gt;Node13</title>
<path fill="none" stroke="midnightblue" d="M939.068,-426.412C1070.39,-421.88 1336.53,-408.948 1364.5,-378 1400.86,-337.771 1275.91,-188.997 1232.12,-139.291"/>
<polygon fill="midnightblue" stroke="midnightblue" points="1234.63,-136.854 1225.38,-131.699 1229.4,-141.501 1234.63,-136.854"/>
</g>
<!-- Node14 -->
<g id="node14" class="node"><title>Node14</title>
<g id="a_node14"><a xlink:href="Types_8hpp.html" target="_top" xlink:title="Core/Math/Types.hpp">
<polygon fill="white" stroke="black" points="1028.5,-174 1028.5,-193 1144.5,-193 1144.5,-174 1028.5,-174"/>
<text text-anchor="middle" x="1086.5" y="-181" font-family="Helvetica,sans-Serif" font-size="10.00">Core/Math/Types.hpp</text>
</a>
</g>
</g>
<!-- Node3&#45;&gt;Node14 -->
<g id="edge39" class="edge"><title>Node3&#45;&gt;Node14</title>
<path fill="none" stroke="midnightblue" d="M863.956,-414.276C861.64,-397.208 860.107,-368.236 871.5,-347 874.369,-341.653 1013.83,-238.218 1066.58,-199.214"/>
<polygon fill="midnightblue" stroke="midnightblue" points="1068.86,-201.882 1074.82,-193.123 1064.7,-196.253 1068.86,-201.882"/>
</g>
<!-- Node16 -->
<g id="node16" class="node"><title>Node16</title>
<polygon fill="white" stroke="#bfbfbf" points="622.5,-168.5 622.5,-198.5 744.5,-198.5 744.5,-168.5 622.5,-168.5"/>
<text text-anchor="start" x="630.5" y="-186.5" font-family="Helvetica,sans-Serif" font-size="10.00">OpenMesh/Core/Mesh</text>
<text text-anchor="middle" x="683.5" y="-175.5" font-family="Helvetica,sans-Serif" font-size="10.00">/Traits.hh</text>
</g>
<!-- Node3&#45;&gt;Node16 -->
<g id="edge43" class="edge"><title>Node3&#45;&gt;Node16</title>
<path fill="none" stroke="midnightblue" d="M847.156,-414.308C834.973,-404.823 819.364,-391.626 807.5,-378 758.916,-322.201 715.656,-245.714 695.498,-207.785"/>
<polygon fill="midnightblue" stroke="midnightblue" points="698.411,-205.806 690.66,-198.583 692.215,-209.063 698.411,-205.806"/>
</g>
<!-- Node17 -->
<g id="node17" class="node"><title>Node17</title>
<polygon fill="white" stroke="#bfbfbf" points="762.5,-168.5 762.5,-198.5 896.5,-198.5 896.5,-168.5 762.5,-168.5"/>
<text text-anchor="start" x="770.5" y="-186.5" font-family="Helvetica,sans-Serif" font-size="10.00">OpenMesh/Core/Mesh</text>
<text text-anchor="middle" x="829.5" y="-175.5" font-family="Helvetica,sans-Serif" font-size="10.00">/TriMesh_ArrayKernelT.hh</text>
</g>
<!-- Node3&#45;&gt;Node17 -->
<g id="edge44" class="edge"><title>Node3&#45;&gt;Node17</title>
<path fill="none" stroke="midnightblue" d="M853.143,-414.433C844.573,-404.795 833.737,-391.379 826.5,-378 799.085,-327.315 794.73,-311.88 785.5,-255 784.076,-246.226 782.382,-243.324 785.5,-235 789.518,-224.272 796.96,-214.322 804.595,-206.14"/>
<polygon fill="midnightblue" stroke="midnightblue" points="807.27,-208.415 811.869,-198.87 802.322,-203.464 807.27,-208.415"/>
</g>
<!-- Node18 -->
<g id="node18" class="node"><title>Node18</title>
<g id="a_node18"><a xlink:href="TriangleMesh_8hpp.html" target="_top" xlink:title="Core/Geometry/TriangleMesh.hpp">
<polygon fill="white" stroke="black" points="438.5,-353 438.5,-372 614.5,-372 614.5,-353 438.5,-353"/>
<text text-anchor="middle" x="526.5" y="-360" font-family="Helvetica,sans-Serif" font-size="10.00">Core/Geometry/TriangleMesh.hpp</text>
</a>
</g>
</g>
<!-- Node3&#45;&gt;Node18 -->
<g id="edge20" class="edge"><title>Node3&#45;&gt;Node18</title>
<path fill="none" stroke="midnightblue" d="M793.979,-414.636C730.321,-402.466 639.121,-385.03 581.366,-373.989"/>
<polygon fill="midnightblue" stroke="midnightblue" points="581.818,-370.512 571.338,-372.072 580.503,-377.388 581.818,-370.512"/>
</g>
<!-- Node24 -->
<g id="node24" class="node"><title>Node24</title>
<g id="a_node24"><a xlink:href="Index_8hpp.html" target="_top" xlink:title="Core/Utils/Index.hpp">
<polygon fill="white" stroke="black" points="467,-235.5 467,-254.5 580,-254.5 580,-235.5 467,-235.5"/>
<text text-anchor="middle" x="523.5" y="-242.5" font-family="Helvetica,sans-Serif" font-size="10.00">Core/Utils/Index.hpp</text>
</a>
</g>
</g>
<!-- Node3&#45;&gt;Node24 -->
<g id="edge41" class="edge"><title>Node3&#45;&gt;Node24</title>
<path fill="none" stroke="midnightblue" d="M805.168,-414.473C776.421,-406.341 742.433,-394.408 714.5,-378 665.135,-349.002 667.076,-322.848 619.5,-291 599.701,-277.746 575.381,-266.391 556.174,-258.403"/>
<polygon fill="midnightblue" stroke="midnightblue" points="557.229,-255.054 546.647,-254.54 554.599,-261.541 557.229,-255.054"/>
</g>
<!-- Node28 -->
<g id="node28" class="node"><title>Node28</title>
<polygon fill="white" stroke="#bfbfbf" points="914,-347.5 914,-377.5 1057,-377.5 1057,-347.5 914,-347.5"/>
<text text-anchor="start" x="922" y="-365.5" font-family="Helvetica,sans-Serif" font-size="10.00">OpenMesh/Core/Mesh</text>
<text text-anchor="middle" x="985.5" y="-354.5" font-family="Helvetica,sans-Serif" font-size="10.00">/PolyMesh_ArrayKernelT.hh</text>
</g>
<!-- Node3&#45;&gt;Node28 -->
<g id="edge42" class="edge"><title>Node3&#45;&gt;Node28</title>
<path fill="none" stroke="midnightblue" d="M892.321,-414.396C909.475,-405.026 932.196,-392.615 950.908,-382.395"/>
<polygon fill="midnightblue" stroke="midnightblue" points="952.631,-385.442 959.729,-377.577 949.275,-379.299 952.631,-385.442"/>
</g>
<!-- Node29 -->
<g id="node29" class="node"><title>Node29</title>
<polygon fill="white" stroke="#bfbfbf" points="1075,-347.5 1075,-377.5 1192,-377.5 1192,-347.5 1075,-347.5"/>
<text text-anchor="start" x="1083" y="-365.5" font-family="Helvetica,sans-Serif" font-size="10.00">OpenMesh/Core/Utils</text>
<text text-anchor="middle" x="1133.5" y="-354.5" font-family="Helvetica,sans-Serif" font-size="10.00">/Property.hh</text>
</g>
<!-- Node3&#45;&gt;Node29 -->
<g id="edge45" class="edge"><title>Node3&#45;&gt;Node29</title>
<path fill="none" stroke="midnightblue" d="M924.106,-414.476C965.636,-404.366 1021.84,-390.684 1065.56,-380.04"/>
<polygon fill="midnightblue" stroke="midnightblue" points="1066.65,-383.377 1075.54,-377.611 1064.99,-376.576 1066.65,-383.377"/>
</g>
<!-- Node30 -->
<g id="node30" class="node"><title>Node30</title>
<g id="a_node30"><a xlink:href="TopologicalMesh_8inl.html" target="_top" xlink:title="Core/Geometry/Topological\lMesh.inl">
<polygon fill="white" stroke="black" points="1210,-347.5 1210,-377.5 1355,-377.5 1355,-347.5 1210,-347.5"/>
<text text-anchor="start" x="1218" y="-365.5" font-family="Helvetica,sans-Serif" font-size="10.00">Core/Geometry/Topological</text>
<text text-anchor="middle" x="1282.5" y="-354.5" font-family="Helvetica,sans-Serif" font-size="10.00">Mesh.inl</text>
</a>
</g>
</g>
<!-- Node3&#45;&gt;Node30 -->
<g id="edge48" class="edge"><title>Node3&#45;&gt;Node30</title>
<path fill="none" stroke="midnightblue" d="M939.031,-417.018C1004.94,-407.127 1104.69,-392.235 1191.5,-378 1194.31,-377.539 1197.17,-377.064 1200.06,-376.579"/>
<polygon fill="midnightblue" stroke="midnightblue" points="1200.72,-380.017 1210,-374.897 1199.55,-373.115 1200.72,-380.017"/>
</g>
<!-- Node4&#45;&gt;Node5 -->
<g id="edge4" class="edge"><title>Node4&#45;&gt;Node5</title>
<path fill="none" stroke="midnightblue" d="M880.807,-235.494C896.321,-220.321 924.02,-188.28 905.5,-168 876.635,-136.391 595.141,-126.747 469.977,-124.008"/>
<polygon fill="midnightblue" stroke="midnightblue" points="469.872,-120.505 459.8,-123.793 469.724,-127.504 469.872,-120.505"/>
</g>
<!-- Node4&#45;&gt;Node12 -->
<g id="edge11" class="edge"><title>Node4&#45;&gt;Node12</title>
<path fill="none" stroke="midnightblue" d="M884.404,-235.366C913.311,-216.038 981.158,-170.761 986.5,-168 1012.19,-154.723 1042.73,-143.026 1066.03,-134.887"/>
<polygon fill="midnightblue" stroke="midnightblue" points="1067.21,-138.181 1075.53,-131.623 1064.94,-131.561 1067.21,-138.181"/>
</g>
<!-- Node4&#45;&gt;Node13 -->
<g id="edge12" class="edge"><title>Node4&#45;&gt;Node13</title>
<path fill="none" stroke="midnightblue" d="M896.269,-235.372C918.261,-227.275 950.934,-214.163 977.5,-199 997.649,-187.499 998.408,-177.664 1019.5,-168 1064.41,-147.423 1119.47,-135.89 1160.13,-129.665"/>
<polygon fill="midnightblue" stroke="midnightblue" points="1160.75,-133.111 1170.14,-128.195 1159.73,-126.186 1160.75,-133.111"/>
</g>
<!-- Node4&#45;&gt;Node14 -->
<g id="edge13" class="edge"><title>Node4&#45;&gt;Node14</title>
<path fill="none" stroke="midnightblue" d="M902.304,-235.475C940.062,-225.026 1004.16,-207.287 1045.91,-195.733"/>
<polygon fill="midnightblue" stroke="midnightblue" points="1047.05,-199.05 1055.75,-193.009 1045.18,-192.303 1047.05,-199.05"/>
</g>
<!-- Node4&#45;&gt;Node16 -->
<g id="edge18" class="edge"><title>Node4&#45;&gt;Node16</title>
<path fill="none" stroke="midnightblue" d="M844.564,-235.475C816.723,-226.664 772.503,-212.668 737.435,-201.57"/>
<polygon fill="midnightblue" stroke="midnightblue" points="738.398,-198.204 727.808,-198.523 736.286,-204.877 738.398,-198.204"/>
</g>
<!-- Node4&#45;&gt;Node17 -->
<g id="edge19" class="edge"><title>Node4&#45;&gt;Node17</title>
<path fill="none" stroke="midnightblue" d="M865.482,-235.475C860.219,-228.019 852.337,-216.852 845.29,-206.869"/>
<polygon fill="midnightblue" stroke="midnightblue" points="848.025,-204.674 839.399,-198.523 842.306,-208.711 848.025,-204.674"/>
</g>
<!-- Node6 -->
<g id="node6" class="node"><title>Node6</title>
<g id="a_node6"><a xlink:href="CoreMacros_8hpp.html" target="_top" xlink:title="Core/CoreMacros.hpp">
<polygon fill="white" stroke="black" points="350.5,-56.5 350.5,-75.5 470.5,-75.5 470.5,-56.5 350.5,-56.5"/>
<text text-anchor="middle" x="410.5" y="-63.5" font-family="Helvetica,sans-Serif" font-size="10.00">Core/CoreMacros.hpp</text>
</a>
</g>
</g>
<!-- Node5&#45;&gt;Node6 -->
<g id="edge5" class="edge"><title>Node5&#45;&gt;Node6</title>
<path fill="none" stroke="midnightblue" d="M410.5,-112.083C410.5,-105.006 410.5,-94.8611 410.5,-85.9865"/>
<polygon fill="midnightblue" stroke="midnightblue" points="414,-85.751 410.5,-75.7511 407,-85.7511 414,-85.751"/>
</g>
<!-- Node7 -->
<g id="node7" class="node"><title>Node7</title>
<polygon fill="white" stroke="#bfbfbf" points="247.5,-0.5 247.5,-19.5 299.5,-19.5 299.5,-0.5 247.5,-0.5"/>
<text text-anchor="middle" x="273.5" y="-7.5" font-family="Helvetica,sans-Serif" font-size="10.00">cassert</text>
</g>
<!-- Node6&#45;&gt;Node7 -->
<g id="edge6" class="edge"><title>Node6&#45;&gt;Node7</title>
<path fill="none" stroke="midnightblue" d="M388.792,-56.4435C366.145,-47.5171 330.428,-33.4387 304.748,-23.3168"/>
<polygon fill="midnightblue" stroke="midnightblue" points="305.693,-19.9273 295.106,-19.5164 303.126,-26.4397 305.693,-19.9273"/>
</g>
<!-- Node8 -->
<g id="node8" class="node"><title>Node8</title>
<polygon fill="white" stroke="#bfbfbf" points="318,-0.5 318,-19.5 363,-19.5 363,-0.5 318,-0.5"/>
<text text-anchor="middle" x="340.5" y="-7.5" font-family="Helvetica,sans-Serif" font-size="10.00">cstdio</text>
</g>
<!-- Node6&#45;&gt;Node8 -->
<g id="edge7" class="edge"><title>Node6&#45;&gt;Node8</title>
<path fill="none" stroke="midnightblue" d="M399.253,-56.324C388.703,-48.1849 372.699,-35.8395 360.058,-26.0874"/>
<polygon fill="midnightblue" stroke="midnightblue" points="362.007,-23.1707 351.951,-19.8339 357.731,-28.7132 362.007,-23.1707"/>
</g>
<!-- Node9 -->
<g id="node9" class="node"><title>Node9</title>
<polygon fill="white" stroke="#bfbfbf" points="381,-0.5 381,-19.5 440,-19.5 440,-0.5 381,-0.5"/>
<text text-anchor="middle" x="410.5" y="-7.5" font-family="Helvetica,sans-Serif" font-size="10.00">iostream</text>
</g>
<!-- Node6&#45;&gt;Node9 -->
<g id="edge8" class="edge"><title>Node6&#45;&gt;Node9</title>
<path fill="none" stroke="midnightblue" d="M410.5,-56.083C410.5,-49.0059 410.5,-38.8611 410.5,-29.9865"/>
<polygon fill="midnightblue" stroke="midnightblue" points="414,-29.751 410.5,-19.7511 407,-29.7511 414,-29.751"/>
</g>
<!-- Node10 -->
<g id="node10" class="node"><title>Node10</title>
<polygon fill="white" stroke="#bfbfbf" points="458.5,-0.5 458.5,-19.5 514.5,-19.5 514.5,-0.5 458.5,-0.5"/>
<text text-anchor="middle" x="486.5" y="-7.5" font-family="Helvetica,sans-Serif" font-size="10.00">sstream</text>
</g>
<!-- Node6&#45;&gt;Node10 -->
<g id="edge9" class="edge"><title>Node6&#45;&gt;Node10</title>
<path fill="none" stroke="midnightblue" d="M422.711,-56.324C434.276,-48.1066 451.875,-35.6017 465.661,-25.8069"/>
<polygon fill="midnightblue" stroke="midnightblue" points="467.943,-28.4791 474.067,-19.8339 463.888,-22.7729 467.943,-28.4791"/>
</g>
<!-- Node11 -->
<g id="node11" class="node"><title>Node11</title>
<polygon fill="white" stroke="#bfbfbf" points="532.5,-0.5 532.5,-19.5 580.5,-19.5 580.5,-0.5 532.5,-0.5"/>
<text text-anchor="middle" x="556.5" y="-7.5" font-family="Helvetica,sans-Serif" font-size="10.00">thread</text>
</g>
<!-- Node6&#45;&gt;Node11 -->
<g id="edge10" class="edge"><title>Node6&#45;&gt;Node11</title>
<path fill="none" stroke="midnightblue" d="M433.634,-56.4435C457.982,-47.4381 496.507,-33.1891 523.923,-23.049"/>
<polygon fill="midnightblue" stroke="midnightblue" points="525.309,-26.2681 533.474,-19.5164 522.881,-19.7028 525.309,-26.2681"/>
</g>
<!-- Node14&#45;&gt;Node5 -->
<g id="edge14" class="edge"><title>Node14&#45;&gt;Node5</title>
<path fill="none" stroke="midnightblue" d="M1028.17,-176.614C1000.94,-173.909 968.066,-170.708 938.5,-168 768.389,-152.418 567.278,-135.767 469.626,-127.794"/>
<polygon fill="midnightblue" stroke="midnightblue" points="469.905,-124.305 459.654,-126.981 469.336,-131.282 469.905,-124.305"/>
</g>
<!-- Node14&#45;&gt;Node12 -->
<g id="edge15" class="edge"><title>Node14&#45;&gt;Node12</title>
<path fill="none" stroke="midnightblue" d="M1088.79,-173.975C1091.07,-165.492 1094.65,-152.204 1097.57,-141.322"/>
<polygon fill="midnightblue" stroke="midnightblue" points="1100.99,-142.075 1100.21,-131.509 1094.24,-140.257 1100.99,-142.075"/>
</g>
<!-- Node14&#45;&gt;Node13 -->
<g id="edge16" class="edge"><title>Node14&#45;&gt;Node13</title>
<path fill="none" stroke="midnightblue" d="M1105.27,-173.975C1127.35,-163.945 1164.22,-147.2 1189.64,-135.655"/>
<polygon fill="midnightblue" stroke="midnightblue" points="1191.11,-138.831 1198.77,-131.509 1188.21,-132.458 1191.11,-138.831"/>
</g>
<!-- Node15 -->
<g id="node15" class="node"><title>Node15</title>
<polygon fill="white" stroke="#bfbfbf" points="1302.5,-112.5 1302.5,-131.5 1382.5,-131.5 1382.5,-112.5 1302.5,-112.5"/>
<text text-anchor="middle" x="1342.5" y="-119.5" font-family="Helvetica,sans-Serif" font-size="10.00">Eigen/Sparse</text>
</g>
<!-- Node14&#45;&gt;Node15 -->
<g id="edge17" class="edge"><title>Node14&#45;&gt;Node15</title>
<path fill="none" stroke="midnightblue" d="M1123.18,-173.975C1168.71,-163.393 1246.4,-145.336 1296.05,-133.797"/>
<polygon fill="midnightblue" stroke="midnightblue" points="1296.94,-137.182 1305.89,-131.509 1295.36,-130.364 1296.94,-137.182"/>
</g>
<!-- Node18&#45;&gt;Node5 -->
<g id="edge30" class="edge"><title>Node18&#45;&gt;Node5</title>
<path fill="none" stroke="midnightblue" d="M495.434,-352.889C474.428,-345.374 447.971,-332.265 433.5,-311 397.777,-258.506 402.859,-178.238 407.514,-141.963"/>
<polygon fill="midnightblue" stroke="midnightblue" points="411.013,-142.216 408.957,-131.823 404.083,-141.23 411.013,-142.216"/>
</g>
<!-- Node18&#45;&gt;Node14 -->
<g id="edge29" class="edge"><title>Node18&#45;&gt;Node14</title>
<path fill="none" stroke="midnightblue" d="M578.768,-352.988C661.037,-338.614 824.916,-306.014 956.5,-255 977.652,-246.8 1031.55,-216.326 1062.9,-198.237"/>
<polygon fill="midnightblue" stroke="midnightblue" points="1064.95,-201.098 1071.85,-193.06 1061.44,-195.04 1064.95,-201.098"/>
</g>
<!-- Node19 -->
<g id="node19" class="node"><title>Node19</title>
<g id="a_node19"><a xlink:href="VectorArray_8hpp.html" target="_top" xlink:title="Core/Containers/VectorArray.hpp">
<polygon fill="white" stroke="black" points="172,-235.5 172,-254.5 345,-254.5 345,-235.5 172,-235.5"/>
<text text-anchor="middle" x="258.5" y="-242.5" font-family="Helvetica,sans-Serif" font-size="10.00">Core/Containers/VectorArray.hpp</text>
</a>
</g>
</g>
<!-- Node18&#45;&gt;Node19 -->
<g id="edge21" class="edge"><title>Node18&#45;&gt;Node19</title>
<path fill="none" stroke="midnightblue" d="M438.386,-356.831C368.994,-351.092 280.295,-338.472 257.5,-311 246.933,-298.265 248.799,-278.795 252.322,-264.483"/>
<polygon fill="midnightblue" stroke="midnightblue" points="255.723,-265.32 255.16,-254.74 249.003,-263.362 255.723,-265.32"/>
</g>
<!-- Node23 -->
<g id="node23" class="node"><title>Node23</title>
<g id="a_node23"><a xlink:href="Attribs_8hpp.html" target="_top" xlink:title="Core/Utils/Attribs.hpp">
<polygon fill="white" stroke="black" points="267,-291.5 267,-310.5 386,-310.5 386,-291.5 267,-291.5"/>
<text text-anchor="middle" x="326.5" y="-298.5" font-family="Helvetica,sans-Serif" font-size="10.00">Core/Utils/Attribs.hpp</text>
</a>
</g>
</g>
<!-- Node18&#45;&gt;Node23 -->
<g id="edge31" class="edge"><title>Node18&#45;&gt;Node23</title>
<path fill="none" stroke="midnightblue" d="M497.845,-352.975C462.944,-342.592 403.85,-325.012 365,-313.454"/>
<polygon fill="midnightblue" stroke="midnightblue" points="365.685,-310.006 355.102,-310.509 363.689,-316.715 365.685,-310.006"/>
</g>
<!-- Node27 -->
<g id="node27" class="node"><title>Node27</title>
<g id="a_node27"><a xlink:href="TriangleMesh_8inl.html" target="_top" xlink:title="Core/Geometry/TriangleMesh.inl">
<polygon fill="white" stroke="black" points="442.5,-291.5 442.5,-310.5 610.5,-310.5 610.5,-291.5 442.5,-291.5"/>
<text text-anchor="middle" x="526.5" y="-298.5" font-family="Helvetica,sans-Serif" font-size="10.00">Core/Geometry/TriangleMesh.inl</text>
</a>
</g>
</g>
<!-- Node18&#45;&gt;Node27 -->
<g id="edge37" class="edge"><title>Node18&#45;&gt;Node27</title>
<path fill="none" stroke="midnightblue" d="M521.599,-352.975C519.768,-344.58 519.297,-331.481 520.185,-320.663"/>
<polygon fill="midnightblue" stroke="midnightblue" points="523.686,-320.897 521.603,-310.509 516.754,-319.929 523.686,-320.897"/>
</g>
<!-- Node19&#45;&gt;Node5 -->
<g id="edge27" class="edge"><title>Node19&#45;&gt;Node5</title>
<path fill="none" stroke="midnightblue" d="M269.431,-235.298C295.066,-214.891 359.31,-163.75 391.498,-138.127"/>
<polygon fill="midnightblue" stroke="midnightblue" points="394.024,-140.59 399.668,-131.623 389.664,-135.113 394.024,-140.59"/>
</g>
<!-- Node19&#45;&gt;Node14 -->
<g id="edge26" class="edge"><title>Node19&#45;&gt;Node14</title>
<path fill="none" stroke="midnightblue" d="M345.12,-238.266C469.26,-229.981 704.933,-214.008 905.5,-199 942.678,-196.218 984.135,-192.912 1017.98,-190.159"/>
<polygon fill="midnightblue" stroke="midnightblue" points="1018.55,-193.625 1028.23,-189.324 1017.98,-186.648 1018.55,-193.625"/>
</g>
<!-- Node20 -->
<g id="node20" class="node"><title>Node20</title>
<g id="a_node20"><a xlink:href="AlignedStdVector_8hpp.html" target="_top" xlink:title="Core/Containers/AlignedStd\lVector.hpp">
<polygon fill="white" stroke="black" points="44,-168.5 44,-198.5 193,-198.5 193,-168.5 44,-168.5"/>
<text text-anchor="start" x="52" y="-186.5" font-family="Helvetica,sans-Serif" font-size="10.00">Core/Containers/AlignedStd</text>
<text text-anchor="middle" x="118.5" y="-175.5" font-family="Helvetica,sans-Serif" font-size="10.00">Vector.hpp</text>
</a>
</g>
</g>
<!-- Node19&#45;&gt;Node20 -->
<g id="edge22" class="edge"><title>Node19&#45;&gt;Node20</title>
<path fill="none" stroke="midnightblue" d="M238.441,-235.475C218.329,-226.927 186.738,-213.501 161.026,-202.573"/>
<polygon fill="midnightblue" stroke="midnightblue" points="162.068,-199.213 151.495,-198.523 159.33,-205.656 162.068,-199.213"/>
</g>
<!-- Node22 -->
<g id="node22" class="node"><title>Node22</title>
<polygon fill="white" stroke="#bfbfbf" points="0,-112.5 0,-131.5 47,-131.5 47,-112.5 0,-112.5"/>
<text text-anchor="middle" x="23.5" y="-119.5" font-family="Helvetica,sans-Serif" font-size="10.00">vector</text>
</g>
<!-- Node19&#45;&gt;Node22 -->
<g id="edge28" class="edge"><title>Node19&#45;&gt;Node22</title>
<path fill="none" stroke="midnightblue" d="M171.89,-236.833C117.171,-230.439 53.3526,-218.909 34.5,-199 20.1377,-183.833 19.2353,-158.763 20.697,-141.593"/>
<polygon fill="midnightblue" stroke="midnightblue" points="24.1758,-141.978 21.8811,-131.635 17.2248,-141.151 24.1758,-141.978"/>
</g>
<!-- Node20&#45;&gt;Node5 -->
<g id="edge23" class="edge"><title>Node20&#45;&gt;Node5</title>
<path fill="none" stroke="midnightblue" d="M187.33,-168.475C239.906,-157.761 311.218,-143.23 358.944,-133.506"/>
<polygon fill="midnightblue" stroke="midnightblue" points="359.655,-136.933 368.754,-131.506 358.257,-130.074 359.655,-136.933"/>
</g>
<!-- Node21 -->
<g id="node21" class="node"><title>Node21</title>
<polygon fill="white" stroke="#bfbfbf" points="72,-112.5 72,-131.5 165,-131.5 165,-112.5 72,-112.5"/>
<text text-anchor="middle" x="118.5" y="-119.5" font-family="Helvetica,sans-Serif" font-size="10.00">Eigen/StdVector</text>
</g>
<!-- Node20&#45;&gt;Node21 -->
<g id="edge24" class="edge"><title>Node20&#45;&gt;Node21</title>
<path fill="none" stroke="midnightblue" d="M118.5,-168.399C118.5,-160.466 118.5,-150.458 118.5,-141.858"/>
<polygon fill="midnightblue" stroke="midnightblue" points="122,-141.658 118.5,-131.658 115,-141.658 122,-141.658"/>
</g>
<!-- Node20&#45;&gt;Node22 -->
<g id="edge25" class="edge"><title>Node20&#45;&gt;Node22</title>
<path fill="none" stroke="midnightblue" d="M95.9863,-168.399C80.9009,-158.951 61.115,-146.559 46.0268,-137.109"/>
<polygon fill="midnightblue" stroke="midnightblue" points="47.6561,-134 37.3233,-131.658 43.9405,-139.932 47.6561,-134"/>
</g>
<!-- Node23&#45;&gt;Node5 -->
<g id="edge33" class="edge"><title>Node23&#45;&gt;Node5</title>
<path fill="none" stroke="midnightblue" d="M332.236,-291.233C337.963,-282.306 346.846,-267.97 353.5,-255 373.839,-215.356 393.527,-166.821 403.583,-141.068"/>
<polygon fill="midnightblue" stroke="midnightblue" points="406.934,-142.107 407.277,-131.518 400.405,-139.582 406.934,-142.107"/>
</g>
<!-- Node23&#45;&gt;Node19 -->
<g id="edge32" class="edge"><title>Node23&#45;&gt;Node19</title>
<path fill="none" stroke="midnightblue" d="M315.575,-291.324C305.325,-283.185 289.779,-270.839 277.499,-261.087"/>
<polygon fill="midnightblue" stroke="midnightblue" points="279.632,-258.312 269.624,-254.834 275.279,-263.794 279.632,-258.312"/>
</g>
<!-- Node23&#45;&gt;Node24 -->
<g id="edge34" class="edge"><title>Node23&#45;&gt;Node24</title>
<path fill="none" stroke="midnightblue" d="M357.715,-291.444C391.433,-282.201 445.3,-267.436 482.432,-257.257"/>
<polygon fill="midnightblue" stroke="midnightblue" points="483.712,-260.536 492.431,-254.516 481.861,-253.785 483.712,-260.536"/>
</g>
<!-- Node25 -->
<g id="node25" class="node"><title>Node25</title>
<polygon fill="white" stroke="#bfbfbf" points="438.5,-174 438.5,-193 480.5,-193 480.5,-174 438.5,-174"/>
<text text-anchor="middle" x="459.5" y="-181" font-family="Helvetica,sans-Serif" font-size="10.00">limits</text>
</g>
<!-- Node24&#45;&gt;Node25 -->
<g id="edge35" class="edge"><title>Node24&#45;&gt;Node25</title>
<path fill="none" stroke="midnightblue" d="M514.33,-235.475C504.35,-226.197 488.188,-211.171 475.991,-199.831"/>
<polygon fill="midnightblue" stroke="midnightblue" points="478.36,-197.255 468.653,-193.009 473.593,-202.381 478.36,-197.255"/>
</g>
<!-- Node26 -->
<g id="node26" class="node"><title>Node26</title>
<g id="a_node26"><a xlink:href="Index_8inl.html" target="_top" xlink:title="Core/Utils/Index.inl">
<polygon fill="white" stroke="black" points="499,-174 499,-193 604,-193 604,-174 499,-174"/>
<text text-anchor="middle" x="551.5" y="-181" font-family="Helvetica,sans-Serif" font-size="10.00">Core/Utils/Index.inl</text>
</a>
</g>
</g>
<!-- Node24&#45;&gt;Node26 -->
<g id="edge36" class="edge"><title>Node24&#45;&gt;Node26</title>
<path fill="none" stroke="midnightblue" d="M527.512,-235.475C531.587,-226.815 538.018,-213.149 543.196,-202.145"/>
<polygon fill="midnightblue" stroke="midnightblue" points="546.405,-203.548 547.496,-193.009 540.071,-200.567 546.405,-203.548"/>
</g>
<!-- Node27&#45;&gt;Node18 -->
<g id="edge38" class="edge"><title>Node27&#45;&gt;Node18</title>
<path fill="none" stroke="midnightblue" d="M531.397,-310.509C533.23,-318.898 533.703,-331.996 532.817,-342.817"/>
<polygon fill="midnightblue" stroke="midnightblue" points="529.315,-342.588 531.401,-352.975 536.248,-343.554 529.315,-342.588"/>
</g>
<!-- Node30&#45;&gt;Node3 -->
<g id="edge49" class="edge"><title>Node30&#45;&gt;Node3</title>
<path fill="none" stroke="midnightblue" d="M1212.51,-377.503C1211.5,-377.671 1210.5,-377.836 1209.5,-378 1120.97,-392.518 1018.98,-407.718 949.306,-417.6"/>
<polygon fill="midnightblue" stroke="midnightblue" points="948.679,-414.154 939.267,-419.019 949.658,-421.085 948.679,-414.154"/>
</g>
<!-- Node31&#45;&gt;Node5 -->
<g id="edge51" class="edge"><title>Node31&#45;&gt;Node5</title>
<path fill="none" stroke="midnightblue" d="M1369.45,-235.498C1328.37,-228.04 1269.95,-215.76 1220.5,-199 1189.43,-188.467 1185.32,-176.02 1153.5,-168 1024.42,-135.463 621.91,-126.151 469.651,-123.755"/>
<polygon fill="midnightblue" stroke="midnightblue" points="469.611,-120.255 459.558,-123.601 469.504,-127.254 469.611,-120.255"/>
</g>
<!-- Node31&#45;&gt;Node12 -->
<g id="edge52" class="edge"><title>Node31&#45;&gt;Node12</title>
<path fill="none" stroke="midnightblue" d="M1397.77,-235.422C1373.31,-226.525 1334.12,-212.105 1300.5,-199 1266.51,-185.752 1258.51,-181.203 1224.5,-168 1194.72,-156.438 1160.59,-143.909 1136.01,-135.014"/>
<polygon fill="midnightblue" stroke="midnightblue" points="1137.03,-131.661 1126.43,-131.557 1134.65,-138.245 1137.03,-131.661"/>
</g>
<!-- Node31&#45;&gt;Node13 -->
<g id="edge53" class="edge"><title>Node31&#45;&gt;Node13</title>
<path fill="none" stroke="midnightblue" d="M1408.24,-235.282C1386.16,-220.85 1340.34,-191.279 1300.5,-168 1281.57,-156.939 1259.77,-145.153 1243.26,-136.418"/>
<polygon fill="midnightblue" stroke="midnightblue" points="1244.69,-133.217 1234.21,-131.656 1241.43,-139.411 1244.69,-133.217"/>
</g>
<!-- Node31&#45;&gt;Node14 -->
<g id="edge63" class="edge"><title>Node31&#45;&gt;Node14</title>
<path fill="none" stroke="midnightblue" d="M1369.02,-235.486C1315.88,-226.754 1231.36,-212.568 1158.5,-199 1151.85,-197.761 1144.86,-196.413 1137.96,-195.053"/>
<polygon fill="midnightblue" stroke="midnightblue" points="1138.45,-191.583 1127.96,-193.065 1137.09,-198.449 1138.45,-191.583"/>
</g>
<!-- Node31&#45;&gt;Node15 -->
<g id="edge54" class="edge"><title>Node31&#45;&gt;Node15</title>
<path fill="none" stroke="midnightblue" d="M1412.78,-235.195C1404.41,-226.468 1391.71,-212.488 1382.5,-199 1369.67,-180.214 1357.92,-156.824 1350.53,-140.992"/>
<polygon fill="midnightblue" stroke="midnightblue" points="1353.67,-139.443 1346.33,-131.803 1347.3,-142.353 1353.67,-139.443"/>
</g>
<!-- Node32 -->
<g id="node32" class="node"><title>Node32</title>
<polygon fill="white" stroke="#bfbfbf" points="1391,-174 1391,-193 1454,-193 1454,-174 1391,-174"/>
<text text-anchor="middle" x="1422.5" y="-181" font-family="Helvetica,sans-Serif" font-size="10.00">functional</text>
</g>
<!-- Node31&#45;&gt;Node32 -->
<g id="edge55" class="edge"><title>Node31&#45;&gt;Node32</title>
<path fill="none" stroke="midnightblue" d="M1421.64,-235.475C1421.78,-227.08 1422,-213.981 1422.19,-203.163"/>
<polygon fill="midnightblue" stroke="midnightblue" points="1425.69,-203.067 1422.36,-193.009 1418.69,-202.949 1425.69,-203.067"/>
</g>
<!-- Node33 -->
<g id="node33" class="node"><title>Node33</title>
<polygon fill="white" stroke="#bfbfbf" points="1472,-168.5 1472,-198.5 1617,-198.5 1617,-168.5 1472,-168.5"/>
<text text-anchor="start" x="1480" y="-186.5" font-family="Helvetica,sans-Serif" font-size="10.00">unsupported/Eigen/Aligned</text>
<text text-anchor="middle" x="1544.5" y="-175.5" font-family="Helvetica,sans-Serif" font-size="10.00">Vector3</text>
</g>
<!-- Node31&#45;&gt;Node33 -->
<g id="edge56" class="edge"><title>Node31&#45;&gt;Node33</title>
<path fill="none" stroke="midnightblue" d="M1439.12,-235.475C1456.56,-227.04 1483.82,-213.855 1506.24,-203.008"/>
<polygon fill="midnightblue" stroke="midnightblue" points="1508.03,-206.028 1515.51,-198.523 1504.99,-199.727 1508.03,-206.028"/>
</g>
<!-- Node34 -->
<g id="node34" class="node"><title>Node34</title>
<g id="a_node34"><a xlink:href="Math_8hpp.html" target="_top" xlink:title="Core/Math/Math.hpp">
<polygon fill="white" stroke="black" points="1635.5,-174 1635.5,-193 1749.5,-193 1749.5,-174 1635.5,-174"/>
<text text-anchor="middle" x="1692.5" y="-181" font-family="Helvetica,sans-Serif" font-size="10.00">Core/Math/Math.hpp</text>
</a>
</g>
</g>
<!-- Node31&#45;&gt;Node34 -->
<g id="edge57" class="edge"><title>Node31&#45;&gt;Node34</title>
<path fill="none" stroke="midnightblue" d="M1460.42,-235.459C1501.65,-226.409 1568.67,-211.7 1626.5,-199 1632.15,-197.759 1638.08,-196.457 1643.96,-195.165"/>
<polygon fill="midnightblue" stroke="midnightblue" points="1644.75,-198.576 1653.76,-193.012 1643.24,-191.739 1644.75,-198.576"/>
</g>
<!-- Node38 -->
<g id="node38" class="node"><title>Node38</title>
<g id="a_node38"><a xlink:href="LinearAlgebra_8inl.html" target="_top" xlink:title="Core/Math/LinearAlgebra.inl">
<polygon fill="white" stroke="black" points="1768,-174 1768,-193 1917,-193 1917,-174 1768,-174"/>
<text text-anchor="middle" x="1842.5" y="-181" font-family="Helvetica,sans-Serif" font-size="10.00">Core/Math/LinearAlgebra.inl</text>
</a>
</g>
</g>
<!-- Node31&#45;&gt;Node38 -->
<g id="edge64" class="edge"><title>Node31&#45;&gt;Node38</title>
<path fill="none" stroke="midnightblue" d="M1484.43,-235.467C1550.55,-226.942 1657.31,-213.106 1749.5,-199 1758.11,-197.683 1767.2,-196.205 1776.2,-194.71"/>
<polygon fill="midnightblue" stroke="midnightblue" points="1777.02,-198.122 1786.3,-193.022 1775.86,-191.218 1777.02,-198.122"/>
</g>
<!-- Node34&#45;&gt;Node5 -->
<g id="edge58" class="edge"><title>Node34&#45;&gt;Node5</title>
<path fill="none" stroke="midnightblue" d="M1659.13,-173.95C1648.74,-171.619 1637.21,-169.363 1626.5,-168 1398.9,-139.026 682.126,-126.823 470.124,-123.791"/>
<polygon fill="midnightblue" stroke="midnightblue" points="469.872,-120.287 459.824,-123.645 469.773,-127.286 469.872,-120.287"/>
</g>
<!-- Node35 -->
<g id="node35" class="node"><title>Node35</title>
<polygon fill="white" stroke="#bfbfbf" points="1540.5,-112.5 1540.5,-131.5 1602.5,-131.5 1602.5,-112.5 1540.5,-112.5"/>
<text text-anchor="middle" x="1571.5" y="-119.5" font-family="Helvetica,sans-Serif" font-size="10.00">algorithm</text>
</g>
<!-- Node34&#45;&gt;Node35 -->
<g id="edge59" class="edge"><title>Node34&#45;&gt;Node35</title>
<path fill="none" stroke="midnightblue" d="M1675.16,-173.975C1654.95,-164.034 1621.31,-147.495 1597.86,-135.961"/>
<polygon fill="midnightblue" stroke="midnightblue" points="1599.32,-132.781 1588.8,-131.509 1596.23,-139.063 1599.32,-132.781"/>
</g>
<!-- Node36 -->
<g id="node36" class="node"><title>Node36</title>
<polygon fill="white" stroke="#bfbfbf" points="1621,-112.5 1621,-131.5 1668,-131.5 1668,-112.5 1621,-112.5"/>
<text text-anchor="middle" x="1644.5" y="-119.5" font-family="Helvetica,sans-Serif" font-size="10.00">cmath</text>
</g>
<!-- Node34&#45;&gt;Node36 -->
<g id="edge60" class="edge"><title>Node34&#45;&gt;Node36</title>
<path fill="none" stroke="midnightblue" d="M1685.62,-173.975C1678.35,-164.962 1666.7,-150.525 1657.66,-139.312"/>
<polygon fill="midnightblue" stroke="midnightblue" points="1660.37,-137.095 1651.36,-131.509 1654.92,-141.49 1660.37,-137.095"/>
</g>
<!-- Node37 -->
<g id="node37" class="node"><title>Node37</title>
<g id="a_node37"><a xlink:href="Math_8inl.html" target="_top" xlink:title="Core/Math/Math.inl">
<polygon fill="white" stroke="black" points="1686,-112.5 1686,-131.5 1793,-131.5 1793,-112.5 1686,-112.5"/>
<text text-anchor="middle" x="1739.5" y="-119.5" font-family="Helvetica,sans-Serif" font-size="10.00">Core/Math/Math.inl</text>
</a>
</g>
</g>
<!-- Node34&#45;&gt;Node37 -->
<g id="edge61" class="edge"><title>Node34&#45;&gt;Node37</title>
<path fill="none" stroke="midnightblue" d="M1694.33,-173.975C1699.54,-164.873 1710.71,-150.241 1720.81,-138.983"/>
<polygon fill="midnightblue" stroke="midnightblue" points="1723.55,-141.18 1727.88,-131.509 1718.47,-136.37 1723.55,-141.18"/>
</g>
<!-- Node37&#45;&gt;Node34 -->
<g id="edge62" class="edge"><title>Node37&#45;&gt;Node34</title>
<path fill="none" stroke="midnightblue" d="M1737.68,-131.509C1732.48,-140.604 1721.31,-155.236 1711.2,-166.497"/>
<polygon fill="midnightblue" stroke="midnightblue" points="1708.46,-164.304 1704.13,-173.975 1713.55,-169.113 1708.46,-164.304"/>
</g>
<!-- Node38&#45;&gt;Node31 -->
<g id="edge65" class="edge"><title>Node38&#45;&gt;Node31</title>
<path fill="none" stroke="midnightblue" d="M1803.73,-193.022C1792.11,-195.069 1779.35,-197.187 1767.5,-199 1679.63,-212.445 1578.53,-225.644 1508.33,-234.234"/>
<polygon fill="midnightblue" stroke="midnightblue" points="1507.7,-230.784 1498.2,-235.467 1508.55,-237.732 1507.7,-230.784"/>
</g>
</g>
</svg>
