<?xml version="1.0" encoding="UTF-8" standalone="no"?>
<!DOCTYPE svg PUBLIC "-//W3C//DTD SVG 1.1//EN"
 "http://www.w3.org/Graphics/SVG/1.1/DTD/svg11.dtd">
<!-- Generated by graphviz version 2.38.0 (20140413.2041)
 -->
<!-- Title: /home/travis/build/STORM&#45;IRIT/Radium&#45;Engine/Plugins/MeshPaint/src/MeshPaintSystem.hpp Pages: 1 -->
<svg width="1027pt" height="341pt"
 viewBox="0.00 0.00 1026.60 341.00" xmlns="http://www.w3.org/2000/svg" xmlns:xlink="http://www.w3.org/1999/xlink">
<g id="graph0" class="graph" transform="scale(1 1) rotate(0) translate(4 337)">
<title>/home/travis/build/STORM&#45;IRIT/Radium&#45;Engine/Plugins/MeshPaint/src/MeshPaintSystem.hpp</title>
<polygon fill="white" stroke="none" points="-4,4 -4,-337 1022.6,-337 1022.6,4 -4,4"/>
<!-- Node1 -->
<g id="node1" class="node"><title>Node1</title>
<polygon fill="#bfbfbf" stroke="black" points="314.5,-280.5 314.5,-332.5 488.5,-332.5 488.5,-280.5 314.5,-280.5"/>
<text text-anchor="start" x="322.5" y="-320.5" font-family="Helvetica,sans-Serif" font-size="10.00">/home/travis/build</text>
<text text-anchor="start" x="322.5" y="-309.5" font-family="Helvetica,sans-Serif" font-size="10.00">/STORM&#45;IRIT/Radium&#45;Engine</text>
<text text-anchor="start" x="322.5" y="-298.5" font-family="Helvetica,sans-Serif" font-size="10.00">/Plugins/MeshPaint/src/MeshPaint</text>
<text text-anchor="middle" x="401.5" y="-287.5" font-family="Helvetica,sans-Serif" font-size="10.00">System.hpp</text>
</g>
<!-- Node2 -->
<g id="node2" class="node"><title>Node2</title>
<g id="a_node2"><a xlink:href="MeshPaintPluginMacros_8hpp.html" target="_top" xlink:title="MeshPaintPluginMacros.hpp">
<polygon fill="white" stroke="black" points="825,-224.5 825,-243.5 974,-243.5 974,-224.5 825,-224.5"/>
<text text-anchor="middle" x="899.5" y="-231.5" font-family="Helvetica,sans-Serif" font-size="10.00">MeshPaintPluginMacros.hpp</text>
</a>
</g>
</g>
<!-- Node1&#45;&gt;Node2 -->
<g id="edge1" class="edge"><title>Node1&#45;&gt;Node2</title>
<path fill="none" stroke="midnightblue" d="M488.53,-293.18C585.312,-279.478 739.764,-257.613 829.203,-244.952"/>
<polygon fill="midnightblue" stroke="midnightblue" points="829.837,-248.397 839.247,-243.53 828.855,-241.466 829.837,-248.397"/>
</g>
<!-- Node9 -->
<g id="node9" class="node"><title>Node9</title>
<g id="a_node9"><a xlink:href="Color_8hpp.html" target="_top" xlink:title="Core/Utils/Color.hpp">
<polygon fill="white" stroke="black" points="0,-168.5 0,-187.5 111,-187.5 111,-168.5 0,-168.5"/>
<text text-anchor="middle" x="55.5" y="-175.5" font-family="Helvetica,sans-Serif" font-size="10.00">Core/Utils/Color.hpp</text>
</a>
</g>
</g>
<!-- Node1&#45;&gt;Node9 -->
<g id="edge8" class="edge"><title>Node1&#45;&gt;Node9</title>
<path fill="none" stroke="midnightblue" d="M314.455,-283.609C275.979,-273.046 230.491,-259.335 190.5,-244 150.914,-228.82 107.013,-206.623 80.3377,-192.496"/>
<polygon fill="midnightblue" stroke="midnightblue" points="81.7987,-189.308 71.329,-187.684 78.5009,-195.483 81.7987,-189.308"/>
</g>
<!-- Node13 -->
<g id="node13" class="node"><title>Node13</title>
<g id="a_node13"><a xlink:href="Renderer_8hpp.html" target="_top" xlink:title="Engine/Renderer/Renderer.hpp">
<polygon fill="white" stroke="black" points="448,-224.5 448,-243.5 609,-243.5 609,-224.5 448,-224.5"/>
<text text-anchor="middle" x="528.5" y="-231.5" font-family="Helvetica,sans-Serif" font-size="10.00">Engine/Renderer/Renderer.hpp</text>
</a>
</g>
</g>
<!-- Node1&#45;&gt;Node13 -->
<g id="edge13" class="edge"><title>Node1&#45;&gt;Node13</title>
<path fill="none" stroke="midnightblue" d="M446.633,-280.446C466.062,-269.66 488.002,-257.481 504.275,-248.448"/>
<polygon fill="midnightblue" stroke="midnightblue" points="506.095,-251.441 513.139,-243.527 502.697,-245.32 506.095,-251.441"/>
</g>
<!-- Node25 -->
<g id="node25" class="node"><title>Node25</title>
<g id="a_node25"><a xlink:href="System_8hpp.html" target="_top" xlink:title="Engine/System/System.hpp">
<polygon fill="white" stroke="black" points="200,-224.5 200,-243.5 349,-243.5 349,-224.5 200,-224.5"/>
<text text-anchor="middle" x="274.5" y="-231.5" font-family="Helvetica,sans-Serif" font-size="10.00">Engine/System/System.hpp</text>
</a>
</g>
</g>
<!-- Node1&#45;&gt;Node25 -->
<g id="edge31" class="edge"><title>Node1&#45;&gt;Node25</title>
<path fill="none" stroke="midnightblue" d="M356.367,-280.446C336.938,-269.66 314.998,-257.481 298.725,-248.448"/>
<polygon fill="midnightblue" stroke="midnightblue" points="300.303,-245.32 289.861,-243.527 296.905,-251.441 300.303,-245.32"/>
</g>
<!-- Node3 -->
<g id="node3" class="node"><title>Node3</title>
<g id="a_node3"><a xlink:href="CoreMacros_8hpp.html" target="_top" xlink:title="Core/CoreMacros.hpp">
<polygon fill="white" stroke="black" points="418.5,-56.5 418.5,-75.5 538.5,-75.5 538.5,-56.5 418.5,-56.5"/>
<text text-anchor="middle" x="478.5" y="-63.5" font-family="Helvetica,sans-Serif" font-size="10.00">Core/CoreMacros.hpp</text>
</a>
</g>
</g>
<!-- Node2&#45;&gt;Node3 -->
<g id="edge2" class="edge"><title>Node2&#45;&gt;Node3</title>
<path fill="none" stroke="midnightblue" d="M944.162,-224.445C984.922,-214.647 1035.56,-196.211 1012.5,-168 954.867,-97.4988 680.56,-75.8934 549.087,-69.5299"/>
<polygon fill="midnightblue" stroke="midnightblue" points="548.879,-66.0165 538.727,-69.0458 548.552,-73.0088 548.879,-66.0165"/>
</g>
<!-- Node4 -->
<g id="node4" class="node"><title>Node4</title>
<polygon fill="white" stroke="#bfbfbf" points="315.5,-0.5 315.5,-19.5 367.5,-19.5 367.5,-0.5 315.5,-0.5"/>
<text text-anchor="middle" x="341.5" y="-7.5" font-family="Helvetica,sans-Serif" font-size="10.00">cassert</text>
</g>
<!-- Node3&#45;&gt;Node4 -->
<g id="edge3" class="edge"><title>Node3&#45;&gt;Node4</title>
<path fill="none" stroke="midnightblue" d="M456.792,-56.4435C434.145,-47.5171 398.428,-33.4387 372.748,-23.3168"/>
<polygon fill="midnightblue" stroke="midnightblue" points="373.693,-19.9273 363.106,-19.5164 371.126,-26.4397 373.693,-19.9273"/>
</g>
<!-- Node5 -->
<g id="node5" class="node"><title>Node5</title>
<polygon fill="white" stroke="#bfbfbf" points="386,-0.5 386,-19.5 431,-19.5 431,-0.5 386,-0.5"/>
<text text-anchor="middle" x="408.5" y="-7.5" font-family="Helvetica,sans-Serif" font-size="10.00">cstdio</text>
</g>
<!-- Node3&#45;&gt;Node5 -->
<g id="edge4" class="edge"><title>Node3&#45;&gt;Node5</title>
<path fill="none" stroke="midnightblue" d="M467.253,-56.324C456.703,-48.1849 440.699,-35.8395 428.058,-26.0874"/>
<polygon fill="midnightblue" stroke="midnightblue" points="430.007,-23.1707 419.951,-19.8339 425.731,-28.7132 430.007,-23.1707"/>
</g>
<!-- Node6 -->
<g id="node6" class="node"><title>Node6</title>
<polygon fill="white" stroke="#bfbfbf" points="449,-0.5 449,-19.5 508,-19.5 508,-0.5 449,-0.5"/>
<text text-anchor="middle" x="478.5" y="-7.5" font-family="Helvetica,sans-Serif" font-size="10.00">iostream</text>
</g>
<!-- Node3&#45;&gt;Node6 -->
<g id="edge5" class="edge"><title>Node3&#45;&gt;Node6</title>
<path fill="none" stroke="midnightblue" d="M478.5,-56.083C478.5,-49.0059 478.5,-38.8611 478.5,-29.9865"/>
<polygon fill="midnightblue" stroke="midnightblue" points="482,-29.751 478.5,-19.7511 475,-29.7511 482,-29.751"/>
</g>
<!-- Node7 -->
<g id="node7" class="node"><title>Node7</title>
<polygon fill="white" stroke="#bfbfbf" points="526.5,-0.5 526.5,-19.5 582.5,-19.5 582.5,-0.5 526.5,-0.5"/>
<text text-anchor="middle" x="554.5" y="-7.5" font-family="Helvetica,sans-Serif" font-size="10.00">sstream</text>
</g>
<!-- Node3&#45;&gt;Node7 -->
<g id="edge6" class="edge"><title>Node3&#45;&gt;Node7</title>
<path fill="none" stroke="midnightblue" d="M490.711,-56.324C502.276,-48.1066 519.875,-35.6017 533.661,-25.8069"/>
<polygon fill="midnightblue" stroke="midnightblue" points="535.943,-28.4791 542.067,-19.8339 531.888,-22.7729 535.943,-28.4791"/>
</g>
<!-- Node8 -->
<g id="node8" class="node"><title>Node8</title>
<polygon fill="white" stroke="#bfbfbf" points="600.5,-0.5 600.5,-19.5 648.5,-19.5 648.5,-0.5 600.5,-0.5"/>
<text text-anchor="middle" x="624.5" y="-7.5" font-family="Helvetica,sans-Serif" font-size="10.00">thread</text>
</g>
<!-- Node3&#45;&gt;Node8 -->
<g id="edge7" class="edge"><title>Node3&#45;&gt;Node8</title>
<path fill="none" stroke="midnightblue" d="M501.634,-56.4435C525.982,-47.4381 564.507,-33.1891 591.923,-23.049"/>
<polygon fill="midnightblue" stroke="midnightblue" points="593.309,-26.2681 601.474,-19.5164 590.881,-19.7028 593.309,-26.2681"/>
</g>
<!-- Node9&#45;&gt;Node3 -->
<g id="edge9" class="edge"><title>Node9&#45;&gt;Node3</title>
<path fill="none" stroke="midnightblue" d="M55.2291,-168.233C55.313,-154.005 57.7558,-126.065 74.5,-112 99.4638,-91.03 298.889,-76.8868 407.905,-70.641"/>
<polygon fill="midnightblue" stroke="midnightblue" points="408.377,-74.12 418.164,-70.0612 407.982,-67.1311 408.377,-74.12"/>
</g>
<!-- Node10 -->
<g id="node10" class="node"><title>Node10</title>
<polygon fill="white" stroke="#bfbfbf" points="290.5,-112.5 290.5,-131.5 358.5,-131.5 358.5,-112.5 290.5,-112.5"/>
<text text-anchor="middle" x="324.5" y="-119.5" font-family="Helvetica,sans-Serif" font-size="10.00">Eigen/Core</text>
</g>
<!-- Node9&#45;&gt;Node10 -->
<g id="edge10" class="edge"><title>Node9&#45;&gt;Node10</title>
<path fill="none" stroke="midnightblue" d="M98.1238,-168.444C147.88,-158.455 229.77,-142.016 280.225,-131.888"/>
<polygon fill="midnightblue" stroke="midnightblue" points="281.069,-135.288 290.184,-129.889 279.691,-128.425 281.069,-135.288"/>
</g>
<!-- Node11 -->
<g id="node11" class="node"><title>Node11</title>
<polygon fill="white" stroke="#bfbfbf" points="170.5,-112.5 170.5,-131.5 264.5,-131.5 264.5,-112.5 170.5,-112.5"/>
<text text-anchor="middle" x="217.5" y="-119.5" font-family="Helvetica,sans-Serif" font-size="10.00">Eigen/Geometry</text>
</g>
<!-- Node9&#45;&gt;Node11 -->
<g id="edge11" class="edge"><title>Node9&#45;&gt;Node11</title>
<path fill="none" stroke="midnightblue" d="M81.1694,-168.444C108.423,-159.359 151.684,-144.939 182.151,-134.783"/>
<polygon fill="midnightblue" stroke="midnightblue" points="183.571,-137.999 191.951,-131.516 181.357,-131.358 183.571,-137.999"/>
</g>
<!-- Node12 -->
<g id="node12" class="node"><title>Node12</title>
<polygon fill="white" stroke="#bfbfbf" points="83.5,-112.5 83.5,-131.5 137.5,-131.5 137.5,-112.5 83.5,-112.5"/>
<text text-anchor="middle" x="110.5" y="-119.5" font-family="Helvetica,sans-Serif" font-size="10.00">random</text>
</g>
<!-- Node9&#45;&gt;Node12 -->
<g id="edge12" class="edge"><title>Node9&#45;&gt;Node12</title>
<path fill="none" stroke="midnightblue" d="M64.5821,-168.083C72.6713,-160.141 84.6954,-148.335 94.4102,-138.797"/>
<polygon fill="midnightblue" stroke="midnightblue" points="96.9033,-141.254 101.587,-131.751 91.9991,-136.26 96.9033,-141.254"/>
</g>
<!-- Node14 -->
<g id="node14" class="node"><title>Node14</title>
<g id="a_node14"><a xlink:href="RaEngine_8hpp.html" target="_top" xlink:title="Engine/RaEngine.hpp">
<polygon fill="white" stroke="black" points="269,-168.5 269,-187.5 386,-187.5 386,-168.5 269,-168.5"/>
<text text-anchor="middle" x="327.5" y="-175.5" font-family="Helvetica,sans-Serif" font-size="10.00">Engine/RaEngine.hpp</text>
</a>
</g>
</g>
<!-- Node13&#45;&gt;Node14 -->
<g id="edge14" class="edge"><title>Node13&#45;&gt;Node14</title>
<path fill="none" stroke="midnightblue" d="M496.651,-224.444C462.102,-215.162 406.818,-200.309 368.917,-190.127"/>
<polygon fill="midnightblue" stroke="midnightblue" points="369.766,-186.731 359.2,-187.516 367.949,-193.491 369.766,-186.731"/>
</g>
<!-- Node15 -->
<g id="node15" class="node"><title>Node15</title>
<polygon fill="white" stroke="#bfbfbf" points="962,-168.5 962,-187.5 1003,-187.5 1003,-168.5 962,-168.5"/>
<text text-anchor="middle" x="982.5" y="-175.5" font-family="Helvetica,sans-Serif" font-size="10.00">array</text>
</g>
<!-- Node13&#45;&gt;Node15 -->
<g id="edge16" class="edge"><title>Node13&#45;&gt;Node15</title>
<path fill="none" stroke="midnightblue" d="M609.276,-228.899C692.827,-223.646 827.084,-212.383 951.856,-187.739"/>
<polygon fill="midnightblue" stroke="midnightblue" points="952.856,-191.108 961.971,-185.707 951.477,-184.245 952.856,-191.108"/>
</g>
<!-- Node16 -->
<g id="node16" class="node"><title>Node16</title>
<polygon fill="white" stroke="#bfbfbf" points="677.5,-112.5 677.5,-131.5 727.5,-131.5 727.5,-112.5 677.5,-112.5"/>
<text text-anchor="middle" x="702.5" y="-119.5" font-family="Helvetica,sans-Serif" font-size="10.00">chrono</text>
</g>
<!-- Node13&#45;&gt;Node16 -->
<g id="edge17" class="edge"><title>Node13&#45;&gt;Node16</title>
<path fill="none" stroke="midnightblue" d="M609.172,-224.845C657.204,-218.136 711.628,-206.631 726.5,-188 737.811,-173.83 727.484,-153.815 717.078,-139.749"/>
<polygon fill="midnightblue" stroke="midnightblue" points="719.756,-137.494 710.78,-131.865 714.287,-141.862 719.756,-137.494"/>
</g>
<!-- Node17 -->
<g id="node17" class="node"><title>Node17</title>
<polygon fill="white" stroke="#bfbfbf" points="194,-168.5 194,-187.5 251,-187.5 251,-168.5 194,-168.5"/>
<text text-anchor="middle" x="222.5" y="-175.5" font-family="Helvetica,sans-Serif" font-size="10.00">memory</text>
</g>
<!-- Node13&#45;&gt;Node17 -->
<g id="edge18" class="edge"><title>Node13&#45;&gt;Node17</title>
<path fill="none" stroke="midnightblue" d="M470.027,-224.475C417.625,-216.551 338.451,-203.878 261.056,-188.21"/>
<polygon fill="midnightblue" stroke="midnightblue" points="261.635,-184.757 251.137,-186.184 260.234,-191.615 261.635,-184.757"/>
</g>
<!-- Node18 -->
<g id="node18" class="node"><title>Node18</title>
<polygon fill="white" stroke="#bfbfbf" points="670,-168.5 670,-187.5 717,-187.5 717,-168.5 670,-168.5"/>
<text text-anchor="middle" x="693.5" y="-175.5" font-family="Helvetica,sans-Serif" font-size="10.00">mutex</text>
</g>
<!-- Node13&#45;&gt;Node18 -->
<g id="edge19" class="edge"><title>Node13&#45;&gt;Node18</title>
<path fill="none" stroke="midnightblue" d="M554.645,-224.444C583.261,-215.078 629.207,-200.042 660.337,-189.853"/>
<polygon fill="midnightblue" stroke="midnightblue" points="661.468,-193.166 669.884,-186.729 659.291,-186.513 661.468,-193.166"/>
</g>
<!-- Node19 -->
<g id="node19" class="node"><title>Node19</title>
<polygon fill="white" stroke="#bfbfbf" points="129,-168.5 129,-187.5 176,-187.5 176,-168.5 129,-168.5"/>
<text text-anchor="middle" x="152.5" y="-175.5" font-family="Helvetica,sans-Serif" font-size="10.00">vector</text>
</g>
<!-- Node13&#45;&gt;Node19 -->
<g id="edge20" class="edge"><title>Node13&#45;&gt;Node19</title>
<path fill="none" stroke="midnightblue" d="M447.674,-225.749C380.009,-218.916 280.806,-207.129 186.198,-188.114"/>
<polygon fill="midnightblue" stroke="midnightblue" points="186.67,-184.638 176.172,-186.068 185.271,-191.497 186.67,-184.638"/>
</g>
<!-- Node20 -->
<g id="node20" class="node"><title>Node20</title>
<g id="a_node20"><a xlink:href="Types_8hpp.html" target="_top" xlink:title="Core/Math/Types.hpp">
<polygon fill="white" stroke="black" points="404.5,-168.5 404.5,-187.5 520.5,-187.5 520.5,-168.5 404.5,-168.5"/>
<text text-anchor="middle" x="462.5" y="-175.5" font-family="Helvetica,sans-Serif" font-size="10.00">Core/Math/Types.hpp</text>
</a>
</g>
</g>
<!-- Node13&#45;&gt;Node20 -->
<g id="edge21" class="edge"><title>Node13&#45;&gt;Node20</title>
<path fill="none" stroke="midnightblue" d="M517.896,-224.324C508.044,-216.263 493.149,-204.077 481.285,-194.369"/>
<polygon fill="midnightblue" stroke="midnightblue" points="483.253,-191.457 473.297,-187.834 478.82,-196.875 483.253,-191.457"/>
</g>
<!-- Node23 -->
<g id="node23" class="node"><title>Node23</title>
<g id="a_node23"><a xlink:href="Timer_8hpp.html" target="_top" xlink:title="Core/Utils/Timer.hpp">
<polygon fill="white" stroke="black" points="539,-168.5 539,-187.5 652,-187.5 652,-168.5 539,-168.5"/>
<text text-anchor="middle" x="595.5" y="-175.5" font-family="Helvetica,sans-Serif" font-size="10.00">Core/Utils/Timer.hpp</text>
</a>
</g>
</g>
<!-- Node13&#45;&gt;Node23 -->
<g id="edge27" class="edge"><title>Node13&#45;&gt;Node23</title>
<path fill="none" stroke="midnightblue" d="M539.265,-224.324C549.266,-216.263 564.387,-204.077 576.43,-194.369"/>
<polygon fill="midnightblue" stroke="midnightblue" points="578.95,-196.834 584.539,-187.834 574.557,-191.384 578.95,-196.834"/>
</g>
<!-- Node24 -->
<g id="node24" class="node"><title>Node24</title>
<g id="a_node24"><a xlink:href="EventEnums_8hpp.html" target="_top" xlink:title="GuiBase/Event/EventEnums.hpp">
<polygon fill="white" stroke="black" points="773.5,-168.5 773.5,-187.5 943.5,-187.5 943.5,-168.5 773.5,-168.5"/>
<text text-anchor="middle" x="858.5" y="-175.5" font-family="Helvetica,sans-Serif" font-size="10.00">GuiBase/Event/EventEnums.hpp</text>
</a>
</g>
</g>
<!-- Node13&#45;&gt;Node24 -->
<g id="edge30" class="edge"><title>Node13&#45;&gt;Node24</title>
<path fill="none" stroke="midnightblue" d="M580.789,-224.444C639.323,-214.865 734.105,-199.356 796.37,-189.167"/>
<polygon fill="midnightblue" stroke="midnightblue" points="797.152,-192.585 806.455,-187.516 796.021,-185.677 797.152,-192.585"/>
</g>
<!-- Node14&#45;&gt;Node3 -->
<g id="edge15" class="edge"><title>Node14&#45;&gt;Node3</title>
<path fill="none" stroke="midnightblue" d="M338.197,-168.35C353.99,-155.666 384.583,-131.42 411.5,-112 426.365,-101.275 443.532,-89.7613 456.768,-81.0647"/>
<polygon fill="midnightblue" stroke="midnightblue" points="458.769,-83.9381 465.226,-75.5385 454.94,-78.078 458.769,-83.9381"/>
</g>
<!-- Node20&#45;&gt;Node10 -->
<g id="edge24" class="edge"><title>Node20&#45;&gt;Node10</title>
<path fill="none" stroke="midnightblue" d="M440.633,-168.444C417.721,-159.478 381.525,-145.314 355.634,-135.183"/>
<polygon fill="midnightblue" stroke="midnightblue" points="356.852,-131.901 346.264,-131.516 354.301,-138.42 356.852,-131.901"/>
</g>
<!-- Node20&#45;&gt;Node11 -->
<g id="edge25" class="edge"><title>Node20&#45;&gt;Node11</title>
<path fill="none" stroke="midnightblue" d="M423.679,-168.444C380.939,-159.023 312.168,-143.866 265.934,-133.675"/>
<polygon fill="midnightblue" stroke="midnightblue" points="266.658,-130.251 256.139,-131.516 265.152,-137.087 266.658,-130.251"/>
</g>
<!-- Node21 -->
<g id="node21" class="node"><title>Node21</title>
<g id="a_node21"><a xlink:href="RaCore_8hpp.html" target="_top" xlink:title="Core/RaCore.hpp">
<polygon fill="white" stroke="black" points="518.5,-112.5 518.5,-131.5 616.5,-131.5 616.5,-112.5 518.5,-112.5"/>
<text text-anchor="middle" x="567.5" y="-119.5" font-family="Helvetica,sans-Serif" font-size="10.00">Core/RaCore.hpp</text>
</a>
</g>
</g>
<!-- Node20&#45;&gt;Node21 -->
<g id="edge22" class="edge"><title>Node20&#45;&gt;Node21</title>
<path fill="none" stroke="midnightblue" d="M479.37,-168.324C496.209,-159.664 522.307,-146.242 541.738,-136.249"/>
<polygon fill="midnightblue" stroke="midnightblue" points="543.38,-139.341 550.672,-131.655 540.178,-133.116 543.38,-139.341"/>
</g>
<!-- Node22 -->
<g id="node22" class="node"><title>Node22</title>
<polygon fill="white" stroke="#bfbfbf" points="420.5,-112.5 420.5,-131.5 500.5,-131.5 500.5,-112.5 420.5,-112.5"/>
<text text-anchor="middle" x="460.5" y="-119.5" font-family="Helvetica,sans-Serif" font-size="10.00">Eigen/Sparse</text>
</g>
<!-- Node20&#45;&gt;Node22 -->
<g id="edge26" class="edge"><title>Node20&#45;&gt;Node22</title>
<path fill="none" stroke="midnightblue" d="M462.17,-168.083C461.908,-161.006 461.532,-150.861 461.203,-141.986"/>
<polygon fill="midnightblue" stroke="midnightblue" points="464.692,-141.615 460.824,-131.751 457.697,-141.874 464.692,-141.615"/>
</g>
<!-- Node21&#45;&gt;Node3 -->
<g id="edge23" class="edge"><title>Node21&#45;&gt;Node3</title>
<path fill="none" stroke="midnightblue" d="M553.201,-112.324C539.317,-103.9 518.008,-90.9709 501.696,-81.0741"/>
<polygon fill="midnightblue" stroke="midnightblue" points="503.129,-77.8495 492.764,-75.6545 499.498,-83.8341 503.129,-77.8495"/>
</g>
<!-- Node23&#45;&gt;Node16 -->
<g id="edge29" class="edge"><title>Node23&#45;&gt;Node16</title>
<path fill="none" stroke="midnightblue" d="M612.691,-168.324C629.851,-159.664 656.446,-146.242 676.247,-136.249"/>
<polygon fill="midnightblue" stroke="midnightblue" points="678.001,-139.285 685.351,-131.655 674.847,-133.035 678.001,-139.285"/>
</g>
<!-- Node23&#45;&gt;Node21 -->
<g id="edge28" class="edge"><title>Node23&#45;&gt;Node21</title>
<path fill="none" stroke="midnightblue" d="M590.876,-168.083C587.044,-160.691 581.476,-149.953 576.735,-140.811"/>
<polygon fill="midnightblue" stroke="midnightblue" points="579.748,-139.018 572.038,-131.751 573.534,-142.24 579.748,-139.018"/>
</g>
<!-- Node25&#45;&gt;Node14 -->
<g id="edge32" class="edge"><title>Node25&#45;&gt;Node14</title>
<path fill="none" stroke="midnightblue" d="M283.252,-224.083C290.97,-216.22 302.405,-204.569 311.717,-195.081"/>
<polygon fill="midnightblue" stroke="midnightblue" points="314.404,-197.34 318.911,-187.751 309.408,-192.436 314.404,-197.34"/>
</g>
<!-- Node25&#45;&gt;Node17 -->
<g id="edge33" class="edge"><title>Node25&#45;&gt;Node17</title>
<path fill="none" stroke="midnightblue" d="M265.913,-224.083C258.341,-216.22 247.122,-204.569 237.986,-195.081"/>
<polygon fill="midnightblue" stroke="midnightblue" points="240.385,-192.527 230.927,-187.751 235.342,-197.382 240.385,-192.527"/>
</g>
<!-- Node25&#45;&gt;Node19 -->
<g id="edge34" class="edge"><title>Node25&#45;&gt;Node19</title>
<path fill="none" stroke="midnightblue" d="M255.169,-224.444C235.18,-215.596 203.757,-201.687 180.936,-191.586"/>
<polygon fill="midnightblue" stroke="midnightblue" points="182.302,-188.363 171.741,-187.516 179.468,-194.764 182.302,-188.363"/>
</g>
</g>
</svg>
