<?xml version="1.0" encoding="UTF-8" standalone="no"?>
<!DOCTYPE svg PUBLIC "-//W3C//DTD SVG 1.1//EN"
 "http://www.w3.org/Graphics/SVG/1.1/DTD/svg11.dtd">
<!-- Generated by graphviz version 2.38.0 (20140413.2041)
 -->
<!-- Title: /home/travis/build/STORM&#45;IRIT/Radium&#45;Engine/src/Engine/Renderer/Mesh/Mesh.inl Pages: 1 -->
<svg width="3753pt" height="406pt"
 viewBox="0.00 0.00 3752.50 406.00" xmlns="http://www.w3.org/2000/svg" xmlns:xlink="http://www.w3.org/1999/xlink">
<g id="graph0" class="graph" transform="scale(1 1) rotate(0) translate(4 402)">
<title>/home/travis/build/STORM&#45;IRIT/Radium&#45;Engine/src/Engine/Renderer/Mesh/Mesh.inl</title>
<polygon fill="white" stroke="none" points="-4,4 -4,-402 3748.5,-402 3748.5,4 -4,4"/>
<!-- Node1 -->
<g id="node1" class="node"><title>Node1</title>
<polygon fill="#bfbfbf" stroke="black" points="1823,-345.5 1823,-397.5 1971,-397.5 1971,-345.5 1823,-345.5"/>
<text text-anchor="start" x="1831" y="-385.5" font-family="Helvetica,sans-Serif" font-size="10.00">/home/travis/build</text>
<text text-anchor="start" x="1831" y="-374.5" font-family="Helvetica,sans-Serif" font-size="10.00">/STORM&#45;IRIT/Radium&#45;Engine</text>
<text text-anchor="start" x="1831" y="-363.5" font-family="Helvetica,sans-Serif" font-size="10.00">/src/Engine/Renderer/Mesh</text>
<text text-anchor="middle" x="1897" y="-352.5" font-family="Helvetica,sans-Serif" font-size="10.00">/Mesh.inl</text>
</g>
<!-- Node2 -->
<g id="node2" class="node"><title>Node2</title>
<g id="a_node2"><a xlink:href="Mesh_8hpp.html" target="_top" xlink:title="/home/travis/build\l/STORM&#45;IRIT/Radium&#45;Engine\l/src/Engine/Renderer/Mesh\l/Mesh.hpp">
<polygon fill="white" stroke="black" points="1823,-256.5 1823,-308.5 1971,-308.5 1971,-256.5 1823,-256.5"/>
<text text-anchor="start" x="1831" y="-296.5" font-family="Helvetica,sans-Serif" font-size="10.00">/home/travis/build</text>
<text text-anchor="start" x="1831" y="-285.5" font-family="Helvetica,sans-Serif" font-size="10.00">/STORM&#45;IRIT/Radium&#45;Engine</text>
<text text-anchor="start" x="1831" y="-274.5" font-family="Helvetica,sans-Serif" font-size="10.00">/src/Engine/Renderer/Mesh</text>
<text text-anchor="middle" x="1897" y="-263.5" font-family="Helvetica,sans-Serif" font-size="10.00">/Mesh.hpp</text>
</a>
</g>
</g>
<!-- Node1&#45;&gt;Node2 -->
<g id="edge1" class="edge"><title>Node1&#45;&gt;Node2</title>
<path fill="none" stroke="midnightblue" d="M1890.36,-335.191C1890.12,-326.282 1890.27,-316.899 1890.82,-308.607"/>
<polygon fill="midnightblue" stroke="midnightblue" points="1886.87,-335.503 1890.81,-345.336 1893.86,-335.189 1886.87,-335.503"/>
</g>
<!-- Node2&#45;&gt;Node1 -->
<g id="edge6" class="edge"><title>Node2&#45;&gt;Node1</title>
<path fill="none" stroke="midnightblue" d="M1903.64,-318.749C1903.88,-327.655 1903.73,-337.04 1903.19,-345.336"/>
<polygon fill="midnightblue" stroke="midnightblue" points="1907.13,-318.439 1903.18,-308.607 1900.14,-318.755 1907.13,-318.439"/>
</g>
<!-- Node3 -->
<g id="node3" class="node"><title>Node3</title>
<g id="a_node3"><a xlink:href="Component_8cpp.html" target="_top" xlink:title="/home/travis/build\l/STORM&#45;IRIT/Radium&#45;Engine\l/src/Engine/Component/Component.cpp">
<polygon fill="white" stroke="black" points="0,-173 0,-214 208,-214 208,-173 0,-173"/>
<text text-anchor="start" x="8" y="-202" font-family="Helvetica,sans-Serif" font-size="10.00">/home/travis/build</text>
<text text-anchor="start" x="8" y="-191" font-family="Helvetica,sans-Serif" font-size="10.00">/STORM&#45;IRIT/Radium&#45;Engine</text>
<text text-anchor="middle" x="104" y="-180" font-family="Helvetica,sans-Serif" font-size="10.00">/src/Engine/Component/Component.cpp</text>
</a>
</g>
</g>
<!-- Node2&#45;&gt;Node3 -->
<g id="edge2" class="edge"><title>Node2&#45;&gt;Node3</title>
<path fill="none" stroke="midnightblue" d="M1812.47,-280.478C1516.89,-276.58 530.566,-260.761 217,-220 205.532,-218.509 193.516,-216.402 181.775,-214.03"/>
<polygon fill="midnightblue" stroke="midnightblue" points="1812.65,-283.98 1822.69,-280.612 1812.74,-276.981 1812.65,-283.98"/>
</g>
<!-- Node4 -->
<g id="node4" class="node"><title>Node4</title>
<g id="a_node4"><a xlink:href="GeometryComponent_8cpp.html" target="_top" xlink:title="/home/travis/build\l/STORM&#45;IRIT/Radium&#45;Engine\l/src/Engine/Component/GeometryComponent.cpp">
<polygon fill="white" stroke="black" points="226,-173 226,-214 482,-214 482,-173 226,-173"/>
<text text-anchor="start" x="234" y="-202" font-family="Helvetica,sans-Serif" font-size="10.00">/home/travis/build</text>
<text text-anchor="start" x="234" y="-191" font-family="Helvetica,sans-Serif" font-size="10.00">/STORM&#45;IRIT/Radium&#45;Engine</text>
<text text-anchor="middle" x="354" y="-180" font-family="Helvetica,sans-Serif" font-size="10.00">/src/Engine/Component/GeometryComponent.cpp</text>
</a>
</g>
</g>
<!-- Node2&#45;&gt;Node4 -->
<g id="edge3" class="edge"><title>Node2&#45;&gt;Node4</title>
<path fill="none" stroke="midnightblue" d="M1812.65,-281.925C1593.74,-282.137 989.819,-277.047 491,-220 477.54,-218.461 463.412,-216.374 449.554,-214.054"/>
<polygon fill="midnightblue" stroke="midnightblue" points="1812.78,-285.425 1822.78,-281.911 1812.77,-278.425 1812.78,-285.425"/>
</g>
<!-- Node5 -->
<g id="node5" class="node"><title>Node5</title>
<g id="a_node5"><a xlink:href="Camera_8cpp.html" target="_top" xlink:title="/home/travis/build\l/STORM&#45;IRIT/Radium&#45;Engine\l/src/Engine/Renderer/Camera\l/Camera.cpp">
<polygon fill="white" stroke="black" points="500,-167.5 500,-219.5 656,-219.5 656,-167.5 500,-167.5"/>
<text text-anchor="start" x="508" y="-207.5" font-family="Helvetica,sans-Serif" font-size="10.00">/home/travis/build</text>
<text text-anchor="start" x="508" y="-196.5" font-family="Helvetica,sans-Serif" font-size="10.00">/STORM&#45;IRIT/Radium&#45;Engine</text>
<text text-anchor="start" x="508" y="-185.5" font-family="Helvetica,sans-Serif" font-size="10.00">/src/Engine/Renderer/Camera</text>
<text text-anchor="middle" x="578" y="-174.5" font-family="Helvetica,sans-Serif" font-size="10.00">/Camera.cpp</text>
</a>
</g>
</g>
<!-- Node2&#45;&gt;Node5 -->
<g id="edge4" class="edge"><title>Node2&#45;&gt;Node5</title>
<path fill="none" stroke="midnightblue" d="M1812.54,-279.869C1571.99,-274.813 886.439,-257.441 665,-220 662.051,-219.501 659.061,-218.936 656.052,-218.318"/>
<polygon fill="midnightblue" stroke="midnightblue" points="1812.55,-283.37 1822.62,-280.079 1812.7,-276.371 1812.55,-283.37"/>
</g>
<!-- Node6 -->
<g id="node6" class="node"><title>Node6</title>
<g id="a_node6"><a xlink:href="Mesh_8cpp.html" target="_top" xlink:title="/home/travis/build\l/STORM&#45;IRIT/Radium&#45;Engine\l/src/Engine/Renderer/Mesh\l/Mesh.cpp">
<polygon fill="white" stroke="black" points="674,-167.5 674,-219.5 822,-219.5 822,-167.5 674,-167.5"/>
<text text-anchor="start" x="682" y="-207.5" font-family="Helvetica,sans-Serif" font-size="10.00">/home/travis/build</text>
<text text-anchor="start" x="682" y="-196.5" font-family="Helvetica,sans-Serif" font-size="10.00">/STORM&#45;IRIT/Radium&#45;Engine</text>
<text text-anchor="start" x="682" y="-185.5" font-family="Helvetica,sans-Serif" font-size="10.00">/src/Engine/Renderer/Mesh</text>
<text text-anchor="middle" x="748" y="-174.5" font-family="Helvetica,sans-Serif" font-size="10.00">/Mesh.cpp</text>
</a>
</g>
</g>
<!-- Node2&#45;&gt;Node6 -->
<g id="edge5" class="edge"><title>Node2&#45;&gt;Node6</title>
<path fill="none" stroke="midnightblue" d="M1812.73,-279.254C1595.25,-273.037 1019.02,-253.797 831,-220 828.181,-219.493 825.323,-218.921 822.448,-218.297"/>
<polygon fill="midnightblue" stroke="midnightblue" points="1812.71,-282.754 1822.81,-279.54 1812.91,-275.757 1812.71,-282.754"/>
</g>
<!-- Node7 -->
<g id="node7" class="node"><title>Node7</title>
<g id="a_node7"><a xlink:href="Renderer_8cpp.html" target="_top" xlink:title="/home/travis/build\l/STORM&#45;IRIT/Radium&#45;Engine\l/src/Engine/Renderer/Renderer.cpp">
<polygon fill="white" stroke="black" points="840,-173 840,-214 1020,-214 1020,-173 840,-173"/>
<text text-anchor="start" x="848" y="-202" font-family="Helvetica,sans-Serif" font-size="10.00">/home/travis/build</text>
<text text-anchor="start" x="848" y="-191" font-family="Helvetica,sans-Serif" font-size="10.00">/STORM&#45;IRIT/Radium&#45;Engine</text>
<text text-anchor="middle" x="930" y="-180" font-family="Helvetica,sans-Serif" font-size="10.00">/src/Engine/Renderer/Renderer.cpp</text>
</a>
</g>
</g>
<!-- Node2&#45;&gt;Node7 -->
<g id="edge7" class="edge"><title>Node2&#45;&gt;Node7</title>
<path fill="none" stroke="midnightblue" d="M1812.29,-280.582C1656.31,-277.767 1313.6,-266.341 1029,-220 1019.28,-218.417 1009.12,-216.322 999.167,-214.011"/>
<polygon fill="midnightblue" stroke="midnightblue" points="1812.68,-284.089 1822.74,-280.763 1812.8,-277.09 1812.68,-284.089"/>
</g>
<!-- Node8 -->
<g id="node8" class="node"><title>Node8</title>
<g id="a_node8"><a xlink:href="DebugRender_8cpp.html" target="_top" xlink:title="/home/travis/build\l/STORM&#45;IRIT/Radium&#45;Engine\l/src/Engine/Renderer/Renderers\l/DebugRender.cpp">
<polygon fill="white" stroke="black" points="1038,-167.5 1038,-219.5 1204,-219.5 1204,-167.5 1038,-167.5"/>
<text text-anchor="start" x="1046" y="-207.5" font-family="Helvetica,sans-Serif" font-size="10.00">/home/travis/build</text>
<text text-anchor="start" x="1046" y="-196.5" font-family="Helvetica,sans-Serif" font-size="10.00">/STORM&#45;IRIT/Radium&#45;Engine</text>
<text text-anchor="start" x="1046" y="-185.5" font-family="Helvetica,sans-Serif" font-size="10.00">/src/Engine/Renderer/Renderers</text>
<text text-anchor="middle" x="1121" y="-174.5" font-family="Helvetica,sans-Serif" font-size="10.00">/DebugRender.cpp</text>
</a>
</g>
</g>
<!-- Node2&#45;&gt;Node8 -->
<g id="edge8" class="edge"><title>Node2&#45;&gt;Node8</title>
<path fill="none" stroke="midnightblue" d="M1812.51,-278.811C1682.68,-273.578 1426.71,-258.896 1213,-220 1210.06,-219.466 1207.09,-218.881 1204.09,-218.254"/>
<polygon fill="midnightblue" stroke="midnightblue" points="1812.64,-282.319 1822.77,-279.216 1812.92,-275.324 1812.64,-282.319"/>
</g>
<!-- Node9 -->
<g id="node9" class="node"><title>Node9</title>
<g id="a_node9"><a xlink:href="ForwardRenderer_8cpp.html" target="_top" xlink:title="/home/travis/build\l/STORM&#45;IRIT/Radium&#45;Engine\l/src/Engine/Renderer/Renderers\l/ForwardRenderer.cpp">
<polygon fill="white" stroke="black" points="1222,-167.5 1222,-219.5 1388,-219.5 1388,-167.5 1222,-167.5"/>
<text text-anchor="start" x="1230" y="-207.5" font-family="Helvetica,sans-Serif" font-size="10.00">/home/travis/build</text>
<text text-anchor="start" x="1230" y="-196.5" font-family="Helvetica,sans-Serif" font-size="10.00">/STORM&#45;IRIT/Radium&#45;Engine</text>
<text text-anchor="start" x="1230" y="-185.5" font-family="Helvetica,sans-Serif" font-size="10.00">/src/Engine/Renderer/Renderers</text>
<text text-anchor="middle" x="1305" y="-174.5" font-family="Helvetica,sans-Serif" font-size="10.00">/ForwardRenderer.cpp</text>
</a>
</g>
</g>
<!-- Node2&#45;&gt;Node9 -->
<g id="edge9" class="edge"><title>Node2&#45;&gt;Node9</title>
<path fill="none" stroke="midnightblue" d="M1812.72,-274.967C1712.84,-266.344 1541.71,-248.791 1397,-220 1394.07,-219.418 1391.1,-218.792 1388.11,-218.13"/>
<polygon fill="midnightblue" stroke="midnightblue" points="1812.49,-278.46 1822.75,-275.824 1813.08,-271.486 1812.49,-278.46"/>
</g>
<!-- Node10 -->
<g id="node10" class="node"><title>Node10</title>
<g id="a_node10"><a xlink:href="DrawPrimitives_8cpp.html" target="_top" xlink:title="/home/travis/build\l/STORM&#45;IRIT/Radium&#45;Engine\l/src/Engine/Renderer/RenderObject\l/Primitives/DrawPrimitives.cpp">
<polygon fill="white" stroke="black" points="1406,-167.5 1406,-219.5 1588,-219.5 1588,-167.5 1406,-167.5"/>
<text text-anchor="start" x="1414" y="-207.5" font-family="Helvetica,sans-Serif" font-size="10.00">/home/travis/build</text>
<text text-anchor="start" x="1414" y="-196.5" font-family="Helvetica,sans-Serif" font-size="10.00">/STORM&#45;IRIT/Radium&#45;Engine</text>
<text text-anchor="start" x="1414" y="-185.5" font-family="Helvetica,sans-Serif" font-size="10.00">/src/Engine/Renderer/RenderObject</text>
<text text-anchor="middle" x="1497" y="-174.5" font-family="Helvetica,sans-Serif" font-size="10.00">/Primitives/DrawPrimitives.cpp</text>
</a>
</g>
</g>
<!-- Node2&#45;&gt;Node10 -->
<g id="edge10" class="edge"><title>Node2&#45;&gt;Node10</title>
<path fill="none" stroke="midnightblue" d="M1812.97,-265.382C1752.69,-253.551 1669.64,-236.698 1597,-220 1594.12,-219.338 1591.19,-218.655 1588.24,-217.957"/>
<polygon fill="midnightblue" stroke="midnightblue" points="1812.33,-268.824 1822.82,-267.31 1813.67,-261.954 1812.33,-268.824"/>
</g>
<!-- Node11 -->
<g id="node11" class="node"><title>Node11</title>
<g id="a_node11"><a xlink:href="RenderObject_8cpp.html" target="_top" xlink:title="/home/travis/build\l/STORM&#45;IRIT/Radium&#45;Engine\l/src/Engine/Renderer/RenderObject\l/RenderObject.cpp">
<polygon fill="white" stroke="black" points="1606,-167.5 1606,-219.5 1788,-219.5 1788,-167.5 1606,-167.5"/>
<text text-anchor="start" x="1614" y="-207.5" font-family="Helvetica,sans-Serif" font-size="10.00">/home/travis/build</text>
<text text-anchor="start" x="1614" y="-196.5" font-family="Helvetica,sans-Serif" font-size="10.00">/STORM&#45;IRIT/Radium&#45;Engine</text>
<text text-anchor="start" x="1614" y="-185.5" font-family="Helvetica,sans-Serif" font-size="10.00">/src/Engine/Renderer/RenderObject</text>
<text text-anchor="middle" x="1697" y="-174.5" font-family="Helvetica,sans-Serif" font-size="10.00">/RenderObject.cpp</text>
</a>
</g>
</g>
<!-- Node2&#45;&gt;Node11 -->
<g id="edge11" class="edge"><title>Node2&#45;&gt;Node11</title>
<path fill="none" stroke="midnightblue" d="M1830.19,-252.436C1805.67,-241.771 1778.15,-229.8 1754.52,-219.521"/>
<polygon fill="midnightblue" stroke="midnightblue" points="1828.85,-255.673 1839.42,-256.453 1831.65,-249.254 1828.85,-255.673"/>
</g>
<!-- Node12 -->
<g id="node12" class="node"><title>Node12</title>
<g id="a_node12"><a xlink:href="RenderObjectManager_8cpp.html" target="_top" xlink:title="/home/travis/build\l/STORM&#45;IRIT/Radium&#45;Engine\l/src/Engine/Renderer/RenderObject\l/RenderObjectManager.cpp">
<polygon fill="white" stroke="black" points="1806,-167.5 1806,-219.5 1988,-219.5 1988,-167.5 1806,-167.5"/>
<text text-anchor="start" x="1814" y="-207.5" font-family="Helvetica,sans-Serif" font-size="10.00">/home/travis/build</text>
<text text-anchor="start" x="1814" y="-196.5" font-family="Helvetica,sans-Serif" font-size="10.00">/STORM&#45;IRIT/Radium&#45;Engine</text>
<text text-anchor="start" x="1814" y="-185.5" font-family="Helvetica,sans-Serif" font-size="10.00">/src/Engine/Renderer/RenderObject</text>
<text text-anchor="middle" x="1897" y="-174.5" font-family="Helvetica,sans-Serif" font-size="10.00">/RenderObjectManager.cpp</text>
</a>
</g>
</g>
<!-- Node2&#45;&gt;Node12 -->
<g id="edge12" class="edge"><title>Node2&#45;&gt;Node12</title>
<path fill="none" stroke="midnightblue" d="M1897,-246.191C1897,-237.282 1897,-227.899 1897,-219.607"/>
<polygon fill="midnightblue" stroke="midnightblue" points="1893.5,-246.336 1897,-256.336 1900.5,-246.336 1893.5,-246.336"/>
</g>
<!-- Node13 -->
<g id="node13" class="node"><title>Node13</title>
<g id="a_node13"><a xlink:href="BaseApplication_8cpp.html" target="_top" xlink:title="/home/travis/build\l/STORM&#45;IRIT/Radium&#45;Engine\l/src/GuiBase/BaseApplication.cpp">
<polygon fill="white" stroke="black" points="2006,-173 2006,-214 2182,-214 2182,-173 2006,-173"/>
<text text-anchor="start" x="2014" y="-202" font-family="Helvetica,sans-Serif" font-size="10.00">/home/travis/build</text>
<text text-anchor="start" x="2014" y="-191" font-family="Helvetica,sans-Serif" font-size="10.00">/STORM&#45;IRIT/Radium&#45;Engine</text>
<text text-anchor="middle" x="2094" y="-180" font-family="Helvetica,sans-Serif" font-size="10.00">/src/GuiBase/BaseApplication.cpp</text>
</a>
</g>
</g>
<!-- Node2&#45;&gt;Node13 -->
<g id="edge13" class="edge"><title>Node2&#45;&gt;Node13</title>
<path fill="none" stroke="midnightblue" d="M1963.18,-252.271C1991.61,-239.719 2024.07,-225.384 2049.54,-214.134"/>
<polygon fill="midnightblue" stroke="midnightblue" points="1961.45,-249.211 1953.72,-256.453 1964.28,-255.615 1961.45,-249.211"/>
</g>
<!-- Node14 -->
<g id="node14" class="node"><title>Node14</title>
<g id="a_node14"><a xlink:href="RotateGizmo_8cpp.html" target="_top" xlink:title="/home/travis/build\l/STORM&#45;IRIT/Radium&#45;Engine\l/src/GuiBase/Viewer/Gizmo\l/RotateGizmo.cpp">
<polygon fill="white" stroke="black" points="2200,-167.5 2200,-219.5 2348,-219.5 2348,-167.5 2200,-167.5"/>
<text text-anchor="start" x="2208" y="-207.5" font-family="Helvetica,sans-Serif" font-size="10.00">/home/travis/build</text>
<text text-anchor="start" x="2208" y="-196.5" font-family="Helvetica,sans-Serif" font-size="10.00">/STORM&#45;IRIT/Radium&#45;Engine</text>
<text text-anchor="start" x="2208" y="-185.5" font-family="Helvetica,sans-Serif" font-size="10.00">/src/GuiBase/Viewer/Gizmo</text>
<text text-anchor="middle" x="2274" y="-174.5" font-family="Helvetica,sans-Serif" font-size="10.00">/RotateGizmo.cpp</text>
</a>
</g>
</g>
<!-- Node2&#45;&gt;Node14 -->
<g id="edge14" class="edge"><title>Node2&#45;&gt;Node14</title>
<path fill="none" stroke="midnightblue" d="M1981.16,-266.026C2040.21,-254.651 2120.83,-238.078 2191,-220 2193.92,-219.248 2196.89,-218.458 2199.88,-217.64"/>
<polygon fill="midnightblue" stroke="midnightblue" points="1980.3,-262.628 1971.14,-267.947 1981.62,-269.502 1980.3,-262.628"/>
</g>
<!-- Node15 -->
<g id="node15" class="node"><title>Node15</title>
<g id="a_node15"><a xlink:href="ScaleGizmo_8cpp.html" target="_top" xlink:title="/home/travis/build\l/STORM&#45;IRIT/Radium&#45;Engine\l/src/GuiBase/Viewer/Gizmo\l/ScaleGizmo.cpp">
<polygon fill="white" stroke="black" points="2366,-167.5 2366,-219.5 2514,-219.5 2514,-167.5 2366,-167.5"/>
<text text-anchor="start" x="2374" y="-207.5" font-family="Helvetica,sans-Serif" font-size="10.00">/home/travis/build</text>
<text text-anchor="start" x="2374" y="-196.5" font-family="Helvetica,sans-Serif" font-size="10.00">/STORM&#45;IRIT/Radium&#45;Engine</text>
<text text-anchor="start" x="2374" y="-185.5" font-family="Helvetica,sans-Serif" font-size="10.00">/src/GuiBase/Viewer/Gizmo</text>
<text text-anchor="middle" x="2440" y="-174.5" font-family="Helvetica,sans-Serif" font-size="10.00">/ScaleGizmo.cpp</text>
</a>
</g>
</g>
<!-- Node2&#45;&gt;Node15 -->
<g id="edge15" class="edge"><title>Node2&#45;&gt;Node15</title>
<path fill="none" stroke="midnightblue" d="M1981.53,-274.421C2074.36,-265.67 2227.46,-248.355 2357,-220 2359.95,-219.355 2362.94,-218.656 2365.95,-217.914"/>
<polygon fill="midnightblue" stroke="midnightblue" points="1980.98,-270.957 1971.35,-275.369 1981.63,-277.927 1980.98,-270.957"/>
</g>
<!-- Node16 -->
<g id="node16" class="node"><title>Node16</title>
<g id="a_node16"><a xlink:href="TranslateGizmo_8cpp.html" target="_top" xlink:title="/home/travis/build\l/STORM&#45;IRIT/Radium&#45;Engine\l/src/GuiBase/Viewer/Gizmo\l/TranslateGizmo.cpp">
<polygon fill="white" stroke="black" points="2532,-167.5 2532,-219.5 2680,-219.5 2680,-167.5 2532,-167.5"/>
<text text-anchor="start" x="2540" y="-207.5" font-family="Helvetica,sans-Serif" font-size="10.00">/home/travis/build</text>
<text text-anchor="start" x="2540" y="-196.5" font-family="Helvetica,sans-Serif" font-size="10.00">/STORM&#45;IRIT/Radium&#45;Engine</text>
<text text-anchor="start" x="2540" y="-185.5" font-family="Helvetica,sans-Serif" font-size="10.00">/src/GuiBase/Viewer/Gizmo</text>
<text text-anchor="middle" x="2606" y="-174.5" font-family="Helvetica,sans-Serif" font-size="10.00">/TranslateGizmo.cpp</text>
</a>
</g>
</g>
<!-- Node2&#45;&gt;Node16 -->
<g id="edge16" class="edge"><title>Node2&#45;&gt;Node16</title>
<path fill="none" stroke="midnightblue" d="M1981.74,-278.55C2102.82,-273.124 2331.83,-258.355 2523,-220 2525.96,-219.407 2528.96,-218.751 2531.98,-218.045"/>
<polygon fill="midnightblue" stroke="midnightblue" points="1981.27,-275.068 1971.43,-279.001 1981.57,-282.061 1981.27,-275.068"/>
</g>
<!-- Node17 -->
<g id="node17" class="node"><title>Node17</title>
<g id="a_node17"><a xlink:href="SkeletonBoneDrawable_8hpp.html" target="_top" xlink:title="/home/travis/build\l/STORM&#45;IRIT/Radium&#45;Engine\l/Plugins/Animation/src/Drawing\l/SkeletonBoneDrawable.hpp">
<polygon fill="white" stroke="black" points="2698,-167.5 2698,-219.5 2862,-219.5 2862,-167.5 2698,-167.5"/>
<text text-anchor="start" x="2706" y="-207.5" font-family="Helvetica,sans-Serif" font-size="10.00">/home/travis/build</text>
<text text-anchor="start" x="2706" y="-196.5" font-family="Helvetica,sans-Serif" font-size="10.00">/STORM&#45;IRIT/Radium&#45;Engine</text>
<text text-anchor="start" x="2706" y="-185.5" font-family="Helvetica,sans-Serif" font-size="10.00">/Plugins/Animation/src/Drawing</text>
<text text-anchor="middle" x="2780" y="-174.5" font-family="Helvetica,sans-Serif" font-size="10.00">/SkeletonBoneDrawable.hpp</text>
</a>
</g>
</g>
<!-- Node2&#45;&gt;Node17 -->
<g id="edge17" class="edge"><title>Node2&#45;&gt;Node17</title>
<path fill="none" stroke="midnightblue" d="M1981.23,-280.355C2126.68,-277.18 2433.88,-265.201 2689,-220 2691.91,-219.485 2694.86,-218.916 2697.83,-218.304"/>
<polygon fill="midnightblue" stroke="midnightblue" points="1980.96,-276.86 1971.04,-280.569 1981.11,-283.858 1980.96,-276.86"/>
</g>
<!-- Node21 -->
<g id="node21" class="node"><title>Node21</title>
<g id="a_node21"><a xlink:href="DummyComponent_8cpp.html" target="_top" xlink:title="/home/travis/build\l/STORM&#45;IRIT/Radium&#45;Engine\l/Plugins/Dummy/src/DummyComponent.cpp">
<polygon fill="white" stroke="black" points="2880,-173 2880,-214 3110,-214 3110,-173 2880,-173"/>
<text text-anchor="start" x="2888" y="-202" font-family="Helvetica,sans-Serif" font-size="10.00">/home/travis/build</text>
<text text-anchor="start" x="2888" y="-191" font-family="Helvetica,sans-Serif" font-size="10.00">/STORM&#45;IRIT/Radium&#45;Engine</text>
<text text-anchor="middle" x="2995" y="-180" font-family="Helvetica,sans-Serif" font-size="10.00">/Plugins/Dummy/src/DummyComponent.cpp</text>
</a>
</g>
</g>
<!-- Node2&#45;&gt;Node21 -->
<g id="edge21" class="edge"><title>Node2&#45;&gt;Node21</title>
<path fill="none" stroke="midnightblue" d="M1981.37,-280.135C2150.73,-276.523 2543.9,-263.741 2871,-220 2882.98,-218.398 2895.54,-216.307 2907.87,-214.011"/>
<polygon fill="midnightblue" stroke="midnightblue" points="1981.19,-276.638 1971.27,-280.345 1981.34,-283.636 1981.19,-276.638"/>
</g>
<!-- Node22 -->
<g id="node22" class="node"><title>Node22</title>
<g id="a_node22"><a xlink:href="MeshFeatureTrackingComponent_8cpp.html" target="_top" xlink:title="/home/travis/build\l/STORM&#45;IRIT/Radium&#45;Engine\l/Plugins/MeshFeatureTracking\l/src/MeshFeatureTrackingComponent.cpp">
<polygon fill="white" stroke="black" points="3127.5,-167.5 3127.5,-219.5 3340.5,-219.5 3340.5,-167.5 3127.5,-167.5"/>
<text text-anchor="start" x="3135.5" y="-207.5" font-family="Helvetica,sans-Serif" font-size="10.00">/home/travis/build</text>
<text text-anchor="start" x="3135.5" y="-196.5" font-family="Helvetica,sans-Serif" font-size="10.00">/STORM&#45;IRIT/Radium&#45;Engine</text>
<text text-anchor="start" x="3135.5" y="-185.5" font-family="Helvetica,sans-Serif" font-size="10.00">/Plugins/MeshFeatureTracking</text>
<text text-anchor="middle" x="3234" y="-174.5" font-family="Helvetica,sans-Serif" font-size="10.00">/src/MeshFeatureTrackingComponent.cpp</text>
</a>
</g>
</g>
<!-- Node2&#45;&gt;Node22 -->
<g id="edge22" class="edge"><title>Node2&#45;&gt;Node22</title>
<path fill="none" stroke="midnightblue" d="M1981.18,-282.113C2180.08,-282.507 2694.31,-277.358 3119,-220 3121.74,-219.63 3124.5,-219.229 3127.29,-218.8"/>
<polygon fill="midnightblue" stroke="midnightblue" points="1981.1,-278.613 1971.09,-282.088 1981.08,-285.613 1981.1,-278.613"/>
</g>
<!-- Node23 -->
<g id="node23" class="node"><title>Node23</title>
<g id="a_node23"><a xlink:href="MeshPaintComponent_8cpp.html" target="_top" xlink:title="/home/travis/build\l/STORM&#45;IRIT/Radium&#45;Engine\l/Plugins/MeshPaint/src/MeshPaint\lComponent.cpp">
<polygon fill="white" stroke="black" points="3359,-167.5 3359,-219.5 3533,-219.5 3533,-167.5 3359,-167.5"/>
<text text-anchor="start" x="3367" y="-207.5" font-family="Helvetica,sans-Serif" font-size="10.00">/home/travis/build</text>
<text text-anchor="start" x="3367" y="-196.5" font-family="Helvetica,sans-Serif" font-size="10.00">/STORM&#45;IRIT/Radium&#45;Engine</text>
<text text-anchor="start" x="3367" y="-185.5" font-family="Helvetica,sans-Serif" font-size="10.00">/Plugins/MeshPaint/src/MeshPaint</text>
<text text-anchor="middle" x="3446" y="-174.5" font-family="Helvetica,sans-Serif" font-size="10.00">Component.cpp</text>
</a>
</g>
</g>
<!-- Node2&#45;&gt;Node23 -->
<g id="edge23" class="edge"><title>Node2&#45;&gt;Node23</title>
<path fill="none" stroke="midnightblue" d="M1981.33,-280.337C2249.92,-276.253 3083.38,-260.559 3350,-220 3352.9,-219.559 3355.83,-219.064 3358.79,-218.525"/>
<polygon fill="midnightblue" stroke="midnightblue" points="1981.19,-276.838 1971.25,-280.488 1981.3,-283.837 1981.19,-276.838"/>
</g>
<!-- Node24 -->
<g id="node24" class="node"><title>Node24</title>
<g id="a_node24"><a xlink:href="SkinningDisplayComponent_8hpp.html" target="_top" xlink:title="/home/travis/build\l/STORM&#45;IRIT/Radium&#45;Engine\l/Plugins/Skinning/src/Display\l/SkinningDisplayComponent.hpp">
<polygon fill="white" stroke="black" points="3551,-167.5 3551,-219.5 3723,-219.5 3723,-167.5 3551,-167.5"/>
<text text-anchor="start" x="3559" y="-207.5" font-family="Helvetica,sans-Serif" font-size="10.00">/home/travis/build</text>
<text text-anchor="start" x="3559" y="-196.5" font-family="Helvetica,sans-Serif" font-size="10.00">/STORM&#45;IRIT/Radium&#45;Engine</text>
<text text-anchor="start" x="3559" y="-185.5" font-family="Helvetica,sans-Serif" font-size="10.00">/Plugins/Skinning/src/Display</text>
<text text-anchor="middle" x="3637" y="-174.5" font-family="Helvetica,sans-Serif" font-size="10.00">/SkinningDisplayComponent.hpp</text>
</a>
</g>
</g>
<!-- Node2&#45;&gt;Node24 -->
<g id="edge24" class="edge"><title>Node2&#45;&gt;Node24</title>
<path fill="none" stroke="midnightblue" d="M1981.32,-280.85C2272.77,-278.213 3236.37,-266.131 3542,-220 3544.95,-219.554 3547.95,-219.05 3550.97,-218.497"/>
<polygon fill="midnightblue" stroke="midnightblue" points="1981.21,-277.351 1971.24,-280.94 1981.27,-284.351 1981.21,-277.351"/>
</g>
<!-- Node18 -->
<g id="node18" class="node"><title>Node18</title>
<g id="a_node18"><a xlink:href="AnimationComponent_8cpp.html" target="_top" xlink:title="/home/travis/build\l/STORM&#45;IRIT/Radium&#45;Engine\l/Plugins/Animation/src/Animation\lComponent.cpp">
<polygon fill="white" stroke="black" points="2501,-78.5 2501,-130.5 2675,-130.5 2675,-78.5 2501,-78.5"/>
<text text-anchor="start" x="2509" y="-118.5" font-family="Helvetica,sans-Serif" font-size="10.00">/home/travis/build</text>
<text text-anchor="start" x="2509" y="-107.5" font-family="Helvetica,sans-Serif" font-size="10.00">/STORM&#45;IRIT/Radium&#45;Engine</text>
<text text-anchor="start" x="2509" y="-96.5" font-family="Helvetica,sans-Serif" font-size="10.00">/Plugins/Animation/src/Animation</text>
<text text-anchor="middle" x="2588" y="-85.5" font-family="Helvetica,sans-Serif" font-size="10.00">Component.cpp</text>
</a>
</g>
</g>
<!-- Node17&#45;&gt;Node18 -->
<g id="edge18" class="edge"><title>Node17&#45;&gt;Node18</title>
<path fill="none" stroke="midnightblue" d="M2715.55,-163.295C2692.09,-152.665 2665.8,-140.755 2643.22,-130.521"/>
<polygon fill="midnightblue" stroke="midnightblue" points="2714.17,-166.513 2724.72,-167.453 2717.06,-160.137 2714.17,-166.513"/>
</g>
<!-- Node19 -->
<g id="node19" class="node"><title>Node19</title>
<g id="a_node19"><a xlink:href="AnimationSystem_8cpp.html" target="_top" xlink:title="/home/travis/build\l/STORM&#45;IRIT/Radium&#45;Engine\l/Plugins/Animation/src/Animation\lSystem.cpp">
<polygon fill="white" stroke="black" points="2693,-78.5 2693,-130.5 2867,-130.5 2867,-78.5 2693,-78.5"/>
<text text-anchor="start" x="2701" y="-118.5" font-family="Helvetica,sans-Serif" font-size="10.00">/home/travis/build</text>
<text text-anchor="start" x="2701" y="-107.5" font-family="Helvetica,sans-Serif" font-size="10.00">/STORM&#45;IRIT/Radium&#45;Engine</text>
<text text-anchor="start" x="2701" y="-96.5" font-family="Helvetica,sans-Serif" font-size="10.00">/Plugins/Animation/src/Animation</text>
<text text-anchor="middle" x="2780" y="-85.5" font-family="Helvetica,sans-Serif" font-size="10.00">System.cpp</text>
</a>
</g>
</g>
<!-- Node17&#45;&gt;Node19 -->
<g id="edge19" class="edge"><title>Node17&#45;&gt;Node19</title>
<path fill="none" stroke="midnightblue" d="M2780,-157.191C2780,-148.282 2780,-138.899 2780,-130.607"/>
<polygon fill="midnightblue" stroke="midnightblue" points="2776.5,-157.336 2780,-167.336 2783.5,-157.336 2776.5,-157.336"/>
</g>
<!-- Node20 -->
<g id="node20" class="node"><title>Node20</title>
<g id="a_node20"><a xlink:href="SkeletonBoneDrawable_8cpp.html" target="_top" xlink:title="/home/travis/build\l/STORM&#45;IRIT/Radium&#45;Engine\l/Plugins/Animation/src/Drawing\l/SkeletonBoneDrawable.cpp">
<polygon fill="white" stroke="black" points="2885,-78.5 2885,-130.5 3049,-130.5 3049,-78.5 2885,-78.5"/>
<text text-anchor="start" x="2893" y="-118.5" font-family="Helvetica,sans-Serif" font-size="10.00">/home/travis/build</text>
<text text-anchor="start" x="2893" y="-107.5" font-family="Helvetica,sans-Serif" font-size="10.00">/STORM&#45;IRIT/Radium&#45;Engine</text>
<text text-anchor="start" x="2893" y="-96.5" font-family="Helvetica,sans-Serif" font-size="10.00">/Plugins/Animation/src/Drawing</text>
<text text-anchor="middle" x="2967" y="-85.5" font-family="Helvetica,sans-Serif" font-size="10.00">/SkeletonBoneDrawable.cpp</text>
</a>
</g>
</g>
<!-- Node17&#45;&gt;Node20 -->
<g id="edge20" class="edge"><title>Node17&#45;&gt;Node20</title>
<path fill="none" stroke="midnightblue" d="M2843.08,-163.153C2865.85,-152.56 2891.32,-140.71 2913.22,-130.521"/>
<polygon fill="midnightblue" stroke="midnightblue" points="2841.43,-160.061 2833.84,-167.453 2844.38,-166.408 2841.43,-160.061"/>
</g>
<!-- Node25 -->
<g id="node25" class="node"><title>Node25</title>
<g id="a_node25"><a xlink:href="SkinningSystem_8hpp.html" target="_top" xlink:title="/home/travis/build\l/STORM&#45;IRIT/Radium&#45;Engine\l/Plugins/Skinning/src/SkinningSystem.hpp">
<polygon fill="white" stroke="black" points="3529.5,-84 3529.5,-125 3744.5,-125 3744.5,-84 3529.5,-84"/>
<text text-anchor="start" x="3537.5" y="-113" font-family="Helvetica,sans-Serif" font-size="10.00">/home/travis/build</text>
<text text-anchor="start" x="3537.5" y="-102" font-family="Helvetica,sans-Serif" font-size="10.00">/STORM&#45;IRIT/Radium&#45;Engine</text>
<text text-anchor="middle" x="3637" y="-91" font-family="Helvetica,sans-Serif" font-size="10.00">/Plugins/Skinning/src/SkinningSystem.hpp</text>
</a>
</g>
</g>
<!-- Node24&#45;&gt;Node25 -->
<g id="edge25" class="edge"><title>Node24&#45;&gt;Node25</title>
<path fill="none" stroke="midnightblue" d="M3637,-157.155C3637,-146.21 3637,-134.549 3637,-125.082"/>
<polygon fill="midnightblue" stroke="midnightblue" points="3633.5,-157.336 3637,-167.336 3640.5,-157.336 3633.5,-157.336"/>
</g>
<!-- Node26 -->
<g id="node26" class="node"><title>Node26</title>
<g id="a_node26"><a xlink:href="SkinningPlugin_8cpp.html" target="_top" xlink:title="/home/travis/build\l/STORM&#45;IRIT/Radium&#45;Engine\l/Plugins/Skinning/src/SkinningPlugin.cpp">
<polygon fill="white" stroke="black" points="3534,-0.5 3534,-41.5 3740,-41.5 3740,-0.5 3534,-0.5"/>
<text text-anchor="start" x="3542" y="-29.5" font-family="Helvetica,sans-Serif" font-size="10.00">/home/travis/build</text>
<text text-anchor="start" x="3542" y="-18.5" font-family="Helvetica,sans-Serif" font-size="10.00">/STORM&#45;IRIT/Radium&#45;Engine</text>
<text text-anchor="middle" x="3637" y="-7.5" font-family="Helvetica,sans-Serif" font-size="10.00">/Plugins/Skinning/src/SkinningPlugin.cpp</text>
</a>
</g>
</g>
<!-- Node25&#45;&gt;Node26 -->
<g id="edge26" class="edge"><title>Node25&#45;&gt;Node26</title>
<path fill="none" stroke="midnightblue" d="M3637,-73.5646C3637,-62.8819 3637,-51.1303 3637,-41.5472"/>
<polygon fill="midnightblue" stroke="midnightblue" points="3633.5,-73.7711 3637,-83.7711 3640.5,-73.7712 3633.5,-73.7711"/>
</g>
</g>
</svg>
