<?xml version="1.0" encoding="UTF-8" standalone="no"?>
<!DOCTYPE svg PUBLIC "-//W3C//DTD SVG 1.1//EN"
 "http://www.w3.org/Graphics/SVG/1.1/DTD/svg11.dtd">
<!-- Generated by graphviz version 2.38.0 (20140413.2041)
 -->
<!-- Title: /home/travis/build/STORM&#45;IRIT/Radium&#45;Engine/Plugins/MeshFeatureTracking/src/MeshFeatureTrackingPluginMacros.hpp Pages: 1 -->
<svg width="426pt" height="239pt"
 viewBox="0.00 0.00 426.00 239.00" xmlns="http://www.w3.org/2000/svg" xmlns:xlink="http://www.w3.org/1999/xlink">
<g id="graph0" class="graph" transform="scale(1 1) rotate(0) translate(4 235)">
<title>/home/travis/build/STORM&#45;IRIT/Radium&#45;Engine/Plugins/MeshFeatureTracking/src/MeshFeatureTrackingPluginMacros.hpp</title>
<polygon fill="white" stroke="none" points="-4,4 -4,-235 422,-235 422,4 -4,4"/>
<!-- Node1 -->
<g id="node1" class="node"><title>Node1</title>
<polygon fill="#bfbfbf" stroke="black" points="105.5,-178.5 105.5,-230.5 326.5,-230.5 326.5,-178.5 105.5,-178.5"/>
<text text-anchor="start" x="113.5" y="-218.5" font-family="Helvetica,sans-Serif" font-size="10.00">/home/travis/build</text>
<text text-anchor="start" x="113.5" y="-207.5" font-family="Helvetica,sans-Serif" font-size="10.00">/STORM&#45;IRIT/Radium&#45;Engine</text>
<text text-anchor="start" x="113.5" y="-196.5" font-family="Helvetica,sans-Serif" font-size="10.00">/Plugins/MeshFeatureTracking</text>
<text text-anchor="middle" x="216" y="-185.5" font-family="Helvetica,sans-Serif" font-size="10.00">/src/MeshFeatureTrackingPluginMacros.hpp</text>
</g>
<!-- Node2 -->
<g id="node2" class="node"><title>Node2</title>
<g id="a_node2"><a xlink:href="MeshFeatureTrackingComponent_8hpp.html" target="_top" xlink:title="/home/travis/build\l/STORM&#45;IRIT/Radium&#45;Engine\l/Plugins/MeshFeatureTracking\l/src/MeshFeatureTrackingComponent.hpp">
<polygon fill="white" stroke="black" points="0,-89.5 0,-141.5 214,-141.5 214,-89.5 0,-89.5"/>
<text text-anchor="start" x="8" y="-129.5" font-family="Helvetica,sans-Serif" font-size="10.00">/home/travis/build</text>
<text text-anchor="start" x="8" y="-118.5" font-family="Helvetica,sans-Serif" font-size="10.00">/STORM&#45;IRIT/Radium&#45;Engine</text>
<text text-anchor="start" x="8" y="-107.5" font-family="Helvetica,sans-Serif" font-size="10.00">/Plugins/MeshFeatureTracking</text>
<text text-anchor="middle" x="107" y="-96.5" font-family="Helvetica,sans-Serif" font-size="10.00">/src/MeshFeatureTrackingComponent.hpp</text>
</a>
</g>
</g>
<!-- Node1&#45;&gt;Node2 -->
<g id="edge1" class="edge"><title>Node1&#45;&gt;Node2</title>
<path fill="none" stroke="midnightblue" d="M176.452,-171.934C163.951,-161.956 150.312,-151.07 138.456,-141.607"/>
<polygon fill="midnightblue" stroke="midnightblue" points="174.474,-174.833 184.473,-178.336 178.84,-169.362 174.474,-174.833"/>
</g>
<!-- Node5 -->
<g id="node5" class="node"><title>Node5</title>
<g id="a_node5"><a xlink:href="MeshFeatureTrackingPlugin_8hpp.html" target="_top" xlink:title="/home/travis/build\l/STORM&#45;IRIT/Radium&#45;Engine\l/Plugins/MeshFeatureTracking\l/src/MeshFeatureTrackingPlugin.hpp">
<polygon fill="white" stroke="black" points="232,-89.5 232,-141.5 418,-141.5 418,-89.5 232,-89.5"/>
<text text-anchor="start" x="240" y="-129.5" font-family="Helvetica,sans-Serif" font-size="10.00">/home/travis/build</text>
<text text-anchor="start" x="240" y="-118.5" font-family="Helvetica,sans-Serif" font-size="10.00">/STORM&#45;IRIT/Radium&#45;Engine</text>
<text text-anchor="start" x="240" y="-107.5" font-family="Helvetica,sans-Serif" font-size="10.00">/Plugins/MeshFeatureTracking</text>
<text text-anchor="middle" x="325" y="-96.5" font-family="Helvetica,sans-Serif" font-size="10.00">/src/MeshFeatureTrackingPlugin.hpp</text>
</a>
</g>
</g>
<!-- Node1&#45;&gt;Node5 -->
<g id="edge4" class="edge"><title>Node1&#45;&gt;Node5</title>
<path fill="none" stroke="midnightblue" d="M255.548,-171.934C268.049,-161.956 281.688,-151.07 293.544,-141.607"/>
<polygon fill="midnightblue" stroke="midnightblue" points="253.16,-169.362 247.527,-178.336 257.526,-174.833 253.16,-169.362"/>
</g>
<!-- Node3 -->
<g id="node3" class="node"><title>Node3</title>
<g id="a_node3"><a xlink:href="MeshFeatureTrackingComponent_8cpp.html" target="_top" xlink:title="/home/travis/build\l/STORM&#45;IRIT/Radium&#45;Engine\l/Plugins/MeshFeatureTracking\l/src/MeshFeatureTrackingComponent.cpp">
<polygon fill="white" stroke="black" points="0.5,-0.5 0.5,-52.5 213.5,-52.5 213.5,-0.5 0.5,-0.5"/>
<text text-anchor="start" x="8.5" y="-40.5" font-family="Helvetica,sans-Serif" font-size="10.00">/home/travis/build</text>
<text text-anchor="start" x="8.5" y="-29.5" font-family="Helvetica,sans-Serif" font-size="10.00">/STORM&#45;IRIT/Radium&#45;Engine</text>
<text text-anchor="start" x="8.5" y="-18.5" font-family="Helvetica,sans-Serif" font-size="10.00">/Plugins/MeshFeatureTracking</text>
<text text-anchor="middle" x="107" y="-7.5" font-family="Helvetica,sans-Serif" font-size="10.00">/src/MeshFeatureTrackingComponent.cpp</text>
</a>
</g>
</g>
<!-- Node2&#45;&gt;Node3 -->
<g id="edge2" class="edge"><title>Node2&#45;&gt;Node3</title>
<path fill="none" stroke="midnightblue" d="M107,-79.1908C107,-70.2824 107,-60.8986 107,-52.6075"/>
<polygon fill="midnightblue" stroke="midnightblue" points="103.5,-79.336 107,-89.336 110.5,-79.336 103.5,-79.336"/>
</g>
<!-- Node4 -->
<g id="node4" class="node"><title>Node4</title>
<g id="a_node4"><a xlink:href="MeshFeatureTrackingPlugin_8cpp.html" target="_top" xlink:title="/home/travis/build\l/STORM&#45;IRIT/Radium&#45;Engine\l/Plugins/MeshFeatureTracking\l/src/MeshFeatureTrackingPlugin.cpp">
<polygon fill="white" stroke="black" points="231.5,-0.5 231.5,-52.5 416.5,-52.5 416.5,-0.5 231.5,-0.5"/>
<text text-anchor="start" x="239.5" y="-40.5" font-family="Helvetica,sans-Serif" font-size="10.00">/home/travis/build</text>
<text text-anchor="start" x="239.5" y="-29.5" font-family="Helvetica,sans-Serif" font-size="10.00">/STORM&#45;IRIT/Radium&#45;Engine</text>
<text text-anchor="start" x="239.5" y="-18.5" font-family="Helvetica,sans-Serif" font-size="10.00">/Plugins/MeshFeatureTracking</text>
<text text-anchor="middle" x="324" y="-7.5" font-family="Helvetica,sans-Serif" font-size="10.00">/src/MeshFeatureTrackingPlugin.cpp</text>
</a>
</g>
</g>
<!-- Node2&#45;&gt;Node4 -->
<g id="edge3" class="edge"><title>Node2&#45;&gt;Node4</title>
<path fill="none" stroke="midnightblue" d="M178.792,-85.7171C205.568,-74.9819 235.726,-62.891 261.591,-52.5211"/>
<polygon fill="midnightblue" stroke="midnightblue" points="177.454,-82.4827 169.474,-89.4527 180.059,-88.98 177.454,-82.4827"/>
</g>
<!-- Node5&#45;&gt;Node4 -->
<g id="edge5" class="edge"><title>Node5&#45;&gt;Node4</title>
<path fill="none" stroke="midnightblue" d="M324.594,-79.1908C324.492,-70.2824 324.384,-60.8986 324.289,-52.6075"/>
<polygon fill="midnightblue" stroke="midnightblue" points="321.096,-79.3769 324.711,-89.336 328.095,-79.2964 321.096,-79.3769"/>
</g>
</g>
</svg>
