<?xml version="1.0" encoding="UTF-8" standalone="no"?>
<!DOCTYPE svg PUBLIC "-//W3C//DTD SVG 1.1//EN"
 "http://www.w3.org/Graphics/SVG/1.1/DTD/svg11.dtd">
<!-- Generated by graphviz version 2.38.0 (20140413.2041)
 -->
<!-- Title: /home/travis/build/STORM&#45;IRIT/Radium&#45;Engine/Plugins/MeshPaint/src/UI/MeshPaintUI.cpp Pages: 1 -->
<svg width="1081pt" height="453pt"
 viewBox="0.00 0.00 1081.00 453.00" xmlns="http://www.w3.org/2000/svg" xmlns:xlink="http://www.w3.org/1999/xlink">
<g id="graph0" class="graph" transform="scale(1 1) rotate(0) translate(4 449)">
<title>/home/travis/build/STORM&#45;IRIT/Radium&#45;Engine/Plugins/MeshPaint/src/UI/MeshPaintUI.cpp</title>
<polygon fill="white" stroke="none" points="-4,4 -4,-449 1077,-449 1077,4 -4,4"/>
<!-- Node1 -->
<g id="node1" class="node"><title>Node1</title>
<polygon fill="#bfbfbf" stroke="black" points="810,-392.5 810,-444.5 958,-444.5 958,-392.5 810,-392.5"/>
<text text-anchor="start" x="818" y="-432.5" font-family="Helvetica,sans-Serif" font-size="10.00">/home/travis/build</text>
<text text-anchor="start" x="818" y="-421.5" font-family="Helvetica,sans-Serif" font-size="10.00">/STORM&#45;IRIT/Radium&#45;Engine</text>
<text text-anchor="start" x="818" y="-410.5" font-family="Helvetica,sans-Serif" font-size="10.00">/Plugins/MeshPaint/src/UI</text>
<text text-anchor="middle" x="884" y="-399.5" font-family="Helvetica,sans-Serif" font-size="10.00">/MeshPaintUI.cpp</text>
</g>
<!-- Node2 -->
<g id="node2" class="node"><title>Node2</title>
<g id="a_node2"><a xlink:href="MeshPaintUI_8h.html" target="_top" xlink:title="MeshPaintUI.h">
<polygon fill="white" stroke="black" points="172,-336.5 172,-355.5 256,-355.5 256,-336.5 172,-336.5"/>
<text text-anchor="middle" x="214" y="-343.5" font-family="Helvetica,sans-Serif" font-size="10.00">MeshPaintUI.h</text>
</a>
</g>
</g>
<!-- Node1&#45;&gt;Node2 -->
<g id="edge1" class="edge"><title>Node1&#45;&gt;Node2</title>
<path fill="none" stroke="midnightblue" d="M809.738,-409.686C672.983,-395.296 384.515,-364.942 266.254,-352.498"/>
<polygon fill="midnightblue" stroke="midnightblue" points="266.332,-348.987 256.02,-351.422 265.599,-355.949 266.332,-348.987"/>
</g>
<!-- Node10 -->
<g id="node10" class="node"><title>Node10</title>
<polygon fill="white" stroke="#bfbfbf" points="674.5,-0.5 674.5,-19.5 733.5,-19.5 733.5,-0.5 674.5,-0.5"/>
<text text-anchor="middle" x="704" y="-7.5" font-family="Helvetica,sans-Serif" font-size="10.00">iostream</text>
</g>
<!-- Node1&#45;&gt;Node10 -->
<g id="edge30" class="edge"><title>Node1&#45;&gt;Node10</title>
<path fill="none" stroke="midnightblue" d="M873.055,-392.352C863.116,-367.2 850,-327.159 850,-291 850,-291 850,-291 850,-121 850,-67.4142 786.487,-36.6623 743.242,-21.9346"/>
<polygon fill="midnightblue" stroke="midnightblue" points="744.137,-18.5453 733.545,-18.7814 741.973,-25.2022 744.137,-18.5453"/>
</g>
<!-- Node27 -->
<g id="node27" class="node"><title>Node27</title>
<polygon fill="white" stroke="#bfbfbf" points="878.5,-336.5 878.5,-355.5 957.5,-355.5 957.5,-336.5 878.5,-336.5"/>
<text text-anchor="middle" x="918" y="-343.5" font-family="Helvetica,sans-Serif" font-size="10.00">QColorDialog</text>
</g>
<!-- Node1&#45;&gt;Node27 -->
<g id="edge31" class="edge"><title>Node1&#45;&gt;Node27</title>
<path fill="none" stroke="midnightblue" d="M896.083,-392.446C900.479,-383.329 905.356,-373.217 909.391,-364.851"/>
<polygon fill="midnightblue" stroke="midnightblue" points="912.615,-366.223 913.806,-355.695 906.31,-363.182 912.615,-366.223"/>
</g>
<!-- Node28 -->
<g id="node28" class="node"><title>Node28</title>
<polygon fill="white" stroke="#bfbfbf" points="975,-336.5 975,-355.5 1073,-355.5 1073,-336.5 975,-336.5"/>
<text text-anchor="middle" x="1024" y="-343.5" font-family="Helvetica,sans-Serif" font-size="10.00">ui_MeshPaintUI.h</text>
</g>
<!-- Node1&#45;&gt;Node28 -->
<g id="edge32" class="edge"><title>Node1&#45;&gt;Node28</title>
<path fill="none" stroke="midnightblue" d="M933.753,-392.446C955.371,-381.56 979.808,-369.254 997.796,-360.196"/>
<polygon fill="midnightblue" stroke="midnightblue" points="999.71,-363.151 1007.07,-355.527 996.561,-356.899 999.71,-363.151"/>
</g>
<!-- Node3 -->
<g id="node3" class="node"><title>Node3</title>
<polygon fill="white" stroke="#bfbfbf" points="51,-280.5 51,-299.5 105,-299.5 105,-280.5 51,-280.5"/>
<text text-anchor="middle" x="78" y="-287.5" font-family="Helvetica,sans-Serif" font-size="10.00">QFrame</text>
</g>
<!-- Node2&#45;&gt;Node3 -->
<g id="edge2" class="edge"><title>Node2&#45;&gt;Node3</title>
<path fill="none" stroke="midnightblue" d="M192.45,-336.444C169.969,-327.517 134.512,-313.439 109.02,-303.317"/>
<polygon fill="midnightblue" stroke="midnightblue" points="110.035,-299.954 99.4488,-299.516 107.451,-306.46 110.035,-299.954"/>
</g>
<!-- Node4 -->
<g id="node4" class="node"><title>Node4</title>
<polygon fill="white" stroke="#bfbfbf" points="123.5,-280.5 123.5,-299.5 172.5,-299.5 172.5,-280.5 123.5,-280.5"/>
<text text-anchor="middle" x="148" y="-287.5" font-family="Helvetica,sans-Serif" font-size="10.00">QColor</text>
</g>
<!-- Node2&#45;&gt;Node4 -->
<g id="edge3" class="edge"><title>Node2&#45;&gt;Node4</title>
<path fill="none" stroke="midnightblue" d="M203.396,-336.324C193.544,-328.263 178.649,-316.077 166.785,-306.369"/>
<polygon fill="midnightblue" stroke="midnightblue" points="168.753,-303.457 158.797,-299.834 164.32,-308.875 168.753,-303.457"/>
</g>
<!-- Node5 -->
<g id="node5" class="node"><title>Node5</title>
<g id="a_node5"><a xlink:href="PickingManager_8hpp.html" target="_top" xlink:title="GuiBase/Utils/PickingManager.hpp">
<polygon fill="white" stroke="black" points="190.5,-280.5 190.5,-299.5 369.5,-299.5 369.5,-280.5 190.5,-280.5"/>
<text text-anchor="middle" x="280" y="-287.5" font-family="Helvetica,sans-Serif" font-size="10.00">GuiBase/Utils/PickingManager.hpp</text>
</a>
</g>
</g>
<!-- Node2&#45;&gt;Node5 -->
<g id="edge4" class="edge"><title>Node2&#45;&gt;Node5</title>
<path fill="none" stroke="midnightblue" d="M224.604,-336.324C234.456,-328.263 249.351,-316.077 261.215,-306.369"/>
<polygon fill="midnightblue" stroke="midnightblue" points="263.68,-308.875 269.203,-299.834 259.247,-303.457 263.68,-308.875"/>
</g>
<!-- Node6 -->
<g id="node6" class="node"><title>Node6</title>
<g id="a_node6"><a xlink:href="RaGuiBase_8hpp.html" target="_top" xlink:title="GuiBase/RaGuiBase.hpp">
<polygon fill="white" stroke="black" points="0,-224.5 0,-243.5 132,-243.5 132,-224.5 0,-224.5"/>
<text text-anchor="middle" x="66" y="-231.5" font-family="Helvetica,sans-Serif" font-size="10.00">GuiBase/RaGuiBase.hpp</text>
</a>
</g>
</g>
<!-- Node5&#45;&gt;Node6 -->
<g id="edge5" class="edge"><title>Node5&#45;&gt;Node6</title>
<path fill="none" stroke="midnightblue" d="M246.091,-280.444C209.151,-271.122 149.946,-256.183 109.582,-245.997"/>
<polygon fill="midnightblue" stroke="midnightblue" points="110.303,-242.57 99.7503,-243.516 108.59,-249.357 110.303,-242.57"/>
</g>
<!-- Node13 -->
<g id="node13" class="node"><title>Node13</title>
<g id="a_node13"><a xlink:href="Renderer_8hpp.html" target="_top" xlink:title="Engine/Renderer/Renderer.hpp">
<polygon fill="white" stroke="black" points="199.5,-224.5 199.5,-243.5 360.5,-243.5 360.5,-224.5 199.5,-224.5"/>
<text text-anchor="middle" x="280" y="-231.5" font-family="Helvetica,sans-Serif" font-size="10.00">Engine/Renderer/Renderer.hpp</text>
</a>
</g>
</g>
<!-- Node5&#45;&gt;Node13 -->
<g id="edge12" class="edge"><title>Node5&#45;&gt;Node13</title>
<path fill="none" stroke="midnightblue" d="M280,-280.083C280,-273.006 280,-262.861 280,-253.986"/>
<polygon fill="midnightblue" stroke="midnightblue" points="283.5,-253.751 280,-243.751 276.5,-253.751 283.5,-253.751"/>
</g>
<!-- Node7 -->
<g id="node7" class="node"><title>Node7</title>
<g id="a_node7"><a xlink:href="CoreMacros_8hpp.html" target="_top" xlink:title="Core/CoreMacros.hpp">
<polygon fill="white" stroke="black" points="209,-56.5 209,-75.5 329,-75.5 329,-56.5 209,-56.5"/>
<text text-anchor="middle" x="269" y="-63.5" font-family="Helvetica,sans-Serif" font-size="10.00">Core/CoreMacros.hpp</text>
</a>
</g>
</g>
<!-- Node6&#45;&gt;Node7 -->
<g id="edge6" class="edge"><title>Node6&#45;&gt;Node7</title>
<path fill="none" stroke="midnightblue" d="M61.5777,-224.185C51.3482,-202.405 28.9184,-145.401 56,-112 73.843,-89.9935 143.836,-78.3291 198.78,-72.4409"/>
<polygon fill="midnightblue" stroke="midnightblue" points="199.258,-75.9103 208.848,-71.4074 198.543,-68.9469 199.258,-75.9103"/>
</g>
<!-- Node8 -->
<g id="node8" class="node"><title>Node8</title>
<polygon fill="white" stroke="#bfbfbf" points="142,-0.5 142,-19.5 194,-19.5 194,-0.5 142,-0.5"/>
<text text-anchor="middle" x="168" y="-7.5" font-family="Helvetica,sans-Serif" font-size="10.00">cassert</text>
</g>
<!-- Node7&#45;&gt;Node8 -->
<g id="edge7" class="edge"><title>Node7&#45;&gt;Node8</title>
<path fill="none" stroke="midnightblue" d="M252.773,-56.324C236.649,-47.7034 211.7,-34.3643 193.036,-24.3855"/>
<polygon fill="midnightblue" stroke="midnightblue" points="194.656,-21.283 184.187,-19.6545 191.356,-27.456 194.656,-21.283"/>
</g>
<!-- Node9 -->
<g id="node9" class="node"><title>Node9</title>
<polygon fill="white" stroke="#bfbfbf" points="212.5,-0.5 212.5,-19.5 257.5,-19.5 257.5,-0.5 212.5,-0.5"/>
<text text-anchor="middle" x="235" y="-7.5" font-family="Helvetica,sans-Serif" font-size="10.00">cstdio</text>
</g>
<!-- Node7&#45;&gt;Node9 -->
<g id="edge8" class="edge"><title>Node7&#45;&gt;Node9</title>
<path fill="none" stroke="midnightblue" d="M263.386,-56.083C258.633,-48.5341 251.682,-37.4948 245.848,-28.2298"/>
<polygon fill="midnightblue" stroke="midnightblue" points="248.8,-26.3486 240.51,-19.7511 242.876,-30.0783 248.8,-26.3486"/>
</g>
<!-- Node7&#45;&gt;Node10 -->
<g id="edge9" class="edge"><title>Node7&#45;&gt;Node10</title>
<path fill="none" stroke="midnightblue" d="M329.028,-57.5482C419.293,-46.343 587.547,-25.4562 664.16,-15.9456"/>
<polygon fill="midnightblue" stroke="midnightblue" points="664.852,-19.3867 674.345,-14.6813 663.99,-12.44 664.852,-19.3867"/>
</g>
<!-- Node11 -->
<g id="node11" class="node"><title>Node11</title>
<polygon fill="white" stroke="#bfbfbf" points="276,-0.5 276,-19.5 332,-19.5 332,-0.5 276,-0.5"/>
<text text-anchor="middle" x="304" y="-7.5" font-family="Helvetica,sans-Serif" font-size="10.00">sstream</text>
</g>
<!-- Node7&#45;&gt;Node11 -->
<g id="edge10" class="edge"><title>Node7&#45;&gt;Node11</title>
<path fill="none" stroke="midnightblue" d="M274.78,-56.083C279.672,-48.5341 286.827,-37.4948 292.833,-28.2298"/>
<polygon fill="midnightblue" stroke="midnightblue" points="295.826,-30.0463 298.328,-19.7511 289.952,-26.239 295.826,-30.0463"/>
</g>
<!-- Node12 -->
<g id="node12" class="node"><title>Node12</title>
<polygon fill="white" stroke="#bfbfbf" points="350,-0.5 350,-19.5 398,-19.5 398,-0.5 350,-0.5"/>
<text text-anchor="middle" x="374" y="-7.5" font-family="Helvetica,sans-Serif" font-size="10.00">thread</text>
</g>
<!-- Node7&#45;&gt;Node12 -->
<g id="edge11" class="edge"><title>Node7&#45;&gt;Node12</title>
<path fill="none" stroke="midnightblue" d="M285.87,-56.324C302.709,-47.6641 328.807,-34.2424 348.238,-24.249"/>
<polygon fill="midnightblue" stroke="midnightblue" points="349.88,-27.3405 357.172,-19.6545 346.678,-21.1155 349.88,-27.3405"/>
</g>
<!-- Node14 -->
<g id="node14" class="node"><title>Node14</title>
<g id="a_node14"><a xlink:href="RaEngine_8hpp.html" target="_top" xlink:title="Engine/RaEngine.hpp">
<polygon fill="white" stroke="black" points="64.5,-112.5 64.5,-131.5 181.5,-131.5 181.5,-112.5 64.5,-112.5"/>
<text text-anchor="middle" x="123" y="-119.5" font-family="Helvetica,sans-Serif" font-size="10.00">Engine/RaEngine.hpp</text>
</a>
</g>
</g>
<!-- Node13&#45;&gt;Node14 -->
<g id="edge13" class="edge"><title>Node13&#45;&gt;Node14</title>
<path fill="none" stroke="midnightblue" d="M199.257,-225.583C148.886,-219.095 90.7288,-207.556 75,-188 61.4,-171.091 81.7611,-150.884 100.007,-137.538"/>
<polygon fill="midnightblue" stroke="midnightblue" points="102.394,-140.143 108.636,-131.582 98.4179,-134.382 102.394,-140.143"/>
</g>
<!-- Node15 -->
<g id="node15" class="node"><title>Node15</title>
<polygon fill="white" stroke="#bfbfbf" points="83.5,-168.5 83.5,-187.5 124.5,-187.5 124.5,-168.5 83.5,-168.5"/>
<text text-anchor="middle" x="104" y="-175.5" font-family="Helvetica,sans-Serif" font-size="10.00">array</text>
</g>
<!-- Node13&#45;&gt;Node15 -->
<g id="edge15" class="edge"><title>Node13&#45;&gt;Node15</title>
<path fill="none" stroke="midnightblue" d="M252.112,-224.444C219.962,-214.579 167.308,-198.424 134.208,-188.268"/>
<polygon fill="midnightblue" stroke="midnightblue" points="135.195,-184.91 124.608,-185.323 133.142,-191.602 135.195,-184.91"/>
</g>
<!-- Node16 -->
<g id="node16" class="node"><title>Node16</title>
<polygon fill="white" stroke="#bfbfbf" points="272,-112.5 272,-131.5 322,-131.5 322,-112.5 272,-112.5"/>
<text text-anchor="middle" x="297" y="-119.5" font-family="Helvetica,sans-Serif" font-size="10.00">chrono</text>
</g>
<!-- Node13&#45;&gt;Node16 -->
<g id="edge16" class="edge"><title>Node13&#45;&gt;Node16</title>
<path fill="none" stroke="midnightblue" d="M237.724,-224.448C199.827,-214.749 153.04,-196.478 173,-168 192.902,-139.606 232.637,-129.057 261.783,-125.178"/>
<polygon fill="midnightblue" stroke="midnightblue" points="262.44,-128.626 271.986,-124.029 261.657,-121.67 262.44,-128.626"/>
</g>
<!-- Node17 -->
<g id="node17" class="node"><title>Node17</title>
<polygon fill="white" stroke="#bfbfbf" points="181.5,-168.5 181.5,-187.5 238.5,-187.5 238.5,-168.5 181.5,-168.5"/>
<text text-anchor="middle" x="210" y="-175.5" font-family="Helvetica,sans-Serif" font-size="10.00">memory</text>
</g>
<!-- Node13&#45;&gt;Node17 -->
<g id="edge17" class="edge"><title>Node13&#45;&gt;Node17</title>
<path fill="none" stroke="midnightblue" d="M268.753,-224.324C258.203,-216.185 242.199,-203.839 229.558,-194.087"/>
<polygon fill="midnightblue" stroke="midnightblue" points="231.507,-191.171 221.451,-187.834 227.231,-196.713 231.507,-191.171"/>
</g>
<!-- Node18 -->
<g id="node18" class="node"><title>Node18</title>
<polygon fill="white" stroke="#bfbfbf" points="256.5,-168.5 256.5,-187.5 303.5,-187.5 303.5,-168.5 256.5,-168.5"/>
<text text-anchor="middle" x="280" y="-175.5" font-family="Helvetica,sans-Serif" font-size="10.00">mutex</text>
</g>
<!-- Node13&#45;&gt;Node18 -->
<g id="edge18" class="edge"><title>Node13&#45;&gt;Node18</title>
<path fill="none" stroke="midnightblue" d="M280,-224.083C280,-217.006 280,-206.861 280,-197.986"/>
<polygon fill="midnightblue" stroke="midnightblue" points="283.5,-197.751 280,-187.751 276.5,-197.751 283.5,-197.751"/>
</g>
<!-- Node19 -->
<g id="node19" class="node"><title>Node19</title>
<polygon fill="white" stroke="#bfbfbf" points="321.5,-168.5 321.5,-187.5 368.5,-187.5 368.5,-168.5 321.5,-168.5"/>
<text text-anchor="middle" x="345" y="-175.5" font-family="Helvetica,sans-Serif" font-size="10.00">vector</text>
</g>
<!-- Node13&#45;&gt;Node19 -->
<g id="edge19" class="edge"><title>Node13&#45;&gt;Node19</title>
<path fill="none" stroke="midnightblue" d="M290.443,-224.324C300.146,-216.263 314.815,-204.077 326.5,-194.369"/>
<polygon fill="midnightblue" stroke="midnightblue" points="328.911,-196.916 334.367,-187.834 324.438,-191.532 328.911,-196.916"/>
</g>
<!-- Node20 -->
<g id="node20" class="node"><title>Node20</title>
<g id="a_node20"><a xlink:href="Types_8hpp.html" target="_top" xlink:title="Core/Math/Types.hpp">
<polygon fill="white" stroke="black" points="518,-168.5 518,-187.5 634,-187.5 634,-168.5 518,-168.5"/>
<text text-anchor="middle" x="576" y="-175.5" font-family="Helvetica,sans-Serif" font-size="10.00">Core/Math/Types.hpp</text>
</a>
</g>
</g>
<!-- Node13&#45;&gt;Node20 -->
<g id="edge20" class="edge"><title>Node13&#45;&gt;Node20</title>
<path fill="none" stroke="midnightblue" d="M326.902,-224.444C379.08,-214.925 463.371,-199.547 519.232,-189.356"/>
<polygon fill="midnightblue" stroke="midnightblue" points="520.108,-192.754 529.317,-187.516 518.852,-185.868 520.108,-192.754"/>
</g>
<!-- Node25 -->
<g id="node25" class="node"><title>Node25</title>
<g id="a_node25"><a xlink:href="Timer_8hpp.html" target="_top" xlink:title="Core/Utils/Timer.hpp">
<polygon fill="white" stroke="black" points="386.5,-168.5 386.5,-187.5 499.5,-187.5 499.5,-168.5 386.5,-168.5"/>
<text text-anchor="middle" x="443" y="-175.5" font-family="Helvetica,sans-Serif" font-size="10.00">Core/Utils/Timer.hpp</text>
</a>
</g>
</g>
<!-- Node13&#45;&gt;Node25 -->
<g id="edge26" class="edge"><title>Node13&#45;&gt;Node25</title>
<path fill="none" stroke="midnightblue" d="M305.828,-224.444C333.249,-215.359 376.777,-200.939 407.432,-190.783"/>
<polygon fill="midnightblue" stroke="midnightblue" points="408.901,-193.984 417.293,-187.516 406.7,-187.339 408.901,-193.984"/>
</g>
<!-- Node26 -->
<g id="node26" class="node"><title>Node26</title>
<g id="a_node26"><a xlink:href="EventEnums_8hpp.html" target="_top" xlink:title="GuiBase/Event/EventEnums.hpp">
<polygon fill="white" stroke="black" points="652,-168.5 652,-187.5 822,-187.5 822,-168.5 652,-168.5"/>
<text text-anchor="middle" x="737" y="-175.5" font-family="Helvetica,sans-Serif" font-size="10.00">GuiBase/Event/EventEnums.hpp</text>
</a>
</g>
</g>
<!-- Node13&#45;&gt;Node26 -->
<g id="edge29" class="edge"><title>Node13&#45;&gt;Node26</title>
<path fill="none" stroke="midnightblue" d="M352.161,-224.473C434.422,-214.753 568.616,-198.897 654.832,-188.709"/>
<polygon fill="midnightblue" stroke="midnightblue" points="655.321,-192.176 664.841,-187.526 654.499,-185.224 655.321,-192.176"/>
</g>
<!-- Node14&#45;&gt;Node7 -->
<g id="edge14" class="edge"><title>Node14&#45;&gt;Node7</title>
<path fill="none" stroke="midnightblue" d="M146.134,-112.444C170.482,-103.438 209.007,-89.1891 236.423,-79.049"/>
<polygon fill="midnightblue" stroke="midnightblue" points="237.809,-82.2681 245.974,-75.5164 235.381,-75.7028 237.809,-82.2681"/>
</g>
<!-- Node21 -->
<g id="node21" class="node"><title>Node21</title>
<g id="a_node21"><a xlink:href="RaCore_8hpp.html" target="_top" xlink:title="Core/RaCore.hpp">
<polygon fill="white" stroke="black" points="376,-112.5 376,-131.5 474,-131.5 474,-112.5 376,-112.5"/>
<text text-anchor="middle" x="425" y="-119.5" font-family="Helvetica,sans-Serif" font-size="10.00">Core/RaCore.hpp</text>
</a>
</g>
</g>
<!-- Node20&#45;&gt;Node21 -->
<g id="edge21" class="edge"><title>Node20&#45;&gt;Node21</title>
<path fill="none" stroke="midnightblue" d="M552.074,-168.444C526.781,-159.399 486.698,-145.064 458.32,-134.916"/>
<polygon fill="midnightblue" stroke="midnightblue" points="459.409,-131.588 448.814,-131.516 457.052,-138.179 459.409,-131.588"/>
</g>
<!-- Node22 -->
<g id="node22" class="node"><title>Node22</title>
<polygon fill="white" stroke="#bfbfbf" points="492,-112.5 492,-131.5 560,-131.5 560,-112.5 492,-112.5"/>
<text text-anchor="middle" x="526" y="-119.5" font-family="Helvetica,sans-Serif" font-size="10.00">Eigen/Core</text>
</g>
<!-- Node20&#45;&gt;Node22 -->
<g id="edge23" class="edge"><title>Node20&#45;&gt;Node22</title>
<path fill="none" stroke="midnightblue" d="M567.744,-168.083C560.535,-160.298 549.89,-148.801 541.154,-139.367"/>
<polygon fill="midnightblue" stroke="midnightblue" points="543.465,-136.711 534.103,-131.751 538.329,-141.467 543.465,-136.711"/>
</g>
<!-- Node23 -->
<g id="node23" class="node"><title>Node23</title>
<polygon fill="white" stroke="#bfbfbf" points="578,-112.5 578,-131.5 672,-131.5 672,-112.5 578,-112.5"/>
<text text-anchor="middle" x="625" y="-119.5" font-family="Helvetica,sans-Serif" font-size="10.00">Eigen/Geometry</text>
</g>
<!-- Node20&#45;&gt;Node23 -->
<g id="edge24" class="edge"><title>Node20&#45;&gt;Node23</title>
<path fill="none" stroke="midnightblue" d="M584.091,-168.083C591.155,-160.298 601.588,-148.801 610.149,-139.367"/>
<polygon fill="midnightblue" stroke="midnightblue" points="612.931,-141.509 617.059,-131.751 607.747,-136.805 612.931,-141.509"/>
</g>
<!-- Node24 -->
<g id="node24" class="node"><title>Node24</title>
<polygon fill="white" stroke="#bfbfbf" points="690,-112.5 690,-131.5 770,-131.5 770,-112.5 690,-112.5"/>
<text text-anchor="middle" x="730" y="-119.5" font-family="Helvetica,sans-Serif" font-size="10.00">Eigen/Sparse</text>
</g>
<!-- Node20&#45;&gt;Node24 -->
<g id="edge25" class="edge"><title>Node20&#45;&gt;Node24</title>
<path fill="none" stroke="midnightblue" d="M600.402,-168.444C626.197,-159.399 667.077,-145.064 696.018,-134.916"/>
<polygon fill="midnightblue" stroke="midnightblue" points="697.434,-138.128 705.712,-131.516 695.118,-131.523 697.434,-138.128"/>
</g>
<!-- Node21&#45;&gt;Node7 -->
<g id="edge22" class="edge"><title>Node21&#45;&gt;Node7</title>
<path fill="none" stroke="midnightblue" d="M400.281,-112.444C374.152,-103.399 332.741,-89.064 303.424,-78.9158"/>
<polygon fill="midnightblue" stroke="midnightblue" points="304.198,-75.4801 293.603,-75.5164 301.908,-82.0951 304.198,-75.4801"/>
</g>
<!-- Node25&#45;&gt;Node16 -->
<g id="edge28" class="edge"><title>Node25&#45;&gt;Node16</title>
<path fill="none" stroke="midnightblue" d="M419.866,-168.444C395.518,-159.438 356.993,-145.189 329.577,-135.049"/>
<polygon fill="midnightblue" stroke="midnightblue" points="330.619,-131.703 320.026,-131.516 328.191,-138.268 330.619,-131.703"/>
</g>
<!-- Node25&#45;&gt;Node21 -->
<g id="edge27" class="edge"><title>Node25&#45;&gt;Node21</title>
<path fill="none" stroke="midnightblue" d="M440.028,-168.083C437.616,-160.849 434.136,-150.409 431.132,-141.397"/>
<polygon fill="midnightblue" stroke="midnightblue" points="434.4,-140.131 427.917,-131.751 427.759,-142.345 434.4,-140.131"/>
</g>
</g>
</svg>
