<?xml version="1.0" encoding="UTF-8" standalone="no"?>
<!DOCTYPE svg PUBLIC "-//W3C//DTD SVG 1.1//EN"
 "http://www.w3.org/Graphics/SVG/1.1/DTD/svg11.dtd">
<!-- Generated by graphviz version 2.38.0 (20140413.2041)
 -->
<!-- Title: /home/travis/build/STORM&#45;IRIT/Radium&#45;Engine/src/Core/Geometry/MeshPrimitives.cpp Pages: 1 -->
<svg width="1557pt" height="509pt"
 viewBox="0.00 0.00 1557.00 509.00" xmlns="http://www.w3.org/2000/svg" xmlns:xlink="http://www.w3.org/1999/xlink">
<g id="graph0" class="graph" transform="scale(1 1) rotate(0) translate(4 505)">
<title>/home/travis/build/STORM&#45;IRIT/Radium&#45;Engine/src/Core/Geometry/MeshPrimitives.cpp</title>
<polygon fill="white" stroke="none" points="-4,4 -4,-505 1553,-505 1553,4 -4,4"/>
<!-- Node1 -->
<g id="node1" class="node"><title>Node1</title>
<polygon fill="#bfbfbf" stroke="black" points="738.5,-459.5 738.5,-500.5 944.5,-500.5 944.5,-459.5 738.5,-459.5"/>
<text text-anchor="start" x="746.5" y="-488.5" font-family="Helvetica,sans-Serif" font-size="10.00">/home/travis/build</text>
<text text-anchor="start" x="746.5" y="-477.5" font-family="Helvetica,sans-Serif" font-size="10.00">/STORM&#45;IRIT/Radium&#45;Engine</text>
<text text-anchor="middle" x="841.5" y="-466.5" font-family="Helvetica,sans-Serif" font-size="10.00">/src/Core/Geometry/MeshPrimitives.cpp</text>
</g>
<!-- Node2 -->
<g id="node2" class="node"><title>Node2</title>
<g id="a_node2"><a xlink:href="Grid_8hpp.html" target="_top" xlink:title="Core/Containers/Grid.hpp">
<polygon fill="white" stroke="black" points="0,-174 0,-193 137,-193 137,-174 0,-174"/>
<text text-anchor="middle" x="68.5" y="-181" font-family="Helvetica,sans-Serif" font-size="10.00">Core/Containers/Grid.hpp</text>
</a>
</g>
</g>
<!-- Node1&#45;&gt;Node2 -->
<g id="edge1" class="edge"><title>Node1&#45;&gt;Node2</title>
<path fill="none" stroke="midnightblue" d="M738.213,-471.671C543.496,-456.461 141.5,-417.815 141.5,-358 141.5,-358 141.5,-358 141.5,-300 141.5,-258.983 108.197,-220.683 86.5786,-200.141"/>
<polygon fill="midnightblue" stroke="midnightblue" points="88.6995,-197.338 78.9591,-193.169 83.9741,-202.502 88.6995,-197.338"/>
</g>
<!-- Node13 -->
<g id="node13" class="node"><title>Node13</title>
<g id="a_node13"><a xlink:href="MeshPrimitives_8hpp.html" target="_top" xlink:title="Core/Geometry/MeshPrimitives.hpp">
<polygon fill="white" stroke="black" points="688.5,-403.5 688.5,-422.5 874.5,-422.5 874.5,-403.5 688.5,-403.5"/>
<text text-anchor="middle" x="781.5" y="-410.5" font-family="Helvetica,sans-Serif" font-size="10.00">Core/Geometry/MeshPrimitives.hpp</text>
</a>
</g>
</g>
<!-- Node1&#45;&gt;Node13 -->
<g id="edge13" class="edge"><title>Node1&#45;&gt;Node13</title>
<path fill="none" stroke="midnightblue" d="M823.498,-459.498C814.83,-450.107 804.561,-438.983 796.347,-430.085"/>
<polygon fill="midnightblue" stroke="midnightblue" points="798.842,-427.627 789.487,-422.652 793.698,-432.375 798.842,-427.627"/>
</g>
<!-- Node18 -->
<g id="node18" class="node"><title>Node18</title>
<g id="a_node18"><a xlink:href="Types_8hpp.html" target="_top" xlink:title="Core/Math/Types.hpp">
<polygon fill="white" stroke="black" points="694.5,-174 694.5,-193 810.5,-193 810.5,-174 694.5,-174"/>
<text text-anchor="middle" x="752.5" y="-181" font-family="Helvetica,sans-Serif" font-size="10.00">Core/Math/Types.hpp</text>
</a>
</g>
</g>
<!-- Node1&#45;&gt;Node18 -->
<g id="edge56" class="edge"><title>Node1&#45;&gt;Node18</title>
<path fill="none" stroke="midnightblue" d="M858.941,-459.421C867.338,-449.162 876.974,-436.042 883.5,-423 896.968,-396.084 902.5,-388.098 902.5,-358 902.5,-358 902.5,-358 902.5,-300 902.5,-244.693 837.69,-212.191 793.271,-196.41"/>
<polygon fill="midnightblue" stroke="midnightblue" points="794.175,-193.02 783.58,-193.114 791.92,-199.647 794.175,-193.02"/>
</g>
<!-- Node35 -->
<g id="node35" class="node"><title>Node35</title>
<polygon fill="white" stroke="#bfbfbf" points="931,-403.5 931,-422.5 972,-422.5 972,-403.5 931,-403.5"/>
<text text-anchor="middle" x="951.5" y="-410.5" font-family="Helvetica,sans-Serif" font-size="10.00">array</text>
</g>
<!-- Node1&#45;&gt;Node35 -->
<g id="edge57" class="edge"><title>Node1&#45;&gt;Node35</title>
<path fill="none" stroke="midnightblue" d="M874.504,-459.498C891.693,-449.34 912.314,-437.155 927.888,-427.952"/>
<polygon fill="midnightblue" stroke="midnightblue" points="930.029,-430.753 936.857,-422.652 926.467,-424.727 930.029,-430.753"/>
</g>
<!-- Node3 -->
<g id="node3" class="node"><title>Node3</title>
<polygon fill="white" stroke="#bfbfbf" points="325,-112.5 325,-131.5 372,-131.5 372,-112.5 325,-112.5"/>
<text text-anchor="middle" x="348.5" y="-119.5" font-family="Helvetica,sans-Serif" font-size="10.00">vector</text>
</g>
<!-- Node2&#45;&gt;Node3 -->
<g id="edge2" class="edge"><title>Node2&#45;&gt;Node3</title>
<path fill="none" stroke="midnightblue" d="M108.617,-173.975C164.073,-162.191 263.158,-141.135 314.919,-130.136"/>
<polygon fill="midnightblue" stroke="midnightblue" points="315.86,-133.514 324.914,-128.012 314.405,-126.667 315.86,-133.514"/>
</g>
<!-- Node4 -->
<g id="node4" class="node"><title>Node4</title>
<g id="a_node4"><a xlink:href="RaCore_8hpp.html" target="_top" xlink:title="Core/RaCore.hpp">
<polygon fill="white" stroke="black" points="579.5,-112.5 579.5,-131.5 677.5,-131.5 677.5,-112.5 579.5,-112.5"/>
<text text-anchor="middle" x="628.5" y="-119.5" font-family="Helvetica,sans-Serif" font-size="10.00">Core/RaCore.hpp</text>
</a>
</g>
</g>
<!-- Node2&#45;&gt;Node4 -->
<g id="edge3" class="edge"><title>Node2&#45;&gt;Node4</title>
<path fill="none" stroke="midnightblue" d="M109.943,-173.962C121.424,-171.797 133.915,-169.627 145.5,-168 225.788,-156.725 458.521,-136.955 568.974,-127.846"/>
<polygon fill="midnightblue" stroke="midnightblue" points="569.593,-131.307 579.272,-126.999 569.018,-124.331 569.593,-131.307"/>
</g>
<!-- Node11 -->
<g id="node11" class="node"><title>Node11</title>
<polygon fill="white" stroke="#bfbfbf" points="718.5,-112.5 718.5,-131.5 786.5,-131.5 786.5,-112.5 718.5,-112.5"/>
<text text-anchor="middle" x="752.5" y="-119.5" font-family="Helvetica,sans-Serif" font-size="10.00">Eigen/Core</text>
</g>
<!-- Node2&#45;&gt;Node11 -->
<g id="edge10" class="edge"><title>Node2&#45;&gt;Node11</title>
<path fill="none" stroke="midnightblue" d="M108.718,-173.986C120.524,-171.742 133.49,-169.525 145.5,-168 384.557,-137.648 446.752,-156.294 686.5,-132 693.538,-131.287 700.981,-130.401 708.234,-129.465"/>
<polygon fill="midnightblue" stroke="midnightblue" points="708.849,-132.914 718.298,-128.121 707.923,-125.975 708.849,-132.914"/>
</g>
<!-- Node12 -->
<g id="node12" class="node"><title>Node12</title>
<g id="a_node12"><a xlink:href="Grid_8inl.html" target="_top" xlink:title="Core/Containers/Grid.inl">
<polygon fill="white" stroke="black" points="3.5,-112.5 3.5,-131.5 133.5,-131.5 133.5,-112.5 3.5,-112.5"/>
<text text-anchor="middle" x="68.5" y="-119.5" font-family="Helvetica,sans-Serif" font-size="10.00">Core/Containers/Grid.inl</text>
</a>
</g>
</g>
<!-- Node2&#45;&gt;Node12 -->
<g id="edge11" class="edge"><title>Node2&#45;&gt;Node12</title>
<path fill="none" stroke="midnightblue" d="M63.5994,-173.975C61.7684,-165.58 61.297,-152.481 62.1851,-141.663"/>
<polygon fill="midnightblue" stroke="midnightblue" points="65.6864,-141.897 63.6029,-131.509 58.7536,-140.929 65.6864,-141.897"/>
</g>
<!-- Node5 -->
<g id="node5" class="node"><title>Node5</title>
<g id="a_node5"><a xlink:href="CoreMacros_8hpp.html" target="_top" xlink:title="Core/CoreMacros.hpp">
<polygon fill="white" stroke="black" points="568.5,-56.5 568.5,-75.5 688.5,-75.5 688.5,-56.5 568.5,-56.5"/>
<text text-anchor="middle" x="628.5" y="-63.5" font-family="Helvetica,sans-Serif" font-size="10.00">Core/CoreMacros.hpp</text>
</a>
</g>
</g>
<!-- Node4&#45;&gt;Node5 -->
<g id="edge4" class="edge"><title>Node4&#45;&gt;Node5</title>
<path fill="none" stroke="midnightblue" d="M628.5,-112.083C628.5,-105.006 628.5,-94.8611 628.5,-85.9865"/>
<polygon fill="midnightblue" stroke="midnightblue" points="632,-85.751 628.5,-75.7511 625,-85.7511 632,-85.751"/>
</g>
<!-- Node6 -->
<g id="node6" class="node"><title>Node6</title>
<polygon fill="white" stroke="#bfbfbf" points="465.5,-0.5 465.5,-19.5 517.5,-19.5 517.5,-0.5 465.5,-0.5"/>
<text text-anchor="middle" x="491.5" y="-7.5" font-family="Helvetica,sans-Serif" font-size="10.00">cassert</text>
</g>
<!-- Node5&#45;&gt;Node6 -->
<g id="edge5" class="edge"><title>Node5&#45;&gt;Node6</title>
<path fill="none" stroke="midnightblue" d="M606.792,-56.4435C584.145,-47.5171 548.428,-33.4387 522.748,-23.3168"/>
<polygon fill="midnightblue" stroke="midnightblue" points="523.693,-19.9273 513.106,-19.5164 521.126,-26.4397 523.693,-19.9273"/>
</g>
<!-- Node7 -->
<g id="node7" class="node"><title>Node7</title>
<polygon fill="white" stroke="#bfbfbf" points="536,-0.5 536,-19.5 581,-19.5 581,-0.5 536,-0.5"/>
<text text-anchor="middle" x="558.5" y="-7.5" font-family="Helvetica,sans-Serif" font-size="10.00">cstdio</text>
</g>
<!-- Node5&#45;&gt;Node7 -->
<g id="edge6" class="edge"><title>Node5&#45;&gt;Node7</title>
<path fill="none" stroke="midnightblue" d="M617.253,-56.324C606.703,-48.1849 590.699,-35.8395 578.058,-26.0874"/>
<polygon fill="midnightblue" stroke="midnightblue" points="580.007,-23.1707 569.951,-19.8339 575.731,-28.7132 580.007,-23.1707"/>
</g>
<!-- Node8 -->
<g id="node8" class="node"><title>Node8</title>
<polygon fill="white" stroke="#bfbfbf" points="599,-0.5 599,-19.5 658,-19.5 658,-0.5 599,-0.5"/>
<text text-anchor="middle" x="628.5" y="-7.5" font-family="Helvetica,sans-Serif" font-size="10.00">iostream</text>
</g>
<!-- Node5&#45;&gt;Node8 -->
<g id="edge7" class="edge"><title>Node5&#45;&gt;Node8</title>
<path fill="none" stroke="midnightblue" d="M628.5,-56.083C628.5,-49.0059 628.5,-38.8611 628.5,-29.9865"/>
<polygon fill="midnightblue" stroke="midnightblue" points="632,-29.751 628.5,-19.7511 625,-29.7511 632,-29.751"/>
</g>
<!-- Node9 -->
<g id="node9" class="node"><title>Node9</title>
<polygon fill="white" stroke="#bfbfbf" points="676.5,-0.5 676.5,-19.5 732.5,-19.5 732.5,-0.5 676.5,-0.5"/>
<text text-anchor="middle" x="704.5" y="-7.5" font-family="Helvetica,sans-Serif" font-size="10.00">sstream</text>
</g>
<!-- Node5&#45;&gt;Node9 -->
<g id="edge8" class="edge"><title>Node5&#45;&gt;Node9</title>
<path fill="none" stroke="midnightblue" d="M640.711,-56.324C652.276,-48.1066 669.875,-35.6017 683.661,-25.8069"/>
<polygon fill="midnightblue" stroke="midnightblue" points="685.943,-28.4791 692.067,-19.8339 681.888,-22.7729 685.943,-28.4791"/>
</g>
<!-- Node10 -->
<g id="node10" class="node"><title>Node10</title>
<polygon fill="white" stroke="#bfbfbf" points="750.5,-0.5 750.5,-19.5 798.5,-19.5 798.5,-0.5 750.5,-0.5"/>
<text text-anchor="middle" x="774.5" y="-7.5" font-family="Helvetica,sans-Serif" font-size="10.00">thread</text>
</g>
<!-- Node5&#45;&gt;Node10 -->
<g id="edge9" class="edge"><title>Node5&#45;&gt;Node10</title>
<path fill="none" stroke="midnightblue" d="M651.634,-56.4435C675.982,-47.4381 714.507,-33.1891 741.923,-23.049"/>
<polygon fill="midnightblue" stroke="midnightblue" points="743.309,-26.2681 751.474,-19.5164 740.881,-19.7028 743.309,-26.2681"/>
</g>
<!-- Node12&#45;&gt;Node2 -->
<g id="edge12" class="edge"><title>Node12&#45;&gt;Node2</title>
<path fill="none" stroke="midnightblue" d="M73.3971,-131.509C75.2298,-139.898 75.703,-152.996 74.8165,-163.817"/>
<polygon fill="midnightblue" stroke="midnightblue" points="71.3147,-163.588 73.4006,-173.975 78.2476,-164.554 71.3147,-163.588"/>
</g>
<!-- Node13&#45;&gt;Node4 -->
<g id="edge37" class="edge"><title>Node13&#45;&gt;Node4</title>
<path fill="none" stroke="midnightblue" d="M746.409,-403.388C725.959,-396.666 701.189,-385.311 685.5,-367 665.917,-344.144 666.5,-332.098 666.5,-302 666.5,-302 666.5,-302 666.5,-244 666.5,-205.812 649.058,-163.83 637.808,-140.722"/>
<polygon fill="midnightblue" stroke="midnightblue" points="640.791,-138.865 633.16,-131.515 634.542,-142.02 640.791,-138.865"/>
</g>
<!-- Node14 -->
<g id="node14" class="node"><title>Node14</title>
<g id="a_node14"><a xlink:href="TriangleMesh_8hpp.html" target="_top" xlink:title="Core/Geometry/TriangleMesh.hpp">
<polygon fill="white" stroke="black" points="462.5,-347.5 462.5,-366.5 638.5,-366.5 638.5,-347.5 462.5,-347.5"/>
<text text-anchor="middle" x="550.5" y="-354.5" font-family="Helvetica,sans-Serif" font-size="10.00">Core/Geometry/TriangleMesh.hpp</text>
</a>
</g>
</g>
<!-- Node13&#45;&gt;Node14 -->
<g id="edge14" class="edge"><title>Node13&#45;&gt;Node14</title>
<path fill="none" stroke="midnightblue" d="M744.897,-403.444C704.769,-394.063 640.302,-378.993 596.715,-368.804"/>
<polygon fill="midnightblue" stroke="midnightblue" points="597.466,-365.385 586.931,-366.516 595.872,-372.201 597.466,-365.385"/>
</g>
<!-- Node26 -->
<g id="node26" class="node"><title>Node26</title>
<g id="a_node26"><a xlink:href="MeshPrimitives_8inl.html" target="_top" xlink:title="Core/Geometry/MeshPrimitives.inl">
<polygon fill="white" stroke="black" points="695,-347.5 695,-366.5 874,-366.5 874,-347.5 695,-347.5"/>
<text text-anchor="middle" x="784.5" y="-354.5" font-family="Helvetica,sans-Serif" font-size="10.00">Core/Geometry/MeshPrimitives.inl</text>
</a>
</g>
</g>
<!-- Node13&#45;&gt;Node26 -->
<g id="edge38" class="edge"><title>Node13&#45;&gt;Node26</title>
<path fill="none" stroke="midnightblue" d="M776.829,-403.083C775.717,-395.927 775.858,-385.635 777.004,-376.691"/>
<polygon fill="midnightblue" stroke="midnightblue" points="780.465,-377.227 778.883,-366.751 773.586,-375.927 780.465,-377.227"/>
</g>
<!-- Node14&#45;&gt;Node4 -->
<g id="edge28" class="edge"><title>Node14&#45;&gt;Node4</title>
<path fill="none" stroke="midnightblue" d="M559.103,-347.35C567.29,-338.738 579.512,-324.841 587.5,-311 619.606,-255.372 626.613,-177.259 628.112,-141.812"/>
<polygon fill="midnightblue" stroke="midnightblue" points="631.619,-141.626 628.437,-131.521 624.623,-141.405 631.619,-141.626"/>
</g>
<!-- Node15 -->
<g id="node15" class="node"><title>Node15</title>
<g id="a_node15"><a xlink:href="VectorArray_8hpp.html" target="_top" xlink:title="Core/Containers/VectorArray.hpp">
<polygon fill="white" stroke="black" points="427,-235.5 427,-254.5 600,-254.5 600,-235.5 427,-235.5"/>
<text text-anchor="middle" x="513.5" y="-242.5" font-family="Helvetica,sans-Serif" font-size="10.00">Core/Containers/VectorArray.hpp</text>
</a>
</g>
</g>
<!-- Node14&#45;&gt;Node15 -->
<g id="edge15" class="edge"><title>Node14&#45;&gt;Node15</title>
<path fill="none" stroke="midnightblue" d="M557.436,-347.284C566.693,-334.517 580.89,-310.17 571.5,-291 564.977,-277.684 552.404,-267.177 540.627,-259.676"/>
<polygon fill="midnightblue" stroke="midnightblue" points="542.282,-256.589 531.889,-254.529 538.729,-262.621 542.282,-256.589"/>
</g>
<!-- Node14&#45;&gt;Node18 -->
<g id="edge27" class="edge"><title>Node14&#45;&gt;Node18</title>
<path fill="none" stroke="midnightblue" d="M574.27,-347.445C593.771,-339.735 621.49,-327.138 642.5,-311 684.641,-278.632 722.624,-228.089 740.945,-201.76"/>
<polygon fill="midnightblue" stroke="midnightblue" points="744.019,-203.464 746.776,-193.234 738.242,-199.512 744.019,-203.464"/>
</g>
<!-- Node21 -->
<g id="node21" class="node"><title>Node21</title>
<g id="a_node21"><a xlink:href="Attribs_8hpp.html" target="_top" xlink:title="Core/Utils/Attribs.hpp">
<polygon fill="white" stroke="black" points="257,-291.5 257,-310.5 376,-310.5 376,-291.5 257,-291.5"/>
<text text-anchor="middle" x="316.5" y="-298.5" font-family="Helvetica,sans-Serif" font-size="10.00">Core/Utils/Attribs.hpp</text>
</a>
</g>
</g>
<!-- Node14&#45;&gt;Node21 -->
<g id="edge29" class="edge"><title>Node14&#45;&gt;Node21</title>
<path fill="none" stroke="midnightblue" d="M513.422,-347.444C472.772,-338.063 407.468,-322.993 363.316,-312.804"/>
<polygon fill="midnightblue" stroke="midnightblue" points="363.935,-309.355 353.405,-310.516 362.361,-316.175 363.935,-309.355"/>
</g>
<!-- Node25 -->
<g id="node25" class="node"><title>Node25</title>
<g id="a_node25"><a xlink:href="TriangleMesh_8inl.html" target="_top" xlink:title="Core/Geometry/TriangleMesh.inl">
<polygon fill="white" stroke="black" points="394.5,-291.5 394.5,-310.5 562.5,-310.5 562.5,-291.5 394.5,-291.5"/>
<text text-anchor="middle" x="478.5" y="-298.5" font-family="Helvetica,sans-Serif" font-size="10.00">Core/Geometry/TriangleMesh.inl</text>
</a>
</g>
</g>
<!-- Node14&#45;&gt;Node25 -->
<g id="edge35" class="edge"><title>Node14&#45;&gt;Node25</title>
<path fill="none" stroke="midnightblue" d="M533.817,-347.324C521.324,-339.263 504.727,-327.077 492.833,-317.369"/>
<polygon fill="midnightblue" stroke="midnightblue" points="495.02,-314.634 485.13,-310.834 490.491,-319.972 495.02,-314.634"/>
</g>
<!-- Node15&#45;&gt;Node3 -->
<g id="edge26" class="edge"><title>Node15&#45;&gt;Node3</title>
<path fill="none" stroke="midnightblue" d="M434.694,-235.443C409.862,-229.036 384.298,-217.985 366.5,-199 352.184,-183.729 348.588,-159.239 347.989,-142.202"/>
<polygon fill="midnightblue" stroke="midnightblue" points="351.488,-141.792 347.959,-131.802 344.488,-141.812 351.488,-141.792"/>
</g>
<!-- Node15&#45;&gt;Node4 -->
<g id="edge25" class="edge"><title>Node15&#45;&gt;Node4</title>
<path fill="none" stroke="midnightblue" d="M524.984,-235.252C536.088,-226.567 553.147,-212.618 566.5,-199 585.036,-180.096 603.927,-156.119 615.904,-140.206"/>
<polygon fill="midnightblue" stroke="midnightblue" points="618.946,-141.981 622.102,-131.867 613.328,-137.805 618.946,-141.981"/>
</g>
<!-- Node16 -->
<g id="node16" class="node"><title>Node16</title>
<g id="a_node16"><a xlink:href="AlignedStdVector_8hpp.html" target="_top" xlink:title="Core/Containers/AlignedStd\lVector.hpp">
<polygon fill="white" stroke="black" points="376,-168.5 376,-198.5 525,-198.5 525,-168.5 376,-168.5"/>
<text text-anchor="start" x="384" y="-186.5" font-family="Helvetica,sans-Serif" font-size="10.00">Core/Containers/AlignedStd</text>
<text text-anchor="middle" x="450.5" y="-175.5" font-family="Helvetica,sans-Serif" font-size="10.00">Vector.hpp</text>
</a>
</g>
</g>
<!-- Node15&#45;&gt;Node16 -->
<g id="edge16" class="edge"><title>Node15&#45;&gt;Node16</title>
<path fill="none" stroke="midnightblue" d="M504.474,-235.475C496.26,-227.718 483.793,-215.943 472.909,-205.665"/>
<polygon fill="midnightblue" stroke="midnightblue" points="475.021,-202.845 465.348,-198.523 470.215,-207.934 475.021,-202.845"/>
</g>
<!-- Node15&#45;&gt;Node18 -->
<g id="edge20" class="edge"><title>Node15&#45;&gt;Node18</title>
<path fill="none" stroke="midnightblue" d="M547.743,-235.475C590.071,-224.937 662.177,-206.986 708.55,-195.441"/>
<polygon fill="midnightblue" stroke="midnightblue" points="709.462,-198.821 718.321,-193.009 707.771,-192.029 709.462,-198.821"/>
</g>
<!-- Node16&#45;&gt;Node3 -->
<g id="edge19" class="edge"><title>Node16&#45;&gt;Node3</title>
<path fill="none" stroke="midnightblue" d="M426.327,-168.399C409.978,-158.862 388.485,-146.325 372.23,-136.842"/>
<polygon fill="midnightblue" stroke="midnightblue" points="373.743,-133.673 363.342,-131.658 370.216,-139.72 373.743,-133.673"/>
</g>
<!-- Node16&#45;&gt;Node4 -->
<g id="edge17" class="edge"><title>Node16&#45;&gt;Node4</title>
<path fill="none" stroke="midnightblue" d="M492.684,-168.399C523.307,-158.163 564.27,-144.47 593.175,-134.808"/>
<polygon fill="midnightblue" stroke="midnightblue" points="594.485,-138.061 602.859,-131.571 592.265,-131.422 594.485,-138.061"/>
</g>
<!-- Node17 -->
<g id="node17" class="node"><title>Node17</title>
<polygon fill="white" stroke="#bfbfbf" points="404,-112.5 404,-131.5 497,-131.5 497,-112.5 404,-112.5"/>
<text text-anchor="middle" x="450.5" y="-119.5" font-family="Helvetica,sans-Serif" font-size="10.00">Eigen/StdVector</text>
</g>
<!-- Node16&#45;&gt;Node17 -->
<g id="edge18" class="edge"><title>Node16&#45;&gt;Node17</title>
<path fill="none" stroke="midnightblue" d="M450.5,-168.399C450.5,-160.466 450.5,-150.458 450.5,-141.858"/>
<polygon fill="midnightblue" stroke="midnightblue" points="454,-141.658 450.5,-131.658 447,-141.658 454,-141.658"/>
</g>
<!-- Node18&#45;&gt;Node4 -->
<g id="edge21" class="edge"><title>Node18&#45;&gt;Node4</title>
<path fill="none" stroke="midnightblue" d="M734.734,-173.975C714.016,-164.034 679.548,-147.495 655.511,-135.961"/>
<polygon fill="midnightblue" stroke="midnightblue" points="656.763,-132.68 646.233,-131.509 653.735,-138.991 656.763,-132.68"/>
</g>
<!-- Node18&#45;&gt;Node11 -->
<g id="edge22" class="edge"><title>Node18&#45;&gt;Node11</title>
<path fill="none" stroke="midnightblue" d="M752.5,-173.975C752.5,-165.58 752.5,-152.481 752.5,-141.663"/>
<polygon fill="midnightblue" stroke="midnightblue" points="756,-141.509 752.5,-131.509 749,-141.509 756,-141.509"/>
</g>
<!-- Node19 -->
<g id="node19" class="node"><title>Node19</title>
<polygon fill="white" stroke="#bfbfbf" points="1125.5,-112.5 1125.5,-131.5 1219.5,-131.5 1219.5,-112.5 1125.5,-112.5"/>
<text text-anchor="middle" x="1172.5" y="-119.5" font-family="Helvetica,sans-Serif" font-size="10.00">Eigen/Geometry</text>
</g>
<!-- Node18&#45;&gt;Node19 -->
<g id="edge23" class="edge"><title>Node18&#45;&gt;Node19</title>
<path fill="none" stroke="midnightblue" d="M810.899,-174.227C891.253,-162.843 1035.01,-142.477 1114.93,-131.156"/>
<polygon fill="midnightblue" stroke="midnightblue" points="1115.89,-134.555 1125.3,-129.687 1114.9,-127.625 1115.89,-134.555"/>
</g>
<!-- Node20 -->
<g id="node20" class="node"><title>Node20</title>
<polygon fill="white" stroke="#bfbfbf" points="910.5,-112.5 910.5,-131.5 990.5,-131.5 990.5,-112.5 910.5,-112.5"/>
<text text-anchor="middle" x="950.5" y="-119.5" font-family="Helvetica,sans-Serif" font-size="10.00">Eigen/Sparse</text>
</g>
<!-- Node18&#45;&gt;Node20 -->
<g id="edge24" class="edge"><title>Node18&#45;&gt;Node20</title>
<path fill="none" stroke="midnightblue" d="M780.869,-173.975C815.421,-163.592 873.924,-146.012 912.385,-134.454"/>
<polygon fill="midnightblue" stroke="midnightblue" points="913.614,-137.739 922.184,-131.509 911.6,-131.035 913.614,-137.739"/>
</g>
<!-- Node21&#45;&gt;Node4 -->
<g id="edge31" class="edge"><title>Node21&#45;&gt;Node4</title>
<path fill="none" stroke="midnightblue" d="M327.722,-291.316C345.764,-277.701 382.728,-251.217 417.5,-235 466.423,-212.184 486.858,-226.175 533.5,-199 550.887,-188.87 550.993,-180.825 566.5,-168 579.696,-157.087 595.301,-145.768 607.554,-137.213"/>
<polygon fill="midnightblue" stroke="midnightblue" points="609.562,-140.08 615.801,-131.517 605.584,-134.32 609.562,-140.08"/>
</g>
<!-- Node21&#45;&gt;Node15 -->
<g id="edge30" class="edge"><title>Node21&#45;&gt;Node15</title>
<path fill="none" stroke="midnightblue" d="M347.715,-291.444C381.433,-282.201 435.3,-267.436 472.432,-257.257"/>
<polygon fill="midnightblue" stroke="midnightblue" points="473.712,-260.536 482.431,-254.516 471.861,-253.785 473.712,-260.536"/>
</g>
<!-- Node22 -->
<g id="node22" class="node"><title>Node22</title>
<g id="a_node22"><a xlink:href="Index_8hpp.html" target="_top" xlink:title="Core/Utils/Index.hpp">
<polygon fill="white" stroke="black" points="243,-235.5 243,-254.5 356,-254.5 356,-235.5 243,-235.5"/>
<text text-anchor="middle" x="299.5" y="-242.5" font-family="Helvetica,sans-Serif" font-size="10.00">Core/Utils/Index.hpp</text>
</a>
</g>
</g>
<!-- Node21&#45;&gt;Node22 -->
<g id="edge32" class="edge"><title>Node21&#45;&gt;Node22</title>
<path fill="none" stroke="midnightblue" d="M313.693,-291.083C311.415,-283.849 308.129,-273.409 305.292,-264.397"/>
<polygon fill="midnightblue" stroke="midnightblue" points="308.596,-263.239 302.255,-254.751 301.919,-265.341 308.596,-263.239"/>
</g>
<!-- Node23 -->
<g id="node23" class="node"><title>Node23</title>
<polygon fill="white" stroke="#bfbfbf" points="278.5,-174 278.5,-193 320.5,-193 320.5,-174 278.5,-174"/>
<text text-anchor="middle" x="299.5" y="-181" font-family="Helvetica,sans-Serif" font-size="10.00">limits</text>
</g>
<!-- Node22&#45;&gt;Node23 -->
<g id="edge33" class="edge"><title>Node22&#45;&gt;Node23</title>
<path fill="none" stroke="midnightblue" d="M299.5,-235.475C299.5,-227.08 299.5,-213.981 299.5,-203.163"/>
<polygon fill="midnightblue" stroke="midnightblue" points="303,-203.009 299.5,-193.009 296,-203.009 303,-203.009"/>
</g>
<!-- Node24 -->
<g id="node24" class="node"><title>Node24</title>
<g id="a_node24"><a xlink:href="Index_8inl.html" target="_top" xlink:title="Core/Utils/Index.inl">
<polygon fill="white" stroke="black" points="155,-174 155,-193 260,-193 260,-174 155,-174"/>
<text text-anchor="middle" x="207.5" y="-181" font-family="Helvetica,sans-Serif" font-size="10.00">Core/Utils/Index.inl</text>
</a>
</g>
</g>
<!-- Node22&#45;&gt;Node24 -->
<g id="edge34" class="edge"><title>Node22&#45;&gt;Node24</title>
<path fill="none" stroke="midnightblue" d="M286.319,-235.475C271.426,-225.843 246.956,-210.017 229.227,-198.552"/>
<polygon fill="midnightblue" stroke="midnightblue" points="230.955,-195.501 220.657,-193.009 227.153,-201.379 230.955,-195.501"/>
</g>
<!-- Node25&#45;&gt;Node14 -->
<g id="edge36" class="edge"><title>Node25&#45;&gt;Node14</title>
<path fill="none" stroke="midnightblue" d="M495.149,-310.655C507.71,-318.756 524.43,-331.038 536.347,-340.778"/>
<polygon fill="midnightblue" stroke="midnightblue" points="534.161,-343.513 544.047,-347.324 538.695,-338.18 534.161,-343.513"/>
</g>
<!-- Node26&#45;&gt;Node13 -->
<g id="edge39" class="edge"><title>Node26&#45;&gt;Node13</title>
<path fill="none" stroke="midnightblue" d="M789.145,-366.751C790.276,-373.858 790.152,-384.136 789.022,-393.101"/>
<polygon fill="midnightblue" stroke="midnightblue" points="785.553,-392.611 787.162,-403.083 792.435,-393.894 785.553,-392.611"/>
</g>
<!-- Node27 -->
<g id="node27" class="node"><title>Node27</title>
<g id="a_node27"><a xlink:href="LinearAlgebra_8hpp.html" target="_top" xlink:title="Core/Math/LinearAlgebra.hpp">
<polygon fill="white" stroke="black" points="980.5,-235.5 980.5,-254.5 1136.5,-254.5 1136.5,-235.5 980.5,-235.5"/>
<text text-anchor="middle" x="1058.5" y="-242.5" font-family="Helvetica,sans-Serif" font-size="10.00">Core/Math/LinearAlgebra.hpp</text>
</a>
</g>
</g>
<!-- Node26&#45;&gt;Node27 -->
<g id="edge40" class="edge"><title>Node26&#45;&gt;Node27</title>
<path fill="none" stroke="midnightblue" d="M806,-347.368C854.319,-327.97 971.643,-280.87 1027.69,-258.367"/>
<polygon fill="midnightblue" stroke="midnightblue" points="1029.12,-261.565 1037.1,-254.591 1026.52,-255.069 1029.12,-261.565"/>
</g>
<!-- Node27&#45;&gt;Node4 -->
<g id="edge41" class="edge"><title>Node27&#45;&gt;Node4</title>
<path fill="none" stroke="midnightblue" d="M980.252,-236.947C940.257,-230.909 891.856,-219.721 852.5,-199 834.694,-189.625 837.229,-177.52 819.5,-168 778.498,-145.984 726.867,-134.65 687.626,-128.868"/>
<polygon fill="midnightblue" stroke="midnightblue" points="688.063,-125.395 677.675,-127.48 687.096,-132.328 688.063,-125.395"/>
</g>
<!-- Node27&#45;&gt;Node11 -->
<g id="edge42" class="edge"><title>Node27&#45;&gt;Node11</title>
<path fill="none" stroke="midnightblue" d="M1010.54,-235.446C977.19,-228.39 932.297,-216.639 895.5,-199 874.255,-188.816 872.902,-179.783 852.5,-168 830.54,-155.317 804.359,-143.65 784.295,-135.374"/>
<polygon fill="midnightblue" stroke="midnightblue" points="785.564,-132.112 774.982,-131.595 782.932,-138.598 785.564,-132.112"/>
</g>
<!-- Node27&#45;&gt;Node18 -->
<g id="edge53" class="edge"><title>Node27&#45;&gt;Node18</title>
<path fill="none" stroke="midnightblue" d="M1013.62,-235.49C966.496,-226.526 890.257,-211.944 824.5,-199 818.178,-197.756 811.547,-196.437 804.974,-195.123"/>
<polygon fill="midnightblue" stroke="midnightblue" points="805.241,-191.607 794.748,-193.072 803.864,-198.47 805.241,-191.607"/>
</g>
<!-- Node27&#45;&gt;Node19 -->
<g id="edge43" class="edge"><title>Node27&#45;&gt;Node19</title>
<path fill="none" stroke="midnightblue" d="M1136.67,-241.719C1206.9,-237.826 1302.54,-227.318 1326.5,-199 1358.2,-161.532 1285.46,-140.825 1229.48,-130.816"/>
<polygon fill="midnightblue" stroke="midnightblue" points="1230.05,-127.363 1219.6,-129.127 1228.87,-134.263 1230.05,-127.363"/>
</g>
<!-- Node27&#45;&gt;Node20 -->
<g id="edge44" class="edge"><title>Node27&#45;&gt;Node20</title>
<path fill="none" stroke="midnightblue" d="M1136.75,-243.695C1227.7,-240.695 1359.14,-226.561 1307.5,-168 1287.54,-145.363 1094.27,-131.259 1000.73,-125.705"/>
<polygon fill="midnightblue" stroke="midnightblue" points="1000.83,-122.205 990.642,-125.117 1000.42,-129.193 1000.83,-122.205"/>
</g>
<!-- Node28 -->
<g id="node28" class="node"><title>Node28</title>
<polygon fill="white" stroke="#bfbfbf" points="905,-174 905,-193 968,-193 968,-174 905,-174"/>
<text text-anchor="middle" x="936.5" y="-181" font-family="Helvetica,sans-Serif" font-size="10.00">functional</text>
</g>
<!-- Node27&#45;&gt;Node28 -->
<g id="edge45" class="edge"><title>Node27&#45;&gt;Node28</title>
<path fill="none" stroke="midnightblue" d="M1041.02,-235.475C1020.64,-225.534 986.725,-208.995 963.075,-197.461"/>
<polygon fill="midnightblue" stroke="midnightblue" points="964.469,-194.247 953.947,-193.009 961.401,-200.538 964.469,-194.247"/>
</g>
<!-- Node29 -->
<g id="node29" class="node"><title>Node29</title>
<polygon fill="white" stroke="#bfbfbf" points="986,-168.5 986,-198.5 1131,-198.5 1131,-168.5 986,-168.5"/>
<text text-anchor="start" x="994" y="-186.5" font-family="Helvetica,sans-Serif" font-size="10.00">unsupported/Eigen/Aligned</text>
<text text-anchor="middle" x="1058.5" y="-175.5" font-family="Helvetica,sans-Serif" font-size="10.00">Vector3</text>
</g>
<!-- Node27&#45;&gt;Node29 -->
<g id="edge46" class="edge"><title>Node27&#45;&gt;Node29</title>
<path fill="none" stroke="midnightblue" d="M1058.5,-235.475C1058.5,-228.471 1058.5,-218.192 1058.5,-208.696"/>
<polygon fill="midnightblue" stroke="midnightblue" points="1062,-208.523 1058.5,-198.523 1055,-208.523 1062,-208.523"/>
</g>
<!-- Node30 -->
<g id="node30" class="node"><title>Node30</title>
<g id="a_node30"><a xlink:href="Math_8hpp.html" target="_top" xlink:title="Core/Math/Math.hpp">
<polygon fill="white" stroke="black" points="1391.5,-174 1391.5,-193 1505.5,-193 1505.5,-174 1391.5,-174"/>
<text text-anchor="middle" x="1448.5" y="-181" font-family="Helvetica,sans-Serif" font-size="10.00">Core/Math/Math.hpp</text>
</a>
</g>
</g>
<!-- Node27&#45;&gt;Node30 -->
<g id="edge47" class="edge"><title>Node27&#45;&gt;Node30</title>
<path fill="none" stroke="midnightblue" d="M1127.76,-235.474C1192.51,-227.21 1291.79,-213.782 1377.5,-199 1384.33,-197.822 1391.51,-196.479 1398.57,-195.098"/>
<polygon fill="midnightblue" stroke="midnightblue" points="1399.66,-198.45 1408.78,-193.06 1398.28,-191.586 1399.66,-198.45"/>
</g>
<!-- Node34 -->
<g id="node34" class="node"><title>Node34</title>
<g id="a_node34"><a xlink:href="LinearAlgebra_8inl.html" target="_top" xlink:title="Core/Math/LinearAlgebra.inl">
<polygon fill="white" stroke="black" points="1149,-174 1149,-193 1298,-193 1298,-174 1149,-174"/>
<text text-anchor="middle" x="1223.5" y="-181" font-family="Helvetica,sans-Serif" font-size="10.00">Core/Math/LinearAlgebra.inl</text>
</a>
</g>
</g>
<!-- Node27&#45;&gt;Node34 -->
<g id="edge54" class="edge"><title>Node27&#45;&gt;Node34</title>
<path fill="none" stroke="midnightblue" d="M1077.24,-235.475C1103.54,-225.18 1151.51,-207.81 1185.41,-196.25"/>
<polygon fill="midnightblue" stroke="midnightblue" points="1186.65,-199.526 1195.01,-193.009 1184.41,-192.894 1186.65,-199.526"/>
</g>
<!-- Node30&#45;&gt;Node4 -->
<g id="edge48" class="edge"><title>Node30&#45;&gt;Node4</title>
<path fill="none" stroke="midnightblue" d="M1391.27,-176.059C1365.66,-173.321 1335.09,-170.248 1307.5,-168 1042.12,-146.376 974.789,-154.709 709.5,-132 702.505,-131.401 695.179,-130.696 687.913,-129.949"/>
<polygon fill="midnightblue" stroke="midnightblue" points="688.033,-126.443 677.721,-128.871 687.297,-133.404 688.033,-126.443"/>
</g>
<!-- Node31 -->
<g id="node31" class="node"><title>Node31</title>
<polygon fill="white" stroke="#bfbfbf" points="1296.5,-112.5 1296.5,-131.5 1358.5,-131.5 1358.5,-112.5 1296.5,-112.5"/>
<text text-anchor="middle" x="1327.5" y="-119.5" font-family="Helvetica,sans-Serif" font-size="10.00">algorithm</text>
</g>
<!-- Node30&#45;&gt;Node31 -->
<g id="edge49" class="edge"><title>Node30&#45;&gt;Node31</title>
<path fill="none" stroke="midnightblue" d="M1431.16,-173.975C1410.95,-164.034 1377.31,-147.495 1353.86,-135.961"/>
<polygon fill="midnightblue" stroke="midnightblue" points="1355.32,-132.781 1344.8,-131.509 1352.23,-139.063 1355.32,-132.781"/>
</g>
<!-- Node32 -->
<g id="node32" class="node"><title>Node32</title>
<polygon fill="white" stroke="#bfbfbf" points="1377,-112.5 1377,-131.5 1424,-131.5 1424,-112.5 1377,-112.5"/>
<text text-anchor="middle" x="1400.5" y="-119.5" font-family="Helvetica,sans-Serif" font-size="10.00">cmath</text>
</g>
<!-- Node30&#45;&gt;Node32 -->
<g id="edge50" class="edge"><title>Node30&#45;&gt;Node32</title>
<path fill="none" stroke="midnightblue" d="M1441.62,-173.975C1434.35,-164.962 1422.7,-150.525 1413.66,-139.312"/>
<polygon fill="midnightblue" stroke="midnightblue" points="1416.37,-137.095 1407.36,-131.509 1410.92,-141.49 1416.37,-137.095"/>
</g>
<!-- Node33 -->
<g id="node33" class="node"><title>Node33</title>
<g id="a_node33"><a xlink:href="Math_8inl.html" target="_top" xlink:title="Core/Math/Math.inl">
<polygon fill="white" stroke="black" points="1442,-112.5 1442,-131.5 1549,-131.5 1549,-112.5 1442,-112.5"/>
<text text-anchor="middle" x="1495.5" y="-119.5" font-family="Helvetica,sans-Serif" font-size="10.00">Core/Math/Math.inl</text>
</a>
</g>
</g>
<!-- Node30&#45;&gt;Node33 -->
<g id="edge51" class="edge"><title>Node30&#45;&gt;Node33</title>
<path fill="none" stroke="midnightblue" d="M1450.33,-173.975C1455.54,-164.873 1466.71,-150.241 1476.81,-138.983"/>
<polygon fill="midnightblue" stroke="midnightblue" points="1479.55,-141.18 1483.88,-131.509 1474.47,-136.37 1479.55,-141.18"/>
</g>
<!-- Node33&#45;&gt;Node30 -->
<g id="edge52" class="edge"><title>Node33&#45;&gt;Node30</title>
<path fill="none" stroke="midnightblue" d="M1493.68,-131.509C1488.48,-140.604 1477.31,-155.236 1467.2,-166.497"/>
<polygon fill="midnightblue" stroke="midnightblue" points="1464.46,-164.304 1460.13,-173.975 1469.55,-169.113 1464.46,-164.304"/>
</g>
<!-- Node34&#45;&gt;Node27 -->
<g id="edge55" class="edge"><title>Node34&#45;&gt;Node27</title>
<path fill="none" stroke="midnightblue" d="M1204.8,-193.009C1178.52,-203.297 1130.56,-220.666 1096.64,-232.232"/>
<polygon fill="midnightblue" stroke="midnightblue" points="1095.39,-228.958 1087.04,-235.475 1097.64,-235.59 1095.39,-228.958"/>
</g>
</g>
</svg>
