<?xml version="1.0" encoding="UTF-8" standalone="no"?>
<!DOCTYPE svg PUBLIC "-//W3C//DTD SVG 1.1//EN"
 "http://www.w3.org/Graphics/SVG/1.1/DTD/svg11.dtd">
<!-- Generated by graphviz version 2.38.0 (20140413.2041)
 -->
<!-- Title: /home/travis/build/STORM&#45;IRIT/Radium&#45;Engine/src/Core/Geometry/MeshPrimitives.hpp Pages: 1 -->
<svg width="1408pt" height="453pt"
 viewBox="0.00 0.00 1408.00 453.00" xmlns="http://www.w3.org/2000/svg" xmlns:xlink="http://www.w3.org/1999/xlink">
<g id="graph0" class="graph" transform="scale(1 1) rotate(0) translate(4 449)">
<title>/home/travis/build/STORM&#45;IRIT/Radium&#45;Engine/src/Core/Geometry/MeshPrimitives.hpp</title>
<polygon fill="white" stroke="none" points="-4,4 -4,-449 1404,-449 1404,4 -4,4"/>
<!-- Node1 -->
<g id="node1" class="node"><title>Node1</title>
<polygon fill="#bfbfbf" stroke="black" points="510.5,-403.5 510.5,-444.5 716.5,-444.5 716.5,-403.5 510.5,-403.5"/>
<text text-anchor="start" x="518.5" y="-432.5" font-family="Helvetica,sans-Serif" font-size="10.00">/home/travis/build</text>
<text text-anchor="start" x="518.5" y="-421.5" font-family="Helvetica,sans-Serif" font-size="10.00">/STORM&#45;IRIT/Radium&#45;Engine</text>
<text text-anchor="middle" x="613.5" y="-410.5" font-family="Helvetica,sans-Serif" font-size="10.00">/src/Core/Geometry/MeshPrimitives.hpp</text>
</g>
<!-- Node2 -->
<g id="node2" class="node"><title>Node2</title>
<g id="a_node2"><a xlink:href="TriangleMesh_8hpp.html" target="_top" xlink:title="Core/Geometry/TriangleMesh.hpp">
<polygon fill="white" stroke="black" points="278.5,-347.5 278.5,-366.5 454.5,-366.5 454.5,-347.5 278.5,-347.5"/>
<text text-anchor="middle" x="366.5" y="-354.5" font-family="Helvetica,sans-Serif" font-size="10.00">Core/Geometry/TriangleMesh.hpp</text>
</a>
</g>
</g>
<!-- Node1&#45;&gt;Node2 -->
<g id="edge1" class="edge"><title>Node1&#45;&gt;Node2</title>
<path fill="none" stroke="midnightblue" d="M539.392,-403.498C496.841,-392.3 444.925,-378.638 409.152,-369.224"/>
<polygon fill="midnightblue" stroke="midnightblue" points="409.616,-365.727 399.055,-366.567 407.835,-372.497 409.616,-365.727"/>
</g>
<!-- Node5 -->
<g id="node5" class="node"><title>Node5</title>
<g id="a_node5"><a xlink:href="RaCore_8hpp.html" target="_top" xlink:title="Core/RaCore.hpp">
<polygon fill="white" stroke="black" points="448.5,-112.5 448.5,-131.5 546.5,-131.5 546.5,-112.5 448.5,-112.5"/>
<text text-anchor="middle" x="497.5" y="-119.5" font-family="Helvetica,sans-Serif" font-size="10.00">Core/RaCore.hpp</text>
</a>
</g>
</g>
<!-- Node1&#45;&gt;Node5 -->
<g id="edge30" class="edge"><title>Node1&#45;&gt;Node5</title>
<path fill="none" stroke="midnightblue" d="M597.029,-403.25C589.067,-392.947 579.879,-379.84 573.5,-367 534.079,-287.653 509.915,-183.628 501.192,-141.705"/>
<polygon fill="midnightblue" stroke="midnightblue" points="504.602,-140.91 499.182,-131.807 497.742,-142.303 504.602,-140.91"/>
</g>
<!-- Node23 -->
<g id="node23" class="node"><title>Node23</title>
<g id="a_node23"><a xlink:href="MeshPrimitives_8inl.html" target="_top" xlink:title="Core/Geometry/MeshPrimitives.inl">
<polygon fill="white" stroke="black" points="583,-347.5 583,-366.5 762,-366.5 762,-347.5 583,-347.5"/>
<text text-anchor="middle" x="672.5" y="-354.5" font-family="Helvetica,sans-Serif" font-size="10.00">Core/Geometry/MeshPrimitives.inl</text>
</a>
</g>
</g>
<!-- Node1&#45;&gt;Node23 -->
<g id="edge31" class="edge"><title>Node1&#45;&gt;Node23</title>
<path fill="none" stroke="midnightblue" d="M624.957,-403.498C632.87,-393.915 643.336,-382.528 652.536,-373.543"/>
<polygon fill="midnightblue" stroke="midnightblue" points="654.983,-376.047 659.882,-366.652 650.194,-370.941 654.983,-376.047"/>
</g>
<!-- Node3 -->
<g id="node3" class="node"><title>Node3</title>
<g id="a_node3"><a xlink:href="VectorArray_8hpp.html" target="_top" xlink:title="Core/Containers/VectorArray.hpp">
<polygon fill="white" stroke="black" points="214,-235.5 214,-254.5 387,-254.5 387,-235.5 214,-235.5"/>
<text text-anchor="middle" x="300.5" y="-242.5" font-family="Helvetica,sans-Serif" font-size="10.00">Core/Containers/VectorArray.hpp</text>
</a>
</g>
</g>
<!-- Node2&#45;&gt;Node3 -->
<g id="edge2" class="edge"><title>Node2&#45;&gt;Node3</title>
<path fill="none" stroke="midnightblue" d="M327.245,-347.475C307.504,-340.99 285.316,-329.843 273.5,-311 263.915,-295.714 274.369,-276.437 284.935,-262.859"/>
<polygon fill="midnightblue" stroke="midnightblue" points="287.912,-264.758 291.684,-254.858 282.561,-260.244 287.912,-264.758"/>
</g>
<!-- Node2&#45;&gt;Node5 -->
<g id="edge21" class="edge"><title>Node2&#45;&gt;Node5</title>
<path fill="none" stroke="midnightblue" d="M401.523,-347.417C421.449,-340.74 445.207,-329.424 459.5,-311 499.097,-259.957 500.502,-178.309 498.86,-141.756"/>
<polygon fill="midnightblue" stroke="midnightblue" points="502.343,-141.348 498.265,-131.569 495.355,-141.756 502.343,-141.348"/>
</g>
<!-- Node14 -->
<g id="node14" class="node"><title>Node14</title>
<g id="a_node14"><a xlink:href="Types_8hpp.html" target="_top" xlink:title="Core/Math/Types.hpp">
<polygon fill="white" stroke="black" points="582.5,-174 582.5,-193 698.5,-193 698.5,-174 582.5,-174"/>
<text text-anchor="middle" x="640.5" y="-181" font-family="Helvetica,sans-Serif" font-size="10.00">Core/Math/Types.hpp</text>
</a>
</g>
</g>
<!-- Node2&#45;&gt;Node14 -->
<g id="edge20" class="edge"><title>Node2&#45;&gt;Node14</title>
<path fill="none" stroke="midnightblue" d="M400.586,-347.479C426.805,-340.079 463.357,-327.885 492.5,-311 546.865,-279.501 600.31,-227.051 625.509,-200.682"/>
<polygon fill="midnightblue" stroke="midnightblue" points="628.348,-202.773 632.663,-193.097 623.255,-197.97 628.348,-202.773"/>
</g>
<!-- Node18 -->
<g id="node18" class="node"><title>Node18</title>
<g id="a_node18"><a xlink:href="Attribs_8hpp.html" target="_top" xlink:title="Core/Utils/Attribs.hpp">
<polygon fill="white" stroke="black" points="107,-291.5 107,-310.5 226,-310.5 226,-291.5 107,-291.5"/>
<text text-anchor="middle" x="166.5" y="-298.5" font-family="Helvetica,sans-Serif" font-size="10.00">Core/Utils/Attribs.hpp</text>
</a>
</g>
</g>
<!-- Node2&#45;&gt;Node18 -->
<g id="edge22" class="edge"><title>Node2&#45;&gt;Node18</title>
<path fill="none" stroke="midnightblue" d="M334.809,-347.444C300.432,-338.162 245.423,-323.309 207.711,-313.127"/>
<polygon fill="midnightblue" stroke="midnightblue" points="208.609,-309.744 198.042,-310.516 206.784,-316.502 208.609,-309.744"/>
</g>
<!-- Node22 -->
<g id="node22" class="node"><title>Node22</title>
<g id="a_node22"><a xlink:href="TriangleMesh_8inl.html" target="_top" xlink:title="Core/Geometry/TriangleMesh.inl">
<polygon fill="white" stroke="black" points="282.5,-291.5 282.5,-310.5 450.5,-310.5 450.5,-291.5 282.5,-291.5"/>
<text text-anchor="middle" x="366.5" y="-298.5" font-family="Helvetica,sans-Serif" font-size="10.00">Core/Geometry/TriangleMesh.inl</text>
</a>
</g>
</g>
<!-- Node2&#45;&gt;Node22 -->
<g id="edge28" class="edge"><title>Node2&#45;&gt;Node22</title>
<path fill="none" stroke="midnightblue" d="M361.334,-347.083C359.824,-339.927 359.394,-329.635 360.042,-320.691"/>
<polygon fill="midnightblue" stroke="midnightblue" points="363.515,-321.126 361.369,-310.751 356.577,-320.2 363.515,-321.126"/>
</g>
<!-- Node4 -->
<g id="node4" class="node"><title>Node4</title>
<g id="a_node4"><a xlink:href="AlignedStdVector_8hpp.html" target="_top" xlink:title="Core/Containers/AlignedStd\lVector.hpp">
<polygon fill="white" stroke="black" points="226,-168.5 226,-198.5 375,-198.5 375,-168.5 226,-168.5"/>
<text text-anchor="start" x="234" y="-186.5" font-family="Helvetica,sans-Serif" font-size="10.00">Core/Containers/AlignedStd</text>
<text text-anchor="middle" x="300.5" y="-175.5" font-family="Helvetica,sans-Serif" font-size="10.00">Vector.hpp</text>
</a>
</g>
</g>
<!-- Node3&#45;&gt;Node4 -->
<g id="edge3" class="edge"><title>Node3&#45;&gt;Node4</title>
<path fill="none" stroke="midnightblue" d="M300.5,-235.475C300.5,-228.471 300.5,-218.192 300.5,-208.696"/>
<polygon fill="midnightblue" stroke="midnightblue" points="304,-208.523 300.5,-198.523 297,-208.523 304,-208.523"/>
</g>
<!-- Node3&#45;&gt;Node5 -->
<g id="edge18" class="edge"><title>Node3&#45;&gt;Node5</title>
<path fill="none" stroke="midnightblue" d="M317.712,-235.484C334.756,-226.862 361.429,-212.86 383.5,-199 403.452,-186.471 406.986,-181.201 426.5,-168 442.464,-157.2 460.853,-145.567 474.916,-136.834"/>
<polygon fill="midnightblue" stroke="midnightblue" points="476.797,-139.787 483.464,-131.553 473.118,-133.832 476.797,-139.787"/>
</g>
<!-- Node13 -->
<g id="node13" class="node"><title>Node13</title>
<polygon fill="white" stroke="#bfbfbf" points="182,-112.5 182,-131.5 229,-131.5 229,-112.5 182,-112.5"/>
<text text-anchor="middle" x="205.5" y="-119.5" font-family="Helvetica,sans-Serif" font-size="10.00">vector</text>
</g>
<!-- Node3&#45;&gt;Node13 -->
<g id="edge19" class="edge"><title>Node3&#45;&gt;Node13</title>
<path fill="none" stroke="midnightblue" d="M270.121,-235.45C251.643,-228.632 229.225,-217.154 216.5,-199 204.811,-182.324 203.155,-158.491 203.72,-141.978"/>
<polygon fill="midnightblue" stroke="midnightblue" points="207.22,-142.098 204.371,-131.894 200.234,-141.648 207.22,-142.098"/>
</g>
<!-- Node3&#45;&gt;Node14 -->
<g id="edge13" class="edge"><title>Node3&#45;&gt;Node14</title>
<path fill="none" stroke="midnightblue" d="M349.214,-235.475C410.565,-224.739 515.893,-206.306 581.672,-194.795"/>
<polygon fill="midnightblue" stroke="midnightblue" points="582.63,-198.181 591.877,-193.009 581.423,-191.285 582.63,-198.181"/>
</g>
<!-- Node4&#45;&gt;Node5 -->
<g id="edge4" class="edge"><title>Node4&#45;&gt;Node5</title>
<path fill="none" stroke="midnightblue" d="M347.186,-168.399C381.375,-158.073 427.206,-144.231 459.239,-134.556"/>
<polygon fill="midnightblue" stroke="midnightblue" points="460.561,-137.813 469.122,-131.571 458.537,-131.112 460.561,-137.813"/>
</g>
<!-- Node12 -->
<g id="node12" class="node"><title>Node12</title>
<polygon fill="white" stroke="#bfbfbf" points="254,-112.5 254,-131.5 347,-131.5 347,-112.5 254,-112.5"/>
<text text-anchor="middle" x="300.5" y="-119.5" font-family="Helvetica,sans-Serif" font-size="10.00">Eigen/StdVector</text>
</g>
<!-- Node4&#45;&gt;Node12 -->
<g id="edge11" class="edge"><title>Node4&#45;&gt;Node12</title>
<path fill="none" stroke="midnightblue" d="M300.5,-168.399C300.5,-160.466 300.5,-150.458 300.5,-141.858"/>
<polygon fill="midnightblue" stroke="midnightblue" points="304,-141.658 300.5,-131.658 297,-141.658 304,-141.658"/>
</g>
<!-- Node4&#45;&gt;Node13 -->
<g id="edge12" class="edge"><title>Node4&#45;&gt;Node13</title>
<path fill="none" stroke="midnightblue" d="M277.986,-168.399C262.901,-158.951 243.115,-146.559 228.027,-137.109"/>
<polygon fill="midnightblue" stroke="midnightblue" points="229.656,-134 219.323,-131.658 225.941,-139.932 229.656,-134"/>
</g>
<!-- Node6 -->
<g id="node6" class="node"><title>Node6</title>
<g id="a_node6"><a xlink:href="CoreMacros_8hpp.html" target="_top" xlink:title="Core/CoreMacros.hpp">
<polygon fill="white" stroke="black" points="437.5,-56.5 437.5,-75.5 557.5,-75.5 557.5,-56.5 437.5,-56.5"/>
<text text-anchor="middle" x="497.5" y="-63.5" font-family="Helvetica,sans-Serif" font-size="10.00">Core/CoreMacros.hpp</text>
</a>
</g>
</g>
<!-- Node5&#45;&gt;Node6 -->
<g id="edge5" class="edge"><title>Node5&#45;&gt;Node6</title>
<path fill="none" stroke="midnightblue" d="M497.5,-112.083C497.5,-105.006 497.5,-94.8611 497.5,-85.9865"/>
<polygon fill="midnightblue" stroke="midnightblue" points="501,-85.751 497.5,-75.7511 494,-85.7511 501,-85.751"/>
</g>
<!-- Node7 -->
<g id="node7" class="node"><title>Node7</title>
<polygon fill="white" stroke="#bfbfbf" points="334.5,-0.5 334.5,-19.5 386.5,-19.5 386.5,-0.5 334.5,-0.5"/>
<text text-anchor="middle" x="360.5" y="-7.5" font-family="Helvetica,sans-Serif" font-size="10.00">cassert</text>
</g>
<!-- Node6&#45;&gt;Node7 -->
<g id="edge6" class="edge"><title>Node6&#45;&gt;Node7</title>
<path fill="none" stroke="midnightblue" d="M475.792,-56.4435C453.145,-47.5171 417.428,-33.4387 391.748,-23.3168"/>
<polygon fill="midnightblue" stroke="midnightblue" points="392.693,-19.9273 382.106,-19.5164 390.126,-26.4397 392.693,-19.9273"/>
</g>
<!-- Node8 -->
<g id="node8" class="node"><title>Node8</title>
<polygon fill="white" stroke="#bfbfbf" points="405,-0.5 405,-19.5 450,-19.5 450,-0.5 405,-0.5"/>
<text text-anchor="middle" x="427.5" y="-7.5" font-family="Helvetica,sans-Serif" font-size="10.00">cstdio</text>
</g>
<!-- Node6&#45;&gt;Node8 -->
<g id="edge7" class="edge"><title>Node6&#45;&gt;Node8</title>
<path fill="none" stroke="midnightblue" d="M486.253,-56.324C475.703,-48.1849 459.699,-35.8395 447.058,-26.0874"/>
<polygon fill="midnightblue" stroke="midnightblue" points="449.007,-23.1707 438.951,-19.8339 444.731,-28.7132 449.007,-23.1707"/>
</g>
<!-- Node9 -->
<g id="node9" class="node"><title>Node9</title>
<polygon fill="white" stroke="#bfbfbf" points="468,-0.5 468,-19.5 527,-19.5 527,-0.5 468,-0.5"/>
<text text-anchor="middle" x="497.5" y="-7.5" font-family="Helvetica,sans-Serif" font-size="10.00">iostream</text>
</g>
<!-- Node6&#45;&gt;Node9 -->
<g id="edge8" class="edge"><title>Node6&#45;&gt;Node9</title>
<path fill="none" stroke="midnightblue" d="M497.5,-56.083C497.5,-49.0059 497.5,-38.8611 497.5,-29.9865"/>
<polygon fill="midnightblue" stroke="midnightblue" points="501,-29.751 497.5,-19.7511 494,-29.7511 501,-29.751"/>
</g>
<!-- Node10 -->
<g id="node10" class="node"><title>Node10</title>
<polygon fill="white" stroke="#bfbfbf" points="545.5,-0.5 545.5,-19.5 601.5,-19.5 601.5,-0.5 545.5,-0.5"/>
<text text-anchor="middle" x="573.5" y="-7.5" font-family="Helvetica,sans-Serif" font-size="10.00">sstream</text>
</g>
<!-- Node6&#45;&gt;Node10 -->
<g id="edge9" class="edge"><title>Node6&#45;&gt;Node10</title>
<path fill="none" stroke="midnightblue" d="M509.711,-56.324C521.276,-48.1066 538.875,-35.6017 552.661,-25.8069"/>
<polygon fill="midnightblue" stroke="midnightblue" points="554.943,-28.4791 561.067,-19.8339 550.888,-22.7729 554.943,-28.4791"/>
</g>
<!-- Node11 -->
<g id="node11" class="node"><title>Node11</title>
<polygon fill="white" stroke="#bfbfbf" points="619.5,-0.5 619.5,-19.5 667.5,-19.5 667.5,-0.5 619.5,-0.5"/>
<text text-anchor="middle" x="643.5" y="-7.5" font-family="Helvetica,sans-Serif" font-size="10.00">thread</text>
</g>
<!-- Node6&#45;&gt;Node11 -->
<g id="edge10" class="edge"><title>Node6&#45;&gt;Node11</title>
<path fill="none" stroke="midnightblue" d="M520.634,-56.4435C544.982,-47.4381 583.507,-33.1891 610.923,-23.049"/>
<polygon fill="midnightblue" stroke="midnightblue" points="612.309,-26.2681 620.474,-19.5164 609.881,-19.7028 612.309,-26.2681"/>
</g>
<!-- Node14&#45;&gt;Node5 -->
<g id="edge14" class="edge"><title>Node14&#45;&gt;Node5</title>
<path fill="none" stroke="midnightblue" d="M620.012,-173.975C595.694,-163.857 554.951,-146.905 527.183,-135.351"/>
<polygon fill="midnightblue" stroke="midnightblue" points="528.528,-132.119 517.95,-131.509 525.839,-138.582 528.528,-132.119"/>
</g>
<!-- Node15 -->
<g id="node15" class="node"><title>Node15</title>
<polygon fill="white" stroke="#bfbfbf" points="612.5,-112.5 612.5,-131.5 680.5,-131.5 680.5,-112.5 612.5,-112.5"/>
<text text-anchor="middle" x="646.5" y="-119.5" font-family="Helvetica,sans-Serif" font-size="10.00">Eigen/Core</text>
</g>
<!-- Node14&#45;&gt;Node15 -->
<g id="edge15" class="edge"><title>Node14&#45;&gt;Node15</title>
<path fill="none" stroke="midnightblue" d="M641.36,-173.975C642.206,-165.58 643.527,-152.481 644.618,-141.663"/>
<polygon fill="midnightblue" stroke="midnightblue" points="648.121,-141.81 645.642,-131.509 641.156,-141.107 648.121,-141.81"/>
</g>
<!-- Node16 -->
<g id="node16" class="node"><title>Node16</title>
<polygon fill="white" stroke="#bfbfbf" points="705.5,-112.5 705.5,-131.5 799.5,-131.5 799.5,-112.5 705.5,-112.5"/>
<text text-anchor="middle" x="752.5" y="-119.5" font-family="Helvetica,sans-Serif" font-size="10.00">Eigen/Geometry</text>
</g>
<!-- Node14&#45;&gt;Node16 -->
<g id="edge16" class="edge"><title>Node14&#45;&gt;Node16</title>
<path fill="none" stroke="midnightblue" d="M656.547,-173.975C675.093,-164.122 705.84,-147.788 727.522,-136.27"/>
<polygon fill="midnightblue" stroke="midnightblue" points="729.294,-139.292 736.483,-131.509 726.01,-133.11 729.294,-139.292"/>
</g>
<!-- Node17 -->
<g id="node17" class="node"><title>Node17</title>
<polygon fill="white" stroke="#bfbfbf" points="957.5,-112.5 957.5,-131.5 1037.5,-131.5 1037.5,-112.5 957.5,-112.5"/>
<text text-anchor="middle" x="997.5" y="-119.5" font-family="Helvetica,sans-Serif" font-size="10.00">Eigen/Sparse</text>
</g>
<!-- Node14&#45;&gt;Node17 -->
<g id="edge17" class="edge"><title>Node14&#45;&gt;Node17</title>
<path fill="none" stroke="midnightblue" d="M691.649,-173.975C759.869,-162.605 879.872,-142.605 947.502,-131.333"/>
<polygon fill="midnightblue" stroke="midnightblue" points="948.201,-134.765 957.49,-129.668 947.05,-127.86 948.201,-134.765"/>
</g>
<!-- Node18&#45;&gt;Node3 -->
<g id="edge23" class="edge"><title>Node18&#45;&gt;Node3</title>
<path fill="none" stroke="midnightblue" d="M187.733,-291.444C209.884,-282.517 244.819,-268.439 269.936,-258.317"/>
<polygon fill="midnightblue" stroke="midnightblue" points="271.4,-261.501 279.367,-254.516 268.783,-255.008 271.4,-261.501"/>
</g>
<!-- Node18&#45;&gt;Node5 -->
<g id="edge24" class="edge"><title>Node18&#45;&gt;Node5</title>
<path fill="none" stroke="midnightblue" d="M226.239,-293.091C284.332,-285.523 367.753,-272.145 395.5,-255 401.578,-251.244 458.91,-174.823 484.854,-140.012"/>
<polygon fill="midnightblue" stroke="midnightblue" points="487.835,-141.869 490.999,-131.758 482.22,-137.69 487.835,-141.869"/>
</g>
<!-- Node19 -->
<g id="node19" class="node"><title>Node19</title>
<g id="a_node19"><a xlink:href="Index_8hpp.html" target="_top" xlink:title="Core/Utils/Index.hpp">
<polygon fill="white" stroke="black" points="83,-235.5 83,-254.5 196,-254.5 196,-235.5 83,-235.5"/>
<text text-anchor="middle" x="139.5" y="-242.5" font-family="Helvetica,sans-Serif" font-size="10.00">Core/Utils/Index.hpp</text>
</a>
</g>
</g>
<!-- Node18&#45;&gt;Node19 -->
<g id="edge25" class="edge"><title>Node18&#45;&gt;Node19</title>
<path fill="none" stroke="midnightblue" d="M162.041,-291.083C158.346,-283.691 152.977,-272.953 148.406,-263.811"/>
<polygon fill="midnightblue" stroke="midnightblue" points="151.478,-262.13 143.876,-254.751 145.217,-265.261 151.478,-262.13"/>
</g>
<!-- Node20 -->
<g id="node20" class="node"><title>Node20</title>
<polygon fill="white" stroke="#bfbfbf" points="123.5,-174 123.5,-193 165.5,-193 165.5,-174 123.5,-174"/>
<text text-anchor="middle" x="144.5" y="-181" font-family="Helvetica,sans-Serif" font-size="10.00">limits</text>
</g>
<!-- Node19&#45;&gt;Node20 -->
<g id="edge26" class="edge"><title>Node19&#45;&gt;Node20</title>
<path fill="none" stroke="midnightblue" d="M140.216,-235.475C140.922,-227.08 142.023,-213.981 142.932,-203.163"/>
<polygon fill="midnightblue" stroke="midnightblue" points="146.435,-203.267 143.785,-193.009 139.46,-202.681 146.435,-203.267"/>
</g>
<!-- Node21 -->
<g id="node21" class="node"><title>Node21</title>
<g id="a_node21"><a xlink:href="Index_8inl.html" target="_top" xlink:title="Core/Utils/Index.inl">
<polygon fill="white" stroke="black" points="0,-174 0,-193 105,-193 105,-174 0,-174"/>
<text text-anchor="middle" x="52.5" y="-181" font-family="Helvetica,sans-Serif" font-size="10.00">Core/Utils/Index.inl</text>
</a>
</g>
</g>
<!-- Node19&#45;&gt;Node21 -->
<g id="edge27" class="edge"><title>Node19&#45;&gt;Node21</title>
<path fill="none" stroke="midnightblue" d="M127.035,-235.475C113.081,-225.931 90.2351,-210.307 73.5091,-198.868"/>
<polygon fill="midnightblue" stroke="midnightblue" points="75.1719,-195.765 64.9419,-193.009 71.2203,-201.543 75.1719,-195.765"/>
</g>
<!-- Node22&#45;&gt;Node2 -->
<g id="edge29" class="edge"><title>Node22&#45;&gt;Node2</title>
<path fill="none" stroke="midnightblue" d="M371.631,-310.751C373.157,-317.858 373.604,-328.136 372.972,-337.101"/>
<polygon fill="midnightblue" stroke="midnightblue" points="369.493,-336.713 371.666,-347.083 376.434,-337.622 369.493,-336.713"/>
</g>
<!-- Node23&#45;&gt;Node1 -->
<g id="edge32" class="edge"><title>Node23&#45;&gt;Node1</title>
<path fill="none" stroke="midnightblue" d="M669.411,-366.652C664.178,-374.182 654.529,-385.51 644.635,-396.038"/>
<polygon fill="midnightblue" stroke="midnightblue" points="641.866,-393.868 637.447,-403.498 646.906,-398.725 641.866,-393.868"/>
</g>
<!-- Node24 -->
<g id="node24" class="node"><title>Node24</title>
<g id="a_node24"><a xlink:href="LinearAlgebra_8hpp.html" target="_top" xlink:title="Core/Math/LinearAlgebra.hpp">
<polygon fill="white" stroke="black" points="746.5,-235.5 746.5,-254.5 902.5,-254.5 902.5,-235.5 746.5,-235.5"/>
<text text-anchor="middle" x="824.5" y="-242.5" font-family="Helvetica,sans-Serif" font-size="10.00">Core/Math/LinearAlgebra.hpp</text>
</a>
</g>
</g>
<!-- Node23&#45;&gt;Node24 -->
<g id="edge33" class="edge"><title>Node23&#45;&gt;Node24</title>
<path fill="none" stroke="midnightblue" d="M684.427,-347.368C710.399,-328.573 772.311,-283.768 804.418,-260.533"/>
<polygon fill="midnightblue" stroke="midnightblue" points="806.579,-263.29 812.628,-254.591 802.475,-257.619 806.579,-263.29"/>
</g>
<!-- Node24&#45;&gt;Node5 -->
<g id="edge34" class="edge"><title>Node24&#45;&gt;Node5</title>
<path fill="none" stroke="midnightblue" d="M746.496,-242.029C694.866,-237.916 627.062,-226.98 573.5,-199 546.459,-184.874 522.958,-157.791 509.505,-140.064"/>
<polygon fill="midnightblue" stroke="midnightblue" points="512.156,-137.76 503.421,-131.765 506.511,-141.899 512.156,-137.76"/>
</g>
<!-- Node24&#45;&gt;Node14 -->
<g id="edge46" class="edge"><title>Node24&#45;&gt;Node14</title>
<path fill="none" stroke="midnightblue" d="M798.137,-235.475C766.165,-225.136 712.124,-207.661 676.378,-196.102"/>
<polygon fill="midnightblue" stroke="midnightblue" points="677.406,-192.756 666.814,-193.009 675.252,-199.416 677.406,-192.756"/>
</g>
<!-- Node24&#45;&gt;Node15 -->
<g id="edge35" class="edge"><title>Node24&#45;&gt;Node15</title>
<path fill="none" stroke="midnightblue" d="M811.983,-235.492C781.927,-215.06 705.398,-163.038 667.886,-137.537"/>
<polygon fill="midnightblue" stroke="midnightblue" points="669.479,-134.388 659.241,-131.661 665.544,-140.177 669.479,-134.388"/>
</g>
<!-- Node24&#45;&gt;Node16 -->
<g id="edge36" class="edge"><title>Node24&#45;&gt;Node16</title>
<path fill="none" stroke="midnightblue" d="M815.275,-235.407C806.481,-226.837 793.309,-212.97 784.5,-199 772.96,-180.699 763.893,-157.52 758.401,-141.6"/>
<polygon fill="midnightblue" stroke="midnightblue" points="761.651,-140.279 755.184,-131.887 755.006,-142.481 761.651,-140.279"/>
</g>
<!-- Node24&#45;&gt;Node17 -->
<g id="edge37" class="edge"><title>Node24&#45;&gt;Node17</title>
<path fill="none" stroke="midnightblue" d="M902.675,-236.811C953.291,-230.352 1012.63,-218.756 1028.5,-199 1042.79,-181.216 1027.08,-155.953 1013.31,-139.52"/>
<polygon fill="midnightblue" stroke="midnightblue" points="1015.72,-136.959 1006.45,-131.818 1010.49,-141.614 1015.72,-136.959"/>
</g>
<!-- Node25 -->
<g id="node25" class="node"><title>Node25</title>
<polygon fill="white" stroke="#bfbfbf" points="793,-174 793,-193 856,-193 856,-174 793,-174"/>
<text text-anchor="middle" x="824.5" y="-181" font-family="Helvetica,sans-Serif" font-size="10.00">functional</text>
</g>
<!-- Node24&#45;&gt;Node25 -->
<g id="edge38" class="edge"><title>Node24&#45;&gt;Node25</title>
<path fill="none" stroke="midnightblue" d="M824.5,-235.475C824.5,-227.08 824.5,-213.981 824.5,-203.163"/>
<polygon fill="midnightblue" stroke="midnightblue" points="828,-203.009 824.5,-193.009 821,-203.009 828,-203.009"/>
</g>
<!-- Node26 -->
<g id="node26" class="node"><title>Node26</title>
<polygon fill="white" stroke="#bfbfbf" points="874,-168.5 874,-198.5 1019,-198.5 1019,-168.5 874,-168.5"/>
<text text-anchor="start" x="882" y="-186.5" font-family="Helvetica,sans-Serif" font-size="10.00">unsupported/Eigen/Aligned</text>
<text text-anchor="middle" x="946.5" y="-175.5" font-family="Helvetica,sans-Serif" font-size="10.00">Vector3</text>
</g>
<!-- Node24&#45;&gt;Node26 -->
<g id="edge39" class="edge"><title>Node24&#45;&gt;Node26</title>
<path fill="none" stroke="midnightblue" d="M841.98,-235.475C859.275,-227.04 886.31,-213.855 908.551,-203.008"/>
<polygon fill="midnightblue" stroke="midnightblue" points="910.293,-206.052 917.747,-198.523 907.225,-199.761 910.293,-206.052"/>
</g>
<!-- Node27 -->
<g id="node27" class="node"><title>Node27</title>
<g id="a_node27"><a xlink:href="Math_8hpp.html" target="_top" xlink:title="Core/Math/Math.hpp">
<polygon fill="white" stroke="black" points="1242.5,-174 1242.5,-193 1356.5,-193 1356.5,-174 1242.5,-174"/>
<text text-anchor="middle" x="1299.5" y="-181" font-family="Helvetica,sans-Serif" font-size="10.00">Core/Math/Math.hpp</text>
</a>
</g>
</g>
<!-- Node24&#45;&gt;Node27 -->
<g id="edge40" class="edge"><title>Node24&#45;&gt;Node27</title>
<path fill="none" stroke="midnightblue" d="M902.865,-237.879C985.443,-230.845 1119.13,-217.8 1233.5,-199 1240.19,-197.9 1247.22,-196.559 1254.1,-195.14"/>
<polygon fill="midnightblue" stroke="midnightblue" points="1254.96,-198.535 1264.01,-193.025 1253.5,-191.689 1254.96,-198.535"/>
</g>
<!-- Node31 -->
<g id="node31" class="node"><title>Node31</title>
<g id="a_node31"><a xlink:href="LinearAlgebra_8inl.html" target="_top" xlink:title="Core/Math/LinearAlgebra.inl">
<polygon fill="white" stroke="black" points="1075,-174 1075,-193 1224,-193 1224,-174 1075,-174"/>
<text text-anchor="middle" x="1149.5" y="-181" font-family="Helvetica,sans-Serif" font-size="10.00">Core/Math/LinearAlgebra.inl</text>
</a>
</g>
</g>
<!-- Node24&#45;&gt;Node31 -->
<g id="edge47" class="edge"><title>Node24&#45;&gt;Node31</title>
<path fill="none" stroke="midnightblue" d="M866.164,-235.475C922.467,-224.739 1023.03,-206.306 1088.01,-194.795"/>
<polygon fill="midnightblue" stroke="midnightblue" points="1088.89,-198.195 1098.12,-193.009 1087.67,-191.302 1088.89,-198.195"/>
</g>
<!-- Node27&#45;&gt;Node5 -->
<g id="edge41" class="edge"><title>Node27&#45;&gt;Node5</title>
<path fill="none" stroke="midnightblue" d="M1265.43,-173.931C1255.22,-171.658 1243.96,-169.439 1233.5,-168 955.658,-129.789 883.252,-151.865 603.5,-132 588.382,-130.926 572.064,-129.616 556.869,-128.332"/>
<polygon fill="midnightblue" stroke="midnightblue" points="556.819,-124.815 546.557,-127.45 556.223,-131.789 556.819,-124.815"/>
</g>
<!-- Node28 -->
<g id="node28" class="node"><title>Node28</title>
<polygon fill="white" stroke="#bfbfbf" points="1147.5,-112.5 1147.5,-131.5 1209.5,-131.5 1209.5,-112.5 1147.5,-112.5"/>
<text text-anchor="middle" x="1178.5" y="-119.5" font-family="Helvetica,sans-Serif" font-size="10.00">algorithm</text>
</g>
<!-- Node27&#45;&gt;Node28 -->
<g id="edge42" class="edge"><title>Node27&#45;&gt;Node28</title>
<path fill="none" stroke="midnightblue" d="M1282.16,-173.975C1261.95,-164.034 1228.31,-147.495 1204.86,-135.961"/>
<polygon fill="midnightblue" stroke="midnightblue" points="1206.32,-132.781 1195.8,-131.509 1203.23,-139.063 1206.32,-132.781"/>
</g>
<!-- Node29 -->
<g id="node29" class="node"><title>Node29</title>
<polygon fill="white" stroke="#bfbfbf" points="1228,-112.5 1228,-131.5 1275,-131.5 1275,-112.5 1228,-112.5"/>
<text text-anchor="middle" x="1251.5" y="-119.5" font-family="Helvetica,sans-Serif" font-size="10.00">cmath</text>
</g>
<!-- Node27&#45;&gt;Node29 -->
<g id="edge43" class="edge"><title>Node27&#45;&gt;Node29</title>
<path fill="none" stroke="midnightblue" d="M1292.62,-173.975C1285.35,-164.962 1273.7,-150.525 1264.66,-139.312"/>
<polygon fill="midnightblue" stroke="midnightblue" points="1267.37,-137.095 1258.36,-131.509 1261.92,-141.49 1267.37,-137.095"/>
</g>
<!-- Node30 -->
<g id="node30" class="node"><title>Node30</title>
<g id="a_node30"><a xlink:href="Math_8inl.html" target="_top" xlink:title="Core/Math/Math.inl">
<polygon fill="white" stroke="black" points="1293,-112.5 1293,-131.5 1400,-131.5 1400,-112.5 1293,-112.5"/>
<text text-anchor="middle" x="1346.5" y="-119.5" font-family="Helvetica,sans-Serif" font-size="10.00">Core/Math/Math.inl</text>
</a>
</g>
</g>
<!-- Node27&#45;&gt;Node30 -->
<g id="edge44" class="edge"><title>Node27&#45;&gt;Node30</title>
<path fill="none" stroke="midnightblue" d="M1301.33,-173.975C1306.54,-164.873 1317.71,-150.241 1327.81,-138.983"/>
<polygon fill="midnightblue" stroke="midnightblue" points="1330.55,-141.18 1334.88,-131.509 1325.47,-136.37 1330.55,-141.18"/>
</g>
<!-- Node30&#45;&gt;Node27 -->
<g id="edge45" class="edge"><title>Node30&#45;&gt;Node27</title>
<path fill="none" stroke="midnightblue" d="M1344.68,-131.509C1339.48,-140.604 1328.31,-155.236 1318.2,-166.497"/>
<polygon fill="midnightblue" stroke="midnightblue" points="1315.46,-164.304 1311.13,-173.975 1320.55,-169.113 1315.46,-164.304"/>
</g>
<!-- Node31&#45;&gt;Node24 -->
<g id="edge48" class="edge"><title>Node31&#45;&gt;Node24</title>
<path fill="none" stroke="midnightblue" d="M1107.92,-193.009C1051.66,-203.738 951.101,-222.17 886.083,-233.688"/>
<polygon fill="midnightblue" stroke="midnightblue" points="885.204,-230.289 875.965,-235.475 886.422,-237.182 885.204,-230.289"/>
</g>
</g>
</svg>
