<?xml version="1.0" encoding="UTF-8" standalone="no"?>
<!DOCTYPE svg PUBLIC "-//W3C//DTD SVG 1.1//EN"
 "http://www.w3.org/Graphics/SVG/1.1/DTD/svg11.dtd">
<!-- Generated by graphviz version 2.38.0 (20140413.2041)
 -->
<!-- Title: Ra::Engine::DrawPrimitives::Spline Pages: 1 -->
<svg width="465pt" height="78pt"
 viewBox="0.00 0.00 465.00 77.50" xmlns="http://www.w3.org/2000/svg" xmlns:xlink="http://www.w3.org/1999/xlink">
<g id="graph0" class="graph" transform="scale(1 1) rotate(0) translate(4 73.5)">
<title>Ra::Engine::DrawPrimitives::Spline</title>
<polygon fill="white" stroke="none" points="-4,4 -4,-73.5 461,-73.5 461,4 -4,4"/>
<!-- Node1 -->
<g id="node1" class="node"><title>Node1</title>
<polygon fill="#bfbfbf" stroke="black" points="0,-22.5 0,-52.5 143,-52.5 143,-22.5 0,-22.5"/>
<text text-anchor="start" x="8" y="-40.5" font-family="Helvetica,sans-Serif" font-size="10.00">Ra::Engine::DrawPrimitives</text>
<text text-anchor="middle" x="71.5" y="-29.5" font-family="Helvetica,sans-Serif" font-size="10.00">::Spline</text>
</g>
<!-- Node2 -->
<g id="node2" class="node"><title>Node2</title>
<g id="a_node2"><a xlink:href="namespaceRa_1_1Core_1_1Geometry.html#aa04e6052d8911b1df1bd881474debb45" target="_top" xlink:title="Ra::Core::Geometry::t">
<polygon fill="white" stroke="black" points="179,-50 179,-69 299,-69 299,-50 179,-50"/>
<text text-anchor="middle" x="239" y="-57" font-family="Helvetica,sans-Serif" font-size="10.00">Ra::Core::Geometry::t</text>
</a>
</g>
</g>
<!-- Node1&#45;&gt;Node2 -->
<g id="edge1" class="edge"><title>Node1&#45;&gt;Node2</title>
<path fill="none" stroke="midnightblue" d="M143.167,-46.8938C151.599,-48.0147 160.202,-49.1583 168.616,-50.2768"/>
<polygon fill="midnightblue" stroke="midnightblue" points="168.387,-53.777 178.761,-51.6253 169.309,-46.8381 168.387,-53.777"/>
</g>
<!-- Node3 -->
<g id="node3" class="node"><title>Node3</title>
<g id="a_node3"><a xlink:href="classRa_1_1Core_1_1Geometry_1_1Spline.html#ab99f4b66c93ef11fb323721f5c91c107" target="_top" xlink:title="Evaluate position of the spline. ">
<polygon fill="white" stroke="black" points="183.5,-0.5 183.5,-30.5 294.5,-30.5 294.5,-0.5 183.5,-0.5"/>
<text text-anchor="start" x="191.5" y="-18.5" font-family="Helvetica,sans-Serif" font-size="10.00">Ra::Core::Geometry</text>
<text text-anchor="middle" x="239" y="-7.5" font-family="Helvetica,sans-Serif" font-size="10.00">::Spline::f</text>
</a>
</g>
</g>
<!-- Node1&#45;&gt;Node3 -->
<g id="edge2" class="edge"><title>Node1&#45;&gt;Node3</title>
<path fill="none" stroke="midnightblue" d="M143.167,-28.1062C153.143,-26.78 163.359,-25.422 173.218,-24.1115"/>
<polygon fill="midnightblue" stroke="midnightblue" points="173.885,-27.5537 183.337,-22.7664 172.963,-20.6147 173.885,-27.5537"/>
</g>
<!-- Node4 -->
<g id="node4" class="node"><title>Node4</title>
<g id="a_node4"><a xlink:href="namespaceRa_1_1Core_1_1Math.html#a43a856c00d750c5f5c28f362b5df8664" target="_top" xlink:title="Returns value v clamped between bounds min and max. ">
<polygon fill="white" stroke="black" points="335,-6 335,-25 457,-25 457,-6 335,-6"/>
<text text-anchor="middle" x="396" y="-13" font-family="Helvetica,sans-Serif" font-size="10.00">Ra::Core::Math::clamp</text>
</a>
</g>
</g>
<!-- Node3&#45;&gt;Node4 -->
<g id="edge3" class="edge"><title>Node3&#45;&gt;Node4</title>
<path fill="none" stroke="midnightblue" d="M294.647,-15.5C304.387,-15.5 314.656,-15.5 324.759,-15.5"/>
<polygon fill="midnightblue" stroke="midnightblue" points="324.781,-19.0001 334.781,-15.5 324.781,-12.0001 324.781,-19.0001"/>
</g>
</g>
</svg>
