<?xml version="1.0" encoding="UTF-8" standalone="no"?>
<!DOCTYPE svg PUBLIC "-//W3C//DTD SVG 1.1//EN"
 "http://www.w3.org/Graphics/SVG/1.1/DTD/svg11.dtd">
<!-- Generated by graphviz version 2.38.0 (20140413.2041)
 -->
<!-- Title: Ra::Engine::getItemROs Pages: 1 -->
<svg width="779pt" height="410pt"
 viewBox="0.00 0.00 779.00 410.00" xmlns="http://www.w3.org/2000/svg" xmlns:xlink="http://www.w3.org/1999/xlink">
<g id="graph0" class="graph" transform="scale(1 1) rotate(0) translate(4 406)">
<title>Ra::Engine::getItemROs</title>
<polygon fill="white" stroke="none" points="-4,4 -4,-406 775,-406 775,4 -4,4"/>
<!-- Node1 -->
<g id="node1" class="node"><title>Node1</title>
<polygon fill="#bfbfbf" stroke="black" points="0,-251 0,-270 129,-270 129,-251 0,-251"/>
<text text-anchor="middle" x="64.5" y="-258" font-family="Helvetica,sans-Serif" font-size="10.00">Ra::Engine::getItemROs</text>
</g>
<!-- Node2 -->
<g id="node2" class="node"><title>Node2</title>
<g id="a_node2"><a xlink:href="structRa_1_1Engine_1_1ItemEntry.html#aceafc81a73631955b64999dd39a639da" target="_top" xlink:title="Returns true if the item represents any valid object. ">
<polygon fill="white" stroke="black" points="165,-196.5 165,-226.5 284,-226.5 284,-196.5 165,-196.5"/>
<text text-anchor="start" x="173" y="-214.5" font-family="Helvetica,sans-Serif" font-size="10.00">Ra::Engine::ItemEntry</text>
<text text-anchor="middle" x="224.5" y="-203.5" font-family="Helvetica,sans-Serif" font-size="10.00">::isValid</text>
</a>
</g>
</g>
<!-- Node1&#45;&gt;Node2 -->
<g id="edge1" class="edge"><title>Node1&#45;&gt;Node2</title>
<path fill="none" stroke="midnightblue" d="M96.3391,-250.936C115.906,-244.868 141.846,-236.823 165.193,-229.583"/>
<polygon fill="midnightblue" stroke="midnightblue" points="166.499,-232.842 175.013,-226.537 164.425,-226.156 166.499,-232.842"/>
</g>
<!-- Node8 -->
<g id="node8" class="node"><title>Node8</title>
<g id="a_node8"><a xlink:href="structRa_1_1Engine_1_1ItemEntry.html#a898047549069e5b64d3a9a65c058af56" target="_top" xlink:title="Returns true if the item represents a render object. ">
<polygon fill="white" stroke="black" points="332.5,-245.5 332.5,-275.5 451.5,-275.5 451.5,-245.5 332.5,-245.5"/>
<text text-anchor="start" x="340.5" y="-263.5" font-family="Helvetica,sans-Serif" font-size="10.00">Ra::Engine::ItemEntry</text>
<text text-anchor="middle" x="392" y="-252.5" font-family="Helvetica,sans-Serif" font-size="10.00">::isRoNode</text>
</a>
</g>
</g>
<!-- Node1&#45;&gt;Node8 -->
<g id="edge13" class="edge"><title>Node1&#45;&gt;Node8</title>
<path fill="none" stroke="midnightblue" d="M129.032,-260.5C184.621,-260.5 265.182,-260.5 322.263,-260.5"/>
<polygon fill="midnightblue" stroke="midnightblue" points="322.28,-264 332.28,-260.5 322.28,-257 322.28,-264"/>
</g>
<!-- Node12 -->
<g id="node12" class="node"><title>Node12</title>
<g id="a_node12"><a xlink:href="structRa_1_1Engine_1_1ItemEntry.html#ac78e7430338c62ed664a16da7e3ea206" target="_top" xlink:title="Returns true if the item represents a component. ">
<polygon fill="white" stroke="black" points="332.5,-371.5 332.5,-401.5 451.5,-401.5 451.5,-371.5 332.5,-371.5"/>
<text text-anchor="start" x="340.5" y="-389.5" font-family="Helvetica,sans-Serif" font-size="10.00">Ra::Engine::ItemEntry</text>
<text text-anchor="middle" x="392" y="-378.5" font-family="Helvetica,sans-Serif" font-size="10.00">::isComponentNode</text>
</a>
</g>
</g>
<!-- Node1&#45;&gt;Node12 -->
<g id="edge14" class="edge"><title>Node1&#45;&gt;Node12</title>
<path fill="none" stroke="midnightblue" d="M74.9528,-270.241C91.5649,-286.759 127.778,-320.156 165,-337.5 214.733,-360.674 275.775,-373.07 321.877,-379.591"/>
<polygon fill="midnightblue" stroke="midnightblue" points="321.69,-383.098 332.069,-380.972 322.63,-376.161 321.69,-383.098"/>
</g>
<!-- Node13 -->
<g id="node13" class="node"><title>Node13</title>
<g id="a_node13"><a xlink:href="structRa_1_1Engine_1_1ItemEntry.html#a4823dfa3c113db71733979f1719f3b28" target="_top" xlink:title="Returns true if the item represents an entity. ">
<polygon fill="white" stroke="black" points="165,-298.5 165,-328.5 284,-328.5 284,-298.5 165,-298.5"/>
<text text-anchor="start" x="173" y="-316.5" font-family="Helvetica,sans-Serif" font-size="10.00">Ra::Engine::ItemEntry</text>
<text text-anchor="middle" x="224.5" y="-305.5" font-family="Helvetica,sans-Serif" font-size="10.00">::isEntityNode</text>
</a>
</g>
</g>
<!-- Node1&#45;&gt;Node13 -->
<g id="edge17" class="edge"><title>Node1&#45;&gt;Node13</title>
<path fill="none" stroke="midnightblue" d="M94.1126,-270.098C114.917,-277.077 143.723,-286.739 168.874,-295.176"/>
<polygon fill="midnightblue" stroke="midnightblue" points="168.076,-298.6 178.67,-298.462 170.302,-291.963 168.076,-298.6"/>
</g>
<!-- Node14 -->
<g id="node14" class="node"><title>Node14</title>
<g id="a_node14"><a xlink:href="classRa_1_1Engine_1_1Entity.html#ae48596d95b5dcb605e046d12461959e6" target="_top" xlink:title="Ra::Engine::Entity\l::getComponents">
<polygon fill="white" stroke="black" points="174.5,-147.5 174.5,-177.5 274.5,-177.5 274.5,-147.5 174.5,-147.5"/>
<text text-anchor="start" x="182.5" y="-165.5" font-family="Helvetica,sans-Serif" font-size="10.00">Ra::Engine::Entity</text>
<text text-anchor="middle" x="224.5" y="-154.5" font-family="Helvetica,sans-Serif" font-size="10.00">::getComponents</text>
</a>
</g>
</g>
<!-- Node1&#45;&gt;Node14 -->
<g id="edge19" class="edge"><title>Node1&#45;&gt;Node14</title>
<path fill="none" stroke="midnightblue" d="M76.5011,-250.857C94.2001,-235.691 130.515,-205.989 165,-186.5 167.819,-184.907 170.766,-183.362 173.772,-181.876"/>
<polygon fill="midnightblue" stroke="midnightblue" points="175.332,-185.01 182.907,-177.602 172.366,-178.67 175.332,-185.01"/>
</g>
<!-- Node3 -->
<g id="node3" class="node"><title>Node3</title>
<g id="a_node3"><a xlink:href="structRa_1_1Engine_1_1ItemEntry.html#a1fb9fdd74413a1fa5878f53c1cfcf8fd" target="_top" xlink:title="Debug checks. ">
<polygon fill="white" stroke="black" points="500,-327.5 500,-357.5 619,-357.5 619,-327.5 500,-327.5"/>
<text text-anchor="start" x="508" y="-345.5" font-family="Helvetica,sans-Serif" font-size="10.00">Ra::Engine::ItemEntry</text>
<text text-anchor="middle" x="559.5" y="-334.5" font-family="Helvetica,sans-Serif" font-size="10.00">::checkConsistency</text>
</a>
</g>
</g>
<!-- Node2&#45;&gt;Node3 -->
<g id="edge2" class="edge"><title>Node2&#45;&gt;Node3</title>
<path fill="none" stroke="midnightblue" d="M240.808,-226.733C258.423,-243.394 288.935,-269.692 320,-284.5 379.361,-312.795 400.13,-302.85 464,-318.5 472.481,-320.578 481.381,-322.793 490.188,-325.006"/>
<polygon fill="midnightblue" stroke="midnightblue" points="489.51,-328.444 500.063,-327.495 491.222,-321.657 489.51,-328.444"/>
</g>
<!-- Node5 -->
<g id="node5" class="node"><title>Node5</title>
<g id="a_node5"><a xlink:href="classRa_1_1Engine_1_1RadiumEngine.html#a79f6626ce468268791bc5bdfe17b5586" target="_top" xlink:title="Get the entity manager attached to the engine. ">
<polygon fill="white" stroke="black" points="321.5,-49.5 321.5,-79.5 462.5,-79.5 462.5,-49.5 321.5,-49.5"/>
<text text-anchor="start" x="329.5" y="-67.5" font-family="Helvetica,sans-Serif" font-size="10.00">Ra::Engine::RadiumEngine</text>
<text text-anchor="middle" x="392" y="-56.5" font-family="Helvetica,sans-Serif" font-size="10.00">::getEntityManager</text>
</a>
</g>
</g>
<!-- Node2&#45;&gt;Node5 -->
<g id="edge4" class="edge"><title>Node2&#45;&gt;Node5</title>
<path fill="none" stroke="midnightblue" d="M271.372,-196.421C276.012,-193.626 280.35,-190.345 284,-186.5 315.95,-152.85 286.764,-120.88 320,-88.5 321.107,-87.4218 322.264,-86.3919 323.463,-85.4083"/>
<polygon fill="midnightblue" stroke="midnightblue" points="325.69,-88.1244 331.933,-79.5644 321.715,-82.3627 325.69,-88.1244"/>
</g>
<!-- Node6 -->
<g id="node6" class="node"><title>Node6</title>
<g id="a_node6"><a xlink:href="classRa_1_1Engine_1_1EntityManager.html#a5115cccae6aaef614ad4bd08e64d8185" target="_top" xlink:title="Check wether an entity with a given name exists or not. ">
<polygon fill="white" stroke="black" points="321,-196.5 321,-226.5 463,-226.5 463,-196.5 321,-196.5"/>
<text text-anchor="start" x="329" y="-214.5" font-family="Helvetica,sans-Serif" font-size="10.00">Ra::Engine::EntityManager</text>
<text text-anchor="middle" x="392" y="-203.5" font-family="Helvetica,sans-Serif" font-size="10.00">::entityExists</text>
</a>
</g>
</g>
<!-- Node2&#45;&gt;Node6 -->
<g id="edge5" class="edge"><title>Node2&#45;&gt;Node6</title>
<path fill="none" stroke="midnightblue" d="M284.315,-211.5C292.888,-211.5 301.836,-211.5 310.746,-211.5"/>
<polygon fill="midnightblue" stroke="midnightblue" points="310.766,-215 320.766,-211.5 310.766,-208 310.766,-215"/>
</g>
<!-- Node7 -->
<g id="node7" class="node"><title>Node7</title>
<g id="a_node7"><a xlink:href="classRa_1_1Engine_1_1Entity.html#aaf256bea44bbc5bff6aa504aca05ca35" target="_top" xlink:title="Ra::Engine::Entity\l::getName">
<polygon fill="white" stroke="black" points="342,-147.5 342,-177.5 442,-177.5 442,-147.5 342,-147.5"/>
<text text-anchor="start" x="350" y="-165.5" font-family="Helvetica,sans-Serif" font-size="10.00">Ra::Engine::Entity</text>
<text text-anchor="middle" x="392" y="-154.5" font-family="Helvetica,sans-Serif" font-size="10.00">::getName</text>
</a>
</g>
</g>
<!-- Node2&#45;&gt;Node7 -->
<g id="edge6" class="edge"><title>Node2&#45;&gt;Node7</title>
<path fill="none" stroke="midnightblue" d="M276.506,-196.399C294.137,-191.178 314.034,-185.287 332.237,-179.898"/>
<polygon fill="midnightblue" stroke="midnightblue" points="333.269,-183.243 341.863,-177.048 331.281,-176.531 333.269,-183.243"/>
</g>
<!-- Node2&#45;&gt;Node8 -->
<g id="edge7" class="edge"><title>Node2&#45;&gt;Node8</title>
<path fill="none" stroke="midnightblue" d="M276.506,-226.601C293.575,-231.655 312.768,-237.338 330.491,-242.585"/>
<polygon fill="midnightblue" stroke="midnightblue" points="329.58,-245.965 340.163,-245.448 331.568,-239.253 329.58,-245.965"/>
</g>
<!-- Node10 -->
<g id="node10" class="node"><title>Node10</title>
<g id="a_node10"><a xlink:href="classRa_1_1Engine_1_1RadiumEngine.html#a58b27bc600ea769f68b0e2938abc7862" target="_top" xlink:title="Manager getters. ">
<polygon fill="white" stroke="black" points="320,-98.5 320,-128.5 464,-128.5 464,-98.5 320,-98.5"/>
<text text-anchor="start" x="328" y="-116.5" font-family="Helvetica,sans-Serif" font-size="10.00">Ra::Engine::RadiumEngine</text>
<text text-anchor="middle" x="392" y="-105.5" font-family="Helvetica,sans-Serif" font-size="10.00">::getRenderObjectManager</text>
</a>
</g>
</g>
<!-- Node2&#45;&gt;Node10 -->
<g id="edge10" class="edge"><title>Node2&#45;&gt;Node10</title>
<path fill="none" stroke="midnightblue" d="M268.257,-196.447C273.826,-193.581 279.24,-190.275 284,-186.5 305.173,-169.708 298.189,-153.455 320,-137.5 321.877,-136.127 323.838,-134.828 325.863,-133.601"/>
<polygon fill="midnightblue" stroke="midnightblue" points="327.917,-136.471 335.078,-128.663 324.61,-130.301 327.917,-136.471"/>
</g>
<!-- Node11 -->
<g id="node11" class="node"><title>Node11</title>
<g id="a_node11"><a xlink:href="classRa_1_1Engine_1_1RenderObjectManager.html#a088feae4339349a81b7b6635b38aead1" target="_top" xlink:title="Returns true if the index points to a valid render object. ">
<polygon fill="white" stroke="black" points="323.5,-0.5 323.5,-30.5 460.5,-30.5 460.5,-0.5 323.5,-0.5"/>
<text text-anchor="start" x="331.5" y="-18.5" font-family="Helvetica,sans-Serif" font-size="10.00">Ra::Engine::RenderObject</text>
<text text-anchor="middle" x="392" y="-7.5" font-family="Helvetica,sans-Serif" font-size="10.00">Manager::exists</text>
</a>
</g>
</g>
<!-- Node2&#45;&gt;Node11 -->
<g id="edge11" class="edge"><title>Node2&#45;&gt;Node11</title>
<path fill="none" stroke="midnightblue" d="M272.377,-196.452C276.719,-193.663 280.713,-190.374 284,-186.5 327.515,-135.208 274.521,-89.0589 320,-39.5 320.891,-38.5293 321.822,-37.5979 322.789,-36.7042"/>
<polygon fill="midnightblue" stroke="midnightblue" points="325.009,-39.413 330.834,-30.5632 320.762,-33.8489 325.009,-39.413"/>
</g>
<!-- Node4 -->
<g id="node4" class="node"><title>Node4</title>
<g id="a_node4"><a xlink:href="classRa_1_1Core_1_1Utils_1_1Index.html#ac7d6c68387fe147f7a13668ac30a4533" target="_top" xlink:title="INVALID. ">
<polygon fill="white" stroke="black" points="655,-349.5 655,-379.5 771,-379.5 771,-349.5 655,-349.5"/>
<text text-anchor="start" x="663" y="-367.5" font-family="Helvetica,sans-Serif" font-size="10.00">Ra::Core::Utils::Index</text>
<text text-anchor="middle" x="713" y="-356.5" font-family="Helvetica,sans-Serif" font-size="10.00">::isInvalid</text>
</a>
</g>
</g>
<!-- Node3&#45;&gt;Node4 -->
<g id="edge3" class="edge"><title>Node3&#45;&gt;Node4</title>
<path fill="none" stroke="midnightblue" d="M619.074,-351.006C627.452,-352.222 636.127,-353.482 644.658,-354.721"/>
<polygon fill="midnightblue" stroke="midnightblue" points="644.18,-358.188 654.579,-356.162 645.186,-351.261 644.18,-358.188"/>
</g>
<!-- Node8&#45;&gt;Node3 -->
<g id="edge8" class="edge"><title>Node8&#45;&gt;Node3</title>
<path fill="none" stroke="midnightblue" d="M430.541,-275.511C441.437,-280.096 453.283,-285.305 464,-290.5 484.232,-300.309 506.274,-312.355 523.977,-322.383"/>
<polygon fill="midnightblue" stroke="midnightblue" points="522.387,-325.505 532.807,-327.42 525.855,-319.425 522.387,-325.505"/>
</g>
<!-- Node9 -->
<g id="node9" class="node"><title>Node9</title>
<g id="a_node9"><a xlink:href="classRa_1_1Core_1_1Utils_1_1Index.html#ac7a1b710e6b95834a562c27e2f6c0f4b" target="_top" xlink:title="DESTRUCTOR: Must not be defined, we need it trivial to be constexpr. ">
<polygon fill="white" stroke="black" points="501.5,-123.5 501.5,-153.5 617.5,-153.5 617.5,-123.5 501.5,-123.5"/>
<text text-anchor="start" x="509.5" y="-141.5" font-family="Helvetica,sans-Serif" font-size="10.00">Ra::Core::Utils::Index</text>
<text text-anchor="middle" x="559.5" y="-130.5" font-family="Helvetica,sans-Serif" font-size="10.00">::isValid</text>
</a>
</g>
</g>
<!-- Node8&#45;&gt;Node9 -->
<g id="edge9" class="edge"><title>Node8&#45;&gt;Node9</title>
<path fill="none" stroke="midnightblue" d="M444.748,-245.464C451.456,-242.608 458.053,-239.299 464,-235.5 495.134,-215.61 523.652,-183.59 541.035,-161.825"/>
<polygon fill="midnightblue" stroke="midnightblue" points="543.945,-163.786 547.349,-153.753 538.432,-159.473 543.945,-163.786"/>
</g>
<!-- Node11&#45;&gt;Node9 -->
<g id="edge12" class="edge"><title>Node11&#45;&gt;Node9</title>
<path fill="none" stroke="midnightblue" d="M447.016,-30.6384C452.945,-33.2025 458.733,-36.1439 464,-39.5 495.666,-59.6768 524.246,-92.6665 541.484,-114.963"/>
<polygon fill="midnightblue" stroke="midnightblue" points="538.907,-117.357 547.73,-123.222 544.49,-113.134 538.907,-117.357"/>
</g>
<!-- Node12&#45;&gt;Node3 -->
<g id="edge15" class="edge"><title>Node12&#45;&gt;Node3</title>
<path fill="none" stroke="midnightblue" d="M449.493,-371.481C463.264,-367.82 478.117,-363.871 492.295,-360.101"/>
<polygon fill="midnightblue" stroke="midnightblue" points="493.216,-363.478 501.981,-357.526 491.417,-356.713 493.216,-363.478"/>
</g>
<!-- Node12&#45;&gt;Node4 -->
<g id="edge16" class="edge"><title>Node12&#45;&gt;Node4</title>
<path fill="none" stroke="midnightblue" d="M451.51,-382.465C506.147,-378.697 587.642,-373.076 644.895,-369.128"/>
<polygon fill="midnightblue" stroke="midnightblue" points="645.199,-372.615 654.935,-368.436 644.718,-365.632 645.199,-372.615"/>
</g>
<!-- Node13&#45;&gt;Node3 -->
<g id="edge18" class="edge"><title>Node13&#45;&gt;Node3</title>
<path fill="none" stroke="midnightblue" d="M284.267,-318.618C341.631,-323.613 428.893,-331.213 489.518,-336.493"/>
<polygon fill="midnightblue" stroke="midnightblue" points="489.495,-340.004 499.761,-337.385 490.103,-333.03 489.495,-340.004"/>
</g>
</g>
</svg>
