<?xml version="1.0" encoding="UTF-8" standalone="no"?>
<!DOCTYPE svg PUBLIC "-//W3C//DTD SVG 1.1//EN"
 "http://www.w3.org/Graphics/SVG/1.1/DTD/svg11.dtd">
<!-- Generated by graphviz version 2.38.0 (20140413.2041)
 -->
<!-- Title: Ra::Core::Geometry::makeParametricTorus Pages: 1 -->
<svg width="646pt" height="190pt"
 viewBox="0.00 0.00 646.00 189.50" xmlns="http://www.w3.org/2000/svg" xmlns:xlink="http://www.w3.org/1999/xlink">
<g id="graph0" class="graph" transform="scale(1 1) rotate(0) translate(4 185.5)">
<title>Ra::Core::Geometry::makeParametricTorus</title>
<polygon fill="white" stroke="none" points="-4,4 -4,-185.5 642,-185.5 642,4 -4,4"/>
<!-- Node1 -->
<g id="node1" class="node"><title>Node1</title>
<polygon fill="#bfbfbf" stroke="black" points="0,-83 0,-113 126,-113 126,-83 0,-83"/>
<text text-anchor="start" x="8" y="-101" font-family="Helvetica,sans-Serif" font-size="10.00">Ra::Core::Geometry</text>
<text text-anchor="middle" x="63" y="-90" font-family="Helvetica,sans-Serif" font-size="10.00">::makeParametricTorus</text>
</g>
<!-- Node2 -->
<g id="node2" class="node"><title>Node2</title>
<g id="a_node2"><a xlink:href="classRa_1_1Core_1_1Geometry_1_1TriangleMesh.html#a6ef9dbd18c0501f2ffd1316be6be56ce" target="_top" xlink:title="Access the vertices positions. ">
<polygon fill="white" stroke="black" points="374.5,-151 374.5,-181 502.5,-181 502.5,-151 374.5,-151"/>
<text text-anchor="start" x="382.5" y="-169" font-family="Helvetica,sans-Serif" font-size="10.00">Ra::Core::Geometry</text>
<text text-anchor="middle" x="438.5" y="-158" font-family="Helvetica,sans-Serif" font-size="10.00">::TriangleMesh::vertices</text>
</a>
</g>
</g>
<!-- Node1&#45;&gt;Node2 -->
<g id="edge1" class="edge"><title>Node1&#45;&gt;Node2</title>
<path fill="none" stroke="midnightblue" d="M125.023,-113.004C137.237,-115.815 150.001,-118.615 162,-121 230.242,-134.565 308.587,-147.067 364.242,-155.433"/>
<polygon fill="midnightblue" stroke="midnightblue" points="363.955,-158.929 374.363,-156.947 364.99,-152.006 363.955,-158.929"/>
</g>
<!-- Node3 -->
<g id="node3" class="node"><title>Node3</title>
<g id="a_node3"><a xlink:href="classRa_1_1Core_1_1Geometry_1_1TriangleMesh.html#ad7d3f6272b902171740e50232ba56114" target="_top" xlink:title="Access the vertices normals. ">
<polygon fill="white" stroke="black" points="374,-102 374,-132 503,-132 503,-102 374,-102"/>
<text text-anchor="start" x="382" y="-120" font-family="Helvetica,sans-Serif" font-size="10.00">Ra::Core::Geometry</text>
<text text-anchor="middle" x="438.5" y="-109" font-family="Helvetica,sans-Serif" font-size="10.00">::TriangleMesh::normals</text>
</a>
</g>
</g>
<!-- Node1&#45;&gt;Node3 -->
<g id="edge2" class="edge"><title>Node1&#45;&gt;Node3</title>
<path fill="none" stroke="midnightblue" d="M126.095,-101.159C191.439,-104.483 294.254,-109.713 363.697,-113.246"/>
<polygon fill="midnightblue" stroke="midnightblue" points="363.527,-116.741 373.692,-113.754 363.883,-109.75 363.527,-116.741"/>
</g>
<!-- Node4 -->
<g id="node4" class="node"><title>Node4</title>
<g id="a_node4"><a xlink:href="namespaceRa_1_1Core_1_1Vector.html#a42d87f3bd0658bac532d72f0ec528827" target="_top" xlink:title="Get the cosine of the angle between two vectors. ">
<polygon fill="white" stroke="black" points="192,-22.5 192,-41.5 308,-41.5 308,-22.5 192,-22.5"/>
<text text-anchor="middle" x="250" y="-29.5" font-family="Helvetica,sans-Serif" font-size="10.00">Ra::Core::Vector::cos</text>
</a>
</g>
</g>
<!-- Node1&#45;&gt;Node4 -->
<g id="edge3" class="edge"><title>Node1&#45;&gt;Node4</title>
<path fill="none" stroke="midnightblue" d="M91.1562,-82.8648C110.436,-72.65 137.196,-59.5265 162,-51 169.692,-48.3559 177.896,-45.9962 186.078,-43.9156"/>
<polygon fill="midnightblue" stroke="midnightblue" points="187.112,-47.2664 196.011,-41.5157 185.468,-40.4622 187.112,-47.2664"/>
</g>
<!-- Node5 -->
<g id="node5" class="node"><title>Node5</title>
<g id="a_node5"><a xlink:href="classRa_1_1Core_1_1Geometry_1_1TriangleMesh.html#a0b294c697e094dcc62b3adb3c0ac16af" target="_top" xlink:title="Check that the mesh is well built, asserting when it is not. ">
<polygon fill="white" stroke="black" points="162,-61 162,-91 338,-91 338,-61 162,-61"/>
<text text-anchor="start" x="170" y="-79" font-family="Helvetica,sans-Serif" font-size="10.00">Ra::Core::Geometry</text>
<text text-anchor="middle" x="250" y="-68" font-family="Helvetica,sans-Serif" font-size="10.00">::TriangleMesh::checkConsistency</text>
</a>
</g>
</g>
<!-- Node1&#45;&gt;Node5 -->
<g id="edge4" class="edge"><title>Node1&#45;&gt;Node5</title>
<path fill="none" stroke="midnightblue" d="M126.117,-90.6131C134.341,-89.6352 142.925,-88.6143 151.567,-87.5867"/>
<polygon fill="midnightblue" stroke="midnightblue" points="152.203,-91.0358 161.72,-86.3793 151.376,-84.0847 152.203,-91.0358"/>
</g>
<!-- Node5&#45;&gt;Node2 -->
<g id="edge5" class="edge"><title>Node5&#45;&gt;Node2</title>
<path fill="none" stroke="midnightblue" d="M276.89,-91.1787C301.441,-105.262 339.588,-126.346 374,-142 377.802,-143.729 381.768,-145.44 385.779,-147.103"/>
<polygon fill="midnightblue" stroke="midnightblue" points="384.585,-150.396 395.168,-150.887 387.201,-143.903 384.585,-150.396"/>
</g>
<!-- Node5&#45;&gt;Node3 -->
<g id="edge10" class="edge"><title>Node5&#45;&gt;Node3</title>
<path fill="none" stroke="midnightblue" d="M319.387,-91.0341C333.831,-94.2094 349.133,-97.5734 363.764,-100.79"/>
<polygon fill="midnightblue" stroke="midnightblue" points="363.249,-104.26 373.768,-102.989 364.752,-97.4236 363.249,-104.26"/>
</g>
<!-- Node6 -->
<g id="node6" class="node"><title>Node6</title>
<g id="a_node6"><a xlink:href="namespaceRa_1_1Core_1_1Geometry.html#aa04e6052d8911b1df1bd881474debb45" target="_top" xlink:title="Ra::Core::Geometry::t">
<polygon fill="white" stroke="black" points="378.5,-63.5 378.5,-82.5 498.5,-82.5 498.5,-63.5 378.5,-63.5"/>
<text text-anchor="middle" x="438.5" y="-70.5" font-family="Helvetica,sans-Serif" font-size="10.00">Ra::Core::Geometry::t</text>
</a>
</g>
</g>
<!-- Node5&#45;&gt;Node6 -->
<g id="edge6" class="edge"><title>Node5&#45;&gt;Node6</title>
<path fill="none" stroke="midnightblue" d="M338.243,-74.5966C348.305,-74.4348 358.46,-74.2714 368.238,-74.1141"/>
<polygon fill="midnightblue" stroke="midnightblue" points="368.329,-77.6132 378.271,-73.9527 368.216,-70.6141 368.329,-77.6132"/>
</g>
<!-- Node7 -->
<g id="node7" class="node"><title>Node7</title>
<g id="a_node7"><a xlink:href="namespaceRa_1_1Core_1_1Geometry.html#a178f2b7309fe2ea5bc31a3abcb25368e" target="_top" xlink:title="Ra::Core::Geometry\l::triangleArea">
<polygon fill="white" stroke="black" points="383,-14 383,-44 494,-44 494,-14 383,-14"/>
<text text-anchor="start" x="391" y="-32" font-family="Helvetica,sans-Serif" font-size="10.00">Ra::Core::Geometry</text>
<text text-anchor="middle" x="438.5" y="-21" font-family="Helvetica,sans-Serif" font-size="10.00">::triangleArea</text>
</a>
</g>
</g>
<!-- Node5&#45;&gt;Node7 -->
<g id="edge7" class="edge"><title>Node5&#45;&gt;Node7</title>
<path fill="none" stroke="midnightblue" d="M310.523,-60.9997C330.494,-55.9667 352.851,-50.3326 373.173,-45.2111"/>
<polygon fill="midnightblue" stroke="midnightblue" points="374.125,-48.5806 382.967,-42.7429 372.415,-41.7928 374.125,-48.5806"/>
</g>
<!-- Node8 -->
<g id="node8" class="node"><title>Node8</title>
<g id="a_node8"><a xlink:href="namespaceOpenMesh.html#a71e7f1dd3eac016d2b8245ac408a291c" target="_top" xlink:title="OpenMesh::cross">
<polygon fill="white" stroke="black" points="539,-38.5 539,-57.5 638,-57.5 638,-38.5 539,-38.5"/>
<text text-anchor="middle" x="588.5" y="-45.5" font-family="Helvetica,sans-Serif" font-size="10.00">OpenMesh::cross</text>
</a>
</g>
</g>
<!-- Node7&#45;&gt;Node8 -->
<g id="edge8" class="edge"><title>Node7&#45;&gt;Node8</title>
<path fill="none" stroke="midnightblue" d="M494.189,-36.0209C505.411,-37.4616 517.27,-38.984 528.632,-40.4426"/>
<polygon fill="midnightblue" stroke="midnightblue" points="528.529,-43.9581 538.894,-41.76 529.421,-37.0151 528.529,-43.9581"/>
</g>
<!-- Node9 -->
<g id="node9" class="node"><title>Node9</title>
<g id="a_node9"><a xlink:href="namespaceOpenMesh.html#a8205f789ce08919bc11c58383574596c" target="_top" xlink:title="OpenMesh::norm">
<polygon fill="white" stroke="black" points="539,-0.5 539,-19.5 638,-19.5 638,-0.5 539,-0.5"/>
<text text-anchor="middle" x="588.5" y="-7.5" font-family="Helvetica,sans-Serif" font-size="10.00">OpenMesh::norm</text>
</a>
</g>
</g>
<!-- Node7&#45;&gt;Node9 -->
<g id="edge9" class="edge"><title>Node7&#45;&gt;Node9</title>
<path fill="none" stroke="midnightblue" d="M494.189,-21.9791C505.411,-20.5384 517.27,-19.016 528.632,-17.5574"/>
<polygon fill="midnightblue" stroke="midnightblue" points="529.421,-20.9849 538.894,-16.24 528.529,-14.0419 529.421,-20.9849"/>
</g>
</g>
</svg>
