<?xml version="1.0" encoding="UTF-8" standalone="no"?>
<!DOCTYPE svg PUBLIC "-//W3C//DTD SVG 1.1//EN"
 "http://www.w3.org/Graphics/SVG/1.1/DTD/svg11.dtd">
<!-- Generated by graphviz version 2.38.0 (20140413.2041)
 -->
<!-- Title: Ra::Core::Geometry::areaWeightedNormal Pages: 1 -->
<svg width="455pt" height="186pt"
 viewBox="0.00 0.00 455.00 186.00" xmlns="http://www.w3.org/2000/svg" xmlns:xlink="http://www.w3.org/1999/xlink">
<g id="graph0" class="graph" transform="scale(1 1) rotate(0) translate(4 182)">
<title>Ra::Core::Geometry::areaWeightedNormal</title>
<polygon fill="white" stroke="none" points="-4,4 -4,-182 451,-182 451,4 -4,4"/>
<!-- Node1 -->
<g id="node1" class="node"><title>Node1</title>
<polygon fill="#bfbfbf" stroke="black" points="0,-73.5 0,-103.5 123,-103.5 123,-73.5 0,-73.5"/>
<text text-anchor="start" x="8" y="-91.5" font-family="Helvetica,sans-Serif" font-size="10.00">Ra::Core::Geometry</text>
<text text-anchor="middle" x="61.5" y="-80.5" font-family="Helvetica,sans-Serif" font-size="10.00">::areaWeightedNormal</text>
</g>
<!-- Node2 -->
<g id="node2" class="node"><title>Node2</title>
<g id="a_node2"><a xlink:href="classRa_1_1Core_1_1Utils_1_1CircularIndex.html#a9d8cf684f128b57aa26197f31afb23c0" target="_top" xlink:title="Ra::Core::Utils::Circular\lIndex::setSize">
<polygon fill="white" stroke="black" points="159,-147.5 159,-177.5 285,-177.5 285,-147.5 159,-147.5"/>
<text text-anchor="start" x="167" y="-165.5" font-family="Helvetica,sans-Serif" font-size="10.00">Ra::Core::Utils::Circular</text>
<text text-anchor="middle" x="222" y="-154.5" font-family="Helvetica,sans-Serif" font-size="10.00">Index::setSize</text>
</a>
</g>
</g>
<!-- Node1&#45;&gt;Node2 -->
<g id="edge1" class="edge"><title>Node1&#45;&gt;Node2</title>
<path fill="none" stroke="midnightblue" d="M89.5637,-103.528C108.696,-113.903 135.092,-127.717 159,-138.5 162.788,-140.208 166.736,-141.911 170.726,-143.575"/>
<polygon fill="midnightblue" stroke="midnightblue" points="169.469,-146.843 180.051,-147.375 172.111,-140.36 169.469,-146.843"/>
</g>
<!-- Node4 -->
<g id="node4" class="node"><title>Node4</title>
<g id="a_node4"><a xlink:href="classRa_1_1Core_1_1Utils_1_1CircularIndex.html#a2499a4fd3344499031a9830f9baeec21" target="_top" xlink:title="Ra::Core::Utils::Circular\lIndex::setValue">
<polygon fill="white" stroke="black" points="159,-98.5 159,-128.5 285,-128.5 285,-98.5 159,-98.5"/>
<text text-anchor="start" x="167" y="-116.5" font-family="Helvetica,sans-Serif" font-size="10.00">Ra::Core::Utils::Circular</text>
<text text-anchor="middle" x="222" y="-105.5" font-family="Helvetica,sans-Serif" font-size="10.00">Index::setValue</text>
</a>
</g>
</g>
<!-- Node1&#45;&gt;Node4 -->
<g id="edge3" class="edge"><title>Node1&#45;&gt;Node4</title>
<path fill="none" stroke="midnightblue" d="M123.327,-98.0942C131.672,-99.4105 140.306,-100.772 148.83,-102.117"/>
<polygon fill="midnightblue" stroke="midnightblue" points="148.339,-105.582 158.762,-103.683 149.429,-98.6679 148.339,-105.582"/>
</g>
<!-- Node5 -->
<g id="node5" class="node"><title>Node5</title>
<g id="a_node5"><a xlink:href="namespaceRa_1_1Core_1_1Geometry.html#a178f2b7309fe2ea5bc31a3abcb25368e" target="_top" xlink:title="Ra::Core::Geometry\l::triangleArea">
<polygon fill="white" stroke="black" points="166.5,-0.5 166.5,-30.5 277.5,-30.5 277.5,-0.5 166.5,-0.5"/>
<text text-anchor="start" x="174.5" y="-18.5" font-family="Helvetica,sans-Serif" font-size="10.00">Ra::Core::Geometry</text>
<text text-anchor="middle" x="222" y="-7.5" font-family="Helvetica,sans-Serif" font-size="10.00">::triangleArea</text>
</a>
</g>
</g>
<!-- Node1&#45;&gt;Node5 -->
<g id="edge4" class="edge"><title>Node1&#45;&gt;Node5</title>
<path fill="none" stroke="midnightblue" d="M90.4302,-73.3777C109.507,-63.2827 135.491,-49.9868 159,-39.5 162.854,-37.7808 166.872,-36.0631 170.928,-34.3816"/>
<polygon fill="midnightblue" stroke="midnightblue" points="172.451,-37.5409 180.403,-30.5399 169.821,-31.0538 172.451,-37.5409"/>
</g>
<!-- Node8 -->
<g id="node8" class="node"><title>Node8</title>
<g id="a_node8"><a xlink:href="namespaceRa_1_1Core_1_1Geometry.html#a2ce97206423345716bf1b55f60c1c227" target="_top" xlink:title="Ra::Core::Geometry\l::triangleNormal">
<polygon fill="white" stroke="black" points="166.5,-49.5 166.5,-79.5 277.5,-79.5 277.5,-49.5 166.5,-49.5"/>
<text text-anchor="start" x="174.5" y="-67.5" font-family="Helvetica,sans-Serif" font-size="10.00">Ra::Core::Geometry</text>
<text text-anchor="middle" x="222" y="-56.5" font-family="Helvetica,sans-Serif" font-size="10.00">::triangleNormal</text>
</a>
</g>
</g>
<!-- Node1&#45;&gt;Node8 -->
<g id="edge7" class="edge"><title>Node1&#45;&gt;Node8</title>
<path fill="none" stroke="midnightblue" d="M123.327,-79.2896C134.155,-77.65 145.469,-75.9369 156.397,-74.2821"/>
<polygon fill="midnightblue" stroke="midnightblue" points="156.937,-77.7403 166.301,-72.7825 155.889,-70.8192 156.937,-77.7403"/>
</g>
<!-- Node3 -->
<g id="node3" class="node"><title>Node3</title>
<g id="a_node3"><a xlink:href="classRa_1_1Core_1_1Utils_1_1CircularIndex.html#abcf96670a4e6bd604cb7385c51a94991" target="_top" xlink:title="DIMENSION. ">
<polygon fill="white" stroke="black" points="321,-147.5 321,-177.5 447,-177.5 447,-147.5 321,-147.5"/>
<text text-anchor="start" x="329" y="-165.5" font-family="Helvetica,sans-Serif" font-size="10.00">Ra::Core::Utils::Circular</text>
<text text-anchor="middle" x="384" y="-154.5" font-family="Helvetica,sans-Serif" font-size="10.00">Index::size</text>
</a>
</g>
</g>
<!-- Node2&#45;&gt;Node3 -->
<g id="edge2" class="edge"><title>Node2&#45;&gt;Node3</title>
<path fill="none" stroke="midnightblue" d="M285.318,-162.5C293.615,-162.5 302.179,-162.5 310.628,-162.5"/>
<polygon fill="midnightblue" stroke="midnightblue" points="310.852,-166 320.852,-162.5 310.852,-159 310.852,-166"/>
</g>
<!-- Node6 -->
<g id="node6" class="node"><title>Node6</title>
<g id="a_node6"><a xlink:href="namespaceOpenMesh.html#a71e7f1dd3eac016d2b8245ac408a291c" target="_top" xlink:title="OpenMesh::cross">
<polygon fill="white" stroke="black" points="334.5,-49 334.5,-68 433.5,-68 433.5,-49 334.5,-49"/>
<text text-anchor="middle" x="384" y="-56" font-family="Helvetica,sans-Serif" font-size="10.00">OpenMesh::cross</text>
</a>
</g>
</g>
<!-- Node5&#45;&gt;Node6 -->
<g id="edge5" class="edge"><title>Node5&#45;&gt;Node6</title>
<path fill="none" stroke="midnightblue" d="M277.615,-30.1779C297.107,-35.4162 318.841,-41.2572 337.485,-46.2678"/>
<polygon fill="midnightblue" stroke="midnightblue" points="336.641,-49.6651 347.206,-48.8805 338.458,-42.905 336.641,-49.6651"/>
</g>
<!-- Node7 -->
<g id="node7" class="node"><title>Node7</title>
<g id="a_node7"><a xlink:href="namespaceOpenMesh.html#a8205f789ce08919bc11c58383574596c" target="_top" xlink:title="OpenMesh::norm">
<polygon fill="white" stroke="black" points="334.5,-6 334.5,-25 433.5,-25 433.5,-6 334.5,-6"/>
<text text-anchor="middle" x="384" y="-13" font-family="Helvetica,sans-Serif" font-size="10.00">OpenMesh::norm</text>
</a>
</g>
</g>
<!-- Node5&#45;&gt;Node7 -->
<g id="edge6" class="edge"><title>Node5&#45;&gt;Node7</title>
<path fill="none" stroke="midnightblue" d="M277.615,-15.5C292.547,-15.5 308.795,-15.5 323.961,-15.5"/>
<polygon fill="midnightblue" stroke="midnightblue" points="324.259,-19.0001 334.259,-15.5 324.259,-12.0001 324.259,-19.0001"/>
</g>
<!-- Node8&#45;&gt;Node6 -->
<g id="edge8" class="edge"><title>Node8&#45;&gt;Node6</title>
<path fill="none" stroke="midnightblue" d="M277.615,-62.4519C292.547,-61.892 308.795,-61.2827 323.961,-60.714"/>
<polygon fill="midnightblue" stroke="midnightblue" points="324.397,-64.2002 334.259,-60.3278 324.135,-57.2051 324.397,-64.2002"/>
</g>
</g>
</svg>
