<?xml version="1.0" encoding="UTF-8" standalone="no"?>
<!DOCTYPE svg PUBLIC "-//W3C//DTD SVG 1.1//EN"
 "http://www.w3.org/Graphics/SVG/1.1/DTD/svg11.dtd">
<!-- Generated by graphviz version 2.38.0 (20140413.2041)
 -->
<!-- Title: Ra::Core::Geometry::makeCapsule Pages: 1 -->
<svg width="631pt" height="190pt"
 viewBox="0.00 0.00 631.00 189.50" xmlns="http://www.w3.org/2000/svg" xmlns:xlink="http://www.w3.org/1999/xlink">
<g id="graph0" class="graph" transform="scale(1 1) rotate(0) translate(4 185.5)">
<title>Ra::Core::Geometry::makeCapsule</title>
<polygon fill="white" stroke="none" points="-4,4 -4,-185.5 627,-185.5 627,4 -4,4"/>
<!-- Node1 -->
<g id="node1" class="node"><title>Node1</title>
<polygon fill="#bfbfbf" stroke="black" points="0,-83 0,-113 111,-113 111,-83 0,-83"/>
<text text-anchor="start" x="8" y="-101" font-family="Helvetica,sans-Serif" font-size="10.00">Ra::Core::Geometry</text>
<text text-anchor="middle" x="55.5" y="-90" font-family="Helvetica,sans-Serif" font-size="10.00">::makeCapsule</text>
</g>
<!-- Node2 -->
<g id="node2" class="node"><title>Node2</title>
<g id="a_node2"><a xlink:href="classRa_1_1Core_1_1Geometry_1_1TriangleMesh.html#a6ef9dbd18c0501f2ffd1316be6be56ce" target="_top" xlink:title="Access the vertices positions. ">
<polygon fill="white" stroke="black" points="359.5,-151 359.5,-181 487.5,-181 487.5,-151 359.5,-151"/>
<text text-anchor="start" x="367.5" y="-169" font-family="Helvetica,sans-Serif" font-size="10.00">Ra::Core::Geometry</text>
<text text-anchor="middle" x="423.5" y="-158" font-family="Helvetica,sans-Serif" font-size="10.00">::TriangleMesh::vertices</text>
</a>
</g>
</g>
<!-- Node1&#45;&gt;Node2 -->
<g id="edge1" class="edge"><title>Node1&#45;&gt;Node2</title>
<path fill="none" stroke="midnightblue" d="M111.36,-112.756C123.077,-115.679 135.415,-118.586 147,-121 215.114,-135.19 293.475,-147.617 349.168,-155.795"/>
<polygon fill="midnightblue" stroke="midnightblue" points="348.896,-159.293 359.296,-157.273 349.906,-152.366 348.896,-159.293"/>
</g>
<!-- Node3 -->
<g id="node3" class="node"><title>Node3</title>
<g id="a_node3"><a xlink:href="classRa_1_1Core_1_1Geometry_1_1TriangleMesh.html#ad7d3f6272b902171740e50232ba56114" target="_top" xlink:title="Access the vertices normals. ">
<polygon fill="white" stroke="black" points="359,-102 359,-132 488,-132 488,-102 359,-102"/>
<text text-anchor="start" x="367" y="-120" font-family="Helvetica,sans-Serif" font-size="10.00">Ra::Core::Geometry</text>
<text text-anchor="middle" x="423.5" y="-109" font-family="Helvetica,sans-Serif" font-size="10.00">::TriangleMesh::normals</text>
</a>
</g>
</g>
<!-- Node1&#45;&gt;Node3 -->
<g id="edge2" class="edge"><title>Node1&#45;&gt;Node3</title>
<path fill="none" stroke="midnightblue" d="M111.294,-100.844C174.397,-104.12 278.373,-109.518 348.595,-113.163"/>
<polygon fill="midnightblue" stroke="midnightblue" points="348.534,-116.665 358.702,-113.688 348.897,-109.674 348.534,-116.665"/>
</g>
<!-- Node4 -->
<g id="node4" class="node"><title>Node4</title>
<g id="a_node4"><a xlink:href="namespaceRa_1_1Core_1_1Vector.html#a42d87f3bd0658bac532d72f0ec528827" target="_top" xlink:title="Get the cosine of the angle between two vectors. ">
<polygon fill="white" stroke="black" points="177,-22.5 177,-41.5 293,-41.5 293,-22.5 177,-22.5"/>
<text text-anchor="middle" x="235" y="-29.5" font-family="Helvetica,sans-Serif" font-size="10.00">Ra::Core::Vector::cos</text>
</a>
</g>
</g>
<!-- Node1&#45;&gt;Node4 -->
<g id="edge3" class="edge"><title>Node1&#45;&gt;Node4</title>
<path fill="none" stroke="midnightblue" d="M81.048,-82.9872C98.8105,-72.6955 123.691,-59.4293 147,-51 154.258,-48.3752 161.994,-46.0516 169.745,-44.0116"/>
<polygon fill="midnightblue" stroke="midnightblue" points="170.676,-47.3867 179.536,-41.5778 168.987,-40.5934 170.676,-47.3867"/>
</g>
<!-- Node5 -->
<g id="node5" class="node"><title>Node5</title>
<g id="a_node5"><a xlink:href="classRa_1_1Core_1_1Geometry_1_1TriangleMesh.html#a0b294c697e094dcc62b3adb3c0ac16af" target="_top" xlink:title="Check that the mesh is well built, asserting when it is not. ">
<polygon fill="white" stroke="black" points="147,-61 147,-91 323,-91 323,-61 147,-61"/>
<text text-anchor="start" x="155" y="-79" font-family="Helvetica,sans-Serif" font-size="10.00">Ra::Core::Geometry</text>
<text text-anchor="middle" x="235" y="-68" font-family="Helvetica,sans-Serif" font-size="10.00">::TriangleMesh::checkConsistency</text>
</a>
</g>
</g>
<!-- Node1&#45;&gt;Node5 -->
<g id="edge4" class="edge"><title>Node1&#45;&gt;Node5</title>
<path fill="none" stroke="midnightblue" d="M111.204,-91.2198C119.419,-90.2016 128.093,-89.1265 136.877,-88.0378"/>
<polygon fill="midnightblue" stroke="midnightblue" points="137.33,-91.5085 146.823,-86.805 136.469,-84.5617 137.33,-91.5085"/>
</g>
<!-- Node5&#45;&gt;Node2 -->
<g id="edge5" class="edge"><title>Node5&#45;&gt;Node2</title>
<path fill="none" stroke="midnightblue" d="M261.89,-91.1787C286.441,-105.262 324.588,-126.346 359,-142 362.802,-143.729 366.768,-145.44 370.779,-147.103"/>
<polygon fill="midnightblue" stroke="midnightblue" points="369.585,-150.396 380.168,-150.887 372.201,-143.903 369.585,-150.396"/>
</g>
<!-- Node5&#45;&gt;Node3 -->
<g id="edge10" class="edge"><title>Node5&#45;&gt;Node3</title>
<path fill="none" stroke="midnightblue" d="M304.387,-91.0341C318.831,-94.2094 334.133,-97.5734 348.764,-100.79"/>
<polygon fill="midnightblue" stroke="midnightblue" points="348.249,-104.26 358.768,-102.989 349.752,-97.4236 348.249,-104.26"/>
</g>
<!-- Node6 -->
<g id="node6" class="node"><title>Node6</title>
<g id="a_node6"><a xlink:href="namespaceRa_1_1Core_1_1Geometry.html#aa04e6052d8911b1df1bd881474debb45" target="_top" xlink:title="Ra::Core::Geometry::t">
<polygon fill="white" stroke="black" points="363.5,-63.5 363.5,-82.5 483.5,-82.5 483.5,-63.5 363.5,-63.5"/>
<text text-anchor="middle" x="423.5" y="-70.5" font-family="Helvetica,sans-Serif" font-size="10.00">Ra::Core::Geometry::t</text>
</a>
</g>
</g>
<!-- Node5&#45;&gt;Node6 -->
<g id="edge6" class="edge"><title>Node5&#45;&gt;Node6</title>
<path fill="none" stroke="midnightblue" d="M323.243,-74.5966C333.305,-74.4348 343.46,-74.2714 353.238,-74.1141"/>
<polygon fill="midnightblue" stroke="midnightblue" points="353.329,-77.6132 363.271,-73.9527 353.216,-70.6141 353.329,-77.6132"/>
</g>
<!-- Node7 -->
<g id="node7" class="node"><title>Node7</title>
<g id="a_node7"><a xlink:href="namespaceRa_1_1Core_1_1Geometry.html#a178f2b7309fe2ea5bc31a3abcb25368e" target="_top" xlink:title="Ra::Core::Geometry\l::triangleArea">
<polygon fill="white" stroke="black" points="368,-14 368,-44 479,-44 479,-14 368,-14"/>
<text text-anchor="start" x="376" y="-32" font-family="Helvetica,sans-Serif" font-size="10.00">Ra::Core::Geometry</text>
<text text-anchor="middle" x="423.5" y="-21" font-family="Helvetica,sans-Serif" font-size="10.00">::triangleArea</text>
</a>
</g>
</g>
<!-- Node5&#45;&gt;Node7 -->
<g id="edge7" class="edge"><title>Node5&#45;&gt;Node7</title>
<path fill="none" stroke="midnightblue" d="M295.523,-60.9997C315.494,-55.9667 337.851,-50.3326 358.173,-45.2111"/>
<polygon fill="midnightblue" stroke="midnightblue" points="359.125,-48.5806 367.967,-42.7429 357.415,-41.7928 359.125,-48.5806"/>
</g>
<!-- Node8 -->
<g id="node8" class="node"><title>Node8</title>
<g id="a_node8"><a xlink:href="namespaceOpenMesh.html#a71e7f1dd3eac016d2b8245ac408a291c" target="_top" xlink:title="OpenMesh::cross">
<polygon fill="white" stroke="black" points="524,-38.5 524,-57.5 623,-57.5 623,-38.5 524,-38.5"/>
<text text-anchor="middle" x="573.5" y="-45.5" font-family="Helvetica,sans-Serif" font-size="10.00">OpenMesh::cross</text>
</a>
</g>
</g>
<!-- Node7&#45;&gt;Node8 -->
<g id="edge8" class="edge"><title>Node7&#45;&gt;Node8</title>
<path fill="none" stroke="midnightblue" d="M479.189,-36.0209C490.411,-37.4616 502.27,-38.984 513.632,-40.4426"/>
<polygon fill="midnightblue" stroke="midnightblue" points="513.529,-43.9581 523.894,-41.76 514.421,-37.0151 513.529,-43.9581"/>
</g>
<!-- Node9 -->
<g id="node9" class="node"><title>Node9</title>
<g id="a_node9"><a xlink:href="namespaceOpenMesh.html#a8205f789ce08919bc11c58383574596c" target="_top" xlink:title="OpenMesh::norm">
<polygon fill="white" stroke="black" points="524,-0.5 524,-19.5 623,-19.5 623,-0.5 524,-0.5"/>
<text text-anchor="middle" x="573.5" y="-7.5" font-family="Helvetica,sans-Serif" font-size="10.00">OpenMesh::norm</text>
</a>
</g>
</g>
<!-- Node7&#45;&gt;Node9 -->
<g id="edge9" class="edge"><title>Node7&#45;&gt;Node9</title>
<path fill="none" stroke="midnightblue" d="M479.189,-21.9791C490.411,-20.5384 502.27,-19.016 513.632,-17.5574"/>
<polygon fill="midnightblue" stroke="midnightblue" points="514.421,-20.9849 523.894,-16.24 513.529,-14.0419 514.421,-20.9849"/>
</g>
</g>
</svg>
