<?xml version="1.0" encoding="UTF-8" standalone="no"?>
<!DOCTYPE svg PUBLIC "-//W3C//DTD SVG 1.1//EN"
 "http://www.w3.org/Graphics/SVG/1.1/DTD/svg11.dtd">
<!-- Generated by graphviz version 2.38.0 (20140413.2041)
 -->
<!-- Title: Ra::Core::Asset::createSkeleton Pages: 1 -->
<svg width="366pt" height="137pt"
 viewBox="0.00 0.00 366.00 137.00" xmlns="http://www.w3.org/2000/svg" xmlns:xlink="http://www.w3.org/1999/xlink">
<g id="graph0" class="graph" transform="scale(1 1) rotate(0) translate(4 133)">
<title>Ra::Core::Asset::createSkeleton</title>
<polygon fill="white" stroke="none" points="-4,4 -4,-133 362,-133 362,4 -4,4"/>
<!-- Node1 -->
<g id="node1" class="node"><title>Node1</title>
<polygon fill="#bfbfbf" stroke="black" points="0,-55 0,-74 169,-74 169,-55 0,-55"/>
<text text-anchor="middle" x="84.5" y="-62" font-family="Helvetica,sans-Serif" font-size="10.00">Ra::Core::Asset::createSkeleton</text>
</g>
<!-- Node2 -->
<g id="node2" class="node"><title>Node2</title>
<g id="a_node2"><a xlink:href="classRa_1_1Core_1_1Asset_1_1HandleData.html#a06a80ef7e42fd860557b93a1d035d283" target="_top" xlink:title="DATA. ">
<polygon fill="white" stroke="black" points="205,-98.5 205,-128.5 358,-128.5 358,-98.5 205,-98.5"/>
<text text-anchor="start" x="213" y="-116.5" font-family="Helvetica,sans-Serif" font-size="10.00">Ra::Core::Asset::HandleData</text>
<text text-anchor="middle" x="281.5" y="-105.5" font-family="Helvetica,sans-Serif" font-size="10.00">::getComponentDataSize</text>
</a>
</g>
</g>
<!-- Node1&#45;&gt;Node2 -->
<g id="edge1" class="edge"><title>Node1&#45;&gt;Node2</title>
<path fill="none" stroke="midnightblue" d="M123.561,-74.064C148.356,-80.2947 181.445,-88.6094 210.847,-95.9974"/>
<polygon fill="midnightblue" stroke="midnightblue" points="210.108,-99.4204 220.659,-98.463 211.814,-92.6314 210.108,-99.4204"/>
</g>
<!-- Node3 -->
<g id="node3" class="node"><title>Node3</title>
<g id="a_node3"><a xlink:href="classRa_1_1Core_1_1Asset_1_1HandleData.html#a456d73d7b367dbf29f03d037bedaeaba" target="_top" xlink:title="Ra::Core::Asset::HandleData\l::getComponentData">
<polygon fill="white" stroke="black" points="205,-49.5 205,-79.5 358,-79.5 358,-49.5 205,-49.5"/>
<text text-anchor="start" x="213" y="-67.5" font-family="Helvetica,sans-Serif" font-size="10.00">Ra::Core::Asset::HandleData</text>
<text text-anchor="middle" x="281.5" y="-56.5" font-family="Helvetica,sans-Serif" font-size="10.00">::getComponentData</text>
</a>
</g>
</g>
<!-- Node1&#45;&gt;Node3 -->
<g id="edge2" class="edge"><title>Node1&#45;&gt;Node3</title>
<path fill="none" stroke="midnightblue" d="M169.046,-64.5C177.498,-64.5 186.092,-64.5 194.568,-64.5"/>
<polygon fill="midnightblue" stroke="midnightblue" points="194.83,-68.0001 204.83,-64.5 194.83,-61.0001 194.83,-68.0001"/>
</g>
<!-- Node4 -->
<g id="node4" class="node"><title>Node4</title>
<g id="a_node4"><a xlink:href="classRa_1_1Core_1_1Asset_1_1HandleData.html#a2ce8dde1d1d3848bcc76693a40e389de" target="_top" xlink:title="Ra::Core::Asset::HandleData\l::getEdgeData">
<polygon fill="white" stroke="black" points="205,-0.5 205,-30.5 358,-30.5 358,-0.5 205,-0.5"/>
<text text-anchor="start" x="213" y="-18.5" font-family="Helvetica,sans-Serif" font-size="10.00">Ra::Core::Asset::HandleData</text>
<text text-anchor="middle" x="281.5" y="-7.5" font-family="Helvetica,sans-Serif" font-size="10.00">::getEdgeData</text>
</a>
</g>
</g>
<!-- Node1&#45;&gt;Node4 -->
<g id="edge3" class="edge"><title>Node1&#45;&gt;Node4</title>
<path fill="none" stroke="midnightblue" d="M123.561,-54.936C148.356,-48.7053 181.445,-40.3906 210.847,-33.0026"/>
<polygon fill="midnightblue" stroke="midnightblue" points="211.814,-36.3686 220.659,-30.537 210.108,-29.5796 211.814,-36.3686"/>
</g>
</g>
</svg>
