<?xml version="1.0" encoding="UTF-8" standalone="no"?>
<!DOCTYPE svg PUBLIC "-//W3C//DTD SVG 1.1//EN"
 "http://www.w3.org/Graphics/SVG/1.1/DTD/svg11.dtd">
<!-- Generated by graphviz version 2.38.0 (20140413.2041)
 -->
<!-- Title: Ra::Engine::DrawPrimitives::Capsule Pages: 1 -->
<svg width="810pt" height="220pt"
 viewBox="0.00 0.00 810.00 220.00" xmlns="http://www.w3.org/2000/svg" xmlns:xlink="http://www.w3.org/1999/xlink">
<g id="graph0" class="graph" transform="scale(1 1) rotate(0) translate(4 216)">
<title>Ra::Engine::DrawPrimitives::Capsule</title>
<polygon fill="white" stroke="none" points="-4,4 -4,-216 806,-216 806,4 -4,4"/>
<!-- Node1 -->
<g id="node1" class="node"><title>Node1</title>
<polygon fill="#bfbfbf" stroke="black" points="0,-156 0,-186 143,-186 143,-156 0,-156"/>
<text text-anchor="start" x="8" y="-174" font-family="Helvetica,sans-Serif" font-size="10.00">Ra::Engine::DrawPrimitives</text>
<text text-anchor="middle" x="71.5" y="-163" font-family="Helvetica,sans-Serif" font-size="10.00">::Capsule</text>
</g>
<!-- Node2 -->
<g id="node2" class="node"><title>Node2</title>
<g id="a_node2"><a xlink:href="namespaceOpenMesh.html#a8205f789ce08919bc11c58383574596c" target="_top" xlink:title="OpenMesh::norm">
<polygon fill="white" stroke="black" points="703,-192.5 703,-211.5 802,-211.5 802,-192.5 703,-192.5"/>
<text text-anchor="middle" x="752.5" y="-199.5" font-family="Helvetica,sans-Serif" font-size="10.00">OpenMesh::norm</text>
</a>
</g>
</g>
<!-- Node1&#45;&gt;Node2 -->
<g id="edge1" class="edge"><title>Node1&#45;&gt;Node2</title>
<path fill="none" stroke="midnightblue" d="M143.082,-183.625C155.035,-185.373 167.347,-186.932 179,-188 365.893,-205.124 588.445,-204.607 692.451,-203.154"/>
<polygon fill="midnightblue" stroke="midnightblue" points="692.794,-206.649 702.741,-203.001 692.69,-199.65 692.794,-206.649"/>
</g>
<!-- Node3 -->
<g id="node3" class="node"><title>Node3</title>
<g id="a_node3"><a xlink:href="namespaceRa_1_1Core_1_1Geometry.html#afedff70dba2bde63195ce841ec8d7d0f" target="_top" xlink:title="Create a capsule with given cylinder length and radius. ">
<polygon fill="white" stroke="black" points="179,-118 179,-148 290,-148 290,-118 179,-118"/>
<text text-anchor="start" x="187" y="-136" font-family="Helvetica,sans-Serif" font-size="10.00">Ra::Core::Geometry</text>
<text text-anchor="middle" x="234.5" y="-125" font-family="Helvetica,sans-Serif" font-size="10.00">::makeCapsule</text>
</a>
</g>
</g>
<!-- Node1&#45;&gt;Node3 -->
<g id="edge2" class="edge"><title>Node1&#45;&gt;Node3</title>
<path fill="none" stroke="midnightblue" d="M136.131,-155.981C146.966,-153.424 158.227,-150.766 169.082,-148.204"/>
<polygon fill="midnightblue" stroke="midnightblue" points="169.983,-151.588 178.912,-145.884 168.375,-144.775 169.983,-151.588"/>
</g>
<!-- Node4 -->
<g id="node4" class="node"><title>Node4</title>
<g id="a_node4"><a xlink:href="classRa_1_1Core_1_1Geometry_1_1TriangleMesh.html#a6ef9dbd18c0501f2ffd1316be6be56ce" target="_top" xlink:title="Access the vertices positions. ">
<polygon fill="white" stroke="black" points="538.5,-156 538.5,-186 666.5,-186 666.5,-156 538.5,-156"/>
<text text-anchor="start" x="546.5" y="-174" font-family="Helvetica,sans-Serif" font-size="10.00">Ra::Core::Geometry</text>
<text text-anchor="middle" x="602.5" y="-163" font-family="Helvetica,sans-Serif" font-size="10.00">::TriangleMesh::vertices</text>
</a>
</g>
</g>
<!-- Node1&#45;&gt;Node4 -->
<g id="edge14" class="edge"><title>Node1&#45;&gt;Node4</title>
<path fill="none" stroke="midnightblue" d="M143.185,-172.448C228.308,-173.972 375.622,-175.905 502,-174 510.446,-173.873 519.293,-173.685 528.081,-173.464"/>
<polygon fill="midnightblue" stroke="midnightblue" points="528.44,-176.956 538.343,-173.191 528.253,-169.958 528.44,-176.956"/>
</g>
<!-- Node8 -->
<g id="node8" class="node"><title>Node8</title>
<g id="a_node8"><a xlink:href="namespaceRa_1_1Core_1_1Geometry.html#aa04e6052d8911b1df1bd881474debb45" target="_top" xlink:title="Ra::Core::Geometry::t">
<polygon fill="white" stroke="black" points="542.5,-0.5 542.5,-19.5 662.5,-19.5 662.5,-0.5 542.5,-0.5"/>
<text text-anchor="middle" x="602.5" y="-7.5" font-family="Helvetica,sans-Serif" font-size="10.00">Ra::Core::Geometry::t</text>
</a>
</g>
</g>
<!-- Node1&#45;&gt;Node8 -->
<g id="edge13" class="edge"><title>Node1&#45;&gt;Node8</title>
<path fill="none" stroke="midnightblue" d="M96.1547,-155.915C117.442,-142.605 149.775,-123.039 179,-108 242.519,-75.3136 257.11,-61.9006 326,-43 394.661,-24.1621 475.872,-16.0764 532.254,-12.6065"/>
<polygon fill="midnightblue" stroke="midnightblue" points="532.705,-16.0863 542.485,-12.0108 532.298,-9.09814 532.705,-16.0863"/>
</g>
<!-- Node3&#45;&gt;Node4 -->
<g id="edge3" class="edge"><title>Node3&#45;&gt;Node4</title>
<path fill="none" stroke="midnightblue" d="M290.324,-145.777C302.045,-148.152 314.392,-150.389 326,-152 394.176,-161.461 472.53,-166.286 528.204,-168.699"/>
<polygon fill="midnightblue" stroke="midnightblue" points="528.191,-172.202 538.329,-169.123 528.484,-165.208 528.191,-172.202"/>
</g>
<!-- Node5 -->
<g id="node5" class="node"><title>Node5</title>
<g id="a_node5"><a xlink:href="classRa_1_1Core_1_1Geometry_1_1TriangleMesh.html#ad7d3f6272b902171740e50232ba56114" target="_top" xlink:title="Access the vertices normals. ">
<polygon fill="white" stroke="black" points="538,-50 538,-80 667,-80 667,-50 538,-50"/>
<text text-anchor="start" x="546" y="-68" font-family="Helvetica,sans-Serif" font-size="10.00">Ra::Core::Geometry</text>
<text text-anchor="middle" x="602.5" y="-57" font-family="Helvetica,sans-Serif" font-size="10.00">::TriangleMesh::normals</text>
</a>
</g>
</g>
<!-- Node3&#45;&gt;Node5 -->
<g id="edge4" class="edge"><title>Node3&#45;&gt;Node5</title>
<path fill="none" stroke="midnightblue" d="M249.082,-117.91C265.405,-101.018 294.552,-74.6209 326,-64 391.619,-41.8382 471.152,-45.0678 527.863,-52.0546"/>
<polygon fill="midnightblue" stroke="midnightblue" points="527.455,-55.531 537.823,-53.349 528.357,-48.5894 527.455,-55.531"/>
</g>
<!-- Node6 -->
<g id="node6" class="node"><title>Node6</title>
<g id="a_node6"><a xlink:href="namespaceRa_1_1Core_1_1Vector.html#a42d87f3bd0658bac532d72f0ec528827" target="_top" xlink:title="Get the cosine of the angle between two vectors. ">
<polygon fill="white" stroke="black" points="356,-123.5 356,-142.5 472,-142.5 472,-123.5 356,-123.5"/>
<text text-anchor="middle" x="414" y="-130.5" font-family="Helvetica,sans-Serif" font-size="10.00">Ra::Core::Vector::cos</text>
</a>
</g>
</g>
<!-- Node3&#45;&gt;Node6 -->
<g id="edge5" class="edge"><title>Node3&#45;&gt;Node6</title>
<path fill="none" stroke="midnightblue" d="M290.204,-133C307.737,-133 327.36,-133 345.686,-133"/>
<polygon fill="midnightblue" stroke="midnightblue" points="345.712,-136.5 355.712,-133 345.712,-129.5 345.712,-136.5"/>
</g>
<!-- Node7 -->
<g id="node7" class="node"><title>Node7</title>
<g id="a_node7"><a xlink:href="classRa_1_1Core_1_1Geometry_1_1TriangleMesh.html#a0b294c697e094dcc62b3adb3c0ac16af" target="_top" xlink:title="Check that the mesh is well built, asserting when it is not. ">
<polygon fill="white" stroke="black" points="326,-74 326,-104 502,-104 502,-74 326,-74"/>
<text text-anchor="start" x="334" y="-92" font-family="Helvetica,sans-Serif" font-size="10.00">Ra::Core::Geometry</text>
<text text-anchor="middle" x="414" y="-81" font-family="Helvetica,sans-Serif" font-size="10.00">::TriangleMesh::checkConsistency</text>
</a>
</g>
</g>
<!-- Node3&#45;&gt;Node7 -->
<g id="edge6" class="edge"><title>Node3&#45;&gt;Node7</title>
<path fill="none" stroke="midnightblue" d="M290.204,-119.44C306.638,-115.366 324.908,-110.837 342.225,-106.544"/>
<polygon fill="midnightblue" stroke="midnightblue" points="343.426,-109.853 352.29,-104.049 341.742,-103.058 343.426,-109.853"/>
</g>
<!-- Node7&#45;&gt;Node4 -->
<g id="edge7" class="edge"><title>Node7&#45;&gt;Node4</title>
<path fill="none" stroke="midnightblue" d="M478.873,-104.15C486.852,-106.966 494.748,-110.234 502,-114 520.234,-123.469 520.449,-132.319 538,-143 543.011,-146.05 548.413,-148.952 553.876,-151.653"/>
<polygon fill="midnightblue" stroke="midnightblue" points="552.532,-154.889 563.068,-155.999 555.523,-148.56 552.532,-154.889"/>
</g>
<!-- Node7&#45;&gt;Node5 -->
<g id="edge12" class="edge"><title>Node7&#45;&gt;Node5</title>
<path fill="none" stroke="midnightblue" d="M502.243,-77.773C510.803,-76.6715 519.43,-75.5612 527.835,-74.4796"/>
<polygon fill="midnightblue" stroke="midnightblue" points="528.487,-77.9248 537.958,-73.177 527.593,-70.982 528.487,-77.9248"/>
</g>
<!-- Node7&#45;&gt;Node8 -->
<g id="edge8" class="edge"><title>Node7&#45;&gt;Node8</title>
<path fill="none" stroke="midnightblue" d="M450.518,-73.9548C484.955,-59.3678 536.708,-37.4452 569.791,-23.4315"/>
<polygon fill="midnightblue" stroke="midnightblue" points="571.165,-26.6507 579.008,-19.5274 568.435,-20.2051 571.165,-26.6507"/>
</g>
<!-- Node9 -->
<g id="node9" class="node"><title>Node9</title>
<g id="a_node9"><a xlink:href="namespaceRa_1_1Core_1_1Geometry.html#a178f2b7309fe2ea5bc31a3abcb25368e" target="_top" xlink:title="Ra::Core::Geometry\l::triangleArea">
<polygon fill="white" stroke="black" points="547,-104 547,-134 658,-134 658,-104 547,-104"/>
<text text-anchor="start" x="555" y="-122" font-family="Helvetica,sans-Serif" font-size="10.00">Ra::Core::Geometry</text>
<text text-anchor="middle" x="602.5" y="-111" font-family="Helvetica,sans-Serif" font-size="10.00">::triangleArea</text>
</a>
</g>
</g>
<!-- Node7&#45;&gt;Node9 -->
<g id="edge9" class="edge"><title>Node7&#45;&gt;Node9</title>
<path fill="none" stroke="midnightblue" d="M502.243,-103.034C513.857,-104.902 525.595,-106.79 536.733,-108.582"/>
<polygon fill="midnightblue" stroke="midnightblue" points="536.344,-112.064 546.773,-110.197 537.455,-105.153 536.344,-112.064"/>
</g>
<!-- Node9&#45;&gt;Node2 -->
<g id="edge11" class="edge"><title>Node9&#45;&gt;Node2</title>
<path fill="none" stroke="midnightblue" d="M641.977,-134.021C650.362,-137.662 659.088,-141.743 667,-146 689.361,-158.032 713.357,-174.29 730.043,-186.188"/>
<polygon fill="midnightblue" stroke="midnightblue" points="728.347,-189.28 738.504,-192.295 732.444,-183.604 728.347,-189.28"/>
</g>
<!-- Node10 -->
<g id="node10" class="node"><title>Node10</title>
<g id="a_node10"><a xlink:href="namespaceOpenMesh.html#a71e7f1dd3eac016d2b8245ac408a291c" target="_top" xlink:title="OpenMesh::cross">
<polygon fill="white" stroke="black" points="703,-109.5 703,-128.5 802,-128.5 802,-109.5 703,-109.5"/>
<text text-anchor="middle" x="752.5" y="-116.5" font-family="Helvetica,sans-Serif" font-size="10.00">OpenMesh::cross</text>
</a>
</g>
</g>
<!-- Node9&#45;&gt;Node10 -->
<g id="edge10" class="edge"><title>Node9&#45;&gt;Node10</title>
<path fill="none" stroke="midnightblue" d="M658.189,-119C669.411,-119 681.27,-119 692.632,-119"/>
<polygon fill="midnightblue" stroke="midnightblue" points="692.894,-122.5 702.894,-119 692.894,-115.5 692.894,-122.5"/>
</g>
</g>
</svg>
