<?xml version="1.0" encoding="UTF-8" standalone="no"?>
<!DOCTYPE svg PUBLIC "-//W3C//DTD SVG 1.1//EN"
 "http://www.w3.org/Graphics/SVG/1.1/DTD/svg11.dtd">
<!-- Generated by graphviz version 2.38.0 (20140413.2041)
 -->
<!-- Title: /home/travis/build/STORM&#45;IRIT/Radium&#45;Engine/src/Core/Geometry/Normal.cpp Pages: 1 -->
<svg width="1183pt" height="397pt"
 viewBox="0.00 0.00 1183.00 397.00" xmlns="http://www.w3.org/2000/svg" xmlns:xlink="http://www.w3.org/1999/xlink">
<g id="graph0" class="graph" transform="scale(1 1) rotate(0) translate(4 393)">
<title>/home/travis/build/STORM&#45;IRIT/Radium&#45;Engine/src/Core/Geometry/Normal.cpp</title>
<polygon fill="white" stroke="none" points="-4,4 -4,-393 1179,-393 1179,4 -4,4"/>
<!-- Node1 -->
<g id="node1" class="node"><title>Node1</title>
<polygon fill="#bfbfbf" stroke="black" points="381,-347.5 381,-388.5 550,-388.5 550,-347.5 381,-347.5"/>
<text text-anchor="start" x="389" y="-376.5" font-family="Helvetica,sans-Serif" font-size="10.00">/home/travis/build</text>
<text text-anchor="start" x="389" y="-365.5" font-family="Helvetica,sans-Serif" font-size="10.00">/STORM&#45;IRIT/Radium&#45;Engine</text>
<text text-anchor="middle" x="465.5" y="-354.5" font-family="Helvetica,sans-Serif" font-size="10.00">/src/Core/Geometry/Normal.cpp</text>
</g>
<!-- Node2 -->
<g id="node2" class="node"><title>Node2</title>
<g id="a_node2"><a xlink:href="Normal_8hpp.html" target="_top" xlink:title="Core/Geometry/Normal.hpp">
<polygon fill="white" stroke="black" points="242,-291.5 242,-310.5 391,-310.5 391,-291.5 242,-291.5"/>
<text text-anchor="middle" x="316.5" y="-298.5" font-family="Helvetica,sans-Serif" font-size="10.00">Core/Geometry/Normal.hpp</text>
</a>
</g>
</g>
<!-- Node1&#45;&gt;Node2 -->
<g id="edge1" class="edge"><title>Node1&#45;&gt;Node2</title>
<path fill="none" stroke="midnightblue" d="M420.795,-347.498C396.413,-336.861 366.933,-324.001 345.545,-314.67"/>
<polygon fill="midnightblue" stroke="midnightblue" points="346.899,-311.443 336.334,-310.652 344.1,-317.859 346.899,-311.443"/>
</g>
<!-- Node18 -->
<g id="node18" class="node"><title>Node18</title>
<g id="a_node18"><a xlink:href="TriangleOperation_8hpp.html" target="_top" xlink:title="Core/Geometry/TriangleOperation.hpp">
<polygon fill="white" stroke="black" points="540,-291.5 540,-310.5 737,-310.5 737,-291.5 540,-291.5"/>
<text text-anchor="middle" x="638.5" y="-298.5" font-family="Helvetica,sans-Serif" font-size="10.00">Core/Geometry/TriangleOperation.hpp</text>
</a>
</g>
</g>
<!-- Node1&#45;&gt;Node18 -->
<g id="edge21" class="edge"><title>Node1&#45;&gt;Node18</title>
<path fill="none" stroke="midnightblue" d="M517.406,-347.498C546.098,-336.718 580.87,-323.653 605.779,-314.294"/>
<polygon fill="midnightblue" stroke="midnightblue" points="607.341,-317.446 615.471,-310.652 604.879,-310.893 607.341,-317.446"/>
</g>
<!-- Node19 -->
<g id="node19" class="node"><title>Node19</title>
<g id="a_node19"><a xlink:href="LinearAlgebra_8hpp.html" target="_top" xlink:title="Core/Math/LinearAlgebra.hpp">
<polygon fill="white" stroke="black" points="733.5,-235.5 733.5,-254.5 889.5,-254.5 889.5,-235.5 733.5,-235.5"/>
<text text-anchor="middle" x="811.5" y="-242.5" font-family="Helvetica,sans-Serif" font-size="10.00">Core/Math/LinearAlgebra.hpp</text>
</a>
</g>
</g>
<!-- Node1&#45;&gt;Node19 -->
<g id="edge23" class="edge"><title>Node1&#45;&gt;Node19</title>
<path fill="none" stroke="midnightblue" d="M550.289,-362.735C608.14,-356.869 684.951,-343.108 745.5,-311 767.591,-299.285 787.195,-277.823 799.183,-262.775"/>
<polygon fill="midnightblue" stroke="midnightblue" points="802.008,-264.842 805.322,-254.779 796.456,-260.579 802.008,-264.842"/>
</g>
<!-- Node27 -->
<g id="node27" class="node"><title>Node27</title>
<g id="a_node27"><a xlink:href="CircularIndex_8hpp.html" target="_top" xlink:title="Core/Utils/CircularIndex.hpp">
<polygon fill="white" stroke="black" points="42,-291.5 42,-310.5 191,-310.5 191,-291.5 42,-291.5"/>
<text text-anchor="middle" x="116.5" y="-298.5" font-family="Helvetica,sans-Serif" font-size="10.00">Core/Utils/CircularIndex.hpp</text>
</a>
</g>
</g>
<!-- Node1&#45;&gt;Node27 -->
<g id="edge39" class="edge"><title>Node1&#45;&gt;Node27</title>
<path fill="none" stroke="midnightblue" d="M380.571,-351.182C315.8,-339.119 228.44,-322.848 172.279,-312.389"/>
<polygon fill="midnightblue" stroke="midnightblue" points="172.64,-308.896 162.168,-310.506 171.358,-315.777 172.64,-308.896"/>
</g>
<!-- Node29 -->
<g id="node29" class="node"><title>Node29</title>
<g id="a_node29"><a xlink:href="Timer_8hpp.html" target="_top" xlink:title="Core/Utils/Timer.hpp">
<polygon fill="white" stroke="black" points="409,-291.5 409,-310.5 522,-310.5 522,-291.5 409,-291.5"/>
<text text-anchor="middle" x="465.5" y="-298.5" font-family="Helvetica,sans-Serif" font-size="10.00">Core/Utils/Timer.hpp</text>
</a>
</g>
</g>
<!-- Node1&#45;&gt;Node29 -->
<g id="edge43" class="edge"><title>Node1&#45;&gt;Node29</title>
<path fill="none" stroke="midnightblue" d="M465.5,-347.498C465.5,-339.065 465.5,-329.235 465.5,-320.874"/>
<polygon fill="midnightblue" stroke="midnightblue" points="469,-320.652 465.5,-310.652 462,-320.653 469,-320.652"/>
</g>
<!-- Node3 -->
<g id="node3" class="node"><title>Node3</title>
<g id="a_node3"><a xlink:href="VectorArray_8hpp.html" target="_top" xlink:title="Core/Containers/VectorArray.hpp">
<polygon fill="white" stroke="black" points="211,-235.5 211,-254.5 384,-254.5 384,-235.5 211,-235.5"/>
<text text-anchor="middle" x="297.5" y="-242.5" font-family="Helvetica,sans-Serif" font-size="10.00">Core/Containers/VectorArray.hpp</text>
</a>
</g>
</g>
<!-- Node2&#45;&gt;Node3 -->
<g id="edge2" class="edge"><title>Node2&#45;&gt;Node3</title>
<path fill="none" stroke="midnightblue" d="M313.363,-291.083C310.817,-283.849 307.144,-273.409 303.973,-264.397"/>
<polygon fill="midnightblue" stroke="midnightblue" points="307.2,-263.023 300.579,-254.751 300.597,-265.346 307.2,-263.023"/>
</g>
<!-- Node14 -->
<g id="node14" class="node"><title>Node14</title>
<g id="a_node14"><a xlink:href="Types_8hpp.html" target="_top" xlink:title="Core/Math/Types.hpp">
<polygon fill="white" stroke="black" points="363.5,-174 363.5,-193 479.5,-193 479.5,-174 363.5,-174"/>
<text text-anchor="middle" x="421.5" y="-181" font-family="Helvetica,sans-Serif" font-size="10.00">Core/Math/Types.hpp</text>
</a>
</g>
</g>
<!-- Node2&#45;&gt;Node14 -->
<g id="edge20" class="edge"><title>Node2&#45;&gt;Node14</title>
<path fill="none" stroke="midnightblue" d="M338.769,-291.44C355.503,-284.018 377.953,-271.815 392.5,-255 405.46,-240.02 413.179,-218.458 417.355,-203.13"/>
<polygon fill="midnightblue" stroke="midnightblue" points="420.794,-203.803 419.794,-193.255 413.998,-202.124 420.794,-203.803"/>
</g>
<!-- Node4 -->
<g id="node4" class="node"><title>Node4</title>
<g id="a_node4"><a xlink:href="AlignedStdVector_8hpp.html" target="_top" xlink:title="Core/Containers/AlignedStd\lVector.hpp">
<polygon fill="white" stroke="black" points="44,-168.5 44,-198.5 193,-198.5 193,-168.5 44,-168.5"/>
<text text-anchor="start" x="52" y="-186.5" font-family="Helvetica,sans-Serif" font-size="10.00">Core/Containers/AlignedStd</text>
<text text-anchor="middle" x="118.5" y="-175.5" font-family="Helvetica,sans-Serif" font-size="10.00">Vector.hpp</text>
</a>
</g>
</g>
<!-- Node3&#45;&gt;Node4 -->
<g id="edge3" class="edge"><title>Node3&#45;&gt;Node4</title>
<path fill="none" stroke="midnightblue" d="M271.854,-235.475C245.458,-226.701 203.602,-212.788 170.281,-201.712"/>
<polygon fill="midnightblue" stroke="midnightblue" points="171.28,-198.356 160.687,-198.523 169.072,-204.999 171.28,-198.356"/>
</g>
<!-- Node5 -->
<g id="node5" class="node"><title>Node5</title>
<g id="a_node5"><a xlink:href="RaCore_8hpp.html" target="_top" xlink:title="Core/RaCore.hpp">
<polygon fill="white" stroke="black" points="286.5,-112.5 286.5,-131.5 384.5,-131.5 384.5,-112.5 286.5,-112.5"/>
<text text-anchor="middle" x="335.5" y="-119.5" font-family="Helvetica,sans-Serif" font-size="10.00">Core/RaCore.hpp</text>
</a>
</g>
</g>
<!-- Node3&#45;&gt;Node5 -->
<g id="edge18" class="edge"><title>Node3&#45;&gt;Node5</title>
<path fill="none" stroke="midnightblue" d="M300.233,-235.298C306.395,-215.676 321.481,-167.638 329.786,-141.193"/>
<polygon fill="midnightblue" stroke="midnightblue" points="333.135,-142.212 332.792,-131.623 326.456,-140.115 333.135,-142.212"/>
</g>
<!-- Node13 -->
<g id="node13" class="node"><title>Node13</title>
<polygon fill="white" stroke="#bfbfbf" points="0,-112.5 0,-131.5 47,-131.5 47,-112.5 0,-112.5"/>
<text text-anchor="middle" x="23.5" y="-119.5" font-family="Helvetica,sans-Serif" font-size="10.00">vector</text>
</g>
<!-- Node3&#45;&gt;Node13 -->
<g id="edge19" class="edge"><title>Node3&#45;&gt;Node13</title>
<path fill="none" stroke="midnightblue" d="M220.763,-235.484C147.869,-226.664 47.4932,-212.332 34.5,-199 19.9208,-184.041 19.0671,-158.925 20.599,-141.687"/>
<polygon fill="midnightblue" stroke="midnightblue" points="24.0824,-142.036 21.83,-131.684 17.1348,-141.181 24.0824,-142.036"/>
</g>
<!-- Node3&#45;&gt;Node14 -->
<g id="edge13" class="edge"><title>Node3&#45;&gt;Node14</title>
<path fill="none" stroke="midnightblue" d="M315.266,-235.475C335.984,-225.534 370.452,-208.995 394.489,-197.461"/>
<polygon fill="midnightblue" stroke="midnightblue" points="396.265,-200.491 403.767,-193.009 393.237,-194.18 396.265,-200.491"/>
</g>
<!-- Node4&#45;&gt;Node5 -->
<g id="edge4" class="edge"><title>Node4&#45;&gt;Node5</title>
<path fill="none" stroke="midnightblue" d="M169.651,-168.475C207.742,-158.03 259.066,-143.958 294.482,-134.247"/>
<polygon fill="midnightblue" stroke="midnightblue" points="295.758,-137.526 304.477,-131.506 293.907,-130.775 295.758,-137.526"/>
</g>
<!-- Node12 -->
<g id="node12" class="node"><title>Node12</title>
<polygon fill="white" stroke="#bfbfbf" points="72,-112.5 72,-131.5 165,-131.5 165,-112.5 72,-112.5"/>
<text text-anchor="middle" x="118.5" y="-119.5" font-family="Helvetica,sans-Serif" font-size="10.00">Eigen/StdVector</text>
</g>
<!-- Node4&#45;&gt;Node12 -->
<g id="edge11" class="edge"><title>Node4&#45;&gt;Node12</title>
<path fill="none" stroke="midnightblue" d="M118.5,-168.399C118.5,-160.466 118.5,-150.458 118.5,-141.858"/>
<polygon fill="midnightblue" stroke="midnightblue" points="122,-141.658 118.5,-131.658 115,-141.658 122,-141.658"/>
</g>
<!-- Node4&#45;&gt;Node13 -->
<g id="edge12" class="edge"><title>Node4&#45;&gt;Node13</title>
<path fill="none" stroke="midnightblue" d="M95.9863,-168.399C80.9009,-158.951 61.115,-146.559 46.0268,-137.109"/>
<polygon fill="midnightblue" stroke="midnightblue" points="47.6561,-134 37.3233,-131.658 43.9405,-139.932 47.6561,-134"/>
</g>
<!-- Node6 -->
<g id="node6" class="node"><title>Node6</title>
<g id="a_node6"><a xlink:href="CoreMacros_8hpp.html" target="_top" xlink:title="Core/CoreMacros.hpp">
<polygon fill="white" stroke="black" points="275.5,-56.5 275.5,-75.5 395.5,-75.5 395.5,-56.5 275.5,-56.5"/>
<text text-anchor="middle" x="335.5" y="-63.5" font-family="Helvetica,sans-Serif" font-size="10.00">Core/CoreMacros.hpp</text>
</a>
</g>
</g>
<!-- Node5&#45;&gt;Node6 -->
<g id="edge5" class="edge"><title>Node5&#45;&gt;Node6</title>
<path fill="none" stroke="midnightblue" d="M335.5,-112.083C335.5,-105.006 335.5,-94.8611 335.5,-85.9865"/>
<polygon fill="midnightblue" stroke="midnightblue" points="339,-85.751 335.5,-75.7511 332,-85.7511 339,-85.751"/>
</g>
<!-- Node7 -->
<g id="node7" class="node"><title>Node7</title>
<polygon fill="white" stroke="#bfbfbf" points="172.5,-0.5 172.5,-19.5 224.5,-19.5 224.5,-0.5 172.5,-0.5"/>
<text text-anchor="middle" x="198.5" y="-7.5" font-family="Helvetica,sans-Serif" font-size="10.00">cassert</text>
</g>
<!-- Node6&#45;&gt;Node7 -->
<g id="edge6" class="edge"><title>Node6&#45;&gt;Node7</title>
<path fill="none" stroke="midnightblue" d="M313.792,-56.4435C291.145,-47.5171 255.428,-33.4387 229.748,-23.3168"/>
<polygon fill="midnightblue" stroke="midnightblue" points="230.693,-19.9273 220.106,-19.5164 228.126,-26.4397 230.693,-19.9273"/>
</g>
<!-- Node8 -->
<g id="node8" class="node"><title>Node8</title>
<polygon fill="white" stroke="#bfbfbf" points="243,-0.5 243,-19.5 288,-19.5 288,-0.5 243,-0.5"/>
<text text-anchor="middle" x="265.5" y="-7.5" font-family="Helvetica,sans-Serif" font-size="10.00">cstdio</text>
</g>
<!-- Node6&#45;&gt;Node8 -->
<g id="edge7" class="edge"><title>Node6&#45;&gt;Node8</title>
<path fill="none" stroke="midnightblue" d="M324.253,-56.324C313.703,-48.1849 297.699,-35.8395 285.058,-26.0874"/>
<polygon fill="midnightblue" stroke="midnightblue" points="287.007,-23.1707 276.951,-19.8339 282.731,-28.7132 287.007,-23.1707"/>
</g>
<!-- Node9 -->
<g id="node9" class="node"><title>Node9</title>
<polygon fill="white" stroke="#bfbfbf" points="306,-0.5 306,-19.5 365,-19.5 365,-0.5 306,-0.5"/>
<text text-anchor="middle" x="335.5" y="-7.5" font-family="Helvetica,sans-Serif" font-size="10.00">iostream</text>
</g>
<!-- Node6&#45;&gt;Node9 -->
<g id="edge8" class="edge"><title>Node6&#45;&gt;Node9</title>
<path fill="none" stroke="midnightblue" d="M335.5,-56.083C335.5,-49.0059 335.5,-38.8611 335.5,-29.9865"/>
<polygon fill="midnightblue" stroke="midnightblue" points="339,-29.751 335.5,-19.7511 332,-29.7511 339,-29.751"/>
</g>
<!-- Node10 -->
<g id="node10" class="node"><title>Node10</title>
<polygon fill="white" stroke="#bfbfbf" points="383.5,-0.5 383.5,-19.5 439.5,-19.5 439.5,-0.5 383.5,-0.5"/>
<text text-anchor="middle" x="411.5" y="-7.5" font-family="Helvetica,sans-Serif" font-size="10.00">sstream</text>
</g>
<!-- Node6&#45;&gt;Node10 -->
<g id="edge9" class="edge"><title>Node6&#45;&gt;Node10</title>
<path fill="none" stroke="midnightblue" d="M347.711,-56.324C359.276,-48.1066 376.875,-35.6017 390.661,-25.8069"/>
<polygon fill="midnightblue" stroke="midnightblue" points="392.943,-28.4791 399.067,-19.8339 388.888,-22.7729 392.943,-28.4791"/>
</g>
<!-- Node11 -->
<g id="node11" class="node"><title>Node11</title>
<polygon fill="white" stroke="#bfbfbf" points="457.5,-0.5 457.5,-19.5 505.5,-19.5 505.5,-0.5 457.5,-0.5"/>
<text text-anchor="middle" x="481.5" y="-7.5" font-family="Helvetica,sans-Serif" font-size="10.00">thread</text>
</g>
<!-- Node6&#45;&gt;Node11 -->
<g id="edge10" class="edge"><title>Node6&#45;&gt;Node11</title>
<path fill="none" stroke="midnightblue" d="M358.634,-56.4435C382.982,-47.4381 421.507,-33.1891 448.923,-23.049"/>
<polygon fill="midnightblue" stroke="midnightblue" points="450.309,-26.2681 458.474,-19.5164 447.881,-19.7028 450.309,-26.2681"/>
</g>
<!-- Node14&#45;&gt;Node5 -->
<g id="edge14" class="edge"><title>Node14&#45;&gt;Node5</title>
<path fill="none" stroke="midnightblue" d="M409.178,-173.975C395.384,-164.431 372.801,-148.807 356.268,-137.368"/>
<polygon fill="midnightblue" stroke="midnightblue" points="358.014,-134.32 347.799,-131.509 354.031,-140.077 358.014,-134.32"/>
</g>
<!-- Node15 -->
<g id="node15" class="node"><title>Node15</title>
<polygon fill="white" stroke="#bfbfbf" points="775.5,-112.5 775.5,-131.5 843.5,-131.5 843.5,-112.5 775.5,-112.5"/>
<text text-anchor="middle" x="809.5" y="-119.5" font-family="Helvetica,sans-Serif" font-size="10.00">Eigen/Core</text>
</g>
<!-- Node14&#45;&gt;Node15 -->
<g id="edge15" class="edge"><title>Node14&#45;&gt;Node15</title>
<path fill="none" stroke="midnightblue" d="M477.091,-173.975C554.782,-162.061 694.267,-140.671 765.308,-129.777"/>
<polygon fill="midnightblue" stroke="midnightblue" points="765.924,-133.223 775.278,-128.248 764.863,-126.304 765.924,-133.223"/>
</g>
<!-- Node16 -->
<g id="node16" class="node"><title>Node16</title>
<polygon fill="white" stroke="#bfbfbf" points="450.5,-112.5 450.5,-131.5 544.5,-131.5 544.5,-112.5 450.5,-112.5"/>
<text text-anchor="middle" x="497.5" y="-119.5" font-family="Helvetica,sans-Serif" font-size="10.00">Eigen/Geometry</text>
</g>
<!-- Node14&#45;&gt;Node16 -->
<g id="edge16" class="edge"><title>Node14&#45;&gt;Node16</title>
<path fill="none" stroke="midnightblue" d="M432.389,-173.975C444.466,-164.52 464.167,-149.096 478.74,-137.687"/>
<polygon fill="midnightblue" stroke="midnightblue" points="480.915,-140.429 486.631,-131.509 476.6,-134.918 480.915,-140.429"/>
</g>
<!-- Node17 -->
<g id="node17" class="node"><title>Node17</title>
<polygon fill="white" stroke="#bfbfbf" points="632.5,-112.5 632.5,-131.5 712.5,-131.5 712.5,-112.5 632.5,-112.5"/>
<text text-anchor="middle" x="672.5" y="-119.5" font-family="Helvetica,sans-Serif" font-size="10.00">Eigen/Sparse</text>
</g>
<!-- Node14&#45;&gt;Node17 -->
<g id="edge17" class="edge"><title>Node14&#45;&gt;Node17</title>
<path fill="none" stroke="midnightblue" d="M457.462,-173.975C502.009,-163.415 577.959,-145.411 626.649,-133.869"/>
<polygon fill="midnightblue" stroke="midnightblue" points="627.682,-137.221 636.605,-131.509 626.067,-130.41 627.682,-137.221"/>
</g>
<!-- Node18&#45;&gt;Node14 -->
<g id="edge22" class="edge"><title>Node18&#45;&gt;Node14</title>
<path fill="none" stroke="midnightblue" d="M625.746,-291.468C606.133,-278.513 567.193,-253.439 532.5,-235 505.792,-220.805 474.326,-206.727 451.729,-197.055"/>
<polygon fill="midnightblue" stroke="midnightblue" points="452.897,-193.749 442.324,-193.065 450.163,-200.193 452.897,-193.749"/>
</g>
<!-- Node19&#45;&gt;Node5 -->
<g id="edge24" class="edge"><title>Node19&#45;&gt;Node5</title>
<path fill="none" stroke="midnightblue" d="M733.317,-242.917C673.931,-239.487 591.503,-229.009 525.5,-199 505.97,-190.121 507.412,-178.129 488.5,-168 458.458,-151.91 421.935,-140.889 392.109,-133.783"/>
<polygon fill="midnightblue" stroke="midnightblue" points="392.799,-130.35 382.269,-131.521 391.231,-137.173 392.799,-130.35"/>
</g>
<!-- Node19&#45;&gt;Node14 -->
<g id="edge36" class="edge"><title>Node19&#45;&gt;Node14</title>
<path fill="none" stroke="midnightblue" d="M743.086,-235.488C678.565,-227.184 579.234,-213.686 493.5,-199 486.415,-197.786 478.959,-196.404 471.638,-194.986"/>
<polygon fill="midnightblue" stroke="midnightblue" points="472.276,-191.545 461.788,-193.043 470.922,-198.412 472.276,-191.545"/>
</g>
<!-- Node19&#45;&gt;Node15 -->
<g id="edge25" class="edge"><title>Node19&#45;&gt;Node15</title>
<path fill="none" stroke="midnightblue" d="M870.071,-235.483C891.825,-229.164 914.381,-218.16 927.5,-199 935.284,-187.632 935.316,-179.346 927.5,-168 910.974,-144.011 879.818,-132.801 853.669,-127.568"/>
<polygon fill="midnightblue" stroke="midnightblue" points="854.022,-124.076 843.566,-125.783 852.805,-130.969 854.022,-124.076"/>
</g>
<!-- Node19&#45;&gt;Node16 -->
<g id="edge26" class="edge"><title>Node19&#45;&gt;Node16</title>
<path fill="none" stroke="midnightblue" d="M733.304,-242.806C682.353,-238.995 616.018,-228.104 564.5,-199 539.69,-184.984 519.45,-158.273 507.931,-140.546"/>
<polygon fill="midnightblue" stroke="midnightblue" points="510.715,-138.396 502.455,-131.76 504.774,-142.098 510.715,-138.396"/>
</g>
<!-- Node19&#45;&gt;Node17 -->
<g id="edge27" class="edge"><title>Node19&#45;&gt;Node17</title>
<path fill="none" stroke="midnightblue" d="M843.685,-235.488C862.039,-228.801 883.516,-217.45 894.5,-199 901.548,-187.161 903.221,-178.666 894.5,-168 883.653,-154.734 784.668,-138.672 722.59,-129.771"/>
<polygon fill="midnightblue" stroke="midnightblue" points="722.979,-126.292 712.587,-128.353 721.996,-133.222 722.979,-126.292"/>
</g>
<!-- Node20 -->
<g id="node20" class="node"><title>Node20</title>
<polygon fill="white" stroke="#bfbfbf" points="1112,-174 1112,-193 1175,-193 1175,-174 1112,-174"/>
<text text-anchor="middle" x="1143.5" y="-181" font-family="Helvetica,sans-Serif" font-size="10.00">functional</text>
</g>
<!-- Node19&#45;&gt;Node20 -->
<g id="edge28" class="edge"><title>Node19&#45;&gt;Node20</title>
<path fill="none" stroke="midnightblue" d="M889.795,-235.908C948.829,-228.842 1031.49,-216.882 1102.5,-199 1105.55,-198.232 1108.69,-197.33 1111.82,-196.358"/>
<polygon fill="midnightblue" stroke="midnightblue" points="1113.22,-199.578 1121.6,-193.093 1111.01,-192.938 1113.22,-199.578"/>
</g>
<!-- Node21 -->
<g id="node21" class="node"><title>Node21</title>
<polygon fill="white" stroke="#bfbfbf" points="574,-168.5 574,-198.5 719,-198.5 719,-168.5 574,-168.5"/>
<text text-anchor="start" x="582" y="-186.5" font-family="Helvetica,sans-Serif" font-size="10.00">unsupported/Eigen/Aligned</text>
<text text-anchor="middle" x="646.5" y="-175.5" font-family="Helvetica,sans-Serif" font-size="10.00">Vector3</text>
</g>
<!-- Node19&#45;&gt;Node21 -->
<g id="edge29" class="edge"><title>Node19&#45;&gt;Node21</title>
<path fill="none" stroke="midnightblue" d="M787.86,-235.475C763.737,-226.776 725.607,-213.026 695.024,-201.998"/>
<polygon fill="midnightblue" stroke="midnightblue" points="695.982,-198.623 685.387,-198.523 693.607,-205.208 695.982,-198.623"/>
</g>
<!-- Node22 -->
<g id="node22" class="node"><title>Node22</title>
<g id="a_node22"><a xlink:href="Math_8hpp.html" target="_top" xlink:title="Core/Math/Math.hpp">
<polygon fill="white" stroke="black" points="979.5,-174 979.5,-193 1093.5,-193 1093.5,-174 979.5,-174"/>
<text text-anchor="middle" x="1036.5" y="-181" font-family="Helvetica,sans-Serif" font-size="10.00">Core/Math/Math.hpp</text>
</a>
</g>
</g>
<!-- Node19&#45;&gt;Node22 -->
<g id="edge30" class="edge"><title>Node19&#45;&gt;Node22</title>
<path fill="none" stroke="midnightblue" d="M843.737,-235.475C883.419,-224.982 950.899,-207.137 994.574,-195.587"/>
<polygon fill="midnightblue" stroke="midnightblue" points="995.55,-198.949 1004.32,-193.009 993.76,-192.182 995.55,-198.949"/>
</g>
<!-- Node26 -->
<g id="node26" class="node"><title>Node26</title>
<g id="a_node26"><a xlink:href="LinearAlgebra_8inl.html" target="_top" xlink:title="Core/Math/LinearAlgebra.inl">
<polygon fill="white" stroke="black" points="737,-174 737,-193 886,-193 886,-174 737,-174"/>
<text text-anchor="middle" x="811.5" y="-181" font-family="Helvetica,sans-Serif" font-size="10.00">Core/Math/LinearAlgebra.inl</text>
</a>
</g>
</g>
<!-- Node19&#45;&gt;Node26 -->
<g id="edge37" class="edge"><title>Node19&#45;&gt;Node26</title>
<path fill="none" stroke="midnightblue" d="M806.599,-235.475C804.768,-227.08 804.297,-213.981 805.185,-203.163"/>
<polygon fill="midnightblue" stroke="midnightblue" points="808.686,-203.397 806.603,-193.009 801.754,-202.429 808.686,-203.397"/>
</g>
<!-- Node22&#45;&gt;Node5 -->
<g id="edge31" class="edge"><title>Node22&#45;&gt;Node5</title>
<path fill="none" stroke="midnightblue" d="M979.182,-176.351C953.323,-173.654 922.388,-170.532 894.5,-168 693.359,-149.74 642.789,-148.543 441.5,-132 426.395,-130.759 410.082,-129.388 394.887,-128.099"/>
<polygon fill="midnightblue" stroke="midnightblue" points="394.835,-124.582 384.575,-127.222 394.242,-131.557 394.835,-124.582"/>
</g>
<!-- Node23 -->
<g id="node23" class="node"><title>Node23</title>
<polygon fill="white" stroke="#bfbfbf" points="884.5,-112.5 884.5,-131.5 946.5,-131.5 946.5,-112.5 884.5,-112.5"/>
<text text-anchor="middle" x="915.5" y="-119.5" font-family="Helvetica,sans-Serif" font-size="10.00">algorithm</text>
</g>
<!-- Node22&#45;&gt;Node23 -->
<g id="edge32" class="edge"><title>Node22&#45;&gt;Node23</title>
<path fill="none" stroke="midnightblue" d="M1019.16,-173.975C998.947,-164.034 965.313,-147.495 941.858,-135.961"/>
<polygon fill="midnightblue" stroke="midnightblue" points="943.322,-132.781 932.804,-131.509 940.233,-139.063 943.322,-132.781"/>
</g>
<!-- Node24 -->
<g id="node24" class="node"><title>Node24</title>
<polygon fill="white" stroke="#bfbfbf" points="965,-112.5 965,-131.5 1012,-131.5 1012,-112.5 965,-112.5"/>
<text text-anchor="middle" x="988.5" y="-119.5" font-family="Helvetica,sans-Serif" font-size="10.00">cmath</text>
</g>
<!-- Node22&#45;&gt;Node24 -->
<g id="edge33" class="edge"><title>Node22&#45;&gt;Node24</title>
<path fill="none" stroke="midnightblue" d="M1029.62,-173.975C1022.35,-164.962 1010.7,-150.525 1001.66,-139.312"/>
<polygon fill="midnightblue" stroke="midnightblue" points="1004.37,-137.095 995.364,-131.509 998.919,-141.49 1004.37,-137.095"/>
</g>
<!-- Node25 -->
<g id="node25" class="node"><title>Node25</title>
<g id="a_node25"><a xlink:href="Math_8inl.html" target="_top" xlink:title="Core/Math/Math.inl">
<polygon fill="white" stroke="black" points="1030,-112.5 1030,-131.5 1137,-131.5 1137,-112.5 1030,-112.5"/>
<text text-anchor="middle" x="1083.5" y="-119.5" font-family="Helvetica,sans-Serif" font-size="10.00">Core/Math/Math.inl</text>
</a>
</g>
</g>
<!-- Node22&#45;&gt;Node25 -->
<g id="edge34" class="edge"><title>Node22&#45;&gt;Node25</title>
<path fill="none" stroke="midnightblue" d="M1038.33,-173.975C1043.54,-164.873 1054.71,-150.241 1064.81,-138.983"/>
<polygon fill="midnightblue" stroke="midnightblue" points="1067.55,-141.18 1071.88,-131.509 1062.47,-136.37 1067.55,-141.18"/>
</g>
<!-- Node25&#45;&gt;Node22 -->
<g id="edge35" class="edge"><title>Node25&#45;&gt;Node22</title>
<path fill="none" stroke="midnightblue" d="M1081.68,-131.509C1076.48,-140.604 1065.31,-155.236 1055.2,-166.497"/>
<polygon fill="midnightblue" stroke="midnightblue" points="1052.46,-164.304 1048.13,-173.975 1057.55,-169.113 1052.46,-164.304"/>
</g>
<!-- Node26&#45;&gt;Node19 -->
<g id="edge38" class="edge"><title>Node26&#45;&gt;Node19</title>
<path fill="none" stroke="midnightblue" d="M816.397,-193.009C818.23,-201.398 818.703,-214.496 817.817,-225.317"/>
<polygon fill="midnightblue" stroke="midnightblue" points="814.315,-225.088 816.401,-235.475 821.248,-226.054 814.315,-225.088"/>
</g>
<!-- Node27&#45;&gt;Node5 -->
<g id="edge40" class="edge"><title>Node27&#45;&gt;Node5</title>
<path fill="none" stroke="midnightblue" d="M127.063,-291.463C161.747,-263.431 272.457,-173.952 316.837,-138.084"/>
<polygon fill="midnightblue" stroke="midnightblue" points="319.209,-140.667 324.787,-131.659 314.809,-135.223 319.209,-140.667"/>
</g>
<!-- Node28 -->
<g id="node28" class="node"><title>Node28</title>
<g id="a_node28"><a xlink:href="CircularIndex_8inl.html" target="_top" xlink:title="Core/Utils/CircularIndex.inl">
<polygon fill="white" stroke="black" points="13,-235.5 13,-254.5 154,-254.5 154,-235.5 13,-235.5"/>
<text text-anchor="middle" x="83.5" y="-242.5" font-family="Helvetica,sans-Serif" font-size="10.00">Core/Utils/CircularIndex.inl</text>
</a>
</g>
</g>
<!-- Node27&#45;&gt;Node28 -->
<g id="edge41" class="edge"><title>Node27&#45;&gt;Node28</title>
<path fill="none" stroke="midnightblue" d="M105.884,-291.083C99.808,-283.691 92.838,-272.953 87.9947,-263.811"/>
<polygon fill="midnightblue" stroke="midnightblue" points="91.1515,-262.299 83.7169,-254.751 84.8217,-265.288 91.1515,-262.299"/>
</g>
<!-- Node28&#45;&gt;Node27 -->
<g id="edge42" class="edge"><title>Node28&#45;&gt;Node27</title>
<path fill="none" stroke="midnightblue" d="M93.9789,-254.751C100.042,-262.092 107.021,-272.817 111.896,-281.983"/>
<polygon fill="midnightblue" stroke="midnightblue" points="108.766,-283.551 116.217,-291.083 115.089,-280.548 108.766,-283.551"/>
</g>
<!-- Node29&#45;&gt;Node5 -->
<g id="edge44" class="edge"><title>Node29&#45;&gt;Node5</title>
<path fill="none" stroke="midnightblue" d="M475.96,-291.423C490.57,-278.408 513.779,-253.258 499.5,-235 458.594,-182.696 401.491,-245.914 354.5,-199 339.563,-184.088 335.754,-159.327 335.07,-142.137"/>
<polygon fill="midnightblue" stroke="midnightblue" points="338.567,-141.637 334.997,-131.661 331.567,-141.685 338.567,-141.637"/>
</g>
<!-- Node30 -->
<g id="node30" class="node"><title>Node30</title>
<polygon fill="white" stroke="#bfbfbf" points="440.5,-235.5 440.5,-254.5 490.5,-254.5 490.5,-235.5 440.5,-235.5"/>
<text text-anchor="middle" x="465.5" y="-242.5" font-family="Helvetica,sans-Serif" font-size="10.00">chrono</text>
</g>
<!-- Node29&#45;&gt;Node30 -->
<g id="edge45" class="edge"><title>Node29&#45;&gt;Node30</title>
<path fill="none" stroke="midnightblue" d="M465.5,-291.083C465.5,-284.006 465.5,-273.861 465.5,-264.986"/>
<polygon fill="midnightblue" stroke="midnightblue" points="469,-264.751 465.5,-254.751 462,-264.751 469,-264.751"/>
</g>
</g>
</svg>
