<?xml version="1.0" encoding="UTF-8" standalone="no"?>
<!DOCTYPE svg PUBLIC "-//W3C//DTD SVG 1.1//EN"
 "http://www.w3.org/Graphics/SVG/1.1/DTD/svg11.dtd">
<!-- Generated by graphviz version 2.38.0 (20140413.2041)
 -->
<!-- Title: /home/travis/build/STORM&#45;IRIT/Radium&#45;Engine/src/IO/deprecated/OFFFileManager.hpp Pages: 1 -->
<svg width="957pt" height="453pt"
 viewBox="0.00 0.00 957.00 453.00" xmlns="http://www.w3.org/2000/svg" xmlns:xlink="http://www.w3.org/1999/xlink">
<g id="graph0" class="graph" transform="scale(1 1) rotate(0) translate(4 449)">
<title>/home/travis/build/STORM&#45;IRIT/Radium&#45;Engine/src/IO/deprecated/OFFFileManager.hpp</title>
<polygon fill="white" stroke="none" points="-4,4 -4,-449 953,-449 953,4 -4,4"/>
<!-- Node1 -->
<g id="node1" class="node"><title>Node1</title>
<polygon fill="#bfbfbf" stroke="black" points="378,-403.5 378,-444.5 581,-444.5 581,-403.5 378,-403.5"/>
<text text-anchor="start" x="386" y="-432.5" font-family="Helvetica,sans-Serif" font-size="10.00">/home/travis/build</text>
<text text-anchor="start" x="386" y="-421.5" font-family="Helvetica,sans-Serif" font-size="10.00">/STORM&#45;IRIT/Radium&#45;Engine</text>
<text text-anchor="middle" x="479.5" y="-410.5" font-family="Helvetica,sans-Serif" font-size="10.00">/src/IO/deprecated/OFFFileManager.hpp</text>
</g>
<!-- Node2 -->
<g id="node2" class="node"><title>Node2</title>
<g id="a_node2"><a xlink:href="TriangleMesh_8hpp.html" target="_top" xlink:title="Core/Geometry/TriangleMesh.hpp">
<polygon fill="white" stroke="black" points="391.5,-347.5 391.5,-366.5 567.5,-366.5 567.5,-347.5 391.5,-347.5"/>
<text text-anchor="middle" x="479.5" y="-354.5" font-family="Helvetica,sans-Serif" font-size="10.00">Core/Geometry/TriangleMesh.hpp</text>
</a>
</g>
</g>
<!-- Node1&#45;&gt;Node2 -->
<g id="edge1" class="edge"><title>Node1&#45;&gt;Node2</title>
<path fill="none" stroke="midnightblue" d="M479.5,-403.498C479.5,-395.065 479.5,-385.235 479.5,-376.874"/>
<polygon fill="midnightblue" stroke="midnightblue" points="483,-376.652 479.5,-366.652 476,-376.653 483,-376.652"/>
</g>
<!-- Node23 -->
<g id="node23" class="node"><title>Node23</title>
<g id="a_node23"><a xlink:href="RaIO_8hpp.html" target="_top" xlink:title="IO/RaIO.hpp">
<polygon fill="white" stroke="black" points="0,-235.5 0,-254.5 71,-254.5 71,-235.5 0,-235.5"/>
<text text-anchor="middle" x="35.5" y="-242.5" font-family="Helvetica,sans-Serif" font-size="10.00">IO/RaIO.hpp</text>
</a>
</g>
</g>
<!-- Node1&#45;&gt;Node23 -->
<g id="edge30" class="edge"><title>Node1&#45;&gt;Node23</title>
<path fill="none" stroke="midnightblue" d="M430.288,-403.382C338.237,-366.686 142.463,-288.641 66.5168,-258.365"/>
<polygon fill="midnightblue" stroke="midnightblue" points="67.6174,-255.036 57.0322,-254.584 65.0252,-261.538 67.6174,-255.036"/>
</g>
<!-- Node24 -->
<g id="node24" class="node"><title>Node24</title>
<g id="a_node24"><a xlink:href="FileManager_8hpp.html" target="_top" xlink:title="IO/deprecated/FileManager.hpp">
<polygon fill="white" stroke="black" points="669.5,-347.5 669.5,-366.5 833.5,-366.5 833.5,-347.5 669.5,-347.5"/>
<text text-anchor="middle" x="751.5" y="-354.5" font-family="Helvetica,sans-Serif" font-size="10.00">IO/deprecated/FileManager.hpp</text>
</a>
</g>
</g>
<!-- Node1&#45;&gt;Node24 -->
<g id="edge32" class="edge"><title>Node1&#45;&gt;Node24</title>
<path fill="none" stroke="midnightblue" d="M561.109,-403.498C608.469,-392.18 666.365,-378.345 705.793,-368.923"/>
<polygon fill="midnightblue" stroke="midnightblue" points="706.737,-372.296 715.65,-366.567 705.11,-365.487 706.737,-372.296"/>
</g>
<!-- Node3 -->
<g id="node3" class="node"><title>Node3</title>
<g id="a_node3"><a xlink:href="VectorArray_8hpp.html" target="_top" xlink:title="Core/Containers/VectorArray.hpp">
<polygon fill="white" stroke="black" points="428,-235.5 428,-254.5 601,-254.5 601,-235.5 428,-235.5"/>
<text text-anchor="middle" x="514.5" y="-242.5" font-family="Helvetica,sans-Serif" font-size="10.00">Core/Containers/VectorArray.hpp</text>
</a>
</g>
</g>
<!-- Node2&#45;&gt;Node3 -->
<g id="edge2" class="edge"><title>Node2&#45;&gt;Node3</title>
<path fill="none" stroke="midnightblue" d="M518.755,-347.475C538.496,-340.99 560.684,-329.843 572.5,-311 584.748,-291.467 561.843,-272.148 541.308,-259.715"/>
<polygon fill="midnightblue" stroke="midnightblue" points="542.888,-256.587 532.468,-254.669 539.418,-262.667 542.888,-256.587"/>
</g>
<!-- Node5 -->
<g id="node5" class="node"><title>Node5</title>
<g id="a_node5"><a xlink:href="RaCore_8hpp.html" target="_top" xlink:title="Core/RaCore.hpp">
<polygon fill="white" stroke="black" points="465.5,-112.5 465.5,-131.5 563.5,-131.5 563.5,-112.5 465.5,-112.5"/>
<text text-anchor="middle" x="514.5" y="-119.5" font-family="Helvetica,sans-Serif" font-size="10.00">Core/RaCore.hpp</text>
</a>
</g>
</g>
<!-- Node2&#45;&gt;Node5 -->
<g id="edge21" class="edge"><title>Node2&#45;&gt;Node5</title>
<path fill="none" stroke="midnightblue" d="M520.865,-347.469C543.451,-340.905 570.418,-329.684 588.5,-311 606.985,-291.899 604.757,-281.155 609.5,-255 618.579,-204.935 567.799,-159.944 536.936,-137.694"/>
<polygon fill="midnightblue" stroke="midnightblue" points="538.662,-134.63 528.456,-131.786 534.66,-140.374 538.662,-134.63"/>
</g>
<!-- Node14 -->
<g id="node14" class="node"><title>Node14</title>
<g id="a_node14"><a xlink:href="Types_8hpp.html" target="_top" xlink:title="Core/Math/Types.hpp">
<polygon fill="white" stroke="black" points="251.5,-174 251.5,-193 367.5,-193 367.5,-174 251.5,-174"/>
<text text-anchor="middle" x="309.5" y="-181" font-family="Helvetica,sans-Serif" font-size="10.00">Core/Math/Types.hpp</text>
</a>
</g>
</g>
<!-- Node2&#45;&gt;Node14 -->
<g id="edge20" class="edge"><title>Node2&#45;&gt;Node14</title>
<path fill="none" stroke="midnightblue" d="M391.398,-350.251C334.068,-344.462 266.688,-333.073 248.5,-311 219.835,-276.212 264.385,-225.697 291.353,-200.312"/>
<polygon fill="midnightblue" stroke="midnightblue" points="294.026,-202.611 299.057,-193.286 289.309,-197.439 294.026,-202.611"/>
</g>
<!-- Node18 -->
<g id="node18" class="node"><title>Node18</title>
<g id="a_node18"><a xlink:href="Attribs_8hpp.html" target="_top" xlink:title="Core/Utils/Attribs.hpp">
<polygon fill="white" stroke="black" points="258,-291.5 258,-310.5 377,-310.5 377,-291.5 258,-291.5"/>
<text text-anchor="middle" x="317.5" y="-298.5" font-family="Helvetica,sans-Serif" font-size="10.00">Core/Utils/Attribs.hpp</text>
</a>
</g>
</g>
<!-- Node2&#45;&gt;Node18 -->
<g id="edge22" class="edge"><title>Node2&#45;&gt;Node18</title>
<path fill="none" stroke="midnightblue" d="M453.831,-347.444C426.577,-338.359 383.316,-323.939 352.849,-313.783"/>
<polygon fill="midnightblue" stroke="midnightblue" points="353.643,-310.358 343.049,-310.516 351.429,-316.999 353.643,-310.358"/>
</g>
<!-- Node22 -->
<g id="node22" class="node"><title>Node22</title>
<g id="a_node22"><a xlink:href="TriangleMesh_8inl.html" target="_top" xlink:title="Core/Geometry/TriangleMesh.inl">
<polygon fill="white" stroke="black" points="395.5,-291.5 395.5,-310.5 563.5,-310.5 563.5,-291.5 395.5,-291.5"/>
<text text-anchor="middle" x="479.5" y="-298.5" font-family="Helvetica,sans-Serif" font-size="10.00">Core/Geometry/TriangleMesh.inl</text>
</a>
</g>
</g>
<!-- Node2&#45;&gt;Node22 -->
<g id="edge28" class="edge"><title>Node2&#45;&gt;Node22</title>
<path fill="none" stroke="midnightblue" d="M474.334,-347.083C472.824,-339.927 472.394,-329.635 473.042,-320.691"/>
<polygon fill="midnightblue" stroke="midnightblue" points="476.515,-321.126 474.369,-310.751 469.577,-320.2 476.515,-321.126"/>
</g>
<!-- Node4 -->
<g id="node4" class="node"><title>Node4</title>
<g id="a_node4"><a xlink:href="AlignedStdVector_8hpp.html" target="_top" xlink:title="Core/Containers/AlignedStd\lVector.hpp">
<polygon fill="white" stroke="black" points="618,-168.5 618,-198.5 767,-198.5 767,-168.5 618,-168.5"/>
<text text-anchor="start" x="626" y="-186.5" font-family="Helvetica,sans-Serif" font-size="10.00">Core/Containers/AlignedStd</text>
<text text-anchor="middle" x="692.5" y="-175.5" font-family="Helvetica,sans-Serif" font-size="10.00">Vector.hpp</text>
</a>
</g>
</g>
<!-- Node3&#45;&gt;Node4 -->
<g id="edge3" class="edge"><title>Node3&#45;&gt;Node4</title>
<path fill="none" stroke="midnightblue" d="M540.003,-235.475C566.251,-226.701 607.874,-212.788 641.008,-201.712"/>
<polygon fill="midnightblue" stroke="midnightblue" points="642.174,-205.013 650.549,-198.523 639.955,-198.374 642.174,-205.013"/>
</g>
<!-- Node3&#45;&gt;Node5 -->
<g id="edge18" class="edge"><title>Node3&#45;&gt;Node5</title>
<path fill="none" stroke="midnightblue" d="M514.5,-235.298C514.5,-215.85 514.5,-168.49 514.5,-141.904"/>
<polygon fill="midnightblue" stroke="midnightblue" points="518,-141.623 514.5,-131.623 511,-141.623 518,-141.623"/>
</g>
<!-- Node13 -->
<g id="node13" class="node"><title>Node13</title>
<polygon fill="white" stroke="#bfbfbf" points="764,-112.5 764,-131.5 811,-131.5 811,-112.5 764,-112.5"/>
<text text-anchor="middle" x="787.5" y="-119.5" font-family="Helvetica,sans-Serif" font-size="10.00">vector</text>
</g>
<!-- Node3&#45;&gt;Node13 -->
<g id="edge19" class="edge"><title>Node3&#45;&gt;Node13</title>
<path fill="none" stroke="midnightblue" d="M601.237,-239.72C667.545,-234.56 751.53,-223.311 775.5,-199 790.194,-184.097 791.397,-158.968 790.118,-141.713"/>
<polygon fill="midnightblue" stroke="midnightblue" points="793.59,-141.263 789.036,-131.697 786.631,-142.015 793.59,-141.263"/>
</g>
<!-- Node3&#45;&gt;Node14 -->
<g id="edge13" class="edge"><title>Node3&#45;&gt;Node14</title>
<path fill="none" stroke="midnightblue" d="M485.128,-235.475C449.203,-225.048 388.268,-207.362 348.456,-195.807"/>
<polygon fill="midnightblue" stroke="midnightblue" points="349.396,-192.435 338.817,-193.009 347.445,-199.158 349.396,-192.435"/>
</g>
<!-- Node4&#45;&gt;Node5 -->
<g id="edge4" class="edge"><title>Node4&#45;&gt;Node5</title>
<path fill="none" stroke="midnightblue" d="M650.316,-168.399C619.693,-158.163 578.73,-144.47 549.825,-134.808"/>
<polygon fill="midnightblue" stroke="midnightblue" points="550.735,-131.422 540.141,-131.571 548.515,-138.061 550.735,-131.422"/>
</g>
<!-- Node12 -->
<g id="node12" class="node"><title>Node12</title>
<polygon fill="white" stroke="#bfbfbf" points="646,-112.5 646,-131.5 739,-131.5 739,-112.5 646,-112.5"/>
<text text-anchor="middle" x="692.5" y="-119.5" font-family="Helvetica,sans-Serif" font-size="10.00">Eigen/StdVector</text>
</g>
<!-- Node4&#45;&gt;Node12 -->
<g id="edge11" class="edge"><title>Node4&#45;&gt;Node12</title>
<path fill="none" stroke="midnightblue" d="M692.5,-168.399C692.5,-160.466 692.5,-150.458 692.5,-141.858"/>
<polygon fill="midnightblue" stroke="midnightblue" points="696,-141.658 692.5,-131.658 689,-141.658 696,-141.658"/>
</g>
<!-- Node4&#45;&gt;Node13 -->
<g id="edge12" class="edge"><title>Node4&#45;&gt;Node13</title>
<path fill="none" stroke="midnightblue" d="M715.014,-168.399C730.099,-158.951 749.885,-146.559 764.973,-137.109"/>
<polygon fill="midnightblue" stroke="midnightblue" points="767.059,-139.932 773.677,-131.658 763.344,-134 767.059,-139.932"/>
</g>
<!-- Node6 -->
<g id="node6" class="node"><title>Node6</title>
<g id="a_node6"><a xlink:href="CoreMacros_8hpp.html" target="_top" xlink:title="Core/CoreMacros.hpp">
<polygon fill="white" stroke="black" points="215.5,-56.5 215.5,-75.5 335.5,-75.5 335.5,-56.5 215.5,-56.5"/>
<text text-anchor="middle" x="275.5" y="-63.5" font-family="Helvetica,sans-Serif" font-size="10.00">Core/CoreMacros.hpp</text>
</a>
</g>
</g>
<!-- Node5&#45;&gt;Node6 -->
<g id="edge5" class="edge"><title>Node5&#45;&gt;Node6</title>
<path fill="none" stroke="midnightblue" d="M476.63,-112.444C435.024,-103.043 368.131,-87.9291 323.031,-77.7393"/>
<polygon fill="midnightblue" stroke="midnightblue" points="323.719,-74.3064 313.193,-75.5164 322.176,-81.1343 323.719,-74.3064"/>
</g>
<!-- Node7 -->
<g id="node7" class="node"><title>Node7</title>
<polygon fill="white" stroke="#bfbfbf" points="112.5,-0.5 112.5,-19.5 164.5,-19.5 164.5,-0.5 112.5,-0.5"/>
<text text-anchor="middle" x="138.5" y="-7.5" font-family="Helvetica,sans-Serif" font-size="10.00">cassert</text>
</g>
<!-- Node6&#45;&gt;Node7 -->
<g id="edge6" class="edge"><title>Node6&#45;&gt;Node7</title>
<path fill="none" stroke="midnightblue" d="M253.792,-56.4435C231.145,-47.5171 195.428,-33.4387 169.748,-23.3168"/>
<polygon fill="midnightblue" stroke="midnightblue" points="170.693,-19.9273 160.106,-19.5164 168.126,-26.4397 170.693,-19.9273"/>
</g>
<!-- Node8 -->
<g id="node8" class="node"><title>Node8</title>
<polygon fill="white" stroke="#bfbfbf" points="183,-0.5 183,-19.5 228,-19.5 228,-0.5 183,-0.5"/>
<text text-anchor="middle" x="205.5" y="-7.5" font-family="Helvetica,sans-Serif" font-size="10.00">cstdio</text>
</g>
<!-- Node6&#45;&gt;Node8 -->
<g id="edge7" class="edge"><title>Node6&#45;&gt;Node8</title>
<path fill="none" stroke="midnightblue" d="M264.253,-56.324C253.703,-48.1849 237.699,-35.8395 225.058,-26.0874"/>
<polygon fill="midnightblue" stroke="midnightblue" points="227.007,-23.1707 216.951,-19.8339 222.731,-28.7132 227.007,-23.1707"/>
</g>
<!-- Node9 -->
<g id="node9" class="node"><title>Node9</title>
<polygon fill="white" stroke="#bfbfbf" points="246,-0.5 246,-19.5 305,-19.5 305,-0.5 246,-0.5"/>
<text text-anchor="middle" x="275.5" y="-7.5" font-family="Helvetica,sans-Serif" font-size="10.00">iostream</text>
</g>
<!-- Node6&#45;&gt;Node9 -->
<g id="edge8" class="edge"><title>Node6&#45;&gt;Node9</title>
<path fill="none" stroke="midnightblue" d="M275.5,-56.083C275.5,-49.0059 275.5,-38.8611 275.5,-29.9865"/>
<polygon fill="midnightblue" stroke="midnightblue" points="279,-29.751 275.5,-19.7511 272,-29.7511 279,-29.751"/>
</g>
<!-- Node10 -->
<g id="node10" class="node"><title>Node10</title>
<polygon fill="white" stroke="#bfbfbf" points="323.5,-0.5 323.5,-19.5 379.5,-19.5 379.5,-0.5 323.5,-0.5"/>
<text text-anchor="middle" x="351.5" y="-7.5" font-family="Helvetica,sans-Serif" font-size="10.00">sstream</text>
</g>
<!-- Node6&#45;&gt;Node10 -->
<g id="edge9" class="edge"><title>Node6&#45;&gt;Node10</title>
<path fill="none" stroke="midnightblue" d="M287.711,-56.324C299.276,-48.1066 316.875,-35.6017 330.661,-25.8069"/>
<polygon fill="midnightblue" stroke="midnightblue" points="332.943,-28.4791 339.067,-19.8339 328.888,-22.7729 332.943,-28.4791"/>
</g>
<!-- Node11 -->
<g id="node11" class="node"><title>Node11</title>
<polygon fill="white" stroke="#bfbfbf" points="397.5,-0.5 397.5,-19.5 445.5,-19.5 445.5,-0.5 397.5,-0.5"/>
<text text-anchor="middle" x="421.5" y="-7.5" font-family="Helvetica,sans-Serif" font-size="10.00">thread</text>
</g>
<!-- Node6&#45;&gt;Node11 -->
<g id="edge10" class="edge"><title>Node6&#45;&gt;Node11</title>
<path fill="none" stroke="midnightblue" d="M298.634,-56.4435C322.982,-47.4381 361.507,-33.1891 388.923,-23.049"/>
<polygon fill="midnightblue" stroke="midnightblue" points="390.309,-26.2681 398.474,-19.5164 387.881,-19.7028 390.309,-26.2681"/>
</g>
<!-- Node14&#45;&gt;Node5 -->
<g id="edge14" class="edge"><title>Node14&#45;&gt;Node5</title>
<path fill="none" stroke="midnightblue" d="M338.872,-173.975C374.797,-163.548 435.732,-145.862 475.544,-134.307"/>
<polygon fill="midnightblue" stroke="midnightblue" points="476.555,-137.658 485.183,-131.509 474.604,-130.935 476.555,-137.658"/>
</g>
<!-- Node15 -->
<g id="node15" class="node"><title>Node15</title>
<polygon fill="white" stroke="#bfbfbf" points="267.5,-112.5 267.5,-131.5 335.5,-131.5 335.5,-112.5 267.5,-112.5"/>
<text text-anchor="middle" x="301.5" y="-119.5" font-family="Helvetica,sans-Serif" font-size="10.00">Eigen/Core</text>
</g>
<!-- Node14&#45;&gt;Node15 -->
<g id="edge15" class="edge"><title>Node14&#45;&gt;Node15</title>
<path fill="none" stroke="midnightblue" d="M308.354,-173.975C307.225,-165.58 305.464,-152.481 304.009,-141.663"/>
<polygon fill="midnightblue" stroke="midnightblue" points="307.445,-140.953 302.644,-131.509 300.508,-141.886 307.445,-140.953"/>
</g>
<!-- Node16 -->
<g id="node16" class="node"><title>Node16</title>
<polygon fill="white" stroke="#bfbfbf" points="353.5,-112.5 353.5,-131.5 447.5,-131.5 447.5,-112.5 353.5,-112.5"/>
<text text-anchor="middle" x="400.5" y="-119.5" font-family="Helvetica,sans-Serif" font-size="10.00">Eigen/Geometry</text>
</g>
<!-- Node14&#45;&gt;Node16 -->
<g id="edge16" class="edge"><title>Node14&#45;&gt;Node16</title>
<path fill="none" stroke="midnightblue" d="M322.538,-173.975C337.269,-164.343 361.473,-148.517 379.009,-137.052"/>
<polygon fill="midnightblue" stroke="midnightblue" points="381.032,-139.911 387.486,-131.509 377.201,-134.052 381.032,-139.911"/>
</g>
<!-- Node17 -->
<g id="node17" class="node"><title>Node17</title>
<polygon fill="white" stroke="#bfbfbf" points="169.5,-112.5 169.5,-131.5 249.5,-131.5 249.5,-112.5 169.5,-112.5"/>
<text text-anchor="middle" x="209.5" y="-119.5" font-family="Helvetica,sans-Serif" font-size="10.00">Eigen/Sparse</text>
</g>
<!-- Node14&#45;&gt;Node17 -->
<g id="edge17" class="edge"><title>Node14&#45;&gt;Node17</title>
<path fill="none" stroke="midnightblue" d="M295.172,-173.975C278.836,-164.255 251.898,-148.227 232.588,-136.737"/>
<polygon fill="midnightblue" stroke="midnightblue" points="234.185,-133.615 223.801,-131.509 230.605,-139.63 234.185,-133.615"/>
</g>
<!-- Node18&#45;&gt;Node3 -->
<g id="edge23" class="edge"><title>Node18&#45;&gt;Node3</title>
<path fill="none" stroke="midnightblue" d="M348.715,-291.444C382.433,-282.201 436.3,-267.436 473.432,-257.257"/>
<polygon fill="midnightblue" stroke="midnightblue" points="474.712,-260.536 483.431,-254.516 472.861,-253.785 474.712,-260.536"/>
</g>
<!-- Node18&#45;&gt;Node5 -->
<g id="edge24" class="edge"><title>Node18&#45;&gt;Node5</title>
<path fill="none" stroke="midnightblue" d="M327.002,-291.463C358.065,-263.554 456.918,-174.736 497.183,-138.559"/>
<polygon fill="midnightblue" stroke="midnightblue" points="499.53,-141.155 504.63,-131.868 494.852,-135.948 499.53,-141.155"/>
</g>
<!-- Node19 -->
<g id="node19" class="node"><title>Node19</title>
<g id="a_node19"><a xlink:href="Index_8hpp.html" target="_top" xlink:title="Core/Utils/Index.hpp">
<polygon fill="white" stroke="black" points="89,-235.5 89,-254.5 202,-254.5 202,-235.5 89,-235.5"/>
<text text-anchor="middle" x="145.5" y="-242.5" font-family="Helvetica,sans-Serif" font-size="10.00">Core/Utils/Index.hpp</text>
</a>
</g>
</g>
<!-- Node18&#45;&gt;Node19 -->
<g id="edge25" class="edge"><title>Node18&#45;&gt;Node19</title>
<path fill="none" stroke="midnightblue" d="M290.246,-291.444C261.059,-282.28 214.579,-267.688 182.191,-257.519"/>
<polygon fill="midnightblue" stroke="midnightblue" points="183.216,-254.173 172.626,-254.516 181.119,-260.851 183.216,-254.173"/>
</g>
<!-- Node20 -->
<g id="node20" class="node"><title>Node20</title>
<polygon fill="white" stroke="#bfbfbf" points="190.5,-174 190.5,-193 232.5,-193 232.5,-174 190.5,-174"/>
<text text-anchor="middle" x="211.5" y="-181" font-family="Helvetica,sans-Serif" font-size="10.00">limits</text>
</g>
<!-- Node19&#45;&gt;Node20 -->
<g id="edge26" class="edge"><title>Node19&#45;&gt;Node20</title>
<path fill="none" stroke="midnightblue" d="M154.956,-235.475C165.248,-226.197 181.916,-211.171 194.494,-199.831"/>
<polygon fill="midnightblue" stroke="midnightblue" points="196.978,-202.305 202.061,-193.009 192.29,-197.105 196.978,-202.305"/>
</g>
<!-- Node21 -->
<g id="node21" class="node"><title>Node21</title>
<g id="a_node21"><a xlink:href="Index_8inl.html" target="_top" xlink:title="Core/Utils/Index.inl">
<polygon fill="white" stroke="black" points="67,-174 67,-193 172,-193 172,-174 67,-174"/>
<text text-anchor="middle" x="119.5" y="-181" font-family="Helvetica,sans-Serif" font-size="10.00">Core/Utils/Index.inl</text>
</a>
</g>
</g>
<!-- Node19&#45;&gt;Node21 -->
<g id="edge27" class="edge"><title>Node19&#45;&gt;Node21</title>
<path fill="none" stroke="midnightblue" d="M141.775,-235.475C138.029,-226.904 132.14,-213.427 127.358,-202.483"/>
<polygon fill="midnightblue" stroke="midnightblue" points="130.43,-200.771 123.218,-193.009 124.015,-203.574 130.43,-200.771"/>
</g>
<!-- Node22&#45;&gt;Node2 -->
<g id="edge29" class="edge"><title>Node22&#45;&gt;Node2</title>
<path fill="none" stroke="midnightblue" d="M484.631,-310.751C486.157,-317.858 486.604,-328.136 485.972,-337.101"/>
<polygon fill="midnightblue" stroke="midnightblue" points="482.493,-336.713 484.666,-347.083 489.434,-337.622 482.493,-336.713"/>
</g>
<!-- Node23&#45;&gt;Node6 -->
<g id="edge31" class="edge"><title>Node23&#45;&gt;Node6</title>
<path fill="none" stroke="midnightblue" d="M35.9066,-235.021C37.0378,-219.678 41.3165,-188.124 57.5,-168 98.2182,-117.368 170.096,-90.9579 220.139,-78.0394"/>
<polygon fill="midnightblue" stroke="midnightblue" points="221.289,-81.3603 230.154,-75.5579 219.606,-74.5658 221.289,-81.3603"/>
</g>
<!-- Node25 -->
<g id="node25" class="node"><title>Node25</title>
<polygon fill="white" stroke="#bfbfbf" points="657.5,-291.5 657.5,-310.5 711.5,-310.5 711.5,-291.5 657.5,-291.5"/>
<text text-anchor="middle" x="684.5" y="-298.5" font-family="Helvetica,sans-Serif" font-size="10.00">fstream</text>
</g>
<!-- Node24&#45;&gt;Node25 -->
<g id="edge33" class="edge"><title>Node24&#45;&gt;Node25</title>
<path fill="none" stroke="midnightblue" d="M740.735,-347.324C730.734,-339.263 715.613,-327.077 703.57,-317.369"/>
<polygon fill="midnightblue" stroke="midnightblue" points="705.443,-314.384 695.461,-310.834 701.05,-319.834 705.443,-314.384"/>
</g>
<!-- Node26 -->
<g id="node26" class="node"><title>Node26</title>
<polygon fill="white" stroke="#bfbfbf" points="729.5,-291.5 729.5,-310.5 773.5,-310.5 773.5,-291.5 729.5,-291.5"/>
<text text-anchor="middle" x="751.5" y="-298.5" font-family="Helvetica,sans-Serif" font-size="10.00">string</text>
</g>
<!-- Node24&#45;&gt;Node26 -->
<g id="edge34" class="edge"><title>Node24&#45;&gt;Node26</title>
<path fill="none" stroke="midnightblue" d="M751.5,-347.083C751.5,-340.006 751.5,-329.861 751.5,-320.986"/>
<polygon fill="midnightblue" stroke="midnightblue" points="755,-320.751 751.5,-310.751 748,-320.751 755,-320.751"/>
</g>
<!-- Node27 -->
<g id="node27" class="node"><title>Node27</title>
<g id="a_node27"><a xlink:href="FileManager_8inl.html" target="_top" xlink:title="IO/deprecated/FileManager.inl">
<polygon fill="white" stroke="black" points="792,-291.5 792,-310.5 949,-310.5 949,-291.5 792,-291.5"/>
<text text-anchor="middle" x="870.5" y="-298.5" font-family="Helvetica,sans-Serif" font-size="10.00">IO/deprecated/FileManager.inl</text>
</a>
</g>
</g>
<!-- Node24&#45;&gt;Node27 -->
<g id="edge35" class="edge"><title>Node24&#45;&gt;Node27</title>
<path fill="none" stroke="midnightblue" d="M765.505,-347.324C783.105,-338.467 813.367,-324.63 836.985,-314.573"/>
<polygon fill="midnightblue" stroke="midnightblue" points="838.453,-317.753 846.318,-310.655 835.743,-311.299 838.453,-317.753"/>
</g>
<!-- Node27&#45;&gt;Node24 -->
<g id="edge36" class="edge"><title>Node27&#45;&gt;Node24</title>
<path fill="none" stroke="midnightblue" d="M856.812,-310.516C839.216,-319.388 808.622,-333.38 784.837,-343.503"/>
<polygon fill="midnightblue" stroke="midnightblue" points="783.312,-340.347 775.445,-347.444 786.02,-346.802 783.312,-340.347"/>
</g>
</g>
</svg>
