<?xml version="1.0" encoding="UTF-8" standalone="no"?>
<!DOCTYPE svg PUBLIC "-//W3C//DTD SVG 1.1//EN"
 "http://www.w3.org/Graphics/SVG/1.1/DTD/svg11.dtd">
<!-- Generated by graphviz version 2.38.0 (20140413.2041)
 -->
<!-- Title: /home/travis/build/STORM&#45;IRIT/Radium&#45;Engine/src/Core/Geometry/PolyLine.cpp Pages: 1 -->
<svg width="1615pt" height="565pt"
 viewBox="0.00 0.00 1615.00 565.00" xmlns="http://www.w3.org/2000/svg" xmlns:xlink="http://www.w3.org/1999/xlink">
<g id="graph0" class="graph" transform="scale(1 1) rotate(0) translate(4 561)">
<title>/home/travis/build/STORM&#45;IRIT/Radium&#45;Engine/src/Core/Geometry/PolyLine.cpp</title>
<polygon fill="white" stroke="none" points="-4,4 -4,-561 1611,-561 1611,4 -4,4"/>
<!-- Node1 -->
<g id="node1" class="node"><title>Node1</title>
<polygon fill="#bfbfbf" stroke="black" points="1327.5,-515.5 1327.5,-556.5 1500.5,-556.5 1500.5,-515.5 1327.5,-515.5"/>
<text text-anchor="start" x="1335.5" y="-544.5" font-family="Helvetica,sans-Serif" font-size="10.00">/home/travis/build</text>
<text text-anchor="start" x="1335.5" y="-533.5" font-family="Helvetica,sans-Serif" font-size="10.00">/STORM&#45;IRIT/Radium&#45;Engine</text>
<text text-anchor="middle" x="1414" y="-522.5" font-family="Helvetica,sans-Serif" font-size="10.00">/src/Core/Geometry/PolyLine.cpp</text>
</g>
<!-- Node2 -->
<g id="node2" class="node"><title>Node2</title>
<g id="a_node2"><a xlink:href="PolyLine_8hpp.html" target="_top" xlink:title="Core/Geometry/PolyLine.hpp">
<polygon fill="white" stroke="black" points="1337.5,-459.5 1337.5,-478.5 1490.5,-478.5 1490.5,-459.5 1337.5,-459.5"/>
<text text-anchor="middle" x="1414" y="-466.5" font-family="Helvetica,sans-Serif" font-size="10.00">Core/Geometry/PolyLine.hpp</text>
</a>
</g>
</g>
<!-- Node1&#45;&gt;Node2 -->
<g id="edge1" class="edge"><title>Node1&#45;&gt;Node2</title>
<path fill="none" stroke="midnightblue" d="M1414,-515.498C1414,-507.065 1414,-497.235 1414,-488.874"/>
<polygon fill="midnightblue" stroke="midnightblue" points="1417.5,-488.652 1414,-478.652 1410.5,-488.653 1417.5,-488.652"/>
</g>
<!-- Node3 -->
<g id="node3" class="node"><title>Node3</title>
<g id="a_node3"><a xlink:href="VectorArray_8hpp.html" target="_top" xlink:title="Core/Containers/VectorArray.hpp">
<polygon fill="white" stroke="black" points="1231.5,-235.5 1231.5,-254.5 1404.5,-254.5 1404.5,-235.5 1231.5,-235.5"/>
<text text-anchor="middle" x="1318" y="-242.5" font-family="Helvetica,sans-Serif" font-size="10.00">Core/Containers/VectorArray.hpp</text>
</a>
</g>
</g>
<!-- Node2&#45;&gt;Node3 -->
<g id="edge2" class="edge"><title>Node2&#45;&gt;Node3</title>
<path fill="none" stroke="midnightblue" d="M1412.31,-459.437C1406.88,-433.044 1388.22,-351.1 1355,-291 1349.2,-280.51 1340.84,-270.09 1333.54,-261.922"/>
<polygon fill="midnightblue" stroke="midnightblue" points="1336.09,-259.526 1326.72,-254.586 1330.96,-264.293 1336.09,-259.526"/>
</g>
<!-- Node5 -->
<g id="node5" class="node"><title>Node5</title>
<g id="a_node5"><a xlink:href="RaCore_8hpp.html" target="_top" xlink:title="Core/RaCore.hpp">
<polygon fill="white" stroke="black" points="929,-112.5 929,-131.5 1027,-131.5 1027,-112.5 929,-112.5"/>
<text text-anchor="middle" x="978" y="-119.5" font-family="Helvetica,sans-Serif" font-size="10.00">Core/RaCore.hpp</text>
</a>
</g>
</g>
<!-- Node2&#45;&gt;Node5 -->
<g id="edge55" class="edge"><title>Node2&#45;&gt;Node5</title>
<path fill="none" stroke="midnightblue" d="M1416.56,-459.249C1421.75,-440.738 1433,-396.179 1433,-358 1433,-358 1433,-358 1433,-300 1433,-269.775 1433.27,-257.417 1413,-235 1361.56,-178.126 1327.69,-189.208 1254,-168 1180.87,-146.954 1093.82,-134.81 1037.32,-128.557"/>
<polygon fill="midnightblue" stroke="midnightblue" points="1037.45,-125.051 1027.13,-127.457 1036.7,-132.011 1037.45,-125.051"/>
</g>
<!-- Node14 -->
<g id="node14" class="node"><title>Node14</title>
<g id="a_node14"><a xlink:href="Types_8hpp.html" target="_top" xlink:title="Core/Math/Types.hpp">
<polygon fill="white" stroke="black" points="789,-174 789,-193 905,-193 905,-174 789,-174"/>
<text text-anchor="middle" x="847" y="-181" font-family="Helvetica,sans-Serif" font-size="10.00">Core/Math/Types.hpp</text>
</a>
</g>
</g>
<!-- Node2&#45;&gt;Node14 -->
<g id="edge54" class="edge"><title>Node2&#45;&gt;Node14</title>
<path fill="none" stroke="midnightblue" d="M1337.44,-465.276C1191.87,-459.656 880.312,-445.396 775,-423 695.066,-406.001 603,-439.721 603,-358 603,-358 603,-358 603,-300 603,-256.279 732.602,-214.937 802.897,-195.73"/>
<polygon fill="midnightblue" stroke="midnightblue" points="804.07,-199.039 812.816,-193.059 802.25,-192.28 804.07,-199.039"/>
</g>
<!-- Node18 -->
<g id="node18" class="node"><title>Node18</title>
<g id="a_node18"><a xlink:href="DistanceQueries_8hpp.html" target="_top" xlink:title="Core/Geometry/DistanceQueries.hpp">
<polygon fill="white" stroke="black" points="784.5,-403.5 784.5,-422.5 977.5,-422.5 977.5,-403.5 784.5,-403.5"/>
<text text-anchor="middle" x="881" y="-410.5" font-family="Helvetica,sans-Serif" font-size="10.00">Core/Geometry/DistanceQueries.hpp</text>
</a>
</g>
</g>
<!-- Node2&#45;&gt;Node18 -->
<g id="edge20" class="edge"><title>Node2&#45;&gt;Node18</title>
<path fill="none" stroke="midnightblue" d="M1337.35,-460.234C1241.73,-450.546 1078.27,-433.987 975.139,-423.538"/>
<polygon fill="midnightblue" stroke="midnightblue" points="975.343,-420.04 965.041,-422.515 974.638,-427.005 975.343,-420.04"/>
</g>
<!-- Node34 -->
<g id="node34" class="node"><title>Node34</title>
<g id="a_node34"><a xlink:href="PolyLine_8inl.html" target="_top" xlink:title="Core/Geometry/PolyLine.inl">
<polygon fill="white" stroke="black" points="1461,-403.5 1461,-422.5 1607,-422.5 1607,-403.5 1461,-403.5"/>
<text text-anchor="middle" x="1534" y="-410.5" font-family="Helvetica,sans-Serif" font-size="10.00">Core/Geometry/PolyLine.inl</text>
</a>
</g>
</g>
<!-- Node2&#45;&gt;Node34 -->
<g id="edge56" class="edge"><title>Node2&#45;&gt;Node34</title>
<path fill="none" stroke="midnightblue" d="M1428.17,-459.324C1445.93,-450.467 1476.45,-436.63 1500.25,-426.573"/>
<polygon fill="midnightblue" stroke="midnightblue" points="1501.77,-429.731 1509.66,-422.655 1499.08,-423.27 1501.77,-429.731"/>
</g>
<!-- Node4 -->
<g id="node4" class="node"><title>Node4</title>
<g id="a_node4"><a xlink:href="AlignedStdVector_8hpp.html" target="_top" xlink:title="Core/Containers/AlignedStd\lVector.hpp">
<polygon fill="white" stroke="black" points="1399.5,-168.5 1399.5,-198.5 1548.5,-198.5 1548.5,-168.5 1399.5,-168.5"/>
<text text-anchor="start" x="1407.5" y="-186.5" font-family="Helvetica,sans-Serif" font-size="10.00">Core/Containers/AlignedStd</text>
<text text-anchor="middle" x="1474" y="-175.5" font-family="Helvetica,sans-Serif" font-size="10.00">Vector.hpp</text>
</a>
</g>
</g>
<!-- Node3&#45;&gt;Node4 -->
<g id="edge3" class="edge"><title>Node3&#45;&gt;Node4</title>
<path fill="none" stroke="midnightblue" d="M1340.35,-235.475C1363.06,-226.814 1398.9,-213.145 1427.75,-202.141"/>
<polygon fill="midnightblue" stroke="midnightblue" points="1429.14,-205.357 1437.23,-198.523 1426.64,-198.817 1429.14,-205.357"/>
</g>
<!-- Node3&#45;&gt;Node5 -->
<g id="edge18" class="edge"><title>Node3&#45;&gt;Node5</title>
<path fill="none" stroke="midnightblue" d="M1309.13,-235.332C1292.19,-219.303 1253.38,-185.105 1214,-168 1157.03,-143.257 1086.49,-132.073 1037.44,-127.046"/>
<polygon fill="midnightblue" stroke="midnightblue" points="1037.6,-123.546 1027.31,-126.064 1036.92,-130.513 1037.6,-123.546"/>
</g>
<!-- Node13 -->
<g id="node13" class="node"><title>Node13</title>
<polygon fill="white" stroke="#bfbfbf" points="1545.5,-112.5 1545.5,-131.5 1592.5,-131.5 1592.5,-112.5 1545.5,-112.5"/>
<text text-anchor="middle" x="1569" y="-119.5" font-family="Helvetica,sans-Serif" font-size="10.00">vector</text>
</g>
<!-- Node3&#45;&gt;Node13 -->
<g id="edge19" class="edge"><title>Node3&#45;&gt;Node13</title>
<path fill="none" stroke="midnightblue" d="M1404.61,-238.066C1464.11,-232.122 1536.01,-220.621 1557,-199 1571.58,-183.984 1572.81,-158.88 1571.57,-141.662"/>
<polygon fill="midnightblue" stroke="midnightblue" points="1575.04,-141.247 1570.51,-131.67 1568.08,-141.983 1575.04,-141.247"/>
</g>
<!-- Node3&#45;&gt;Node14 -->
<g id="edge13" class="edge"><title>Node3&#45;&gt;Node14</title>
<path fill="none" stroke="midnightblue" d="M1250.52,-235.475C1161.24,-224.197 1004.75,-204.428 915.142,-193.108"/>
<polygon fill="midnightblue" stroke="midnightblue" points="915.448,-189.619 905.088,-191.838 914.57,-196.564 915.448,-189.619"/>
</g>
<!-- Node4&#45;&gt;Node5 -->
<g id="edge4" class="edge"><title>Node4&#45;&gt;Node5</title>
<path fill="none" stroke="midnightblue" d="M1399.15,-169.887C1394.7,-169.225 1390.3,-168.59 1386,-168 1262.35,-151.007 1116.93,-136.203 1037.4,-128.547"/>
<polygon fill="midnightblue" stroke="midnightblue" points="1037.38,-125.029 1027.09,-127.559 1036.71,-131.997 1037.38,-125.029"/>
</g>
<!-- Node12 -->
<g id="node12" class="node"><title>Node12</title>
<polygon fill="white" stroke="#bfbfbf" points="1427.5,-112.5 1427.5,-131.5 1520.5,-131.5 1520.5,-112.5 1427.5,-112.5"/>
<text text-anchor="middle" x="1474" y="-119.5" font-family="Helvetica,sans-Serif" font-size="10.00">Eigen/StdVector</text>
</g>
<!-- Node4&#45;&gt;Node12 -->
<g id="edge11" class="edge"><title>Node4&#45;&gt;Node12</title>
<path fill="none" stroke="midnightblue" d="M1474,-168.399C1474,-160.466 1474,-150.458 1474,-141.858"/>
<polygon fill="midnightblue" stroke="midnightblue" points="1477.5,-141.658 1474,-131.658 1470.5,-141.658 1477.5,-141.658"/>
</g>
<!-- Node4&#45;&gt;Node13 -->
<g id="edge12" class="edge"><title>Node4&#45;&gt;Node13</title>
<path fill="none" stroke="midnightblue" d="M1496.51,-168.399C1511.6,-158.951 1531.39,-146.559 1546.47,-137.109"/>
<polygon fill="midnightblue" stroke="midnightblue" points="1548.56,-139.932 1555.18,-131.658 1544.84,-134 1548.56,-139.932"/>
</g>
<!-- Node6 -->
<g id="node6" class="node"><title>Node6</title>
<g id="a_node6"><a xlink:href="CoreMacros_8hpp.html" target="_top" xlink:title="Core/CoreMacros.hpp">
<polygon fill="white" stroke="black" points="918,-56.5 918,-75.5 1038,-75.5 1038,-56.5 918,-56.5"/>
<text text-anchor="middle" x="978" y="-63.5" font-family="Helvetica,sans-Serif" font-size="10.00">Core/CoreMacros.hpp</text>
</a>
</g>
</g>
<!-- Node5&#45;&gt;Node6 -->
<g id="edge5" class="edge"><title>Node5&#45;&gt;Node6</title>
<path fill="none" stroke="midnightblue" d="M978,-112.083C978,-105.006 978,-94.8611 978,-85.9865"/>
<polygon fill="midnightblue" stroke="midnightblue" points="981.5,-85.751 978,-75.7511 974.5,-85.7511 981.5,-85.751"/>
</g>
<!-- Node7 -->
<g id="node7" class="node"><title>Node7</title>
<polygon fill="white" stroke="#bfbfbf" points="815,-0.5 815,-19.5 867,-19.5 867,-0.5 815,-0.5"/>
<text text-anchor="middle" x="841" y="-7.5" font-family="Helvetica,sans-Serif" font-size="10.00">cassert</text>
</g>
<!-- Node6&#45;&gt;Node7 -->
<g id="edge6" class="edge"><title>Node6&#45;&gt;Node7</title>
<path fill="none" stroke="midnightblue" d="M956.292,-56.4435C933.645,-47.5171 897.928,-33.4387 872.248,-23.3168"/>
<polygon fill="midnightblue" stroke="midnightblue" points="873.193,-19.9273 862.606,-19.5164 870.626,-26.4397 873.193,-19.9273"/>
</g>
<!-- Node8 -->
<g id="node8" class="node"><title>Node8</title>
<polygon fill="white" stroke="#bfbfbf" points="885.5,-0.5 885.5,-19.5 930.5,-19.5 930.5,-0.5 885.5,-0.5"/>
<text text-anchor="middle" x="908" y="-7.5" font-family="Helvetica,sans-Serif" font-size="10.00">cstdio</text>
</g>
<!-- Node6&#45;&gt;Node8 -->
<g id="edge7" class="edge"><title>Node6&#45;&gt;Node8</title>
<path fill="none" stroke="midnightblue" d="M966.753,-56.324C956.203,-48.1849 940.199,-35.8395 927.558,-26.0874"/>
<polygon fill="midnightblue" stroke="midnightblue" points="929.507,-23.1707 919.451,-19.8339 925.231,-28.7132 929.507,-23.1707"/>
</g>
<!-- Node9 -->
<g id="node9" class="node"><title>Node9</title>
<polygon fill="white" stroke="#bfbfbf" points="948.5,-0.5 948.5,-19.5 1007.5,-19.5 1007.5,-0.5 948.5,-0.5"/>
<text text-anchor="middle" x="978" y="-7.5" font-family="Helvetica,sans-Serif" font-size="10.00">iostream</text>
</g>
<!-- Node6&#45;&gt;Node9 -->
<g id="edge8" class="edge"><title>Node6&#45;&gt;Node9</title>
<path fill="none" stroke="midnightblue" d="M978,-56.083C978,-49.0059 978,-38.8611 978,-29.9865"/>
<polygon fill="midnightblue" stroke="midnightblue" points="981.5,-29.751 978,-19.7511 974.5,-29.7511 981.5,-29.751"/>
</g>
<!-- Node10 -->
<g id="node10" class="node"><title>Node10</title>
<polygon fill="white" stroke="#bfbfbf" points="1026,-0.5 1026,-19.5 1082,-19.5 1082,-0.5 1026,-0.5"/>
<text text-anchor="middle" x="1054" y="-7.5" font-family="Helvetica,sans-Serif" font-size="10.00">sstream</text>
</g>
<!-- Node6&#45;&gt;Node10 -->
<g id="edge9" class="edge"><title>Node6&#45;&gt;Node10</title>
<path fill="none" stroke="midnightblue" d="M990.211,-56.324C1001.78,-48.1066 1019.38,-35.6017 1033.16,-25.8069"/>
<polygon fill="midnightblue" stroke="midnightblue" points="1035.44,-28.4791 1041.57,-19.8339 1031.39,-22.7729 1035.44,-28.4791"/>
</g>
<!-- Node11 -->
<g id="node11" class="node"><title>Node11</title>
<polygon fill="white" stroke="#bfbfbf" points="1100,-0.5 1100,-19.5 1148,-19.5 1148,-0.5 1100,-0.5"/>
<text text-anchor="middle" x="1124" y="-7.5" font-family="Helvetica,sans-Serif" font-size="10.00">thread</text>
</g>
<!-- Node6&#45;&gt;Node11 -->
<g id="edge10" class="edge"><title>Node6&#45;&gt;Node11</title>
<path fill="none" stroke="midnightblue" d="M1001.13,-56.4435C1025.48,-47.4381 1064.01,-33.1891 1091.42,-23.049"/>
<polygon fill="midnightblue" stroke="midnightblue" points="1092.81,-26.2681 1100.97,-19.5164 1090.38,-19.7028 1092.81,-26.2681"/>
</g>
<!-- Node14&#45;&gt;Node5 -->
<g id="edge14" class="edge"><title>Node14&#45;&gt;Node5</title>
<path fill="none" stroke="midnightblue" d="M865.769,-173.975C887.851,-163.945 924.719,-147.2 950.139,-135.655"/>
<polygon fill="midnightblue" stroke="midnightblue" points="951.608,-138.831 959.266,-131.509 948.713,-132.458 951.608,-138.831"/>
</g>
<!-- Node15 -->
<g id="node15" class="node"><title>Node15</title>
<polygon fill="white" stroke="#bfbfbf" points="271,-112.5 271,-131.5 339,-131.5 339,-112.5 271,-112.5"/>
<text text-anchor="middle" x="305" y="-119.5" font-family="Helvetica,sans-Serif" font-size="10.00">Eigen/Core</text>
</g>
<!-- Node14&#45;&gt;Node15 -->
<g id="edge15" class="edge"><title>Node14&#45;&gt;Node15</title>
<path fill="none" stroke="midnightblue" d="M788.745,-173.968C773.546,-171.876 757.174,-169.74 742,-168 570.546,-148.339 523.629,-157.691 349.233,-132.023"/>
<polygon fill="midnightblue" stroke="midnightblue" points="349.61,-128.541 339.203,-130.53 348.579,-135.465 349.61,-128.541"/>
</g>
<!-- Node16 -->
<g id="node16" class="node"><title>Node16</title>
<polygon fill="white" stroke="#bfbfbf" points="357,-112.5 357,-131.5 451,-131.5 451,-112.5 357,-112.5"/>
<text text-anchor="middle" x="404" y="-119.5" font-family="Helvetica,sans-Serif" font-size="10.00">Eigen/Geometry</text>
</g>
<!-- Node14&#45;&gt;Node16 -->
<g id="edge16" class="edge"><title>Node14&#45;&gt;Node16</title>
<path fill="none" stroke="midnightblue" d="M788.965,-174.434C773.691,-172.325 757.226,-170.065 742,-168 643.239,-154.607 528.193,-139.367 460.996,-130.502"/>
<polygon fill="midnightblue" stroke="midnightblue" points="461.406,-127.026 451.034,-129.188 460.491,-133.966 461.406,-127.026"/>
</g>
<!-- Node17 -->
<g id="node17" class="node"><title>Node17</title>
<polygon fill="white" stroke="#bfbfbf" points="662,-112.5 662,-131.5 742,-131.5 742,-112.5 662,-112.5"/>
<text text-anchor="middle" x="702" y="-119.5" font-family="Helvetica,sans-Serif" font-size="10.00">Eigen/Sparse</text>
</g>
<!-- Node14&#45;&gt;Node17 -->
<g id="edge17" class="edge"><title>Node14&#45;&gt;Node17</title>
<path fill="none" stroke="midnightblue" d="M826.225,-173.975C801.568,-163.857 760.255,-146.905 732.098,-135.351"/>
<polygon fill="midnightblue" stroke="midnightblue" points="733.317,-132.067 722.736,-131.509 730.659,-138.543 733.317,-132.067"/>
</g>
<!-- Node18&#45;&gt;Node5 -->
<g id="edge34" class="edge"><title>Node18&#45;&gt;Node5</title>
<path fill="none" stroke="midnightblue" d="M883.903,-403.351C897.29,-363.465 953.209,-196.861 971.892,-141.198"/>
<polygon fill="midnightblue" stroke="midnightblue" points="975.244,-142.209 975.108,-131.615 968.608,-139.982 975.244,-142.209"/>
</g>
<!-- Node18&#45;&gt;Node14 -->
<g id="edge33" class="edge"><title>Node18&#45;&gt;Node14</title>
<path fill="none" stroke="midnightblue" d="M877.697,-403.168C874.471,-394.19 869.67,-379.816 867,-367 854.731,-308.104 849.681,-236.849 847.875,-203.474"/>
<polygon fill="midnightblue" stroke="midnightblue" points="851.363,-203.143 847.365,-193.332 844.372,-203.495 851.363,-203.143"/>
</g>
<!-- Node19 -->
<g id="node19" class="node"><title>Node19</title>
<g id="a_node19"><a xlink:href="TriangleMesh_8hpp.html" target="_top" xlink:title="Core/Geometry/TriangleMesh.hpp">
<polygon fill="white" stroke="black" points="995,-347.5 995,-366.5 1171,-366.5 1171,-347.5 995,-347.5"/>
<text text-anchor="middle" x="1083" y="-354.5" font-family="Helvetica,sans-Serif" font-size="10.00">Core/Geometry/TriangleMesh.hpp</text>
</a>
</g>
</g>
<!-- Node18&#45;&gt;Node19 -->
<g id="edge21" class="edge"><title>Node18&#45;&gt;Node19</title>
<path fill="none" stroke="midnightblue" d="M913.008,-403.444C947.729,-394.162 1003.29,-379.309 1041.38,-369.127"/>
<polygon fill="midnightblue" stroke="midnightblue" points="1042.39,-372.48 1051.14,-366.516 1040.58,-365.718 1042.39,-372.48"/>
</g>
<!-- Node22 -->
<g id="node22" class="node"><title>Node22</title>
<polygon fill="white" stroke="#bfbfbf" points="1006,-174 1006,-193 1048,-193 1048,-174 1006,-174"/>
<text text-anchor="middle" x="1027" y="-181" font-family="Helvetica,sans-Serif" font-size="10.00">limits</text>
</g>
<!-- Node18&#45;&gt;Node22 -->
<g id="edge35" class="edge"><title>Node18&#45;&gt;Node22</title>
<path fill="none" stroke="midnightblue" d="M886.545,-403.36C908.136,-369.716 986.829,-247.096 1016.01,-201.622"/>
<polygon fill="midnightblue" stroke="midnightblue" points="1018.99,-203.455 1021.45,-193.149 1013.1,-199.675 1018.99,-203.455"/>
</g>
<!-- Node25 -->
<g id="node25" class="node"><title>Node25</title>
<g id="a_node25"><a xlink:href="DistanceQueries_8inl.html" target="_top" xlink:title="Core/Geometry/DistanceQueries.inl">
<polygon fill="white" stroke="black" points="630.5,-347.5 630.5,-366.5 815.5,-366.5 815.5,-347.5 630.5,-347.5"/>
<text text-anchor="middle" x="723" y="-354.5" font-family="Helvetica,sans-Serif" font-size="10.00">Core/Geometry/DistanceQueries.inl</text>
</a>
</g>
</g>
<!-- Node18&#45;&gt;Node25 -->
<g id="edge36" class="edge"><title>Node18&#45;&gt;Node25</title>
<path fill="none" stroke="midnightblue" d="M850.876,-403.444C822.551,-394.438 780.646,-380.189 752.525,-370.049"/>
<polygon fill="midnightblue" stroke="midnightblue" points="753.432,-366.655 742.838,-366.516 751.034,-373.231 753.432,-366.655"/>
</g>
<!-- Node19&#45;&gt;Node3 -->
<g id="edge22" class="edge"><title>Node19&#45;&gt;Node3</title>
<path fill="none" stroke="midnightblue" d="M1171.1,-352.215C1236.11,-347.356 1316.8,-336.27 1338,-311 1349.45,-297.348 1340.45,-277.198 1331.13,-262.959"/>
<polygon fill="midnightblue" stroke="midnightblue" points="1333.82,-260.703 1325.17,-254.583 1328.11,-264.761 1333.82,-260.703"/>
</g>
<!-- Node19&#45;&gt;Node5 -->
<g id="edge24" class="edge"><title>Node19&#45;&gt;Node5</title>
<path fill="none" stroke="midnightblue" d="M1061.2,-347.363C1045.59,-340.033 1025.4,-327.982 1014,-311 978.242,-257.715 975.946,-177.849 976.976,-141.82"/>
<polygon fill="midnightblue" stroke="midnightblue" points="980.476,-141.887 977.389,-131.752 973.482,-141.6 980.476,-141.887"/>
</g>
<!-- Node19&#45;&gt;Node14 -->
<g id="edge23" class="edge"><title>Node19&#45;&gt;Node14</title>
<path fill="none" stroke="midnightblue" d="M1057.03,-347.347C1035.64,-339.578 1005.03,-326.95 981,-311 931.909,-278.41 884.095,-227.236 861.131,-201.088"/>
<polygon fill="midnightblue" stroke="midnightblue" points="863.525,-198.506 854.33,-193.242 858.236,-203.091 863.525,-198.506"/>
</g>
<!-- Node20 -->
<g id="node20" class="node"><title>Node20</title>
<g id="a_node20"><a xlink:href="Attribs_8hpp.html" target="_top" xlink:title="Core/Utils/Attribs.hpp">
<polygon fill="white" stroke="black" points="1023.5,-291.5 1023.5,-310.5 1142.5,-310.5 1142.5,-291.5 1023.5,-291.5"/>
<text text-anchor="middle" x="1083" y="-298.5" font-family="Helvetica,sans-Serif" font-size="10.00">Core/Utils/Attribs.hpp</text>
</a>
</g>
</g>
<!-- Node19&#45;&gt;Node20 -->
<g id="edge25" class="edge"><title>Node19&#45;&gt;Node20</title>
<path fill="none" stroke="midnightblue" d="M1083,-347.083C1083,-340.006 1083,-329.861 1083,-320.986"/>
<polygon fill="midnightblue" stroke="midnightblue" points="1086.5,-320.751 1083,-310.751 1079.5,-320.751 1086.5,-320.751"/>
</g>
<!-- Node24 -->
<g id="node24" class="node"><title>Node24</title>
<g id="a_node24"><a xlink:href="TriangleMesh_8inl.html" target="_top" xlink:title="Core/Geometry/TriangleMesh.inl">
<polygon fill="white" stroke="black" points="1161,-291.5 1161,-310.5 1329,-310.5 1329,-291.5 1161,-291.5"/>
<text text-anchor="middle" x="1245" y="-298.5" font-family="Helvetica,sans-Serif" font-size="10.00">Core/Geometry/TriangleMesh.inl</text>
</a>
</g>
</g>
<!-- Node19&#45;&gt;Node24 -->
<g id="edge31" class="edge"><title>Node19&#45;&gt;Node24</title>
<path fill="none" stroke="midnightblue" d="M1103.58,-347.444C1129.06,-338.28 1172.65,-323.688 1204.8,-313.519"/>
<polygon fill="midnightblue" stroke="midnightblue" points="1205.88,-316.848 1214.37,-310.516 1203.78,-310.169 1205.88,-316.848"/>
</g>
<!-- Node20&#45;&gt;Node3 -->
<g id="edge26" class="edge"><title>Node20&#45;&gt;Node3</title>
<path fill="none" stroke="midnightblue" d="M1120.24,-291.444C1161.06,-282.063 1226.64,-266.993 1270.98,-256.804"/>
<polygon fill="midnightblue" stroke="midnightblue" points="1271.98,-260.167 1280.94,-254.516 1270.41,-253.345 1271.98,-260.167"/>
</g>
<!-- Node20&#45;&gt;Node5 -->
<g id="edge27" class="edge"><title>Node20&#45;&gt;Node5</title>
<path fill="none" stroke="midnightblue" d="M1111.21,-291.374C1129.44,-284.387 1152.24,-272.747 1166,-255 1190,-224.048 1204.5,-198.556 1180,-168 1162.37,-146.01 1090.48,-134.072 1037.46,-128.124"/>
<polygon fill="midnightblue" stroke="midnightblue" points="1037.78,-124.639 1027.46,-127.048 1037.03,-131.598 1037.78,-124.639"/>
</g>
<!-- Node21 -->
<g id="node21" class="node"><title>Node21</title>
<g id="a_node21"><a xlink:href="Index_8hpp.html" target="_top" xlink:title="Core/Utils/Index.hpp">
<polygon fill="white" stroke="black" points="1044.5,-235.5 1044.5,-254.5 1157.5,-254.5 1157.5,-235.5 1044.5,-235.5"/>
<text text-anchor="middle" x="1101" y="-242.5" font-family="Helvetica,sans-Serif" font-size="10.00">Core/Utils/Index.hpp</text>
</a>
</g>
</g>
<!-- Node20&#45;&gt;Node21 -->
<g id="edge28" class="edge"><title>Node20&#45;&gt;Node21</title>
<path fill="none" stroke="midnightblue" d="M1085.97,-291.083C1088.38,-283.849 1091.86,-273.409 1094.87,-264.397"/>
<polygon fill="midnightblue" stroke="midnightblue" points="1098.24,-265.345 1098.08,-254.751 1091.6,-263.131 1098.24,-265.345"/>
</g>
<!-- Node21&#45;&gt;Node22 -->
<g id="edge29" class="edge"><title>Node21&#45;&gt;Node22</title>
<path fill="none" stroke="midnightblue" d="M1090.4,-235.475C1078.75,-226.108 1059.81,-210.884 1045.67,-199.508"/>
<polygon fill="midnightblue" stroke="midnightblue" points="1047.57,-196.548 1037.58,-193.009 1043.18,-202.003 1047.57,-196.548"/>
</g>
<!-- Node23 -->
<g id="node23" class="node"><title>Node23</title>
<g id="a_node23"><a xlink:href="Index_8inl.html" target="_top" xlink:title="Core/Utils/Index.inl">
<polygon fill="white" stroke="black" points="1066.5,-174 1066.5,-193 1171.5,-193 1171.5,-174 1066.5,-174"/>
<text text-anchor="middle" x="1119" y="-181" font-family="Helvetica,sans-Serif" font-size="10.00">Core/Utils/Index.inl</text>
</a>
</g>
</g>
<!-- Node21&#45;&gt;Node23 -->
<g id="edge30" class="edge"><title>Node21&#45;&gt;Node23</title>
<path fill="none" stroke="midnightblue" d="M1103.58,-235.475C1106.15,-226.992 1110.17,-213.704 1113.46,-202.822"/>
<polygon fill="midnightblue" stroke="midnightblue" points="1116.88,-203.594 1116.43,-193.009 1110.18,-201.567 1116.88,-203.594"/>
</g>
<!-- Node24&#45;&gt;Node19 -->
<g id="edge32" class="edge"><title>Node24&#45;&gt;Node19</title>
<path fill="none" stroke="midnightblue" d="M1224.53,-310.516C1199.1,-319.664 1155.52,-334.255 1123.35,-344.436"/>
<polygon fill="midnightblue" stroke="midnightblue" points="1122.25,-341.111 1113.76,-347.444 1124.35,-347.79 1122.25,-341.111"/>
</g>
<!-- Node25&#45;&gt;Node18 -->
<g id="edge37" class="edge"><title>Node25&#45;&gt;Node18</title>
<path fill="none" stroke="midnightblue" d="M752.998,-366.516C781.283,-375.506 823.188,-389.754 851.35,-399.906"/>
<polygon fill="midnightblue" stroke="midnightblue" points="850.459,-403.306 861.053,-403.444 852.857,-396.73 850.459,-403.306"/>
</g>
<!-- Node26 -->
<g id="node26" class="node"><title>Node26</title>
<g id="a_node26"><a xlink:href="LinearAlgebra_8hpp.html" target="_top" xlink:title="Core/Math/LinearAlgebra.hpp">
<polygon fill="white" stroke="black" points="419,-235.5 419,-254.5 575,-254.5 575,-235.5 419,-235.5"/>
<text text-anchor="middle" x="497" y="-242.5" font-family="Helvetica,sans-Serif" font-size="10.00">Core/Math/LinearAlgebra.hpp</text>
</a>
</g>
</g>
<!-- Node25&#45;&gt;Node26 -->
<g id="edge38" class="edge"><title>Node25&#45;&gt;Node26</title>
<path fill="none" stroke="midnightblue" d="M705.266,-347.368C665.824,-328.171 570.639,-281.842 523.861,-259.074"/>
<polygon fill="midnightblue" stroke="midnightblue" points="525.175,-255.821 514.651,-254.591 522.111,-262.115 525.175,-255.821"/>
</g>
<!-- Node26&#45;&gt;Node5 -->
<g id="edge39" class="edge"><title>Node26&#45;&gt;Node5</title>
<path fill="none" stroke="midnightblue" d="M564.171,-235.487C625.475,-227.029 711.086,-213.289 742,-199 761.785,-189.855 760.411,-177.557 780,-168 823.811,-146.627 878.063,-135.214 918.694,-129.237"/>
<polygon fill="midnightblue" stroke="midnightblue" points="919.298,-132.686 928.716,-127.831 918.326,-125.754 919.298,-132.686"/>
</g>
<!-- Node26&#45;&gt;Node14 -->
<g id="edge51" class="edge"><title>Node26&#45;&gt;Node14</title>
<path fill="none" stroke="midnightblue" d="M553.547,-235.495C609.796,-226.883 698.512,-212.887 775,-199 781.743,-197.776 788.829,-196.426 795.816,-195.058"/>
<polygon fill="midnightblue" stroke="midnightblue" points="796.802,-198.431 805.931,-193.053 795.441,-191.565 796.802,-198.431"/>
</g>
<!-- Node26&#45;&gt;Node15 -->
<g id="edge40" class="edge"><title>Node26&#45;&gt;Node15</title>
<path fill="none" stroke="midnightblue" d="M418.721,-237.757C364.875,-231.648 300.106,-220.077 283,-199 269.123,-181.902 281.254,-156.414 292.261,-139.75"/>
<polygon fill="midnightblue" stroke="midnightblue" points="295.172,-141.695 298.088,-131.509 289.456,-137.653 295.172,-141.695"/>
</g>
<!-- Node26&#45;&gt;Node16 -->
<g id="edge41" class="edge"><title>Node26&#45;&gt;Node16</title>
<path fill="none" stroke="midnightblue" d="M418.825,-236.811C368.209,-230.352 308.873,-218.756 293,-199 284.37,-188.259 285.302,-179.427 293,-168 305.336,-149.687 326.535,-138.824 347.123,-132.382"/>
<polygon fill="midnightblue" stroke="midnightblue" points="348.149,-135.729 356.821,-129.641 346.246,-128.992 348.149,-135.729"/>
</g>
<!-- Node26&#45;&gt;Node17 -->
<g id="edge42" class="edge"><title>Node26&#45;&gt;Node17</title>
<path fill="none" stroke="midnightblue" d="M505,-235.318C521.521,-217.54 559.187,-177.837 575,-168 599.724,-152.62 630.431,-141.558 655.457,-134.25"/>
<polygon fill="midnightblue" stroke="midnightblue" points="656.418,-137.616 665.095,-131.537 654.521,-130.878 656.418,-137.616"/>
</g>
<!-- Node27 -->
<g id="node27" class="node"><title>Node27</title>
<polygon fill="white" stroke="#bfbfbf" points="302.5,-174 302.5,-193 365.5,-193 365.5,-174 302.5,-174"/>
<text text-anchor="middle" x="334" y="-181" font-family="Helvetica,sans-Serif" font-size="10.00">functional</text>
</g>
<!-- Node26&#45;&gt;Node27 -->
<g id="edge43" class="edge"><title>Node26&#45;&gt;Node27</title>
<path fill="none" stroke="midnightblue" d="M473.646,-235.475C445.686,-225.269 398.674,-208.108 367.009,-196.549"/>
<polygon fill="midnightblue" stroke="midnightblue" points="367.905,-193.15 357.311,-193.009 365.504,-199.726 367.905,-193.15"/>
</g>
<!-- Node28 -->
<g id="node28" class="node"><title>Node28</title>
<polygon fill="white" stroke="#bfbfbf" points="383.5,-168.5 383.5,-198.5 528.5,-198.5 528.5,-168.5 383.5,-168.5"/>
<text text-anchor="start" x="391.5" y="-186.5" font-family="Helvetica,sans-Serif" font-size="10.00">unsupported/Eigen/Aligned</text>
<text text-anchor="middle" x="456" y="-175.5" font-family="Helvetica,sans-Serif" font-size="10.00">Vector3</text>
</g>
<!-- Node26&#45;&gt;Node28 -->
<g id="edge44" class="edge"><title>Node26&#45;&gt;Node28</title>
<path fill="none" stroke="midnightblue" d="M491.126,-235.475C485.988,-228.019 478.293,-216.852 471.414,-206.869"/>
<polygon fill="midnightblue" stroke="midnightblue" points="474.219,-204.771 465.663,-198.523 468.455,-208.743 474.219,-204.771"/>
</g>
<!-- Node29 -->
<g id="node29" class="node"><title>Node29</title>
<g id="a_node29"><a xlink:href="Math_8hpp.html" target="_top" xlink:title="Core/Math/Math.hpp">
<polygon fill="white" stroke="black" points="94,-174 94,-193 208,-193 208,-174 94,-174"/>
<text text-anchor="middle" x="151" y="-181" font-family="Helvetica,sans-Serif" font-size="10.00">Core/Math/Math.hpp</text>
</a>
</g>
</g>
<!-- Node26&#45;&gt;Node29 -->
<g id="edge45" class="edge"><title>Node26&#45;&gt;Node29</title>
<path fill="none" stroke="midnightblue" d="M440.796,-235.464C385.138,-226.856 297.534,-212.888 222,-199 215.349,-197.777 208.361,-196.429 201.471,-195.061"/>
<polygon fill="midnightblue" stroke="midnightblue" points="201.99,-191.596 191.497,-193.056 200.611,-198.458 201.99,-191.596"/>
</g>
<!-- Node33 -->
<g id="node33" class="node"><title>Node33</title>
<g id="a_node33"><a xlink:href="LinearAlgebra_8inl.html" target="_top" xlink:title="Core/Math/LinearAlgebra.inl">
<polygon fill="white" stroke="black" points="584.5,-174 584.5,-193 733.5,-193 733.5,-174 584.5,-174"/>
<text text-anchor="middle" x="659" y="-181" font-family="Helvetica,sans-Serif" font-size="10.00">Core/Math/LinearAlgebra.inl</text>
</a>
</g>
</g>
<!-- Node26&#45;&gt;Node33 -->
<g id="edge52" class="edge"><title>Node26&#45;&gt;Node33</title>
<path fill="none" stroke="midnightblue" d="M515.31,-235.475C540.983,-225.225 587.783,-207.959 621.075,-196.399"/>
<polygon fill="midnightblue" stroke="midnightblue" points="622.617,-199.571 630.935,-193.009 620.341,-192.951 622.617,-199.571"/>
</g>
<!-- Node29&#45;&gt;Node5 -->
<g id="edge46" class="edge"><title>Node29&#45;&gt;Node5</title>
<path fill="none" stroke="midnightblue" d="M208.302,-176.172C234.158,-173.44 265.095,-170.341 293,-168 524.144,-148.613 799.754,-132.694 918.62,-126.176"/>
<polygon fill="midnightblue" stroke="midnightblue" points="919.154,-129.652 928.949,-125.612 918.772,-122.663 919.154,-129.652"/>
</g>
<!-- Node30 -->
<g id="node30" class="node"><title>Node30</title>
<polygon fill="white" stroke="#bfbfbf" points="0,-112.5 0,-131.5 62,-131.5 62,-112.5 0,-112.5"/>
<text text-anchor="middle" x="31" y="-119.5" font-family="Helvetica,sans-Serif" font-size="10.00">algorithm</text>
</g>
<!-- Node29&#45;&gt;Node30 -->
<g id="edge47" class="edge"><title>Node29&#45;&gt;Node30</title>
<path fill="none" stroke="midnightblue" d="M133.807,-173.975C113.757,-164.034 80.4012,-147.495 57.1398,-135.961"/>
<polygon fill="midnightblue" stroke="midnightblue" points="58.6752,-132.816 48.1612,-131.509 55.5655,-139.087 58.6752,-132.816"/>
</g>
<!-- Node31 -->
<g id="node31" class="node"><title>Node31</title>
<polygon fill="white" stroke="#bfbfbf" points="80.5,-112.5 80.5,-131.5 127.5,-131.5 127.5,-112.5 80.5,-112.5"/>
<text text-anchor="middle" x="104" y="-119.5" font-family="Helvetica,sans-Serif" font-size="10.00">cmath</text>
</g>
<!-- Node29&#45;&gt;Node31 -->
<g id="edge48" class="edge"><title>Node29&#45;&gt;Node31</title>
<path fill="none" stroke="midnightblue" d="M144.266,-173.975C137.216,-165.05 125.965,-150.807 117.146,-139.643"/>
<polygon fill="midnightblue" stroke="midnightblue" points="119.667,-137.187 110.721,-131.509 114.174,-141.526 119.667,-137.187"/>
</g>
<!-- Node32 -->
<g id="node32" class="node"><title>Node32</title>
<g id="a_node32"><a xlink:href="Math_8inl.html" target="_top" xlink:title="Core/Math/Math.inl">
<polygon fill="white" stroke="black" points="145.5,-112.5 145.5,-131.5 252.5,-131.5 252.5,-112.5 145.5,-112.5"/>
<text text-anchor="middle" x="199" y="-119.5" font-family="Helvetica,sans-Serif" font-size="10.00">Core/Math/Math.inl</text>
</a>
</g>
</g>
<!-- Node29&#45;&gt;Node32 -->
<g id="edge49" class="edge"><title>Node29&#45;&gt;Node32</title>
<path fill="none" stroke="midnightblue" d="M152.977,-173.975C158.334,-164.873 169.751,-150.241 180.045,-138.983"/>
<polygon fill="midnightblue" stroke="midnightblue" points="182.825,-141.141 187.238,-131.509 177.782,-136.287 182.825,-141.141"/>
</g>
<!-- Node32&#45;&gt;Node29 -->
<g id="edge50" class="edge"><title>Node32&#45;&gt;Node29</title>
<path fill="none" stroke="midnightblue" d="M197.033,-131.509C191.682,-140.604 180.268,-155.236 169.973,-166.497"/>
<polygon fill="midnightblue" stroke="midnightblue" points="167.19,-164.343 162.778,-173.975 172.234,-169.196 167.19,-164.343"/>
</g>
<!-- Node33&#45;&gt;Node26 -->
<g id="edge53" class="edge"><title>Node33&#45;&gt;Node26</title>
<path fill="none" stroke="midnightblue" d="M640.73,-193.009C615.078,-203.252 568.283,-220.517 534.976,-232.083"/>
<polygon fill="midnightblue" stroke="midnightblue" points="533.43,-228.913 525.111,-235.475 535.706,-235.533 533.43,-228.913"/>
</g>
<!-- Node34&#45;&gt;Node2 -->
<g id="edge57" class="edge"><title>Node34&#45;&gt;Node2</title>
<path fill="none" stroke="midnightblue" d="M1520.15,-422.516C1502.39,-431.388 1471.54,-445.38 1447.57,-455.503"/>
<polygon fill="midnightblue" stroke="midnightblue" points="1445.99,-452.369 1438.1,-459.444 1448.68,-458.831 1445.99,-452.369"/>
</g>
</g>
</svg>
