<?xml version="1.0" encoding="UTF-8" standalone="no"?>
<!DOCTYPE svg PUBLIC "-//W3C//DTD SVG 1.1//EN"
 "http://www.w3.org/Graphics/SVG/1.1/DTD/svg11.dtd">
<!-- Generated by graphviz version 2.38.0 (20140413.2041)
 -->
<!-- Title: /home/travis/build/STORM&#45;IRIT/Radium&#45;Engine/src/Core/Animation/PoseOperation.cpp Pages: 1 -->
<svg width="507pt" height="397pt"
 viewBox="0.00 0.00 506.50 397.00" xmlns="http://www.w3.org/2000/svg" xmlns:xlink="http://www.w3.org/1999/xlink">
<g id="graph0" class="graph" transform="scale(1 1) rotate(0) translate(4 393)">
<title>/home/travis/build/STORM&#45;IRIT/Radium&#45;Engine/src/Core/Animation/PoseOperation.cpp</title>
<polygon fill="white" stroke="none" points="-4,4 -4,-393 502.5,-393 502.5,4 -4,4"/>
<!-- Node1 -->
<g id="node1" class="node"><title>Node1</title>
<polygon fill="#bfbfbf" stroke="black" points="277,-347.5 277,-388.5 482,-388.5 482,-347.5 277,-347.5"/>
<text text-anchor="start" x="285" y="-376.5" font-family="Helvetica,sans-Serif" font-size="10.00">/home/travis/build</text>
<text text-anchor="start" x="285" y="-365.5" font-family="Helvetica,sans-Serif" font-size="10.00">/STORM&#45;IRIT/Radium&#45;Engine</text>
<text text-anchor="middle" x="379.5" y="-354.5" font-family="Helvetica,sans-Serif" font-size="10.00">/src/Core/Animation/PoseOperation.cpp</text>
</g>
<!-- Node2 -->
<g id="node2" class="node"><title>Node2</title>
<g id="a_node2"><a xlink:href="PoseOperation_8hpp.html" target="_top" xlink:title="Core/Animation/PoseOperation.hpp">
<polygon fill="white" stroke="black" points="222,-291.5 222,-310.5 407,-310.5 407,-291.5 222,-291.5"/>
<text text-anchor="middle" x="314.5" y="-298.5" font-family="Helvetica,sans-Serif" font-size="10.00">Core/Animation/PoseOperation.hpp</text>
</a>
</g>
</g>
<!-- Node1&#45;&gt;Node2 -->
<g id="edge1" class="edge"><title>Node1&#45;&gt;Node2</title>
<path fill="none" stroke="midnightblue" d="M359.998,-347.498C350.511,-338.011 339.256,-326.756 330.313,-317.813"/>
<polygon fill="midnightblue" stroke="midnightblue" points="332.698,-315.249 323.152,-310.652 327.749,-320.198 332.698,-315.249"/>
</g>
<!-- Node16 -->
<g id="node16" class="node"><title>Node16</title>
<polygon fill="white" stroke="#bfbfbf" points="404.5,-174 404.5,-193 498.5,-193 498.5,-174 404.5,-174"/>
<text text-anchor="middle" x="451.5" y="-181" font-family="Helvetica,sans-Serif" font-size="10.00">Eigen/Geometry</text>
</g>
<!-- Node1&#45;&gt;Node16 -->
<g id="edge18" class="edge"><title>Node1&#45;&gt;Node16</title>
<path fill="none" stroke="midnightblue" d="M394.172,-347.338C401.385,-336.953 409.743,-323.745 415.5,-311 432.048,-274.368 442.861,-228.299 448.001,-203.093"/>
<polygon fill="midnightblue" stroke="midnightblue" points="451.473,-203.576 449.964,-193.089 444.604,-202.228 451.473,-203.576"/>
</g>
<!-- Node3 -->
<g id="node3" class="node"><title>Node3</title>
<g id="a_node3"><a xlink:href="Pose_8hpp.html" target="_top" xlink:title="Core/Animation/Pose.hpp">
<polygon fill="white" stroke="black" points="60.5,-235.5 60.5,-254.5 198.5,-254.5 198.5,-235.5 60.5,-235.5"/>
<text text-anchor="middle" x="129.5" y="-242.5" font-family="Helvetica,sans-Serif" font-size="10.00">Core/Animation/Pose.hpp</text>
</a>
</g>
</g>
<!-- Node2&#45;&gt;Node3 -->
<g id="edge2" class="edge"><title>Node2&#45;&gt;Node3</title>
<path fill="none" stroke="midnightblue" d="M285.186,-291.444C253.658,-282.241 203.369,-267.562 168.514,-257.388"/>
<polygon fill="midnightblue" stroke="midnightblue" points="169.257,-253.959 158.677,-254.516 167.295,-260.678 169.257,-253.959"/>
</g>
<!-- Node14 -->
<g id="node14" class="node"><title>Node14</title>
<g id="a_node14"><a xlink:href="Types_8hpp.html" target="_top" xlink:title="Core/Math/Types.hpp">
<polygon fill="white" stroke="black" points="256.5,-235.5 256.5,-254.5 372.5,-254.5 372.5,-235.5 256.5,-235.5"/>
<text text-anchor="middle" x="314.5" y="-242.5" font-family="Helvetica,sans-Serif" font-size="10.00">Core/Math/Types.hpp</text>
</a>
</g>
</g>
<!-- Node2&#45;&gt;Node14 -->
<g id="edge13" class="edge"><title>Node2&#45;&gt;Node14</title>
<path fill="none" stroke="midnightblue" d="M314.5,-291.083C314.5,-284.006 314.5,-273.861 314.5,-264.986"/>
<polygon fill="midnightblue" stroke="midnightblue" points="318,-264.751 314.5,-254.751 311,-264.751 318,-264.751"/>
</g>
<!-- Node4 -->
<g id="node4" class="node"><title>Node4</title>
<g id="a_node4"><a xlink:href="AlignedStdVector_8hpp.html" target="_top" xlink:title="Core/Containers/AlignedStd\lVector.hpp">
<polygon fill="white" stroke="black" points="16,-168.5 16,-198.5 165,-198.5 165,-168.5 16,-168.5"/>
<text text-anchor="start" x="24" y="-186.5" font-family="Helvetica,sans-Serif" font-size="10.00">Core/Containers/AlignedStd</text>
<text text-anchor="middle" x="90.5" y="-175.5" font-family="Helvetica,sans-Serif" font-size="10.00">Vector.hpp</text>
</a>
</g>
</g>
<!-- Node3&#45;&gt;Node4 -->
<g id="edge3" class="edge"><title>Node3&#45;&gt;Node4</title>
<path fill="none" stroke="midnightblue" d="M123.912,-235.475C119.075,-228.094 111.853,-217.077 105.36,-207.171"/>
<polygon fill="midnightblue" stroke="midnightblue" points="108.101,-204.968 99.6915,-198.523 102.246,-208.805 108.101,-204.968"/>
</g>
<!-- Node5 -->
<g id="node5" class="node"><title>Node5</title>
<g id="a_node5"><a xlink:href="RaCore_8hpp.html" target="_top" xlink:title="Core/RaCore.hpp">
<polygon fill="white" stroke="black" points="251.5,-112.5 251.5,-131.5 349.5,-131.5 349.5,-112.5 251.5,-112.5"/>
<text text-anchor="middle" x="300.5" y="-119.5" font-family="Helvetica,sans-Serif" font-size="10.00">Core/RaCore.hpp</text>
</a>
</g>
</g>
<!-- Node4&#45;&gt;Node5 -->
<g id="edge4" class="edge"><title>Node4&#45;&gt;Node5</title>
<path fill="none" stroke="midnightblue" d="M140.001,-168.475C176.863,-158.03 226.532,-143.958 260.805,-134.247"/>
<polygon fill="midnightblue" stroke="midnightblue" points="261.81,-137.6 270.478,-131.506 259.902,-130.865 261.81,-137.6"/>
</g>
<!-- Node12 -->
<g id="node12" class="node"><title>Node12</title>
<polygon fill="white" stroke="#bfbfbf" points="0,-112.5 0,-131.5 93,-131.5 93,-112.5 0,-112.5"/>
<text text-anchor="middle" x="46.5" y="-119.5" font-family="Helvetica,sans-Serif" font-size="10.00">Eigen/StdVector</text>
</g>
<!-- Node4&#45;&gt;Node12 -->
<g id="edge11" class="edge"><title>Node4&#45;&gt;Node12</title>
<path fill="none" stroke="midnightblue" d="M80.0726,-168.399C73.7448,-159.842 65.6314,-148.871 58.9657,-139.857"/>
<polygon fill="midnightblue" stroke="midnightblue" points="61.6624,-137.617 52.9024,-131.658 56.0341,-141.779 61.6624,-137.617"/>
</g>
<!-- Node13 -->
<g id="node13" class="node"><title>Node13</title>
<polygon fill="white" stroke="#bfbfbf" points="111,-112.5 111,-131.5 158,-131.5 158,-112.5 111,-112.5"/>
<text text-anchor="middle" x="134.5" y="-119.5" font-family="Helvetica,sans-Serif" font-size="10.00">vector</text>
</g>
<!-- Node4&#45;&gt;Node13 -->
<g id="edge12" class="edge"><title>Node4&#45;&gt;Node13</title>
<path fill="none" stroke="midnightblue" d="M100.927,-168.399C107.255,-159.842 115.369,-148.871 122.034,-139.857"/>
<polygon fill="midnightblue" stroke="midnightblue" points="124.966,-141.779 128.098,-131.658 119.338,-137.617 124.966,-141.779"/>
</g>
<!-- Node6 -->
<g id="node6" class="node"><title>Node6</title>
<g id="a_node6"><a xlink:href="CoreMacros_8hpp.html" target="_top" xlink:title="Core/CoreMacros.hpp">
<polygon fill="white" stroke="black" points="240.5,-56.5 240.5,-75.5 360.5,-75.5 360.5,-56.5 240.5,-56.5"/>
<text text-anchor="middle" x="300.5" y="-63.5" font-family="Helvetica,sans-Serif" font-size="10.00">Core/CoreMacros.hpp</text>
</a>
</g>
</g>
<!-- Node5&#45;&gt;Node6 -->
<g id="edge5" class="edge"><title>Node5&#45;&gt;Node6</title>
<path fill="none" stroke="midnightblue" d="M300.5,-112.083C300.5,-105.006 300.5,-94.8611 300.5,-85.9865"/>
<polygon fill="midnightblue" stroke="midnightblue" points="304,-85.751 300.5,-75.7511 297,-85.7511 304,-85.751"/>
</g>
<!-- Node7 -->
<g id="node7" class="node"><title>Node7</title>
<polygon fill="white" stroke="#bfbfbf" points="137.5,-0.5 137.5,-19.5 189.5,-19.5 189.5,-0.5 137.5,-0.5"/>
<text text-anchor="middle" x="163.5" y="-7.5" font-family="Helvetica,sans-Serif" font-size="10.00">cassert</text>
</g>
<!-- Node6&#45;&gt;Node7 -->
<g id="edge6" class="edge"><title>Node6&#45;&gt;Node7</title>
<path fill="none" stroke="midnightblue" d="M278.792,-56.4435C256.145,-47.5171 220.428,-33.4387 194.748,-23.3168"/>
<polygon fill="midnightblue" stroke="midnightblue" points="195.693,-19.9273 185.106,-19.5164 193.126,-26.4397 195.693,-19.9273"/>
</g>
<!-- Node8 -->
<g id="node8" class="node"><title>Node8</title>
<polygon fill="white" stroke="#bfbfbf" points="208,-0.5 208,-19.5 253,-19.5 253,-0.5 208,-0.5"/>
<text text-anchor="middle" x="230.5" y="-7.5" font-family="Helvetica,sans-Serif" font-size="10.00">cstdio</text>
</g>
<!-- Node6&#45;&gt;Node8 -->
<g id="edge7" class="edge"><title>Node6&#45;&gt;Node8</title>
<path fill="none" stroke="midnightblue" d="M289.253,-56.324C278.703,-48.1849 262.699,-35.8395 250.058,-26.0874"/>
<polygon fill="midnightblue" stroke="midnightblue" points="252.007,-23.1707 241.951,-19.8339 247.731,-28.7132 252.007,-23.1707"/>
</g>
<!-- Node9 -->
<g id="node9" class="node"><title>Node9</title>
<polygon fill="white" stroke="#bfbfbf" points="271,-0.5 271,-19.5 330,-19.5 330,-0.5 271,-0.5"/>
<text text-anchor="middle" x="300.5" y="-7.5" font-family="Helvetica,sans-Serif" font-size="10.00">iostream</text>
</g>
<!-- Node6&#45;&gt;Node9 -->
<g id="edge8" class="edge"><title>Node6&#45;&gt;Node9</title>
<path fill="none" stroke="midnightblue" d="M300.5,-56.083C300.5,-49.0059 300.5,-38.8611 300.5,-29.9865"/>
<polygon fill="midnightblue" stroke="midnightblue" points="304,-29.751 300.5,-19.7511 297,-29.7511 304,-29.751"/>
</g>
<!-- Node10 -->
<g id="node10" class="node"><title>Node10</title>
<polygon fill="white" stroke="#bfbfbf" points="348.5,-0.5 348.5,-19.5 404.5,-19.5 404.5,-0.5 348.5,-0.5"/>
<text text-anchor="middle" x="376.5" y="-7.5" font-family="Helvetica,sans-Serif" font-size="10.00">sstream</text>
</g>
<!-- Node6&#45;&gt;Node10 -->
<g id="edge9" class="edge"><title>Node6&#45;&gt;Node10</title>
<path fill="none" stroke="midnightblue" d="M312.711,-56.324C324.276,-48.1066 341.875,-35.6017 355.661,-25.8069"/>
<polygon fill="midnightblue" stroke="midnightblue" points="357.943,-28.4791 364.067,-19.8339 353.888,-22.7729 357.943,-28.4791"/>
</g>
<!-- Node11 -->
<g id="node11" class="node"><title>Node11</title>
<polygon fill="white" stroke="#bfbfbf" points="422.5,-0.5 422.5,-19.5 470.5,-19.5 470.5,-0.5 422.5,-0.5"/>
<text text-anchor="middle" x="446.5" y="-7.5" font-family="Helvetica,sans-Serif" font-size="10.00">thread</text>
</g>
<!-- Node6&#45;&gt;Node11 -->
<g id="edge10" class="edge"><title>Node6&#45;&gt;Node11</title>
<path fill="none" stroke="midnightblue" d="M323.634,-56.4435C347.982,-47.4381 386.507,-33.1891 413.923,-23.049"/>
<polygon fill="midnightblue" stroke="midnightblue" points="415.309,-26.2681 423.474,-19.5164 412.881,-19.7028 415.309,-26.2681"/>
</g>
<!-- Node14&#45;&gt;Node5 -->
<g id="edge14" class="edge"><title>Node14&#45;&gt;Node5</title>
<path fill="none" stroke="midnightblue" d="M326.997,-235.302C337.374,-227.251 351.387,-214.245 357.5,-199 362.628,-186.212 363.508,-180.399 357.5,-168 351.103,-154.8 338.748,-144.303 327.171,-136.779"/>
<polygon fill="midnightblue" stroke="midnightblue" points="328.954,-133.768 318.582,-131.61 325.345,-139.765 328.954,-133.768"/>
</g>
<!-- Node15 -->
<g id="node15" class="node"><title>Node15</title>
<polygon fill="white" stroke="#bfbfbf" points="182.5,-174 182.5,-193 250.5,-193 250.5,-174 182.5,-174"/>
<text text-anchor="middle" x="216.5" y="-181" font-family="Helvetica,sans-Serif" font-size="10.00">Eigen/Core</text>
</g>
<!-- Node14&#45;&gt;Node15 -->
<g id="edge15" class="edge"><title>Node14&#45;&gt;Node15</title>
<path fill="none" stroke="midnightblue" d="M300.459,-235.475C284.449,-225.755 258.05,-209.727 239.126,-198.237"/>
<polygon fill="midnightblue" stroke="midnightblue" points="240.879,-195.207 230.515,-193.009 237.246,-201.191 240.879,-195.207"/>
</g>
<!-- Node14&#45;&gt;Node16 -->
<g id="edge16" class="edge"><title>Node14&#45;&gt;Node16</title>
<path fill="none" stroke="midnightblue" d="M334.129,-235.475C357.324,-225.401 396.119,-208.553 422.713,-197.002"/>
<polygon fill="midnightblue" stroke="midnightblue" points="424.13,-200.203 431.908,-193.009 421.341,-193.782 424.13,-200.203"/>
</g>
<!-- Node17 -->
<g id="node17" class="node"><title>Node17</title>
<polygon fill="white" stroke="#bfbfbf" points="268.5,-174 268.5,-193 348.5,-193 348.5,-174 268.5,-174"/>
<text text-anchor="middle" x="308.5" y="-181" font-family="Helvetica,sans-Serif" font-size="10.00">Eigen/Sparse</text>
</g>
<!-- Node14&#45;&gt;Node17 -->
<g id="edge17" class="edge"><title>Node14&#45;&gt;Node17</title>
<path fill="none" stroke="midnightblue" d="M313.64,-235.475C312.794,-227.08 311.473,-213.981 310.382,-203.163"/>
<polygon fill="midnightblue" stroke="midnightblue" points="313.844,-202.607 309.358,-193.009 306.879,-203.31 313.844,-202.607"/>
</g>
</g>
</svg>
