<?xml version="1.0" encoding="UTF-8" standalone="no"?>
<!DOCTYPE svg PUBLIC "-//W3C//DTD SVG 1.1//EN"
 "http://www.w3.org/Graphics/SVG/1.1/DTD/svg11.dtd">
<!-- Generated by graphviz version 2.38.0 (20140413.2041)
 -->
<!-- Title: /home/travis/build/STORM&#45;IRIT/Radium&#45;Engine/src/GuiBase/Utils/qt_utils.hpp Pages: 1 -->
<svg width="224pt" height="106pt"
 viewBox="0.00 0.00 224.00 106.00" xmlns="http://www.w3.org/2000/svg" xmlns:xlink="http://www.w3.org/1999/xlink">
<g id="graph0" class="graph" transform="scale(1 1) rotate(0) translate(4 102)">
<title>/home/travis/build/STORM&#45;IRIT/Radium&#45;Engine/src/GuiBase/Utils/qt_utils.hpp</title>
<polygon fill="white" stroke="none" points="-4,4 -4,-102 220,-102 220,4 -4,4"/>
<!-- Node1 -->
<g id="node1" class="node"><title>Node1</title>
<polygon fill="#bfbfbf" stroke="black" points="34.5,-56.5 34.5,-97.5 193.5,-97.5 193.5,-56.5 34.5,-56.5"/>
<text text-anchor="start" x="42.5" y="-85.5" font-family="Helvetica,sans-Serif" font-size="10.00">/home/travis/build</text>
<text text-anchor="start" x="42.5" y="-74.5" font-family="Helvetica,sans-Serif" font-size="10.00">/STORM&#45;IRIT/Radium&#45;Engine</text>
<text text-anchor="middle" x="114" y="-63.5" font-family="Helvetica,sans-Serif" font-size="10.00">/src/GuiBase/Utils/qt_utils.hpp</text>
</g>
<!-- Node2 -->
<g id="node2" class="node"><title>Node2</title>
<polygon fill="white" stroke="#bfbfbf" points="0,-0.5 0,-19.5 68,-19.5 68,-0.5 0,-0.5"/>
<text text-anchor="middle" x="34" y="-7.5" font-family="Helvetica,sans-Serif" font-size="10.00">QKeyEvent</text>
</g>
<!-- Node1&#45;&gt;Node2 -->
<g id="edge1" class="edge"><title>Node1&#45;&gt;Node2</title>
<path fill="none" stroke="midnightblue" d="M89.9974,-56.4979C77.9677,-46.7238 63.6269,-35.0719 52.4697,-26.0066"/>
<polygon fill="midnightblue" stroke="midnightblue" points="54.6175,-23.242 44.6492,-19.6525 50.2033,-28.6749 54.6175,-23.242"/>
</g>
<!-- Node3 -->
<g id="node3" class="node"><title>Node3</title>
<polygon fill="white" stroke="#bfbfbf" points="86,-0.5 86,-19.5 142,-19.5 142,-0.5 86,-0.5"/>
<text text-anchor="middle" x="114" y="-7.5" font-family="Helvetica,sans-Serif" font-size="10.00">QLayout</text>
</g>
<!-- Node1&#45;&gt;Node3 -->
<g id="edge2" class="edge"><title>Node1&#45;&gt;Node3</title>
<path fill="none" stroke="midnightblue" d="M114,-56.4979C114,-48.0653 114,-38.2351 114,-29.874"/>
<polygon fill="midnightblue" stroke="midnightblue" points="117.5,-29.6525 114,-19.6525 110.5,-29.6525 117.5,-29.6525"/>
</g>
<!-- Node4 -->
<g id="node4" class="node"><title>Node4</title>
<polygon fill="white" stroke="#bfbfbf" points="160,-0.5 160,-19.5 216,-19.5 216,-0.5 160,-0.5"/>
<text text-anchor="middle" x="188" y="-7.5" font-family="Helvetica,sans-Serif" font-size="10.00">QWidget</text>
</g>
<!-- Node1&#45;&gt;Node4 -->
<g id="edge3" class="edge"><title>Node1&#45;&gt;Node4</title>
<path fill="none" stroke="midnightblue" d="M136.202,-56.4979C147.221,-46.8196 160.335,-35.3002 170.611,-26.274"/>
<polygon fill="midnightblue" stroke="midnightblue" points="172.946,-28.8816 178.149,-19.6525 168.326,-23.6223 172.946,-28.8816"/>
</g>
</g>
</svg>
