<?xml version="1.0" encoding="UTF-8" standalone="no"?>
<!DOCTYPE svg PUBLIC "-//W3C//DTD SVG 1.1//EN"
 "http://www.w3.org/Graphics/SVG/1.1/DTD/svg11.dtd">
<!-- Generated by graphviz version 2.38.0 (20140413.2041)
 -->
<!-- Title: /home/travis/build/STORM&#45;IRIT/Radium&#45;Engine/src/Core/Geometry/RayCast.hpp Pages: 1 -->
<svg width="561pt" height="139pt"
 viewBox="0.00 0.00 560.50 139.00" xmlns="http://www.w3.org/2000/svg" xmlns:xlink="http://www.w3.org/1999/xlink">
<g id="graph0" class="graph" transform="scale(1 1) rotate(0) translate(4 135)">
<title>/home/travis/build/STORM&#45;IRIT/Radium&#45;Engine/src/Core/Geometry/RayCast.hpp</title>
<polygon fill="white" stroke="none" points="-4,4 -4,-135 556.5,-135 556.5,4 -4,4"/>
<!-- Node1 -->
<g id="node1" class="node"><title>Node1</title>
<polygon fill="#bfbfbf" stroke="black" points="202,-89.5 202,-130.5 375,-130.5 375,-89.5 202,-89.5"/>
<text text-anchor="start" x="210" y="-118.5" font-family="Helvetica,sans-Serif" font-size="10.00">/home/travis/build</text>
<text text-anchor="start" x="210" y="-107.5" font-family="Helvetica,sans-Serif" font-size="10.00">/STORM&#45;IRIT/Radium&#45;Engine</text>
<text text-anchor="middle" x="288.5" y="-96.5" font-family="Helvetica,sans-Serif" font-size="10.00">/src/Core/Geometry/RayCast.hpp</text>
</g>
<!-- Node2 -->
<g id="node2" class="node"><title>Node2</title>
<g id="a_node2"><a xlink:href="RayCast_8cpp.html" target="_top" xlink:title="/home/travis/build\l/STORM&#45;IRIT/Radium&#45;Engine\l/src/Core/Geometry/RayCast.cpp">
<polygon fill="white" stroke="black" points="0,-6 0,-47 173,-47 173,-6 0,-6"/>
<text text-anchor="start" x="8" y="-35" font-family="Helvetica,sans-Serif" font-size="10.00">/home/travis/build</text>
<text text-anchor="start" x="8" y="-24" font-family="Helvetica,sans-Serif" font-size="10.00">/STORM&#45;IRIT/Radium&#45;Engine</text>
<text text-anchor="middle" x="86.5" y="-13" font-family="Helvetica,sans-Serif" font-size="10.00">/src/Core/Geometry/RayCast.cpp</text>
</a>
</g>
</g>
<!-- Node1&#45;&gt;Node2 -->
<g id="edge1" class="edge"><title>Node1&#45;&gt;Node2</title>
<path fill="none" stroke="midnightblue" d="M230.521,-85.6077C200.228,-73.3851 163.583,-58.6003 134.839,-47.0031"/>
<polygon fill="midnightblue" stroke="midnightblue" points="229.533,-88.9828 240.116,-89.4787 232.152,-82.4913 229.533,-88.9828"/>
</g>
<!-- Node3 -->
<g id="node3" class="node"><title>Node3</title>
<g id="a_node3"><a xlink:href="TriangleMesh_8cpp.html" target="_top" xlink:title="/home/travis/build\l/STORM&#45;IRIT/Radium&#45;Engine\l/src/Core/Geometry/TriangleMesh.cpp">
<polygon fill="white" stroke="black" points="191,-6 191,-47 386,-47 386,-6 191,-6"/>
<text text-anchor="start" x="199" y="-35" font-family="Helvetica,sans-Serif" font-size="10.00">/home/travis/build</text>
<text text-anchor="start" x="199" y="-24" font-family="Helvetica,sans-Serif" font-size="10.00">/STORM&#45;IRIT/Radium&#45;Engine</text>
<text text-anchor="middle" x="288.5" y="-13" font-family="Helvetica,sans-Serif" font-size="10.00">/src/Core/Geometry/TriangleMesh.cpp</text>
</a>
</g>
</g>
<!-- Node1&#45;&gt;Node3 -->
<g id="edge2" class="edge"><title>Node1&#45;&gt;Node3</title>
<path fill="none" stroke="midnightblue" d="M288.5,-79.0646C288.5,-68.3819 288.5,-56.6303 288.5,-47.0472"/>
<polygon fill="midnightblue" stroke="midnightblue" points="285,-79.2711 288.5,-89.2711 292,-79.2712 285,-79.2711"/>
</g>
<!-- Node4 -->
<g id="node4" class="node"><title>Node4</title>
<g id="a_node4"><a xlink:href="Gizmo_8cpp.html" target="_top" xlink:title="/home/travis/build\l/STORM&#45;IRIT/Radium&#45;Engine\l/src/GuiBase/Viewer/Gizmo\l/Gizmo.cpp">
<polygon fill="white" stroke="black" points="404.5,-0.5 404.5,-52.5 552.5,-52.5 552.5,-0.5 404.5,-0.5"/>
<text text-anchor="start" x="412.5" y="-40.5" font-family="Helvetica,sans-Serif" font-size="10.00">/home/travis/build</text>
<text text-anchor="start" x="412.5" y="-29.5" font-family="Helvetica,sans-Serif" font-size="10.00">/STORM&#45;IRIT/Radium&#45;Engine</text>
<text text-anchor="start" x="412.5" y="-18.5" font-family="Helvetica,sans-Serif" font-size="10.00">/src/GuiBase/Viewer/Gizmo</text>
<text text-anchor="middle" x="478.5" y="-7.5" font-family="Helvetica,sans-Serif" font-size="10.00">/Gizmo.cpp</text>
</a>
</g>
</g>
<!-- Node1&#45;&gt;Node4 -->
<g id="edge3" class="edge"><title>Node1&#45;&gt;Node4</title>
<path fill="none" stroke="midnightblue" d="M343.339,-85.4768C367.372,-75.1679 395.608,-63.0563 420.04,-52.5764"/>
<polygon fill="midnightblue" stroke="midnightblue" points="341.82,-82.32 334.01,-89.4787 344.58,-88.7531 341.82,-82.32"/>
</g>
</g>
</svg>
