<?xml version="1.0" encoding="UTF-8" standalone="no"?>
<!DOCTYPE svg PUBLIC "-//W3C//DTD SVG 1.1//EN"
 "http://www.w3.org/Graphics/SVG/1.1/DTD/svg11.dtd">
<!-- Generated by graphviz version 2.38.0 (20140413.2041)
 -->
<!-- Title: /home/travis/build/STORM&#45;IRIT/Radium&#45;Engine/src/GuiBase/SelectionManager/SelectionManager.hpp Pages: 1 -->
<svg width="1207pt" height="408pt"
 viewBox="0.00 0.00 1207.00 408.00" xmlns="http://www.w3.org/2000/svg" xmlns:xlink="http://www.w3.org/1999/xlink">
<g id="graph0" class="graph" transform="scale(1 1) rotate(0) translate(4 404)">
<title>/home/travis/build/STORM&#45;IRIT/Radium&#45;Engine/src/GuiBase/SelectionManager/SelectionManager.hpp</title>
<polygon fill="white" stroke="none" points="-4,4 -4,-404 1203,-404 1203,4 -4,4"/>
<!-- Node1 -->
<g id="node1" class="node"><title>Node1</title>
<polygon fill="#bfbfbf" stroke="black" points="859,-347.5 859,-399.5 1025,-399.5 1025,-347.5 859,-347.5"/>
<text text-anchor="start" x="867" y="-387.5" font-family="Helvetica,sans-Serif" font-size="10.00">/home/travis/build</text>
<text text-anchor="start" x="867" y="-376.5" font-family="Helvetica,sans-Serif" font-size="10.00">/STORM&#45;IRIT/Radium&#45;Engine</text>
<text text-anchor="start" x="867" y="-365.5" font-family="Helvetica,sans-Serif" font-size="10.00">/src/GuiBase/SelectionManager</text>
<text text-anchor="middle" x="942" y="-354.5" font-family="Helvetica,sans-Serif" font-size="10.00">/SelectionManager.hpp</text>
</g>
<!-- Node2 -->
<g id="node2" class="node"><title>Node2</title>
<g id="a_node2"><a xlink:href="RaGuiBase_8hpp.html" target="_top" xlink:title="GuiBase/RaGuiBase.hpp">
<polygon fill="white" stroke="black" points="1067,-168.5 1067,-187.5 1199,-187.5 1199,-168.5 1067,-168.5"/>
<text text-anchor="middle" x="1133" y="-175.5" font-family="Helvetica,sans-Serif" font-size="10.00">GuiBase/RaGuiBase.hpp</text>
</a>
</g>
</g>
<!-- Node1&#45;&gt;Node2 -->
<g id="edge1" class="edge"><title>Node1&#45;&gt;Node2</title>
<path fill="none" stroke="midnightblue" d="M966.97,-347.203C1007.04,-306.612 1084.53,-228.108 1117.52,-194.683"/>
<polygon fill="midnightblue" stroke="midnightblue" points="1120.02,-197.132 1124.55,-187.556 1115.04,-192.214 1120.02,-197.132"/>
</g>
<!-- Node9 -->
<g id="node9" class="node"><title>Node9</title>
<g id="a_node9"><a xlink:href="ItemEntry_8hpp.html" target="_top" xlink:title="Engine/ItemModel/ItemEntry.hpp">
<polygon fill="white" stroke="black" points="349.5,-224.5 349.5,-243.5 520.5,-243.5 520.5,-224.5 349.5,-224.5"/>
<text text-anchor="middle" x="435" y="-231.5" font-family="Helvetica,sans-Serif" font-size="10.00">Engine/ItemModel/ItemEntry.hpp</text>
</a>
</g>
</g>
<!-- Node1&#45;&gt;Node9 -->
<g id="edge8" class="edge"><title>Node1&#45;&gt;Node9</title>
<path fill="none" stroke="midnightblue" d="M858.847,-349.949C748.953,-320.145 559.566,-268.783 476.306,-246.202"/>
<polygon fill="midnightblue" stroke="midnightblue" points="477.023,-242.77 466.455,-243.531 475.19,-249.526 477.023,-242.77"/>
</g>
<!-- Node17 -->
<g id="node17" class="node"><title>Node17</title>
<g id="a_node17"><a xlink:href="EntityTreeModel_8hpp.html" target="_top" xlink:title="GuiBase/TreeModel/Entity\lTreeModel.hpp">
<polygon fill="white" stroke="black" points="795.5,-280.5 795.5,-310.5 932.5,-310.5 932.5,-280.5 795.5,-280.5"/>
<text text-anchor="start" x="803.5" y="-298.5" font-family="Helvetica,sans-Serif" font-size="10.00">GuiBase/TreeModel/Entity</text>
<text text-anchor="middle" x="864" y="-287.5" font-family="Helvetica,sans-Serif" font-size="10.00">TreeModel.hpp</text>
</a>
</g>
</g>
<!-- Node1&#45;&gt;Node17 -->
<g id="edge17" class="edge"><title>Node1&#45;&gt;Node17</title>
<path fill="none" stroke="midnightblue" d="M916.027,-347.193C906.333,-337.747 895.425,-327.119 886.111,-318.044"/>
<polygon fill="midnightblue" stroke="midnightblue" points="888.328,-315.317 878.723,-310.845 883.443,-320.331 888.328,-315.317"/>
</g>
<!-- Node26 -->
<g id="node26" class="node"><title>Node26</title>
<polygon fill="white" stroke="#bfbfbf" points="1048.5,-286 1048.5,-305 1167.5,-305 1167.5,-286 1048.5,-286"/>
<text text-anchor="middle" x="1108" y="-293" font-family="Helvetica,sans-Serif" font-size="10.00">QItemSelectionModel</text>
</g>
<!-- Node1&#45;&gt;Node26 -->
<g id="edge35" class="edge"><title>Node1&#45;&gt;Node26</title>
<path fill="none" stroke="midnightblue" d="M996.815,-347.404C1024.62,-334.674 1057.21,-319.751 1079.89,-309.368"/>
<polygon fill="midnightblue" stroke="midnightblue" points="1081.63,-312.423 1089.26,-305.078 1078.71,-306.058 1081.63,-312.423"/>
</g>
<!-- Node3 -->
<g id="node3" class="node"><title>Node3</title>
<g id="a_node3"><a xlink:href="CoreMacros_8hpp.html" target="_top" xlink:title="Core/CoreMacros.hpp">
<polygon fill="white" stroke="black" points="574,-56.5 574,-75.5 694,-75.5 694,-56.5 574,-56.5"/>
<text text-anchor="middle" x="634" y="-63.5" font-family="Helvetica,sans-Serif" font-size="10.00">Core/CoreMacros.hpp</text>
</a>
</g>
</g>
<!-- Node2&#45;&gt;Node3 -->
<g id="edge2" class="edge"><title>Node2&#45;&gt;Node3</title>
<path fill="none" stroke="midnightblue" d="M1094.26,-168.46C1004.36,-148.642 781.7,-99.5592 682.745,-77.7455"/>
<polygon fill="midnightblue" stroke="midnightblue" points="683.235,-74.2694 672.716,-75.5345 681.728,-81.1053 683.235,-74.2694"/>
</g>
<!-- Node4 -->
<g id="node4" class="node"><title>Node4</title>
<polygon fill="white" stroke="#bfbfbf" points="471,-0.5 471,-19.5 523,-19.5 523,-0.5 471,-0.5"/>
<text text-anchor="middle" x="497" y="-7.5" font-family="Helvetica,sans-Serif" font-size="10.00">cassert</text>
</g>
<!-- Node3&#45;&gt;Node4 -->
<g id="edge3" class="edge"><title>Node3&#45;&gt;Node4</title>
<path fill="none" stroke="midnightblue" d="M612.292,-56.4435C589.645,-47.5171 553.928,-33.4387 528.248,-23.3168"/>
<polygon fill="midnightblue" stroke="midnightblue" points="529.193,-19.9273 518.606,-19.5164 526.626,-26.4397 529.193,-19.9273"/>
</g>
<!-- Node5 -->
<g id="node5" class="node"><title>Node5</title>
<polygon fill="white" stroke="#bfbfbf" points="541.5,-0.5 541.5,-19.5 586.5,-19.5 586.5,-0.5 541.5,-0.5"/>
<text text-anchor="middle" x="564" y="-7.5" font-family="Helvetica,sans-Serif" font-size="10.00">cstdio</text>
</g>
<!-- Node3&#45;&gt;Node5 -->
<g id="edge4" class="edge"><title>Node3&#45;&gt;Node5</title>
<path fill="none" stroke="midnightblue" d="M622.753,-56.324C612.203,-48.1849 596.199,-35.8395 583.558,-26.0874"/>
<polygon fill="midnightblue" stroke="midnightblue" points="585.507,-23.1707 575.451,-19.8339 581.231,-28.7132 585.507,-23.1707"/>
</g>
<!-- Node6 -->
<g id="node6" class="node"><title>Node6</title>
<polygon fill="white" stroke="#bfbfbf" points="604.5,-0.5 604.5,-19.5 663.5,-19.5 663.5,-0.5 604.5,-0.5"/>
<text text-anchor="middle" x="634" y="-7.5" font-family="Helvetica,sans-Serif" font-size="10.00">iostream</text>
</g>
<!-- Node3&#45;&gt;Node6 -->
<g id="edge5" class="edge"><title>Node3&#45;&gt;Node6</title>
<path fill="none" stroke="midnightblue" d="M634,-56.083C634,-49.0059 634,-38.8611 634,-29.9865"/>
<polygon fill="midnightblue" stroke="midnightblue" points="637.5,-29.751 634,-19.7511 630.5,-29.7511 637.5,-29.751"/>
</g>
<!-- Node7 -->
<g id="node7" class="node"><title>Node7</title>
<polygon fill="white" stroke="#bfbfbf" points="682,-0.5 682,-19.5 738,-19.5 738,-0.5 682,-0.5"/>
<text text-anchor="middle" x="710" y="-7.5" font-family="Helvetica,sans-Serif" font-size="10.00">sstream</text>
</g>
<!-- Node3&#45;&gt;Node7 -->
<g id="edge6" class="edge"><title>Node3&#45;&gt;Node7</title>
<path fill="none" stroke="midnightblue" d="M646.211,-56.324C657.776,-48.1066 675.375,-35.6017 689.161,-25.8069"/>
<polygon fill="midnightblue" stroke="midnightblue" points="691.443,-28.4791 697.567,-19.8339 687.388,-22.7729 691.443,-28.4791"/>
</g>
<!-- Node8 -->
<g id="node8" class="node"><title>Node8</title>
<polygon fill="white" stroke="#bfbfbf" points="756,-0.5 756,-19.5 804,-19.5 804,-0.5 756,-0.5"/>
<text text-anchor="middle" x="780" y="-7.5" font-family="Helvetica,sans-Serif" font-size="10.00">thread</text>
</g>
<!-- Node3&#45;&gt;Node8 -->
<g id="edge7" class="edge"><title>Node3&#45;&gt;Node8</title>
<path fill="none" stroke="midnightblue" d="M657.134,-56.4435C681.482,-47.4381 720.007,-33.1891 747.423,-23.049"/>
<polygon fill="midnightblue" stroke="midnightblue" points="748.809,-26.2681 756.974,-19.5164 746.381,-19.7028 748.809,-26.2681"/>
</g>
<!-- Node10 -->
<g id="node10" class="node"><title>Node10</title>
<g id="a_node10"><a xlink:href="RaEngine_8hpp.html" target="_top" xlink:title="Engine/RaEngine.hpp">
<polygon fill="white" stroke="black" points="376.5,-168.5 376.5,-187.5 493.5,-187.5 493.5,-168.5 376.5,-168.5"/>
<text text-anchor="middle" x="435" y="-175.5" font-family="Helvetica,sans-Serif" font-size="10.00">Engine/RaEngine.hpp</text>
</a>
</g>
</g>
<!-- Node9&#45;&gt;Node10 -->
<g id="edge9" class="edge"><title>Node9&#45;&gt;Node10</title>
<path fill="none" stroke="midnightblue" d="M435,-224.083C435,-217.006 435,-206.861 435,-197.986"/>
<polygon fill="midnightblue" stroke="midnightblue" points="438.5,-197.751 435,-187.751 431.5,-197.751 438.5,-197.751"/>
</g>
<!-- Node11 -->
<g id="node11" class="node"><title>Node11</title>
<g id="a_node11"><a xlink:href="Index_8hpp.html" target="_top" xlink:title="Core/Utils/Index.hpp">
<polygon fill="white" stroke="black" points="182.5,-168.5 182.5,-187.5 295.5,-187.5 295.5,-168.5 182.5,-168.5"/>
<text text-anchor="middle" x="239" y="-175.5" font-family="Helvetica,sans-Serif" font-size="10.00">Core/Utils/Index.hpp</text>
</a>
</g>
</g>
<!-- Node9&#45;&gt;Node11 -->
<g id="edge11" class="edge"><title>Node9&#45;&gt;Node11</title>
<path fill="none" stroke="midnightblue" d="M403.943,-224.444C370.397,-215.201 316.803,-200.436 279.859,-190.257"/>
<polygon fill="midnightblue" stroke="midnightblue" points="280.482,-186.798 269.911,-187.516 278.623,-193.547 280.482,-186.798"/>
</g>
<!-- Node14 -->
<g id="node14" class="node"><title>Node14</title>
<polygon fill="white" stroke="#bfbfbf" points="314,-168.5 314,-187.5 358,-187.5 358,-168.5 314,-168.5"/>
<text text-anchor="middle" x="336" y="-175.5" font-family="Helvetica,sans-Serif" font-size="10.00">string</text>
</g>
<!-- Node9&#45;&gt;Node14 -->
<g id="edge14" class="edge"><title>Node9&#45;&gt;Node14</title>
<path fill="none" stroke="midnightblue" d="M419.094,-224.324C403.362,-215.743 379.058,-202.486 360.791,-192.522"/>
<polygon fill="midnightblue" stroke="midnightblue" points="362.322,-189.37 351.867,-187.655 358.97,-195.516 362.322,-189.37"/>
</g>
<!-- Node15 -->
<g id="node15" class="node"><title>Node15</title>
<polygon fill="white" stroke="#bfbfbf" points="718.5,-168.5 718.5,-187.5 765.5,-187.5 765.5,-168.5 718.5,-168.5"/>
<text text-anchor="middle" x="742" y="-175.5" font-family="Helvetica,sans-Serif" font-size="10.00">vector</text>
</g>
<!-- Node9&#45;&gt;Node15 -->
<g id="edge15" class="edge"><title>Node9&#45;&gt;Node15</title>
<path fill="none" stroke="midnightblue" d="M498.473,-224.477C551.947,-216.863 630.629,-204.651 708.319,-187.952"/>
<polygon fill="midnightblue" stroke="midnightblue" points="709.252,-191.331 718.279,-185.785 707.764,-184.491 709.252,-191.331"/>
</g>
<!-- Node16 -->
<g id="node16" class="node"><title>Node16</title>
<g id="a_node16"><a xlink:href="ItemEntry_8inl.html" target="_top" xlink:title="Engine/ItemModel/ItemEntry.inl">
<polygon fill="white" stroke="black" points="0,-168.5 0,-187.5 164,-187.5 164,-168.5 0,-168.5"/>
<text text-anchor="middle" x="82" y="-175.5" font-family="Helvetica,sans-Serif" font-size="10.00">Engine/ItemModel/ItemEntry.inl</text>
</a>
</g>
</g>
<!-- Node9&#45;&gt;Node16 -->
<g id="edge16" class="edge"><title>Node9&#45;&gt;Node16</title>
<path fill="none" stroke="midnightblue" d="M379.066,-224.444C316.195,-214.826 214.228,-199.228 147.638,-189.041"/>
<polygon fill="midnightblue" stroke="midnightblue" points="148.087,-185.569 137.672,-187.516 147.028,-192.488 148.087,-185.569"/>
</g>
<!-- Node10&#45;&gt;Node3 -->
<g id="edge10" class="edge"><title>Node10&#45;&gt;Node3</title>
<path fill="none" stroke="midnightblue" d="M450.615,-168.368C485.127,-149.292 568.109,-103.422 609.567,-80.5054"/>
<polygon fill="midnightblue" stroke="midnightblue" points="611.399,-83.4924 618.457,-75.5914 608.012,-77.366 611.399,-83.4924"/>
</g>
<!-- Node12 -->
<g id="node12" class="node"><title>Node12</title>
<polygon fill="white" stroke="#bfbfbf" points="264,-112.5 264,-131.5 306,-131.5 306,-112.5 264,-112.5"/>
<text text-anchor="middle" x="285" y="-119.5" font-family="Helvetica,sans-Serif" font-size="10.00">limits</text>
</g>
<!-- Node11&#45;&gt;Node12 -->
<g id="edge12" class="edge"><title>Node11&#45;&gt;Node12</title>
<path fill="none" stroke="midnightblue" d="M246.596,-168.083C253.227,-160.298 263.021,-148.801 271.058,-139.367"/>
<polygon fill="midnightblue" stroke="midnightblue" points="273.725,-141.633 277.545,-131.751 268.396,-137.094 273.725,-141.633"/>
</g>
<!-- Node13 -->
<g id="node13" class="node"><title>Node13</title>
<g id="a_node13"><a xlink:href="Index_8inl.html" target="_top" xlink:title="Core/Utils/Index.inl">
<polygon fill="white" stroke="black" points="140.5,-112.5 140.5,-131.5 245.5,-131.5 245.5,-112.5 140.5,-112.5"/>
<text text-anchor="middle" x="193" y="-119.5" font-family="Helvetica,sans-Serif" font-size="10.00">Core/Utils/Index.inl</text>
</a>
</g>
</g>
<!-- Node11&#45;&gt;Node13 -->
<g id="edge13" class="edge"><title>Node11&#45;&gt;Node13</title>
<path fill="none" stroke="midnightblue" d="M231.404,-168.083C224.773,-160.298 214.979,-148.801 206.942,-139.367"/>
<polygon fill="midnightblue" stroke="midnightblue" points="209.604,-137.094 200.455,-131.751 204.275,-141.633 209.604,-137.094"/>
</g>
<!-- Node17&#45;&gt;Node2 -->
<g id="edge18" class="edge"><title>Node17&#45;&gt;Node2</title>
<path fill="none" stroke="midnightblue" d="M891.289,-280.462C925.942,-262.721 983.887,-233.367 1006,-224 1035.85,-211.354 1070.61,-199.211 1096.21,-190.733"/>
<polygon fill="midnightblue" stroke="midnightblue" points="1097.47,-194.001 1105.88,-187.558 1095.29,-187.35 1097.47,-194.001"/>
</g>
<!-- Node17&#45;&gt;Node9 -->
<g id="edge19" class="edge"><title>Node17&#45;&gt;Node9</title>
<path fill="none" stroke="midnightblue" d="M795.074,-284.94C715.916,-273.962 586.679,-256.037 506.468,-244.912"/>
<polygon fill="midnightblue" stroke="midnightblue" points="506.839,-241.43 496.453,-243.523 505.877,-248.364 506.839,-241.43"/>
</g>
<!-- Node18 -->
<g id="node18" class="node"><title>Node18</title>
<g id="a_node18"><a xlink:href="RadiumEngine_8hpp.html" target="_top" xlink:title="Engine/RadiumEngine.hpp">
<polygon fill="white" stroke="black" points="563.5,-224.5 563.5,-243.5 704.5,-243.5 704.5,-224.5 563.5,-224.5"/>
<text text-anchor="middle" x="634" y="-231.5" font-family="Helvetica,sans-Serif" font-size="10.00">Engine/RadiumEngine.hpp</text>
</a>
</g>
</g>
<!-- Node17&#45;&gt;Node18 -->
<g id="edge20" class="edge"><title>Node17&#45;&gt;Node18</title>
<path fill="none" stroke="midnightblue" d="M809.784,-280.475C769.238,-269.986 714.545,-255.837 676.993,-246.122"/>
<polygon fill="midnightblue" stroke="midnightblue" points="677.44,-242.622 666.882,-243.506 675.686,-249.399 677.44,-242.622"/>
</g>
<!-- Node23 -->
<g id="node23" class="node"><title>Node23</title>
<g id="a_node23"><a xlink:href="TreeModel_8hpp.html" target="_top" xlink:title="GuiBase/TreeModel/TreeModel.hpp">
<polygon fill="white" stroke="black" points="774.5,-224.5 774.5,-243.5 953.5,-243.5 953.5,-224.5 774.5,-224.5"/>
<text text-anchor="middle" x="864" y="-231.5" font-family="Helvetica,sans-Serif" font-size="10.00">GuiBase/TreeModel/TreeModel.hpp</text>
</a>
</g>
</g>
<!-- Node17&#45;&gt;Node23 -->
<g id="edge29" class="edge"><title>Node17&#45;&gt;Node23</title>
<path fill="none" stroke="midnightblue" d="M864,-280.399C864,-272.466 864,-262.458 864,-253.858"/>
<polygon fill="midnightblue" stroke="midnightblue" points="867.5,-253.658 864,-243.658 860.5,-253.658 867.5,-253.658"/>
</g>
<!-- Node18&#45;&gt;Node10 -->
<g id="edge21" class="edge"><title>Node18&#45;&gt;Node10</title>
<path fill="none" stroke="midnightblue" d="M602.468,-224.444C568.408,-215.201 513.994,-200.436 476.485,-190.257"/>
<polygon fill="midnightblue" stroke="midnightblue" points="476.952,-186.758 466.385,-187.516 475.119,-193.513 476.952,-186.758"/>
</g>
<!-- Node18&#45;&gt;Node14 -->
<g id="edge27" class="edge"><title>Node18&#45;&gt;Node14</title>
<path fill="none" stroke="midnightblue" d="M571.018,-224.483C518.992,-216.971 443.063,-204.912 368.327,-188.094"/>
<polygon fill="midnightblue" stroke="midnightblue" points="368.799,-184.611 358.271,-185.8 367.242,-191.436 368.799,-184.611"/>
</g>
<!-- Node18&#45;&gt;Node15 -->
<g id="edge28" class="edge"><title>Node18&#45;&gt;Node15</title>
<path fill="none" stroke="midnightblue" d="M651.352,-224.324C668.672,-215.664 695.515,-202.242 715.502,-192.249"/>
<polygon fill="midnightblue" stroke="midnightblue" points="717.312,-195.257 724.691,-187.655 714.181,-188.996 717.312,-195.257"/>
</g>
<!-- Node19 -->
<g id="node19" class="node"><title>Node19</title>
<g id="a_node19"><a xlink:href="Singleton_8hpp.html" target="_top" xlink:title="Core/Utils/Singleton.hpp">
<polygon fill="white" stroke="black" points="568,-168.5 568,-187.5 700,-187.5 700,-168.5 568,-168.5"/>
<text text-anchor="middle" x="634" y="-175.5" font-family="Helvetica,sans-Serif" font-size="10.00">Core/Utils/Singleton.hpp</text>
</a>
</g>
</g>
<!-- Node18&#45;&gt;Node19 -->
<g id="edge22" class="edge"><title>Node18&#45;&gt;Node19</title>
<path fill="none" stroke="midnightblue" d="M634,-224.083C634,-217.006 634,-206.861 634,-197.986"/>
<polygon fill="midnightblue" stroke="midnightblue" points="637.5,-197.751 634,-187.751 630.5,-197.751 637.5,-197.751"/>
</g>
<!-- Node21 -->
<g id="node21" class="node"><title>Node21</title>
<polygon fill="white" stroke="#bfbfbf" points="512,-168.5 512,-187.5 550,-187.5 550,-168.5 512,-168.5"/>
<text text-anchor="middle" x="531" y="-175.5" font-family="Helvetica,sans-Serif" font-size="10.00">map</text>
</g>
<!-- Node18&#45;&gt;Node21 -->
<g id="edge25" class="edge"><title>Node18&#45;&gt;Node21</title>
<path fill="none" stroke="midnightblue" d="M617.451,-224.324C601.008,-215.703 575.565,-202.364 556.532,-192.386"/>
<polygon fill="midnightblue" stroke="midnightblue" points="557.989,-189.198 547.508,-187.655 554.739,-195.398 557.989,-189.198"/>
</g>
<!-- Node22 -->
<g id="node22" class="node"><title>Node22</title>
<polygon fill="white" stroke="#bfbfbf" points="783.5,-168.5 783.5,-187.5 840.5,-187.5 840.5,-168.5 783.5,-168.5"/>
<text text-anchor="middle" x="812" y="-175.5" font-family="Helvetica,sans-Serif" font-size="10.00">memory</text>
</g>
<!-- Node18&#45;&gt;Node22 -->
<g id="edge26" class="edge"><title>Node18&#45;&gt;Node22</title>
<path fill="none" stroke="midnightblue" d="M662.205,-224.444C692.41,-215.28 740.511,-200.688 774.029,-190.519"/>
<polygon fill="midnightblue" stroke="midnightblue" points="775.374,-193.769 783.927,-187.516 773.342,-187.07 775.374,-193.769"/>
</g>
<!-- Node20 -->
<g id="node20" class="node"><title>Node20</title>
<g id="a_node20"><a xlink:href="RaCore_8hpp.html" target="_top" xlink:title="Core/RaCore.hpp">
<polygon fill="white" stroke="black" points="585,-112.5 585,-131.5 683,-131.5 683,-112.5 585,-112.5"/>
<text text-anchor="middle" x="634" y="-119.5" font-family="Helvetica,sans-Serif" font-size="10.00">Core/RaCore.hpp</text>
</a>
</g>
</g>
<!-- Node19&#45;&gt;Node20 -->
<g id="edge23" class="edge"><title>Node19&#45;&gt;Node20</title>
<path fill="none" stroke="midnightblue" d="M634,-168.083C634,-161.006 634,-150.861 634,-141.986"/>
<polygon fill="midnightblue" stroke="midnightblue" points="637.5,-141.751 634,-131.751 630.5,-141.751 637.5,-141.751"/>
</g>
<!-- Node20&#45;&gt;Node3 -->
<g id="edge24" class="edge"><title>Node20&#45;&gt;Node3</title>
<path fill="none" stroke="midnightblue" d="M634,-112.083C634,-105.006 634,-94.8611 634,-85.9865"/>
<polygon fill="midnightblue" stroke="midnightblue" points="637.5,-85.751 634,-75.7511 630.5,-85.7511 637.5,-85.751"/>
</g>
<!-- Node23&#45;&gt;Node2 -->
<g id="edge30" class="edge"><title>Node23&#45;&gt;Node2</title>
<path fill="none" stroke="midnightblue" d="M906.624,-224.444C953.747,-214.984 1029.69,-199.738 1080.46,-189.547"/>
<polygon fill="midnightblue" stroke="midnightblue" points="1081.46,-192.916 1090.58,-187.516 1080.08,-186.053 1081.46,-192.916"/>
</g>
<!-- Node23&#45;&gt;Node15 -->
<g id="edge32" class="edge"><title>Node23&#45;&gt;Node15</title>
<path fill="none" stroke="midnightblue" d="M844.669,-224.444C824.68,-215.596 793.257,-201.687 770.436,-191.586"/>
<polygon fill="midnightblue" stroke="midnightblue" points="771.802,-188.363 761.241,-187.516 768.968,-194.764 771.802,-188.363"/>
</g>
<!-- Node23&#45;&gt;Node22 -->
<g id="edge31" class="edge"><title>Node23&#45;&gt;Node22</title>
<path fill="none" stroke="midnightblue" d="M855.413,-224.083C847.841,-216.22 836.622,-204.569 827.486,-195.081"/>
<polygon fill="midnightblue" stroke="midnightblue" points="829.885,-192.527 820.427,-187.751 824.842,-197.382 829.885,-192.527"/>
</g>
<!-- Node24 -->
<g id="node24" class="node"><title>Node24</title>
<polygon fill="white" stroke="#bfbfbf" points="858.5,-168.5 858.5,-187.5 973.5,-187.5 973.5,-168.5 858.5,-168.5"/>
<text text-anchor="middle" x="916" y="-175.5" font-family="Helvetica,sans-Serif" font-size="10.00">QAbstractItemModel</text>
</g>
<!-- Node23&#45;&gt;Node24 -->
<g id="edge33" class="edge"><title>Node23&#45;&gt;Node24</title>
<path fill="none" stroke="midnightblue" d="M872.587,-224.083C880.159,-216.22 891.378,-204.569 900.514,-195.081"/>
<polygon fill="midnightblue" stroke="midnightblue" points="903.158,-197.382 907.573,-187.751 898.115,-192.527 903.158,-197.382"/>
</g>
<!-- Node25 -->
<g id="node25" class="node"><title>Node25</title>
<polygon fill="white" stroke="#bfbfbf" points="991,-168.5 991,-187.5 1049,-187.5 1049,-168.5 991,-168.5"/>
<text text-anchor="middle" x="1020" y="-175.5" font-family="Helvetica,sans-Serif" font-size="10.00">QVariant</text>
</g>
<!-- Node23&#45;&gt;Node25 -->
<g id="edge34" class="edge"><title>Node23&#45;&gt;Node25</title>
<path fill="none" stroke="midnightblue" d="M888.719,-224.444C914.848,-215.399 956.259,-201.064 985.576,-190.916"/>
<polygon fill="midnightblue" stroke="midnightblue" points="987.092,-194.095 995.397,-187.516 984.802,-187.48 987.092,-194.095"/>
</g>
</g>
</svg>
