<?xml version="1.0" encoding="UTF-8" standalone="no"?>
<!DOCTYPE svg PUBLIC "-//W3C//DTD SVG 1.1//EN"
 "http://www.w3.org/Graphics/SVG/1.1/DTD/svg11.dtd">
<!-- Generated by graphviz version 2.38.0 (20140413.2041)
 -->
<!-- Title: /home/travis/build/STORM&#45;IRIT/Radium&#45;Engine/src/Engine/Renderer/RenderTechnique/ShaderConfigFactory.cpp Pages: 1 -->
<svg width="711pt" height="363pt"
 viewBox="0.00 0.00 710.50 363.00" xmlns="http://www.w3.org/2000/svg" xmlns:xlink="http://www.w3.org/1999/xlink">
<g id="graph0" class="graph" transform="scale(1 1) rotate(0) translate(4 359)">
<title>/home/travis/build/STORM&#45;IRIT/Radium&#45;Engine/src/Engine/Renderer/RenderTechnique/ShaderConfigFactory.cpp</title>
<polygon fill="white" stroke="none" points="-4,4 -4,-359 706.5,-359 706.5,4 -4,4"/>
<!-- Node1 -->
<g id="node1" class="node"><title>Node1</title>
<polygon fill="#bfbfbf" stroke="black" points="360.5,-302.5 360.5,-354.5 558.5,-354.5 558.5,-302.5 360.5,-302.5"/>
<text text-anchor="start" x="368.5" y="-342.5" font-family="Helvetica,sans-Serif" font-size="10.00">/home/travis/build</text>
<text text-anchor="start" x="368.5" y="-331.5" font-family="Helvetica,sans-Serif" font-size="10.00">/STORM&#45;IRIT/Radium&#45;Engine</text>
<text text-anchor="start" x="368.5" y="-320.5" font-family="Helvetica,sans-Serif" font-size="10.00">/src/Engine/Renderer/RenderTechnique</text>
<text text-anchor="middle" x="459.5" y="-309.5" font-family="Helvetica,sans-Serif" font-size="10.00">/ShaderConfigFactory.cpp</text>
</g>
<!-- Node2 -->
<g id="node2" class="node"><title>Node2</title>
<g id="a_node2"><a xlink:href="ShaderConfigFactory_8hpp.html" target="_top" xlink:title="Engine/Renderer/RenderTechnique\l/ShaderConfigFactory.hpp">
<polygon fill="white" stroke="black" points="244.5,-235.5 244.5,-265.5 422.5,-265.5 422.5,-235.5 244.5,-235.5"/>
<text text-anchor="start" x="252.5" y="-253.5" font-family="Helvetica,sans-Serif" font-size="10.00">Engine/Renderer/RenderTechnique</text>
<text text-anchor="middle" x="333.5" y="-242.5" font-family="Helvetica,sans-Serif" font-size="10.00">/ShaderConfigFactory.hpp</text>
</a>
</g>
</g>
<!-- Node1&#45;&gt;Node2 -->
<g id="edge1" class="edge"><title>Node1&#45;&gt;Node2</title>
<path fill="none" stroke="midnightblue" d="M417.894,-302.404C400.996,-292.212 381.768,-280.614 365.938,-271.066"/>
<polygon fill="midnightblue" stroke="midnightblue" points="367.424,-267.875 357.053,-265.707 363.808,-273.869 367.424,-267.875"/>
</g>
<!-- Node16 -->
<g id="node16" class="node"><title>Node16</title>
<polygon fill="white" stroke="#bfbfbf" points="440.5,-241 440.5,-260 478.5,-260 478.5,-241 440.5,-241"/>
<text text-anchor="middle" x="459.5" y="-248" font-family="Helvetica,sans-Serif" font-size="10.00">map</text>
</g>
<!-- Node1&#45;&gt;Node16 -->
<g id="edge16" class="edge"><title>Node1&#45;&gt;Node16</title>
<path fill="none" stroke="midnightblue" d="M459.5,-302.193C459.5,-291.765 459.5,-279.896 459.5,-270.266"/>
<polygon fill="midnightblue" stroke="midnightblue" points="463,-270.209 459.5,-260.209 456,-270.209 463,-270.209"/>
</g>
<!-- Node17 -->
<g id="node17" class="node"><title>Node17</title>
<g id="a_node17"><a xlink:href="Log_8hpp.html" target="_top" xlink:title="Core/Utils/Log.hpp">
<polygon fill="white" stroke="black" points="454.5,-174 454.5,-193 558.5,-193 558.5,-174 454.5,-174"/>
<text text-anchor="middle" x="506.5" y="-181" font-family="Helvetica,sans-Serif" font-size="10.00">Core/Utils/Log.hpp</text>
</a>
</g>
</g>
<!-- Node1&#45;&gt;Node17 -->
<g id="edge17" class="edge"><title>Node1&#45;&gt;Node17</title>
<path fill="none" stroke="midnightblue" d="M472.375,-302.227C477.586,-291.289 483.341,-278.216 487.5,-266 494.652,-244.991 500.034,-220.038 503.211,-203.326"/>
<polygon fill="midnightblue" stroke="midnightblue" points="506.703,-203.689 505.054,-193.223 499.816,-202.433 506.703,-203.689"/>
</g>
<!-- Node3 -->
<g id="node3" class="node"><title>Node3</title>
<polygon fill="white" stroke="#bfbfbf" points="357.5,-112.5 357.5,-131.5 401.5,-131.5 401.5,-112.5 357.5,-112.5"/>
<text text-anchor="middle" x="379.5" y="-119.5" font-family="Helvetica,sans-Serif" font-size="10.00">string</text>
</g>
<!-- Node2&#45;&gt;Node3 -->
<g id="edge2" class="edge"><title>Node2&#45;&gt;Node3</title>
<path fill="none" stroke="midnightblue" d="M342.275,-235.362C348.104,-225.476 355.565,-211.801 360.5,-199 367.823,-180.007 373.078,-157.244 376.179,-141.612"/>
<polygon fill="midnightblue" stroke="midnightblue" points="379.645,-142.12 378.056,-131.645 372.766,-140.825 379.645,-142.12"/>
</g>
<!-- Node4 -->
<g id="node4" class="node"><title>Node4</title>
<g id="a_node4"><a xlink:href="ShaderConfiguration_8hpp.html" target="_top" xlink:title="Engine/Renderer/RenderTechnique\l/ShaderConfiguration.hpp">
<polygon fill="white" stroke="black" points="173.5,-168.5 173.5,-198.5 351.5,-198.5 351.5,-168.5 173.5,-168.5"/>
<text text-anchor="start" x="181.5" y="-186.5" font-family="Helvetica,sans-Serif" font-size="10.00">Engine/Renderer/RenderTechnique</text>
<text text-anchor="middle" x="262.5" y="-175.5" font-family="Helvetica,sans-Serif" font-size="10.00">/ShaderConfiguration.hpp</text>
</a>
</g>
</g>
<!-- Node2&#45;&gt;Node4 -->
<g id="edge3" class="edge"><title>Node2&#45;&gt;Node4</title>
<path fill="none" stroke="midnightblue" d="M318.094,-235.396C308.511,-226.623 296.015,-215.183 285.298,-205.371"/>
<polygon fill="midnightblue" stroke="midnightblue" points="287.615,-202.748 277.876,-198.577 282.888,-207.911 287.615,-202.748"/>
</g>
<!-- Node4&#45;&gt;Node3 -->
<g id="edge14" class="edge"><title>Node4&#45;&gt;Node3</title>
<path fill="none" stroke="midnightblue" d="M290.227,-168.399C309.332,-158.684 334.558,-145.855 353.32,-136.314"/>
<polygon fill="midnightblue" stroke="midnightblue" points="355.148,-139.311 362.475,-131.658 351.975,-133.071 355.148,-139.311"/>
</g>
<!-- Node5 -->
<g id="node5" class="node"><title>Node5</title>
<g id="a_node5"><a xlink:href="RaEngine_8hpp.html" target="_top" xlink:title="Engine/RaEngine.hpp">
<polygon fill="white" stroke="black" points="65,-112.5 65,-131.5 182,-131.5 182,-112.5 65,-112.5"/>
<text text-anchor="middle" x="123.5" y="-119.5" font-family="Helvetica,sans-Serif" font-size="10.00">Engine/RaEngine.hpp</text>
</a>
</g>
</g>
<!-- Node4&#45;&gt;Node5 -->
<g id="edge4" class="edge"><title>Node4&#45;&gt;Node5</title>
<path fill="none" stroke="midnightblue" d="M229.559,-168.399C206.341,-158.461 175.514,-145.265 153.081,-135.662"/>
<polygon fill="midnightblue" stroke="midnightblue" points="154.296,-132.375 143.726,-131.658 151.542,-138.811 154.296,-132.375"/>
</g>
<!-- Node12 -->
<g id="node12" class="node"><title>Node12</title>
<polygon fill="white" stroke="#bfbfbf" points="200,-112.5 200,-131.5 241,-131.5 241,-112.5 200,-112.5"/>
<text text-anchor="middle" x="220.5" y="-119.5" font-family="Helvetica,sans-Serif" font-size="10.00">array</text>
</g>
<!-- Node4&#45;&gt;Node12 -->
<g id="edge11" class="edge"><title>Node4&#45;&gt;Node12</title>
<path fill="none" stroke="midnightblue" d="M252.547,-168.399C246.506,-159.842 238.762,-148.871 232.399,-139.857"/>
<polygon fill="midnightblue" stroke="midnightblue" points="235.238,-137.809 226.611,-131.658 229.519,-141.846 235.238,-137.809"/>
</g>
<!-- Node13 -->
<g id="node13" class="node"><title>Node13</title>
<polygon fill="white" stroke="#bfbfbf" points="259.5,-112.5 259.5,-131.5 289.5,-131.5 289.5,-112.5 259.5,-112.5"/>
<text text-anchor="middle" x="274.5" y="-119.5" font-family="Helvetica,sans-Serif" font-size="10.00">list</text>
</g>
<!-- Node4&#45;&gt;Node13 -->
<g id="edge12" class="edge"><title>Node4&#45;&gt;Node13</title>
<path fill="none" stroke="midnightblue" d="M265.344,-168.399C266.962,-160.377 269.008,-150.233 270.755,-141.569"/>
<polygon fill="midnightblue" stroke="midnightblue" points="274.208,-142.152 272.754,-131.658 267.346,-140.768 274.208,-142.152"/>
</g>
<!-- Node14 -->
<g id="node14" class="node"><title>Node14</title>
<polygon fill="white" stroke="#bfbfbf" points="307.5,-112.5 307.5,-131.5 339.5,-131.5 339.5,-112.5 307.5,-112.5"/>
<text text-anchor="middle" x="323.5" y="-119.5" font-family="Helvetica,sans-Serif" font-size="10.00">set</text>
</g>
<!-- Node4&#45;&gt;Node14 -->
<g id="edge13" class="edge"><title>Node4&#45;&gt;Node14</title>
<path fill="none" stroke="midnightblue" d="M276.956,-168.399C286.094,-159.486 297.919,-147.952 307.362,-138.741"/>
<polygon fill="midnightblue" stroke="midnightblue" points="309.909,-141.146 314.624,-131.658 305.022,-136.135 309.909,-141.146"/>
</g>
<!-- Node15 -->
<g id="node15" class="node"><title>Node15</title>
<polygon fill="white" stroke="#bfbfbf" points="0,-112.5 0,-131.5 47,-131.5 47,-112.5 0,-112.5"/>
<text text-anchor="middle" x="23.5" y="-119.5" font-family="Helvetica,sans-Serif" font-size="10.00">vector</text>
</g>
<!-- Node4&#45;&gt;Node15 -->
<g id="edge15" class="edge"><title>Node4&#45;&gt;Node15</title>
<path fill="none" stroke="midnightblue" d="M202.576,-168.465C163.515,-159.181 111.205,-146.497 57.0186,-132.342"/>
<polygon fill="midnightblue" stroke="midnightblue" points="57.8014,-128.929 47.2405,-129.776 56.025,-135.7 57.8014,-128.929"/>
</g>
<!-- Node6 -->
<g id="node6" class="node"><title>Node6</title>
<g id="a_node6"><a xlink:href="CoreMacros_8hpp.html" target="_top" xlink:title="Core/CoreMacros.hpp">
<polygon fill="white" stroke="black" points="474.5,-56.5 474.5,-75.5 594.5,-75.5 594.5,-56.5 474.5,-56.5"/>
<text text-anchor="middle" x="534.5" y="-63.5" font-family="Helvetica,sans-Serif" font-size="10.00">Core/CoreMacros.hpp</text>
</a>
</g>
</g>
<!-- Node5&#45;&gt;Node6 -->
<g id="edge5" class="edge"><title>Node5&#45;&gt;Node6</title>
<path fill="none" stroke="midnightblue" d="M182.325,-113.087C185.088,-112.718 187.824,-112.355 190.5,-112 285.255,-99.4383 394.724,-85.1581 464.253,-76.1172"/>
<polygon fill="midnightblue" stroke="midnightblue" points="464.75,-79.5821 474.215,-74.8221 463.847,-72.6405 464.75,-79.5821"/>
</g>
<!-- Node7 -->
<g id="node7" class="node"><title>Node7</title>
<polygon fill="white" stroke="#bfbfbf" points="576.5,-0.5 576.5,-19.5 628.5,-19.5 628.5,-0.5 576.5,-0.5"/>
<text text-anchor="middle" x="602.5" y="-7.5" font-family="Helvetica,sans-Serif" font-size="10.00">cassert</text>
</g>
<!-- Node6&#45;&gt;Node7 -->
<g id="edge6" class="edge"><title>Node6&#45;&gt;Node7</title>
<path fill="none" stroke="midnightblue" d="M545.425,-56.324C555.675,-48.1849 571.221,-35.8395 583.501,-26.0874"/>
<polygon fill="midnightblue" stroke="midnightblue" points="585.721,-28.7937 591.376,-19.8339 581.368,-23.3119 585.721,-28.7937"/>
</g>
<!-- Node8 -->
<g id="node8" class="node"><title>Node8</title>
<polygon fill="white" stroke="#bfbfbf" points="370,-0.5 370,-19.5 415,-19.5 415,-0.5 370,-0.5"/>
<text text-anchor="middle" x="392.5" y="-7.5" font-family="Helvetica,sans-Serif" font-size="10.00">cstdio</text>
</g>
<!-- Node6&#45;&gt;Node8 -->
<g id="edge7" class="edge"><title>Node6&#45;&gt;Node8</title>
<path fill="none" stroke="midnightblue" d="M512,-56.4435C488.423,-47.4776 451.178,-33.314 424.536,-23.1827"/>
<polygon fill="midnightblue" stroke="midnightblue" points="425.486,-19.7995 414.895,-19.5164 422.998,-26.3424 425.486,-19.7995"/>
</g>
<!-- Node9 -->
<g id="node9" class="node"><title>Node9</title>
<polygon fill="white" stroke="#bfbfbf" points="433,-0.5 433,-19.5 492,-19.5 492,-0.5 433,-0.5"/>
<text text-anchor="middle" x="462.5" y="-7.5" font-family="Helvetica,sans-Serif" font-size="10.00">iostream</text>
</g>
<!-- Node6&#45;&gt;Node9 -->
<g id="edge8" class="edge"><title>Node6&#45;&gt;Node9</title>
<path fill="none" stroke="midnightblue" d="M522.932,-56.324C512.08,-48.1849 495.619,-35.8395 482.617,-26.0874"/>
<polygon fill="midnightblue" stroke="midnightblue" points="484.379,-23.0339 474.279,-19.8339 480.179,-28.6339 484.379,-23.0339"/>
</g>
<!-- Node10 -->
<g id="node10" class="node"><title>Node10</title>
<polygon fill="white" stroke="#bfbfbf" points="646.5,-0.5 646.5,-19.5 702.5,-19.5 702.5,-0.5 646.5,-0.5"/>
<text text-anchor="middle" x="674.5" y="-7.5" font-family="Helvetica,sans-Serif" font-size="10.00">sstream</text>
</g>
<!-- Node6&#45;&gt;Node10 -->
<g id="edge9" class="edge"><title>Node6&#45;&gt;Node10</title>
<path fill="none" stroke="midnightblue" d="M556.683,-56.4435C579.928,-47.4776 616.649,-33.314 642.915,-23.1827"/>
<polygon fill="midnightblue" stroke="midnightblue" points="644.35,-26.3807 652.42,-19.5164 641.831,-19.8497 644.35,-26.3807"/>
</g>
<!-- Node11 -->
<g id="node11" class="node"><title>Node11</title>
<polygon fill="white" stroke="#bfbfbf" points="510.5,-0.5 510.5,-19.5 558.5,-19.5 558.5,-0.5 510.5,-0.5"/>
<text text-anchor="middle" x="534.5" y="-7.5" font-family="Helvetica,sans-Serif" font-size="10.00">thread</text>
</g>
<!-- Node6&#45;&gt;Node11 -->
<g id="edge10" class="edge"><title>Node6&#45;&gt;Node11</title>
<path fill="none" stroke="midnightblue" d="M534.5,-56.083C534.5,-49.0059 534.5,-38.8611 534.5,-29.9865"/>
<polygon fill="midnightblue" stroke="midnightblue" points="538,-29.751 534.5,-19.7511 531,-29.7511 538,-29.751"/>
</g>
<!-- Node17&#45;&gt;Node3 -->
<g id="edge23" class="edge"><title>Node17&#45;&gt;Node3</title>
<path fill="none" stroke="midnightblue" d="M488.304,-173.975C466.991,-163.99 431.469,-147.348 406.837,-135.807"/>
<polygon fill="midnightblue" stroke="midnightblue" points="408.203,-132.582 397.662,-131.509 405.233,-138.921 408.203,-132.582"/>
</g>
<!-- Node17&#45;&gt;Node10 -->
<g id="edge21" class="edge"><title>Node17&#45;&gt;Node10</title>
<path fill="none" stroke="midnightblue" d="M558.614,-178.283C591.315,-172.798 631.661,-160.309 655.5,-132 679.959,-102.954 679.54,-55.5539 677.049,-29.5388"/>
<polygon fill="midnightblue" stroke="midnightblue" points="680.516,-29.0505 675.881,-19.5233 673.563,-29.8614 680.516,-29.0505"/>
</g>
<!-- Node18 -->
<g id="node18" class="node"><title>Node18</title>
<g id="a_node18"><a xlink:href="RaCore_8hpp.html" target="_top" xlink:title="Core/RaCore.hpp">
<polygon fill="white" stroke="black" points="548.5,-112.5 548.5,-131.5 646.5,-131.5 646.5,-112.5 548.5,-112.5"/>
<text text-anchor="middle" x="597.5" y="-119.5" font-family="Helvetica,sans-Serif" font-size="10.00">Core/RaCore.hpp</text>
</a>
</g>
</g>
<!-- Node17&#45;&gt;Node18 -->
<g id="edge18" class="edge"><title>Node17&#45;&gt;Node18</title>
<path fill="none" stroke="midnightblue" d="M519.538,-173.975C534.269,-164.343 558.473,-148.517 576.009,-137.052"/>
<polygon fill="midnightblue" stroke="midnightblue" points="578.032,-139.911 584.486,-131.509 574.201,-134.052 578.032,-139.911"/>
</g>
<!-- Node19 -->
<g id="node19" class="node"><title>Node19</title>
<polygon fill="white" stroke="#bfbfbf" points="419.5,-112.5 419.5,-131.5 463.5,-131.5 463.5,-112.5 419.5,-112.5"/>
<text text-anchor="middle" x="441.5" y="-119.5" font-family="Helvetica,sans-Serif" font-size="10.00">ctime</text>
</g>
<!-- Node17&#45;&gt;Node19 -->
<g id="edge20" class="edge"><title>Node17&#45;&gt;Node19</title>
<path fill="none" stroke="midnightblue" d="M497.187,-173.975C487.051,-164.697 470.636,-149.671 458.248,-138.331"/>
<polygon fill="midnightblue" stroke="midnightblue" points="460.535,-135.68 450.796,-131.509 455.809,-140.843 460.535,-135.68"/>
</g>
<!-- Node20 -->
<g id="node20" class="node"><title>Node20</title>
<polygon fill="white" stroke="#bfbfbf" points="482,-112.5 482,-131.5 531,-131.5 531,-112.5 482,-112.5"/>
<text text-anchor="middle" x="506.5" y="-119.5" font-family="Helvetica,sans-Serif" font-size="10.00">stdio.h</text>
</g>
<!-- Node17&#45;&gt;Node20 -->
<g id="edge22" class="edge"><title>Node17&#45;&gt;Node20</title>
<path fill="none" stroke="midnightblue" d="M506.5,-173.975C506.5,-165.58 506.5,-152.481 506.5,-141.663"/>
<polygon fill="midnightblue" stroke="midnightblue" points="510,-141.509 506.5,-131.509 503,-141.509 510,-141.509"/>
</g>
<!-- Node18&#45;&gt;Node6 -->
<g id="edge19" class="edge"><title>Node18&#45;&gt;Node6</title>
<path fill="none" stroke="midnightblue" d="M587.378,-112.324C577.974,-104.263 563.756,-92.0765 552.431,-82.3695"/>
<polygon fill="midnightblue" stroke="midnightblue" points="554.677,-79.6844 544.806,-75.8339 550.121,-84.9993 554.677,-79.6844"/>
</g>
</g>
</svg>
