<?xml version="1.0" encoding="UTF-8" standalone="no"?>
<!DOCTYPE svg PUBLIC "-//W3C//DTD SVG 1.1//EN"
 "http://www.w3.org/Graphics/SVG/1.1/DTD/svg11.dtd">
<!-- Generated by graphviz version 2.38.0 (20140413.2041)
 -->
<!-- Title: /home/travis/build/STORM&#45;IRIT/Radium&#45;Engine/src/Engine/Renderer/RenderTechnique/ShaderProgram.cpp Pages: 1 -->
<svg width="1682pt" height="363pt"
 viewBox="0.00 0.00 1681.77 363.00" xmlns="http://www.w3.org/2000/svg" xmlns:xlink="http://www.w3.org/1999/xlink">
<g id="graph0" class="graph" transform="scale(1 1) rotate(0) translate(4 359)">
<title>/home/travis/build/STORM&#45;IRIT/Radium&#45;Engine/src/Engine/Renderer/RenderTechnique/ShaderProgram.cpp</title>
<polygon fill="white" stroke="none" points="-4,4 -4,-359 1677.77,-359 1677.77,4 -4,4"/>
<!-- Node1 -->
<g id="node1" class="node"><title>Node1</title>
<polygon fill="#bfbfbf" stroke="black" points="889.767,-302.5 889.767,-354.5 1087.77,-354.5 1087.77,-302.5 889.767,-302.5"/>
<text text-anchor="start" x="897.767" y="-342.5" font-family="Helvetica,sans-Serif" font-size="10.00">/home/travis/build</text>
<text text-anchor="start" x="897.767" y="-331.5" font-family="Helvetica,sans-Serif" font-size="10.00">/STORM&#45;IRIT/Radium&#45;Engine</text>
<text text-anchor="start" x="897.767" y="-320.5" font-family="Helvetica,sans-Serif" font-size="10.00">/src/Engine/Renderer/RenderTechnique</text>
<text text-anchor="middle" x="988.767" y="-309.5" font-family="Helvetica,sans-Serif" font-size="10.00">/ShaderProgram.cpp</text>
</g>
<!-- Node2 -->
<g id="node2" class="node"><title>Node2</title>
<g id="a_node2"><a xlink:href="ShaderProgram_8hpp.html" target="_top" xlink:title="Engine/Renderer/RenderTechnique\l/ShaderProgram.hpp">
<polygon fill="white" stroke="black" points="99.7668,-235.5 99.7668,-265.5 277.767,-265.5 277.767,-235.5 99.7668,-235.5"/>
<text text-anchor="start" x="107.767" y="-253.5" font-family="Helvetica,sans-Serif" font-size="10.00">Engine/Renderer/RenderTechnique</text>
<text text-anchor="middle" x="188.767" y="-242.5" font-family="Helvetica,sans-Serif" font-size="10.00">/ShaderProgram.hpp</text>
</a>
</g>
</g>
<!-- Node1&#45;&gt;Node2 -->
<g id="edge1" class="edge"><title>Node1&#45;&gt;Node2</title>
<path fill="none" stroke="midnightblue" d="M889.759,-320.692C755.715,-311.056 508.836,-291.83 288.094,-266.113"/>
<polygon fill="midnightblue" stroke="midnightblue" points="288.274,-262.611 277.935,-264.923 287.46,-269.563 288.274,-262.611"/>
</g>
<!-- Node25 -->
<g id="node25" class="node"><title>Node25</title>
<g id="a_node25"><a xlink:href="StringUtils_8hpp.html" target="_top" xlink:title="Core/Utils/StringUtils.hpp">
<polygon fill="white" stroke="black" points="451.267,-174 451.267,-193 588.267,-193 588.267,-174 451.267,-174"/>
<text text-anchor="middle" x="519.767" y="-181" font-family="Helvetica,sans-Serif" font-size="10.00">Core/Utils/StringUtils.hpp</text>
</a>
</g>
</g>
<!-- Node1&#45;&gt;Node25 -->
<g id="edge28" class="edge"><title>Node1&#45;&gt;Node25</title>
<path fill="none" stroke="midnightblue" d="M889.65,-328.151C667.386,-328.573 144.362,-323.391 90.7668,-266 14.529,-184.362 -155.554,-266.121 403.767,-199 416.249,-197.502 429.481,-195.88 442.371,-194.282"/>
<polygon fill="midnightblue" stroke="midnightblue" points="443.122,-197.716 452.614,-193.008 442.258,-190.769 443.122,-197.716"/>
</g>
<!-- Node26 -->
<g id="node26" class="node"><title>Node26</title>
<polygon fill="white" stroke="#bfbfbf" points="296.267,-241 296.267,-260 409.267,-260 409.267,-241 296.267,-241"/>
<text text-anchor="middle" x="352.767" y="-248" font-family="Helvetica,sans-Serif" font-size="10.00">globjects/base/File.h</text>
</g>
<!-- Node1&#45;&gt;Node26 -->
<g id="edge32" class="edge"><title>Node1&#45;&gt;Node26</title>
<path fill="none" stroke="midnightblue" d="M889.539,-320.21C775.279,-311.03 582.18,-293.105 417.767,-266 411.328,-264.939 404.57,-263.64 397.945,-262.261"/>
<polygon fill="midnightblue" stroke="midnightblue" points="398.223,-258.741 387.71,-260.051 396.745,-265.583 398.223,-258.741"/>
</g>
<!-- Node27 -->
<g id="node27" class="node"><title>Node27</title>
<polygon fill="white" stroke="#bfbfbf" points="427.267,-235.5 427.267,-265.5 572.267,-265.5 572.267,-235.5 427.267,-235.5"/>
<text text-anchor="start" x="435.267" y="-253.5" font-family="Helvetica,sans-Serif" font-size="10.00">globjects/base/StaticString</text>
<text text-anchor="middle" x="499.767" y="-242.5" font-family="Helvetica,sans-Serif" font-size="10.00">Source.h</text>
</g>
<!-- Node1&#45;&gt;Node27 -->
<g id="edge33" class="edge"><title>Node1&#45;&gt;Node27</title>
<path fill="none" stroke="midnightblue" d="M889.713,-313.348C809.439,-301.697 693.133,-284.409 582.599,-266.281"/>
<polygon fill="midnightblue" stroke="midnightblue" points="583.044,-262.807 572.608,-264.637 581.908,-269.714 583.044,-262.807"/>
</g>
<!-- Node28 -->
<g id="node28" class="node"><title>Node28</title>
<polygon fill="white" stroke="#bfbfbf" points="590.267,-241 590.267,-260 725.267,-260 725.267,-241 590.267,-241"/>
<text text-anchor="middle" x="657.767" y="-248" font-family="Helvetica,sans-Serif" font-size="10.00">globjects/NamedString.h</text>
</g>
<!-- Node1&#45;&gt;Node28 -->
<g id="edge34" class="edge"><title>Node1&#45;&gt;Node28</title>
<path fill="none" stroke="midnightblue" d="M889.456,-304.697C828.299,-290.656 752.706,-273.299 704.849,-262.31"/>
<polygon fill="midnightblue" stroke="midnightblue" points="705.603,-258.893 695.073,-260.066 704.036,-265.715 705.603,-258.893"/>
</g>
<!-- Node29 -->
<g id="node29" class="node"><title>Node29</title>
<polygon fill="white" stroke="#bfbfbf" points="743.267,-241 743.267,-260 856.267,-260 856.267,-241 743.267,-241"/>
<text text-anchor="middle" x="799.767" y="-248" font-family="Helvetica,sans-Serif" font-size="10.00">globjects/Program.h</text>
</g>
<!-- Node1&#45;&gt;Node29 -->
<g id="edge35" class="edge"><title>Node1&#45;&gt;Node29</title>
<path fill="none" stroke="midnightblue" d="M926.357,-302.404C894.132,-289.446 856.256,-274.215 830.388,-263.813"/>
<polygon fill="midnightblue" stroke="midnightblue" points="831.683,-260.562 821.099,-260.078 829.071,-267.056 831.683,-260.562"/>
</g>
<!-- Node30 -->
<g id="node30" class="node"><title>Node30</title>
<polygon fill="white" stroke="#bfbfbf" points="874.267,-241 874.267,-260 979.267,-260 979.267,-241 874.267,-241"/>
<text text-anchor="middle" x="926.767" y="-248" font-family="Helvetica,sans-Serif" font-size="10.00">globjects/Shader.h</text>
</g>
<!-- Node1&#45;&gt;Node30 -->
<g id="edge36" class="edge"><title>Node1&#45;&gt;Node30</title>
<path fill="none" stroke="midnightblue" d="M968.122,-302.193C958.967,-290.972 948.452,-278.082 940.315,-268.108"/>
<polygon fill="midnightblue" stroke="midnightblue" points="942.905,-265.745 933.871,-260.209 937.481,-270.17 942.905,-265.745"/>
</g>
<!-- Node31 -->
<g id="node31" class="node"><title>Node31</title>
<polygon fill="white" stroke="#bfbfbf" points="997.767,-241 997.767,-260 1103.77,-260 1103.77,-241 997.767,-241"/>
<text text-anchor="middle" x="1050.77" y="-248" font-family="Helvetica,sans-Serif" font-size="10.00">globjects/Texture.h</text>
</g>
<!-- Node1&#45;&gt;Node31 -->
<g id="edge37" class="edge"><title>Node1&#45;&gt;Node31</title>
<path fill="none" stroke="midnightblue" d="M1009.41,-302.193C1018.57,-290.972 1029.08,-278.082 1037.22,-268.108"/>
<polygon fill="midnightblue" stroke="midnightblue" points="1040.05,-270.17 1043.66,-260.209 1034.63,-265.745 1040.05,-270.17"/>
</g>
<!-- Node32 -->
<g id="node32" class="node"><title>Node32</title>
<polygon fill="white" stroke="#bfbfbf" points="1121.77,-241 1121.77,-260 1165.77,-260 1165.77,-241 1121.77,-241"/>
<text text-anchor="middle" x="1143.77" y="-248" font-family="Helvetica,sans-Serif" font-size="10.00">regex</text>
</g>
<!-- Node1&#45;&gt;Node32 -->
<g id="edge38" class="edge"><title>Node1&#45;&gt;Node32</title>
<path fill="none" stroke="midnightblue" d="M1039.95,-302.404C1065.8,-289.731 1096.07,-274.885 1117.24,-264.508"/>
<polygon fill="midnightblue" stroke="midnightblue" points="1118.83,-267.623 1126.27,-260.078 1115.75,-261.338 1118.83,-267.623"/>
</g>
<!-- Node33 -->
<g id="node33" class="node"><title>Node33</title>
<polygon fill="white" stroke="#bfbfbf" points="1184.27,-241 1184.27,-260 1239.27,-260 1239.27,-241 1184.27,-241"/>
<text text-anchor="middle" x="1211.77" y="-248" font-family="Helvetica,sans-Serif" font-size="10.00">unistd.h</text>
</g>
<!-- Node1&#45;&gt;Node33 -->
<g id="edge39" class="edge"><title>Node1&#45;&gt;Node33</title>
<path fill="none" stroke="midnightblue" d="M1067.83,-302.404C1101,-291.605 1139.9,-278.587 1174.77,-266 1176.66,-265.315 1178.61,-264.597 1180.57,-263.863"/>
<polygon fill="midnightblue" stroke="midnightblue" points="1182.23,-266.976 1190.32,-260.132 1179.73,-260.438 1182.23,-266.976"/>
</g>
<!-- Node34 -->
<g id="node34" class="node"><title>Node34</title>
<g id="a_node34"><a xlink:href="GlmAdapters_8hpp.html" target="_top" xlink:title="Core/Math/GlmAdapters.hpp">
<polygon fill="white" stroke="black" points="1408.27,-241 1408.27,-260 1561.27,-260 1561.27,-241 1408.27,-241"/>
<text text-anchor="middle" x="1484.77" y="-248" font-family="Helvetica,sans-Serif" font-size="10.00">Core/Math/GlmAdapters.hpp</text>
</a>
</g>
</g>
<!-- Node1&#45;&gt;Node34 -->
<g id="edge40" class="edge"><title>Node1&#45;&gt;Node34</title>
<path fill="none" stroke="midnightblue" d="M1087.85,-313.152C1170.93,-300.997 1292.68,-282.899 1398.77,-266 1407.35,-264.633 1416.41,-263.15 1425.29,-261.672"/>
<polygon fill="midnightblue" stroke="midnightblue" points="1425.94,-265.113 1435.22,-260.011 1424.78,-258.209 1425.94,-265.113"/>
</g>
<!-- Node36 -->
<g id="node36" class="node"><title>Node36</title>
<g id="a_node36"><a xlink:href="Log_8hpp.html" target="_top" xlink:title="Core/Utils/Log.hpp">
<polygon fill="white" stroke="black" points="1364.77,-174 1364.77,-193 1468.77,-193 1468.77,-174 1364.77,-174"/>
<text text-anchor="middle" x="1416.77" y="-181" font-family="Helvetica,sans-Serif" font-size="10.00">Core/Utils/Log.hpp</text>
</a>
</g>
</g>
<!-- Node1&#45;&gt;Node36 -->
<g id="edge43" class="edge"><title>Node1&#45;&gt;Node36</title>
<path fill="none" stroke="midnightblue" d="M1087.79,-324.123C1245.46,-317.716 1539.12,-301.167 1570.77,-266 1603.22,-229.94 1534.57,-207.076 1478.76,-195.026"/>
<polygon fill="midnightblue" stroke="midnightblue" points="1479.38,-191.578 1468.87,-192.972 1477.95,-198.432 1479.38,-191.578"/>
</g>
<!-- Node39 -->
<g id="node39" class="node"><title>Node39</title>
<g id="a_node39"><a xlink:href="Texture_8hpp.html" target="_top" xlink:title="Engine/Renderer/Texture\l/Texture.hpp">
<polygon fill="white" stroke="black" points="1257.77,-235.5 1257.77,-265.5 1389.77,-265.5 1389.77,-235.5 1257.77,-235.5"/>
<text text-anchor="start" x="1265.77" y="-253.5" font-family="Helvetica,sans-Serif" font-size="10.00">Engine/Renderer/Texture</text>
<text text-anchor="middle" x="1323.77" y="-242.5" font-family="Helvetica,sans-Serif" font-size="10.00">/Texture.hpp</text>
</a>
</g>
</g>
<!-- Node1&#45;&gt;Node39 -->
<g id="edge49" class="edge"><title>Node1&#45;&gt;Node39</title>
<path fill="none" stroke="midnightblue" d="M1087.92,-305.006C1140.51,-293.074 1203.96,-278.679 1251.8,-267.827"/>
<polygon fill="midnightblue" stroke="midnightblue" points="1252.78,-271.193 1261.76,-265.568 1251.23,-264.367 1252.78,-271.193"/>
</g>
<!-- Node40 -->
<g id="node40" class="node"><title>Node40</title>
<polygon fill="white" stroke="#bfbfbf" points="1617.77,-241 1617.77,-260 1673.77,-260 1673.77,-241 1617.77,-241"/>
<text text-anchor="middle" x="1645.77" y="-248" font-family="Helvetica,sans-Serif" font-size="10.00">numeric</text>
</g>
<!-- Node1&#45;&gt;Node40 -->
<g id="edge54" class="edge"><title>Node1&#45;&gt;Node40</title>
<path fill="none" stroke="midnightblue" d="M1087.87,-324.672C1210.35,-319.561 1424.54,-305.335 1603.77,-266 1607.26,-265.233 1610.87,-264.267 1614.44,-263.2"/>
<polygon fill="midnightblue" stroke="midnightblue" points="1615.82,-266.431 1624.24,-260.006 1613.65,-259.775 1615.82,-266.431"/>
</g>
<!-- Node3 -->
<g id="node3" class="node"><title>Node3</title>
<g id="a_node3"><a xlink:href="RaEngine_8hpp.html" target="_top" xlink:title="Engine/RaEngine.hpp">
<polygon fill="white" stroke="black" points="446.267,-112.5 446.267,-131.5 563.267,-131.5 563.267,-112.5 446.267,-112.5"/>
<text text-anchor="middle" x="504.767" y="-119.5" font-family="Helvetica,sans-Serif" font-size="10.00">Engine/RaEngine.hpp</text>
</a>
</g>
</g>
<!-- Node2&#45;&gt;Node3 -->
<g id="edge2" class="edge"><title>Node2&#45;&gt;Node3</title>
<path fill="none" stroke="midnightblue" d="M264.444,-235.475C316.087,-225.197 379.386,-211.003 403.767,-199 423.321,-189.373 424.445,-181.23 441.767,-168 455.52,-157.496 471.374,-146.175 483.738,-137.516"/>
<polygon fill="midnightblue" stroke="midnightblue" points="485.838,-140.319 492.043,-131.731 481.837,-134.575 485.838,-140.319"/>
</g>
<!-- Node10 -->
<g id="node10" class="node"><title>Node10</title>
<g id="a_node10"><a xlink:href="Types_8hpp.html" target="_top" xlink:title="Core/Math/Types.hpp">
<polygon fill="white" stroke="black" points="1090.77,-174 1090.77,-193 1206.77,-193 1206.77,-174 1090.77,-174"/>
<text text-anchor="middle" x="1148.77" y="-181" font-family="Helvetica,sans-Serif" font-size="10.00">Core/Math/Types.hpp</text>
</a>
</g>
</g>
<!-- Node2&#45;&gt;Node10 -->
<g id="edge9" class="edge"><title>Node2&#45;&gt;Node10</title>
<path fill="none" stroke="midnightblue" d="M277.921,-235.953C280.903,-235.614 283.858,-235.295 286.767,-235 576.834,-205.632 650.784,-217.187 941.767,-199 988.006,-196.11 1040.03,-192.464 1080.35,-189.552"/>
<polygon fill="midnightblue" stroke="midnightblue" points="1080.62,-193.042 1090.34,-188.828 1080.11,-186.06 1080.62,-193.042"/>
</g>
<!-- Node15 -->
<g id="node15" class="node"><title>Node15</title>
<g id="a_node15"><a xlink:href="OpenGL_8hpp.html" target="_top" xlink:title="Engine/Renderer/OpenGL\l/OpenGL.hpp">
<polygon fill="white" stroke="black" points="796.767,-168.5 796.767,-198.5 932.767,-198.5 932.767,-168.5 796.767,-168.5"/>
<text text-anchor="start" x="804.767" y="-186.5" font-family="Helvetica,sans-Serif" font-size="10.00">Engine/Renderer/OpenGL</text>
<text text-anchor="middle" x="864.767" y="-175.5" font-family="Helvetica,sans-Serif" font-size="10.00">/OpenGL.hpp</text>
</a>
</g>
</g>
<!-- Node2&#45;&gt;Node15 -->
<g id="edge15" class="edge"><title>Node2&#45;&gt;Node15</title>
<path fill="none" stroke="midnightblue" d="M277.934,-236.067C280.912,-235.695 283.863,-235.338 286.767,-235 474.623,-213.149 522.398,-215.864 710.767,-199 735.341,-196.8 762.112,-194.311 786.337,-192.025"/>
<polygon fill="midnightblue" stroke="midnightblue" points="786.924,-195.485 796.55,-191.059 786.264,-188.516 786.924,-195.485"/>
</g>
<!-- Node18 -->
<g id="node18" class="node"><title>Node18</title>
<g id="a_node18"><a xlink:href="ShaderConfiguration_8hpp.html" target="_top" xlink:title="Engine/Renderer/RenderTechnique\l/ShaderConfiguration.hpp">
<polygon fill="white" stroke="black" points="216.767,-168.5 216.767,-198.5 394.767,-198.5 394.767,-168.5 216.767,-168.5"/>
<text text-anchor="start" x="224.767" y="-186.5" font-family="Helvetica,sans-Serif" font-size="10.00">Engine/Renderer/RenderTechnique</text>
<text text-anchor="middle" x="305.767" y="-175.5" font-family="Helvetica,sans-Serif" font-size="10.00">/ShaderConfiguration.hpp</text>
</a>
</g>
</g>
<!-- Node2&#45;&gt;Node18 -->
<g id="edge18" class="edge"><title>Node2&#45;&gt;Node18</title>
<path fill="none" stroke="midnightblue" d="M214.154,-235.396C230.942,-226.069 253.156,-213.728 271.505,-203.534"/>
<polygon fill="midnightblue" stroke="midnightblue" points="273.387,-206.493 280.429,-198.577 269.988,-200.373 273.387,-206.493"/>
</g>
<!-- Node19 -->
<g id="node19" class="node"><title>Node19</title>
<polygon fill="white" stroke="#bfbfbf" points="182.267,-112.5 182.267,-131.5 223.267,-131.5 223.267,-112.5 182.267,-112.5"/>
<text text-anchor="middle" x="202.767" y="-119.5" font-family="Helvetica,sans-Serif" font-size="10.00">array</text>
</g>
<!-- Node2&#45;&gt;Node19 -->
<g id="edge25" class="edge"><title>Node2&#45;&gt;Node19</title>
<path fill="none" stroke="midnightblue" d="M190.319,-235.479C192.837,-212.719 197.82,-167.702 200.658,-142.058"/>
<polygon fill="midnightblue" stroke="midnightblue" points="204.173,-142.113 201.794,-131.789 197.215,-141.343 204.173,-142.113"/>
</g>
<!-- Node22 -->
<g id="node22" class="node"><title>Node22</title>
<polygon fill="white" stroke="#bfbfbf" points="594.767,-112.5 594.767,-131.5 638.767,-131.5 638.767,-112.5 594.767,-112.5"/>
<text text-anchor="middle" x="616.767" y="-119.5" font-family="Helvetica,sans-Serif" font-size="10.00">string</text>
</g>
<!-- Node2&#45;&gt;Node22 -->
<g id="edge27" class="edge"><title>Node2&#45;&gt;Node22</title>
<path fill="none" stroke="midnightblue" d="M277.948,-236.184C280.922,-235.778 283.868,-235.383 286.767,-235 355.522,-225.924 544.379,-244.444 596.767,-199 612.999,-184.919 616.828,-159.397 617.372,-141.842"/>
<polygon fill="midnightblue" stroke="midnightblue" points="620.872,-141.65 617.352,-131.656 613.872,-141.663 620.872,-141.65"/>
</g>
<!-- Node24 -->
<g id="node24" class="node"><title>Node24</title>
<polygon fill="white" stroke="#bfbfbf" points="645.267,-174 645.267,-193 702.267,-193 702.267,-174 645.267,-174"/>
<text text-anchor="middle" x="673.767" y="-181" font-family="Helvetica,sans-Serif" font-size="10.00">memory</text>
</g>
<!-- Node2&#45;&gt;Node24 -->
<g id="edge26" class="edge"><title>Node2&#45;&gt;Node24</title>
<path fill="none" stroke="midnightblue" d="M277.943,-236.141C280.918,-235.748 283.866,-235.366 286.767,-235 439.28,-215.746 480.574,-231.76 630.767,-199 634.259,-198.238 637.865,-197.291 641.433,-196.248"/>
<polygon fill="midnightblue" stroke="midnightblue" points="642.794,-199.488 651.268,-193.129 640.678,-192.816 642.794,-199.488"/>
</g>
<!-- Node4 -->
<g id="node4" class="node"><title>Node4</title>
<g id="a_node4"><a xlink:href="CoreMacros_8hpp.html" target="_top" xlink:title="Core/CoreMacros.hpp">
<polygon fill="white" stroke="black" points="1045.77,-56.5 1045.77,-75.5 1165.77,-75.5 1165.77,-56.5 1045.77,-56.5"/>
<text text-anchor="middle" x="1105.77" y="-63.5" font-family="Helvetica,sans-Serif" font-size="10.00">Core/CoreMacros.hpp</text>
</a>
</g>
</g>
<!-- Node3&#45;&gt;Node4 -->
<g id="edge3" class="edge"><title>Node3&#45;&gt;Node4</title>
<path fill="none" stroke="midnightblue" d="M563.589,-114.294C571.051,-113.494 578.586,-112.71 585.767,-112 746.617,-96.1063 935.772,-80.514 1035.7,-72.5194"/>
<polygon fill="midnightblue" stroke="midnightblue" points="1035.98,-76.0079 1045.67,-71.7229 1035.42,-69.0301 1035.98,-76.0079"/>
</g>
<!-- Node5 -->
<g id="node5" class="node"><title>Node5</title>
<polygon fill="white" stroke="#bfbfbf" points="1046.77,-0.5 1046.77,-19.5 1098.77,-19.5 1098.77,-0.5 1046.77,-0.5"/>
<text text-anchor="middle" x="1072.77" y="-7.5" font-family="Helvetica,sans-Serif" font-size="10.00">cassert</text>
</g>
<!-- Node4&#45;&gt;Node5 -->
<g id="edge4" class="edge"><title>Node4&#45;&gt;Node5</title>
<path fill="none" stroke="midnightblue" d="M1100.32,-56.083C1095.75,-48.6127 1089.1,-37.7244 1083.47,-28.5199"/>
<polygon fill="midnightblue" stroke="midnightblue" points="1086.32,-26.4588 1078.11,-19.7511 1080.34,-30.109 1086.32,-26.4588"/>
</g>
<!-- Node6 -->
<g id="node6" class="node"><title>Node6</title>
<polygon fill="white" stroke="#bfbfbf" points="1117.27,-0.5 1117.27,-19.5 1162.27,-19.5 1162.27,-0.5 1117.27,-0.5"/>
<text text-anchor="middle" x="1139.77" y="-7.5" font-family="Helvetica,sans-Serif" font-size="10.00">cstdio</text>
</g>
<!-- Node4&#45;&gt;Node6 -->
<g id="edge5" class="edge"><title>Node4&#45;&gt;Node6</title>
<path fill="none" stroke="midnightblue" d="M1111.38,-56.083C1116.13,-48.5341 1123.08,-37.4948 1128.92,-28.2298"/>
<polygon fill="midnightblue" stroke="midnightblue" points="1131.89,-30.0783 1134.26,-19.7511 1125.97,-26.3486 1131.89,-30.0783"/>
</g>
<!-- Node7 -->
<g id="node7" class="node"><title>Node7</title>
<polygon fill="white" stroke="#bfbfbf" points="1180.27,-0.5 1180.27,-19.5 1239.27,-19.5 1239.27,-0.5 1180.27,-0.5"/>
<text text-anchor="middle" x="1209.77" y="-7.5" font-family="Helvetica,sans-Serif" font-size="10.00">iostream</text>
</g>
<!-- Node4&#45;&gt;Node7 -->
<g id="edge6" class="edge"><title>Node4&#45;&gt;Node7</title>
<path fill="none" stroke="midnightblue" d="M1122.48,-56.324C1139.08,-47.7034 1164.77,-34.3643 1183.99,-24.3855"/>
<polygon fill="midnightblue" stroke="midnightblue" points="1185.84,-27.3689 1193.1,-19.6545 1182.61,-21.1565 1185.84,-27.3689"/>
</g>
<!-- Node8 -->
<g id="node8" class="node"><title>Node8</title>
<polygon fill="white" stroke="#bfbfbf" points="1297.77,-0.5 1297.77,-19.5 1353.77,-19.5 1353.77,-0.5 1297.77,-0.5"/>
<text text-anchor="middle" x="1325.77" y="-7.5" font-family="Helvetica,sans-Serif" font-size="10.00">sstream</text>
</g>
<!-- Node4&#45;&gt;Node8 -->
<g id="edge7" class="edge"><title>Node4&#45;&gt;Node8</title>
<path fill="none" stroke="midnightblue" d="M1140.63,-56.4435C1180.72,-46.6012 1246.34,-30.4955 1287.73,-20.336"/>
<polygon fill="midnightblue" stroke="midnightblue" points="1288.82,-23.6716 1297.7,-17.8886 1287.16,-16.8734 1288.82,-23.6716"/>
</g>
<!-- Node9 -->
<g id="node9" class="node"><title>Node9</title>
<polygon fill="white" stroke="#bfbfbf" points="980.767,-0.5 980.767,-19.5 1028.77,-19.5 1028.77,-0.5 980.767,-0.5"/>
<text text-anchor="middle" x="1004.77" y="-7.5" font-family="Helvetica,sans-Serif" font-size="10.00">thread</text>
</g>
<!-- Node4&#45;&gt;Node9 -->
<g id="edge8" class="edge"><title>Node4&#45;&gt;Node9</title>
<path fill="none" stroke="midnightblue" d="M1089.54,-56.324C1073.42,-47.7034 1048.47,-34.3643 1029.8,-24.3855"/>
<polygon fill="midnightblue" stroke="midnightblue" points="1031.42,-21.283 1020.95,-19.6545 1028.12,-27.456 1031.42,-21.283"/>
</g>
<!-- Node11 -->
<g id="node11" class="node"><title>Node11</title>
<g id="a_node11"><a xlink:href="RaCore_8hpp.html" target="_top" xlink:title="Core/RaCore.hpp">
<polygon fill="white" stroke="black" points="1056.77,-112.5 1056.77,-131.5 1154.77,-131.5 1154.77,-112.5 1056.77,-112.5"/>
<text text-anchor="middle" x="1105.77" y="-119.5" font-family="Helvetica,sans-Serif" font-size="10.00">Core/RaCore.hpp</text>
</a>
</g>
</g>
<!-- Node10&#45;&gt;Node11 -->
<g id="edge10" class="edge"><title>Node10&#45;&gt;Node11</title>
<path fill="none" stroke="midnightblue" d="M1142.61,-173.975C1136.16,-165.05 1125.86,-150.807 1117.79,-139.643"/>
<polygon fill="midnightblue" stroke="midnightblue" points="1120.61,-137.564 1111.92,-131.509 1114.94,-141.664 1120.61,-137.564"/>
</g>
<!-- Node12 -->
<g id="node12" class="node"><title>Node12</title>
<polygon fill="white" stroke="#bfbfbf" points="1270.77,-112.5 1270.77,-131.5 1338.77,-131.5 1338.77,-112.5 1270.77,-112.5"/>
<text text-anchor="middle" x="1304.77" y="-119.5" font-family="Helvetica,sans-Serif" font-size="10.00">Eigen/Core</text>
</g>
<!-- Node10&#45;&gt;Node12 -->
<g id="edge12" class="edge"><title>Node10&#45;&gt;Node12</title>
<path fill="none" stroke="midnightblue" d="M1171.12,-173.975C1197.76,-163.813 1242.48,-146.756 1272.78,-135.2"/>
<polygon fill="midnightblue" stroke="midnightblue" points="1274.36,-138.343 1282.46,-131.509 1271.87,-131.803 1274.36,-138.343"/>
</g>
<!-- Node13 -->
<g id="node13" class="node"><title>Node13</title>
<polygon fill="white" stroke="#bfbfbf" points="944.767,-112.5 944.767,-131.5 1038.77,-131.5 1038.77,-112.5 944.767,-112.5"/>
<text text-anchor="middle" x="991.767" y="-119.5" font-family="Helvetica,sans-Serif" font-size="10.00">Eigen/Geometry</text>
</g>
<!-- Node10&#45;&gt;Node13 -->
<g id="edge13" class="edge"><title>Node10&#45;&gt;Node13</title>
<path fill="none" stroke="midnightblue" d="M1126.27,-173.975C1099.46,-163.813 1054.45,-146.756 1023.96,-135.2"/>
<polygon fill="midnightblue" stroke="midnightblue" points="1024.81,-131.78 1014.22,-131.509 1022.33,-138.326 1024.81,-131.78"/>
</g>
<!-- Node14 -->
<g id="node14" class="node"><title>Node14</title>
<polygon fill="white" stroke="#bfbfbf" points="1172.77,-112.5 1172.77,-131.5 1252.77,-131.5 1252.77,-112.5 1172.77,-112.5"/>
<text text-anchor="middle" x="1212.77" y="-119.5" font-family="Helvetica,sans-Serif" font-size="10.00">Eigen/Sparse</text>
</g>
<!-- Node10&#45;&gt;Node14 -->
<g id="edge14" class="edge"><title>Node10&#45;&gt;Node14</title>
<path fill="none" stroke="midnightblue" d="M1157.94,-173.975C1167.92,-164.697 1184.08,-149.671 1196.28,-138.331"/>
<polygon fill="midnightblue" stroke="midnightblue" points="1198.67,-140.881 1203.61,-131.509 1193.91,-135.755 1198.67,-140.881"/>
</g>
<!-- Node11&#45;&gt;Node4 -->
<g id="edge11" class="edge"><title>Node11&#45;&gt;Node4</title>
<path fill="none" stroke="midnightblue" d="M1105.77,-112.083C1105.77,-105.006 1105.77,-94.8611 1105.77,-85.9865"/>
<polygon fill="midnightblue" stroke="midnightblue" points="1109.27,-85.751 1105.77,-75.7511 1102.27,-85.7511 1109.27,-85.751"/>
</g>
<!-- Node16 -->
<g id="node16" class="node"><title>Node16</title>
<polygon fill="white" stroke="#bfbfbf" points="802.767,-112.5 802.767,-131.5 926.767,-131.5 926.767,-112.5 802.767,-112.5"/>
<text text-anchor="middle" x="864.767" y="-119.5" font-family="Helvetica,sans-Serif" font-size="10.00">glbinding/gl45core/gl.h</text>
</g>
<!-- Node15&#45;&gt;Node16 -->
<g id="edge16" class="edge"><title>Node15&#45;&gt;Node16</title>
<path fill="none" stroke="midnightblue" d="M864.767,-168.399C864.767,-160.466 864.767,-150.458 864.767,-141.858"/>
<polygon fill="midnightblue" stroke="midnightblue" points="868.267,-141.658 864.767,-131.658 861.267,-141.658 868.267,-141.658"/>
</g>
<!-- Node17 -->
<g id="node17" class="node"><title>Node17</title>
<polygon fill="white" stroke="#bfbfbf" points="666.767,-112.5 666.767,-131.5 784.767,-131.5 784.767,-112.5 666.767,-112.5"/>
<text text-anchor="middle" x="725.767" y="-119.5" font-family="Helvetica,sans-Serif" font-size="10.00">glbinding/gl45ext/gl.h</text>
</g>
<!-- Node15&#45;&gt;Node17 -->
<g id="edge17" class="edge"><title>Node15&#45;&gt;Node17</title>
<path fill="none" stroke="midnightblue" d="M831.826,-168.399C808.608,-158.461 777.781,-145.265 755.348,-135.662"/>
<polygon fill="midnightblue" stroke="midnightblue" points="756.563,-132.375 745.993,-131.658 753.808,-138.811 756.563,-132.375"/>
</g>
<!-- Node18&#45;&gt;Node3 -->
<g id="edge19" class="edge"><title>Node18&#45;&gt;Node3</title>
<path fill="none" stroke="midnightblue" d="M352.675,-168.475C387.456,-158.075 434.27,-144.078 466.732,-134.372"/>
<polygon fill="midnightblue" stroke="midnightblue" points="467.739,-137.724 476.317,-131.506 465.733,-131.018 467.739,-137.724"/>
</g>
<!-- Node18&#45;&gt;Node19 -->
<g id="edge20" class="edge"><title>Node18&#45;&gt;Node19</title>
<path fill="none" stroke="midnightblue" d="M281.357,-168.399C264.847,-158.862 243.144,-146.325 226.729,-136.842"/>
<polygon fill="midnightblue" stroke="midnightblue" points="228.164,-133.629 217.754,-131.658 224.663,-139.691 228.164,-133.629"/>
</g>
<!-- Node20 -->
<g id="node20" class="node"><title>Node20</title>
<polygon fill="white" stroke="#bfbfbf" points="248.767,-112.5 248.767,-131.5 278.767,-131.5 278.767,-112.5 248.767,-112.5"/>
<text text-anchor="middle" x="263.767" y="-119.5" font-family="Helvetica,sans-Serif" font-size="10.00">list</text>
</g>
<!-- Node18&#45;&gt;Node20 -->
<g id="edge21" class="edge"><title>Node18&#45;&gt;Node20</title>
<path fill="none" stroke="midnightblue" d="M295.813,-168.399C289.773,-159.842 282.029,-148.871 275.666,-139.857"/>
<polygon fill="midnightblue" stroke="midnightblue" points="278.504,-137.809 269.878,-131.658 272.786,-141.846 278.504,-137.809"/>
</g>
<!-- Node21 -->
<g id="node21" class="node"><title>Node21</title>
<polygon fill="white" stroke="#bfbfbf" points="296.767,-112.5 296.767,-131.5 328.767,-131.5 328.767,-112.5 296.767,-112.5"/>
<text text-anchor="middle" x="312.767" y="-119.5" font-family="Helvetica,sans-Serif" font-size="10.00">set</text>
</g>
<!-- Node18&#45;&gt;Node21 -->
<g id="edge22" class="edge"><title>Node18&#45;&gt;Node21</title>
<path fill="none" stroke="midnightblue" d="M307.426,-168.399C308.359,-160.466 309.536,-150.458 310.548,-141.858"/>
<polygon fill="midnightblue" stroke="midnightblue" points="314.056,-141.998 311.748,-131.658 307.104,-141.18 314.056,-141.998"/>
</g>
<!-- Node18&#45;&gt;Node22 -->
<g id="edge23" class="edge"><title>Node18&#45;&gt;Node22</title>
<path fill="none" stroke="midnightblue" d="M380.618,-168.492C433.94,-158.463 507.29,-144.568 571.767,-132 575.787,-131.216 580.007,-130.385 584.185,-129.556"/>
<polygon fill="midnightblue" stroke="midnightblue" points="585.221,-132.918 594.344,-127.529 583.852,-126.053 585.221,-132.918"/>
</g>
<!-- Node23 -->
<g id="node23" class="node"><title>Node23</title>
<polygon fill="white" stroke="#bfbfbf" points="354.267,-112.5 354.267,-131.5 401.267,-131.5 401.267,-112.5 354.267,-112.5"/>
<text text-anchor="middle" x="377.767" y="-119.5" font-family="Helvetica,sans-Serif" font-size="10.00">vector</text>
</g>
<!-- Node18&#45;&gt;Node23 -->
<g id="edge24" class="edge"><title>Node18&#45;&gt;Node23</title>
<path fill="none" stroke="midnightblue" d="M322.83,-168.399C333.832,-159.308 348.132,-147.49 359.385,-138.191"/>
<polygon fill="midnightblue" stroke="midnightblue" points="361.811,-140.726 367.29,-131.658 357.352,-135.33 361.811,-140.726"/>
</g>
<!-- Node25&#45;&gt;Node11 -->
<g id="edge29" class="edge"><title>Node25&#45;&gt;Node11</title>
<path fill="none" stroke="midnightblue" d="M584.446,-173.983C601.151,-171.902 619.116,-169.767 635.767,-168 815.336,-148.938 863.607,-153.919 1046.79,-132.042"/>
<polygon fill="midnightblue" stroke="midnightblue" points="1047.24,-135.512 1056.75,-130.841 1046.4,-128.563 1047.24,-135.512"/>
</g>
<!-- Node25&#45;&gt;Node22 -->
<g id="edge30" class="edge"><title>Node25&#45;&gt;Node22</title>
<path fill="none" stroke="midnightblue" d="M533.665,-173.975C549.439,-164.299 575.404,-148.372 594.116,-136.894"/>
<polygon fill="midnightblue" stroke="midnightblue" points="596.201,-139.721 602.895,-131.509 592.541,-133.754 596.201,-139.721"/>
</g>
<!-- Node25&#45;&gt;Node23 -->
<g id="edge31" class="edge"><title>Node25&#45;&gt;Node23</title>
<path fill="none" stroke="midnightblue" d="M499.422,-173.975C475.38,-163.901 435.169,-147.053 407.604,-135.502"/>
<polygon fill="midnightblue" stroke="midnightblue" points="408.65,-132.146 398.074,-131.509 405.945,-138.602 408.65,-132.146"/>
</g>
<!-- Node34&#45;&gt;Node10 -->
<g id="edge42" class="edge"><title>Node34&#45;&gt;Node10</title>
<path fill="none" stroke="midnightblue" d="M1440.5,-240.936C1379.35,-229.106 1269.13,-207.784 1203.08,-195.006"/>
<polygon fill="midnightblue" stroke="midnightblue" points="1203.35,-191.495 1192.87,-193.032 1202.02,-198.367 1203.35,-191.495"/>
</g>
<!-- Node35 -->
<g id="node35" class="node"><title>Node35</title>
<polygon fill="white" stroke="#bfbfbf" points="1269.27,-174 1269.27,-193 1346.27,-193 1346.27,-174 1269.27,-174"/>
<text text-anchor="middle" x="1307.77" y="-181" font-family="Helvetica,sans-Serif" font-size="10.00">glm/glm.hpp</text>
</g>
<!-- Node34&#45;&gt;Node35 -->
<g id="edge41" class="edge"><title>Node34&#45;&gt;Node35</title>
<path fill="none" stroke="midnightblue" d="M1461.26,-240.869C1430.36,-229.522 1375.91,-209.525 1340.86,-196.652"/>
<polygon fill="midnightblue" stroke="midnightblue" points="1341.68,-193.225 1331.09,-193.064 1339.27,-199.796 1341.68,-193.225"/>
</g>
<!-- Node36&#45;&gt;Node8 -->
<g id="edge46" class="edge"><title>Node36&#45;&gt;Node8</title>
<path fill="none" stroke="midnightblue" d="M1411.03,-173.704C1404.62,-163.74 1394.04,-146.942 1385.77,-132 1365.89,-96.0788 1345.13,-52.6924 1334,-28.8556"/>
<polygon fill="midnightblue" stroke="midnightblue" points="1337.11,-27.2413 1329.73,-19.6452 1330.76,-30.1892 1337.11,-27.2413"/>
</g>
<!-- Node36&#45;&gt;Node11 -->
<g id="edge44" class="edge"><title>Node36&#45;&gt;Node11</title>
<path fill="none" stroke="midnightblue" d="M1381.75,-173.983C1372.96,-171.935 1363.53,-169.816 1354.77,-168 1290.18,-154.62 1215.69,-141.454 1165.14,-132.855"/>
<polygon fill="midnightblue" stroke="midnightblue" points="1165.49,-129.364 1155.04,-131.144 1164.32,-136.265 1165.49,-129.364"/>
</g>
<!-- Node36&#45;&gt;Node22 -->
<g id="edge48" class="edge"><title>Node36&#45;&gt;Node22</title>
<path fill="none" stroke="midnightblue" d="M1385.11,-173.952C1375.44,-171.65 1364.73,-169.41 1354.77,-168 1047.64,-124.508 965.183,-173.393 657.767,-132 654.855,-131.608 651.844,-131.116 648.837,-130.566"/>
<polygon fill="midnightblue" stroke="midnightblue" points="649.273,-127.083 638.777,-128.529 647.884,-133.944 649.273,-127.083"/>
</g>
<!-- Node37 -->
<g id="node37" class="node"><title>Node37</title>
<polygon fill="white" stroke="#bfbfbf" points="1394.77,-112.5 1394.77,-131.5 1438.77,-131.5 1438.77,-112.5 1394.77,-112.5"/>
<text text-anchor="middle" x="1416.77" y="-119.5" font-family="Helvetica,sans-Serif" font-size="10.00">ctime</text>
</g>
<!-- Node36&#45;&gt;Node37 -->
<g id="edge45" class="edge"><title>Node36&#45;&gt;Node37</title>
<path fill="none" stroke="midnightblue" d="M1416.77,-173.975C1416.77,-165.58 1416.77,-152.481 1416.77,-141.663"/>
<polygon fill="midnightblue" stroke="midnightblue" points="1420.27,-141.509 1416.77,-131.509 1413.27,-141.509 1420.27,-141.509"/>
</g>
<!-- Node38 -->
<g id="node38" class="node"><title>Node38</title>
<polygon fill="white" stroke="#bfbfbf" points="1457.27,-112.5 1457.27,-131.5 1506.27,-131.5 1506.27,-112.5 1457.27,-112.5"/>
<text text-anchor="middle" x="1481.77" y="-119.5" font-family="Helvetica,sans-Serif" font-size="10.00">stdio.h</text>
</g>
<!-- Node36&#45;&gt;Node38 -->
<g id="edge47" class="edge"><title>Node36&#45;&gt;Node38</title>
<path fill="none" stroke="midnightblue" d="M1426.08,-173.975C1436.22,-164.697 1452.63,-149.671 1465.02,-138.331"/>
<polygon fill="midnightblue" stroke="midnightblue" points="1467.46,-140.843 1472.47,-131.509 1462.73,-135.68 1467.46,-140.843"/>
</g>
<!-- Node39&#45;&gt;Node3 -->
<g id="edge50" class="edge"><title>Node39&#45;&gt;Node3</title>
<path fill="none" stroke="midnightblue" d="M1257.52,-236.388C1254.23,-235.885 1250.96,-235.418 1247.77,-235 1136.65,-220.474 847.749,-243.193 744.767,-199 725.975,-190.936 728.932,-177.392 710.767,-168 686.378,-155.391 619.846,-142.108 568.93,-133.271"/>
<polygon fill="midnightblue" stroke="midnightblue" points="569.419,-129.804 558.972,-131.564 568.237,-136.703 569.419,-129.804"/>
</g>
<!-- Node39&#45;&gt;Node15 -->
<g id="edge53" class="edge"><title>Node39&#45;&gt;Node15</title>
<path fill="none" stroke="midnightblue" d="M1257.49,-236.622C1254.2,-236.057 1250.95,-235.513 1247.77,-235 1142.73,-218.07 1020.81,-202.731 943.258,-193.512"/>
<polygon fill="midnightblue" stroke="midnightblue" points="943.429,-190.008 933.086,-192.308 942.605,-196.96 943.429,-190.008"/>
</g>
<!-- Node39&#45;&gt;Node22 -->
<g id="edge52" class="edge"><title>Node39&#45;&gt;Node22</title>
<path fill="none" stroke="midnightblue" d="M1257.52,-236.414C1254.23,-235.904 1250.96,-235.428 1247.77,-235 1044.52,-207.743 980.307,-269.581 787.767,-199 765.647,-190.891 765.649,-178.908 744.767,-168 713.616,-151.729 675.3,-139.139 648.749,-131.466"/>
<polygon fill="midnightblue" stroke="midnightblue" points="649.417,-128.018 638.843,-128.673 647.518,-134.755 649.417,-128.018"/>
</g>
<!-- Node39&#45;&gt;Node24 -->
<g id="edge51" class="edge"><title>Node39&#45;&gt;Node24</title>
<path fill="none" stroke="midnightblue" d="M1257.52,-236.373C1254.23,-235.874 1250.96,-235.412 1247.77,-235 1013.16,-204.78 948.758,-245.174 716.767,-199 713.072,-198.265 709.258,-197.298 705.498,-196.213"/>
<polygon fill="midnightblue" stroke="midnightblue" points="706.378,-192.82 695.788,-193.138 704.264,-199.494 706.378,-192.82"/>
</g>
</g>
</svg>
