<?xml version="1.0" encoding="UTF-8" standalone="no"?>
<!DOCTYPE svg PUBLIC "-//W3C//DTD SVG 1.1//EN"
 "http://www.w3.org/Graphics/SVG/1.1/DTD/svg11.dtd">
<!-- Generated by graphviz version 2.38.0 (20140413.2041)
 -->
<!-- Title: /home/travis/build/STORM&#45;IRIT/Radium&#45;Engine/src/Engine/Renderer/RenderTechnique/ShaderConfiguration.cpp Pages: 1 -->
<svg width="515pt" height="296pt"
 viewBox="0.00 0.00 514.50 296.00" xmlns="http://www.w3.org/2000/svg" xmlns:xlink="http://www.w3.org/1999/xlink">
<g id="graph0" class="graph" transform="scale(1 1) rotate(0) translate(4 292)">
<title>/home/travis/build/STORM&#45;IRIT/Radium&#45;Engine/src/Engine/Renderer/RenderTechnique/ShaderConfiguration.cpp</title>
<polygon fill="white" stroke="none" points="-4,4 -4,-292 510.5,-292 510.5,4 -4,4"/>
<!-- Node1 -->
<g id="node1" class="node"><title>Node1</title>
<polygon fill="#bfbfbf" stroke="black" points="239,-235.5 239,-287.5 437,-287.5 437,-235.5 239,-235.5"/>
<text text-anchor="start" x="247" y="-275.5" font-family="Helvetica,sans-Serif" font-size="10.00">/home/travis/build</text>
<text text-anchor="start" x="247" y="-264.5" font-family="Helvetica,sans-Serif" font-size="10.00">/STORM&#45;IRIT/Radium&#45;Engine</text>
<text text-anchor="start" x="247" y="-253.5" font-family="Helvetica,sans-Serif" font-size="10.00">/src/Engine/Renderer/RenderTechnique</text>
<text text-anchor="middle" x="338" y="-242.5" font-family="Helvetica,sans-Serif" font-size="10.00">/ShaderConfiguration.cpp</text>
</g>
<!-- Node2 -->
<g id="node2" class="node"><title>Node2</title>
<g id="a_node2"><a xlink:href="ShaderConfiguration_8hpp.html" target="_top" xlink:title="Engine/Renderer/RenderTechnique\l/ShaderConfiguration.hpp">
<polygon fill="white" stroke="black" points="249,-168.5 249,-198.5 427,-198.5 427,-168.5 249,-168.5"/>
<text text-anchor="start" x="257" y="-186.5" font-family="Helvetica,sans-Serif" font-size="10.00">Engine/Renderer/RenderTechnique</text>
<text text-anchor="middle" x="338" y="-175.5" font-family="Helvetica,sans-Serif" font-size="10.00">/ShaderConfiguration.hpp</text>
</a>
</g>
</g>
<!-- Node1&#45;&gt;Node2 -->
<g id="edge1" class="edge"><title>Node1&#45;&gt;Node2</title>
<path fill="none" stroke="midnightblue" d="M338,-235.193C338,-226.786 338,-217.443 338,-209.091"/>
<polygon fill="midnightblue" stroke="midnightblue" points="341.5,-208.845 338,-198.845 334.5,-208.845 341.5,-208.845"/>
</g>
<!-- Node3 -->
<g id="node3" class="node"><title>Node3</title>
<g id="a_node3"><a xlink:href="RaEngine_8hpp.html" target="_top" xlink:title="Engine/RaEngine.hpp">
<polygon fill="white" stroke="black" points="104.5,-112.5 104.5,-131.5 221.5,-131.5 221.5,-112.5 104.5,-112.5"/>
<text text-anchor="middle" x="163" y="-119.5" font-family="Helvetica,sans-Serif" font-size="10.00">Engine/RaEngine.hpp</text>
</a>
</g>
</g>
<!-- Node2&#45;&gt;Node3 -->
<g id="edge2" class="edge"><title>Node2&#45;&gt;Node3</title>
<path fill="none" stroke="midnightblue" d="M296.527,-168.399C266.42,-158.163 226.148,-144.47 197.73,-134.808"/>
<polygon fill="midnightblue" stroke="midnightblue" points="198.803,-131.476 188.209,-131.571 196.55,-138.104 198.803,-131.476"/>
</g>
<!-- Node10 -->
<g id="node10" class="node"><title>Node10</title>
<polygon fill="white" stroke="#bfbfbf" points="239.5,-112.5 239.5,-131.5 280.5,-131.5 280.5,-112.5 239.5,-112.5"/>
<text text-anchor="middle" x="260" y="-119.5" font-family="Helvetica,sans-Serif" font-size="10.00">array</text>
</g>
<!-- Node2&#45;&gt;Node10 -->
<g id="edge9" class="edge"><title>Node2&#45;&gt;Node10</title>
<path fill="none" stroke="midnightblue" d="M319.515,-168.399C307.48,-159.218 291.8,-147.258 279.557,-137.918"/>
<polygon fill="midnightblue" stroke="midnightblue" points="281.423,-134.94 271.35,-131.658 277.178,-140.506 281.423,-134.94"/>
</g>
<!-- Node11 -->
<g id="node11" class="node"><title>Node11</title>
<polygon fill="white" stroke="#bfbfbf" points="299,-112.5 299,-131.5 329,-131.5 329,-112.5 299,-112.5"/>
<text text-anchor="middle" x="314" y="-119.5" font-family="Helvetica,sans-Serif" font-size="10.00">list</text>
</g>
<!-- Node2&#45;&gt;Node11 -->
<g id="edge10" class="edge"><title>Node2&#45;&gt;Node11</title>
<path fill="none" stroke="midnightblue" d="M332.312,-168.399C329.005,-160.199 324.802,-149.781 321.258,-140.994"/>
<polygon fill="midnightblue" stroke="midnightblue" points="324.479,-139.622 317.492,-131.658 317.987,-142.241 324.479,-139.622"/>
</g>
<!-- Node12 -->
<g id="node12" class="node"><title>Node12</title>
<polygon fill="white" stroke="#bfbfbf" points="347,-112.5 347,-131.5 379,-131.5 379,-112.5 347,-112.5"/>
<text text-anchor="middle" x="363" y="-119.5" font-family="Helvetica,sans-Serif" font-size="10.00">set</text>
</g>
<!-- Node2&#45;&gt;Node12 -->
<g id="edge11" class="edge"><title>Node2&#45;&gt;Node12</title>
<path fill="none" stroke="midnightblue" d="M343.925,-168.399C347.37,-160.199 351.748,-149.781 355.44,-140.994"/>
<polygon fill="midnightblue" stroke="midnightblue" points="358.715,-142.233 359.362,-131.658 352.262,-139.521 358.715,-142.233"/>
</g>
<!-- Node13 -->
<g id="node13" class="node"><title>Node13</title>
<polygon fill="white" stroke="#bfbfbf" points="397,-112.5 397,-131.5 441,-131.5 441,-112.5 397,-112.5"/>
<text text-anchor="middle" x="419" y="-119.5" font-family="Helvetica,sans-Serif" font-size="10.00">string</text>
</g>
<!-- Node2&#45;&gt;Node13 -->
<g id="edge12" class="edge"><title>Node2&#45;&gt;Node13</title>
<path fill="none" stroke="midnightblue" d="M357.196,-168.399C369.816,-159.129 386.293,-147.025 399.061,-137.647"/>
<polygon fill="midnightblue" stroke="midnightblue" points="401.227,-140.399 407.214,-131.658 397.082,-134.757 401.227,-140.399"/>
</g>
<!-- Node14 -->
<g id="node14" class="node"><title>Node14</title>
<polygon fill="white" stroke="#bfbfbf" points="459.5,-112.5 459.5,-131.5 506.5,-131.5 506.5,-112.5 459.5,-112.5"/>
<text text-anchor="middle" x="483" y="-119.5" font-family="Helvetica,sans-Serif" font-size="10.00">vector</text>
</g>
<!-- Node2&#45;&gt;Node14 -->
<g id="edge13" class="edge"><title>Node2&#45;&gt;Node14</title>
<path fill="none" stroke="midnightblue" d="M372.363,-168.399C396.691,-158.416 429.029,-145.147 452.456,-135.534"/>
<polygon fill="midnightblue" stroke="midnightblue" points="453.979,-138.692 461.901,-131.658 451.321,-132.216 453.979,-138.692"/>
</g>
<!-- Node4 -->
<g id="node4" class="node"><title>Node4</title>
<g id="a_node4"><a xlink:href="CoreMacros_8hpp.html" target="_top" xlink:title="Core/CoreMacros.hpp">
<polygon fill="white" stroke="black" points="103,-56.5 103,-75.5 223,-75.5 223,-56.5 103,-56.5"/>
<text text-anchor="middle" x="163" y="-63.5" font-family="Helvetica,sans-Serif" font-size="10.00">Core/CoreMacros.hpp</text>
</a>
</g>
</g>
<!-- Node3&#45;&gt;Node4 -->
<g id="edge3" class="edge"><title>Node3&#45;&gt;Node4</title>
<path fill="none" stroke="midnightblue" d="M163,-112.083C163,-105.006 163,-94.8611 163,-85.9865"/>
<polygon fill="midnightblue" stroke="midnightblue" points="166.5,-85.751 163,-75.7511 159.5,-85.7511 166.5,-85.751"/>
</g>
<!-- Node5 -->
<g id="node5" class="node"><title>Node5</title>
<polygon fill="white" stroke="#bfbfbf" points="0,-0.5 0,-19.5 52,-19.5 52,-0.5 0,-0.5"/>
<text text-anchor="middle" x="26" y="-7.5" font-family="Helvetica,sans-Serif" font-size="10.00">cassert</text>
</g>
<!-- Node4&#45;&gt;Node5 -->
<g id="edge4" class="edge"><title>Node4&#45;&gt;Node5</title>
<path fill="none" stroke="midnightblue" d="M141.292,-56.4435C118.645,-47.5171 82.9279,-33.4387 57.2482,-23.3168"/>
<polygon fill="midnightblue" stroke="midnightblue" points="58.1934,-19.9273 47.6065,-19.5164 55.6264,-26.4397 58.1934,-19.9273"/>
</g>
<!-- Node6 -->
<g id="node6" class="node"><title>Node6</title>
<polygon fill="white" stroke="#bfbfbf" points="70.5,-0.5 70.5,-19.5 115.5,-19.5 115.5,-0.5 70.5,-0.5"/>
<text text-anchor="middle" x="93" y="-7.5" font-family="Helvetica,sans-Serif" font-size="10.00">cstdio</text>
</g>
<!-- Node4&#45;&gt;Node6 -->
<g id="edge5" class="edge"><title>Node4&#45;&gt;Node6</title>
<path fill="none" stroke="midnightblue" d="M151.753,-56.324C141.203,-48.1849 125.199,-35.8395 112.558,-26.0874"/>
<polygon fill="midnightblue" stroke="midnightblue" points="114.507,-23.1707 104.451,-19.8339 110.231,-28.7132 114.507,-23.1707"/>
</g>
<!-- Node7 -->
<g id="node7" class="node"><title>Node7</title>
<polygon fill="white" stroke="#bfbfbf" points="133.5,-0.5 133.5,-19.5 192.5,-19.5 192.5,-0.5 133.5,-0.5"/>
<text text-anchor="middle" x="163" y="-7.5" font-family="Helvetica,sans-Serif" font-size="10.00">iostream</text>
</g>
<!-- Node4&#45;&gt;Node7 -->
<g id="edge6" class="edge"><title>Node4&#45;&gt;Node7</title>
<path fill="none" stroke="midnightblue" d="M163,-56.083C163,-49.0059 163,-38.8611 163,-29.9865"/>
<polygon fill="midnightblue" stroke="midnightblue" points="166.5,-29.751 163,-19.7511 159.5,-29.7511 166.5,-29.751"/>
</g>
<!-- Node8 -->
<g id="node8" class="node"><title>Node8</title>
<polygon fill="white" stroke="#bfbfbf" points="211,-0.5 211,-19.5 267,-19.5 267,-0.5 211,-0.5"/>
<text text-anchor="middle" x="239" y="-7.5" font-family="Helvetica,sans-Serif" font-size="10.00">sstream</text>
</g>
<!-- Node4&#45;&gt;Node8 -->
<g id="edge7" class="edge"><title>Node4&#45;&gt;Node8</title>
<path fill="none" stroke="midnightblue" d="M175.211,-56.324C186.776,-48.1066 204.375,-35.6017 218.161,-25.8069"/>
<polygon fill="midnightblue" stroke="midnightblue" points="220.443,-28.4791 226.567,-19.8339 216.388,-22.7729 220.443,-28.4791"/>
</g>
<!-- Node9 -->
<g id="node9" class="node"><title>Node9</title>
<polygon fill="white" stroke="#bfbfbf" points="285,-0.5 285,-19.5 333,-19.5 333,-0.5 285,-0.5"/>
<text text-anchor="middle" x="309" y="-7.5" font-family="Helvetica,sans-Serif" font-size="10.00">thread</text>
</g>
<!-- Node4&#45;&gt;Node9 -->
<g id="edge8" class="edge"><title>Node4&#45;&gt;Node9</title>
<path fill="none" stroke="midnightblue" d="M186.134,-56.4435C210.482,-47.4381 249.007,-33.1891 276.423,-23.049"/>
<polygon fill="midnightblue" stroke="midnightblue" points="277.809,-26.2681 285.974,-19.5164 275.381,-19.7028 277.809,-26.2681"/>
</g>
</g>
</svg>
