<?xml version="1.0" encoding="UTF-8" standalone="no"?>
<!DOCTYPE svg PUBLIC "-//W3C//DTD SVG 1.1//EN"
 "http://www.w3.org/Graphics/SVG/1.1/DTD/svg11.dtd">
<!-- Generated by graphviz version 2.38.0 (20140413.2041)
 -->
<!-- Title: /home/travis/build/STORM&#45;IRIT/Radium&#45;Engine/src/Core/Animation/SkinningData.hpp Pages: 1 -->
<svg width="679pt" height="306pt"
 viewBox="0.00 0.00 679.00 306.00" xmlns="http://www.w3.org/2000/svg" xmlns:xlink="http://www.w3.org/1999/xlink">
<g id="graph0" class="graph" transform="scale(1 1) rotate(0) translate(4 302)">
<title>/home/travis/build/STORM&#45;IRIT/Radium&#45;Engine/src/Core/Animation/SkinningData.hpp</title>
<polygon fill="white" stroke="none" points="-4,4 -4,-302 675,-302 675,4 -4,4"/>
<!-- Node1 -->
<g id="node1" class="node"><title>Node1</title>
<polygon fill="#bfbfbf" stroke="black" points="242,-256.5 242,-297.5 441,-297.5 441,-256.5 242,-256.5"/>
<text text-anchor="start" x="250" y="-285.5" font-family="Helvetica,sans-Serif" font-size="10.00">/home/travis/build</text>
<text text-anchor="start" x="250" y="-274.5" font-family="Helvetica,sans-Serif" font-size="10.00">/STORM&#45;IRIT/Radium&#45;Engine</text>
<text text-anchor="middle" x="341.5" y="-263.5" font-family="Helvetica,sans-Serif" font-size="10.00">/src/Core/Animation/SkinningData.hpp</text>
</g>
<!-- Node2 -->
<g id="node2" class="node"><title>Node2</title>
<g id="a_node2"><a xlink:href="RotationCenterSkinning_8hpp.html" target="_top" xlink:title="/home/travis/build\l/STORM&#45;IRIT/Radium&#45;Engine\l/src/Core/Animation/RotationCenter\lSkinning.hpp">
<polygon fill="white" stroke="black" points="21,-167.5 21,-219.5 206,-219.5 206,-167.5 21,-167.5"/>
<text text-anchor="start" x="29" y="-207.5" font-family="Helvetica,sans-Serif" font-size="10.00">/home/travis/build</text>
<text text-anchor="start" x="29" y="-196.5" font-family="Helvetica,sans-Serif" font-size="10.00">/STORM&#45;IRIT/Radium&#45;Engine</text>
<text text-anchor="start" x="29" y="-185.5" font-family="Helvetica,sans-Serif" font-size="10.00">/src/Core/Animation/RotationCenter</text>
<text text-anchor="middle" x="113.5" y="-174.5" font-family="Helvetica,sans-Serif" font-size="10.00">Skinning.hpp</text>
</a>
</g>
</g>
<!-- Node1&#45;&gt;Node2 -->
<g id="edge1" class="edge"><title>Node1&#45;&gt;Node2</title>
<path fill="none" stroke="midnightblue" d="M277.219,-253.022C248.054,-242.597 213.489,-230.242 183.652,-219.576"/>
<polygon fill="midnightblue" stroke="midnightblue" points="276.294,-256.408 286.888,-256.479 278.65,-249.817 276.294,-256.408"/>
</g>
<!-- Node5 -->
<g id="node5" class="node"><title>Node5</title>
<g id="a_node5"><a xlink:href="SkinningDisplayComponent_8hpp.html" target="_top" xlink:title="/home/travis/build\l/STORM&#45;IRIT/Radium&#45;Engine\l/Plugins/Skinning/src/Display\l/SkinningDisplayComponent.hpp">
<polygon fill="white" stroke="black" points="477.5,-167.5 477.5,-219.5 649.5,-219.5 649.5,-167.5 477.5,-167.5"/>
<text text-anchor="start" x="485.5" y="-207.5" font-family="Helvetica,sans-Serif" font-size="10.00">/home/travis/build</text>
<text text-anchor="start" x="485.5" y="-196.5" font-family="Helvetica,sans-Serif" font-size="10.00">/STORM&#45;IRIT/Radium&#45;Engine</text>
<text text-anchor="start" x="485.5" y="-185.5" font-family="Helvetica,sans-Serif" font-size="10.00">/Plugins/Skinning/src/Display</text>
<text text-anchor="middle" x="563.5" y="-174.5" font-family="Helvetica,sans-Serif" font-size="10.00">/SkinningDisplayComponent.hpp</text>
</a>
</g>
</g>
<!-- Node1&#45;&gt;Node5 -->
<g id="edge4" class="edge"><title>Node1&#45;&gt;Node5</title>
<path fill="none" stroke="midnightblue" d="M404.089,-253.022C432.487,-242.597 466.142,-230.242 495.194,-219.576"/>
<polygon fill="midnightblue" stroke="midnightblue" points="402.856,-249.747 394.675,-256.479 405.268,-256.318 402.856,-249.747"/>
</g>
<!-- Node8 -->
<g id="node8" class="node"><title>Node8</title>
<g id="a_node8"><a xlink:href="SkinningComponent_8hpp.html" target="_top" xlink:title="/home/travis/build\l/STORM&#45;IRIT/Radium&#45;Engine\l/Plugins/Skinning/src/SkinningComponent.hpp">
<polygon fill="white" stroke="black" points="224,-173 224,-214 459,-214 459,-173 224,-173"/>
<text text-anchor="start" x="232" y="-202" font-family="Helvetica,sans-Serif" font-size="10.00">/home/travis/build</text>
<text text-anchor="start" x="232" y="-191" font-family="Helvetica,sans-Serif" font-size="10.00">/STORM&#45;IRIT/Radium&#45;Engine</text>
<text text-anchor="middle" x="341.5" y="-180" font-family="Helvetica,sans-Serif" font-size="10.00">/Plugins/Skinning/src/SkinningComponent.hpp</text>
</a>
</g>
</g>
<!-- Node1&#45;&gt;Node8 -->
<g id="edge7" class="edge"><title>Node1&#45;&gt;Node8</title>
<path fill="none" stroke="midnightblue" d="M341.5,-246.065C341.5,-235.382 341.5,-223.63 341.5,-214.047"/>
<polygon fill="midnightblue" stroke="midnightblue" points="338,-246.271 341.5,-256.271 345,-246.271 338,-246.271"/>
</g>
<!-- Node3 -->
<g id="node3" class="node"><title>Node3</title>
<g id="a_node3"><a xlink:href="RotationCenterSkinning_8cpp.html" target="_top" xlink:title="/home/travis/build\l/STORM&#45;IRIT/Radium&#45;Engine\l/src/Core/Animation/RotationCenter\lSkinning.cpp">
<polygon fill="white" stroke="black" points="0,-78.5 0,-130.5 185,-130.5 185,-78.5 0,-78.5"/>
<text text-anchor="start" x="8" y="-118.5" font-family="Helvetica,sans-Serif" font-size="10.00">/home/travis/build</text>
<text text-anchor="start" x="8" y="-107.5" font-family="Helvetica,sans-Serif" font-size="10.00">/STORM&#45;IRIT/Radium&#45;Engine</text>
<text text-anchor="start" x="8" y="-96.5" font-family="Helvetica,sans-Serif" font-size="10.00">/src/Core/Animation/RotationCenter</text>
<text text-anchor="middle" x="92.5" y="-85.5" font-family="Helvetica,sans-Serif" font-size="10.00">Skinning.cpp</text>
</a>
</g>
</g>
<!-- Node2&#45;&gt;Node3 -->
<g id="edge2" class="edge"><title>Node2&#45;&gt;Node3</title>
<path fill="none" stroke="midnightblue" d="M105.047,-157.481C102.876,-148.487 100.583,-138.989 98.5604,-130.607"/>
<polygon fill="midnightblue" stroke="midnightblue" points="101.677,-158.436 107.426,-167.336 108.482,-156.794 101.677,-158.436"/>
</g>
<!-- Node4 -->
<g id="node4" class="node"><title>Node4</title>
<g id="a_node4"><a xlink:href="SkinningComponent_8cpp.html" target="_top" xlink:title="/home/travis/build\l/STORM&#45;IRIT/Radium&#45;Engine\l/Plugins/Skinning/src/SkinningComponent.cpp">
<polygon fill="white" stroke="black" points="203.5,-84 203.5,-125 437.5,-125 437.5,-84 203.5,-84"/>
<text text-anchor="start" x="211.5" y="-113" font-family="Helvetica,sans-Serif" font-size="10.00">/home/travis/build</text>
<text text-anchor="start" x="211.5" y="-102" font-family="Helvetica,sans-Serif" font-size="10.00">/STORM&#45;IRIT/Radium&#45;Engine</text>
<text text-anchor="middle" x="320.5" y="-91" font-family="Helvetica,sans-Serif" font-size="10.00">/Plugins/Skinning/src/SkinningComponent.cpp</text>
</a>
</g>
</g>
<!-- Node2&#45;&gt;Node4 -->
<g id="edge3" class="edge"><title>Node2&#45;&gt;Node4</title>
<path fill="none" stroke="midnightblue" d="M182.655,-163.435C212.613,-150.844 246.901,-136.433 273.785,-125.134"/>
<polygon fill="midnightblue" stroke="midnightblue" points="180.958,-160.351 173.095,-167.453 183.67,-166.805 180.958,-160.351"/>
</g>
<!-- Node6 -->
<g id="node6" class="node"><title>Node6</title>
<g id="a_node6"><a xlink:href="SkinningSystem_8hpp.html" target="_top" xlink:title="/home/travis/build\l/STORM&#45;IRIT/Radium&#45;Engine\l/Plugins/Skinning/src/SkinningSystem.hpp">
<polygon fill="white" stroke="black" points="456,-84 456,-125 671,-125 671,-84 456,-84"/>
<text text-anchor="start" x="464" y="-113" font-family="Helvetica,sans-Serif" font-size="10.00">/home/travis/build</text>
<text text-anchor="start" x="464" y="-102" font-family="Helvetica,sans-Serif" font-size="10.00">/STORM&#45;IRIT/Radium&#45;Engine</text>
<text text-anchor="middle" x="563.5" y="-91" font-family="Helvetica,sans-Serif" font-size="10.00">/Plugins/Skinning/src/SkinningSystem.hpp</text>
</a>
</g>
</g>
<!-- Node5&#45;&gt;Node6 -->
<g id="edge5" class="edge"><title>Node5&#45;&gt;Node6</title>
<path fill="none" stroke="midnightblue" d="M563.5,-157.155C563.5,-146.21 563.5,-134.549 563.5,-125.082"/>
<polygon fill="midnightblue" stroke="midnightblue" points="560,-157.336 563.5,-167.336 567,-157.336 560,-157.336"/>
</g>
<!-- Node7 -->
<g id="node7" class="node"><title>Node7</title>
<g id="a_node7"><a xlink:href="SkinningPlugin_8cpp.html" target="_top" xlink:title="/home/travis/build\l/STORM&#45;IRIT/Radium&#45;Engine\l/Plugins/Skinning/src/SkinningPlugin.cpp">
<polygon fill="white" stroke="black" points="460.5,-0.5 460.5,-41.5 666.5,-41.5 666.5,-0.5 460.5,-0.5"/>
<text text-anchor="start" x="468.5" y="-29.5" font-family="Helvetica,sans-Serif" font-size="10.00">/home/travis/build</text>
<text text-anchor="start" x="468.5" y="-18.5" font-family="Helvetica,sans-Serif" font-size="10.00">/STORM&#45;IRIT/Radium&#45;Engine</text>
<text text-anchor="middle" x="563.5" y="-7.5" font-family="Helvetica,sans-Serif" font-size="10.00">/Plugins/Skinning/src/SkinningPlugin.cpp</text>
</a>
</g>
</g>
<!-- Node6&#45;&gt;Node7 -->
<g id="edge6" class="edge"><title>Node6&#45;&gt;Node7</title>
<path fill="none" stroke="midnightblue" d="M563.5,-73.5646C563.5,-62.8819 563.5,-51.1303 563.5,-41.5472"/>
<polygon fill="midnightblue" stroke="midnightblue" points="560,-73.7711 563.5,-83.7711 567,-73.7712 560,-73.7711"/>
</g>
<!-- Node8&#45;&gt;Node4 -->
<g id="edge8" class="edge"><title>Node8&#45;&gt;Node4</title>
<path fill="none" stroke="midnightblue" d="M334.334,-162.814C331.334,-150.383 327.928,-136.273 325.246,-125.164"/>
<polygon fill="midnightblue" stroke="midnightblue" points="330.986,-163.859 336.735,-172.758 337.791,-162.216 330.986,-163.859"/>
</g>
<!-- Node8&#45;&gt;Node6 -->
<g id="edge9" class="edge"><title>Node8&#45;&gt;Node6</title>
<path fill="none" stroke="midnightblue" d="M400.981,-169.19C436.121,-155.419 480.112,-138.179 513.462,-125.11"/>
<polygon fill="midnightblue" stroke="midnightblue" points="399.355,-166.068 391.321,-172.976 401.909,-172.585 399.355,-166.068"/>
</g>
</g>
</svg>
