<?xml version="1.0" encoding="UTF-8" standalone="no"?>
<!DOCTYPE svg PUBLIC "-//W3C//DTD SVG 1.1//EN"
 "http://www.w3.org/Graphics/SVG/1.1/DTD/svg11.dtd">
<!-- Generated by graphviz version 2.38.0 (20140413.2041)
 -->
<!-- Title: /home/travis/build/STORM&#45;IRIT/Radium&#45;Engine/src/Core/Geometry/Spline.inl Pages: 1 -->
<svg width="605pt" height="397pt"
 viewBox="0.00 0.00 604.50 397.00" xmlns="http://www.w3.org/2000/svg" xmlns:xlink="http://www.w3.org/1999/xlink">
<g id="graph0" class="graph" transform="scale(1 1) rotate(0) translate(4 393)">
<title>/home/travis/build/STORM&#45;IRIT/Radium&#45;Engine/src/Core/Geometry/Spline.inl</title>
<polygon fill="white" stroke="none" points="-4,4 -4,-393 600.5,-393 600.5,4 -4,4"/>
<!-- Node1 -->
<g id="node1" class="node"><title>Node1</title>
<polygon fill="#bfbfbf" stroke="black" points="129.5,-347.5 129.5,-388.5 285.5,-388.5 285.5,-347.5 129.5,-347.5"/>
<text text-anchor="start" x="137.5" y="-376.5" font-family="Helvetica,sans-Serif" font-size="10.00">/home/travis/build</text>
<text text-anchor="start" x="137.5" y="-365.5" font-family="Helvetica,sans-Serif" font-size="10.00">/STORM&#45;IRIT/Radium&#45;Engine</text>
<text text-anchor="middle" x="207.5" y="-354.5" font-family="Helvetica,sans-Serif" font-size="10.00">/src/Core/Geometry/Spline.inl</text>
</g>
<!-- Node2 -->
<g id="node2" class="node"><title>Node2</title>
<g id="a_node2"><a xlink:href="Spline_8hpp.html" target="_top" xlink:title="Spline.hpp">
<polygon fill="white" stroke="black" points="174,-291.5 174,-310.5 241,-310.5 241,-291.5 174,-291.5"/>
<text text-anchor="middle" x="207.5" y="-298.5" font-family="Helvetica,sans-Serif" font-size="10.00">Spline.hpp</text>
</a>
</g>
</g>
<!-- Node1&#45;&gt;Node2 -->
<g id="edge1" class="edge"><title>Node1&#45;&gt;Node2</title>
<path fill="none" stroke="midnightblue" d="M201.255,-347.498C200.557,-338.969 200.583,-329.011 201.333,-320.59"/>
<polygon fill="midnightblue" stroke="midnightblue" points="204.803,-321.044 202.736,-310.652 197.872,-320.065 204.803,-321.044"/>
</g>
<!-- Node18 -->
<g id="node18" class="node"><title>Node18</title>
<g id="a_node18"><a xlink:href="Math_8hpp.html" target="_top" xlink:title="Core/Math/Math.hpp">
<polygon fill="white" stroke="black" points="328.5,-291.5 328.5,-310.5 442.5,-310.5 442.5,-291.5 328.5,-291.5"/>
<text text-anchor="middle" x="385.5" y="-298.5" font-family="Helvetica,sans-Serif" font-size="10.00">Core/Math/Math.hpp</text>
</a>
</g>
</g>
<!-- Node1&#45;&gt;Node18 -->
<g id="edge23" class="edge"><title>Node1&#45;&gt;Node18</title>
<path fill="none" stroke="midnightblue" d="M260.906,-347.498C290.558,-336.67 326.522,-323.537 352.174,-314.17"/>
<polygon fill="midnightblue" stroke="midnightblue" points="353.613,-317.37 361.805,-310.652 351.212,-310.795 353.613,-317.37"/>
</g>
<!-- Node2&#45;&gt;Node1 -->
<g id="edge22" class="edge"><title>Node2&#45;&gt;Node1</title>
<path fill="none" stroke="midnightblue" d="M212.264,-310.652C213.727,-317.524 214.381,-327.559 214.228,-337.263"/>
<polygon fill="midnightblue" stroke="midnightblue" points="210.721,-337.344 213.745,-347.498 217.713,-337.674 210.721,-337.344"/>
</g>
<!-- Node3 -->
<g id="node3" class="node"><title>Node3</title>
<g id="a_node3"><a xlink:href="VectorArray_8hpp.html" target="_top" xlink:title="Core/Containers/VectorArray.hpp">
<polygon fill="white" stroke="black" points="64,-235.5 64,-254.5 237,-254.5 237,-235.5 64,-235.5"/>
<text text-anchor="middle" x="150.5" y="-242.5" font-family="Helvetica,sans-Serif" font-size="10.00">Core/Containers/VectorArray.hpp</text>
</a>
</g>
</g>
<!-- Node2&#45;&gt;Node3 -->
<g id="edge2" class="edge"><title>Node2&#45;&gt;Node3</title>
<path fill="none" stroke="midnightblue" d="M198.342,-291.324C189.999,-283.42 177.468,-271.548 167.323,-261.938"/>
<polygon fill="midnightblue" stroke="midnightblue" points="169.491,-259.171 159.825,-254.834 164.677,-264.252 169.491,-259.171"/>
</g>
<!-- Node5 -->
<g id="node5" class="node"><title>Node5</title>
<g id="a_node5"><a xlink:href="RaCore_8hpp.html" target="_top" xlink:title="Core/RaCore.hpp">
<polygon fill="white" stroke="black" points="202.5,-112.5 202.5,-131.5 300.5,-131.5 300.5,-112.5 202.5,-112.5"/>
<text text-anchor="middle" x="251.5" y="-119.5" font-family="Helvetica,sans-Serif" font-size="10.00">Core/RaCore.hpp</text>
</a>
</g>
</g>
<!-- Node2&#45;&gt;Node5 -->
<g id="edge20" class="edge"><title>Node2&#45;&gt;Node5</title>
<path fill="none" stroke="midnightblue" d="M218.055,-291.244C227.172,-282.969 239.757,-269.662 245.5,-255 260.368,-217.043 257.486,-168.178 254.332,-141.838"/>
<polygon fill="midnightblue" stroke="midnightblue" points="257.775,-141.176 252.971,-131.733 250.837,-142.11 257.775,-141.176"/>
</g>
<!-- Node13 -->
<g id="node13" class="node"><title>Node13</title>
<polygon fill="white" stroke="#bfbfbf" points="0,-112.5 0,-131.5 47,-131.5 47,-112.5 0,-112.5"/>
<text text-anchor="middle" x="23.5" y="-119.5" font-family="Helvetica,sans-Serif" font-size="10.00">vector</text>
</g>
<!-- Node2&#45;&gt;Node13 -->
<g id="edge21" class="edge"><title>Node2&#45;&gt;Node13</title>
<path fill="none" stroke="midnightblue" d="M173.987,-297.488C140.511,-293.423 89.1759,-282.791 54.5,-255 32.3018,-237.209 30.615,-226.544 23.5,-199 18.5608,-179.879 19.3971,-157.138 20.9438,-141.546"/>
<polygon fill="midnightblue" stroke="midnightblue" points="24.42,-141.953 22.1232,-131.61 17.4688,-141.127 24.42,-141.953"/>
</g>
<!-- Node4 -->
<g id="node4" class="node"><title>Node4</title>
<g id="a_node4"><a xlink:href="AlignedStdVector_8hpp.html" target="_top" xlink:title="Core/Containers/AlignedStd\lVector.hpp">
<polygon fill="white" stroke="black" points="51,-168.5 51,-198.5 200,-198.5 200,-168.5 51,-168.5"/>
<text text-anchor="start" x="59" y="-186.5" font-family="Helvetica,sans-Serif" font-size="10.00">Core/Containers/AlignedStd</text>
<text text-anchor="middle" x="125.5" y="-175.5" font-family="Helvetica,sans-Serif" font-size="10.00">Vector.hpp</text>
</a>
</g>
</g>
<!-- Node3&#45;&gt;Node4 -->
<g id="edge3" class="edge"><title>Node3&#45;&gt;Node4</title>
<path fill="none" stroke="midnightblue" d="M146.918,-235.475C143.88,-228.245 139.376,-217.525 135.281,-207.779"/>
<polygon fill="midnightblue" stroke="midnightblue" points="138.492,-206.386 131.392,-198.523 132.039,-209.098 138.492,-206.386"/>
</g>
<!-- Node3&#45;&gt;Node5 -->
<g id="edge18" class="edge"><title>Node3&#45;&gt;Node5</title>
<path fill="none" stroke="midnightblue" d="M164.672,-235.332C177.282,-227.116 195.663,-213.847 208.5,-199 223.791,-181.314 236.264,-157.356 243.765,-141.101"/>
<polygon fill="midnightblue" stroke="midnightblue" points="247.091,-142.234 247.956,-131.675 240.695,-139.39 247.091,-142.234"/>
</g>
<!-- Node3&#45;&gt;Node13 -->
<g id="edge19" class="edge"><title>Node3&#45;&gt;Node13</title>
<path fill="none" stroke="midnightblue" d="M105.215,-235.464C83.0089,-229.028 57.6368,-217.93 41.5,-199 27.9206,-183.07 24.1731,-158.716 23.3378,-141.89"/>
<polygon fill="midnightblue" stroke="midnightblue" points="26.8324,-141.571 23.1397,-131.64 19.8337,-141.706 26.8324,-141.571"/>
</g>
<!-- Node14 -->
<g id="node14" class="node"><title>Node14</title>
<g id="a_node14"><a xlink:href="Types_8hpp.html" target="_top" xlink:title="Core/Math/Types.hpp">
<polygon fill="white" stroke="black" points="331.5,-174 331.5,-193 447.5,-193 447.5,-174 331.5,-174"/>
<text text-anchor="middle" x="389.5" y="-181" font-family="Helvetica,sans-Serif" font-size="10.00">Core/Math/Types.hpp</text>
</a>
</g>
</g>
<!-- Node3&#45;&gt;Node14 -->
<g id="edge13" class="edge"><title>Node3&#45;&gt;Node14</title>
<path fill="none" stroke="midnightblue" d="M184.743,-235.475C227.071,-224.937 299.177,-206.986 345.55,-195.441"/>
<polygon fill="midnightblue" stroke="midnightblue" points="346.462,-198.821 355.321,-193.009 344.771,-192.029 346.462,-198.821"/>
</g>
<!-- Node4&#45;&gt;Node5 -->
<g id="edge4" class="edge"><title>Node4&#45;&gt;Node5</title>
<path fill="none" stroke="midnightblue" d="M155.36,-168.399C176.123,-158.595 203.6,-145.619 223.861,-136.052"/>
<polygon fill="midnightblue" stroke="midnightblue" points="225.618,-139.093 233.166,-131.658 222.629,-132.763 225.618,-139.093"/>
</g>
<!-- Node12 -->
<g id="node12" class="node"><title>Node12</title>
<polygon fill="white" stroke="#bfbfbf" points="79,-112.5 79,-131.5 172,-131.5 172,-112.5 79,-112.5"/>
<text text-anchor="middle" x="125.5" y="-119.5" font-family="Helvetica,sans-Serif" font-size="10.00">Eigen/StdVector</text>
</g>
<!-- Node4&#45;&gt;Node12 -->
<g id="edge11" class="edge"><title>Node4&#45;&gt;Node12</title>
<path fill="none" stroke="midnightblue" d="M125.5,-168.399C125.5,-160.466 125.5,-150.458 125.5,-141.858"/>
<polygon fill="midnightblue" stroke="midnightblue" points="129,-141.658 125.5,-131.658 122,-141.658 129,-141.658"/>
</g>
<!-- Node4&#45;&gt;Node13 -->
<g id="edge12" class="edge"><title>Node4&#45;&gt;Node13</title>
<path fill="none" stroke="midnightblue" d="M101.327,-168.399C84.9776,-158.862 63.4853,-146.325 47.2295,-136.842"/>
<polygon fill="midnightblue" stroke="midnightblue" points="48.7433,-133.673 38.3419,-131.658 45.2161,-139.72 48.7433,-133.673"/>
</g>
<!-- Node6 -->
<g id="node6" class="node"><title>Node6</title>
<g id="a_node6"><a xlink:href="CoreMacros_8hpp.html" target="_top" xlink:title="Core/CoreMacros.hpp">
<polygon fill="white" stroke="black" points="191.5,-56.5 191.5,-75.5 311.5,-75.5 311.5,-56.5 191.5,-56.5"/>
<text text-anchor="middle" x="251.5" y="-63.5" font-family="Helvetica,sans-Serif" font-size="10.00">Core/CoreMacros.hpp</text>
</a>
</g>
</g>
<!-- Node5&#45;&gt;Node6 -->
<g id="edge5" class="edge"><title>Node5&#45;&gt;Node6</title>
<path fill="none" stroke="midnightblue" d="M251.5,-112.083C251.5,-105.006 251.5,-94.8611 251.5,-85.9865"/>
<polygon fill="midnightblue" stroke="midnightblue" points="255,-85.751 251.5,-75.7511 248,-85.7511 255,-85.751"/>
</g>
<!-- Node7 -->
<g id="node7" class="node"><title>Node7</title>
<polygon fill="white" stroke="#bfbfbf" points="88.5,-0.5 88.5,-19.5 140.5,-19.5 140.5,-0.5 88.5,-0.5"/>
<text text-anchor="middle" x="114.5" y="-7.5" font-family="Helvetica,sans-Serif" font-size="10.00">cassert</text>
</g>
<!-- Node6&#45;&gt;Node7 -->
<g id="edge6" class="edge"><title>Node6&#45;&gt;Node7</title>
<path fill="none" stroke="midnightblue" d="M229.792,-56.4435C207.145,-47.5171 171.428,-33.4387 145.748,-23.3168"/>
<polygon fill="midnightblue" stroke="midnightblue" points="146.693,-19.9273 136.106,-19.5164 144.126,-26.4397 146.693,-19.9273"/>
</g>
<!-- Node8 -->
<g id="node8" class="node"><title>Node8</title>
<polygon fill="white" stroke="#bfbfbf" points="159,-0.5 159,-19.5 204,-19.5 204,-0.5 159,-0.5"/>
<text text-anchor="middle" x="181.5" y="-7.5" font-family="Helvetica,sans-Serif" font-size="10.00">cstdio</text>
</g>
<!-- Node6&#45;&gt;Node8 -->
<g id="edge7" class="edge"><title>Node6&#45;&gt;Node8</title>
<path fill="none" stroke="midnightblue" d="M240.253,-56.324C229.703,-48.1849 213.699,-35.8395 201.058,-26.0874"/>
<polygon fill="midnightblue" stroke="midnightblue" points="203.007,-23.1707 192.951,-19.8339 198.731,-28.7132 203.007,-23.1707"/>
</g>
<!-- Node9 -->
<g id="node9" class="node"><title>Node9</title>
<polygon fill="white" stroke="#bfbfbf" points="222,-0.5 222,-19.5 281,-19.5 281,-0.5 222,-0.5"/>
<text text-anchor="middle" x="251.5" y="-7.5" font-family="Helvetica,sans-Serif" font-size="10.00">iostream</text>
</g>
<!-- Node6&#45;&gt;Node9 -->
<g id="edge8" class="edge"><title>Node6&#45;&gt;Node9</title>
<path fill="none" stroke="midnightblue" d="M251.5,-56.083C251.5,-49.0059 251.5,-38.8611 251.5,-29.9865"/>
<polygon fill="midnightblue" stroke="midnightblue" points="255,-29.751 251.5,-19.7511 248,-29.7511 255,-29.751"/>
</g>
<!-- Node10 -->
<g id="node10" class="node"><title>Node10</title>
<polygon fill="white" stroke="#bfbfbf" points="299.5,-0.5 299.5,-19.5 355.5,-19.5 355.5,-0.5 299.5,-0.5"/>
<text text-anchor="middle" x="327.5" y="-7.5" font-family="Helvetica,sans-Serif" font-size="10.00">sstream</text>
</g>
<!-- Node6&#45;&gt;Node10 -->
<g id="edge9" class="edge"><title>Node6&#45;&gt;Node10</title>
<path fill="none" stroke="midnightblue" d="M263.711,-56.324C275.276,-48.1066 292.875,-35.6017 306.661,-25.8069"/>
<polygon fill="midnightblue" stroke="midnightblue" points="308.943,-28.4791 315.067,-19.8339 304.888,-22.7729 308.943,-28.4791"/>
</g>
<!-- Node11 -->
<g id="node11" class="node"><title>Node11</title>
<polygon fill="white" stroke="#bfbfbf" points="373.5,-0.5 373.5,-19.5 421.5,-19.5 421.5,-0.5 373.5,-0.5"/>
<text text-anchor="middle" x="397.5" y="-7.5" font-family="Helvetica,sans-Serif" font-size="10.00">thread</text>
</g>
<!-- Node6&#45;&gt;Node11 -->
<g id="edge10" class="edge"><title>Node6&#45;&gt;Node11</title>
<path fill="none" stroke="midnightblue" d="M274.634,-56.4435C298.982,-47.4381 337.507,-33.1891 364.923,-23.049"/>
<polygon fill="midnightblue" stroke="midnightblue" points="366.309,-26.2681 374.474,-19.5164 363.881,-19.7028 366.309,-26.2681"/>
</g>
<!-- Node14&#45;&gt;Node5 -->
<g id="edge14" class="edge"><title>Node14&#45;&gt;Node5</title>
<path fill="none" stroke="midnightblue" d="M369.728,-173.975C346.364,-163.901 307.286,-147.053 280.497,-135.502"/>
<polygon fill="midnightblue" stroke="midnightblue" points="281.804,-132.254 271.235,-131.509 279.032,-138.682 281.804,-132.254"/>
</g>
<!-- Node15 -->
<g id="node15" class="node"><title>Node15</title>
<polygon fill="white" stroke="#bfbfbf" points="318.5,-112.5 318.5,-131.5 386.5,-131.5 386.5,-112.5 318.5,-112.5"/>
<text text-anchor="middle" x="352.5" y="-119.5" font-family="Helvetica,sans-Serif" font-size="10.00">Eigen/Core</text>
</g>
<!-- Node14&#45;&gt;Node15 -->
<g id="edge15" class="edge"><title>Node14&#45;&gt;Node15</title>
<path fill="none" stroke="midnightblue" d="M384.199,-173.975C378.759,-165.227 370.141,-151.369 363.264,-140.309"/>
<polygon fill="midnightblue" stroke="midnightblue" points="366.044,-138.153 357.791,-131.509 360.1,-141.849 366.044,-138.153"/>
</g>
<!-- Node16 -->
<g id="node16" class="node"><title>Node16</title>
<polygon fill="white" stroke="#bfbfbf" points="404.5,-112.5 404.5,-131.5 498.5,-131.5 498.5,-112.5 404.5,-112.5"/>
<text text-anchor="middle" x="451.5" y="-119.5" font-family="Helvetica,sans-Serif" font-size="10.00">Eigen/Geometry</text>
</g>
<!-- Node14&#45;&gt;Node16 -->
<g id="edge16" class="edge"><title>Node14&#45;&gt;Node16</title>
<path fill="none" stroke="midnightblue" d="M398.383,-173.975C407.959,-164.785 423.411,-149.956 435.186,-138.656"/>
<polygon fill="midnightblue" stroke="midnightblue" points="437.842,-140.958 442.633,-131.509 432.995,-135.908 437.842,-140.958"/>
</g>
<!-- Node17 -->
<g id="node17" class="node"><title>Node17</title>
<polygon fill="white" stroke="#bfbfbf" points="516.5,-112.5 516.5,-131.5 596.5,-131.5 596.5,-112.5 516.5,-112.5"/>
<text text-anchor="middle" x="556.5" y="-119.5" font-family="Helvetica,sans-Serif" font-size="10.00">Eigen/Sparse</text>
</g>
<!-- Node14&#45;&gt;Node17 -->
<g id="edge17" class="edge"><title>Node14&#45;&gt;Node17</title>
<path fill="none" stroke="midnightblue" d="M413.427,-173.975C442.197,-163.725 490.656,-146.459 523.102,-134.899"/>
<polygon fill="midnightblue" stroke="midnightblue" points="524.372,-138.162 532.617,-131.509 522.023,-131.568 524.372,-138.162"/>
</g>
<!-- Node18&#45;&gt;Node5 -->
<g id="edge24" class="edge"><title>Node18&#45;&gt;Node5</title>
<path fill="none" stroke="midnightblue" d="M369.441,-291.345C355.681,-283.322 336.003,-270.333 322.5,-255 306.122,-236.402 274.812,-172.408 259.856,-140.864"/>
<polygon fill="midnightblue" stroke="midnightblue" points="262.883,-139.078 255.456,-131.523 256.551,-142.061 262.883,-139.078"/>
</g>
<!-- Node19 -->
<g id="node19" class="node"><title>Node19</title>
<polygon fill="white" stroke="#bfbfbf" points="456.5,-235.5 456.5,-254.5 518.5,-254.5 518.5,-235.5 456.5,-235.5"/>
<text text-anchor="middle" x="487.5" y="-242.5" font-family="Helvetica,sans-Serif" font-size="10.00">algorithm</text>
</g>
<!-- Node18&#45;&gt;Node19 -->
<g id="edge25" class="edge"><title>Node18&#45;&gt;Node19</title>
<path fill="none" stroke="midnightblue" d="M401.888,-291.324C418.171,-282.703 443.367,-269.364 462.216,-259.386"/>
<polygon fill="midnightblue" stroke="midnightblue" points="463.952,-262.427 471.153,-254.655 460.677,-256.24 463.952,-262.427"/>
</g>
<!-- Node20 -->
<g id="node20" class="node"><title>Node20</title>
<polygon fill="white" stroke="#bfbfbf" points="537,-235.5 537,-254.5 584,-254.5 584,-235.5 537,-235.5"/>
<text text-anchor="middle" x="560.5" y="-242.5" font-family="Helvetica,sans-Serif" font-size="10.00">cmath</text>
</g>
<!-- Node18&#45;&gt;Node20 -->
<g id="edge26" class="edge"><title>Node18&#45;&gt;Node20</title>
<path fill="none" stroke="midnightblue" d="M413.229,-291.444C444.148,-281.903 494.141,-266.477 527.165,-256.286"/>
<polygon fill="midnightblue" stroke="midnightblue" points="528.306,-259.597 536.829,-253.304 526.242,-252.908 528.306,-259.597"/>
</g>
<!-- Node21 -->
<g id="node21" class="node"><title>Node21</title>
<g id="a_node21"><a xlink:href="Math_8inl.html" target="_top" xlink:title="Core/Math/Math.inl">
<polygon fill="white" stroke="black" points="332,-235.5 332,-254.5 439,-254.5 439,-235.5 332,-235.5"/>
<text text-anchor="middle" x="385.5" y="-242.5" font-family="Helvetica,sans-Serif" font-size="10.00">Core/Math/Math.inl</text>
</a>
</g>
</g>
<!-- Node18&#45;&gt;Node21 -->
<g id="edge27" class="edge"><title>Node18&#45;&gt;Node21</title>
<path fill="none" stroke="midnightblue" d="M380.334,-291.083C378.824,-283.927 378.394,-273.635 379.042,-264.691"/>
<polygon fill="midnightblue" stroke="midnightblue" points="382.515,-265.126 380.369,-254.751 375.577,-264.2 382.515,-265.126"/>
</g>
<!-- Node21&#45;&gt;Node18 -->
<g id="edge28" class="edge"><title>Node21&#45;&gt;Node18</title>
<path fill="none" stroke="midnightblue" d="M390.631,-254.751C392.157,-261.858 392.604,-272.136 391.972,-281.101"/>
<polygon fill="midnightblue" stroke="midnightblue" points="388.493,-280.713 390.666,-291.083 395.434,-281.622 388.493,-280.713"/>
</g>
</g>
</svg>
