<?xml version="1.0" encoding="UTF-8" standalone="no"?>
<!DOCTYPE svg PUBLIC "-//W3C//DTD SVG 1.1//EN"
 "http://www.w3.org/Graphics/SVG/1.1/DTD/svg11.dtd">
<!-- Generated by graphviz version 2.38.0 (20140413.2041)
 -->
<!-- Title: /home/travis/build/STORM&#45;IRIT/Radium&#45;Engine/src/Engine/Renderer/Light/SpotLight.cpp Pages: 1 -->
<svg width="1823pt" height="497pt"
 viewBox="0.00 0.00 1822.50 497.00" xmlns="http://www.w3.org/2000/svg" xmlns:xlink="http://www.w3.org/1999/xlink">
<g id="graph0" class="graph" transform="scale(1 1) rotate(0) translate(4 493)">
<title>/home/travis/build/STORM&#45;IRIT/Radium&#45;Engine/src/Engine/Renderer/Light/SpotLight.cpp</title>
<polygon fill="white" stroke="none" points="-4,4 -4,-493 1818.5,-493 1818.5,4 -4,4"/>
<!-- Node1 -->
<g id="node1" class="node"><title>Node1</title>
<polygon fill="#bfbfbf" stroke="black" points="1015.5,-436.5 1015.5,-488.5 1163.5,-488.5 1163.5,-436.5 1015.5,-436.5"/>
<text text-anchor="start" x="1023.5" y="-476.5" font-family="Helvetica,sans-Serif" font-size="10.00">/home/travis/build</text>
<text text-anchor="start" x="1023.5" y="-465.5" font-family="Helvetica,sans-Serif" font-size="10.00">/STORM&#45;IRIT/Radium&#45;Engine</text>
<text text-anchor="start" x="1023.5" y="-454.5" font-family="Helvetica,sans-Serif" font-size="10.00">/src/Engine/Renderer/Light</text>
<text text-anchor="middle" x="1089.5" y="-443.5" font-family="Helvetica,sans-Serif" font-size="10.00">/SpotLight.cpp</text>
</g>
<!-- Node2 -->
<g id="node2" class="node"><title>Node2</title>
<g id="a_node2"><a xlink:href="SpotLight_8hpp.html" target="_top" xlink:title="Engine/Renderer/Light\l/SpotLight.hpp">
<polygon fill="white" stroke="black" points="551,-302.5 551,-332.5 672,-332.5 672,-302.5 551,-302.5"/>
<text text-anchor="start" x="559" y="-320.5" font-family="Helvetica,sans-Serif" font-size="10.00">Engine/Renderer/Light</text>
<text text-anchor="middle" x="611.5" y="-309.5" font-family="Helvetica,sans-Serif" font-size="10.00">/SpotLight.hpp</text>
</a>
</g>
</g>
<!-- Node1&#45;&gt;Node2 -->
<g id="edge1" class="edge"><title>Node1&#45;&gt;Node2</title>
<path fill="none" stroke="midnightblue" d="M1015.34,-439.313C919.388,-410.609 754.331,-361.23 667.945,-335.386"/>
<polygon fill="midnightblue" stroke="midnightblue" points="668.899,-332.019 658.316,-332.506 666.893,-338.725 668.899,-332.019"/>
</g>
<!-- Node28 -->
<g id="node28" class="node"><title>Node28</title>
<g id="a_node28"><a xlink:href="RenderParameters_8hpp.html" target="_top" xlink:title="Engine/Renderer/RenderTechnique\l/RenderParameters.hpp">
<polygon fill="white" stroke="black" points="1164.5,-369.5 1164.5,-399.5 1342.5,-399.5 1342.5,-369.5 1164.5,-369.5"/>
<text text-anchor="start" x="1172.5" y="-387.5" font-family="Helvetica,sans-Serif" font-size="10.00">Engine/Renderer/RenderTechnique</text>
<text text-anchor="middle" x="1253.5" y="-376.5" font-family="Helvetica,sans-Serif" font-size="10.00">/RenderParameters.hpp</text>
</a>
</g>
</g>
<!-- Node1&#45;&gt;Node28 -->
<g id="edge35" class="edge"><title>Node1&#45;&gt;Node28</title>
<path fill="none" stroke="midnightblue" d="M1143.65,-436.404C1166.47,-425.831 1192.55,-413.745 1213.57,-404.004"/>
<polygon fill="midnightblue" stroke="midnightblue" points="1215.24,-407.087 1222.84,-399.707 1212.3,-400.736 1215.24,-407.087"/>
</g>
<!-- Node3 -->
<g id="node3" class="node"><title>Node3</title>
<g id="a_node3"><a xlink:href="RaEngine_8hpp.html" target="_top" xlink:title="Engine/RaEngine.hpp">
<polygon fill="white" stroke="black" points="731,-112.5 731,-131.5 848,-131.5 848,-112.5 731,-112.5"/>
<text text-anchor="middle" x="789.5" y="-119.5" font-family="Helvetica,sans-Serif" font-size="10.00">Engine/RaEngine.hpp</text>
</a>
</g>
</g>
<!-- Node2&#45;&gt;Node3 -->
<g id="edge2" class="edge"><title>Node2&#45;&gt;Node3</title>
<path fill="none" stroke="midnightblue" d="M580.158,-302.44C565.583,-294.105 549.691,-282.009 541.5,-266 521.661,-227.225 513.586,-201.435 541.5,-168 552.994,-154.233 651.468,-139.644 720.809,-130.932"/>
<polygon fill="midnightblue" stroke="midnightblue" points="721.322,-134.395 730.814,-129.69 720.459,-127.449 721.322,-134.395"/>
</g>
<!-- Node10 -->
<g id="node10" class="node"><title>Node10</title>
<g id="a_node10"><a xlink:href="Math_8hpp.html" target="_top" xlink:title="Core/Math/Math.hpp">
<polygon fill="white" stroke="black" points="690.5,-241 690.5,-260 804.5,-260 804.5,-241 690.5,-241"/>
<text text-anchor="middle" x="747.5" y="-248" font-family="Helvetica,sans-Serif" font-size="10.00">Core/Math/Math.hpp</text>
</a>
</g>
</g>
<!-- Node2&#45;&gt;Node10 -->
<g id="edge9" class="edge"><title>Node2&#45;&gt;Node10</title>
<path fill="none" stroke="midnightblue" d="M641.01,-302.396C664.662,-291.092 697.576,-275.361 720.53,-264.39"/>
<polygon fill="midnightblue" stroke="midnightblue" points="722.188,-267.477 729.701,-260.007 719.169,-261.161 722.188,-267.477"/>
</g>
<!-- Node15 -->
<g id="node15" class="node"><title>Node15</title>
<g id="a_node15"><a xlink:href="Light_8hpp.html" target="_top" xlink:title="Engine/Renderer/Light\l/Light.hpp">
<polygon fill="white" stroke="black" points="302,-235.5 302,-265.5 423,-265.5 423,-235.5 302,-235.5"/>
<text text-anchor="start" x="310" y="-253.5" font-family="Helvetica,sans-Serif" font-size="10.00">Engine/Renderer/Light</text>
<text text-anchor="middle" x="362.5" y="-242.5" font-family="Helvetica,sans-Serif" font-size="10.00">/Light.hpp</text>
</a>
</g>
</g>
<!-- Node2&#45;&gt;Node15 -->
<g id="edge16" class="edge"><title>Node2&#45;&gt;Node15</title>
<path fill="none" stroke="midnightblue" d="M557.777,-302.476C519.211,-292.408 467.076,-278.799 426.376,-268.174"/>
<polygon fill="midnightblue" stroke="midnightblue" points="427.115,-264.75 416.556,-265.611 425.347,-271.523 427.115,-264.75"/>
</g>
<!-- Node27 -->
<g id="node27" class="node"><title>Node27</title>
<g id="a_node27"><a xlink:href="SpotLight_8inl.html" target="_top" xlink:title="Engine/Renderer/Light\l/SpotLight.inl">
<polygon fill="white" stroke="black" points="551,-235.5 551,-265.5 672,-265.5 672,-235.5 551,-235.5"/>
<text text-anchor="start" x="559" y="-253.5" font-family="Helvetica,sans-Serif" font-size="10.00">Engine/Renderer/Light</text>
<text text-anchor="middle" x="611.5" y="-242.5" font-family="Helvetica,sans-Serif" font-size="10.00">/SpotLight.inl</text>
</a>
</g>
</g>
<!-- Node2&#45;&gt;Node27 -->
<g id="edge34" class="edge"><title>Node2&#45;&gt;Node27</title>
<path fill="none" stroke="midnightblue" d="M611.5,-302.396C611.5,-294.645 611.5,-284.812 611.5,-275.86"/>
<polygon fill="midnightblue" stroke="midnightblue" points="615,-275.576 611.5,-265.577 608,-275.577 615,-275.576"/>
</g>
<!-- Node4 -->
<g id="node4" class="node"><title>Node4</title>
<g id="a_node4"><a xlink:href="CoreMacros_8hpp.html" target="_top" xlink:title="Core/CoreMacros.hpp">
<polygon fill="white" stroke="black" points="841.5,-56.5 841.5,-75.5 961.5,-75.5 961.5,-56.5 841.5,-56.5"/>
<text text-anchor="middle" x="901.5" y="-63.5" font-family="Helvetica,sans-Serif" font-size="10.00">Core/CoreMacros.hpp</text>
</a>
</g>
</g>
<!-- Node3&#45;&gt;Node4 -->
<g id="edge3" class="edge"><title>Node3&#45;&gt;Node4</title>
<path fill="none" stroke="midnightblue" d="M807.495,-112.324C825.538,-103.625 853.547,-90.1202 874.303,-80.113"/>
<polygon fill="midnightblue" stroke="midnightblue" points="876.062,-83.1502 883.55,-75.6545 873.022,-76.8449 876.062,-83.1502"/>
</g>
<!-- Node5 -->
<g id="node5" class="node"><title>Node5</title>
<polygon fill="white" stroke="#bfbfbf" points="979.5,-0.5 979.5,-19.5 1031.5,-19.5 1031.5,-0.5 979.5,-0.5"/>
<text text-anchor="middle" x="1005.5" y="-7.5" font-family="Helvetica,sans-Serif" font-size="10.00">cassert</text>
</g>
<!-- Node4&#45;&gt;Node5 -->
<g id="edge4" class="edge"><title>Node4&#45;&gt;Node5</title>
<path fill="none" stroke="midnightblue" d="M918.209,-56.324C934.812,-47.7034 960.502,-34.3643 979.72,-24.3855"/>
<polygon fill="midnightblue" stroke="midnightblue" points="981.57,-27.3689 988.832,-19.6545 978.344,-21.1565 981.57,-27.3689"/>
</g>
<!-- Node6 -->
<g id="node6" class="node"><title>Node6</title>
<polygon fill="white" stroke="#bfbfbf" points="773,-0.5 773,-19.5 818,-19.5 818,-0.5 773,-0.5"/>
<text text-anchor="middle" x="795.5" y="-7.5" font-family="Helvetica,sans-Serif" font-size="10.00">cstdio</text>
</g>
<!-- Node4&#45;&gt;Node6 -->
<g id="edge5" class="edge"><title>Node4&#45;&gt;Node6</title>
<path fill="none" stroke="midnightblue" d="M884.469,-56.324C867.47,-47.6641 841.124,-34.2424 821.507,-24.249"/>
<polygon fill="midnightblue" stroke="midnightblue" points="822.988,-21.0752 812.488,-19.6545 819.81,-27.3125 822.988,-21.0752"/>
</g>
<!-- Node7 -->
<g id="node7" class="node"><title>Node7</title>
<polygon fill="white" stroke="#bfbfbf" points="836,-0.5 836,-19.5 895,-19.5 895,-0.5 836,-0.5"/>
<text text-anchor="middle" x="865.5" y="-7.5" font-family="Helvetica,sans-Serif" font-size="10.00">iostream</text>
</g>
<!-- Node4&#45;&gt;Node7 -->
<g id="edge6" class="edge"><title>Node4&#45;&gt;Node7</title>
<path fill="none" stroke="midnightblue" d="M895.555,-56.083C890.523,-48.5341 883.163,-37.4948 876.987,-28.2298"/>
<polygon fill="midnightblue" stroke="midnightblue" points="879.793,-26.1301 871.334,-19.7511 873.969,-30.0131 879.793,-26.1301"/>
</g>
<!-- Node8 -->
<g id="node8" class="node"><title>Node8</title>
<polygon fill="white" stroke="#bfbfbf" points="1368.5,-0.5 1368.5,-19.5 1424.5,-19.5 1424.5,-0.5 1368.5,-0.5"/>
<text text-anchor="middle" x="1396.5" y="-7.5" font-family="Helvetica,sans-Serif" font-size="10.00">sstream</text>
</g>
<!-- Node4&#45;&gt;Node8 -->
<g id="edge7" class="edge"><title>Node4&#45;&gt;Node8</title>
<path fill="none" stroke="midnightblue" d="M961.702,-58.4325C1064.84,-47.1809 1272.49,-24.5288 1358.18,-15.1809"/>
<polygon fill="midnightblue" stroke="midnightblue" points="1358.68,-18.6463 1368.24,-14.0824 1357.92,-11.6876 1358.68,-18.6463"/>
</g>
<!-- Node9 -->
<g id="node9" class="node"><title>Node9</title>
<polygon fill="white" stroke="#bfbfbf" points="913.5,-0.5 913.5,-19.5 961.5,-19.5 961.5,-0.5 913.5,-0.5"/>
<text text-anchor="middle" x="937.5" y="-7.5" font-family="Helvetica,sans-Serif" font-size="10.00">thread</text>
</g>
<!-- Node4&#45;&gt;Node9 -->
<g id="edge8" class="edge"><title>Node4&#45;&gt;Node9</title>
<path fill="none" stroke="midnightblue" d="M907.445,-56.083C912.477,-48.5341 919.837,-37.4948 926.013,-28.2298"/>
<polygon fill="midnightblue" stroke="midnightblue" points="929.031,-30.0131 931.666,-19.7511 923.207,-26.1301 929.031,-30.0131"/>
</g>
<!-- Node11 -->
<g id="node11" class="node"><title>Node11</title>
<g id="a_node11"><a xlink:href="RaCore_8hpp.html" target="_top" xlink:title="Core/RaCore.hpp">
<polygon fill="white" stroke="black" points="964.5,-112.5 964.5,-131.5 1062.5,-131.5 1062.5,-112.5 964.5,-112.5"/>
<text text-anchor="middle" x="1013.5" y="-119.5" font-family="Helvetica,sans-Serif" font-size="10.00">Core/RaCore.hpp</text>
</a>
</g>
</g>
<!-- Node10&#45;&gt;Node11 -->
<g id="edge10" class="edge"><title>Node10&#45;&gt;Node11</title>
<path fill="none" stroke="midnightblue" d="M804.67,-243.618C865.923,-236.246 957.937,-221.745 984.5,-199 1001.4,-184.533 1008.48,-159.1 1011.43,-141.671"/>
<polygon fill="midnightblue" stroke="midnightblue" points="1014.92,-141.955 1012.83,-131.568 1007.99,-140.992 1014.92,-141.955"/>
</g>
<!-- Node12 -->
<g id="node12" class="node"><title>Node12</title>
<polygon fill="white" stroke="#bfbfbf" points="550.5,-174 550.5,-193 612.5,-193 612.5,-174 550.5,-174"/>
<text text-anchor="middle" x="581.5" y="-181" font-family="Helvetica,sans-Serif" font-size="10.00">algorithm</text>
</g>
<!-- Node10&#45;&gt;Node12 -->
<g id="edge12" class="edge"><title>Node10&#45;&gt;Node12</title>
<path fill="none" stroke="midnightblue" d="M725.456,-240.869C696.603,-229.571 645.847,-209.696 612.959,-196.818"/>
<polygon fill="midnightblue" stroke="midnightblue" points="613.958,-193.451 603.37,-193.064 611.406,-199.969 613.958,-193.451"/>
</g>
<!-- Node13 -->
<g id="node13" class="node"><title>Node13</title>
<polygon fill="white" stroke="#bfbfbf" points="631,-174 631,-193 678,-193 678,-174 631,-174"/>
<text text-anchor="middle" x="654.5" y="-181" font-family="Helvetica,sans-Serif" font-size="10.00">cmath</text>
</g>
<!-- Node10&#45;&gt;Node13 -->
<g id="edge13" class="edge"><title>Node10&#45;&gt;Node13</title>
<path fill="none" stroke="midnightblue" d="M734.958,-240.734C719.619,-230.013 693.441,-211.716 675.123,-198.914"/>
<polygon fill="midnightblue" stroke="midnightblue" points="677.045,-195.987 666.844,-193.127 673.035,-201.725 677.045,-195.987"/>
</g>
<!-- Node14 -->
<g id="node14" class="node"><title>Node14</title>
<g id="a_node14"><a xlink:href="Math_8inl.html" target="_top" xlink:title="Core/Math/Math.inl">
<polygon fill="white" stroke="black" points="696,-174 696,-193 803,-193 803,-174 696,-174"/>
<text text-anchor="middle" x="749.5" y="-181" font-family="Helvetica,sans-Serif" font-size="10.00">Core/Math/Math.inl</text>
</a>
</g>
</g>
<!-- Node10&#45;&gt;Node14 -->
<g id="edge14" class="edge"><title>Node10&#45;&gt;Node14</title>
<path fill="none" stroke="midnightblue" d="M742.981,-240.734C741.265,-231.183 741.279,-215.618 742.738,-203.283"/>
<polygon fill="midnightblue" stroke="midnightblue" points="746.239,-203.574 744.475,-193.127 739.339,-202.394 746.239,-203.574"/>
</g>
<!-- Node11&#45;&gt;Node4 -->
<g id="edge11" class="edge"><title>Node11&#45;&gt;Node4</title>
<path fill="none" stroke="midnightblue" d="M995.505,-112.324C977.462,-103.625 949.453,-90.1202 928.697,-80.113"/>
<polygon fill="midnightblue" stroke="midnightblue" points="929.978,-76.8449 919.45,-75.6545 926.938,-83.1502 929.978,-76.8449"/>
</g>
<!-- Node14&#45;&gt;Node10 -->
<g id="edge15" class="edge"><title>Node14&#45;&gt;Node10</title>
<path fill="none" stroke="midnightblue" d="M753.994,-193.127C755.726,-202.62 755.728,-218.17 754.284,-230.537"/>
<polygon fill="midnightblue" stroke="midnightblue" points="750.776,-230.29 752.558,-240.734 757.678,-231.458 750.776,-230.29"/>
</g>
<!-- Node15&#45;&gt;Node3 -->
<g id="edge32" class="edge"><title>Node15&#45;&gt;Node3</title>
<path fill="none" stroke="midnightblue" d="M394.788,-235.376C415.466,-225.919 442.614,-212.726 465.5,-199 485.704,-186.882 486.725,-176.994 508.5,-168 545.876,-152.561 650.352,-138.467 720.83,-130.31"/>
<polygon fill="midnightblue" stroke="midnightblue" points="721.433,-133.764 730.97,-129.151 720.637,-126.81 721.433,-133.764"/>
</g>
<!-- Node16 -->
<g id="node16" class="node"><title>Node16</title>
<g id="a_node16"><a xlink:href="Color_8hpp.html" target="_top" xlink:title="Core/Utils/Color.hpp">
<polygon fill="white" stroke="black" points="139,-174 139,-193 250,-193 250,-174 139,-174"/>
<text text-anchor="middle" x="194.5" y="-181" font-family="Helvetica,sans-Serif" font-size="10.00">Core/Utils/Color.hpp</text>
</a>
</g>
</g>
<!-- Node15&#45;&gt;Node16 -->
<g id="edge17" class="edge"><title>Node15&#45;&gt;Node16</title>
<path fill="none" stroke="midnightblue" d="M326.047,-235.396C296.178,-223.84 254.35,-207.656 225.936,-196.663"/>
<polygon fill="midnightblue" stroke="midnightblue" points="227.077,-193.351 216.487,-193.007 224.551,-199.88 227.077,-193.351"/>
</g>
<!-- Node20 -->
<g id="node20" class="node"><title>Node20</title>
<g id="a_node20"><a xlink:href="Component_8hpp.html" target="_top" xlink:title="Engine/Component/Component.hpp">
<polygon fill="white" stroke="black" points="268.5,-174 268.5,-193 456.5,-193 456.5,-174 268.5,-174"/>
<text text-anchor="middle" x="362.5" y="-181" font-family="Helvetica,sans-Serif" font-size="10.00">Engine/Component/Component.hpp</text>
</a>
</g>
</g>
<!-- Node15&#45;&gt;Node20 -->
<g id="edge22" class="edge"><title>Node15&#45;&gt;Node20</title>
<path fill="none" stroke="midnightblue" d="M362.5,-235.396C362.5,-226.064 362.5,-213.714 362.5,-203.517"/>
<polygon fill="midnightblue" stroke="midnightblue" points="366,-203.195 362.5,-193.195 359,-203.195 366,-203.195"/>
</g>
<!-- Node26 -->
<g id="node26" class="node"><title>Node26</title>
<g id="a_node26"><a xlink:href="Light_8inl.html" target="_top" xlink:title="Engine/Renderer/Light\l/Light.inl">
<polygon fill="white" stroke="black" points="0,-168.5 0,-198.5 121,-198.5 121,-168.5 0,-168.5"/>
<text text-anchor="start" x="8" y="-186.5" font-family="Helvetica,sans-Serif" font-size="10.00">Engine/Renderer/Light</text>
<text text-anchor="middle" x="60.5" y="-175.5" font-family="Helvetica,sans-Serif" font-size="10.00">/Light.inl</text>
</a>
</g>
</g>
<!-- Node15&#45;&gt;Node26 -->
<g id="edge33" class="edge"><title>Node15&#45;&gt;Node26</title>
<path fill="none" stroke="midnightblue" d="M301.749,-236.424C252.395,-225.802 182.725,-210.807 130.934,-199.66"/>
<polygon fill="midnightblue" stroke="midnightblue" points="131.666,-196.237 121.154,-197.555 130.193,-203.08 131.666,-196.237"/>
</g>
<!-- Node16&#45;&gt;Node4 -->
<g id="edge18" class="edge"><title>Node16&#45;&gt;Node4</title>
<path fill="none" stroke="midnightblue" d="M199.734,-173.831C209.703,-158.223 233.071,-125.743 262.5,-112 312.952,-88.4403 675.547,-74.202 831.017,-69.1195"/>
<polygon fill="midnightblue" stroke="midnightblue" points="831.517,-72.6053 841.399,-68.7837 831.291,-65.6089 831.517,-72.6053"/>
</g>
<!-- Node17 -->
<g id="node17" class="node"><title>Node17</title>
<polygon fill="white" stroke="#bfbfbf" points="471.5,-112.5 471.5,-131.5 539.5,-131.5 539.5,-112.5 471.5,-112.5"/>
<text text-anchor="middle" x="505.5" y="-119.5" font-family="Helvetica,sans-Serif" font-size="10.00">Eigen/Core</text>
</g>
<!-- Node16&#45;&gt;Node17 -->
<g id="edge19" class="edge"><title>Node16&#45;&gt;Node17</title>
<path fill="none" stroke="midnightblue" d="M231.565,-173.942C240.682,-171.917 250.431,-169.819 259.5,-168 348.912,-150.068 371.933,-149.139 461.5,-132 461.601,-131.981 461.701,-131.961 461.802,-131.942"/>
<polygon fill="midnightblue" stroke="midnightblue" points="462.266,-135.418 471.407,-130.063 460.921,-128.548 462.266,-135.418"/>
</g>
<!-- Node18 -->
<g id="node18" class="node"><title>Node18</title>
<polygon fill="white" stroke="#bfbfbf" points="557.5,-112.5 557.5,-131.5 651.5,-131.5 651.5,-112.5 557.5,-112.5"/>
<text text-anchor="middle" x="604.5" y="-119.5" font-family="Helvetica,sans-Serif" font-size="10.00">Eigen/Geometry</text>
</g>
<!-- Node16&#45;&gt;Node18 -->
<g id="edge20" class="edge"><title>Node16&#45;&gt;Node18</title>
<path fill="none" stroke="midnightblue" d="M229.799,-173.982C239.398,-171.842 249.817,-169.679 259.5,-168 383.796,-146.445 418.606,-150.067 547.218,-132.13"/>
<polygon fill="midnightblue" stroke="midnightblue" points="548.052,-135.547 557.465,-130.683 547.073,-128.616 548.052,-135.547"/>
</g>
<!-- Node19 -->
<g id="node19" class="node"><title>Node19</title>
<polygon fill="white" stroke="#bfbfbf" points="29.5,-112.5 29.5,-131.5 83.5,-131.5 83.5,-112.5 29.5,-112.5"/>
<text text-anchor="middle" x="56.5" y="-119.5" font-family="Helvetica,sans-Serif" font-size="10.00">random</text>
</g>
<!-- Node16&#45;&gt;Node19 -->
<g id="edge21" class="edge"><title>Node16&#45;&gt;Node19</title>
<path fill="none" stroke="midnightblue" d="M174.728,-173.975C151.364,-163.901 112.286,-147.053 85.497,-135.502"/>
<polygon fill="midnightblue" stroke="midnightblue" points="86.804,-132.254 76.2354,-131.509 84.0324,-138.682 86.804,-132.254"/>
</g>
<!-- Node20&#45;&gt;Node3 -->
<g id="edge28" class="edge"><title>Node20&#45;&gt;Node3</title>
<path fill="none" stroke="midnightblue" d="M423.679,-173.975C502.376,-163.009 638.687,-144.015 720.847,-132.566"/>
<polygon fill="midnightblue" stroke="midnightblue" points="721.415,-136.021 730.836,-131.174 720.449,-129.088 721.415,-136.021"/>
</g>
<!-- Node20&#45;&gt;Node17 -->
<g id="edge26" class="edge"><title>Node20&#45;&gt;Node17</title>
<path fill="none" stroke="midnightblue" d="M382.988,-173.975C407.306,-163.857 448.049,-146.905 475.817,-135.351"/>
<polygon fill="midnightblue" stroke="midnightblue" points="477.161,-138.582 485.05,-131.509 474.472,-132.119 477.161,-138.582"/>
</g>
<!-- Node20&#45;&gt;Node18 -->
<g id="edge27" class="edge"><title>Node20&#45;&gt;Node18</title>
<path fill="none" stroke="midnightblue" d="M397.173,-173.975C440.032,-163.437 513.043,-145.486 559.999,-133.941"/>
<polygon fill="midnightblue" stroke="midnightblue" points="561.016,-137.296 569.892,-131.509 559.345,-130.498 561.016,-137.296"/>
</g>
<!-- Node21 -->
<g id="node21" class="node"><title>Node21</title>
<g id="a_node21"><a xlink:href="Index_8hpp.html" target="_top" xlink:title="Core/Utils/Index.hpp">
<polygon fill="white" stroke="black" points="102,-112.5 102,-131.5 215,-131.5 215,-112.5 102,-112.5"/>
<text text-anchor="middle" x="158.5" y="-119.5" font-family="Helvetica,sans-Serif" font-size="10.00">Core/Utils/Index.hpp</text>
</a>
</g>
</g>
<!-- Node20&#45;&gt;Node21 -->
<g id="edge23" class="edge"><title>Node20&#45;&gt;Node21</title>
<path fill="none" stroke="midnightblue" d="M333.272,-173.975C297.597,-163.57 237.14,-145.937 197.518,-134.38"/>
<polygon fill="midnightblue" stroke="midnightblue" points="198.254,-130.949 187.674,-131.509 196.294,-137.669 198.254,-130.949"/>
</g>
<!-- Node24 -->
<g id="node24" class="node"><title>Node24</title>
<polygon fill="white" stroke="#bfbfbf" points="1359,-112.5 1359,-131.5 1406,-131.5 1406,-112.5 1359,-112.5"/>
<text text-anchor="middle" x="1382.5" y="-119.5" font-family="Helvetica,sans-Serif" font-size="10.00">vector</text>
</g>
<!-- Node20&#45;&gt;Node24 -->
<g id="edge29" class="edge"><title>Node20&#45;&gt;Node24</title>
<path fill="none" stroke="midnightblue" d="M456.746,-174.22C484.071,-171.995 513.961,-169.728 541.5,-168 896.933,-145.693 992.595,-186.856 1348.77,-131.701"/>
<polygon fill="midnightblue" stroke="midnightblue" points="1349.5,-135.129 1358.84,-130.126 1348.42,-128.213 1349.5,-135.129"/>
</g>
<!-- Node25 -->
<g id="node25" class="node"><title>Node25</title>
<g id="a_node25"><a xlink:href="Component_8inl.html" target="_top" xlink:title="Engine/Component/Component.inl">
<polygon fill="white" stroke="black" points="272,-112.5 272,-131.5 453,-131.5 453,-112.5 272,-112.5"/>
<text text-anchor="middle" x="362.5" y="-119.5" font-family="Helvetica,sans-Serif" font-size="10.00">Engine/Component/Component.inl</text>
</a>
</g>
</g>
<!-- Node20&#45;&gt;Node25 -->
<g id="edge30" class="edge"><title>Node20&#45;&gt;Node25</title>
<path fill="none" stroke="midnightblue" d="M357.599,-173.975C355.768,-165.58 355.297,-152.481 356.185,-141.663"/>
<polygon fill="midnightblue" stroke="midnightblue" points="359.686,-141.897 357.603,-131.509 352.754,-140.929 359.686,-141.897"/>
</g>
<!-- Node22 -->
<g id="node22" class="node"><title>Node22</title>
<polygon fill="white" stroke="#bfbfbf" points="91.5,-56.5 91.5,-75.5 133.5,-75.5 133.5,-56.5 91.5,-56.5"/>
<text text-anchor="middle" x="112.5" y="-63.5" font-family="Helvetica,sans-Serif" font-size="10.00">limits</text>
</g>
<!-- Node21&#45;&gt;Node22 -->
<g id="edge24" class="edge"><title>Node21&#45;&gt;Node22</title>
<path fill="none" stroke="midnightblue" d="M150.904,-112.083C144.273,-104.298 134.479,-92.8015 126.442,-83.3665"/>
<polygon fill="midnightblue" stroke="midnightblue" points="129.104,-81.0939 119.955,-75.7511 123.775,-85.6332 129.104,-81.0939"/>
</g>
<!-- Node23 -->
<g id="node23" class="node"><title>Node23</title>
<g id="a_node23"><a xlink:href="Index_8inl.html" target="_top" xlink:title="Core/Utils/Index.inl">
<polygon fill="white" stroke="black" points="152,-56.5 152,-75.5 257,-75.5 257,-56.5 152,-56.5"/>
<text text-anchor="middle" x="204.5" y="-63.5" font-family="Helvetica,sans-Serif" font-size="10.00">Core/Utils/Index.inl</text>
</a>
</g>
</g>
<!-- Node21&#45;&gt;Node23 -->
<g id="edge25" class="edge"><title>Node21&#45;&gt;Node23</title>
<path fill="none" stroke="midnightblue" d="M166.096,-112.083C172.727,-104.298 182.521,-92.8015 190.558,-83.3665"/>
<polygon fill="midnightblue" stroke="midnightblue" points="193.225,-85.6332 197.045,-75.7511 187.896,-81.0939 193.225,-85.6332"/>
</g>
<!-- Node25&#45;&gt;Node20 -->
<g id="edge31" class="edge"><title>Node25&#45;&gt;Node20</title>
<path fill="none" stroke="midnightblue" d="M367.397,-131.509C369.23,-139.898 369.703,-152.996 368.817,-163.817"/>
<polygon fill="midnightblue" stroke="midnightblue" points="365.315,-163.588 367.401,-173.975 372.248,-164.554 365.315,-163.588"/>
</g>
<!-- Node28&#45;&gt;Node3 -->
<g id="edge36" class="edge"><title>Node28&#45;&gt;Node3</title>
<path fill="none" stroke="midnightblue" d="M1164.45,-375.959C1116.38,-369.272 1057.11,-356.68 1008.5,-333 912.286,-286.127 830.849,-181.381 801.337,-140.148"/>
<polygon fill="midnightblue" stroke="midnightblue" points="804.024,-137.885 795.403,-131.726 798.301,-141.917 804.024,-137.885"/>
</g>
<!-- Node28&#45;&gt;Node24 -->
<g id="edge38" class="edge"><title>Node28&#45;&gt;Node24</title>
<path fill="none" stroke="midnightblue" d="M1342.82,-378.37C1415.81,-368.595 1512.73,-341.261 1549.5,-266 1600.95,-160.704 1418.5,-262.227 1366.5,-199 1352.9,-182.46 1362.33,-157.189 1371.45,-140.388"/>
<polygon fill="midnightblue" stroke="midnightblue" points="1374.57,-142 1376.61,-131.604 1368.53,-138.455 1374.57,-142"/>
</g>
<!-- Node29 -->
<g id="node29" class="node"><title>Node29</title>
<polygon fill="white" stroke="#bfbfbf" points="1552.5,-112.5 1552.5,-131.5 1584.5,-131.5 1584.5,-112.5 1552.5,-112.5"/>
<text text-anchor="middle" x="1568.5" y="-119.5" font-family="Helvetica,sans-Serif" font-size="10.00">set</text>
</g>
<!-- Node28&#45;&gt;Node29 -->
<g id="edge37" class="edge"><title>Node28&#45;&gt;Node29</title>
<path fill="none" stroke="midnightblue" d="M1342.56,-373.693C1408.05,-365.176 1490.49,-351.328 1519.5,-333 1574.67,-298.146 1574.2,-264.037 1579.5,-199 1580.62,-185.268 1581.15,-181.679 1579.5,-168 1578.43,-159.107 1576.21,-149.434 1574.04,-141.344"/>
<polygon fill="midnightblue" stroke="midnightblue" points="1577.34,-140.167 1571.23,-131.514 1570.61,-142.091 1577.34,-140.167"/>
</g>
<!-- Node30 -->
<g id="node30" class="node"><title>Node30</title>
<g id="a_node30"><a xlink:href="AlignedAllocator_8hpp.html" target="_top" xlink:title="Core/Containers/AlignedAllocator.hpp">
<polygon fill="white" stroke="black" points="1260.5,-308 1260.5,-327 1454.5,-327 1454.5,-308 1260.5,-308"/>
<text text-anchor="middle" x="1357.5" y="-315" font-family="Helvetica,sans-Serif" font-size="10.00">Core/Containers/AlignedAllocator.hpp</text>
</a>
</g>
</g>
<!-- Node28&#45;&gt;Node30 -->
<g id="edge39" class="edge"><title>Node28&#45;&gt;Node30</title>
<path fill="none" stroke="midnightblue" d="M1276.07,-369.396C1293.51,-358.496 1317.53,-343.479 1334.97,-332.584"/>
<polygon fill="midnightblue" stroke="midnightblue" points="1337.26,-335.275 1343.89,-327.007 1333.55,-329.339 1337.26,-335.275"/>
</g>
<!-- Node35 -->
<g id="node35" class="node"><title>Node35</title>
<g id="a_node35"><a xlink:href="Types_8hpp.html" target="_top" xlink:title="Core/Math/Types.hpp">
<polygon fill="white" stroke="black" points="859.5,-174 859.5,-193 975.5,-193 975.5,-174 859.5,-174"/>
<text text-anchor="middle" x="917.5" y="-181" font-family="Helvetica,sans-Serif" font-size="10.00">Core/Math/Types.hpp</text>
</a>
</g>
</g>
<!-- Node28&#45;&gt;Node35 -->
<g id="edge45" class="edge"><title>Node28&#45;&gt;Node35</title>
<path fill="none" stroke="midnightblue" d="M1164.32,-372.65C1127.77,-365.351 1086.22,-353.195 1052.5,-333 995.34,-298.77 948.25,-232.823 928.078,-201.639"/>
<polygon fill="midnightblue" stroke="midnightblue" points="931.009,-199.726 922.701,-193.151 925.096,-203.472 931.009,-199.726"/>
</g>
<!-- Node37 -->
<g id="node37" class="node"><title>Node37</title>
<g id="a_node37"><a xlink:href="Log_8hpp.html" target="_top" xlink:title="Core/Utils/Log.hpp">
<polygon fill="white" stroke="black" points="1685.5,-174 1685.5,-193 1789.5,-193 1789.5,-174 1685.5,-174"/>
<text text-anchor="middle" x="1737.5" y="-181" font-family="Helvetica,sans-Serif" font-size="10.00">Core/Utils/Log.hpp</text>
</a>
</g>
</g>
<!-- Node28&#45;&gt;Node37 -->
<g id="edge50" class="edge"><title>Node28&#45;&gt;Node37</title>
<path fill="none" stroke="midnightblue" d="M1342.57,-379.872C1439.21,-374.516 1586.08,-361.813 1633.5,-333 1684.73,-301.87 1717.3,-234.859 1730.62,-202.591"/>
<polygon fill="midnightblue" stroke="midnightblue" points="1733.95,-203.668 1734.39,-193.082 1727.45,-201.084 1733.95,-203.668"/>
</g>
<!-- Node41 -->
<g id="node41" class="node"><title>Node41</title>
<g id="a_node41"><a xlink:href="RenderParameters_8inl.html" target="_top" xlink:title="Engine/Renderer/RenderTechnique\l/RenderParameters.inl">
<polygon fill="white" stroke="black" points="1061.5,-302.5 1061.5,-332.5 1239.5,-332.5 1239.5,-302.5 1061.5,-302.5"/>
<text text-anchor="start" x="1069.5" y="-320.5" font-family="Helvetica,sans-Serif" font-size="10.00">Engine/Renderer/RenderTechnique</text>
<text text-anchor="middle" x="1150.5" y="-309.5" font-family="Helvetica,sans-Serif" font-size="10.00">/RenderParameters.inl</text>
</a>
</g>
</g>
<!-- Node28&#45;&gt;Node41 -->
<g id="edge56" class="edge"><title>Node28&#45;&gt;Node41</title>
<path fill="none" stroke="midnightblue" d="M1231.15,-369.396C1216.57,-360.197 1197.35,-348.066 1181.33,-337.955"/>
<polygon fill="midnightblue" stroke="midnightblue" points="1183.13,-334.953 1172.81,-332.577 1179.39,-340.873 1183.13,-334.953"/>
</g>
<!-- Node30&#45;&gt;Node11 -->
<g id="edge40" class="edge"><title>Node30&#45;&gt;Node11</title>
<path fill="none" stroke="midnightblue" d="M1294.77,-307.958C1207.6,-295.834 1059.47,-274.198 1050.5,-266 1015.25,-233.79 1011.7,-172.778 1012.39,-141.907"/>
<polygon fill="midnightblue" stroke="midnightblue" points="1015.9,-141.807 1012.8,-131.674 1008.9,-141.524 1015.9,-141.807"/>
</g>
<!-- Node31 -->
<g id="node31" class="node"><title>Node31</title>
<polygon fill="white" stroke="#bfbfbf" points="1321.5,-241 1321.5,-260 1403.5,-260 1403.5,-241 1321.5,-241"/>
<text text-anchor="middle" x="1362.5" y="-248" font-family="Helvetica,sans-Serif" font-size="10.00">mm_malloc.h</text>
</g>
<!-- Node30&#45;&gt;Node31 -->
<g id="edge41" class="edge"><title>Node30&#45;&gt;Node31</title>
<path fill="none" stroke="midnightblue" d="M1358.17,-307.734C1358.91,-298.183 1360.11,-282.618 1361.06,-270.283"/>
<polygon fill="midnightblue" stroke="midnightblue" points="1364.56,-270.366 1361.84,-260.127 1357.58,-269.829 1364.56,-270.366"/>
</g>
<!-- Node32 -->
<g id="node32" class="node"><title>Node32</title>
<polygon fill="white" stroke="#bfbfbf" points="1421.5,-241 1421.5,-260 1473.5,-260 1473.5,-241 1421.5,-241"/>
<text text-anchor="middle" x="1447.5" y="-248" font-family="Helvetica,sans-Serif" font-size="10.00">cstddef</text>
</g>
<!-- Node30&#45;&gt;Node32 -->
<g id="edge42" class="edge"><title>Node30&#45;&gt;Node32</title>
<path fill="none" stroke="midnightblue" d="M1369.64,-307.734C1384.35,-297.111 1409.36,-279.049 1427.06,-266.264"/>
<polygon fill="midnightblue" stroke="midnightblue" points="1429.5,-268.82 1435.55,-260.127 1425.4,-263.145 1429.5,-268.82"/>
</g>
<!-- Node33 -->
<g id="node33" class="node"><title>Node33</title>
<polygon fill="white" stroke="#bfbfbf" points="1492,-241 1492,-260 1541,-260 1541,-241 1492,-241"/>
<text text-anchor="middle" x="1516.5" y="-248" font-family="Helvetica,sans-Serif" font-size="10.00">cstdint</text>
</g>
<!-- Node30&#45;&gt;Node33 -->
<g id="edge43" class="edge"><title>Node30&#45;&gt;Node33</title>
<path fill="none" stroke="midnightblue" d="M1379.23,-307.868C1404.21,-297.912 1446.4,-280.988 1482.5,-266 1483.91,-265.416 1485.35,-264.815 1486.8,-264.206"/>
<polygon fill="midnightblue" stroke="midnightblue" points="1488.54,-267.269 1496.39,-260.151 1485.82,-260.821 1488.54,-267.269"/>
</g>
<!-- Node34 -->
<g id="node34" class="node"><title>Node34</title>
<polygon fill="white" stroke="#bfbfbf" points="1256,-241 1256,-260 1303,-260 1303,-241 1256,-241"/>
<text text-anchor="middle" x="1279.5" y="-248" font-family="Helvetica,sans-Serif" font-size="10.00">cstdlib</text>
</g>
<!-- Node30&#45;&gt;Node34 -->
<g id="edge44" class="edge"><title>Node30&#45;&gt;Node34</title>
<path fill="none" stroke="midnightblue" d="M1346.98,-307.734C1334.35,-297.208 1312.96,-279.379 1297.64,-266.617"/>
<polygon fill="midnightblue" stroke="midnightblue" points="1299.78,-263.84 1289.85,-260.127 1295.29,-269.218 1299.78,-263.84"/>
</g>
<!-- Node35&#45;&gt;Node11 -->
<g id="edge46" class="edge"><title>Node35&#45;&gt;Node11</title>
<path fill="none" stroke="midnightblue" d="M931.254,-173.975C946.866,-164.299 972.563,-148.372 991.083,-136.894"/>
<polygon fill="midnightblue" stroke="midnightblue" points="993.115,-139.752 999.771,-131.509 989.427,-133.802 993.115,-139.752"/>
</g>
<!-- Node35&#45;&gt;Node17 -->
<g id="edge47" class="edge"><title>Node35&#45;&gt;Node17</title>
<path fill="none" stroke="midnightblue" d="M859.122,-174.514C766.79,-161.882 593.63,-138.192 549.727,-131.886"/>
<polygon fill="midnightblue" stroke="midnightblue" points="550.134,-128.408 539.726,-130.39 549.098,-135.331 550.134,-128.408"/>
</g>
<!-- Node35&#45;&gt;Node18 -->
<g id="edge48" class="edge"><title>Node35&#45;&gt;Node18</title>
<path fill="none" stroke="midnightblue" d="M872.655,-173.975C816.407,-163.283 720.009,-144.958 659.406,-133.437"/>
<polygon fill="midnightblue" stroke="midnightblue" points="659.74,-129.938 649.262,-131.509 658.432,-136.815 659.74,-129.938"/>
</g>
<!-- Node36 -->
<g id="node36" class="node"><title>Node36</title>
<polygon fill="white" stroke="#bfbfbf" points="866.5,-112.5 866.5,-131.5 946.5,-131.5 946.5,-112.5 866.5,-112.5"/>
<text text-anchor="middle" x="906.5" y="-119.5" font-family="Helvetica,sans-Serif" font-size="10.00">Eigen/Sparse</text>
</g>
<!-- Node35&#45;&gt;Node36 -->
<g id="edge49" class="edge"><title>Node35&#45;&gt;Node36</title>
<path fill="none" stroke="midnightblue" d="M915.924,-173.975C914.372,-165.58 911.95,-152.481 909.95,-141.663"/>
<polygon fill="midnightblue" stroke="midnightblue" points="913.333,-140.706 908.073,-131.509 906.449,-141.979 913.333,-140.706"/>
</g>
<!-- Node37&#45;&gt;Node8 -->
<g id="edge53" class="edge"><title>Node37&#45;&gt;Node8</title>
<path fill="none" stroke="midnightblue" d="M1738.24,-173.897C1739.02,-159.25 1738.36,-129.373 1722.5,-112 1646.46,-28.7258 1503.31,-13.4472 1434.85,-11.0889"/>
<polygon fill="midnightblue" stroke="midnightblue" points="1434.62,-7.5815 1424.53,-10.8129 1434.43,-14.579 1434.62,-7.5815"/>
</g>
<!-- Node37&#45;&gt;Node11 -->
<g id="edge51" class="edge"><title>Node37&#45;&gt;Node11</title>
<path fill="none" stroke="midnightblue" d="M1685.44,-178.056C1650.64,-175.118 1603.84,-171.228 1562.5,-168 1347.66,-151.224 1290.61,-156.625 1072.67,-132.045"/>
<polygon fill="midnightblue" stroke="midnightblue" points="1072.84,-128.541 1062.51,-130.89 1072.05,-135.496 1072.84,-128.541"/>
</g>
<!-- Node38 -->
<g id="node38" class="node"><title>Node38</title>
<polygon fill="white" stroke="#bfbfbf" points="1770.5,-112.5 1770.5,-131.5 1814.5,-131.5 1814.5,-112.5 1770.5,-112.5"/>
<text text-anchor="middle" x="1792.5" y="-119.5" font-family="Helvetica,sans-Serif" font-size="10.00">ctime</text>
</g>
<!-- Node37&#45;&gt;Node38 -->
<g id="edge52" class="edge"><title>Node37&#45;&gt;Node38</title>
<path fill="none" stroke="midnightblue" d="M1745.38,-173.975C1753.79,-164.873 1767.32,-150.241 1777.73,-138.983"/>
<polygon fill="midnightblue" stroke="midnightblue" points="1780.42,-141.228 1784.63,-131.509 1775.28,-136.477 1780.42,-141.228"/>
</g>
<!-- Node39 -->
<g id="node39" class="node"><title>Node39</title>
<polygon fill="white" stroke="#bfbfbf" points="1665,-112.5 1665,-131.5 1714,-131.5 1714,-112.5 1665,-112.5"/>
<text text-anchor="middle" x="1689.5" y="-119.5" font-family="Helvetica,sans-Serif" font-size="10.00">stdio.h</text>
</g>
<!-- Node37&#45;&gt;Node39 -->
<g id="edge54" class="edge"><title>Node37&#45;&gt;Node39</title>
<path fill="none" stroke="midnightblue" d="M1730.62,-173.975C1723.35,-164.962 1711.7,-150.525 1702.66,-139.312"/>
<polygon fill="midnightblue" stroke="midnightblue" points="1705.37,-137.095 1696.36,-131.509 1699.92,-141.49 1705.37,-137.095"/>
</g>
<!-- Node40 -->
<g id="node40" class="node"><title>Node40</title>
<polygon fill="white" stroke="#bfbfbf" points="1602.5,-112.5 1602.5,-131.5 1646.5,-131.5 1646.5,-112.5 1602.5,-112.5"/>
<text text-anchor="middle" x="1624.5" y="-119.5" font-family="Helvetica,sans-Serif" font-size="10.00">string</text>
</g>
<!-- Node37&#45;&gt;Node40 -->
<g id="edge55" class="edge"><title>Node37&#45;&gt;Node40</title>
<path fill="none" stroke="midnightblue" d="M1721.31,-173.975C1702.6,-164.122 1671.58,-147.788 1649.7,-136.27"/>
<polygon fill="midnightblue" stroke="midnightblue" points="1651.14,-133.071 1640.66,-131.509 1647.88,-139.265 1651.14,-133.071"/>
</g>
<!-- Node42 -->
<g id="node42" class="node"><title>Node42</title>
<g id="a_node42"><a xlink:href="ShaderProgram_8hpp.html" target="_top" xlink:title="Engine/Renderer/RenderTechnique\l/ShaderProgram.hpp">
<polygon fill="white" stroke="black" points="1059.5,-235.5 1059.5,-265.5 1237.5,-265.5 1237.5,-235.5 1059.5,-235.5"/>
<text text-anchor="start" x="1067.5" y="-253.5" font-family="Helvetica,sans-Serif" font-size="10.00">Engine/Renderer/RenderTechnique</text>
<text text-anchor="middle" x="1148.5" y="-242.5" font-family="Helvetica,sans-Serif" font-size="10.00">/ShaderProgram.hpp</text>
</a>
</g>
</g>
<!-- Node41&#45;&gt;Node42 -->
<g id="edge57" class="edge"><title>Node41&#45;&gt;Node42</title>
<path fill="none" stroke="midnightblue" d="M1150.07,-302.396C1149.83,-294.645 1149.52,-284.812 1149.25,-275.86"/>
<polygon fill="midnightblue" stroke="midnightblue" points="1152.74,-275.464 1148.93,-265.577 1145.74,-275.679 1152.74,-275.464"/>
</g>
<!-- Node42&#45;&gt;Node3 -->
<g id="edge58" class="edge"><title>Node42&#45;&gt;Node3</title>
<path fill="none" stroke="midnightblue" d="M1124.56,-235.359C1093.3,-217.426 1036.43,-186.604 984.5,-168 941.114,-152.457 890.335,-140.94 851.473,-133.449"/>
<polygon fill="midnightblue" stroke="midnightblue" points="851.83,-129.955 841.354,-131.537 850.53,-136.833 851.83,-129.955"/>
</g>
<!-- Node42&#45;&gt;Node35 -->
<g id="edge59" class="edge"><title>Node42&#45;&gt;Node35</title>
<path fill="none" stroke="midnightblue" d="M1098.66,-235.476C1056.44,-223.597 996.704,-206.787 957.543,-195.768"/>
<polygon fill="midnightblue" stroke="midnightblue" points="958.384,-192.368 947.81,-193.029 956.488,-199.107 958.384,-192.368"/>
</g>
<!-- Node42&#45;&gt;Node40 -->
<g id="edge72" class="edge"><title>Node42&#45;&gt;Node40</title>
<path fill="none" stroke="midnightblue" d="M1237.68,-236.154C1240.65,-235.757 1243.6,-235.371 1246.5,-235 1320.33,-225.551 1516.91,-239.287 1579.5,-199 1600.1,-185.741 1612.51,-159.435 1618.93,-141.529"/>
<polygon fill="midnightblue" stroke="midnightblue" points="1622.31,-142.48 1622.11,-131.887 1615.66,-140.29 1622.31,-142.48"/>
</g>
<!-- Node43 -->
<g id="node43" class="node"><title>Node43</title>
<g id="a_node43"><a xlink:href="OpenGL_8hpp.html" target="_top" xlink:title="Engine/Renderer/OpenGL\l/OpenGL.hpp">
<polygon fill="white" stroke="black" points="1183.5,-168.5 1183.5,-198.5 1319.5,-198.5 1319.5,-168.5 1183.5,-168.5"/>
<text text-anchor="start" x="1191.5" y="-186.5" font-family="Helvetica,sans-Serif" font-size="10.00">Engine/Renderer/OpenGL</text>
<text text-anchor="middle" x="1251.5" y="-175.5" font-family="Helvetica,sans-Serif" font-size="10.00">/OpenGL.hpp</text>
</a>
</g>
</g>
<!-- Node42&#45;&gt;Node43 -->
<g id="edge60" class="edge"><title>Node42&#45;&gt;Node43</title>
<path fill="none" stroke="midnightblue" d="M1170.85,-235.396C1185.43,-226.197 1204.65,-214.066 1220.67,-203.955"/>
<polygon fill="midnightblue" stroke="midnightblue" points="1222.61,-206.873 1229.19,-198.577 1218.87,-200.953 1222.61,-206.873"/>
</g>
<!-- Node46 -->
<g id="node46" class="node"><title>Node46</title>
<g id="a_node46"><a xlink:href="ShaderConfiguration_8hpp.html" target="_top" xlink:title="Engine/Renderer/RenderTechnique\l/ShaderConfiguration.hpp">
<polygon fill="white" stroke="black" points="1375.5,-168.5 1375.5,-198.5 1553.5,-198.5 1553.5,-168.5 1375.5,-168.5"/>
<text text-anchor="start" x="1383.5" y="-186.5" font-family="Helvetica,sans-Serif" font-size="10.00">Engine/Renderer/RenderTechnique</text>
<text text-anchor="middle" x="1464.5" y="-175.5" font-family="Helvetica,sans-Serif" font-size="10.00">/ShaderConfiguration.hpp</text>
</a>
</g>
</g>
<!-- Node42&#45;&gt;Node46 -->
<g id="edge63" class="edge"><title>Node42&#45;&gt;Node46</title>
<path fill="none" stroke="midnightblue" d="M1216.68,-235.476C1266.54,-225.221 1334.26,-211.29 1386.31,-200.583"/>
<polygon fill="midnightblue" stroke="midnightblue" points="1387.08,-203.998 1396.17,-198.555 1385.67,-197.141 1387.08,-203.998"/>
</g>
<!-- Node47 -->
<g id="node47" class="node"><title>Node47</title>
<polygon fill="white" stroke="#bfbfbf" points="1493,-112.5 1493,-131.5 1534,-131.5 1534,-112.5 1493,-112.5"/>
<text text-anchor="middle" x="1513.5" y="-119.5" font-family="Helvetica,sans-Serif" font-size="10.00">array</text>
</g>
<!-- Node42&#45;&gt;Node47 -->
<g id="edge70" class="edge"><title>Node42&#45;&gt;Node47</title>
<path fill="none" stroke="midnightblue" d="M1237.68,-236.176C1240.65,-235.773 1243.6,-235.38 1246.5,-235 1316.58,-225.826 1515.44,-251.728 1562.5,-199 1579.7,-179.733 1554.56,-153.846 1534.4,-137.803"/>
<polygon fill="midnightblue" stroke="midnightblue" points="1536.28,-134.836 1526.2,-131.577 1532.04,-140.412 1536.28,-134.836"/>
</g>
<!-- Node49 -->
<g id="node49" class="node"><title>Node49</title>
<polygon fill="white" stroke="#bfbfbf" points="1108,-174 1108,-193 1165,-193 1165,-174 1108,-174"/>
<text text-anchor="middle" x="1136.5" y="-181" font-family="Helvetica,sans-Serif" font-size="10.00">memory</text>
</g>
<!-- Node42&#45;&gt;Node49 -->
<g id="edge71" class="edge"><title>Node42&#45;&gt;Node49</title>
<path fill="none" stroke="midnightblue" d="M1145.9,-235.396C1144.15,-225.963 1141.84,-213.448 1139.95,-203.189"/>
<polygon fill="midnightblue" stroke="midnightblue" points="1143.36,-202.393 1138.11,-193.195 1136.48,-203.664 1143.36,-202.393"/>
</g>
<!-- Node44 -->
<g id="node44" class="node"><title>Node44</title>
<polygon fill="white" stroke="#bfbfbf" points="1080.5,-112.5 1080.5,-131.5 1204.5,-131.5 1204.5,-112.5 1080.5,-112.5"/>
<text text-anchor="middle" x="1142.5" y="-119.5" font-family="Helvetica,sans-Serif" font-size="10.00">glbinding/gl45core/gl.h</text>
</g>
<!-- Node43&#45;&gt;Node44 -->
<g id="edge61" class="edge"><title>Node43&#45;&gt;Node44</title>
<path fill="none" stroke="midnightblue" d="M1225.67,-168.399C1208.03,-158.773 1184.8,-146.09 1167.37,-136.577"/>
<polygon fill="midnightblue" stroke="midnightblue" points="1168.81,-133.377 1158.36,-131.658 1165.46,-139.521 1168.81,-133.377"/>
</g>
<!-- Node45 -->
<g id="node45" class="node"><title>Node45</title>
<polygon fill="white" stroke="#bfbfbf" points="1222.5,-112.5 1222.5,-131.5 1340.5,-131.5 1340.5,-112.5 1222.5,-112.5"/>
<text text-anchor="middle" x="1281.5" y="-119.5" font-family="Helvetica,sans-Serif" font-size="10.00">glbinding/gl45ext/gl.h</text>
</g>
<!-- Node43&#45;&gt;Node45 -->
<g id="edge62" class="edge"><title>Node43&#45;&gt;Node45</title>
<path fill="none" stroke="midnightblue" d="M1258.61,-168.399C1262.79,-160.11 1268.11,-149.554 1272.57,-140.708"/>
<polygon fill="midnightblue" stroke="midnightblue" points="1275.76,-142.163 1277.13,-131.658 1269.51,-139.011 1275.76,-142.163"/>
</g>
<!-- Node46&#45;&gt;Node3 -->
<g id="edge64" class="edge"><title>Node46&#45;&gt;Node3</title>
<path fill="none" stroke="midnightblue" d="M1375.29,-172.602C1359.7,-170.983 1343.63,-169.385 1328.5,-168 1122.7,-149.168 1068.01,-153.634 858.191,-132.012"/>
<polygon fill="midnightblue" stroke="midnightblue" points="858.389,-128.514 848.081,-130.962 857.666,-135.476 858.389,-128.514"/>
</g>
<!-- Node46&#45;&gt;Node24 -->
<g id="edge69" class="edge"><title>Node46&#45;&gt;Node24</title>
<path fill="none" stroke="midnightblue" d="M1445.07,-168.399C1432.29,-159.129 1415.61,-147.025 1402.69,-137.647"/>
<polygon fill="midnightblue" stroke="midnightblue" points="1404.58,-134.698 1394.43,-131.658 1400.47,-140.364 1404.58,-134.698"/>
</g>
<!-- Node46&#45;&gt;Node29 -->
<g id="edge67" class="edge"><title>Node46&#45;&gt;Node29</title>
<path fill="none" stroke="midnightblue" d="M1489.15,-168.399C1505.82,-158.862 1527.73,-146.325 1544.31,-136.842"/>
<polygon fill="midnightblue" stroke="midnightblue" points="1546.43,-139.662 1553.37,-131.658 1542.95,-133.586 1546.43,-139.662"/>
</g>
<!-- Node46&#45;&gt;Node40 -->
<g id="edge68" class="edge"><title>Node46&#45;&gt;Node40</title>
<path fill="none" stroke="midnightblue" d="M1502.42,-168.399C1529.95,-158.161 1566.78,-144.465 1592.76,-134.802"/>
<polygon fill="midnightblue" stroke="midnightblue" points="1593.99,-138.078 1602.15,-131.312 1591.55,-131.517 1593.99,-138.078"/>
</g>
<!-- Node46&#45;&gt;Node47 -->
<g id="edge65" class="edge"><title>Node46&#45;&gt;Node47</title>
<path fill="none" stroke="midnightblue" d="M1476.11,-168.399C1483.23,-159.753 1492.38,-148.642 1499.85,-139.576"/>
<polygon fill="midnightblue" stroke="midnightblue" points="1502.71,-141.602 1506.37,-131.658 1497.31,-137.152 1502.71,-141.602"/>
</g>
<!-- Node48 -->
<g id="node48" class="node"><title>Node48</title>
<polygon fill="white" stroke="#bfbfbf" points="1444.5,-112.5 1444.5,-131.5 1474.5,-131.5 1474.5,-112.5 1444.5,-112.5"/>
<text text-anchor="middle" x="1459.5" y="-119.5" font-family="Helvetica,sans-Serif" font-size="10.00">list</text>
</g>
<!-- Node46&#45;&gt;Node48 -->
<g id="edge66" class="edge"><title>Node46&#45;&gt;Node48</title>
<path fill="none" stroke="midnightblue" d="M1463.32,-168.399C1462.65,-160.466 1461.81,-150.458 1461.08,-141.858"/>
<polygon fill="midnightblue" stroke="midnightblue" points="1464.55,-141.33 1460.23,-131.658 1457.58,-141.916 1464.55,-141.33"/>
</g>
</g>
</svg>
