<?xml version="1.0" encoding="UTF-8" standalone="no"?>
<!DOCTYPE svg PUBLIC "-//W3C//DTD SVG 1.1//EN"
 "http://www.w3.org/Graphics/SVG/1.1/DTD/svg11.dtd">
<!-- Generated by graphviz version 2.38.0 (20140413.2041)
 -->
<!-- Title: DummyPlugin::DummyParams Pages: 1 -->
<svg width="296pt" height="287pt"
 viewBox="0.00 0.00 296.00 287.00" xmlns="http://www.w3.org/2000/svg" xmlns:xlink="http://www.w3.org/1999/xlink">
<g id="graph0" class="graph" transform="scale(1 1) rotate(0) translate(4 283)">
<title>DummyPlugin::DummyParams</title>
<polygon fill="white" stroke="none" points="-4,4 -4,-283 292,-283 292,4 -4,4"/>
<!-- Node1 -->
<g id="node1" class="node"><title>Node1</title>
<polygon fill="#bfbfbf" stroke="black" points="23.5,-0.5 23.5,-57.5 187.5,-57.5 187.5,-0.5 23.5,-0.5"/>
<text text-anchor="middle" x="105.5" y="-45.5" font-family="Helvetica,sans-Serif" font-size="10.00">DummyPlugin::DummyParams</text>
<polyline fill="none" stroke="black" points="23.5,-38.5 187.5,-38.5 "/>
<text text-anchor="middle" x="105.5" y="-26.5" font-family="Helvetica,sans-Serif" font-size="10.00"> </text>
<polyline fill="none" stroke="black" points="23.5,-19.5 187.5,-19.5 "/>
<text text-anchor="middle" x="105.5" y="-7.5" font-family="Helvetica,sans-Serif" font-size="10.00"> </text>
</g>
<!-- Node2 -->
<g id="node2" class="node"><title>Node2</title>
<g id="a_node2"><a xlink:href="classRa_1_1Core_1_1TaskParams.html" target="_top" xlink:title="{Ra::Core::TaskParams\n||}">
<polygon fill="white" stroke="black" points="0,-105.5 0,-162.5 119,-162.5 119,-105.5 0,-105.5"/>
<text text-anchor="middle" x="59.5" y="-150.5" font-family="Helvetica,sans-Serif" font-size="10.00">Ra::Core::TaskParams</text>
<polyline fill="none" stroke="black" points="0,-143.5 119,-143.5 "/>
<text text-anchor="middle" x="59.5" y="-131.5" font-family="Helvetica,sans-Serif" font-size="10.00"> </text>
<polyline fill="none" stroke="black" points="0,-124.5 119,-124.5 "/>
<text text-anchor="middle" x="59.5" y="-112.5" font-family="Helvetica,sans-Serif" font-size="10.00"> </text>
</a>
</g>
</g>
<!-- Node2&#45;&gt;Node1 -->
<g id="edge1" class="edge"><title>Node2&#45;&gt;Node1</title>
<path fill="none" stroke="midnightblue" d="M76.0103,-96.0313C81.6585,-83.3843 87.8753,-69.4639 93.1388,-57.6783"/>
<polygon fill="none" stroke="midnightblue" points="72.7093,-94.8398 71.8272,-105.398 79.1008,-97.6944 72.7093,-94.8398"/>
</g>
<!-- Node3 -->
<g id="node3" class="node"><title>Node3</title>
<g id="a_node3"><a xlink:href="structDummyPlugin_1_1DummyData.html" target="_top" xlink:title="{DummyPlugin::DummyData\n||}">
<polygon fill="white" stroke="black" points="137,-105.5 137,-162.5 288,-162.5 288,-105.5 137,-105.5"/>
<text text-anchor="middle" x="212.5" y="-150.5" font-family="Helvetica,sans-Serif" font-size="10.00">DummyPlugin::DummyData</text>
<polyline fill="none" stroke="black" points="137,-143.5 288,-143.5 "/>
<text text-anchor="middle" x="212.5" y="-131.5" font-family="Helvetica,sans-Serif" font-size="10.00"> </text>
<polyline fill="none" stroke="black" points="137,-124.5 288,-124.5 "/>
<text text-anchor="middle" x="212.5" y="-112.5" font-family="Helvetica,sans-Serif" font-size="10.00"> </text>
</a>
</g>
</g>
<!-- Node3&#45;&gt;Node1 -->
<g id="edge2" class="edge"><title>Node3&#45;&gt;Node1</title>
<path fill="none" stroke="#404040" d="M183.826,-105.398C171.352,-93.3906 156.565,-79.1563 143.218,-66.3077"/>
<polygon fill="none" stroke="#404040" points="142.899,-66.0005 135.802,-64.7212 134.253,-57.6783 141.35,-58.9576 142.899,-66.0005"/>
<text text-anchor="middle" x="178.5" y="-79" font-family="Helvetica,sans-Serif" font-size="10.00"> +data</text>
</g>
<!-- Node4 -->
<g id="node4" class="node"><title>Node4</title>
<polygon fill="white" stroke="#bfbfbf" points="198,-221.5 198,-278.5 227,-278.5 227,-221.5 198,-221.5"/>
<text text-anchor="middle" x="212.5" y="-266.5" font-family="Helvetica,sans-Serif" font-size="10.00">int</text>
<polyline fill="none" stroke="#bfbfbf" points="198,-259.5 227,-259.5 "/>
<text text-anchor="middle" x="212.5" y="-247.5" font-family="Helvetica,sans-Serif" font-size="10.00"> </text>
<polyline fill="none" stroke="#bfbfbf" points="198,-240.5 227,-240.5 "/>
<text text-anchor="middle" x="212.5" y="-228.5" font-family="Helvetica,sans-Serif" font-size="10.00"> </text>
</g>
<!-- Node4&#45;&gt;Node3 -->
<g id="edge3" class="edge"><title>Node4&#45;&gt;Node3</title>
<path fill="none" stroke="#404040" d="M212.5,-221.404C212.5,-207.504 212.5,-190.392 212.5,-175.073"/>
<polygon fill="none" stroke="#404040" points="212.5,-174.737 208.5,-168.737 212.5,-162.737 216.5,-168.737 212.5,-174.737"/>
<text text-anchor="middle" x="226.5" y="-195" font-family="Helvetica,sans-Serif" font-size="10.00"> +bar</text>
<text text-anchor="middle" x="226.5" y="-184" font-family="Helvetica,sans-Serif" font-size="10.00">+foo</text>
</g>
</g>
</svg>
