<?xml version="1.0" encoding="UTF-8" standalone="no"?>
<!DOCTYPE svg PUBLIC "-//W3C//DTD SVG 1.1//EN"
 "http://www.w3.org/Graphics/SVG/1.1/DTD/svg11.dtd">
<!-- Generated by graphviz version 2.38.0 (20140413.2041)
 -->
<!-- Title: Ra::GuiBase::MouseEvent Pages: 1 -->
<svg width="380pt" height="193pt"
 viewBox="0.00 0.00 380.00 193.00" xmlns="http://www.w3.org/2000/svg" xmlns:xlink="http://www.w3.org/1999/xlink">
<g id="graph0" class="graph" transform="scale(1 1) rotate(0) translate(4 189)">
<title>Ra::GuiBase::MouseEvent</title>
<polygon fill="white" stroke="none" points="-4,4 -4,-189 376,-189 376,4 -4,4"/>
<!-- Node1 -->
<g id="node1" class="node"><title>Node1</title>
<polygon fill="#bfbfbf" stroke="black" points="89.5,-0.5 89.5,-57.5 228.5,-57.5 228.5,-0.5 89.5,-0.5"/>
<text text-anchor="middle" x="159" y="-45.5" font-family="Helvetica,sans-Serif" font-size="10.00">Ra::GuiBase::MouseEvent</text>
<polyline fill="none" stroke="black" points="89.5,-38.5 228.5,-38.5 "/>
<text text-anchor="middle" x="159" y="-26.5" font-family="Helvetica,sans-Serif" font-size="10.00"> </text>
<polyline fill="none" stroke="black" points="89.5,-19.5 228.5,-19.5 "/>
<text text-anchor="middle" x="159" y="-7.5" font-family="Helvetica,sans-Serif" font-size="10.00"> </text>
</g>
<!-- Node2 -->
<g id="node2" class="node"><title>Node2</title>
<polygon fill="white" stroke="#bfbfbf" points="0,-127.5 0,-184.5 54,-184.5 54,-127.5 0,-127.5"/>
<text text-anchor="middle" x="27" y="-172.5" font-family="Helvetica,sans-Serif" font-size="10.00">Modifier</text>
<polyline fill="none" stroke="#bfbfbf" points="0,-165.5 54,-165.5 "/>
<text text-anchor="middle" x="27" y="-153.5" font-family="Helvetica,sans-Serif" font-size="10.00"> </text>
<polyline fill="none" stroke="#bfbfbf" points="0,-146.5 54,-146.5 "/>
<text text-anchor="middle" x="27" y="-134.5" font-family="Helvetica,sans-Serif" font-size="10.00"> </text>
</g>
<!-- Node2&#45;&gt;Node1 -->
<g id="edge1" class="edge"><title>Node2&#45;&gt;Node1</title>
<path fill="none" stroke="#404040" d="M25.4619,-127.355C25.978,-110.772 29.3356,-90.2126 41,-76 50.741,-64.131 63.948,-55.3145 78.0052,-48.7682"/>
<polygon fill="none" stroke="#404040" points="78.3432,-48.6267 82.3316,-42.619 89.4112,-43.99 85.4227,-49.9977 78.3432,-48.6267"/>
<text text-anchor="middle" x="66.5" y="-90" font-family="Helvetica,sans-Serif" font-size="10.00"> +modifier</text>
</g>
<!-- Node3 -->
<g id="node3" class="node"><title>Node3</title>
<polygon fill="white" stroke="#bfbfbf" points="86.5,-127.5 86.5,-184.5 115.5,-184.5 115.5,-127.5 86.5,-127.5"/>
<text text-anchor="middle" x="101" y="-172.5" font-family="Helvetica,sans-Serif" font-size="10.00">int</text>
<polyline fill="none" stroke="#bfbfbf" points="86.5,-165.5 115.5,-165.5 "/>
<text text-anchor="middle" x="101" y="-153.5" font-family="Helvetica,sans-Serif" font-size="10.00"> </text>
<polyline fill="none" stroke="#bfbfbf" points="86.5,-146.5 115.5,-146.5 "/>
<text text-anchor="middle" x="101" y="-134.5" font-family="Helvetica,sans-Serif" font-size="10.00"> </text>
</g>
<!-- Node3&#45;&gt;Node1 -->
<g id="edge2" class="edge"><title>Node3&#45;&gt;Node1</title>
<path fill="none" stroke="#404040" d="M95.7461,-127.344C94.0782,-111.542 94.3282,-91.7921 102,-76 103.563,-72.783 105.47,-69.7177 107.628,-66.8095"/>
<polygon fill="none" stroke="#404040" points="107.861,-66.5441 108.822,-59.3972 115.789,-57.5353 114.828,-64.6821 107.861,-66.5441"/>
<text text-anchor="middle" x="149" y="-101" font-family="Helvetica,sans-Serif" font-size="10.00"> +wheelDelta</text>
<text text-anchor="middle" x="149" y="-90" font-family="Helvetica,sans-Serif" font-size="10.00">+absoluteXPosition</text>
<text text-anchor="middle" x="149" y="-79" font-family="Helvetica,sans-Serif" font-size="10.00">+absoluteYPosition</text>
</g>
<!-- Node4 -->
<g id="node4" class="node"><title>Node4</title>
<polygon fill="white" stroke="#bfbfbf" points="178,-127.5 178,-184.5 258,-184.5 258,-127.5 178,-127.5"/>
<text text-anchor="middle" x="218" y="-172.5" font-family="Helvetica,sans-Serif" font-size="10.00">MouseButton</text>
<polyline fill="none" stroke="#bfbfbf" points="178,-165.5 258,-165.5 "/>
<text text-anchor="middle" x="218" y="-153.5" font-family="Helvetica,sans-Serif" font-size="10.00"> </text>
<polyline fill="none" stroke="#bfbfbf" points="178,-146.5 258,-146.5 "/>
<text text-anchor="middle" x="218" y="-134.5" font-family="Helvetica,sans-Serif" font-size="10.00"> </text>
</g>
<!-- Node4&#45;&gt;Node1 -->
<g id="edge3" class="edge"><title>Node4&#45;&gt;Node1</title>
<path fill="none" stroke="#404040" d="M213.164,-127.289C209.74,-111.652 204.261,-92.0837 196,-76 194.586,-73.2479 192.992,-70.5052 191.278,-67.808"/>
<polygon fill="none" stroke="#404040" points="191.091,-67.54 184.374,-64.9159 184.213,-57.7066 190.93,-60.3307 191.091,-67.54"/>
<text text-anchor="middle" x="230.5" y="-90" font-family="Helvetica,sans-Serif" font-size="10.00"> +button</text>
</g>
<!-- Node5 -->
<g id="node5" class="node"><title>Node5</title>
<polygon fill="white" stroke="#bfbfbf" points="276,-127.5 276,-184.5 372,-184.5 372,-127.5 276,-127.5"/>
<text text-anchor="middle" x="324" y="-172.5" font-family="Helvetica,sans-Serif" font-size="10.00">MouseEventType</text>
<polyline fill="none" stroke="#bfbfbf" points="276,-165.5 372,-165.5 "/>
<text text-anchor="middle" x="324" y="-153.5" font-family="Helvetica,sans-Serif" font-size="10.00"> </text>
<polyline fill="none" stroke="#bfbfbf" points="276,-146.5 372,-146.5 "/>
<text text-anchor="middle" x="324" y="-134.5" font-family="Helvetica,sans-Serif" font-size="10.00"> </text>
</g>
<!-- Node5&#45;&gt;Node1 -->
<g id="edge4" class="edge"><title>Node5&#45;&gt;Node1</title>
<path fill="none" stroke="#404040" d="M304.679,-127.17C292.216,-110.724 274.851,-90.3741 256,-76 250.116,-71.5132 243.723,-67.3116 237.122,-63.4148"/>
<polygon fill="none" stroke="#404040" points="237.095,-63.3996 229.906,-63.9638 226.62,-57.5448 233.809,-56.9806 237.095,-63.3996"/>
<text text-anchor="middle" x="308.5" y="-90" font-family="Helvetica,sans-Serif" font-size="10.00"> +event</text>
</g>
</g>
</svg>
