<?xml version="1.0" encoding="UTF-8" standalone="no"?>
<!DOCTYPE svg PUBLIC "-//W3C//DTD SVG 1.1//EN"
 "http://www.w3.org/Graphics/SVG/1.1/DTD/svg11.dtd">
<!-- Generated by graphviz version 2.38.0 (20140413.2041)
 -->
<!-- Title: Ra::Core::Geometry::LineToTriangleOutput Pages: 1 -->
<svg width="252pt" height="215pt"
 viewBox="0.00 0.00 252.00 215.00" xmlns="http://www.w3.org/2000/svg" xmlns:xlink="http://www.w3.org/1999/xlink">
<g id="graph0" class="graph" transform="scale(1 1) rotate(0) translate(4 211)">
<title>Ra::Core::Geometry::LineToTriangleOutput</title>
<polygon fill="white" stroke="none" points="-4,4 -4,-211 248,-211 248,4 -4,4"/>
<!-- Node1 -->
<g id="node1" class="node"><title>Node1</title>
<polygon fill="#bfbfbf" stroke="black" points="49.5,-0.5 49.5,-68.5 170.5,-68.5 170.5,-0.5 49.5,-0.5"/>
<text text-anchor="start" x="57.5" y="-56.5" font-family="Helvetica,sans-Serif" font-size="10.00">Ra::Core::Geometry</text>
<text text-anchor="middle" x="110" y="-45.5" font-family="Helvetica,sans-Serif" font-size="10.00">::LineToTriangleOutput</text>
<polyline fill="none" stroke="black" points="49.5,-38.5 170.5,-38.5 "/>
<text text-anchor="middle" x="110" y="-26.5" font-family="Helvetica,sans-Serif" font-size="10.00"> </text>
<polyline fill="none" stroke="black" points="49.5,-19.5 170.5,-19.5 "/>
<text text-anchor="middle" x="110" y="-7.5" font-family="Helvetica,sans-Serif" font-size="10.00"> </text>
</g>
<!-- Node2 -->
<g id="node2" class="node"><title>Node2</title>
<polygon fill="white" stroke="#bfbfbf" points="0,-149.5 0,-206.5 122,-206.5 122,-149.5 0,-149.5"/>
<text text-anchor="middle" x="61" y="-194.5" font-family="Helvetica,sans-Serif" font-size="10.00">Matrix&lt; Scalar, 3, 1 &gt;</text>
<polyline fill="none" stroke="#bfbfbf" points="0,-187.5 122,-187.5 "/>
<text text-anchor="middle" x="61" y="-175.5" font-family="Helvetica,sans-Serif" font-size="10.00"> </text>
<polyline fill="none" stroke="#bfbfbf" points="0,-168.5 122,-168.5 "/>
<text text-anchor="middle" x="61" y="-156.5" font-family="Helvetica,sans-Serif" font-size="10.00"> </text>
</g>
<!-- Node2&#45;&gt;Node1 -->
<g id="edge1" class="edge"><title>Node2&#45;&gt;Node1</title>
<path fill="none" stroke="#404040" d="M58.4972,-149.245C57.8799,-130.934 59.0781,-106.769 67,-87 68.0784,-84.3088 69.3536,-81.6541 70.7772,-79.0542"/>
<polygon fill="none" stroke="#404040" points="70.9062,-78.851 70.7469,-71.6417 77.3404,-68.7218 77.4997,-75.9312 70.9062,-78.851"/>
<text text-anchor="middle" x="102" y="-106.5" font-family="Helvetica,sans-Serif" font-size="10.00"> +closestPoint</text>
</g>
<!-- Node3 -->
<g id="node3" class="node"><title>Node3</title>
<polygon fill="white" stroke="#bfbfbf" points="140,-149.5 140,-206.5 178,-206.5 178,-149.5 140,-149.5"/>
<text text-anchor="middle" x="159" y="-194.5" font-family="Helvetica,sans-Serif" font-size="10.00">float</text>
<polyline fill="none" stroke="#bfbfbf" points="140,-187.5 178,-187.5 "/>
<text text-anchor="middle" x="159" y="-175.5" font-family="Helvetica,sans-Serif" font-size="10.00"> </text>
<polyline fill="none" stroke="#bfbfbf" points="140,-168.5 178,-168.5 "/>
<text text-anchor="middle" x="159" y="-156.5" font-family="Helvetica,sans-Serif" font-size="10.00"> </text>
</g>
<!-- Node3&#45;&gt;Node1 -->
<g id="edge2" class="edge"><title>Node3&#45;&gt;Node1</title>
<path fill="none" stroke="#404040" d="M154.046,-149.302C150.374,-131.23 144.676,-107.313 137,-87 136.108,-84.6391 135.132,-82.2482 134.099,-79.8557"/>
<polygon fill="none" stroke="#404040" points="133.994,-79.6319 127.835,-75.8821 128.927,-68.7542 135.087,-72.504 133.994,-79.6319"/>
<text text-anchor="middle" x="196.5" y="-123" font-family="Helvetica,sans-Serif" font-size="10.00"> +sqrDistance</text>
<text text-anchor="middle" x="196.5" y="-112" font-family="Helvetica,sans-Serif" font-size="10.00">+distance</text>
<text text-anchor="middle" x="196.5" y="-101" font-family="Helvetica,sans-Serif" font-size="10.00">+triangleParameter</text>
<text text-anchor="middle" x="196.5" y="-90" font-family="Helvetica,sans-Serif" font-size="10.00">+lineParameter</text>
</g>
</g>
</svg>
