<?xml version="1.0" encoding="UTF-8" standalone="no"?>
<!DOCTYPE svg PUBLIC "-//W3C//DTD SVG 1.1//EN"
 "http://www.w3.org/Graphics/SVG/1.1/DTD/svg11.dtd">
<!-- Generated by graphviz version 2.38.0 (20140413.2041)
 -->
<!-- Title: Ra::Core::Geometry::Frustum Pages: 1 -->
<svg width="286pt" height="436pt"
 viewBox="0.00 0.00 286.00 436.00" xmlns="http://www.w3.org/2000/svg" xmlns:xlink="http://www.w3.org/1999/xlink">
<g id="graph0" class="graph" transform="scale(1 1) rotate(0) translate(4 432)">
<title>Ra::Core::Geometry::Frustum</title>
<polygon fill="white" stroke="none" points="-4,4 -4,-432 282,-432 282,4 -4,4"/>
<!-- Node1 -->
<g id="node1" class="node"><title>Node1</title>
<polygon fill="#bfbfbf" stroke="black" points="56.5,-0.5 56.5,-79.5 167.5,-79.5 167.5,-0.5 56.5,-0.5"/>
<text text-anchor="start" x="64.5" y="-67.5" font-family="Helvetica,sans-Serif" font-size="10.00">Ra::Core::Geometry</text>
<text text-anchor="middle" x="112" y="-56.5" font-family="Helvetica,sans-Serif" font-size="10.00">::Frustum</text>
<polyline fill="none" stroke="black" points="56.5,-49.5 167.5,-49.5 "/>
<text text-anchor="middle" x="112" y="-37.5" font-family="Helvetica,sans-Serif" font-size="10.00"> </text>
<polyline fill="none" stroke="black" points="56.5,-30.5 167.5,-30.5 "/>
<text text-anchor="start" x="64.5" y="-18.5" font-family="Helvetica,sans-Serif" font-size="10.00">+ Frustum()</text>
<text text-anchor="start" x="64.5" y="-7.5" font-family="Helvetica,sans-Serif" font-size="10.00">+ getPlane()</text>
</g>
<!-- Node2 -->
<g id="node2" class="node"><title>Node2</title>
<polygon fill="white" stroke="#bfbfbf" points="56.5,-127.5 56.5,-206.5 167.5,-206.5 167.5,-127.5 56.5,-127.5"/>
<text text-anchor="start" x="64.5" y="-194.5" font-family="Helvetica,sans-Serif" font-size="10.00">std::array&lt; Eigen::</text>
<text text-anchor="start" x="64.5" y="-183.5" font-family="Helvetica,sans-Serif" font-size="10.00">Matrix&lt; Scalar, 4, 1</text>
<text text-anchor="middle" x="112" y="-172.5" font-family="Helvetica,sans-Serif" font-size="10.00"> &gt;, 6 &gt;</text>
<polyline fill="none" stroke="#bfbfbf" points="56.5,-165.5 167.5,-165.5 "/>
<text text-anchor="middle" x="112" y="-153.5" font-family="Helvetica,sans-Serif" font-size="10.00"> </text>
<polyline fill="none" stroke="#bfbfbf" points="56.5,-146.5 167.5,-146.5 "/>
<text text-anchor="middle" x="112" y="-134.5" font-family="Helvetica,sans-Serif" font-size="10.00"> </text>
</g>
<!-- Node2&#45;&gt;Node1 -->
<g id="edge1" class="edge"><title>Node2&#45;&gt;Node1</title>
<path fill="none" stroke="#404040" d="M112,-127.476C112,-116.189 112,-103.672 112,-91.7479"/>
<polygon fill="none" stroke="#404040" points="112,-91.6121 108,-85.6121 112,-79.6121 116,-85.612 112,-91.6121"/>
<text text-anchor="middle" x="141" y="-101" font-family="Helvetica,sans-Serif" font-size="10.00"> +m_planes</text>
</g>
<!-- Node3 -->
<g id="node3" class="node"><title>Node3</title>
<polygon fill="white" stroke="#bfbfbf" points="0,-265.5 0,-322.5 122,-322.5 122,-265.5 0,-265.5"/>
<text text-anchor="middle" x="61" y="-310.5" font-family="Helvetica,sans-Serif" font-size="10.00">Matrix&lt; Scalar, 4, 1 &gt;</text>
<polyline fill="none" stroke="#bfbfbf" points="0,-303.5 122,-303.5 "/>
<text text-anchor="middle" x="61" y="-291.5" font-family="Helvetica,sans-Serif" font-size="10.00"> </text>
<polyline fill="none" stroke="#bfbfbf" points="0,-284.5 122,-284.5 "/>
<text text-anchor="middle" x="61" y="-272.5" font-family="Helvetica,sans-Serif" font-size="10.00"> </text>
</g>
<!-- Node3&#45;&gt;Node2 -->
<g id="edge2" class="edge"><title>Node3&#45;&gt;Node2</title>
<path fill="none" stroke="#404040" d="M69.4835,-265.237C73.5171,-252.792 78.6279,-238.018 84,-225 85.0081,-222.557 86.0728,-220.072 87.1748,-217.574"/>
<polygon fill="none" stroke="#404040" points="87.1897,-217.541 86.0501,-210.421 92.1845,-206.63 93.3242,-213.751 87.1897,-217.541"/>
<text text-anchor="middle" x="112.5" y="-233.5" font-family="Helvetica,sans-Serif" font-size="10.00"> +elements</text>
</g>
<!-- Node4 -->
<g id="node4" class="node"><title>Node4</title>
<g id="a_node4"><a xlink:title="STL class. ">
<polygon fill="white" stroke="#bfbfbf" points="140,-265.5 140,-322.5 230,-322.5 230,-265.5 140,-265.5"/>
<text text-anchor="middle" x="185" y="-310.5" font-family="Helvetica,sans-Serif" font-size="10.00">std::array&lt; T &gt;</text>
<polyline fill="none" stroke="#bfbfbf" points="140,-303.5 230,-303.5 "/>
<text text-anchor="middle" x="185" y="-291.5" font-family="Helvetica,sans-Serif" font-size="10.00"> </text>
<polyline fill="none" stroke="#bfbfbf" points="140,-284.5 230,-284.5 "/>
<text text-anchor="middle" x="185" y="-272.5" font-family="Helvetica,sans-Serif" font-size="10.00"> </text>
</a>
</g>
</g>
<!-- Node4&#45;&gt;Node2 -->
<g id="edge3" class="edge"><title>Node4&#45;&gt;Node2</title>
<path fill="none" stroke="orange" d="M163.615,-256.382C154.471,-240.723 143.789,-222.433 134.523,-206.567"/>
<polygon fill="orange" stroke="orange" points="160.734,-258.388 168.799,-265.258 166.778,-254.858 160.734,-258.388"/>
<text text-anchor="start" x="157" y="-239" font-family="Helvetica,sans-Serif" font-size="10.00"> &lt; Eigen::Matrix&lt; Scalar,</text>
<text text-anchor="middle" x="217.5" y="-228" font-family="Helvetica,sans-Serif" font-size="10.00"> 4, 1 &gt;, 6 &gt;</text>
</g>
<!-- Node5 -->
<g id="node5" class="node"><title>Node5</title>
<polygon fill="white" stroke="#bfbfbf" points="170.5,-370.5 170.5,-427.5 199.5,-427.5 199.5,-370.5 170.5,-370.5"/>
<text text-anchor="middle" x="185" y="-415.5" font-family="Helvetica,sans-Serif" font-size="10.00">T</text>
<polyline fill="none" stroke="#bfbfbf" points="170.5,-408.5 199.5,-408.5 "/>
<text text-anchor="middle" x="185" y="-396.5" font-family="Helvetica,sans-Serif" font-size="10.00"> </text>
<polyline fill="none" stroke="#bfbfbf" points="170.5,-389.5 199.5,-389.5 "/>
<text text-anchor="middle" x="185" y="-377.5" font-family="Helvetica,sans-Serif" font-size="10.00"> </text>
</g>
<!-- Node5&#45;&gt;Node4 -->
<g id="edge4" class="edge"><title>Node5&#45;&gt;Node4</title>
<path fill="none" stroke="#404040" d="M185,-370.398C185,-359.545 185,-346.873 185,-335.049"/>
<polygon fill="none" stroke="#404040" points="185,-334.678 181,-328.678 185,-322.678 189,-328.678 185,-334.678"/>
<text text-anchor="middle" x="213.5" y="-344" font-family="Helvetica,sans-Serif" font-size="10.00"> +elements</text>
</g>
</g>
</svg>
