<?xml version="1.0" encoding="UTF-8" standalone="no"?>
<!DOCTYPE svg PUBLIC "-//W3C//DTD SVG 1.1//EN"
 "http://www.w3.org/Graphics/SVG/1.1/DTD/svg11.dtd">
<!-- Generated by graphviz version 2.38.0 (20140413.2041)
 -->
<!-- Title: Ra::Core::Asset::HandleComponentData Pages: 1 -->
<svg width="426pt" height="414pt"
 viewBox="0.00 0.00 425.50 414.00" xmlns="http://www.w3.org/2000/svg" xmlns:xlink="http://www.w3.org/1999/xlink">
<g id="graph0" class="graph" transform="scale(1 1) rotate(0) translate(4 410)">
<title>Ra::Core::Asset::HandleComponentData</title>
<polygon fill="white" stroke="none" points="-4,4 -4,-410 421.5,-410 421.5,4 -4,4"/>
<!-- Node1 -->
<g id="node1" class="node"><title>Node1</title>
<polygon fill="#bfbfbf" stroke="black" points="52,-0.5 52,-57.5 261,-57.5 261,-0.5 52,-0.5"/>
<text text-anchor="middle" x="156.5" y="-45.5" font-family="Helvetica,sans-Serif" font-size="10.00">Ra::Core::Asset::HandleComponentData</text>
<polyline fill="none" stroke="black" points="52,-38.5 261,-38.5 "/>
<text text-anchor="middle" x="156.5" y="-26.5" font-family="Helvetica,sans-Serif" font-size="10.00"> </text>
<polyline fill="none" stroke="black" points="52,-19.5 261,-19.5 "/>
<text text-anchor="start" x="60" y="-7.5" font-family="Helvetica,sans-Serif" font-size="10.00">+ HandleComponentData()</text>
</g>
<!-- Node2 -->
<g id="node2" class="node"><title>Node2</title>
<g id="a_node2"><a xlink:title="STL class. ">
<polygon fill="white" stroke="#bfbfbf" points="19,-111 19,-168 84,-168 84,-111 19,-111"/>
<text text-anchor="middle" x="51.5" y="-156" font-family="Helvetica,sans-Serif" font-size="10.00">std::string</text>
<polyline fill="none" stroke="#bfbfbf" points="19,-149 84,-149 "/>
<text text-anchor="middle" x="51.5" y="-137" font-family="Helvetica,sans-Serif" font-size="10.00"> </text>
<polyline fill="none" stroke="#bfbfbf" points="19,-130 84,-130 "/>
<text text-anchor="middle" x="51.5" y="-118" font-family="Helvetica,sans-Serif" font-size="10.00"> </text>
</a>
</g>
</g>
<!-- Node2&#45;&gt;Node1 -->
<g id="edge1" class="edge"><title>Node2&#45;&gt;Node1</title>
<path fill="none" stroke="#404040" d="M69.4552,-110.756C77.4017,-99.4203 87.2609,-86.5271 97.5,-76 100.964,-72.4387 104.71,-68.9146 108.576,-65.4963"/>
<polygon fill="none" stroke="#404040" points="108.579,-65.4942 110.576,-58.5652 117.74,-57.744 115.743,-64.673 108.579,-65.4942"/>
<text text-anchor="middle" x="125" y="-79" font-family="Helvetica,sans-Serif" font-size="10.00"> +m_name</text>
</g>
<!-- Node3 -->
<g id="node3" class="node"><title>Node3</title>
<g id="a_node3"><a xlink:title="STL class. ">
<polygon fill="white" stroke="#bfbfbf" points="0,-232.5 0,-300.5 103,-300.5 103,-232.5 0,-232.5"/>
<text text-anchor="start" x="8" y="-288.5" font-family="Helvetica,sans-Serif" font-size="10.00">std::basic_string&lt;</text>
<text text-anchor="middle" x="51.5" y="-277.5" font-family="Helvetica,sans-Serif" font-size="10.00"> char &gt;</text>
<polyline fill="none" stroke="#bfbfbf" points="0,-270.5 103,-270.5 "/>
<text text-anchor="middle" x="51.5" y="-258.5" font-family="Helvetica,sans-Serif" font-size="10.00"> </text>
<polyline fill="none" stroke="#bfbfbf" points="0,-251.5 103,-251.5 "/>
<text text-anchor="middle" x="51.5" y="-239.5" font-family="Helvetica,sans-Serif" font-size="10.00"> </text>
</a>
</g>
</g>
<!-- Node3&#45;&gt;Node2 -->
<g id="edge2" class="edge"><title>Node3&#45;&gt;Node2</title>
<path fill="none" stroke="midnightblue" d="M51.5,-222.138C51.5,-204.291 51.5,-184.138 51.5,-168.322"/>
<polygon fill="none" stroke="midnightblue" points="48.0001,-222.33 51.5,-232.33 55.0001,-222.331 48.0001,-222.33"/>
</g>
<!-- Node4 -->
<g id="node4" class="node"><title>Node4</title>
<polygon fill="white" stroke="#bfbfbf" points="102.5,-105.5 102.5,-173.5 210.5,-173.5 210.5,-105.5 102.5,-105.5"/>
<text text-anchor="start" x="110.5" y="-161.5" font-family="Helvetica,sans-Serif" font-size="10.00">Transform&lt; Scalar,</text>
<text text-anchor="middle" x="156.5" y="-150.5" font-family="Helvetica,sans-Serif" font-size="10.00"> 3, Eigen::Affine &gt;</text>
<polyline fill="none" stroke="#bfbfbf" points="102.5,-143.5 210.5,-143.5 "/>
<text text-anchor="middle" x="156.5" y="-131.5" font-family="Helvetica,sans-Serif" font-size="10.00"> </text>
<polyline fill="none" stroke="#bfbfbf" points="102.5,-124.5 210.5,-124.5 "/>
<text text-anchor="middle" x="156.5" y="-112.5" font-family="Helvetica,sans-Serif" font-size="10.00"> </text>
</g>
<!-- Node4&#45;&gt;Node1 -->
<g id="edge3" class="edge"><title>Node4&#45;&gt;Node1</title>
<path fill="none" stroke="#404040" d="M156.5,-105.357C156.5,-94.1899 156.5,-81.6093 156.5,-69.9724"/>
<polygon fill="none" stroke="#404040" points="156.5,-69.827 152.5,-63.827 156.5,-57.827 160.5,-63.8269 156.5,-69.827"/>
<text text-anchor="middle" x="184" y="-79" font-family="Helvetica,sans-Serif" font-size="10.00"> +m_frame</text>
</g>
<!-- Node5 -->
<g id="node5" class="node"><title>Node5</title>
<polygon fill="white" stroke="#bfbfbf" points="228.5,-105.5 228.5,-173.5 346.5,-173.5 346.5,-105.5 228.5,-105.5"/>
<text text-anchor="start" x="236.5" y="-161.5" font-family="Helvetica,sans-Serif" font-size="10.00">std::vector&lt; std::pair</text>
<text text-anchor="middle" x="287.5" y="-150.5" font-family="Helvetica,sans-Serif" font-size="10.00">&lt; uint, Scalar &gt; &gt;</text>
<polyline fill="none" stroke="#bfbfbf" points="228.5,-143.5 346.5,-143.5 "/>
<text text-anchor="middle" x="287.5" y="-131.5" font-family="Helvetica,sans-Serif" font-size="10.00"> </text>
<polyline fill="none" stroke="#bfbfbf" points="228.5,-124.5 346.5,-124.5 "/>
<text text-anchor="middle" x="287.5" y="-112.5" font-family="Helvetica,sans-Serif" font-size="10.00"> </text>
</g>
<!-- Node5&#45;&gt;Node1 -->
<g id="edge4" class="edge"><title>Node5&#45;&gt;Node1</title>
<path fill="none" stroke="#404040" d="M250.079,-105.36C239.044,-95.767 226.875,-85.3608 215.5,-76 211.267,-72.517 206.827,-68.9321 202.362,-65.3738"/>
<polygon fill="none" stroke="#404040" points="202.035,-65.1157 194.848,-64.5343 192.62,-57.6759 199.808,-58.2574 202.035,-65.1157"/>
<text text-anchor="middle" x="256.5" y="-79" font-family="Helvetica,sans-Serif" font-size="10.00"> +m_weight</text>
</g>
<!-- Node6 -->
<g id="node6" class="node"><title>Node6</title>
<polygon fill="white" stroke="#bfbfbf" points="184,-238 184,-295 295,-295 295,-238 184,-238"/>
<text text-anchor="middle" x="239.5" y="-283" font-family="Helvetica,sans-Serif" font-size="10.00">pair&lt; uint, Scalar &gt;</text>
<polyline fill="none" stroke="#bfbfbf" points="184,-276 295,-276 "/>
<text text-anchor="middle" x="239.5" y="-264" font-family="Helvetica,sans-Serif" font-size="10.00"> </text>
<polyline fill="none" stroke="#bfbfbf" points="184,-257 295,-257 "/>
<text text-anchor="middle" x="239.5" y="-245" font-family="Helvetica,sans-Serif" font-size="10.00"> </text>
</g>
<!-- Node6&#45;&gt;Node5 -->
<g id="edge5" class="edge"><title>Node6&#45;&gt;Node5</title>
<path fill="none" stroke="#404040" d="M243.203,-237.956C245.664,-223.865 249.563,-206.644 255.5,-192 256.512,-189.503 257.642,-186.991 258.855,-184.491"/>
<polygon fill="none" stroke="#404040" points="258.964,-184.288 258.256,-177.112 264.609,-173.699 265.316,-180.875 258.964,-184.288"/>
<text text-anchor="middle" x="284" y="-200.5" font-family="Helvetica,sans-Serif" font-size="10.00"> +elements</text>
</g>
<!-- Node7 -->
<g id="node7" class="node"><title>Node7</title>
<g id="a_node7"><a xlink:title="STL class. ">
<polygon fill="white" stroke="#bfbfbf" points="313,-238 313,-295 408,-295 408,-238 313,-238"/>
<text text-anchor="middle" x="360.5" y="-283" font-family="Helvetica,sans-Serif" font-size="10.00">std::vector&lt; T &gt;</text>
<polyline fill="none" stroke="#bfbfbf" points="313,-276 408,-276 "/>
<text text-anchor="middle" x="360.5" y="-264" font-family="Helvetica,sans-Serif" font-size="10.00"> </text>
<polyline fill="none" stroke="#bfbfbf" points="313,-257 408,-257 "/>
<text text-anchor="middle" x="360.5" y="-245" font-family="Helvetica,sans-Serif" font-size="10.00"> </text>
</a>
</g>
</g>
<!-- Node7&#45;&gt;Node5 -->
<g id="edge6" class="edge"><title>Node7&#45;&gt;Node5</title>
<path fill="none" stroke="orange" d="M339.181,-228.995C329.02,-211.596 316.949,-190.927 307.03,-173.941"/>
<polygon fill="orange" stroke="orange" points="336.234,-230.888 344.299,-237.758 342.278,-227.358 336.234,-230.888"/>
<text text-anchor="start" x="327.5" y="-206" font-family="Helvetica,sans-Serif" font-size="10.00"> &lt; std::pair&lt; uint,</text>
<text text-anchor="middle" x="370.5" y="-195" font-family="Helvetica,sans-Serif" font-size="10.00"> Scalar &gt; &gt;</text>
</g>
<!-- Node8 -->
<g id="node8" class="node"><title>Node8</title>
<polygon fill="white" stroke="#bfbfbf" points="346,-348.5 346,-405.5 375,-405.5 375,-348.5 346,-348.5"/>
<text text-anchor="middle" x="360.5" y="-393.5" font-family="Helvetica,sans-Serif" font-size="10.00">T</text>
<polyline fill="none" stroke="#bfbfbf" points="346,-386.5 375,-386.5 "/>
<text text-anchor="middle" x="360.5" y="-374.5" font-family="Helvetica,sans-Serif" font-size="10.00"> </text>
<polyline fill="none" stroke="#bfbfbf" points="346,-367.5 375,-367.5 "/>
<text text-anchor="middle" x="360.5" y="-355.5" font-family="Helvetica,sans-Serif" font-size="10.00"> </text>
</g>
<!-- Node8&#45;&gt;Node7 -->
<g id="edge7" class="edge"><title>Node8&#45;&gt;Node7</title>
<path fill="none" stroke="#404040" d="M360.5,-348.34C360.5,-335.842 360.5,-320.842 360.5,-307.176"/>
<polygon fill="none" stroke="#404040" points="360.5,-307.109 356.5,-301.109 360.5,-295.109 364.5,-301.109 360.5,-307.109"/>
<text text-anchor="middle" x="389" y="-322" font-family="Helvetica,sans-Serif" font-size="10.00"> +elements</text>
</g>
</g>
</svg>
