<?xml version="1.0" encoding="UTF-8" standalone="no"?>
<!DOCTYPE svg PUBLIC "-//W3C//DTD SVG 1.1//EN"
 "http://www.w3.org/Graphics/SVG/1.1/DTD/svg11.dtd">
<!-- Generated by graphviz version 2.38.0 (20140413.2041)
 -->
<!-- Title: Ra::Engine::Renderer::TimerData Pages: 1 -->
<svg width="184pt" height="237pt"
 viewBox="0.00 0.00 184.00 237.00" xmlns="http://www.w3.org/2000/svg" xmlns:xlink="http://www.w3.org/1999/xlink">
<g id="graph0" class="graph" transform="scale(1 1) rotate(0) translate(4 233)">
<title>Ra::Engine::Renderer::TimerData</title>
<polygon fill="white" stroke="none" points="-4,4 -4,-233 180,-233 180,4 -4,4"/>
<!-- Node1 -->
<g id="node1" class="node"><title>Node1</title>
<polygon fill="#bfbfbf" stroke="black" points="-7.10543e-15,-0.5 -7.10543e-15,-68.5 116,-68.5 116,-0.5 -7.10543e-15,-0.5"/>
<text text-anchor="start" x="8" y="-56.5" font-family="Helvetica,sans-Serif" font-size="10.00">Ra::Engine::Renderer</text>
<text text-anchor="middle" x="58" y="-45.5" font-family="Helvetica,sans-Serif" font-size="10.00">::TimerData</text>
<polyline fill="none" stroke="black" points="-7.10543e-15,-38.5 116,-38.5 "/>
<text text-anchor="middle" x="58" y="-26.5" font-family="Helvetica,sans-Serif" font-size="10.00"> </text>
<polyline fill="none" stroke="black" points="-7.10543e-15,-19.5 116,-19.5 "/>
<text text-anchor="middle" x="58" y="-7.5" font-family="Helvetica,sans-Serif" font-size="10.00"> </text>
</g>
<!-- Node2 -->
<g id="node2" class="node"><title>Node2</title>
<polygon fill="white" stroke="#bfbfbf" points="-7.10543e-15,-171.5 -7.10543e-15,-228.5 116,-228.5 116,-171.5 -7.10543e-15,-171.5"/>
<text text-anchor="middle" x="58" y="-216.5" font-family="Helvetica,sans-Serif" font-size="10.00">time_point&lt; Clock &gt;</text>
<polyline fill="none" stroke="#bfbfbf" points="-7.10543e-15,-209.5 116,-209.5 "/>
<text text-anchor="middle" x="58" y="-197.5" font-family="Helvetica,sans-Serif" font-size="10.00"> </text>
<polyline fill="none" stroke="#bfbfbf" points="-7.10543e-15,-190.5 116,-190.5 "/>
<text text-anchor="middle" x="58" y="-178.5" font-family="Helvetica,sans-Serif" font-size="10.00"> </text>
</g>
<!-- Node2&#45;&gt;Node1 -->
<g id="edge1" class="edge"><title>Node2&#45;&gt;Node1</title>
<path fill="none" stroke="#404040" d="M58,-171.264C58,-146.582 58,-110.01 58,-81.0404"/>
<polygon fill="none" stroke="#404040" points="58.0001,-80.7421 54,-74.7422 58,-68.7421 62,-74.7421 58.0001,-80.7421"/>
<text text-anchor="middle" x="117" y="-145" font-family="Helvetica,sans-Serif" font-size="10.00"> +renderStart</text>
<text text-anchor="middle" x="117" y="-134" font-family="Helvetica,sans-Serif" font-size="10.00">+mainRenderEnd</text>
<text text-anchor="middle" x="117" y="-123" font-family="Helvetica,sans-Serif" font-size="10.00">+renderEnd</text>
<text text-anchor="middle" x="117" y="-112" font-family="Helvetica,sans-Serif" font-size="10.00">+feedRenderQueuesEnd</text>
<text text-anchor="middle" x="117" y="-101" font-family="Helvetica,sans-Serif" font-size="10.00">+postProcessEnd</text>
<text text-anchor="middle" x="117" y="-90" font-family="Helvetica,sans-Serif" font-size="10.00">+updateEnd</text>
</g>
</g>
</svg>
