<?xml version="1.0" encoding="UTF-8" standalone="no"?>
<!DOCTYPE svg PUBLIC "-//W3C//DTD SVG 1.1//EN"
 "http://www.w3.org/Graphics/SVG/1.1/DTD/svg11.dtd">
<!-- Generated by graphviz version 2.38.0 (20140413.2041)
 -->
<!-- Title: Ra::Engine::TextureParameters Pages: 1 -->
<svg width="319pt" height="365pt"
 viewBox="0.00 0.00 318.50 365.00" xmlns="http://www.w3.org/2000/svg" xmlns:xlink="http://www.w3.org/1999/xlink">
<g id="graph0" class="graph" transform="scale(1 1) rotate(0) translate(4 361)">
<title>Ra::Engine::TextureParameters</title>
<polygon fill="white" stroke="none" points="-4,4 -4,-361 314.5,-361 314.5,4 -4,4"/>
<!-- Node1 -->
<g id="node1" class="node"><title>Node1</title>
<polygon fill="#bfbfbf" stroke="black" points="83,-0.5 83,-57.5 246,-57.5 246,-0.5 83,-0.5"/>
<text text-anchor="middle" x="164.5" y="-45.5" font-family="Helvetica,sans-Serif" font-size="10.00">Ra::Engine::TextureParameters</text>
<polyline fill="none" stroke="black" points="83,-38.5 246,-38.5 "/>
<text text-anchor="middle" x="164.5" y="-26.5" font-family="Helvetica,sans-Serif" font-size="10.00"> </text>
<polyline fill="none" stroke="black" points="83,-19.5 246,-19.5 "/>
<text text-anchor="middle" x="164.5" y="-7.5" font-family="Helvetica,sans-Serif" font-size="10.00"> </text>
</g>
<!-- Node2 -->
<g id="node2" class="node"><title>Node2</title>
<polygon fill="white" stroke="#bfbfbf" points="0,-193.5 0,-250.5 57,-250.5 57,-193.5 0,-193.5"/>
<text text-anchor="middle" x="28.5" y="-238.5" font-family="Helvetica,sans-Serif" font-size="10.00">GLenum</text>
<polyline fill="none" stroke="#bfbfbf" points="0,-231.5 57,-231.5 "/>
<text text-anchor="middle" x="28.5" y="-219.5" font-family="Helvetica,sans-Serif" font-size="10.00"> </text>
<polyline fill="none" stroke="#bfbfbf" points="0,-212.5 57,-212.5 "/>
<text text-anchor="middle" x="28.5" y="-200.5" font-family="Helvetica,sans-Serif" font-size="10.00"> </text>
</g>
<!-- Node2&#45;&gt;Node1 -->
<g id="edge1" class="edge"><title>Node2&#45;&gt;Node1</title>
<path fill="none" stroke="#404040" d="M21.9571,-193.403C16.1652,-161.767 12.1054,-109.92 37.5,-76 46.2838,-64.2673 58.3484,-55.5216 71.5683,-49.0038"/>
<polygon fill="none" stroke="#404040" points="71.9081,-48.8548 75.7969,-42.7821 82.8981,-44.0361 79.0094,-50.1088 71.9081,-48.8548"/>
<text text-anchor="middle" x="77" y="-167" font-family="Helvetica,sans-Serif" font-size="10.00"> +type</text>
<text text-anchor="middle" x="77" y="-156" font-family="Helvetica,sans-Serif" font-size="10.00">+minFilter</text>
<text text-anchor="middle" x="77" y="-145" font-family="Helvetica,sans-Serif" font-size="10.00">+wrapP</text>
<text text-anchor="middle" x="77" y="-134" font-family="Helvetica,sans-Serif" font-size="10.00">+magFilter</text>
<text text-anchor="middle" x="77" y="-123" font-family="Helvetica,sans-Serif" font-size="10.00">+target</text>
<text text-anchor="middle" x="77" y="-112" font-family="Helvetica,sans-Serif" font-size="10.00">+internalFormat</text>
<text text-anchor="middle" x="77" y="-101" font-family="Helvetica,sans-Serif" font-size="10.00">+wrapS</text>
<text text-anchor="middle" x="77" y="-90" font-family="Helvetica,sans-Serif" font-size="10.00">+wrapT</text>
<text text-anchor="middle" x="77" y="-79" font-family="Helvetica,sans-Serif" font-size="10.00">+format</text>
</g>
<!-- Node3 -->
<g id="node3" class="node"><title>Node3</title>
<polygon fill="white" stroke="#bfbfbf" points="105.5,-193.5 105.5,-250.5 149.5,-250.5 149.5,-193.5 105.5,-193.5"/>
<text text-anchor="middle" x="127.5" y="-238.5" font-family="Helvetica,sans-Serif" font-size="10.00">size_t</text>
<polyline fill="none" stroke="#bfbfbf" points="105.5,-231.5 149.5,-231.5 "/>
<text text-anchor="middle" x="127.5" y="-219.5" font-family="Helvetica,sans-Serif" font-size="10.00"> </text>
<polyline fill="none" stroke="#bfbfbf" points="105.5,-212.5 149.5,-212.5 "/>
<text text-anchor="middle" x="127.5" y="-200.5" font-family="Helvetica,sans-Serif" font-size="10.00"> </text>
</g>
<!-- Node3&#45;&gt;Node1 -->
<g id="edge2" class="edge"><title>Node3&#45;&gt;Node1</title>
<path fill="none" stroke="#404040" d="M123.221,-193.423C119.691,-163.6 117.174,-115.084 130.5,-76 131.419,-73.3035 132.56,-70.6337 133.86,-68.0185"/>
<polygon fill="none" stroke="#404040" points="133.874,-67.9951 133.461,-60.7958 139.948,-57.6463 140.361,-64.8456 133.874,-67.9951"/>
<text text-anchor="middle" x="150.5" y="-134" font-family="Helvetica,sans-Serif" font-size="10.00"> +depth</text>
<text text-anchor="middle" x="150.5" y="-123" font-family="Helvetica,sans-Serif" font-size="10.00">+height</text>
<text text-anchor="middle" x="150.5" y="-112" font-family="Helvetica,sans-Serif" font-size="10.00">+width</text>
</g>
<!-- Node4 -->
<g id="node4" class="node"><title>Node4</title>
<g id="a_node4"><a xlink:title="STL class. ">
<polygon fill="white" stroke="#bfbfbf" points="168,-193.5 168,-250.5 233,-250.5 233,-193.5 168,-193.5"/>
<text text-anchor="middle" x="200.5" y="-238.5" font-family="Helvetica,sans-Serif" font-size="10.00">std::string</text>
<polyline fill="none" stroke="#bfbfbf" points="168,-231.5 233,-231.5 "/>
<text text-anchor="middle" x="200.5" y="-219.5" font-family="Helvetica,sans-Serif" font-size="10.00"> </text>
<polyline fill="none" stroke="#bfbfbf" points="168,-212.5 233,-212.5 "/>
<text text-anchor="middle" x="200.5" y="-200.5" font-family="Helvetica,sans-Serif" font-size="10.00"> </text>
</a>
</g>
</g>
<!-- Node4&#45;&gt;Node1 -->
<g id="edge3" class="edge"><title>Node4&#45;&gt;Node1</title>
<path fill="none" stroke="#404040" d="M195.863,-193.416C190.881,-164.203 182.583,-116.766 174.5,-76 174.077,-73.8681 173.634,-71.6827 173.18,-69.478"/>
<polygon fill="none" stroke="#404040" points="173.172,-69.4373 168.019,-64.3931 170.693,-57.6961 175.846,-62.7404 173.172,-69.4373"/>
<text text-anchor="middle" x="212.5" y="-123" font-family="Helvetica,sans-Serif" font-size="10.00"> +name</text>
</g>
<!-- Node5 -->
<g id="node5" class="node"><title>Node5</title>
<g id="a_node5"><a xlink:title="STL class. ">
<polygon fill="white" stroke="#bfbfbf" points="149,-288.5 149,-356.5 252,-356.5 252,-288.5 149,-288.5"/>
<text text-anchor="start" x="157" y="-344.5" font-family="Helvetica,sans-Serif" font-size="10.00">std::basic_string&lt;</text>
<text text-anchor="middle" x="200.5" y="-333.5" font-family="Helvetica,sans-Serif" font-size="10.00"> char &gt;</text>
<polyline fill="none" stroke="#bfbfbf" points="149,-326.5 252,-326.5 "/>
<text text-anchor="middle" x="200.5" y="-314.5" font-family="Helvetica,sans-Serif" font-size="10.00"> </text>
<polyline fill="none" stroke="#bfbfbf" points="149,-307.5 252,-307.5 "/>
<text text-anchor="middle" x="200.5" y="-295.5" font-family="Helvetica,sans-Serif" font-size="10.00"> </text>
</a>
</g>
</g>
<!-- Node5&#45;&gt;Node4 -->
<g id="edge4" class="edge"><title>Node5&#45;&gt;Node4</title>
<path fill="none" stroke="midnightblue" d="M200.5,-278.375C200.5,-268.94 200.5,-259.201 200.5,-250.571"/>
<polygon fill="none" stroke="midnightblue" points="197,-278.427 200.5,-288.427 204,-278.427 197,-278.427"/>
</g>
<!-- Node6 -->
<g id="node6" class="node"><title>Node6</title>
<polygon fill="white" stroke="#bfbfbf" points="251.5,-193.5 251.5,-250.5 295.5,-250.5 295.5,-193.5 251.5,-193.5"/>
<text text-anchor="middle" x="273.5" y="-238.5" font-family="Helvetica,sans-Serif" font-size="10.00">void *</text>
<polyline fill="none" stroke="#bfbfbf" points="251.5,-231.5 295.5,-231.5 "/>
<text text-anchor="middle" x="273.5" y="-219.5" font-family="Helvetica,sans-Serif" font-size="10.00"> </text>
<polyline fill="none" stroke="#bfbfbf" points="251.5,-212.5 295.5,-212.5 "/>
<text text-anchor="middle" x="273.5" y="-200.5" font-family="Helvetica,sans-Serif" font-size="10.00"> </text>
</g>
<!-- Node6&#45;&gt;Node1 -->
<g id="edge5" class="edge"><title>Node6&#45;&gt;Node1</title>
<path fill="none" stroke="#404040" d="M272.412,-193.358C269.922,-162.151 261.923,-111.158 236.5,-76 233.868,-72.3602 230.851,-68.9378 227.578,-65.7324"/>
<polygon fill="none" stroke="#404040" points="227.456,-65.6269 220.304,-64.7091 218.4,-57.7538 225.553,-58.6716 227.456,-65.6269"/>
<text text-anchor="middle" x="290.5" y="-123" font-family="Helvetica,sans-Serif" font-size="10.00"> +texels</text>
</g>
</g>
</svg>
