<?xml version="1.0" encoding="UTF-8" standalone="no"?>
<!DOCTYPE svg PUBLIC "-//W3C//DTD SVG 1.1//EN"
 "http://www.w3.org/Graphics/SVG/1.1/DTD/svg11.dtd">
<!-- Generated by graphviz version 2.38.0 (20140413.2041)
 -->
<!-- Title: Ra::Core::Geometry::LineToSegmentOutput Pages: 1 -->
<svg width="224pt" height="204pt"
 viewBox="0.00 0.00 224.00 204.00" xmlns="http://www.w3.org/2000/svg" xmlns:xlink="http://www.w3.org/1999/xlink">
<g id="graph0" class="graph" transform="scale(1 1) rotate(0) translate(4 200)">
<title>Ra::Core::Geometry::LineToSegmentOutput</title>
<polygon fill="white" stroke="none" points="-4,4 -4,-200 220,-200 220,4 -4,4"/>
<!-- Node1 -->
<g id="node1" class="node"><title>Node1</title>
<polygon fill="#bfbfbf" stroke="black" points="45.5,-0.5 45.5,-68.5 174.5,-68.5 174.5,-0.5 45.5,-0.5"/>
<text text-anchor="start" x="53.5" y="-56.5" font-family="Helvetica,sans-Serif" font-size="10.00">Ra::Core::Geometry</text>
<text text-anchor="middle" x="110" y="-45.5" font-family="Helvetica,sans-Serif" font-size="10.00">::LineToSegmentOutput</text>
<polyline fill="none" stroke="black" points="45.5,-38.5 174.5,-38.5 "/>
<text text-anchor="middle" x="110" y="-26.5" font-family="Helvetica,sans-Serif" font-size="10.00"> </text>
<polyline fill="none" stroke="black" points="45.5,-19.5 174.5,-19.5 "/>
<text text-anchor="middle" x="110" y="-7.5" font-family="Helvetica,sans-Serif" font-size="10.00"> </text>
</g>
<!-- Node2 -->
<g id="node2" class="node"><title>Node2</title>
<polygon fill="white" stroke="#bfbfbf" points="0,-138.5 0,-195.5 122,-195.5 122,-138.5 0,-138.5"/>
<text text-anchor="middle" x="61" y="-183.5" font-family="Helvetica,sans-Serif" font-size="10.00">Matrix&lt; Scalar, 3, 1 &gt;</text>
<polyline fill="none" stroke="#bfbfbf" points="0,-176.5 122,-176.5 "/>
<text text-anchor="middle" x="61" y="-164.5" font-family="Helvetica,sans-Serif" font-size="10.00"> </text>
<polyline fill="none" stroke="#bfbfbf" points="0,-157.5 122,-157.5 "/>
<text text-anchor="middle" x="61" y="-145.5" font-family="Helvetica,sans-Serif" font-size="10.00"> </text>
</g>
<!-- Node2&#45;&gt;Node1 -->
<g id="edge1" class="edge"><title>Node2&#45;&gt;Node1</title>
<path fill="none" stroke="#404040" d="M59.0284,-138.366C58.8994,-122.754 60.4274,-103.185 67,-87 68.0908,-84.3138 69.376,-81.6632 70.8075,-79.0665"/>
<polygon fill="none" stroke="#404040" points="70.9393,-78.8599 70.7937,-71.6502 77.3927,-68.7429 77.5383,-75.9526 70.9393,-78.8599"/>
<text text-anchor="middle" x="102" y="-101" font-family="Helvetica,sans-Serif" font-size="10.00"> +closestPoint</text>
</g>
<!-- Node3 -->
<g id="node3" class="node"><title>Node3</title>
<polygon fill="white" stroke="#bfbfbf" points="140,-138.5 140,-195.5 178,-195.5 178,-138.5 140,-138.5"/>
<text text-anchor="middle" x="159" y="-183.5" font-family="Helvetica,sans-Serif" font-size="10.00">float</text>
<polyline fill="none" stroke="#bfbfbf" points="140,-176.5 178,-176.5 "/>
<text text-anchor="middle" x="159" y="-164.5" font-family="Helvetica,sans-Serif" font-size="10.00"> </text>
<polyline fill="none" stroke="#bfbfbf" points="140,-157.5 178,-157.5 "/>
<text text-anchor="middle" x="159" y="-145.5" font-family="Helvetica,sans-Serif" font-size="10.00"> </text>
</g>
<!-- Node3&#45;&gt;Node1 -->
<g id="edge2" class="edge"><title>Node3&#45;&gt;Node1</title>
<path fill="none" stroke="#404040" d="M152.854,-138.476C149.041,-123.076 143.608,-103.677 137,-87 136.018,-84.5217 134.951,-82.0067 133.828,-79.4889"/>
<polygon fill="none" stroke="#404040" points="133.775,-79.377 127.587,-75.674 128.626,-68.538 134.813,-72.2411 133.775,-79.377"/>
<text text-anchor="middle" x="181.5" y="-112" font-family="Helvetica,sans-Serif" font-size="10.00"> +sqrDistance</text>
<text text-anchor="middle" x="181.5" y="-101" font-family="Helvetica,sans-Serif" font-size="10.00">+distance</text>
<text text-anchor="middle" x="181.5" y="-90" font-family="Helvetica,sans-Serif" font-size="10.00">+parameter</text>
</g>
</g>
</svg>
