<?xml version="1.0" encoding="UTF-8" standalone="no"?>
<!DOCTYPE svg PUBLIC "-//W3C//DTD SVG 1.1//EN"
 "http://www.w3.org/Graphics/SVG/1.1/DTD/svg11.dtd">
<!-- Generated by graphviz version 2.38.0 (20140413.2041)
 -->
<!-- Title: Ra::Core::Asset::HandleAnimation Pages: 1 -->
<svg width="757pt" height="1478pt"
 viewBox="0.00 0.00 757.00 1478.00" xmlns="http://www.w3.org/2000/svg" xmlns:xlink="http://www.w3.org/1999/xlink">
<g id="graph0" class="graph" transform="scale(1 1) rotate(0) translate(4 1474)">
<title>Ra::Core::Asset::HandleAnimation</title>
<polygon fill="white" stroke="none" points="-4,4 -4,-1474 753,-1474 753,4 -4,4"/>
<!-- Node1 -->
<g id="node1" class="node"><title>Node1</title>
<polygon fill="#bfbfbf" stroke="black" points="210.5,-0.5 210.5,-57.5 389.5,-57.5 389.5,-0.5 210.5,-0.5"/>
<text text-anchor="middle" x="300" y="-45.5" font-family="Helvetica,sans-Serif" font-size="10.00">Ra::Core::Asset::HandleAnimation</text>
<polyline fill="none" stroke="black" points="210.5,-38.5 389.5,-38.5 "/>
<text text-anchor="middle" x="300" y="-26.5" font-family="Helvetica,sans-Serif" font-size="10.00"> </text>
<polyline fill="none" stroke="black" points="210.5,-19.5 389.5,-19.5 "/>
<text text-anchor="start" x="218.5" y="-7.5" font-family="Helvetica,sans-Serif" font-size="10.00">+ HandleAnimation()</text>
</g>
<!-- Node2 -->
<g id="node2" class="node"><title>Node2</title>
<g id="a_node2"><a xlink:href="classRa_1_1Core_1_1Animation_1_1KeyTransform.html" target="_top" xlink:title="{Ra::Core::Animation\l::KeyTransform\n||+ KeyTransform()\l+ KeyTransform()\l+ ~KeyTransform()\l# defaultFrame()\l# interpolate()\l}">
<polygon fill="white" stroke="black" points="172,-105.5 172,-217.5 284,-217.5 284,-105.5 172,-105.5"/>
<text text-anchor="start" x="180" y="-205.5" font-family="Helvetica,sans-Serif" font-size="10.00">Ra::Core::Animation</text>
<text text-anchor="middle" x="228" y="-194.5" font-family="Helvetica,sans-Serif" font-size="10.00">::KeyTransform</text>
<polyline fill="none" stroke="black" points="172,-187.5 284,-187.5 "/>
<text text-anchor="middle" x="228" y="-175.5" font-family="Helvetica,sans-Serif" font-size="10.00"> </text>
<polyline fill="none" stroke="black" points="172,-168.5 284,-168.5 "/>
<text text-anchor="start" x="180" y="-156.5" font-family="Helvetica,sans-Serif" font-size="10.00">+ KeyTransform()</text>
<text text-anchor="start" x="180" y="-145.5" font-family="Helvetica,sans-Serif" font-size="10.00">+ KeyTransform()</text>
<text text-anchor="start" x="180" y="-134.5" font-family="Helvetica,sans-Serif" font-size="10.00">+ ~KeyTransform()</text>
<text text-anchor="start" x="180" y="-123.5" font-family="Helvetica,sans-Serif" font-size="10.00"># defaultFrame()</text>
<text text-anchor="start" x="180" y="-112.5" font-family="Helvetica,sans-Serif" font-size="10.00"># interpolate()</text>
</a>
</g>
</g>
<!-- Node2&#45;&gt;Node1 -->
<g id="edge1" class="edge"><title>Node2&#45;&gt;Node1</title>
<path fill="none" stroke="#404040" d="M252.523,-105.272C257.372,-95.3764 262.631,-85.2698 268,-76 269.536,-73.3482 271.178,-70.6525 272.878,-67.9639"/>
<polygon fill="none" stroke="#404040" points="273.012,-67.7599 272.97,-60.5489 279.61,-57.737 279.652,-64.948 273.012,-67.7599"/>
<text text-anchor="middle" x="293.5" y="-79" font-family="Helvetica,sans-Serif" font-size="10.00"> +m_anim</text>
</g>
<!-- Node3 -->
<g id="node3" class="node"><title>Node3</title>
<g id="a_node3"><a xlink:href="classRa_1_1Core_1_1Animation_1_1KeyFrame.html" target="_top" xlink:title="{Ra::Core::Animation\l::KeyFrame\&lt; Core::Transform \&gt;\n||+ KeyFrame()\l+ KeyFrame()\l+ ~KeyFrame()\l+ getAnimationTime()\l+ setAnimationTime()\l+ getKeyFrame()\l+ getKeyFrame()\l+ at()\l+ setKeyFrame()\l+ setKeyFrame()\l+ insertKeyFrame()\l+ size()\l+ clear()\l+ empty()\l+ timeSchedule()\l+ reset()\l+ operator=()\l+ operator==()\l+ operator!=()\l# defaultFrame()\l# findRange()\l# interpolate()\l}">
<polygon fill="white" stroke="black" points="127.5,-255.5 127.5,-554.5 294.5,-554.5 294.5,-255.5 127.5,-255.5"/>
<text text-anchor="start" x="135.5" y="-542.5" font-family="Helvetica,sans-Serif" font-size="10.00">Ra::Core::Animation</text>
<text text-anchor="middle" x="211" y="-531.5" font-family="Helvetica,sans-Serif" font-size="10.00">::KeyFrame&lt; Core::Transform &gt;</text>
<polyline fill="none" stroke="black" points="127.5,-524.5 294.5,-524.5 "/>
<text text-anchor="middle" x="211" y="-512.5" font-family="Helvetica,sans-Serif" font-size="10.00"> </text>
<polyline fill="none" stroke="black" points="127.5,-505.5 294.5,-505.5 "/>
<text text-anchor="start" x="135.5" y="-493.5" font-family="Helvetica,sans-Serif" font-size="10.00">+ KeyFrame()</text>
<text text-anchor="start" x="135.5" y="-482.5" font-family="Helvetica,sans-Serif" font-size="10.00">+ KeyFrame()</text>
<text text-anchor="start" x="135.5" y="-471.5" font-family="Helvetica,sans-Serif" font-size="10.00">+ ~KeyFrame()</text>
<text text-anchor="start" x="135.5" y="-460.5" font-family="Helvetica,sans-Serif" font-size="10.00">+ getAnimationTime()</text>
<text text-anchor="start" x="135.5" y="-449.5" font-family="Helvetica,sans-Serif" font-size="10.00">+ setAnimationTime()</text>
<text text-anchor="start" x="135.5" y="-438.5" font-family="Helvetica,sans-Serif" font-size="10.00">+ getKeyFrame()</text>
<text text-anchor="start" x="135.5" y="-427.5" font-family="Helvetica,sans-Serif" font-size="10.00">+ getKeyFrame()</text>
<text text-anchor="start" x="135.5" y="-416.5" font-family="Helvetica,sans-Serif" font-size="10.00">+ at()</text>
<text text-anchor="start" x="135.5" y="-405.5" font-family="Helvetica,sans-Serif" font-size="10.00">+ setKeyFrame()</text>
<text text-anchor="start" x="135.5" y="-394.5" font-family="Helvetica,sans-Serif" font-size="10.00">+ setKeyFrame()</text>
<text text-anchor="start" x="135.5" y="-383.5" font-family="Helvetica,sans-Serif" font-size="10.00">+ insertKeyFrame()</text>
<text text-anchor="start" x="135.5" y="-372.5" font-family="Helvetica,sans-Serif" font-size="10.00">+ size()</text>
<text text-anchor="start" x="135.5" y="-361.5" font-family="Helvetica,sans-Serif" font-size="10.00">+ clear()</text>
<text text-anchor="start" x="135.5" y="-350.5" font-family="Helvetica,sans-Serif" font-size="10.00">+ empty()</text>
<text text-anchor="start" x="135.5" y="-339.5" font-family="Helvetica,sans-Serif" font-size="10.00">+ timeSchedule()</text>
<text text-anchor="start" x="135.5" y="-328.5" font-family="Helvetica,sans-Serif" font-size="10.00">+ reset()</text>
<text text-anchor="start" x="135.5" y="-317.5" font-family="Helvetica,sans-Serif" font-size="10.00">+ operator=()</text>
<text text-anchor="start" x="135.5" y="-306.5" font-family="Helvetica,sans-Serif" font-size="10.00">+ operator==()</text>
<text text-anchor="start" x="135.5" y="-295.5" font-family="Helvetica,sans-Serif" font-size="10.00">+ operator!=()</text>
<text text-anchor="start" x="135.5" y="-284.5" font-family="Helvetica,sans-Serif" font-size="10.00"># defaultFrame()</text>
<text text-anchor="start" x="135.5" y="-273.5" font-family="Helvetica,sans-Serif" font-size="10.00"># findRange()</text>
<text text-anchor="start" x="135.5" y="-262.5" font-family="Helvetica,sans-Serif" font-size="10.00"># interpolate()</text>
</a>
</g>
</g>
<!-- Node3&#45;&gt;Node2 -->
<g id="edge2" class="edge"><title>Node3&#45;&gt;Node2</title>
<path fill="none" stroke="midnightblue" d="M222.187,-245.076C222.862,-235.493 223.511,-226.268 224.116,-217.678"/>
<polygon fill="none" stroke="midnightblue" points="218.687,-244.958 221.476,-255.18 225.67,-245.45 218.687,-244.958"/>
</g>
<!-- Node4 -->
<g id="node4" class="node"><title>Node4</title>
<g id="a_node4"><a xlink:href="classRa_1_1Core_1_1Animation_1_1AnimationTime.html" target="_top" xlink:title="{Ra::Core::Animation\l::AnimationTime\n||+ AnimationTime()\l+ AnimationTime()\l+ ~AnimationTime()\l+ getStart()\l+ setStart()\l+ getEnd()\l+ setEnd()\l+ duration()\l+ merge()\l+ contain()\l+ intersect()\l+ isValid()\l+ operator==()\l+ operator!=()\l+ operator\&lt;()\l+ operator==()\l+ operator\&lt;()\l+ operator\&gt;()\l}">
<polygon fill="white" stroke="black" points="0,-949.5 0,-1204.5 116,-1204.5 116,-949.5 0,-949.5"/>
<text text-anchor="start" x="8" y="-1192.5" font-family="Helvetica,sans-Serif" font-size="10.00">Ra::Core::Animation</text>
<text text-anchor="middle" x="58" y="-1181.5" font-family="Helvetica,sans-Serif" font-size="10.00">::AnimationTime</text>
<polyline fill="none" stroke="black" points="0,-1174.5 116,-1174.5 "/>
<text text-anchor="middle" x="58" y="-1162.5" font-family="Helvetica,sans-Serif" font-size="10.00"> </text>
<polyline fill="none" stroke="black" points="0,-1155.5 116,-1155.5 "/>
<text text-anchor="start" x="8" y="-1143.5" font-family="Helvetica,sans-Serif" font-size="10.00">+ AnimationTime()</text>
<text text-anchor="start" x="8" y="-1132.5" font-family="Helvetica,sans-Serif" font-size="10.00">+ AnimationTime()</text>
<text text-anchor="start" x="8" y="-1121.5" font-family="Helvetica,sans-Serif" font-size="10.00">+ ~AnimationTime()</text>
<text text-anchor="start" x="8" y="-1110.5" font-family="Helvetica,sans-Serif" font-size="10.00">+ getStart()</text>
<text text-anchor="start" x="8" y="-1099.5" font-family="Helvetica,sans-Serif" font-size="10.00">+ setStart()</text>
<text text-anchor="start" x="8" y="-1088.5" font-family="Helvetica,sans-Serif" font-size="10.00">+ getEnd()</text>
<text text-anchor="start" x="8" y="-1077.5" font-family="Helvetica,sans-Serif" font-size="10.00">+ setEnd()</text>
<text text-anchor="start" x="8" y="-1066.5" font-family="Helvetica,sans-Serif" font-size="10.00">+ duration()</text>
<text text-anchor="start" x="8" y="-1055.5" font-family="Helvetica,sans-Serif" font-size="10.00">+ merge()</text>
<text text-anchor="start" x="8" y="-1044.5" font-family="Helvetica,sans-Serif" font-size="10.00">+ contain()</text>
<text text-anchor="start" x="8" y="-1033.5" font-family="Helvetica,sans-Serif" font-size="10.00">+ intersect()</text>
<text text-anchor="start" x="8" y="-1022.5" font-family="Helvetica,sans-Serif" font-size="10.00">+ isValid()</text>
<text text-anchor="start" x="8" y="-1011.5" font-family="Helvetica,sans-Serif" font-size="10.00">+ operator==()</text>
<text text-anchor="start" x="8" y="-1000.5" font-family="Helvetica,sans-Serif" font-size="10.00">+ operator!=()</text>
<text text-anchor="start" x="8" y="-989.5" font-family="Helvetica,sans-Serif" font-size="10.00">+ operator&lt;()</text>
<text text-anchor="start" x="8" y="-978.5" font-family="Helvetica,sans-Serif" font-size="10.00">+ operator==()</text>
<text text-anchor="start" x="8" y="-967.5" font-family="Helvetica,sans-Serif" font-size="10.00">+ operator&lt;()</text>
<text text-anchor="start" x="8" y="-956.5" font-family="Helvetica,sans-Serif" font-size="10.00">+ operator&gt;()</text>
</a>
</g>
</g>
<!-- Node4&#45;&gt;Node3 -->
<g id="edge3" class="edge"><title>Node4&#45;&gt;Node3</title>
<path fill="none" stroke="#404040" d="M50.6739,-949.439C48.8558,-852.158 54.6693,-715.636 91,-602 98.4658,-578.648 109.261,-555.215 121.357,-533.084"/>
<polygon fill="none" stroke="#404040" points="121.519,-532.796 120.966,-525.606 127.391,-522.331 127.943,-529.521 121.519,-532.796"/>
<text text-anchor="middle" x="115.5" y="-749.5" font-family="Helvetica,sans-Serif" font-size="10.00"> #m_time</text>
</g>
<!-- Node12 -->
<g id="node12" class="node"><title>Node12</title>
<g id="a_node12"><a xlink:href="classRa_1_1Core_1_1Animation_1_1KeyFrame.html" target="_top" xlink:title="{Ra::Core::Animation\l::KeyFrame\&lt; FRAME \&gt;\n||+ KeyFrame()\l+ KeyFrame()\l+ ~KeyFrame()\l+ getAnimationTime()\l+ setAnimationTime()\l+ getKeyFrame()\l+ getKeyFrame()\l+ at()\l+ setKeyFrame()\l+ setKeyFrame()\l+ insertKeyFrame()\l+ size()\l+ clear()\l+ empty()\l+ timeSchedule()\l+ reset()\l+ operator=()\l+ operator==()\l+ operator!=()\l# defaultFrame()\l# findRange()\l# interpolate()\l}">
<polygon fill="white" stroke="black" points="149.5,-602.5 149.5,-901.5 272.5,-901.5 272.5,-602.5 149.5,-602.5"/>
<text text-anchor="start" x="157.5" y="-889.5" font-family="Helvetica,sans-Serif" font-size="10.00">Ra::Core::Animation</text>
<text text-anchor="middle" x="211" y="-878.5" font-family="Helvetica,sans-Serif" font-size="10.00">::KeyFrame&lt; FRAME &gt;</text>
<polyline fill="none" stroke="black" points="149.5,-871.5 272.5,-871.5 "/>
<text text-anchor="middle" x="211" y="-859.5" font-family="Helvetica,sans-Serif" font-size="10.00"> </text>
<polyline fill="none" stroke="black" points="149.5,-852.5 272.5,-852.5 "/>
<text text-anchor="start" x="157.5" y="-840.5" font-family="Helvetica,sans-Serif" font-size="10.00">+ KeyFrame()</text>
<text text-anchor="start" x="157.5" y="-829.5" font-family="Helvetica,sans-Serif" font-size="10.00">+ KeyFrame()</text>
<text text-anchor="start" x="157.5" y="-818.5" font-family="Helvetica,sans-Serif" font-size="10.00">+ ~KeyFrame()</text>
<text text-anchor="start" x="157.5" y="-807.5" font-family="Helvetica,sans-Serif" font-size="10.00">+ getAnimationTime()</text>
<text text-anchor="start" x="157.5" y="-796.5" font-family="Helvetica,sans-Serif" font-size="10.00">+ setAnimationTime()</text>
<text text-anchor="start" x="157.5" y="-785.5" font-family="Helvetica,sans-Serif" font-size="10.00">+ getKeyFrame()</text>
<text text-anchor="start" x="157.5" y="-774.5" font-family="Helvetica,sans-Serif" font-size="10.00">+ getKeyFrame()</text>
<text text-anchor="start" x="157.5" y="-763.5" font-family="Helvetica,sans-Serif" font-size="10.00">+ at()</text>
<text text-anchor="start" x="157.5" y="-752.5" font-family="Helvetica,sans-Serif" font-size="10.00">+ setKeyFrame()</text>
<text text-anchor="start" x="157.5" y="-741.5" font-family="Helvetica,sans-Serif" font-size="10.00">+ setKeyFrame()</text>
<text text-anchor="start" x="157.5" y="-730.5" font-family="Helvetica,sans-Serif" font-size="10.00">+ insertKeyFrame()</text>
<text text-anchor="start" x="157.5" y="-719.5" font-family="Helvetica,sans-Serif" font-size="10.00">+ size()</text>
<text text-anchor="start" x="157.5" y="-708.5" font-family="Helvetica,sans-Serif" font-size="10.00">+ clear()</text>
<text text-anchor="start" x="157.5" y="-697.5" font-family="Helvetica,sans-Serif" font-size="10.00">+ empty()</text>
<text text-anchor="start" x="157.5" y="-686.5" font-family="Helvetica,sans-Serif" font-size="10.00">+ timeSchedule()</text>
<text text-anchor="start" x="157.5" y="-675.5" font-family="Helvetica,sans-Serif" font-size="10.00">+ reset()</text>
<text text-anchor="start" x="157.5" y="-664.5" font-family="Helvetica,sans-Serif" font-size="10.00">+ operator=()</text>
<text text-anchor="start" x="157.5" y="-653.5" font-family="Helvetica,sans-Serif" font-size="10.00">+ operator==()</text>
<text text-anchor="start" x="157.5" y="-642.5" font-family="Helvetica,sans-Serif" font-size="10.00">+ operator!=()</text>
<text text-anchor="start" x="157.5" y="-631.5" font-family="Helvetica,sans-Serif" font-size="10.00"># defaultFrame()</text>
<text text-anchor="start" x="157.5" y="-620.5" font-family="Helvetica,sans-Serif" font-size="10.00"># findRange()</text>
<text text-anchor="start" x="157.5" y="-609.5" font-family="Helvetica,sans-Serif" font-size="10.00"># interpolate()</text>
</a>
</g>
</g>
<!-- Node4&#45;&gt;Node12 -->
<g id="edge12" class="edge"><title>Node4&#45;&gt;Node12</title>
<path fill="none" stroke="#404040" d="M116.061,-953.427C125.262,-934.002 134.842,-913.778 144.223,-893.973"/>
<polygon fill="none" stroke="#404040" points="144.274,-893.866 143.228,-886.731 149.411,-883.021 150.457,-890.156 144.274,-893.866"/>
<text text-anchor="middle" x="154.5" y="-923" font-family="Helvetica,sans-Serif" font-size="10.00"> #m_time</text>
</g>
<!-- Node5 -->
<g id="node5" class="node"><title>Node5</title>
<polygon fill="white" stroke="#bfbfbf" points="39,-1307.5 39,-1364.5 77,-1364.5 77,-1307.5 39,-1307.5"/>
<text text-anchor="middle" x="58" y="-1352.5" font-family="Helvetica,sans-Serif" font-size="10.00">float</text>
<polyline fill="none" stroke="#bfbfbf" points="39,-1345.5 77,-1345.5 "/>
<text text-anchor="middle" x="58" y="-1333.5" font-family="Helvetica,sans-Serif" font-size="10.00"> </text>
<polyline fill="none" stroke="#bfbfbf" points="39,-1326.5 77,-1326.5 "/>
<text text-anchor="middle" x="58" y="-1314.5" font-family="Helvetica,sans-Serif" font-size="10.00"> </text>
</g>
<!-- Node5&#45;&gt;Node4 -->
<g id="edge4" class="edge"><title>Node5&#45;&gt;Node4</title>
<path fill="none" stroke="#404040" d="M58,-1307.5C58,-1285.02 58,-1251.42 58,-1216.81"/>
<polygon fill="none" stroke="#404040" points="58.0001,-1216.55 54,-1210.55 58,-1204.55 62,-1210.55 58.0001,-1216.55"/>
<text text-anchor="middle" x="81" y="-1259" font-family="Helvetica,sans-Serif" font-size="10.00"> #m_end</text>
<text text-anchor="middle" x="81" y="-1248" font-family="Helvetica,sans-Serif" font-size="10.00">#m_start</text>
</g>
<!-- Node6 -->
<g id="node6" class="node"><title>Node6</title>
<polygon fill="white" stroke="#bfbfbf" points="449,-1015.5 449,-1138.5 591,-1138.5 591,-1015.5 449,-1015.5"/>
<text text-anchor="start" x="457" y="-1126.5" font-family="Helvetica,sans-Serif" font-size="10.00">std::map&lt; Time, Core</text>
<text text-anchor="start" x="457" y="-1115.5" font-family="Helvetica,sans-Serif" font-size="10.00">::Transform, std::less</text>
<text text-anchor="start" x="457" y="-1104.5" font-family="Helvetica,sans-Serif" font-size="10.00">&lt; Time &gt;, Ra::Core::Ra</text>
<text text-anchor="start" x="457" y="-1093.5" font-family="Helvetica,sans-Serif" font-size="10.00">::Core::AlignedAllocator</text>
<text text-anchor="start" x="457" y="-1082.5" font-family="Helvetica,sans-Serif" font-size="10.00">&lt; std::pair&lt; const Time,</text>
<text text-anchor="start" x="457" y="-1071.5" font-family="Helvetica,sans-Serif" font-size="10.00"> Core::Transform &gt;, EIGEN</text>
<text text-anchor="middle" x="520" y="-1060.5" font-family="Helvetica,sans-Serif" font-size="10.00">_MAX_ALIGN_BYTES &gt; &gt;</text>
<polyline fill="none" stroke="#bfbfbf" points="449,-1053.5 591,-1053.5 "/>
<text text-anchor="middle" x="520" y="-1041.5" font-family="Helvetica,sans-Serif" font-size="10.00"> </text>
<polyline fill="none" stroke="#bfbfbf" points="449,-1034.5 591,-1034.5 "/>
<text text-anchor="middle" x="520" y="-1022.5" font-family="Helvetica,sans-Serif" font-size="10.00"> </text>
</g>
<!-- Node6&#45;&gt;Node3 -->
<g id="edge5" class="edge"><title>Node6&#45;&gt;Node3</title>
<path fill="none" stroke="#404040" d="M501.624,-1015.44C470.859,-918.376 403.679,-723.578 317,-573 311.944,-564.216 308.782,-563.324 303,-555 302.48,-554.251 301.959,-553.499 301.438,-552.744"/>
<polygon fill="none" stroke="#404040" points="301.412,-552.706 294.726,-550.003 294.65,-542.793 301.335,-545.495 301.412,-552.706"/>
<text text-anchor="middle" x="498" y="-749.5" font-family="Helvetica,sans-Serif" font-size="10.00"> #m_keyframe</text>
</g>
<!-- Node7 -->
<g id="node7" class="node"><title>Node7</title>
<g id="a_node7"><a xlink:href="classCore_1_1Transform.html" target="_top" xlink:title="{Transform\n||}">
<polygon fill="white" stroke="black" points="670,-1307.5 670,-1364.5 734,-1364.5 734,-1307.5 670,-1307.5"/>
<text text-anchor="middle" x="702" y="-1352.5" font-family="Helvetica,sans-Serif" font-size="10.00">Transform</text>
<polyline fill="none" stroke="black" points="670,-1345.5 734,-1345.5 "/>
<text text-anchor="middle" x="702" y="-1333.5" font-family="Helvetica,sans-Serif" font-size="10.00"> </text>
<polyline fill="none" stroke="black" points="670,-1326.5 734,-1326.5 "/>
<text text-anchor="middle" x="702" y="-1314.5" font-family="Helvetica,sans-Serif" font-size="10.00"> </text>
</a>
</g>
</g>
<!-- Node7&#45;&gt;Node6 -->
<g id="edge6" class="edge"><title>Node7&#45;&gt;Node6</title>
<path fill="none" stroke="#404040" d="M696.934,-1307.2C691.747,-1283.54 682.118,-1249.29 666,-1223 648.374,-1194.25 623.893,-1166.98 600.01,-1144.02"/>
<polygon fill="none" stroke="#404040" points="599.981,-1143.99 592.872,-1142.78 591.252,-1135.76 598.361,-1136.96 599.981,-1143.99"/>
<text text-anchor="middle" x="720.5" y="-1253.5" font-family="Helvetica,sans-Serif" font-size="10.00"> +elements</text>
</g>
<!-- Node8 -->
<g id="node8" class="node"><title>Node8</title>
<polygon fill="white" stroke="#bfbfbf" points="590,-1307.5 590,-1364.5 630,-1364.5 630,-1307.5 590,-1307.5"/>
<text text-anchor="middle" x="610" y="-1352.5" font-family="Helvetica,sans-Serif" font-size="10.00">Time</text>
<polyline fill="none" stroke="#bfbfbf" points="590,-1345.5 630,-1345.5 "/>
<text text-anchor="middle" x="610" y="-1333.5" font-family="Helvetica,sans-Serif" font-size="10.00"> </text>
<polyline fill="none" stroke="#bfbfbf" points="590,-1326.5 630,-1326.5 "/>
<text text-anchor="middle" x="610" y="-1314.5" font-family="Helvetica,sans-Serif" font-size="10.00"> </text>
</g>
<!-- Node8&#45;&gt;Node6 -->
<g id="edge7" class="edge"><title>Node8&#45;&gt;Node6</title>
<path fill="none" stroke="#404040" d="M619.561,-1307.22C626.006,-1284.17 631.865,-1250.79 623,-1223 614.539,-1196.48 599.262,-1170.65 583.02,-1148.32"/>
<polygon fill="none" stroke="#404040" points="582.964,-1148.25 576.164,-1145.85 575.765,-1138.65 582.565,-1141.05 582.964,-1148.25"/>
<text text-anchor="middle" x="645" y="-1253.5" font-family="Helvetica,sans-Serif" font-size="10.00"> +keys</text>
</g>
<!-- Node13 -->
<g id="node13" class="node"><title>Node13</title>
<polygon fill="white" stroke="#bfbfbf" points="134.5,-1026.5 134.5,-1127.5 315.5,-1127.5 315.5,-1026.5 134.5,-1026.5"/>
<text text-anchor="start" x="142.5" y="-1115.5" font-family="Helvetica,sans-Serif" font-size="10.00">std::map&lt; Time, FRAME,</text>
<text text-anchor="start" x="142.5" y="-1104.5" font-family="Helvetica,sans-Serif" font-size="10.00"> std::less&lt; Time &gt;, Ra</text>
<text text-anchor="start" x="142.5" y="-1093.5" font-family="Helvetica,sans-Serif" font-size="10.00">::Core::Ra::Core::AlignedAllocator</text>
<text text-anchor="start" x="142.5" y="-1082.5" font-family="Helvetica,sans-Serif" font-size="10.00">&lt; std::pair&lt; const Time, FRAME</text>
<text text-anchor="middle" x="225" y="-1071.5" font-family="Helvetica,sans-Serif" font-size="10.00"> &gt;, EIGEN_MAX_ALIGN_BYTES &gt; &gt;</text>
<polyline fill="none" stroke="#bfbfbf" points="134.5,-1064.5 315.5,-1064.5 "/>
<text text-anchor="middle" x="225" y="-1052.5" font-family="Helvetica,sans-Serif" font-size="10.00"> </text>
<polyline fill="none" stroke="#bfbfbf" points="134.5,-1045.5 315.5,-1045.5 "/>
<text text-anchor="middle" x="225" y="-1033.5" font-family="Helvetica,sans-Serif" font-size="10.00"> </text>
</g>
<!-- Node8&#45;&gt;Node13 -->
<g id="edge15" class="edge"><title>Node8&#45;&gt;Node13</title>
<path fill="none" stroke="#404040" d="M593.667,-1307.25C590.546,-1301.34 587.482,-1295.06 585,-1289 573.421,-1260.76 589.025,-1243.04 566,-1223 523.33,-1185.86 493.373,-1223.74 440,-1205 391.939,-1188.12 342.703,-1159.98 303.496,-1134.48"/>
<polygon fill="none" stroke="#404040" points="303.252,-1134.31 296.041,-1134.35 293.233,-1127.71 300.444,-1127.67 303.252,-1134.31"/>
<text text-anchor="middle" x="602" y="-1253.5" font-family="Helvetica,sans-Serif" font-size="10.00"> +keys</text>
</g>
<!-- Node9 -->
<g id="node9" class="node"><title>Node9</title>
<g id="a_node9"><a xlink:title="STL class. ">
<polygon fill="white" stroke="#bfbfbf" points="266.5,-1307.5 266.5,-1364.5 365.5,-1364.5 365.5,-1307.5 266.5,-1307.5"/>
<text text-anchor="middle" x="316" y="-1352.5" font-family="Helvetica,sans-Serif" font-size="10.00">std::map&lt; K, T &gt;</text>
<polyline fill="none" stroke="#bfbfbf" points="266.5,-1345.5 365.5,-1345.5 "/>
<text text-anchor="middle" x="316" y="-1333.5" font-family="Helvetica,sans-Serif" font-size="10.00"> </text>
<polyline fill="none" stroke="#bfbfbf" points="266.5,-1326.5 365.5,-1326.5 "/>
<text text-anchor="middle" x="316" y="-1314.5" font-family="Helvetica,sans-Serif" font-size="10.00"> </text>
</a>
</g>
</g>
<!-- Node9&#45;&gt;Node6 -->
<g id="edge8" class="edge"><title>Node9&#45;&gt;Node6</title>
<path fill="none" stroke="orange" d="M371.354,-1300.7C375.246,-1297.04 378.863,-1293.14 382,-1289 400.767,-1264.25 390.028,-1250.22 405,-1223 421.338,-1193.3 443.741,-1163.45 464.435,-1138.63"/>
<polygon fill="orange" stroke="orange" points="368.864,-1298.22 363.584,-1307.41 373.44,-1303.52 368.864,-1298.22"/>
<text text-anchor="start" x="405" y="-1281" font-family="Helvetica,sans-Serif" font-size="10.00"> &lt; Time, Core::Transform,</text>
<text text-anchor="start" x="405" y="-1270" font-family="Helvetica,sans-Serif" font-size="10.00"> std::less&lt; Time &gt;, Ra</text>
<text text-anchor="start" x="405" y="-1259" font-family="Helvetica,sans-Serif" font-size="10.00">::Core::Ra::Core::AlignedAllocator</text>
<text text-anchor="start" x="405" y="-1248" font-family="Helvetica,sans-Serif" font-size="10.00">&lt; std::pair&lt; const Time, Core</text>
<text text-anchor="start" x="405" y="-1237" font-family="Helvetica,sans-Serif" font-size="10.00">::Transform &gt;, EIGEN_MAX_ALIGN</text>
<text text-anchor="middle" x="485.5" y="-1226" font-family="Helvetica,sans-Serif" font-size="10.00">_BYTES &gt; &gt;</text>
</g>
<!-- Node9&#45;&gt;Node13 -->
<g id="edge16" class="edge"><title>Node9&#45;&gt;Node13</title>
<path fill="none" stroke="orange" d="M256.601,-1320.16C241.085,-1313.3 226.159,-1303.36 217,-1289 186.339,-1240.94 195.878,-1173.42 208.093,-1127.81"/>
<polygon fill="orange" stroke="orange" points="255.707,-1323.58 266.291,-1324.05 258.313,-1317.08 255.707,-1323.58"/>
<text text-anchor="start" x="217" y="-1275.5" font-family="Helvetica,sans-Serif" font-size="10.00"> &lt; Time, FRAME, std</text>
<text text-anchor="start" x="217" y="-1264.5" font-family="Helvetica,sans-Serif" font-size="10.00">::less&lt; Time &gt;, Ra::</text>
<text text-anchor="start" x="217" y="-1253.5" font-family="Helvetica,sans-Serif" font-size="10.00">Core::Ra::Core::AlignedAllocator</text>
<text text-anchor="start" x="217" y="-1242.5" font-family="Helvetica,sans-Serif" font-size="10.00">&lt; std::pair&lt; const Time, FRAME</text>
<text text-anchor="middle" x="299.5" y="-1231.5" font-family="Helvetica,sans-Serif" font-size="10.00"> &gt;, EIGEN_MAX_ALIGN_BYTES &gt; &gt;</text>
</g>
<!-- Node10 -->
<g id="node10" class="node"><title>Node10</title>
<polygon fill="white" stroke="#bfbfbf" points="273.5,-1412.5 273.5,-1469.5 302.5,-1469.5 302.5,-1412.5 273.5,-1412.5"/>
<text text-anchor="middle" x="288" y="-1457.5" font-family="Helvetica,sans-Serif" font-size="10.00">K</text>
<polyline fill="none" stroke="#bfbfbf" points="273.5,-1450.5 302.5,-1450.5 "/>
<text text-anchor="middle" x="288" y="-1438.5" font-family="Helvetica,sans-Serif" font-size="10.00"> </text>
<polyline fill="none" stroke="#bfbfbf" points="273.5,-1431.5 302.5,-1431.5 "/>
<text text-anchor="middle" x="288" y="-1419.5" font-family="Helvetica,sans-Serif" font-size="10.00"> </text>
</g>
<!-- Node10&#45;&gt;Node9 -->
<g id="edge9" class="edge"><title>Node10&#45;&gt;Node9</title>
<path fill="none" stroke="#404040" d="M285.672,-1412.33C285.612,-1402.88 286.374,-1392.34 289,-1383 289.686,-1380.56 290.533,-1378.12 291.499,-1375.7"/>
<polygon fill="none" stroke="#404040" points="291.586,-1375.52 290.545,-1368.39 296.731,-1364.68 297.772,-1371.82 291.586,-1375.52"/>
<text text-anchor="middle" x="306" y="-1386" font-family="Helvetica,sans-Serif" font-size="10.00"> +keys</text>
</g>
<!-- Node11 -->
<g id="node11" class="node"><title>Node11</title>
<polygon fill="white" stroke="#bfbfbf" points="330.5,-1412.5 330.5,-1469.5 359.5,-1469.5 359.5,-1412.5 330.5,-1412.5"/>
<text text-anchor="middle" x="345" y="-1457.5" font-family="Helvetica,sans-Serif" font-size="10.00">T</text>
<polyline fill="none" stroke="#bfbfbf" points="330.5,-1450.5 359.5,-1450.5 "/>
<text text-anchor="middle" x="345" y="-1438.5" font-family="Helvetica,sans-Serif" font-size="10.00"> </text>
<polyline fill="none" stroke="#bfbfbf" points="330.5,-1431.5 359.5,-1431.5 "/>
<text text-anchor="middle" x="345" y="-1419.5" font-family="Helvetica,sans-Serif" font-size="10.00"> </text>
</g>
<!-- Node11&#45;&gt;Node9 -->
<g id="edge10" class="edge"><title>Node11&#45;&gt;Node9</title>
<path fill="none" stroke="#404040" d="M337.229,-1412.4C334.108,-1401.31 330.453,-1388.33 327.064,-1376.3"/>
<polygon fill="none" stroke="#404040" points="327.045,-1376.23 321.569,-1371.54 323.793,-1364.68 329.269,-1369.37 327.045,-1376.23"/>
<text text-anchor="middle" x="360.5" y="-1386" font-family="Helvetica,sans-Serif" font-size="10.00"> +elements</text>
</g>
<!-- Node12&#45;&gt;Node3 -->
<g id="edge11" class="edge"><title>Node12&#45;&gt;Node3</title>
<path fill="none" stroke="orange" d="M211,-592.357C211,-579.756 211,-567.056 211,-554.528"/>
<polygon fill="orange" stroke="orange" points="207.5,-592.436 211,-602.436 214.5,-592.436 207.5,-592.436"/>
<text text-anchor="middle" x="262" y="-576" font-family="Helvetica,sans-Serif" font-size="10.00"> &lt; Core::Transform &gt;</text>
</g>
<!-- Node13&#45;&gt;Node12 -->
<g id="edge13" class="edge"><title>Node13&#45;&gt;Node12</title>
<path fill="none" stroke="#404040" d="M222.843,-1026.24C221.52,-995.718 219.745,-954.753 217.972,-913.844"/>
<polygon fill="none" stroke="#404040" points="217.967,-913.73 213.711,-907.909 217.447,-901.742 221.703,-907.563 217.967,-913.73"/>
<text text-anchor="middle" x="255" y="-923" font-family="Helvetica,sans-Serif" font-size="10.00"> #m_keyframe</text>
</g>
<!-- Node14 -->
<g id="node14" class="node"><title>Node14</title>
<polygon fill="white" stroke="#bfbfbf" points="112,-1307.5 112,-1364.5 160,-1364.5 160,-1307.5 112,-1307.5"/>
<text text-anchor="middle" x="136" y="-1352.5" font-family="Helvetica,sans-Serif" font-size="10.00">FRAME</text>
<polyline fill="none" stroke="#bfbfbf" points="112,-1345.5 160,-1345.5 "/>
<text text-anchor="middle" x="136" y="-1333.5" font-family="Helvetica,sans-Serif" font-size="10.00"> </text>
<polyline fill="none" stroke="#bfbfbf" points="112,-1326.5 160,-1326.5 "/>
<text text-anchor="middle" x="136" y="-1314.5" font-family="Helvetica,sans-Serif" font-size="10.00"> </text>
</g>
<!-- Node14&#45;&gt;Node13 -->
<g id="edge14" class="edge"><title>Node14&#45;&gt;Node13</title>
<path fill="none" stroke="#404040" d="M132.223,-1307.26C130.033,-1284.24 129.071,-1250.87 137,-1223 145.606,-1192.75 162.344,-1162.51 178.933,-1137.53"/>
<polygon fill="none" stroke="#404040" points="178.999,-1137.44 179.074,-1130.22 185.759,-1127.52 185.684,-1134.73 178.999,-1137.44"/>
<text text-anchor="middle" x="165.5" y="-1253.5" font-family="Helvetica,sans-Serif" font-size="10.00"> +elements</text>
</g>
<!-- Node15 -->
<g id="node15" class="node"><title>Node15</title>
<g id="a_node15"><a xlink:title="STL class. ">
<polygon fill="white" stroke="#bfbfbf" points="325.5,-133 325.5,-190 390.5,-190 390.5,-133 325.5,-133"/>
<text text-anchor="middle" x="358" y="-178" font-family="Helvetica,sans-Serif" font-size="10.00">std::string</text>
<polyline fill="none" stroke="#bfbfbf" points="325.5,-171 390.5,-171 "/>
<text text-anchor="middle" x="358" y="-159" font-family="Helvetica,sans-Serif" font-size="10.00"> </text>
<polyline fill="none" stroke="#bfbfbf" points="325.5,-152 390.5,-152 "/>
<text text-anchor="middle" x="358" y="-140" font-family="Helvetica,sans-Serif" font-size="10.00"> </text>
</a>
</g>
</g>
<!-- Node15&#45;&gt;Node1 -->
<g id="edge17" class="edge"><title>Node15&#45;&gt;Node1</title>
<path fill="none" stroke="#404040" d="M345.7,-132.824C337.433,-114.225 326.421,-89.4466 317.277,-68.8742"/>
<polygon fill="none" stroke="#404040" points="317.156,-68.6015 311.064,-64.7432 312.283,-57.6358 318.375,-61.4941 317.156,-68.6015"/>
<text text-anchor="middle" x="351.5" y="-79" font-family="Helvetica,sans-Serif" font-size="10.00"> +m_name</text>
</g>
<!-- Node16 -->
<g id="node16" class="node"><title>Node16</title>
<g id="a_node16"><a xlink:title="STL class. ">
<polygon fill="white" stroke="#bfbfbf" points="312.5,-371 312.5,-439 415.5,-439 415.5,-371 312.5,-371"/>
<text text-anchor="start" x="320.5" y="-427" font-family="Helvetica,sans-Serif" font-size="10.00">std::basic_string&lt;</text>
<text text-anchor="middle" x="364" y="-416" font-family="Helvetica,sans-Serif" font-size="10.00"> char &gt;</text>
<polyline fill="none" stroke="#bfbfbf" points="312.5,-409 415.5,-409 "/>
<text text-anchor="middle" x="364" y="-397" font-family="Helvetica,sans-Serif" font-size="10.00"> </text>
<polyline fill="none" stroke="#bfbfbf" points="312.5,-390 415.5,-390 "/>
<text text-anchor="middle" x="364" y="-378" font-family="Helvetica,sans-Serif" font-size="10.00"> </text>
</a>
</g>
</g>
<!-- Node16&#45;&gt;Node15 -->
<g id="edge18" class="edge"><title>Node16&#45;&gt;Node15</title>
<path fill="none" stroke="midnightblue" d="M362.929,-360.874C361.702,-311.516 359.73,-232.12 358.691,-190.311"/>
<polygon fill="none" stroke="midnightblue" points="359.431,-361.017 363.178,-370.927 366.429,-360.843 359.431,-361.017"/>
</g>
</g>
</svg>
