<?xml version="1.0" encoding="UTF-8" standalone="no"?>
<!DOCTYPE svg PUBLIC "-//W3C//DTD SVG 1.1//EN"
 "http://www.w3.org/Graphics/SVG/1.1/DTD/svg11.dtd">
<!-- Generated by graphviz version 2.38.0 (20140413.2041)
 -->
<!-- Title: Ra::Engine::ItemEntry::isValid Pages: 1 -->
<svg width="614pt" height="315pt"
 viewBox="0.00 0.00 614.00 315.31" xmlns="http://www.w3.org/2000/svg" xmlns:xlink="http://www.w3.org/1999/xlink">
<g id="graph0" class="graph" transform="scale(1 1) rotate(0) translate(4 311.314)">
<title>Ra::Engine::ItemEntry::isValid</title>
<polygon fill="white" stroke="none" points="-4,4 -4,-311.314 610,-311.314 610,4 -4,4"/>
<!-- Node1 -->
<g id="node1" class="node"><title>Node1</title>
<polygon fill="#bfbfbf" stroke="black" points="0,-147.5 0,-177.5 119,-177.5 119,-147.5 0,-147.5"/>
<text text-anchor="start" x="8" y="-165.5" font-family="Helvetica,sans-Serif" font-size="10.00">Ra::Engine::ItemEntry</text>
<text text-anchor="middle" x="59.5" y="-154.5" font-family="Helvetica,sans-Serif" font-size="10.00">::isValid</text>
</g>
<!-- Node2 -->
<g id="node2" class="node"><title>Node2</title>
<g id="a_node2"><a xlink:href="structRa_1_1Engine_1_1ItemEntry.html#a1fb9fdd74413a1fa5878f53c1cfcf8fd" target="_top" xlink:title="Debug checks. ">
<polygon fill="white" stroke="black" points="335,-134.5 335,-164.5 454,-164.5 454,-134.5 335,-134.5"/>
<text text-anchor="start" x="343" y="-152.5" font-family="Helvetica,sans-Serif" font-size="10.00">Ra::Engine::ItemEntry</text>
<text text-anchor="middle" x="394.5" y="-141.5" font-family="Helvetica,sans-Serif" font-size="10.00">::checkConsistency</text>
</a>
</g>
</g>
<!-- Node1&#45;&gt;Node2 -->
<g id="edge1" class="edge"><title>Node1&#45;&gt;Node2</title>
<path fill="none" stroke="midnightblue" d="M66.76,-177.865C78.9672,-205.486 108.863,-262.765 155,-285.5 212.408,-313.789 242.285,-315.154 299,-285.5 343.832,-262.059 371.679,-206.592 384.71,-174.198"/>
<polygon fill="midnightblue" stroke="midnightblue" points="388.094,-175.15 388.423,-164.561 381.562,-172.634 388.094,-175.15"/>
</g>
<!-- Node4 -->
<g id="node4" class="node"><title>Node4</title>
<g id="a_node4"><a xlink:href="classRa_1_1Engine_1_1RadiumEngine.html#a79f6626ce468268791bc5bdfe17b5586" target="_top" xlink:title="Get the entity manager attached to the engine. ">
<polygon fill="white" stroke="black" points="156.5,-245.5 156.5,-275.5 297.5,-275.5 297.5,-245.5 156.5,-245.5"/>
<text text-anchor="start" x="164.5" y="-263.5" font-family="Helvetica,sans-Serif" font-size="10.00">Ra::Engine::RadiumEngine</text>
<text text-anchor="middle" x="227" y="-252.5" font-family="Helvetica,sans-Serif" font-size="10.00">::getEntityManager</text>
</a>
</g>
</g>
<!-- Node1&#45;&gt;Node4 -->
<g id="edge3" class="edge"><title>Node1&#45;&gt;Node4</title>
<path fill="none" stroke="midnightblue" d="M76.3652,-177.711C94.2347,-194.144 124.747,-220.163 155,-236.5 158.284,-238.274 161.724,-239.951 165.244,-241.532"/>
<polygon fill="midnightblue" stroke="midnightblue" points="164.117,-244.854 174.692,-245.489 166.821,-238.398 164.117,-244.854"/>
</g>
<!-- Node5 -->
<g id="node5" class="node"><title>Node5</title>
<g id="a_node5"><a xlink:href="classRa_1_1Engine_1_1EntityManager.html#a5115cccae6aaef614ad4bd08e64d8185" target="_top" xlink:title="Check wether an entity with a given name exists or not. ">
<polygon fill="white" stroke="black" points="156,-196.5 156,-226.5 298,-226.5 298,-196.5 156,-196.5"/>
<text text-anchor="start" x="164" y="-214.5" font-family="Helvetica,sans-Serif" font-size="10.00">Ra::Engine::EntityManager</text>
<text text-anchor="middle" x="227" y="-203.5" font-family="Helvetica,sans-Serif" font-size="10.00">::entityExists</text>
</a>
</g>
</g>
<!-- Node1&#45;&gt;Node5 -->
<g id="edge4" class="edge"><title>Node1&#45;&gt;Node5</title>
<path fill="none" stroke="midnightblue" d="M111.506,-177.601C128.575,-182.655 147.768,-188.338 165.491,-193.585"/>
<polygon fill="midnightblue" stroke="midnightblue" points="164.58,-196.965 175.163,-196.448 166.568,-190.253 164.58,-196.965"/>
</g>
<!-- Node6 -->
<g id="node6" class="node"><title>Node6</title>
<g id="a_node6"><a xlink:href="classRa_1_1Engine_1_1Entity.html#aaf256bea44bbc5bff6aa504aca05ca35" target="_top" xlink:title="Ra::Engine::Entity\l::getName">
<polygon fill="white" stroke="black" points="177,-147.5 177,-177.5 277,-177.5 277,-147.5 177,-147.5"/>
<text text-anchor="start" x="185" y="-165.5" font-family="Helvetica,sans-Serif" font-size="10.00">Ra::Engine::Entity</text>
<text text-anchor="middle" x="227" y="-154.5" font-family="Helvetica,sans-Serif" font-size="10.00">::getName</text>
</a>
</g>
</g>
<!-- Node1&#45;&gt;Node6 -->
<g id="edge5" class="edge"><title>Node1&#45;&gt;Node6</title>
<path fill="none" stroke="midnightblue" d="M119.315,-162.5C134.639,-162.5 151.162,-162.5 166.52,-162.5"/>
<polygon fill="midnightblue" stroke="midnightblue" points="166.938,-166 176.938,-162.5 166.938,-159 166.938,-166"/>
</g>
<!-- Node7 -->
<g id="node7" class="node"><title>Node7</title>
<g id="a_node7"><a xlink:href="structRa_1_1Engine_1_1ItemEntry.html#a898047549069e5b64d3a9a65c058af56" target="_top" xlink:title="Returns true if the item represents a render object. ">
<polygon fill="white" stroke="black" points="167.5,-98.5 167.5,-128.5 286.5,-128.5 286.5,-98.5 167.5,-98.5"/>
<text text-anchor="start" x="175.5" y="-116.5" font-family="Helvetica,sans-Serif" font-size="10.00">Ra::Engine::ItemEntry</text>
<text text-anchor="middle" x="227" y="-105.5" font-family="Helvetica,sans-Serif" font-size="10.00">::isRoNode</text>
</a>
</g>
</g>
<!-- Node1&#45;&gt;Node7 -->
<g id="edge6" class="edge"><title>Node1&#45;&gt;Node7</title>
<path fill="none" stroke="midnightblue" d="M111.506,-147.399C128.575,-142.345 147.768,-136.662 165.491,-131.415"/>
<polygon fill="midnightblue" stroke="midnightblue" points="166.568,-134.747 175.163,-128.552 164.58,-128.035 166.568,-134.747"/>
</g>
<!-- Node9 -->
<g id="node9" class="node"><title>Node9</title>
<g id="a_node9"><a xlink:href="classRa_1_1Engine_1_1RadiumEngine.html#a58b27bc600ea769f68b0e2938abc7862" target="_top" xlink:title="Manager getters. ">
<polygon fill="white" stroke="black" points="155,-49.5 155,-79.5 299,-79.5 299,-49.5 155,-49.5"/>
<text text-anchor="start" x="163" y="-67.5" font-family="Helvetica,sans-Serif" font-size="10.00">Ra::Engine::RadiumEngine</text>
<text text-anchor="middle" x="227" y="-56.5" font-family="Helvetica,sans-Serif" font-size="10.00">::getRenderObjectManager</text>
</a>
</g>
</g>
<!-- Node1&#45;&gt;Node9 -->
<g id="edge9" class="edge"><title>Node1&#45;&gt;Node9</title>
<path fill="none" stroke="midnightblue" d="M76.7699,-147.286C94.75,-131.135 125.133,-105.745 155,-89.5 158.916,-87.3702 163.049,-85.3642 167.271,-83.4867"/>
<polygon fill="midnightblue" stroke="midnightblue" points="168.732,-86.6696 176.608,-79.5837 166.032,-80.2111 168.732,-86.6696"/>
</g>
<!-- Node10 -->
<g id="node10" class="node"><title>Node10</title>
<g id="a_node10"><a xlink:href="classRa_1_1Engine_1_1RenderObjectManager.html#a088feae4339349a81b7b6635b38aead1" target="_top" xlink:title="Returns true if the index points to a valid render object. ">
<polygon fill="white" stroke="black" points="158.5,-0.5 158.5,-30.5 295.5,-30.5 295.5,-0.5 158.5,-0.5"/>
<text text-anchor="start" x="166.5" y="-18.5" font-family="Helvetica,sans-Serif" font-size="10.00">Ra::Engine::RenderObject</text>
<text text-anchor="middle" x="227" y="-7.5" font-family="Helvetica,sans-Serif" font-size="10.00">Manager::exists</text>
</a>
</g>
</g>
<!-- Node1&#45;&gt;Node10 -->
<g id="edge10" class="edge"><title>Node1&#45;&gt;Node10</title>
<path fill="none" stroke="midnightblue" d="M68.2442,-147.309C82.159,-121.48 113.821,-68.9499 155,-39.5 157.084,-38.0099 159.267,-36.607 161.522,-35.2867"/>
<polygon fill="midnightblue" stroke="midnightblue" points="163.269,-38.3228 170.516,-30.5944 160.032,-32.1165 163.269,-38.3228"/>
</g>
<!-- Node3 -->
<g id="node3" class="node"><title>Node3</title>
<g id="a_node3"><a xlink:href="classRa_1_1Core_1_1Utils_1_1Index.html#ac7d6c68387fe147f7a13668ac30a4533" target="_top" xlink:title="INVALID. ">
<polygon fill="white" stroke="black" points="490,-134.5 490,-164.5 606,-164.5 606,-134.5 490,-134.5"/>
<text text-anchor="start" x="498" y="-152.5" font-family="Helvetica,sans-Serif" font-size="10.00">Ra::Core::Utils::Index</text>
<text text-anchor="middle" x="548" y="-141.5" font-family="Helvetica,sans-Serif" font-size="10.00">::isInvalid</text>
</a>
</g>
</g>
<!-- Node2&#45;&gt;Node3 -->
<g id="edge2" class="edge"><title>Node2&#45;&gt;Node3</title>
<path fill="none" stroke="midnightblue" d="M454.074,-149.5C462.361,-149.5 470.938,-149.5 479.379,-149.5"/>
<polygon fill="midnightblue" stroke="midnightblue" points="479.579,-153 489.579,-149.5 479.579,-146 479.579,-153"/>
</g>
<!-- Node7&#45;&gt;Node2 -->
<g id="edge7" class="edge"><title>Node7&#45;&gt;Node2</title>
<path fill="none" stroke="midnightblue" d="M286.815,-126.294C299.131,-128.973 312.222,-131.82 324.859,-134.569"/>
<polygon fill="midnightblue" stroke="midnightblue" points="324.359,-138.042 334.874,-136.748 325.847,-131.202 324.359,-138.042"/>
</g>
<!-- Node8 -->
<g id="node8" class="node"><title>Node8</title>
<g id="a_node8"><a xlink:href="classRa_1_1Core_1_1Utils_1_1Index.html#ac7a1b710e6b95834a562c27e2f6c0f4b" target="_top" xlink:title="DESTRUCTOR: Must not be defined, we need it trivial to be constexpr. ">
<polygon fill="white" stroke="black" points="336.5,-61.5 336.5,-91.5 452.5,-91.5 452.5,-61.5 336.5,-61.5"/>
<text text-anchor="start" x="344.5" y="-79.5" font-family="Helvetica,sans-Serif" font-size="10.00">Ra::Core::Utils::Index</text>
<text text-anchor="middle" x="394.5" y="-68.5" font-family="Helvetica,sans-Serif" font-size="10.00">::isValid</text>
</a>
</g>
</g>
<!-- Node7&#45;&gt;Node8 -->
<g id="edge8" class="edge"><title>Node7&#45;&gt;Node8</title>
<path fill="none" stroke="midnightblue" d="M286.815,-100.351C299.623,-97.4875 313.269,-94.4368 326.372,-91.5074"/>
<polygon fill="midnightblue" stroke="midnightblue" points="327.268,-94.8936 336.264,-89.296 325.741,-88.0622 327.268,-94.8936"/>
</g>
<!-- Node10&#45;&gt;Node8 -->
<g id="edge11" class="edge"><title>Node10&#45;&gt;Node8</title>
<path fill="none" stroke="midnightblue" d="M273.563,-30.5463C282.043,-33.4473 290.81,-36.5142 299,-39.5 314.48,-45.1432 331.261,-51.6009 346.326,-57.5249"/>
<polygon fill="midnightblue" stroke="midnightblue" points="345.361,-60.9069 355.947,-61.3268 347.933,-54.3967 345.361,-60.9069"/>
</g>
</g>
</svg>
