<?xml version="1.0" encoding="UTF-8" standalone="no"?>
<!DOCTYPE svg PUBLIC "-//W3C//DTD SVG 1.1//EN"
 "http://www.w3.org/Graphics/SVG/1.1/DTD/svg11.dtd">
<!-- Generated by graphviz version 2.38.0 (20140413.2041)
 -->
<!-- Title: Ra::Engine::ItemEntry Pages: 1 -->
<svg width="666pt" height="1416pt"
 viewBox="0.00 0.00 665.50 1416.00" xmlns="http://www.w3.org/2000/svg" xmlns:xlink="http://www.w3.org/1999/xlink">
<g id="graph0" class="graph" transform="scale(1 1) rotate(0) translate(4 1412)">
<title>Ra::Engine::ItemEntry</title>
<polygon fill="white" stroke="none" points="-4,4 -4,-1412 661.5,-1412 661.5,4 -4,4"/>
<!-- Node1 -->
<g id="node1" class="node"><title>Node1</title>
<polygon fill="#bfbfbf" stroke="black" points="60.5,-0.5 60.5,-145.5 185.5,-145.5 185.5,-0.5 60.5,-0.5"/>
<text text-anchor="middle" x="123" y="-133.5" font-family="Helvetica,sans-Serif" font-size="10.00">Ra::Engine::ItemEntry</text>
<polyline fill="none" stroke="black" points="60.5,-126.5 185.5,-126.5 "/>
<text text-anchor="middle" x="123" y="-114.5" font-family="Helvetica,sans-Serif" font-size="10.00"> </text>
<polyline fill="none" stroke="black" points="60.5,-107.5 185.5,-107.5 "/>
<text text-anchor="start" x="68.5" y="-95.5" font-family="Helvetica,sans-Serif" font-size="10.00">+ ItemEntry()</text>
<text text-anchor="start" x="68.5" y="-84.5" font-family="Helvetica,sans-Serif" font-size="10.00">+ ItemEntry()</text>
<text text-anchor="start" x="68.5" y="-73.5" font-family="Helvetica,sans-Serif" font-size="10.00">+ operator==()</text>
<text text-anchor="start" x="68.5" y="-62.5" font-family="Helvetica,sans-Serif" font-size="10.00">+ isValid()</text>
<text text-anchor="start" x="68.5" y="-51.5" font-family="Helvetica,sans-Serif" font-size="10.00">+ isSelectable()</text>
<text text-anchor="start" x="68.5" y="-40.5" font-family="Helvetica,sans-Serif" font-size="10.00">+ isEntityNode()</text>
<text text-anchor="start" x="68.5" y="-29.5" font-family="Helvetica,sans-Serif" font-size="10.00">+ isComponentNode()</text>
<text text-anchor="start" x="68.5" y="-18.5" font-family="Helvetica,sans-Serif" font-size="10.00">+ isRoNode()</text>
<text text-anchor="start" x="68.5" y="-7.5" font-family="Helvetica,sans-Serif" font-size="10.00">+ checkConsistency()</text>
</g>
<!-- Node2 -->
<g id="node2" class="node"><title>Node2</title>
<g id="a_node2"><a xlink:href="classRa_1_1Engine_1_1Component.html" target="_top" xlink:title="A component is an element that can be updated by a system. ">
<polygon fill="white" stroke="black" points="195.5,-193.5 195.5,-415.5 356.5,-415.5 356.5,-193.5 195.5,-193.5"/>
<text text-anchor="middle" x="276" y="-403.5" font-family="Helvetica,sans-Serif" font-size="10.00">Ra::Engine::Component</text>
<polyline fill="none" stroke="black" points="195.5,-396.5 356.5,-396.5 "/>
<text text-anchor="middle" x="276" y="-384.5" font-family="Helvetica,sans-Serif" font-size="10.00"> </text>
<polyline fill="none" stroke="black" points="195.5,-377.5 356.5,-377.5 "/>
<text text-anchor="start" x="203.5" y="-365.5" font-family="Helvetica,sans-Serif" font-size="10.00">+ Component()</text>
<text text-anchor="start" x="203.5" y="-354.5" font-family="Helvetica,sans-Serif" font-size="10.00">+ ~Component()</text>
<text text-anchor="start" x="203.5" y="-343.5" font-family="Helvetica,sans-Serif" font-size="10.00">+ initialize()</text>
<text text-anchor="start" x="203.5" y="-332.5" font-family="Helvetica,sans-Serif" font-size="10.00">+ setEntity()</text>
<text text-anchor="start" x="203.5" y="-321.5" font-family="Helvetica,sans-Serif" font-size="10.00">+ getEntity()</text>
<text text-anchor="start" x="203.5" y="-310.5" font-family="Helvetica,sans-Serif" font-size="10.00">+ getName()</text>
<text text-anchor="start" x="203.5" y="-299.5" font-family="Helvetica,sans-Serif" font-size="10.00">+ setSystem()</text>
<text text-anchor="start" x="203.5" y="-288.5" font-family="Helvetica,sans-Serif" font-size="10.00">+ getSystem()</text>
<text text-anchor="start" x="203.5" y="-277.5" font-family="Helvetica,sans-Serif" font-size="10.00">+ addRenderObject()</text>
<text text-anchor="start" x="203.5" y="-266.5" font-family="Helvetica,sans-Serif" font-size="10.00">+ removeRenderObject()</text>
<text text-anchor="start" x="203.5" y="-255.5" font-family="Helvetica,sans-Serif" font-size="10.00">+ rayCastQuery()</text>
<text text-anchor="start" x="203.5" y="-244.5" font-family="Helvetica,sans-Serif" font-size="10.00">+ canEdit()</text>
<text text-anchor="start" x="203.5" y="-233.5" font-family="Helvetica,sans-Serif" font-size="10.00">+ getTransform()</text>
<text text-anchor="start" x="203.5" y="-222.5" font-family="Helvetica,sans-Serif" font-size="10.00">+ setTransform()</text>
<text text-anchor="start" x="203.5" y="-211.5" font-family="Helvetica,sans-Serif" font-size="10.00">+ notifyRenderObjectExpired()</text>
<text text-anchor="start" x="203.5" y="-200.5" font-family="Helvetica,sans-Serif" font-size="10.00"># getRoMgr()</text>
</a>
</g>
</g>
<!-- Node2&#45;&gt;Node1 -->
<g id="edge1" class="edge"><title>Node2&#45;&gt;Node1</title>
<path fill="none" stroke="#404040" d="M202.637,-193.455C194.189,-180.783 185.69,-168.034 177.552,-155.828"/>
<polygon fill="none" stroke="#404040" points="177.468,-155.701 170.811,-152.928 170.811,-145.717 177.468,-148.49 177.468,-155.701"/>
<text text-anchor="middle" x="227" y="-167" font-family="Helvetica,sans-Serif" font-size="10.00"> +m_component</text>
</g>
<!-- Node3 -->
<g id="node3" class="node"><title>Node3</title>
<polygon fill="white" stroke="#bfbfbf" points="213.5,-772 213.5,-851 324.5,-851 324.5,-772 213.5,-772"/>
<text text-anchor="start" x="221.5" y="-839" font-family="Helvetica,sans-Serif" font-size="10.00">std::vector&lt; Core::</text>
<text text-anchor="start" x="221.5" y="-828" font-family="Helvetica,sans-Serif" font-size="10.00">Utils::Ra::Core::Utils</text>
<text text-anchor="middle" x="269" y="-817" font-family="Helvetica,sans-Serif" font-size="10.00">::Index &gt;</text>
<polyline fill="none" stroke="#bfbfbf" points="213.5,-810 324.5,-810 "/>
<text text-anchor="middle" x="269" y="-798" font-family="Helvetica,sans-Serif" font-size="10.00"> </text>
<polyline fill="none" stroke="#bfbfbf" points="213.5,-791 324.5,-791 "/>
<text text-anchor="middle" x="269" y="-779" font-family="Helvetica,sans-Serif" font-size="10.00"> </text>
</g>
<!-- Node3&#45;&gt;Node2 -->
<g id="edge2" class="edge"><title>Node3&#45;&gt;Node2</title>
<path fill="none" stroke="#404040" d="M269.538,-771.712C270.545,-699.066 272.753,-539.726 274.307,-427.628"/>
<polygon fill="none" stroke="#404040" points="274.308,-427.568 270.391,-421.513 274.474,-415.569 278.391,-421.624 274.308,-427.568"/>
<text text-anchor="middle" x="321" y="-583" font-family="Helvetica,sans-Serif" font-size="10.00"> +m_renderObjects</text>
</g>
<!-- Node4 -->
<g id="node4" class="node"><title>Node4</title>
<polygon fill="white" stroke="#bfbfbf" points="178,-1091.5 178,-1148.5 220,-1148.5 220,-1091.5 178,-1091.5"/>
<text text-anchor="middle" x="199" y="-1136.5" font-family="Helvetica,sans-Serif" font-size="10.00">Index</text>
<polyline fill="none" stroke="#bfbfbf" points="178,-1129.5 220,-1129.5 "/>
<text text-anchor="middle" x="199" y="-1117.5" font-family="Helvetica,sans-Serif" font-size="10.00"> </text>
<polyline fill="none" stroke="#bfbfbf" points="178,-1110.5 220,-1110.5 "/>
<text text-anchor="middle" x="199" y="-1098.5" font-family="Helvetica,sans-Serif" font-size="10.00"> </text>
</g>
<!-- Node4&#45;&gt;Node3 -->
<g id="edge3" class="edge"><title>Node4&#45;&gt;Node3</title>
<path fill="none" stroke="#404040" d="M192.798,-1091.22C184.117,-1046.24 172.307,-955.523 200,-886 203.592,-876.983 208.865,-868.424 214.922,-860.548"/>
<polygon fill="none" stroke="#404040" points="214.955,-860.509 215.726,-853.339 222.64,-851.293 221.869,-858.463 214.955,-860.509"/>
<text text-anchor="middle" x="228.5" y="-900" font-family="Helvetica,sans-Serif" font-size="10.00"> +elements</text>
</g>
<!-- Node5 -->
<g id="node5" class="node"><title>Node5</title>
<g id="a_node5"><a xlink:title="STL class. ">
<polygon fill="white" stroke="#bfbfbf" points="292.5,-1091.5 292.5,-1148.5 387.5,-1148.5 387.5,-1091.5 292.5,-1091.5"/>
<text text-anchor="middle" x="340" y="-1136.5" font-family="Helvetica,sans-Serif" font-size="10.00">std::vector&lt; T &gt;</text>
<polyline fill="none" stroke="#bfbfbf" points="292.5,-1129.5 387.5,-1129.5 "/>
<text text-anchor="middle" x="340" y="-1117.5" font-family="Helvetica,sans-Serif" font-size="10.00"> </text>
<polyline fill="none" stroke="#bfbfbf" points="292.5,-1110.5 387.5,-1110.5 "/>
<text text-anchor="middle" x="340" y="-1098.5" font-family="Helvetica,sans-Serif" font-size="10.00"> </text>
</a>
</g>
</g>
<!-- Node5&#45;&gt;Node3 -->
<g id="edge4" class="edge"><title>Node5&#45;&gt;Node3</title>
<path fill="none" stroke="orange" d="M326.508,-1081.72C312.661,-1041.95 291.556,-976.841 280,-919 275.557,-896.762 272.851,-871.532 271.235,-851.213"/>
<polygon fill="orange" stroke="orange" points="323.244,-1082.99 329.861,-1091.27 329.849,-1080.67 323.244,-1082.99"/>
<text text-anchor="start" x="280" y="-905.5" font-family="Helvetica,sans-Serif" font-size="10.00"> &lt; Core::Utils::Ra::</text>
<text text-anchor="middle" x="326.5" y="-894.5" font-family="Helvetica,sans-Serif" font-size="10.00">Core::Utils::Index &gt;</text>
</g>
<!-- Node8 -->
<g id="node8" class="node"><title>Node8</title>
<polygon fill="white" stroke="#bfbfbf" points="362,-772 362,-851 536,-851 536,-772 362,-772"/>
<text text-anchor="start" x="370" y="-839" font-family="Helvetica,sans-Serif" font-size="10.00">std::vector&lt; std::pair</text>
<text text-anchor="start" x="370" y="-828" font-family="Helvetica,sans-Serif" font-size="10.00">&lt; const Ra::Engine::Entity</text>
<text text-anchor="middle" x="449" y="-817" font-family="Helvetica,sans-Serif" font-size="10.00"> *, Ra::Engine::Component * &gt; &gt;</text>
<polyline fill="none" stroke="#bfbfbf" points="362,-810 536,-810 "/>
<text text-anchor="middle" x="449" y="-798" font-family="Helvetica,sans-Serif" font-size="10.00"> </text>
<polyline fill="none" stroke="#bfbfbf" points="362,-791 536,-791 "/>
<text text-anchor="middle" x="449" y="-779" font-family="Helvetica,sans-Serif" font-size="10.00"> </text>
</g>
<!-- Node5&#45;&gt;Node8 -->
<g id="edge9" class="edge"><title>Node5&#45;&gt;Node8</title>
<path fill="none" stroke="orange" d="M344.491,-1081.2C351.133,-1033.85 366.151,-951.031 396,-886 401.513,-873.99 409.114,-861.948 416.839,-851.188"/>
<polygon fill="orange" stroke="orange" points="340.995,-1080.94 343.124,-1091.32 347.932,-1081.87 340.995,-1080.94"/>
<text text-anchor="start" x="396" y="-911" font-family="Helvetica,sans-Serif" font-size="10.00"> &lt; std::pair&lt; const</text>
<text text-anchor="start" x="396" y="-900" font-family="Helvetica,sans-Serif" font-size="10.00"> Ra::Engine::Entity</text>
<text text-anchor="middle" x="475" y="-889" font-family="Helvetica,sans-Serif" font-size="10.00"> *, Ra::Engine::Component * &gt; &gt;</text>
</g>
<!-- Node6 -->
<g id="node6" class="node"><title>Node6</title>
<polygon fill="white" stroke="#bfbfbf" points="325.5,-1350.5 325.5,-1407.5 354.5,-1407.5 354.5,-1350.5 325.5,-1350.5"/>
<text text-anchor="middle" x="340" y="-1395.5" font-family="Helvetica,sans-Serif" font-size="10.00">T</text>
<polyline fill="none" stroke="#bfbfbf" points="325.5,-1388.5 354.5,-1388.5 "/>
<text text-anchor="middle" x="340" y="-1376.5" font-family="Helvetica,sans-Serif" font-size="10.00"> </text>
<polyline fill="none" stroke="#bfbfbf" points="325.5,-1369.5 354.5,-1369.5 "/>
<text text-anchor="middle" x="340" y="-1357.5" font-family="Helvetica,sans-Serif" font-size="10.00"> </text>
</g>
<!-- Node6&#45;&gt;Node5 -->
<g id="edge5" class="edge"><title>Node6&#45;&gt;Node5</title>
<path fill="none" stroke="#404040" d="M340,-1350.5C340,-1304.92 340,-1213.55 340,-1160.88"/>
<polygon fill="none" stroke="#404040" points="340,-1160.69 336,-1154.69 340,-1148.69 344,-1154.69 340,-1160.69"/>
<text text-anchor="middle" x="368.5" y="-1324" font-family="Helvetica,sans-Serif" font-size="10.00"> +elements</text>
</g>
<!-- Node7 -->
<g id="node7" class="node"><title>Node7</title>
<g id="a_node7"><a xlink:href="classRa_1_1Engine_1_1System.html" target="_top" xlink:title="Systems are responsible of updating a specific subset of the components of each entity. ">
<polygon fill="white" stroke="black" points="381.5,-518.5 381.5,-652.5 538.5,-652.5 538.5,-518.5 381.5,-518.5"/>
<text text-anchor="middle" x="460" y="-640.5" font-family="Helvetica,sans-Serif" font-size="10.00">Ra::Engine::System</text>
<polyline fill="none" stroke="black" points="381.5,-633.5 538.5,-633.5 "/>
<text text-anchor="middle" x="460" y="-621.5" font-family="Helvetica,sans-Serif" font-size="10.00"> </text>
<polyline fill="none" stroke="black" points="381.5,-614.5 538.5,-614.5 "/>
<text text-anchor="start" x="389.5" y="-602.5" font-family="Helvetica,sans-Serif" font-size="10.00">+ System()</text>
<text text-anchor="start" x="389.5" y="-591.5" font-family="Helvetica,sans-Serif" font-size="10.00">+ ~System()</text>
<text text-anchor="start" x="389.5" y="-580.5" font-family="Helvetica,sans-Serif" font-size="10.00">+ handleAssetLoading()</text>
<text text-anchor="start" x="389.5" y="-569.5" font-family="Helvetica,sans-Serif" font-size="10.00">+ generateTasks()</text>
<text text-anchor="start" x="389.5" y="-558.5" font-family="Helvetica,sans-Serif" font-size="10.00">+ getEntityComponents()</text>
<text text-anchor="start" x="389.5" y="-547.5" font-family="Helvetica,sans-Serif" font-size="10.00"># registerComponent()</text>
<text text-anchor="start" x="389.5" y="-536.5" font-family="Helvetica,sans-Serif" font-size="10.00"># unregisterComponent()</text>
<text text-anchor="start" x="389.5" y="-525.5" font-family="Helvetica,sans-Serif" font-size="10.00"># unregisterAllComponents()</text>
</a>
</g>
</g>
<!-- Node7&#45;&gt;Node2 -->
<g id="edge6" class="edge"><title>Node7&#45;&gt;Node2</title>
<path fill="none" stroke="#404040" d="M416.395,-518.381C398.127,-490.681 376.3,-457.586 355.364,-425.839"/>
<polygon fill="none" stroke="#404040" points="355.21,-425.606 348.567,-422.799 348.603,-415.588 355.246,-418.395 355.21,-425.606"/>
<text text-anchor="middle" x="399" y="-437" font-family="Helvetica,sans-Serif" font-size="10.00"> #m_system</text>
</g>
<!-- Node8&#45;&gt;Node7 -->
<g id="edge7" class="edge"><title>Node8&#45;&gt;Node7</title>
<path fill="none" stroke="#404040" d="M450.891,-771.993C452.337,-742.549 454.379,-700.971 456.163,-664.64"/>
<polygon fill="none" stroke="#404040" points="456.168,-664.531 452.467,-658.342 456.757,-652.545 460.458,-658.734 456.168,-664.531"/>
<text text-anchor="middle" x="496.5" y="-729" font-family="Helvetica,sans-Serif" font-size="10.00"> #m_components</text>
</g>
<!-- Node9 -->
<g id="node9" class="node"><title>Node9</title>
<polygon fill="white" stroke="#bfbfbf" points="513.5,-1080.5 513.5,-1159.5 638.5,-1159.5 638.5,-1080.5 513.5,-1080.5"/>
<text text-anchor="start" x="521.5" y="-1147.5" font-family="Helvetica,sans-Serif" font-size="10.00">pair&lt; const Ra::Engine</text>
<text text-anchor="start" x="521.5" y="-1136.5" font-family="Helvetica,sans-Serif" font-size="10.00">::Entity *, Ra::Engine</text>
<text text-anchor="middle" x="576" y="-1125.5" font-family="Helvetica,sans-Serif" font-size="10.00">::Component * &gt;</text>
<polyline fill="none" stroke="#bfbfbf" points="513.5,-1118.5 638.5,-1118.5 "/>
<text text-anchor="middle" x="576" y="-1106.5" font-family="Helvetica,sans-Serif" font-size="10.00"> </text>
<polyline fill="none" stroke="#bfbfbf" points="513.5,-1099.5 638.5,-1099.5 "/>
<text text-anchor="middle" x="576" y="-1087.5" font-family="Helvetica,sans-Serif" font-size="10.00"> </text>
</g>
<!-- Node9&#45;&gt;Node8 -->
<g id="edge8" class="edge"><title>Node9&#45;&gt;Node8</title>
<path fill="none" stroke="#404040" d="M581.758,-1080.14C586.989,-1031.31 589.257,-946.576 554,-886 548.185,-876.009 540.405,-867.046 531.698,-859.105"/>
<polygon fill="none" stroke="#404040" points="531.503,-858.94 524.338,-858.126 522.333,-851.2 529.498,-852.013 531.503,-858.94"/>
<text text-anchor="middle" x="596.5" y="-900" font-family="Helvetica,sans-Serif" font-size="10.00"> +elements</text>
</g>
<!-- Node10 -->
<g id="node10" class="node"><title>Node10</title>
<g id="a_node10"><a xlink:href="classRa_1_1Engine_1_1Entity.html" target="_top" xlink:title="An entity is an scene element. It ties together components with a transform. ">
<polygon fill="white" stroke="black" points="93,-463.5 93,-707.5 233,-707.5 233,-463.5 93,-463.5"/>
<text text-anchor="middle" x="163" y="-695.5" font-family="Helvetica,sans-Serif" font-size="10.00">Ra::Engine::Entity</text>
<polyline fill="none" stroke="black" points="93,-688.5 233,-688.5 "/>
<text text-anchor="middle" x="163" y="-676.5" font-family="Helvetica,sans-Serif" font-size="10.00"> </text>
<polyline fill="none" stroke="black" points="93,-669.5 233,-669.5 "/>
<text text-anchor="start" x="101" y="-657.5" font-family="Helvetica,sans-Serif" font-size="10.00">+ Entity()</text>
<text text-anchor="start" x="101" y="-646.5" font-family="Helvetica,sans-Serif" font-size="10.00">+ Entity()</text>
<text text-anchor="start" x="101" y="-635.5" font-family="Helvetica,sans-Serif" font-size="10.00">+ operator=()</text>
<text text-anchor="start" x="101" y="-624.5" font-family="Helvetica,sans-Serif" font-size="10.00">+ ~Entity()</text>
<text text-anchor="start" x="101" y="-613.5" font-family="Helvetica,sans-Serif" font-size="10.00">+ getName()</text>
<text text-anchor="start" x="101" y="-602.5" font-family="Helvetica,sans-Serif" font-size="10.00">+ rename()</text>
<text text-anchor="start" x="101" y="-591.5" font-family="Helvetica,sans-Serif" font-size="10.00">+ setTransform()</text>
<text text-anchor="start" x="101" y="-580.5" font-family="Helvetica,sans-Serif" font-size="10.00">+ setTransform()</text>
<text text-anchor="start" x="101" y="-569.5" font-family="Helvetica,sans-Serif" font-size="10.00">+ getTransform()</text>
<text text-anchor="start" x="101" y="-558.5" font-family="Helvetica,sans-Serif" font-size="10.00">+ getTransformAsMatrix()</text>
<text text-anchor="start" x="101" y="-547.5" font-family="Helvetica,sans-Serif" font-size="10.00">+ swapTransformBuffers()</text>
<text text-anchor="start" x="101" y="-536.5" font-family="Helvetica,sans-Serif" font-size="10.00">+ addComponent()</text>
<text text-anchor="start" x="101" y="-525.5" font-family="Helvetica,sans-Serif" font-size="10.00">+ removeComponent()</text>
<text text-anchor="start" x="101" y="-514.5" font-family="Helvetica,sans-Serif" font-size="10.00">+ getComponent()</text>
<text text-anchor="start" x="101" y="-503.5" font-family="Helvetica,sans-Serif" font-size="10.00">+ getComponent()</text>
<text text-anchor="start" x="101" y="-492.5" font-family="Helvetica,sans-Serif" font-size="10.00">+ getComponents()</text>
<text text-anchor="start" x="101" y="-481.5" font-family="Helvetica,sans-Serif" font-size="10.00">+ getNumComponents()</text>
<text text-anchor="start" x="101" y="-470.5" font-family="Helvetica,sans-Serif" font-size="10.00">+ rayCastQuery()</text>
</a>
</g>
</g>
<!-- Node10&#45;&gt;Node1 -->
<g id="edge17" class="edge"><title>Node10&#45;&gt;Node1</title>
<path fill="none" stroke="#404040" d="M138.38,-463.338C135.841,-447.469 133.608,-431.383 132,-416 122.828,-328.229 121.271,-227.138 121.579,-157.754"/>
<polygon fill="none" stroke="#404040" points="121.58,-157.608 117.617,-151.584 121.653,-145.609 125.617,-151.633 121.58,-157.608"/>
<text text-anchor="middle" x="159" y="-302" font-family="Helvetica,sans-Serif" font-size="10.00"> +m_entity</text>
</g>
<!-- Node10&#45;&gt;Node2 -->
<g id="edge10" class="edge"><title>Node10&#45;&gt;Node2</title>
<path fill="none" stroke="#404040" d="M190.441,-463.187C193.661,-453.199 197.178,-443.355 201,-434 202.012,-431.523 203.065,-429.036 204.154,-426.543"/>
<polygon fill="none" stroke="#404040" points="204.165,-426.518 203.014,-419.399 209.143,-415.599 210.294,-422.717 204.165,-426.518"/>
<text text-anchor="middle" x="228" y="-437" font-family="Helvetica,sans-Serif" font-size="10.00"> #m_entity</text>
</g>
<!-- Node11 -->
<g id="node11" class="node"><title>Node11</title>
<g id="a_node11"><a xlink:href="classRa_1_1Core_1_1Utils_1_1IndexedObject.html" target="_top" xlink:title="{Ra::Core::Utils::Indexed\lObject\n||+ IndexedObject()\l+ IndexedObject()\l+ ~IndexedObject()\l+ setIndex()\l+ getIndex()\l}">
<polygon fill="white" stroke="black" points="65,-755.5 65,-867.5 193,-867.5 193,-755.5 65,-755.5"/>
<text text-anchor="start" x="73" y="-855.5" font-family="Helvetica,sans-Serif" font-size="10.00">Ra::Core::Utils::Indexed</text>
<text text-anchor="middle" x="129" y="-844.5" font-family="Helvetica,sans-Serif" font-size="10.00">Object</text>
<polyline fill="none" stroke="black" points="65,-837.5 193,-837.5 "/>
<text text-anchor="middle" x="129" y="-825.5" font-family="Helvetica,sans-Serif" font-size="10.00"> </text>
<polyline fill="none" stroke="black" points="65,-818.5 193,-818.5 "/>
<text text-anchor="start" x="73" y="-806.5" font-family="Helvetica,sans-Serif" font-size="10.00">+ IndexedObject()</text>
<text text-anchor="start" x="73" y="-795.5" font-family="Helvetica,sans-Serif" font-size="10.00">+ IndexedObject()</text>
<text text-anchor="start" x="73" y="-784.5" font-family="Helvetica,sans-Serif" font-size="10.00">+ ~IndexedObject()</text>
<text text-anchor="start" x="73" y="-773.5" font-family="Helvetica,sans-Serif" font-size="10.00">+ setIndex()</text>
<text text-anchor="start" x="73" y="-762.5" font-family="Helvetica,sans-Serif" font-size="10.00">+ getIndex()</text>
</a>
</g>
</g>
<!-- Node11&#45;&gt;Node10 -->
<g id="edge11" class="edge"><title>Node11&#45;&gt;Node10</title>
<path fill="none" stroke="midnightblue" d="M138.91,-745.213C140.713,-733.331 142.646,-720.595 144.604,-707.696"/>
<polygon fill="none" stroke="midnightblue" points="135.401,-745.005 137.361,-755.417 142.322,-746.055 135.401,-745.005"/>
</g>
<!-- Node12 -->
<g id="node12" class="node"><title>Node12</title>
<g id="a_node12"><a xlink:href="classRa_1_1Core_1_1Utils_1_1Index.html" target="_top" xlink:title="{Ra::Core::Utils::Index\n||+ Index()\l+ Index()\l+ isValid()\l+ isInvalid()\l+ setInvalid()\l+ getValue()\l+ setValue()\l+ operator int()\l+ operator=()\l+ operator++()\l+ operator&#45;&#45;()\l+ operator+()\l+ operator+()\l+ operator&#45;()\l+ operator&#45;()\l+ operator==()\l+ operator==()\l+ operator!=()\l+ operator!=()\l+ operator\&lt;()\l+ operator\&lt;()\l+ operator\&lt;=()\l+ operator\&lt;=()\l+ operator\&gt;()\l+ operator\&gt;()\l+ operator\&gt;=()\l+ operator\&gt;=()\l+ Invalid()\l+ Max()\l}">
<polygon fill="white" stroke="black" points="0,-937.5 0,-1302.5 116,-1302.5 116,-937.5 0,-937.5"/>
<text text-anchor="middle" x="58" y="-1290.5" font-family="Helvetica,sans-Serif" font-size="10.00">Ra::Core::Utils::Index</text>
<polyline fill="none" stroke="black" points="0,-1283.5 116,-1283.5 "/>
<text text-anchor="middle" x="58" y="-1271.5" font-family="Helvetica,sans-Serif" font-size="10.00"> </text>
<polyline fill="none" stroke="black" points="0,-1264.5 116,-1264.5 "/>
<text text-anchor="start" x="8" y="-1252.5" font-family="Helvetica,sans-Serif" font-size="10.00">+ Index()</text>
<text text-anchor="start" x="8" y="-1241.5" font-family="Helvetica,sans-Serif" font-size="10.00">+ Index()</text>
<text text-anchor="start" x="8" y="-1230.5" font-family="Helvetica,sans-Serif" font-size="10.00">+ isValid()</text>
<text text-anchor="start" x="8" y="-1219.5" font-family="Helvetica,sans-Serif" font-size="10.00">+ isInvalid()</text>
<text text-anchor="start" x="8" y="-1208.5" font-family="Helvetica,sans-Serif" font-size="10.00">+ setInvalid()</text>
<text text-anchor="start" x="8" y="-1197.5" font-family="Helvetica,sans-Serif" font-size="10.00">+ getValue()</text>
<text text-anchor="start" x="8" y="-1186.5" font-family="Helvetica,sans-Serif" font-size="10.00">+ setValue()</text>
<text text-anchor="start" x="8" y="-1175.5" font-family="Helvetica,sans-Serif" font-size="10.00">+ operator int()</text>
<text text-anchor="start" x="8" y="-1164.5" font-family="Helvetica,sans-Serif" font-size="10.00">+ operator=()</text>
<text text-anchor="start" x="8" y="-1153.5" font-family="Helvetica,sans-Serif" font-size="10.00">+ operator++()</text>
<text text-anchor="start" x="8" y="-1142.5" font-family="Helvetica,sans-Serif" font-size="10.00">+ operator&#45;&#45;()</text>
<text text-anchor="start" x="8" y="-1131.5" font-family="Helvetica,sans-Serif" font-size="10.00">+ operator+()</text>
<text text-anchor="start" x="8" y="-1120.5" font-family="Helvetica,sans-Serif" font-size="10.00">+ operator+()</text>
<text text-anchor="start" x="8" y="-1109.5" font-family="Helvetica,sans-Serif" font-size="10.00">+ operator&#45;()</text>
<text text-anchor="start" x="8" y="-1098.5" font-family="Helvetica,sans-Serif" font-size="10.00">+ operator&#45;()</text>
<text text-anchor="start" x="8" y="-1087.5" font-family="Helvetica,sans-Serif" font-size="10.00">+ operator==()</text>
<text text-anchor="start" x="8" y="-1076.5" font-family="Helvetica,sans-Serif" font-size="10.00">+ operator==()</text>
<text text-anchor="start" x="8" y="-1065.5" font-family="Helvetica,sans-Serif" font-size="10.00">+ operator!=()</text>
<text text-anchor="start" x="8" y="-1054.5" font-family="Helvetica,sans-Serif" font-size="10.00">+ operator!=()</text>
<text text-anchor="start" x="8" y="-1043.5" font-family="Helvetica,sans-Serif" font-size="10.00">+ operator&lt;()</text>
<text text-anchor="start" x="8" y="-1032.5" font-family="Helvetica,sans-Serif" font-size="10.00">+ operator&lt;()</text>
<text text-anchor="start" x="8" y="-1021.5" font-family="Helvetica,sans-Serif" font-size="10.00">+ operator&lt;=()</text>
<text text-anchor="start" x="8" y="-1010.5" font-family="Helvetica,sans-Serif" font-size="10.00">+ operator&lt;=()</text>
<text text-anchor="start" x="8" y="-999.5" font-family="Helvetica,sans-Serif" font-size="10.00">+ operator&gt;()</text>
<text text-anchor="start" x="8" y="-988.5" font-family="Helvetica,sans-Serif" font-size="10.00">+ operator&gt;()</text>
<text text-anchor="start" x="8" y="-977.5" font-family="Helvetica,sans-Serif" font-size="10.00">+ operator&gt;=()</text>
<text text-anchor="start" x="8" y="-966.5" font-family="Helvetica,sans-Serif" font-size="10.00">+ operator&gt;=()</text>
<text text-anchor="start" x="8" y="-955.5" font-family="Helvetica,sans-Serif" font-size="10.00">+ Invalid()</text>
<text text-anchor="start" x="8" y="-944.5" font-family="Helvetica,sans-Serif" font-size="10.00">+ Max()</text>
</a>
</g>
</g>
<!-- Node12&#45;&gt;Node1 -->
<g id="edge16" class="edge"><title>Node12&#45;&gt;Node1</title>
<path fill="none" stroke="#404040" d="M22.4335,-937.312C16.9141,-896.419 13,-853.106 13,-812.5 13,-812.5 13,-812.5 13,-303.5 13,-251.057 36.6457,-197.91 62.0109,-155.985"/>
<polygon fill="none" stroke="#404040" points="62.1471,-155.766 61.9183,-148.558 68.4834,-145.575 68.7122,-152.782 62.1471,-155.766"/>
<text text-anchor="middle" x="44" y="-583" font-family="Helvetica,sans-Serif" font-size="10.00"> +m_roIndex</text>
</g>
<!-- Node12&#45;&gt;Node11 -->
<g id="edge12" class="edge"><title>Node12&#45;&gt;Node11</title>
<path fill="none" stroke="#404040" d="M100.122,-937.165C104.853,-916.742 109.421,-897.021 113.474,-879.523"/>
<polygon fill="none" stroke="#404040" points="113.486,-879.473 110.943,-872.726 116.194,-867.783 118.737,-874.531 113.486,-879.473"/>
<text text-anchor="middle" x="132" y="-900" font-family="Helvetica,sans-Serif" font-size="10.00"> #m_idx</text>
</g>
<!-- Node13 -->
<g id="node13" class="node"><title>Node13</title>
<polygon fill="white" stroke="#bfbfbf" points="43.5,-1350.5 43.5,-1407.5 72.5,-1407.5 72.5,-1350.5 43.5,-1350.5"/>
<text text-anchor="middle" x="58" y="-1395.5" font-family="Helvetica,sans-Serif" font-size="10.00">int</text>
<polyline fill="none" stroke="#bfbfbf" points="43.5,-1388.5 72.5,-1388.5 "/>
<text text-anchor="middle" x="58" y="-1376.5" font-family="Helvetica,sans-Serif" font-size="10.00"> </text>
<polyline fill="none" stroke="#bfbfbf" points="43.5,-1369.5 72.5,-1369.5 "/>
<text text-anchor="middle" x="58" y="-1357.5" font-family="Helvetica,sans-Serif" font-size="10.00"> </text>
</g>
<!-- Node13&#45;&gt;Node12 -->
<g id="edge13" class="edge"><title>Node13&#45;&gt;Node12</title>
<path fill="none" stroke="#404040" d="M58,-1350.5C58,-1340.53 58,-1328.38 58,-1314.92"/>
<polygon fill="none" stroke="#404040" points="58.0001,-1314.77 54,-1308.77 58,-1302.77 62,-1308.77 58.0001,-1314.77"/>
<text text-anchor="middle" x="78" y="-1324" font-family="Helvetica,sans-Serif" font-size="10.00"> #m_idx</text>
</g>
<!-- Node14 -->
<g id="node14" class="node"><title>Node14</title>
<g id="a_node14"><a xlink:title="STL class. ">
<polygon fill="white" stroke="#bfbfbf" points="570.5,-557 570.5,-614 635.5,-614 635.5,-557 570.5,-557"/>
<text text-anchor="middle" x="603" y="-602" font-family="Helvetica,sans-Serif" font-size="10.00">std::string</text>
<polyline fill="none" stroke="#bfbfbf" points="570.5,-595 635.5,-595 "/>
<text text-anchor="middle" x="603" y="-583" font-family="Helvetica,sans-Serif" font-size="10.00"> </text>
<polyline fill="none" stroke="#bfbfbf" points="570.5,-576 635.5,-576 "/>
<text text-anchor="middle" x="603" y="-564" font-family="Helvetica,sans-Serif" font-size="10.00"> </text>
</a>
</g>
</g>
<!-- Node14&#45;&gt;Node2 -->
<g id="edge14" class="edge"><title>Node14&#45;&gt;Node2</title>
<path fill="none" stroke="#404040" d="M595.598,-556.903C587.336,-530.319 571.772,-490.233 547,-463 497.636,-408.732 425.111,-367.942 367.507,-341.485"/>
<polygon fill="none" stroke="#404040" points="367.504,-341.484 360.39,-342.662 356.566,-336.549 363.68,-335.37 367.504,-341.484"/>
<text text-anchor="middle" x="557.5" y="-437" font-family="Helvetica,sans-Serif" font-size="10.00"> #m_name</text>
</g>
<!-- Node15 -->
<g id="node15" class="node"><title>Node15</title>
<g id="a_node15"><a xlink:title="STL class. ">
<polygon fill="white" stroke="#bfbfbf" points="554.5,-777.5 554.5,-845.5 657.5,-845.5 657.5,-777.5 554.5,-777.5"/>
<text text-anchor="start" x="562.5" y="-833.5" font-family="Helvetica,sans-Serif" font-size="10.00">std::basic_string&lt;</text>
<text text-anchor="middle" x="606" y="-822.5" font-family="Helvetica,sans-Serif" font-size="10.00"> char &gt;</text>
<polyline fill="none" stroke="#bfbfbf" points="554.5,-815.5 657.5,-815.5 "/>
<text text-anchor="middle" x="606" y="-803.5" font-family="Helvetica,sans-Serif" font-size="10.00"> </text>
<polyline fill="none" stroke="#bfbfbf" points="554.5,-796.5 657.5,-796.5 "/>
<text text-anchor="middle" x="606" y="-784.5" font-family="Helvetica,sans-Serif" font-size="10.00"> </text>
</a>
</g>
</g>
<!-- Node15&#45;&gt;Node14 -->
<g id="edge15" class="edge"><title>Node15&#45;&gt;Node14</title>
<path fill="none" stroke="midnightblue" d="M605.422,-767.346C604.816,-722.093 603.882,-652.343 603.369,-614.037"/>
<polygon fill="none" stroke="midnightblue" points="601.924,-767.496 605.557,-777.448 608.923,-767.402 601.924,-767.496"/>
</g>
</g>
</svg>
