<?xml version="1.0" encoding="UTF-8" standalone="no"?>
<!DOCTYPE svg PUBLIC "-//W3C//DTD SVG 1.1//EN"
 "http://www.w3.org/Graphics/SVG/1.1/DTD/svg11.dtd">
<!-- Generated by graphviz version 2.38.0 (20140413.2041)
 -->
<!-- Title: Ra::Engine::ItemEntry::isComponentNode Pages: 1 -->
<svg width="434pt" height="61pt"
 viewBox="0.00 0.00 434.00 61.00" xmlns="http://www.w3.org/2000/svg" xmlns:xlink="http://www.w3.org/1999/xlink">
<g id="graph0" class="graph" transform="scale(1 1) rotate(0) translate(4 57)">
<title>Ra::Engine::ItemEntry::isComponentNode</title>
<polygon fill="white" stroke="none" points="-4,4 -4,-57 430,-57 430,4 -4,4"/>
<!-- Node1 -->
<g id="node1" class="node"><title>Node1</title>
<polygon fill="#bfbfbf" stroke="black" points="0,-0.5 0,-30.5 119,-30.5 119,-0.5 0,-0.5"/>
<text text-anchor="start" x="8" y="-18.5" font-family="Helvetica,sans-Serif" font-size="10.00">Ra::Engine::ItemEntry</text>
<text text-anchor="middle" x="59.5" y="-7.5" font-family="Helvetica,sans-Serif" font-size="10.00">::isComponentNode</text>
</g>
<!-- Node2 -->
<g id="node2" class="node"><title>Node2</title>
<g id="a_node2"><a xlink:href="structRa_1_1Engine_1_1ItemEntry.html#a1fb9fdd74413a1fa5878f53c1cfcf8fd" target="_top" xlink:title="Debug checks. ">
<polygon fill="white" stroke="black" points="155,-22.5 155,-52.5 274,-52.5 274,-22.5 155,-22.5"/>
<text text-anchor="start" x="163" y="-40.5" font-family="Helvetica,sans-Serif" font-size="10.00">Ra::Engine::ItemEntry</text>
<text text-anchor="middle" x="214.5" y="-29.5" font-family="Helvetica,sans-Serif" font-size="10.00">::checkConsistency</text>
</a>
</g>
</g>
<!-- Node1&#45;&gt;Node2 -->
<g id="edge1" class="edge"><title>Node1&#45;&gt;Node2</title>
<path fill="none" stroke="midnightblue" d="M119.216,-23.9429C127.635,-25.1535 136.359,-26.4078 144.947,-27.6427"/>
<polygon fill="midnightblue" stroke="midnightblue" points="144.545,-31.1208 154.941,-29.0797 145.541,-24.192 144.545,-31.1208"/>
</g>
<!-- Node3 -->
<g id="node3" class="node"><title>Node3</title>
<g id="a_node3"><a xlink:href="classRa_1_1Core_1_1Utils_1_1Index.html#ac7d6c68387fe147f7a13668ac30a4533" target="_top" xlink:title="INVALID. ">
<polygon fill="white" stroke="black" points="310,-0.5 310,-30.5 426,-30.5 426,-0.5 310,-0.5"/>
<text text-anchor="start" x="318" y="-18.5" font-family="Helvetica,sans-Serif" font-size="10.00">Ra::Core::Utils::Index</text>
<text text-anchor="middle" x="368" y="-7.5" font-family="Helvetica,sans-Serif" font-size="10.00">::isInvalid</text>
</a>
</g>
</g>
<!-- Node1&#45;&gt;Node3 -->
<g id="edge3" class="edge"><title>Node1&#45;&gt;Node3</title>
<path fill="none" stroke="midnightblue" d="M119.225,-14.0643C131.068,-13.8291 143.432,-13.6224 155,-13.5 207.886,-12.9404 221.114,-12.9314 274,-13.5 282.357,-13.5898 291.136,-13.7251 299.824,-13.8837"/>
<polygon fill="midnightblue" stroke="midnightblue" points="299.885,-17.3855 309.951,-14.0794 300.02,-10.3868 299.885,-17.3855"/>
</g>
<!-- Node2&#45;&gt;Node3 -->
<g id="edge2" class="edge"><title>Node2&#45;&gt;Node3</title>
<path fill="none" stroke="midnightblue" d="M274.074,-28.9942C282.452,-27.7775 291.127,-26.5179 299.658,-25.2791"/>
<polygon fill="midnightblue" stroke="midnightblue" points="300.186,-28.7392 309.579,-23.8383 299.18,-21.8118 300.186,-28.7392"/>
</g>
</g>
</svg>
