<?xml version="1.0" encoding="UTF-8" standalone="no"?>
<!DOCTYPE svg PUBLIC "-//W3C//DTD SVG 1.1//EN"
 "http://www.w3.org/Graphics/SVG/1.1/DTD/svg11.dtd">
<!-- Generated by graphviz version 2.38.0 (20140413.2041)
 -->
<!-- Title: FeatureData Pages: 1 -->
<svg width="212pt" height="381pt"
 viewBox="0.00 0.00 211.50 381.00" xmlns="http://www.w3.org/2000/svg" xmlns:xlink="http://www.w3.org/1999/xlink">
<g id="graph0" class="graph" transform="scale(1 1) rotate(0) translate(4 377)">
<title>FeatureData</title>
<polygon fill="white" stroke="none" points="-4,4 -4,-377 207.5,-377 207.5,4 -4,4"/>
<!-- Node1 -->
<g id="node1" class="node"><title>Node1</title>
<polygon fill="#bfbfbf" stroke="black" points="90.5,-0.5 90.5,-57.5 166.5,-57.5 166.5,-0.5 90.5,-0.5"/>
<text text-anchor="middle" x="128.5" y="-45.5" font-family="Helvetica,sans-Serif" font-size="10.00">FeatureData</text>
<polyline fill="none" stroke="black" points="90.5,-38.5 166.5,-38.5 "/>
<text text-anchor="middle" x="128.5" y="-26.5" font-family="Helvetica,sans-Serif" font-size="10.00"> </text>
<polyline fill="none" stroke="black" points="90.5,-19.5 166.5,-19.5 "/>
<text text-anchor="middle" x="128.5" y="-7.5" font-family="Helvetica,sans-Serif" font-size="10.00"> </text>
</g>
<!-- Node2 -->
<g id="node2" class="node"><title>Node2</title>
<polygon fill="white" stroke="#bfbfbf" points="0,-105.5 0,-162.5 109,-162.5 109,-105.5 0,-105.5"/>
<text text-anchor="middle" x="54.5" y="-150.5" font-family="Helvetica,sans-Serif" font-size="10.00">std::array&lt; int, 4 &gt;</text>
<polyline fill="none" stroke="#bfbfbf" points="0,-143.5 109,-143.5 "/>
<text text-anchor="middle" x="54.5" y="-131.5" font-family="Helvetica,sans-Serif" font-size="10.00"> </text>
<polyline fill="none" stroke="#bfbfbf" points="0,-124.5 109,-124.5 "/>
<text text-anchor="middle" x="54.5" y="-112.5" font-family="Helvetica,sans-Serif" font-size="10.00"> </text>
</g>
<!-- Node2&#45;&gt;Node1 -->
<g id="edge1" class="edge"><title>Node2&#45;&gt;Node1</title>
<path fill="none" stroke="#404040" d="M73.0675,-105.263C79.4448,-95.898 86.6926,-85.4305 93.5,-76 95.5373,-73.1776 97.6651,-70.2755 99.8215,-67.3672"/>
<polygon fill="none" stroke="#404040" points="99.9747,-67.1628 100.373,-59.9627 107.173,-57.5615 106.774,-64.7616 99.9747,-67.1628"/>
<text text-anchor="middle" x="118" y="-79" font-family="Helvetica,sans-Serif" font-size="10.00"> +m_data</text>
</g>
<!-- Node3 -->
<g id="node3" class="node"><title>Node3</title>
<polygon fill="white" stroke="#bfbfbf" points="0,-210.5 0,-267.5 29,-267.5 29,-210.5 0,-210.5"/>
<text text-anchor="middle" x="14.5" y="-255.5" font-family="Helvetica,sans-Serif" font-size="10.00">int</text>
<polyline fill="none" stroke="#bfbfbf" points="0,-248.5 29,-248.5 "/>
<text text-anchor="middle" x="14.5" y="-236.5" font-family="Helvetica,sans-Serif" font-size="10.00"> </text>
<polyline fill="none" stroke="#bfbfbf" points="0,-229.5 29,-229.5 "/>
<text text-anchor="middle" x="14.5" y="-217.5" font-family="Helvetica,sans-Serif" font-size="10.00"> </text>
</g>
<!-- Node3&#45;&gt;Node2 -->
<g id="edge2" class="edge"><title>Node3&#45;&gt;Node2</title>
<path fill="none" stroke="#404040" d="M11.2683,-210.326C11.1124,-200.771 12.0447,-190.169 15.5,-181 16.528,-178.272 17.7938,-175.593 19.2334,-172.985"/>
<polygon fill="none" stroke="#404040" points="19.3859,-172.753 19.3316,-165.542 25.9669,-162.718 26.0213,-169.929 19.3859,-172.753"/>
<text text-anchor="middle" x="44" y="-184" font-family="Helvetica,sans-Serif" font-size="10.00"> +elements</text>
</g>
<!-- Node4 -->
<g id="node4" class="node"><title>Node4</title>
<g id="a_node4"><a xlink:title="STL class. ">
<polygon fill="white" stroke="#bfbfbf" points="49.5,-210.5 49.5,-267.5 139.5,-267.5 139.5,-210.5 49.5,-210.5"/>
<text text-anchor="middle" x="94.5" y="-255.5" font-family="Helvetica,sans-Serif" font-size="10.00">std::array&lt; T &gt;</text>
<polyline fill="none" stroke="#bfbfbf" points="49.5,-248.5 139.5,-248.5 "/>
<text text-anchor="middle" x="94.5" y="-236.5" font-family="Helvetica,sans-Serif" font-size="10.00"> </text>
<polyline fill="none" stroke="#bfbfbf" points="49.5,-229.5 139.5,-229.5 "/>
<text text-anchor="middle" x="94.5" y="-217.5" font-family="Helvetica,sans-Serif" font-size="10.00"> </text>
</a>
</g>
</g>
<!-- Node4&#45;&gt;Node2 -->
<g id="edge3" class="edge"><title>Node4&#45;&gt;Node2</title>
<path fill="none" stroke="orange" d="M80.2258,-200.943C77.6591,-194.3 75.0042,-187.444 72.5,-181 70.2012,-175.085 67.7274,-168.746 65.3718,-162.722"/>
<polygon fill="orange" stroke="orange" points="77.0286,-202.379 83.8953,-210.448 83.5588,-199.858 77.0286,-202.379"/>
<text text-anchor="middle" x="102.5" y="-184" font-family="Helvetica,sans-Serif" font-size="10.00"> &lt; int, 4 &gt;</text>
</g>
<!-- Node5 -->
<g id="node5" class="node"><title>Node5</title>
<polygon fill="white" stroke="#bfbfbf" points="80,-315.5 80,-372.5 109,-372.5 109,-315.5 80,-315.5"/>
<text text-anchor="middle" x="94.5" y="-360.5" font-family="Helvetica,sans-Serif" font-size="10.00">T</text>
<polyline fill="none" stroke="#bfbfbf" points="80,-353.5 109,-353.5 "/>
<text text-anchor="middle" x="94.5" y="-341.5" font-family="Helvetica,sans-Serif" font-size="10.00"> </text>
<polyline fill="none" stroke="#bfbfbf" points="80,-334.5 109,-334.5 "/>
<text text-anchor="middle" x="94.5" y="-322.5" font-family="Helvetica,sans-Serif" font-size="10.00"> </text>
</g>
<!-- Node5&#45;&gt;Node4 -->
<g id="edge4" class="edge"><title>Node5&#45;&gt;Node4</title>
<path fill="none" stroke="#404040" d="M94.5,-315.398C94.5,-304.545 94.5,-291.873 94.5,-280.049"/>
<polygon fill="none" stroke="#404040" points="94.5001,-279.678 90.5,-273.678 94.5,-267.678 98.5,-273.678 94.5001,-279.678"/>
<text text-anchor="middle" x="123" y="-289" font-family="Helvetica,sans-Serif" font-size="10.00"> +elements</text>
</g>
<!-- Node6 -->
<g id="node6" class="node"><title>Node6</title>
<polygon fill="white" stroke="#bfbfbf" points="127.5,-105.5 127.5,-162.5 203.5,-162.5 203.5,-105.5 127.5,-105.5"/>
<text text-anchor="middle" x="165.5" y="-150.5" font-family="Helvetica,sans-Serif" font-size="10.00">PickingMode</text>
<polyline fill="none" stroke="#bfbfbf" points="127.5,-143.5 203.5,-143.5 "/>
<text text-anchor="middle" x="165.5" y="-131.5" font-family="Helvetica,sans-Serif" font-size="10.00"> </text>
<polyline fill="none" stroke="#bfbfbf" points="127.5,-124.5 203.5,-124.5 "/>
<text text-anchor="middle" x="165.5" y="-112.5" font-family="Helvetica,sans-Serif" font-size="10.00"> </text>
</g>
<!-- Node6&#45;&gt;Node1 -->
<g id="edge5" class="edge"><title>Node6&#45;&gt;Node1</title>
<path fill="none" stroke="#404040" d="M155.585,-105.398C151.603,-94.3142 146.94,-81.333 142.616,-69.2957"/>
<polygon fill="none" stroke="#404040" points="142.5,-68.9717 136.707,-64.6773 138.443,-57.6783 144.236,-61.9727 142.5,-68.9717"/>
<text text-anchor="middle" x="176" y="-79" font-family="Helvetica,sans-Serif" font-size="10.00"> +m_mode</text>
</g>
</g>
</svg>
