<?xml version="1.0" encoding="UTF-8" standalone="no"?>
<!DOCTYPE svg PUBLIC "-//W3C//DTD SVG 1.1//EN"
 "http://www.w3.org/Graphics/SVG/1.1/DTD/svg11.dtd">
<!-- Generated by graphviz version 2.38.0 (20140413.2041)
 -->
<!-- Title: Ra::Engine::ViewingParameters Pages: 1 -->
<svg width="200pt" height="182pt"
 viewBox="0.00 0.00 200.00 182.00" xmlns="http://www.w3.org/2000/svg" xmlns:xlink="http://www.w3.org/1999/xlink">
<g id="graph0" class="graph" transform="scale(1 1) rotate(0) translate(4 178)">
<title>Ra::Engine::ViewingParameters</title>
<polygon fill="white" stroke="none" points="-4,4 -4,-178 196,-178 196,4 -4,4"/>
<!-- Node1 -->
<g id="node1" class="node"><title>Node1</title>
<polygon fill="#bfbfbf" stroke="black" points="0,-0.5 0,-57.5 164,-57.5 164,-0.5 0,-0.5"/>
<text text-anchor="middle" x="82" y="-45.5" font-family="Helvetica,sans-Serif" font-size="10.00">Ra::Engine::ViewingParameters</text>
<polyline fill="none" stroke="black" points="0,-38.5 164,-38.5 "/>
<text text-anchor="middle" x="82" y="-26.5" font-family="Helvetica,sans-Serif" font-size="10.00"> </text>
<polyline fill="none" stroke="black" points="0,-19.5 164,-19.5 "/>
<text text-anchor="middle" x="82" y="-7.5" font-family="Helvetica,sans-Serif" font-size="10.00"> </text>
</g>
<!-- Node2 -->
<g id="node2" class="node"><title>Node2</title>
<polygon fill="white" stroke="#bfbfbf" points="14,-116.5 14,-173.5 52,-173.5 52,-116.5 14,-116.5"/>
<text text-anchor="middle" x="33" y="-161.5" font-family="Helvetica,sans-Serif" font-size="10.00">float</text>
<polyline fill="none" stroke="#bfbfbf" points="14,-154.5 52,-154.5 "/>
<text text-anchor="middle" x="33" y="-142.5" font-family="Helvetica,sans-Serif" font-size="10.00"> </text>
<polyline fill="none" stroke="#bfbfbf" points="14,-135.5 52,-135.5 "/>
<text text-anchor="middle" x="33" y="-123.5" font-family="Helvetica,sans-Serif" font-size="10.00"> </text>
</g>
<!-- Node2&#45;&gt;Node1 -->
<g id="edge1" class="edge"><title>Node2&#45;&gt;Node1</title>
<path fill="none" stroke="#404040" d="M44.8615,-116.404C50.9555,-102.226 58.4861,-84.7058 65.1698,-69.1561"/>
<polygon fill="none" stroke="#404040" points="65.3391,-68.762 64.0336,-61.67 70.0779,-57.7372 71.3834,-64.8292 65.3391,-68.762"/>
<text text-anchor="middle" x="73" y="-84.5" font-family="Helvetica,sans-Serif" font-size="10.00"> +dt</text>
</g>
<!-- Node3 -->
<g id="node3" class="node"><title>Node3</title>
<polygon fill="white" stroke="#bfbfbf" points="70,-116.5 70,-173.5 192,-173.5 192,-116.5 70,-116.5"/>
<text text-anchor="middle" x="131" y="-161.5" font-family="Helvetica,sans-Serif" font-size="10.00">Matrix&lt; Scalar, 4, 4 &gt;</text>
<polyline fill="none" stroke="#bfbfbf" points="70,-154.5 192,-154.5 "/>
<text text-anchor="middle" x="131" y="-142.5" font-family="Helvetica,sans-Serif" font-size="10.00"> </text>
<polyline fill="none" stroke="#bfbfbf" points="70,-135.5 192,-135.5 "/>
<text text-anchor="middle" x="131" y="-123.5" font-family="Helvetica,sans-Serif" font-size="10.00"> </text>
</g>
<!-- Node3&#45;&gt;Node1 -->
<g id="edge2" class="edge"><title>Node3&#45;&gt;Node1</title>
<path fill="none" stroke="#404040" d="M119.138,-116.404C113.044,-102.226 105.514,-84.7058 98.8302,-69.1561"/>
<polygon fill="none" stroke="#404040" points="98.6609,-68.762 92.6166,-64.8292 93.9221,-57.7372 99.9664,-61.67 98.6609,-68.762"/>
<text text-anchor="middle" x="139.5" y="-90" font-family="Helvetica,sans-Serif" font-size="10.00"> +projMatrix</text>
<text text-anchor="middle" x="139.5" y="-79" font-family="Helvetica,sans-Serif" font-size="10.00">+viewMatrix</text>
</g>
</g>
</svg>
