<?xml version="1.0" encoding="UTF-8" standalone="no"?>
<!DOCTYPE svg PUBLIC "-//W3C//DTD SVG 1.1//EN"
 "http://www.w3.org/Graphics/SVG/1.1/DTD/svg11.dtd">
<!-- Generated by graphviz version 2.38.0 (20140413.2041)
 -->
<!-- Title: Ra::Core::Skinning::FrameData Pages: 1 -->
<svg width="621pt" height="854pt"
 viewBox="0.00 0.00 620.50 854.00" xmlns="http://www.w3.org/2000/svg" xmlns:xlink="http://www.w3.org/1999/xlink">
<g id="graph0" class="graph" transform="scale(1 1) rotate(0) translate(4 850)">
<title>Ra::Core::Skinning::FrameData</title>
<polygon fill="white" stroke="none" points="-4,4 -4,-850 616.5,-850 616.5,4 -4,4"/>
<!-- Node1 -->
<g id="node1" class="node"><title>Node1</title>
<polygon fill="#bfbfbf" stroke="black" points="187.5,-0.5 187.5,-68.5 291.5,-68.5 291.5,-0.5 187.5,-0.5"/>
<text text-anchor="start" x="195.5" y="-56.5" font-family="Helvetica,sans-Serif" font-size="10.00">Ra::Core::Skinning</text>
<text text-anchor="middle" x="239.5" y="-45.5" font-family="Helvetica,sans-Serif" font-size="10.00">::FrameData</text>
<polyline fill="none" stroke="black" points="187.5,-38.5 291.5,-38.5 "/>
<text text-anchor="middle" x="239.5" y="-26.5" font-family="Helvetica,sans-Serif" font-size="10.00"> </text>
<polyline fill="none" stroke="black" points="187.5,-19.5 291.5,-19.5 "/>
<text text-anchor="middle" x="239.5" y="-7.5" font-family="Helvetica,sans-Serif" font-size="10.00"> </text>
</g>
<!-- Node2 -->
<g id="node2" class="node"><title>Node2</title>
<polygon fill="white" stroke="#bfbfbf" points="0,-160.5 0,-217.5 63,-217.5 63,-160.5 0,-160.5"/>
<text text-anchor="middle" x="31.5" y="-205.5" font-family="Helvetica,sans-Serif" font-size="10.00">Affine &gt;&gt;</text>
<polyline fill="none" stroke="#bfbfbf" points="0,-198.5 63,-198.5 "/>
<text text-anchor="middle" x="31.5" y="-186.5" font-family="Helvetica,sans-Serif" font-size="10.00"> </text>
<polyline fill="none" stroke="#bfbfbf" points="0,-179.5 63,-179.5 "/>
<text text-anchor="middle" x="31.5" y="-167.5" font-family="Helvetica,sans-Serif" font-size="10.00"> </text>
</g>
<!-- Node2&#45;&gt;Node1 -->
<g id="edge1" class="edge"><title>Node2&#45;&gt;Node1</title>
<path fill="none" stroke="#404040" d="M26.9853,-160.219C24.9978,-137.807 26.2295,-106.849 43.5,-87 60.7816,-67.1386 124.844,-52.8985 175.084,-44.4951"/>
<polygon fill="none" stroke="#404040" points="175.349,-44.4522 180.633,-39.5453 187.195,-42.5356 181.911,-47.4426 175.349,-44.4522"/>
<text text-anchor="middle" x="107" y="-123" font-family="Helvetica,sans-Serif" font-size="10.00"> +m_previousPose</text>
<text text-anchor="middle" x="107" y="-112" font-family="Helvetica,sans-Serif" font-size="10.00">+m_prevToCurrentRelPose</text>
<text text-anchor="middle" x="107" y="-101" font-family="Helvetica,sans-Serif" font-size="10.00">+m_refToCurrentRelPose</text>
<text text-anchor="middle" x="107" y="-90" font-family="Helvetica,sans-Serif" font-size="10.00">+m_currentPose</text>
</g>
<!-- Node3 -->
<g id="node3" class="node"><title>Node3</title>
<polygon fill="white" stroke="#bfbfbf" points="167,-160.5 167,-217.5 196,-217.5 196,-160.5 167,-160.5"/>
<text text-anchor="middle" x="181.5" y="-205.5" font-family="Helvetica,sans-Serif" font-size="10.00">int</text>
<polyline fill="none" stroke="#bfbfbf" points="167,-198.5 196,-198.5 "/>
<text text-anchor="middle" x="181.5" y="-186.5" font-family="Helvetica,sans-Serif" font-size="10.00"> </text>
<polyline fill="none" stroke="#bfbfbf" points="167,-179.5 196,-179.5 "/>
<text text-anchor="middle" x="181.5" y="-167.5" font-family="Helvetica,sans-Serif" font-size="10.00"> </text>
</g>
<!-- Node3&#45;&gt;Node1 -->
<g id="edge2" class="edge"><title>Node3&#45;&gt;Node1</title>
<path fill="none" stroke="#404040" d="M175.955,-160.141C173.114,-139.105 172.135,-110.026 182.5,-87 183.864,-83.9692 185.503,-81.0403 187.35,-78.2224"/>
<polygon fill="none" stroke="#404040" points="187.504,-78.0232 188,-70.8291 194.831,-68.5197 194.335,-75.7138 187.504,-78.0232"/>
<text text-anchor="middle" x="229.5" y="-106.5" font-family="Helvetica,sans-Serif" font-size="10.00"> +m_frameCounter</text>
</g>
<!-- Node4 -->
<g id="node4" class="node"><title>Node4</title>
<g id="a_node4"><a xlink:href="classbool.html" target="_top" xlink:title="{bool\n||}">
<polygon fill="white" stroke="black" points="280,-160.5 280,-217.5 317,-217.5 317,-160.5 280,-160.5"/>
<text text-anchor="middle" x="298.5" y="-205.5" font-family="Helvetica,sans-Serif" font-size="10.00">bool</text>
<polyline fill="none" stroke="black" points="280,-198.5 317,-198.5 "/>
<text text-anchor="middle" x="298.5" y="-186.5" font-family="Helvetica,sans-Serif" font-size="10.00"> </text>
<polyline fill="none" stroke="black" points="280,-179.5 317,-179.5 "/>
<text text-anchor="middle" x="298.5" y="-167.5" font-family="Helvetica,sans-Serif" font-size="10.00"> </text>
</a>
</g>
</g>
<!-- Node4&#45;&gt;Node1 -->
<g id="edge3" class="edge"><title>Node4&#45;&gt;Node1</title>
<path fill="none" stroke="#404040" d="M295.585,-160.476C292.655,-139.615 287.008,-110.609 276.5,-87 275.329,-84.3692 274.011,-81.7383 272.589,-79.1349"/>
<polygon fill="none" stroke="#404040" points="272.464,-78.9286 265.938,-75.8613 266.259,-68.6573 272.785,-71.7246 272.464,-78.9286"/>
<text text-anchor="middle" x="328.5" y="-112" font-family="Helvetica,sans-Serif" font-size="10.00"> +m_doReset</text>
<text text-anchor="middle" x="328.5" y="-101" font-family="Helvetica,sans-Serif" font-size="10.00">+m_doSkinning</text>
</g>
<!-- Node5 -->
<g id="node5" class="node"><title>Node5</title>
<g id="a_node5"><a xlink:href="classRa_1_1Core_1_1VectorArray.html" target="_top" xlink:title="{Ra::Core::VectorArray\l\&lt; Vector3 \&gt;\n||+ getMap()\l+ getMap()\l}">
<polygon fill="white" stroke="black" points="338,-149.5 338,-228.5 457,-228.5 457,-149.5 338,-149.5"/>
<text text-anchor="start" x="346" y="-216.5" font-family="Helvetica,sans-Serif" font-size="10.00">Ra::Core::VectorArray</text>
<text text-anchor="middle" x="397.5" y="-205.5" font-family="Helvetica,sans-Serif" font-size="10.00">&lt; Vector3 &gt;</text>
<polyline fill="none" stroke="black" points="338,-198.5 457,-198.5 "/>
<text text-anchor="middle" x="397.5" y="-186.5" font-family="Helvetica,sans-Serif" font-size="10.00"> </text>
<polyline fill="none" stroke="black" points="338,-179.5 457,-179.5 "/>
<text text-anchor="start" x="346" y="-167.5" font-family="Helvetica,sans-Serif" font-size="10.00">+ getMap()</text>
<text text-anchor="start" x="346" y="-156.5" font-family="Helvetica,sans-Serif" font-size="10.00">+ getMap()</text>
</a>
</g>
</g>
<!-- Node5&#45;&gt;Node1 -->
<g id="edge4" class="edge"><title>Node5&#45;&gt;Node1</title>
<path fill="none" stroke="#404040" d="M395.394,-149.021C392.4,-128.403 385.608,-103.926 370.5,-87 353.089,-67.4943 327.349,-55.2973 303.284,-47.707"/>
<polygon fill="none" stroke="#404040" points="303.175,-47.6756 296.3,-49.8496 291.648,-44.3391 298.524,-42.1651 303.175,-47.6756"/>
<text text-anchor="middle" x="438.5" y="-117.5" font-family="Helvetica,sans-Serif" font-size="10.00"> +m_currentPos</text>
<text text-anchor="middle" x="438.5" y="-106.5" font-family="Helvetica,sans-Serif" font-size="10.00">+m_currentNormal</text>
<text text-anchor="middle" x="438.5" y="-95.5" font-family="Helvetica,sans-Serif" font-size="10.00">+m_previousPos</text>
</g>
<!-- Node6 -->
<g id="node6" class="node"><title>Node6</title>
<g id="a_node6"><a xlink:href="structRa_1_1Core_1_1AlignedStdVector.html" target="_top" xlink:title="{Ra::Core::AlignedStdVector\l\&lt; Vector3 \&gt;\n||}">
<polygon fill="white" stroke="black" points="250.5,-382.5 250.5,-450.5 396.5,-450.5 396.5,-382.5 250.5,-382.5"/>
<text text-anchor="start" x="258.5" y="-438.5" font-family="Helvetica,sans-Serif" font-size="10.00">Ra::Core::AlignedStdVector</text>
<text text-anchor="middle" x="323.5" y="-427.5" font-family="Helvetica,sans-Serif" font-size="10.00">&lt; Vector3 &gt;</text>
<polyline fill="none" stroke="black" points="250.5,-420.5 396.5,-420.5 "/>
<text text-anchor="middle" x="323.5" y="-408.5" font-family="Helvetica,sans-Serif" font-size="10.00"> </text>
<polyline fill="none" stroke="black" points="250.5,-401.5 396.5,-401.5 "/>
<text text-anchor="middle" x="323.5" y="-389.5" font-family="Helvetica,sans-Serif" font-size="10.00"> </text>
</a>
</g>
</g>
<!-- Node6&#45;&gt;Node5 -->
<g id="edge5" class="edge"><title>Node6&#45;&gt;Node5</title>
<path fill="none" stroke="midnightblue" d="M337.556,-372.668C351.177,-331.159 371.654,-268.761 384.797,-228.709"/>
<polygon fill="none" stroke="midnightblue" points="334.212,-371.634 334.419,-382.227 340.863,-373.817 334.212,-371.634"/>
</g>
<!-- Node7 -->
<g id="node7" class="node"><title>Node7</title>
<g id="a_node7"><a xlink:title="STL class. ">
<polygon fill="white" stroke="#bfbfbf" points="252,-574.5 252,-653.5 385,-653.5 385,-574.5 252,-574.5"/>
<text text-anchor="start" x="260" y="-641.5" font-family="Helvetica,sans-Serif" font-size="10.00">std::vector&lt; Vector3,</text>
<text text-anchor="start" x="260" y="-630.5" font-family="Helvetica,sans-Serif" font-size="10.00"> Eigen::aligned_allocator</text>
<text text-anchor="middle" x="318.5" y="-619.5" font-family="Helvetica,sans-Serif" font-size="10.00">&lt; Vector3 &gt; &gt;</text>
<polyline fill="none" stroke="#bfbfbf" points="252,-612.5 385,-612.5 "/>
<text text-anchor="middle" x="318.5" y="-600.5" font-family="Helvetica,sans-Serif" font-size="10.00"> </text>
<polyline fill="none" stroke="#bfbfbf" points="252,-593.5 385,-593.5 "/>
<text text-anchor="middle" x="318.5" y="-581.5" font-family="Helvetica,sans-Serif" font-size="10.00"> </text>
</a>
</g>
</g>
<!-- Node7&#45;&gt;Node6 -->
<g id="edge6" class="edge"><title>Node7&#45;&gt;Node6</title>
<path fill="none" stroke="midnightblue" d="M319.747,-564.235C320.655,-528.759 321.859,-481.673 322.655,-450.52"/>
<polygon fill="none" stroke="midnightblue" points="316.245,-564.289 319.488,-574.375 323.242,-564.468 316.245,-564.289"/>
</g>
<!-- Node8 -->
<g id="node8" class="node"><title>Node8</title>
<polygon fill="white" stroke="#bfbfbf" points="415,-788.5 415,-845.5 444,-845.5 444,-788.5 415,-788.5"/>
<text text-anchor="middle" x="429.5" y="-833.5" font-family="Helvetica,sans-Serif" font-size="10.00">T</text>
<polyline fill="none" stroke="#bfbfbf" points="415,-826.5 444,-826.5 "/>
<text text-anchor="middle" x="429.5" y="-814.5" font-family="Helvetica,sans-Serif" font-size="10.00"> </text>
<polyline fill="none" stroke="#bfbfbf" points="415,-807.5 444,-807.5 "/>
<text text-anchor="middle" x="429.5" y="-795.5" font-family="Helvetica,sans-Serif" font-size="10.00"> </text>
</g>
<!-- Node8&#45;&gt;Node7 -->
<g id="edge7" class="edge"><title>Node8&#45;&gt;Node7</title>
<path fill="none" stroke="#404040" d="M414.732,-807.633C395.357,-795.709 362.215,-771.816 348.5,-741 337.911,-717.208 330.763,-689.155 326.11,-665.567"/>
<polygon fill="none" stroke="#404040" points="326.094,-665.482 321.064,-660.315 323.899,-653.684 328.929,-658.851 326.094,-665.482"/>
<text text-anchor="middle" x="396" y="-762" font-family="Helvetica,sans-Serif" font-size="10.00"> +elements</text>
</g>
<!-- Node10 -->
<g id="node10" class="node"><title>Node10</title>
<g id="a_node10"><a xlink:title="STL class. ">
<polygon fill="white" stroke="#bfbfbf" points="358,-672.5 358,-740.5 501,-740.5 501,-672.5 358,-672.5"/>
<text text-anchor="start" x="366" y="-728.5" font-family="Helvetica,sans-Serif" font-size="10.00">std::vector&lt; T, Eigen</text>
<text text-anchor="middle" x="429.5" y="-717.5" font-family="Helvetica,sans-Serif" font-size="10.00">::aligned_allocator&lt; T &gt; &gt;</text>
<polyline fill="none" stroke="#bfbfbf" points="358,-710.5 501,-710.5 "/>
<text text-anchor="middle" x="429.5" y="-698.5" font-family="Helvetica,sans-Serif" font-size="10.00"> </text>
<polyline fill="none" stroke="#bfbfbf" points="358,-691.5 501,-691.5 "/>
<text text-anchor="middle" x="429.5" y="-679.5" font-family="Helvetica,sans-Serif" font-size="10.00"> </text>
</a>
</g>
</g>
<!-- Node8&#45;&gt;Node10 -->
<g id="edge10" class="edge"><title>Node8&#45;&gt;Node10</title>
<path fill="none" stroke="#404040" d="M429.5,-788.34C429.5,-777.529 429.5,-764.847 429.5,-752.775"/>
<polygon fill="none" stroke="#404040" points="429.5,-752.519 425.5,-746.519 429.5,-740.519 433.5,-746.519 429.5,-752.519"/>
<text text-anchor="middle" x="458" y="-762" font-family="Helvetica,sans-Serif" font-size="10.00"> +elements</text>
</g>
<!-- Node13 -->
<g id="node13" class="node"><title>Node13</title>
<g id="a_node13"><a xlink:title="STL class. ">
<polygon fill="white" stroke="#bfbfbf" points="468.5,-580 468.5,-648 612.5,-648 612.5,-580 468.5,-580"/>
<text text-anchor="start" x="476.5" y="-636" font-family="Helvetica,sans-Serif" font-size="10.00">std::vector&lt; V, Eigen</text>
<text text-anchor="middle" x="540.5" y="-625" font-family="Helvetica,sans-Serif" font-size="10.00">::aligned_allocator&lt; V &gt; &gt;</text>
<polyline fill="none" stroke="#bfbfbf" points="468.5,-618 612.5,-618 "/>
<text text-anchor="middle" x="540.5" y="-606" font-family="Helvetica,sans-Serif" font-size="10.00"> </text>
<polyline fill="none" stroke="#bfbfbf" points="468.5,-599 612.5,-599 "/>
<text text-anchor="middle" x="540.5" y="-587" font-family="Helvetica,sans-Serif" font-size="10.00"> </text>
</a>
</g>
</g>
<!-- Node8&#45;&gt;Node13 -->
<g id="edge14" class="edge"><title>Node8&#45;&gt;Node13</title>
<path fill="none" stroke="#404040" d="M444.268,-807.633C463.643,-795.709 496.785,-771.816 510.5,-741 521.92,-715.341 529.338,-684.728 533.94,-660.101"/>
<polygon fill="none" stroke="#404040" points="533.957,-660.004 531.058,-653.401 536.037,-648.185 538.937,-654.788 533.957,-660.004"/>
<text text-anchor="middle" x="528" y="-762" font-family="Helvetica,sans-Serif" font-size="10.00"> +elements</text>
</g>
<!-- Node9 -->
<g id="node9" class="node"><title>Node9</title>
<g id="a_node9"><a xlink:href="structRa_1_1Core_1_1AlignedStdVector.html" target="_top" xlink:title="Shortcut for the ubiquitous aligned std::vector Uses Eigen&#39;s aligned allocator, as stated in http://e...">
<polygon fill="white" stroke="black" points="343,-498.5 343,-555.5 516,-555.5 516,-498.5 343,-498.5"/>
<text text-anchor="middle" x="429.5" y="-543.5" font-family="Helvetica,sans-Serif" font-size="10.00">Ra::Core::AlignedStdVector&lt; T &gt;</text>
<polyline fill="none" stroke="black" points="343,-536.5 516,-536.5 "/>
<text text-anchor="middle" x="429.5" y="-524.5" font-family="Helvetica,sans-Serif" font-size="10.00"> </text>
<polyline fill="none" stroke="black" points="343,-517.5 516,-517.5 "/>
<text text-anchor="middle" x="429.5" y="-505.5" font-family="Helvetica,sans-Serif" font-size="10.00"> </text>
</a>
</g>
</g>
<!-- Node9&#45;&gt;Node6 -->
<g id="edge8" class="edge"><title>Node9&#45;&gt;Node6</title>
<path fill="none" stroke="orange" d="M395.232,-490.923C382.559,-477.952 368.246,-463.301 355.758,-450.519"/>
<polygon fill="orange" stroke="orange" points="392.986,-493.633 402.477,-498.34 397.993,-488.741 392.986,-493.633"/>
<text text-anchor="middle" x="415" y="-472" font-family="Helvetica,sans-Serif" font-size="10.00"> &lt; Vector3 &gt;</text>
</g>
<!-- Node12 -->
<g id="node12" class="node"><title>Node12</title>
<g id="a_node12"><a xlink:href="structRa_1_1Core_1_1AlignedStdVector.html" target="_top" xlink:title="{Ra::Core::AlignedStdVector\&lt; V \&gt;\n||}">
<polygon fill="white" stroke="black" points="415,-388 415,-445 590,-445 590,-388 415,-388"/>
<text text-anchor="middle" x="502.5" y="-433" font-family="Helvetica,sans-Serif" font-size="10.00">Ra::Core::AlignedStdVector&lt; V &gt;</text>
<polyline fill="none" stroke="black" points="415,-426 590,-426 "/>
<text text-anchor="middle" x="502.5" y="-414" font-family="Helvetica,sans-Serif" font-size="10.00"> </text>
<polyline fill="none" stroke="black" points="415,-407 590,-407 "/>
<text text-anchor="middle" x="502.5" y="-395" font-family="Helvetica,sans-Serif" font-size="10.00"> </text>
</a>
</g>
</g>
<!-- Node9&#45;&gt;Node12 -->
<g id="edge15" class="edge"><title>Node9&#45;&gt;Node12</title>
<path fill="none" stroke="orange" d="M453.722,-489.999C463.561,-475.375 474.748,-458.748 483.924,-445.109"/>
<polygon fill="orange" stroke="orange" points="450.788,-488.089 448.11,-498.34 456.596,-491.997 450.788,-488.089"/>
<text text-anchor="middle" x="482" y="-472" font-family="Helvetica,sans-Serif" font-size="10.00"> &lt; V &gt;</text>
</g>
<!-- Node10&#45;&gt;Node9 -->
<g id="edge9" class="edge"><title>Node10&#45;&gt;Node9</title>
<path fill="none" stroke="midnightblue" d="M429.5,-661.787C429.5,-628.638 429.5,-584.085 429.5,-555.699"/>
<polygon fill="none" stroke="midnightblue" points="426,-662.114 429.5,-672.114 433,-662.114 426,-662.114"/>
</g>
<!-- Node11 -->
<g id="node11" class="node"><title>Node11</title>
<g id="a_node11"><a xlink:href="classRa_1_1Core_1_1VectorArray.html" target="_top" xlink:title="This class is a wrapper around a std::vector of Core::Vectors. ">
<polygon fill="white" stroke="black" points="399,-276.5 399,-344.5 548,-344.5 548,-276.5 399,-276.5"/>
<text text-anchor="middle" x="473.5" y="-332.5" font-family="Helvetica,sans-Serif" font-size="10.00">Ra::Core::VectorArray&lt; V &gt;</text>
<polyline fill="none" stroke="black" points="399,-325.5 548,-325.5 "/>
<text text-anchor="middle" x="473.5" y="-313.5" font-family="Helvetica,sans-Serif" font-size="10.00"> </text>
<polyline fill="none" stroke="black" points="399,-306.5 548,-306.5 "/>
<text text-anchor="start" x="407" y="-294.5" font-family="Helvetica,sans-Serif" font-size="10.00">+ getMap()</text>
<text text-anchor="start" x="407" y="-283.5" font-family="Helvetica,sans-Serif" font-size="10.00">+ getMap()</text>
</a>
</g>
</g>
<!-- Node11&#45;&gt;Node5 -->
<g id="edge11" class="edge"><title>Node11&#45;&gt;Node5</title>
<path fill="none" stroke="orange" d="M446.881,-267.646C438.808,-254.952 429.98,-241.07 422.049,-228.6"/>
<polygon fill="orange" stroke="orange" points="444.01,-269.653 452.33,-276.213 449.917,-265.896 444.01,-269.653"/>
<text text-anchor="middle" x="471" y="-250" font-family="Helvetica,sans-Serif" font-size="10.00"> &lt; Vector3 &gt;</text>
</g>
<!-- Node12&#45;&gt;Node11 -->
<g id="edge12" class="edge"><title>Node12&#45;&gt;Node11</title>
<path fill="none" stroke="midnightblue" d="M492.101,-378.206C489.057,-367.292 485.751,-355.436 482.782,-344.788"/>
<polygon fill="none" stroke="midnightblue" points="488.747,-379.211 494.805,-387.903 495.49,-377.33 488.747,-379.211"/>
</g>
<!-- Node13&#45;&gt;Node12 -->
<g id="edge13" class="edge"><title>Node13&#45;&gt;Node12</title>
<path fill="none" stroke="midnightblue" d="M536.382,-569.617C533.938,-547.972 530.355,-521.468 525.5,-498 521.819,-480.208 516.249,-460.598 511.513,-445.188"/>
<polygon fill="none" stroke="midnightblue" points="532.931,-570.255 537.491,-579.818 539.89,-569.498 532.931,-570.255"/>
</g>
</g>
</svg>
