<?xml version="1.0" encoding="UTF-8" standalone="no"?>
<!DOCTYPE svg PUBLIC "-//W3C//DTD SVG 1.1//EN"
 "http://www.w3.org/Graphics/SVG/1.1/DTD/svg11.dtd">
<!-- Generated by graphviz version 2.38.0 (20140413.2041)
 -->
<!-- Title: Ra::Core::Geometry::PointToTriangleOutput Pages: 1 -->
<svg width="329pt" height="204pt"
 viewBox="0.00 0.00 329.00 204.00" xmlns="http://www.w3.org/2000/svg" xmlns:xlink="http://www.w3.org/1999/xlink">
<g id="graph0" class="graph" transform="scale(1 1) rotate(0) translate(4 200)">
<title>Ra::Core::Geometry::PointToTriangleOutput</title>
<polygon fill="white" stroke="none" points="-4,4 -4,-200 325,-200 325,4 -4,4"/>
<!-- Node1 -->
<g id="node1" class="node"><title>Node1</title>
<polygon fill="#bfbfbf" stroke="black" points="113,-0.5 113,-90.5 251,-90.5 251,-0.5 113,-0.5"/>
<text text-anchor="start" x="121" y="-78.5" font-family="Helvetica,sans-Serif" font-size="10.00">Ra::Core::Geometry</text>
<text text-anchor="middle" x="182" y="-67.5" font-family="Helvetica,sans-Serif" font-size="10.00">::PointToTriangleOutput</text>
<polyline fill="none" stroke="black" points="113,-60.5 251,-60.5 "/>
<text text-anchor="middle" x="182" y="-48.5" font-family="Helvetica,sans-Serif" font-size="10.00"> </text>
<polyline fill="none" stroke="black" points="113,-41.5 251,-41.5 "/>
<text text-anchor="start" x="121" y="-29.5" font-family="Helvetica,sans-Serif" font-size="10.00">+ PointToTriangleOutput()</text>
<text text-anchor="start" x="121" y="-18.5" font-family="Helvetica,sans-Serif" font-size="10.00">+ getHitPrimitive()</text>
<text text-anchor="start" x="121" y="-7.5" font-family="Helvetica,sans-Serif" font-size="10.00">+ getHitIndex()</text>
</g>
<!-- Node2 -->
<g id="node2" class="node"><title>Node2</title>
<polygon fill="white" stroke="#bfbfbf" points="0,-138.5 0,-195.5 122,-195.5 122,-138.5 0,-138.5"/>
<text text-anchor="middle" x="61" y="-183.5" font-family="Helvetica,sans-Serif" font-size="10.00">Matrix&lt; Scalar, 3, 1 &gt;</text>
<polyline fill="none" stroke="#bfbfbf" points="0,-176.5 122,-176.5 "/>
<text text-anchor="middle" x="61" y="-164.5" font-family="Helvetica,sans-Serif" font-size="10.00"> </text>
<polyline fill="none" stroke="#bfbfbf" points="0,-157.5 122,-157.5 "/>
<text text-anchor="middle" x="61" y="-145.5" font-family="Helvetica,sans-Serif" font-size="10.00"> </text>
</g>
<!-- Node2&#45;&gt;Node1 -->
<g id="edge1" class="edge"><title>Node2&#45;&gt;Node1</title>
<path fill="none" stroke="#404040" d="M86.4821,-138.417C95.3816,-128.968 105.517,-118.41 115,-109 118.334,-105.691 121.791,-102.314 125.298,-98.9283"/>
<polygon fill="none" stroke="#404040" points="125.405,-98.8257 126.974,-91.7874 134.075,-90.529 132.505,-97.5673 125.405,-98.8257"/>
<text text-anchor="middle" x="146.5" y="-112" font-family="Helvetica,sans-Serif" font-size="10.00"> +meshPoint</text>
</g>
<!-- Node3 -->
<g id="node3" class="node"><title>Node3</title>
<polygon fill="white" stroke="#bfbfbf" points="140,-138.5 140,-195.5 224,-195.5 224,-138.5 140,-138.5"/>
<text text-anchor="middle" x="182" y="-183.5" font-family="Helvetica,sans-Serif" font-size="10.00">unsigned char</text>
<polyline fill="none" stroke="#bfbfbf" points="140,-176.5 224,-176.5 "/>
<text text-anchor="middle" x="182" y="-164.5" font-family="Helvetica,sans-Serif" font-size="10.00"> </text>
<polyline fill="none" stroke="#bfbfbf" points="140,-157.5 224,-157.5 "/>
<text text-anchor="middle" x="182" y="-145.5" font-family="Helvetica,sans-Serif" font-size="10.00"> </text>
</g>
<!-- Node3&#45;&gt;Node1 -->
<g id="edge2" class="edge"><title>Node3&#45;&gt;Node1</title>
<path fill="none" stroke="#404040" d="M182,-138.284C182,-127.735 182,-115.294 182,-103.035"/>
<polygon fill="none" stroke="#404040" points="182,-102.912 178,-96.9125 182,-90.9125 186,-96.9124 182,-102.912"/>
<text text-anchor="middle" x="199" y="-112" font-family="Helvetica,sans-Serif" font-size="10.00"> +flags</text>
</g>
<!-- Node4 -->
<g id="node4" class="node"><title>Node4</title>
<polygon fill="white" stroke="#bfbfbf" points="242,-138.5 242,-195.5 280,-195.5 280,-138.5 242,-138.5"/>
<text text-anchor="middle" x="261" y="-183.5" font-family="Helvetica,sans-Serif" font-size="10.00">float</text>
<polyline fill="none" stroke="#bfbfbf" points="242,-176.5 280,-176.5 "/>
<text text-anchor="middle" x="261" y="-164.5" font-family="Helvetica,sans-Serif" font-size="10.00"> </text>
<polyline fill="none" stroke="#bfbfbf" points="242,-157.5 280,-157.5 "/>
<text text-anchor="middle" x="261" y="-145.5" font-family="Helvetica,sans-Serif" font-size="10.00"> </text>
</g>
<!-- Node4&#45;&gt;Node1 -->
<g id="edge3" class="edge"><title>Node4&#45;&gt;Node1</title>
<path fill="none" stroke="#404040" d="M242.677,-138.284C235.34,-127.185 226.619,-113.993 218.109,-101.121"/>
<polygon fill="none" stroke="#404040" points="217.978,-100.923 211.333,-98.1235 211.361,-90.9125 218.006,-93.7117 217.978,-100.923"/>
<text text-anchor="middle" x="274.5" y="-112" font-family="Helvetica,sans-Serif" font-size="10.00"> +distanceSquared</text>
</g>
</g>
</svg>
