<?xml version="1.0" encoding="UTF-8" standalone="no"?>
<!DOCTYPE svg PUBLIC "-//W3C//DTD SVG 1.1//EN"
 "http://www.w3.org/Graphics/SVG/1.1/DTD/svg11.dtd">
<!-- Generated by graphviz version 2.38.0 (20140413.2041)
 -->
<!-- Title: /home/travis/build/STORM&#45;IRIT/Radium&#45;Engine/src/Engine/System/System.cpp Pages: 1 -->
<svg width="1186pt" height="330pt"
 viewBox="0.00 0.00 1185.50 330.00" xmlns="http://www.w3.org/2000/svg" xmlns:xlink="http://www.w3.org/1999/xlink">
<g id="graph0" class="graph" transform="scale(1 1) rotate(0) translate(4 326)">
<title>/home/travis/build/STORM&#45;IRIT/Radium&#45;Engine/src/Engine/System/System.cpp</title>
<polygon fill="white" stroke="none" points="-4,4 -4,-326 1181.5,-326 1181.5,4 -4,4"/>
<!-- Node1 -->
<g id="node1" class="node"><title>Node1</title>
<polygon fill="#bfbfbf" stroke="black" points="393,-280.5 393,-321.5 562,-321.5 562,-280.5 393,-280.5"/>
<text text-anchor="start" x="401" y="-309.5" font-family="Helvetica,sans-Serif" font-size="10.00">/home/travis/build</text>
<text text-anchor="start" x="401" y="-298.5" font-family="Helvetica,sans-Serif" font-size="10.00">/STORM&#45;IRIT/Radium&#45;Engine</text>
<text text-anchor="middle" x="477.5" y="-287.5" font-family="Helvetica,sans-Serif" font-size="10.00">/src/Engine/System/System.cpp</text>
</g>
<!-- Node2 -->
<g id="node2" class="node"><title>Node2</title>
<g id="a_node2"><a xlink:href="System_8hpp.html" target="_top" xlink:title="Engine/System/System.hpp">
<polygon fill="white" stroke="black" points="403,-224.5 403,-243.5 552,-243.5 552,-224.5 403,-224.5"/>
<text text-anchor="middle" x="477.5" y="-231.5" font-family="Helvetica,sans-Serif" font-size="10.00">Engine/System/System.hpp</text>
</a>
</g>
</g>
<!-- Node1&#45;&gt;Node2 -->
<g id="edge1" class="edge"><title>Node1&#45;&gt;Node2</title>
<path fill="none" stroke="midnightblue" d="M477.5,-280.498C477.5,-272.065 477.5,-262.235 477.5,-253.874"/>
<polygon fill="midnightblue" stroke="midnightblue" points="481,-253.652 477.5,-243.652 474,-253.653 481,-253.652"/>
</g>
<!-- Node12 -->
<g id="node12" class="node"><title>Node12</title>
<g id="a_node12"><a xlink:href="Component_8hpp.html" target="_top" xlink:title="Engine/Component/Component.hpp">
<polygon fill="white" stroke="black" points="172.5,-224.5 172.5,-243.5 360.5,-243.5 360.5,-224.5 172.5,-224.5"/>
<text text-anchor="middle" x="266.5" y="-231.5" font-family="Helvetica,sans-Serif" font-size="10.00">Engine/Component/Component.hpp</text>
</a>
</g>
</g>
<!-- Node1&#45;&gt;Node12 -->
<g id="edge11" class="edge"><title>Node1&#45;&gt;Node12</title>
<path fill="none" stroke="midnightblue" d="M414.193,-280.498C378.312,-269.444 334.635,-255.99 304.123,-246.59"/>
<polygon fill="midnightblue" stroke="midnightblue" points="304.897,-243.166 294.31,-243.567 302.836,-249.856 304.897,-243.166"/>
</g>
<!-- Node19 -->
<g id="node19" class="node"><title>Node19</title>
<g id="a_node19"><a xlink:href="Entity_8hpp.html" target="_top" xlink:title="Engine/Entity/Entity.hpp">
<polygon fill="white" stroke="black" points="753.5,-224.5 753.5,-243.5 881.5,-243.5 881.5,-224.5 753.5,-224.5"/>
<text text-anchor="middle" x="817.5" y="-231.5" font-family="Helvetica,sans-Serif" font-size="10.00">Engine/Entity/Entity.hpp</text>
</a>
</g>
</g>
<!-- Node1&#45;&gt;Node19 -->
<g id="edge21" class="edge"><title>Node1&#45;&gt;Node19</title>
<path fill="none" stroke="midnightblue" d="M562.419,-283.765C625.06,-271.79 708.467,-255.845 762.569,-245.502"/>
<polygon fill="midnightblue" stroke="midnightblue" points="763.486,-248.89 772.651,-243.574 762.171,-242.014 763.486,-248.89"/>
</g>
<!-- Node3 -->
<g id="node3" class="node"><title>Node3</title>
<g id="a_node3"><a xlink:href="RaEngine_8hpp.html" target="_top" xlink:title="Engine/RaEngine.hpp">
<polygon fill="white" stroke="black" points="314,-168.5 314,-187.5 431,-187.5 431,-168.5 314,-168.5"/>
<text text-anchor="middle" x="372.5" y="-175.5" font-family="Helvetica,sans-Serif" font-size="10.00">Engine/RaEngine.hpp</text>
</a>
</g>
</g>
<!-- Node2&#45;&gt;Node3 -->
<g id="edge2" class="edge"><title>Node2&#45;&gt;Node3</title>
<path fill="none" stroke="midnightblue" d="M460.63,-224.324C443.791,-215.664 417.693,-202.242 398.262,-192.249"/>
<polygon fill="midnightblue" stroke="midnightblue" points="399.822,-189.116 389.328,-187.655 396.62,-195.341 399.822,-189.116"/>
</g>
<!-- Node10 -->
<g id="node10" class="node"><title>Node10</title>
<polygon fill="white" stroke="#bfbfbf" points="449,-168.5 449,-187.5 506,-187.5 506,-168.5 449,-168.5"/>
<text text-anchor="middle" x="477.5" y="-175.5" font-family="Helvetica,sans-Serif" font-size="10.00">memory</text>
</g>
<!-- Node2&#45;&gt;Node10 -->
<g id="edge9" class="edge"><title>Node2&#45;&gt;Node10</title>
<path fill="none" stroke="midnightblue" d="M477.5,-224.083C477.5,-217.006 477.5,-206.861 477.5,-197.986"/>
<polygon fill="midnightblue" stroke="midnightblue" points="481,-197.751 477.5,-187.751 474,-197.751 481,-197.751"/>
</g>
<!-- Node11 -->
<g id="node11" class="node"><title>Node11</title>
<polygon fill="white" stroke="#bfbfbf" points="524,-168.5 524,-187.5 571,-187.5 571,-168.5 524,-168.5"/>
<text text-anchor="middle" x="547.5" y="-175.5" font-family="Helvetica,sans-Serif" font-size="10.00">vector</text>
</g>
<!-- Node2&#45;&gt;Node11 -->
<g id="edge10" class="edge"><title>Node2&#45;&gt;Node11</title>
<path fill="none" stroke="midnightblue" d="M488.747,-224.324C499.297,-216.185 515.301,-203.839 527.942,-194.087"/>
<polygon fill="midnightblue" stroke="midnightblue" points="530.269,-196.713 536.049,-187.834 525.993,-191.171 530.269,-196.713"/>
</g>
<!-- Node4 -->
<g id="node4" class="node"><title>Node4</title>
<g id="a_node4"><a xlink:href="CoreMacros_8hpp.html" target="_top" xlink:title="Core/CoreMacros.hpp">
<polygon fill="white" stroke="black" points="893.5,-56.5 893.5,-75.5 1013.5,-75.5 1013.5,-56.5 893.5,-56.5"/>
<text text-anchor="middle" x="953.5" y="-63.5" font-family="Helvetica,sans-Serif" font-size="10.00">Core/CoreMacros.hpp</text>
</a>
</g>
</g>
<!-- Node3&#45;&gt;Node4 -->
<g id="edge3" class="edge"><title>Node3&#45;&gt;Node4</title>
<path fill="none" stroke="midnightblue" d="M381.453,-168.375C397.181,-153.823 431.442,-124.74 466.5,-112 541.157,-84.8695 766.827,-73.359 882.888,-69.1285"/>
<polygon fill="midnightblue" stroke="midnightblue" points="883.221,-72.619 893.09,-68.7651 882.971,-65.6234 883.221,-72.619"/>
</g>
<!-- Node5 -->
<g id="node5" class="node"><title>Node5</title>
<polygon fill="white" stroke="#bfbfbf" points="834.5,-0.5 834.5,-19.5 886.5,-19.5 886.5,-0.5 834.5,-0.5"/>
<text text-anchor="middle" x="860.5" y="-7.5" font-family="Helvetica,sans-Serif" font-size="10.00">cassert</text>
</g>
<!-- Node4&#45;&gt;Node5 -->
<g id="edge4" class="edge"><title>Node4&#45;&gt;Node5</title>
<path fill="none" stroke="midnightblue" d="M938.558,-56.324C923.915,-47.8215 901.366,-34.7288 884.262,-24.7975"/>
<polygon fill="midnightblue" stroke="midnightblue" points="885.81,-21.6491 875.405,-19.6545 882.295,-27.7027 885.81,-21.6491"/>
</g>
<!-- Node6 -->
<g id="node6" class="node"><title>Node6</title>
<polygon fill="white" stroke="#bfbfbf" points="905,-0.5 905,-19.5 950,-19.5 950,-0.5 905,-0.5"/>
<text text-anchor="middle" x="927.5" y="-7.5" font-family="Helvetica,sans-Serif" font-size="10.00">cstdio</text>
</g>
<!-- Node4&#45;&gt;Node6 -->
<g id="edge5" class="edge"><title>Node4&#45;&gt;Node6</title>
<path fill="none" stroke="midnightblue" d="M949.207,-56.083C945.648,-48.6913 940.478,-37.9533 936.076,-28.8111"/>
<polygon fill="midnightblue" stroke="midnightblue" points="939.205,-27.2427 931.713,-19.7511 932.898,-30.2795 939.205,-27.2427"/>
</g>
<!-- Node7 -->
<g id="node7" class="node"><title>Node7</title>
<polygon fill="white" stroke="#bfbfbf" points="968,-0.5 968,-19.5 1027,-19.5 1027,-0.5 968,-0.5"/>
<text text-anchor="middle" x="997.5" y="-7.5" font-family="Helvetica,sans-Serif" font-size="10.00">iostream</text>
</g>
<!-- Node4&#45;&gt;Node7 -->
<g id="edge6" class="edge"><title>Node4&#45;&gt;Node7</title>
<path fill="none" stroke="midnightblue" d="M960.766,-56.083C967.045,-48.3768 976.288,-37.0333 983.931,-27.6531"/>
<polygon fill="midnightblue" stroke="midnightblue" points="986.766,-29.7143 990.369,-19.7511 981.339,-25.2926 986.766,-29.7143"/>
</g>
<!-- Node8 -->
<g id="node8" class="node"><title>Node8</title>
<polygon fill="white" stroke="#bfbfbf" points="1045.5,-0.5 1045.5,-19.5 1101.5,-19.5 1101.5,-0.5 1045.5,-0.5"/>
<text text-anchor="middle" x="1073.5" y="-7.5" font-family="Helvetica,sans-Serif" font-size="10.00">sstream</text>
</g>
<!-- Node4&#45;&gt;Node8 -->
<g id="edge7" class="edge"><title>Node4&#45;&gt;Node8</title>
<path fill="none" stroke="midnightblue" d="M972.514,-56.4435C992.088,-47.6356 1022.81,-33.8116 1045.23,-23.722"/>
<polygon fill="midnightblue" stroke="midnightblue" points="1046.89,-26.8119 1054.57,-19.5164 1044.02,-20.4284 1046.89,-26.8119"/>
</g>
<!-- Node9 -->
<g id="node9" class="node"><title>Node9</title>
<polygon fill="white" stroke="#bfbfbf" points="1129.5,-0.5 1129.5,-19.5 1177.5,-19.5 1177.5,-0.5 1129.5,-0.5"/>
<text text-anchor="middle" x="1153.5" y="-7.5" font-family="Helvetica,sans-Serif" font-size="10.00">thread</text>
</g>
<!-- Node4&#45;&gt;Node9 -->
<g id="edge8" class="edge"><title>Node4&#45;&gt;Node9</title>
<path fill="none" stroke="midnightblue" d="M985.191,-56.4435C1021.84,-46.5487 1081.93,-30.3235 1119.52,-20.1739"/>
<polygon fill="midnightblue" stroke="midnightblue" points="1120.75,-23.4684 1129.49,-17.4826 1118.92,-16.7104 1120.75,-23.4684"/>
</g>
<!-- Node12&#45;&gt;Node3 -->
<g id="edge17" class="edge"><title>Node12&#45;&gt;Node3</title>
<path fill="none" stroke="midnightblue" d="M283.531,-224.324C300.53,-215.664 326.876,-202.242 346.493,-192.249"/>
<polygon fill="midnightblue" stroke="midnightblue" points="348.19,-195.312 355.512,-187.655 345.012,-189.075 348.19,-195.312"/>
</g>
<!-- Node12&#45;&gt;Node11 -->
<g id="edge18" class="edge"><title>Node12&#45;&gt;Node11</title>
<path fill="none" stroke="midnightblue" d="M322.191,-224.496C370.583,-216.754 442.736,-204.367 513.784,-188.238"/>
<polygon fill="midnightblue" stroke="midnightblue" points="514.837,-191.588 523.799,-185.938 513.269,-184.765 514.837,-191.588"/>
</g>
<!-- Node13 -->
<g id="node13" class="node"><title>Node13</title>
<g id="a_node13"><a xlink:href="Index_8hpp.html" target="_top" xlink:title="Core/Utils/Index.hpp">
<polygon fill="white" stroke="black" points="209,-112.5 209,-131.5 322,-131.5 322,-112.5 209,-112.5"/>
<text text-anchor="middle" x="265.5" y="-119.5" font-family="Helvetica,sans-Serif" font-size="10.00">Core/Utils/Index.hpp</text>
</a>
</g>
</g>
<!-- Node12&#45;&gt;Node13 -->
<g id="edge12" class="edge"><title>Node12&#45;&gt;Node13</title>
<path fill="none" stroke="midnightblue" d="M257.48,-224.34C249.428,-215.932 238.202,-202.363 233.5,-188 227.85,-170.742 238.751,-152.276 249.331,-139.454"/>
<polygon fill="midnightblue" stroke="midnightblue" points="252.014,-141.704 256.06,-131.912 246.791,-137.043 252.014,-141.704"/>
</g>
<!-- Node16 -->
<g id="node16" class="node"><title>Node16</title>
<polygon fill="white" stroke="#bfbfbf" points="475.5,-112.5 475.5,-131.5 543.5,-131.5 543.5,-112.5 475.5,-112.5"/>
<text text-anchor="middle" x="509.5" y="-119.5" font-family="Helvetica,sans-Serif" font-size="10.00">Eigen/Core</text>
</g>
<!-- Node12&#45;&gt;Node16 -->
<g id="edge15" class="edge"><title>Node12&#45;&gt;Node16</title>
<path fill="none" stroke="midnightblue" d="M264.167,-224.149C261.102,-210.305 257.607,-183.514 271.5,-168 296.627,-139.942 403.126,-129.117 464.813,-125.146"/>
<polygon fill="midnightblue" stroke="midnightblue" points="465.276,-128.624 475.045,-124.523 464.851,-121.637 465.276,-128.624"/>
</g>
<!-- Node17 -->
<g id="node17" class="node"><title>Node17</title>
<polygon fill="white" stroke="#bfbfbf" points="638.5,-112.5 638.5,-131.5 732.5,-131.5 732.5,-112.5 638.5,-112.5"/>
<text text-anchor="middle" x="685.5" y="-119.5" font-family="Helvetica,sans-Serif" font-size="10.00">Eigen/Geometry</text>
</g>
<!-- Node12&#45;&gt;Node17 -->
<g id="edge16" class="edge"><title>Node12&#45;&gt;Node17</title>
<path fill="none" stroke="midnightblue" d="M268.907,-224.065C273.316,-209.596 284.158,-181.317 304.5,-168 331.007,-150.646 528.573,-134.231 628.283,-126.945"/>
<polygon fill="midnightblue" stroke="midnightblue" points="628.769,-130.419 638.49,-126.206 628.263,-123.437 628.769,-130.419"/>
</g>
<!-- Node18 -->
<g id="node18" class="node"><title>Node18</title>
<g id="a_node18"><a xlink:href="Component_8inl.html" target="_top" xlink:title="Engine/Component/Component.inl">
<polygon fill="white" stroke="black" points="0,-168.5 0,-187.5 181,-187.5 181,-168.5 0,-168.5"/>
<text text-anchor="middle" x="90.5" y="-175.5" font-family="Helvetica,sans-Serif" font-size="10.00">Engine/Component/Component.inl</text>
</a>
</g>
</g>
<!-- Node12&#45;&gt;Node18 -->
<g id="edge19" class="edge"><title>Node12&#45;&gt;Node18</title>
<path fill="none" stroke="midnightblue" d="M233.524,-224.444C201.785,-215.32 154.312,-200.813 122.805,-190.651"/>
<polygon fill="midnightblue" stroke="midnightblue" points="123.77,-187.284 113.177,-187.516 121.603,-193.94 123.77,-187.284"/>
</g>
<!-- Node14 -->
<g id="node14" class="node"><title>Node14</title>
<polygon fill="white" stroke="#bfbfbf" points="290.5,-56.5 290.5,-75.5 332.5,-75.5 332.5,-56.5 290.5,-56.5"/>
<text text-anchor="middle" x="311.5" y="-63.5" font-family="Helvetica,sans-Serif" font-size="10.00">limits</text>
</g>
<!-- Node13&#45;&gt;Node14 -->
<g id="edge13" class="edge"><title>Node13&#45;&gt;Node14</title>
<path fill="none" stroke="midnightblue" d="M273.096,-112.083C279.727,-104.298 289.521,-92.8015 297.558,-83.3665"/>
<polygon fill="midnightblue" stroke="midnightblue" points="300.225,-85.6332 304.045,-75.7511 294.896,-81.0939 300.225,-85.6332"/>
</g>
<!-- Node15 -->
<g id="node15" class="node"><title>Node15</title>
<g id="a_node15"><a xlink:href="Index_8inl.html" target="_top" xlink:title="Core/Utils/Index.inl">
<polygon fill="white" stroke="black" points="167,-56.5 167,-75.5 272,-75.5 272,-56.5 167,-56.5"/>
<text text-anchor="middle" x="219.5" y="-63.5" font-family="Helvetica,sans-Serif" font-size="10.00">Core/Utils/Index.inl</text>
</a>
</g>
</g>
<!-- Node13&#45;&gt;Node15 -->
<g id="edge14" class="edge"><title>Node13&#45;&gt;Node15</title>
<path fill="none" stroke="midnightblue" d="M257.904,-112.083C251.273,-104.298 241.479,-92.8015 233.442,-83.3665"/>
<polygon fill="midnightblue" stroke="midnightblue" points="236.104,-81.0939 226.955,-75.7511 230.775,-85.6332 236.104,-81.0939"/>
</g>
<!-- Node18&#45;&gt;Node12 -->
<g id="edge20" class="edge"><title>Node18&#45;&gt;Node12</title>
<path fill="none" stroke="midnightblue" d="M123.337,-187.516C155.03,-196.625 202.503,-211.129 234.056,-221.304"/>
<polygon fill="midnightblue" stroke="midnightblue" points="233.109,-224.677 243.701,-224.444 235.275,-218.02 233.109,-224.677"/>
</g>
<!-- Node19&#45;&gt;Node3 -->
<g id="edge22" class="edge"><title>Node19&#45;&gt;Node3</title>
<path fill="none" stroke="midnightblue" d="M753.432,-225.605C680.522,-217.133 557.581,-202.676 441.252,-188.08"/>
<polygon fill="midnightblue" stroke="midnightblue" points="441.458,-184.579 431.099,-186.804 440.585,-191.524 441.458,-184.579"/>
</g>
<!-- Node19&#45;&gt;Node9 -->
<g id="edge25" class="edge"><title>Node19&#45;&gt;Node9</title>
<path fill="none" stroke="midnightblue" d="M881.726,-233.993C969.201,-233.813 1118.91,-227.531 1153.5,-188 1192.74,-143.15 1172.53,-64.6718 1160.42,-29.2566"/>
<polygon fill="midnightblue" stroke="midnightblue" points="1163.67,-27.96 1157,-19.7331 1157.09,-30.3276 1163.67,-27.96"/>
</g>
<!-- Node19&#45;&gt;Node11 -->
<g id="edge26" class="edge"><title>Node19&#45;&gt;Node11</title>
<path fill="none" stroke="midnightblue" d="M766.403,-224.494C720.404,-216.568 650.762,-203.902 581.069,-187.981"/>
<polygon fill="midnightblue" stroke="midnightblue" points="581.767,-184.551 571.237,-185.713 580.194,-191.371 581.767,-184.551"/>
</g>
<!-- Node20 -->
<g id="node20" class="node"><title>Node20</title>
<polygon fill="white" stroke="#bfbfbf" points="762,-168.5 762,-187.5 809,-187.5 809,-168.5 762,-168.5"/>
<text text-anchor="middle" x="785.5" y="-175.5" font-family="Helvetica,sans-Serif" font-size="10.00">mutex</text>
</g>
<!-- Node19&#45;&gt;Node20 -->
<g id="edge23" class="edge"><title>Node19&#45;&gt;Node20</title>
<path fill="none" stroke="midnightblue" d="M812.216,-224.083C807.789,-216.613 801.337,-205.724 795.882,-196.52"/>
<polygon fill="midnightblue" stroke="midnightblue" points="798.795,-194.57 790.686,-187.751 792.773,-198.138 798.795,-194.57"/>
</g>
<!-- Node21 -->
<g id="node21" class="node"><title>Node21</title>
<polygon fill="white" stroke="#bfbfbf" points="827.5,-168.5 827.5,-187.5 871.5,-187.5 871.5,-168.5 827.5,-168.5"/>
<text text-anchor="middle" x="849.5" y="-175.5" font-family="Helvetica,sans-Serif" font-size="10.00">string</text>
</g>
<!-- Node19&#45;&gt;Node21 -->
<g id="edge24" class="edge"><title>Node19&#45;&gt;Node21</title>
<path fill="none" stroke="midnightblue" d="M822.784,-224.083C827.211,-216.613 833.663,-205.724 839.118,-196.52"/>
<polygon fill="midnightblue" stroke="midnightblue" points="842.227,-198.138 844.314,-187.751 836.205,-194.57 842.227,-198.138"/>
</g>
<!-- Node22 -->
<g id="node22" class="node"><title>Node22</title>
<g id="a_node22"><a xlink:href="Types_8hpp.html" target="_top" xlink:title="Core/Math/Types.hpp">
<polygon fill="white" stroke="black" points="1028.5,-168.5 1028.5,-187.5 1144.5,-187.5 1144.5,-168.5 1028.5,-168.5"/>
<text text-anchor="middle" x="1086.5" y="-175.5" font-family="Helvetica,sans-Serif" font-size="10.00">Core/Math/Types.hpp</text>
</a>
</g>
</g>
<!-- Node19&#45;&gt;Node22 -->
<g id="edge27" class="edge"><title>Node19&#45;&gt;Node22</title>
<path fill="none" stroke="midnightblue" d="M860.124,-224.444C907.247,-214.984 983.192,-199.738 1033.96,-189.547"/>
<polygon fill="midnightblue" stroke="midnightblue" points="1034.96,-192.916 1044.08,-187.516 1033.58,-186.053 1034.96,-192.916"/>
</g>
<!-- Node25 -->
<g id="node25" class="node"><title>Node25</title>
<g id="a_node25"><a xlink:href="IndexedObject_8hpp.html" target="_top" xlink:title="Core/Utils/IndexedObject.hpp">
<polygon fill="white" stroke="black" points="589,-168.5 589,-187.5 744,-187.5 744,-168.5 589,-168.5"/>
<text text-anchor="middle" x="666.5" y="-175.5" font-family="Helvetica,sans-Serif" font-size="10.00">Core/Utils/IndexedObject.hpp</text>
</a>
</g>
</g>
<!-- Node19&#45;&gt;Node25 -->
<g id="edge33" class="edge"><title>Node19&#45;&gt;Node25</title>
<path fill="none" stroke="midnightblue" d="M793.574,-224.444C768.281,-215.399 728.198,-201.064 699.82,-190.916"/>
<polygon fill="midnightblue" stroke="midnightblue" points="700.909,-187.588 690.314,-187.516 698.552,-194.179 700.909,-187.588"/>
</g>
<!-- Node26 -->
<g id="node26" class="node"><title>Node26</title>
<g id="a_node26"><a xlink:href="Entity_8inl.html" target="_top" xlink:title="Engine/Entity/Entity.inl">
<polygon fill="white" stroke="black" points="889,-168.5 889,-187.5 1010,-187.5 1010,-168.5 889,-168.5"/>
<text text-anchor="middle" x="949.5" y="-175.5" font-family="Helvetica,sans-Serif" font-size="10.00">Engine/Entity/Entity.inl</text>
</a>
</g>
</g>
<!-- Node19&#45;&gt;Node26 -->
<g id="edge36" class="edge"><title>Node19&#45;&gt;Node26</title>
<path fill="none" stroke="midnightblue" d="M833.327,-224.444C853.277,-215.478 887.679,-201.314 913.97,-191.183"/>
<polygon fill="midnightblue" stroke="midnightblue" points="915.501,-194.345 923.602,-187.516 913.011,-187.803 915.501,-194.345"/>
</g>
<!-- Node22&#45;&gt;Node16 -->
<g id="edge30" class="edge"><title>Node22&#45;&gt;Node16</title>
<path fill="none" stroke="midnightblue" d="M1028.42,-169.033C1025.4,-168.671 1022.42,-168.324 1019.5,-168 847.598,-148.88 642.361,-132.827 553.787,-126.225"/>
<polygon fill="midnightblue" stroke="midnightblue" points="553.805,-122.717 543.573,-125.468 553.287,-129.698 553.805,-122.717"/>
</g>
<!-- Node22&#45;&gt;Node17 -->
<g id="edge31" class="edge"><title>Node22&#45;&gt;Node17</title>
<path fill="none" stroke="midnightblue" d="M1028.19,-169.148C951.845,-158.867 818.83,-140.955 742.925,-130.733"/>
<polygon fill="midnightblue" stroke="midnightblue" points="742.983,-127.209 732.605,-129.343 742.048,-134.147 742.983,-127.209"/>
</g>
<!-- Node23 -->
<g id="node23" class="node"><title>Node23</title>
<g id="a_node23"><a xlink:href="RaCore_8hpp.html" target="_top" xlink:title="Core/RaCore.hpp">
<polygon fill="white" stroke="black" points="904.5,-112.5 904.5,-131.5 1002.5,-131.5 1002.5,-112.5 904.5,-112.5"/>
<text text-anchor="middle" x="953.5" y="-119.5" font-family="Helvetica,sans-Serif" font-size="10.00">Core/RaCore.hpp</text>
</a>
</g>
</g>
<!-- Node22&#45;&gt;Node23 -->
<g id="edge28" class="edge"><title>Node22&#45;&gt;Node23</title>
<path fill="none" stroke="midnightblue" d="M1065.43,-168.444C1043.44,-159.517 1008.77,-145.439 983.836,-135.317"/>
<polygon fill="midnightblue" stroke="midnightblue" points="985.058,-132.035 974.476,-131.516 982.424,-138.521 985.058,-132.035"/>
</g>
<!-- Node24 -->
<g id="node24" class="node"><title>Node24</title>
<polygon fill="white" stroke="#bfbfbf" points="1046.5,-112.5 1046.5,-131.5 1126.5,-131.5 1126.5,-112.5 1046.5,-112.5"/>
<text text-anchor="middle" x="1086.5" y="-119.5" font-family="Helvetica,sans-Serif" font-size="10.00">Eigen/Sparse</text>
</g>
<!-- Node22&#45;&gt;Node24 -->
<g id="edge32" class="edge"><title>Node22&#45;&gt;Node24</title>
<path fill="none" stroke="midnightblue" d="M1086.5,-168.083C1086.5,-161.006 1086.5,-150.861 1086.5,-141.986"/>
<polygon fill="midnightblue" stroke="midnightblue" points="1090,-141.751 1086.5,-131.751 1083,-141.751 1090,-141.751"/>
</g>
<!-- Node23&#45;&gt;Node4 -->
<g id="edge29" class="edge"><title>Node23&#45;&gt;Node4</title>
<path fill="none" stroke="midnightblue" d="M953.5,-112.083C953.5,-105.006 953.5,-94.8611 953.5,-85.9865"/>
<polygon fill="midnightblue" stroke="midnightblue" points="957,-85.751 953.5,-75.7511 950,-85.7511 957,-85.751"/>
</g>
<!-- Node25&#45;&gt;Node13 -->
<g id="edge35" class="edge"><title>Node25&#45;&gt;Node13</title>
<path fill="none" stroke="midnightblue" d="M602.96,-168.444C529.138,-158.502 407.865,-142.171 332.569,-132.032"/>
<polygon fill="midnightblue" stroke="midnightblue" points="332.636,-128.509 322.259,-130.643 331.702,-135.447 332.636,-128.509"/>
</g>
<!-- Node25&#45;&gt;Node23 -->
<g id="edge34" class="edge"><title>Node25&#45;&gt;Node23</title>
<path fill="none" stroke="midnightblue" d="M711.976,-168.444C762.462,-158.944 843.956,-143.611 898.12,-133.42"/>
<polygon fill="midnightblue" stroke="midnightblue" points="899.056,-136.805 908.237,-131.516 897.762,-129.926 899.056,-136.805"/>
</g>
<!-- Node26&#45;&gt;Node19 -->
<g id="edge37" class="edge"><title>Node26&#45;&gt;Node19</title>
<path fill="none" stroke="midnightblue" d="M933.762,-187.516C913.855,-196.467 879.463,-210.629 853.148,-220.772"/>
<polygon fill="midnightblue" stroke="midnightblue" points="851.605,-217.614 843.505,-224.444 854.095,-224.156 851.605,-217.614"/>
</g>
</g>
</svg>
