<?xml version="1.0" encoding="UTF-8" standalone="no"?>
<!DOCTYPE svg PUBLIC "-//W3C//DTD SVG 1.1//EN"
 "http://www.w3.org/Graphics/SVG/1.1/DTD/svg11.dtd">
<!-- Generated by graphviz version 2.38.0 (20140413.2041)
 -->
<!-- Title: /home/travis/build/STORM&#45;IRIT/Radium&#45;Engine/src/Engine/System/System.hpp Pages: 1 -->
<svg width="3124pt" height="406pt"
 viewBox="0.00 0.00 3123.50 406.00" xmlns="http://www.w3.org/2000/svg" xmlns:xlink="http://www.w3.org/1999/xlink">
<g id="graph0" class="graph" transform="scale(1 1) rotate(0) translate(4 402)">
<title>/home/travis/build/STORM&#45;IRIT/Radium&#45;Engine/src/Engine/System/System.hpp</title>
<polygon fill="white" stroke="none" points="-4,4 -4,-402 3119.5,-402 3119.5,4 -4,4"/>
<!-- Node1 -->
<g id="node1" class="node"><title>Node1</title>
<polygon fill="#bfbfbf" stroke="black" points="1231.5,-356.5 1231.5,-397.5 1401.5,-397.5 1401.5,-356.5 1231.5,-356.5"/>
<text text-anchor="start" x="1239.5" y="-385.5" font-family="Helvetica,sans-Serif" font-size="10.00">/home/travis/build</text>
<text text-anchor="start" x="1239.5" y="-374.5" font-family="Helvetica,sans-Serif" font-size="10.00">/STORM&#45;IRIT/Radium&#45;Engine</text>
<text text-anchor="middle" x="1316.5" y="-363.5" font-family="Helvetica,sans-Serif" font-size="10.00">/src/Engine/System/System.hpp</text>
</g>
<!-- Node2 -->
<g id="node2" class="node"><title>Node2</title>
<g id="a_node2"><a xlink:href="Component_8cpp.html" target="_top" xlink:title="/home/travis/build\l/STORM&#45;IRIT/Radium&#45;Engine\l/src/Engine/Component/Component.cpp">
<polygon fill="white" stroke="black" points="114.5,-273 114.5,-314 322.5,-314 322.5,-273 114.5,-273"/>
<text text-anchor="start" x="122.5" y="-302" font-family="Helvetica,sans-Serif" font-size="10.00">/home/travis/build</text>
<text text-anchor="start" x="122.5" y="-291" font-family="Helvetica,sans-Serif" font-size="10.00">/STORM&#45;IRIT/Radium&#45;Engine</text>
<text text-anchor="middle" x="218.5" y="-280" font-family="Helvetica,sans-Serif" font-size="10.00">/src/Engine/Component/Component.cpp</text>
</a>
</g>
</g>
<!-- Node1&#45;&gt;Node2 -->
<g id="edge1" class="edge"><title>Node1&#45;&gt;Node2</title>
<path fill="none" stroke="midnightblue" d="M1221.36,-375.796C1044.99,-374.266 655.757,-365.486 331.5,-320 320.347,-318.435 308.666,-316.335 297.222,-314.008"/>
<polygon fill="midnightblue" stroke="midnightblue" points="1221.36,-379.296 1231.38,-375.877 1221.41,-372.297 1221.36,-379.296"/>
</g>
<!-- Node3 -->
<g id="node3" class="node"><title>Node3</title>
<g id="a_node3"><a xlink:href="Entity_8cpp.html" target="_top" xlink:title="/home/travis/build\l/STORM&#45;IRIT/Radium&#45;Engine\l/src/Engine/Entity/Entity.cpp">
<polygon fill="white" stroke="black" points="340.5,-273 340.5,-314 488.5,-314 488.5,-273 340.5,-273"/>
<text text-anchor="start" x="348.5" y="-302" font-family="Helvetica,sans-Serif" font-size="10.00">/home/travis/build</text>
<text text-anchor="start" x="348.5" y="-291" font-family="Helvetica,sans-Serif" font-size="10.00">/STORM&#45;IRIT/Radium&#45;Engine</text>
<text text-anchor="middle" x="414.5" y="-280" font-family="Helvetica,sans-Serif" font-size="10.00">/src/Engine/Entity/Entity.cpp</text>
</a>
</g>
</g>
<!-- Node1&#45;&gt;Node3 -->
<g id="edge2" class="edge"><title>Node1&#45;&gt;Node3</title>
<path fill="none" stroke="midnightblue" d="M1221.06,-376.544C1067.36,-375.842 756.064,-367.899 497.5,-320 489.2,-318.462 480.559,-316.377 472.124,-314.058"/>
<polygon fill="midnightblue" stroke="midnightblue" points="1221.39,-380.045 1231.4,-376.581 1221.41,-373.045 1221.39,-380.045"/>
</g>
<!-- Node4 -->
<g id="node4" class="node"><title>Node4</title>
<g id="a_node4"><a xlink:href="CameraManager_8hpp.html" target="_top" xlink:title="/home/travis/build\l/STORM&#45;IRIT/Radium&#45;Engine\l/src/Engine/Managers/CameraManager\l/CameraManager.hpp">
<polygon fill="white" stroke="black" points="507,-267.5 507,-319.5 710,-319.5 710,-267.5 507,-267.5"/>
<text text-anchor="start" x="515" y="-307.5" font-family="Helvetica,sans-Serif" font-size="10.00">/home/travis/build</text>
<text text-anchor="start" x="515" y="-296.5" font-family="Helvetica,sans-Serif" font-size="10.00">/STORM&#45;IRIT/Radium&#45;Engine</text>
<text text-anchor="start" x="515" y="-285.5" font-family="Helvetica,sans-Serif" font-size="10.00">/src/Engine/Managers/CameraManager</text>
<text text-anchor="middle" x="608.5" y="-274.5" font-family="Helvetica,sans-Serif" font-size="10.00">/CameraManager.hpp</text>
</a>
</g>
</g>
<!-- Node1&#45;&gt;Node4 -->
<g id="edge3" class="edge"><title>Node1&#45;&gt;Node4</title>
<path fill="none" stroke="midnightblue" d="M1220.89,-365.815C1119.29,-354.896 953.994,-336.85 811.5,-320 778.519,-316.1 742.55,-311.647 710.175,-307.566"/>
<polygon fill="midnightblue" stroke="midnightblue" points="1220.81,-369.327 1231.13,-366.915 1221.56,-362.367 1220.81,-369.327"/>
</g>
<!-- Node10 -->
<g id="node10" class="node"><title>Node10</title>
<g id="a_node10"><a xlink:href="LightManager_8hpp.html" target="_top" xlink:title="/home/travis/build\l/STORM&#45;IRIT/Radium&#45;Engine\l/src/Engine/Managers/LightManager\l/LightManager.hpp">
<polygon fill="white" stroke="black" points="820.5,-267.5 820.5,-319.5 1008.5,-319.5 1008.5,-267.5 820.5,-267.5"/>
<text text-anchor="start" x="828.5" y="-307.5" font-family="Helvetica,sans-Serif" font-size="10.00">/home/travis/build</text>
<text text-anchor="start" x="828.5" y="-296.5" font-family="Helvetica,sans-Serif" font-size="10.00">/STORM&#45;IRIT/Radium&#45;Engine</text>
<text text-anchor="start" x="828.5" y="-285.5" font-family="Helvetica,sans-Serif" font-size="10.00">/src/Engine/Managers/LightManager</text>
<text text-anchor="middle" x="914.5" y="-274.5" font-family="Helvetica,sans-Serif" font-size="10.00">/LightManager.hpp</text>
</a>
</g>
</g>
<!-- Node1&#45;&gt;Node10 -->
<g id="edge9" class="edge"><title>Node1&#45;&gt;Node10</title>
<path fill="none" stroke="midnightblue" d="M1221.22,-358.811C1163.82,-348.201 1089.33,-333.985 1023.5,-320 1018.65,-318.97 1013.69,-317.892 1008.68,-316.787"/>
<polygon fill="midnightblue" stroke="midnightblue" points="1220.9,-362.311 1231.37,-360.682 1222.17,-355.427 1220.9,-362.311"/>
</g>
<!-- Node15 -->
<g id="node15" class="node"><title>Node15</title>
<g id="a_node15"><a xlink:href="RadiumEngine_8cpp.html" target="_top" xlink:title="/home/travis/build\l/STORM&#45;IRIT/Radium&#45;Engine\l/src/Engine/RadiumEngine.cpp">
<polygon fill="white" stroke="black" points="1032,-273 1032,-314 1193,-314 1193,-273 1032,-273"/>
<text text-anchor="start" x="1040" y="-302" font-family="Helvetica,sans-Serif" font-size="10.00">/home/travis/build</text>
<text text-anchor="start" x="1040" y="-291" font-family="Helvetica,sans-Serif" font-size="10.00">/STORM&#45;IRIT/Radium&#45;Engine</text>
<text text-anchor="middle" x="1112.5" y="-280" font-family="Helvetica,sans-Serif" font-size="10.00">/src/Engine/RadiumEngine.cpp</text>
</a>
</g>
</g>
<!-- Node1&#45;&gt;Node15 -->
<g id="edge15" class="edge"><title>Node1&#45;&gt;Node15</title>
<path fill="none" stroke="midnightblue" d="M1258.34,-352.766C1227.67,-340.513 1190.47,-325.651 1161.32,-314.003"/>
<polygon fill="midnightblue" stroke="midnightblue" points="1257.05,-356.019 1267.64,-356.479 1259.65,-349.518 1257.05,-356.019"/>
</g>
<!-- Node16 -->
<g id="node16" class="node"><title>Node16</title>
<g id="a_node16"><a xlink:href="CouplingSystem_8hpp.html" target="_top" xlink:title="/home/travis/build\l/STORM&#45;IRIT/Radium&#45;Engine\l/src/Engine/System/CouplingSystem.hpp">
<polygon fill="white" stroke="black" points="1211,-273 1211,-314 1422,-314 1422,-273 1211,-273"/>
<text text-anchor="start" x="1219" y="-302" font-family="Helvetica,sans-Serif" font-size="10.00">/home/travis/build</text>
<text text-anchor="start" x="1219" y="-291" font-family="Helvetica,sans-Serif" font-size="10.00">/STORM&#45;IRIT/Radium&#45;Engine</text>
<text text-anchor="middle" x="1316.5" y="-280" font-family="Helvetica,sans-Serif" font-size="10.00">/src/Engine/System/CouplingSystem.hpp</text>
</a>
</g>
</g>
<!-- Node1&#45;&gt;Node16 -->
<g id="edge16" class="edge"><title>Node1&#45;&gt;Node16</title>
<path fill="none" stroke="midnightblue" d="M1316.5,-346.065C1316.5,-335.382 1316.5,-323.63 1316.5,-314.047"/>
<polygon fill="midnightblue" stroke="midnightblue" points="1313,-346.271 1316.5,-356.271 1320,-346.271 1313,-346.271"/>
</g>
<!-- Node22 -->
<g id="node22" class="node"><title>Node22</title>
<g id="a_node22"><a xlink:href="GeometrySystem_8hpp.html" target="_top" xlink:title="/home/travis/build\l/STORM&#45;IRIT/Radium&#45;Engine\l/src/Engine/System/GeometrySystem.hpp">
<polygon fill="white" stroke="black" points="1440.5,-273 1440.5,-314 1658.5,-314 1658.5,-273 1440.5,-273"/>
<text text-anchor="start" x="1448.5" y="-302" font-family="Helvetica,sans-Serif" font-size="10.00">/home/travis/build</text>
<text text-anchor="start" x="1448.5" y="-291" font-family="Helvetica,sans-Serif" font-size="10.00">/STORM&#45;IRIT/Radium&#45;Engine</text>
<text text-anchor="middle" x="1549.5" y="-280" font-family="Helvetica,sans-Serif" font-size="10.00">/src/Engine/System/GeometrySystem.hpp</text>
</a>
</g>
</g>
<!-- Node1&#45;&gt;Node22 -->
<g id="edge22" class="edge"><title>Node1&#45;&gt;Node22</title>
<path fill="none" stroke="midnightblue" d="M1382.02,-353.083C1417.22,-340.77 1460.16,-325.751 1493.74,-314.003"/>
<polygon fill="midnightblue" stroke="midnightblue" points="1380.59,-349.873 1372.31,-356.479 1382.9,-356.481 1380.59,-349.873"/>
</g>
<!-- Node25 -->
<g id="node25" class="node"><title>Node25</title>
<g id="a_node25"><a xlink:href="System_8cpp.html" target="_top" xlink:title="/home/travis/build\l/STORM&#45;IRIT/Radium&#45;Engine\l/src/Engine/System/System.cpp">
<polygon fill="white" stroke="black" points="1677,-273 1677,-314 1846,-314 1846,-273 1677,-273"/>
<text text-anchor="start" x="1685" y="-302" font-family="Helvetica,sans-Serif" font-size="10.00">/home/travis/build</text>
<text text-anchor="start" x="1685" y="-291" font-family="Helvetica,sans-Serif" font-size="10.00">/STORM&#45;IRIT/Radium&#45;Engine</text>
<text text-anchor="middle" x="1761.5" y="-280" font-family="Helvetica,sans-Serif" font-size="10.00">/src/Engine/System/System.cpp</text>
</a>
</g>
</g>
<!-- Node1&#45;&gt;Node25 -->
<g id="edge25" class="edge"><title>Node1&#45;&gt;Node25</title>
<path fill="none" stroke="midnightblue" d="M1411.97,-363.575C1482.85,-353.672 1581.67,-338.433 1667.5,-320 1675.77,-318.225 1684.39,-316.17 1692.91,-314.013"/>
<polygon fill="midnightblue" stroke="midnightblue" points="1411.15,-360.156 1401.73,-364.997 1412.11,-367.089 1411.15,-360.156"/>
</g>
<!-- Node26 -->
<g id="node26" class="node"><title>Node26</title>
<g id="a_node26"><a xlink:href="DummySystem_8hpp.html" target="_top" xlink:title="/home/travis/build\l/STORM&#45;IRIT/Radium&#45;Engine\l/Plugins/Dummy/src/DummySystem.hpp">
<polygon fill="white" stroke="black" points="1974,-273 1974,-314 2185,-314 2185,-273 1974,-273"/>
<text text-anchor="start" x="1982" y="-302" font-family="Helvetica,sans-Serif" font-size="10.00">/home/travis/build</text>
<text text-anchor="start" x="1982" y="-291" font-family="Helvetica,sans-Serif" font-size="10.00">/STORM&#45;IRIT/Radium&#45;Engine</text>
<text text-anchor="middle" x="2079.5" y="-280" font-family="Helvetica,sans-Serif" font-size="10.00">/Plugins/Dummy/src/DummySystem.hpp</text>
</a>
</g>
</g>
<!-- Node1&#45;&gt;Node26 -->
<g id="edge26" class="edge"><title>Node1&#45;&gt;Node26</title>
<path fill="none" stroke="midnightblue" d="M1412.14,-366.349C1519.92,-355.408 1700.34,-336.892 1855.5,-320 1894.12,-315.796 1936.46,-311.019 1973.84,-306.745"/>
<polygon fill="midnightblue" stroke="midnightblue" points="1411.54,-362.893 1401.94,-367.384 1412.25,-369.857 1411.54,-362.893"/>
</g>
<!-- Node30 -->
<g id="node30" class="node"><title>Node30</title>
<g id="a_node30"><a xlink:href="MeshPaintSystem_8hpp.html" target="_top" xlink:title="/home/travis/build\l/STORM&#45;IRIT/Radium&#45;Engine\l/Plugins/MeshPaint/src/MeshPaint\lSystem.hpp">
<polygon fill="white" stroke="black" points="2525.5,-267.5 2525.5,-319.5 2699.5,-319.5 2699.5,-267.5 2525.5,-267.5"/>
<text text-anchor="start" x="2533.5" y="-307.5" font-family="Helvetica,sans-Serif" font-size="10.00">/home/travis/build</text>
<text text-anchor="start" x="2533.5" y="-296.5" font-family="Helvetica,sans-Serif" font-size="10.00">/STORM&#45;IRIT/Radium&#45;Engine</text>
<text text-anchor="start" x="2533.5" y="-285.5" font-family="Helvetica,sans-Serif" font-size="10.00">/Plugins/MeshPaint/src/MeshPaint</text>
<text text-anchor="middle" x="2612.5" y="-274.5" font-family="Helvetica,sans-Serif" font-size="10.00">System.hpp</text>
</a>
</g>
</g>
<!-- Node1&#45;&gt;Node30 -->
<g id="edge30" class="edge"><title>Node1&#45;&gt;Node30</title>
<path fill="none" stroke="midnightblue" d="M1411.74,-370.011C1654.21,-354.763 2292.16,-314.645 2525.45,-299.974"/>
<polygon fill="midnightblue" stroke="midnightblue" points="1411.29,-366.532 1401.53,-370.653 1411.73,-373.518 1411.29,-366.532"/>
</g>
<!-- Node33 -->
<g id="node33" class="node"><title>Node33</title>
<g id="a_node33"><a xlink:href="SkinningSystem_8hpp.html" target="_top" xlink:title="/home/travis/build\l/STORM&#45;IRIT/Radium&#45;Engine\l/Plugins/Skinning/src/SkinningSystem.hpp">
<polygon fill="white" stroke="black" points="2811,-273 2811,-314 3026,-314 3026,-273 2811,-273"/>
<text text-anchor="start" x="2819" y="-302" font-family="Helvetica,sans-Serif" font-size="10.00">/home/travis/build</text>
<text text-anchor="start" x="2819" y="-291" font-family="Helvetica,sans-Serif" font-size="10.00">/STORM&#45;IRIT/Radium&#45;Engine</text>
<text text-anchor="middle" x="2918.5" y="-280" font-family="Helvetica,sans-Serif" font-size="10.00">/Plugins/Skinning/src/SkinningSystem.hpp</text>
</a>
</g>
</g>
<!-- Node1&#45;&gt;Node33 -->
<g id="edge33" class="edge"><title>Node1&#45;&gt;Node33</title>
<path fill="none" stroke="midnightblue" d="M1411.93,-374.81C1637.68,-371.418 2222.07,-359.254 2708.5,-320 2741.81,-317.312 2777.98,-313.313 2810.76,-309.274"/>
<polygon fill="midnightblue" stroke="midnightblue" points="1411.73,-371.313 1401.78,-374.961 1411.83,-378.312 1411.73,-371.313"/>
</g>
<!-- Node5 -->
<g id="node5" class="node"><title>Node5</title>
<g id="a_node5"><a xlink:href="CameraManager_8cpp.html" target="_top" xlink:title="/home/travis/build\l/STORM&#45;IRIT/Radium&#45;Engine\l/src/Engine/Managers/CameraManager\l/CameraManager.cpp">
<polygon fill="white" stroke="black" points="0,-178.5 0,-230.5 203,-230.5 203,-178.5 0,-178.5"/>
<text text-anchor="start" x="8" y="-218.5" font-family="Helvetica,sans-Serif" font-size="10.00">/home/travis/build</text>
<text text-anchor="start" x="8" y="-207.5" font-family="Helvetica,sans-Serif" font-size="10.00">/STORM&#45;IRIT/Radium&#45;Engine</text>
<text text-anchor="start" x="8" y="-196.5" font-family="Helvetica,sans-Serif" font-size="10.00">/src/Engine/Managers/CameraManager</text>
<text text-anchor="middle" x="101.5" y="-185.5" font-family="Helvetica,sans-Serif" font-size="10.00">/CameraManager.cpp</text>
</a>
</g>
</g>
<!-- Node4&#45;&gt;Node5 -->
<g id="edge4" class="edge"><title>Node4&#45;&gt;Node5</title>
<path fill="none" stroke="midnightblue" d="M496.825,-266.969C369.582,-245.06 334.421,-252.924 211.5,-231 208.702,-230.501 205.867,-229.976 203.01,-229.431"/>
<polygon fill="midnightblue" stroke="midnightblue" points="496.506,-270.466 506.96,-268.743 497.713,-263.571 496.506,-270.466"/>
</g>
<!-- Node6 -->
<g id="node6" class="node"><title>Node6</title>
<g id="a_node6"><a xlink:href="DefaultCameraManager_8hpp.html" target="_top" xlink:title="/home/travis/build\l/STORM&#45;IRIT/Radium&#45;Engine\l/src/Engine/Managers/CameraManager\l/DefaultCameraManager.hpp">
<polygon fill="white" stroke="black" points="221,-178.5 221,-230.5 424,-230.5 424,-178.5 221,-178.5"/>
<text text-anchor="start" x="229" y="-218.5" font-family="Helvetica,sans-Serif" font-size="10.00">/home/travis/build</text>
<text text-anchor="start" x="229" y="-207.5" font-family="Helvetica,sans-Serif" font-size="10.00">/STORM&#45;IRIT/Radium&#45;Engine</text>
<text text-anchor="start" x="229" y="-196.5" font-family="Helvetica,sans-Serif" font-size="10.00">/src/Engine/Managers/CameraManager</text>
<text text-anchor="middle" x="322.5" y="-185.5" font-family="Helvetica,sans-Serif" font-size="10.00">/DefaultCameraManager.hpp</text>
</a>
</g>
</g>
<!-- Node4&#45;&gt;Node6 -->
<g id="edge5" class="edge"><title>Node4&#45;&gt;Node6</title>
<path fill="none" stroke="midnightblue" d="M516.186,-264.418C480.328,-253.511 439.587,-241.117 404.753,-230.521"/>
<polygon fill="midnightblue" stroke="midnightblue" points="515.575,-267.891 526.161,-267.453 517.612,-261.194 515.575,-267.891"/>
</g>
<!-- Node9 -->
<g id="node9" class="node"><title>Node9</title>
<g id="a_node9"><a xlink:href="CameraManipPlugin_8cpp.html" target="_top" xlink:title="/home/travis/build\l/STORM&#45;IRIT/Radium&#45;Engine\l/Plugins/CameraManip/src\l/CameraManipPlugin.cpp">
<polygon fill="white" stroke="black" points="442.5,-178.5 442.5,-230.5 590.5,-230.5 590.5,-178.5 442.5,-178.5"/>
<text text-anchor="start" x="450.5" y="-218.5" font-family="Helvetica,sans-Serif" font-size="10.00">/home/travis/build</text>
<text text-anchor="start" x="450.5" y="-207.5" font-family="Helvetica,sans-Serif" font-size="10.00">/STORM&#45;IRIT/Radium&#45;Engine</text>
<text text-anchor="start" x="450.5" y="-196.5" font-family="Helvetica,sans-Serif" font-size="10.00">/Plugins/CameraManip/src</text>
<text text-anchor="middle" x="516.5" y="-185.5" font-family="Helvetica,sans-Serif" font-size="10.00">/CameraManipPlugin.cpp</text>
</a>
</g>
</g>
<!-- Node4&#45;&gt;Node9 -->
<g id="edge8" class="edge"><title>Node4&#45;&gt;Node9</title>
<path fill="none" stroke="midnightblue" d="M574.516,-260.363C564.131,-250.542 552.866,-239.89 543.05,-230.607"/>
<polygon fill="midnightblue" stroke="midnightblue" points="572.219,-263.008 581.89,-267.336 577.029,-257.922 572.219,-263.008"/>
</g>
<!-- Node7 -->
<g id="node7" class="node"><title>Node7</title>
<g id="a_node7"><a xlink:href="DefaultCameraManager_8cpp.html" target="_top" xlink:title="/home/travis/build\l/STORM&#45;IRIT/Radium&#45;Engine\l/src/Engine/Managers/CameraManager\l/DefaultCameraManager.cpp">
<polygon fill="white" stroke="black" points="212,-89.5 212,-141.5 415,-141.5 415,-89.5 212,-89.5"/>
<text text-anchor="start" x="220" y="-129.5" font-family="Helvetica,sans-Serif" font-size="10.00">/home/travis/build</text>
<text text-anchor="start" x="220" y="-118.5" font-family="Helvetica,sans-Serif" font-size="10.00">/STORM&#45;IRIT/Radium&#45;Engine</text>
<text text-anchor="start" x="220" y="-107.5" font-family="Helvetica,sans-Serif" font-size="10.00">/src/Engine/Managers/CameraManager</text>
<text text-anchor="middle" x="313.5" y="-96.5" font-family="Helvetica,sans-Serif" font-size="10.00">/DefaultCameraManager.cpp</text>
</a>
</g>
</g>
<!-- Node6&#45;&gt;Node7 -->
<g id="edge6" class="edge"><title>Node6&#45;&gt;Node7</title>
<path fill="none" stroke="midnightblue" d="M318.847,-168.191C317.926,-159.282 316.955,-149.899 316.097,-141.607"/>
<polygon fill="midnightblue" stroke="midnightblue" points="315.386,-168.749 319.897,-178.336 322.349,-168.029 315.386,-168.749"/>
</g>
<!-- Node8 -->
<g id="node8" class="node"><title>Node8</title>
<g id="a_node8"><a xlink:href="ForwardRenderer_8cpp.html" target="_top" xlink:title="/home/travis/build\l/STORM&#45;IRIT/Radium&#45;Engine\l/src/Engine/Renderer/Renderers\l/ForwardRenderer.cpp">
<polygon fill="white" stroke="black" points="433.5,-89.5 433.5,-141.5 599.5,-141.5 599.5,-89.5 433.5,-89.5"/>
<text text-anchor="start" x="441.5" y="-129.5" font-family="Helvetica,sans-Serif" font-size="10.00">/home/travis/build</text>
<text text-anchor="start" x="441.5" y="-118.5" font-family="Helvetica,sans-Serif" font-size="10.00">/STORM&#45;IRIT/Radium&#45;Engine</text>
<text text-anchor="start" x="441.5" y="-107.5" font-family="Helvetica,sans-Serif" font-size="10.00">/src/Engine/Renderer/Renderers</text>
<text text-anchor="middle" x="516.5" y="-96.5" font-family="Helvetica,sans-Serif" font-size="10.00">/ForwardRenderer.cpp</text>
</a>
</g>
</g>
<!-- Node6&#45;&gt;Node8 -->
<g id="edge7" class="edge"><title>Node6&#45;&gt;Node8</title>
<path fill="none" stroke="midnightblue" d="M387.625,-174.295C411.327,-163.665 437.885,-151.755 460.706,-141.521"/>
<polygon fill="midnightblue" stroke="midnightblue" points="386.045,-171.167 378.353,-178.453 388.909,-177.554 386.045,-171.167"/>
</g>
<!-- Node11 -->
<g id="node11" class="node"><title>Node11</title>
<g id="a_node11"><a xlink:href="DefaultLightManager_8hpp.html" target="_top" xlink:title="/home/travis/build\l/STORM&#45;IRIT/Radium&#45;Engine\l/src/Engine/Managers/LightManager\l/DefaultLightManager.hpp">
<polygon fill="white" stroke="black" points="608.5,-178.5 608.5,-230.5 796.5,-230.5 796.5,-178.5 608.5,-178.5"/>
<text text-anchor="start" x="616.5" y="-218.5" font-family="Helvetica,sans-Serif" font-size="10.00">/home/travis/build</text>
<text text-anchor="start" x="616.5" y="-207.5" font-family="Helvetica,sans-Serif" font-size="10.00">/STORM&#45;IRIT/Radium&#45;Engine</text>
<text text-anchor="start" x="616.5" y="-196.5" font-family="Helvetica,sans-Serif" font-size="10.00">/src/Engine/Managers/LightManager</text>
<text text-anchor="middle" x="702.5" y="-185.5" font-family="Helvetica,sans-Serif" font-size="10.00">/DefaultLightManager.hpp</text>
</a>
</g>
</g>
<!-- Node10&#45;&gt;Node11 -->
<g id="edge10" class="edge"><title>Node10&#45;&gt;Node11</title>
<path fill="none" stroke="midnightblue" d="M844.019,-263.576C817.946,-252.876 788.63,-240.846 763.471,-230.521"/>
<polygon fill="midnightblue" stroke="midnightblue" points="842.885,-266.894 853.465,-267.453 845.543,-260.418 842.885,-266.894"/>
</g>
<!-- Node13 -->
<g id="node13" class="node"><title>Node13</title>
<g id="a_node13"><a xlink:href="LightManager_8cpp.html" target="_top" xlink:title="/home/travis/build\l/STORM&#45;IRIT/Radium&#45;Engine\l/src/Engine/Managers/LightManager\l/LightManager.cpp">
<polygon fill="white" stroke="black" points="814.5,-178.5 814.5,-230.5 1002.5,-230.5 1002.5,-178.5 814.5,-178.5"/>
<text text-anchor="start" x="822.5" y="-218.5" font-family="Helvetica,sans-Serif" font-size="10.00">/home/travis/build</text>
<text text-anchor="start" x="822.5" y="-207.5" font-family="Helvetica,sans-Serif" font-size="10.00">/STORM&#45;IRIT/Radium&#45;Engine</text>
<text text-anchor="start" x="822.5" y="-196.5" font-family="Helvetica,sans-Serif" font-size="10.00">/src/Engine/Managers/LightManager</text>
<text text-anchor="middle" x="908.5" y="-185.5" font-family="Helvetica,sans-Serif" font-size="10.00">/LightManager.cpp</text>
</a>
</g>
</g>
<!-- Node10&#45;&gt;Node13 -->
<g id="edge13" class="edge"><title>Node10&#45;&gt;Node13</title>
<path fill="none" stroke="midnightblue" d="M912.065,-257.191C911.451,-248.282 910.803,-238.899 910.232,-230.607"/>
<polygon fill="midnightblue" stroke="midnightblue" points="908.585,-257.601 912.765,-267.336 915.568,-257.119 908.585,-257.601"/>
</g>
<!-- Node14 -->
<g id="node14" class="node"><title>Node14</title>
<g id="a_node14"><a xlink:href="Renderer_8cpp.html" target="_top" xlink:title="/home/travis/build\l/STORM&#45;IRIT/Radium&#45;Engine\l/src/Engine/Renderer/Renderer.cpp">
<polygon fill="white" stroke="black" points="1020.5,-184 1020.5,-225 1200.5,-225 1200.5,-184 1020.5,-184"/>
<text text-anchor="start" x="1028.5" y="-213" font-family="Helvetica,sans-Serif" font-size="10.00">/home/travis/build</text>
<text text-anchor="start" x="1028.5" y="-202" font-family="Helvetica,sans-Serif" font-size="10.00">/STORM&#45;IRIT/Radium&#45;Engine</text>
<text text-anchor="middle" x="1110.5" y="-191" font-family="Helvetica,sans-Serif" font-size="10.00">/src/Engine/Renderer/Renderer.cpp</text>
</a>
</g>
</g>
<!-- Node10&#45;&gt;Node14 -->
<g id="edge14" class="edge"><title>Node10&#45;&gt;Node14</title>
<path fill="none" stroke="midnightblue" d="M980.349,-263.271C1008.63,-250.719 1040.92,-236.384 1066.27,-225.134"/>
<polygon fill="midnightblue" stroke="midnightblue" points="978.648,-260.197 970.928,-267.453 981.488,-266.595 978.648,-260.197"/>
</g>
<!-- Node11&#45;&gt;Node8 -->
<g id="edge12" class="edge"><title>Node11&#45;&gt;Node8</title>
<path fill="none" stroke="midnightblue" d="M639.554,-174.058C617.023,-163.519 591.854,-151.746 570.178,-141.607"/>
<polygon fill="midnightblue" stroke="midnightblue" points="638.16,-177.269 648.701,-178.336 641.126,-170.929 638.16,-177.269"/>
</g>
<!-- Node12 -->
<g id="node12" class="node"><title>Node12</title>
<g id="a_node12"><a xlink:href="DefaultLightManager_8cpp.html" target="_top" xlink:title="/home/travis/build\l/STORM&#45;IRIT/Radium&#45;Engine\l/src/Engine/Managers/LightManager\l/DefaultLightManager.cpp">
<polygon fill="white" stroke="black" points="617.5,-89.5 617.5,-141.5 805.5,-141.5 805.5,-89.5 617.5,-89.5"/>
<text text-anchor="start" x="625.5" y="-129.5" font-family="Helvetica,sans-Serif" font-size="10.00">/home/travis/build</text>
<text text-anchor="start" x="625.5" y="-118.5" font-family="Helvetica,sans-Serif" font-size="10.00">/STORM&#45;IRIT/Radium&#45;Engine</text>
<text text-anchor="start" x="625.5" y="-107.5" font-family="Helvetica,sans-Serif" font-size="10.00">/src/Engine/Managers/LightManager</text>
<text text-anchor="middle" x="711.5" y="-96.5" font-family="Helvetica,sans-Serif" font-size="10.00">/DefaultLightManager.cpp</text>
</a>
</g>
</g>
<!-- Node11&#45;&gt;Node12 -->
<g id="edge11" class="edge"><title>Node11&#45;&gt;Node12</title>
<path fill="none" stroke="midnightblue" d="M706.153,-168.191C707.074,-159.282 708.045,-149.899 708.903,-141.607"/>
<polygon fill="midnightblue" stroke="midnightblue" points="702.651,-168.029 705.103,-178.336 709.614,-168.749 702.651,-168.029"/>
</g>
<!-- Node17 -->
<g id="node17" class="node"><title>Node17</title>
<g id="a_node17"><a xlink:href="TimedSystem_8hpp.html" target="_top" xlink:title="/home/travis/build\l/STORM&#45;IRIT/Radium&#45;Engine\l/src/Engine/System/TimedSystem.hpp">
<polygon fill="white" stroke="black" points="1219,-184 1219,-225 1418,-225 1418,-184 1219,-184"/>
<text text-anchor="start" x="1227" y="-213" font-family="Helvetica,sans-Serif" font-size="10.00">/home/travis/build</text>
<text text-anchor="start" x="1227" y="-202" font-family="Helvetica,sans-Serif" font-size="10.00">/STORM&#45;IRIT/Radium&#45;Engine</text>
<text text-anchor="middle" x="1318.5" y="-191" font-family="Helvetica,sans-Serif" font-size="10.00">/src/Engine/System/TimedSystem.hpp</text>
</a>
</g>
</g>
<!-- Node16&#45;&gt;Node17 -->
<g id="edge17" class="edge"><title>Node16&#45;&gt;Node17</title>
<path fill="none" stroke="midnightblue" d="M1317.19,-262.441C1317.47,-250.101 1317.8,-236.162 1318.05,-225.164"/>
<polygon fill="midnightblue" stroke="midnightblue" points="1313.68,-262.681 1316.95,-272.758 1320.68,-262.841 1313.68,-262.681"/>
</g>
<!-- Node18 -->
<g id="node18" class="node"><title>Node18</title>
<g id="a_node18"><a xlink:href="TimedSystem_8cpp.html" target="_top" xlink:title="/home/travis/build\l/STORM&#45;IRIT/Radium&#45;Engine\l/src/Engine/System/TimedSystem.cpp">
<polygon fill="white" stroke="black" points="1117.5,-95 1117.5,-136 1315.5,-136 1315.5,-95 1117.5,-95"/>
<text text-anchor="start" x="1125.5" y="-124" font-family="Helvetica,sans-Serif" font-size="10.00">/home/travis/build</text>
<text text-anchor="start" x="1125.5" y="-113" font-family="Helvetica,sans-Serif" font-size="10.00">/STORM&#45;IRIT/Radium&#45;Engine</text>
<text text-anchor="middle" x="1216.5" y="-102" font-family="Helvetica,sans-Serif" font-size="10.00">/src/Engine/System/TimedSystem.cpp</text>
</a>
</g>
</g>
<!-- Node17&#45;&gt;Node18 -->
<g id="edge18" class="edge"><title>Node17&#45;&gt;Node18</title>
<path fill="none" stroke="midnightblue" d="M1287.83,-177.343C1272.37,-164.155 1253.93,-148.423 1239.67,-136.26"/>
<polygon fill="midnightblue" stroke="midnightblue" points="1285.73,-180.149 1295.61,-183.976 1290.27,-174.823 1285.73,-180.149"/>
</g>
<!-- Node19 -->
<g id="node19" class="node"><title>Node19</title>
<g id="a_node19"><a xlink:href="AnimationSystem_8hpp.html" target="_top" xlink:title="/home/travis/build\l/STORM&#45;IRIT/Radium&#45;Engine\l/Plugins/Animation/src/Animation\lSystem.hpp">
<polygon fill="white" stroke="black" points="1333.5,-89.5 1333.5,-141.5 1507.5,-141.5 1507.5,-89.5 1333.5,-89.5"/>
<text text-anchor="start" x="1341.5" y="-129.5" font-family="Helvetica,sans-Serif" font-size="10.00">/home/travis/build</text>
<text text-anchor="start" x="1341.5" y="-118.5" font-family="Helvetica,sans-Serif" font-size="10.00">/STORM&#45;IRIT/Radium&#45;Engine</text>
<text text-anchor="start" x="1341.5" y="-107.5" font-family="Helvetica,sans-Serif" font-size="10.00">/Plugins/Animation/src/Animation</text>
<text text-anchor="middle" x="1420.5" y="-96.5" font-family="Helvetica,sans-Serif" font-size="10.00">System.hpp</text>
</a>
</g>
</g>
<!-- Node17&#45;&gt;Node19 -->
<g id="edge19" class="edge"><title>Node17&#45;&gt;Node19</title>
<path fill="none" stroke="midnightblue" d="M1349.32,-177.21C1362.58,-165.905 1378,-152.752 1391.09,-141.585"/>
<polygon fill="midnightblue" stroke="midnightblue" points="1346.73,-174.823 1341.39,-183.976 1351.27,-180.149 1346.73,-174.823"/>
</g>
<!-- Node20 -->
<g id="node20" class="node"><title>Node20</title>
<g id="a_node20"><a xlink:href="AnimationPlugin_8cpp.html" target="_top" xlink:title="/home/travis/build\l/STORM&#45;IRIT/Radium&#45;Engine\l/Plugins/Animation/src/Animation\lPlugin.cpp">
<polygon fill="white" stroke="black" points="1237.5,-0.5 1237.5,-52.5 1411.5,-52.5 1411.5,-0.5 1237.5,-0.5"/>
<text text-anchor="start" x="1245.5" y="-40.5" font-family="Helvetica,sans-Serif" font-size="10.00">/home/travis/build</text>
<text text-anchor="start" x="1245.5" y="-29.5" font-family="Helvetica,sans-Serif" font-size="10.00">/STORM&#45;IRIT/Radium&#45;Engine</text>
<text text-anchor="start" x="1245.5" y="-18.5" font-family="Helvetica,sans-Serif" font-size="10.00">/Plugins/Animation/src/Animation</text>
<text text-anchor="middle" x="1324.5" y="-7.5" font-family="Helvetica,sans-Serif" font-size="10.00">Plugin.cpp</text>
</a>
</g>
</g>
<!-- Node19&#45;&gt;Node20 -->
<g id="edge20" class="edge"><title>Node19&#45;&gt;Node20</title>
<path fill="none" stroke="midnightblue" d="M1385.04,-82.3631C1374.2,-72.542 1362.45,-61.8899 1352.2,-52.6075"/>
<polygon fill="midnightblue" stroke="midnightblue" points="1382.97,-85.2142 1392.73,-89.336 1387.67,-80.0273 1382.97,-85.2142"/>
</g>
<!-- Node21 -->
<g id="node21" class="node"><title>Node21</title>
<g id="a_node21"><a xlink:href="AnimationSystem_8cpp.html" target="_top" xlink:title="/home/travis/build\l/STORM&#45;IRIT/Radium&#45;Engine\l/Plugins/Animation/src/Animation\lSystem.cpp">
<polygon fill="white" stroke="black" points="1429.5,-0.5 1429.5,-52.5 1603.5,-52.5 1603.5,-0.5 1429.5,-0.5"/>
<text text-anchor="start" x="1437.5" y="-40.5" font-family="Helvetica,sans-Serif" font-size="10.00">/home/travis/build</text>
<text text-anchor="start" x="1437.5" y="-29.5" font-family="Helvetica,sans-Serif" font-size="10.00">/STORM&#45;IRIT/Radium&#45;Engine</text>
<text text-anchor="start" x="1437.5" y="-18.5" font-family="Helvetica,sans-Serif" font-size="10.00">/Plugins/Animation/src/Animation</text>
<text text-anchor="middle" x="1516.5" y="-7.5" font-family="Helvetica,sans-Serif" font-size="10.00">System.cpp</text>
</a>
</g>
</g>
<!-- Node19&#45;&gt;Node21 -->
<g id="edge21" class="edge"><title>Node19&#45;&gt;Node21</title>
<path fill="none" stroke="midnightblue" d="M1455.96,-82.3631C1466.8,-72.542 1478.55,-61.8899 1488.8,-52.6075"/>
<polygon fill="midnightblue" stroke="midnightblue" points="1453.33,-80.0273 1448.27,-89.336 1458.03,-85.2142 1453.33,-80.0273"/>
</g>
<!-- Node23 -->
<g id="node23" class="node"><title>Node23</title>
<g id="a_node23"><a xlink:href="GeometrySystem_8cpp.html" target="_top" xlink:title="/home/travis/build\l/STORM&#45;IRIT/Radium&#45;Engine\l/src/Engine/System/GeometrySystem.cpp">
<polygon fill="white" stroke="black" points="1436,-184 1436,-225 1653,-225 1653,-184 1436,-184"/>
<text text-anchor="start" x="1444" y="-213" font-family="Helvetica,sans-Serif" font-size="10.00">/home/travis/build</text>
<text text-anchor="start" x="1444" y="-202" font-family="Helvetica,sans-Serif" font-size="10.00">/STORM&#45;IRIT/Radium&#45;Engine</text>
<text text-anchor="middle" x="1544.5" y="-191" font-family="Helvetica,sans-Serif" font-size="10.00">/src/Engine/System/GeometrySystem.cpp</text>
</a>
</g>
</g>
<!-- Node22&#45;&gt;Node23 -->
<g id="edge23" class="edge"><title>Node22&#45;&gt;Node23</title>
<path fill="none" stroke="midnightblue" d="M1547.77,-262.441C1547.06,-250.101 1546.26,-236.162 1545.63,-225.164"/>
<polygon fill="midnightblue" stroke="midnightblue" points="1544.3,-262.976 1548.37,-272.758 1551.29,-262.574 1544.3,-262.976"/>
</g>
<!-- Node24 -->
<g id="node24" class="node"><title>Node24</title>
<g id="a_node24"><a xlink:href="BaseApplication_8cpp.html" target="_top" xlink:title="/home/travis/build\l/STORM&#45;IRIT/Radium&#45;Engine\l/src/GuiBase/BaseApplication.cpp">
<polygon fill="white" stroke="black" points="1671.5,-184 1671.5,-225 1847.5,-225 1847.5,-184 1671.5,-184"/>
<text text-anchor="start" x="1679.5" y="-213" font-family="Helvetica,sans-Serif" font-size="10.00">/home/travis/build</text>
<text text-anchor="start" x="1679.5" y="-202" font-family="Helvetica,sans-Serif" font-size="10.00">/STORM&#45;IRIT/Radium&#45;Engine</text>
<text text-anchor="middle" x="1759.5" y="-191" font-family="Helvetica,sans-Serif" font-size="10.00">/src/GuiBase/BaseApplication.cpp</text>
</a>
</g>
</g>
<!-- Node22&#45;&gt;Node24 -->
<g id="edge24" class="edge"><title>Node22&#45;&gt;Node24</title>
<path fill="none" stroke="midnightblue" d="M1606.19,-269.013C1639.36,-255.272 1680.75,-238.123 1712.17,-225.11"/>
<polygon fill="midnightblue" stroke="midnightblue" points="1604.53,-265.915 1596.63,-272.976 1607.21,-272.382 1604.53,-265.915"/>
</g>
<!-- Node27 -->
<g id="node27" class="node"><title>Node27</title>
<g id="a_node27"><a xlink:href="DummyPlugin_8cpp.html" target="_top" xlink:title="/home/travis/build\l/STORM&#45;IRIT/Radium&#45;Engine\l/Plugins/Dummy/src/DummyPlugin.cpp">
<polygon fill="white" stroke="black" points="1865.5,-184 1865.5,-225 2067.5,-225 2067.5,-184 1865.5,-184"/>
<text text-anchor="start" x="1873.5" y="-213" font-family="Helvetica,sans-Serif" font-size="10.00">/home/travis/build</text>
<text text-anchor="start" x="1873.5" y="-202" font-family="Helvetica,sans-Serif" font-size="10.00">/STORM&#45;IRIT/Radium&#45;Engine</text>
<text text-anchor="middle" x="1966.5" y="-191" font-family="Helvetica,sans-Serif" font-size="10.00">/Plugins/Dummy/src/DummyPlugin.cpp</text>
</a>
</g>
</g>
<!-- Node26&#45;&gt;Node27 -->
<g id="edge27" class="edge"><title>Node26&#45;&gt;Node27</title>
<path fill="none" stroke="midnightblue" d="M2046,-266.705C2028.77,-253.444 2008.11,-237.534 1992.17,-225.26"/>
<polygon fill="midnightblue" stroke="midnightblue" points="2044.08,-269.648 2054.14,-272.976 2048.35,-264.102 2044.08,-269.648"/>
</g>
<!-- Node28 -->
<g id="node28" class="node"><title>Node28</title>
<g id="a_node28"><a xlink:href="DummySystem_8cpp.html" target="_top" xlink:title="/home/travis/build\l/STORM&#45;IRIT/Radium&#45;Engine\l/Plugins/Dummy/src/DummySystem.cpp">
<polygon fill="white" stroke="black" points="2085.5,-184 2085.5,-225 2295.5,-225 2295.5,-184 2085.5,-184"/>
<text text-anchor="start" x="2093.5" y="-213" font-family="Helvetica,sans-Serif" font-size="10.00">/home/travis/build</text>
<text text-anchor="start" x="2093.5" y="-202" font-family="Helvetica,sans-Serif" font-size="10.00">/STORM&#45;IRIT/Radium&#45;Engine</text>
<text text-anchor="middle" x="2190.5" y="-191" font-family="Helvetica,sans-Serif" font-size="10.00">/Plugins/Dummy/src/DummySystem.cpp</text>
</a>
</g>
</g>
<!-- Node26&#45;&gt;Node28 -->
<g id="edge28" class="edge"><title>Node26&#45;&gt;Node28</title>
<path fill="none" stroke="midnightblue" d="M2112.41,-266.705C2129.33,-253.444 2149.63,-237.534 2165.29,-225.26"/>
<polygon fill="midnightblue" stroke="midnightblue" points="2110.12,-264.052 2104.41,-272.976 2114.44,-269.561 2110.12,-264.052"/>
</g>
<!-- Node29 -->
<g id="node29" class="node"><title>Node29</title>
<g id="a_node29"><a xlink:href="DummyTask_8cpp.html" target="_top" xlink:title="/home/travis/build\l/STORM&#45;IRIT/Radium&#45;Engine\l/Plugins/Dummy/src/DummyTask.cpp">
<polygon fill="white" stroke="black" points="2313.5,-184 2313.5,-225 2507.5,-225 2507.5,-184 2313.5,-184"/>
<text text-anchor="start" x="2321.5" y="-213" font-family="Helvetica,sans-Serif" font-size="10.00">/home/travis/build</text>
<text text-anchor="start" x="2321.5" y="-202" font-family="Helvetica,sans-Serif" font-size="10.00">/STORM&#45;IRIT/Radium&#45;Engine</text>
<text text-anchor="middle" x="2410.5" y="-191" font-family="Helvetica,sans-Serif" font-size="10.00">/Plugins/Dummy/src/DummyTask.cpp</text>
</a>
</g>
</g>
<!-- Node26&#45;&gt;Node29 -->
<g id="edge29" class="edge"><title>Node26&#45;&gt;Node29</title>
<path fill="none" stroke="midnightblue" d="M2163.54,-270.411C2216.75,-256.424 2284.94,-238.502 2336.18,-225.034"/>
<polygon fill="midnightblue" stroke="midnightblue" points="2162.56,-267.048 2153.78,-272.976 2164.34,-273.818 2162.56,-267.048"/>
</g>
<!-- Node31 -->
<g id="node31" class="node"><title>Node31</title>
<g id="a_node31"><a xlink:href="MeshPaintPlugin_8cpp.html" target="_top" xlink:title="/home/travis/build\l/STORM&#45;IRIT/Radium&#45;Engine\l/Plugins/MeshPaint/src/MeshPaint\lPlugin.cpp">
<polygon fill="white" stroke="black" points="2525.5,-178.5 2525.5,-230.5 2699.5,-230.5 2699.5,-178.5 2525.5,-178.5"/>
<text text-anchor="start" x="2533.5" y="-218.5" font-family="Helvetica,sans-Serif" font-size="10.00">/home/travis/build</text>
<text text-anchor="start" x="2533.5" y="-207.5" font-family="Helvetica,sans-Serif" font-size="10.00">/STORM&#45;IRIT/Radium&#45;Engine</text>
<text text-anchor="start" x="2533.5" y="-196.5" font-family="Helvetica,sans-Serif" font-size="10.00">/Plugins/MeshPaint/src/MeshPaint</text>
<text text-anchor="middle" x="2612.5" y="-185.5" font-family="Helvetica,sans-Serif" font-size="10.00">Plugin.cpp</text>
</a>
</g>
</g>
<!-- Node30&#45;&gt;Node31 -->
<g id="edge31" class="edge"><title>Node30&#45;&gt;Node31</title>
<path fill="none" stroke="midnightblue" d="M2612.5,-257.191C2612.5,-248.282 2612.5,-238.899 2612.5,-230.607"/>
<polygon fill="midnightblue" stroke="midnightblue" points="2609,-257.336 2612.5,-267.336 2616,-257.336 2609,-257.336"/>
</g>
<!-- Node32 -->
<g id="node32" class="node"><title>Node32</title>
<g id="a_node32"><a xlink:href="MeshPaintSystem_8cpp.html" target="_top" xlink:title="/home/travis/build\l/STORM&#45;IRIT/Radium&#45;Engine\l/Plugins/MeshPaint/src/MeshPaint\lSystem.cpp">
<polygon fill="white" stroke="black" points="2717.5,-178.5 2717.5,-230.5 2891.5,-230.5 2891.5,-178.5 2717.5,-178.5"/>
<text text-anchor="start" x="2725.5" y="-218.5" font-family="Helvetica,sans-Serif" font-size="10.00">/home/travis/build</text>
<text text-anchor="start" x="2725.5" y="-207.5" font-family="Helvetica,sans-Serif" font-size="10.00">/STORM&#45;IRIT/Radium&#45;Engine</text>
<text text-anchor="start" x="2725.5" y="-196.5" font-family="Helvetica,sans-Serif" font-size="10.00">/Plugins/MeshPaint/src/MeshPaint</text>
<text text-anchor="middle" x="2804.5" y="-185.5" font-family="Helvetica,sans-Serif" font-size="10.00">System.cpp</text>
</a>
</g>
</g>
<!-- Node30&#45;&gt;Node32 -->
<g id="edge32" class="edge"><title>Node30&#45;&gt;Node32</title>
<path fill="none" stroke="midnightblue" d="M2676.95,-263.295C2700.41,-252.665 2726.7,-240.755 2749.28,-230.521"/>
<polygon fill="midnightblue" stroke="midnightblue" points="2675.44,-260.137 2667.78,-267.453 2678.33,-266.513 2675.44,-260.137"/>
</g>
<!-- Node34 -->
<g id="node34" class="node"><title>Node34</title>
<g id="a_node34"><a xlink:href="SkinningPlugin_8cpp.html" target="_top" xlink:title="/home/travis/build\l/STORM&#45;IRIT/Radium&#45;Engine\l/Plugins/Skinning/src/SkinningPlugin.cpp">
<polygon fill="white" stroke="black" points="2909.5,-184 2909.5,-225 3115.5,-225 3115.5,-184 2909.5,-184"/>
<text text-anchor="start" x="2917.5" y="-213" font-family="Helvetica,sans-Serif" font-size="10.00">/home/travis/build</text>
<text text-anchor="start" x="2917.5" y="-202" font-family="Helvetica,sans-Serif" font-size="10.00">/STORM&#45;IRIT/Radium&#45;Engine</text>
<text text-anchor="middle" x="3012.5" y="-191" font-family="Helvetica,sans-Serif" font-size="10.00">/Plugins/Skinning/src/SkinningPlugin.cpp</text>
</a>
</g>
</g>
<!-- Node33&#45;&gt;Node34 -->
<g id="edge34" class="edge"><title>Node33&#45;&gt;Node34</title>
<path fill="none" stroke="midnightblue" d="M2947.39,-265.763C2961.55,-252.66 2978.29,-237.162 2991.25,-225.164"/>
<polygon fill="midnightblue" stroke="midnightblue" points="2944.79,-263.397 2939.83,-272.758 2949.55,-268.534 2944.79,-263.397"/>
</g>
</g>
</svg>
