<?xml version="1.0" encoding="UTF-8" standalone="no"?>
<!DOCTYPE svg PUBLIC "-//W3C//DTD SVG 1.1//EN"
 "http://www.w3.org/Graphics/SVG/1.1/DTD/svg11.dtd">
<!-- Generated by graphviz version 2.38.0 (20140413.2041)
 -->
<!-- Title: /home/travis/build/STORM&#45;IRIT/Radium&#45;Engine/src/Core/Tasks/TaskQueue.cpp Pages: 1 -->
<svg width="932pt" height="330pt"
 viewBox="0.00 0.00 931.50 330.00" xmlns="http://www.w3.org/2000/svg" xmlns:xlink="http://www.w3.org/1999/xlink">
<g id="graph0" class="graph" transform="scale(1 1) rotate(0) translate(4 326)">
<title>/home/travis/build/STORM&#45;IRIT/Radium&#45;Engine/src/Core/Tasks/TaskQueue.cpp</title>
<polygon fill="white" stroke="none" points="-4,4 -4,-326 927.5,-326 927.5,4 -4,4"/>
<!-- Node1 -->
<g id="node1" class="node"><title>Node1</title>
<polygon fill="#bfbfbf" stroke="black" points="331.5,-280.5 331.5,-321.5 494.5,-321.5 494.5,-280.5 331.5,-280.5"/>
<text text-anchor="start" x="339.5" y="-309.5" font-family="Helvetica,sans-Serif" font-size="10.00">/home/travis/build</text>
<text text-anchor="start" x="339.5" y="-298.5" font-family="Helvetica,sans-Serif" font-size="10.00">/STORM&#45;IRIT/Radium&#45;Engine</text>
<text text-anchor="middle" x="413" y="-287.5" font-family="Helvetica,sans-Serif" font-size="10.00">/src/Core/Tasks/TaskQueue.cpp</text>
</g>
<!-- Node2 -->
<g id="node2" class="node"><title>Node2</title>
<g id="a_node2"><a xlink:href="Task_8hpp.html" target="_top" xlink:title="Core/Tasks/Task.hpp">
<polygon fill="white" stroke="black" points="78,-224.5 78,-243.5 190,-243.5 190,-224.5 78,-224.5"/>
<text text-anchor="middle" x="134" y="-231.5" font-family="Helvetica,sans-Serif" font-size="10.00">Core/Tasks/Task.hpp</text>
</a>
</g>
</g>
<!-- Node1&#45;&gt;Node2 -->
<g id="edge1" class="edge"><title>Node1&#45;&gt;Node2</title>
<path fill="none" stroke="midnightblue" d="M331.176,-280.937C282.112,-269.506 221.495,-255.384 180.523,-245.839"/>
<polygon fill="midnightblue" stroke="midnightblue" points="181.082,-242.375 170.549,-243.515 179.494,-249.193 181.082,-242.375"/>
</g>
<!-- Node7 -->
<g id="node7" class="node"><title>Node7</title>
<polygon fill="white" stroke="#bfbfbf" points="42.5,-0.5 42.5,-19.5 101.5,-19.5 101.5,-0.5 42.5,-0.5"/>
<text text-anchor="middle" x="72" y="-7.5" font-family="Helvetica,sans-Serif" font-size="10.00">iostream</text>
</g>
<!-- Node1&#45;&gt;Node7 -->
<g id="edge27" class="edge"><title>Node1&#45;&gt;Node7</title>
<path fill="none" stroke="midnightblue" d="M331.421,-300.011C259.026,-297.012 152.153,-285.039 69,-244 31.2199,-225.354 0,-221.131 0,-179 0,-179 0,-179 0,-121 0,-81.939 32.1765,-45.9442 53.5094,-26.3723"/>
<polygon fill="midnightblue" stroke="midnightblue" points="55.8839,-28.9449 61.0647,-19.7031 51.2514,-23.6969 55.8839,-28.9449"/>
</g>
<!-- Node12 -->
<g id="node12" class="node"><title>Node12</title>
<g id="a_node12"><a xlink:href="TaskQueue_8hpp.html" target="_top" xlink:title="Core/Tasks/TaskQueue.hpp">
<polygon fill="white" stroke="black" points="341.5,-224.5 341.5,-243.5 484.5,-243.5 484.5,-224.5 341.5,-224.5"/>
<text text-anchor="middle" x="413" y="-231.5" font-family="Helvetica,sans-Serif" font-size="10.00">Core/Tasks/TaskQueue.hpp</text>
</a>
</g>
</g>
<!-- Node1&#45;&gt;Node12 -->
<g id="edge11" class="edge"><title>Node1&#45;&gt;Node12</title>
<path fill="none" stroke="midnightblue" d="M413,-280.498C413,-272.065 413,-262.235 413,-253.874"/>
<polygon fill="midnightblue" stroke="midnightblue" points="416.5,-253.652 413,-243.652 409.5,-253.653 416.5,-253.652"/>
</g>
<!-- Node23 -->
<g id="node23" class="node"><title>Node23</title>
<polygon fill="white" stroke="#bfbfbf" points="503,-224.5 503,-243.5 565,-243.5 565,-224.5 503,-224.5"/>
<text text-anchor="middle" x="534" y="-231.5" font-family="Helvetica,sans-Serif" font-size="10.00">algorithm</text>
</g>
<!-- Node1&#45;&gt;Node23 -->
<g id="edge26" class="edge"><title>Node1&#45;&gt;Node23</title>
<path fill="none" stroke="midnightblue" d="M449.304,-280.498C468.569,-270.149 491.753,-257.695 508.991,-248.435"/>
<polygon fill="midnightblue" stroke="midnightblue" points="510.74,-251.468 517.893,-243.652 507.427,-245.302 510.74,-251.468"/>
</g>
<!-- Node24 -->
<g id="node24" class="node"><title>Node24</title>
<polygon fill="white" stroke="#bfbfbf" points="583,-224.5 583,-243.5 625,-243.5 625,-224.5 583,-224.5"/>
<text text-anchor="middle" x="604" y="-231.5" font-family="Helvetica,sans-Serif" font-size="10.00">stack</text>
</g>
<!-- Node1&#45;&gt;Node24 -->
<g id="edge28" class="edge"><title>Node1&#45;&gt;Node24</title>
<path fill="none" stroke="midnightblue" d="M470.306,-280.498C504.168,-268.974 545.699,-254.841 573.401,-245.413"/>
<polygon fill="midnightblue" stroke="midnightblue" points="574.603,-248.702 582.942,-242.166 572.347,-242.075 574.603,-248.702"/>
</g>
<!-- Node3 -->
<g id="node3" class="node"><title>Node3</title>
<g id="a_node3"><a xlink:href="RaCore_8hpp.html" target="_top" xlink:title="Core/RaCore.hpp">
<polygon fill="white" stroke="black" points="234,-112.5 234,-131.5 332,-131.5 332,-112.5 234,-112.5"/>
<text text-anchor="middle" x="283" y="-119.5" font-family="Helvetica,sans-Serif" font-size="10.00">Core/RaCore.hpp</text>
</a>
</g>
</g>
<!-- Node2&#45;&gt;Node3 -->
<g id="edge2" class="edge"><title>Node2&#45;&gt;Node3</title>
<path fill="none" stroke="midnightblue" d="M109.165,-224.41C79.9587,-212.98 37.7468,-191.465 57,-168 77.7205,-142.747 163.969,-131.401 223.714,-126.495"/>
<polygon fill="midnightblue" stroke="midnightblue" points="224.102,-129.975 233.798,-125.706 223.556,-122.996 224.102,-129.975"/>
</g>
<!-- Node10 -->
<g id="node10" class="node"><title>Node10</title>
<polygon fill="white" stroke="#bfbfbf" points="66.5,-168.5 66.5,-187.5 129.5,-187.5 129.5,-168.5 66.5,-168.5"/>
<text text-anchor="middle" x="98" y="-175.5" font-family="Helvetica,sans-Serif" font-size="10.00">functional</text>
</g>
<!-- Node2&#45;&gt;Node10 -->
<g id="edge9" class="edge"><title>Node2&#45;&gt;Node10</title>
<path fill="none" stroke="midnightblue" d="M128.055,-224.083C123.023,-216.534 115.663,-205.495 109.487,-196.23"/>
<polygon fill="midnightblue" stroke="midnightblue" points="112.293,-194.13 103.834,-187.751 106.469,-198.013 112.293,-194.13"/>
</g>
<!-- Node11 -->
<g id="node11" class="node"><title>Node11</title>
<polygon fill="white" stroke="#bfbfbf" points="148,-168.5 148,-187.5 192,-187.5 192,-168.5 148,-168.5"/>
<text text-anchor="middle" x="170" y="-175.5" font-family="Helvetica,sans-Serif" font-size="10.00">string</text>
</g>
<!-- Node2&#45;&gt;Node11 -->
<g id="edge10" class="edge"><title>Node2&#45;&gt;Node11</title>
<path fill="none" stroke="midnightblue" d="M139.945,-224.083C144.977,-216.534 152.337,-205.495 158.513,-196.23"/>
<polygon fill="midnightblue" stroke="midnightblue" points="161.531,-198.013 164.166,-187.751 155.707,-194.13 161.531,-198.013"/>
</g>
<!-- Node4 -->
<g id="node4" class="node"><title>Node4</title>
<g id="a_node4"><a xlink:href="CoreMacros_8hpp.html" target="_top" xlink:title="Core/CoreMacros.hpp">
<polygon fill="white" stroke="black" points="223,-56.5 223,-75.5 343,-75.5 343,-56.5 223,-56.5"/>
<text text-anchor="middle" x="283" y="-63.5" font-family="Helvetica,sans-Serif" font-size="10.00">Core/CoreMacros.hpp</text>
</a>
</g>
</g>
<!-- Node3&#45;&gt;Node4 -->
<g id="edge3" class="edge"><title>Node3&#45;&gt;Node4</title>
<path fill="none" stroke="midnightblue" d="M283,-112.083C283,-105.006 283,-94.8611 283,-85.9865"/>
<polygon fill="midnightblue" stroke="midnightblue" points="286.5,-85.751 283,-75.7511 279.5,-85.7511 286.5,-85.751"/>
</g>
<!-- Node5 -->
<g id="node5" class="node"><title>Node5</title>
<polygon fill="white" stroke="#bfbfbf" points="329,-0.5 329,-19.5 381,-19.5 381,-0.5 329,-0.5"/>
<text text-anchor="middle" x="355" y="-7.5" font-family="Helvetica,sans-Serif" font-size="10.00">cassert</text>
</g>
<!-- Node4&#45;&gt;Node5 -->
<g id="edge4" class="edge"><title>Node4&#45;&gt;Node5</title>
<path fill="none" stroke="midnightblue" d="M294.568,-56.324C305.42,-48.1849 321.881,-35.8395 334.883,-26.0874"/>
<polygon fill="midnightblue" stroke="midnightblue" points="337.321,-28.6339 343.221,-19.8339 333.121,-23.0339 337.321,-28.6339"/>
</g>
<!-- Node6 -->
<g id="node6" class="node"><title>Node6</title>
<polygon fill="white" stroke="#bfbfbf" points="191.5,-0.5 191.5,-19.5 236.5,-19.5 236.5,-0.5 191.5,-0.5"/>
<text text-anchor="middle" x="214" y="-7.5" font-family="Helvetica,sans-Serif" font-size="10.00">cstdio</text>
</g>
<!-- Node4&#45;&gt;Node6 -->
<g id="edge5" class="edge"><title>Node4&#45;&gt;Node6</title>
<path fill="none" stroke="midnightblue" d="M271.914,-56.324C261.514,-48.1849 245.739,-35.8395 233.278,-26.0874"/>
<polygon fill="midnightblue" stroke="midnightblue" points="235.32,-23.2407 225.288,-19.8339 231.006,-28.7533 235.32,-23.2407"/>
</g>
<!-- Node4&#45;&gt;Node7 -->
<g id="edge6" class="edge"><title>Node4&#45;&gt;Node7</title>
<path fill="none" stroke="midnightblue" d="M249.566,-56.4435C212.045,-46.8409 151.228,-31.2763 111.421,-21.0887"/>
<polygon fill="midnightblue" stroke="midnightblue" points="112.088,-17.6467 101.532,-18.558 110.352,-24.4281 112.088,-17.6467"/>
</g>
<!-- Node8 -->
<g id="node8" class="node"><title>Node8</title>
<polygon fill="white" stroke="#bfbfbf" points="255,-0.5 255,-19.5 311,-19.5 311,-0.5 255,-0.5"/>
<text text-anchor="middle" x="283" y="-7.5" font-family="Helvetica,sans-Serif" font-size="10.00">sstream</text>
</g>
<!-- Node4&#45;&gt;Node8 -->
<g id="edge7" class="edge"><title>Node4&#45;&gt;Node8</title>
<path fill="none" stroke="midnightblue" d="M283,-56.083C283,-49.0059 283,-38.8611 283,-29.9865"/>
<polygon fill="midnightblue" stroke="midnightblue" points="286.5,-29.751 283,-19.7511 279.5,-29.7511 286.5,-29.751"/>
</g>
<!-- Node9 -->
<g id="node9" class="node"><title>Node9</title>
<polygon fill="white" stroke="#bfbfbf" points="415,-0.5 415,-19.5 463,-19.5 463,-0.5 415,-0.5"/>
<text text-anchor="middle" x="439" y="-7.5" font-family="Helvetica,sans-Serif" font-size="10.00">thread</text>
</g>
<!-- Node4&#45;&gt;Node9 -->
<g id="edge8" class="edge"><title>Node4&#45;&gt;Node9</title>
<path fill="none" stroke="midnightblue" d="M307.719,-56.4435C334.002,-47.3454 375.747,-32.8952 405.093,-22.7372"/>
<polygon fill="midnightblue" stroke="midnightblue" points="406.605,-25.9176 414.91,-19.339 404.315,-19.3027 406.605,-25.9176"/>
</g>
<!-- Node12&#45;&gt;Node3 -->
<g id="edge12" class="edge"><title>Node12&#45;&gt;Node3</title>
<path fill="none" stroke="midnightblue" d="M371.248,-224.444C348.904,-217.899 322.468,-206.706 305,-188 293.195,-175.358 287.704,-156.148 285.162,-141.887"/>
<polygon fill="midnightblue" stroke="midnightblue" points="288.588,-141.126 283.691,-131.731 281.661,-142.129 288.588,-141.126"/>
</g>
<!-- Node12&#45;&gt;Node9 -->
<g id="edge18" class="edge"><title>Node12&#45;&gt;Node9</title>
<path fill="none" stroke="midnightblue" d="M419.054,-224.178C424.667,-215.439 432.641,-201.45 436,-188 449.993,-131.966 445.059,-62.8196 441.445,-30.0062"/>
<polygon fill="midnightblue" stroke="midnightblue" points="444.87,-29.1679 440.211,-19.6525 437.919,-29.9966 444.87,-29.1679"/>
</g>
<!-- Node12&#45;&gt;Node11 -->
<g id="edge17" class="edge"><title>Node12&#45;&gt;Node11</title>
<path fill="none" stroke="midnightblue" d="M368.113,-224.466C327.238,-216.473 265.015,-203.752 202.355,-188.205"/>
<polygon fill="midnightblue" stroke="midnightblue" points="202.849,-184.72 192.298,-185.686 201.148,-191.511 202.849,-184.72"/>
</g>
<!-- Node13 -->
<g id="node13" class="node"><title>Node13</title>
<polygon fill="white" stroke="#bfbfbf" points="484.5,-168.5 484.5,-187.5 587.5,-187.5 587.5,-168.5 484.5,-168.5"/>
<text text-anchor="middle" x="536" y="-175.5" font-family="Helvetica,sans-Serif" font-size="10.00">condition_variable</text>
</g>
<!-- Node12&#45;&gt;Node13 -->
<g id="edge13" class="edge"><title>Node12&#45;&gt;Node13</title>
<path fill="none" stroke="midnightblue" d="M432.49,-224.444C452.642,-215.596 484.323,-201.687 507.331,-191.586"/>
<polygon fill="midnightblue" stroke="midnightblue" points="508.852,-194.741 516.601,-187.516 506.038,-188.332 508.852,-194.741"/>
</g>
<!-- Node14 -->
<g id="node14" class="node"><title>Node14</title>
<polygon fill="white" stroke="#bfbfbf" points="736.5,-168.5 736.5,-187.5 783.5,-187.5 783.5,-168.5 736.5,-168.5"/>
<text text-anchor="middle" x="760" y="-175.5" font-family="Helvetica,sans-Serif" font-size="10.00">deque</text>
</g>
<!-- Node12&#45;&gt;Node14 -->
<g id="edge14" class="edge"><title>Node12&#45;&gt;Node14</title>
<path fill="none" stroke="midnightblue" d="M480.208,-224.46C553.804,-214.932 668.175,-199.565 726.452,-188.064"/>
<polygon fill="midnightblue" stroke="midnightblue" points="727.23,-191.477 736.321,-186.036 725.821,-184.62 727.23,-191.477"/>
</g>
<!-- Node15 -->
<g id="node15" class="node"><title>Node15</title>
<polygon fill="white" stroke="#bfbfbf" points="801.5,-168.5 801.5,-187.5 858.5,-187.5 858.5,-168.5 801.5,-168.5"/>
<text text-anchor="middle" x="830" y="-175.5" font-family="Helvetica,sans-Serif" font-size="10.00">memory</text>
</g>
<!-- Node12&#45;&gt;Node15 -->
<g id="edge15" class="edge"><title>Node12&#45;&gt;Node15</title>
<path fill="none" stroke="midnightblue" d="M484.54,-225.001C579.049,-214.366 738.903,-196.125 791.396,-187.986"/>
<polygon fill="midnightblue" stroke="midnightblue" points="792.101,-191.417 801.389,-186.321 790.95,-184.512 792.101,-191.417"/>
</g>
<!-- Node16 -->
<g id="node16" class="node"><title>Node16</title>
<polygon fill="white" stroke="#bfbfbf" points="876.5,-168.5 876.5,-187.5 923.5,-187.5 923.5,-168.5 876.5,-168.5"/>
<text text-anchor="middle" x="900" y="-175.5" font-family="Helvetica,sans-Serif" font-size="10.00">mutex</text>
</g>
<!-- Node12&#45;&gt;Node16 -->
<g id="edge16" class="edge"><title>Node12&#45;&gt;Node16</title>
<path fill="none" stroke="midnightblue" d="M484.547,-224.993C487.742,-224.653 490.904,-224.321 494,-224 656.856,-207.115 702.105,-218.272 866.385,-188.018"/>
<polygon fill="midnightblue" stroke="midnightblue" points="867.157,-191.434 876.346,-186.16 865.873,-184.553 867.157,-191.434"/>
</g>
<!-- Node17 -->
<g id="node17" class="node"><title>Node17</title>
<polygon fill="white" stroke="#bfbfbf" points="210.5,-168.5 210.5,-187.5 257.5,-187.5 257.5,-168.5 210.5,-168.5"/>
<text text-anchor="middle" x="234" y="-175.5" font-family="Helvetica,sans-Serif" font-size="10.00">vector</text>
</g>
<!-- Node12&#45;&gt;Node17 -->
<g id="edge19" class="edge"><title>Node12&#45;&gt;Node17</title>
<path fill="none" stroke="midnightblue" d="M384.637,-224.444C352.832,-214.849 301.298,-199.302 267.526,-189.114"/>
<polygon fill="midnightblue" stroke="midnightblue" points="268.242,-185.674 257.657,-186.137 266.22,-192.376 268.242,-185.674"/>
</g>
<!-- Node18 -->
<g id="node18" class="node"><title>Node18</title>
<g id="a_node18"><a xlink:href="Index_8hpp.html" target="_top" xlink:title="Core/Utils/Index.hpp">
<polygon fill="white" stroke="black" points="605.5,-168.5 605.5,-187.5 718.5,-187.5 718.5,-168.5 605.5,-168.5"/>
<text text-anchor="middle" x="662" y="-175.5" font-family="Helvetica,sans-Serif" font-size="10.00">Core/Utils/Index.hpp</text>
</a>
</g>
</g>
<!-- Node12&#45;&gt;Node18 -->
<g id="edge20" class="edge"><title>Node12&#45;&gt;Node18</title>
<path fill="none" stroke="midnightblue" d="M452.455,-224.444C495.892,-215.023 565.786,-199.866 612.776,-189.675"/>
<polygon fill="midnightblue" stroke="midnightblue" points="613.699,-193.056 622.73,-187.516 612.215,-186.215 613.699,-193.056"/>
</g>
<!-- Node21 -->
<g id="node21" class="node"><title>Node21</title>
<g id="a_node21"><a xlink:href="Timer_8hpp.html" target="_top" xlink:title="Core/Utils/Timer.hpp">
<polygon fill="white" stroke="black" points="314.5,-168.5 314.5,-187.5 427.5,-187.5 427.5,-168.5 314.5,-168.5"/>
<text text-anchor="middle" x="371" y="-175.5" font-family="Helvetica,sans-Serif" font-size="10.00">Core/Utils/Timer.hpp</text>
</a>
</g>
</g>
<!-- Node12&#45;&gt;Node21 -->
<g id="edge23" class="edge"><title>Node12&#45;&gt;Node21</title>
<path fill="none" stroke="midnightblue" d="M406.065,-224.083C400.071,-216.377 391.248,-205.033 383.952,-195.653"/>
<polygon fill="midnightblue" stroke="midnightblue" points="386.709,-193.496 377.806,-187.751 381.183,-197.793 386.709,-193.496"/>
</g>
<!-- Node19 -->
<g id="node19" class="node"><title>Node19</title>
<polygon fill="white" stroke="#bfbfbf" points="687,-112.5 687,-131.5 729,-131.5 729,-112.5 687,-112.5"/>
<text text-anchor="middle" x="708" y="-119.5" font-family="Helvetica,sans-Serif" font-size="10.00">limits</text>
</g>
<!-- Node18&#45;&gt;Node19 -->
<g id="edge21" class="edge"><title>Node18&#45;&gt;Node19</title>
<path fill="none" stroke="midnightblue" d="M669.596,-168.083C676.227,-160.298 686.021,-148.801 694.058,-139.367"/>
<polygon fill="midnightblue" stroke="midnightblue" points="696.725,-141.633 700.545,-131.751 691.396,-137.094 696.725,-141.633"/>
</g>
<!-- Node20 -->
<g id="node20" class="node"><title>Node20</title>
<g id="a_node20"><a xlink:href="Index_8inl.html" target="_top" xlink:title="Core/Utils/Index.inl">
<polygon fill="white" stroke="black" points="563.5,-112.5 563.5,-131.5 668.5,-131.5 668.5,-112.5 563.5,-112.5"/>
<text text-anchor="middle" x="616" y="-119.5" font-family="Helvetica,sans-Serif" font-size="10.00">Core/Utils/Index.inl</text>
</a>
</g>
</g>
<!-- Node18&#45;&gt;Node20 -->
<g id="edge22" class="edge"><title>Node18&#45;&gt;Node20</title>
<path fill="none" stroke="midnightblue" d="M654.404,-168.083C647.773,-160.298 637.979,-148.801 629.942,-139.367"/>
<polygon fill="midnightblue" stroke="midnightblue" points="632.604,-137.094 623.455,-131.751 627.275,-141.633 632.604,-137.094"/>
</g>
<!-- Node21&#45;&gt;Node3 -->
<g id="edge24" class="edge"><title>Node21&#45;&gt;Node3</title>
<path fill="none" stroke="midnightblue" d="M356.861,-168.324C343.134,-159.9 322.064,-146.971 305.936,-137.074"/>
<polygon fill="midnightblue" stroke="midnightblue" points="307.457,-133.902 297.104,-131.655 303.796,-139.868 307.457,-133.902"/>
</g>
<!-- Node22 -->
<g id="node22" class="node"><title>Node22</title>
<polygon fill="white" stroke="#bfbfbf" points="350,-112.5 350,-131.5 400,-131.5 400,-112.5 350,-112.5"/>
<text text-anchor="middle" x="375" y="-119.5" font-family="Helvetica,sans-Serif" font-size="10.00">chrono</text>
</g>
<!-- Node21&#45;&gt;Node22 -->
<g id="edge25" class="edge"><title>Node21&#45;&gt;Node22</title>
<path fill="none" stroke="midnightblue" d="M371.661,-168.083C372.185,-161.006 372.936,-150.861 373.594,-141.986"/>
<polygon fill="midnightblue" stroke="midnightblue" points="377.103,-141.982 374.352,-131.751 370.123,-141.465 377.103,-141.982"/>
</g>
</g>
</svg>
