<?xml version="1.0" encoding="UTF-8" standalone="no"?>
<!DOCTYPE svg PUBLIC "-//W3C//DTD SVG 1.1//EN"
 "http://www.w3.org/Graphics/SVG/1.1/DTD/svg11.dtd">
<!-- Generated by graphviz version 2.38.0 (20140413.2041)
 -->
<!-- Title: /home/travis/build/STORM&#45;IRIT/Radium&#45;Engine/src/Core/Tasks/TaskQueue.hpp Pages: 1 -->
<svg width="835pt" height="274pt"
 viewBox="0.00 0.00 835.00 274.00" xmlns="http://www.w3.org/2000/svg" xmlns:xlink="http://www.w3.org/1999/xlink">
<g id="graph0" class="graph" transform="scale(1 1) rotate(0) translate(4 270)">
<title>/home/travis/build/STORM&#45;IRIT/Radium&#45;Engine/src/Core/Tasks/TaskQueue.hpp</title>
<polygon fill="white" stroke="none" points="-4,4 -4,-270 831,-270 831,4 -4,4"/>
<!-- Node1 -->
<g id="node1" class="node"><title>Node1</title>
<polygon fill="#bfbfbf" stroke="black" points="258,-224.5 258,-265.5 422,-265.5 422,-224.5 258,-224.5"/>
<text text-anchor="start" x="266" y="-253.5" font-family="Helvetica,sans-Serif" font-size="10.00">/home/travis/build</text>
<text text-anchor="start" x="266" y="-242.5" font-family="Helvetica,sans-Serif" font-size="10.00">/STORM&#45;IRIT/Radium&#45;Engine</text>
<text text-anchor="middle" x="340" y="-231.5" font-family="Helvetica,sans-Serif" font-size="10.00">/src/Core/Tasks/TaskQueue.hpp</text>
</g>
<!-- Node2 -->
<g id="node2" class="node"><title>Node2</title>
<g id="a_node2"><a xlink:href="RaCore_8hpp.html" target="_top" xlink:title="Core/RaCore.hpp">
<polygon fill="white" stroke="black" points="110,-112.5 110,-131.5 208,-131.5 208,-112.5 110,-112.5"/>
<text text-anchor="middle" x="159" y="-119.5" font-family="Helvetica,sans-Serif" font-size="10.00">Core/RaCore.hpp</text>
</a>
</g>
</g>
<!-- Node1&#45;&gt;Node2 -->
<g id="edge1" class="edge"><title>Node1&#45;&gt;Node2</title>
<path fill="none" stroke="midnightblue" d="M257.697,-237.291C190.433,-229.898 102.992,-215.255 81,-188 63.7951,-166.678 96.235,-147.286 124.378,-135.341"/>
<polygon fill="midnightblue" stroke="midnightblue" points="125.719,-138.574 133.68,-131.583 123.097,-132.084 125.719,-138.574"/>
</g>
<!-- Node8 -->
<g id="node8" class="node"><title>Node8</title>
<polygon fill="white" stroke="#bfbfbf" points="0,-0.5 0,-19.5 48,-19.5 48,-0.5 0,-0.5"/>
<text text-anchor="middle" x="24" y="-7.5" font-family="Helvetica,sans-Serif" font-size="10.00">thread</text>
</g>
<!-- Node1&#45;&gt;Node8 -->
<g id="edge13" class="edge"><title>Node1&#45;&gt;Node8</title>
<path fill="none" stroke="midnightblue" d="M257.944,-236.141C189.629,-227.956 99.4186,-212.796 73,-188 27.8969,-145.667 23.0137,-65.8444 23.2937,-29.6657"/>
<polygon fill="midnightblue" stroke="midnightblue" points="26.7953,-29.6322 23.5217,-19.5558 19.7971,-29.4744 26.7953,-29.6322"/>
</g>
<!-- Node9 -->
<g id="node9" class="node"><title>Node9</title>
<polygon fill="white" stroke="#bfbfbf" points="90.5,-168.5 90.5,-187.5 193.5,-187.5 193.5,-168.5 90.5,-168.5"/>
<text text-anchor="middle" x="142" y="-175.5" font-family="Helvetica,sans-Serif" font-size="10.00">condition_variable</text>
</g>
<!-- Node1&#45;&gt;Node9 -->
<g id="edge8" class="edge"><title>Node1&#45;&gt;Node9</title>
<path fill="none" stroke="midnightblue" d="M280.593,-224.498C247.07,-213.493 206.294,-200.106 177.679,-190.713"/>
<polygon fill="midnightblue" stroke="midnightblue" points="178.689,-187.361 168.097,-187.567 176.506,-194.012 178.689,-187.361"/>
</g>
<!-- Node10 -->
<g id="node10" class="node"><title>Node10</title>
<polygon fill="white" stroke="#bfbfbf" points="211.5,-168.5 211.5,-187.5 258.5,-187.5 258.5,-168.5 211.5,-168.5"/>
<text text-anchor="middle" x="235" y="-175.5" font-family="Helvetica,sans-Serif" font-size="10.00">deque</text>
</g>
<!-- Node1&#45;&gt;Node10 -->
<g id="edge9" class="edge"><title>Node1&#45;&gt;Node10</title>
<path fill="none" stroke="midnightblue" d="M308.497,-224.498C292.088,-214.34 272.404,-202.155 257.538,-192.952"/>
<polygon fill="midnightblue" stroke="midnightblue" points="259.322,-189.94 248.977,-187.652 255.638,-195.892 259.322,-189.94"/>
</g>
<!-- Node11 -->
<g id="node11" class="node"><title>Node11</title>
<polygon fill="white" stroke="#bfbfbf" points="276.5,-168.5 276.5,-187.5 333.5,-187.5 333.5,-168.5 276.5,-168.5"/>
<text text-anchor="middle" x="305" y="-175.5" font-family="Helvetica,sans-Serif" font-size="10.00">memory</text>
</g>
<!-- Node1&#45;&gt;Node11 -->
<g id="edge10" class="edge"><title>Node1&#45;&gt;Node11</title>
<path fill="none" stroke="midnightblue" d="M329.499,-224.498C324.7,-215.586 319.061,-205.113 314.403,-196.464"/>
<polygon fill="midnightblue" stroke="midnightblue" points="317.482,-194.798 309.659,-187.652 311.318,-198.117 317.482,-194.798"/>
</g>
<!-- Node12 -->
<g id="node12" class="node"><title>Node12</title>
<polygon fill="white" stroke="#bfbfbf" points="351.5,-168.5 351.5,-187.5 398.5,-187.5 398.5,-168.5 351.5,-168.5"/>
<text text-anchor="middle" x="375" y="-175.5" font-family="Helvetica,sans-Serif" font-size="10.00">mutex</text>
</g>
<!-- Node1&#45;&gt;Node12 -->
<g id="edge11" class="edge"><title>Node1&#45;&gt;Node12</title>
<path fill="none" stroke="midnightblue" d="M350.501,-224.498C355.3,-215.586 360.939,-205.113 365.597,-196.464"/>
<polygon fill="midnightblue" stroke="midnightblue" points="368.682,-198.117 370.341,-187.652 362.518,-194.798 368.682,-198.117"/>
</g>
<!-- Node13 -->
<g id="node13" class="node"><title>Node13</title>
<polygon fill="white" stroke="#bfbfbf" points="417,-168.5 417,-187.5 461,-187.5 461,-168.5 417,-168.5"/>
<text text-anchor="middle" x="439" y="-175.5" font-family="Helvetica,sans-Serif" font-size="10.00">string</text>
</g>
<!-- Node1&#45;&gt;Node13 -->
<g id="edge12" class="edge"><title>Node1&#45;&gt;Node13</title>
<path fill="none" stroke="midnightblue" d="M369.703,-224.498C385.028,-214.436 403.383,-202.385 417.352,-193.214"/>
<polygon fill="midnightblue" stroke="midnightblue" points="419.383,-196.067 425.822,-187.652 415.541,-190.215 419.383,-196.067"/>
</g>
<!-- Node14 -->
<g id="node14" class="node"><title>Node14</title>
<polygon fill="white" stroke="#bfbfbf" points="479.5,-168.5 479.5,-187.5 526.5,-187.5 526.5,-168.5 479.5,-168.5"/>
<text text-anchor="middle" x="503" y="-175.5" font-family="Helvetica,sans-Serif" font-size="10.00">vector</text>
</g>
<!-- Node1&#45;&gt;Node14 -->
<g id="edge14" class="edge"><title>Node1&#45;&gt;Node14</title>
<path fill="none" stroke="midnightblue" d="M388.905,-224.498C415.819,-213.766 448.41,-200.769 471.857,-191.419"/>
<polygon fill="midnightblue" stroke="midnightblue" points="473.31,-194.608 481.302,-187.652 470.717,-188.106 473.31,-194.608"/>
</g>
<!-- Node15 -->
<g id="node15" class="node"><title>Node15</title>
<g id="a_node15"><a xlink:href="Index_8hpp.html" target="_top" xlink:title="Core/Utils/Index.hpp">
<polygon fill="white" stroke="black" points="675.5,-168.5 675.5,-187.5 788.5,-187.5 788.5,-168.5 675.5,-168.5"/>
<text text-anchor="middle" x="732" y="-175.5" font-family="Helvetica,sans-Serif" font-size="10.00">Core/Utils/Index.hpp</text>
</a>
</g>
</g>
<!-- Node1&#45;&gt;Node15 -->
<g id="edge15" class="edge"><title>Node1&#45;&gt;Node15</title>
<path fill="none" stroke="midnightblue" d="M422.176,-230.374C496.276,-218.087 603.591,-200.292 670.505,-189.197"/>
<polygon fill="midnightblue" stroke="midnightblue" points="671.188,-192.632 680.481,-187.543 670.043,-185.726 671.188,-192.632"/>
</g>
<!-- Node18 -->
<g id="node18" class="node"><title>Node18</title>
<g id="a_node18"><a xlink:href="Timer_8hpp.html" target="_top" xlink:title="Core/Utils/Timer.hpp">
<polygon fill="white" stroke="black" points="544.5,-168.5 544.5,-187.5 657.5,-187.5 657.5,-168.5 544.5,-168.5"/>
<text text-anchor="middle" x="601" y="-175.5" font-family="Helvetica,sans-Serif" font-size="10.00">Core/Utils/Timer.hpp</text>
</a>
</g>
</g>
<!-- Node1&#45;&gt;Node18 -->
<g id="edge18" class="edge"><title>Node1&#45;&gt;Node18</title>
<path fill="none" stroke="midnightblue" d="M418.309,-224.498C463.464,-213.252 518.601,-199.521 556.416,-190.103"/>
<polygon fill="midnightblue" stroke="midnightblue" points="557.742,-193.38 566.6,-187.567 556.05,-186.587 557.742,-193.38"/>
</g>
<!-- Node3 -->
<g id="node3" class="node"><title>Node3</title>
<g id="a_node3"><a xlink:href="CoreMacros_8hpp.html" target="_top" xlink:title="Core/CoreMacros.hpp">
<polygon fill="white" stroke="black" points="99,-56.5 99,-75.5 219,-75.5 219,-56.5 99,-56.5"/>
<text text-anchor="middle" x="159" y="-63.5" font-family="Helvetica,sans-Serif" font-size="10.00">Core/CoreMacros.hpp</text>
</a>
</g>
</g>
<!-- Node2&#45;&gt;Node3 -->
<g id="edge2" class="edge"><title>Node2&#45;&gt;Node3</title>
<path fill="none" stroke="midnightblue" d="M159,-112.083C159,-105.006 159,-94.8611 159,-85.9865"/>
<polygon fill="midnightblue" stroke="midnightblue" points="162.5,-85.751 159,-75.7511 155.5,-85.7511 162.5,-85.751"/>
</g>
<!-- Node4 -->
<g id="node4" class="node"><title>Node4</title>
<polygon fill="white" stroke="#bfbfbf" points="281,-0.5 281,-19.5 333,-19.5 333,-0.5 281,-0.5"/>
<text text-anchor="middle" x="307" y="-7.5" font-family="Helvetica,sans-Serif" font-size="10.00">cassert</text>
</g>
<!-- Node3&#45;&gt;Node4 -->
<g id="edge3" class="edge"><title>Node3&#45;&gt;Node4</title>
<path fill="none" stroke="midnightblue" d="M182.451,-56.4435C207.133,-47.4381 246.185,-33.1891 273.977,-23.049"/>
<polygon fill="midnightblue" stroke="midnightblue" points="275.464,-26.2321 283.659,-19.5164 273.065,-19.6561 275.464,-26.2321"/>
</g>
<!-- Node5 -->
<g id="node5" class="node"><title>Node5</title>
<polygon fill="white" stroke="#bfbfbf" points="66.5,-0.5 66.5,-19.5 111.5,-19.5 111.5,-0.5 66.5,-0.5"/>
<text text-anchor="middle" x="89" y="-7.5" font-family="Helvetica,sans-Serif" font-size="10.00">cstdio</text>
</g>
<!-- Node3&#45;&gt;Node5 -->
<g id="edge4" class="edge"><title>Node3&#45;&gt;Node5</title>
<path fill="none" stroke="midnightblue" d="M147.753,-56.324C137.203,-48.1849 121.199,-35.8395 108.558,-26.0874"/>
<polygon fill="midnightblue" stroke="midnightblue" points="110.507,-23.1707 100.451,-19.8339 106.231,-28.7132 110.507,-23.1707"/>
</g>
<!-- Node6 -->
<g id="node6" class="node"><title>Node6</title>
<polygon fill="white" stroke="#bfbfbf" points="129.5,-0.5 129.5,-19.5 188.5,-19.5 188.5,-0.5 129.5,-0.5"/>
<text text-anchor="middle" x="159" y="-7.5" font-family="Helvetica,sans-Serif" font-size="10.00">iostream</text>
</g>
<!-- Node3&#45;&gt;Node6 -->
<g id="edge5" class="edge"><title>Node3&#45;&gt;Node6</title>
<path fill="none" stroke="midnightblue" d="M159,-56.083C159,-49.0059 159,-38.8611 159,-29.9865"/>
<polygon fill="midnightblue" stroke="midnightblue" points="162.5,-29.751 159,-19.7511 155.5,-29.7511 162.5,-29.751"/>
</g>
<!-- Node7 -->
<g id="node7" class="node"><title>Node7</title>
<polygon fill="white" stroke="#bfbfbf" points="207,-0.5 207,-19.5 263,-19.5 263,-0.5 207,-0.5"/>
<text text-anchor="middle" x="235" y="-7.5" font-family="Helvetica,sans-Serif" font-size="10.00">sstream</text>
</g>
<!-- Node3&#45;&gt;Node7 -->
<g id="edge6" class="edge"><title>Node3&#45;&gt;Node7</title>
<path fill="none" stroke="midnightblue" d="M171.211,-56.324C182.776,-48.1066 200.375,-35.6017 214.161,-25.8069"/>
<polygon fill="midnightblue" stroke="midnightblue" points="216.443,-28.4791 222.567,-19.8339 212.388,-22.7729 216.443,-28.4791"/>
</g>
<!-- Node3&#45;&gt;Node8 -->
<g id="edge7" class="edge"><title>Node3&#45;&gt;Node8</title>
<path fill="none" stroke="midnightblue" d="M137.609,-56.4435C115.293,-47.5171 80.0968,-33.4387 54.792,-23.3168"/>
<polygon fill="midnightblue" stroke="midnightblue" points="55.8757,-19.9807 45.2911,-19.5164 53.276,-26.4801 55.8757,-19.9807"/>
</g>
<!-- Node16 -->
<g id="node16" class="node"><title>Node16</title>
<polygon fill="white" stroke="#bfbfbf" points="785,-112.5 785,-131.5 827,-131.5 827,-112.5 785,-112.5"/>
<text text-anchor="middle" x="806" y="-119.5" font-family="Helvetica,sans-Serif" font-size="10.00">limits</text>
</g>
<!-- Node15&#45;&gt;Node16 -->
<g id="edge16" class="edge"><title>Node15&#45;&gt;Node16</title>
<path fill="none" stroke="midnightblue" d="M743.889,-168.324C755.15,-160.107 772.287,-147.602 785.709,-137.807"/>
<polygon fill="midnightblue" stroke="midnightblue" points="787.88,-140.556 793.894,-131.834 783.753,-134.901 787.88,-140.556"/>
</g>
<!-- Node17 -->
<g id="node17" class="node"><title>Node17</title>
<g id="a_node17"><a xlink:href="Index_8inl.html" target="_top" xlink:title="Core/Utils/Index.inl">
<polygon fill="white" stroke="black" points="661.5,-112.5 661.5,-131.5 766.5,-131.5 766.5,-112.5 661.5,-112.5"/>
<text text-anchor="middle" x="714" y="-119.5" font-family="Helvetica,sans-Serif" font-size="10.00">Core/Utils/Index.inl</text>
</a>
</g>
</g>
<!-- Node15&#45;&gt;Node17 -->
<g id="edge17" class="edge"><title>Node15&#45;&gt;Node17</title>
<path fill="none" stroke="midnightblue" d="M729.028,-168.083C726.616,-160.849 723.136,-150.409 720.132,-141.397"/>
<polygon fill="midnightblue" stroke="midnightblue" points="723.4,-140.131 716.917,-131.751 716.759,-142.345 723.4,-140.131"/>
</g>
<!-- Node18&#45;&gt;Node2 -->
<g id="edge19" class="edge"><title>Node18&#45;&gt;Node2</title>
<path fill="none" stroke="midnightblue" d="M544.482,-169.231C541.275,-168.809 538.097,-168.396 535,-168 423.048,-153.669 292.155,-138.322 218.072,-129.766"/>
<polygon fill="midnightblue" stroke="midnightblue" points="218.338,-126.274 208.003,-128.605 217.536,-133.228 218.338,-126.274"/>
</g>
<!-- Node19 -->
<g id="node19" class="node"><title>Node19</title>
<polygon fill="white" stroke="#bfbfbf" points="576,-112.5 576,-131.5 626,-131.5 626,-112.5 576,-112.5"/>
<text text-anchor="middle" x="601" y="-119.5" font-family="Helvetica,sans-Serif" font-size="10.00">chrono</text>
</g>
<!-- Node18&#45;&gt;Node19 -->
<g id="edge20" class="edge"><title>Node18&#45;&gt;Node19</title>
<path fill="none" stroke="midnightblue" d="M601,-168.083C601,-161.006 601,-150.861 601,-141.986"/>
<polygon fill="midnightblue" stroke="midnightblue" points="604.5,-141.751 601,-131.751 597.5,-141.751 604.5,-141.751"/>
</g>
</g>
</svg>
