<?xml version="1.0" encoding="UTF-8" standalone="no"?>
<!DOCTYPE svg PUBLIC "-//W3C//DTD SVG 1.1//EN"
 "http://www.w3.org/Graphics/SVG/1.1/DTD/svg11.dtd">
<!-- Generated by graphviz version 2.38.0 (20140413.2041)
 -->
<!-- Title: /home/travis/build/STORM&#45;IRIT/Radium&#45;Engine/src/Engine/Renderer/Texture/TextureManager.hpp Pages: 1 -->
<svg width="648pt" height="307pt"
 viewBox="0.00 0.00 648.00 307.00" xmlns="http://www.w3.org/2000/svg" xmlns:xlink="http://www.w3.org/1999/xlink">
<g id="graph0" class="graph" transform="scale(1 1) rotate(0) translate(4 303)">
<title>/home/travis/build/STORM&#45;IRIT/Radium&#45;Engine/src/Engine/Renderer/Texture/TextureManager.hpp</title>
<polygon fill="white" stroke="none" points="-4,4 -4,-303 644,-303 644,4 -4,4"/>
<!-- Node1 -->
<g id="node1" class="node"><title>Node1</title>
<polygon fill="#bfbfbf" stroke="black" points="262,-246.5 262,-298.5 414,-298.5 414,-246.5 262,-246.5"/>
<text text-anchor="start" x="270" y="-286.5" font-family="Helvetica,sans-Serif" font-size="10.00">/home/travis/build</text>
<text text-anchor="start" x="270" y="-275.5" font-family="Helvetica,sans-Serif" font-size="10.00">/STORM&#45;IRIT/Radium&#45;Engine</text>
<text text-anchor="start" x="270" y="-264.5" font-family="Helvetica,sans-Serif" font-size="10.00">/src/Engine/Renderer/Texture</text>
<text text-anchor="middle" x="338" y="-253.5" font-family="Helvetica,sans-Serif" font-size="10.00">/TextureManager.hpp</text>
</g>
<!-- Node2 -->
<g id="node2" class="node"><title>Node2</title>
<g id="a_node2"><a xlink:href="RaEngine_8hpp.html" target="_top" xlink:title="Engine/RaEngine.hpp">
<polygon fill="white" stroke="black" points="167.5,-118 167.5,-137 284.5,-137 284.5,-118 167.5,-118"/>
<text text-anchor="middle" x="226" y="-125" font-family="Helvetica,sans-Serif" font-size="10.00">Engine/RaEngine.hpp</text>
</a>
</g>
</g>
<!-- Node1&#45;&gt;Node2 -->
<g id="edge1" class="edge"><title>Node1&#45;&gt;Node2</title>
<path fill="none" stroke="midnightblue" d="M318.234,-246.264C295.415,-217.128 258.528,-170.031 239.035,-145.143"/>
<polygon fill="midnightblue" stroke="midnightblue" points="241.621,-142.768 232.699,-137.053 236.11,-147.084 241.621,-142.768"/>
</g>
<!-- Node9 -->
<g id="node9" class="node"><title>Node9</title>
<polygon fill="white" stroke="#bfbfbf" points="507,-185 507,-204 545,-204 545,-185 507,-185"/>
<text text-anchor="middle" x="526" y="-192" font-family="Helvetica,sans-Serif" font-size="10.00">map</text>
</g>
<!-- Node1&#45;&gt;Node9 -->
<g id="edge8" class="edge"><title>Node1&#45;&gt;Node9</title>
<path fill="none" stroke="midnightblue" d="M402.69,-246.437C430.57,-235.48 463.484,-222.336 493,-210 494.407,-209.412 495.846,-208.804 497.297,-208.186"/>
<polygon fill="midnightblue" stroke="midnightblue" points="499.067,-211.234 506.856,-204.052 496.288,-204.809 499.067,-211.234"/>
</g>
<!-- Node10 -->
<g id="node10" class="node"><title>Node10</title>
<polygon fill="white" stroke="#bfbfbf" points="303,-118 303,-137 347,-137 347,-118 303,-118"/>
<text text-anchor="middle" x="325" y="-125" font-family="Helvetica,sans-Serif" font-size="10.00">string</text>
</g>
<!-- Node1&#45;&gt;Node10 -->
<g id="edge9" class="edge"><title>Node1&#45;&gt;Node10</title>
<path fill="none" stroke="midnightblue" d="M323.587,-246.315C318.189,-235.501 312.711,-222.497 310,-210 305.296,-188.317 311.703,-163.182 317.542,-146.622"/>
<polygon fill="midnightblue" stroke="midnightblue" points="320.879,-147.692 321.173,-137.101 314.339,-145.197 320.879,-147.692"/>
</g>
<!-- Node11 -->
<g id="node11" class="node"><title>Node11</title>
<g id="a_node11"><a xlink:href="Singleton_8hpp.html" target="_top" xlink:title="Core/Utils/Singleton.hpp">
<polygon fill="white" stroke="black" points="50,-185 50,-204 182,-204 182,-185 50,-185"/>
<text text-anchor="middle" x="116" y="-192" font-family="Helvetica,sans-Serif" font-size="10.00">Core/Utils/Singleton.hpp</text>
</a>
</g>
</g>
<!-- Node1&#45;&gt;Node11 -->
<g id="edge10" class="edge"><title>Node1&#45;&gt;Node11</title>
<path fill="none" stroke="midnightblue" d="M264.694,-246.404C226.341,-233.274 181.176,-217.812 150.771,-207.404"/>
<polygon fill="midnightblue" stroke="midnightblue" points="151.651,-204.006 141.057,-204.078 149.384,-210.628 151.651,-204.006"/>
</g>
<!-- Node13 -->
<g id="node13" class="node"><title>Node13</title>
<g id="a_node13"><a xlink:href="OpenGL_8hpp.html" target="_top" xlink:title="Engine/Renderer/OpenGL\l/OpenGL.hpp">
<polygon fill="white" stroke="black" points="441,-112.5 441,-142.5 577,-142.5 577,-112.5 441,-112.5"/>
<text text-anchor="start" x="449" y="-130.5" font-family="Helvetica,sans-Serif" font-size="10.00">Engine/Renderer/OpenGL</text>
<text text-anchor="middle" x="509" y="-119.5" font-family="Helvetica,sans-Serif" font-size="10.00">/OpenGL.hpp</text>
</a>
</g>
</g>
<!-- Node1&#45;&gt;Node13 -->
<g id="edge13" class="edge"><title>Node1&#45;&gt;Node13</title>
<path fill="none" stroke="midnightblue" d="M404.364,-246.398C423.752,-236.964 444.006,-224.846 460,-210 477.499,-193.757 490.864,-169.857 499.182,-152.135"/>
<polygon fill="midnightblue" stroke="midnightblue" points="502.596,-153.075 503.489,-142.518 496.207,-150.214 502.596,-153.075"/>
</g>
<!-- Node16 -->
<g id="node16" class="node"><title>Node16</title>
<g id="a_node16"><a xlink:href="Texture_8hpp.html" target="_top" xlink:title="Engine/Renderer/Texture\l/Texture.hpp">
<polygon fill="white" stroke="black" points="319,-179.5 319,-209.5 451,-209.5 451,-179.5 319,-179.5"/>
<text text-anchor="start" x="327" y="-197.5" font-family="Helvetica,sans-Serif" font-size="10.00">Engine/Renderer/Texture</text>
<text text-anchor="middle" x="385" y="-186.5" font-family="Helvetica,sans-Serif" font-size="10.00">/Texture.hpp</text>
</a>
</g>
</g>
<!-- Node1&#45;&gt;Node16 -->
<g id="edge16" class="edge"><title>Node1&#45;&gt;Node16</title>
<path fill="none" stroke="midnightblue" d="M353.65,-246.193C359.2,-237.22 365.409,-227.179 370.828,-218.416"/>
<polygon fill="midnightblue" stroke="midnightblue" points="373.846,-220.191 376.129,-209.845 367.892,-216.509 373.846,-220.191"/>
</g>
<!-- Node3 -->
<g id="node3" class="node"><title>Node3</title>
<g id="a_node3"><a xlink:href="CoreMacros_8hpp.html" target="_top" xlink:title="Core/CoreMacros.hpp">
<polygon fill="white" stroke="black" points="103,-56.5 103,-75.5 223,-75.5 223,-56.5 103,-56.5"/>
<text text-anchor="middle" x="163" y="-63.5" font-family="Helvetica,sans-Serif" font-size="10.00">Core/CoreMacros.hpp</text>
</a>
</g>
</g>
<!-- Node2&#45;&gt;Node3 -->
<g id="edge2" class="edge"><title>Node2&#45;&gt;Node3</title>
<path fill="none" stroke="midnightblue" d="M216.974,-117.975C207.243,-108.785 191.542,-93.9563 179.577,-82.656"/>
<polygon fill="midnightblue" stroke="midnightblue" points="181.683,-79.8308 172.01,-75.5091 176.877,-84.9199 181.683,-79.8308"/>
</g>
<!-- Node4 -->
<g id="node4" class="node"><title>Node4</title>
<polygon fill="white" stroke="#bfbfbf" points="0,-0.5 0,-19.5 52,-19.5 52,-0.5 0,-0.5"/>
<text text-anchor="middle" x="26" y="-7.5" font-family="Helvetica,sans-Serif" font-size="10.00">cassert</text>
</g>
<!-- Node3&#45;&gt;Node4 -->
<g id="edge3" class="edge"><title>Node3&#45;&gt;Node4</title>
<path fill="none" stroke="midnightblue" d="M141.292,-56.4435C118.645,-47.5171 82.9279,-33.4387 57.2482,-23.3168"/>
<polygon fill="midnightblue" stroke="midnightblue" points="58.1934,-19.9273 47.6065,-19.5164 55.6264,-26.4397 58.1934,-19.9273"/>
</g>
<!-- Node5 -->
<g id="node5" class="node"><title>Node5</title>
<polygon fill="white" stroke="#bfbfbf" points="70.5,-0.5 70.5,-19.5 115.5,-19.5 115.5,-0.5 70.5,-0.5"/>
<text text-anchor="middle" x="93" y="-7.5" font-family="Helvetica,sans-Serif" font-size="10.00">cstdio</text>
</g>
<!-- Node3&#45;&gt;Node5 -->
<g id="edge4" class="edge"><title>Node3&#45;&gt;Node5</title>
<path fill="none" stroke="midnightblue" d="M151.753,-56.324C141.203,-48.1849 125.199,-35.8395 112.558,-26.0874"/>
<polygon fill="midnightblue" stroke="midnightblue" points="114.507,-23.1707 104.451,-19.8339 110.231,-28.7132 114.507,-23.1707"/>
</g>
<!-- Node6 -->
<g id="node6" class="node"><title>Node6</title>
<polygon fill="white" stroke="#bfbfbf" points="133.5,-0.5 133.5,-19.5 192.5,-19.5 192.5,-0.5 133.5,-0.5"/>
<text text-anchor="middle" x="163" y="-7.5" font-family="Helvetica,sans-Serif" font-size="10.00">iostream</text>
</g>
<!-- Node3&#45;&gt;Node6 -->
<g id="edge5" class="edge"><title>Node3&#45;&gt;Node6</title>
<path fill="none" stroke="midnightblue" d="M163,-56.083C163,-49.0059 163,-38.8611 163,-29.9865"/>
<polygon fill="midnightblue" stroke="midnightblue" points="166.5,-29.751 163,-19.7511 159.5,-29.7511 166.5,-29.751"/>
</g>
<!-- Node7 -->
<g id="node7" class="node"><title>Node7</title>
<polygon fill="white" stroke="#bfbfbf" points="211,-0.5 211,-19.5 267,-19.5 267,-0.5 211,-0.5"/>
<text text-anchor="middle" x="239" y="-7.5" font-family="Helvetica,sans-Serif" font-size="10.00">sstream</text>
</g>
<!-- Node3&#45;&gt;Node7 -->
<g id="edge6" class="edge"><title>Node3&#45;&gt;Node7</title>
<path fill="none" stroke="midnightblue" d="M175.211,-56.324C186.776,-48.1066 204.375,-35.6017 218.161,-25.8069"/>
<polygon fill="midnightblue" stroke="midnightblue" points="220.443,-28.4791 226.567,-19.8339 216.388,-22.7729 220.443,-28.4791"/>
</g>
<!-- Node8 -->
<g id="node8" class="node"><title>Node8</title>
<polygon fill="white" stroke="#bfbfbf" points="285,-0.5 285,-19.5 333,-19.5 333,-0.5 285,-0.5"/>
<text text-anchor="middle" x="309" y="-7.5" font-family="Helvetica,sans-Serif" font-size="10.00">thread</text>
</g>
<!-- Node3&#45;&gt;Node8 -->
<g id="edge7" class="edge"><title>Node3&#45;&gt;Node8</title>
<path fill="none" stroke="midnightblue" d="M186.134,-56.4435C210.482,-47.4381 249.007,-33.1891 276.423,-23.049"/>
<polygon fill="midnightblue" stroke="midnightblue" points="277.809,-26.2681 285.974,-19.5164 275.381,-19.7028 277.809,-26.2681"/>
</g>
<!-- Node12 -->
<g id="node12" class="node"><title>Node12</title>
<g id="a_node12"><a xlink:href="RaCore_8hpp.html" target="_top" xlink:title="Core/RaCore.hpp">
<polygon fill="white" stroke="black" points="51,-118 51,-137 149,-137 149,-118 51,-118"/>
<text text-anchor="middle" x="100" y="-125" font-family="Helvetica,sans-Serif" font-size="10.00">Core/RaCore.hpp</text>
</a>
</g>
</g>
<!-- Node11&#45;&gt;Node12 -->
<g id="edge11" class="edge"><title>Node11&#45;&gt;Node12</title>
<path fill="none" stroke="midnightblue" d="M113.842,-184.734C111.467,-175.085 107.582,-159.3 104.531,-146.906"/>
<polygon fill="midnightblue" stroke="midnightblue" points="107.912,-146.001 102.124,-137.127 101.115,-147.674 107.912,-146.001"/>
</g>
<!-- Node12&#45;&gt;Node3 -->
<g id="edge12" class="edge"><title>Node12&#45;&gt;Node3</title>
<path fill="none" stroke="midnightblue" d="M109.026,-117.975C118.757,-108.785 134.458,-93.9563 146.423,-82.656"/>
<polygon fill="midnightblue" stroke="midnightblue" points="149.123,-84.9199 153.99,-75.5091 144.317,-79.8308 149.123,-84.9199"/>
</g>
<!-- Node14 -->
<g id="node14" class="node"><title>Node14</title>
<polygon fill="white" stroke="#bfbfbf" points="516,-56.5 516,-75.5 640,-75.5 640,-56.5 516,-56.5"/>
<text text-anchor="middle" x="578" y="-63.5" font-family="Helvetica,sans-Serif" font-size="10.00">glbinding/gl45core/gl.h</text>
</g>
<!-- Node13&#45;&gt;Node14 -->
<g id="edge14" class="edge"><title>Node13&#45;&gt;Node14</title>
<path fill="none" stroke="midnightblue" d="M525.352,-112.399C535.895,-103.308 549.6,-91.4899 560.384,-82.1909"/>
<polygon fill="midnightblue" stroke="midnightblue" points="562.672,-84.8389 567.96,-75.6578 558.101,-79.5377 562.672,-84.8389"/>
</g>
<!-- Node15 -->
<g id="node15" class="node"><title>Node15</title>
<polygon fill="white" stroke="#bfbfbf" points="380,-56.5 380,-75.5 498,-75.5 498,-56.5 380,-56.5"/>
<text text-anchor="middle" x="439" y="-63.5" font-family="Helvetica,sans-Serif" font-size="10.00">glbinding/gl45ext/gl.h</text>
</g>
<!-- Node13&#45;&gt;Node15 -->
<g id="edge15" class="edge"><title>Node13&#45;&gt;Node15</title>
<path fill="none" stroke="midnightblue" d="M492.411,-112.399C481.715,-103.308 467.812,-91.4899 456.872,-82.1909"/>
<polygon fill="midnightblue" stroke="midnightblue" points="459.072,-79.4675 449.186,-75.6578 454.538,-84.8011 459.072,-79.4675"/>
</g>
<!-- Node16&#45;&gt;Node2 -->
<g id="edge17" class="edge"><title>Node16&#45;&gt;Node2</title>
<path fill="none" stroke="midnightblue" d="M350.499,-179.396C322.354,-167.89 282.989,-151.797 256.105,-140.807"/>
<polygon fill="midnightblue" stroke="midnightblue" points="257.39,-137.551 246.809,-137.007 254.741,-144.031 257.39,-137.551"/>
</g>
<!-- Node16&#45;&gt;Node10 -->
<g id="edge19" class="edge"><title>Node16&#45;&gt;Node10</title>
<path fill="none" stroke="midnightblue" d="M371.981,-179.396C362.533,-169.161 349.735,-155.296 339.882,-144.622"/>
<polygon fill="midnightblue" stroke="midnightblue" points="342.38,-142.169 333.026,-137.195 337.237,-146.917 342.38,-142.169"/>
</g>
<!-- Node16&#45;&gt;Node13 -->
<g id="edge20" class="edge"><title>Node16&#45;&gt;Node13</title>
<path fill="none" stroke="midnightblue" d="M411.906,-179.396C429.861,-169.984 453.672,-157.503 473.22,-147.256"/>
<polygon fill="midnightblue" stroke="midnightblue" points="474.914,-150.319 482.146,-142.577 471.664,-144.119 474.914,-150.319"/>
</g>
<!-- Node17 -->
<g id="node17" class="node"><title>Node17</title>
<polygon fill="white" stroke="#bfbfbf" points="365.5,-118 365.5,-137 422.5,-137 422.5,-118 365.5,-118"/>
<text text-anchor="middle" x="394" y="-125" font-family="Helvetica,sans-Serif" font-size="10.00">memory</text>
</g>
<!-- Node16&#45;&gt;Node17 -->
<g id="edge18" class="edge"><title>Node16&#45;&gt;Node17</title>
<path fill="none" stroke="midnightblue" d="M386.953,-179.396C388.259,-169.963 389.992,-157.448 391.412,-147.189"/>
<polygon fill="midnightblue" stroke="midnightblue" points="394.891,-147.58 392.796,-137.195 387.958,-146.62 394.891,-147.58"/>
</g>
</g>
</svg>
