<?xml version="1.0" encoding="UTF-8" standalone="no"?>
<!DOCTYPE svg PUBLIC "-//W3C//DTD SVG 1.1//EN"
 "http://www.w3.org/Graphics/SVG/1.1/DTD/svg11.dtd">
<!-- Generated by graphviz version 2.38.0 (20140413.2041)
 -->
<!-- Title: /home/travis/build/STORM&#45;IRIT/Radium&#45;Engine/src/Core/Geometry/TopologicalMesh.inl Pages: 1 -->
<svg width="1321pt" height="520pt"
 viewBox="0.00 0.00 1320.50 520.00" xmlns="http://www.w3.org/2000/svg" xmlns:xlink="http://www.w3.org/1999/xlink">
<g id="graph0" class="graph" transform="scale(1 1) rotate(0) translate(4 516)">
<title>/home/travis/build/STORM&#45;IRIT/Radium&#45;Engine/src/Core/Geometry/TopologicalMesh.inl</title>
<polygon fill="white" stroke="none" points="-4,4 -4,-516 1316.5,-516 1316.5,4 -4,4"/>
<!-- Node1 -->
<g id="node1" class="node"><title>Node1</title>
<polygon fill="#bfbfbf" stroke="black" points="390,-470.5 390,-511.5 594,-511.5 594,-470.5 390,-470.5"/>
<text text-anchor="start" x="398" y="-499.5" font-family="Helvetica,sans-Serif" font-size="10.00">/home/travis/build</text>
<text text-anchor="start" x="398" y="-488.5" font-family="Helvetica,sans-Serif" font-size="10.00">/STORM&#45;IRIT/Radium&#45;Engine</text>
<text text-anchor="middle" x="492" y="-477.5" font-family="Helvetica,sans-Serif" font-size="10.00">/src/Core/Geometry/TopologicalMesh.inl</text>
</g>
<!-- Node2 -->
<g id="node2" class="node"><title>Node2</title>
<g id="a_node2"><a xlink:href="TopologicalMesh_8hpp.html" target="_top" xlink:title="TopologicalMesh.hpp">
<polygon fill="white" stroke="black" points="434.5,-414.5 434.5,-433.5 549.5,-433.5 549.5,-414.5 434.5,-414.5"/>
<text text-anchor="middle" x="492" y="-421.5" font-family="Helvetica,sans-Serif" font-size="10.00">TopologicalMesh.hpp</text>
</a>
</g>
</g>
<!-- Node1&#45;&gt;Node2 -->
<g id="edge1" class="edge"><title>Node1&#45;&gt;Node2</title>
<path fill="none" stroke="midnightblue" d="M485.755,-470.498C485.057,-461.969 485.083,-452.011 485.833,-443.59"/>
<polygon fill="midnightblue" stroke="midnightblue" points="489.303,-444.044 487.236,-433.652 482.372,-443.065 489.303,-444.044"/>
</g>
<!-- Node2&#45;&gt;Node1 -->
<g id="edge47" class="edge"><title>Node2&#45;&gt;Node1</title>
<path fill="none" stroke="midnightblue" d="M496.764,-433.652C498.227,-440.524 498.881,-450.559 498.728,-460.263"/>
<polygon fill="midnightblue" stroke="midnightblue" points="495.221,-460.344 498.245,-470.498 502.213,-460.674 495.221,-460.344"/>
</g>
<!-- Node3 -->
<g id="node3" class="node"><title>Node3</title>
<g id="a_node3"><a xlink:href="OpenMesh_8h.html" target="_top" xlink:title="Core/Geometry/OpenMesh.h">
<polygon fill="white" stroke="black" points="215.5,-235.5 215.5,-254.5 368.5,-254.5 368.5,-235.5 215.5,-235.5"/>
<text text-anchor="middle" x="292" y="-242.5" font-family="Helvetica,sans-Serif" font-size="10.00">Core/Geometry/OpenMesh.h</text>
</a>
</g>
</g>
<!-- Node2&#45;&gt;Node3 -->
<g id="edge2" class="edge"><title>Node2&#45;&gt;Node3</title>
<path fill="none" stroke="midnightblue" d="M472.568,-414.451C455.431,-406.406 430.26,-393.325 411,-378 366.51,-342.598 324.411,-289.768 304.313,-262.943"/>
<polygon fill="midnightblue" stroke="midnightblue" points="306.912,-260.571 298.153,-254.61 301.283,-264.732 306.912,-260.571"/>
</g>
<!-- Node4 -->
<g id="node4" class="node"><title>Node4</title>
<g id="a_node4"><a xlink:href="RaCore_8hpp.html" target="_top" xlink:title="Core/RaCore.hpp">
<polygon fill="white" stroke="black" points="605,-112.5 605,-131.5 703,-131.5 703,-112.5 605,-112.5"/>
<text text-anchor="middle" x="654" y="-119.5" font-family="Helvetica,sans-Serif" font-size="10.00">Core/RaCore.hpp</text>
</a>
</g>
</g>
<!-- Node2&#45;&gt;Node4 -->
<g id="edge39" class="edge"><title>Node2&#45;&gt;Node4</title>
<path fill="none" stroke="midnightblue" d="M496.674,-414.345C518.892,-373.2 614.024,-197.029 644.539,-140.52"/>
<polygon fill="midnightblue" stroke="midnightblue" points="647.636,-142.152 649.307,-131.69 641.476,-138.826 647.636,-142.152"/>
</g>
<!-- Node11 -->
<g id="node11" class="node"><title>Node11</title>
<polygon fill="white" stroke="#bfbfbf" points="250,-112.5 250,-131.5 318,-131.5 318,-112.5 250,-112.5"/>
<text text-anchor="middle" x="284" y="-119.5" font-family="Helvetica,sans-Serif" font-size="10.00">Eigen/Core</text>
</g>
<!-- Node2&#45;&gt;Node11 -->
<g id="edge45" class="edge"><title>Node2&#45;&gt;Node11</title>
<path fill="none" stroke="midnightblue" d="M434.039,-419.714C311.647,-411.188 38,-383.061 38,-302 38,-302 38,-302 38,-244 38,-209.183 31.7515,-191.974 57,-168 115.185,-112.752 156.193,-145.853 239.872,-132.028"/>
<polygon fill="midnightblue" stroke="midnightblue" points="240.539,-135.464 249.741,-130.213 239.273,-128.58 240.539,-135.464"/>
</g>
<!-- Node12 -->
<g id="node12" class="node"><title>Node12</title>
<polygon fill="white" stroke="#bfbfbf" points="138,-112.5 138,-131.5 232,-131.5 232,-112.5 138,-112.5"/>
<text text-anchor="middle" x="185" y="-119.5" font-family="Helvetica,sans-Serif" font-size="10.00">Eigen/Geometry</text>
</g>
<!-- Node2&#45;&gt;Node12 -->
<g id="edge46" class="edge"><title>Node2&#45;&gt;Node12</title>
<path fill="none" stroke="midnightblue" d="M434.466,-421.651C334.92,-418.525 135.229,-408.542 73,-378 30.9553,-357.365 0,-348.836 0,-302 0,-302 0,-302 0,-244 0,-206.812 6.92823,-192.39 35,-168 60.7227,-145.651 97.2119,-134.399 127.76,-128.735"/>
<polygon fill="midnightblue" stroke="midnightblue" points="128.594,-132.144 137.868,-127.021 127.424,-125.242 128.594,-132.144"/>
</g>
<!-- Node13 -->
<g id="node13" class="node"><title>Node13</title>
<g id="a_node13"><a xlink:href="Types_8hpp.html" target="_top" xlink:title="Core/Math/Types.hpp">
<polygon fill="white" stroke="black" points="472,-174 472,-193 588,-193 588,-174 472,-174"/>
<text text-anchor="middle" x="530" y="-181" font-family="Helvetica,sans-Serif" font-size="10.00">Core/Math/Types.hpp</text>
</a>
</g>
</g>
<!-- Node2&#45;&gt;Node13 -->
<g id="edge38" class="edge"><title>Node2&#45;&gt;Node13</title>
<path fill="none" stroke="midnightblue" d="M493.398,-414.229C498.926,-379.529 519.342,-251.392 527.038,-203.088"/>
<polygon fill="midnightblue" stroke="midnightblue" points="530.513,-203.526 528.63,-193.099 523.6,-202.424 530.513,-203.526"/>
</g>
<!-- Node15 -->
<g id="node15" class="node"><title>Node15</title>
<polygon fill="white" stroke="#bfbfbf" points="66,-168.5 66,-198.5 188,-198.5 188,-168.5 66,-168.5"/>
<text text-anchor="start" x="74" y="-186.5" font-family="Helvetica,sans-Serif" font-size="10.00">OpenMesh/Core/Mesh</text>
<text text-anchor="middle" x="127" y="-175.5" font-family="Helvetica,sans-Serif" font-size="10.00">/Traits.hh</text>
</g>
<!-- Node2&#45;&gt;Node15 -->
<g id="edge42" class="edge"><title>Node2&#45;&gt;Node15</title>
<path fill="none" stroke="midnightblue" d="M463.409,-414.483C438.912,-406.632 403.083,-393.819 374,-378 282.29,-328.118 189.464,-244.477 148.591,-205.578"/>
<polygon fill="midnightblue" stroke="midnightblue" points="150.99,-203.03 141.35,-198.636 146.146,-208.083 150.99,-203.03"/>
</g>
<!-- Node16 -->
<g id="node16" class="node"><title>Node16</title>
<polygon fill="white" stroke="#bfbfbf" points="320,-168.5 320,-198.5 454,-198.5 454,-168.5 320,-168.5"/>
<text text-anchor="start" x="328" y="-186.5" font-family="Helvetica,sans-Serif" font-size="10.00">OpenMesh/Core/Mesh</text>
<text text-anchor="middle" x="387" y="-175.5" font-family="Helvetica,sans-Serif" font-size="10.00">/TriMesh_ArrayKernelT.hh</text>
</g>
<!-- Node2&#45;&gt;Node16 -->
<g id="edge43" class="edge"><title>Node2&#45;&gt;Node16</title>
<path fill="none" stroke="midnightblue" d="M488.138,-414.229C473.362,-380.665 420.1,-259.685 397.383,-208.085"/>
<polygon fill="midnightblue" stroke="midnightblue" points="400.5,-206.479 393.268,-198.737 394.094,-209.299 400.5,-206.479"/>
</g>
<!-- Node17 -->
<g id="node17" class="node"><title>Node17</title>
<g id="a_node17"><a xlink:href="TriangleMesh_8hpp.html" target="_top" xlink:title="Core/Geometry/TriangleMesh.hpp">
<polygon fill="white" stroke="black" points="596,-353 596,-372 772,-372 772,-353 596,-353"/>
<text text-anchor="middle" x="684" y="-360" font-family="Helvetica,sans-Serif" font-size="10.00">Core/Geometry/TriangleMesh.hpp</text>
</a>
</g>
</g>
<!-- Node2&#45;&gt;Node17 -->
<g id="edge19" class="edge"><title>Node2&#45;&gt;Node17</title>
<path fill="none" stroke="midnightblue" d="M519.509,-414.475C552.871,-404.136 609.262,-386.661 646.563,-375.102"/>
<polygon fill="midnightblue" stroke="midnightblue" points="648.026,-378.312 656.542,-372.009 645.954,-371.626 648.026,-378.312"/>
</g>
<!-- Node23 -->
<g id="node23" class="node"><title>Node23</title>
<g id="a_node23"><a xlink:href="Index_8hpp.html" target="_top" xlink:title="Core/Utils/Index.hpp">
<polygon fill="white" stroke="black" points="947.5,-235.5 947.5,-254.5 1060.5,-254.5 1060.5,-235.5 947.5,-235.5"/>
<text text-anchor="middle" x="1004" y="-242.5" font-family="Helvetica,sans-Serif" font-size="10.00">Core/Utils/Index.hpp</text>
</a>
</g>
</g>
<!-- Node2&#45;&gt;Node23 -->
<g id="edge40" class="edge"><title>Node2&#45;&gt;Node23</title>
<path fill="none" stroke="midnightblue" d="M549.534,-417.831C666.544,-406.112 926.242,-373.556 986,-311 997.743,-298.707 1001.96,-279.451 1003.4,-265.083"/>
<polygon fill="midnightblue" stroke="midnightblue" points="1006.91,-265.039 1004.06,-254.836 999.927,-264.591 1006.91,-265.039"/>
</g>
<!-- Node27 -->
<g id="node27" class="node"><title>Node27</title>
<polygon fill="white" stroke="#bfbfbf" points="1034.5,-347.5 1034.5,-377.5 1177.5,-377.5 1177.5,-347.5 1034.5,-347.5"/>
<text text-anchor="start" x="1042.5" y="-365.5" font-family="Helvetica,sans-Serif" font-size="10.00">OpenMesh/Core/Mesh</text>
<text text-anchor="middle" x="1106" y="-354.5" font-family="Helvetica,sans-Serif" font-size="10.00">/PolyMesh_ArrayKernelT.hh</text>
</g>
<!-- Node2&#45;&gt;Node27 -->
<g id="edge41" class="edge"><title>Node2&#45;&gt;Node27</title>
<path fill="none" stroke="midnightblue" d="M549.589,-419.644C646.806,-413.631 849.555,-399.595 1020,-378 1021.31,-377.834 1022.63,-377.663 1023.96,-377.486"/>
<polygon fill="midnightblue" stroke="midnightblue" points="1024.85,-380.896 1034.27,-376.046 1023.88,-373.963 1024.85,-380.896"/>
</g>
<!-- Node28 -->
<g id="node28" class="node"><title>Node28</title>
<polygon fill="white" stroke="#bfbfbf" points="1195.5,-347.5 1195.5,-377.5 1312.5,-377.5 1312.5,-347.5 1195.5,-347.5"/>
<text text-anchor="start" x="1203.5" y="-365.5" font-family="Helvetica,sans-Serif" font-size="10.00">OpenMesh/Core/Utils</text>
<text text-anchor="middle" x="1254" y="-354.5" font-family="Helvetica,sans-Serif" font-size="10.00">/Property.hh</text>
</g>
<!-- Node2&#45;&gt;Node28 -->
<g id="edge44" class="edge"><title>Node2&#45;&gt;Node28</title>
<path fill="none" stroke="midnightblue" d="M549.501,-422.159C667.232,-419.813 944.283,-411.095 1185.26,-378.114"/>
<polygon fill="midnightblue" stroke="midnightblue" points="1185.84,-381.568 1195.26,-376.728 1184.88,-374.634 1185.84,-381.568"/>
</g>
<!-- Node3&#45;&gt;Node4 -->
<g id="edge3" class="edge"><title>Node3&#45;&gt;Node4</title>
<path fill="none" stroke="midnightblue" d="M291.314,-235.383C290.567,-219.439 291.509,-185.378 311,-168 313.635,-165.651 497.564,-142.461 594.957,-130.323"/>
<polygon fill="midnightblue" stroke="midnightblue" points="595.469,-133.787 604.96,-129.078 594.604,-126.84 595.469,-133.787"/>
</g>
<!-- Node3&#45;&gt;Node11 -->
<g id="edge10" class="edge"><title>Node3&#45;&gt;Node11</title>
<path fill="none" stroke="midnightblue" d="M288.4,-235.222C284.944,-226.285 279.967,-211.942 278,-199 275.056,-179.626 277.524,-157.239 280.129,-141.806"/>
<polygon fill="midnightblue" stroke="midnightblue" points="283.576,-142.413 281.975,-131.94 276.696,-141.126 283.576,-142.413"/>
</g>
<!-- Node3&#45;&gt;Node12 -->
<g id="edge11" class="edge"><title>Node3&#45;&gt;Node12</title>
<path fill="none" stroke="midnightblue" d="M284.305,-235.298C266.49,-215.153 222.19,-165.056 199.259,-139.125"/>
<polygon fill="midnightblue" stroke="midnightblue" points="201.872,-136.796 192.625,-131.623 196.628,-141.433 201.872,-136.796"/>
</g>
<!-- Node3&#45;&gt;Node13 -->
<g id="edge12" class="edge"><title>Node3&#45;&gt;Node13</title>
<path fill="none" stroke="midnightblue" d="M326.1,-235.475C368.251,-224.937 440.055,-206.986 486.234,-195.441"/>
<polygon fill="midnightblue" stroke="midnightblue" points="487.111,-198.83 495.964,-193.009 485.413,-192.039 487.111,-198.83"/>
</g>
<!-- Node3&#45;&gt;Node15 -->
<g id="edge17" class="edge"><title>Node3&#45;&gt;Node15</title>
<path fill="none" stroke="midnightblue" d="M268.36,-235.475C244.237,-226.776 206.107,-213.026 175.524,-201.998"/>
<polygon fill="midnightblue" stroke="midnightblue" points="176.482,-198.623 165.887,-198.523 174.107,-205.208 176.482,-198.623"/>
</g>
<!-- Node3&#45;&gt;Node16 -->
<g id="edge18" class="edge"><title>Node3&#45;&gt;Node16</title>
<path fill="none" stroke="midnightblue" d="M305.611,-235.475C318.718,-227.266 339.008,-214.558 356.05,-203.885"/>
<polygon fill="midnightblue" stroke="midnightblue" points="357.993,-206.797 364.61,-198.523 354.278,-200.865 357.993,-206.797"/>
</g>
<!-- Node5 -->
<g id="node5" class="node"><title>Node5</title>
<g id="a_node5"><a xlink:href="CoreMacros_8hpp.html" target="_top" xlink:title="Core/CoreMacros.hpp">
<polygon fill="white" stroke="black" points="594,-56.5 594,-75.5 714,-75.5 714,-56.5 594,-56.5"/>
<text text-anchor="middle" x="654" y="-63.5" font-family="Helvetica,sans-Serif" font-size="10.00">Core/CoreMacros.hpp</text>
</a>
</g>
</g>
<!-- Node4&#45;&gt;Node5 -->
<g id="edge4" class="edge"><title>Node4&#45;&gt;Node5</title>
<path fill="none" stroke="midnightblue" d="M654,-112.083C654,-105.006 654,-94.8611 654,-85.9865"/>
<polygon fill="midnightblue" stroke="midnightblue" points="657.5,-85.751 654,-75.7511 650.5,-85.7511 657.5,-85.751"/>
</g>
<!-- Node6 -->
<g id="node6" class="node"><title>Node6</title>
<polygon fill="white" stroke="#bfbfbf" points="491,-0.5 491,-19.5 543,-19.5 543,-0.5 491,-0.5"/>
<text text-anchor="middle" x="517" y="-7.5" font-family="Helvetica,sans-Serif" font-size="10.00">cassert</text>
</g>
<!-- Node5&#45;&gt;Node6 -->
<g id="edge5" class="edge"><title>Node5&#45;&gt;Node6</title>
<path fill="none" stroke="midnightblue" d="M632.292,-56.4435C609.645,-47.5171 573.928,-33.4387 548.248,-23.3168"/>
<polygon fill="midnightblue" stroke="midnightblue" points="549.193,-19.9273 538.606,-19.5164 546.626,-26.4397 549.193,-19.9273"/>
</g>
<!-- Node7 -->
<g id="node7" class="node"><title>Node7</title>
<polygon fill="white" stroke="#bfbfbf" points="561.5,-0.5 561.5,-19.5 606.5,-19.5 606.5,-0.5 561.5,-0.5"/>
<text text-anchor="middle" x="584" y="-7.5" font-family="Helvetica,sans-Serif" font-size="10.00">cstdio</text>
</g>
<!-- Node5&#45;&gt;Node7 -->
<g id="edge6" class="edge"><title>Node5&#45;&gt;Node7</title>
<path fill="none" stroke="midnightblue" d="M642.753,-56.324C632.203,-48.1849 616.199,-35.8395 603.558,-26.0874"/>
<polygon fill="midnightblue" stroke="midnightblue" points="605.507,-23.1707 595.451,-19.8339 601.231,-28.7132 605.507,-23.1707"/>
</g>
<!-- Node8 -->
<g id="node8" class="node"><title>Node8</title>
<polygon fill="white" stroke="#bfbfbf" points="624.5,-0.5 624.5,-19.5 683.5,-19.5 683.5,-0.5 624.5,-0.5"/>
<text text-anchor="middle" x="654" y="-7.5" font-family="Helvetica,sans-Serif" font-size="10.00">iostream</text>
</g>
<!-- Node5&#45;&gt;Node8 -->
<g id="edge7" class="edge"><title>Node5&#45;&gt;Node8</title>
<path fill="none" stroke="midnightblue" d="M654,-56.083C654,-49.0059 654,-38.8611 654,-29.9865"/>
<polygon fill="midnightblue" stroke="midnightblue" points="657.5,-29.751 654,-19.7511 650.5,-29.7511 657.5,-29.751"/>
</g>
<!-- Node9 -->
<g id="node9" class="node"><title>Node9</title>
<polygon fill="white" stroke="#bfbfbf" points="702,-0.5 702,-19.5 758,-19.5 758,-0.5 702,-0.5"/>
<text text-anchor="middle" x="730" y="-7.5" font-family="Helvetica,sans-Serif" font-size="10.00">sstream</text>
</g>
<!-- Node5&#45;&gt;Node9 -->
<g id="edge8" class="edge"><title>Node5&#45;&gt;Node9</title>
<path fill="none" stroke="midnightblue" d="M666.211,-56.324C677.776,-48.1066 695.375,-35.6017 709.161,-25.8069"/>
<polygon fill="midnightblue" stroke="midnightblue" points="711.443,-28.4791 717.567,-19.8339 707.388,-22.7729 711.443,-28.4791"/>
</g>
<!-- Node10 -->
<g id="node10" class="node"><title>Node10</title>
<polygon fill="white" stroke="#bfbfbf" points="776,-0.5 776,-19.5 824,-19.5 824,-0.5 776,-0.5"/>
<text text-anchor="middle" x="800" y="-7.5" font-family="Helvetica,sans-Serif" font-size="10.00">thread</text>
</g>
<!-- Node5&#45;&gt;Node10 -->
<g id="edge9" class="edge"><title>Node5&#45;&gt;Node10</title>
<path fill="none" stroke="midnightblue" d="M677.134,-56.4435C701.482,-47.4381 740.007,-33.1891 767.423,-23.049"/>
<polygon fill="midnightblue" stroke="midnightblue" points="768.809,-26.2681 776.974,-19.5164 766.381,-19.7028 768.809,-26.2681"/>
</g>
<!-- Node13&#45;&gt;Node4 -->
<g id="edge13" class="edge"><title>Node13&#45;&gt;Node4</title>
<path fill="none" stroke="midnightblue" d="M547.766,-173.975C568.484,-164.034 602.952,-147.495 626.989,-135.961"/>
<polygon fill="midnightblue" stroke="midnightblue" points="628.765,-138.991 636.267,-131.509 625.737,-132.68 628.765,-138.991"/>
</g>
<!-- Node13&#45;&gt;Node11 -->
<g id="edge14" class="edge"><title>Node13&#45;&gt;Node11</title>
<path fill="none" stroke="midnightblue" d="M494.754,-173.975C450.847,-163.355 375.81,-145.206 328.126,-133.673"/>
<polygon fill="midnightblue" stroke="midnightblue" points="328.93,-130.266 318.387,-131.317 327.284,-137.07 328.93,-130.266"/>
</g>
<!-- Node13&#45;&gt;Node12 -->
<g id="edge15" class="edge"><title>Node13&#45;&gt;Node12</title>
<path fill="none" stroke="midnightblue" d="M492.157,-173.946C482.658,-171.899 472.472,-169.79 463,-168 457.587,-166.977 321.917,-145.076 242.143,-132.211"/>
<polygon fill="midnightblue" stroke="midnightblue" points="242.659,-128.749 232.229,-130.613 241.544,-135.66 242.659,-128.749"/>
</g>
<!-- Node14 -->
<g id="node14" class="node"><title>Node14</title>
<polygon fill="white" stroke="#bfbfbf" points="490,-112.5 490,-131.5 570,-131.5 570,-112.5 490,-112.5"/>
<text text-anchor="middle" x="530" y="-119.5" font-family="Helvetica,sans-Serif" font-size="10.00">Eigen/Sparse</text>
</g>
<!-- Node13&#45;&gt;Node14 -->
<g id="edge16" class="edge"><title>Node13&#45;&gt;Node14</title>
<path fill="none" stroke="midnightblue" d="M530,-173.975C530,-165.58 530,-152.481 530,-141.663"/>
<polygon fill="midnightblue" stroke="midnightblue" points="533.5,-141.509 530,-131.509 526.5,-141.509 533.5,-141.509"/>
</g>
<!-- Node17&#45;&gt;Node4 -->
<g id="edge29" class="edge"><title>Node17&#45;&gt;Node4</title>
<path fill="none" stroke="midnightblue" d="M677.099,-352.772C663.85,-335.392 635.256,-294.703 625,-255 619.462,-233.561 637.854,-171.981 647.9,-141.105"/>
<polygon fill="midnightblue" stroke="midnightblue" points="651.233,-142.174 651.053,-131.58 644.588,-139.974 651.233,-142.174"/>
</g>
<!-- Node17&#45;&gt;Node13 -->
<g id="edge28" class="edge"><title>Node17&#45;&gt;Node13</title>
<path fill="none" stroke="midnightblue" d="M659.45,-352.863C639.215,-344.708 610.873,-330.768 592,-311 561.705,-279.269 543.425,-229.898 535.196,-203.187"/>
<polygon fill="midnightblue" stroke="midnightblue" points="538.453,-201.854 532.279,-193.243 531.736,-203.824 538.453,-201.854"/>
</g>
<!-- Node18 -->
<g id="node18" class="node"><title>Node18</title>
<g id="a_node18"><a xlink:href="VectorArray_8hpp.html" target="_top" xlink:title="Core/Containers/VectorArray.hpp">
<polygon fill="white" stroke="black" points="634.5,-235.5 634.5,-254.5 807.5,-254.5 807.5,-235.5 634.5,-235.5"/>
<text text-anchor="middle" x="721" y="-242.5" font-family="Helvetica,sans-Serif" font-size="10.00">Core/Containers/VectorArray.hpp</text>
</a>
</g>
</g>
<!-- Node17&#45;&gt;Node18 -->
<g id="edge20" class="edge"><title>Node17&#45;&gt;Node18</title>
<path fill="none" stroke="midnightblue" d="M677.498,-352.915C668.034,-339.291 652.663,-312.103 663,-291 669.523,-277.684 682.096,-267.177 693.873,-259.676"/>
<polygon fill="midnightblue" stroke="midnightblue" points="695.771,-262.621 702.611,-254.529 692.218,-256.589 695.771,-262.621"/>
</g>
<!-- Node22 -->
<g id="node22" class="node"><title>Node22</title>
<g id="a_node22"><a xlink:href="Attribs_8hpp.html" target="_top" xlink:title="Core/Utils/Attribs.hpp">
<polygon fill="white" stroke="black" points="858.5,-291.5 858.5,-310.5 977.5,-310.5 977.5,-291.5 858.5,-291.5"/>
<text text-anchor="middle" x="918" y="-298.5" font-family="Helvetica,sans-Serif" font-size="10.00">Core/Utils/Attribs.hpp</text>
</a>
</g>
</g>
<!-- Node17&#45;&gt;Node22 -->
<g id="edge30" class="edge"><title>Node17&#45;&gt;Node22</title>
<path fill="none" stroke="midnightblue" d="M717.526,-352.975C758.882,-342.459 829.271,-324.562 874.684,-313.014"/>
<polygon fill="midnightblue" stroke="midnightblue" points="875.707,-316.366 884.536,-310.509 873.982,-309.581 875.707,-316.366"/>
</g>
<!-- Node26 -->
<g id="node26" class="node"><title>Node26</title>
<g id="a_node26"><a xlink:href="TriangleMesh_8inl.html" target="_top" xlink:title="Core/Geometry/TriangleMesh.inl">
<polygon fill="white" stroke="black" points="672,-291.5 672,-310.5 840,-310.5 840,-291.5 672,-291.5"/>
<text text-anchor="middle" x="756" y="-298.5" font-family="Helvetica,sans-Serif" font-size="10.00">Core/Geometry/TriangleMesh.inl</text>
</a>
</g>
</g>
<!-- Node17&#45;&gt;Node26 -->
<g id="edge36" class="edge"><title>Node17&#45;&gt;Node26</title>
<path fill="none" stroke="midnightblue" d="M689.415,-352.975C698.795,-343.52 717.121,-328.096 732.314,-316.687"/>
<polygon fill="midnightblue" stroke="midnightblue" points="734.779,-319.222 740.806,-310.509 730.661,-313.562 734.779,-319.222"/>
</g>
<!-- Node18&#45;&gt;Node4 -->
<g id="edge26" class="edge"><title>Node18&#45;&gt;Node4</title>
<path fill="none" stroke="midnightblue" d="M716.182,-235.298C705.22,-215.502 678.243,-166.782 663.686,-140.493"/>
<polygon fill="midnightblue" stroke="midnightblue" points="666.681,-138.676 658.775,-131.623 660.557,-142.067 666.681,-138.676"/>
</g>
<!-- Node18&#45;&gt;Node13 -->
<g id="edge25" class="edge"><title>Node18&#45;&gt;Node13</title>
<path fill="none" stroke="midnightblue" d="M693.634,-235.475C660.446,-225.136 604.349,-207.661 567.242,-196.102"/>
<polygon fill="midnightblue" stroke="midnightblue" points="567.903,-192.642 557.315,-193.009 565.821,-199.325 567.903,-192.642"/>
</g>
<!-- Node19 -->
<g id="node19" class="node"><title>Node19</title>
<g id="a_node19"><a xlink:href="AlignedStdVector_8hpp.html" target="_top" xlink:title="Core/Containers/AlignedStd\lVector.hpp">
<polygon fill="white" stroke="black" points="766.5,-168.5 766.5,-198.5 915.5,-198.5 915.5,-168.5 766.5,-168.5"/>
<text text-anchor="start" x="774.5" y="-186.5" font-family="Helvetica,sans-Serif" font-size="10.00">Core/Containers/AlignedStd</text>
<text text-anchor="middle" x="841" y="-175.5" font-family="Helvetica,sans-Serif" font-size="10.00">Vector.hpp</text>
</a>
</g>
</g>
<!-- Node18&#45;&gt;Node19 -->
<g id="edge21" class="edge"><title>Node18&#45;&gt;Node19</title>
<path fill="none" stroke="midnightblue" d="M738.193,-235.475C755.205,-227.04 781.796,-213.855 803.673,-203.008"/>
<polygon fill="midnightblue" stroke="midnightblue" points="805.314,-206.101 812.718,-198.523 802.204,-199.83 805.314,-206.101"/>
</g>
<!-- Node21 -->
<g id="node21" class="node"><title>Node21</title>
<polygon fill="white" stroke="#bfbfbf" points="912.5,-112.5 912.5,-131.5 959.5,-131.5 959.5,-112.5 912.5,-112.5"/>
<text text-anchor="middle" x="936" y="-119.5" font-family="Helvetica,sans-Serif" font-size="10.00">vector</text>
</g>
<!-- Node18&#45;&gt;Node21 -->
<g id="edge27" class="edge"><title>Node18&#45;&gt;Node21</title>
<path fill="none" stroke="midnightblue" d="M801.372,-235.471C850.53,-228.551 907.123,-216.949 924,-199 938.2,-183.898 939.594,-159.177 938.489,-142.049"/>
<polygon fill="midnightblue" stroke="midnightblue" points="941.924,-141.221 937.452,-131.616 934.959,-141.913 941.924,-141.221"/>
</g>
<!-- Node19&#45;&gt;Node4 -->
<g id="edge22" class="edge"><title>Node19&#45;&gt;Node4</title>
<path fill="none" stroke="midnightblue" d="M796.684,-168.399C764.371,-158.118 721.102,-144.351 690.714,-134.682"/>
<polygon fill="midnightblue" stroke="midnightblue" points="691.528,-131.268 680.937,-131.571 689.405,-137.938 691.528,-131.268"/>
</g>
<!-- Node20 -->
<g id="node20" class="node"><title>Node20</title>
<polygon fill="white" stroke="#bfbfbf" points="794.5,-112.5 794.5,-131.5 887.5,-131.5 887.5,-112.5 794.5,-112.5"/>
<text text-anchor="middle" x="841" y="-119.5" font-family="Helvetica,sans-Serif" font-size="10.00">Eigen/StdVector</text>
</g>
<!-- Node19&#45;&gt;Node20 -->
<g id="edge23" class="edge"><title>Node19&#45;&gt;Node20</title>
<path fill="none" stroke="midnightblue" d="M841,-168.399C841,-160.466 841,-150.458 841,-141.858"/>
<polygon fill="midnightblue" stroke="midnightblue" points="844.5,-141.658 841,-131.658 837.5,-141.658 844.5,-141.658"/>
</g>
<!-- Node19&#45;&gt;Node21 -->
<g id="edge24" class="edge"><title>Node19&#45;&gt;Node21</title>
<path fill="none" stroke="midnightblue" d="M863.514,-168.399C878.599,-158.951 898.385,-146.559 913.473,-137.109"/>
<polygon fill="midnightblue" stroke="midnightblue" points="915.559,-139.932 922.177,-131.658 911.844,-134 915.559,-139.932"/>
</g>
<!-- Node22&#45;&gt;Node4 -->
<g id="edge32" class="edge"><title>Node22&#45;&gt;Node4</title>
<path fill="none" stroke="midnightblue" d="M904.524,-291.294C885.054,-278.744 847.893,-254.89 816,-235 789.935,-218.745 782.495,-216.136 757,-199 726.956,-178.806 693.443,-153.54 673.04,-137.833"/>
<polygon fill="midnightblue" stroke="midnightblue" points="674.949,-134.884 664.898,-131.535 670.666,-140.422 674.949,-134.884"/>
</g>
<!-- Node22&#45;&gt;Node18 -->
<g id="edge31" class="edge"><title>Node22&#45;&gt;Node18</title>
<path fill="none" stroke="midnightblue" d="M886.785,-291.444C853.067,-282.201 799.2,-267.436 762.068,-257.257"/>
<polygon fill="midnightblue" stroke="midnightblue" points="762.639,-253.785 752.069,-254.516 760.788,-260.536 762.639,-253.785"/>
</g>
<!-- Node22&#45;&gt;Node23 -->
<g id="edge33" class="edge"><title>Node22&#45;&gt;Node23</title>
<path fill="none" stroke="midnightblue" d="M931.817,-291.324C945.233,-282.9 965.824,-269.971 981.586,-260.074"/>
<polygon fill="midnightblue" stroke="midnightblue" points="983.609,-262.936 990.217,-254.655 979.887,-257.008 983.609,-262.936"/>
</g>
<!-- Node24 -->
<g id="node24" class="node"><title>Node24</title>
<polygon fill="white" stroke="#bfbfbf" points="972,-174 972,-193 1014,-193 1014,-174 972,-174"/>
<text text-anchor="middle" x="993" y="-181" font-family="Helvetica,sans-Serif" font-size="10.00">limits</text>
</g>
<!-- Node23&#45;&gt;Node24 -->
<g id="edge34" class="edge"><title>Node23&#45;&gt;Node24</title>
<path fill="none" stroke="midnightblue" d="M1002.42,-235.475C1000.87,-227.08 998.45,-213.981 996.45,-203.163"/>
<polygon fill="midnightblue" stroke="midnightblue" points="999.833,-202.206 994.573,-193.009 992.949,-203.479 999.833,-202.206"/>
</g>
<!-- Node25 -->
<g id="node25" class="node"><title>Node25</title>
<g id="a_node25"><a xlink:href="Index_8inl.html" target="_top" xlink:title="Core/Utils/Index.inl">
<polygon fill="white" stroke="black" points="1032.5,-174 1032.5,-193 1137.5,-193 1137.5,-174 1032.5,-174"/>
<text text-anchor="middle" x="1085" y="-181" font-family="Helvetica,sans-Serif" font-size="10.00">Core/Utils/Index.inl</text>
</a>
</g>
</g>
<!-- Node23&#45;&gt;Node25 -->
<g id="edge35" class="edge"><title>Node23&#45;&gt;Node25</title>
<path fill="none" stroke="midnightblue" d="M1015.61,-235.475C1028.48,-226.02 1049.47,-210.596 1065.01,-199.187"/>
<polygon fill="midnightblue" stroke="midnightblue" points="1067.43,-201.75 1073.42,-193.009 1063.28,-196.108 1067.43,-201.75"/>
</g>
<!-- Node26&#45;&gt;Node17 -->
<g id="edge37" class="edge"><title>Node26&#45;&gt;Node17</title>
<path fill="none" stroke="midnightblue" d="M750.6,-310.509C741.231,-319.958 722.908,-335.38 707.711,-346.794"/>
<polygon fill="midnightblue" stroke="midnightblue" points="705.243,-344.261 699.216,-352.975 709.362,-349.921 705.243,-344.261"/>
</g>
</g>
</svg>
