<?xml version="1.0" encoding="UTF-8" standalone="no"?>
<!DOCTYPE svg PUBLIC "-//W3C//DTD SVG 1.1//EN"
 "http://www.w3.org/Graphics/SVG/1.1/DTD/svg11.dtd">
<!-- Generated by graphviz version 2.38.0 (20140413.2041)
 -->
<!-- Title: /home/travis/build/STORM&#45;IRIT/Radium&#45;Engine/src/Core/Geometry/TopologicalMesh.hpp Pages: 1 -->
<svg width="1278pt" height="464pt"
 viewBox="0.00 0.00 1277.50 464.00" xmlns="http://www.w3.org/2000/svg" xmlns:xlink="http://www.w3.org/1999/xlink">
<g id="graph0" class="graph" transform="scale(1 1) rotate(0) translate(4 460)">
<title>/home/travis/build/STORM&#45;IRIT/Radium&#45;Engine/src/Core/Geometry/TopologicalMesh.hpp</title>
<polygon fill="white" stroke="none" points="-4,4 -4,-460 1273.5,-460 1273.5,4 -4,4"/>
<!-- Node1 -->
<g id="node1" class="node"><title>Node1</title>
<polygon fill="#bfbfbf" stroke="black" points="462,-414.5 462,-455.5 674,-455.5 674,-414.5 462,-414.5"/>
<text text-anchor="start" x="470" y="-443.5" font-family="Helvetica,sans-Serif" font-size="10.00">/home/travis/build</text>
<text text-anchor="start" x="470" y="-432.5" font-family="Helvetica,sans-Serif" font-size="10.00">/STORM&#45;IRIT/Radium&#45;Engine</text>
<text text-anchor="middle" x="568" y="-421.5" font-family="Helvetica,sans-Serif" font-size="10.00">/src/Core/Geometry/TopologicalMesh.hpp</text>
</g>
<!-- Node2 -->
<g id="node2" class="node"><title>Node2</title>
<g id="a_node2"><a xlink:href="OpenMesh_8h.html" target="_top" xlink:title="Core/Geometry/OpenMesh.h">
<polygon fill="white" stroke="black" points="215.5,-235.5 215.5,-254.5 368.5,-254.5 368.5,-235.5 215.5,-235.5"/>
<text text-anchor="middle" x="292" y="-242.5" font-family="Helvetica,sans-Serif" font-size="10.00">Core/Geometry/OpenMesh.h</text>
</a>
</g>
</g>
<!-- Node1&#45;&gt;Node2 -->
<g id="edge1" class="edge"><title>Node1&#45;&gt;Node2</title>
<path fill="none" stroke="midnightblue" d="M490.677,-414.499C464.388,-405.781 435.69,-393.821 412,-378 364.101,-346.011 322.465,-290.836 303.272,-263.045"/>
<polygon fill="midnightblue" stroke="midnightblue" points="306.153,-261.059 297.646,-254.743 300.359,-264.985 306.153,-261.059"/>
</g>
<!-- Node3 -->
<g id="node3" class="node"><title>Node3</title>
<g id="a_node3"><a xlink:href="RaCore_8hpp.html" target="_top" xlink:title="Core/RaCore.hpp">
<polygon fill="white" stroke="black" points="605,-112.5 605,-131.5 703,-131.5 703,-112.5 605,-112.5"/>
<text text-anchor="middle" x="654" y="-119.5" font-family="Helvetica,sans-Serif" font-size="10.00">Core/RaCore.hpp</text>
</a>
</g>
</g>
<!-- Node1&#45;&gt;Node3 -->
<g id="edge38" class="edge"><title>Node1&#45;&gt;Node3</title>
<path fill="none" stroke="midnightblue" d="M570.72,-414.447C577.337,-369.706 596.254,-256.883 630,-168 633.575,-158.584 638.711,-148.651 643.316,-140.52"/>
<polygon fill="midnightblue" stroke="midnightblue" points="646.479,-142.046 648.528,-131.651 640.444,-138.499 646.479,-142.046"/>
</g>
<!-- Node10 -->
<g id="node10" class="node"><title>Node10</title>
<polygon fill="white" stroke="#bfbfbf" points="250,-112.5 250,-131.5 318,-131.5 318,-112.5 250,-112.5"/>
<text text-anchor="middle" x="284" y="-119.5" font-family="Helvetica,sans-Serif" font-size="10.00">Eigen/Core</text>
</g>
<!-- Node1&#45;&gt;Node10 -->
<g id="edge44" class="edge"><title>Node1&#45;&gt;Node10</title>
<path fill="none" stroke="midnightblue" d="M461.702,-428.982C306.984,-418.728 38,-388.468 38,-302 38,-302 38,-302 38,-244 38,-209.183 31.7515,-191.974 57,-168 115.185,-112.752 156.193,-145.853 239.872,-132.028"/>
<polygon fill="midnightblue" stroke="midnightblue" points="240.539,-135.464 249.741,-130.213 239.273,-128.58 240.539,-135.464"/>
</g>
<!-- Node11 -->
<g id="node11" class="node"><title>Node11</title>
<polygon fill="white" stroke="#bfbfbf" points="138,-112.5 138,-131.5 232,-131.5 232,-112.5 138,-112.5"/>
<text text-anchor="middle" x="185" y="-119.5" font-family="Helvetica,sans-Serif" font-size="10.00">Eigen/Geometry</text>
</g>
<!-- Node1&#45;&gt;Node11 -->
<g id="edge45" class="edge"><title>Node1&#45;&gt;Node11</title>
<path fill="none" stroke="midnightblue" d="M461.948,-430.607C336.8,-425.129 137.331,-411.344 71,-378 29.7003,-357.239 0,-348.224 0,-302 0,-302 0,-302 0,-244 0,-206.812 6.92823,-192.39 35,-168 60.7227,-145.651 97.2119,-134.399 127.76,-128.735"/>
<polygon fill="midnightblue" stroke="midnightblue" points="128.594,-132.144 137.868,-127.021 127.424,-125.242 128.594,-132.144"/>
</g>
<!-- Node12 -->
<g id="node12" class="node"><title>Node12</title>
<g id="a_node12"><a xlink:href="Types_8hpp.html" target="_top" xlink:title="Core/Math/Types.hpp">
<polygon fill="white" stroke="black" points="472,-174 472,-193 588,-193 588,-174 472,-174"/>
<text text-anchor="middle" x="530" y="-181" font-family="Helvetica,sans-Serif" font-size="10.00">Core/Math/Types.hpp</text>
</a>
</g>
</g>
<!-- Node1&#45;&gt;Node12 -->
<g id="edge37" class="edge"><title>Node1&#45;&gt;Node12</title>
<path fill="none" stroke="midnightblue" d="M562.487,-414.432C559.632,-403.737 556.276,-390.216 554,-378 542.136,-314.316 534.598,-237.716 531.548,-203.096"/>
<polygon fill="midnightblue" stroke="midnightblue" points="535.028,-202.709 530.686,-193.044 528.053,-203.307 535.028,-202.709"/>
</g>
<!-- Node14 -->
<g id="node14" class="node"><title>Node14</title>
<polygon fill="white" stroke="#bfbfbf" points="66,-168.5 66,-198.5 188,-198.5 188,-168.5 66,-168.5"/>
<text text-anchor="start" x="74" y="-186.5" font-family="Helvetica,sans-Serif" font-size="10.00">OpenMesh/Core/Mesh</text>
<text text-anchor="middle" x="127" y="-175.5" font-family="Helvetica,sans-Serif" font-size="10.00">/Traits.hh</text>
</g>
<!-- Node1&#45;&gt;Node14 -->
<g id="edge41" class="edge"><title>Node1&#45;&gt;Node14</title>
<path fill="none" stroke="midnightblue" d="M472.96,-414.435C439.728,-405.675 402.8,-393.707 371,-378 277.838,-331.986 187.037,-246.004 147.559,-205.998"/>
<polygon fill="midnightblue" stroke="midnightblue" points="149.855,-203.34 140.362,-198.635 144.849,-208.233 149.855,-203.34"/>
</g>
<!-- Node15 -->
<g id="node15" class="node"><title>Node15</title>
<polygon fill="white" stroke="#bfbfbf" points="320,-168.5 320,-198.5 454,-198.5 454,-168.5 320,-168.5"/>
<text text-anchor="start" x="328" y="-186.5" font-family="Helvetica,sans-Serif" font-size="10.00">OpenMesh/Core/Mesh</text>
<text text-anchor="middle" x="387" y="-175.5" font-family="Helvetica,sans-Serif" font-size="10.00">/TriMesh_ArrayKernelT.hh</text>
</g>
<!-- Node1&#45;&gt;Node15 -->
<g id="edge42" class="edge"><title>Node1&#45;&gt;Node15</title>
<path fill="none" stroke="midnightblue" d="M553.797,-414.422C520.611,-368.676 438.148,-255.006 403.135,-206.742"/>
<polygon fill="midnightblue" stroke="midnightblue" points="405.877,-204.561 397.172,-198.522 400.211,-208.672 405.877,-204.561"/>
</g>
<!-- Node16 -->
<g id="node16" class="node"><title>Node16</title>
<g id="a_node16"><a xlink:href="TriangleMesh_8hpp.html" target="_top" xlink:title="Core/Geometry/TriangleMesh.hpp">
<polygon fill="white" stroke="black" points="596,-353 596,-372 772,-372 772,-353 596,-353"/>
<text text-anchor="middle" x="684" y="-360" font-family="Helvetica,sans-Serif" font-size="10.00">Core/Geometry/TriangleMesh.hpp</text>
</a>
</g>
</g>
<!-- Node1&#45;&gt;Node16 -->
<g id="edge18" class="edge"><title>Node1&#45;&gt;Node16</title>
<path fill="none" stroke="midnightblue" d="M600.312,-414.362C619.544,-402.674 643.497,-388.116 660.844,-377.573"/>
<polygon fill="midnightblue" stroke="midnightblue" points="663.001,-380.358 669.729,-372.173 659.366,-374.376 663.001,-380.358"/>
</g>
<!-- Node22 -->
<g id="node22" class="node"><title>Node22</title>
<g id="a_node22"><a xlink:href="Index_8hpp.html" target="_top" xlink:title="Core/Utils/Index.hpp">
<polygon fill="white" stroke="black" points="947.5,-235.5 947.5,-254.5 1060.5,-254.5 1060.5,-235.5 947.5,-235.5"/>
<text text-anchor="middle" x="1004" y="-242.5" font-family="Helvetica,sans-Serif" font-size="10.00">Core/Utils/Index.hpp</text>
</a>
</g>
</g>
<!-- Node1&#45;&gt;Node22 -->
<g id="edge39" class="edge"><title>Node1&#45;&gt;Node22</title>
<path fill="none" stroke="midnightblue" d="M674.179,-415.492C709.358,-406.933 747.944,-394.82 781,-378 800.426,-368.115 799.358,-356.447 819,-347 887.424,-314.09 930.782,-363.114 986,-311 998.498,-299.205 1002.58,-279.57 1003.79,-264.961"/>
<polygon fill="midnightblue" stroke="midnightblue" points="1007.31,-264.714 1004.25,-254.569 1000.31,-264.404 1007.31,-264.714"/>
</g>
<!-- Node26 -->
<g id="node26" class="node"><title>Node26</title>
<polygon fill="white" stroke="#bfbfbf" points="828.5,-347.5 828.5,-377.5 971.5,-377.5 971.5,-347.5 828.5,-347.5"/>
<text text-anchor="start" x="836.5" y="-365.5" font-family="Helvetica,sans-Serif" font-size="10.00">OpenMesh/Core/Mesh</text>
<text text-anchor="middle" x="900" y="-354.5" font-family="Helvetica,sans-Serif" font-size="10.00">/PolyMesh_ArrayKernelT.hh</text>
</g>
<!-- Node1&#45;&gt;Node26 -->
<g id="edge40" class="edge"><title>Node1&#45;&gt;Node26</title>
<path fill="none" stroke="midnightblue" d="M660.04,-414.455C711.655,-403.495 775.263,-389.988 824.019,-379.635"/>
<polygon fill="midnightblue" stroke="midnightblue" points="824.82,-383.043 833.875,-377.542 823.366,-376.195 824.82,-383.043"/>
</g>
<!-- Node27 -->
<g id="node27" class="node"><title>Node27</title>
<polygon fill="white" stroke="#bfbfbf" points="989.5,-347.5 989.5,-377.5 1106.5,-377.5 1106.5,-347.5 989.5,-347.5"/>
<text text-anchor="start" x="997.5" y="-365.5" font-family="Helvetica,sans-Serif" font-size="10.00">OpenMesh/Core/Utils</text>
<text text-anchor="middle" x="1048" y="-354.5" font-family="Helvetica,sans-Serif" font-size="10.00">/Property.hh</text>
</g>
<!-- Node1&#45;&gt;Node27 -->
<g id="edge43" class="edge"><title>Node1&#45;&gt;Node27</title>
<path fill="none" stroke="midnightblue" d="M674.184,-421.788C755.144,-411.958 869.592,-396.948 979.51,-378.003"/>
<polygon fill="midnightblue" stroke="midnightblue" points="980.195,-381.436 989.449,-376.276 978.997,-374.539 980.195,-381.436"/>
</g>
<!-- Node28 -->
<g id="node28" class="node"><title>Node28</title>
<g id="a_node28"><a xlink:href="TopologicalMesh_8inl.html" target="_top" xlink:title="Core/Geometry/Topological\lMesh.inl">
<polygon fill="white" stroke="black" points="1124.5,-347.5 1124.5,-377.5 1269.5,-377.5 1269.5,-347.5 1124.5,-347.5"/>
<text text-anchor="start" x="1132.5" y="-365.5" font-family="Helvetica,sans-Serif" font-size="10.00">Core/Geometry/Topological</text>
<text text-anchor="middle" x="1197" y="-354.5" font-family="Helvetica,sans-Serif" font-size="10.00">Mesh.inl</text>
</a>
</g>
</g>
<!-- Node1&#45;&gt;Node28 -->
<g id="edge46" class="edge"><title>Node1&#45;&gt;Node28</title>
<path fill="none" stroke="midnightblue" d="M674.25,-424.945C783.142,-415.468 957.129,-399.042 1107,-378 1109.48,-377.652 1111.99,-377.285 1114.53,-376.901"/>
<polygon fill="midnightblue" stroke="midnightblue" points="1115.1,-380.355 1124.43,-375.352 1114.01,-373.44 1115.1,-380.355"/>
</g>
<!-- Node2&#45;&gt;Node3 -->
<g id="edge2" class="edge"><title>Node2&#45;&gt;Node3</title>
<path fill="none" stroke="midnightblue" d="M291.314,-235.383C290.567,-219.439 291.509,-185.378 311,-168 313.635,-165.651 497.564,-142.461 594.957,-130.323"/>
<polygon fill="midnightblue" stroke="midnightblue" points="595.469,-133.787 604.96,-129.078 594.604,-126.84 595.469,-133.787"/>
</g>
<!-- Node2&#45;&gt;Node10 -->
<g id="edge9" class="edge"><title>Node2&#45;&gt;Node10</title>
<path fill="none" stroke="midnightblue" d="M288.4,-235.222C284.944,-226.285 279.967,-211.942 278,-199 275.056,-179.626 277.524,-157.239 280.129,-141.806"/>
<polygon fill="midnightblue" stroke="midnightblue" points="283.576,-142.413 281.975,-131.94 276.696,-141.126 283.576,-142.413"/>
</g>
<!-- Node2&#45;&gt;Node11 -->
<g id="edge10" class="edge"><title>Node2&#45;&gt;Node11</title>
<path fill="none" stroke="midnightblue" d="M284.305,-235.298C266.49,-215.153 222.19,-165.056 199.259,-139.125"/>
<polygon fill="midnightblue" stroke="midnightblue" points="201.872,-136.796 192.625,-131.623 196.628,-141.433 201.872,-136.796"/>
</g>
<!-- Node2&#45;&gt;Node12 -->
<g id="edge11" class="edge"><title>Node2&#45;&gt;Node12</title>
<path fill="none" stroke="midnightblue" d="M326.1,-235.475C368.251,-224.937 440.055,-206.986 486.234,-195.441"/>
<polygon fill="midnightblue" stroke="midnightblue" points="487.111,-198.83 495.964,-193.009 485.413,-192.039 487.111,-198.83"/>
</g>
<!-- Node2&#45;&gt;Node14 -->
<g id="edge16" class="edge"><title>Node2&#45;&gt;Node14</title>
<path fill="none" stroke="midnightblue" d="M268.36,-235.475C244.237,-226.776 206.107,-213.026 175.524,-201.998"/>
<polygon fill="midnightblue" stroke="midnightblue" points="176.482,-198.623 165.887,-198.523 174.107,-205.208 176.482,-198.623"/>
</g>
<!-- Node2&#45;&gt;Node15 -->
<g id="edge17" class="edge"><title>Node2&#45;&gt;Node15</title>
<path fill="none" stroke="midnightblue" d="M305.611,-235.475C318.718,-227.266 339.008,-214.558 356.05,-203.885"/>
<polygon fill="midnightblue" stroke="midnightblue" points="357.993,-206.797 364.61,-198.523 354.278,-200.865 357.993,-206.797"/>
</g>
<!-- Node4 -->
<g id="node4" class="node"><title>Node4</title>
<g id="a_node4"><a xlink:href="CoreMacros_8hpp.html" target="_top" xlink:title="Core/CoreMacros.hpp">
<polygon fill="white" stroke="black" points="594,-56.5 594,-75.5 714,-75.5 714,-56.5 594,-56.5"/>
<text text-anchor="middle" x="654" y="-63.5" font-family="Helvetica,sans-Serif" font-size="10.00">Core/CoreMacros.hpp</text>
</a>
</g>
</g>
<!-- Node3&#45;&gt;Node4 -->
<g id="edge3" class="edge"><title>Node3&#45;&gt;Node4</title>
<path fill="none" stroke="midnightblue" d="M654,-112.083C654,-105.006 654,-94.8611 654,-85.9865"/>
<polygon fill="midnightblue" stroke="midnightblue" points="657.5,-85.751 654,-75.7511 650.5,-85.7511 657.5,-85.751"/>
</g>
<!-- Node5 -->
<g id="node5" class="node"><title>Node5</title>
<polygon fill="white" stroke="#bfbfbf" points="491,-0.5 491,-19.5 543,-19.5 543,-0.5 491,-0.5"/>
<text text-anchor="middle" x="517" y="-7.5" font-family="Helvetica,sans-Serif" font-size="10.00">cassert</text>
</g>
<!-- Node4&#45;&gt;Node5 -->
<g id="edge4" class="edge"><title>Node4&#45;&gt;Node5</title>
<path fill="none" stroke="midnightblue" d="M632.292,-56.4435C609.645,-47.5171 573.928,-33.4387 548.248,-23.3168"/>
<polygon fill="midnightblue" stroke="midnightblue" points="549.193,-19.9273 538.606,-19.5164 546.626,-26.4397 549.193,-19.9273"/>
</g>
<!-- Node6 -->
<g id="node6" class="node"><title>Node6</title>
<polygon fill="white" stroke="#bfbfbf" points="561.5,-0.5 561.5,-19.5 606.5,-19.5 606.5,-0.5 561.5,-0.5"/>
<text text-anchor="middle" x="584" y="-7.5" font-family="Helvetica,sans-Serif" font-size="10.00">cstdio</text>
</g>
<!-- Node4&#45;&gt;Node6 -->
<g id="edge5" class="edge"><title>Node4&#45;&gt;Node6</title>
<path fill="none" stroke="midnightblue" d="M642.753,-56.324C632.203,-48.1849 616.199,-35.8395 603.558,-26.0874"/>
<polygon fill="midnightblue" stroke="midnightblue" points="605.507,-23.1707 595.451,-19.8339 601.231,-28.7132 605.507,-23.1707"/>
</g>
<!-- Node7 -->
<g id="node7" class="node"><title>Node7</title>
<polygon fill="white" stroke="#bfbfbf" points="624.5,-0.5 624.5,-19.5 683.5,-19.5 683.5,-0.5 624.5,-0.5"/>
<text text-anchor="middle" x="654" y="-7.5" font-family="Helvetica,sans-Serif" font-size="10.00">iostream</text>
</g>
<!-- Node4&#45;&gt;Node7 -->
<g id="edge6" class="edge"><title>Node4&#45;&gt;Node7</title>
<path fill="none" stroke="midnightblue" d="M654,-56.083C654,-49.0059 654,-38.8611 654,-29.9865"/>
<polygon fill="midnightblue" stroke="midnightblue" points="657.5,-29.751 654,-19.7511 650.5,-29.7511 657.5,-29.751"/>
</g>
<!-- Node8 -->
<g id="node8" class="node"><title>Node8</title>
<polygon fill="white" stroke="#bfbfbf" points="702,-0.5 702,-19.5 758,-19.5 758,-0.5 702,-0.5"/>
<text text-anchor="middle" x="730" y="-7.5" font-family="Helvetica,sans-Serif" font-size="10.00">sstream</text>
</g>
<!-- Node4&#45;&gt;Node8 -->
<g id="edge7" class="edge"><title>Node4&#45;&gt;Node8</title>
<path fill="none" stroke="midnightblue" d="M666.211,-56.324C677.776,-48.1066 695.375,-35.6017 709.161,-25.8069"/>
<polygon fill="midnightblue" stroke="midnightblue" points="711.443,-28.4791 717.567,-19.8339 707.388,-22.7729 711.443,-28.4791"/>
</g>
<!-- Node9 -->
<g id="node9" class="node"><title>Node9</title>
<polygon fill="white" stroke="#bfbfbf" points="776,-0.5 776,-19.5 824,-19.5 824,-0.5 776,-0.5"/>
<text text-anchor="middle" x="800" y="-7.5" font-family="Helvetica,sans-Serif" font-size="10.00">thread</text>
</g>
<!-- Node4&#45;&gt;Node9 -->
<g id="edge8" class="edge"><title>Node4&#45;&gt;Node9</title>
<path fill="none" stroke="midnightblue" d="M677.134,-56.4435C701.482,-47.4381 740.007,-33.1891 767.423,-23.049"/>
<polygon fill="midnightblue" stroke="midnightblue" points="768.809,-26.2681 776.974,-19.5164 766.381,-19.7028 768.809,-26.2681"/>
</g>
<!-- Node12&#45;&gt;Node3 -->
<g id="edge12" class="edge"><title>Node12&#45;&gt;Node3</title>
<path fill="none" stroke="midnightblue" d="M547.766,-173.975C568.484,-164.034 602.952,-147.495 626.989,-135.961"/>
<polygon fill="midnightblue" stroke="midnightblue" points="628.765,-138.991 636.267,-131.509 625.737,-132.68 628.765,-138.991"/>
</g>
<!-- Node12&#45;&gt;Node10 -->
<g id="edge13" class="edge"><title>Node12&#45;&gt;Node10</title>
<path fill="none" stroke="midnightblue" d="M494.754,-173.975C450.847,-163.355 375.81,-145.206 328.126,-133.673"/>
<polygon fill="midnightblue" stroke="midnightblue" points="328.93,-130.266 318.387,-131.317 327.284,-137.07 328.93,-130.266"/>
</g>
<!-- Node12&#45;&gt;Node11 -->
<g id="edge14" class="edge"><title>Node12&#45;&gt;Node11</title>
<path fill="none" stroke="midnightblue" d="M492.157,-173.946C482.658,-171.899 472.472,-169.79 463,-168 457.587,-166.977 321.917,-145.076 242.143,-132.211"/>
<polygon fill="midnightblue" stroke="midnightblue" points="242.659,-128.749 232.229,-130.613 241.544,-135.66 242.659,-128.749"/>
</g>
<!-- Node13 -->
<g id="node13" class="node"><title>Node13</title>
<polygon fill="white" stroke="#bfbfbf" points="490,-112.5 490,-131.5 570,-131.5 570,-112.5 490,-112.5"/>
<text text-anchor="middle" x="530" y="-119.5" font-family="Helvetica,sans-Serif" font-size="10.00">Eigen/Sparse</text>
</g>
<!-- Node12&#45;&gt;Node13 -->
<g id="edge15" class="edge"><title>Node12&#45;&gt;Node13</title>
<path fill="none" stroke="midnightblue" d="M530,-173.975C530,-165.58 530,-152.481 530,-141.663"/>
<polygon fill="midnightblue" stroke="midnightblue" points="533.5,-141.509 530,-131.509 526.5,-141.509 533.5,-141.509"/>
</g>
<!-- Node16&#45;&gt;Node3 -->
<g id="edge28" class="edge"><title>Node16&#45;&gt;Node3</title>
<path fill="none" stroke="midnightblue" d="M677.099,-352.772C663.85,-335.392 635.256,-294.703 625,-255 619.462,-233.561 637.854,-171.981 647.9,-141.105"/>
<polygon fill="midnightblue" stroke="midnightblue" points="651.233,-142.174 651.053,-131.58 644.588,-139.974 651.233,-142.174"/>
</g>
<!-- Node16&#45;&gt;Node12 -->
<g id="edge27" class="edge"><title>Node16&#45;&gt;Node12</title>
<path fill="none" stroke="midnightblue" d="M659.45,-352.863C639.215,-344.708 610.873,-330.768 592,-311 561.705,-279.269 543.425,-229.898 535.196,-203.187"/>
<polygon fill="midnightblue" stroke="midnightblue" points="538.453,-201.854 532.279,-193.243 531.736,-203.824 538.453,-201.854"/>
</g>
<!-- Node17 -->
<g id="node17" class="node"><title>Node17</title>
<g id="a_node17"><a xlink:href="VectorArray_8hpp.html" target="_top" xlink:title="Core/Containers/VectorArray.hpp">
<polygon fill="white" stroke="black" points="634.5,-235.5 634.5,-254.5 807.5,-254.5 807.5,-235.5 634.5,-235.5"/>
<text text-anchor="middle" x="721" y="-242.5" font-family="Helvetica,sans-Serif" font-size="10.00">Core/Containers/VectorArray.hpp</text>
</a>
</g>
</g>
<!-- Node16&#45;&gt;Node17 -->
<g id="edge19" class="edge"><title>Node16&#45;&gt;Node17</title>
<path fill="none" stroke="midnightblue" d="M677.498,-352.915C668.034,-339.291 652.663,-312.103 663,-291 669.523,-277.684 682.096,-267.177 693.873,-259.676"/>
<polygon fill="midnightblue" stroke="midnightblue" points="695.771,-262.621 702.611,-254.529 692.218,-256.589 695.771,-262.621"/>
</g>
<!-- Node21 -->
<g id="node21" class="node"><title>Node21</title>
<g id="a_node21"><a xlink:href="Attribs_8hpp.html" target="_top" xlink:title="Core/Utils/Attribs.hpp">
<polygon fill="white" stroke="black" points="858.5,-291.5 858.5,-310.5 977.5,-310.5 977.5,-291.5 858.5,-291.5"/>
<text text-anchor="middle" x="918" y="-298.5" font-family="Helvetica,sans-Serif" font-size="10.00">Core/Utils/Attribs.hpp</text>
</a>
</g>
</g>
<!-- Node16&#45;&gt;Node21 -->
<g id="edge29" class="edge"><title>Node16&#45;&gt;Node21</title>
<path fill="none" stroke="midnightblue" d="M717.526,-352.975C758.882,-342.459 829.271,-324.562 874.684,-313.014"/>
<polygon fill="midnightblue" stroke="midnightblue" points="875.707,-316.366 884.536,-310.509 873.982,-309.581 875.707,-316.366"/>
</g>
<!-- Node25 -->
<g id="node25" class="node"><title>Node25</title>
<g id="a_node25"><a xlink:href="TriangleMesh_8inl.html" target="_top" xlink:title="Core/Geometry/TriangleMesh.inl">
<polygon fill="white" stroke="black" points="672,-291.5 672,-310.5 840,-310.5 840,-291.5 672,-291.5"/>
<text text-anchor="middle" x="756" y="-298.5" font-family="Helvetica,sans-Serif" font-size="10.00">Core/Geometry/TriangleMesh.inl</text>
</a>
</g>
</g>
<!-- Node16&#45;&gt;Node25 -->
<g id="edge35" class="edge"><title>Node16&#45;&gt;Node25</title>
<path fill="none" stroke="midnightblue" d="M689.415,-352.975C698.795,-343.52 717.121,-328.096 732.314,-316.687"/>
<polygon fill="midnightblue" stroke="midnightblue" points="734.779,-319.222 740.806,-310.509 730.661,-313.562 734.779,-319.222"/>
</g>
<!-- Node17&#45;&gt;Node3 -->
<g id="edge25" class="edge"><title>Node17&#45;&gt;Node3</title>
<path fill="none" stroke="midnightblue" d="M716.182,-235.298C705.22,-215.502 678.243,-166.782 663.686,-140.493"/>
<polygon fill="midnightblue" stroke="midnightblue" points="666.681,-138.676 658.775,-131.623 660.557,-142.067 666.681,-138.676"/>
</g>
<!-- Node17&#45;&gt;Node12 -->
<g id="edge24" class="edge"><title>Node17&#45;&gt;Node12</title>
<path fill="none" stroke="midnightblue" d="M693.634,-235.475C660.446,-225.136 604.349,-207.661 567.242,-196.102"/>
<polygon fill="midnightblue" stroke="midnightblue" points="567.903,-192.642 557.315,-193.009 565.821,-199.325 567.903,-192.642"/>
</g>
<!-- Node18 -->
<g id="node18" class="node"><title>Node18</title>
<g id="a_node18"><a xlink:href="AlignedStdVector_8hpp.html" target="_top" xlink:title="Core/Containers/AlignedStd\lVector.hpp">
<polygon fill="white" stroke="black" points="771.5,-168.5 771.5,-198.5 920.5,-198.5 920.5,-168.5 771.5,-168.5"/>
<text text-anchor="start" x="779.5" y="-186.5" font-family="Helvetica,sans-Serif" font-size="10.00">Core/Containers/AlignedStd</text>
<text text-anchor="middle" x="846" y="-175.5" font-family="Helvetica,sans-Serif" font-size="10.00">Vector.hpp</text>
</a>
</g>
</g>
<!-- Node17&#45;&gt;Node18 -->
<g id="edge20" class="edge"><title>Node17&#45;&gt;Node18</title>
<path fill="none" stroke="midnightblue" d="M738.909,-235.475C756.709,-227.002 784.577,-213.737 807.423,-202.863"/>
<polygon fill="midnightblue" stroke="midnightblue" points="809.015,-205.981 816.54,-198.523 806.006,-199.661 809.015,-205.981"/>
</g>
<!-- Node20 -->
<g id="node20" class="node"><title>Node20</title>
<polygon fill="white" stroke="#bfbfbf" points="917.5,-112.5 917.5,-131.5 964.5,-131.5 964.5,-112.5 917.5,-112.5"/>
<text text-anchor="middle" x="941" y="-119.5" font-family="Helvetica,sans-Serif" font-size="10.00">vector</text>
</g>
<!-- Node17&#45;&gt;Node20 -->
<g id="edge26" class="edge"><title>Node17&#45;&gt;Node20</title>
<path fill="none" stroke="midnightblue" d="M804.997,-235.492C854.964,-228.648 911.87,-217.125 929,-199 943.376,-183.789 944.649,-158.729 943.474,-141.574"/>
<polygon fill="midnightblue" stroke="midnightblue" points="946.956,-141.218 942.461,-131.624 939.992,-141.928 946.956,-141.218"/>
</g>
<!-- Node18&#45;&gt;Node3 -->
<g id="edge21" class="edge"><title>Node18&#45;&gt;Node3</title>
<path fill="none" stroke="midnightblue" d="M800.499,-168.399C767.178,-158.073 722.51,-144.231 691.29,-134.556"/>
<polygon fill="midnightblue" stroke="midnightblue" points="692.245,-131.188 681.657,-131.571 690.173,-137.874 692.245,-131.188"/>
</g>
<!-- Node19 -->
<g id="node19" class="node"><title>Node19</title>
<polygon fill="white" stroke="#bfbfbf" points="799.5,-112.5 799.5,-131.5 892.5,-131.5 892.5,-112.5 799.5,-112.5"/>
<text text-anchor="middle" x="846" y="-119.5" font-family="Helvetica,sans-Serif" font-size="10.00">Eigen/StdVector</text>
</g>
<!-- Node18&#45;&gt;Node19 -->
<g id="edge22" class="edge"><title>Node18&#45;&gt;Node19</title>
<path fill="none" stroke="midnightblue" d="M846,-168.399C846,-160.466 846,-150.458 846,-141.858"/>
<polygon fill="midnightblue" stroke="midnightblue" points="849.5,-141.658 846,-131.658 842.5,-141.658 849.5,-141.658"/>
</g>
<!-- Node18&#45;&gt;Node20 -->
<g id="edge23" class="edge"><title>Node18&#45;&gt;Node20</title>
<path fill="none" stroke="midnightblue" d="M868.514,-168.399C883.599,-158.951 903.385,-146.559 918.473,-137.109"/>
<polygon fill="midnightblue" stroke="midnightblue" points="920.559,-139.932 927.177,-131.658 916.844,-134 920.559,-139.932"/>
</g>
<!-- Node21&#45;&gt;Node3 -->
<g id="edge31" class="edge"><title>Node21&#45;&gt;Node3</title>
<path fill="none" stroke="midnightblue" d="M904.11,-291.26C876.714,-273.968 813.875,-234.026 762,-199 731.075,-178.12 695.821,-153.071 674.24,-137.594"/>
<polygon fill="midnightblue" stroke="midnightblue" points="676.044,-134.581 665.881,-131.587 671.959,-140.265 676.044,-134.581"/>
</g>
<!-- Node21&#45;&gt;Node17 -->
<g id="edge30" class="edge"><title>Node21&#45;&gt;Node17</title>
<path fill="none" stroke="midnightblue" d="M886.785,-291.444C853.067,-282.201 799.2,-267.436 762.068,-257.257"/>
<polygon fill="midnightblue" stroke="midnightblue" points="762.639,-253.785 752.069,-254.516 760.788,-260.536 762.639,-253.785"/>
</g>
<!-- Node21&#45;&gt;Node22 -->
<g id="edge32" class="edge"><title>Node21&#45;&gt;Node22</title>
<path fill="none" stroke="midnightblue" d="M931.817,-291.324C945.233,-282.9 965.824,-269.971 981.586,-260.074"/>
<polygon fill="midnightblue" stroke="midnightblue" points="983.609,-262.936 990.217,-254.655 979.887,-257.008 983.609,-262.936"/>
</g>
<!-- Node23 -->
<g id="node23" class="node"><title>Node23</title>
<polygon fill="white" stroke="#bfbfbf" points="977,-174 977,-193 1019,-193 1019,-174 977,-174"/>
<text text-anchor="middle" x="998" y="-181" font-family="Helvetica,sans-Serif" font-size="10.00">limits</text>
</g>
<!-- Node22&#45;&gt;Node23 -->
<g id="edge33" class="edge"><title>Node22&#45;&gt;Node23</title>
<path fill="none" stroke="midnightblue" d="M1003.14,-235.475C1002.29,-227.08 1000.97,-213.981 999.882,-203.163"/>
<polygon fill="midnightblue" stroke="midnightblue" points="1003.34,-202.607 998.858,-193.009 996.379,-203.31 1003.34,-202.607"/>
</g>
<!-- Node24 -->
<g id="node24" class="node"><title>Node24</title>
<g id="a_node24"><a xlink:href="Index_8inl.html" target="_top" xlink:title="Core/Utils/Index.inl">
<polygon fill="white" stroke="black" points="1037.5,-174 1037.5,-193 1142.5,-193 1142.5,-174 1037.5,-174"/>
<text text-anchor="middle" x="1090" y="-181" font-family="Helvetica,sans-Serif" font-size="10.00">Core/Utils/Index.inl</text>
</a>
</g>
</g>
<!-- Node22&#45;&gt;Node24 -->
<g id="edge34" class="edge"><title>Node22&#45;&gt;Node24</title>
<path fill="none" stroke="midnightblue" d="M1016.32,-235.475C1030.12,-225.931 1052.7,-210.307 1069.23,-198.868"/>
<polygon fill="midnightblue" stroke="midnightblue" points="1071.47,-201.577 1077.7,-193.009 1067.49,-195.82 1071.47,-201.577"/>
</g>
<!-- Node25&#45;&gt;Node16 -->
<g id="edge36" class="edge"><title>Node25&#45;&gt;Node16</title>
<path fill="none" stroke="midnightblue" d="M750.6,-310.509C741.231,-319.958 722.908,-335.38 707.711,-346.794"/>
<polygon fill="midnightblue" stroke="midnightblue" points="705.243,-344.261 699.216,-352.975 709.362,-349.921 705.243,-344.261"/>
</g>
<!-- Node28&#45;&gt;Node1 -->
<g id="edge47" class="edge"><title>Node28&#45;&gt;Node1</title>
<path fill="none" stroke="midnightblue" d="M1128.42,-377.511C1127.27,-377.678 1126.13,-377.841 1125,-378 973.429,-399.28 797.192,-415.84 684.172,-425.264"/>
<polygon fill="midnightblue" stroke="midnightblue" points="683.791,-421.784 674.114,-426.098 684.369,-428.76 683.791,-421.784"/>
</g>
</g>
</svg>
