<?xml version="1.0" encoding="UTF-8" standalone="no"?>
<!DOCTYPE svg PUBLIC "-//W3C//DTD SVG 1.1//EN"
 "http://www.w3.org/Graphics/SVG/1.1/DTD/svg11.dtd">
<!-- Generated by graphviz version 2.38.0 (20140413.2041)
 -->
<!-- Title: /home/travis/build/STORM&#45;IRIT/Radium&#45;Engine/src/Core/Geometry/TopologicalMesh.inl Pages: 1 -->
<svg width="840pt" height="306pt"
 viewBox="0.00 0.00 840.00 306.00" xmlns="http://www.w3.org/2000/svg" xmlns:xlink="http://www.w3.org/1999/xlink">
<g id="graph0" class="graph" transform="scale(1 1) rotate(0) translate(4 302)">
<title>/home/travis/build/STORM&#45;IRIT/Radium&#45;Engine/src/Core/Geometry/TopologicalMesh.inl</title>
<polygon fill="white" stroke="none" points="-4,4 -4,-302 836,-302 836,4 -4,4"/>
<!-- Node1 -->
<g id="node1" class="node"><title>Node1</title>
<polygon fill="#bfbfbf" stroke="black" points="292.5,-256.5 292.5,-297.5 496.5,-297.5 496.5,-256.5 292.5,-256.5"/>
<text text-anchor="start" x="300.5" y="-285.5" font-family="Helvetica,sans-Serif" font-size="10.00">/home/travis/build</text>
<text text-anchor="start" x="300.5" y="-274.5" font-family="Helvetica,sans-Serif" font-size="10.00">/STORM&#45;IRIT/Radium&#45;Engine</text>
<text text-anchor="middle" x="394.5" y="-263.5" font-family="Helvetica,sans-Serif" font-size="10.00">/src/Core/Geometry/TopologicalMesh.inl</text>
</g>
<!-- Node2 -->
<g id="node2" class="node"><title>Node2</title>
<g id="a_node2"><a xlink:href="TopologicalMesh_8hpp.html" target="_top" xlink:title="/home/travis/build\l/STORM&#45;IRIT/Radium&#45;Engine\l/src/Core/Geometry/TopologicalMesh.hpp">
<polygon fill="white" stroke="black" points="288.5,-178.5 288.5,-219.5 500.5,-219.5 500.5,-178.5 288.5,-178.5"/>
<text text-anchor="start" x="296.5" y="-207.5" font-family="Helvetica,sans-Serif" font-size="10.00">/home/travis/build</text>
<text text-anchor="start" x="296.5" y="-196.5" font-family="Helvetica,sans-Serif" font-size="10.00">/STORM&#45;IRIT/Radium&#45;Engine</text>
<text text-anchor="middle" x="394.5" y="-185.5" font-family="Helvetica,sans-Serif" font-size="10.00">/src/Core/Geometry/TopologicalMesh.hpp</text>
</a>
</g>
</g>
<!-- Node1&#45;&gt;Node2 -->
<g id="edge1" class="edge"><title>Node1&#45;&gt;Node2</title>
<path fill="none" stroke="midnightblue" d="M387.895,-246.297C387.576,-237.301 387.783,-227.653 388.518,-219.506"/>
<polygon fill="midnightblue" stroke="midnightblue" points="384.411,-246.659 388.512,-256.428 391.398,-246.234 384.411,-246.659"/>
</g>
<!-- Node2&#45;&gt;Node1 -->
<g id="edge8" class="edge"><title>Node2&#45;&gt;Node1</title>
<path fill="none" stroke="midnightblue" d="M401.102,-229.63C401.424,-238.622 401.22,-248.272 400.488,-256.428"/>
<polygon fill="midnightblue" stroke="midnightblue" points="404.587,-229.273 400.482,-219.506 397.6,-229.701 404.587,-229.273"/>
</g>
<!-- Node3 -->
<g id="node3" class="node"><title>Node3</title>
<g id="a_node3"><a xlink:href="RotationCenterSkinning_8cpp.html" target="_top" xlink:title="/home/travis/build\l/STORM&#45;IRIT/Radium&#45;Engine\l/src/Core/Animation/RotationCenter\lSkinning.cpp">
<polygon fill="white" stroke="black" points="0,-89.5 0,-141.5 185,-141.5 185,-89.5 0,-89.5"/>
<text text-anchor="start" x="8" y="-129.5" font-family="Helvetica,sans-Serif" font-size="10.00">/home/travis/build</text>
<text text-anchor="start" x="8" y="-118.5" font-family="Helvetica,sans-Serif" font-size="10.00">/STORM&#45;IRIT/Radium&#45;Engine</text>
<text text-anchor="start" x="8" y="-107.5" font-family="Helvetica,sans-Serif" font-size="10.00">/src/Core/Animation/RotationCenter</text>
<text text-anchor="middle" x="92.5" y="-96.5" font-family="Helvetica,sans-Serif" font-size="10.00">Skinning.cpp</text>
</a>
</g>
</g>
<!-- Node2&#45;&gt;Node3 -->
<g id="edge2" class="edge"><title>Node2&#45;&gt;Node3</title>
<path fill="none" stroke="midnightblue" d="M312.343,-175.829C273.01,-165.214 225.748,-152.459 185.141,-141.501"/>
<polygon fill="midnightblue" stroke="midnightblue" points="311.597,-179.252 322.163,-178.479 313.421,-172.494 311.597,-179.252"/>
</g>
<!-- Node4 -->
<g id="node4" class="node"><title>Node4</title>
<g id="a_node4"><a xlink:href="CatmullClarkSubdivider_8hpp.html" target="_top" xlink:title="/home/travis/build\l/STORM&#45;IRIT/Radium&#45;Engine\l/src/Core/Geometry/CatmullClark\lSubdivider.hpp">
<polygon fill="white" stroke="black" points="203.5,-89.5 203.5,-141.5 377.5,-141.5 377.5,-89.5 203.5,-89.5"/>
<text text-anchor="start" x="211.5" y="-129.5" font-family="Helvetica,sans-Serif" font-size="10.00">/home/travis/build</text>
<text text-anchor="start" x="211.5" y="-118.5" font-family="Helvetica,sans-Serif" font-size="10.00">/STORM&#45;IRIT/Radium&#45;Engine</text>
<text text-anchor="start" x="211.5" y="-107.5" font-family="Helvetica,sans-Serif" font-size="10.00">/src/Core/Geometry/CatmullClark</text>
<text text-anchor="middle" x="290.5" y="-96.5" font-family="Helvetica,sans-Serif" font-size="10.00">Subdivider.hpp</text>
</a>
</g>
</g>
<!-- Node2&#45;&gt;Node4 -->
<g id="edge3" class="edge"><title>Node2&#45;&gt;Node4</title>
<path fill="none" stroke="midnightblue" d="M361.691,-172.289C349.241,-162.533 335.085,-151.439 322.693,-141.728"/>
<polygon fill="midnightblue" stroke="midnightblue" points="359.559,-175.065 369.589,-178.479 363.877,-169.556 359.559,-175.065"/>
</g>
<!-- Node6 -->
<g id="node6" class="node"><title>Node6</title>
<g id="a_node6"><a xlink:href="LoopSubdivider_8hpp.html" target="_top" xlink:title="/home/travis/build\l/STORM&#45;IRIT/Radium&#45;Engine\l/src/Core/Geometry/LoopSubdivider.hpp">
<polygon fill="white" stroke="black" points="396,-95 396,-136 603,-136 603,-95 396,-95"/>
<text text-anchor="start" x="404" y="-124" font-family="Helvetica,sans-Serif" font-size="10.00">/home/travis/build</text>
<text text-anchor="start" x="404" y="-113" font-family="Helvetica,sans-Serif" font-size="10.00">/STORM&#45;IRIT/Radium&#45;Engine</text>
<text text-anchor="middle" x="499.5" y="-102" font-family="Helvetica,sans-Serif" font-size="10.00">/src/Core/Geometry/LoopSubdivider.hpp</text>
</a>
</g>
</g>
<!-- Node2&#45;&gt;Node6 -->
<g id="edge5" class="edge"><title>Node2&#45;&gt;Node6</title>
<path fill="none" stroke="midnightblue" d="M427.714,-172.22C442.751,-160.548 460.24,-146.973 474.191,-136.144"/>
<polygon fill="midnightblue" stroke="midnightblue" points="425.404,-169.582 419.65,-178.479 429.696,-175.112 425.404,-169.582"/>
</g>
<!-- Node8 -->
<g id="node8" class="node"><title>Node8</title>
<g id="a_node8"><a xlink:href="TopologicalMesh_8cpp.html" target="_top" xlink:title="/home/travis/build\l/STORM&#45;IRIT/Radium&#45;Engine\l/src/Core/Geometry/TopologicalMesh.cpp">
<polygon fill="white" stroke="black" points="621,-95 621,-136 832,-136 832,-95 621,-95"/>
<text text-anchor="start" x="629" y="-124" font-family="Helvetica,sans-Serif" font-size="10.00">/home/travis/build</text>
<text text-anchor="start" x="629" y="-113" font-family="Helvetica,sans-Serif" font-size="10.00">/STORM&#45;IRIT/Radium&#45;Engine</text>
<text text-anchor="middle" x="726.5" y="-102" font-family="Helvetica,sans-Serif" font-size="10.00">/src/Core/Geometry/TopologicalMesh.cpp</text>
</a>
</g>
</g>
<!-- Node2&#45;&gt;Node8 -->
<g id="edge7" class="edge"><title>Node2&#45;&gt;Node8</title>
<path fill="none" stroke="midnightblue" d="M484.021,-176.024C534.869,-163.542 597.968,-148.052 647.052,-136.003"/>
<polygon fill="midnightblue" stroke="midnightblue" points="482.899,-172.696 474.022,-178.479 484.568,-179.494 482.899,-172.696"/>
</g>
<!-- Node5 -->
<g id="node5" class="node"><title>Node5</title>
<g id="a_node5"><a xlink:href="CatmullClarkSubdivider_8cpp.html" target="_top" xlink:title="/home/travis/build\l/STORM&#45;IRIT/Radium&#45;Engine\l/src/Core/Geometry/CatmullClark\lSubdivider.cpp">
<polygon fill="white" stroke="black" points="203.5,-0.5 203.5,-52.5 377.5,-52.5 377.5,-0.5 203.5,-0.5"/>
<text text-anchor="start" x="211.5" y="-40.5" font-family="Helvetica,sans-Serif" font-size="10.00">/home/travis/build</text>
<text text-anchor="start" x="211.5" y="-29.5" font-family="Helvetica,sans-Serif" font-size="10.00">/STORM&#45;IRIT/Radium&#45;Engine</text>
<text text-anchor="start" x="211.5" y="-18.5" font-family="Helvetica,sans-Serif" font-size="10.00">/src/Core/Geometry/CatmullClark</text>
<text text-anchor="middle" x="290.5" y="-7.5" font-family="Helvetica,sans-Serif" font-size="10.00">Subdivider.cpp</text>
</a>
</g>
</g>
<!-- Node4&#45;&gt;Node5 -->
<g id="edge4" class="edge"><title>Node4&#45;&gt;Node5</title>
<path fill="none" stroke="midnightblue" d="M290.5,-79.1908C290.5,-70.2824 290.5,-60.8986 290.5,-52.6075"/>
<polygon fill="midnightblue" stroke="midnightblue" points="287,-79.336 290.5,-89.336 294,-79.336 287,-79.336"/>
</g>
<!-- Node7 -->
<g id="node7" class="node"><title>Node7</title>
<g id="a_node7"><a xlink:href="LoopSubdivider_8cpp.html" target="_top" xlink:title="/home/travis/build\l/STORM&#45;IRIT/Radium&#45;Engine\l/src/Core/Geometry/LoopSubdivider.cpp">
<polygon fill="white" stroke="black" points="396.5,-6 396.5,-47 602.5,-47 602.5,-6 396.5,-6"/>
<text text-anchor="start" x="404.5" y="-35" font-family="Helvetica,sans-Serif" font-size="10.00">/home/travis/build</text>
<text text-anchor="start" x="404.5" y="-24" font-family="Helvetica,sans-Serif" font-size="10.00">/STORM&#45;IRIT/Radium&#45;Engine</text>
<text text-anchor="middle" x="499.5" y="-13" font-family="Helvetica,sans-Serif" font-size="10.00">/src/Core/Geometry/LoopSubdivider.cpp</text>
</a>
</g>
</g>
<!-- Node6&#45;&gt;Node7 -->
<g id="edge6" class="edge"><title>Node6&#45;&gt;Node7</title>
<path fill="none" stroke="midnightblue" d="M499.5,-84.4407C499.5,-72.1014 499.5,-58.1619 499.5,-47.1635"/>
<polygon fill="midnightblue" stroke="midnightblue" points="496,-84.7583 499.5,-94.7584 503,-84.7584 496,-84.7583"/>
</g>
</g>
</svg>
