<?xml version="1.0" encoding="UTF-8" standalone="no"?>
<!DOCTYPE svg PUBLIC "-//W3C//DTD SVG 1.1//EN"
 "http://www.w3.org/Graphics/SVG/1.1/DTD/svg11.dtd">
<!-- Generated by graphviz version 2.38.0 (20140413.2041)
 -->
<!-- Title: /home/travis/build/STORM&#45;IRIT/Radium&#45;Engine/src/GuiBase/Viewer/TrackballCamera.hpp Pages: 1 -->
<svg width="871pt" height="330pt"
 viewBox="0.00 0.00 871.00 330.00" xmlns="http://www.w3.org/2000/svg" xmlns:xlink="http://www.w3.org/1999/xlink">
<g id="graph0" class="graph" transform="scale(1 1) rotate(0) translate(4 326)">
<title>/home/travis/build/STORM&#45;IRIT/Radium&#45;Engine/src/GuiBase/Viewer/TrackballCamera.hpp</title>
<polygon fill="white" stroke="none" points="-4,4 -4,-326 867,-326 867,4 -4,4"/>
<!-- Node1 -->
<g id="node1" class="node"><title>Node1</title>
<polygon fill="#bfbfbf" stroke="black" points="102,-280.5 102,-321.5 316,-321.5 316,-280.5 102,-280.5"/>
<text text-anchor="start" x="110" y="-309.5" font-family="Helvetica,sans-Serif" font-size="10.00">/home/travis/build</text>
<text text-anchor="start" x="110" y="-298.5" font-family="Helvetica,sans-Serif" font-size="10.00">/STORM&#45;IRIT/Radium&#45;Engine</text>
<text text-anchor="middle" x="209" y="-287.5" font-family="Helvetica,sans-Serif" font-size="10.00">/src/GuiBase/Viewer/TrackballCamera.hpp</text>
</g>
<!-- Node2 -->
<g id="node2" class="node"><title>Node2</title>
<g id="a_node2"><a xlink:href="RaGuiBase_8hpp.html" target="_top" xlink:title="GuiBase/RaGuiBase.hpp">
<polygon fill="white" stroke="black" points="0,-168.5 0,-187.5 132,-187.5 132,-168.5 0,-168.5"/>
<text text-anchor="middle" x="66" y="-175.5" font-family="Helvetica,sans-Serif" font-size="10.00">GuiBase/RaGuiBase.hpp</text>
</a>
</g>
</g>
<!-- Node1&#45;&gt;Node2 -->
<g id="edge1" class="edge"><title>Node1&#45;&gt;Node2</title>
<path fill="none" stroke="midnightblue" d="M185.706,-280.29C157.265,-256.224 109.774,-216.04 83.9878,-194.22"/>
<polygon fill="midnightblue" stroke="midnightblue" points="86.0286,-191.362 76.1339,-187.575 81.5069,-196.706 86.0286,-191.362"/>
</g>
<!-- Node9 -->
<g id="node9" class="node"><title>Node9</title>
<g id="a_node9"><a xlink:href="CameraInterface_8hpp.html" target="_top" xlink:title="GuiBase/Viewer/CameraInterface.hpp">
<polygon fill="white" stroke="black" points="200.5,-224.5 200.5,-243.5 395.5,-243.5 395.5,-224.5 200.5,-224.5"/>
<text text-anchor="middle" x="298" y="-231.5" font-family="Helvetica,sans-Serif" font-size="10.00">GuiBase/Viewer/CameraInterface.hpp</text>
</a>
</g>
</g>
<!-- Node1&#45;&gt;Node9 -->
<g id="edge8" class="edge"><title>Node1&#45;&gt;Node9</title>
<path fill="none" stroke="midnightblue" d="M235.703,-280.498C249.217,-270.628 265.353,-258.843 277.817,-249.741"/>
<polygon fill="midnightblue" stroke="midnightblue" points="280.141,-252.377 286.153,-243.652 276.013,-246.724 280.141,-252.377"/>
</g>
<!-- Node3 -->
<g id="node3" class="node"><title>Node3</title>
<g id="a_node3"><a xlink:href="CoreMacros_8hpp.html" target="_top" xlink:title="Core/CoreMacros.hpp">
<polygon fill="white" stroke="black" points="208,-56.5 208,-75.5 328,-75.5 328,-56.5 208,-56.5"/>
<text text-anchor="middle" x="268" y="-63.5" font-family="Helvetica,sans-Serif" font-size="10.00">Core/CoreMacros.hpp</text>
</a>
</g>
</g>
<!-- Node2&#45;&gt;Node3 -->
<g id="edge2" class="edge"><title>Node2&#45;&gt;Node3</title>
<path fill="none" stroke="midnightblue" d="M74.6354,-168.335C88.5785,-154.748 117.39,-128.299 146,-112 171.429,-97.5129 202.39,-86.1584 226.758,-78.479"/>
<polygon fill="midnightblue" stroke="midnightblue" points="227.889,-81.7933 236.423,-75.5156 225.837,-75.1008 227.889,-81.7933"/>
</g>
<!-- Node4 -->
<g id="node4" class="node"><title>Node4</title>
<polygon fill="white" stroke="#bfbfbf" points="140,-0.5 140,-19.5 192,-19.5 192,-0.5 140,-0.5"/>
<text text-anchor="middle" x="166" y="-7.5" font-family="Helvetica,sans-Serif" font-size="10.00">cassert</text>
</g>
<!-- Node3&#45;&gt;Node4 -->
<g id="edge3" class="edge"><title>Node3&#45;&gt;Node4</title>
<path fill="none" stroke="midnightblue" d="M251.612,-56.324C235.329,-47.7034 210.133,-34.3643 191.284,-24.3855"/>
<polygon fill="midnightblue" stroke="midnightblue" points="192.823,-21.2402 182.347,-19.6545 189.548,-27.4267 192.823,-21.2402"/>
</g>
<!-- Node5 -->
<g id="node5" class="node"><title>Node5</title>
<polygon fill="white" stroke="#bfbfbf" points="210.5,-0.5 210.5,-19.5 255.5,-19.5 255.5,-0.5 210.5,-0.5"/>
<text text-anchor="middle" x="233" y="-7.5" font-family="Helvetica,sans-Serif" font-size="10.00">cstdio</text>
</g>
<!-- Node3&#45;&gt;Node5 -->
<g id="edge4" class="edge"><title>Node3&#45;&gt;Node5</title>
<path fill="none" stroke="midnightblue" d="M262.22,-56.083C257.328,-48.5341 250.173,-37.4948 244.167,-28.2298"/>
<polygon fill="midnightblue" stroke="midnightblue" points="247.048,-26.239 238.672,-19.7511 241.174,-30.0463 247.048,-26.239"/>
</g>
<!-- Node6 -->
<g id="node6" class="node"><title>Node6</title>
<polygon fill="white" stroke="#bfbfbf" points="273.5,-0.5 273.5,-19.5 332.5,-19.5 332.5,-0.5 273.5,-0.5"/>
<text text-anchor="middle" x="303" y="-7.5" font-family="Helvetica,sans-Serif" font-size="10.00">iostream</text>
</g>
<!-- Node3&#45;&gt;Node6 -->
<g id="edge5" class="edge"><title>Node3&#45;&gt;Node6</title>
<path fill="none" stroke="midnightblue" d="M273.78,-56.083C278.672,-48.5341 285.827,-37.4948 291.833,-28.2298"/>
<polygon fill="midnightblue" stroke="midnightblue" points="294.826,-30.0463 297.328,-19.7511 288.952,-26.239 294.826,-30.0463"/>
</g>
<!-- Node7 -->
<g id="node7" class="node"><title>Node7</title>
<polygon fill="white" stroke="#bfbfbf" points="489,-0.5 489,-19.5 545,-19.5 545,-0.5 489,-0.5"/>
<text text-anchor="middle" x="517" y="-7.5" font-family="Helvetica,sans-Serif" font-size="10.00">sstream</text>
</g>
<!-- Node3&#45;&gt;Node7 -->
<g id="edge6" class="edge"><title>Node3&#45;&gt;Node7</title>
<path fill="none" stroke="midnightblue" d="M307.455,-56.4435C354.498,-46.2413 432.574,-29.3093 478.977,-19.246"/>
<polygon fill="midnightblue" stroke="midnightblue" points="479.904,-22.6264 488.935,-17.0865 478.42,-15.7854 479.904,-22.6264"/>
</g>
<!-- Node8 -->
<g id="node8" class="node"><title>Node8</title>
<polygon fill="white" stroke="#bfbfbf" points="351,-0.5 351,-19.5 399,-19.5 399,-0.5 351,-0.5"/>
<text text-anchor="middle" x="375" y="-7.5" font-family="Helvetica,sans-Serif" font-size="10.00">thread</text>
</g>
<!-- Node3&#45;&gt;Node8 -->
<g id="edge7" class="edge"><title>Node3&#45;&gt;Node8</title>
<path fill="none" stroke="midnightblue" d="M285.191,-56.324C302.351,-47.6641 328.946,-34.2424 348.747,-24.249"/>
<polygon fill="midnightblue" stroke="midnightblue" points="350.501,-27.2847 357.851,-19.6545 347.347,-21.0354 350.501,-27.2847"/>
</g>
<!-- Node9&#45;&gt;Node2 -->
<g id="edge9" class="edge"><title>Node9&#45;&gt;Node2</title>
<path fill="none" stroke="midnightblue" d="M261.239,-224.444C220.937,-215.063 156.191,-199.993 112.415,-189.804"/>
<polygon fill="midnightblue" stroke="midnightblue" points="113.122,-186.375 102.589,-187.516 111.535,-193.192 113.122,-186.375"/>
</g>
<!-- Node9&#45;&gt;Node3 -->
<g id="edge14" class="edge"><title>Node9&#45;&gt;Node3</title>
<path fill="none" stroke="midnightblue" d="M236.396,-224.416C214.572,-218.079 192.184,-207.08 179,-188 151.784,-148.611 209.379,-103.486 244.137,-81.1104"/>
<polygon fill="midnightblue" stroke="midnightblue" points="246.205,-83.945 252.831,-75.6773 242.496,-78.0088 246.205,-83.945"/>
</g>
<!-- Node10 -->
<g id="node10" class="node"><title>Node10</title>
<polygon fill="white" stroke="#bfbfbf" points="188.5,-168.5 188.5,-187.5 245.5,-187.5 245.5,-168.5 188.5,-168.5"/>
<text text-anchor="middle" x="217" y="-175.5" font-family="Helvetica,sans-Serif" font-size="10.00">memory</text>
</g>
<!-- Node9&#45;&gt;Node10 -->
<g id="edge10" class="edge"><title>Node9&#45;&gt;Node10</title>
<path fill="none" stroke="midnightblue" d="M284.986,-224.324C272.468,-215.979 253.318,-203.212 238.529,-193.352"/>
<polygon fill="midnightblue" stroke="midnightblue" points="240.244,-190.289 229.982,-187.655 236.361,-196.114 240.244,-190.289"/>
</g>
<!-- Node11 -->
<g id="node11" class="node"><title>Node11</title>
<polygon fill="white" stroke="#bfbfbf" points="264,-168.5 264,-187.5 332,-187.5 332,-168.5 264,-168.5"/>
<text text-anchor="middle" x="298" y="-175.5" font-family="Helvetica,sans-Serif" font-size="10.00">QKeyEvent</text>
</g>
<!-- Node9&#45;&gt;Node11 -->
<g id="edge11" class="edge"><title>Node9&#45;&gt;Node11</title>
<path fill="none" stroke="midnightblue" d="M298,-224.083C298,-217.006 298,-206.861 298,-197.986"/>
<polygon fill="midnightblue" stroke="midnightblue" points="301.5,-197.751 298,-187.751 294.5,-197.751 301.5,-197.751"/>
</g>
<!-- Node12 -->
<g id="node12" class="node"><title>Node12</title>
<polygon fill="white" stroke="#bfbfbf" points="350.5,-168.5 350.5,-187.5 433.5,-187.5 433.5,-168.5 350.5,-168.5"/>
<text text-anchor="middle" x="392" y="-175.5" font-family="Helvetica,sans-Serif" font-size="10.00">QMouseEvent</text>
</g>
<!-- Node9&#45;&gt;Node12 -->
<g id="edge12" class="edge"><title>Node9&#45;&gt;Node12</title>
<path fill="none" stroke="midnightblue" d="M313.103,-224.324C327.903,-215.822 350.694,-202.729 367.982,-192.797"/>
<polygon fill="midnightblue" stroke="midnightblue" points="370.007,-195.671 376.935,-187.655 366.52,-189.601 370.007,-195.671"/>
</g>
<!-- Node13 -->
<g id="node13" class="node"><title>Node13</title>
<polygon fill="white" stroke="#bfbfbf" points="451.5,-168.5 451.5,-187.5 506.5,-187.5 506.5,-168.5 451.5,-168.5"/>
<text text-anchor="middle" x="479" y="-175.5" font-family="Helvetica,sans-Serif" font-size="10.00">QObject</text>
</g>
<!-- Node9&#45;&gt;Node13 -->
<g id="edge13" class="edge"><title>Node9&#45;&gt;Node13</title>
<path fill="none" stroke="midnightblue" d="M326.68,-224.444C357.799,-215.159 407.598,-200.302 441.728,-190.12"/>
<polygon fill="midnightblue" stroke="midnightblue" points="442.763,-193.464 451.345,-187.251 440.761,-186.756 442.763,-193.464"/>
</g>
<!-- Node14 -->
<g id="node14" class="node"><title>Node14</title>
<g id="a_node14"><a xlink:href="Types_8hpp.html" target="_top" xlink:title="Core/Math/Types.hpp">
<polygon fill="white" stroke="black" points="525,-168.5 525,-187.5 641,-187.5 641,-168.5 525,-168.5"/>
<text text-anchor="middle" x="583" y="-175.5" font-family="Helvetica,sans-Serif" font-size="10.00">Core/Math/Types.hpp</text>
</a>
</g>
</g>
<!-- Node9&#45;&gt;Node14 -->
<g id="edge15" class="edge"><title>Node9&#45;&gt;Node14</title>
<path fill="none" stroke="midnightblue" d="M343.159,-224.444C393.294,-214.944 474.22,-199.611 528.006,-189.42"/>
<polygon fill="midnightblue" stroke="midnightblue" points="528.879,-192.817 538.052,-187.516 527.575,-185.939 528.879,-192.817"/>
</g>
<!-- Node19 -->
<g id="node19" class="node"><title>Node19</title>
<g id="a_node19"><a xlink:href="Log_8hpp.html" target="_top" xlink:title="Core/Utils/Log.hpp">
<polygon fill="white" stroke="black" points="659,-168.5 659,-187.5 763,-187.5 763,-168.5 659,-168.5"/>
<text text-anchor="middle" x="711" y="-175.5" font-family="Helvetica,sans-Serif" font-size="10.00">Core/Utils/Log.hpp</text>
</a>
</g>
</g>
<!-- Node9&#45;&gt;Node19 -->
<g id="edge21" class="edge"><title>Node9&#45;&gt;Node19</title>
<path fill="none" stroke="midnightblue" d="M367.845,-224.475C436.687,-215.98 545.156,-202.35 648.757,-188.15"/>
<polygon fill="midnightblue" stroke="midnightblue" points="649.336,-191.604 658.766,-186.774 648.383,-184.669 649.336,-191.604"/>
</g>
<!-- Node15 -->
<g id="node15" class="node"><title>Node15</title>
<g id="a_node15"><a xlink:href="RaCore_8hpp.html" target="_top" xlink:title="Core/RaCore.hpp">
<polygon fill="white" stroke="black" points="535,-112.5 535,-131.5 633,-131.5 633,-112.5 535,-112.5"/>
<text text-anchor="middle" x="584" y="-119.5" font-family="Helvetica,sans-Serif" font-size="10.00">Core/RaCore.hpp</text>
</a>
</g>
</g>
<!-- Node14&#45;&gt;Node15 -->
<g id="edge16" class="edge"><title>Node14&#45;&gt;Node15</title>
<path fill="none" stroke="midnightblue" d="M583.165,-168.083C583.296,-161.006 583.484,-150.861 583.648,-141.986"/>
<polygon fill="midnightblue" stroke="midnightblue" points="587.152,-141.814 583.838,-131.751 580.153,-141.685 587.152,-141.814"/>
</g>
<!-- Node16 -->
<g id="node16" class="node"><title>Node16</title>
<polygon fill="white" stroke="#bfbfbf" points="239,-112.5 239,-131.5 307,-131.5 307,-112.5 239,-112.5"/>
<text text-anchor="middle" x="273" y="-119.5" font-family="Helvetica,sans-Serif" font-size="10.00">Eigen/Core</text>
</g>
<!-- Node14&#45;&gt;Node16 -->
<g id="edge18" class="edge"><title>Node14&#45;&gt;Node16</title>
<path fill="none" stroke="midnightblue" d="M528.683,-168.488C476.87,-160.223 396.382,-147.009 317.371,-132.202"/>
<polygon fill="midnightblue" stroke="midnightblue" points="317.718,-128.706 307.243,-130.294 316.422,-135.585 317.718,-128.706"/>
</g>
<!-- Node17 -->
<g id="node17" class="node"><title>Node17</title>
<polygon fill="white" stroke="#bfbfbf" points="325,-112.5 325,-131.5 419,-131.5 419,-112.5 325,-112.5"/>
<text text-anchor="middle" x="372" y="-119.5" font-family="Helvetica,sans-Serif" font-size="10.00">Eigen/Geometry</text>
</g>
<!-- Node14&#45;&gt;Node17 -->
<g id="edge19" class="edge"><title>Node14&#45;&gt;Node17</title>
<path fill="none" stroke="midnightblue" d="M549.566,-168.444C513.144,-159.122 454.77,-144.183 414.971,-133.997"/>
<polygon fill="midnightblue" stroke="midnightblue" points="415.833,-130.605 405.277,-131.516 414.097,-137.387 415.833,-130.605"/>
</g>
<!-- Node18 -->
<g id="node18" class="node"><title>Node18</title>
<polygon fill="white" stroke="#bfbfbf" points="437,-112.5 437,-131.5 517,-131.5 517,-112.5 437,-112.5"/>
<text text-anchor="middle" x="477" y="-119.5" font-family="Helvetica,sans-Serif" font-size="10.00">Eigen/Sparse</text>
</g>
<!-- Node14&#45;&gt;Node18 -->
<g id="edge20" class="edge"><title>Node14&#45;&gt;Node18</title>
<path fill="none" stroke="midnightblue" d="M565.969,-168.324C548.97,-159.664 522.624,-146.242 503.007,-136.249"/>
<polygon fill="midnightblue" stroke="midnightblue" points="504.488,-133.075 493.988,-131.655 501.31,-139.312 504.488,-133.075"/>
</g>
<!-- Node15&#45;&gt;Node3 -->
<g id="edge17" class="edge"><title>Node15&#45;&gt;Node3</title>
<path fill="none" stroke="midnightblue" d="M534.972,-112.622C479.172,-103.086 388.017,-87.5093 328.014,-77.2556"/>
<polygon fill="midnightblue" stroke="midnightblue" points="328.373,-73.7663 317.926,-75.5317 327.194,-80.6662 328.373,-73.7663"/>
</g>
<!-- Node19&#45;&gt;Node7 -->
<g id="edge24" class="edge"><title>Node19&#45;&gt;Node7</title>
<path fill="none" stroke="midnightblue" d="M702.268,-168.366C689.364,-155.701 664.318,-131.479 642,-112 605.522,-80.1624 561.059,-45.0768 536.199,-25.7771"/>
<polygon fill="midnightblue" stroke="midnightblue" points="538.319,-22.9922 528.269,-19.6401 534.035,-28.5282 538.319,-22.9922"/>
</g>
<!-- Node19&#45;&gt;Node15 -->
<g id="edge22" class="edge"><title>Node19&#45;&gt;Node15</title>
<path fill="none" stroke="midnightblue" d="M690.876,-168.444C669.976,-159.557 637.065,-145.563 613.284,-135.451"/>
<polygon fill="midnightblue" stroke="midnightblue" points="614.602,-132.208 604.029,-131.516 611.862,-138.65 614.602,-132.208"/>
</g>
<!-- Node20 -->
<g id="node20" class="node"><title>Node20</title>
<polygon fill="white" stroke="#bfbfbf" points="689,-112.5 689,-131.5 733,-131.5 733,-112.5 689,-112.5"/>
<text text-anchor="middle" x="711" y="-119.5" font-family="Helvetica,sans-Serif" font-size="10.00">ctime</text>
</g>
<!-- Node19&#45;&gt;Node20 -->
<g id="edge23" class="edge"><title>Node19&#45;&gt;Node20</title>
<path fill="none" stroke="midnightblue" d="M711,-168.083C711,-161.006 711,-150.861 711,-141.986"/>
<polygon fill="midnightblue" stroke="midnightblue" points="714.5,-141.751 711,-131.751 707.5,-141.751 714.5,-141.751"/>
</g>
<!-- Node21 -->
<g id="node21" class="node"><title>Node21</title>
<polygon fill="white" stroke="#bfbfbf" points="751.5,-112.5 751.5,-131.5 800.5,-131.5 800.5,-112.5 751.5,-112.5"/>
<text text-anchor="middle" x="776" y="-119.5" font-family="Helvetica,sans-Serif" font-size="10.00">stdio.h</text>
</g>
<!-- Node19&#45;&gt;Node21 -->
<g id="edge25" class="edge"><title>Node19&#45;&gt;Node21</title>
<path fill="none" stroke="midnightblue" d="M721.443,-168.324C731.146,-160.263 745.815,-148.077 757.5,-138.369"/>
<polygon fill="midnightblue" stroke="midnightblue" points="759.911,-140.916 765.367,-131.834 755.438,-135.532 759.911,-140.916"/>
</g>
<!-- Node22 -->
<g id="node22" class="node"><title>Node22</title>
<polygon fill="white" stroke="#bfbfbf" points="819,-112.5 819,-131.5 863,-131.5 863,-112.5 819,-112.5"/>
<text text-anchor="middle" x="841" y="-119.5" font-family="Helvetica,sans-Serif" font-size="10.00">string</text>
</g>
<!-- Node19&#45;&gt;Node22 -->
<g id="edge26" class="edge"><title>Node19&#45;&gt;Node22</title>
<path fill="none" stroke="midnightblue" d="M731.599,-168.444C752.993,-159.557 786.681,-145.563 811.024,-135.451"/>
<polygon fill="midnightblue" stroke="midnightblue" points="812.605,-138.585 820.497,-131.516 809.92,-132.12 812.605,-138.585"/>
</g>
</g>
</svg>
