<?xml version="1.0" encoding="UTF-8" standalone="no"?>
<!DOCTYPE svg PUBLIC "-//W3C//DTD SVG 1.1//EN"
 "http://www.w3.org/Graphics/SVG/1.1/DTD/svg11.dtd">
<!-- Generated by graphviz version 2.38.0 (20140413.2041)
 -->
<!-- Title: /home/travis/build/STORM&#45;IRIT/Radium&#45;Engine/src/GuiBase/TransformEditor/TransformEditor.hpp Pages: 1 -->
<svg width="1028pt" height="285pt"
 viewBox="0.00 0.00 1028.00 285.00" xmlns="http://www.w3.org/2000/svg" xmlns:xlink="http://www.w3.org/1999/xlink">
<g id="graph0" class="graph" transform="scale(1 1) rotate(0) translate(4 281)">
<title>/home/travis/build/STORM&#45;IRIT/Radium&#45;Engine/src/GuiBase/TransformEditor/TransformEditor.hpp</title>
<polygon fill="white" stroke="none" points="-4,4 -4,-281 1024,-281 1024,4 -4,4"/>
<!-- Node1 -->
<g id="node1" class="node"><title>Node1</title>
<polygon fill="#bfbfbf" stroke="black" points="344.5,-224.5 344.5,-276.5 499.5,-276.5 499.5,-224.5 344.5,-224.5"/>
<text text-anchor="start" x="352.5" y="-264.5" font-family="Helvetica,sans-Serif" font-size="10.00">/home/travis/build</text>
<text text-anchor="start" x="352.5" y="-253.5" font-family="Helvetica,sans-Serif" font-size="10.00">/STORM&#45;IRIT/Radium&#45;Engine</text>
<text text-anchor="start" x="352.5" y="-242.5" font-family="Helvetica,sans-Serif" font-size="10.00">/src/GuiBase/TransformEditor</text>
<text text-anchor="middle" x="422" y="-231.5" font-family="Helvetica,sans-Serif" font-size="10.00">/TransformEditor.hpp</text>
</g>
<!-- Node2 -->
<g id="node2" class="node"><title>Node2</title>
<g id="a_node2"><a xlink:href="Types_8hpp.html" target="_top" xlink:title="Core/Math/Types.hpp">
<polygon fill="white" stroke="black" points="186,-168.5 186,-187.5 302,-187.5 302,-168.5 186,-168.5"/>
<text text-anchor="middle" x="244" y="-175.5" font-family="Helvetica,sans-Serif" font-size="10.00">Core/Math/Types.hpp</text>
</a>
</g>
</g>
<!-- Node1&#45;&gt;Node2 -->
<g id="edge1" class="edge"><title>Node1&#45;&gt;Node2</title>
<path fill="none" stroke="midnightblue" d="M358.743,-224.446C330.366,-213.207 298.169,-200.455 275.119,-191.325"/>
<polygon fill="midnightblue" stroke="midnightblue" points="276.115,-187.955 265.529,-187.527 273.538,-194.463 276.115,-187.955"/>
</g>
<!-- Node13 -->
<g id="node13" class="node"><title>Node13</title>
<g id="a_node13"><a xlink:href="ItemEntry_8hpp.html" target="_top" xlink:title="Engine/ItemModel/ItemEntry.hpp">
<polygon fill="white" stroke="black" points="554.5,-168.5 554.5,-187.5 725.5,-187.5 725.5,-168.5 554.5,-168.5"/>
<text text-anchor="middle" x="640" y="-175.5" font-family="Helvetica,sans-Serif" font-size="10.00">Engine/ItemModel/ItemEntry.hpp</text>
</a>
</g>
</g>
<!-- Node1&#45;&gt;Node13 -->
<g id="edge12" class="edge"><title>Node1&#45;&gt;Node13</title>
<path fill="none" stroke="midnightblue" d="M499.472,-224.446C535.005,-212.955 575.429,-199.882 603.77,-190.717"/>
<polygon fill="midnightblue" stroke="midnightblue" points="605.195,-193.934 613.633,-187.527 603.041,-187.274 605.195,-193.934"/>
</g>
<!-- Node21 -->
<g id="node21" class="node"><title>Node21</title>
<g id="a_node21"><a xlink:href="RaGuiBase_8hpp.html" target="_top" xlink:title="GuiBase/RaGuiBase.hpp">
<polygon fill="white" stroke="black" points="356,-168.5 356,-187.5 488,-187.5 488,-168.5 356,-168.5"/>
<text text-anchor="middle" x="422" y="-175.5" font-family="Helvetica,sans-Serif" font-size="10.00">GuiBase/RaGuiBase.hpp</text>
</a>
</g>
</g>
<!-- Node1&#45;&gt;Node21 -->
<g id="edge21" class="edge"><title>Node1&#45;&gt;Node21</title>
<path fill="none" stroke="midnightblue" d="M422,-224.446C422,-215.73 422,-206.104 422,-197.964"/>
<polygon fill="midnightblue" stroke="midnightblue" points="425.5,-197.695 422,-187.695 418.5,-197.696 425.5,-197.695"/>
</g>
<!-- Node3 -->
<g id="node3" class="node"><title>Node3</title>
<g id="a_node3"><a xlink:href="RaCore_8hpp.html" target="_top" xlink:title="Core/RaCore.hpp">
<polygon fill="white" stroke="black" points="296,-112.5 296,-131.5 394,-131.5 394,-112.5 296,-112.5"/>
<text text-anchor="middle" x="345" y="-119.5" font-family="Helvetica,sans-Serif" font-size="10.00">Core/RaCore.hpp</text>
</a>
</g>
</g>
<!-- Node2&#45;&gt;Node3 -->
<g id="edge2" class="edge"><title>Node2&#45;&gt;Node3</title>
<path fill="none" stroke="midnightblue" d="M260.227,-168.324C276.351,-159.703 301.3,-146.364 319.964,-136.386"/>
<polygon fill="midnightblue" stroke="midnightblue" points="321.644,-139.456 328.813,-131.655 318.344,-133.283 321.644,-139.456"/>
</g>
<!-- Node10 -->
<g id="node10" class="node"><title>Node10</title>
<polygon fill="white" stroke="#bfbfbf" points="210,-112.5 210,-131.5 278,-131.5 278,-112.5 210,-112.5"/>
<text text-anchor="middle" x="244" y="-119.5" font-family="Helvetica,sans-Serif" font-size="10.00">Eigen/Core</text>
</g>
<!-- Node2&#45;&gt;Node10 -->
<g id="edge9" class="edge"><title>Node2&#45;&gt;Node10</title>
<path fill="none" stroke="midnightblue" d="M244,-168.083C244,-161.006 244,-150.861 244,-141.986"/>
<polygon fill="midnightblue" stroke="midnightblue" points="247.5,-141.751 244,-131.751 240.5,-141.751 247.5,-141.751"/>
</g>
<!-- Node11 -->
<g id="node11" class="node"><title>Node11</title>
<polygon fill="white" stroke="#bfbfbf" points="0,-112.5 0,-131.5 94,-131.5 94,-112.5 0,-112.5"/>
<text text-anchor="middle" x="47" y="-119.5" font-family="Helvetica,sans-Serif" font-size="10.00">Eigen/Geometry</text>
</g>
<!-- Node2&#45;&gt;Node11 -->
<g id="edge10" class="edge"><title>Node2&#45;&gt;Node11</title>
<path fill="none" stroke="midnightblue" d="M212.785,-168.444C179.067,-159.201 125.2,-144.436 88.0679,-134.257"/>
<polygon fill="midnightblue" stroke="midnightblue" points="88.6387,-130.785 78.0692,-131.516 86.7882,-137.536 88.6387,-130.785"/>
</g>
<!-- Node12 -->
<g id="node12" class="node"><title>Node12</title>
<polygon fill="white" stroke="#bfbfbf" points="112,-112.5 112,-131.5 192,-131.5 192,-112.5 112,-112.5"/>
<text text-anchor="middle" x="152" y="-119.5" font-family="Helvetica,sans-Serif" font-size="10.00">Eigen/Sparse</text>
</g>
<!-- Node2&#45;&gt;Node12 -->
<g id="edge11" class="edge"><title>Node2&#45;&gt;Node12</title>
<path fill="none" stroke="midnightblue" d="M229.219,-168.324C214.733,-159.822 192.427,-146.729 175.507,-136.797"/>
<polygon fill="midnightblue" stroke="midnightblue" points="177.141,-133.698 166.745,-131.655 173.597,-139.735 177.141,-133.698"/>
</g>
<!-- Node4 -->
<g id="node4" class="node"><title>Node4</title>
<g id="a_node4"><a xlink:href="CoreMacros_8hpp.html" target="_top" xlink:title="Core/CoreMacros.hpp">
<polygon fill="white" stroke="black" points="362,-56.5 362,-75.5 482,-75.5 482,-56.5 362,-56.5"/>
<text text-anchor="middle" x="422" y="-63.5" font-family="Helvetica,sans-Serif" font-size="10.00">Core/CoreMacros.hpp</text>
</a>
</g>
</g>
<!-- Node3&#45;&gt;Node4 -->
<g id="edge3" class="edge"><title>Node3&#45;&gt;Node4</title>
<path fill="none" stroke="midnightblue" d="M357.371,-112.324C369.158,-104.058 387.132,-91.4527 401.136,-81.6322"/>
<polygon fill="midnightblue" stroke="midnightblue" points="403.482,-84.2619 409.659,-75.6545 399.462,-78.5307 403.482,-84.2619"/>
</g>
<!-- Node5 -->
<g id="node5" class="node"><title>Node5</title>
<polygon fill="white" stroke="#bfbfbf" points="259,-0.5 259,-19.5 311,-19.5 311,-0.5 259,-0.5"/>
<text text-anchor="middle" x="285" y="-7.5" font-family="Helvetica,sans-Serif" font-size="10.00">cassert</text>
</g>
<!-- Node4&#45;&gt;Node5 -->
<g id="edge4" class="edge"><title>Node4&#45;&gt;Node5</title>
<path fill="none" stroke="midnightblue" d="M400.292,-56.4435C377.645,-47.5171 341.928,-33.4387 316.248,-23.3168"/>
<polygon fill="midnightblue" stroke="midnightblue" points="317.193,-19.9273 306.606,-19.5164 314.626,-26.4397 317.193,-19.9273"/>
</g>
<!-- Node6 -->
<g id="node6" class="node"><title>Node6</title>
<polygon fill="white" stroke="#bfbfbf" points="329.5,-0.5 329.5,-19.5 374.5,-19.5 374.5,-0.5 329.5,-0.5"/>
<text text-anchor="middle" x="352" y="-7.5" font-family="Helvetica,sans-Serif" font-size="10.00">cstdio</text>
</g>
<!-- Node4&#45;&gt;Node6 -->
<g id="edge5" class="edge"><title>Node4&#45;&gt;Node6</title>
<path fill="none" stroke="midnightblue" d="M410.753,-56.324C400.203,-48.1849 384.199,-35.8395 371.558,-26.0874"/>
<polygon fill="midnightblue" stroke="midnightblue" points="373.507,-23.1707 363.451,-19.8339 369.231,-28.7132 373.507,-23.1707"/>
</g>
<!-- Node7 -->
<g id="node7" class="node"><title>Node7</title>
<polygon fill="white" stroke="#bfbfbf" points="392.5,-0.5 392.5,-19.5 451.5,-19.5 451.5,-0.5 392.5,-0.5"/>
<text text-anchor="middle" x="422" y="-7.5" font-family="Helvetica,sans-Serif" font-size="10.00">iostream</text>
</g>
<!-- Node4&#45;&gt;Node7 -->
<g id="edge6" class="edge"><title>Node4&#45;&gt;Node7</title>
<path fill="none" stroke="midnightblue" d="M422,-56.083C422,-49.0059 422,-38.8611 422,-29.9865"/>
<polygon fill="midnightblue" stroke="midnightblue" points="425.5,-29.751 422,-19.7511 418.5,-29.7511 425.5,-29.751"/>
</g>
<!-- Node8 -->
<g id="node8" class="node"><title>Node8</title>
<polygon fill="white" stroke="#bfbfbf" points="470,-0.5 470,-19.5 526,-19.5 526,-0.5 470,-0.5"/>
<text text-anchor="middle" x="498" y="-7.5" font-family="Helvetica,sans-Serif" font-size="10.00">sstream</text>
</g>
<!-- Node4&#45;&gt;Node8 -->
<g id="edge7" class="edge"><title>Node4&#45;&gt;Node8</title>
<path fill="none" stroke="midnightblue" d="M434.211,-56.324C445.776,-48.1066 463.375,-35.6017 477.161,-25.8069"/>
<polygon fill="midnightblue" stroke="midnightblue" points="479.443,-28.4791 485.567,-19.8339 475.388,-22.7729 479.443,-28.4791"/>
</g>
<!-- Node9 -->
<g id="node9" class="node"><title>Node9</title>
<polygon fill="white" stroke="#bfbfbf" points="544,-0.5 544,-19.5 592,-19.5 592,-0.5 544,-0.5"/>
<text text-anchor="middle" x="568" y="-7.5" font-family="Helvetica,sans-Serif" font-size="10.00">thread</text>
</g>
<!-- Node4&#45;&gt;Node9 -->
<g id="edge8" class="edge"><title>Node4&#45;&gt;Node9</title>
<path fill="none" stroke="midnightblue" d="M445.134,-56.4435C469.482,-47.4381 508.007,-33.1891 535.423,-23.049"/>
<polygon fill="midnightblue" stroke="midnightblue" points="536.809,-26.2681 544.974,-19.5164 534.381,-19.7028 536.809,-26.2681"/>
</g>
<!-- Node14 -->
<g id="node14" class="node"><title>Node14</title>
<g id="a_node14"><a xlink:href="RaEngine_8hpp.html" target="_top" xlink:title="Engine/RaEngine.hpp">
<polygon fill="white" stroke="black" points="450.5,-112.5 450.5,-131.5 567.5,-131.5 567.5,-112.5 450.5,-112.5"/>
<text text-anchor="middle" x="509" y="-119.5" font-family="Helvetica,sans-Serif" font-size="10.00">Engine/RaEngine.hpp</text>
</a>
</g>
</g>
<!-- Node13&#45;&gt;Node14 -->
<g id="edge13" class="edge"><title>Node13&#45;&gt;Node14</title>
<path fill="none" stroke="midnightblue" d="M619.243,-168.444C597.684,-159.557 563.737,-145.563 539.206,-135.451"/>
<polygon fill="midnightblue" stroke="midnightblue" points="540.239,-132.092 529.66,-131.516 537.572,-138.563 540.239,-132.092"/>
</g>
<!-- Node15 -->
<g id="node15" class="node"><title>Node15</title>
<g id="a_node15"><a xlink:href="Index_8hpp.html" target="_top" xlink:title="Core/Utils/Index.hpp">
<polygon fill="white" stroke="black" points="896.5,-112.5 896.5,-131.5 1009.5,-131.5 1009.5,-112.5 896.5,-112.5"/>
<text text-anchor="middle" x="953" y="-119.5" font-family="Helvetica,sans-Serif" font-size="10.00">Core/Utils/Index.hpp</text>
</a>
</g>
</g>
<!-- Node13&#45;&gt;Node15 -->
<g id="edge15" class="edge"><title>Node13&#45;&gt;Node15</title>
<path fill="none" stroke="midnightblue" d="M689.596,-168.444C744.999,-158.885 834.643,-143.419 893.705,-133.23"/>
<polygon fill="midnightblue" stroke="midnightblue" points="894.377,-136.666 903.636,-131.516 893.187,-129.768 894.377,-136.666"/>
</g>
<!-- Node18 -->
<g id="node18" class="node"><title>Node18</title>
<polygon fill="white" stroke="#bfbfbf" points="586,-112.5 586,-131.5 630,-131.5 630,-112.5 586,-112.5"/>
<text text-anchor="middle" x="608" y="-119.5" font-family="Helvetica,sans-Serif" font-size="10.00">string</text>
</g>
<!-- Node13&#45;&gt;Node18 -->
<g id="edge18" class="edge"><title>Node13&#45;&gt;Node18</title>
<path fill="none" stroke="midnightblue" d="M634.716,-168.083C630.289,-160.613 623.837,-149.724 618.382,-140.52"/>
<polygon fill="midnightblue" stroke="midnightblue" points="621.295,-138.57 613.186,-131.751 615.273,-142.138 621.295,-138.57"/>
</g>
<!-- Node19 -->
<g id="node19" class="node"><title>Node19</title>
<polygon fill="white" stroke="#bfbfbf" points="648.5,-112.5 648.5,-131.5 695.5,-131.5 695.5,-112.5 648.5,-112.5"/>
<text text-anchor="middle" x="672" y="-119.5" font-family="Helvetica,sans-Serif" font-size="10.00">vector</text>
</g>
<!-- Node13&#45;&gt;Node19 -->
<g id="edge19" class="edge"><title>Node13&#45;&gt;Node19</title>
<path fill="none" stroke="midnightblue" d="M645.284,-168.083C649.711,-160.613 656.163,-149.724 661.618,-140.52"/>
<polygon fill="midnightblue" stroke="midnightblue" points="664.727,-142.138 666.814,-131.751 658.705,-138.57 664.727,-142.138"/>
</g>
<!-- Node20 -->
<g id="node20" class="node"><title>Node20</title>
<g id="a_node20"><a xlink:href="ItemEntry_8inl.html" target="_top" xlink:title="Engine/ItemModel/ItemEntry.inl">
<polygon fill="white" stroke="black" points="714,-112.5 714,-131.5 878,-131.5 878,-112.5 714,-112.5"/>
<text text-anchor="middle" x="796" y="-119.5" font-family="Helvetica,sans-Serif" font-size="10.00">Engine/ItemModel/ItemEntry.inl</text>
</a>
</g>
</g>
<!-- Node13&#45;&gt;Node20 -->
<g id="edge20" class="edge"><title>Node13&#45;&gt;Node20</title>
<path fill="none" stroke="midnightblue" d="M664.719,-168.444C690.848,-159.399 732.259,-145.064 761.576,-134.916"/>
<polygon fill="midnightblue" stroke="midnightblue" points="763.092,-138.095 771.397,-131.516 760.802,-131.48 763.092,-138.095"/>
</g>
<!-- Node14&#45;&gt;Node4 -->
<g id="edge14" class="edge"><title>Node14&#45;&gt;Node4</title>
<path fill="none" stroke="midnightblue" d="M495.022,-112.324C481.45,-103.9 460.62,-90.9709 444.675,-81.0741"/>
<polygon fill="midnightblue" stroke="midnightblue" points="446.286,-77.9544 435.943,-75.6545 442.594,-83.9019 446.286,-77.9544"/>
</g>
<!-- Node16 -->
<g id="node16" class="node"><title>Node16</title>
<polygon fill="white" stroke="#bfbfbf" points="978,-56.5 978,-75.5 1020,-75.5 1020,-56.5 978,-56.5"/>
<text text-anchor="middle" x="999" y="-63.5" font-family="Helvetica,sans-Serif" font-size="10.00">limits</text>
</g>
<!-- Node15&#45;&gt;Node16 -->
<g id="edge16" class="edge"><title>Node15&#45;&gt;Node16</title>
<path fill="none" stroke="midnightblue" d="M960.596,-112.083C967.227,-104.298 977.021,-92.8015 985.058,-83.3665"/>
<polygon fill="midnightblue" stroke="midnightblue" points="987.725,-85.6332 991.545,-75.7511 982.396,-81.0939 987.725,-85.6332"/>
</g>
<!-- Node17 -->
<g id="node17" class="node"><title>Node17</title>
<g id="a_node17"><a xlink:href="Index_8inl.html" target="_top" xlink:title="Core/Utils/Index.inl">
<polygon fill="white" stroke="black" points="854.5,-56.5 854.5,-75.5 959.5,-75.5 959.5,-56.5 854.5,-56.5"/>
<text text-anchor="middle" x="907" y="-63.5" font-family="Helvetica,sans-Serif" font-size="10.00">Core/Utils/Index.inl</text>
</a>
</g>
</g>
<!-- Node15&#45;&gt;Node17 -->
<g id="edge17" class="edge"><title>Node15&#45;&gt;Node17</title>
<path fill="none" stroke="midnightblue" d="M945.404,-112.083C938.773,-104.298 928.979,-92.8015 920.942,-83.3665"/>
<polygon fill="midnightblue" stroke="midnightblue" points="923.604,-81.0939 914.455,-75.7511 918.275,-85.6332 923.604,-81.0939"/>
</g>
<!-- Node21&#45;&gt;Node4 -->
<g id="edge22" class="edge"><title>Node21&#45;&gt;Node4</title>
<path fill="none" stroke="midnightblue" d="M422,-168.368C422,-150.617 422,-109.666 422,-85.5974"/>
<polygon fill="midnightblue" stroke="midnightblue" points="425.5,-85.5914 422,-75.5914 418.5,-85.5915 425.5,-85.5914"/>
</g>
</g>
</svg>
