<?xml version="1.0" encoding="UTF-8" standalone="no"?>
<!DOCTYPE svg PUBLIC "-//W3C//DTD SVG 1.1//EN"
 "http://www.w3.org/Graphics/SVG/1.1/DTD/svg11.dtd">
<!-- Generated by graphviz version 2.38.0 (20140413.2041)
 -->
<!-- Title: /home/travis/build/STORM&#45;IRIT/Radium&#45;Engine/src/GuiBase/TreeModel/TreeModel.cpp Pages: 1 -->
<svg width="835pt" height="274pt"
 viewBox="0.00 0.00 835.00 274.00" xmlns="http://www.w3.org/2000/svg" xmlns:xlink="http://www.w3.org/1999/xlink">
<g id="graph0" class="graph" transform="scale(1 1) rotate(0) translate(4 270)">
<title>/home/travis/build/STORM&#45;IRIT/Radium&#45;Engine/src/GuiBase/TreeModel/TreeModel.cpp</title>
<polygon fill="white" stroke="none" points="-4,4 -4,-270 831,-270 831,4 -4,4"/>
<!-- Node1 -->
<g id="node1" class="node"><title>Node1</title>
<polygon fill="#bfbfbf" stroke="black" points="550.5,-224.5 550.5,-265.5 749.5,-265.5 749.5,-224.5 550.5,-224.5"/>
<text text-anchor="start" x="558.5" y="-253.5" font-family="Helvetica,sans-Serif" font-size="10.00">/home/travis/build</text>
<text text-anchor="start" x="558.5" y="-242.5" font-family="Helvetica,sans-Serif" font-size="10.00">/STORM&#45;IRIT/Radium&#45;Engine</text>
<text text-anchor="middle" x="650" y="-231.5" font-family="Helvetica,sans-Serif" font-size="10.00">/src/GuiBase/TreeModel/TreeModel.cpp</text>
</g>
<!-- Node2 -->
<g id="node2" class="node"><title>Node2</title>
<g id="a_node2"><a xlink:href="TreeModel_8hpp.html" target="_top" xlink:title="GuiBase/TreeModel/TreeModel.hpp">
<polygon fill="white" stroke="black" points="209.5,-168.5 209.5,-187.5 388.5,-187.5 388.5,-168.5 209.5,-168.5"/>
<text text-anchor="middle" x="299" y="-175.5" font-family="Helvetica,sans-Serif" font-size="10.00">GuiBase/TreeModel/TreeModel.hpp</text>
</a>
</g>
</g>
<!-- Node1&#45;&gt;Node2 -->
<g id="edge1" class="edge"><title>Node1&#45;&gt;Node2</title>
<path fill="none" stroke="midnightblue" d="M550.356,-225.547C487.083,-213.83 407.52,-199.096 355.056,-189.381"/>
<polygon fill="midnightblue" stroke="midnightblue" points="355.408,-185.886 344.938,-187.507 354.133,-192.769 355.408,-185.886"/>
</g>
<!-- Node14 -->
<g id="node14" class="node"><title>Node14</title>
<g id="a_node14"><a xlink:href="Log_8hpp.html" target="_top" xlink:title="Core/Utils/Log.hpp">
<polygon fill="white" stroke="black" points="598,-168.5 598,-187.5 702,-187.5 702,-168.5 598,-168.5"/>
<text text-anchor="middle" x="650" y="-175.5" font-family="Helvetica,sans-Serif" font-size="10.00">Core/Utils/Log.hpp</text>
</a>
</g>
</g>
<!-- Node1&#45;&gt;Node14 -->
<g id="edge13" class="edge"><title>Node1&#45;&gt;Node14</title>
<path fill="none" stroke="midnightblue" d="M650,-224.498C650,-216.065 650,-206.235 650,-197.874"/>
<polygon fill="midnightblue" stroke="midnightblue" points="653.5,-197.652 650,-187.652 646.5,-197.653 653.5,-197.652"/>
</g>
<!-- Node19 -->
<g id="node19" class="node"><title>Node19</title>
<polygon fill="white" stroke="#bfbfbf" points="720,-168.5 720,-187.5 762,-187.5 762,-168.5 720,-168.5"/>
<text text-anchor="middle" x="741" y="-175.5" font-family="Helvetica,sans-Serif" font-size="10.00">stack</text>
</g>
<!-- Node1&#45;&gt;Node19 -->
<g id="edge20" class="edge"><title>Node1&#45;&gt;Node19</title>
<path fill="none" stroke="midnightblue" d="M677.303,-224.498C691.255,-214.532 707.94,-202.614 720.733,-193.476"/>
<polygon fill="midnightblue" stroke="midnightblue" points="722.784,-196.313 728.887,-187.652 718.715,-190.617 722.784,-196.313"/>
</g>
<!-- Node3 -->
<g id="node3" class="node"><title>Node3</title>
<g id="a_node3"><a xlink:href="RaGuiBase_8hpp.html" target="_top" xlink:title="GuiBase/RaGuiBase.hpp">
<polygon fill="white" stroke="black" points="0,-112.5 0,-131.5 132,-131.5 132,-112.5 0,-112.5"/>
<text text-anchor="middle" x="66" y="-119.5" font-family="Helvetica,sans-Serif" font-size="10.00">GuiBase/RaGuiBase.hpp</text>
</a>
</g>
</g>
<!-- Node2&#45;&gt;Node3 -->
<g id="edge2" class="edge"><title>Node2&#45;&gt;Node3</title>
<path fill="none" stroke="midnightblue" d="M262.08,-168.444C221.605,-159.063 156.579,-143.993 112.616,-133.804"/>
<polygon fill="midnightblue" stroke="midnightblue" points="113.279,-130.365 102.747,-131.516 111.698,-137.184 113.279,-130.365"/>
</g>
<!-- Node10 -->
<g id="node10" class="node"><title>Node10</title>
<polygon fill="white" stroke="#bfbfbf" points="150.5,-112.5 150.5,-131.5 207.5,-131.5 207.5,-112.5 150.5,-112.5"/>
<text text-anchor="middle" x="179" y="-119.5" font-family="Helvetica,sans-Serif" font-size="10.00">memory</text>
</g>
<!-- Node2&#45;&gt;Node10 -->
<g id="edge9" class="edge"><title>Node2&#45;&gt;Node10</title>
<path fill="none" stroke="midnightblue" d="M279.986,-168.444C260.412,-159.636 229.692,-145.812 207.271,-135.722"/>
<polygon fill="midnightblue" stroke="midnightblue" points="208.481,-132.428 197.925,-131.516 205.608,-138.812 208.481,-132.428"/>
</g>
<!-- Node11 -->
<g id="node11" class="node"><title>Node11</title>
<polygon fill="white" stroke="#bfbfbf" points="225.5,-112.5 225.5,-131.5 272.5,-131.5 272.5,-112.5 225.5,-112.5"/>
<text text-anchor="middle" x="249" y="-119.5" font-family="Helvetica,sans-Serif" font-size="10.00">vector</text>
</g>
<!-- Node2&#45;&gt;Node11 -->
<g id="edge10" class="edge"><title>Node2&#45;&gt;Node11</title>
<path fill="none" stroke="midnightblue" d="M290.744,-168.083C283.535,-160.298 272.89,-148.801 264.154,-139.367"/>
<polygon fill="midnightblue" stroke="midnightblue" points="266.465,-136.711 257.103,-131.751 261.329,-141.467 266.465,-136.711"/>
</g>
<!-- Node12 -->
<g id="node12" class="node"><title>Node12</title>
<polygon fill="white" stroke="#bfbfbf" points="290.5,-112.5 290.5,-131.5 405.5,-131.5 405.5,-112.5 290.5,-112.5"/>
<text text-anchor="middle" x="348" y="-119.5" font-family="Helvetica,sans-Serif" font-size="10.00">QAbstractItemModel</text>
</g>
<!-- Node2&#45;&gt;Node12 -->
<g id="edge11" class="edge"><title>Node2&#45;&gt;Node12</title>
<path fill="none" stroke="midnightblue" d="M307.091,-168.083C314.155,-160.298 324.588,-148.801 333.149,-139.367"/>
<polygon fill="midnightblue" stroke="midnightblue" points="335.931,-141.509 340.059,-131.751 330.747,-136.805 335.931,-141.509"/>
</g>
<!-- Node13 -->
<g id="node13" class="node"><title>Node13</title>
<polygon fill="white" stroke="#bfbfbf" points="423,-112.5 423,-131.5 481,-131.5 481,-112.5 423,-112.5"/>
<text text-anchor="middle" x="452" y="-119.5" font-family="Helvetica,sans-Serif" font-size="10.00">QVariant</text>
</g>
<!-- Node2&#45;&gt;Node13 -->
<g id="edge12" class="edge"><title>Node2&#45;&gt;Node13</title>
<path fill="none" stroke="midnightblue" d="M323.243,-168.444C348.871,-159.399 389.485,-145.064 418.238,-134.916"/>
<polygon fill="midnightblue" stroke="midnightblue" points="419.605,-138.145 427.87,-131.516 417.275,-131.544 419.605,-138.145"/>
</g>
<!-- Node4 -->
<g id="node4" class="node"><title>Node4</title>
<g id="a_node4"><a xlink:href="CoreMacros_8hpp.html" target="_top" xlink:title="Core/CoreMacros.hpp">
<polygon fill="white" stroke="black" points="423,-56.5 423,-75.5 543,-75.5 543,-56.5 423,-56.5"/>
<text text-anchor="middle" x="483" y="-63.5" font-family="Helvetica,sans-Serif" font-size="10.00">Core/CoreMacros.hpp</text>
</a>
</g>
</g>
<!-- Node3&#45;&gt;Node4 -->
<g id="edge3" class="edge"><title>Node3&#45;&gt;Node4</title>
<path fill="none" stroke="midnightblue" d="M132.075,-112.444C208.67,-102.525 334.387,-86.2448 412.726,-76.1002"/>
<polygon fill="midnightblue" stroke="midnightblue" points="413.515,-79.5274 422.983,-74.772 412.616,-72.5853 413.515,-79.5274"/>
</g>
<!-- Node5 -->
<g id="node5" class="node"><title>Node5</title>
<polygon fill="white" stroke="#bfbfbf" points="320,-0.5 320,-19.5 372,-19.5 372,-0.5 320,-0.5"/>
<text text-anchor="middle" x="346" y="-7.5" font-family="Helvetica,sans-Serif" font-size="10.00">cassert</text>
</g>
<!-- Node4&#45;&gt;Node5 -->
<g id="edge4" class="edge"><title>Node4&#45;&gt;Node5</title>
<path fill="none" stroke="midnightblue" d="M461.292,-56.4435C438.645,-47.5171 402.928,-33.4387 377.248,-23.3168"/>
<polygon fill="midnightblue" stroke="midnightblue" points="378.193,-19.9273 367.606,-19.5164 375.626,-26.4397 378.193,-19.9273"/>
</g>
<!-- Node6 -->
<g id="node6" class="node"><title>Node6</title>
<polygon fill="white" stroke="#bfbfbf" points="390.5,-0.5 390.5,-19.5 435.5,-19.5 435.5,-0.5 390.5,-0.5"/>
<text text-anchor="middle" x="413" y="-7.5" font-family="Helvetica,sans-Serif" font-size="10.00">cstdio</text>
</g>
<!-- Node4&#45;&gt;Node6 -->
<g id="edge5" class="edge"><title>Node4&#45;&gt;Node6</title>
<path fill="none" stroke="midnightblue" d="M471.753,-56.324C461.203,-48.1849 445.199,-35.8395 432.558,-26.0874"/>
<polygon fill="midnightblue" stroke="midnightblue" points="434.507,-23.1707 424.451,-19.8339 430.231,-28.7132 434.507,-23.1707"/>
</g>
<!-- Node7 -->
<g id="node7" class="node"><title>Node7</title>
<polygon fill="white" stroke="#bfbfbf" points="453.5,-0.5 453.5,-19.5 512.5,-19.5 512.5,-0.5 453.5,-0.5"/>
<text text-anchor="middle" x="483" y="-7.5" font-family="Helvetica,sans-Serif" font-size="10.00">iostream</text>
</g>
<!-- Node4&#45;&gt;Node7 -->
<g id="edge6" class="edge"><title>Node4&#45;&gt;Node7</title>
<path fill="none" stroke="midnightblue" d="M483,-56.083C483,-49.0059 483,-38.8611 483,-29.9865"/>
<polygon fill="midnightblue" stroke="midnightblue" points="486.5,-29.751 483,-19.7511 479.5,-29.7511 486.5,-29.751"/>
</g>
<!-- Node8 -->
<g id="node8" class="node"><title>Node8</title>
<polygon fill="white" stroke="#bfbfbf" points="597,-0.5 597,-19.5 653,-19.5 653,-0.5 597,-0.5"/>
<text text-anchor="middle" x="625" y="-7.5" font-family="Helvetica,sans-Serif" font-size="10.00">sstream</text>
</g>
<!-- Node4&#45;&gt;Node8 -->
<g id="edge7" class="edge"><title>Node4&#45;&gt;Node8</title>
<path fill="none" stroke="midnightblue" d="M505.5,-56.4435C529.077,-47.4776 566.322,-33.314 592.964,-23.1827"/>
<polygon fill="midnightblue" stroke="midnightblue" points="594.502,-26.3424 602.605,-19.5164 592.014,-19.7995 594.502,-26.3424"/>
</g>
<!-- Node9 -->
<g id="node9" class="node"><title>Node9</title>
<polygon fill="white" stroke="#bfbfbf" points="531,-0.5 531,-19.5 579,-19.5 579,-0.5 531,-0.5"/>
<text text-anchor="middle" x="555" y="-7.5" font-family="Helvetica,sans-Serif" font-size="10.00">thread</text>
</g>
<!-- Node4&#45;&gt;Node9 -->
<g id="edge8" class="edge"><title>Node4&#45;&gt;Node9</title>
<path fill="none" stroke="midnightblue" d="M494.568,-56.324C505.42,-48.1849 521.881,-35.8395 534.883,-26.0874"/>
<polygon fill="midnightblue" stroke="midnightblue" points="537.321,-28.6339 543.221,-19.8339 533.121,-23.0339 537.321,-28.6339"/>
</g>
<!-- Node14&#45;&gt;Node8 -->
<g id="edge17" class="edge"><title>Node14&#45;&gt;Node8</title>
<path fill="none" stroke="midnightblue" d="M648.656,-168.075C644.721,-141.945 633.164,-65.2106 627.798,-29.577"/>
<polygon fill="midnightblue" stroke="midnightblue" points="631.241,-28.9353 626.29,-19.5681 624.319,-29.9779 631.241,-28.9353"/>
</g>
<!-- Node15 -->
<g id="node15" class="node"><title>Node15</title>
<g id="a_node15"><a xlink:href="RaCore_8hpp.html" target="_top" xlink:title="Core/RaCore.hpp">
<polygon fill="white" stroke="black" points="499,-112.5 499,-131.5 597,-131.5 597,-112.5 499,-112.5"/>
<text text-anchor="middle" x="548" y="-119.5" font-family="Helvetica,sans-Serif" font-size="10.00">Core/RaCore.hpp</text>
</a>
</g>
</g>
<!-- Node14&#45;&gt;Node15 -->
<g id="edge14" class="edge"><title>Node14&#45;&gt;Node15</title>
<path fill="none" stroke="midnightblue" d="M633.612,-168.324C617.329,-159.703 592.133,-146.364 573.284,-136.386"/>
<polygon fill="midnightblue" stroke="midnightblue" points="574.823,-133.24 564.347,-131.655 571.548,-139.427 574.823,-133.24"/>
</g>
<!-- Node16 -->
<g id="node16" class="node"><title>Node16</title>
<polygon fill="white" stroke="#bfbfbf" points="653,-112.5 653,-131.5 697,-131.5 697,-112.5 653,-112.5"/>
<text text-anchor="middle" x="675" y="-119.5" font-family="Helvetica,sans-Serif" font-size="10.00">ctime</text>
</g>
<!-- Node14&#45;&gt;Node16 -->
<g id="edge16" class="edge"><title>Node14&#45;&gt;Node16</title>
<path fill="none" stroke="midnightblue" d="M654.128,-168.083C657.514,-160.77 662.416,-150.181 666.619,-141.103"/>
<polygon fill="midnightblue" stroke="midnightblue" points="669.923,-142.296 670.949,-131.751 663.571,-139.355 669.923,-142.296"/>
</g>
<!-- Node17 -->
<g id="node17" class="node"><title>Node17</title>
<polygon fill="white" stroke="#bfbfbf" points="715.5,-112.5 715.5,-131.5 764.5,-131.5 764.5,-112.5 715.5,-112.5"/>
<text text-anchor="middle" x="740" y="-119.5" font-family="Helvetica,sans-Serif" font-size="10.00">stdio.h</text>
</g>
<!-- Node14&#45;&gt;Node17 -->
<g id="edge18" class="edge"><title>Node14&#45;&gt;Node17</title>
<path fill="none" stroke="midnightblue" d="M664.46,-168.324C678.5,-159.9 700.048,-146.971 716.543,-137.074"/>
<polygon fill="midnightblue" stroke="midnightblue" points="718.802,-139.801 725.576,-131.655 715.2,-133.798 718.802,-139.801"/>
</g>
<!-- Node18 -->
<g id="node18" class="node"><title>Node18</title>
<polygon fill="white" stroke="#bfbfbf" points="783,-112.5 783,-131.5 827,-131.5 827,-112.5 783,-112.5"/>
<text text-anchor="middle" x="805" y="-119.5" font-family="Helvetica,sans-Serif" font-size="10.00">string</text>
</g>
<!-- Node14&#45;&gt;Node18 -->
<g id="edge19" class="edge"><title>Node14&#45;&gt;Node18</title>
<path fill="none" stroke="midnightblue" d="M674.56,-168.444C701.133,-159.186 743.613,-144.387 772.833,-134.207"/>
<polygon fill="midnightblue" stroke="midnightblue" points="774.276,-137.41 782.568,-130.815 771.973,-130.8 774.276,-137.41"/>
</g>
<!-- Node15&#45;&gt;Node4 -->
<g id="edge15" class="edge"><title>Node15&#45;&gt;Node4</title>
<path fill="none" stroke="midnightblue" d="M537.557,-112.324C527.854,-104.263 513.185,-92.0765 501.5,-82.3695"/>
<polygon fill="midnightblue" stroke="midnightblue" points="503.562,-79.532 493.633,-75.8339 499.089,-84.9163 503.562,-79.532"/>
</g>
</g>
</svg>
