<?xml version="1.0" encoding="UTF-8" standalone="no"?>
<!DOCTYPE svg PUBLIC "-//W3C//DTD SVG 1.1//EN"
 "http://www.w3.org/Graphics/SVG/1.1/DTD/svg11.dtd">
<!-- Generated by graphviz version 2.38.0 (20140413.2041)
 -->
<!-- Title: /home/travis/build/STORM&#45;IRIT/Radium&#45;Engine/src/Core/Geometry/TriangleMesh.cpp Pages: 1 -->
<svg width="1034pt" height="453pt"
 viewBox="0.00 0.00 1033.50 453.00" xmlns="http://www.w3.org/2000/svg" xmlns:xlink="http://www.w3.org/1999/xlink">
<g id="graph0" class="graph" transform="scale(1 1) rotate(0) translate(4 449)">
<title>/home/travis/build/STORM&#45;IRIT/Radium&#45;Engine/src/Core/Geometry/TriangleMesh.cpp</title>
<polygon fill="white" stroke="none" points="-4,4 -4,-449 1029.5,-449 1029.5,4 -4,4"/>
<!-- Node1 -->
<g id="node1" class="node"><title>Node1</title>
<polygon fill="#bfbfbf" stroke="black" points="632.5,-403.5 632.5,-444.5 827.5,-444.5 827.5,-403.5 632.5,-403.5"/>
<text text-anchor="start" x="640.5" y="-432.5" font-family="Helvetica,sans-Serif" font-size="10.00">/home/travis/build</text>
<text text-anchor="start" x="640.5" y="-421.5" font-family="Helvetica,sans-Serif" font-size="10.00">/STORM&#45;IRIT/Radium&#45;Engine</text>
<text text-anchor="middle" x="730" y="-410.5" font-family="Helvetica,sans-Serif" font-size="10.00">/src/Core/Geometry/TriangleMesh.cpp</text>
</g>
<!-- Node2 -->
<g id="node2" class="node"><title>Node2</title>
<g id="a_node2"><a xlink:href="TriangleMesh_8hpp.html" target="_top" xlink:title="TriangleMesh.hpp">
<polygon fill="white" stroke="black" points="453.5,-347.5 453.5,-366.5 552.5,-366.5 552.5,-347.5 453.5,-347.5"/>
<text text-anchor="middle" x="503" y="-354.5" font-family="Helvetica,sans-Serif" font-size="10.00">TriangleMesh.hpp</text>
</a>
</g>
</g>
<!-- Node1&#45;&gt;Node2 -->
<g id="edge1" class="edge"><title>Node1&#45;&gt;Node2</title>
<path fill="none" stroke="midnightblue" d="M661.893,-403.498C622.955,-392.348 575.484,-378.755 542.623,-369.346"/>
<polygon fill="midnightblue" stroke="midnightblue" points="543.496,-365.955 532.919,-366.567 541.569,-372.685 543.496,-365.955"/>
</g>
<!-- Node13 -->
<g id="node13" class="node"><title>Node13</title>
<polygon fill="white" stroke="#bfbfbf" points="229.5,-112.5 229.5,-131.5 276.5,-131.5 276.5,-112.5 229.5,-112.5"/>
<text text-anchor="middle" x="253" y="-119.5" font-family="Helvetica,sans-Serif" font-size="10.00">vector</text>
</g>
<!-- Node1&#45;&gt;Node13 -->
<g id="edge39" class="edge"><title>Node1&#45;&gt;Node13</title>
<path fill="none" stroke="midnightblue" d="M632.367,-420.649C478.274,-414.253 196,-390.464 196,-302 196,-302 196,-302 196,-244 196,-203.59 222.34,-162.206 239.209,-139.845"/>
<polygon fill="midnightblue" stroke="midnightblue" points="242.145,-141.772 245.548,-131.738 236.631,-137.46 242.145,-141.772"/>
</g>
<!-- Node14 -->
<g id="node14" class="node"><title>Node14</title>
<g id="a_node14"><a xlink:href="Types_8hpp.html" target="_top" xlink:title="Core/Math/Types.hpp">
<polygon fill="white" stroke="black" points="675,-174 675,-193 791,-193 791,-174 675,-174"/>
<text text-anchor="middle" x="733" y="-181" font-family="Helvetica,sans-Serif" font-size="10.00">Core/Math/Types.hpp</text>
</a>
</g>
</g>
<!-- Node1&#45;&gt;Node14 -->
<g id="edge37" class="edge"><title>Node1&#45;&gt;Node14</title>
<path fill="none" stroke="midnightblue" d="M738.043,-403.3C751.008,-368.835 773.66,-295.501 759,-235 756.173,-223.335 750.157,-211.346 744.623,-201.978"/>
<polygon fill="midnightblue" stroke="midnightblue" points="747.457,-199.909 739.185,-193.289 741.523,-203.622 747.457,-199.909"/>
</g>
<!-- Node23 -->
<g id="node23" class="node"><title>Node23</title>
<g id="a_node23"><a xlink:href="RayCast_8hpp.html" target="_top" xlink:title="Core/Geometry/RayCast.hpp">
<polygon fill="white" stroke="black" points="580.5,-235.5 580.5,-254.5 733.5,-254.5 733.5,-235.5 580.5,-235.5"/>
<text text-anchor="middle" x="657" y="-242.5" font-family="Helvetica,sans-Serif" font-size="10.00">Core/Geometry/RayCast.hpp</text>
</a>
</g>
</g>
<!-- Node1&#45;&gt;Node23 -->
<g id="edge30" class="edge"><title>Node1&#45;&gt;Node23</title>
<path fill="none" stroke="midnightblue" d="M721.909,-403.382C707.639,-368.783 678.209,-297.425 664.426,-264.006"/>
<polygon fill="midnightblue" stroke="midnightblue" points="667.589,-262.494 660.54,-254.584 661.117,-265.163 667.589,-262.494"/>
</g>
<!-- Node24 -->
<g id="node24" class="node"><title>Node24</title>
<g id="a_node24"><a xlink:href="TriangleOperation_8hpp.html" target="_top" xlink:title="Core/Geometry/TriangleOperation.hpp">
<polygon fill="white" stroke="black" points="828.5,-291.5 828.5,-310.5 1025.5,-310.5 1025.5,-291.5 828.5,-291.5"/>
<text text-anchor="middle" x="927" y="-298.5" font-family="Helvetica,sans-Serif" font-size="10.00">Core/Geometry/TriangleOperation.hpp</text>
</a>
</g>
</g>
<!-- Node1&#45;&gt;Node24 -->
<g id="edge35" class="edge"><title>Node1&#45;&gt;Node24</title>
<path fill="none" stroke="midnightblue" d="M762.09,-403.29C802.124,-378.701 869.553,-337.285 904.493,-315.824"/>
<polygon fill="midnightblue" stroke="midnightblue" points="906.35,-318.791 913.039,-310.575 902.686,-312.826 906.35,-318.791"/>
</g>
<!-- Node25 -->
<g id="node25" class="node"><title>Node25</title>
<polygon fill="white" stroke="#bfbfbf" points="866.5,-347.5 866.5,-366.5 907.5,-366.5 907.5,-347.5 866.5,-347.5"/>
<text text-anchor="middle" x="887" y="-354.5" font-family="Helvetica,sans-Serif" font-size="10.00">array</text>
</g>
<!-- Node1&#45;&gt;Node25 -->
<g id="edge38" class="edge"><title>Node1&#45;&gt;Node25</title>
<path fill="none" stroke="midnightblue" d="M777.105,-403.498C802.912,-392.813 834.139,-379.885 856.7,-370.545"/>
<polygon fill="midnightblue" stroke="midnightblue" points="858.2,-373.712 866.101,-366.652 855.523,-367.244 858.2,-373.712"/>
</g>
<!-- Node3 -->
<g id="node3" class="node"><title>Node3</title>
<g id="a_node3"><a xlink:href="VectorArray_8hpp.html" target="_top" xlink:title="Core/Containers/VectorArray.hpp">
<polygon fill="white" stroke="black" points="268.5,-235.5 268.5,-254.5 441.5,-254.5 441.5,-235.5 268.5,-235.5"/>
<text text-anchor="middle" x="355" y="-242.5" font-family="Helvetica,sans-Serif" font-size="10.00">Core/Containers/VectorArray.hpp</text>
</a>
</g>
</g>
<!-- Node2&#45;&gt;Node3 -->
<g id="edge2" class="edge"><title>Node2&#45;&gt;Node3</title>
<path fill="none" stroke="midnightblue" d="M453.25,-353.496C392.349,-349.269 294.507,-338.315 272,-311 253.936,-289.077 288.282,-269.845 318.129,-258.099"/>
<polygon fill="midnightblue" stroke="midnightblue" points="319.453,-261.341 327.589,-254.555 316.997,-254.786 319.453,-261.341"/>
</g>
<!-- Node5 -->
<g id="node5" class="node"><title>Node5</title>
<g id="a_node5"><a xlink:href="RaCore_8hpp.html" target="_top" xlink:title="Core/RaCore.hpp">
<polygon fill="white" stroke="black" points="465,-112.5 465,-131.5 563,-131.5 563,-112.5 465,-112.5"/>
<text text-anchor="middle" x="514" y="-119.5" font-family="Helvetica,sans-Serif" font-size="10.00">Core/RaCore.hpp</text>
</a>
</g>
</g>
<!-- Node2&#45;&gt;Node5 -->
<g id="edge21" class="edge"><title>Node2&#45;&gt;Node5</title>
<path fill="none" stroke="midnightblue" d="M542.255,-347.475C561.996,-340.99 584.184,-329.843 596,-311 610.48,-287.908 584.242,-278.824 571,-255 549.353,-216.055 530.181,-167.244 520.557,-141.26"/>
<polygon fill="midnightblue" stroke="midnightblue" points="523.754,-139.811 517.038,-131.617 517.178,-142.211 523.754,-139.811"/>
</g>
<!-- Node2&#45;&gt;Node14 -->
<g id="edge20" class="edge"><title>Node2&#45;&gt;Node14</title>
<path fill="none" stroke="midnightblue" d="M552.632,-351.421C610.021,-343.121 701.744,-319.878 742,-255 751.832,-239.155 746.919,-217.449 741.244,-202.324"/>
<polygon fill="midnightblue" stroke="midnightblue" points="744.455,-200.93 737.365,-193.057 737.997,-203.632 744.455,-200.93"/>
</g>
<!-- Node18 -->
<g id="node18" class="node"><title>Node18</title>
<g id="a_node18"><a xlink:href="Attribs_8hpp.html" target="_top" xlink:title="Core/Utils/Attribs.hpp">
<polygon fill="white" stroke="black" points="281.5,-291.5 281.5,-310.5 400.5,-310.5 400.5,-291.5 281.5,-291.5"/>
<text text-anchor="middle" x="341" y="-298.5" font-family="Helvetica,sans-Serif" font-size="10.00">Core/Utils/Attribs.hpp</text>
</a>
</g>
</g>
<!-- Node2&#45;&gt;Node18 -->
<g id="edge22" class="edge"><title>Node2&#45;&gt;Node18</title>
<path fill="none" stroke="midnightblue" d="M477.331,-347.444C450.077,-338.359 406.816,-323.939 376.349,-313.783"/>
<polygon fill="midnightblue" stroke="midnightblue" points="377.143,-310.358 366.549,-310.516 374.929,-316.999 377.143,-310.358"/>
</g>
<!-- Node22 -->
<g id="node22" class="node"><title>Node22</title>
<g id="a_node22"><a xlink:href="TriangleMesh_8inl.html" target="_top" xlink:title="Core/Geometry/TriangleMesh.inl">
<polygon fill="white" stroke="black" points="419,-291.5 419,-310.5 587,-310.5 587,-291.5 419,-291.5"/>
<text text-anchor="middle" x="503" y="-298.5" font-family="Helvetica,sans-Serif" font-size="10.00">Core/Geometry/TriangleMesh.inl</text>
</a>
</g>
</g>
<!-- Node2&#45;&gt;Node22 -->
<g id="edge28" class="edge"><title>Node2&#45;&gt;Node22</title>
<path fill="none" stroke="midnightblue" d="M497.834,-347.083C496.324,-339.927 495.894,-329.635 496.542,-320.691"/>
<polygon fill="midnightblue" stroke="midnightblue" points="500.015,-321.126 497.869,-310.751 493.077,-320.2 500.015,-321.126"/>
</g>
<!-- Node4 -->
<g id="node4" class="node"><title>Node4</title>
<g id="a_node4"><a xlink:href="AlignedStdVector_8hpp.html" target="_top" xlink:title="Core/Containers/AlignedStd\lVector.hpp">
<polygon fill="white" stroke="black" points="299.5,-168.5 299.5,-198.5 448.5,-198.5 448.5,-168.5 299.5,-168.5"/>
<text text-anchor="start" x="307.5" y="-186.5" font-family="Helvetica,sans-Serif" font-size="10.00">Core/Containers/AlignedStd</text>
<text text-anchor="middle" x="374" y="-175.5" font-family="Helvetica,sans-Serif" font-size="10.00">Vector.hpp</text>
</a>
</g>
</g>
<!-- Node3&#45;&gt;Node4 -->
<g id="edge3" class="edge"><title>Node3&#45;&gt;Node4</title>
<path fill="none" stroke="midnightblue" d="M357.722,-235.475C360.007,-228.32 363.383,-217.748 366.469,-208.084"/>
<polygon fill="midnightblue" stroke="midnightblue" points="369.814,-209.114 369.522,-198.523 363.146,-206.984 369.814,-209.114"/>
</g>
<!-- Node3&#45;&gt;Node5 -->
<g id="edge18" class="edge"><title>Node3&#45;&gt;Node5</title>
<path fill="none" stroke="midnightblue" d="M384.864,-235.348C406.452,-228.073 435.481,-216.097 457,-199 477.51,-182.704 494.511,-157.375 504.462,-140.494"/>
<polygon fill="midnightblue" stroke="midnightblue" points="507.583,-142.086 509.48,-131.663 501.497,-138.628 507.583,-142.086"/>
</g>
<!-- Node3&#45;&gt;Node13 -->
<g id="edge19" class="edge"><title>Node3&#45;&gt;Node13</title>
<path fill="none" stroke="midnightblue" d="M314.116,-235.431C293.81,-228.956 270.913,-217.832 258,-199 246.578,-182.342 247.006,-158.505 249.21,-141.987"/>
<polygon fill="midnightblue" stroke="midnightblue" points="252.699,-142.339 250.895,-131.898 245.795,-141.185 252.699,-142.339"/>
</g>
<!-- Node3&#45;&gt;Node14 -->
<g id="edge13" class="edge"><title>Node3&#45;&gt;Node14</title>
<path fill="none" stroke="midnightblue" d="M409.158,-235.475C477.788,-224.672 595.914,-206.078 668.946,-194.583"/>
<polygon fill="midnightblue" stroke="midnightblue" points="669.608,-198.022 678.942,-193.009 668.52,-191.107 669.608,-198.022"/>
</g>
<!-- Node4&#45;&gt;Node5 -->
<g id="edge4" class="edge"><title>Node4&#45;&gt;Node5</title>
<path fill="none" stroke="midnightblue" d="M407.178,-168.399C430.563,-158.461 461.612,-145.265 484.206,-135.662"/>
<polygon fill="midnightblue" stroke="midnightblue" points="485.794,-138.79 493.629,-131.658 483.056,-132.348 485.794,-138.79"/>
</g>
<!-- Node12 -->
<g id="node12" class="node"><title>Node12</title>
<polygon fill="white" stroke="#bfbfbf" points="327.5,-112.5 327.5,-131.5 420.5,-131.5 420.5,-112.5 327.5,-112.5"/>
<text text-anchor="middle" x="374" y="-119.5" font-family="Helvetica,sans-Serif" font-size="10.00">Eigen/StdVector</text>
</g>
<!-- Node4&#45;&gt;Node12 -->
<g id="edge11" class="edge"><title>Node4&#45;&gt;Node12</title>
<path fill="none" stroke="midnightblue" d="M374,-168.399C374,-160.466 374,-150.458 374,-141.858"/>
<polygon fill="midnightblue" stroke="midnightblue" points="377.5,-141.658 374,-131.658 370.5,-141.658 377.5,-141.658"/>
</g>
<!-- Node4&#45;&gt;Node13 -->
<g id="edge12" class="edge"><title>Node4&#45;&gt;Node13</title>
<path fill="none" stroke="midnightblue" d="M345.325,-168.399C325.476,-158.639 299.239,-145.737 279.808,-136.183"/>
<polygon fill="midnightblue" stroke="midnightblue" points="281.125,-132.93 270.607,-131.658 278.036,-139.211 281.125,-132.93"/>
</g>
<!-- Node6 -->
<g id="node6" class="node"><title>Node6</title>
<g id="a_node6"><a xlink:href="CoreMacros_8hpp.html" target="_top" xlink:title="Core/CoreMacros.hpp">
<polygon fill="white" stroke="black" points="454,-56.5 454,-75.5 574,-75.5 574,-56.5 454,-56.5"/>
<text text-anchor="middle" x="514" y="-63.5" font-family="Helvetica,sans-Serif" font-size="10.00">Core/CoreMacros.hpp</text>
</a>
</g>
</g>
<!-- Node5&#45;&gt;Node6 -->
<g id="edge5" class="edge"><title>Node5&#45;&gt;Node6</title>
<path fill="none" stroke="midnightblue" d="M514,-112.083C514,-105.006 514,-94.8611 514,-85.9865"/>
<polygon fill="midnightblue" stroke="midnightblue" points="517.5,-85.751 514,-75.7511 510.5,-85.7511 517.5,-85.751"/>
</g>
<!-- Node7 -->
<g id="node7" class="node"><title>Node7</title>
<polygon fill="white" stroke="#bfbfbf" points="351,-0.5 351,-19.5 403,-19.5 403,-0.5 351,-0.5"/>
<text text-anchor="middle" x="377" y="-7.5" font-family="Helvetica,sans-Serif" font-size="10.00">cassert</text>
</g>
<!-- Node6&#45;&gt;Node7 -->
<g id="edge6" class="edge"><title>Node6&#45;&gt;Node7</title>
<path fill="none" stroke="midnightblue" d="M492.292,-56.4435C469.645,-47.5171 433.928,-33.4387 408.248,-23.3168"/>
<polygon fill="midnightblue" stroke="midnightblue" points="409.193,-19.9273 398.606,-19.5164 406.626,-26.4397 409.193,-19.9273"/>
</g>
<!-- Node8 -->
<g id="node8" class="node"><title>Node8</title>
<polygon fill="white" stroke="#bfbfbf" points="421.5,-0.5 421.5,-19.5 466.5,-19.5 466.5,-0.5 421.5,-0.5"/>
<text text-anchor="middle" x="444" y="-7.5" font-family="Helvetica,sans-Serif" font-size="10.00">cstdio</text>
</g>
<!-- Node6&#45;&gt;Node8 -->
<g id="edge7" class="edge"><title>Node6&#45;&gt;Node8</title>
<path fill="none" stroke="midnightblue" d="M502.753,-56.324C492.203,-48.1849 476.199,-35.8395 463.558,-26.0874"/>
<polygon fill="midnightblue" stroke="midnightblue" points="465.507,-23.1707 455.451,-19.8339 461.231,-28.7132 465.507,-23.1707"/>
</g>
<!-- Node9 -->
<g id="node9" class="node"><title>Node9</title>
<polygon fill="white" stroke="#bfbfbf" points="484.5,-0.5 484.5,-19.5 543.5,-19.5 543.5,-0.5 484.5,-0.5"/>
<text text-anchor="middle" x="514" y="-7.5" font-family="Helvetica,sans-Serif" font-size="10.00">iostream</text>
</g>
<!-- Node6&#45;&gt;Node9 -->
<g id="edge8" class="edge"><title>Node6&#45;&gt;Node9</title>
<path fill="none" stroke="midnightblue" d="M514,-56.083C514,-49.0059 514,-38.8611 514,-29.9865"/>
<polygon fill="midnightblue" stroke="midnightblue" points="517.5,-29.751 514,-19.7511 510.5,-29.7511 517.5,-29.751"/>
</g>
<!-- Node10 -->
<g id="node10" class="node"><title>Node10</title>
<polygon fill="white" stroke="#bfbfbf" points="562,-0.5 562,-19.5 618,-19.5 618,-0.5 562,-0.5"/>
<text text-anchor="middle" x="590" y="-7.5" font-family="Helvetica,sans-Serif" font-size="10.00">sstream</text>
</g>
<!-- Node6&#45;&gt;Node10 -->
<g id="edge9" class="edge"><title>Node6&#45;&gt;Node10</title>
<path fill="none" stroke="midnightblue" d="M526.211,-56.324C537.776,-48.1066 555.375,-35.6017 569.161,-25.8069"/>
<polygon fill="midnightblue" stroke="midnightblue" points="571.443,-28.4791 577.567,-19.8339 567.388,-22.7729 571.443,-28.4791"/>
</g>
<!-- Node11 -->
<g id="node11" class="node"><title>Node11</title>
<polygon fill="white" stroke="#bfbfbf" points="636,-0.5 636,-19.5 684,-19.5 684,-0.5 636,-0.5"/>
<text text-anchor="middle" x="660" y="-7.5" font-family="Helvetica,sans-Serif" font-size="10.00">thread</text>
</g>
<!-- Node6&#45;&gt;Node11 -->
<g id="edge10" class="edge"><title>Node6&#45;&gt;Node11</title>
<path fill="none" stroke="midnightblue" d="M537.134,-56.4435C561.482,-47.4381 600.007,-33.1891 627.423,-23.049"/>
<polygon fill="midnightblue" stroke="midnightblue" points="628.809,-26.2681 636.974,-19.5164 626.381,-19.7028 628.809,-26.2681"/>
</g>
<!-- Node14&#45;&gt;Node5 -->
<g id="edge14" class="edge"><title>Node14&#45;&gt;Node5</title>
<path fill="none" stroke="midnightblue" d="M701.623,-173.975C663.081,-163.504 597.595,-145.712 555.076,-134.16"/>
<polygon fill="midnightblue" stroke="midnightblue" points="555.887,-130.753 545.319,-131.509 554.052,-137.509 555.887,-130.753"/>
</g>
<!-- Node15 -->
<g id="node15" class="node"><title>Node15</title>
<polygon fill="white" stroke="#bfbfbf" points="791,-112.5 791,-131.5 859,-131.5 859,-112.5 791,-112.5"/>
<text text-anchor="middle" x="825" y="-119.5" font-family="Helvetica,sans-Serif" font-size="10.00">Eigen/Core</text>
</g>
<!-- Node14&#45;&gt;Node15 -->
<g id="edge15" class="edge"><title>Node14&#45;&gt;Node15</title>
<path fill="none" stroke="midnightblue" d="M746.181,-173.975C761.074,-164.343 785.544,-148.517 803.273,-137.052"/>
<polygon fill="midnightblue" stroke="midnightblue" points="805.347,-139.879 811.843,-131.509 801.545,-134.001 805.347,-139.879"/>
</g>
<!-- Node16 -->
<g id="node16" class="node"><title>Node16</title>
<polygon fill="white" stroke="#bfbfbf" points="581,-112.5 581,-131.5 675,-131.5 675,-112.5 581,-112.5"/>
<text text-anchor="middle" x="628" y="-119.5" font-family="Helvetica,sans-Serif" font-size="10.00">Eigen/Geometry</text>
</g>
<!-- Node14&#45;&gt;Node16 -->
<g id="edge16" class="edge"><title>Node14&#45;&gt;Node16</title>
<path fill="none" stroke="midnightblue" d="M717.956,-173.975C700.725,-164.211 672.26,-148.081 651.966,-136.581"/>
<polygon fill="midnightblue" stroke="midnightblue" points="653.442,-133.394 643.016,-131.509 649.991,-139.484 653.442,-133.394"/>
</g>
<!-- Node17 -->
<g id="node17" class="node"><title>Node17</title>
<polygon fill="white" stroke="#bfbfbf" points="693,-112.5 693,-131.5 773,-131.5 773,-112.5 693,-112.5"/>
<text text-anchor="middle" x="733" y="-119.5" font-family="Helvetica,sans-Serif" font-size="10.00">Eigen/Sparse</text>
</g>
<!-- Node14&#45;&gt;Node17 -->
<g id="edge17" class="edge"><title>Node14&#45;&gt;Node17</title>
<path fill="none" stroke="midnightblue" d="M733,-173.975C733,-165.58 733,-152.481 733,-141.663"/>
<polygon fill="midnightblue" stroke="midnightblue" points="736.5,-141.509 733,-131.509 729.5,-141.509 736.5,-141.509"/>
</g>
<!-- Node18&#45;&gt;Node3 -->
<g id="edge23" class="edge"><title>Node18&#45;&gt;Node3</title>
<path fill="none" stroke="midnightblue" d="M343.312,-291.083C345.167,-283.927 347.835,-273.635 350.154,-264.691"/>
<polygon fill="midnightblue" stroke="midnightblue" points="353.609,-265.309 352.731,-254.751 346.834,-263.553 353.609,-265.309"/>
</g>
<!-- Node18&#45;&gt;Node5 -->
<g id="edge24" class="edge"><title>Node18&#45;&gt;Node5</title>
<path fill="none" stroke="midnightblue" d="M376.054,-291.443C398.981,-284.511 428.545,-272.906 450,-255 485.904,-225.034 503.229,-170.143 510.155,-141.5"/>
<polygon fill="midnightblue" stroke="midnightblue" points="513.602,-142.126 512.383,-131.602 506.773,-140.589 513.602,-142.126"/>
</g>
<!-- Node19 -->
<g id="node19" class="node"><title>Node19</title>
<g id="a_node19"><a xlink:href="Index_8hpp.html" target="_top" xlink:title="Core/Utils/Index.hpp">
<polygon fill="white" stroke="black" points="54.5,-235.5 54.5,-254.5 167.5,-254.5 167.5,-235.5 54.5,-235.5"/>
<text text-anchor="middle" x="111" y="-242.5" font-family="Helvetica,sans-Serif" font-size="10.00">Core/Utils/Index.hpp</text>
</a>
</g>
</g>
<!-- Node18&#45;&gt;Node19 -->
<g id="edge25" class="edge"><title>Node18&#45;&gt;Node19</title>
<path fill="none" stroke="midnightblue" d="M304.556,-291.444C264.601,-282.063 200.413,-266.993 157.015,-256.804"/>
<polygon fill="midnightblue" stroke="midnightblue" points="157.809,-253.395 147.274,-254.516 156.209,-260.21 157.809,-253.395"/>
</g>
<!-- Node20 -->
<g id="node20" class="node"><title>Node20</title>
<polygon fill="white" stroke="#bfbfbf" points="0,-174 0,-193 42,-193 42,-174 0,-174"/>
<text text-anchor="middle" x="21" y="-181" font-family="Helvetica,sans-Serif" font-size="10.00">limits</text>
</g>
<!-- Node19&#45;&gt;Node20 -->
<g id="edge26" class="edge"><title>Node19&#45;&gt;Node20</title>
<path fill="none" stroke="midnightblue" d="M98.1052,-235.475C83.5358,-225.843 59.5978,-210.017 42.2546,-198.552"/>
<polygon fill="midnightblue" stroke="midnightblue" points="44.143,-195.604 33.8709,-193.009 40.2825,-201.444 44.143,-195.604"/>
</g>
<!-- Node21 -->
<g id="node21" class="node"><title>Node21</title>
<g id="a_node21"><a xlink:href="Index_8inl.html" target="_top" xlink:title="Core/Utils/Index.inl">
<polygon fill="white" stroke="black" points="60.5,-174 60.5,-193 165.5,-193 165.5,-174 60.5,-174"/>
<text text-anchor="middle" x="113" y="-181" font-family="Helvetica,sans-Serif" font-size="10.00">Core/Utils/Index.inl</text>
</a>
</g>
</g>
<!-- Node19&#45;&gt;Node21 -->
<g id="edge27" class="edge"><title>Node19&#45;&gt;Node21</title>
<path fill="none" stroke="midnightblue" d="M111.287,-235.475C111.569,-227.08 112.009,-213.981 112.373,-203.163"/>
<polygon fill="midnightblue" stroke="midnightblue" points="115.876,-203.121 112.714,-193.009 108.88,-202.886 115.876,-203.121"/>
</g>
<!-- Node22&#45;&gt;Node2 -->
<g id="edge29" class="edge"><title>Node22&#45;&gt;Node2</title>
<path fill="none" stroke="midnightblue" d="M508.131,-310.751C509.657,-317.858 510.104,-328.136 509.472,-337.101"/>
<polygon fill="midnightblue" stroke="midnightblue" points="505.993,-336.713 508.166,-347.083 512.934,-337.622 505.993,-336.713"/>
</g>
<!-- Node23&#45;&gt;Node5 -->
<g id="edge32" class="edge"><title>Node23&#45;&gt;Node5</title>
<path fill="none" stroke="midnightblue" d="M646.716,-235.298C622.599,-214.891 562.159,-163.75 531.877,-138.127"/>
<polygon fill="midnightblue" stroke="midnightblue" points="534.086,-135.411 524.191,-131.623 529.564,-140.754 534.086,-135.411"/>
</g>
<!-- Node23&#45;&gt;Node13 -->
<g id="edge34" class="edge"><title>Node23&#45;&gt;Node13</title>
<path fill="none" stroke="midnightblue" d="M580.327,-238.503C479.711,-230.696 313.121,-215.501 290,-199 271.008,-185.445 261.334,-159.41 256.731,-141.627"/>
<polygon fill="midnightblue" stroke="midnightblue" points="260.125,-140.772 254.481,-131.806 253.302,-142.335 260.125,-140.772"/>
</g>
<!-- Node23&#45;&gt;Node14 -->
<g id="edge31" class="edge"><title>Node23&#45;&gt;Node14</title>
<path fill="none" stroke="midnightblue" d="M667.889,-235.475C679.966,-226.02 699.667,-210.596 714.24,-199.187"/>
<polygon fill="midnightblue" stroke="midnightblue" points="716.415,-201.929 722.131,-193.009 712.1,-196.418 716.415,-201.929"/>
</g>
<!-- Node23&#45;&gt;Node15 -->
<g id="edge33" class="edge"><title>Node23&#45;&gt;Node15</title>
<path fill="none" stroke="midnightblue" d="M727.633,-235.449C753.263,-229.113 780.644,-218.107 800,-199 815.34,-183.857 821.269,-159.145 823.559,-142.03"/>
<polygon fill="midnightblue" stroke="midnightblue" points="827.09,-141.912 824.635,-131.606 820.127,-141.194 827.09,-141.912"/>
</g>
<!-- Node24&#45;&gt;Node14 -->
<g id="edge36" class="edge"><title>Node24&#45;&gt;Node14</title>
<path fill="none" stroke="midnightblue" d="M912.418,-291.319C878.982,-271.412 796.563,-222.343 756.128,-198.269"/>
<polygon fill="midnightblue" stroke="midnightblue" points="757.869,-195.233 747.486,-193.124 754.288,-201.247 757.869,-195.233"/>
</g>
</g>
</svg>
