<?xml version="1.0" encoding="UTF-8" standalone="no"?>
<!DOCTYPE svg PUBLIC "-//W3C//DTD SVG 1.1//EN"
 "http://www.w3.org/Graphics/SVG/1.1/DTD/svg11.dtd">
<!-- Generated by graphviz version 2.38.0 (20140413.2041)
 -->
<!-- Title: /home/travis/build/STORM&#45;IRIT/Radium&#45;Engine/src/Core/Geometry/TriangleMesh.hpp Pages: 1 -->
<svg width="775pt" height="397pt"
 viewBox="0.00 0.00 775.00 397.00" xmlns="http://www.w3.org/2000/svg" xmlns:xlink="http://www.w3.org/1999/xlink">
<g id="graph0" class="graph" transform="scale(1 1) rotate(0) translate(4 393)">
<title>/home/travis/build/STORM&#45;IRIT/Radium&#45;Engine/src/Core/Geometry/TriangleMesh.hpp</title>
<polygon fill="white" stroke="none" points="-4,4 -4,-393 771,-393 771,4 -4,4"/>
<!-- Node1 -->
<g id="node1" class="node"><title>Node1</title>
<polygon fill="#bfbfbf" stroke="black" points="290,-347.5 290,-388.5 486,-388.5 486,-347.5 290,-347.5"/>
<text text-anchor="start" x="298" y="-376.5" font-family="Helvetica,sans-Serif" font-size="10.00">/home/travis/build</text>
<text text-anchor="start" x="298" y="-365.5" font-family="Helvetica,sans-Serif" font-size="10.00">/STORM&#45;IRIT/Radium&#45;Engine</text>
<text text-anchor="middle" x="388" y="-354.5" font-family="Helvetica,sans-Serif" font-size="10.00">/src/Core/Geometry/TriangleMesh.hpp</text>
</g>
<!-- Node2 -->
<g id="node2" class="node"><title>Node2</title>
<g id="a_node2"><a xlink:href="VectorArray_8hpp.html" target="_top" xlink:title="Core/Containers/VectorArray.hpp">
<polygon fill="white" stroke="black" points="359.5,-235.5 359.5,-254.5 532.5,-254.5 532.5,-235.5 359.5,-235.5"/>
<text text-anchor="middle" x="446" y="-242.5" font-family="Helvetica,sans-Serif" font-size="10.00">Core/Containers/VectorArray.hpp</text>
</a>
</g>
</g>
<!-- Node1&#45;&gt;Node2 -->
<g id="edge1" class="edge"><title>Node1&#45;&gt;Node2</title>
<path fill="none" stroke="midnightblue" d="M372.791,-347.265C362.483,-331.305 352.484,-308.664 363,-291 372.096,-275.721 388.388,-265.31 404.144,-258.386"/>
<polygon fill="midnightblue" stroke="midnightblue" points="405.833,-261.479 413.815,-254.512 403.231,-254.981 405.833,-261.479"/>
</g>
<!-- Node4 -->
<g id="node4" class="node"><title>Node4</title>
<g id="a_node4"><a xlink:href="RaCore_8hpp.html" target="_top" xlink:title="Core/RaCore.hpp">
<polygon fill="white" stroke="black" points="296,-112.5 296,-131.5 394,-131.5 394,-112.5 296,-112.5"/>
<text text-anchor="middle" x="345" y="-119.5" font-family="Helvetica,sans-Serif" font-size="10.00">Core/RaCore.hpp</text>
</a>
</g>
</g>
<!-- Node1&#45;&gt;Node4 -->
<g id="edge20" class="edge"><title>Node1&#45;&gt;Node4</title>
<path fill="none" stroke="midnightblue" d="M374.889,-347.395C368.288,-336.916 360.533,-323.606 355,-311 334.539,-264.385 334.163,-249.809 331,-199 330.144,-185.249 328.93,-181.621 331,-168 332.368,-159.001 335.19,-149.325 337.945,-141.26"/>
<polygon fill="midnightblue" stroke="midnightblue" points="341.265,-142.372 341.4,-131.778 334.688,-139.976 341.265,-142.372"/>
</g>
<!-- Node13 -->
<g id="node13" class="node"><title>Node13</title>
<g id="a_node13"><a xlink:href="Types_8hpp.html" target="_top" xlink:title="Core/Math/Types.hpp">
<polygon fill="white" stroke="black" points="149,-174 149,-193 265,-193 265,-174 149,-174"/>
<text text-anchor="middle" x="207" y="-181" font-family="Helvetica,sans-Serif" font-size="10.00">Core/Math/Types.hpp</text>
</a>
</g>
</g>
<!-- Node1&#45;&gt;Node13 -->
<g id="edge19" class="edge"><title>Node1&#45;&gt;Node13</title>
<path fill="none" stroke="midnightblue" d="M335.249,-347.406C315.962,-338.419 294.977,-326.307 279,-311 246.123,-279.502 223.859,-229.68 213.555,-202.929"/>
<polygon fill="midnightblue" stroke="midnightblue" points="216.74,-201.452 209.98,-193.294 210.177,-203.887 216.74,-201.452"/>
</g>
<!-- Node17 -->
<g id="node17" class="node"><title>Node17</title>
<g id="a_node17"><a xlink:href="Attribs_8hpp.html" target="_top" xlink:title="Core/Utils/Attribs.hpp">
<polygon fill="white" stroke="black" points="372.5,-291.5 372.5,-310.5 491.5,-310.5 491.5,-291.5 372.5,-291.5"/>
<text text-anchor="middle" x="432" y="-298.5" font-family="Helvetica,sans-Serif" font-size="10.00">Core/Utils/Attribs.hpp</text>
</a>
</g>
</g>
<!-- Node1&#45;&gt;Node17 -->
<g id="edge21" class="edge"><title>Node1&#45;&gt;Node17</title>
<path fill="none" stroke="midnightblue" d="M401.201,-347.498C407.299,-338.49 414.476,-327.888 420.367,-319.185"/>
<polygon fill="midnightblue" stroke="midnightblue" points="423.436,-320.896 426.143,-310.652 417.639,-316.972 423.436,-320.896"/>
</g>
<!-- Node21 -->
<g id="node21" class="node"><title>Node21</title>
<g id="a_node21"><a xlink:href="TriangleMesh_8inl.html" target="_top" xlink:title="Core/Geometry/TriangleMesh.inl">
<polygon fill="white" stroke="black" points="510,-291.5 510,-310.5 678,-310.5 678,-291.5 510,-291.5"/>
<text text-anchor="middle" x="594" y="-298.5" font-family="Helvetica,sans-Serif" font-size="10.00">Core/Geometry/TriangleMesh.inl</text>
</a>
</g>
</g>
<!-- Node1&#45;&gt;Node21 -->
<g id="edge27" class="edge"><title>Node1&#45;&gt;Node21</title>
<path fill="none" stroke="midnightblue" d="M443.561,-347.498C477.836,-336.396 521.015,-322.872 552.366,-313.468"/>
<polygon fill="midnightblue" stroke="midnightblue" points="553.518,-316.776 562.103,-310.567 551.52,-310.068 553.518,-316.776"/>
</g>
<!-- Node3 -->
<g id="node3" class="node"><title>Node3</title>
<g id="a_node3"><a xlink:href="AlignedStdVector_8hpp.html" target="_top" xlink:title="Core/Containers/AlignedStd\lVector.hpp">
<polygon fill="white" stroke="black" points="396.5,-168.5 396.5,-198.5 545.5,-198.5 545.5,-168.5 396.5,-168.5"/>
<text text-anchor="start" x="404.5" y="-186.5" font-family="Helvetica,sans-Serif" font-size="10.00">Core/Containers/AlignedStd</text>
<text text-anchor="middle" x="471" y="-175.5" font-family="Helvetica,sans-Serif" font-size="10.00">Vector.hpp</text>
</a>
</g>
</g>
<!-- Node2&#45;&gt;Node3 -->
<g id="edge2" class="edge"><title>Node2&#45;&gt;Node3</title>
<path fill="none" stroke="midnightblue" d="M449.582,-235.475C452.62,-228.245 457.124,-217.525 461.219,-207.779"/>
<polygon fill="midnightblue" stroke="midnightblue" points="464.461,-209.098 465.108,-198.523 458.008,-206.386 464.461,-209.098"/>
</g>
<!-- Node2&#45;&gt;Node4 -->
<g id="edge17" class="edge"><title>Node2&#45;&gt;Node4</title>
<path fill="none" stroke="midnightblue" d="M431.538,-235.414C418.68,-227.252 399.962,-214.019 387,-199 371.81,-181.4 359.679,-157.424 352.435,-141.141"/>
<polygon fill="midnightblue" stroke="midnightblue" points="355.546,-139.516 348.396,-131.697 349.11,-142.268 355.546,-139.516"/>
</g>
<!-- Node12 -->
<g id="node12" class="node"><title>Node12</title>
<polygon fill="white" stroke="#bfbfbf" points="542.5,-112.5 542.5,-131.5 589.5,-131.5 589.5,-112.5 542.5,-112.5"/>
<text text-anchor="middle" x="566" y="-119.5" font-family="Helvetica,sans-Serif" font-size="10.00">vector</text>
</g>
<!-- Node2&#45;&gt;Node12 -->
<g id="edge18" class="edge"><title>Node2&#45;&gt;Node12</title>
<path fill="none" stroke="midnightblue" d="M492.85,-235.457C514.673,-229.061 539.06,-218.002 554,-199 566.746,-182.789 568.483,-158.493 567.854,-141.757"/>
<polygon fill="midnightblue" stroke="midnightblue" points="571.331,-141.305 567.146,-131.571 564.348,-141.79 571.331,-141.305"/>
</g>
<!-- Node2&#45;&gt;Node13 -->
<g id="edge12" class="edge"><title>Node2&#45;&gt;Node13</title>
<path fill="none" stroke="midnightblue" d="M411.757,-235.475C369.429,-224.937 297.323,-206.986 250.95,-195.441"/>
<polygon fill="midnightblue" stroke="midnightblue" points="251.729,-192.029 241.179,-193.009 250.038,-198.821 251.729,-192.029"/>
</g>
<!-- Node3&#45;&gt;Node4 -->
<g id="edge3" class="edge"><title>Node3&#45;&gt;Node4</title>
<path fill="none" stroke="midnightblue" d="M441.14,-168.399C420.377,-158.595 392.9,-145.619 372.639,-136.052"/>
<polygon fill="midnightblue" stroke="midnightblue" points="373.871,-132.763 363.334,-131.658 370.882,-139.093 373.871,-132.763"/>
</g>
<!-- Node11 -->
<g id="node11" class="node"><title>Node11</title>
<polygon fill="white" stroke="#bfbfbf" points="424.5,-112.5 424.5,-131.5 517.5,-131.5 517.5,-112.5 424.5,-112.5"/>
<text text-anchor="middle" x="471" y="-119.5" font-family="Helvetica,sans-Serif" font-size="10.00">Eigen/StdVector</text>
</g>
<!-- Node3&#45;&gt;Node11 -->
<g id="edge10" class="edge"><title>Node3&#45;&gt;Node11</title>
<path fill="none" stroke="midnightblue" d="M471,-168.399C471,-160.466 471,-150.458 471,-141.858"/>
<polygon fill="midnightblue" stroke="midnightblue" points="474.5,-141.658 471,-131.658 467.5,-141.658 474.5,-141.658"/>
</g>
<!-- Node3&#45;&gt;Node12 -->
<g id="edge11" class="edge"><title>Node3&#45;&gt;Node12</title>
<path fill="none" stroke="midnightblue" d="M493.514,-168.399C508.599,-158.951 528.385,-146.559 543.473,-137.109"/>
<polygon fill="midnightblue" stroke="midnightblue" points="545.559,-139.932 552.177,-131.658 541.844,-134 545.559,-139.932"/>
</g>
<!-- Node5 -->
<g id="node5" class="node"><title>Node5</title>
<g id="a_node5"><a xlink:href="CoreMacros_8hpp.html" target="_top" xlink:title="Core/CoreMacros.hpp">
<polygon fill="white" stroke="black" points="285,-56.5 285,-75.5 405,-75.5 405,-56.5 285,-56.5"/>
<text text-anchor="middle" x="345" y="-63.5" font-family="Helvetica,sans-Serif" font-size="10.00">Core/CoreMacros.hpp</text>
</a>
</g>
</g>
<!-- Node4&#45;&gt;Node5 -->
<g id="edge4" class="edge"><title>Node4&#45;&gt;Node5</title>
<path fill="none" stroke="midnightblue" d="M345,-112.083C345,-105.006 345,-94.8611 345,-85.9865"/>
<polygon fill="midnightblue" stroke="midnightblue" points="348.5,-85.751 345,-75.7511 341.5,-85.7511 348.5,-85.751"/>
</g>
<!-- Node6 -->
<g id="node6" class="node"><title>Node6</title>
<polygon fill="white" stroke="#bfbfbf" points="182,-0.5 182,-19.5 234,-19.5 234,-0.5 182,-0.5"/>
<text text-anchor="middle" x="208" y="-7.5" font-family="Helvetica,sans-Serif" font-size="10.00">cassert</text>
</g>
<!-- Node5&#45;&gt;Node6 -->
<g id="edge5" class="edge"><title>Node5&#45;&gt;Node6</title>
<path fill="none" stroke="midnightblue" d="M323.292,-56.4435C300.645,-47.5171 264.928,-33.4387 239.248,-23.3168"/>
<polygon fill="midnightblue" stroke="midnightblue" points="240.193,-19.9273 229.606,-19.5164 237.626,-26.4397 240.193,-19.9273"/>
</g>
<!-- Node7 -->
<g id="node7" class="node"><title>Node7</title>
<polygon fill="white" stroke="#bfbfbf" points="252.5,-0.5 252.5,-19.5 297.5,-19.5 297.5,-0.5 252.5,-0.5"/>
<text text-anchor="middle" x="275" y="-7.5" font-family="Helvetica,sans-Serif" font-size="10.00">cstdio</text>
</g>
<!-- Node5&#45;&gt;Node7 -->
<g id="edge6" class="edge"><title>Node5&#45;&gt;Node7</title>
<path fill="none" stroke="midnightblue" d="M333.753,-56.324C323.203,-48.1849 307.199,-35.8395 294.558,-26.0874"/>
<polygon fill="midnightblue" stroke="midnightblue" points="296.507,-23.1707 286.451,-19.8339 292.231,-28.7132 296.507,-23.1707"/>
</g>
<!-- Node8 -->
<g id="node8" class="node"><title>Node8</title>
<polygon fill="white" stroke="#bfbfbf" points="315.5,-0.5 315.5,-19.5 374.5,-19.5 374.5,-0.5 315.5,-0.5"/>
<text text-anchor="middle" x="345" y="-7.5" font-family="Helvetica,sans-Serif" font-size="10.00">iostream</text>
</g>
<!-- Node5&#45;&gt;Node8 -->
<g id="edge7" class="edge"><title>Node5&#45;&gt;Node8</title>
<path fill="none" stroke="midnightblue" d="M345,-56.083C345,-49.0059 345,-38.8611 345,-29.9865"/>
<polygon fill="midnightblue" stroke="midnightblue" points="348.5,-29.751 345,-19.7511 341.5,-29.7511 348.5,-29.751"/>
</g>
<!-- Node9 -->
<g id="node9" class="node"><title>Node9</title>
<polygon fill="white" stroke="#bfbfbf" points="393,-0.5 393,-19.5 449,-19.5 449,-0.5 393,-0.5"/>
<text text-anchor="middle" x="421" y="-7.5" font-family="Helvetica,sans-Serif" font-size="10.00">sstream</text>
</g>
<!-- Node5&#45;&gt;Node9 -->
<g id="edge8" class="edge"><title>Node5&#45;&gt;Node9</title>
<path fill="none" stroke="midnightblue" d="M357.211,-56.324C368.776,-48.1066 386.375,-35.6017 400.161,-25.8069"/>
<polygon fill="midnightblue" stroke="midnightblue" points="402.443,-28.4791 408.567,-19.8339 398.388,-22.7729 402.443,-28.4791"/>
</g>
<!-- Node10 -->
<g id="node10" class="node"><title>Node10</title>
<polygon fill="white" stroke="#bfbfbf" points="467,-0.5 467,-19.5 515,-19.5 515,-0.5 467,-0.5"/>
<text text-anchor="middle" x="491" y="-7.5" font-family="Helvetica,sans-Serif" font-size="10.00">thread</text>
</g>
<!-- Node5&#45;&gt;Node10 -->
<g id="edge9" class="edge"><title>Node5&#45;&gt;Node10</title>
<path fill="none" stroke="midnightblue" d="M368.134,-56.4435C392.482,-47.4381 431.007,-33.1891 458.423,-23.049"/>
<polygon fill="midnightblue" stroke="midnightblue" points="459.809,-26.2681 467.974,-19.5164 457.381,-19.7028 459.809,-26.2681"/>
</g>
<!-- Node13&#45;&gt;Node4 -->
<g id="edge13" class="edge"><title>Node13&#45;&gt;Node4</title>
<path fill="none" stroke="midnightblue" d="M226.772,-173.975C250.136,-163.901 289.214,-147.053 316.003,-135.502"/>
<polygon fill="midnightblue" stroke="midnightblue" points="317.468,-138.682 325.265,-131.509 314.696,-132.254 317.468,-138.682"/>
</g>
<!-- Node14 -->
<g id="node14" class="node"><title>Node14</title>
<polygon fill="white" stroke="#bfbfbf" points="98,-112.5 98,-131.5 166,-131.5 166,-112.5 98,-112.5"/>
<text text-anchor="middle" x="132" y="-119.5" font-family="Helvetica,sans-Serif" font-size="10.00">Eigen/Core</text>
</g>
<!-- Node13&#45;&gt;Node14 -->
<g id="edge14" class="edge"><title>Node13&#45;&gt;Node14</title>
<path fill="none" stroke="midnightblue" d="M196.254,-173.975C184.447,-164.608 165.257,-149.384 150.918,-138.008"/>
<polygon fill="midnightblue" stroke="midnightblue" points="152.735,-134.982 142.726,-131.509 148.385,-140.466 152.735,-134.982"/>
</g>
<!-- Node15 -->
<g id="node15" class="node"><title>Node15</title>
<polygon fill="white" stroke="#bfbfbf" points="184,-112.5 184,-131.5 278,-131.5 278,-112.5 184,-112.5"/>
<text text-anchor="middle" x="231" y="-119.5" font-family="Helvetica,sans-Serif" font-size="10.00">Eigen/Geometry</text>
</g>
<!-- Node13&#45;&gt;Node15 -->
<g id="edge15" class="edge"><title>Node13&#45;&gt;Node15</title>
<path fill="none" stroke="midnightblue" d="M210.439,-173.975C213.896,-165.404 219.332,-151.927 223.746,-140.983"/>
<polygon fill="midnightblue" stroke="midnightblue" points="227.073,-142.092 227.568,-131.509 220.581,-139.474 227.073,-142.092"/>
</g>
<!-- Node16 -->
<g id="node16" class="node"><title>Node16</title>
<polygon fill="white" stroke="#bfbfbf" points="0,-112.5 0,-131.5 80,-131.5 80,-112.5 0,-112.5"/>
<text text-anchor="middle" x="40" y="-119.5" font-family="Helvetica,sans-Serif" font-size="10.00">Eigen/Sparse</text>
</g>
<!-- Node13&#45;&gt;Node16 -->
<g id="edge16" class="edge"><title>Node13&#45;&gt;Node16</title>
<path fill="none" stroke="midnightblue" d="M183.073,-173.975C154.303,-163.725 105.844,-146.459 73.3983,-134.899"/>
<polygon fill="midnightblue" stroke="midnightblue" points="74.4773,-131.568 63.8826,-131.509 72.1279,-138.162 74.4773,-131.568"/>
</g>
<!-- Node17&#45;&gt;Node2 -->
<g id="edge22" class="edge"><title>Node17&#45;&gt;Node2</title>
<path fill="none" stroke="midnightblue" d="M434.312,-291.083C436.167,-283.927 438.835,-273.635 441.154,-264.691"/>
<polygon fill="midnightblue" stroke="midnightblue" points="444.609,-265.309 443.731,-254.751 437.834,-263.553 444.609,-265.309"/>
</g>
<!-- Node17&#45;&gt;Node4 -->
<g id="edge23" class="edge"><title>Node17&#45;&gt;Node4</title>
<path fill="none" stroke="midnightblue" d="M400.851,-291.39C382.715,-284.63 361.266,-273.236 350,-255 328.275,-219.832 334.664,-168.748 340.348,-141.595"/>
<polygon fill="midnightblue" stroke="midnightblue" points="343.83,-142.069 342.656,-131.54 337.007,-140.503 343.83,-142.069"/>
</g>
<!-- Node18 -->
<g id="node18" class="node"><title>Node18</title>
<g id="a_node18"><a xlink:href="Index_8hpp.html" target="_top" xlink:title="Core/Utils/Index.hpp">
<polygon fill="white" stroke="black" points="597.5,-235.5 597.5,-254.5 710.5,-254.5 710.5,-235.5 597.5,-235.5"/>
<text text-anchor="middle" x="654" y="-242.5" font-family="Helvetica,sans-Serif" font-size="10.00">Core/Utils/Index.hpp</text>
</a>
</g>
</g>
<!-- Node17&#45;&gt;Node18 -->
<g id="edge24" class="edge"><title>Node17&#45;&gt;Node18</title>
<path fill="none" stroke="midnightblue" d="M467.177,-291.444C505.579,-282.102 567.176,-267.119 609.055,-256.933"/>
<polygon fill="midnightblue" stroke="midnightblue" points="610.099,-260.281 618.988,-254.516 608.444,-253.479 610.099,-260.281"/>
</g>
<!-- Node19 -->
<g id="node19" class="node"><title>Node19</title>
<polygon fill="white" stroke="#bfbfbf" points="725,-174 725,-193 767,-193 767,-174 725,-174"/>
<text text-anchor="middle" x="746" y="-181" font-family="Helvetica,sans-Serif" font-size="10.00">limits</text>
</g>
<!-- Node18&#45;&gt;Node19 -->
<g id="edge25" class="edge"><title>Node18&#45;&gt;Node19</title>
<path fill="none" stroke="midnightblue" d="M667.181,-235.475C682.074,-225.843 706.544,-210.017 724.273,-198.552"/>
<polygon fill="midnightblue" stroke="midnightblue" points="726.347,-201.379 732.843,-193.009 722.545,-195.501 726.347,-201.379"/>
</g>
<!-- Node20 -->
<g id="node20" class="node"><title>Node20</title>
<g id="a_node20"><a xlink:href="Index_8inl.html" target="_top" xlink:title="Core/Utils/Index.inl">
<polygon fill="white" stroke="black" points="601.5,-174 601.5,-193 706.5,-193 706.5,-174 601.5,-174"/>
<text text-anchor="middle" x="654" y="-181" font-family="Helvetica,sans-Serif" font-size="10.00">Core/Utils/Index.inl</text>
</a>
</g>
</g>
<!-- Node18&#45;&gt;Node20 -->
<g id="edge26" class="edge"><title>Node18&#45;&gt;Node20</title>
<path fill="none" stroke="midnightblue" d="M654,-235.475C654,-227.08 654,-213.981 654,-203.163"/>
<polygon fill="midnightblue" stroke="midnightblue" points="657.5,-203.009 654,-193.009 650.5,-203.009 657.5,-203.009"/>
</g>
<!-- Node21&#45;&gt;Node1 -->
<g id="edge28" class="edge"><title>Node21&#45;&gt;Node1</title>
<path fill="none" stroke="midnightblue" d="M571.343,-310.652C545.948,-319.242 503.627,-332.774 466.009,-344.425"/>
<polygon fill="midnightblue" stroke="midnightblue" points="464.575,-341.204 456.052,-347.498 466.64,-347.893 464.575,-341.204"/>
</g>
</g>
</svg>
